<svg fill="none" height="48" viewBox="0 0 163 48" width="163" xmlns="http://www.w3.org/2000/svg"><circle cx="24" cy="24" fill="#1565c0" r="24"/><path d="m16.5517 27.0894c.3353.578.956.9379 1.6195.9379 1.0347 0 1.8762-.8419 1.8762-1.8767 0-.3312-.0856-.6549-.2485-.9362-.6059-1.048-.9259-2.2401-.9259-3.4483 0-3.8055 3.0956-6.9018 6.9017-6.9018 1.0339 0 1.875-.8415 1.875-1.8761 0-1.0342-.8388-1.8758-1.8692-1.8758-5.8769 0-10.6579 4.7794-10.6579 10.6537 0 1.8654.4941 3.7062 1.4291 5.3233z" fill="#fff"/><path d="m20.1214 21.7661c0-1.6393.6977-3.1153 1.8123-4.1477-.0963 1.1668.471 2.3392 1.5527 2.9636.4835.2797 1.0209.4212 1.5594.4212.961-.0006 1.9336.2395 2.8246.754 1.4202.8201 2.3496 2.1623 2.6866 3.644-.9629-.6668-2.2624-.7621-3.3432-.1378-.4845.2793-.8748.6734-1.1445 1.1393-.48.834-1.1743 1.5558-2.0658 2.0702-1.4199.8191-3.0468.9531-4.498.5048 1.0578-.5012 1.7898-1.5783 1.7898-2.8271 0-.5582-.1458-1.0946-.4147-1.5606-.4812-.8325-.7592-1.7954-.7592-2.8239z" fill="#fff"/><path d="m32.6497 32.919c-.3282 0-.6536-.0871-.9412-.2535-.896-.5174-1.2047-1.6662-.6869-2.5617 1.9016-3.296.7688-7.5251-2.5266-9.4281-1.0443-.6028-2.2349-.9215-3.4434-.9215-.3308 0-.6539-.0876-.9419-.2535-.8953-.5176-1.2026-1.6673-.6858-2.5631.3311-.574.9528-.9317 1.6219-.9332 1.8704 0 3.7097.4925 5.3242 1.4244 2.463 1.4223 4.2256 3.7202 4.9622 6.471.7364 2.7499.3582 5.6216-1.0647 8.0858-.332.5758-.9529.9334-1.6178.9334z" fill="#fff"/><path d="m11.9477 28.8985c1.897 3.2878 5.4384 5.3307 9.2413 5.3307 1.8586 0 3.696-.4939 5.3142-1.428 1.6157-.933 2.9621-2.2812 3.8942-3.8984.3337-.5788.3354-1.2963.0033-1.8714-.4976-.8617-1.6944-1.1893-2.5623-.6865-.2868.165-.5241.4008-.6873.6821-.6047 1.0495-1.4768 1.9234-2.5238 2.5272-1.0487.6053-2.2403.9255-3.4442.9255-2.4609 0-4.7536-1.3226-5.9837-3.4518-.4959-.8611-1.6921-1.1873-2.5619-.6851-.8955.5165-1.2055 1.6633-.6898 2.5557z" fill="#fff"/><path d="m60 0h1v48h-1z" fill="#e0e0e0"/><g fill="#212121"><path clip-rule="evenodd" d="m74.8 8v14h3v-4.6h2.96c.9467 0 1.7933-.2067 2.54-.62.76-.4133 1.3467-.9733 1.76-1.68.4267-.72.64-1.52.64-2.4s-.2133-1.6733-.64-2.38c-.4133-.72-1-1.28667-1.76-1.7-.7467-.41333-1.5933-.62-2.54-.62zm7.3 6.12c-.3867.3867-.8667.58-1.44.58h-2.86v-4h2.86c.5733 0 1.0533.2 1.44.6.4.3867.6.8533.6 1.4s-.2 1.02-.6 1.42z" fill-rule="evenodd"/><path d="m87.2008 22v-14h2.7v5.68h.06c.24-.4.6133-.76 1.12-1.08.52-.3333 1.1133-.5 1.78-.5.7066 0 1.3333.1667 1.88.5.5466.3333.9733.8133 1.28 1.44.32.6133.48 1.3467.48 2.2v5.76h-2.7v-5.4c0-.6-.1667-1.0733-.5-1.42-.3334-.36-.7667-.54-1.3-.54-.6134 0-1.12.2133-1.52.64-.3867.4133-.58.9533-.58 1.62v5.1z"/><path clip-rule="evenodd" d="m104.595 12.62c-.64-.3467-1.373-.52-2.2-.52-.853 0-1.62.1867-2.3.56-.6664.36-1.213.7933-1.6397 1.3l1.54 1.48c.6797-.76 1.4337-1.14 2.2597-1.14.48 0 .874.14 1.18.42.32.2667.494.5933.52.98l-3.06.58c-.9597.1867-1.6997.5467-2.2197 1.08s-.78 1.2133-.78 2.04c0 .4933.14.96.42 1.4.28.4267.66.7667 1.14 1.02.4933.2533 1.0467.38 1.6597.38.667 0 1.26-.16 1.78-.48s.9-.6733 1.14-1.06h.06v1.34h2.56v-6.1c0-.6933-.18-1.3267-.54-1.9-.36-.5867-.866-1.0467-1.52-1.38zm-1.24 6.8c-.386.4133-.873.62-1.46.62-.386 0-.693-.0933-.92-.28-.213-.2-.32-.4533-.32-.76 0-.2533.107-.48.32-.68.214-.2133.507-.3533.88-.42l2.1-.42v.32c0 .6667-.2 1.2067-.6 1.62z" fill-rule="evenodd"/><path d="m108.659 22v-9.7h2.7v1.2h.06c.24-.36.6-.68 1.08-.96.494-.2933 1.047-.44 1.66-.44h.46v2.9c-.32-.1067-.62-.16-.9-.16-.693 0-1.26.24-1.7.72-.44.4667-.66 1.0933-.66 1.88v4.56z"/><path d="m115.816 12.3v9.7h2.7v-5.2c0-.6667.173-1.1933.52-1.58.346-.3867.793-.58 1.34-.58.466 0 .846.1667 1.14.5.306.32.46.7733.46 1.36v5.5h2.7v-5.2c0-.6667.173-1.1933.52-1.58.346-.3867.786-.58 1.32-.58.466 0 .846.1667 1.14.5.306.32.46.7733.46 1.36v5.5h2.7v-5.76c0-.84-.154-1.5733-.46-2.2-.307-.6267-.72-1.1067-1.24-1.44-.507-.3333-1.074-.5-1.7-.5-.774 0-1.46.1733-2.06.52-.587.3333-.994.7067-1.22 1.12h-.08c-.2-.4133-.547-.7867-1.04-1.12-.494-.3467-1.074-.52-1.74-.52-.654 0-1.22.1667-1.7.5-.48.32-.814.68-1 1.08h-.06v-1.38z"/><path clip-rule="evenodd" d="m136.716 12.1c.826 0 1.56.1733 2.2.52.653.3333 1.16.7933 1.52 1.38.36.5733.54 1.2067.54 1.9v6.1h-2.56v-1.34h-.06c-.24.3867-.62.74-1.14 1.06s-1.114.48-1.78.48c-.614 0-1.167-.1267-1.66-.38-.48-.2533-.86-.5933-1.14-1.02-.28-.44-.42-.9067-.42-1.4 0-.8267.26-1.5067.78-2.04s1.26-.8933 2.22-1.08l3.06-.58c-.027-.3867-.2-.7133-.52-.98-.307-.28-.7-.42-1.18-.42-.827 0-1.58.38-2.26 1.14l-1.54-1.48c.426-.5067.973-.94 1.64-1.3.68-.3733 1.446-.56 2.3-.56zm-.5 7.94c.586 0 1.073-.2067 1.46-.62.4-.4133.6-.9533.6-1.62v-.32l-2.1.42c-.374.0667-.667.2067-.88.42-.214.2-.32.4267-.32.68 0 .3067.106.56.32.76.226.1867.533.28.92.28z" fill-rule="evenodd"/><path clip-rule="evenodd" d="m154.694 21.52c.8.4533 1.68.68 2.64.68.973 0 1.853-.2267 2.64-.68.8-.4533 1.426-1.0667 1.88-1.84.453-.7733.68-1.62.68-2.54s-.227-1.7667-.68-2.54c-.454-.7733-1.08-1.38-1.88-1.82-.787-.4533-1.667-.68-2.64-.68-.96 0-1.84.2267-2.64.68-.787.44-1.414 1.0467-1.88 1.82-.454.7733-.68 1.62-.68 2.54s.226 1.7667.68 2.54c.466.7733 1.093 1.3867 1.88 1.84zm4.38-2.56c-.48.4933-1.06.74-1.74.74s-1.26-.2467-1.74-.74c-.467-.4933-.7-1.1-.7-1.82s.233-1.32.7-1.8c.48-.4933 1.06-.74 1.74-.74s1.26.2467 1.74.74c.48.48.72 1.08.72 1.8s-.24 1.3267-.72 1.82z" fill-rule="evenodd"/><path d="m141.784 22h3.02l2.02-3.28h.06l2.02 3.28h3.12l-3.32-5 3.08-4.7h-3.02l-1.78 2.96h-.06l-1.76-2.96h-3.12l3.08 4.7z"/><path clip-rule="evenodd" d="m143.68 39.16c-.694 0-1.334-.176-1.921-.528-.586-.3627-1.056-.848-1.407-1.456-.352-.608-.528-1.28-.528-2.016 0-.7467.17-1.424.512-2.032.341-.608.8-1.088 1.376-1.44.575-.352 1.205-.528 1.888-.528.671 0 1.28.1653 1.824.496.554.3307.992.7947 1.312 1.392s.479 1.2693.479 2.016c0 .1707-.01.3413-.031.512h-6.24c.053.4693.208.896.464 1.28.255.384.581.688.975.912.406.224.848.336 1.329.336.885 0 1.669-.384 2.351-1.152l.752.688c-.341.4267-.773.7893-1.295 1.088-.523.288-1.136.432-1.84.432zm2.432-4.528c-.096-.7467-.369-1.3387-.816-1.776-.448-.448-1.014-.672-1.696-.672-.448 0-.87.112-1.264.336-.385.2133-.704.5067-.96.88-.246.3733-.395.784-.449 1.232z" fill-rule="evenodd"/><path d="m136.433 31.32h-1.088v7.68h1.088v-4.16c0-.4907.107-.9333.32-1.328.224-.3947.523-.704.896-.928.374-.224.784-.336 1.232-.336.15 0 .299.0107.448.032v-1.12h-.352c-.576 0-1.093.1387-1.552.416-.448.2773-.773.592-.976.944h-.016z"/><path clip-rule="evenodd" d="m130.295 31.16c.586 0 1.104.128 1.552.384.458.256.816.6133 1.072 1.072.256.448.384.9653.384 1.552v4.832h-1.04v-1.232h-.016c-.203.352-.544.672-1.024.96s-1.03.432-1.648.432c-.502 0-.95-.1013-1.344-.304-.384-.2027-.688-.4693-.912-.8-.214-.3413-.32-.704-.32-1.088 0-.6187.213-1.136.64-1.552.426-.4267 1.029-.704 1.808-.832l2.784-.464v-.016c0-.576-.182-1.04-.544-1.392-.352-.352-.816-.528-1.392-.528-.448 0-.843.1013-1.184.304-.331.192-.651.448-.96.768l-.72-.688c.32-.3947.725-.7253 1.216-.992.49-.2773 1.04-.416 1.648-.416zm-.608 7.008c.469 0 .896-.112 1.28-.336.394-.224.704-.528.928-.912.224-.3947.336-.832.336-1.312v-.544l-2.528.416c-.544.096-.95.2667-1.216.512-.267.2453-.4.5493-.4.912 0 .352.144.6507.432.896.298.2453.688.368 1.168.368z" fill-rule="evenodd"/><path d="m121.022 38.632c.597.352 1.242.528 1.936.528.704 0 1.328-.16 1.872-.48.554-.32.986-.6933 1.296-1.12l-.8-.656c-.267.3307-.598.6133-.992.848-.395.2347-.854.352-1.376.352-.502 0-.966-.128-1.392-.384-.416-.256-.752-.608-1.008-1.056-.246-.4587-.368-.96-.368-1.504s.122-1.04.368-1.488c.256-.4587.592-.816 1.008-1.072.426-.256.89-.384 1.392-.384.928 0 1.706.3893 2.336 1.168l.8-.656c-.31-.416-.736-.7787-1.28-1.088-.534-.32-1.152-.48-1.856-.48-.694 0-1.339.1813-1.936.544-.587.352-1.056.832-1.408 1.44-.342.608-.512 1.28-.512 2.016s.17 1.408.512 2.016c.352.608.821 1.0933 1.408 1.456z"/><path d="m110.875 39v-11.2h1.088v4.752h.016c.203-.3627.528-.6827.976-.96.459-.288.971-.432 1.536-.432.587 0 1.115.1387 1.584.416.47.2773.838.6667 1.104 1.168.267.5013.4 1.0773.4 1.728v4.528h-1.088v-4.528c0-.672-.202-1.216-.608-1.632-.394-.416-.901-.624-1.52-.624-.448 0-.853.112-1.216.336-.362.2133-.65.512-.864.896-.213.384-.32.816-.32 1.296v4.256z"/><path d="m106.692 38.504c.374.384.896.576 1.568.576.214 0 .422-.0267.624-.08.203-.0427.368-.096.496-.16v-1.056c-.341.16-.666.24-.976.24-.362 0-.65-.112-.864-.336-.202-.224-.304-.544-.304-.96v-4.352h1.888v-1.056h-1.888v-2.56h-.976v1.824c0 .2453-.058.432-.176.56-.106.1173-.256.176-.448.176h-.976v1.056h1.488v4.416c0 .7467.182 1.3173.544 1.712z"/><path d="m103.279 39h-1.088v-11.2h1.088z"/><path clip-rule="evenodd" d="m98.6121 31.544c-.448-.256-.9653-.384-1.552-.384-.608 0-1.1573.1387-1.648.416-.4906.2667-.896.5973-1.216.992l.72.688c.3094-.32.6294-.576.96-.768.3414-.2027.736-.304 1.184-.304.576 0 1.04.176 1.392.528.3627.352.544.816.544 1.392v.016l-2.784.464c-.7786.128-1.3813.4053-1.808.832-.4266.416-.64.9333-.64 1.552 0 .384.1067.7467.32 1.088.224.3307.528.5973.912.8.3947.2027.8427.304 1.344.304.6187 0 1.168-.144 1.648-.432s.8214-.608 1.024-.96h.016v1.232h1.0399v-4.832c0-.5867-.1279-1.104-.3839-1.552-.256-.4587-.6133-.816-1.072-1.072zm-.88 6.288c-.384.224-.8106.336-1.28.336-.48 0-.8693-.1227-1.168-.368-.288-.2453-.432-.544-.432-.896 0-.3627.1334-.6667.4-.912.2667-.2453.672-.416 1.216-.512l2.528-.416v.544c0 .48-.112.9173-.336 1.312-.224.384-.5333.688-.928.912z" fill-rule="evenodd"/><path clip-rule="evenodd" d="m89.2389 39.16c-.6934 0-1.3334-.176-1.92-.528-.5867-.3627-1.056-.848-1.408-1.456s-.528-1.28-.528-2.016c0-.7467.1706-1.424.512-2.032.3413-.608.8-1.088 1.376-1.44s1.2053-.528 1.888-.528c.672 0 1.28.1653 1.824.496.5546.3307.992.7947 1.312 1.392s.48 1.2693.48 2.016c0 .1707-.0107.3413-.032.512h-6.24c.0533.4693.208.896.464 1.28s.5813.688.976.912c.4053.224.848.336 1.328.336.8853 0 1.6693-.384 2.352-1.152l.752.688c-.3414.4267-.7734.7893-1.296 1.088-.5227.288-1.136.432-1.84.432zm2.432-4.528c-.096-.7467-.368-1.3387-.816-1.776-.448-.448-1.0134-.672-1.696-.672-.448 0-.8694.112-1.264.336-.384.2133-.704.5067-.96.88-.2454.3733-.3947.784-.448 1.232z" fill-rule="evenodd"/><path d="m74.696 39h1.2v-5.12h6.272v5.12h1.2v-11.2h-1.2v4.96h-6.272v-4.96h-1.2z"/></g></svg>