<svg fill="none" height="48" viewBox="0 0 256 48" width="256" xmlns="http://www.w3.org/2000/svg"><g fill="#fff"><path d="m35.1268 17.4c-2.5946-2.9-5.9875-5.4-11.1767-5.4s-8.5821 2.5-11.1767 5.5c.7848.9294 1.4675 1.961 2.1212 2.9487.2607.3938.5167.7807.7728 1.1513.0998.2.2245.375.3492.55.1248.175.2495.35.3493.55 2.0956-2.9 4.1913-4.9 7.4844-4.9s5.3888 2 7.4844 4.9c.0535.0804.0998.1536.1428.2215.1174.1857.2101.3321.3562.4785.0535.0804.0998.1536.1428.2215.1174.1857.21.3321.3561.4785.2961.3708.5373.7417.8049 1.1533.0933.1434.1897.2917.2929.4467.1581.2376.3162.4792.4758.7231.6465.9879 1.3185 2.0145 2.1187 2.9769.0998.1.1747.2.2495.3.0749.1.1497.2.2495.3s.1746.2.2495.3c.0748.1.1497.2.2495.3 2.0956 2.3 4.4906 4.3 7.8835 5.1-4.0914 7.3-11.975 12.3-20.9563 12.3s-16.86486-5-20.95634-12.4c3.39293-.8 5.88774-2.8 7.88354-5.1-.5948-.775-1.11879-1.5499-1.6141-2.2825-.33559-.4963-.65802-.9732-.98046-1.4175-.16662-.2505-.33324-.4835-.4926-.7064-.22242-.311-.4307-.6023-.60511-.8936-1.89605 2.4-3.7921 3.8-6.586277 4-.399169-1.6-.598753-3.4-.598753-5.2s.199584-3.6.49896-5.2c2.79418.2 4.69023 1.7 6.58628 4 .09979.1.17464.2.24948.3s.14969.2.24948.3.17464.2.24948.3.14969.2.24948.3c.31142.3745.58397.7879.86617 1.216.16994.2578.34338.5209.53092.784.23107.3308.46213.6835.70045 1.0471.4821.7358.9937 1.5168 1.5948 2.2529.0998.1.1746.2.2494.3.0749.1.1497.2.2495.3s.1747.2.2495.3c.0749.1.1497.2.2495.3 2.5946 2.9 5.9875 5.4 11.1767 5.4s8.6819-2.5 11.1767-5.4c-.7848-.9294-1.4675-1.961-2.1212-2.9487-.2607-.3938-.5167-.7807-.7728-1.1513-.0997-.2-.2245-.375-.3492-.55-.1248-.175-.2495-.35-.3493-.55-2.0956 2.9-4.1913 4.9-7.4844 4.9s-5.3888-2-7.4844-4.9c-.0535-.0804-.0998-.1536-.1428-.2215-.1174-.1857-.2101-.3321-.3562-.4785-.0534-.0804-.0998-.1536-.1428-.2215-.1174-.1857-.21-.3321-.3561-.4785-.2961-.3708-.5372-.7417-.8049-1.1533-.0933-.1434-.1897-.2917-.2928-.4467-.1582-.2377-.3163-.4792-.4759-.7232-.6465-.9878-1.3185-2.0145-2.1187-2.9768-.0998-.1-.1747-.2-.2495-.3-.0749-.1-.1497-.2-.2495-.3s-.1746-.2-.2495-.3c-.0748-.1-.1497-.2-.2495-.3-2.0956-2.3-4.49061-4.3-7.88354-5.1 4.09148-7.3 11.97504-12.3 20.95634-12.3s16.8649 5 21.0561 12.3c-3.3929.8-5.8877 2.8-7.8835 5.1.5948.775 1.1188 1.5499 1.6141 2.2825.3356.4963.658.9732.9805 1.4175.1666.2505.3332.4835.4926.7064.2224.311.4307.6023.6051.8936 1.896-2.4 3.7921-3.8 6.5862-4 .3992 1.6.5988 3.4.5988 5.2s-.1996 3.5-.5988 5.2c-2.7941-.2-4.6902-1.7-6.5862-4-.0998-.1-.1747-.2-.2495-.3-.0749-.1-.1497-.2-.2495-.3s-.1746-.2-.2495-.3c-.0748-.1-.1497-.2-.2495-.3-.3114-.3745-.5839-.7879-.8661-1.216-.17-.2578-.3434-.5209-.5309-.784-.2311-.3308-.4622-.6835-.7005-1.0472-.4821-.7358-.9937-1.5167-1.5948-2.2528-.0998-.1-.1746-.2-.2494-.3-.0749-.1-.1497-.2-.2495-.3s-.1747-.2-.2495-.3-.1497-.2-.2495-.3z"/><path d="m81.1449 33.6h4.3568v-15.7091h-4.3568z"/><path d="m83.3335 15.8659c1.2989 0 2.3626-.9921 2.3626-2.2091 0-1.2068-1.0637-2.1989-2.3626-2.1989-1.2886 0-2.3522.9921-2.3522 2.1989 0 1.217 1.0636 2.2091 2.3522 2.2091z"/><path d="m54.6205 12.6545v20.9455h4.2954v-13.6841h.1739l5.4205 13.5818h2.925l5.4204-13.5307h.1739v13.633h4.2954v-20.9455h-5.4613l-5.7682 14.0727h-.2455l-5.7682-14.0727z"/><path d="m103.105 27.842c-.204 3.6102-2.833 6.0648-7.0155 6.0648-4.8375 0-7.7318-3.3239-7.7318-8.1 0-4.8171 2.9455-8.1205 7.7114-8.1205 4.1009 0 6.8519 2.383 7.0359 6.0137h-4.1109c-.2353-1.5648-1.258-2.6182-2.8534-2.6182-2.025 0-3.3546 1.6977-3.3546 4.6636 0 3.0068 1.3193 4.7148 3.3546 4.7148 1.4931 0 2.5977-.9409 2.8534-2.6182z"/><path d="m105.895 33.6h4.357v-8.8875c.01-1.9228 1.401-3.2421 3.16-3.2421.593 0 1.074.1637 1.483.3682l1.309-3.6c-.573-.3477-1.309-.5727-2.148-.5727-1.769 0-3.201 1.0227-3.774 2.9659h-.163v-2.7409h-4.224z"/><g clip-rule="evenodd" fill-rule="evenodd"><path d="m132.34 25.8068c0 4.8375-2.966 8.1-7.732 8.1s-7.732-3.2625-7.732-8.1c0-4.8682 2.966-8.1205 7.732-8.1205s7.732 3.2523 7.732 8.1205zm-11.035-.0307c0 2.7409 1.125 4.7557 3.324 4.7557 2.158 0 3.283-2.0148 3.283-4.7557s-1.125-4.7659-3.283-4.7659c-2.199 0-3.324 2.025-3.324 4.7659z"/><path d="m142.25 39.7159c4.49 0 7.681-2.0455 7.681-5.9625v-15.8625h-4.326v2.6386h-.164c-.583-1.2784-1.861-2.8432-4.49-2.8432-3.446 0-6.361 2.6796-6.361 8.0284 0 5.2262 2.833 7.6603 6.372 7.6603 2.505 0 3.906-1.258 4.479-2.5569h.184v2.8739c0 2.0557-1.38 2.8943-3.272 2.8943-1.923 0-2.895-.8386-3.253-1.6875l-4.029.5421c.521 2.3727 2.945 4.275 7.179 4.275zm.092-9.6137c-2.137 0-3.303-1.6977-3.303-4.4079 0-2.6693 1.145-4.5409 3.303-4.5409 2.117 0 3.304 1.7897 3.304 4.5409 0 2.7716-1.207 4.4079-3.304 4.4079z"/><path d="m167.675 29.1c-.613 2.9147-3.232 4.8068-7.118 4.8068-4.837 0-7.793-3.1091-7.793-8.0898 0-4.8477 2.997-8.1307 7.619-8.1307 4.153 0 7.384 2.6387 7.384 7.9773v1.1966h-10.697v.0102c0 2.3421 1.38 3.7841 3.559 3.7841 1.452 0 2.577-.6239 3.017-1.8204zm-7.22-8.1614c-1.933 0-3.293 1.4318-3.385 3.2216h6.596c-.01-1.8716-1.319-3.2216-3.211-3.2216z"/></g><path d="m174.967 24.5181c.011-2.025 1.217-3.2113 2.976-3.2113 1.749 0 2.803 1.1454 2.793 3.0682v9.225h4.356v-10.0023c0-3.6614-2.147-5.9114-5.42-5.9114-2.332 0-4.019 1.1455-4.725 2.9762h-.184v-2.7716h-4.152v15.7091h4.356z"/><path clip-rule="evenodd" d="m202.803 29.1c-.613 2.9147-3.231 4.8068-7.118 4.8068-4.837 0-7.793-3.1091-7.793-8.0898 0-4.8477 2.997-8.1307 7.619-8.1307 4.153 0 7.384 2.6387 7.384 7.9773v1.1966h-10.697v.0102c0 2.3421 1.38 3.7841 3.559 3.7841 1.452 0 2.577-.6239 3.017-1.8204zm-7.22-8.1614c-1.933 0-3.293 1.4318-3.385 3.2216h6.596c-.01-1.8716-1.319-3.2216-3.211-3.2216z" fill-rule="evenodd"/><path d="m214.094 17.8909h-2.955v-3.7637h-4.357v3.7637h-2.148v3.2727h2.148v8.1818c-.021 3.0784 2.076 4.6023 5.236 4.4693 1.125-.0409 1.923-.2659 2.363-.4091l-.686-3.242c-.026.005-.055.0109-.088.0174-.238.0469-.636.1258-.996.1258-.869 0-1.472-.3273-1.472-1.5341v-7.6091h2.955z"/><path d="m221.289 33.6h-4.357v-15.7091h4.357z"/><path d="m221.484 13.6568c0 1.217-1.064 2.2091-2.363 2.2091-1.289 0-2.352-.9921-2.352-2.2091 0-1.2068 1.063-2.1989 2.352-2.1989 1.299 0 2.363.9921 2.363 2.1989z"/><path d="m231.877 33.9068c4.183 0 6.811-2.4546 7.016-6.0648h-4.111c-.256 1.6773-1.361 2.6182-2.854 2.6182-2.035 0-3.354-1.708-3.354-4.7148 0-2.9659 1.329-4.6636 3.354-4.6636 1.596 0 2.618 1.0534 2.854 2.6182h4.111c-.184-3.6307-2.935-6.0137-7.036-6.0137-4.766 0-7.712 3.3034-7.712 8.1205 0 4.7761 2.895 8.1 7.732 8.1z"/><path d="m248.064 17.6863c3.968 0 6.3 1.7898 6.689 4.6841l-3.989.2455c-.215-1.0125-1.115-1.8409-2.628-1.8409-1.35 0-2.414.6136-2.404 1.5545-.01.7568.532 1.258 1.995 1.575l2.843.5727c3.048.6239 4.531 1.9841 4.541 4.2546-.01 3.0988-2.925 5.175-6.996 5.175-4.162 0-6.719-1.8512-7.128-4.858l4.285-.225c.266 1.2784 1.299 1.9432 2.854 1.9432 1.523 0 2.536-.6648 2.556-1.5954-.02-.7875-.644-1.2887-2.014-1.5648l-2.721-.5421c-3.068-.6136-4.551-2.1375-4.541-4.4897-.01-3.0273 2.639-4.8887 6.658-4.8887z"/></g></svg>