<svg fill="none" height="48" viewBox="0 0 48 48" width="48" xmlns="http://www.w3.org/2000/svg"><path clip-rule="evenodd" d="m48 0h-48v48h48zm-18.4366 20.7c-1.2973-1.45-2.9937-2.7-5.5883-2.7s-4.2911 1.25-5.5884 2.75c.5488.65.9979 1.4 1.447 2.05.0688.1379.1612.2519.2447.3749.0377.0556.0736.1129.1046.1751 1.0477-1.45 2.0956-2.45 3.7422-2.45s2.6943 1 3.7422 2.45c.0998.15.1496.25.2495.35.0519.0781.0903.1425.1292.2006.0359.0535.0723.1015.1202.1494.148.1855.2686.3709.4025.5768.0467.0717.0949.1458.1464.2232.0791.1189.1582.2398.2382.3619.3231.4938.659 1.007 1.0591 1.4881.0692.0693.1143.1386.1688.208.0241.0307.05.0614.0807.092.0459.046.0811.092.1157.1381.0405.0539.0798.1079.1338.1619 1.0477 1.15 2.2452 2.15 3.9417 2.55-2.0457 3.65-5.9875 6.15-10.4781 6.15-4.4907 0-8.4325-2.5-10.4783-6.2 1.6966-.4 2.944-1.4 3.9419-2.55-.499-.65-.8982-1.3-1.2973-1.85-.0834-.1252-.1668-.2418-.2465-.3532-.1111-.1556-.2152-.3012-.3024-.4468-.948 1.2-1.8961 1.9-3.2932 2-.1996-.8-.2993-1.7-.2993-2.6s.0997-1.8.2495-2.6c1.3971.1 2.3451.85 3.2931 2 .0516.0517.0898.1033.1285.1549.0362.0484.0728.0967.121.1451.0498.0499.0872.0998.1245.1497.0375.0502.075.1003.125.1503.2494.3.449.65.6985 1 .3493.5.6986 1.1 1.1476 1.65.0427.0427.0763.0855.1085.1282.0431.0572.0839.1145.141.1718.0999.1.1497.2.2495.3 1.2973 1.45 2.9938 2.7 5.5884 2.7s4.3409-1.25 5.5883-2.7c-.3926-.465-.7341-.9811-1.0611-1.4751-.1301-.1967-.258-.3899-.3858-.5749-.0556-.1113-.1265-.207-.1957-.3044-.0552-.0779-.1093-.1568-.1536-.2456-1.0478 1.45-2.0957 2.45-3.7423 2.45-1.6465 0-2.6943-1-3.7422-2.45-.0266-.04-.0497-.0764-.071-.1102-.0589-.093-.1053-.1664-.1785-.2398-.0266-.0401-.0497-.0766-.0712-.1105-.0588-.0929-.1051-.1662-.1782-.2395-.1478-.1852-.2683-.3704-.402-.576-.0467-.0719-.0951-.1462-.1468-.224-.0791-.1189-.1582-.2397-.2381-.3617-.3232-.4939-.6591-1.0072-1.0593-1.4883-.0498-.0499-.0871-.0998-.1245-.1497-.0375-.0502-.0749-.1003-.125-.1503-.0499-.05-.0874-.1001-.1249-.1501-.0373-.05-.0747-.0999-.1245-.1499-1.0478-1.15-2.2453-2.15-3.9419-2.55 2.0458-3.65 5.9876-6.15 10.4783-6.15 4.4906 0 8.4324 2.5 10.5281 6.15-1.6966.4-2.944 1.4-3.9419 2.55.2976.3875.5597.7751.8074 1.1416.1677.248.3288.4864.4899.7084.0833.125.1665.2415.2461.3528.1112.1557.2155.3014.3028.4472.948-1.2 1.8961-1.9 3.2932-2 .1996.8.2993 1.7.2993 2.6s-.0997 1.75-.2993 2.6c-1.3971-.1-2.3452-.85-3.2932-2-.0998-.1-.1497-.2-.2495-.3-.05-.05-.0874-.1001-.1249-.1501-.0374-.05-.0747-.0999-.1245-.1499-.2495-.3-.4491-.65-.6986-1-.1155-.1653-.231-.3416-.35-.5234-.2411-.3679-.497-.7584-.7976-1.1266-.0999-.1-.1497-.2-.2495-.3s-.1497-.2-.2495-.3z" fill="#000" fill-rule="evenodd"/></svg>