<svg fill="none" height="48" viewBox="0 0 256 48" width="256" xmlns="http://www.w3.org/2000/svg"><path d="m23.9501 12c5.1892 0 8.5821 2.5 11.1767 5.4.1996.2.2994.4.499.6s.2994.4.4989.6c.8982 1.1 1.5967 2.3 2.2953 3.3.4989.7.8981 1.4 1.397 2 .1996.2.2994.4.499.6s.2994.4.499.6c1.896 2.3 3.7921 3.8 6.5862 4 .3992-1.7.5988-3.4.5988-5.2s-.1996-3.6-.5988-5.2c-2.7941.2-4.6902 1.6-6.5862 4-.2994-.5-.6986-1-1.0977-1.6-.7984-1.1-1.5967-2.4-2.5946-3.7 1.9958-2.3 4.4906-4.3 7.8835-5.1-4.1912-7.3-12.0748-12.3-21.0561-12.3s-16.86486 5-20.95634 12.3c3.39293.8 5.78794 2.8 7.88354 5.1.1996.2.2994.4.499.6s.2994.4.499.6c.9979 1.2 1.7962 2.5 2.5946 3.7.3991.6.6985 1.1 1.0977 1.6.1996.2.2993.4.4989.7.1996.2.2994.4.499.7 2.0956 2.9 4.1913 4.9 7.4844 4.9 3.2931 0 5.3888-2 7.4844-4.9.1996.4.499.7.6985 1.1.8982 1.3 1.7963 2.8 2.894 4.1-2.4948 2.9-5.9875 5.4-11.1767 5.4s-8.5821-2.5-11.1767-5.4c-.1996-.2-.2994-.4-.499-.6s-.2993-.4-.4989-.6c-.8982-1.1-1.5967-2.3-2.29525-3.3-.49896-.7-.89813-1.4-1.39709-2-.19958-.2-.29938-.4-.49896-.6s-.29938-.4-.49896-.6c-1.89605-2.3-3.7921-3.8-6.58628-4-.299376 1.6-.49896 3.4-.49896 5.2s.199584 3.6.598753 5.2c2.794177-.2 4.690227-1.6 6.586277-4 .29938.5.69855 1 1.09771 1.6.79834 1.1 1.59668 2.4 2.59456 3.7-1.9958 2.3-4.49061 4.3-7.88354 5.1 4.09148 7.4 11.97504 12.4 20.95634 12.4s16.8649-5 20.9563-12.3c-3.3929-.8-5.7879-2.8-7.8835-5.1-.1996-.2-.2994-.4-.499-.6s-.2994-.4-.499-.6c-.9979-1.2-1.7962-2.5-2.5945-3.7-.3992-.6-.6986-1.1-1.0978-1.6-.1995-.2-.2993-.4-.4989-.7-.1996-.2-.2994-.4-.499-.7-2.0956-2.9-4.1912-4.9-7.4844-4.9-3.2931 0-5.3888 2-7.4844 4.9-.1996-.4-.499-.7-.6985-1.1-.8982-1.3-1.7963-2.8-2.894-4.1 2.5946-3 5.9875-5.5 11.1767-5.5z" fill="#ff1744"/><g fill="#fff"><path d="m54.6204 12.6545v20.9455h4.2954v-13.6841h.1739l5.4204 13.5818h2.925l5.4205-13.5307h.1739v13.633h4.2954v-20.9455h-5.4614l-5.7681 14.0727h-.2455l-5.7682-14.0727z"/><path d="m81.1448 33.6h4.3568v-15.7091h-4.3568zm2.1886-17.7341c1.2989 0 2.3625-.9921 2.3625-2.2091 0-1.2068-1.0636-2.1989-2.3625-2.1989-1.2886 0-2.3522.9921-2.3522 2.1989 0 1.217 1.0636 2.2091 2.3522 2.2091z"/><path d="m96.0894 33.9068c4.1826 0 6.8116-2.4546 7.0156-6.0648h-4.1111c-.2556 1.6773-1.3602 2.6182-2.8534 2.6182-2.0352 0-3.3545-1.708-3.3545-4.7148 0-2.9659 1.3295-4.6636 3.3545-4.6636 1.5955 0 2.6182 1.0534 2.8534 2.6182h4.1111c-.184-3.6307-2.935-6.0137-7.0361-6.0137-4.7659 0-7.7113 3.3034-7.7113 8.1205 0 4.7761 2.8943 8.1 7.7318 8.1z"/><path d="m105.895 33.6h4.357v-8.8875c.01-1.9228 1.401-3.2421 3.16-3.2421.593 0 1.074.1637 1.483.3682l1.309-3.6c-.573-.3477-1.309-.5727-2.148-.5727-1.769 0-3.201 1.0227-3.774 2.9659h-.163v-2.7409h-4.224z"/><path d="m124.608 33.9068c4.766 0 7.732-3.2625 7.732-8.1 0-4.8682-2.966-8.1205-7.732-8.1205s-7.732 3.2523-7.732 8.1205c0 4.8375 2.966 8.1 7.732 8.1zm.021-3.375c-2.199 0-3.324-2.0148-3.324-4.7557s1.125-4.7659 3.324-4.7659c2.158 0 3.283 2.025 3.283 4.7659s-1.125 4.7557-3.283 4.7557z"/><path d="m142.25 39.7159c4.49 0 7.681-2.0455 7.681-5.9625v-15.8625h-4.326v2.6386h-.164c-.583-1.2784-1.861-2.8432-4.49-2.8432-3.446 0-6.361 2.6796-6.361 8.0284 0 5.2262 2.833 7.6603 6.372 7.6603 2.505 0 3.906-1.258 4.479-2.5569h.184v2.8739c0 2.0557-1.38 2.8943-3.273 2.8943-1.922 0-2.894-.8386-3.252-1.6875l-4.029.5421c.521 2.3727 2.945 4.275 7.179 4.275zm.092-9.6137c-2.137 0-3.303-1.6977-3.303-4.4079 0-2.6693 1.145-4.5409 3.303-4.5409 2.117 0 3.304 1.7897 3.304 4.5409 0 2.7716-1.207 4.4079-3.304 4.4079z"/><path d="m160.557 33.9068c3.886 0 6.505-1.8921 7.118-4.8068l-4.029-.2659c-.44 1.1965-1.565 1.8204-3.017 1.8204-2.179 0-3.559-1.442-3.559-3.7841v-.0102h10.697v-1.1966c0-5.3386-3.232-7.9773-7.384-7.9773-4.623 0-7.619 3.283-7.619 8.1307 0 4.9807 2.956 8.0898 7.793 8.0898zm-3.487-9.7466c.092-1.7898 1.452-3.2216 3.385-3.2216 1.892 0 3.201 1.35 3.211 3.2216z"/><path d="m174.967 24.5181c.01-2.025 1.217-3.2113 2.976-3.2113 1.749 0 2.803 1.1454 2.792 3.0682v9.225h4.357v-10.0023c0-3.6614-2.147-5.9114-5.42-5.9114-2.332 0-4.02 1.1455-4.725 2.9762h-.184v-2.7716h-4.153v15.7091h4.357z"/><path d="m195.685 33.9068c3.886 0 6.505-1.8921 7.118-4.8068l-4.029-.2659c-.44 1.1965-1.565 1.8204-3.017 1.8204-2.179 0-3.559-1.442-3.559-3.7841v-.0102h10.697v-1.1966c0-5.3386-3.231-7.9773-7.384-7.9773-4.622 0-7.619 3.283-7.619 8.1307 0 4.9807 2.956 8.0898 7.793 8.0898zm-3.487-9.7466c.092-1.7898 1.452-3.2216 3.385-3.2216 1.892 0 3.201 1.35 3.211 3.2216z"/><path d="m214.094 17.8909h-2.955v-3.7637h-4.357v3.7637h-2.148v3.2727h2.148v8.1818c-.021 3.0784 2.076 4.6023 5.236 4.4693 1.125-.0409 1.923-.2659 2.363-.4091l-.686-3.242c-.214.0409-.675.1432-1.084.1432-.869 0-1.472-.3273-1.472-1.5341v-7.6091h2.955z"/><path d="m216.932 33.6h4.357v-15.7091h-4.357zm2.189-17.7341c1.299 0 2.362-.9921 2.362-2.2091 0-1.2068-1.063-2.1989-2.362-2.1989-1.289 0-2.352.9921-2.352 2.1989 0 1.217 1.063 2.2091 2.352 2.2091z"/><path d="m231.877 33.9068c4.183 0 6.811-2.4546 7.016-6.0648h-4.112c-.255 1.6773-1.36 2.6182-2.853 2.6182-2.035 0-3.355-1.708-3.355-4.7148 0-2.9659 1.33-4.6636 3.355-4.6636 1.595 0 2.618 1.0534 2.853 2.6182h4.112c-.184-3.6307-2.935-6.0137-7.037-6.0137-4.765 0-7.711 3.3034-7.711 8.1205 0 4.7761 2.894 8.1 7.732 8.1z"/><path d="m254.753 22.3704c-.389-2.8943-2.721-4.6841-6.689-4.6841-4.019 0-6.668 1.8614-6.658 4.8887-.01 2.3522 1.473 3.8761 4.541 4.4897l2.721.5421c1.37.2761 1.994.7773 2.014 1.5648-.02.9306-1.033 1.5954-2.557 1.5954-1.554 0-2.587-.6648-2.853-1.9432l-4.285.225c.409 3.0068 2.966 4.858 7.128 4.858 4.071 0 6.985-2.0762 6.996-5.175-.011-2.2705-1.493-3.6307-4.541-4.2546l-2.843-.5727c-1.463-.317-2.005-.8182-1.995-1.575-.01-.9409 1.054-1.5545 2.404-1.5545 1.513 0 2.413.8284 2.628 1.8409z"/></g></svg>