<svg fill="none" height="48" viewBox="0 0 48 48" width="48" xmlns="http://www.w3.org/2000/svg"><path d="m23.9501 12c5.1892 0 8.5821 2.5 11.1767 5.4.1996.2.2994.4.499.6s.2994.4.4989.6c.8982 1.1 1.5967 2.3 2.2953 3.3.4989.7.8981 1.4 1.397 2 .1996.2.2994.4.499.6s.2994.4.499.6c1.896 2.3 3.7921 3.8 6.5862 4 .3992-1.7.5988-3.4.5988-5.2s-.1996-3.6-.5988-5.2c-2.7941.2-4.6902 1.6-6.5862 4-.2994-.5-.6986-1-1.0977-1.6-.7984-1.1-1.5967-2.4-2.5946-3.7 1.9958-2.3 4.4906-4.3 7.8835-5.1-4.1912-7.3-12.0748-12.3-21.0561-12.3s-16.86486 5-20.95634 12.3c3.39293.8 5.78794 2.8 7.88354 5.1.1996.2.2994.4.499.6s.2994.4.499.6c.9979 1.2 1.7962 2.5 2.5946 3.7.3991.6.6985 1.1 1.0977 1.6.1996.2.2993.4.4989.7.1996.2.2994.4.499.7 2.0956 2.9 4.1913 4.9 7.4844 4.9s5.3888-2 7.4844-4.9c.1996.4.499.7.6985 1.1.8982 1.3 1.7963 2.8 2.894 4.1-2.4948 2.9-5.9875 5.4-11.1767 5.4s-8.5821-2.5-11.1767-5.4c-.1996-.2-.2994-.4-.499-.6s-.2993-.4-.4989-.6c-.8982-1.1-1.5967-2.3-2.29525-3.3-.49896-.7-.89813-1.4-1.39709-2-.19958-.2-.29938-.4-.49896-.6s-.29938-.4-.49896-.6c-1.89605-2.3-3.7921-3.8-6.58628-4-.299376 1.6-.49896 3.4-.49896 5.2s.199584 3.6.598753 5.2c2.794177-.2 4.690227-1.6 6.586277-4 .29938.5.69855 1 1.09771 1.6.79834 1.1 1.59668 2.4 2.59456 3.7-1.9958 2.3-4.49061 4.3-7.88354 5.1 4.09148 7.4 11.97504 12.4 20.95634 12.4s16.8649-5 20.9563-12.3c-3.3929-.8-5.7879-2.8-7.8835-5.1-.1996-.2-.2994-.4-.499-.6s-.2994-.4-.499-.6c-.9979-1.2-1.7962-2.5-2.5945-3.7-.3992-.6-.6986-1.1-1.0978-1.6-.1995-.2-.2993-.4-.4989-.7-.1996-.2-.2994-.4-.499-.7-2.0956-2.9-4.1912-4.9-7.4844-4.9-3.2931 0-5.3888 2-7.4844 4.9-.1996-.4-.499-.7-.6985-1.1-.8982-1.3-1.7963-2.8-2.894-4.1 2.5946-3 5.9875-5.5 11.1767-5.5z" fill="#000"/></svg>