<svg fill="none" height="48" viewBox="0 0 48 48" width="48" xmlns="http://www.w3.org/2000/svg"><path d="m0 0h48v48h-48z" fill="#ff1744"/><path d="m23.9751 18c2.5945 0 4.291 1.25 5.5883 2.7.0998.1.1497.2.2495.3s.1497.2.2495.3c.449.55.7983 1.15 1.1476 1.65.2495.35.449.7.6985 1 .0998.1.1497.2.2495.3s.1497.2.2495.3c.948 1.15 1.896 1.9 3.2931 2 .1996-.85.2994-1.7.2994-2.6s-.0998-1.8-.2994-2.6c-1.3971.1-2.3451.8-3.2931 2-.1497-.25-.3493-.5-.5489-.8-.3991-.55-.7983-1.2-1.2973-1.85.998-1.15 2.2454-2.15 3.9418-2.55-2.0956-3.65-6.0374-6.15-10.528-6.15-4.4907 0-8.4325 2.5-10.4782 6.15 1.6964.4 2.894 1.4 3.9418 2.55.0998.1.1497.2.2494.3.0998.1.1497.2.2495.3.499.6.8982 1.25 1.2973 1.85.1996.3.3493.55.5489.8.0998.1.1497.2.2495.35.0998.1.1497.2.2494.35 1.0479 1.45 2.0957 2.45 3.7422 2.45 1.6466 0 2.6944-1 3.7423-2.45.0997.2.2494.35.3492.55.4491.65.8982 1.4 1.447 2.05-1.2474 1.45-2.9938 2.7-5.5883 2.7-2.5946 0-4.2911-1.25-5.5884-2.7-.0998-.1-.1497-.2-.2495-.3s-.1497-.2-.2495-.3c-.449-.55-.7983-1.15-1.1476-1.65-.2495-.35-.449-.7-.6985-1-.0998-.1-.1497-.2-.2495-.3s-.1497-.2-.2495-.3c-.948-1.15-1.896-1.9-3.2931-2-.1497.8-.2495 1.7-.2495 2.6s.0998 1.8.2994 2.6c1.3971-.1 2.3451-.8 3.2931-2 .1497.25.3493.5.5489.8.3991.55.7983 1.2 1.2973 1.85-.998 1.15-2.2454 2.15-3.9418 2.55 2.0457 3.7 5.9875 6.2 10.4782 6.2 4.4906 0 8.4324-2.5 10.4781-6.15-1.6964-.4-2.8939-1.4-3.9418-2.55-.0998-.1-.1497-.2-.2494-.3-.0998-.1-.1497-.2-.2495-.3-.499-.6-.8982-1.25-1.2973-1.85-.1996-.3-.3493-.55-.5489-.8-.0998-.1-.1497-.2-.2495-.35-.0998-.1-.1496-.2-.2494-.35-1.0479-1.45-2.0957-2.45-3.7422-2.45-1.6466 0-2.6944 1-3.7422 2.45-.0998-.2-.2495-.35-.3493-.55-.4491-.65-.8981-1.4-1.447-2.05 1.2973-1.5 2.9938-2.75 5.5884-2.75z" fill="#fff"/></svg>