<svg fill="none" height="48" viewBox="0 0 163 48" width="163" xmlns="http://www.w3.org/2000/svg"><path d="m60 0h1v48h-1z" fill="#e0e0e0"/><g fill="#212121"><path clip-rule="evenodd" d="m74.8 24v-14h5.96c.9467 0 1.7934.2067 2.54.62.76.4133 1.3467.98 1.7601 1.7.4266.7067.6399 1.5.6399 2.38s-.2133 1.68-.6399 2.4c-.4134.7067-1.0001 1.2667-1.7601 1.68-.7466.4133-1.5933.62-2.54.62h-2.96v4.6zm5.86-7.3c.5734 0 1.0534-.1933 1.44-.58.4-.4.6-.8733.6-1.42s-.2-1.0133-.6-1.4c-.3866-.4-.8666-.6-1.44-.6h-2.86v4z" fill-rule="evenodd"/><path d="m87.2008 10v14h2.7v-5.1c0-.6667.1933-1.2067.58-1.62.4-.4267.9067-.64 1.52-.64.5333 0 .9667.18 1.3.54.3333.3467.5.82.5 1.42v5.4h2.7v-5.76c0-.8533-.16-1.5867-.48-2.2-.3067-.6267-.7333-1.1067-1.28-1.44s-1.1733-.5-1.88-.5c-.6667 0-1.26.1667-1.78.5-.5067.32-.88.68-1.12 1.08h-.06v-5.68z"/><path clip-rule="evenodd" d="m102.395 14.1c.827 0 1.56.1733 2.2.52.654.3333 1.16.7933 1.52 1.38.36.5733.54 1.2067.54 1.9v6.1h-2.56v-1.34h-.06c-.24.3867-.62.74-1.14 1.06s-1.113.48-1.78.48c-.613 0-1.1664-.1267-1.6597-.38-.48-.2533-.86-.5933-1.14-1.02-.28-.44-.42-.9067-.42-1.4 0-.8267.26-1.5067.78-2.04s1.26-.8933 2.2197-1.08l3.06-.58c-.026-.3867-.2-.7133-.52-.98-.306-.28-.7-.42-1.18-.42-.826 0-1.58.38-2.2597 1.14l-1.54-1.48c.4266-.5067.9733-.94 1.6397-1.3.68-.3733 1.447-.56 2.3-.56zm-.5 7.94c.587 0 1.074-.2067 1.46-.62.4-.4133.6-.9533.6-1.62v-.32l-2.1.42c-.373.0667-.666.2067-.88.42-.213.2-.32.4267-.32.68 0 .3067.107.56.32.76.227.1867.534.28.92.28z" fill-rule="evenodd"/><path d="m108.659 14.3v9.7h2.7v-4.56c0-.7867.22-1.4133.66-1.88.44-.48 1.007-.72 1.7-.72.28 0 .58.0533.9.16v-2.9h-.46c-.613 0-1.166.1467-1.66.44-.48.28-.84.6-1.08.96h-.06v-1.2z"/><path d="m115.816 24v-9.7h2.7v1.38h.06c.186-.4.52-.76 1-1.08.48-.3333 1.046-.5 1.7-.5.666 0 1.246.1733 1.74.52.493.3333.84.7067 1.04 1.12h.08c.226-.4133.633-.7867 1.22-1.12.6-.3467 1.286-.52 2.06-.52.626 0 1.193.1667 1.7.5.52.3333.933.8133 1.24 1.44.306.6267.46 1.36.46 2.2v5.76h-2.7v-5.5c0-.5867-.154-1.04-.46-1.36-.294-.3333-.674-.5-1.14-.5-.534 0-.974.1933-1.32.58-.347.3867-.52.9133-.52 1.58v5.2h-2.7v-5.5c0-.5867-.154-1.04-.46-1.36-.294-.3333-.674-.5-1.14-.5-.547 0-.994.1933-1.34.58-.347.3867-.52.9133-.52 1.58v5.2z"/><path clip-rule="evenodd" d="m138.916 14.62c-.64-.3467-1.374-.52-2.2-.52-.854 0-1.62.1867-2.3.56-.667.36-1.214.7933-1.64 1.3l1.54 1.48c.68-.76 1.433-1.14 2.26-1.14.48 0 .873.14 1.18.42.32.2667.493.5933.52.98l-3.06.58c-.96.1867-1.7.5467-2.22 1.08s-.78 1.2133-.78 2.04c0 .4933.14.96.42 1.4.28.4267.66.7667 1.14 1.02.493.2533 1.046.38 1.66.38.666 0 1.26-.16 1.78-.48s.9-.6733 1.14-1.06h.06v1.34h2.56v-6.1c0-.6933-.18-1.3267-.54-1.9-.36-.5867-.867-1.0467-1.52-1.38zm-1.24 6.8c-.387.4133-.874.62-1.46.62-.387 0-.694-.0933-.92-.28-.214-.2-.32-.4533-.32-.76 0-.2533.106-.48.32-.68.213-.2133.506-.3533.88-.42l2.1-.42v.32c0 .6667-.2 1.2067-.6 1.62z" fill-rule="evenodd"/><path clip-rule="evenodd" d="m157.334 24.2c-.96 0-1.84-.2267-2.64-.68-.787-.4533-1.414-1.0667-1.88-1.84-.454-.7733-.68-1.62-.68-2.54s.226-1.7667.68-2.54c.466-.7733 1.093-1.38 1.88-1.82.8-.4533 1.68-.68 2.64-.68.973 0 1.853.2267 2.64.68.8.44 1.426 1.0467 1.88 1.82.453.7733.68 1.62.68 2.54s-.227 1.7667-.68 2.54c-.454.7733-1.08 1.3867-1.88 1.84-.787.4533-1.667.68-2.64.68zm0-2.5c.68 0 1.26-.2467 1.74-.74s.72-1.1.72-1.82-.24-1.32-.72-1.8c-.48-.4933-1.06-.74-1.74-.74s-1.26.2467-1.74.74c-.467.48-.7 1.08-.7 1.8s.233 1.3267.7 1.82c.48.4933 1.06.74 1.74.74z" fill-rule="evenodd"/><path d="m144.804 24h-3.02l3.34-5-3.08-4.7h3.12l1.76 2.96h.06l1.78-2.96h3.02l-3.08 4.7 3.32 5h-3.12l-2.02-3.28h-.06z"/><path d="m137.841 33.32h-1.136l-2.256 6.352h-.032l-2.768-6.352h-1.184l3.392 7.696-.464 1.152c-.298.768-.778 1.152-1.44 1.152-.16 0-.314-.0213-.464-.064-.138-.0427-.256-.0907-.352-.144v1.056c.278.128.582.192.912.192.598 0 1.088-.176 1.472-.528.395-.3413.731-.8853 1.008-1.632z"/><path d="m119.321 41h-1.088v-7.68h1.088v1.184h.016c.16-.3413.437-.6507.832-.928.405-.2773.885-.416 1.44-.416.586 0 1.098.16 1.536.48.437.32.746.672.928 1.056h.032c.17-.384.485-.736.944-1.056.469-.32 1.029-.48 1.68-.48.522 0 .997.1387 1.424.416.437.2667.784.6507 1.04 1.152.256.4907.384 1.0613.384 1.712v4.56h-1.088v-4.56c0-.6827-.182-1.2213-.544-1.616-.363-.4053-.822-.608-1.376-.608-.608 0-1.115.2293-1.52.688-.395.448-.592 1.0507-.592 1.808v4.288h-1.088v-4.56c0-.6827-.187-1.2213-.56-1.616-.363-.4053-.822-.608-1.376-.608-.608 0-1.115.2293-1.52.688-.395.448-.592 1.0507-.592 1.808z"/><path clip-rule="evenodd" d="m111.259 40.632c.587.352 1.227.528 1.92.528.704 0 1.318-.144 1.84-.432.523-.2987.955-.6613 1.296-1.088l-.752-.688c-.682.768-1.466 1.152-2.352 1.152-.48 0-.922-.112-1.328-.336-.394-.224-.72-.528-.976-.912s-.41-.8107-.464-1.28h6.24c.022-.1707.032-.3413.032-.512 0-.7467-.16-1.4187-.48-2.016s-.757-1.0613-1.312-1.392c-.544-.3307-1.152-.496-1.824-.496-.682 0-1.312.176-1.888.528s-1.034.832-1.376 1.44c-.341.608-.512 1.2853-.512 2.032 0 .736.176 1.408.528 2.016s.822 1.0933 1.408 1.456zm3.536-5.776c.448.4373.72 1.0293.816 1.776h-5.184c.054-.448.203-.8587.448-1.232.256-.3733.576-.6667.96-.88.395-.224.816-.336 1.264-.336.683 0 1.248.224 1.696.672z" fill-rule="evenodd"/><path clip-rule="evenodd" d="m103.745 41.16c-.64 0-1.237-.1707-1.792-.512-.544-.352-.981-.832-1.312-1.44-.33-.608-.496-1.2907-.496-2.048s.166-1.44.496-2.048c.331-.608.768-1.0827 1.312-1.424.555-.352 1.152-.528 1.792-.528.651 0 1.227.1547 1.728.464.502.2987.859.64 1.072 1.024h.032v-4.848h1.072v11.2h-1.072v-1.328h-.032c-.213.384-.57.7307-1.072 1.04-.501.2987-1.077.448-1.728.448zm.128-1.056c.491 0 .939-.128 1.344-.384.416-.256.747-.608.992-1.056.246-.448.368-.9493.368-1.504 0-.5653-.122-1.072-.368-1.52-.245-.448-.576-.7947-.992-1.04-.405-.256-.853-.384-1.344-.384-.469 0-.906.128-1.312.384-.405.2453-.73.592-.976 1.04-.234.448-.352.9547-.352 1.52 0 .5547.118 1.056.352 1.504.246.448.571.8.976 1.056.406.256.843.384 1.312.384z" fill-rule="evenodd"/><path clip-rule="evenodd" d="m97.1747 33.544c-.448-.256-.9654-.384-1.552-.384-.608 0-1.1574.1387-1.648.416-.4907.2667-.896.5973-1.216.992l.72.688c.3093-.32.6293-.576.96-.768.3413-.2027.736-.304 1.184-.304.576 0 1.04.176 1.392.528.3626.352.544.816.544 1.392v.016l-2.784.464c-.7787.128-1.3814.4053-1.808.832-.4267.416-.64.9333-.64 1.552 0 .384.1066.7467.32 1.088.224.3307.528.5973.912.8.3946.2027.8426.304 1.344.304.6186 0 1.168-.144 1.648-.432s.8213-.608 1.024-.96h.016v1.232h1.04v-4.832c0-.5867-.128-1.104-.384-1.552-.256-.4587-.6134-.816-1.072-1.072zm-.88 6.288c-.384.224-.8107.336-1.28.336-.48 0-.8694-.1227-1.168-.368-.288-.2453-.432-.544-.432-.896 0-.3627.1333-.6667.4-.912.2666-.2453.672-.416 1.216-.512l2.528-.416v.544c0 .48-.112.9173-.336 1.312-.224.384-.5334.688-.928.912z" fill-rule="evenodd"/><path d="m88.2857 41.16c-.6933 0-1.3387-.176-1.936-.528-.5867-.3627-1.056-.848-1.408-1.456-.3413-.608-.512-1.28-.512-2.016s.1707-1.408.512-2.016c.352-.608.8213-1.088 1.408-1.44.5973-.3627 1.2427-.544 1.936-.544.704 0 1.3227.16 1.856.48.544.3093.9707.672 1.28 1.088l-.8.656c-.6293-.7787-1.408-1.168-2.336-1.168-.5013 0-.9653.128-1.392.384-.416.256-.752.6133-1.008 1.072-.2453.448-.368.944-.368 1.488s.1227 1.0453.368 1.504c.256.448.592.8 1.008 1.056.4267.256.8907.384 1.392.384.5227 0 .9813-.1173 1.376-.352s.7253-.5173.992-.848l.8.656c-.3093.4267-.7413.8-1.296 1.12-.544.32-1.168.48-1.872.48z"/><path clip-rule="evenodd" d="m73.3359 41h1.232l1.28-3.12h5.344l1.264 3.12h1.296l-4.544-11.2h-1.328zm2.944-4.24 2.224-5.52h.032l2.208 5.52z" fill-rule="evenodd"/></g><path d="m26.9758 13.4879 11.2214 5.1225c.6634.2948.9766.8476.9766 1.3819 0 .5344-.3132 1.0503-.9766 1.3451l-11.2214 5.1593c-1.1609.5344-2.0637.7555-3.0035.7371-.9213.0184-1.8241-.1843-3.0034-.7371l-4.6802-2.1558 6.5965-3.1693c.3501.1105.7186.1474 1.124.1474 1.2713 0 2.4691-.5528 2.4691-1.3267s-1.2162-1.3083-2.4691-1.3083c-1.2345 0-2.4875.5344-2.4875 1.3083 0 .0922.0183.2027.0921.2948l-6.9467 3.2983-4.91976-2.248c-.66329-.2948-.97659-.8107-.97659-1.3451 0-.5343.3133-1.0871.97659-1.3819l11.22156-5.1225c1.1608-.5343 2.0821-.7739 3.0034-.7555.9398-.0184 1.8426.2212 3.0035.7555z" fill="#1565c0"/><path d="m34.7332 28.5051c0 3.0588-4.1275 6.0069-10.7609 6.0069-3.243 0-5.8779-.7185-7.739-1.8241v-6.7256l4.1644 1.8979c1.2898.5897 2.469.9029 3.5746.8661 1.1056.0368 2.2848-.2764 3.5931-.8661l7.1678-3.2798z" fill="#1565c0"/><path d="m16.2333 33.4992v-.8113c-.5711-.3317-1.0502-.7186-1.4925-1.1424v-6.2649l-1.5293-.7002v3.9247c0 .9398.5528 2.0638 1.5293 3.0404v1.9445c-.4838.1888-.7554.6305-.7554 1.2432v2.5428c0 .8292.4975 1.3635 1.3451 1.3635h.2948c.8292 0 1.3636-.5343 1.3636-1.3635v-2.5428c0-.6029-.2826-1.0402-.7556-1.234z" fill="#1565c0"/><path clip-rule="evenodd" d="m48 24.0092c0 13.1194-10.8714 23.9908-24.0092 23.9908-13.1194 0-23.9908-10.8714-23.9908-23.9908 0-13.1378 10.853-24.0092 23.9724-24.0092 13.1377 0 24.0276 10.8714 24.0276 24.0092zm-44.55432 0c0 11.3873 9.15772 20.5635 20.54512 20.5635 11.4057 0 20.5635-9.1762 20.5635-20.5635 0-11.4058-9.1762-20.56352-20.5819-20.56352-11.3874 0-20.52672 9.15772-20.52672 20.56352z" fill="#1565c0" fill-rule="evenodd"/></svg>