<svg fill="none" height="48" viewBox="0 0 163 48" width="163" xmlns="http://www.w3.org/2000/svg"><path d="m60 0h1v48h-1z" fill="#e0e0e0"/><g fill="#212121"><path clip-rule="evenodd" d="m74.8 8v14h3v-4.6h2.96c.9467 0 1.7933-.2067 2.54-.62.76-.4133 1.3467-.9733 1.76-1.68.4267-.72.64-1.52.64-2.4s-.2133-1.6733-.64-2.38c-.4133-.72-1-1.28667-1.76-1.7-.7467-.41333-1.5933-.62-2.54-.62zm7.3 6.12c-.3867.3867-.8667.58-1.44.58h-2.86v-4h2.86c.5733 0 1.0533.2 1.44.6.4.3867.6.8533.6 1.4s-.2 1.02-.6 1.42z" fill-rule="evenodd"/><path d="m87.2008 22v-14h2.7v5.68h.06c.24-.4.6133-.76 1.12-1.08.52-.3333 1.1133-.5 1.78-.5.7066 0 1.3333.1667 1.88.5s.9733.8133 1.28 1.44c.32.6133.48 1.3467.48 2.2v5.76h-2.7v-5.4c0-.6-.1667-1.0733-.5-1.42-.3334-.36-.7667-.54-1.3-.54-.6133 0-1.12.2133-1.52.64-.3867.4133-.58.9533-.58 1.62v5.1z"/><path clip-rule="evenodd" d="m104.595 12.62c-.64-.3467-1.373-.52-2.2-.52-.853 0-1.62.1867-2.3.56-.6664.36-1.213.7933-1.6397 1.3l1.54 1.48c.6797-.76 1.4337-1.14 2.2597-1.14.48 0 .874.14 1.18.42.32.2667.494.5933.52.98l-3.06.58c-.9597.1867-1.6997.5467-2.2197 1.08s-.78 1.2133-.78 2.04c0 .4933.14.96.42 1.4.28.4267.66.7667 1.14 1.02.4933.2533 1.0467.38 1.6597.38.667 0 1.26-.16 1.78-.48s.9-.6733 1.14-1.06h.06v1.34h2.56v-6.1c0-.6933-.18-1.3267-.54-1.9-.36-.5867-.866-1.0467-1.52-1.38zm-1.24 6.8c-.386.4133-.873.62-1.46.62-.386 0-.693-.0933-.92-.28-.213-.2-.32-.4533-.32-.76 0-.2533.107-.48.32-.68.214-.2133.507-.3533.88-.42l2.1-.42v.32c0 .6667-.2 1.2067-.6 1.62z" fill-rule="evenodd"/><path d="m108.659 22v-9.7h2.7v1.2h.06c.24-.36.6-.68 1.08-.96.494-.2933 1.047-.44 1.66-.44h.46v2.9c-.32-.1067-.62-.16-.9-.16-.693 0-1.26.24-1.7.72-.44.4667-.66 1.0933-.66 1.88v4.56z"/><path d="m115.816 12.3v9.7h2.7v-5.2c0-.6667.173-1.1933.52-1.58.346-.3867.793-.58 1.34-.58.466 0 .846.1667 1.14.5.306.32.46.7733.46 1.36v5.5h2.7v-5.2c0-.6667.173-1.1933.52-1.58.346-.3867.786-.58 1.32-.58.466 0 .846.1667 1.14.5.306.32.46.7733.46 1.36v5.5h2.7v-5.76c0-.84-.154-1.5733-.46-2.2-.307-.6267-.72-1.1067-1.24-1.44-.507-.3333-1.074-.5-1.7-.5-.774 0-1.46.1733-2.06.52-.587.3333-.994.7067-1.22 1.12h-.08c-.2-.4133-.547-.7867-1.04-1.12-.494-.3467-1.074-.52-1.74-.52-.654 0-1.22.1667-1.7.5-.48.32-.814.68-1 1.08h-.06v-1.38z"/><path clip-rule="evenodd" d="m136.716 12.1c.826 0 1.56.1733 2.2.52.653.3333 1.16.7933 1.52 1.38.36.5733.54 1.2067.54 1.9v6.1h-2.56v-1.34h-.06c-.24.3867-.62.74-1.14 1.06s-1.114.48-1.78.48c-.614 0-1.167-.1267-1.66-.38-.48-.2533-.86-.5933-1.14-1.02-.28-.44-.42-.9067-.42-1.4 0-.8267.26-1.5067.78-2.04s1.26-.8933 2.22-1.08l3.06-.58c-.027-.3867-.2-.7133-.52-.98-.307-.28-.7-.42-1.18-.42-.827 0-1.58.38-2.26 1.14l-1.54-1.48c.426-.5067.973-.94 1.64-1.3.68-.3733 1.446-.56 2.3-.56zm-.5 7.94c.586 0 1.073-.2067 1.46-.62.4-.4133.6-.9533.6-1.62v-.32l-2.1.42c-.374.0667-.667.2067-.88.42-.214.2-.32.4267-.32.68 0 .3067.106.56.32.76.226.1867.533.28.92.28z" fill-rule="evenodd"/><path clip-rule="evenodd" d="m154.694 21.52c.8.4533 1.68.68 2.64.68.973 0 1.853-.2267 2.64-.68.8-.4533 1.426-1.0667 1.88-1.84.453-.7733.68-1.62.68-2.54s-.227-1.7667-.68-2.54c-.454-.7733-1.08-1.38-1.88-1.82-.787-.4533-1.667-.68-2.64-.68-.96 0-1.84.2267-2.64.68-.787.44-1.414 1.0467-1.88 1.82-.454.7733-.68 1.62-.68 2.54s.226 1.7667.68 2.54c.466.7733 1.093 1.3867 1.88 1.84zm4.38-2.56c-.48.4933-1.06.74-1.74.74s-1.26-.2467-1.74-.74c-.467-.4933-.7-1.1-.7-1.82s.233-1.32.7-1.8c.48-.4933 1.06-.74 1.74-.74s1.26.2467 1.74.74c.48.48.72 1.08.72 1.8s-.24 1.3267-.72 1.82z" fill-rule="evenodd"/><path d="m141.784 22h3.02l2.02-3.28h.06l2.02 3.28h3.12l-3.32-5 3.08-4.7h-3.02l-1.78 2.96h-.06l-1.76-2.96h-3.12l3.08 4.7z"/><path clip-rule="evenodd" d="m121.92 39.16c-.693 0-1.333-.176-1.92-.528-.587-.3626-1.056-.848-1.408-1.456s-.528-1.28-.528-2.016c0-.7466.171-1.424.512-2.032.341-.6079.8-1.088 1.376-1.44.576-.3519 1.205-.528 1.888-.528.672 0 1.28.1654 1.824.496.555.3307.992.7947 1.312 1.392.32.5974.48 1.2694.48 2.016 0 .1707-.011.3414-.032.512h-6.24c.053.4694.208.896.464 1.28s.581.688.976.912c.405.2241.848.336 1.328.336.885 0 1.669-.384 2.352-1.152l.752.688c-.341.4267-.773.7894-1.296 1.0881-.523.2879-1.136.4319-1.84.4319zm2.432-4.528c-.096-.7466-.368-1.3386-.816-1.776-.448-.448-1.013-.672-1.696-.672-.448 0-.869.112-1.264.3361-.384.2133-.704.5066-.96.8799-.245.3734-.395.784-.448 1.232z" fill-rule="evenodd"/><path clip-rule="evenodd" d="m110.831 41.848c.608.3414 1.259.5121 1.952.5121s1.317-.1707 1.872-.5121c.565-.3413 1.008-.8106 1.328-1.408.32-.5866.48-1.248.48-1.9839v-7.1361h-1.088v1.28h-.016c-.224-.3626-.576-.6933-1.056-.992-.48-.2986-1.024-.448-1.632-.448-.629 0-1.211.1654-1.744.496-.533.3307-.96.7894-1.28 1.376-.309.5867-.464 1.2427-.464 1.968 0 .7254.155 1.3814.464 1.9681.32.5866.747 1.0453 1.28 1.3759.533.3307 1.115.496 1.744.496.544 0 1.061-.128 1.552-.3839.491-.2667.869-.624 1.136-1.0721h.016v1.0721c0 .8319-.24 1.5146-.72 2.048-.48.5333-1.104.8-1.872.8-.523 0-1.019-.1334-1.488-.4001-.459-.2666-.789-.5546-.992-.8639l-.784.7199c.267.3947.704.7574 1.312 1.088zm3.264-4.416c-.384.2347-.816.352-1.296.352-.459 0-.885-.1173-1.28-.352-.384-.2453-.688-.576-.912-.992-.224-.4266-.336-.9066-.336-1.44 0-.5333.112-1.0133.336-1.44.224-.4266.528-.7573.912-.9919.395-.2347.821-.3521 1.28-.3521.48 0 .912.1174 1.296.3521.395.2346.704.5653.928.9919.235.4267.352.9067.352 1.44 0 .5334-.117 1.0134-.352 1.44-.224.416-.533.7467-.928.992z" fill-rule="evenodd"/><path clip-rule="evenodd" d="m104.66 31.16c.587 0 1.104.128 1.552.384.459.256.816.6134 1.072 1.072.256.448.384.9654.384 1.552v4.832h-1.04v-1.232h-.016c-.203.352-.544.6721-1.024.9601-.48.2879-1.029.4319-1.648.4319-.501 0-.949-.1013-1.344-.304-.384-.2026-.688-.4693-.912-.8-.213-.3413-.32-.7039-.32-1.0879 0-.6187.213-1.136.64-1.5521.427-.4266 1.029-.704 1.808-.832l2.784-.464v-.016c0-.576-.181-1.04-.544-1.392-.352-.3519-.816-.528-1.392-.528-.448 0-.843.1014-1.184.304-.331.192-.651.448-.96.7681l-.72-.688c.32-.3947.725-.7254 1.216-.9921.491-.2773 1.04-.416 1.648-.416zm-.608 7.008c.469 0 .896-.112 1.28-.3359.395-.2241.704-.528.928-.9121.224-.3946.336-.832.336-1.312v-.544l-2.528.416c-.544.096-.949.2667-1.216.5121-.267.2453-.4.5493-.4.9119 0 .352.144.6507.432.896.299.2454.688.368 1.168.368z" fill-rule="evenodd"/><path clip-rule="evenodd" d="m94.1309 41.848c.608.3414 1.2586.5121 1.952.5121.6933 0 1.3173-.1707 1.872-.5121.5653-.3413 1.008-.8106 1.328-1.408.32-.5866.48-1.248.48-1.9839v-7.1361h-1.088v1.28h-.016c-.224-.3626-.576-.6933-1.056-.992-.48-.2986-1.024-.448-1.632-.448-.6294 0-1.2107.1654-1.744.496-.5334.3307-.96.7894-1.28 1.376-.3094.5867-.464 1.2427-.464 1.968 0 .7254.1546 1.3814.464 1.9681.32.5866.7466 1.0453 1.28 1.3759.5333.3307 1.1146.496 1.744.496.544 0 1.0613-.128 1.552-.3839.4906-.2667.8693-.624 1.136-1.0721h.016v1.0721c0 .8319-.24 1.5146-.72 2.048-.48.5333-1.104.8-1.872.8-.5227 0-1.0187-.1334-1.488-.4001-.4587-.2666-.7894-.5546-.992-.8639l-.784.7199c.2666.3947.704.7574 1.312 1.088zm3.264-4.416c-.384.2347-.816.352-1.296.352-.4587 0-.8854-.1173-1.28-.352-.384-.2453-.688-.576-.912-.992-.224-.4266-.336-.9066-.336-1.44 0-.5333.112-1.0133.336-1.44.224-.4266.528-.7573.912-.9919.3946-.2347.8213-.3521 1.28-.3521.48 0 .912.1174 1.296.3521.3946.2346.704.5653.928.9919.2346.4267.352.9067.352 1.44 0 .5334-.1174 1.0134-.352 1.44-.224.416-.5334.7467-.928.992z" fill-rule="evenodd"/><path d="m84.2546 39v-7.68h1.088v1.232h.016c.2027-.3626.528-.6826.976-.96.4587-.288.9707-.432 1.536-.432.5867 0 1.1147.1387 1.584.416.4694.2774.8374.6667 1.104 1.168.2667.5014.4 1.0774.4 1.728v4.528h-1.088v-4.528c0-.672-.2026-1.2159-.608-1.632-.3946-.416-.9013-.624-1.52-.624-.448 0-.8533.112-1.216.336-.3626.2134-.6506.512-.864.896-.2133.3841-.32.816-.32 1.296v4.256z"/><path d="m74.696 39h7.84v-1.136h-6.64v-4.128h5.2v-1.136h-5.2v-3.6639h6.48v-1.1361h-7.68z"/></g><path d="m11.3874 20.6397c0-4.1426 2.8929-7.1806 6.9097-7.1806 2.5244 0 4.5329 1.4913 5.6937 3.6088 1.1608-2.1175 3.2062-3.6088 5.712-3.6088 3.9986 0 6.9099 3.038 6.9099 7.1806 0 6.4074-6.9283 12.0783-11.5348 15.1531-.3316.2394-.7738.5156-1.0503.5156-.2764 0-.737-.2762-1.124-.5156-4.6802-2.9459-11.5162-8.7457-11.5162-15.1531z" fill="#1565c0"/><path clip-rule="evenodd" d="m48 23.9908c0 13.1093-10.8714 23.9724-24.0092 23.9724-13.1194 0-23.9908-10.8631-23.9908-23.9724 0-13.1278 10.853-23.9908 23.9724-23.9908 13.1377 0 24.0276 10.863 24.0276 23.9908zm-44.55432 0c0 11.3785 9.15772 20.5477 20.54512 20.5477 11.4057 0 20.5635-9.1692 20.5635-20.5477 0-11.3971-9.1762-20.54777-20.5819-20.54777-11.3874 0-20.52672 9.15067-20.52672 20.54777z" fill="#1565c0" fill-rule="evenodd"/></svg>