<svg fill="none" height="24" viewBox="0 0 212 24" width="212" xmlns="http://www.w3.org/2000/svg"><path d="m13.4879 6.74393 5.6107 2.56126c.3317.14741.4883.42379.4883.69098 0 .26713-.1566.52513-.4883.67253l-5.6107 2.5797c-.5804.2671-1.0319.3777-1.5017.3685-.4607.0092-.9121-.0922-1.5018-.3685l-2.34006-1.078 3.29826-1.5846c.175.0553.3593.0737.562.0737.6357 0 1.2345-.2764 1.2345-.66333 0-.38697-.608-.65415-1.2345-.65415-.6173 0-1.2438.26718-1.2438.65415 0 .04603.0092.10133.0461.14743l-3.47335 1.6491-2.45988-1.124c-.33165-.1474-.48829-.4054-.48829-.67253 0-.26719.15664-.54357.48829-.69098l5.61073-2.56126c.5804-.26714 1.0411-.38692 1.5018-.37772.4698-.0092.9213.11058 1.5017.37772z" fill="#1565c0"/><path d="m17.3666 14.2526c0 1.5293-2.0637 3.0034-5.3804 3.0034-1.6215 0-2.93901-.3593-3.86954-.9121v-3.3627l2.08214.9489c.6449.2949 1.2346.4514 1.7874.433.5527.0184 1.1424-.1381 1.7965-.433l3.5839-1.6399z" fill="#1565c0"/><path d="m8.11666 16.7496v-.4057c-.28557-.1658-.52512-.3593-.74624-.5712v-3.1324l-.76467-.3501v1.9624c0 .4698.27638 1.0318.76467 1.5201v.9723c-.2419.0944-.37772.3152-.37772.6216v1.2714c0 .4146.24875.6817.67254.6817h.14741c.41459 0 .68178-.2671.68178-.6817v-1.2714c0-.3015-.14127-.5201-.37777-.617z" fill="#1565c0"/><path clip-rule="evenodd" d="m24 12.0046c0 6.5597-5.4357 11.9954-12.0046 11.9954-6.55971 0-11.9954-5.4357-11.9954-11.9954 0-6.56891 5.42649-12.0046 11.9862-12.0046 6.5689 0 12.0138 5.43569 12.0138 12.0046zm-22.27716 0c0 5.6936 4.57887 10.2818 10.27256 10.2818 5.7029 0 10.2818-4.5882 10.2818-10.2818 0-5.7029-4.5881-10.28176-10.291-10.28176-5.69369 0-10.26336 4.57886-10.26336 10.28176z" fill="#1565c0" fill-rule="evenodd"/><g fill="#fff"><path d="m30 0h1v24h-1z"/><path d="m38.8 18v-14h5.96c.9467 0 1.7933.20667 2.54.62.76.41333 1.3467.98 1.76 1.7.4267.70667.64 1.5.64 2.38s-.2133 1.68-.64 2.4c-.4133.7067-1 1.2667-1.76 1.68-.7467.4133-1.5933.62-2.54.62h-2.96v4.6zm5.86-7.3c.5733 0 1.0533-.1933 1.44-.58.4-.4.6-.87333.6-1.42s-.2-1.01333-.6-1.4c-.3867-.4-.8667-.6-1.44-.6h-2.86v4z"/><path d="m51.2008 18v-14h2.7v5.68h.06c.24-.4.6133-.76 1.12-1.08.52-.33333 1.1133-.5 1.78-.5.7066 0 1.3333.16667 1.88.5.5466.33333.9733.81333 1.28 1.44.32.6133.48 1.3467.48 2.2v5.76h-2.7v-5.4c0-.6-.1667-1.0733-.5-1.42-.3334-.36-.7667-.54-1.3-.54-.6134 0-1.12.2133-1.52.64-.3867.4133-.58.9533-.58 1.62v5.1z"/><path d="m66.3953 8.1c.8267 0 1.56.17333 2.2.52.6533.33333 1.16.79333 1.52 1.38.36.5733.54 1.2067.54 1.9v6.1h-2.56v-1.34h-.06c-.24.3867-.62.74-1.14 1.06s-1.1133.48-1.78.48c-.6133 0-1.1667-.1267-1.66-.38-.48-.2533-.86-.5933-1.14-1.02-.28-.44-.42-.9067-.42-1.4 0-.8267.26-1.5067.78-2.04s1.26-.8933 2.22-1.08l3.06-.58c-.0267-.3867-.2-.7133-.52-.98-.3067-.28-.7-.42-1.18-.42-.8267 0-1.58.38-2.26 1.14l-1.54-1.48c.4267-.50667.9733-.94 1.64-1.3.68-.37333 1.4467-.56 2.3-.56zm-.5 7.94c.5867 0 1.0733-.2067 1.46-.62.4-.4133.6-.9533.6-1.62v-.32l-2.1.42c-.3733.0667-.6667.2067-.88.42-.2133.2-.32.4267-.32.68 0 .3067.1067.56.32.76.2267.1867.5333.28.92.28z"/><path d="m72.6594 18v-9.7h2.7v1.2h.06c.24-.36.6-.68 1.08-.96.4933-.29333 1.0466-.44 1.66-.44h.46v2.9c-.32-.1067-.62-.16-.9-.16-.6934 0-1.26.24-1.7.72-.44.4667-.66 1.0933-.66 1.88v4.56z"/><path d="m79.8156 18v-9.7h2.7v1.38h.06c.1867-.4.52-.76 1-1.08.48-.33333 1.0467-.5 1.7-.5.6667 0 1.2467.17333 1.74.52.4933.33333.84.70667 1.04 1.12h.08c.2267-.41333.6333-.78667 1.22-1.12.6-.34667 1.2867-.52 2.06-.52.6267 0 1.1933.16667 1.7.5.52.33333.9333.81333 1.24 1.44.3067.6267.46 1.36.46 2.2v5.76h-2.7v-5.5c0-.5867-.1533-1.04-.46-1.36-.2933-.3333-.6733-.5-1.14-.5-.5333 0-.9733.1933-1.32.58s-.52.9133-.52 1.58v5.2h-2.7v-5.5c0-.5867-.1533-1.04-.46-1.36-.2933-.3333-.6733-.5-1.14-.5-.5467 0-.9933.1933-1.34.58s-.52.9133-.52 1.58v5.2z"/><path d="m100.716 8.1c.826 0 1.56.17333 2.2.52.653.33333 1.16.79333 1.52 1.38.36.5733.54 1.2067.54 1.9v6.1h-2.56v-1.34h-.06c-.24.3867-.62.74-1.14 1.06s-1.114.48-1.7804.48c-.6133 0-1.1667-.1267-1.66-.38-.48-.2533-.86-.5933-1.14-1.02-.28-.44-.42-.9067-.42-1.4 0-.8267.26-1.5067.78-2.04s1.26-.8933 2.22-1.08l3.0604-.58c-.027-.3867-.2-.7133-.52-.98-.307-.28-.7-.42-1.18-.42-.8271 0-1.5804.38-2.2604 1.14l-1.54-1.48c.4267-.50667.9733-.94 1.64-1.3.68-.37333 1.4467-.56 2.3004-.56zm-.5 7.94c.586 0 1.073-.2067 1.46-.62.4-.4133.6-.9533.6-1.62v-.32l-2.1.42c-.3737.0667-.6671.2067-.8804.42-.2133.2-.32.4267-.32.68 0 .3067.1067.56.32.76.2267.1867.5333.28.9204.28z"/><path d="m108.804 18h-3.02l3.34-5-3.08-4.7h3.12l1.76 2.96h.06l1.78-2.96h3.02l-3.08 4.7 3.32 5h-3.12l-2.02-3.28h-.06z"/><path d="m121.334 18.2c-.96 0-1.84-.2267-2.64-.68-.787-.4533-1.414-1.0667-1.88-1.84-.454-.7733-.68-1.62-.68-2.54s.226-1.7667.68-2.54c.466-.77333 1.093-1.38 1.88-1.82.8-.45333 1.68-.68 2.64-.68.973 0 1.853.22667 2.64.68.8.44 1.426 1.04667 1.88 1.82.453.7733.68 1.62.68 2.54s-.227 1.7667-.68 2.54c-.454.7733-1.08 1.3867-1.88 1.84-.787.4533-1.667.68-2.64.68zm0-2.5c.68 0 1.26-.2467 1.74-.74s.72-1.1.72-1.82-.24-1.32-.72-1.8c-.48-.4933-1.06-.74-1.74-.74s-1.26.2467-1.74.74c-.467.48-.7 1.08-.7 1.8s.233 1.3267.7 1.82c.48.4933 1.06.74 1.74.74z"/><path d="m132.194 18h-1.54l5.68-14h1.66l5.68 14h-1.62l-1.58-3.9h-6.68zm4.92-12.2-2.78 6.9h5.58l-2.76-6.9z"/><path d="m149.342 18.2c-.867 0-1.674-.22-2.42-.66-.734-.4533-1.32-1.06-1.76-1.82-.427-.76-.64-1.6-.64-2.52s.213-1.76.64-2.52c.44-.76 1.026-1.36 1.76-1.8.746-.45333 1.553-.68 2.42-.68.88 0 1.653.2 2.32.6.68.38667 1.213.84 1.6 1.36l-1 .82c-.787-.9733-1.76-1.46-2.92-1.46-.627 0-1.207.16-1.74.48-.52.32-.94.7667-1.26 1.34-.307.56-.46 1.18-.46 1.86s.153 1.3067.46 1.88c.32.56.74 1 1.26 1.32.533.32 1.113.48 1.74.48.653 0 1.226-.1467 1.72-.44.493-.2933.906-.6467 1.24-1.06l1 .82c-.387.5333-.927 1-1.62 1.4-.68.4-1.46.6-2.34.6z"/><path d="m158.513 8.2c.733 0 1.38.16 1.94.48.573.32 1.02.76667 1.34 1.34.32.56.48 1.2067.48 1.94v6.04h-1.3v-1.54h-.02c-.254.44-.68.84-1.28 1.2s-1.287.54-2.06.54c-.627 0-1.187-.1267-1.68-.38-.48-.2533-.86-.5867-1.14-1-.267-.4267-.4-.88-.4-1.36 0-.7733.266-1.42.8-1.94.533-.5333 1.286-.88 2.26-1.04l3.48-.58v-.02c0-.72-.227-1.3-.68-1.74-.44-.44-1.02-.66-1.74-.66-.56 0-1.054.12667-1.48.38-.414.24-.814.56-1.2.96l-.9-.86c.4-.49333.906-.90667 1.52-1.24.613-.34667 1.3-.52 2.06-.52zm-.76 8.76c.586 0 1.12-.14 1.6-.42.493-.28.88-.66 1.16-1.14.28-.4933.42-1.04.42-1.64v-.68l-3.16.52c-.68.12-1.187.3333-1.52.64-.334.3067-.5.6867-.5 1.14 0 .44.18.8133.54 1.12.373.3067.86.46 1.46.46z"/><path d="m168.666 18.2c-.8 0-1.547-.2133-2.24-.64-.68-.44-1.227-1.04-1.64-1.8s-.62-1.6133-.62-2.56.207-1.8.62-2.56.96-1.35333 1.64-1.78c.693-.44 1.44-.66 2.24-.66.813 0 1.533.19333 2.16.58.627.37333 1.073.8 1.34 1.28h.04v-6.06h1.34v14h-1.34v-1.66h-.04c-.267.48-.713.9133-1.34 1.3-.627.3733-1.347.56-2.16.56zm.16-1.32c.613 0 1.173-.16 1.68-.48.52-.32.933-.76 1.24-1.32s.46-1.1867.46-1.88c0-.7067-.153-1.34-.46-1.9s-.72-.9933-1.24-1.3c-.507-.32-1.067-.48-1.68-.48-.587 0-1.133.16-1.64.48-.507.3067-.913.74-1.22 1.3-.293.56-.44 1.1933-.44 1.9 0 .6933.147 1.32.44 1.88.307.56.713 1 1.22 1.32s1.053.48 1.64.48z"/><path d="m180.459 18.2c-.867 0-1.667-.22-2.4-.66-.734-.4533-1.32-1.06-1.76-1.82s-.66-1.6-.66-2.52c0-.9333.213-1.78.64-2.54.426-.76 1-1.36 1.72-1.8s1.506-.66 2.36-.66c.84 0 1.6.20667 2.28.62.693.41333 1.24.99333 1.64 1.74.4.7467.6 1.5867.6 2.52 0 .2133-.014.4267-.04.64h-7.8c.066.5867.26 1.12.58 1.6s.726.86 1.22 1.14c.506.28 1.06.42 1.66.42 1.106 0 2.086-.48 2.94-1.44l.94.86c-.427.5333-.967.9867-1.62 1.36-.654.36-1.42.54-2.3.54zm3.04-5.66c-.12-.9333-.46-1.6733-1.02-2.22-.56-.56-1.267-.84-2.12-.84-.56 0-1.087.14-1.58.42-.48.2667-.88.6333-1.2 1.1-.307.4667-.494.98-.56 1.54z"/><path d="m186.775 18v-9.6h1.36v1.48h.02c.2-.42667.547-.81333 1.04-1.16.507-.34667 1.107-.52 1.8-.52.734 0 1.374.2 1.92.6.547.4.934.84 1.16 1.32h.04c.214-.48.607-.92 1.18-1.32.587-.4 1.287-.6 2.1-.6.654 0 1.247.17333 1.78.52.547.33333.98.81333 1.3 1.44.32.6133.48 1.3267.48 2.14v5.7h-1.36v-5.7c0-.8533-.226-1.5267-.68-2.02-.453-.50667-1.026-.76-1.72-.76-.76 0-1.393.28667-1.9.86-.493.56-.74 1.3133-.74 2.26v5.36h-1.36v-5.7c0-.8533-.233-1.5267-.7-2.02-.453-.50667-1.026-.76-1.72-.76-.76 0-1.393.28667-1.9.86-.493.56-.74 1.3133-.74 2.26v5.36z"/><path d="m209.866 8.4h1.42l-4.14 11.1c-.347.9333-.767 1.6133-1.26 2.04-.48.44-1.093.66-1.84.66-.413 0-.793-.08-1.14-.24v-1.32c.12.0667.267.1267.44.18.187.0533.38.08.58.08.827 0 1.427-.48 1.8-1.44l.58-1.44-4.24-9.62h1.48l3.46 7.94h.04z"/></g></svg>