<svg fill="none" height="48" viewBox="0 0 163 48" width="163" xmlns="http://www.w3.org/2000/svg"><g fill="#000"><path d="m38.1972 18.5961-11.2214-5.1186c-1.1609-.5339-2.0638-.7732-3.0034-.7548-.9214-.0184-1.8427.2209-3.0035.7548l-11.22156 5.1186c-.66329.2946-.97659.8469-.97659 1.3809 0 .5339.3133 1.0494.97659 1.344l4.91976 2.2463 6.9467-3.2957c-.0738-.0921-.0921-.2025-.0921-.2946 0-.7734 1.253-1.3073 2.4875-1.3073 1.2529 0 2.4691.5339 2.4691 1.3073 0 .7733-1.1978 1.3256-2.4691 1.3256-.4054 0-.7739-.0368-1.124-.1473l-6.5965 3.1669 4.6802 2.1542c1.1793.5523 2.0821.7549 3.0035.7365.9396.0184 1.8425-.2026 3.0034-.7365l11.2214-5.1554c.6634-.2946.9766-.8101.9766-1.344 0-.534-.3132-1.0863-.9766-1.3809z"/><path d="m23.9724 34.4856c6.6333 0 10.7608-2.946 10.7608-6.0023v-3.9218l-7.1678 3.2774c-1.3083.5892-2.4875.9021-3.593.8654-1.1057.0367-2.285-.2762-3.5748-.8654l-4.1643-1.8965v6.7204c-.5711-.3314-1.0502-.718-1.4925-1.1415v-6.2601l-1.5293-.6997v3.9218c0 .939.5528 2.0621 1.5293 3.038v1.943c-.4838.1887-.7554.63-.7554 1.2422v2.5409c0 .8286.4975 1.3624 1.3451 1.3624h.2948c.8292 0 1.3636-.5338 1.3636-1.3624v-2.5409c0-.6024-.2826-1.0394-.7556-1.233v-.8107c1.8611 1.1047 4.496 1.8228 7.7391 1.8228z"/><path clip-rule="evenodd" d="m23.9908 47.9632c13.1378 0 24.0092-10.8631 24.0092-23.9724 0-13.1278-10.8899-23.9908-24.0276-23.9908-13.1194 0-23.9724 10.863-23.9724 23.9908 0 13.1093 10.8714 23.9724 23.9908 23.9724zm0-3.4247c-11.3874 0-20.54512-9.1692-20.54512-20.5477 0-11.397 9.13932-20.54775 20.52672-20.54775 11.4057 0 20.5819 9.15075 20.5819 20.54775 0 11.3785-9.1578 20.5477-20.5635 20.5477z" fill-rule="evenodd"/><path d="m60 0h1v48h-1z"/><path clip-rule="evenodd" d="m74.8 10v14h3v-4.6h2.96c.9467 0 1.7934-.2067 2.54-.62.7601-.4133 1.3467-.9733 1.7601-1.68.4266-.72.6399-1.52.6399-2.4s-.2133-1.6733-.6399-2.38c-.4134-.72-1-1.2867-1.7601-1.7-.7466-.4133-1.5933-.62-2.54-.62zm7.3 6.12c-.3866.3867-.8666.58-1.44.58h-2.86v-4h2.86c.5734 0 1.0534.2 1.44.6.4001.3867.6.8533.6 1.4s-.1999 1.02-.6 1.42z" fill-rule="evenodd"/><path d="m87.2008 24v-14h2.7v5.68h.06c.24-.4.6133-.76 1.12-1.08.52-.3333 1.1134-.5 1.78-.5.7067 0 1.3334.1667 1.88.5.5467.3333.9733.8133 1.28 1.44.32.6133.48 1.3467.48 2.2v5.76h-2.7v-5.4c0-.6-.1666-1.0733-.5-1.42-.3333-.36-.7667-.54-1.3-.54-.6133 0-1.12.2133-1.52.64-.3867.4133-.58.9533-.58 1.62v5.1z"/><path clip-rule="evenodd" d="m102.395 14.1c.827 0 1.56.1733 2.2.52.654.3333 1.16.7933 1.52 1.38.36.5733.54 1.2067.54 1.9v6.1h-2.56v-1.34h-.06c-.24.3867-.62.74-1.14 1.06s-1.113.48-1.78.48c-.613 0-1.1664-.1267-1.6597-.38-.48-.2533-.86-.5933-1.14-1.02-.28-.44-.42-.9067-.42-1.4 0-.8267.26-1.5067.78-2.04s1.26-.8933 2.2197-1.08l3.06-.58c-.026-.3866-.2-.7133-.52-.98-.306-.28-.7-.42-1.18-.42-.826 0-1.58.38-2.2597 1.14l-1.54-1.48c.4266-.5067.9733-.94 1.6397-1.3.68-.3733 1.447-.56 2.3-.56zm-.5 7.94c.587 0 1.074-.2067 1.46-.62.4-.4133.6-.9533.6-1.62v-.32l-2.1.42c-.373.0667-.666.2067-.88.42-.213.2-.32.4267-.32.68 0 .3067.107.56.32.76.227.1867.534.28.92.28z" fill-rule="evenodd"/><path d="m108.659 24v-9.7h2.7v1.2h.06c.24-.36.6-.68 1.08-.96.494-.2933 1.047-.44 1.66-.44h.46v2.9c-.32-.1067-.62-.16-.9-.16-.693 0-1.26.24-1.7.72-.44.4667-.66 1.0934-.66 1.88v4.56z"/><path d="m115.816 24v-9.7h2.7v1.38h.06c.186-.4.52-.76 1-1.08.48-.3333 1.046-.5 1.7-.5.666 0 1.246.1733 1.74.52.493.3333.84.7067 1.04 1.12h.08c.226-.4133.633-.7867 1.22-1.12.6-.3467 1.286-.52 2.06-.52.626 0 1.193.1667 1.7.5.52.3333.933.8133 1.24 1.44.306.6267.46 1.36.46 2.2v5.76h-2.7v-5.5c0-.5867-.154-1.04-.46-1.36-.294-.3333-.674-.5-1.14-.5-.534 0-.974.1933-1.32.58-.347.3867-.52.9133-.52 1.58v5.2h-2.7v-5.5c0-.5867-.154-1.04-.46-1.36-.294-.3333-.674-.5-1.14-.5-.547 0-.994.1933-1.34.58-.347.3867-.52.9133-.52 1.58v5.2z"/><path clip-rule="evenodd" d="m136.716 14.1c.826 0 1.56.1733 2.2.52.653.3333 1.16.7933 1.52 1.38.36.5733.54 1.2067.54 1.9v6.1h-2.56v-1.34h-.06c-.24.3867-.62.74-1.14 1.06s-1.114.48-1.78.48c-.614 0-1.167-.1267-1.66-.38-.48-.2533-.86-.5933-1.14-1.02-.28-.44-.42-.9067-.42-1.4 0-.8267.26-1.5067.78-2.04s1.26-.8933 2.22-1.08l3.06-.58c-.027-.3866-.2-.7133-.52-.98-.307-.28-.7-.42-1.18-.42-.827 0-1.58.38-2.26 1.14l-1.54-1.48c.426-.5067.973-.94 1.64-1.3.68-.3733 1.446-.56 2.3-.56zm-.5 7.94c.586 0 1.073-.2067 1.46-.62.4-.4133.6-.9533.6-1.62v-.32l-2.1.42c-.374.0667-.667.2067-.88.42-.214.2-.32.4267-.32.68 0 .3067.106.56.32.76.226.1867.533.28.92.28z" fill-rule="evenodd"/><path clip-rule="evenodd" d="m157.334 24.2c-.96 0-1.84-.2267-2.64-.68-.787-.4533-1.414-1.0667-1.88-1.84-.454-.7733-.68-1.62-.68-2.54s.226-1.7666.68-2.54c.466-.7733 1.093-1.38 1.88-1.82.8-.4533 1.68-.68 2.64-.68.973 0 1.853.2267 2.64.68.8.44 1.426 1.0467 1.88 1.82.453.7734.68 1.62.68 2.54s-.227 1.7667-.68 2.54c-.454.7733-1.08 1.3867-1.88 1.84-.787.4533-1.667.68-2.64.68zm0-2.5c.68 0 1.26-.2467 1.74-.74s.72-1.1.72-1.82-.24-1.32-.72-1.8c-.48-.4933-1.06-.74-1.74-.74s-1.26.2467-1.74.74c-.467.48-.7 1.08-.7 1.8s.233 1.3267.7 1.82c.48.4933 1.06.74 1.74.74z" fill-rule="evenodd"/><path d="m141.784 24h3.02l2.02-3.28h.06l2.02 3.28h3.12l-3.32-5 3.08-4.7h-3.02l-1.78 2.96h-.06l-1.76-2.96h-3.12l3.08 4.7z"/><path d="m137.841 33.32h-1.136l-2.256 6.352h-.032l-2.768-6.352h-1.184l3.392 7.696-.464 1.152c-.298.768-.778 1.152-1.44 1.152-.16 0-.314-.0213-.464-.064-.138-.0427-.256-.0907-.352-.144v1.056c.278.128.582.192.912.192.598 0 1.088-.176 1.472-.528.395-.3413.731-.8853 1.008-1.632z"/><path d="m118.233 41h1.088v-4.288c0-.7573.197-1.36.592-1.808.405-.4587.912-.688 1.52-.688.554 0 1.013.2027 1.376.608.373.3947.56.9333.56 1.616v4.56h1.088v-4.288c0-.7573.197-1.36.592-1.808.405-.4587.912-.688 1.52-.688.554 0 1.013.2027 1.376.608.362.3947.544.9333.544 1.616v4.56h1.088v-4.56c0-.6507-.128-1.2213-.384-1.712-.256-.5013-.603-.8853-1.04-1.152-.427-.2773-.902-.416-1.424-.416-.651 0-1.211.16-1.68.48-.459.32-.774.672-.944 1.056h-.032c-.182-.384-.491-.736-.928-1.056-.438-.32-.95-.48-1.536-.48-.555 0-1.035.1387-1.44.416-.395.2773-.672.5867-.832.928h-.016v-1.184h-1.088z"/><g clip-rule="evenodd" fill-rule="evenodd"><path d="m111.259 40.632c.587.352 1.227.528 1.921.528.703 0 1.317-.144 1.839-.432.523-.2987.955-.6613 1.296-1.088l-.752-.688c-.682.768-1.466 1.152-2.352 1.152-.479 0-.922-.112-1.328-.336-.394-.224-.719-.528-.976-.912-.256-.384-.41-.8107-.464-1.28h6.24c.022-.1707.032-.3413.032-.512 0-.7467-.16-1.4187-.48-2.016s-.757-1.0613-1.312-1.392c-.543-.3307-1.152-.496-1.824-.496-.682 0-1.312.176-1.888.528s-1.034.832-1.375 1.44c-.342.608-.513 1.2853-.513 2.032 0 .736.177 1.408.529 2.016.351.608.821 1.0933 1.407 1.456zm3.536-5.776c.448.4373.721 1.0293.817 1.776h-5.185c.054-.448.203-.8587.448-1.232.256-.3733.576-.6667.961-.88.394-.224.815-.336 1.263-.336.683 0 1.248.224 1.696.672z"/><path d="m101.953 40.648c.555.3413 1.152.512 1.792.512.651 0 1.227-.1493 1.728-.448.502-.3094.859-.656 1.072-1.04h.032v1.328h1.072v-11.2h-1.072v4.848h-.032c-.213-.384-.57-.7253-1.072-1.024-.501-.3093-1.077-.464-1.728-.464-.64 0-1.237.176-1.792.528-.544.3413-.981.816-1.312 1.424-.33.608-.496 1.2906-.496 2.048 0 .7573.166 1.44.496 2.048.331.608.768 1.088 1.312 1.44zm3.264-.928c-.405.256-.853.384-1.344.384-.469 0-.906-.128-1.312-.384-.405-.256-.73-.608-.976-1.056-.234-.448-.352-.9493-.352-1.504 0-.5653.118-1.072.352-1.52.246-.448.571-.7947.976-1.04.406-.256.843-.384 1.312-.384.491 0 .939.128 1.344.384.416.2453.747.592.992 1.04.246.448.368.9547.368 1.52 0 .5547-.122 1.056-.368 1.504-.245.448-.576.8-.992 1.056z"/><path d="m97.1747 33.544c-.448-.256-.9654-.384-1.552-.384-.6081 0-1.1574.1387-1.648.416-.4907.2667-.896.5973-1.216.992l.72.688c.3093-.32.6293-.576.96-.768.3413-.2027.736-.304 1.184-.304.576 0 1.04.176 1.3919.528.3627.352.5441.816.5441 1.392v.016l-2.784.464c-.7787.128-1.3814.4053-1.808.832-.4267.416-.64.9333-.64 1.552 0 .384.1066.7467.32 1.088.224.3307.528.5974.912.8.3946.2027.8426.304 1.3439.304.6187 0 1.168-.144 1.6481-.432.48-.288.8213-.608 1.0239-.96h.0161v1.232h1.04v-4.832c0-.5867-.128-1.104-.384-1.552-.256-.4587-.6134-.816-1.072-1.072zm-.8801 6.288c-.384.224-.8106.336-1.28.336-.4799 0-.8693-.1227-1.168-.368-.2879-.2453-.4319-.544-.4319-.896 0-.3627.1333-.6667.4-.912.2666-.2453.672-.416 1.216-.512l2.528-.416v.544c0 .48-.112.9173-.336 1.312-.224.384-.5334.688-.9281.912z"/></g><path d="m86.3497 40.632c.5973.352 1.2426.528 1.936.528.704 0 1.328-.16 1.872-.48.5546-.32.9866-.6933 1.296-1.12l-.8-.656c-.2667.3307-.5973.6133-.992.848s-.8534.352-1.376.352c-.5013 0-.9654-.128-1.392-.384-.416-.256-.752-.608-1.008-1.056-.2453-.4587-.368-.96-.368-1.504s.1227-1.04.368-1.488c.256-.4587.592-.816 1.008-1.072.4266-.256.8907-.384 1.392-.384.928 0 1.7066.3893 2.336 1.168l.8-.656c-.3093-.416-.736-.7787-1.28-1.088-.5333-.32-1.152-.48-1.856-.48-.6934 0-1.3387.1813-1.936.544-.5867.352-1.056.832-1.408 1.44-.3414.608-.512 1.28-.512 2.016s.1706 1.408.512 2.016c.352.608.8213 1.0933 1.408 1.456z"/><path clip-rule="evenodd" d="m73.3359 41h1.232l1.28-3.12h5.344l1.264 3.12h1.2961l-4.5441-11.2h-1.328zm2.944-4.24 2.224-5.52h.032l2.208 5.52z" fill-rule="evenodd"/></g></svg>