<svg fill="none" height="24" viewBox="0 0 212 24" width="212" xmlns="http://www.w3.org/2000/svg"><g fill="#000"><path d="m13.4879 6.74393 5.6107 2.56126c.3317.14741.4883.42379.4883.69098 0 .26713-.1566.52513-.4883.67253l-5.6107 2.5797c-.5804.2671-1.0319.3777-1.5017.3685-.4607.0092-.9121-.0922-1.5018-.3685l-2.34006-1.078 3.29826-1.5846c.175.0553.3593.0737.562.0737.6357 0 1.2345-.2764 1.2345-.66333 0-.38697-.608-.65415-1.2345-.65415-.6173 0-1.2438.26718-1.2438.65415 0 .04603.0092.10133.0461.14743l-3.47335 1.6491-2.45988-1.124c-.33165-.1474-.48829-.4054-.48829-.67253 0-.26719.15664-.54357.48829-.69098l5.61073-2.56126c.5804-.26714 1.0411-.38692 1.5018-.37772.4698-.0092.9213.11058 1.5017.37772z"/><path d="m17.3666 14.2526c0 1.5293-2.0637 3.0034-5.3804 3.0034-1.6215 0-2.93901-.3593-3.86954-.9121v-3.3627l2.08214.9489c.6449.2949 1.2346.4514 1.7874.433.5527.0184 1.1424-.1381 1.7965-.433l3.5839-1.6399z"/><path d="m7.37042 15.7727c.22112.2119.46067.4054.74624.5712v.4057c.2365.0969.37777.3155.37777.617v1.2714c0 .4146-.26719.6817-.68178.6817h-.14741c-.42379 0-.67254-.2671-.67254-.6817v-1.2714c0-.3064.13582-.5272.37772-.6216z"/><path d="m7.37042 15.7727c-.48829-.4883-.76467-1.0503-.76467-1.5201v-1.9624l.76467.3501z"/><path clip-rule="evenodd" d="m24 12.0046c0 6.5597-5.4357 11.9954-12.0046 11.9954-6.55971 0-11.9954-5.4357-11.9954-11.9954 0-6.56891 5.42649-12.0046 11.9862-12.0046 6.5689 0 12.0138 5.43569 12.0138 12.0046zm-22.27716 0c0 5.6936 4.57887 10.2818 10.27256 10.2818 5.7029 0 10.2818-4.5882 10.2818-10.2818 0-5.7029-4.5881-10.28176-10.291-10.28176-5.69369 0-10.26336 4.57886-10.26336 10.28176z" fill-rule="evenodd"/><path d="m30 0h1v24h-1z"/><path clip-rule="evenodd" d="m38.8 18v-14h5.96c.9467 0 1.7933.20667 2.54.62.76.41333 1.3467.98 1.76 1.7.4267.70667.64 1.5.64 2.38s-.2133 1.68-.64 2.4c-.4133.7067-1 1.2667-1.76 1.68-.7467.4133-1.5933.62-2.54.62h-2.96v4.6zm5.86-7.3c.5733 0 1.0533-.1933 1.44-.58.4-.4.6-.87333.6-1.42s-.2-1.01333-.6-1.4c-.3867-.4-.8667-.6-1.44-.6h-2.86v4z" fill-rule="evenodd"/><path d="m51.2008 18v-14h2.7v5.68h.06c.24-.4.6133-.76 1.12-1.08.52-.33333 1.1133-.5 1.78-.5.7066 0 1.3333.16667 1.88.5.5466.33333.9733.81333 1.28 1.44.32.6133.48 1.3467.48 2.2v5.76h-2.7v-5.4c0-.6-.1667-1.0733-.5-1.42-.3334-.36-.7667-.54-1.3-.54-.6134 0-1.12.2133-1.52.64-.3867.4133-.58.9533-.58 1.62v5.1z"/><path clip-rule="evenodd" d="m68.5953 8.62c-.64-.34667-1.3733-.52-2.2-.52-.8533 0-1.62.18667-2.3.56-.6667.36-1.2133.79333-1.64 1.3l1.54 1.48c.68-.76 1.4333-1.14 2.26-1.14.48 0 .8733.14 1.18.42.32.2667.4933.5933.52.98l-3.06.58c-.96.1867-1.7.5467-2.22 1.08s-.78 1.2133-.78 2.04c0 .4933.14.96.42 1.4.28.4267.66.7667 1.14 1.02.4933.2533 1.0467.38 1.66.38.6667 0 1.26-.16 1.78-.48s.9-.6733 1.14-1.06h.06v1.34h2.56v-6.1c0-.6933-.18-1.3267-.54-1.9-.36-.58667-.8667-1.04667-1.52-1.38zm-1.24 6.8c-.3867.4133-.8733.62-1.46.62-.3867 0-.6933-.0933-.92-.28-.2133-.2-.32-.4533-.32-.76 0-.2533.1067-.48.32-.68.2133-.2133.5067-.3533.88-.42l2.1-.42v.32c0 .6667-.2 1.2067-.6 1.62z" fill-rule="evenodd"/><path d="m72.6594 18v-9.7h2.7v1.2h.06c.24-.36.6-.68 1.08-.96.4933-.29333 1.0466-.44 1.66-.44h.46v2.9c-.32-.1067-.62-.16-.9-.16-.6934 0-1.26.24-1.7.72-.44.4667-.66 1.0933-.66 1.88v4.56z"/><path d="m79.8156 8.3v9.7h2.7v-5.2c0-.6667.1733-1.1933.52-1.58s.7933-.58 1.34-.58c.4667 0 .8467.1667 1.14.5.3067.32.46.7733.46 1.36v5.5h2.7v-5.2c0-.6667.1733-1.1933.52-1.58s.7867-.58 1.32-.58c.4667 0 .8467.1667 1.14.5.3067.32.46.7733.46 1.36v5.5h2.7v-5.76c0-.84-.1533-1.5733-.46-2.2-.3066-.62667-.72-1.10667-1.24-1.44-.5067-.33333-1.0733-.5-1.7-.5-.7733 0-1.46.17333-2.06.52-.5867.33333-.9933.70667-1.22 1.12h-.08c-.2-.41333-.5467-.78667-1.04-1.12-.4933-.34667-1.0733-.52-1.74-.52-.6533 0-1.22.16667-1.7.5-.48.32-.8133.68-1 1.08h-.06v-1.38z"/><path clip-rule="evenodd" d="m100.716 8.1c.826 0 1.56.17333 2.2.52.653.33333 1.16.79333 1.52 1.38.36.5733.54 1.2067.54 1.9v6.1h-2.56v-1.34h-.06c-.24.3867-.62.74-1.14 1.06s-1.114.48-1.7804.48c-.6133 0-1.1667-.1267-1.66-.38-.48-.2533-.86-.5933-1.14-1.02-.28-.44-.42-.9067-.42-1.4 0-.8267.26-1.5067.78-2.04s1.26-.8933 2.22-1.08l3.0604-.58c-.027-.3867-.2-.7133-.52-.98-.307-.28-.7-.42-1.18-.42-.8271 0-1.5804.38-2.2604 1.14l-1.54-1.48c.4267-.50667.9733-.94 1.64-1.3.68-.37333 1.4467-.56 2.3004-.56zm-.5 7.94c.586 0 1.073-.2067 1.46-.62.4-.4133.6-.9533.6-1.62v-.32l-2.1.42c-.3737.0667-.6671.2067-.8804.42-.2133.2-.32.4267-.32.68 0 .3067.1067.56.32.76.2267.1867.5333.28.9204.28z" fill-rule="evenodd"/><path d="m105.784 18h3.02l2.02-3.28h.06l2.02 3.28h3.12l-3.32-5 3.08-4.7h-3.02l-1.78 2.96h-.06l-1.76-2.96h-3.12l3.08 4.7z"/><path clip-rule="evenodd" d="m121.334 18.2c-.96 0-1.84-.2267-2.64-.68-.787-.4533-1.414-1.0667-1.88-1.84-.454-.7733-.68-1.62-.68-2.54s.226-1.7667.68-2.54c.466-.77333 1.093-1.38 1.88-1.82.8-.45333 1.68-.68 2.64-.68.973 0 1.853.22667 2.64.68.8.44 1.426 1.04667 1.88 1.82.453.7733.68 1.62.68 2.54s-.227 1.7667-.68 2.54c-.454.7733-1.08 1.3867-1.88 1.84-.787.4533-1.667.68-2.64.68zm0-2.5c.68 0 1.26-.2467 1.74-.74s.72-1.1.72-1.82-.24-1.32-.72-1.8c-.48-.4933-1.06-.74-1.74-.74s-1.26.2467-1.74.74c-.467.48-.7 1.08-.7 1.8s.233 1.3267.7 1.82c.48.4933 1.06.74 1.74.74z" fill-rule="evenodd"/><path clip-rule="evenodd" d="m130.654 18h1.54l1.6-3.9h6.68l1.58 3.9h1.62l-5.68-14h-1.66zm3.68-5.3 2.78-6.9h.04l2.76 6.9z" fill-rule="evenodd"/><path d="m149.342 18.2c-.867 0-1.674-.22-2.42-.66-.734-.4533-1.32-1.06-1.76-1.82-.427-.76-.64-1.6-.64-2.52s.213-1.76.64-2.52c.44-.76 1.026-1.36 1.76-1.8.746-.45333 1.553-.68 2.42-.68.88 0 1.653.2 2.32.6.68.38667 1.213.84 1.6 1.36l-1 .82c-.787-.9733-1.76-1.46-2.92-1.46-.627 0-1.207.16-1.74.48-.52.32-.94.7667-1.26 1.34-.307.56-.46 1.18-.46 1.86s.153 1.3067.46 1.88c.32.56.74 1 1.26 1.32.533.32 1.113.48 1.74.48.653 0 1.226-.1467 1.72-.44.493-.2933.906-.6467 1.24-1.06l1 .82c-.387.5333-.927 1-1.62 1.4-.68.4-1.46.6-2.34.6z"/><g clip-rule="evenodd" fill-rule="evenodd"><path d="m160.453 8.68c-.56-.32-1.207-.48-1.94-.48-.76 0-1.447.17333-2.06.52-.614.33333-1.12.74667-1.52 1.24l.9.86c.386-.4.786-.72 1.2-.96.426-.25333.92-.38 1.48-.38.72 0 1.3.22 1.74.66.453.44.68 1.02.68 1.74v.02l-3.48.58c-.974.16-1.727.5067-2.26 1.04-.534.52-.8 1.1667-.8 1.94 0 .48.133.9333.4 1.36.28.4133.66.7467 1.14 1 .493.2533 1.053.38 1.68.38.773 0 1.46-.18 2.06-.54s1.026-.76 1.28-1.2h.02v1.54h1.3v-6.04c0-.7333-.16-1.38-.48-1.94-.32-.57333-.767-1.02-1.34-1.34zm-1.1 7.86c-.48.28-1.014.42-1.6.42-.6 0-1.087-.1533-1.46-.46-.36-.3067-.54-.68-.54-1.12 0-.4533.166-.8333.5-1.14.333-.3067.84-.52 1.52-.64l3.16-.52v.68c0 .6-.14 1.1467-.42 1.64-.28.48-.667.86-1.16 1.14z"/><path d="m168.666 18.2c-.8 0-1.547-.2133-2.24-.64-.68-.44-1.227-1.04-1.64-1.8s-.62-1.6133-.62-2.56.207-1.8.62-2.56.96-1.35333 1.64-1.78c.693-.44 1.44-.66 2.24-.66.813 0 1.533.19333 2.16.58.627.37333 1.073.8 1.34 1.28h.04v-6.06h1.34v14h-1.34v-1.66h-.04c-.267.48-.713.9133-1.34 1.3-.627.3733-1.347.56-2.16.56zm.16-1.32c.613 0 1.173-.16 1.68-.48.52-.32.933-.76 1.24-1.32s.46-1.1867.46-1.88c0-.7067-.153-1.34-.46-1.9s-.72-.9933-1.24-1.3c-.507-.32-1.067-.48-1.68-.48-.587 0-1.133.16-1.64.48-.507.3067-.913.74-1.22 1.3-.293.56-.44 1.1933-.44 1.9 0 .6933.147 1.32.44 1.88.307.56.713 1 1.22 1.32s1.053.48 1.64.48z"/><path d="m178.059 17.54c.733.44 1.533.66 2.4.66.88 0 1.646-.18 2.3-.54.653-.3733 1.193-.8267 1.62-1.36l-.94-.86c-.854.96-1.834 1.44-2.94 1.44-.6 0-1.154-.14-1.66-.42-.494-.28-.9-.66-1.22-1.14s-.514-1.0133-.58-1.6h7.8c.026-.2133.04-.4267.04-.64 0-.9333-.2-1.7733-.6-2.52-.4-.74667-.947-1.32667-1.64-1.74-.68-.41333-1.44-.62-2.28-.62-.854 0-1.64.22-2.36.66s-1.294 1.04-1.72 1.8c-.427.76-.64 1.6067-.64 2.54 0 .92.22 1.76.66 2.52s1.026 1.3667 1.76 1.82zm4.42-7.22c.56.5467.9 1.2867 1.02 2.22h-6.48c.066-.56.253-1.0733.56-1.54.32-.4667.72-.8333 1.2-1.1.493-.28 1.02-.42 1.58-.42.853 0 1.56.28 2.12.84z"/></g><path d="m186.775 8.4h1.36v1.48h.02c.2-.42667.547-.81333 1.04-1.16.507-.34667 1.107-.52 1.8-.52.734 0 1.374.2 1.92.6.547.4.934.84 1.16 1.32h.04c.214-.48.607-.92 1.18-1.32.587-.4 1.287-.6 2.1-.6.654 0 1.247.17333 1.78.52.547.33333.98.81333 1.3 1.44.32.6133.48 1.3267.48 2.14v5.7h-1.36v-5.7c0-.8533-.226-1.5267-.68-2.02-.453-.50667-1.026-.76-1.72-.76-.76 0-1.393.28667-1.9.86-.493.56-.74 1.3133-.74 2.26v5.36h-1.36v-5.7c0-.8533-.233-1.5267-.7-2.02-.453-.50667-1.026-.76-1.72-.76-.76 0-1.393.28667-1.9.86-.493.56-.74 1.3133-.74 2.26v5.36h-1.36z"/><path d="m211.286 8.4h-1.42l-2.82 7.94h-.04l-3.46-7.94h-1.48l4.24 9.62-.58 1.44c-.373.96-.973 1.44-1.8 1.44-.2 0-.393-.0267-.58-.08-.173-.0533-.32-.1133-.44-.18v1.32c.347.16.727.24 1.14.24.747 0 1.36-.22 1.84-.66.493-.4267.913-1.1067 1.26-2.04z"/></g></svg>