<svg fill="none" height="48" viewBox="0 0 48 48" width="48" xmlns="http://www.w3.org/2000/svg"><path clip-rule="evenodd" d="m24 48c13.2548 0 24-10.7452 24-24s-10.7452-24-24-24-24 10.7452-24 24 10.7452 24 24 24zm-5.8288-19.9727c-.6635 0-1.2842-.3598-1.6195-.9379-.935-1.6171-1.4291-3.4578-1.4291-5.3232 0-5.8744 4.781-10.6537 10.6579-10.6537 1.0304 0 1.8692.8415 1.8692 1.8757 0 1.0346-.8411 1.8761-1.875 1.8761-3.8061 0-6.9017 3.0963-6.9017 6.9019 0 1.2082.32 2.4002.9259 3.4482.1629.2814.2485.6051.2485.9363 0 1.0347-.8415 1.8766-1.8762 1.8766zm3.7625-10.4089c-1.1146 1.0325-1.8123 2.5085-1.8123 4.1478 0 1.0285.278 1.9913.7592 2.8239.2689.466.4147 1.0023.4147 1.5606 0 1.2487-.732 2.3259-1.7898 2.827 1.4512.4484 3.0781.3144 4.498-.5047.8915-.5144 1.5858-1.2362 2.0658-2.0703.2697-.4658.66-.86 1.1445-1.1392 1.0808-.6244 2.3803-.529 3.3432.1378-.337-1.4817-1.2664-2.824-2.6866-3.6441-.891-.5144-1.8636-.7546-2.8246-.754-.5385 0-1.0759-.1415-1.5594-.4212-1.0817-.6243-1.649-1.7967-1.5527-2.9636zm10.716 15.3006c-.3282 0-.6536-.087-.9412-.2535-.896-.5173-1.2047-1.6661-.6869-2.5617 1.9016-3.2959.7688-7.525-2.5266-9.428-1.0443-.6028-2.2349-.9215-3.4434-.9215-.3308 0-.6539-.0876-.9419-.2535-.8953-.5176-1.2026-1.6674-.6858-2.5632.3311-.5739.9528-.9316 1.6219-.9331 1.8704 0 3.7097.4924 5.3242 1.4244 2.463 1.4222 4.2256 3.7202 4.9622 6.4709.7364 2.75.3582 5.6216-1.0647 8.0859-.332.5757-.9529.9333-1.6178.9333zm-11.4607 1.3103c-3.8029 0-7.3443-2.0429-9.2413-5.3308-.5157-.8924-.2057-2.0391.6898-2.5556.8698-.5022 2.066-.176 2.5619.685 1.2301 2.1293 3.5228 3.4518 5.9837 3.4518 1.2039 0 2.3955-.3202 3.4442-.9254 1.047-.6038 1.9191-1.4777 2.5238-2.5272.1632-.2813.4005-.5172.6873-.6821.8679-.5029 2.0647-.1752 2.5623.6864.3321.5752.3304 1.2926-.0033 1.8715-.9321 1.6171-2.2785 2.9654-3.8942 3.8983-1.6182.9342-3.4556 1.4281-5.3142 1.4281z" fill="#000" fill-rule="evenodd"/></svg>