<svg fill="none" height="48" viewBox="0 0 48 48" width="48" xmlns="http://www.w3.org/2000/svg" xmlns:xlink="http://www.w3.org/1999/xlink"><linearGradient id="a" gradientUnits="userSpaceOnUse" x1="24" x2="24" y1="0" y2="48"><stop offset="0" stop-color="#ffb300"/><stop offset="1" stop-color="#ff8f00"/></linearGradient><circle cx="24" cy="24" fill="url(#a)" r="24"/><g fill="#fff"><path d="m16.5517 27.0894c.3353.5781.956.9379 1.6195.9379 1.0347 0 1.8762-.8419 1.8762-1.8766 0-.3312-.0856-.6549-.2485-.9363-.6059-1.048-.9259-2.24-.9259-3.4482 0-3.8056 3.0956-6.9019 6.9017-6.9019 1.0339 0 1.875-.8415 1.875-1.8761 0-1.0342-.8388-1.8757-1.8692-1.8757-5.8769 0-10.6579 4.7793-10.6579 10.6537 0 1.8654.4941 3.7061 1.4291 5.3232z"/><path d="m20.1214 21.7662c0-1.6393.6977-3.1153 1.8123-4.1478-.0963 1.1669.471 2.3393 1.5527 2.9636.4835.2797 1.0209.4212 1.5594.4212.961-.0006 1.9336.2396 2.8246.754 1.4202.8201 2.3496 2.1624 2.6866 3.6441-.9629-.6668-2.2624-.7622-3.3432-.1378-.4845.2792-.8748.6734-1.1445 1.1392-.48.8341-1.1743 1.5559-2.0658 2.0703-1.4199.8191-3.0468.9531-4.498.5047 1.0578-.5011 1.7898-1.5783 1.7898-2.827 0-.5583-.1458-1.0946-.4147-1.5606-.4812-.8326-.7592-1.7954-.7592-2.8239z"/><path d="m32.6497 32.919c-.3282 0-.6536-.087-.9412-.2535-.896-.5173-1.2047-1.6661-.6869-2.5617 1.9016-3.2959.7688-7.525-2.5266-9.428-1.0443-.6028-2.2349-.9215-3.4434-.9215-.3308 0-.6539-.0876-.9419-.2535-.8953-.5176-1.2026-1.6674-.6858-2.5632.3311-.5739.9528-.9316 1.6219-.9331 1.8704 0 3.7097.4924 5.3242 1.4244 2.463 1.4222 4.2256 3.7202 4.9622 6.4709.7364 2.75.3582 5.6216-1.0647 8.0859-.332.5757-.9529.9333-1.6178.9333z"/><path d="m11.9477 28.8985c1.897 3.2879 5.4384 5.3308 9.2413 5.3308 1.8586 0 3.696-.4939 5.3142-1.4281 1.6157-.9329 2.9621-2.2812 3.8942-3.8983.3337-.5789.3354-1.2963.0033-1.8715-.4976-.8616-1.6944-1.1893-2.5623-.6864-.2868.1649-.5241.4008-.6873.6821-.6047 1.0495-1.4768 1.9234-2.5238 2.5272-1.0487.6052-2.2403.9254-3.4442.9254-2.4609 0-4.7536-1.3225-5.9837-3.4518-.4959-.861-1.6921-1.1872-2.5619-.685-.8955.5165-1.2055 1.6632-.6898 2.5556z"/></g></svg>