<svg fill="none" height="48" viewBox="0 0 232 48" width="232" xmlns="http://www.w3.org/2000/svg"><g fill="#fff"><path d="m46.9323 37.2977h-4.7005v-16.3996c0-3.6093-2.9362-6.5461-6.5458-6.5461-3.6094 0-6.5458 2.9368-6.5458 6.5461v16.383h-4.7627v-37.2811h4.7627v11.6867c1.8898-1.3587 4.1778-2.09738 6.5458-2.09738 6.2013 0 11.2463 5.07308 11.2463 11.30878z"/><path clip-rule="evenodd" d="m0 48h4.78471v-12.7508c1.90676 1.376 4.21768 2.1239 6.61039 2.1239h.5805c6.2834 0 11.3951-5.1119 11.3951-11.3953v-5.1171c0-6.2828-5.1117-11.39503-11.3951-11.39503h-.5805c-6.28345 0-11.3951 5.11193-11.3951 11.39503zm4.78469-27.1393c0-3.6449 2.96541-6.6103 6.61031-6.6103h.5806c3.645 0 6.6107 2.9654 6.6107 6.6103v5.1171c0 3.6449-2.9657 6.6103-6.6107 6.6103h-.5806c-3.6449 0-6.61031-2.9654-6.61031-6.6103z" fill-rule="evenodd"/><path d="m70.9997 37.279h-4.5328v-16.4349c0-3.7173-3.0243-6.7418-6.7416-6.7418h-.5821c-3.7173 0-6.7418 3.0245-6.7418 6.7418v5.1201c0 3.7173 3.0245 6.7416 6.7418 6.7416h.5821c1.7979 0 3.511-.694 4.8236-1.9545l1.315-1.3071v1.1714c0 .6744-.0051 1.8278-.0096 2.8276l-.0019.4334c-.0026.5776-.0047 1.0615-.0047 1.3039v.2723l-.232.1427c-1.7469 1.0749-3.784 1.6434-5.8904 1.6434h-.5821c-6.2167 0-11.2744-5.0579-11.2744-11.2747v-5.1201c0-6.2167 5.0577-11.27438 11.2744-11.27438h.5821c6.2168 0 11.2744 5.05768 11.2744 11.27438z"/><path clip-rule="evenodd" d="m184.579 37.2371h.582c6.198 0 11.256-5.057 11.274-11.2741v-5.1204c0-6.2167-5.057-11.27408-11.274-11.27408h-.582c-6.216 0-11.274 5.05738-11.274 11.27408v5.1575c.021 6.196 5.079 11.237 11.274 11.237zm-6.742-16.3945c0-3.7173 3.025-6.7418 6.742-6.7418h.582c3.718 0 6.742 3.0245 6.742 6.7418v5.1204c0 3.717-3.024 6.7413-6.742 6.7413h-.582c-3.717 0-6.742-3.0243-6.742-6.7413z" fill-rule="evenodd"/><path d="m71.9959 37.2371h4.5326v-16.3945c0-3.7173 3.0239-6.7415 6.7391-6.7415.9145.0033 1.8006.1867 2.6334.545l.6798.2922v-4.87l-.358-.09865c-.8834-.2431-1.7979-.37701-2.7229-.39843l-.2308-.00271c-2.4415.0015-4.7983.79349-6.7406 2.24849v-2.25784h-4.5326z"/><path d="m123.514 37.2371h4.533v-16.3945c0-6.0741-4.939-11.13023-11.014-11.27138l-.231-.00271c-3.557.00211-6.874 1.67389-9.005 4.50539-2.073-2.7524-5.292-4.42215-8.7492-4.50268l-.2305-.00271c-2.4415.0015-4.7982.79349-6.7406 2.24849v-2.25784h-4.5326v27.67794h4.5326v-16.3945c0-3.7173 3.0239-6.7415 6.7391-6.7415 3.7012.0129 6.7132 3.0372 6.7132 6.7415v16.3945h4.533v-16.3945c0-3.7173 3.023-6.7415 6.738-6.7415 3.703.0129 6.714 3.0372 6.714 6.7415z"/><path d="m147.736 37.279h4.533v-16.4349c0-6.2167-5.058-11.27438-11.274-11.27438h-.583c-6.217 0-11.274 5.05768-11.274 11.27438v5.1201c0 6.2168 5.057 11.2747 11.274 11.2747h.583c2.106 0 4.142-.5685 5.89-1.6434l.232-.1427v-.2723c0-.2779.002-.8731.005-1.5631l.002-.355v-.0045c.004-.9538.009-2.0091.009-2.6423v-1.1714l-1.315 1.3071c-1.312 1.2605-3.026 1.9545-4.823 1.9545h-.583c-3.718 0-6.741-3.0243-6.741-6.7416v-5.1201c0-3.7173 3.023-6.7418 6.741-6.7418h.583c3.717 0 6.741 3.0245 6.741 6.7418z"/><path d="m153.271 37.2395h.987c3.676-.0069 6.947-1.7851 9.002-4.5236 2.052 2.7343 5.316 4.5119 8.985 4.5236h.986v-4.5371h-.984c-3.699-.018-6.708-3.0408-6.708-6.7382v-5.1201c0-3.7037 3.014-6.727 6.717-6.7391h.987v-4.53648h-.988c-3.673.00875-6.941 1.78618-8.995 4.52268-2.055-2.7391-5.326-4.51696-9.003-4.52268h-.986v4.53648h.985c3.708.0097 6.724 3.033 6.724 6.7391v5.1201c0 3.7056-3.016 6.7286-6.723 6.7382h-.986z"/><path d="m205.15 21.7918c0 2.4964.673 4.8368 1.839 6.8534.404.6955 1.151 1.1663 2.013 1.1663 1.289 0 2.334-1.0445 2.334-2.3329 0-.4241-.11-.8216-.308-1.1639-.77-1.3313-1.215-2.8746-1.215-4.5232 0-4.9989 4.052-9.0513 9.051-9.0513 1.288 0 2.332-1.0451 2.332-2.3335 0-1.2885-1.035-2.33297-2.324-2.33297-7.574 0-13.722 6.14377-13.722 13.71807z"/><path d="m211.532 21.7915c0-2.1258.905-4.0407 2.351-5.3795-.125 1.5131.611 3.0345 2.013 3.844.628.3622 1.325.5459 2.022.5459 1.248-.0009 2.509.3112 3.665.9787 1.841 1.0629 3.047 2.804 3.484 4.7256-1.249-.8647-2.934-.9887-4.336-.1786-.628.3623-1.135.8738-1.484 1.4779-.623 1.081-1.524 2.0172-2.68 2.6846-1.841 1.0626-3.951 1.2363-5.834.6545 1.373-.6493 2.322-2.0464 2.322-3.666 0-.7251-.189-1.4197-.538-2.0247-.625-1.0798-.985-2.3278-.985-3.6624z"/><path d="m219.759 36.0174c2.162-1.2484 3.852-3.0019 5.015-5.0197.401-.6973.435-1.5798.003-2.3266-.644-1.1159-2.07-1.4981-3.186-.8544-.367.2123-.657.5061-.855.8484-.767 1.3325-1.881 2.4901-3.309 3.3141-4.329 2.4994-9.865 1.0161-12.365-3.3129-.644-1.1156-2.07-1.4969-3.186-.8523-1.116.6436-1.503 2.063-.859 3.1786 3.788 6.5594 12.182 8.8115 18.742 5.0248z"/><path d="m224.774 16.2533c-2.162-1.2483-4.526-1.8356-6.855-1.8343-.804.0015-1.585.4141-2.017 1.1608-.644 1.1157-.262 2.5423.854 3.1868.367.2118.766.3155 1.162.3155 1.538-.0012 3.097.3846 4.525 1.2089 4.329 2.5 5.812 8.0354 3.313 12.3644-.644 1.1159-.261 2.5419.855 3.1865 1.116.6439 2.538.2696 3.182-.8461 3.787-6.5593 1.54-14.9555-5.019-18.7425z"/></g></svg>