<svg fill="none" height="48" viewBox="0 0 48 48" width="48" xmlns="http://www.w3.org/2000/svg"><circle cx="24" cy="24" fill="#97999b" r="24"/><g fill="#fff"><path d="m16.5515 27.0895c.3353.578.956.9379 1.6194.9379 1.0348 0 1.8763-.8419 1.8763-1.8767 0-.3312-.0856-.6548-.2485-.9362-.6059-1.048-.9259-2.24-.9259-3.4483 0-3.8055 3.0955-6.9018 6.9016-6.9018 1.034 0 1.8751-.8415 1.8751-1.8761 0-1.0342-.8389-1.8758-1.8692-1.8758-5.8769 0-10.6579 4.7794-10.6579 10.6537 0 1.8655.4941 3.7062 1.4291 5.3233z"/><path d="m20.1211 21.7663c0-1.6393.6978-3.1153 1.8123-4.1478-.0962 1.1669.471 2.3392 1.5527 2.9636.4835.2797 1.0209.4212 1.5594.4212.961-.0006 1.9337.2396 2.8246.754 1.4202.8201 2.3496 2.1623 2.6866 3.644-.9628-.6668-2.2623-.7621-3.3432-.1378-.4845.2793-.8747.6734-1.1444 1.1393-.48.834-1.1744 1.5558-2.0658 2.0703-1.42.819-3.0469.9531-4.498.5047 1.0578-.5012 1.7898-1.5783 1.7898-2.8271 0-.5582-.1459-1.0945-.4147-1.5606-.4812-.8325-.7593-1.7954-.7593-2.8238z"/><path d="m32.6495 32.9191c-.3283 0-.6537-.0871-.9412-.2535-.896-.5174-1.2047-1.6662-.687-2.5617 1.9017-3.296.7688-7.525-2.5266-9.4281-1.0443-.6027-2.2349-.9215-3.4434-.9215-.3307 0-.6538-.0875-.9418-.2535-.8953-.5175-1.2026-1.6673-.6859-2.5631.3312-.574.9529-.9317 1.6219-.9331 1.8705 0 3.7098.4924 5.3242 1.4244 2.4631 1.4222 4.2257 3.7202 4.9623 6.4709.7364 2.7499.3582 5.6216-1.0647 8.0859-.3321.5757-.9529.9333-1.6178.9333z"/><path d="m11.9474 28.8986c1.8971 3.2879 5.4385 5.3307 9.2413 5.3307 1.8586 0 3.696-.4938 5.3142-1.428 1.6158-.933 2.9621-2.2812 3.8942-3.8983.3338-.5789.3354-1.2964.0034-1.8715-.4977-.8616-1.6945-1.1893-2.5624-.6865-.2867.165-.524.4008-.6873.6821-.6047 1.0495-1.4767 1.9234-2.5237 2.5273-1.0487.6052-2.2403.9254-3.4442.9254-2.461 0-4.7536-1.3225-5.9837-3.4518-.496-.861-1.6922-1.1873-2.5619-.6851-.8956.5166-1.2056 1.6633-.6899 2.5557z"/></g></svg>