<svg fill="none" height="195" viewBox="0 0 120 195" width="120" xmlns="http://www.w3.org/2000/svg"><path d="m120 0h195v120h-195z" fill="#eceff1" transform="matrix(0 1 -1 0 120 -120)"/><g fill="#263238"><path d="m106.243 172.974c-8.2058 0-16.3414-2.176-23.5302-6.338-22.3993-12.933-30.1177-41.653-17.1736-64.042 18.6086-32.2524 25.5943-68.0794 22.2643-102.594h32.1965v170.891c-4.403 1.362-9.036 2.083-13.757 2.083z"/><path d="m0 135.088c19.6243-18.137 36.5005-39.2102 49.9348-62.517 8.343-14.472 8.384-32.4083.0832-46.7866-9.9114-17.16062-30.9155-25.8491583-50.018-22.31724z"/></g></svg>