<svg fill="none" height="195" viewBox="0 0 120 195" width="120" xmlns="http://www.w3.org/2000/svg"><path d="m120 0h195v120h-195z" fill="#eceff1" transform="matrix(0 1 -1 0 120 -120)"/><g fill="#263238"><path d="m34.2512 0h-34.2512v22.707c14.582-1.9145 27.075-10.5597 34.2512-22.707z"/><path d="m0 147.067v-94.3409c38.2652 3.5104 75.4236 15.257 108.749 34.4949 3.818 2.2048 7.569 4.4937 11.251 6.8643v100.9147h-23.1876c-10.2371-10.108-21.912-19.085-34.9386-26.607-19.0878-11.018-40.1307-18.24-61.8738-21.326z"/><path d="m45.5099 195h-45.5099v-16.344c15.5952 2.7 30.9796 8.071 45.5099 16.344z"/></g></svg>