<svg fill="none" height="195" viewBox="0 0 120 195" width="120" xmlns="http://www.w3.org/2000/svg"><path d="m120 0h195v120h-195z" fill="#eceff1" transform="matrix(0 1 -1 0 120 -120)"/><g fill="#263238"><path d="m0 93.1844c16.7579-14.3336 27.3832-35.6308 27.3832-59.4191 0-11.904-2.6524-23.4091-7.6039-33.7653h100.2207v73.5411c-7.455 6.8572-15.768 13.0061-24.9113 18.2823-29.9301 17.2646-63.5376 22.3546-95.0887 16.8086z"/><path d="m120 113.076v81.924h-120v-54.776c8.08008 1.168 16.2912 1.768 24.5787 1.768 30.0967 0 59.8875-8.005 86.1043-23.136 3.171-1.829 6.278-3.757 9.317-5.78z"/></g></svg>