<svg fill="none" height="120" viewBox="0 0 195 120" width="195" xmlns="http://www.w3.org/2000/svg"><path d="m0 0h195v120h-195z" fill="#eceff1"/><g fill="#263238"><path d="m33.5389 0h-33.5389v41.2852c18.3011-5.3849 31.9861-21.6547 33.5389-41.2852z"/><path d="m195 41.6782v78.3218h-195v-27.0992c19.5392 7.5432 40.5513 11.5912 62.0787 11.5912 30.0967 0 59.8873-8.0053 86.1043-23.136 17.896-10.321 33.748-23.7989 46.817-39.6778z"/><path d="m64.7955 0h120.9905c-.534.845398-1.052 1.70111-1.553 2.56677-12 20.85083-29.359 38.89603-51.644 51.75663-35.4996 20.477-76.1719 23.8275-112.4506 12.6181 25.3844-12.0265 43.2639-37.3207 44.6571-66.9415z"/></g></svg>