<svg fill="none" height="195" viewBox="0 0 120 195" width="120" xmlns="http://www.w3.org/2000/svg" xmlns:xlink="http://www.w3.org/1999/xlink"><clipPath id="a"><path d="m0 0h120v195h-120z"/></clipPath><g clip-path="url(#a)" fill="#0d47a1"><path d="m67.6841 0h-67.6841v72.1044c15.0818-30.0976 38.7104-55.2006 67.6841-72.1044z"/><path d="m120 128.368v66.632h-99.293c-4.9634-14.38-7.6728-29.794-7.6728-45.847 0-40.982 17.4432-77.8821 45.3073-103.6937-2.406 29.1714 11.7757 58.4807 38.8183 74.0897 7.2262 4.181 14.9332 7.126 22.8402 8.819z"/><path d="m120 8.00058v87.92662c-2.496-.9253-4.922-2.0645-7.257-3.4096-22.3828-12.9392-30.0649-41.6829-17.1466-64.0783 5.5126-9.554 14.2456-16.7114 24.4036-20.43872z"/></g></svg>