<svg fill="none" height="195" viewBox="0 0 120 195" width="120" xmlns="http://www.w3.org/2000/svg"><path d="m120 0h195v120h-195z" fill="#eceff1" transform="matrix(0 1 -1 0 120 -120)"/><g fill="#263238"><path d="m120 122.699c-1.352-1.719-2.593-3.544-3.707-5.465-20.7226-35.8395-32.782-76.0723-35.2524-117.234h38.9594z"/><path d="m120 160.663c-14.788-12.577-27.5464-27.712-37.514-44.966-12.3992-21.5263-42.3037-29.6817-64.048-17.1269-8.2165 4.7389-14.46144 11.5999-18.438 19.4899v42.208c.37558.737.772766 1.469 1.19174 2.194 6.61814 11.47 14.03676 22.334 22.16206 32.538h96.6462z"/></g></svg>