<svg fill="none" height="120" viewBox="0 0 195 120" width="195" xmlns="http://www.w3.org/2000/svg"><path d="m0 0h195v120h-195z" fill="#eceff1"/><g fill="#263238"><path d="m60.415 0h-60.415v120h19.529c-.1355-2.777-.2036-5.56-.2036-8.347 0-42.5413 15.4734-81.5375 41.0896-111.653z"/><path d="m195 94.1704v25.8296h-144.2205c-.1627-2.761-.2453-5.544-.2453-8.347 0-40.9819 17.4432-77.8821 45.3074-103.69371-2.4061 29.17141 11.7754 58.48121 38.8184 74.09001 12.087 6.9929 25.521 10.5297 38.985 10.5297 7.113-.0045 14.251.5188 21.355 1.5914z"/><path d="m129.073 0h65.927v62.6674c-7.017-.871-14.101-1.3121-21.21-1.3121-8.269 0-16.348-2.1892-23.547-6.3377-19.456-11.2474-27.805-34.4366-21.17-55.0176z"/></g></svg>