<svg fill="none" height="195" viewBox="0 0 120 195" width="120" xmlns="http://www.w3.org/2000/svg" xmlns:xlink="http://www.w3.org/1999/xlink"><clipPath id="a"><path d="m0 0h120v195h-120z"/></clipPath><g clip-path="url(#a)"><path clip-rule="evenodd" d="m.00005251 195h119.99994749v-194.99999475 170.88999475c-4.403 1.363-9.036 2.084-13.757 2.084-8.2058 0-16.3415-2.176-23.5302-6.338-22.3993-12.933-30.1177-41.653-17.1737-64.042 18.6087-32.2525 25.5943-68.0794 22.2643-102.59399475l-87.80333896-.00000525-.00000016 3.46716c.0000203-.00001-.00002029 0 0 0l-.00006088 131.62084zm-.00005251-59.912.00006088-131.62084c19.10253912-3.5318945 40.10653912 5.15664 50.01793912 22.31724 8.3008 14.3783 8.2598 32.3146-.0833 46.7866-13.4342 23.3068-30.3104 44.38-49.9347 62.517z" fill="#0d47a1" fill-rule="evenodd"/></g></svg>