<svg fill="none" height="195" viewBox="0 0 120 195" width="120" xmlns="http://www.w3.org/2000/svg" xmlns:xlink="http://www.w3.org/1999/xlink"><clipPath id="a"><path d="m0 0h120v195h-120z"/></clipPath><g clip-path="url(#a)"><path clip-rule="evenodd" d="m120 195v-194.99999475 122.69899475c-1.352-1.719-2.593-3.544-3.707-5.465-20.7226-35.8396-32.7821-76.0723-35.2524-117.23399475l-81.04053377-.00000525-.00000516 118.06-.00005587 42.208c-.00001801-.001.00001801 0 0 0l.00005251 34.732h23.35374229c-8.1253-10.204-15.54392-21.068-22.16205-32.538-.418959-.725-.816181-1.457-1.1917448-2.194l.00005587-42.208c3.97655893-7.89 10.22143893-14.751 18.43793893-19.49 21.7443-12.5547 51.6488-4.3993 64.0479 17.126 9.9676 17.255 22.7261 32.39 37.5141 44.967z" fill="#0d47a1" fill-rule="evenodd"/></g></svg>