<svg fill="none" height="120" viewBox="0 0 195 120" width="195" xmlns="http://www.w3.org/2000/svg"><path clip-rule="evenodd" d="m128.747 0h-68.6574c-25.6162 30.1155-41.0896 69.1117-41.0896 111.653 0 2.787.0681 5.57.2036 8.347h31.2505c-.1627-2.761-.2453-5.544-.2453-8.347 0-40.9819 17.4432-77.8821 45.3074-103.69371-2.406 29.17141 11.7758 58.48121 38.8178 74.09001 12.088 6.9929 25.522 10.5297 38.985 10.5297 7.113-.0045 14.252.5188 21.356 1.5914v-31.503c-7.018-.871-14.102-1.3121-21.211-1.3121-8.269 0-16.347-2.1892-23.546-6.3377-19.457-11.2474-27.805-34.4366-21.171-55.0176z" fill="#0d47a1" fill-rule="evenodd"/></svg>