<svg fill="none" height="195" viewBox="0 0 120 195" width="120" xmlns="http://www.w3.org/2000/svg" xmlns:xlink="http://www.w3.org/1999/xlink"><clipPath id="a"><path d="m0 0h120v195h-120z"/></clipPath><g clip-path="url(#a)"><path clip-rule="evenodd" d="m0 108.632v31.592c8.08007 1.168 16.2912 1.768 24.5787 1.768 30.0966 0 59.8874-8.005 86.1033-23.136 3.172-1.829 6.279-3.757 9.318-5.78v81.924-194.99999475 73.54099475c-7.455 6.8573-15.768 13.0061-24.9113 18.2824-29.9302 17.2646-63.5376 22.3546-95.0887 16.8086zm.00005696-15.4477c-.00001899 0 .00001899 0 0 0zm19.77924304-93.18429475c4.9515 10.35619475 7.6039 21.86129475 7.6039 33.76529475 0 23.7882-10.6253 45.0854-27.38314304 59.419l.00000408-93.1843z" fill="#0d47a1" fill-rule="evenodd"/></g></svg>