<svg fill="none" height="195" viewBox="0 0 120 195" width="120" xmlns="http://www.w3.org/2000/svg" xmlns:xlink="http://www.w3.org/1999/xlink"><clipPath id="a"><path d="m0 0h120v195h-120z"/></clipPath><g clip-path="url(#a)"><path clip-rule="evenodd" d="m120 195v-194.99999475h-52.3159l-67.68403339-.00000525-.00006104 72.1044c.00001929-.0001-.00001929 0 0 0l.00005251 122.8956h20.70694192c-4.9634-14.38-7.6728-29.794-7.6728-45.847 0-40.982 17.4432-77.8821 45.3074-103.6937-2.4061 29.1714 11.7756 58.4807 38.8183 74.0897 7.2261 4.181 14.9331 7.126 22.8401 8.819zm-119.99999443-122.8956c15.08179443-30.0976 38.71049443-55.2006 67.68409443-72.10439475l-67.68403339-.00000525zm119.99999443 23.8228v-87.92662c-10.158 3.72732-18.891 10.88472-24.4036 20.43872-12.9183 22.3954-5.2362 51.1391 17.1466 64.0783 2.335 1.3451 4.761 2.4844 7.257 3.4096z" fill="#0d47a1" fill-rule="evenodd"/></g></svg>