<svg fill="none" height="195" viewBox="0 0 120 195" width="120" xmlns="http://www.w3.org/2000/svg" xmlns:xlink="http://www.w3.org/1999/xlink"><clipPath id="a"><path d="m0 0h120v195h-120z"/></clipPath><g clip-path="url(#a)"><path clip-rule="evenodd" d="m45.51 195h51.3024c-10.2371-10.108-21.912-19.085-34.9386-26.607-19.0878-11.018-40.1307-18.24-61.87379422-21.326l.00005873-94.3409c38.26513549 3.5105 75.42353549 15.257 108.74893549 34.4949 3.818 2.2048 7.569 4.4937 11.251 6.8643v100.9147-194.99999475h-85.7488l-34.25113319-.00000525-.00006103 22.707.00005873 30.0191-.00005873 94.3409v31.589c15.59519422 2.7 30.97959422 8.071 45.50999422 16.344zm-45.50999422-172.293.00006103-22.707 34.25113319.00000525c-7.1762 12.14729475-19.6693 20.79249475-34.25119422 22.70699475z" fill="#0d47a1" fill-rule="evenodd"/></g></svg>