<svg fill="none" height="48" viewBox="0 0 178 48" width="178" xmlns="http://www.w3.org/2000/svg"><g fill="#000"><path clip-rule="evenodd" d="m11.6245 29.7073h-2.10066c-5.25147 0-9.52384-4.2729-9.52384-9.5248v-20.1825h4.08361v8.1202c1.57725-1.11144 3.47583-1.7144 5.44023-1.7144h2.10066c5.2514 0 9.5238 4.2724 9.5238 9.5241v4.2526c0 5.2519-4.2724 9.5248-9.5238 9.5248zm-2.10066-19.2179c-2.99992 0-5.44023 2.4405-5.44023 5.4405v4.2526c0 2.9999 2.44031 5.4409 5.44023 5.4409h2.10066c2.9994 0 5.4402-2.441 5.4402-5.4409v-4.2526c0-3-2.4408-5.4405-5.4402-5.4405z" fill-rule="evenodd"/><path d="m61.2514 29.666h-.9653c-5.2118 0-9.4523-4.241-9.4523-9.4534v-20.022238h4.0655v6.323918c2.0754.00597 3.4208.03096 3.4208.03096l.4502.00826v4.0543l-3.871.0036v9.6012c0 2.9707 2.4164 5.387 5.3868 5.387h.9653z"/><path d="m81.5864 29.6791h-4.0132v-13.6836c0-2.9706-2.4166-5.3873-5.3872-5.3873-2.9699 0-5.3866 2.4167-5.3866 5.3873v13.6705h-4.0659v-29.475638h4.0659v8.045208c1.5628-1.09722 3.4422-1.69285 5.3866-1.69285 5.1833 0 9.4004 4.24048 9.4004 9.45278z"/><path d="m50.0953 29.63h-.8601c-5.1962 0-9.4236-4.2279-9.4236-9.4246v-4.2549c0-3.0602-2.4896-5.5501-5.5496-5.5501h-2.1014c-3.06 0-5.5496 2.4899-5.5496 5.5501v4.2549c0 3.0601 2.4896 5.5497 5.5496 5.5497h2.1014c1.4807 0 2.8909-.5709 3.9719-1.6096l.9064-.9014.2484.6668c.3369.9043.8075 1.7531 1.3995 2.5233l.2486.3238-.2929.2847c-1.7162 1.6683-4.0182 2.5873-6.4819 2.5873h-2.1014c-5.1966 0-9.4238-4.2279-9.4238-9.4246v-4.2549c0-5.1966 4.2272-9.42429 9.4238-9.42429h2.1014c5.1962 0 9.4236 4.22769 9.4236 9.42429v4.2549c0 3.0601 2.4896 5.5497 5.5496 5.5497h.8601z"/><path d="m158.456 23.5033c-.715 0-1.384-.3881-1.745-1.0112-1.008-1.7431-1.541-3.7274-1.541-5.7382 0-6.3324 5.154-11.48431 11.489-11.48431 1.111 0 2.015.90709 2.015 2.02197 0 1.11533-.907 2.02242-2.021 2.02242-4.103 0-7.44 3.33772-7.44 7.43992 0 1.3025.345 2.5873.998 3.7171.176.3032.268.6523.268 1.0092 0 1.1153-.907 2.0231-2.023 2.0231z"/><path d="m162.512 12.2827c-1.201 1.1131-1.953 2.7041-1.953 4.4712 0 1.1087.299 2.1465.818 3.044.29.5025.447 1.0805.447 1.6823 0 1.346-.789 2.5073-1.929 3.0474 1.564.4835 3.318.339 4.848-.544.961-.5546 1.71-1.3326 2.227-2.2316.291-.5023.711-.9271 1.234-1.2282 1.165-.6729 2.566-.5702 3.604.1486-.364-1.5972-1.366-3.0442-2.896-3.9281-.961-.5546-2.009-.8135-3.045-.8128-.581 0-1.16-.1525-1.681-.4541-1.166-.673-1.778-1.9367-1.674-3.1947z"/><path d="m161.709 30.1887c-4.099 0-7.916-2.2023-9.961-5.7464-.556-.9619-.222-2.1981.744-2.7548.937-.5415 2.227-.1899 2.761.7383 1.326 2.2954 3.798 3.721 6.45 3.721 1.298 0 2.582-.3452 3.713-.9977 1.128-.6509 2.068-1.5928 2.72-2.7242.176-.3032.432-.5573.741-.7353.936-.542 2.226-.1888 2.762.7401.358.6199.356 1.3933-.003 2.0174-1.005 1.7431-2.456 3.1965-4.198 4.2022-1.745 1.007-3.725 1.5394-5.729 1.5394z"/><path d="m174.064 28.7763c-.354 0-.705-.0938-1.015-.2734-.966-.5575-1.299-1.796-.741-2.7614 2.05-3.5528.829-8.1117-2.723-10.163-1.126-.6498-2.409-.9933-3.712-.9933-.356 0-.705-.0945-1.015-.2734-.965-.5578-1.297-1.7972-.74-2.7628.358-.6188 1.028-1.0043 1.749-1.0059 2.016 0 3.999.5307 5.739 1.5355 2.655 1.533 4.555 4.01 5.349 6.9753.794 2.9643.386 6.0599-1.148 8.7163-.358.6206-1.027 1.0061-1.743 1.0061z"/><path d="m110.219 29.63h-.861c-5.196 0-9.4234-4.2279-9.4234-9.4245v-4.255c0-3.0602-2.4891-5.55-5.5491-5.55h-2.1016c-3.0604 0-5.5498 2.4898-5.5498 5.55v4.255c0 3.06 2.4894 5.5496 5.5498 5.5496h2.1016c1.4802 0 2.891-.5708 3.9717-1.6096l.9059-.9013.2486.6667c.3381.9057.8093 1.755 1.3993 2.5233l.249.3239-.292.2846c-1.7173 1.6683-4.0191 2.5873-6.4825 2.5873h-2.1016c-5.1969 0-9.424-4.2279-9.424-9.4245v-4.255c0-5.1966 4.2271-9.42425 9.424-9.42425h2.1016c5.1966 0 9.4235 4.22765 9.4235 9.42425v4.255c0 3.06 2.489 5.5496 5.549 5.5496h.861z"/><path d="m112.214 29.63h-.861v-3.8749h.861c3.059 0 5.548-2.4896 5.548-5.5496v-4.255c0-5.1966 4.229-9.42425 9.425-9.42425h.86v3.87425h-.86c-3.06 0-5.549 2.4898-5.549 5.55v4.255c0 5.1966-4.228 9.4245-9.424 9.4245z"/><path d="m138.811 29.63h.005l.191-.0037c5.075-.1167 9.204-4.3437 9.204-9.4208v-13.67903h-3.875v13.67903c0 3.0499-2.48 5.5393-5.525 5.5496-3.059 0-5.548-2.4896-5.548-5.5496v-13.67903h-3.875v13.67903c0 5.1925 4.227 9.4202 9.423 9.4245z"/><path clip-rule="evenodd" d="m68.5464 36.2264v9.0566h.9703v-3.3897h2.4194c.5607 0 1.0653-.1251 1.5138-.3752.4571-.2502.8151-.5909 1.0738-1.0221.2588-.4399.3882-.9186.3882-1.4361 0-.5176-.1294-.9919-.3882-1.4232-.2587-.4399-.6167-.7849-1.0738-1.0351-.4485-.2501-.9531-.3752-1.5138-.3752zm4.8259 4.2049c-.3709.3623-.8496.5434-1.4362.5434h-2.4194v-3.8297h2.4194c.3882 0 .7332.0863 1.0351.2588.3019.1639.5391.3925.7116.6857.1725.2846.2587.6081.2587.9704 0 .552-.1897 1.0091-.5692 1.3714z" fill-rule="evenodd"/><path clip-rule="evenodd" d="m61.4545 38.9434c.4744 0 .8928.1035 1.255.3105.3709.207.6599.496.8669.8669.207.3622.3105.7806.3105 1.255v3.9072h-.841v-.9962h-.0129c-.1639.2847-.4399.5434-.8281.7763-.3881.2329-.8323.3493-1.3326.3493-.4054 0-.7676-.0819-1.0868-.2458-.3105-.1639-.5563-.3795-.7374-.6469-.1725-.276-.2588-.5693-.2588-.8798 0-.5003.1725-.9186.5175-1.255.345-.345.8324-.5692 1.462-.6727l2.2512-.3752v-.013c0-.4658-.1466-.841-.4399-1.1256-.2846-.2846-.6598-.4269-1.1256-.4269-.3622 0-.6814.0819-.9574.2458-.2674.1552-.5261.3622-.7763.621l-.5822-.5563c.2588-.3192.5866-.5866.9833-.8022.3968-.2242.841-.3364 1.3326-.3364zm-.4916 5.6669c.3795 0 .7245-.0906 1.035-.2717.3192-.1812.5693-.427.7504-.7375.1812-.3191.2717-.6728.2717-1.0609v-.4399l-2.0442.3364c-.4399.0776-.7676.2156-.9833.414-.2156.1984-.3234.4442-.3234.7375 0 .2846.1164.5261.3493.7245.2415.1984.5563.2976.9445.2976z" fill-rule="evenodd"/><path d="m76.1888 45.283v-9.0566h.8798v3.8426h.0129c.1639-.2932.427-.552.7892-.7763.3709-.2328.7849-.3493 1.2421-.3493.4744 0 .9013.1122 1.2808.3364.3796.2243.6771.5391.8928.9445.2156.4054.3234.8711.3234 1.3973v3.6614h-.8798v-3.6614c0-.5434-.1638-.9833-.4916-1.3197-.3191-.3364-.7288-.5046-1.2291-.5046-.3623 0-.69.0906-.9833.2717-.2933.1725-.5262.414-.6987.7246-.1725.3105-.2587.6598-.2587 1.0479v3.4415z"/><path clip-rule="evenodd" d="m85.5061 38.9434c.4744 0 .8927.1035 1.255.3105.3709.207.6598.496.8668.8669.207.3622.3105.7806.3105 1.255v3.9072h-.8409v-.9962h-.013c-.1639.2847-.4399.5434-.828.7763-.3882.2329-.8324.3493-1.3326.3493-.4054 0-.7677-.0819-1.0868-.2458-.3105-.1639-.5564-.3795-.7375-.6469-.1725-.276-.2587-.5693-.2587-.8798 0-.5003.1725-.9186.5175-1.255.345-.345.8323-.5692 1.462-.6727l2.2512-.3752v-.013c0-.4658-.1467-.841-.4399-1.1256-.2847-.2846-.6599-.4269-1.1256-.4269-.3623 0-.6814.0819-.9574.2458-.2674.1552-.5262.3622-.7763.621l-.5822-.5563c.2587-.3192.5865-.5866.9833-.8022.3967-.2242.8409-.3364 1.3326-.3364zm-.4917 5.6669c.3795 0 .7246-.0906 1.0351-.2717.3191-.1812.5692-.427.7504-.7375.1811-.3191.2717-.6728.2717-1.0609v-.4399l-2.0442.3364c-.4399.0776-.7677.2156-.9833.414-.2157.1984-.3235.4442-.3235.7375 0 .2846.1165.5261.3494.7245.2415.1984.5563.2976.9444.2976z" fill-rule="evenodd"/><path d="m89.5902 45.283v-6.2102h.8798v.9704h.013c.1639-.2847.4269-.5391.7892-.7634.3709-.2242.7892-.3364 1.255-.3364h.2846v.9057c-.1208-.0173-.2415-.0259-.3623-.0259-.3622 0-.6943.0906-.9962.2717s-.5434.4313-.7245.7504c-.1725.3191-.2588.6771-.2588 1.0739v3.3638z"/><path d="m93.7648 45.283v-6.2102h.8798v.9574h.0129c.1294-.276.3536-.5261.6728-.7504.3277-.2242.7159-.3364 1.1644-.3364.4744 0 .8884.1294 1.242.3882.3537.2587.6038.5434.7505.8539h.0258c.138-.3105.3925-.5952.7634-.8539.3795-.2588.8326-.3882 1.3586-.3882.422 0 .806.1122 1.151.3364.354.2156.634.5262.841.9315.207.3968.311.8583.311 1.3844v3.6873h-.88v-3.6873c0-.552-.147-.9876-.44-1.3067-.293-.3278-.664-.4917-1.113-.4917-.491 0-.9009.1855-1.2286.5564-.3192.3622-.4787.8496-.4787 1.462v3.4673h-.8798v-3.6873c0-.552-.151-.9876-.4529-1.3067-.2932-.3278-.6641-.4917-1.1126-.4917-.4917 0-.9014.1855-1.2291.5564-.3192.3622-.4787.8496-.4787 1.462v3.4673z"/><path clip-rule="evenodd" d="m106.836 38.9434c.474 0 .893.1035 1.255.3105.371.207.66.496.867.8669.207.3622.31.7806.31 1.255v3.9072h-.841v-.9962h-.012c-.164.2847-.44.5434-.828.7763-.389.2329-.833.3493-1.333.3493-.405 0-.768-.0819-1.087-.2458-.31-.1639-.556-.3795-.737-.6469-.173-.276-.259-.5693-.259-.8798 0-.5003.172-.9186.517-1.255.345-.345.833-.5692 1.462-.6727l2.252-.3752v-.013c0-.4658-.147-.841-.44-1.1256-.285-.2846-.66-.4269-1.126-.4269-.362 0-.681.0819-.957.2458-.268.1552-.526.3622-.777.621l-.582-.5563c.259-.3192.587-.5866.983-.8022.397-.2242.841-.3364 1.333-.3364zm-.492 5.6669c.38 0 .725-.0906 1.035-.2717.32-.1812.57-.427.751-.7375.181-.3191.272-.6728.272-1.0609v-.4399l-2.045.3364c-.439.0776-.767.2156-.983.414s-.323.4442-.323.7375c0 .2846.116.5261.349.7245.241.1984.556.2976.944.2976z" fill-rule="evenodd"/><path d="m111.117 45.283h-1.009l2.316-3.2345-2.122-2.9757h1.048l1.643 2.3677h.026l1.63-2.3677h1.023l-2.122 2.9757 2.316 3.2345h-1.061l-1.825-2.6264h-.025z"/><path clip-rule="evenodd" d="m119.379 45.4124c-.569 0-1.096-.1423-1.579-.4269-.483-.2933-.867-.6857-1.151-1.1774-.285-.4916-.427-1.035-.427-1.6302 0-.5951.142-1.1385.427-1.6302.284-.4916.668-.8797 1.151-1.1644.483-.2932 1.01-.4399 1.579-.4399s1.095.1467 1.578.4399c.483.2847.867.6728 1.152 1.1644.284.4917.427 1.0351.427 1.6302 0 .5952-.143 1.1386-.427 1.6302-.285.4917-.669.8841-1.152 1.1774-.483.2846-1.009.4269-1.578.4269zm0-.8539c.414 0 .793-.1035 1.138-.3105.354-.207.63-.4916.828-.8539.207-.3709.311-.7763.311-1.2162s-.104-.8409-.311-1.2032c-.198-.3709-.474-.6599-.828-.8669-.345-.207-.724-.3105-1.138-.3105s-.798.1035-1.152.3105c-.345.207-.621.496-.828.8669-.198.3623-.297.7633-.297 1.2032s.099.8453.297 1.2162c.207.3623.483.6469.828.8539.354.207.738.3105 1.152.3105z" fill-rule="evenodd"/><path d="m129.18 45.4124c-.561 0-1.083-.1423-1.566-.4269-.474-.2933-.853-.6857-1.138-1.1774-.276-.4916-.414-1.035-.414-1.6302 0-.5951.138-1.1385.414-1.6302.285-.4916.664-.8797 1.138-1.1644.483-.2932 1.005-.4399 1.566-.4399.569 0 1.069.1294 1.501.3882.44.2501.785.5434 1.035.8797l-.647.5305c-.509-.6296-1.139-.9445-1.889-.9445-.405 0-.781.1035-1.126.3105-.336.207-.608.496-.815.8669-.198.3623-.297.7633-.297 1.2032s.099.8453.297 1.2162c.207.3623.479.6469.815.8539.345.207.721.3105 1.126.3105.423 0 .793-.0949 1.113-.2846.319-.1898.586-.4183.802-.6857l.647.5304c-.25.345-.6.6469-1.048.9057-.44.2587-.945.3881-1.514.3881z"/><path clip-rule="evenodd" d="m135.478 45.4124c-.569 0-1.095-.1423-1.578-.4269-.483-.2933-.867-.6857-1.152-1.1774-.285-.4916-.427-1.035-.427-1.6302 0-.5951.142-1.1385.427-1.6302.285-.4916.669-.8797 1.152-1.1644.483-.2932 1.009-.4399 1.578-.4399s1.095.1467 1.578.4399c.483.2847.867.6728 1.152 1.1644.285.4917.427 1.0351.427 1.6302 0 .5952-.142 1.1386-.427 1.6302-.285.4917-.669.8841-1.152 1.1774-.483.2846-1.009.4269-1.578.4269zm0-.8539c.414 0 .794-.1035 1.139-.3105.353-.207.629-.4916.828-.8539.207-.3709.31-.7763.31-1.2162s-.103-.8409-.31-1.2032c-.199-.3709-.475-.6599-.828-.8669-.345-.207-.725-.3105-1.139-.3105s-.798.1035-1.151.3105c-.345.207-.621.496-.829.8669-.198.3623-.297.7633-.297 1.2032s.099.8453.297 1.2162c.208.3623.484.6469.829.8539.353.207.737.3105 1.151.3105z" fill-rule="evenodd"/><path d="m139.93 39.0728h.879v.9574h.013c.13-.276.354-.5261.673-.7504.328-.2242.716-.3364 1.165-.3364.474 0 .888.1294 1.242.3882.353.2587.603.5434.75.8539h.026c.138-.3105.392-.5952.763-.8539.38-.2588.833-.3882 1.359-.3882.422 0 .806.1122 1.151.3364.354.2156.634.5262.841.9315.207.3968.311.8583.311 1.3844v3.6873h-.88v-3.6873c0-.552-.147-.9876-.44-1.3067-.293-.3278-.664-.4917-1.113-.4917-.491 0-.901.1855-1.229.5564-.319.3622-.478.8496-.478 1.462v3.4673h-.88v-3.6873c0-.552-.151-.9876-.453-1.3067-.293-.3278-.664-.4917-1.113-.4917-.491 0-.901.1855-1.229.5564-.319.3622-.479.8496-.479 1.462v3.4673h-.879z"/><path clip-rule="evenodd" d="m150.763 48v-8.9272h.88v1.0739h.012c.173-.3106.462-.5866.867-.8281.406-.2501.871-.3752 1.398-.3752.517 0 .996.1423 1.436.427.448.276.806.6598 1.074 1.1515.267.4916.401 1.0436.401 1.656s-.134 1.1644-.401 1.6561c-.268.4916-.626.8798-1.074 1.1644-.44.276-.919.414-1.436.414-.527 0-.992-.1207-1.398-.3622-.405-.2502-.694-.5305-.867-.841h-.012v3.7908zm3.053-3.4415c.38 0 .733-.1035 1.061-.3105s.587-.4916.776-.8539c.199-.3623.298-.7677.298-1.2162 0-.4571-.099-.8668-.298-1.2291-.189-.3623-.448-.6426-.776-.841-.328-.207-.681-.3105-1.061-.3105-.397 0-.763.1035-1.1.3105-.327.1984-.59.4787-.789.841-.19.3623-.284.772-.284 1.2291 0 .4485.094.8539.284 1.2162.199.3623.462.6469.789.8539.337.207.703.3105 1.1.3105z" fill-rule="evenodd"/><path clip-rule="evenodd" d="m160.36 38.9434c.474 0 .892.1035 1.255.3105.37.207.659.496.866.8669.207.3622.311.7806.311 1.255v3.9072h-.841v-.9962h-.013c-.164.2847-.44.5434-.828.7763s-.832.3493-1.333.3493c-.405 0-.767-.0819-1.086-.2458-.311-.1639-.557-.3795-.738-.6469-.172-.276-.259-.5693-.259-.8798 0-.5003.173-.9186.518-1.255.345-.345.832-.5692 1.462-.6727l2.251-.3752v-.013c0-.4658-.147-.841-.44-1.1256-.285-.2846-.66-.4269-1.125-.4269-.363 0-.682.0819-.958.2458-.267.1552-.526.3622-.776.621l-.582-.5563c.258-.3192.586-.5866.983-.8022.397-.2242.841-.3364 1.333-.3364zm-.492 5.6669c.379 0 .724-.0906 1.035-.2717.319-.1812.569-.427.75-.7375.181-.3191.272-.6728.272-1.0609v-.4399l-2.044.3364c-.44.0776-.768.2156-.983.414-.216.1984-.324.4442-.324.7375 0 .2846.117.5261.349.7245.242.1984.557.2976.945.2976z" fill-rule="evenodd"/><path d="m164.444 39.0728h.879v.9962h.013c.164-.2932.427-.552.79-.7763.37-.2328.785-.3493 1.242-.3493.474 0 .901.1122 1.281.3364.379.2243.677.5391.892.9445.216.4054.324.8711.324 1.3973v3.6614h-.88v-3.6614c0-.5434-.164-.9833-.492-1.3197-.319-.3364-.729-.5046-1.229-.5046-.362 0-.69.0906-.983.2717-.293.1725-.526.414-.699.7246-.172.3105-.259.6598-.259 1.0479v3.4415h-.879z"/><path d="m175.629 39.0728h.918l-2.678 7.1806c-.224.6038-.496 1.0437-.815 1.3197-.311.2846-.707.4269-1.19.4269-.268 0-.514-.0517-.738-.1552v-.8539c.078.0431.173.0819.285.1164.121.0345.246.0518.375.0518.535 0 .923-.3106 1.164-.9316l.376-.9315-2.743-6.2232h.957l2.238 5.1364h.026z"/></g></svg>