<svg fill="none" height="48" viewBox="0 0 178 48" width="178" xmlns="http://www.w3.org/2000/svg"><path clip-rule="evenodd" d="m9.52384 29.7073h2.10066c5.2514 0 9.5238-4.2729 9.5238-9.5248v-4.2526c0-5.2517-4.2724-9.5241-9.5238-9.5241h-2.10066c-1.9644 0-3.86298.60296-5.44023 1.7144v-8.1202h-4.08361v20.1825c0 5.2519 4.27237 9.5248 9.52384 9.5248zm-5.44023-13.7774c0-3 2.44031-5.4405 5.44023-5.4405h2.10066c2.9994 0 5.4402 2.4405 5.4402 5.4405v4.2526c0 2.9999-2.4408 5.4409-5.4402 5.4409h-2.10066c-2.99992 0-5.44023-2.441-5.44023-5.4409z" fill="#00a3e0" fill-rule="evenodd"/><path d="m60.2861 29.666h.9653v-4.0664h-.9653c-2.9704 0-5.3868-2.4163-5.3868-5.387v-9.6012l3.871-.0036v-4.0543l-.4502-.00826s-1.3454-.025-3.4208-.03096v-6.323918h-4.0655v20.022238c0 5.2124 4.2405 9.4534 9.4523 9.4534z" fill="#00a3e0"/><path d="m81.5864 29.6791h-4.0132v-13.6836c0-2.9706-2.4166-5.3873-5.3872-5.3873-2.9699 0-5.3866 2.4167-5.3866 5.3873v13.6705h-4.0659v-29.475638h4.0659v8.045208c1.5628-1.09722 3.4422-1.69285 5.3866-1.69285 5.1833 0 9.4004 4.24048 9.4004 9.45278z" fill="#00a3e0"/><path d="m49.2352 29.63h.8601v-3.8749h-.8601c-3.06 0-5.5496-2.4896-5.5496-5.5497v-4.2549c0-5.1966-4.2274-9.42429-9.4236-9.42429h-2.1014c-5.1966 0-9.4238 4.22769-9.4238 9.42429v4.2549c0 5.1967 4.2272 9.4246 9.4238 9.4246h2.1014c2.4637 0 4.7657-.919 6.4819-2.5873l.2929-.2847-.2486-.3238c-.592-.7702-1.0626-1.619-1.3995-2.5233l-.2484-.6668-.9064.9014c-1.081 1.0387-2.4912 1.6096-3.9719 1.6096h-2.1014c-3.06 0-5.5496-2.4896-5.5496-5.5497v-4.2549c0-3.0602 2.4896-5.5501 5.5496-5.5501h2.1014c3.06 0 5.5496 2.4899 5.5496 5.5501v4.2549c0 5.1967 4.2274 9.4246 9.4236 9.4246z" fill="#00a3e0"/><path d="m158.456 23.5033c-.715 0-1.384-.3881-1.745-1.0112-1.008-1.7431-1.541-3.7274-1.541-5.7382 0-6.3324 5.154-11.48431 11.489-11.48431 1.111 0 2.015.90709 2.015 2.02197 0 1.11533-.907 2.02242-2.021 2.02242-4.103 0-7.44 3.33772-7.44 7.43992 0 1.3025.345 2.5873.998 3.7171.176.3032.268.6523.268 1.0092 0 1.1153-.907 2.0231-2.023 2.0231z" fill="#00a3e0"/><path d="m160.559 16.7539c0-1.7671.752-3.3581 1.953-4.4712-.104 1.258.508 2.5217 1.674 3.1947.521.3016 1.1.4541 1.681.4541 1.036-.0007 2.084.2582 3.045.8128 1.53.8839 2.532 2.3309 2.896 3.9281-1.038-.7188-2.439-.8215-3.604-.1486-.523.3011-.943.7259-1.234 1.2282-.517.899-1.266 1.677-2.227 2.2316-1.53.883-3.284 1.0275-4.848.544 1.14-.5401 1.929-1.7014 1.929-3.0474 0-.6018-.157-1.1798-.447-1.6823-.519-.8975-.818-1.9353-.818-3.044z" fill="#00a3e0"/><path d="m161.709 30.1887c-4.099 0-7.916-2.2023-9.961-5.7464-.556-.9619-.222-2.1981.744-2.7548.937-.5415 2.227-.1899 2.761.7383 1.326 2.2954 3.798 3.721 6.45 3.721 1.298 0 2.582-.3452 3.713-.9977 1.128-.6509 2.068-1.5928 2.72-2.7242.176-.3032.432-.5573.741-.7353.936-.542 2.226-.1888 2.762.7401.358.6199.356 1.3933-.003 2.0174-1.005 1.7431-2.456 3.1965-4.198 4.2022-1.745 1.007-3.725 1.5394-5.729 1.5394z" fill="#00a3e0"/><path d="m173.049 28.5029c.31.1796.661.2734 1.015.2734.716 0 1.385-.3855 1.743-1.0061 1.534-2.6564 1.942-5.752 1.148-8.7163-.794-2.9653-2.694-5.4423-5.349-6.9753-1.74-1.0048-3.723-1.5355-5.739-1.5355-.721.0016-1.391.3871-1.748 1.0059-.558.9656-.226 2.205.739 2.7628.31.1789.659.2734 1.015.2734 1.303 0 2.586.3435 3.712.9933 3.552 2.0513 4.773 6.6101 2.723 10.163-.558.9654-.225 2.2039.741 2.7614z" fill="#00a3e0"/><g fill="#fff"><path d="m110.219 29.63h-.861c-5.196 0-9.4233-4.2279-9.4233-9.4245v-4.255c0-3.0602-2.4892-5.55-5.5492-5.55h-2.1016c-3.0604 0-5.5498 2.4898-5.5498 5.55v4.255c0 3.06 2.4894 5.5496 5.5498 5.5496h2.1016c1.4802 0 2.891-.5708 3.9717-1.6096l.9059-.9013.2486.6667c.3381.9057.8093 1.755 1.3993 2.5233l.249.3239-.292.2846c-1.7173 1.6683-4.0191 2.5873-6.4825 2.5873h-2.1016c-5.1969 0-9.424-4.2279-9.424-9.4245v-4.255c0-5.1966 4.2271-9.42425 9.424-9.42425h2.1016c5.1966 0 9.4235 4.22765 9.4235 9.42425v4.255c0 3.06 2.489 5.5496 5.549 5.5496h.861z"/><path d="m112.214 29.63h-.861v-3.8749h.861c3.059 0 5.548-2.4896 5.548-5.5496v-4.255c0-5.1966 4.229-9.42425 9.425-9.42425h.86v3.87425h-.86c-3.06 0-5.549 2.4898-5.549 5.55v4.255c0 5.1966-4.228 9.4245-9.424 9.4245z"/><path d="m138.816 29.63h-.005c-5.196-.0043-9.423-4.232-9.423-9.4245v-13.67903h3.875v13.67903c0 3.06 2.489 5.5496 5.548 5.5496 3.045-.0103 5.525-2.4997 5.525-5.5496v-13.67903h3.875v13.67903c0 5.0771-4.129 9.3041-9.204 9.4208z"/><path clip-rule="evenodd" d="m68.5464 36.2264v9.0566h.9703v-3.3897h2.4194c.5607 0 1.0653-.1251 1.5138-.3752.4571-.2502.8151-.5908 1.0738-1.0221.2588-.4399.3882-.9186.3882-1.4361 0-.5176-.1294-.9919-.3882-1.4232-.2587-.4399-.6167-.7849-1.0738-1.0351-.4485-.2501-.9531-.3752-1.5138-.3752zm4.8259 4.2049c-.3709.3623-.8496.5434-1.4362.5434h-2.4194v-3.8297h2.4194c.3882 0 .7332.0863 1.0351.2588.3019.1639.5391.3925.7116.6857.1725.2847.2587.6081.2587.9704 0 .552-.1897 1.0091-.5692 1.3714z" fill-rule="evenodd"/><path clip-rule="evenodd" d="m62.7095 39.2539c-.3622-.207-.7806-.3105-1.255-.3105-.4916 0-.9358.1122-1.3326.3364-.3967.2156-.7245.483-.9833.8022l.5822.5563c.2502-.2588.5089-.4658.7763-.621.276-.1639.5952-.2458.9574-.2458.4658 0 .841.1423 1.1256.4269.2933.2846.4399.6598.4399 1.1256v.013l-2.2512.3752c-.6296.1035-1.117.3277-1.462.6727-.345.3364-.5175.7547-.5175 1.255 0 .3105.0863.6038.2588.8798.1811.2674.4269.483.7374.6469.3192.1639.6814.2458 1.0868.2458.5003 0 .9445-.1164 1.3326-.3493.3882-.2329.6642-.4916.8281-.7763h.0129v.9962h.841v-3.9072c0-.4744-.1035-.8928-.3105-1.255-.207-.3709-.496-.6599-.8669-.8669zm-.7116 5.0847c-.3105.1811-.6555.2717-1.035.2717-.3882 0-.703-.0992-.9445-.2976-.2329-.1984-.3493-.4399-.3493-.7245 0-.2933.1078-.5391.3234-.7375.2157-.1984.5434-.3364.9833-.414l2.0442-.3364v.4399c0 .3881-.0905.7418-.2717 1.0609-.1811.3105-.4312.5563-.7504.7375z" fill-rule="evenodd"/><path d="m76.1888 45.283v-9.0566h.8798v3.8426h.0129c.1639-.2932.427-.552.7892-.7763.3709-.2328.7849-.3493 1.2421-.3493.4744 0 .9013.1122 1.2808.3364.3796.2243.6771.5391.8928.9445.2156.4054.3234.8711.3234 1.3973v3.6614h-.8798v-3.6614c0-.5434-.1638-.9833-.4916-1.3197-.3191-.3364-.7288-.5046-1.2291-.5046-.3623 0-.69.0906-.9833.2717-.2933.1725-.5262.414-.6987.7246-.1725.3105-.2587.6598-.2587 1.0479v3.4415z"/><path clip-rule="evenodd" d="m86.7611 39.2539c-.3623-.207-.7806-.3105-1.255-.3105-.4917 0-.9359.1122-1.3326.3364-.3968.2156-.7246.483-.9833.8022l.5822.5563c.2501-.2588.5089-.4658.7763-.621.276-.1639.5951-.2458.9574-.2458.4657 0 .8409.1423 1.1256.4269.2932.2846.4399.6598.4399 1.1256v.013l-2.2512.3752c-.6297.1035-1.117.3277-1.462.6727-.345.3364-.5176.7547-.5176 1.255 0 .3105.0863.6038.2588.8798.1811.2674.427.483.7375.6469.3191.1639.6814.2458 1.0868.2458.5002 0 .9444-.1164 1.3326-.3493.3881-.2329.6641-.4916.828-.7763h.0129v.9962h.841v-3.9072c0-.4744-.1035-.8928-.3105-1.255-.207-.3709-.4959-.6599-.8668-.8669zm-.7116 5.0847c-.3105.1811-.6556.2717-1.0351.2717-.3881 0-.7029-.0992-.9444-.2976-.2329-.1984-.3494-.4399-.3494-.7245 0-.2933.1078-.5391.3235-.7375.2156-.1984.5434-.3364.9833-.414l2.0442-.3364v.4399c0 .3881-.0906.7418-.2717 1.0609-.1812.3105-.4313.5563-.7504.7375z" fill-rule="evenodd"/><path d="m89.5902 45.283v-6.2102h.8798v.9704h.013c.1638-.2847.4269-.5391.7892-.7634.3709-.2242.7892-.3364 1.255-.3364h.2846v.9057c-.1208-.0173-.2415-.0259-.3623-.0259-.3622 0-.6943.0906-.9962.2717s-.5434.4313-.7245.7504c-.1725.3191-.2588.6771-.2588 1.0739v3.3638z"/><path d="m93.7648 39.0728v6.2102h.8798v-3.4673c0-.6124.1595-1.0998.4787-1.462.3277-.3709.7374-.5564 1.2291-.5564.4485 0 .8194.1639 1.1126.4917.3019.3191.4529.7547.4529 1.3067v3.6873h.8798v-3.4673c0-.6124.1595-1.0998.4787-1.462.3277-.3709.7376-.5564 1.2286-.5564.449 0 .82.1639 1.113.4917.293.3191.44.7547.44 1.3067v3.6873h.88v-3.6873c0-.5261-.104-.9876-.311-1.3844-.207-.4053-.487-.7159-.841-.9315-.345-.2242-.729-.3364-1.151-.3364-.526 0-.9791.1294-1.3586.3882-.3709.2587-.6254.5434-.7634.8539h-.0258c-.1467-.3105-.3968-.5952-.7505-.8539-.3536-.2588-.7676-.3882-1.242-.3882-.4485 0-.8367.1122-1.1644.3364-.3192.2243-.5434.4744-.6728.7504h-.0129v-.9574z"/><path clip-rule="evenodd" d="m106.836 38.9434c.474 0 .893.1035 1.255.3105.371.207.66.496.867.8669.207.3622.31.7806.31 1.255v3.9072h-.841v-.9962h-.012c-.164.2847-.44.5434-.828.7763-.389.2329-.833.3493-1.333.3493-.406 0-.768-.0819-1.087-.2458-.31-.1639-.556-.3795-.737-.6469-.173-.276-.259-.5693-.259-.8798 0-.5003.172-.9186.517-1.255.345-.345.833-.5692 1.462-.6727l2.252-.3752v-.013c0-.4658-.147-.841-.44-1.1256-.285-.2846-.66-.4269-1.126-.4269-.362 0-.681.0819-.957.2458-.268.1552-.526.3622-.777.621l-.582-.5563c.259-.3192.587-.5866.983-.8022.397-.2242.841-.3364 1.333-.3364zm-.492 5.6669c.38 0 .725-.0906 1.035-.2717.32-.1812.57-.427.751-.7375.181-.3191.272-.6728.272-1.0609v-.4399l-2.045.3364c-.439.0776-.767.2156-.983.414s-.323.4442-.323.7375c0 .2846.116.5261.349.7245.241.1984.556.2976.944.2976z" fill-rule="evenodd"/><path d="m110.108 45.283h1.009l1.838-2.6264h.025l1.825 2.6264h1.061l-2.316-3.2345 2.122-2.9757h-1.023l-1.63 2.3677h-.026l-1.643-2.3677h-1.048l2.122 2.9757z"/><path clip-rule="evenodd" d="m119.379 45.4124c-.569 0-1.096-.1423-1.579-.4269-.483-.2933-.867-.6857-1.151-1.1774-.285-.4916-.427-1.035-.427-1.6302 0-.5951.142-1.1385.427-1.6302.284-.4916.668-.8797 1.151-1.1644.483-.2932 1.01-.4399 1.579-.4399s1.095.1467 1.578.4399c.483.2847.867.6728 1.152 1.1644.284.4917.427 1.0351.427 1.6302 0 .5952-.143 1.1386-.427 1.6302-.285.4917-.669.8841-1.152 1.1774-.483.2846-1.009.4269-1.578.4269zm0-.8539c.414 0 .793-.1035 1.138-.3105.354-.207.63-.4916.828-.8539.207-.3709.311-.7763.311-1.2162s-.104-.8409-.311-1.2032c-.198-.3709-.474-.6598-.828-.8669-.345-.207-.724-.3105-1.138-.3105s-.798.1035-1.152.3105c-.345.2071-.621.496-.828.8669-.198.3623-.297.7633-.297 1.2032s.099.8453.297 1.2162c.207.3623.483.6469.828.8539.354.207.738.3105 1.152.3105z" fill-rule="evenodd"/><path d="m127.614 44.9855c.483.2846 1.005.4269 1.566.4269.569 0 1.074-.1294 1.514-.3881.448-.2588.798-.5607 1.048-.9057l-.647-.5304c-.216.2674-.483.4959-.802.6857-.32.1897-.69.2846-1.113.2846-.405 0-.781-.1035-1.126-.3105-.336-.207-.608-.4916-.815-.8539-.198-.3709-.297-.7763-.297-1.2162s.099-.8409.297-1.2032c.207-.3709.479-.6598.815-.8669.345-.207.721-.3105 1.126-.3105.75 0 1.38.3149 1.889.9445l.647-.5305c-.25-.3363-.595-.6296-1.035-.8797-.432-.2588-.932-.3882-1.501-.3882-.561 0-1.083.1467-1.566.4399-.474.2847-.853.6728-1.138 1.1644-.276.4917-.414 1.0351-.414 1.6302 0 .5952.138 1.1386.414 1.6302.285.4917.664.8841 1.138 1.1774z"/><path clip-rule="evenodd" d="m135.478 45.4124c-.569 0-1.095-.1423-1.578-.4269-.483-.2933-.867-.6857-1.152-1.1774-.285-.4916-.427-1.035-.427-1.6302 0-.5951.142-1.1385.427-1.6302.285-.4916.669-.8797 1.152-1.1644.483-.2932 1.009-.4399 1.578-.4399s1.095.1467 1.578.4399c.483.2847.867.6728 1.152 1.1644.285.4917.427 1.0351.427 1.6302 0 .5952-.142 1.1386-.427 1.6302-.285.4917-.669.8841-1.152 1.1774-.483.2846-1.009.4269-1.578.4269zm0-.8539c.414 0 .794-.1035 1.139-.3105.353-.207.629-.4916.828-.8539.207-.3709.31-.7763.31-1.2162s-.103-.8409-.31-1.2032c-.199-.3709-.475-.6598-.828-.8669-.345-.207-.725-.3105-1.139-.3105s-.798.1035-1.151.3105c-.345.2071-.621.496-.829.8669-.198.3623-.297.7633-.297 1.2032s.099.8453.297 1.2162c.208.3623.484.6469.829.8539.353.207.737.3105 1.151.3105z" fill-rule="evenodd"/><path d="m140.809 39.0728h-.879v6.2102h.879v-3.4673c0-.6124.16-1.0998.479-1.462.328-.3709.738-.5564 1.229-.5564.449 0 .82.1639 1.113.4917.302.3191.453.7547.453 1.3067v3.6873h.88v-3.4673c0-.6124.159-1.0998.478-1.462.328-.3709.738-.5564 1.229-.5564.449 0 .82.1639 1.113.4917.293.3191.44.7547.44 1.3067v3.6873h.88v-3.6873c0-.5261-.104-.9876-.311-1.3844-.207-.4053-.487-.7159-.841-.9315-.345-.2242-.729-.3364-1.151-.3364-.526 0-.979.1294-1.359.3882-.371.2587-.625.5434-.763.8539h-.026c-.147-.3105-.397-.5952-.75-.8539-.354-.2588-.768-.3882-1.242-.3882-.449 0-.837.1122-1.165.3364-.319.2243-.543.4744-.673.7504h-.013z"/><path clip-rule="evenodd" d="m150.763 48v-8.9272h.88v1.0739h.012c.173-.3106.462-.5866.867-.8281.406-.2501.871-.3752 1.398-.3752.517 0 .996.1423 1.436.427.448.276.806.6598 1.074 1.1515.267.4916.401 1.0436.401 1.656s-.134 1.1644-.401 1.6561c-.268.4916-.626.8798-1.074 1.1644-.44.276-.919.414-1.436.414-.527 0-.992-.1207-1.398-.3622-.405-.2502-.694-.5305-.867-.841h-.012v3.7908zm3.053-3.4415c.38 0 .733-.1035 1.061-.3105s.587-.4916.776-.8539c.199-.3623.298-.7677.298-1.2162 0-.4571-.099-.8668-.298-1.2291-.189-.3623-.448-.6426-.776-.841-.328-.207-.681-.3105-1.061-.3105-.397 0-.763.1035-1.1.3105-.327.1984-.59.4787-.789.841-.19.3623-.284.772-.284 1.2291 0 .4485.094.8539.284 1.2162.199.3623.462.6469.789.8539.337.207.703.3105 1.1.3105z" fill-rule="evenodd"/><path clip-rule="evenodd" d="m161.615 39.2539c-.363-.207-.781-.3105-1.255-.3105-.492 0-.936.1122-1.333.3364-.397.2156-.725.483-.983.8022l.582.5563c.25-.2588.509-.4658.776-.621.276-.1639.595-.2458.958-.2458.465 0 .84.1423 1.125.4269.293.2846.44.6598.44 1.1256v.013l-2.251.3752c-.63.1035-1.117.3277-1.462.6727-.345.3364-.518.7547-.518 1.255 0 .3105.087.6038.259.8798.181.2674.427.483.738.6469.319.1639.681.2458 1.086.2458.501 0 .945-.1164 1.333-.3493s.664-.4916.828-.7763h.013v.9962h.841v-3.9072c0-.4744-.104-.8928-.311-1.255-.207-.3709-.496-.6599-.866-.8669zm-.712 5.0847c-.311.1811-.656.2717-1.035.2717-.388 0-.703-.0992-.945-.2976-.232-.1984-.349-.4399-.349-.7245 0-.2933.108-.5391.324-.7375.215-.1984.543-.3364.983-.414l2.044-.3364v.4399c0 .3881-.091.7418-.272 1.0609-.181.3105-.431.5563-.75.7375z" fill-rule="evenodd"/><path d="m164.444 39.0728h.879v.9962h.013c.164-.2932.427-.552.79-.7763.37-.2328.785-.3493 1.242-.3493.474 0 .901.1122 1.281.3364.379.2243.677.5391.892.9445.216.4054.324.8711.324 1.3973v3.6614h-.88v-3.6614c0-.5434-.164-.9833-.492-1.3197-.319-.3364-.729-.5046-1.229-.5046-.362 0-.69.0906-.983.2717-.293.1725-.526.414-.699.7246-.172.3105-.259.6598-.259 1.0479v3.4415h-.879z"/><path d="m176.547 39.0728h-.918l-1.825 5.1364h-.026l-2.238-5.1364h-.957l2.743 6.2232-.376.9315c-.241.621-.629.9316-1.164.9316-.129 0-.254-.0173-.375-.0518-.112-.0345-.207-.0733-.285-.1164v.8539c.224.1035.47.1552.738.1552.483 0 .879-.1423 1.19-.4269.319-.276.591-.7159.815-1.3197z"/></g></svg>