<svg fill="none" height="48" viewBox="0 0 172 48" width="172" xmlns="http://www.w3.org/2000/svg"><circle cx="24" cy="24" fill="#1565c0" r="24"/><path d="m16.5517 27.0894c.3353.578.956.9379 1.6195.9379 1.0347 0 1.8762-.8419 1.8762-1.8767 0-.3312-.0856-.6549-.2485-.9362-.6059-1.048-.9259-2.2401-.9259-3.4483 0-3.8055 3.0956-6.9018 6.9017-6.9018 1.0339 0 1.875-.8415 1.875-1.8761 0-1.0342-.8388-1.8758-1.8692-1.8758-5.8769 0-10.6579 4.7794-10.6579 10.6537 0 1.8654.4941 3.7062 1.4291 5.3233z" fill="#fff"/><path d="m20.1214 21.7661c0-1.6393.6977-3.1153 1.8123-4.1477-.0963 1.1668.471 2.3392 1.5527 2.9636.4835.2797 1.0209.4212 1.5594.4212.961-.0006 1.9336.2395 2.8246.754 1.4202.8201 2.3496 2.1623 2.6866 3.644-.9629-.6668-2.2624-.7621-3.3432-.1378-.4845.2793-.8748.6734-1.1445 1.1393-.48.834-1.1743 1.5558-2.0658 2.0702-1.4199.8191-3.0468.9531-4.498.5048 1.0578-.5012 1.7898-1.5783 1.7898-2.8271 0-.5582-.1458-1.0946-.4147-1.5606-.4812-.8325-.7592-1.7954-.7592-2.8239z" fill="#fff"/><path d="m32.6497 32.919c-.3282 0-.6536-.0871-.9412-.2535-.896-.5174-1.2047-1.6662-.6869-2.5617 1.9016-3.296.7688-7.5251-2.5266-9.4281-1.0443-.6028-2.2349-.9215-3.4434-.9215-.3308 0-.6539-.0876-.9419-.2535-.8953-.5176-1.2026-1.6673-.6858-2.5631.3311-.574.9528-.9317 1.6219-.9332 1.8704 0 3.7097.4925 5.3242 1.4244 2.463 1.4223 4.2256 3.7202 4.9622 6.471.7364 2.7499.3582 5.6216-1.0647 8.0858-.332.5758-.9529.9334-1.6178.9334z" fill="#fff"/><path d="m11.9477 28.8985c1.897 3.2878 5.4384 5.3307 9.2413 5.3307 1.8586 0 3.696-.4939 5.3142-1.428 1.6157-.933 2.9621-2.2812 3.8942-3.8984.3337-.5788.3354-1.2963.0033-1.8714-.4976-.8617-1.6944-1.1893-2.5623-.6865-.2868.165-.5241.4008-.6873.6821-.6047 1.0495-1.4768 1.9234-2.5238 2.5272-1.0487.6053-2.2403.9255-3.4442.9255-2.4609 0-4.7536-1.3226-5.9837-3.4518-.4959-.8611-1.6921-1.1873-2.5619-.6851-.8955.5165-1.2055 1.6633-.6898 2.5557z" fill="#fff"/><path d="m60 0h1v48h-1z" fill="#e0e0e0"/><g fill="#212121"><path clip-rule="evenodd" d="m74.8 22v-14h5.96c.9467 0 1.7933.20667 2.54.62.76.41333 1.3467.98 1.76 1.7.4267.7067.64 1.5.64 2.38s-.2133 1.68-.64 2.4c-.4133.7067-1 1.2667-1.76 1.68-.7467.4133-1.5933.62-2.54.62h-2.96v4.6zm5.86-7.3c.5733 0 1.0533-.1933 1.44-.58.4-.4.6-.8733.6-1.42s-.2-1.0133-.6-1.4c-.3867-.4-.8667-.6-1.44-.6h-2.86v4z" fill-rule="evenodd"/><path d="m87.2008 8v14h2.7v-5.1c0-.6667.1933-1.2067.58-1.62.4-.4267.9066-.64 1.52-.64.5333 0 .9666.18 1.3.54.3333.3467.5.82.5 1.42v5.4h2.7v-5.76c0-.8533-.16-1.5867-.48-2.2-.3067-.6267-.7334-1.1067-1.28-1.44-.5467-.3333-1.1734-.5-1.88-.5-.6667 0-1.26.1667-1.78.5-.5067.32-.88.68-1.12 1.08h-.06v-5.68z"/><path clip-rule="evenodd" d="m102.395 12.1c.827 0 1.56.1733 2.2.52.654.3333 1.16.7933 1.52 1.38.36.5733.54 1.2067.54 1.9v6.1h-2.56v-1.34h-.06c-.24.3867-.62.74-1.14 1.06s-1.113.48-1.78.48c-.613 0-1.1664-.1267-1.6597-.38-.48-.2533-.86-.5933-1.14-1.02-.28-.44-.42-.9067-.42-1.4 0-.8267.26-1.5067.78-2.04s1.26-.8933 2.2197-1.08l3.06-.58c-.026-.3867-.2-.7133-.52-.98-.306-.28-.7-.42-1.18-.42-.826 0-1.58.38-2.2597 1.14l-1.54-1.48c.4267-.5067.9733-.94 1.6397-1.3.68-.3733 1.447-.56 2.3-.56zm-.5 7.94c.587 0 1.074-.2067 1.46-.62.4-.4133.6-.9533.6-1.62v-.32l-2.1.42c-.373.0667-.666.2067-.88.42-.213.2-.32.4267-.32.68 0 .3067.107.56.32.76.227.1867.534.28.92.28z" fill-rule="evenodd"/><path d="m108.659 12.3v9.7h2.7v-4.56c0-.7867.22-1.4133.66-1.88.44-.48 1.007-.72 1.7-.72.28 0 .58.0533.9.16v-2.9h-.46c-.613 0-1.166.1467-1.66.44-.48.28-.84.6-1.08.96h-.06v-1.2z"/><path d="m115.816 22v-9.7h2.7v1.38h.06c.186-.4.52-.76 1-1.08.48-.3333 1.046-.5 1.7-.5.666 0 1.246.1733 1.74.52.493.3333.84.7067 1.04 1.12h.08c.226-.4133.633-.7867 1.22-1.12.6-.3467 1.286-.52 2.06-.52.626 0 1.193.1667 1.7.5.52.3333.933.8133 1.24 1.44.306.6267.46 1.36.46 2.2v5.76h-2.7v-5.5c0-.5867-.154-1.04-.46-1.36-.294-.3333-.674-.5-1.14-.5-.534 0-.974.1933-1.32.58-.347.3867-.52.9133-.52 1.58v5.2h-2.7v-5.5c0-.5867-.154-1.04-.46-1.36-.294-.3333-.674-.5-1.14-.5-.547 0-.994.1933-1.34.58-.347.3867-.52.9133-.52 1.58v5.2z"/><path clip-rule="evenodd" d="m138.916 12.62c-.64-.3467-1.374-.52-2.2-.52-.854 0-1.62.1867-2.3.56-.667.36-1.214.7933-1.64 1.3l1.54 1.48c.68-.76 1.433-1.14 2.26-1.14.48 0 .873.14 1.18.42.32.2667.493.5933.52.98l-3.06.58c-.96.1867-1.7.5467-2.22 1.08s-.78 1.2133-.78 2.04c0 .4933.14.96.42 1.4.28.4267.66.7667 1.14 1.02.493.2533 1.046.38 1.66.38.666 0 1.26-.16 1.78-.48s.9-.6733 1.14-1.06h.06v1.34h2.56v-6.1c0-.6933-.18-1.3267-.54-1.9-.36-.5867-.867-1.0467-1.52-1.38zm-1.24 6.8c-.387.4133-.874.62-1.46.62-.387 0-.694-.0933-.92-.28-.214-.2-.32-.4533-.32-.76 0-.2533.106-.48.32-.68.213-.2133.506-.3533.88-.42l2.1-.42v.32c0 .6667-.2 1.2067-.6 1.62z" fill-rule="evenodd"/><path clip-rule="evenodd" d="m157.334 22.2c-.96 0-1.84-.2267-2.64-.68-.787-.4533-1.414-1.0667-1.88-1.84-.454-.7733-.68-1.62-.68-2.54s.226-1.7667.68-2.54c.466-.7733 1.093-1.38 1.88-1.82.8-.4533 1.68-.68 2.64-.68.973 0 1.853.2267 2.64.68.8.44 1.426 1.0467 1.88 1.82.453.7733.68 1.62.68 2.54s-.227 1.7667-.68 2.54c-.454.7733-1.08 1.3867-1.88 1.84-.787.4533-1.667.68-2.64.68zm0-2.5c.68 0 1.26-.2467 1.74-.74s.72-1.1.72-1.82-.24-1.32-.72-1.8c-.48-.4933-1.06-.74-1.74-.74s-1.26.2467-1.74.74c-.467.48-.7 1.08-.7 1.8s.233 1.3267.7 1.82c.48.4933 1.06.74 1.74.74z" fill-rule="evenodd"/><path d="m144.804 22h-3.02l3.34-5-3.08-4.7h3.12l1.76 2.96h.06l1.78-2.96h3.02l-3.08 4.7 3.32 5h-3.12l-2.02-3.28h-.06z"/><path clip-rule="evenodd" d="m165.837 41.848c.608.3413 1.259.512 1.952.512s1.317-.1707 1.872-.512c.565-.3413 1.008-.8107 1.328-1.408.32-.5867.48-1.248.48-1.984v-7.136h-1.088v1.28h-.016c-.224-.3627-.576-.6933-1.056-.992s-1.024-.448-1.632-.448c-.629 0-1.211.1653-1.744.496s-.96.7893-1.28 1.376c-.309.5867-.464 1.2427-.464 1.968s.155 1.3813.464 1.968c.32.5867.747 1.0453 1.28 1.376s1.115.496 1.744.496c.544 0 1.061-.128 1.552-.384.491-.2667.869-.624 1.136-1.072h.016v1.072c0 .832-.24 1.5147-.72 2.048s-1.104.8-1.872.8c-.523 0-1.019-.1333-1.488-.4-.459-.2667-.789-.5547-.992-.864l-.784.72c.267.3947.704.7573 1.312 1.088zm3.264-4.416c-.384.2347-.816.352-1.296.352-.459 0-.885-.1173-1.28-.352-.384-.2453-.688-.576-.912-.992-.224-.4267-.336-.9067-.336-1.44s.112-1.0133.336-1.44.528-.7573.912-.992c.395-.2347.821-.352 1.28-.352.48 0 .912.1173 1.296.352.395.2347.704.5653.928.992.235.4267.352.9067.352 1.44s-.117 1.0133-.352 1.44c-.224.416-.533.7467-.928.992z" fill-rule="evenodd"/><path d="m157.049 39h-1.088v-7.68h1.088v1.232h.016c.203-.3627.528-.6827.976-.96.459-.288.971-.432 1.536-.432.587 0 1.115.1387 1.584.416s.837.6667 1.104 1.168.4 1.0773.4 1.728v4.528h-1.088v-4.528c0-.672-.203-1.216-.608-1.632-.395-.416-.901-.624-1.52-.624-.448 0-.853.112-1.216.336-.363.2133-.651.512-.864.896s-.32.816-.32 1.296z"/><path d="m152.675 31.32v7.68h1.088v-7.68z"/><path d="m152.707 29.432c.15.1387.32.208.512.208.203 0 .374-.0693.512-.208.15-.1387.224-.3093.224-.512s-.074-.3733-.224-.512c-.138-.1387-.309-.208-.512-.208-.192 0-.362.0693-.512.208-.138.1387-.208.3093-.208.512s.07.3733.208.512z"/><path clip-rule="evenodd" d="m146.489 39.16c-.64 0-1.237-.1707-1.792-.512-.544-.352-.981-.832-1.312-1.44s-.496-1.2907-.496-2.048.165-1.44.496-2.048.768-1.0827 1.312-1.424c.555-.352 1.152-.528 1.792-.528.651 0 1.227.1547 1.728.464.501.2987.859.64 1.072 1.024h.032v-4.848h1.072v11.2h-1.072v-1.328h-.032c-.213.384-.571.7307-1.072 1.04-.501.2987-1.077.448-1.728.448zm.128-1.056c.491 0 .939-.128 1.344-.384.416-.256.747-.608.992-1.056s.368-.9493.368-1.504c0-.5653-.123-1.072-.368-1.52s-.576-.7947-.992-1.04c-.405-.256-.853-.384-1.344-.384-.469 0-.907.128-1.312.384-.405.2453-.731.592-.976 1.04-.235.448-.352.9547-.352 1.52 0 .5547.117 1.056.352 1.504.245.448.571.8.976 1.056s.843.384 1.312.384z" fill-rule="evenodd"/><path d="m134.661 31.32v7.68h1.088v-4.256c0-.48.107-.912.32-1.296s.501-.6827.864-.896c.363-.224.768-.336 1.216-.336.619 0 1.125.208 1.52.624.405.416.608.96.608 1.632v4.528h1.088v-4.528c0-.6507-.133-1.2267-.4-1.728s-.635-.8907-1.104-1.168-.997-.416-1.584-.416c-.565 0-1.077.144-1.536.432-.448.2773-.773.5973-.976.96h-.016v-1.232z"/><path d="m128.913 39.16c-.587 0-1.115-.1387-1.584-.416-.47-.2773-.838-.6667-1.104-1.168-.267-.5013-.4-1.0773-.4-1.728v-4.528h1.088v4.528c0 .672.197 1.216.592 1.632.405.416.917.624 1.536.624.448 0 .853-.1067 1.216-.32.362-.224.65-.528.864-.912.213-.384.32-.816.32-1.296v-4.256h1.088v7.68h-1.088v-1.232h-.016c-.192.352-.518.672-.976.96-.448.288-.96.432-1.536.432z"/><path clip-rule="evenodd" d="m118.447 38.632c.598.352 1.248.528 1.952.528s1.355-.176 1.952-.528c.598-.3627 1.072-.848 1.424-1.456s.528-1.28.528-2.016-.176-1.408-.528-2.016-.826-1.088-1.424-1.44c-.597-.3627-1.248-.544-1.952-.544s-1.354.1813-1.952.544c-.597.352-1.072.832-1.424 1.44s-.528 1.28-.528 2.016.176 1.408.528 2.016.827 1.0933 1.424 1.456zm3.36-.912c-.426.256-.896.384-1.408.384s-.986-.128-1.424-.384c-.426-.256-.768-.608-1.024-1.056-.245-.4587-.368-.96-.368-1.504s.123-1.04.368-1.488c.256-.4587.598-.816 1.024-1.072.438-.256.912-.384 1.424-.384s.982.128 1.408.384c.438.256.779.6133 1.024 1.072.256.448.384.944.384 1.488s-.128 1.0453-.384 1.504c-.245.448-.586.8-1.024 1.056z" fill-rule="evenodd"/><path clip-rule="evenodd" d="m107.923 42.36v-11.04h1.088v1.328h.016c.214-.384.571-.7253 1.072-1.024.502-.3093 1.078-.464 1.728-.464.64 0 1.232.176 1.776.528.555.3413.998.816 1.328 1.424.331.608.496 1.2907.496 2.048s-.165 1.44-.496 2.048c-.33.608-.773 1.088-1.328 1.44-.544.3413-1.136.512-1.776.512-.65 0-1.226-.1493-1.728-.448-.501-.3093-.858-.656-1.072-1.04h-.016v4.688zm3.776-4.256c.47 0 .907-.128 1.312-.384.406-.256.726-.608.96-1.056.246-.448.368-.9493.368-1.504 0-.5653-.122-1.072-.368-1.52-.234-.448-.554-.7947-.96-1.04-.405-.256-.842-.384-1.312-.384-.49 0-.944.128-1.36.384-.405.2453-.73.592-.976 1.04-.234.448-.352.9547-.352 1.52 0 .5547.118 1.056.352 1.504.246.448.571.8.976 1.056.416.256.87.384 1.36.384z" fill-rule="evenodd"/><path d="m94.5265 31.32v7.68h1.088v-4.288c0-.7573.1973-1.36.592-1.808.4053-.4587.912-.688 1.52-.688.5547 0 1.0133.2027 1.376.608.3733.3947.56.9333.56 1.616v4.56h1.0885v-4.288c0-.7573.197-1.36.592-1.808.405-.4587.912-.688 1.52-.688.554 0 1.013.2027 1.376.608.362.3947.544.9333.544 1.616v4.56h1.088v-4.56c0-.6507-.128-1.2213-.384-1.712-.256-.5013-.603-.8853-1.04-1.152-.427-.2773-.902-.416-1.424-.416-.651 0-1.211.16-1.68.48-.459.32-.774.672-.944 1.056h-.032c-.182-.384-.4912-.736-.9285-1.056s-.9493-.48-1.536-.48c-.5547 0-1.0347.1387-1.44.416-.3947.2773-.672.5867-.832.928h-.016v-1.184z"/><path clip-rule="evenodd" d="m89.0212 39.16c-.704 0-1.3546-.176-1.952-.528-.5973-.3627-1.072-.848-1.424-1.456s-.528-1.28-.528-2.016.176-1.408.528-2.016.8267-1.088 1.424-1.44c.5974-.3627 1.248-.544 1.952-.544s1.3547.1813 1.952.544c.5974.352 1.072.832 1.424 1.44s.528 1.28.528 2.016-.176 1.408-.528 2.016-.8266 1.0933-1.424 1.456c-.5973.352-1.248.528-1.952.528zm0-1.056c.512 0 .9814-.128 1.408-.384.4374-.256.7787-.608 1.024-1.056.256-.4587.384-.96.384-1.504s-.128-1.04-.384-1.488c-.2453-.4587-.5866-.816-1.024-1.072-.4266-.256-.896-.384-1.408-.384s-.9866.128-1.424.384c-.4266.256-.768.6133-1.024 1.072-.2453.448-.368.944-.368 1.488s.1227 1.0453.368 1.504c.256.448.5974.8 1.024 1.056.4374.256.912.384 1.424.384z" fill-rule="evenodd"/><path d="m76.792 38.392c.8853.512 1.856.768 2.912.768 1.0347 0 1.952-.2293 2.752-.688.8107-.4587 1.4453-1.0027 1.904-1.632l-.864-.672c-.3947.5013-.912.9387-1.552 1.312-.64.3627-1.3867.544-2.24.544-.832 0-1.6-.2027-2.304-.608-.704-.416-1.2587-.976-1.664-1.68s-.608-1.4827-.608-2.336.2027-1.632.608-2.336c.4053-.7147.96-1.2747 1.664-1.68s1.472-.608 2.304-.608c.8533 0 1.5893.176 2.208.528.6293.352 1.1307.7733 1.504 1.264l.864-.688c-.4267-.5973-1.0453-1.12-1.856-1.568-.8-.448-1.7067-.672-2.72-.672-1.056 0-2.0267.256-2.912.768s-1.584 1.2107-2.096 2.096-.768 1.8507-.768 2.896.256 2.0107.768 2.896 1.2107 1.584 2.096 2.096z"/></g></svg>