<svg fill="none" height="24" viewBox="0 0 204 24" width="204" xmlns="http://www.w3.org/2000/svg"><g fill="#fff"><path clip-rule="evenodd" d="m6.25568 11.0188c0 .6081.35008.8844.95815.8844h4.32097v-3.18765h.912v3.18765h4.3117c.6265 0 .9582-.2763.9582-.8844v-1.4188c0-.59886-.3317-.88445-.9582-.88445h-1.557c.3778-.32245.5989-.7831.5989-1.33591 0-1.11476-.8568-1.89788-1.9716-1.89788-.8568 0-1.5478.4791-1.8426 1.31748-.2948-.83838-.9858-1.31748-1.8426-1.31748-1.11479 0-1.97161.78312-1.97161 1.89788 0 .55281.22111 1.01346.59883 1.33591h-1.55699c-.58963 0-.95815.28559-.95815.88445zm6.19112-2.30325v-.80155c0-.93972.5712-1.52936 1.3359-1.52936.6542 0 1.1148.39617 1.1148 1.03186 0 .71862-.5988 1.29905-1.5846 1.29905zm-.912 0h-.8661c-.99499 0-1.59386-.58043-1.59386-1.29905 0-.63569.46986-1.03186 1.11476-1.03186.7739 0 1.3452.58964 1.3452 1.52936z" fill-rule="evenodd"/><path d="m8.66949 17.9102c-.94896 0-1.52016-.5252-1.52016-1.4833v-3.9248h4.38547v5.4081z"/><path d="m15.3029 17.9102h-2.8561v-5.4081h4.3762v3.9248c0 .9581-.562 1.4833-1.5201 1.4833z"/><path clip-rule="evenodd" d="m24 12.0046c0 6.5597-5.4357 11.9954-12.0046 11.9954-6.55971 0-11.9954-5.4357-11.9954-11.9954 0-6.56891 5.42649-12.0046 11.9862-12.0046 6.5689 0 12.0138 5.43569 12.0138 12.0046zm-22.27716 0c0 5.6936 4.57887 10.2818 10.27256 10.2818 5.7029 0 10.2818-4.5882 10.2818-10.2818 0-5.70289-4.5881-10.28177-10.291-10.28177-5.69369 0-10.26336 4.57888-10.26336 10.28177z" fill-rule="evenodd"/><path d="m30 0h1v24h-1z"/><path clip-rule="evenodd" d="m38.8 18v-14h5.96c.9467 0 1.7933.20667 2.54.62.76.41333 1.3467.98 1.76 1.7.4267.70667.64 1.5.64 2.38s-.2133 1.68-.64 2.4c-.4133.7067-1 1.2667-1.76 1.68-.7467.4133-1.5933.62-2.54.62h-2.96v4.6zm5.86-7.3c.5733 0 1.0533-.1933 1.44-.58.4-.4.6-.87333.6-1.42s-.2-1.01333-.6-1.4c-.3867-.4-.8667-.6-1.44-.6h-2.86v4z" fill-rule="evenodd"/><path d="m51.2008 18v-14h2.7v5.68h.06c.24-.4.6133-.76 1.12-1.08.52-.33333 1.1133-.5 1.78-.5.7066 0 1.3333.16667 1.88.5.5466.33333.9733.81333 1.28 1.44.32.6133.48 1.3467.48 2.2v5.76h-2.7v-5.4c0-.6-.1667-1.0733-.5-1.42-.3334-.36-.7667-.54-1.3-.54-.6134 0-1.12.2133-1.52.64-.3867.4133-.58.9533-.58 1.62v5.1z"/><path clip-rule="evenodd" d="m68.5953 8.62c-.64-.34667-1.3733-.52-2.2-.52-.8533 0-1.62.18667-2.3.56-.6667.36-1.2133.79333-1.64 1.3l1.54 1.48c.68-.76 1.4333-1.14 2.26-1.14.48 0 .8733.14 1.18.42.32.2667.4933.5933.52.98l-3.06.58c-.96.1867-1.7.5467-2.22 1.08s-.78 1.2133-.78 2.04c0 .4933.14.96.42 1.4.28.4267.66.7667 1.14 1.02.4933.2533 1.0467.38 1.66.38.6667 0 1.26-.16 1.78-.48s.9-.6733 1.14-1.06h.06v1.34h2.56v-6.1c0-.6933-.18-1.3267-.54-1.9-.36-.58667-.8667-1.04667-1.52-1.38zm-1.24 6.8c-.3867.4133-.8733.62-1.46.62-.3867 0-.6933-.0933-.92-.28-.2133-.2-.32-.4533-.32-.76 0-.2533.1067-.48.32-.68.2133-.2133.5067-.3533.88-.42l2.1-.42v.32c0 .6667-.2 1.2067-.6 1.62z" fill-rule="evenodd"/><path d="m72.6594 18v-9.7h2.7v1.2h.06c.24-.36.6-.68 1.08-.96.4933-.29333 1.0466-.44 1.66-.44h.46v2.9c-.32-.1067-.62-.16-.9-.16-.6934 0-1.26.24-1.7.72-.44.4667-.66 1.0933-.66 1.88v4.56z"/><path d="m79.8156 8.3v9.7h2.7v-5.2c0-.6667.1733-1.1933.52-1.58s.7933-.58 1.34-.58c.4667 0 .8467.1667 1.14.5.3067.32.46.7733.46 1.36v5.5h2.7v-5.2c0-.6667.1733-1.1933.52-1.58s.7867-.58 1.32-.58c.4667 0 .8467.1667 1.14.5.3067.32.46.7733.46 1.36v5.5h2.7v-5.76c0-.84-.1533-1.5733-.46-2.2-.3066-.62667-.72-1.10667-1.24-1.44-.5067-.33333-1.0733-.5-1.7-.5-.7733 0-1.46.17333-2.06.52-.5867.33333-.9933.70667-1.22 1.12h-.08c-.2-.41333-.5467-.78667-1.04-1.12-.4933-.34667-1.0733-.52-1.74-.52-.6533 0-1.22.16667-1.7.5-.48.32-.8133.68-1 1.08h-.06v-1.38z"/><path clip-rule="evenodd" d="m100.716 8.1c.826 0 1.56.17333 2.2.52.653.33333 1.16.79333 1.52 1.38.36.5733.54 1.2067.54 1.9v6.1h-2.56v-1.34h-.06c-.24.3867-.62.74-1.14 1.06s-1.114.48-1.7804.48c-.6133 0-1.1667-.1267-1.66-.38-.48-.2533-.86-.5933-1.14-1.02-.28-.44-.42-.9067-.42-1.4 0-.8267.26-1.5067.78-2.04s1.26-.8933 2.22-1.08l3.0604-.58c-.027-.3867-.2-.7133-.52-.98-.307-.28-.7-.42-1.18-.42-.8271 0-1.5804.38-2.2604 1.14l-1.54-1.48c.4267-.50667.9733-.94 1.64-1.3.68-.37333 1.4467-.56 2.3004-.56zm-.5 7.94c.586 0 1.073-.2067 1.46-.62.4-.4133.6-.9533.6-1.62v-.32l-2.1.42c-.3737.0667-.6671.2067-.8804.42-.2133.2-.32.4267-.32.68 0 .3067.1067.56.32.76.2267.1867.5333.28.9204.28z" fill-rule="evenodd"/><path d="m105.784 18h3.02l2.02-3.28h.06l2.02 3.28h3.12l-3.32-5 3.08-4.7h-3.02l-1.78 2.96h-.06l-1.76-2.96h-3.12l3.08 4.7z"/><g clip-rule="evenodd" fill-rule="evenodd"><path d="m121.334 18.2c-.96 0-1.84-.2267-2.64-.68-.787-.4533-1.414-1.0667-1.88-1.84-.454-.7733-.68-1.62-.68-2.54s.226-1.7667.68-2.54c.466-.77333 1.093-1.38 1.88-1.82.8-.45333 1.68-.68 2.64-.68.973 0 1.853.22667 2.64.68.8.44 1.426 1.04667 1.88 1.82.453.7733.68 1.62.68 2.54s-.227 1.7667-.68 2.54c-.454.7733-1.08 1.3867-1.88 1.84-.787.4533-1.667.68-2.64.68zm0-2.5c.68 0 1.26-.2467 1.74-.74s.72-1.1.72-1.82-.24-1.32-.72-1.8c-.48-.4933-1.06-.74-1.74-.74s-1.26.2467-1.74.74c-.467.48-.7 1.08-.7 1.8s.233 1.3267.7 1.82c.48.4933 1.06.74 1.74.74z"/><path d="m141.6 18h1.68l-3.28-5.8c.88-.28 1.58-.78 2.1-1.5.533-.72.8-1.54667.8-2.48 0-.78667-.194-1.5-.58-2.14-.373-.64-.9-1.14667-1.58-1.52s-1.44-.56-2.28-.56h-5.5v14h1.5v-5.56h4.02zm-7.14-6.96v-5.62h4c.866 0 1.573.26667 2.12.8.546.52.82 1.18667.82 2 0 .82667-.274 1.50667-.82 2.04-.534.52-1.24.78-2.12.78z"/><path d="m149.478 18.2c-.866 0-1.666-.22-2.4-.66-.733-.4533-1.32-1.06-1.76-1.82s-.66-1.6-.66-2.52c0-.9333.214-1.78.64-2.54.427-.76 1-1.36 1.72-1.8s1.507-.66 2.36-.66c.84 0 1.6.20667 2.28.62.694.41333 1.24.99333 1.64 1.74.4.7467.6 1.5867.6 2.52 0 .2133-.013.4267-.04.64h-7.8c.067.5867.26 1.12.58 1.6s.727.86 1.22 1.14c.507.28 1.06.42 1.66.42 1.107 0 2.087-.48 2.94-1.44l.94.86c-.426.5333-.966.9867-1.62 1.36-.653.36-1.42.54-2.3.54zm3.04-5.66c-.12-.9333-.46-1.6733-1.02-2.22-.56-.56-1.266-.84-2.12-.84-.56 0-1.086.14-1.58.42-.48.2667-.88.6333-1.2 1.1-.306.4667-.493.98-.56 1.54z"/></g><path d="m157.815 18h1.32l2.36-7.4h.04l2.38 7.4h1.32l3.28-9.6h-1.38l-2.54 7.66h-.04l-2.46-7.66h-1.08l-2.46 7.62h-.04l-2.54-7.62h-1.44z"/><path clip-rule="evenodd" d="m173.188 8.2c.734 0 1.38.16 1.94.48.574.32 1.02.76667 1.34 1.34.32.56.48 1.2067.48 1.94v6.04h-1.3v-1.54h-.02c-.253.44-.68.84-1.28 1.2s-1.286.54-2.06.54c-.626 0-1.186-.1267-1.68-.38-.48-.2533-.86-.5867-1.14-1-.266-.4267-.4-.88-.4-1.36 0-.7733.267-1.42.8-1.94.534-.5333 1.287-.88 2.26-1.04l3.48-.58v-.02c0-.72-.226-1.3-.68-1.74-.44-.44-1.02-.66-1.74-.66-.56 0-1.053.12667-1.48.38-.413.24-.813.56-1.2.96l-.9-.86c.4-.49333.907-.90667 1.52-1.24.614-.34667 1.3-.52 2.06-.52zm-.76 8.76c.587 0 1.12-.14 1.6-.42.494-.28.88-.66 1.16-1.14.28-.4933.42-1.04.42-1.64v-.68l-3.16.52c-.68.12-1.186.3333-1.52.64-.333.3067-.5.6867-.5 1.14 0 .44.18.8133.54 1.12.374.3067.86.46 1.46.46z" fill-rule="evenodd"/><path d="m180.862 8.4h-1.36v9.6h1.36v-5.2c0-.6133.133-1.1667.4-1.66.28-.4933.653-.88 1.12-1.16s.98-.42 1.54-.42c.187 0 .373.01333.56.04v-1.4h-.44c-.72 0-1.367.17333-1.94.52-.56.34667-.967.74-1.22 1.18h-.02z"/><path clip-rule="evenodd" d="m189.6 18.2c-.8 0-1.547-.2133-2.24-.64-.68-.44-1.227-1.04-1.64-1.8-.414-.76-.62-1.6133-.62-2.56s.206-1.8.62-2.56c.413-.76.96-1.35333 1.64-1.78.693-.44 1.44-.66 2.24-.66.813 0 1.533.19333 2.16.58.626.37333 1.073.8 1.34 1.28h.04v-6.06h1.34v14h-1.34v-1.66h-.04c-.267.48-.714.9133-1.34 1.3-.627.3733-1.347.56-2.16.56zm.16-1.32c.613 0 1.173-.16 1.68-.48.52-.32.933-.76 1.24-1.32.306-.56.46-1.1867.46-1.88 0-.7067-.154-1.34-.46-1.9-.307-.56-.72-.9933-1.24-1.3-.507-.32-1.067-.48-1.68-.48-.587 0-1.134.16-1.64.48-.507.3067-.914.74-1.22 1.3-.294.56-.44 1.1933-.44 1.9 0 .6933.146 1.32.44 1.88.306.56.713 1 1.22 1.32.506.32 1.053.48 1.64.48z" fill-rule="evenodd"/><path d="m197.932 17.68c.64.3467 1.34.52 2.1.52.707 0 1.327-.1333 1.86-.4.534-.2667.94-.62 1.22-1.06.294-.4533.44-.9467.44-1.48 0-.5867-.153-1.06-.46-1.42-.293-.36-.653-.6333-1.08-.82-.413-.2-.953-.4-1.62-.6-.733-.2133-1.28-.42-1.64-.62-.346-.2133-.52-.52-.52-.92 0-.3867.167-.7133.5-.98.347-.28.814-.42 1.4-.42.854 0 1.607.32667 2.26.98l.92-.9c-.36-.37333-.806-.69333-1.34-.96-.533-.26667-1.146-.4-1.84-.4-.626 0-1.193.12667-1.7.38-.493.25333-.88.58667-1.16 1-.266.4-.4.8333-.4 1.3 0 .56.147 1.02.44 1.38.294.36.647.6333 1.06.82.427.1867.974.3867 1.64.6.747.2133 1.3.4267 1.66.64s.54.5267.54.94c0 .48-.193.88-.58 1.2-.373.3067-.9.46-1.58.46-.546 0-1.06-.1333-1.54-.4s-.853-.5667-1.12-.9l-.92.9c.334.4267.82.8133 1.46 1.16z"/></g></svg>