<svg fill="none" height="48" viewBox="0 0 163 48" width="163" xmlns="http://www.w3.org/2000/svg"><g fill="#fff"><path d="m60 0h1v48h-1z"/><path clip-rule="evenodd" d="m74.8 22v-14h5.96c.9467 0 1.7934.20667 2.54.62.76.41333 1.3467.98 1.7601 1.7.4266.7067.6399 1.5.6399 2.38s-.2133 1.68-.6399 2.4c-.4134.7067-1.0001 1.2667-1.7601 1.68-.7466.4133-1.5933.62-2.54.62h-2.96v4.6zm5.86-7.3c.5734 0 1.0534-.1933 1.44-.58.4-.4.6-.8733.6-1.42s-.2-1.0133-.6-1.4c-.3866-.4-.8666-.6-1.44-.6h-2.86v4z" fill-rule="evenodd"/><path d="m87.2008 8v14h2.7v-5.1c0-.6667.1933-1.2067.58-1.62.4-.4267.9067-.64 1.52-.64.5333 0 .9667.18 1.3.54.3333.3467.5.82.5 1.42v5.4h2.7v-5.76c0-.8533-.16-1.5867-.48-2.2-.3067-.6267-.7333-1.1067-1.28-1.44s-1.1733-.5-1.88-.5c-.6667 0-1.26.1667-1.78.5-.5067.32-.88.68-1.12 1.08h-.06v-5.68z"/><path clip-rule="evenodd" d="m102.395 12.1c.827 0 1.56.1733 2.2.52.654.3333 1.16.7933 1.52 1.38.36.5733.54 1.2067.54 1.9v6.1h-2.56v-1.34h-.06c-.24.3867-.62.74-1.14 1.06s-1.113.48-1.78.48c-.613 0-1.1664-.1267-1.6597-.38-.48-.2533-.86-.5933-1.14-1.02-.28-.44-.42-.9067-.42-1.4 0-.8267.26-1.5067.78-2.04s1.26-.8933 2.2197-1.08l3.06-.58c-.026-.3867-.2-.7133-.52-.98-.306-.28-.7-.42-1.18-.42-.826 0-1.58.38-2.2597 1.14l-1.54-1.48c.4266-.5067.9733-.94 1.6397-1.3.68-.3733 1.447-.56 2.3-.56zm-.5 7.94c.587 0 1.074-.2067 1.46-.62.4-.4133.6-.9533.6-1.62v-.32l-2.1.42c-.373.0667-.666.2067-.88.42-.213.2-.32.4267-.32.68 0 .3067.107.56.32.76.227.1867.534.28.92.28z" fill-rule="evenodd"/><path d="m108.659 12.3v9.7h2.7v-4.56c0-.7867.22-1.4133.66-1.88.44-.48 1.007-.72 1.7-.72.28 0 .58.0533.9.16v-2.9h-.46c-.613 0-1.166.1467-1.66.44-.48.28-.84.6-1.08.96h-.06v-1.2z"/><path d="m115.816 22v-9.7h2.7v1.38h.06c.186-.4.52-.76 1-1.08.48-.3333 1.046-.5 1.7-.5.666 0 1.246.1733 1.74.52.493.3333.84.7067 1.04 1.12h.08c.226-.4133.633-.7867 1.22-1.12.6-.3467 1.286-.52 2.06-.52.626 0 1.193.1667 1.7.5.52.3333.933.8133 1.24 1.44.306.6267.46 1.36.46 2.2v5.76h-2.7v-5.5c0-.5867-.154-1.04-.46-1.36-.294-.3333-.674-.5-1.14-.5-.534 0-.974.1933-1.32.58-.347.3867-.52.9133-.52 1.58v5.2h-2.7v-5.5c0-.5867-.154-1.04-.46-1.36-.294-.3333-.674-.5-1.14-.5-.547 0-.994.1933-1.34.58-.347.3867-.52.9133-.52 1.58v5.2z"/><path clip-rule="evenodd" d="m138.916 12.62c-.64-.3467-1.374-.52-2.2-.52-.854 0-1.62.1867-2.3.56-.667.36-1.214.7933-1.64 1.3l1.54 1.48c.68-.76 1.433-1.14 2.26-1.14.48 0 .873.14 1.18.42.32.2667.493.5933.52.98l-3.06.58c-.96.1867-1.7.5467-2.22 1.08s-.78 1.2133-.78 2.04c0 .4933.14.96.42 1.4.28.4267.66.7667 1.14 1.02.493.2533 1.046.38 1.66.38.666 0 1.26-.16 1.78-.48s.9-.6733 1.14-1.06h.06v1.34h2.56v-6.1c0-.6933-.18-1.3267-.54-1.9-.36-.5867-.867-1.0467-1.52-1.38zm-1.24 6.8c-.387.4133-.874.62-1.46.62-.387 0-.694-.0933-.92-.28-.214-.2-.32-.4533-.32-.76 0-.2533.106-.48.32-.68.213-.2133.506-.3533.88-.42l2.1-.42v.32c0 .6667-.2 1.2067-.6 1.62z" fill-rule="evenodd"/><path clip-rule="evenodd" d="m157.334 22.2c-.96 0-1.84-.2267-2.64-.68-.787-.4533-1.414-1.0667-1.88-1.84-.454-.7733-.68-1.62-.68-2.54s.226-1.7667.68-2.54c.466-.7733 1.093-1.38 1.88-1.82.8-.4533 1.68-.68 2.64-.68.973 0 1.853.2267 2.64.68.8.44 1.426 1.0467 1.88 1.82.453.7733.68 1.62.68 2.54s-.227 1.7667-.68 2.54c-.454.7733-1.08 1.3867-1.88 1.84-.787.4533-1.667.68-2.64.68zm0-2.5c.68 0 1.26-.2467 1.74-.74s.72-1.1.72-1.82-.24-1.32-.72-1.8c-.48-.4933-1.06-.74-1.74-.74s-1.26.2467-1.74.74c-.467.48-.7 1.08-.7 1.8s.233 1.3267.7 1.82c.48.4933 1.06.74 1.74.74z" fill-rule="evenodd"/><path d="m144.804 22h-3.02l3.34-5-3.08-4.7h3.12l1.76 2.96h.06l1.78-2.96h3.02l-3.08 4.7 3.32 5h-3.12l-2.02-3.28h-.06z"/><path d="m126.674 38.744c.512.2773 1.072.416 1.68.416.565 0 1.061-.1067 1.488-.32s.752-.496.976-.848c.235-.3627.352-.7573.352-1.184 0-.4693-.123-.848-.368-1.136-.235-.288-.523-.5067-.864-.656-.331-.16-.763-.32-1.296-.48-.587-.1707-1.024-.336-1.312-.496-.277-.1707-.416-.416-.416-.736 0-.3093.133-.5707.4-.784.277-.224.651-.336 1.12-.336.683 0 1.285.2613 1.808.784l.736-.72c-.288-.2987-.645-.5547-1.072-.768s-.917-.32-1.472-.32c-.501 0-.955.1013-1.36.304-.395.2027-.704.4693-.928.8-.213.32-.32.6667-.32 1.04 0 .448.117.816.352 1.104s.517.5067.848.656c.341.1493.779.3093 1.312.48.597.1707 1.04.3413 1.328.512s.432.4213.432.752c0 .384-.155.704-.464.96-.299.2453-.72.368-1.264.368-.437 0-.848-.1067-1.232-.32s-.683-.4533-.896-.72l-.736.72c.267.3413.656.6507 1.168.928z"/><path clip-rule="evenodd" d="m120.008 39.16c-.64 0-1.237-.1707-1.792-.512-.544-.352-.981-.832-1.312-1.44s-.496-1.2907-.496-2.048.165-1.44.496-2.048.768-1.0827 1.312-1.424c.555-.352 1.152-.528 1.792-.528.651 0 1.227.1547 1.728.464.501.2987.859.64 1.072 1.024h.032v-4.848h1.072v11.2h-1.072v-1.328h-.032c-.213.384-.571.7307-1.072 1.04-.501.2987-1.077.448-1.728.448zm.128-1.056c.491 0 .939-.128 1.344-.384.416-.256.747-.608.992-1.056s.368-.9493.368-1.504c0-.5653-.123-1.072-.368-1.52s-.576-.7947-.992-1.04c-.405-.256-.853-.384-1.344-.384-.469 0-.907.128-1.312.384-.405.2453-.731.592-.976 1.04-.235.448-.352.9547-.352 1.52 0 .5547.117 1.056.352 1.504.245.448.571.8.976 1.056s.843.384 1.312.384z" fill-rule="evenodd"/><path d="m111.93 39h1.088v-4.16c0-.4907.106-.9333.32-1.328.224-.3947.522-.704.896-.928.373-.224.784-.336 1.232-.336.149 0 .298.0107.448.032v-1.12h-.352c-.576 0-1.094.1387-1.552.416-.448.2773-.774.592-.976.944h-.016v-1.2h-1.088z"/><path clip-rule="evenodd" d="m106.879 31.16c.587 0 1.104.128 1.552.384.459.256.816.6133 1.072 1.072.256.448.384.9653.384 1.552v4.832h-1.04v-1.232h-.016c-.203.352-.544.672-1.024.96s-1.029.432-1.648.432c-.501 0-.949-.1013-1.344-.304-.384-.2027-.688-.4693-.912-.8-.213-.3413-.32-.704-.32-1.088 0-.6187.213-1.136.64-1.552.427-.4267 1.029-.704 1.808-.832l2.784-.464v-.016c0-.576-.181-1.04-.544-1.392-.352-.352-.816-.528-1.392-.528-.448 0-.843.1013-1.184.304-.331.192-.651.448-.96.768l-.72-.688c.32-.3947.725-.7253 1.216-.992.491-.2773 1.04-.416 1.648-.416zm-.608 7.008c.469 0 .896-.112 1.28-.336.395-.224.704-.528.928-.912.224-.3947.336-.832.336-1.312v-.544l-2.528.416c-.544.096-.949.2667-1.216.512s-.4.5493-.4.912c0 .352.144.6507.432.896.299.2453.688.368 1.168.368z" fill-rule="evenodd"/><path d="m94.5801 39h1.056l1.888-5.92h.032l1.904 5.92h1.0559l2.624-7.68h-1.104l-2.032 6.128h-.0319l-1.968-6.128h-.864l-1.968 6.096h-.032l-2.032-6.096h-1.152z"/><path clip-rule="evenodd" d="m87.9107 39.16c-.6933 0-1.3333-.176-1.92-.528-.5867-.3627-1.056-.848-1.408-1.456s-.528-1.28-.528-2.016c0-.7467.1707-1.424.512-2.032s.8-1.088 1.376-1.44 1.2053-.528 1.888-.528c.672 0 1.28.1653 1.824.496.5547.3307.992.7947 1.312 1.392s.48 1.2693.48 2.016c0 .1707-.0107.3413-.032.512h-6.24c.0533.4693.208.896.464 1.28s.5813.688.976.912c.4053.224.848.336 1.328.336.8853 0 1.6693-.384 2.352-1.152l.752.688c-.3413.4267-.7733.7893-1.296 1.088-.5227.288-1.136.432-1.84.432zm2.432-4.528c-.096-.7467-.368-1.3387-.816-1.776-.448-.448-1.0133-.672-1.696-.672-.448 0-.8693.112-1.264.336-.384.2133-.704.5067-.96.88-.2453.3733-.3947.784-.448 1.232z" fill-rule="evenodd"/><path clip-rule="evenodd" d="m81.608 39h1.344l-2.624-4.64c.704-.224 1.264-.624 1.68-1.2.4267-.576.64-1.2373.64-1.984 0-.6293-.1546-1.2-.464-1.712-.2986-.512-.72-.9173-1.264-1.216s-1.152-.448-1.824-.448h-4.4v11.2h1.2v-4.448h3.216zm-5.712-5.568v-4.496h3.2c.6934 0 1.2587.2133 1.696.64.4374.416.656.9493.656 1.6 0 .6613-.2186 1.2053-.656 1.632-.4266.416-.992.624-1.696.624z" fill-rule="evenodd"/></g><path d="m17.339 35.8203c-1.8979 0-3.0403-1.0502-3.0403-2.9665v-7.8496h8.7708v10.8161z" fill="#1565c0"/><path d="m30.6058 35.8203h-5.7121v-10.8161h8.7524v7.8496c0 1.9163-1.124 2.9665-3.0403 2.9665z" fill="#1565c0"/><path d="m14.4277 23.8065c-1.2162 0-1.9163-.5528-1.9163-1.7689v-2.8376c0-1.1977.737-1.7689 1.9163-1.7689h3.1139c-.7554-.6449-1.1976-1.5662-1.1976-2.6718 0-2.2295 1.7136-3.7958 3.9431-3.7958 1.7137 0 3.0956.9582 3.6853 2.635.5896-1.6768 1.9715-2.635 3.6852-2.635 2.2295 0 3.9432 1.5663 3.9432 3.7958 0 1.1056-.4423 2.0269-1.1977 2.6718h3.114c1.253 0 1.9163.5712 1.9163 1.7689v2.8376c0 1.2161-.6633 1.7689-1.9163 1.7689h-8.6234v-6.3754h1.732c1.9716 0 3.1693-1.1609 3.1693-2.5981 0-1.2714-.9213-2.0637-2.2296-2.0637-1.5293 0-2.6717 1.1793-2.6717 3.0587v1.6031h-1.8242v-1.6031c0-1.8794-1.1425-3.0587-2.6902-3.0587-1.2899 0-2.2296.7923-2.2296 2.0637 0 1.4372 1.1977 2.5981 3.1877 2.5981h1.7321v6.3754z" fill="#1565c0"/><path clip-rule="evenodd" d="m48 24.0092c0 13.1194-10.8714 23.9908-24.0092 23.9908-13.1194 0-23.9908-10.8714-23.9908-23.9908 0-13.1378 10.853-24.0092 23.9724-24.0092 13.1377 0 24.0276 10.8714 24.0276 24.0092zm-44.55432 0c0 11.3873 9.15772 20.5635 20.54512 20.5635 11.4057 0 20.5635-9.1762 20.5635-20.5635 0-11.4058-9.1762-20.56353-20.5819-20.56353-11.3874 0-20.52672 9.15773-20.52672 20.56353z" fill="#1565c0" fill-rule="evenodd"/></svg>