<svg fill="none" height="48" viewBox="0 0 163 48" width="163" xmlns="http://www.w3.org/2000/svg"><g fill="#fff"><path d="m14.4277 23.7882c-1.2162 0-1.9163-.5523-1.9163-1.7675v-2.8354c0-1.1968.737-1.7676 1.9163-1.7676h3.114c-.7555-.6444-1.1977-1.565-1.1977-2.6697 0-2.2279 1.7136-3.7929 3.9431-3.7929 1.7137 0 3.0957.9575 3.6853 2.6329.5896-1.6754 1.9715-2.6329 3.6852-2.6329 2.2295 0 3.9432 1.565 3.9432 3.7929 0 1.1047-.4423 2.0253-1.1977 2.6697h3.114c1.253 0 1.9163.5708 1.9163 1.7676v2.8354c0 1.2152-.6633 1.7675-1.9163 1.7675h-8.6234v-6.3705h1.732c1.9716 0 3.1693-1.1599 3.1693-2.5961 0-1.2704-.9213-2.0621-2.2296-2.0621-1.5293 0-2.6717 1.1784-2.6717 3.0564v1.6018h-1.8242v-1.6018c0-1.878-1.1425-3.0564-2.6902-3.0564-1.2899 0-2.2296.7917-2.2296 2.0621 0 1.4362 1.1977 2.5961 3.1877 2.5961h1.7321v6.3705z"/><path d="m14.2986 32.8286c0 1.9148 1.1424 2.9642 3.0404 2.9642h5.7305v-10.8078h-8.7709z"/><path d="m24.8937 35.7928h5.7121c1.9163 0 3.0403-1.0494 3.0403-2.9642v-7.8436h-8.7524z"/><path clip-rule="evenodd" d="m23.9908 47.9632c13.1378 0 24.0092-10.8631 24.0092-23.9724 0-13.1278-10.8899-23.9908-24.0276-23.9908-13.1194 0-23.9724 10.863-23.9724 23.9908 0 13.1093 10.8714 23.9724 23.9908 23.9724zm0-3.4247c-11.3874 0-20.54512-9.1692-20.54512-20.5477 0-11.397 9.13932-20.54778 20.52672-20.54778 11.4057 0 20.5819 9.15078 20.5819 20.54778 0 11.3785-9.1578 20.5477-20.5635 20.5477z" fill-rule="evenodd"/><path d="m60 0h1v48h-1z"/><path clip-rule="evenodd" d="m74.8 8v14h3v-4.6h2.96c.9467 0 1.7934-.2067 2.54-.62.7601-.4133 1.3467-.9733 1.7601-1.68.4266-.72.6399-1.52.6399-2.4s-.2133-1.6733-.6399-2.38c-.4134-.71999-1-1.28667-1.7601-1.7-.7466-.41333-1.5933-.62-2.54-.62zm7.3 6.12c-.3866.3867-.8666.58-1.44.58h-2.86v-4h2.86c.5734 0 1.0534.2 1.44.6.4001.3867.6.8533.6 1.4s-.1999 1.02-.6 1.42z" fill-rule="evenodd"/><path d="m87.2008 22v-14h2.7v5.68h.06c.24-.4.6133-.76 1.12-1.08.52-.3333 1.1134-.5 1.78-.5.7067 0 1.3334.1667 1.88.5.5467.3333.9733.8133 1.28 1.44.32.6133.48 1.3467.48 2.2v5.76h-2.7v-5.4c0-.6-.1666-1.0733-.5-1.42-.3333-.36-.7667-.54-1.3-.54-.6133 0-1.12.2133-1.52.64-.3867.4133-.58.9533-.58 1.62v5.1z"/><path clip-rule="evenodd" d="m102.395 12.1c.827 0 1.56.1733 2.2.52.654.3333 1.16.7933 1.52 1.38.36.5733.54 1.2067.54 1.9v6.1h-2.56v-1.34h-.06c-.24.3867-.62.74-1.14 1.06s-1.113.48-1.78.48c-.613 0-1.1664-.1267-1.6597-.38-.48-.2533-.86-.5933-1.14-1.02-.28-.44-.42-.9067-.42-1.4 0-.8267.26-1.5067.78-2.04s1.26-.8933 2.2197-1.08l3.06-.58c-.026-.3866-.2-.7133-.52-.98-.306-.28-.7-.42-1.18-.42-.826 0-1.58.38-2.2597 1.14l-1.54-1.48c.4266-.5067.9733-.94 1.6397-1.3.68-.3733 1.447-.56 2.3-.56zm-.5 7.94c.587 0 1.074-.2067 1.46-.62.4-.4133.6-.9533.6-1.62v-.32l-2.1.42c-.373.0667-.666.2067-.88.42-.213.2-.32.4267-.32.68 0 .3067.107.56.32.76.227.1867.534.28.92.28z" fill-rule="evenodd"/><path d="m108.659 22v-9.7h2.7v1.2h.06c.24-.36.6-.68 1.08-.96.494-.2933 1.047-.44 1.66-.44h.46v2.9c-.32-.1067-.62-.16-.9-.16-.693 0-1.26.24-1.7.72-.44.4667-.66 1.0934-.66 1.88v4.56z"/><path d="m115.816 22v-9.7h2.7v1.38h.06c.186-.4.52-.76 1-1.08.48-.3333 1.046-.5 1.7-.5.666 0 1.246.1733 1.74.52.493.3333.84.7067 1.04 1.12h.08c.226-.4133.633-.7867 1.22-1.12.6-.3467 1.286-.52 2.06-.52.626 0 1.193.1667 1.7.5.52.3333.933.8133 1.24 1.44.306.6267.46 1.36.46 2.2v5.76h-2.7v-5.5c0-.5867-.154-1.04-.46-1.36-.294-.3333-.674-.5-1.14-.5-.534 0-.974.1933-1.32.58-.347.3867-.52.9133-.52 1.58v5.2h-2.7v-5.5c0-.5867-.154-1.04-.46-1.36-.294-.3333-.674-.5-1.14-.5-.547 0-.994.1933-1.34.58-.347.3867-.52.9133-.52 1.58v5.2z"/><path clip-rule="evenodd" d="m136.716 12.1c.826 0 1.56.1733 2.2.52.653.3333 1.16.7933 1.52 1.38.36.5733.54 1.2067.54 1.9v6.1h-2.56v-1.34h-.06c-.24.3867-.62.74-1.14 1.06s-1.114.48-1.78.48c-.614 0-1.167-.1267-1.66-.38-.48-.2533-.86-.5933-1.14-1.02-.28-.44-.42-.9067-.42-1.4 0-.8267.26-1.5067.78-2.04s1.26-.8933 2.22-1.08l3.06-.58c-.027-.3866-.2-.7133-.52-.98-.307-.28-.7-.42-1.18-.42-.827 0-1.58.38-2.26 1.14l-1.54-1.48c.426-.5067.973-.94 1.64-1.3.68-.3733 1.446-.56 2.3-.56zm-.5 7.94c.586 0 1.073-.2067 1.46-.62.4-.4133.6-.9533.6-1.62v-.32l-2.1.42c-.374.0667-.667.2067-.88.42-.214.2-.32.4267-.32.68 0 .3067.106.56.32.76.226.1867.533.28.92.28z" fill-rule="evenodd"/><path clip-rule="evenodd" d="m157.334 22.2c-.96 0-1.84-.2267-2.64-.68-.787-.4533-1.414-1.0667-1.88-1.84-.454-.7733-.68-1.62-.68-2.54s.226-1.7666.68-2.54c.466-.7733 1.093-1.38 1.88-1.82.8-.4533 1.68-.68 2.64-.68.973 0 1.853.2267 2.64.68.8.44 1.426 1.0467 1.88 1.82.453.7734.68 1.62.68 2.54s-.227 1.7667-.68 2.54c-.454.7733-1.08 1.3867-1.88 1.84-.787.4533-1.667.68-2.64.68zm0-2.5c.68 0 1.26-.2467 1.74-.74s.72-1.1.72-1.82-.24-1.32-.72-1.8c-.48-.4933-1.06-.74-1.74-.74s-1.26.2467-1.74.74c-.467.48-.7 1.08-.7 1.8s.233 1.3267.7 1.82c.48.4933 1.06.74 1.74.74z" fill-rule="evenodd"/><path d="m141.784 22h3.02l2.02-3.28h.06l2.02 3.28h3.12l-3.32-5 3.08-4.7h-3.02l-1.78 2.96h-.06l-1.76-2.96h-3.12l3.08 4.7z"/><path d="m126.674 38.744c.512.2773 1.072.416 1.68.416.565 0 1.061-.1067 1.488-.32s.752-.496.976-.848c.235-.3627.352-.7573.352-1.184 0-.4693-.123-.848-.368-1.136-.235-.288-.523-.5067-.864-.656-.331-.16-.763-.32-1.296-.48-.587-.1707-1.024-.336-1.312-.496-.277-.1707-.416-.416-.416-.736 0-.3093.133-.5707.4-.784.277-.224.651-.336 1.12-.336.683 0 1.285.2613 1.808.784l.736-.72c-.288-.2987-.645-.5547-1.072-.768s-.917-.32-1.472-.32c-.501 0-.955.1014-1.36.304-.395.2027-.704.4693-.928.8-.213.32-.32.6667-.32 1.04 0 .448.117.816.352 1.104s.517.5067.848.656c.341.1493.779.3094 1.312.48.597.1707 1.04.3413 1.328.512s.432.4213.432.752c0 .384-.155.704-.464.96-.299.2453-.72.368-1.264.368-.437 0-.848-.1067-1.232-.32s-.683-.4533-.896-.72l-.736.72c.267.3413.656.6507 1.168.928z"/><path clip-rule="evenodd" d="m118.216 38.648c.555.3413 1.152.512 1.792.512.651 0 1.226-.1493 1.728-.448.501-.3094.858-.656 1.072-1.04h.032v1.328h1.072v-11.2h-1.072v4.848h-.032c-.214-.384-.571-.7253-1.072-1.024-.502-.3093-1.077-.464-1.728-.464-.64 0-1.237.176-1.792.528-.544.3413-.982.816-1.312 1.424-.331.608-.496 1.2906-.496 2.048 0 .7573.165 1.44.496 2.048.33.608.768 1.088 1.312 1.44zm3.264-.928c-.405.256-.853.384-1.344.384-.469 0-.907-.128-1.312-.384s-.731-.608-.976-1.056c-.235-.448-.352-.9493-.352-1.504 0-.5653.117-1.072.352-1.52.245-.448.571-.7947.976-1.04.405-.256.843-.384 1.312-.384.491 0 .939.128 1.344.384.416.2453.747.592.992 1.04s.368.9547.368 1.52c0 .5547-.123 1.056-.368 1.504s-.576.8-.992 1.056z" fill-rule="evenodd"/><path d="m111.93 39h1.088v-4.16c0-.4907.106-.9333.32-1.328.224-.3947.522-.704.896-.928.373-.224.784-.336 1.232-.336.149 0 .298.0107.448.032v-1.12h-.352c-.576 0-1.094.1387-1.552.416-.448.2773-.774.592-.976.944h-.016v-1.2h-1.088z"/><path clip-rule="evenodd" d="m108.431 31.544c-.448-.256-.965-.384-1.552-.384-.608 0-1.157.1387-1.648.416-.491.2667-.896.5973-1.216.992l.72.688c.309-.32.629-.576.96-.768.341-.2027.736-.304 1.184-.304.576 0 1.04.176 1.392.528.363.352.544.816.544 1.392v.016l-2.784.464c-.779.128-1.381.4053-1.808.832-.427.416-.64.9333-.64 1.552 0 .384.107.7467.32 1.088.224.3307.528.5974.912.8.395.2027.843.304 1.344.304.619 0 1.168-.144 1.648-.432s.821-.608 1.024-.96h.016v1.232h1.04v-4.832c0-.5867-.128-1.104-.384-1.552-.256-.4587-.613-.816-1.072-1.072zm-.88 6.288c-.384.224-.811.336-1.28.336-.48 0-.869-.1227-1.168-.368-.288-.2453-.432-.544-.432-.896 0-.3627.133-.6667.4-.912s.672-.416 1.216-.512l2.528-.416v.544c0 .48-.112.9173-.336 1.312-.224.384-.533.688-.928.912z" fill-rule="evenodd"/><path d="m94.58 39h1.056l1.888-5.92h.0321l1.904 5.92h1.0559l2.624-7.68h-1.104l-2.032 6.128h-.032l-1.9679-6.128h-.8641l-1.9679 6.096h-.0321l-2.0319-6.096h-1.152z"/><g clip-rule="evenodd" fill-rule="evenodd"><path d="m85.9907 38.632c.5867.352 1.2266.528 1.92.528.704 0 1.3173-.144 1.84-.432.5226-.2987.9547-.6613 1.296-1.088l-.752-.688c-.6827.768-1.4667 1.152-2.352 1.152-.48 0-.9227-.112-1.328-.336-.3947-.224-.72-.528-.976-.912s-.4107-.8107-.464-1.28h6.24c.0213-.1707.032-.3413.032-.512 0-.7467-.16-1.4187-.48-2.016s-.7573-1.0613-1.312-1.392c-.544-.3307-1.152-.496-1.824-.496-.6827 0-1.312.176-1.888.528s-1.0347.832-1.376 1.44c-.3414.608-.512 1.2853-.512 2.032 0 .736.176 1.408.528 2.016s.8213 1.0933 1.408 1.456zm3.536-5.776c.448.4373.72 1.0293.816 1.776h-5.184c.0533-.448.2027-.8587.448-1.232.256-.3733.576-.6667.96-.88.3947-.224.816-.336 1.264-.336.6827 0 1.248.224 1.696.672z"/><path d="m81.608 39h1.3441l-2.6241-4.64c.704-.224 1.264-.624 1.6801-1.2.4266-.576.6399-1.2373.6399-1.984 0-.6293-.1546-1.2-.4639-1.712-.2987-.512-.72-.9173-1.2641-1.216-.544-.2987-1.152-.448-1.824-.448h-4.4v11.2h1.2001v-4.448h3.216zm-5.7119-5.568v-4.496h3.1999c.6934 0 1.2587.2133 1.6961.64.4373.416.656.9493.656 1.6 0 .6613-.2187 1.2053-.656 1.632-.4267.416-.9921.624-1.6961.624z"/></g></g></svg>