<svg fill="none" height="24" viewBox="0 0 204 24" width="204" xmlns="http://www.w3.org/2000/svg"><path d="m8.66949 17.9102c-.94896 0-1.52016-.5252-1.52016-1.4833v-3.9248h4.38547v5.4081z" fill="#1565c0"/><path d="m15.3029 17.9102h-2.8561v-5.4081h4.3762v3.9248c0 .9581-.562 1.4833-1.5201 1.4833z" fill="#1565c0"/><path d="m7.21383 11.9032c-.60807 0-.95815-.2763-.95815-.8844v-1.4188c0-.59886.36852-.88445.95815-.88445h1.55699c-.37772-.32245-.59883-.7831-.59883-1.33591 0-1.11476.85682-1.89788 1.97161-1.89788.8568 0 1.5478.4791 1.8426 1.31748.2948-.83838.9858-1.31748 1.8426-1.31748 1.1148 0 1.9716.78312 1.9716 1.89788 0 .55281-.2211 1.01346-.5989 1.33591h1.557c.6265 0 .9582.28559.9582.88445v1.4188c0 .6081-.3317.8844-.9582.8844h-4.3117v-3.18765h.8661c.9858 0 1.5846-.58043 1.5846-1.29905 0-.63569-.4606-1.03186-1.1148-1.03186-.7647 0-1.3359.58964-1.3359 1.52936v.80155h-.912v-.80155c0-.93972-.5713-1.52936-1.3452-1.52936-.6449 0-1.11476.39617-1.11476 1.03186 0 .71862.59887 1.29905 1.59386 1.29905h.8661v3.18765z" fill="#1565c0"/><path clip-rule="evenodd" d="m24 12.0046c0 6.5597-5.4357 11.9954-12.0046 11.9954-6.55971 0-11.9954-5.4357-11.9954-11.9954 0-6.56891 5.42649-12.0046 11.9862-12.0046 6.5689 0 12.0138 5.43569 12.0138 12.0046zm-22.27716 0c0 5.6936 4.57887 10.2818 10.27256 10.2818 5.7029 0 10.2818-4.5882 10.2818-10.2818 0-5.70289-4.5881-10.28177-10.291-10.28177-5.69369 0-10.26336 4.57888-10.26336 10.28177z" fill="#1565c0" fill-rule="evenodd"/><path d="m30 0h1v24h-1z" fill="#e0e0e0"/><g fill="#212121"><path d="m38.8 18v-14h5.96c.9467 0 1.7933.20667 2.54.62.76.41333 1.3467.98 1.76 1.7.4267.70667.64 1.5.64 2.38s-.2133 1.68-.64 2.4c-.4133.7067-1 1.2667-1.76 1.68-.7467.4133-1.5933.62-2.54.62h-2.96v4.6zm5.86-7.3c.5733 0 1.0533-.1933 1.44-.58.4-.4.6-.87333.6-1.42s-.2-1.01333-.6-1.4c-.3867-.4-.8667-.6-1.44-.6h-2.86v4z"/><path d="m51.2008 18v-14h2.7v5.68h.06c.24-.4.6133-.76 1.12-1.08.52-.33333 1.1133-.5 1.78-.5.7067 0 1.3333.16667 1.88.5s.9733.81333 1.28 1.44c.32.6133.48 1.3467.48 2.2v5.76h-2.7v-5.4c0-.6-.1667-1.0733-.5-1.42-.3333-.36-.7667-.54-1.3-.54-.6133 0-1.12.2133-1.52.64-.3867.4133-.58.9533-.58 1.62v5.1z"/><path d="m66.3953 8.1c.8267 0 1.56.17333 2.2.52.6533.33333 1.16.79333 1.52 1.38.36.5733.54 1.2067.54 1.9v6.1h-2.56v-1.34h-.06c-.24.3867-.62.74-1.14 1.06s-1.1133.48-1.78.48c-.6133 0-1.1667-.1267-1.66-.38-.48-.2533-.86-.5933-1.14-1.02-.28-.44-.42-.9067-.42-1.4 0-.8267.26-1.5067.78-2.04s1.26-.8933 2.22-1.08l3.06-.58c-.0267-.3867-.2-.7133-.52-.98-.3067-.28-.7-.42-1.18-.42-.8267 0-1.58.38-2.26 1.14l-1.54-1.48c.4267-.50667.9733-.94 1.64-1.3.68-.37333 1.4467-.56 2.3-.56zm-.5 7.94c.5867 0 1.0733-.2067 1.46-.62.4-.4133.6-.9533.6-1.62v-.32l-2.1.42c-.3733.0667-.6667.2067-.88.42-.2133.2-.32.4267-.32.68 0 .3067.1067.56.32.76.2267.1867.5333.28.92.28z"/><path d="m72.6594 18v-9.7h2.7v1.2h.06c.24-.36.6-.68 1.08-.96.4933-.29333 1.0466-.44 1.66-.44h.46v2.9c-.32-.1067-.62-.16-.9-.16-.6934 0-1.26.24-1.7.72-.44.4667-.66 1.0933-.66 1.88v4.56z"/><path d="m79.8156 18v-9.7h2.7v1.38h.06c.1867-.4.52-.76 1-1.08.48-.33333 1.0467-.5 1.7-.5.6667 0 1.2467.17333 1.74.52.4934.33333.84.70667 1.04 1.12h.08c.2267-.41333.6334-.78667 1.22-1.12.6-.34667 1.2867-.52 2.06-.52.6267 0 1.1934.16667 1.7.5.52.33333.9334.81333 1.24 1.44.3067.6267.46 1.36.46 2.2v5.76h-2.7v-5.5c0-.5867-.1533-1.04-.46-1.36-.2933-.3333-.6733-.5-1.14-.5-.5333 0-.9733.1933-1.32.58-.3466.3867-.52.9133-.52 1.58v5.2h-2.7v-5.5c0-.5867-.1533-1.04-.46-1.36-.2933-.3333-.6733-.5-1.14-.5-.5466 0-.9933.1933-1.34.58-.3466.3867-.52.9133-.52 1.58v5.2z"/><path d="m100.716 8.1c.826 0 1.56.17333 2.2.52.653.33333 1.16.79333 1.52 1.38.36.5733.54 1.2067.54 1.9v6.1h-2.56v-1.34h-.06c-.24.3867-.62.74-1.14 1.06s-1.114.48-1.7804.48c-.6133 0-1.1666-.1267-1.66-.38-.48-.2533-.86-.5933-1.14-1.02-.28-.44-.42-.9067-.42-1.4 0-.8267.26-1.5067.78-2.04s1.26-.8933 2.22-1.08l3.0604-.58c-.027-.3867-.2-.7133-.52-.98-.307-.28-.7-.42-1.18-.42-.827 0-1.5804.38-2.2604 1.14l-1.54-1.48c.4267-.50667.9734-.94 1.64-1.3.68-.37333 1.4467-.56 2.3004-.56zm-.5 7.94c.586 0 1.073-.2067 1.46-.62.4-.4133.6-.9533.6-1.62v-.32l-2.1.42c-.3737.0667-.667.2067-.8804.42-.2133.2-.32.4267-.32.68 0 .3067.1067.56.32.76.2267.1867.5334.28.9204.28z"/><path d="m108.804 18h-3.02l3.34-5-3.08-4.7h3.12l1.76 2.96h.06l1.78-2.96h3.02l-3.08 4.7 3.32 5h-3.12l-2.02-3.28h-.06z"/><path d="m121.334 18.2c-.96 0-1.84-.2267-2.64-.68-.787-.4533-1.414-1.0667-1.88-1.84-.454-.7733-.68-1.62-.68-2.54s.226-1.7667.68-2.54c.466-.77333 1.093-1.38 1.88-1.82.8-.45333 1.68-.68 2.64-.68.973 0 1.853.22667 2.64.68.8.44 1.426 1.04667 1.88 1.82.453.7733.68 1.62.68 2.54s-.227 1.7667-.68 2.54c-.454.7733-1.08 1.3867-1.88 1.84-.787.4533-1.667.68-2.64.68zm0-2.5c.68 0 1.26-.2467 1.74-.74s.72-1.1.72-1.82-.24-1.32-.72-1.8c-.48-.4933-1.06-.74-1.74-.74s-1.26.2467-1.74.74c-.467.48-.7 1.08-.7 1.8s.233 1.3267.7 1.82c.48.4933 1.06.74 1.74.74z"/><path d="m143.28 18h-1.68l-3.12-5.56h-4.02v5.56h-1.5v-14h5.5c.84 0 1.6.18667 2.28.56s1.207.88 1.58 1.52c.387.64.58 1.35333.58 2.14 0 .93333-.267 1.76-.8 2.48-.52.72-1.22 1.22-2.1 1.5zm-8.82-12.58v5.62h4c.88 0 1.587-.26 2.12-.78.547-.53333.82-1.21333.82-2.04 0-.81333-.273-1.48-.82-2-.547-.53333-1.253-.8-2.12-.8z"/><path d="m149.478 18.2c-.866 0-1.666-.22-2.4-.66-.733-.4533-1.32-1.06-1.76-1.82s-.66-1.6-.66-2.52c0-.9333.214-1.78.64-2.54.427-.76 1-1.36 1.72-1.8s1.507-.66 2.36-.66c.84 0 1.6.20667 2.28.62.694.41333 1.24.99333 1.64 1.74.4.7467.6 1.5867.6 2.52 0 .2133-.013.4267-.04.64h-7.8c.067.5867.26 1.12.58 1.6s.727.86 1.22 1.14c.507.28 1.06.42 1.66.42 1.107 0 2.087-.48 2.94-1.44l.94.86c-.426.5333-.966.9867-1.62 1.36-.653.36-1.42.54-2.3.54zm3.04-5.66c-.12-.9333-.46-1.6733-1.02-2.22-.56-.56-1.266-.84-2.12-.84-.56 0-1.086.14-1.58.42-.48.2667-.88.6333-1.2 1.1-.306.4667-.493.98-.56 1.54z"/><path d="m159.135 18h-1.32l-3.28-9.6h1.44l2.54 7.62h.04l2.46-7.62h1.08l2.46 7.66h.04l2.54-7.66h1.38l-3.28 9.6h-1.32l-2.38-7.4h-.04z"/><path d="m173.188 8.2c.734 0 1.38.16 1.94.48.574.32 1.02.76667 1.34 1.34.32.56.48 1.2067.48 1.94v6.04h-1.3v-1.54h-.02c-.253.44-.68.84-1.28 1.2s-1.286.54-2.06.54c-.626 0-1.186-.1267-1.68-.38-.48-.2533-.86-.5867-1.14-1-.266-.4267-.4-.88-.4-1.36 0-.7733.267-1.42.8-1.94.534-.5333 1.287-.88 2.26-1.04l3.48-.58v-.02c0-.72-.226-1.3-.68-1.74-.44-.44-1.02-.66-1.74-.66-.56 0-1.053.12667-1.48.38-.413.24-.813.56-1.2.96l-.9-.86c.4-.49333.907-.90667 1.52-1.24.614-.34667 1.3-.52 2.06-.52zm-.76 8.76c.587 0 1.12-.14 1.6-.42.494-.28.88-.66 1.16-1.14.28-.4933.42-1.04.42-1.64v-.68l-3.16.52c-.68.12-1.186.3333-1.52.64-.333.3067-.5.6867-.5 1.14 0 .44.18.8133.54 1.12.374.3067.86.46 1.46.46z"/><path d="m179.502 18v-9.6h1.36v1.5h.02c.253-.44.66-.83333 1.22-1.18.573-.34667 1.22-.52 1.94-.52h.44v1.4c-.187-.02667-.373-.04-.56-.04-.56 0-1.073.14-1.54.42s-.84.6667-1.12 1.16c-.267.4933-.4 1.0467-.4 1.66v5.2z"/><path d="m189.6 18.2c-.8 0-1.547-.2133-2.24-.64-.68-.44-1.227-1.04-1.64-1.8-.414-.76-.62-1.6133-.62-2.56s.206-1.8.62-2.56c.413-.76.96-1.35333 1.64-1.78.693-.44 1.44-.66 2.24-.66.813 0 1.533.19333 2.16.58.626.37333 1.073.8 1.34 1.28h.04v-6.06h1.34v14h-1.34v-1.66h-.04c-.267.48-.714.9133-1.34 1.3-.627.3733-1.347.56-2.16.56zm.16-1.32c.613 0 1.173-.16 1.68-.48.52-.32.933-.76 1.24-1.32.306-.56.46-1.1867.46-1.88 0-.7067-.154-1.34-.46-1.9-.307-.56-.72-.9933-1.24-1.3-.507-.32-1.067-.48-1.68-.48-.587 0-1.134.16-1.64.48-.507.3067-.914.74-1.22 1.3-.294.56-.44 1.1933-.44 1.9 0 .6933.146 1.32.44 1.88.306.56.713 1 1.22 1.32.506.32 1.053.48 1.64.48z"/><path d="m200.032 18.2c-.76 0-1.46-.1733-2.1-.52s-1.126-.7333-1.46-1.16l.92-.9c.267.3333.64.6333 1.12.9s.994.4 1.54.4c.68 0 1.207-.1533 1.58-.46.387-.32.58-.72.58-1.2 0-.4133-.18-.7267-.54-.94s-.913-.4267-1.66-.64c-.666-.2133-1.213-.4133-1.64-.6-.413-.1867-.766-.46-1.06-.82-.293-.36-.44-.82-.44-1.38 0-.4667.134-.9.4-1.3.28-.41333.667-.74667 1.16-1 .507-.25333 1.074-.38 1.7-.38.694 0 1.307.13333 1.84.4.534.26667.98.58667 1.34.96l-.92.9c-.653-.65333-1.406-.98-2.26-.98-.586 0-1.053.14-1.4.42-.333.2667-.5.5933-.5.98 0 .4.174.7067.52.92.36.2.907.4067 1.64.62.667.2 1.207.4 1.62.6.427.1867.787.46 1.08.82.307.36.46.8333.46 1.42 0 .5333-.146 1.0267-.44 1.48-.28.44-.686.7933-1.22 1.06-.533.2667-1.153.4-1.86.4z"/></g></svg>