<svg fill="none" height="48" viewBox="0 0 48 48" width="48" xmlns="http://www.w3.org/2000/svg"><path clip-rule="evenodd" d="m48 23.9998c0 4.3713-1.1746 8.4657-3.2165 11.9961l3.2165 12.0041-12.0038-3.2162c-3.53 2.0416-7.6248 3.2162-11.9962 3.2162-13.2547 0-24-10.7455-24-24.0002 0-13.2548 10.7453-23.9998 24-23.9998 13.255 0 24 10.745 24 23.9998zm-12.5446-.6578 4.3997-4.4999c.8599-.8793.8599-2.3023 0-3.1816-.86-.8793-2.2516-.8796-3.1109-.0007l-4.0114 4.1027-1.289-1.3181c.9072-.9277 1.8897-1.9324 2.6553-2.7154.7951-.813 1.3562-1.3868 1.3561-1.3868.8598-.8793.8598-2.3022 0-3.1816-.8601-.8793-2.2516-.8796-3.111-.0005l-6.591 6.741c-.1068.108-.2028.2268-.2861.3554-.0051.0077-.0096.0159-.0143.0238-.0725.1147-.1356.2357-.187.3633-.0026.0063-.0047.0127-.0068.019-.002.0057-.0039.0114-.0061.017-.047.1224-.085.2494-.1108.3814-.0012.0061-.0019.0123-.0027.0185-.0007.0061-.0015.0123-.0027.0184-.0223.1263-.0354.2559-.0364.3886l-.0002 1.7011-2.2004-.0003v-1.7018c-.001-.1327-.0141-.2623-.0367-.3885-.0009-.0056-.0016-.0112-.0024-.0169-.0008-.0067-.0017-.0134-.0029-.0201-.0256-.132-.0636-.2587-.1106-.3813-.0022-.0056-.0041-.0113-.0061-.0171-.0021-.0063-.0042-.0126-.0068-.0189-.0514-.1277-.1145-.2487-.187-.3631-.0021-.0034-.004-.0068-.006-.0102-.0027-.0047-.0053-.0094-.0083-.0138-.0833-.1284-.1793-.2475-.2861-.3555l-6.5913-6.7409c-.8593-.8791-2.2506-.8789-3.1107.0005-.8598.8793-.8598 2.3025 0 3.1816-.0001 0 .8491.8684 1.9383 1.9824.6488.6634 1.3826 1.4139 2.0729 2.1198l-1.2888 1.3183-4.0116-4.103c-.8594-.8788-2.25069-.8786-3.11074.0007-.85981.8794-.85981 2.3026 0 3.1817l4.39974 4.4999c.86.879 2.2516.879 3.1117 0 .7244-.7414.8307-1.8655.3339-2.7278l1.3437-1.3742c.1574.1609.309.316.453.4633.2685.2744.5103.5217.7128.729l-.0002 14.8179c.0002 1.2434.9841 2.25 2.2004 2.25 1.216 0 2.1998-1.0066 2.2002-2.25-.0001 0-.0001-3.6751 0-7.4747 0-1.9471 0-3.9269 0-5.4614l2.2002.0002-.0002 12.9367c.0002 1.2434.984 2.2499 2.2 2.2499 1.2163 0 2.2002-1.0065 2.2002-2.2499v-14.818l1.1656-1.1921 1.3437 1.3742c-.4966.8626-.3905 1.9867.3342 2.7278.86.8796 2.2513.8796 3.1116 0z" fill="#fff" fill-rule="evenodd"/></svg>