<svg fill="none" height="48" viewBox="0 0 48 48" width="48" xmlns="http://www.w3.org/2000/svg"><path clip-rule="evenodd" d="m48 0h-48v48h48zm-13.6082 29.9979c1.0209-1.7651 1.6082-3.8124 1.6082-5.998 0-6.6273-5.3725-11.9999-12-11.9999-6.6273 0-12 5.3726-12 11.9999s5.3727 12.0001 12 12.0001c2.1857 0 4.2331-.5873 5.9981-1.6082l6.0019 1.6082zm-2.4642-7.8269-2.1999 2.25c-.4301.4398-1.1258.4398-1.5558 0-.3624-.3706-.4154-.9326-.1671-1.3639l-.6719-.6871-.5827.5961v7.4089c0 .6217-.492 1.125-1.1001 1.125s-1.0999-.5033-1.1001-1.125l.0002-6.4683-1.1001-.0001v6.468c-.0003.6217-.4921 1.125-1.1002 1.125s-1.1001-.5033-1.1002-1.125l.0001-7.4089-.5829-.5962-.6718.6871c.2484.4312.1952.9932-.167 1.3639-.43.4396-1.1258.4396-1.5558 0l-2.1999-2.25c-.4299-.4394-.4299-1.1511 0-1.5907.43-.4397 1.1257-.4398 1.5554-.0003l2.0058 2.0514.6444-.6591-2.0056-2.0511c-.4299-.4396-.4299-1.1512 0-1.5909.43-.4397 1.1257-.4398 1.5554-.0002l3.2956 3.3705c.0534.0539.1014.1135.143.1777l.0021.0033.0021.0037.003.005c.0362.0572.0678.1176.0935.1815.0013.0032.0024.0063.0034.0095l.0031.0086c.0234.0612.0424.1246.0552.1906.0007.0033.0011.0067.0015.01l.0012.0085c.0113.0631.0179.1279.0183.1943v.8508l1.1002.0002.0002-.8505c.0004-.0664.007-.1312.0182-.1943.0005-.0031.0009-.0062.0013-.0092.0004-.0032.0008-.0062.0013-.0093.013-.066.032-.1295.0554-.1907l.0031-.0085.0017-.0051.0017-.0044c.0257-.0639.0573-.1243.0935-.1817l.0033-.0056.0039-.0062c.0416-.0643.0896-.1238.143-.1777l3.2955-3.3705c.4297-.4396 1.1255-.4395 1.5555.0002.4299.4397.4299 1.1511 0 1.5908l-2.0057 2.0511.6445.659 2.0057-2.0514c.4297-.4393 1.1255-.4392 1.5555.0004.4299.4397.4299 1.1512 0 1.5908z" fill="#000" fill-rule="evenodd"/></svg>