<svg fill="none" height="48" viewBox="0 0 48 48" width="48" xmlns="http://www.w3.org/2000/svg"><g clip-rule="evenodd" fill-rule="evenodd"><path d="m44.7835 35.9959c2.0419-3.5304 3.2165-7.6248 3.2165-11.9961 0-13.2548-10.745-23.9998-24-23.9998-13.2547 0-24 10.745-24 23.9998 0 13.2547 10.7453 24.0002 24 24.0002 4.3714 0 8.4662-1.1746 11.9962-3.2162l12.0038 3.2162z" fill="#007bff"/><path d="m39.8551 18.8421-4.3997 4.4999c-.8603.8796-2.2516.8796-3.1116 0-.7247-.7411-.8308-1.8652-.3342-2.7278l-1.3437-1.3742c-.4508.4611-.8544.8738-1.1656 1.1921v14.818c0 1.2434-.9839 2.2499-2.2002 2.2499-1.216 0-2.1998-1.0065-2.2-2.2499 0 0 .0002-8.4083.0002-12.9367l-2.2002-.0002c0 4.5289-.0002 12.9361 0 12.9361-.0004 1.2434-.9842 2.25-2.2002 2.25-1.2163 0-2.2002-1.0066-2.2004-2.25 0 0 .0002-11.4379.0002-14.8179-.3112-.3185-.715-.7313-1.1658-1.1923l-1.3437 1.3742c.4968.8623.3905 1.9864-.3339 2.7278-.8601.8791-2.2517.8791-3.1117 0l-4.39974-4.4999c-.85981-.8791-.85981-2.3023 0-3.1817.86005-.8793 2.25134-.8795 3.11074-.0007l4.0116 4.103 1.2888-1.3183c-1.8492-1.8912-4.0114-4.1022-4.0112-4.1022-.8598-.8791-.8598-2.3023 0-3.1816.8601-.8794 2.2514-.8796 3.1107-.0005l6.5913 6.7409c.1068.108.2028.2271.2861.3555.0051.0076.0094.016.0143.024.0725.1144.1356.2354.187.3631.0049.012.0082.0242.0129.036.047.1226.085.2493.1106.3813.0023.0123.0032.0247.0053.037.0226.1262.0357.2558.0367.3885v1.7018l2.2004.0003.0002-1.7011c.001-.1327.0141-.2623.0364-.3886.0024-.0122.0031-.0247.0054-.0369.0258-.132.0638-.259.1108-.3814.0047-.0117.008-.024.0129-.036.0514-.1276.1145-.2486.187-.3633.0047-.0079.0092-.0161.0143-.0238.0833-.1286.1793-.2474.2861-.3554l6.591-6.741c.8594-.8791 2.2509-.8788 3.111.0005.8598.8794.8598 2.3023 0 3.1816.0002 0-2.1622 2.2111-4.0114 4.1022l1.289 1.3181 4.0114-4.1027c.8593-.8789 2.2509-.8786 3.1109.0007.8599.8793.8599 2.3023 0 3.1816z" fill="#fff"/></g></svg>