<svg fill="none" height="48" viewBox="0 0 48 48" width="48" xmlns="http://www.w3.org/2000/svg"><path d="m0 0h48v48h-48z" fill="#fff"/><g clip-rule="evenodd" fill-rule="evenodd"><path d="m34.3918 29.998c1.0209-1.7652 1.6082-3.8124 1.6082-5.9981 0-6.6274-5.3725-11.9999-12-11.9999-6.6274 0-12 5.3725-12 11.9999 0 6.6273 5.3726 12.0001 12 12.0001 2.1857 0 4.2331-.5873 5.9981-1.6081l6.0019 1.6081z" fill="#007bff"/><path d="m31.9276 22.1711-2.1999 2.2499c-.4301.4398-1.1258.4398-1.5558 0-.3623-.3705-.4154-.9326-.1671-1.3639l-.6719-.6871c-.2253.2305-.4272.4369-.5827.596v7.409c0 .6217-.492 1.125-1.1002 1.125-.608 0-1.0998-.5033-1.0999-1.125 0 0 .0001-4.2041.0001-6.4683l-1.1001-.0001c0 2.2644-.0002 6.4681 0 6.4681-.0003.6217-.4921 1.1249-1.1001 1.1249-.6082 0-1.1002-.5032-1.1003-1.1249 0 0 .0001-5.719.0001-7.409-.1555-.1593-.3575-.3657-.5829-.5962l-.6718.6871c.2484.4312.1952.9933-.167 1.3639-.43.4396-1.1258.4396-1.5558 0l-2.1999-2.2499c-.4299-.4396-.4299-1.1512 0-1.5908.4301-.4397 1.1257-.4398 1.5554-.0004l2.0058 2.0515.6444-.6592c-.9246-.9455-2.0057-2.0511-2.0056-2.0511-.4299-.4395-.4299-1.1511 0-1.5908.43-.4396 1.1257-.4398 1.5554-.0002l3.2956 3.3705c.0534.054.1014.1135.143.1777.0026.0038.0047.008.0072.012.0363.0572.0678.1177.0935.1815.0025.006.0041.0122.0065.018.0234.0614.0424.1247.0552.1907.0012.0061.0017.0124.0027.0185.0113.0631.0179.1279.0183.1943v.8509l1.1003.0001.0001-.8506c.0004-.0663.007-.1311.0182-.1942.0011-.0061.0015-.0124.0027-.0185.0129-.066.0319-.1295.0553-.1907.0024-.0059.004-.012.0065-.018.0257-.0638.0573-.1243.0935-.1817.0024-.0039.0046-.008.0072-.0118.0416-.0644.0896-.1238.143-.1778l3.2955-3.3704c.4297-.4396 1.1255-.4395 1.5555.0002.4299.4397.4299 1.1511 0 1.5908.0001 0-1.0811 1.1055-2.0057 2.0511l.6445.659 2.0057-2.0513c.4297-.4394 1.1254-.4393 1.5555.0004.4299.4396.4299 1.1511 0 1.5908z" fill="#fff"/></g></svg>