<svg fill="none" height="48" viewBox="0 0 242 48" width="242" xmlns="http://www.w3.org/2000/svg"><g fill="#fff"><path clip-rule="evenodd" d="m24 48c13.2548 0 24-10.7452 24-24s-10.7452-24-24-24-24 10.7452-24 24 10.7452 24 24 24zm-5.8288-19.9727c-.6635 0-1.2842-.3598-1.6195-.9379-.935-1.6171-1.4291-3.4578-1.4291-5.3232 0-5.8744 4.781-10.6537 10.6579-10.6537 1.0304 0 1.8692.8415 1.8692 1.8757 0 1.0346-.8411 1.8761-1.875 1.8761-3.8061 0-6.9017 3.0963-6.9017 6.9019 0 1.2082.32 2.4002.9259 3.4482.1629.2814.2485.6051.2485.9363 0 1.0347-.8415 1.8766-1.8762 1.8766zm3.7625-10.4089c-1.1146 1.0325-1.8123 2.5085-1.8123 4.1478 0 1.0285.278 1.9913.7592 2.8239.2689.466.4147 1.0023.4147 1.5606 0 1.2487-.732 2.3259-1.7898 2.827 1.4512.4484 3.0781.3144 4.498-.5047.8915-.5144 1.5858-1.2362 2.0658-2.0703.2697-.4658.66-.86 1.1445-1.1392 1.0808-.6244 2.3803-.529 3.3432.1378-.337-1.4817-1.2664-2.824-2.6866-3.6441-.891-.5144-1.8636-.7546-2.8246-.754-.5385 0-1.0759-.1415-1.5594-.4212-1.0817-.6243-1.649-1.7967-1.5527-2.9636zm10.716 15.3006c-.3282 0-.6536-.087-.9412-.2535-.896-.5173-1.2047-1.6661-.6869-2.5617 1.9016-3.2959.7688-7.525-2.5266-9.428-1.0443-.6028-2.2349-.9215-3.4434-.9215-.3308 0-.6539-.0876-.9419-.2535-.8953-.5176-1.2026-1.6674-.6858-2.5632.3311-.5739.9528-.9316 1.6219-.9331 1.8704 0 3.7097.4924 5.3242 1.4244 2.463 1.4222 4.2256 3.7202 4.9622 6.4709.7364 2.75.3582 5.6216-1.0647 8.0859-.332.5757-.9529.9333-1.6178.9333zm-11.4607 1.3103c-3.8029 0-7.3443-2.0429-9.2413-5.3308-.5157-.8924-.2057-2.0391.6898-2.5556.8698-.5022 2.066-.176 2.5619.685 1.2301 2.1293 3.5228 3.4518 5.9837 3.4518 1.2039 0 2.3955-.3202 3.4442-.9254 1.047-.6038 1.9191-1.4777 2.5238-2.5272.1632-.2813.4005-.5172.6873-.6821.8679-.5029 2.0647-.1752 2.5623.6864.3321.5752.3304 1.2926-.0033 1.8715-.9321 1.6171-2.2785 2.9654-3.8942 3.8983-1.6182.9342-3.4556 1.4281-5.3142 1.4281z" fill-rule="evenodd"/><path d="m60 0h1v48h-1z"/><path clip-rule="evenodd" d="m159.395 29.32c1.16.6533 2.453.98 3.88.98 1.413 0 2.7-.3267 3.86-.98s2.073-1.5333 2.74-2.64c.666-1.12 1-2.3467 1-3.68s-.334-2.56-1-3.68c-.667-1.12-1.58-2-2.74-2.64-1.147-.6533-2.434-.98-3.86-.98-1.427 0-2.72.3267-3.88.98-1.16.64-2.074 1.52-2.74 2.64-.654 1.12-.98 2.3467-.98 3.68s.326 2.56.98 3.68c.666 1.1067 1.58 1.9867 2.74 2.64zm6.18-2.38c-.694.4-1.46.6-2.3.6s-1.607-.2-2.3-.6c-.694-.4-1.247-.9467-1.66-1.64-.4-.6933-.6-1.46-.6-2.3s.2-1.6067.6-2.3c.4-.7067.946-1.26 1.64-1.66.706-.4 1.48-.6 2.32-.6s1.606.2067 2.3.62c.693.4 1.24.9467 1.64 1.64s.6 1.46.6 2.3-.2 1.6067-.6 2.3-.947 1.24-1.64 1.64z" fill-rule="evenodd"/><path d="m79.4 30h-1.5v-12.58h-4.44v-1.42h10.36v1.42h-4.42z"/><path d="m85.469 30v-14h1.36v5.94h.02c.2534-.4533.66-.8533 1.22-1.2.5734-.36 1.2134-.54 1.92-.54.7334 0 1.3934.1733 1.98.52.5867.3467 1.0467.8333 1.38 1.46.3334.6267.5 1.3467.5 2.16v5.66h-1.36v-5.66c0-.84-.2533-1.52-.76-2.04-.4933-.52-1.1266-.78-1.9-.78-.56 0-1.0666.14-1.52.42-.4533.2667-.8133.64-1.08 1.12-.2666.48-.4 1.02-.4 1.62v5.32z"/><path clip-rule="evenodd" d="m98.172 29.54c.7333.44 1.5333.66 2.4.66.88 0 1.647-.18 2.3-.54.653-.3733 1.193-.8267 1.62-1.36l-.94-.86c-.853.96-1.833 1.44-2.94 1.44-.6 0-1.1533-.14-1.66-.42-.4933-.28-.9-.66-1.22-1.14s-.5133-1.0133-.58-1.6h7.8c.027-.2133.04-.4267.04-.64 0-.9333-.2-1.7733-.6-2.52s-.947-1.3267-1.64-1.74c-.68-.4133-1.44-.62-2.28-.62-.8533 0-1.64.22-2.36.66s-1.2933 1.04-1.72 1.8-.64 1.6067-.64 2.54c0 .92.22 1.76.66 2.52s1.0267 1.3667 1.76 1.82zm4.42-7.22c.56.5467.9 1.2867 1.02 2.22h-6.48c.0667-.56.2533-1.0733.56-1.54.32-.4667.72-.8333 1.2-1.1.4933-.28 1.02-.42 1.58-.42.853 0 1.56.28 2.12.84z" fill-rule="evenodd"/><path d="m114.218 30h-3v-14h2.74l4.78 6.08h.04l4.78-6.08h2.66v14h-3v-9.22h-.08l-4.42 5.62-4.42-5.62h-.08z"/><path clip-rule="evenodd" d="m127.712 30h3.14l1.16-3.16h5.54l1.18 3.16h3.18l-5.42-14h-3.34zm5.18-5.7 1.86-5.24h.06l1.86 5.24z" fill-rule="evenodd"/><path d="m145.441 30h-3.42l4.76-7.28-4.36-6.72h3.5l2.8 4.52h.06l2.82-4.52h3.42l-4.34 6.66 4.74 7.34h-3.48l-3.22-5.14h-.06z"/><path clip-rule="evenodd" d="m178.168 30h-3.14l5.44-14h3.34l5.42 14h-3.18l-1.18-3.16h-5.54zm3.9-10.94-1.86 5.24h3.78l-1.86-5.24z" fill-rule="evenodd"/><path d="m192.047 30h2.32l1.96-5.94h.06l1.94 5.94h2.32l3.4-9.7h-2.78l-1.84 5.82h-.06l-1.92-5.82h-2.1l-1.92 5.82h-.06l-1.84-5.82h-2.88z"/><path clip-rule="evenodd" d="m208.657 20.1c.827 0 1.56.1733 2.2.52.653.3333 1.16.7933 1.52 1.38.36.5733.54 1.2067.54 1.9v6.1h-2.56v-1.34h-.06c-.24.3867-.62.74-1.14 1.06s-1.113.48-1.78.48c-.613 0-1.167-.1267-1.66-.38-.48-.2533-.86-.5933-1.14-1.02-.28-.44-.42-.9067-.42-1.4 0-.8267.26-1.5067.78-2.04s1.26-.8933 2.22-1.08l3.06-.58c-.027-.3867-.2-.7133-.52-.98-.307-.28-.7-.42-1.18-.42-.827 0-1.58.38-2.26 1.14l-1.54-1.48c.427-.5067.973-.94 1.64-1.3.68-.3733 1.447-.56 2.3-.56zm-.5 7.94c.587 0 1.073-.2067 1.46-.62.4-.4133.6-.9533.6-1.62v-.32l-2.1.42c-.373.0667-.667.2067-.88.42-.213.2-.32.4267-.32.68 0 .3067.107.56.32.76.227.1867.533.28.92.28z" fill-rule="evenodd"/><path d="m214.921 20.3v9.7h2.7v-4.56c0-.7867.22-1.4133.66-1.88.44-.48 1.007-.72 1.7-.72.28 0 .58.0533.9.16v-2.9h-.46c-.613 0-1.167.1467-1.66.44-.48.28-.84.6-1.08.96h-.06v-1.2z"/><path clip-rule="evenodd" d="m225.682 30.2c-.787 0-1.52-.2133-2.2-.64-.667-.44-1.2-1.04-1.6-1.8-.4-.7733-.6-1.6467-.6-2.62s.2-1.84.6-2.6c.4-.7733.933-1.3733 1.6-1.8.68-.4267 1.413-.64 2.2-.64.733 0 1.373.1667 1.92.5.547.32.94.68 1.18 1.08h.06v-5.68h2.7v14h-2.7v-1.38h-.06c-.24.4-.633.7667-1.18 1.1-.547.32-1.187.48-1.92.48zm.76-2.5c.427 0 .82-.1133 1.18-.34.373-.2267.667-.5333.88-.92.227-.3867.34-.82.34-1.3 0-.4667-.113-.8933-.34-1.28-.213-.3867-.507-.6933-.88-.92-.36-.2267-.753-.34-1.18-.34s-.827.1133-1.2.34c-.36.2267-.653.5333-.88.92-.213.3867-.32.8133-.32 1.28 0 .48.107.9133.32 1.3.227.3867.52.6933.88.92.373.2267.773.34 1.2.34z" fill-rule="evenodd"/><path d="m234.705 29.66c.747.36 1.56.54 2.44.54.827 0 1.54-.1333 2.14-.4.6-.28 1.054-.6467 1.36-1.1.307-.4667.46-.98.46-1.54 0-.6267-.16-1.14-.48-1.54-.306-.4-.673-.7-1.1-.9-.426-.2133-.966-.4267-1.62-.64-.573-.1867-.986-.3467-1.24-.48-.24-.1333-.36-.3133-.36-.54 0-.2.107-.3667.32-.5.214-.1467.507-.22.88-.22.4 0 .76.08 1.08.24.334.1467.607.32.82.52l1.54-1.6c-.346-.36-.853-.68-1.52-.96-.666-.2933-1.406-.44-2.22-.44-.773 0-1.446.1333-2.02.4-.56.2533-.993.6067-1.3 1.06-.293.44-.44.9267-.44 1.46 0 .6267.154 1.14.46 1.54.32.3867.687.68 1.1.88.427.2.967.4067 1.62.62.56.1733.967.3333 1.22.48.267.1333.4.32.4.56 0 .2533-.113.46-.34.62-.213.1467-.526.22-.94.22-.493 0-.953-.1133-1.38-.34-.426-.24-.773-.5067-1.04-.8l-1.54 1.6c.387.4667.954.8867 1.7 1.26z"/></g></svg>