<svg fill="none" height="48" viewBox="0 0 242 48" width="242" xmlns="http://www.w3.org/2000/svg" xmlns:xlink="http://www.w3.org/1999/xlink"><linearGradient id="a" gradientUnits="userSpaceOnUse" x1="24" x2="24" y1="0" y2="48"><stop offset="0" stop-color="#ffb300"/><stop offset="1" stop-color="#ff8f00"/></linearGradient><path d="m60 0h1v48h-1z" fill="#e0e0e0"/><circle cx="24" cy="24" fill="url(#a)" r="24"/><path d="m16.5517 27.0894c.3353.578.956.9379 1.6195.9379 1.0347 0 1.8762-.8419 1.8762-1.8767 0-.3311-.0856-.6548-.2485-.9362-.6059-1.048-.9259-2.24-.9259-3.4482 0-3.8056 3.0956-6.9019 6.9017-6.9019 1.0339 0 1.875-.8415 1.875-1.8761 0-1.0342-.8388-1.8757-1.8692-1.8757-5.8769 0-10.6579 4.7793-10.6579 10.6537 0 1.8654.4941 3.7061 1.4291 5.3232z" fill="#fff"/><path d="m20.1214 21.7662c0-1.6393.6977-3.1153 1.8123-4.1478-.0963 1.1669.471 2.3393 1.5527 2.9636.4835.2797 1.0209.4212 1.5594.4212.961-.0006 1.9336.2396 2.8246.754 1.4202.8201 2.3496 2.1623 2.6866 3.644-.9629-.6668-2.2624-.7621-3.3432-.1377-.4845.2792-.8748.6733-1.1445 1.1392-.48.834-1.1743 1.5558-2.0658 2.0703-1.4199.819-3.0468.9531-4.498.5047 1.0578-.5012 1.7898-1.5783 1.7898-2.8271 0-.5582-.1458-1.0945-.4147-1.5606-.4812-.8325-.7592-1.7954-.7592-2.8238z" fill="#fff"/><path d="m32.6497 32.919c-.3282 0-.6536-.0871-.9412-.2535-.896-.5173-1.2047-1.6662-.6869-2.5617 1.9016-3.296.7688-7.525-2.5266-9.4281-1.0443-.6027-2.2349-.9215-3.4434-.9215-.3308 0-.6539-.0875-.9419-.2535-.8953-.5175-1.2026-1.6673-.6858-2.5631.3311-.574.9528-.9317 1.6219-.9331 1.8704 0 3.7097.4924 5.3242 1.4244 2.463 1.4222 4.2256 3.7202 4.9622 6.4709.7364 2.7499.3582 5.6216-1.0647 8.0859-.332.5757-.9529.9333-1.6178.9333z" fill="#fff"/><path d="m11.9477 28.8985c1.897 3.2879 5.4384 5.3308 9.2413 5.3308 1.8586 0 3.696-.4939 5.3142-1.4281 1.6157-.9329 2.9621-2.2812 3.8942-3.8983.3337-.5789.3354-1.2964.0033-1.8715-.4976-.8616-1.6944-1.1893-2.5623-.6865-.2868.165-.5241.4008-.6873.6821-.6047 1.0495-1.4768 1.9235-2.5238 2.5273-1.0487.6052-2.2403.9254-3.4442.9254-2.4609 0-4.7536-1.3225-5.9837-3.4518-.4959-.861-1.6921-1.1873-2.5619-.6851-.8955.5166-1.2055 1.6633-.6898 2.5557z" fill="#fff"/><g fill="#212121"><path d="m79.4 30h-1.5v-12.58h-4.44v-1.42h10.36v1.42h-4.42z"/><path d="m85.469 30v-14h1.36v5.94h.02c.2534-.4533.66-.8533 1.22-1.2.5734-.36 1.2134-.54 1.92-.54.7334 0 1.3934.1733 1.98.52.5867.3467 1.0467.8333 1.38 1.46.3334.6267.5 1.3467.5 2.16v5.66h-1.36v-5.66c0-.84-.2533-1.52-.76-2.04-.4933-.52-1.1266-.78-1.9-.78-.56 0-1.0666.14-1.52.42-.4533.2667-.8133.64-1.08 1.12-.2666.48-.4 1.02-.4 1.62v5.32z"/><path d="m100.572 30.2c-.8667 0-1.6667-.22-2.4-.66-.7333-.4533-1.32-1.06-1.76-1.82s-.66-1.6-.66-2.52c0-.9333.2133-1.78.64-2.54s1-1.36 1.72-1.8 1.5067-.66 2.36-.66c.84 0 1.6.2067 2.28.62.693.4133 1.24.9933 1.64 1.74s.6 1.5867.6 2.52c0 .2133-.013.4267-.04.64h-7.8c.0667.5867.26 1.12.58 1.6s.7267.86 1.22 1.14c.5067.28 1.06.42 1.66.42 1.107 0 2.087-.48 2.94-1.44l.94.86c-.427.5333-.967.9867-1.62 1.36-.653.36-1.42.54-2.3.54zm3.04-5.66c-.12-.9333-.46-1.6733-1.02-2.22-.56-.56-1.267-.84-2.12-.84-.56 0-1.0867.14-1.58.42-.48.2667-.88.6333-1.2 1.1-.3067.4667-.4933.98-.56 1.54z"/><path d="m114.218 30h-3v-14h2.74l4.78 6.08h.04l4.78-6.08h2.66v14h-3v-9.22h-.08l-4.42 5.62-4.42-5.62h-.08z"/><path d="m130.852 30h-3.14l5.44-14h3.34l5.42 14h-3.18l-1.18-3.16h-5.54zm3.9-10.94-1.86 5.24h3.78l-1.86-5.24z"/><path d="m145.441 30h-3.42l4.76-7.28-4.36-6.72h3.5l2.8 4.52h.06l2.82-4.52h3.42l-4.34 6.66 4.74 7.34h-3.48l-3.22-5.14h-.06z"/><path d="m163.275 30.3c-1.427 0-2.72-.3267-3.88-.98s-2.074-1.5333-2.74-2.64c-.654-1.12-.98-2.3467-.98-3.68s.326-2.56.98-3.68c.666-1.12 1.58-2 2.74-2.64 1.16-.6533 2.453-.98 3.88-.98 1.426 0 2.713.3267 3.86.98 1.16.64 2.073 1.52 2.74 2.64.666 1.12 1 2.3467 1 3.68s-.334 2.56-1 3.68c-.667 1.1067-1.58 1.9867-2.74 2.64s-2.447.98-3.86.98zm0-2.76c.84 0 1.606-.2 2.3-.6.693-.4 1.24-.9467 1.64-1.64s.6-1.46.6-2.3-.2-1.6067-.6-2.3-.947-1.24-1.64-1.64c-.694-.4133-1.46-.62-2.3-.62s-1.614.2-2.32.6c-.694.4-1.24.9533-1.64 1.66-.4.6933-.6 1.46-.6 2.3s.2 1.6067.6 2.3c.413.6933.966 1.24 1.66 1.64.693.4 1.46.6 2.3.6z"/><path d="m178.168 30h-3.14l5.44-14h3.34l5.42 14h-3.18l-1.18-3.16h-5.54zm3.9-10.94-1.86 5.24h3.78l-1.86-5.24z"/><path d="m194.367 30h-2.32l-3.4-9.7h2.88l1.84 5.82h.06l1.92-5.82h2.1l1.92 5.82h.06l1.84-5.82h2.78l-3.4 9.7h-2.32l-1.94-5.94h-.06z"/><path d="m208.657 20.1c.827 0 1.56.1733 2.2.52.653.3333 1.16.7933 1.52 1.38.36.5733.54 1.2067.54 1.9v6.1h-2.56v-1.34h-.06c-.24.3867-.62.74-1.14 1.06s-1.113.48-1.78.48c-.613 0-1.167-.1267-1.66-.38-.48-.2533-.86-.5933-1.14-1.02-.28-.44-.42-.9067-.42-1.4 0-.8267.26-1.5067.78-2.04s1.26-.8933 2.22-1.08l3.06-.58c-.027-.3867-.2-.7133-.52-.98-.307-.28-.7-.42-1.18-.42-.827 0-1.58.38-2.26 1.14l-1.54-1.48c.427-.5067.973-.94 1.64-1.3.68-.3733 1.447-.56 2.3-.56zm-.5 7.94c.587 0 1.073-.2067 1.46-.62.4-.4133.6-.9533.6-1.62v-.32l-2.1.42c-.373.0667-.667.2067-.88.42-.213.2-.32.4267-.32.68 0 .3067.107.56.32.76.227.1867.533.28.92.28z"/><path d="m214.921 30v-9.7h2.7v1.2h.06c.24-.36.6-.68 1.08-.96.493-.2933 1.047-.44 1.66-.44h.46v2.9c-.32-.1067-.62-.16-.9-.16-.693 0-1.26.24-1.7.72-.44.4667-.66 1.0933-.66 1.88v4.56z"/><path d="m225.682 30.2c-.787 0-1.52-.2133-2.2-.64-.667-.44-1.2-1.04-1.6-1.8-.4-.7733-.6-1.6467-.6-2.62s.2-1.84.6-2.6c.4-.7733.933-1.3733 1.6-1.8.68-.4267 1.413-.64 2.2-.64.733 0 1.373.1667 1.92.5.547.32.94.68 1.18 1.08h.06v-5.68h2.7v14h-2.7v-1.38h-.06c-.24.4-.633.7667-1.18 1.1-.547.32-1.187.48-1.92.48zm.76-2.5c.427 0 .82-.1133 1.18-.34.373-.2267.667-.5333.88-.92.227-.3867.34-.82.34-1.3 0-.4667-.113-.8933-.34-1.28-.213-.3867-.507-.6933-.88-.92-.36-.2267-.753-.34-1.18-.34s-.827.1133-1.2.34c-.36.2267-.653.5333-.88.92-.213.3867-.32.8133-.32 1.28 0 .48.107.9133.32 1.3.227.3867.52.6933.88.92.373.2267.773.34 1.2.34z"/><path d="m237.145 30.2c-.88 0-1.693-.18-2.44-.54-.746-.3733-1.313-.7933-1.7-1.26l1.54-1.6c.267.2933.614.56 1.04.8.427.2267.887.34 1.38.34.414 0 .727-.0733.94-.22.227-.16.34-.3667.34-.62 0-.24-.133-.4267-.4-.56-.253-.1467-.66-.3067-1.22-.48-.653-.2133-1.193-.42-1.62-.62-.413-.2-.78-.4933-1.1-.88-.306-.4-.46-.9133-.46-1.54 0-.5333.147-1.02.44-1.46.307-.4533.74-.8067 1.3-1.06.574-.2667 1.247-.4 2.02-.4.814 0 1.554.1467 2.22.44.667.28 1.174.6 1.52.96l-1.54 1.6c-.213-.2-.486-.3733-.82-.52-.32-.16-.68-.24-1.08-.24-.373 0-.666.0733-.88.22-.213.1333-.32.3-.32.5 0 .2267.12.4067.36.54.254.1333.667.2933 1.24.48.654.2133 1.194.4267 1.62.64.427.2.794.5 1.1.9.32.4.48.9133.48 1.54 0 .56-.153 1.0733-.46 1.54-.306.4533-.76.82-1.36 1.1-.6.2667-1.313.4-2.14.4z"/></g></svg>