<svg fill="none" height="24" viewBox="0 0 224 24" width="224" xmlns="http://www.w3.org/2000/svg"><g fill="#000"><path clip-rule="evenodd" d="m12 24c6.6274 0 12-5.3726 12-12 0-6.62744-5.3726-12-12-12-6.62741 0-12 5.37256-12 12 0 6.6274 5.37259 12 12 12zm-2.91443-9.9864c-.33172 0-.64206-.1799-.80972-.4689-.4675-.8086-.71454-1.7289-.71454-2.6616 0-2.93724 2.3905-5.32689 5.32899-5.32689.5151 0 .9346.42078.9346.93787 0 .51733-.4206.93805-.9376.93805-1.903 0-3.45081 1.54816-3.45081 3.45097 0 .6041.16001 1.2001.46295 1.7241.08146.1407.12426.3025.12426.4681 0 .5174-.42076.9383-.93813.9383zm1.88123-5.2044c-.5573.51624-.9061 1.2542-.9061 2.0739 0 .5142.139.9956.3796 1.4119.1344.233.2074.5012.2074.7803 0 .6244-.366 1.163-.89492 1.4135.72552.2242 1.53902.1572 2.24902-.2523.4457-.2573.7929-.6182 1.0329-1.0351.1348-.233.3299-.43.5722-.5697.5404-.3122 1.1902-.2645 1.6716.0689-.1685-.7408-.6332-1.412-1.3433-1.822-.4455-.2572-.9318-.3773-1.4123-.377-.2693 0-.5379-.0708-.7797-.2106-.5409-.31218-.8245-.89836-.7764-1.4818zm5.3581 7.6503c-.1642 0-.3269-.0435-.4707-.1268-.4479-.2587-.6023-.8331-.3434-1.2808.9508-1.648.3844-3.7625-1.2633-4.7141-.5222-.3014-1.1175-.46066-1.7217-.46066-.1654 0-.3269-.04383-.4709-.12677-.4477-.25879-.6013-.83368-.343-1.28156.1656-.28699.4765-.46588.811-.46661.9352 0 1.8549.24621 2.6621.71222 1.2315.71112 2.1128 1.86008 2.4811 3.23548.3682 1.3749.1791 2.8108-.5323 4.0429-.1661.2879-.4765.4667-.8089.4667zm-5.7304.6551c-1.90142 0-3.67214-1.0215-4.62065-2.6654-.25788-.4461-.10288-1.0195.34491-1.2778.43487-.2511 1.03299-.088 1.28097.3425.61502 1.0647 1.76135 1.726 2.99187 1.726.6019 0 1.1977-.1602 1.7221-.4628.5235-.3019.9595-.7388 1.2618-1.2636.0817-.1406.2003-.2586.3437-.341.4339-.2515 1.0323-.0877 1.2811.3432.1661.2876.1653.6463-.0016.9357-.4661.8085-1.1393 1.4827-1.9471 1.9492-.8091.4671-1.7278.714-2.6571.714z" fill-rule="evenodd"/><path d="m30 0h1v24h-1z"/><path clip-rule="evenodd" d="m38.8 18v-14h5.96c.9467 0 1.7933.20667 2.54.62.76.41333 1.3467.98 1.76 1.7.4267.70667.64 1.5.64 2.38s-.2133 1.68-.64 2.4c-.4133.7067-1 1.2667-1.76 1.68-.7467.4133-1.5933.62-2.54.62h-2.96v4.6zm5.86-7.3c.5733 0 1.0533-.1933 1.44-.58.4-.4.6-.87333.6-1.42s-.2-1.01333-.6-1.4c-.3867-.4-.8667-.6-1.44-.6h-2.86v4z" fill-rule="evenodd"/><path d="m51.2008 4v14h2.7v-5.1c0-.6667.1933-1.2067.58-1.62.4-.4267.9066-.64 1.52-.64.5333 0 .9666.18 1.3.54.3333.3467.5.82.5 1.42v5.4h2.7v-5.76c0-.8533-.16-1.5867-.48-2.2-.3067-.62667-.7334-1.10667-1.28-1.44-.5467-.33333-1.1734-.5-1.88-.5-.6667 0-1.26.16667-1.78.5-.5067.32-.88.68-1.12 1.08h-.06v-5.68z"/><path d="m132.96 18h1.5v-6.4h7.84v6.4h1.5v-14h-1.5v6.2h-7.84v-6.2h-1.5z"/><path d="m167.328 18h1.36v-14h-1.36z"/><path d="m178.184 18v-14h1.36v5.94h.02c.253-.45333.66-.85333 1.22-1.2.573-.36 1.213-.54 1.92-.54.733 0 1.393.17333 1.98.52s1.047.83333 1.38 1.46c.333.6267.5 1.3467.5 2.16v5.66h-1.36v-5.66c0-.84-.253-1.52-.76-2.04-.493-.52-1.127-.78-1.9-.78-.56 0-1.067.14-1.52.42-.453.2667-.813.64-1.08 1.12s-.4 1.02-.4 1.62v5.32z"/><path d="m193.287 18.2c-.867 0-1.673-.22-2.42-.66-.733-.4533-1.32-1.06-1.76-1.82-.427-.76-.64-1.6-.64-2.52s.213-1.76.64-2.52c.44-.75999 1.027-1.35999 1.76-1.79999.747-.45333 1.553-.68 2.42-.68.88 0 1.653.2 2.32.6.68.38667 1.213.84 1.6 1.35999l-1 .82c-.787-.9733-1.76-1.45999-2.92-1.45999-.627 0-1.207.16-1.74.47999-.52.32-.94.7667-1.26 1.34-.307.56-.46 1.18-.46 1.86s.153 1.3067.46 1.88c.32.56.74 1 1.26 1.32.533.32 1.113.48 1.74.48.653 0 1.227-.1467 1.72-.44s.907-.6467 1.24-1.06l1 .82c-.387.5333-.927 1-1.62 1.4-.68.4-1.46.6-2.34.6z"/><path clip-rule="evenodd" d="m202.458 8.20001c.733 0 1.38.16 1.94.48.573.32 1.02.76667 1.34 1.33999.32.56.48 1.2067.48 1.94v6.04h-1.3v-1.54h-.02c-.253.44-.68.84-1.28 1.2s-1.287.54-2.06.54c-.627 0-1.187-.1267-1.68-.38-.48-.2533-.86-.5867-1.14-1-.267-.4267-.4-.88-.4-1.36 0-.7733.267-1.42.8-1.94.533-.5333 1.287-.88 2.26-1.04l3.48-.58v-.02c0-.72-.227-1.3-.68-1.74-.44-.43999-1.02-.65999-1.74-.65999-.56 0-1.053.12667-1.48.38-.413.23999-.813.55999-1.2.95999l-.9-.85999c.4-.49333.907-.90667 1.52-1.24.613-.34666 1.3-.52 2.06-.52zm-.76 8.75999c.587 0 1.12-.14 1.6-.42.493-.28.88-.66 1.16-1.14.28-.4933.42-1.04.42-1.64v-.68l-3.16.52c-.68.12-1.187.3333-1.52.64s-.5.6867-.5 1.14c0 .44.18.8133.54 1.12.373.3067.86.46 1.46.46z" fill-rule="evenodd"/><path d="m208.771 8.40001h1.36v1.5h.02c.254-.44.66-.83333 1.22-1.18.574-.34666 1.22-.52 1.94-.52h.44v1.4c-.186-.02666-.373-.04-.56-.04-.56 0-1.073.14-1.54.42-.466.27999-.84.66669-1.12 1.15999-.266.4933-.4 1.0467-.4 1.66v5.2h-1.36z"/><path clip-rule="evenodd" d="m216.789 17.54c.734.44 1.534.66 2.4.66.88 0 1.647-.18 2.3-.54.654-.3733 1.194-.8267 1.62-1.36l-.94-.86c-.853.96-1.833 1.44-2.94 1.44-.6 0-1.153-.14-1.66-.42-.493-.28-.9-.66-1.22-1.14s-.513-1.0133-.58-1.6h7.8c.027-.2133.04-.4267.04-.64 0-.9333-.2-1.7733-.6-2.52-.4-.74666-.946-1.32665-1.64-1.73999-.68-.41333-1.44-.62-2.28-.62-.853 0-1.64.22-2.36.66s-1.293 1.04-1.72 1.79999c-.426.76-.64 1.6067-.64 2.54 0 .92.22 1.76.66 2.52s1.027 1.3667 1.76 1.82zm4.42-7.22c.56.5467.9 1.2867 1.02 2.22h-6.48c.067-.56.254-1.0733.56-1.54.32-.4667.72-.8333 1.2-1.09999.494-.28 1.02-.42 1.58-.42.854 0 1.56.28 2.12.83999z" fill-rule="evenodd"/><path d="m174.915 18.1c-.84 0-1.493-.24-1.96-.72-.453-.4933-.68-1.2067-.68-2.14v-5.51999h-1.86v-1.32h1.22c.24 0 .427-.07333.56-.22.147-.16.22-.39333.22-.7v-2.28h1.22v3.2h2.36v1.32h-2.36v5.43999c0 .52.127.92.38 1.2.267.28.627.42 1.08.42.387 0 .794-.1 1.22-.3v1.32c-.16.08-.366.1467-.62.2-.253.0667-.513.1-.78.1z"/><g clip-rule="evenodd" fill-rule="evenodd"><path d="m162.855 8.68001c-.56-.32-1.207-.48-1.94-.48-.76 0-1.447.17334-2.06.52-.613.33333-1.12.74667-1.52 1.24l.9.85999c.387-.4.787-.72 1.2-.95999.427-.25333.92-.38 1.48-.38.72 0 1.3.22 1.74.65999.453.44.68 1.02.68 1.74v.02l-3.48.58c-.973.16-1.727.5067-2.26 1.04-.533.52-.8 1.1667-.8 1.94 0 .48.133.9333.4 1.36.28.4133.66.7467 1.14 1 .493.2533 1.053.38 1.68.38.773 0 1.46-.18 2.06-.54s1.027-.76 1.28-1.2h.02v1.54h1.3v-6.04c0-.7333-.16-1.38-.48-1.94-.32-.57332-.767-1.01999-1.34-1.33999zm-1.1 7.85999c-.48.28-1.013.42-1.6.42-.6 0-1.087-.1533-1.46-.46-.36-.3067-.54-.68-.54-1.12 0-.4533.167-.8333.5-1.14s.84-.52 1.52-.64l3.16-.52v.68c0 .6-.14 1.1467-.42 1.64-.28.48-.667.86-1.16 1.14z"/><path d="m148.738 17.54c.734.44 1.534.66 2.4.66.88 0 1.647-.18 2.3-.54.654-.3733 1.194-.8267 1.62-1.36l-.94-.86c-.853.96-1.833 1.44-2.94 1.44-.6 0-1.153-.14-1.66-.42-.493-.28-.9-.66-1.22-1.14s-.513-1.0133-.58-1.6h7.8c.027-.2133.04-.4267.04-.64 0-.9333-.2-1.7733-.6-2.52-.4-.74666-.946-1.32665-1.64-1.73999-.68-.41333-1.44-.62-2.28-.62-.853 0-1.64.22-2.36.66s-1.293 1.04-1.72 1.79999c-.426.76-.64 1.6067-.64 2.54 0 .92.22 1.76.66 2.52s1.027 1.3667 1.76 1.82zm4.42-7.22c.56.5467.9 1.2867 1.02 2.22h-6.48c.067-.56.254-1.0733.56-1.54.32-.4667.72-.8333 1.2-1.09999.494-.28 1.02-.42 1.58-.42.854 0 1.56.28 2.12.83999z"/><path d="m121.334 18.2c-.96 0-1.84-.2267-2.64-.68-.787-.4534-1.414-1.0667-1.88-1.84-.454-.7734-.68-1.62-.68-2.54s.226-1.7667.68-2.54c.466-.77336 1.093-1.38002 1.88-1.82002.8-.45334 1.68-.68 2.64-.68.973 0 1.853.22666 2.64.68.8.44 1.426 1.04666 1.88 1.82002.453.7733.68 1.62.68 2.54s-.227 1.7666-.68 2.54c-.454.7733-1.08 1.3866-1.88 1.84-.787.4533-1.667.68-2.64.68zm0-2.5c.68 0 1.26-.2467 1.74-.74.48-.4934.72-1.1.72-1.82s-.24-1.32-.72-1.8c-.48-.4934-1.06-.74-1.74-.74s-1.26.2466-1.74.74c-.467.48-.7 1.08-.7 1.8s.233 1.3266.7 1.82c.48.4933 1.06.74 1.74.74z"/></g><path d="m108.804 18h-3.02l3.34-5-3.08-4.70001h3.12l1.76 2.96001h.06l1.78-2.96001h3.02l-3.08 4.70001 3.32 5h-3.12l-2.02-3.28h-.06z"/><path clip-rule="evenodd" d="m100.716 8.09998c.826 0 1.56.17333 2.2.52.653.33333 1.16.79333 1.52 1.38.36.57332.54 1.20662.54 1.90002v6.1h-2.56v-1.34h-.06c-.24.3866-.62.74-1.14 1.06s-1.114.48-1.7804.48c-.6133 0-1.1667-.1267-1.66-.38-.48-.2534-.86-.5934-1.14-1.02-.28-.44-.42-.9067-.42-1.4 0-.8267.26-1.5067.78-2.04.52-.5334 1.26-.8934 2.22-1.08l3.0604-.58c-.027-.3867-.2-.7134-.52-.98-.307-.28-.7-.42-1.18-.42-.8271 0-1.5804.38-2.2604 1.14l-1.54-1.48002c.4267-.50667.9733-.94 1.64-1.3.68-.37334 1.4467-.56 2.3004-.56zm-.5 7.94002c.586 0 1.073-.2067 1.46-.62.4-.4134.6-.9534.6-1.62v-.32l-2.1.42c-.3737.0666-.6671.2066-.8804.42-.2133.2-.32.4266-.32.68 0 .3066.1067.56.32.76.2267.1866.5333.28.9204.28z" fill-rule="evenodd"/><path d="m79.8156 18v-9.70002h2.7v1.38h.06c.1867-.4.52-.76 1-1.08.48-.33334 1.0467-.5 1.7-.5.6667 0 1.2467.17333 1.74.52.4933.33333.84.70666 1.04 1.12h.08c.2267-.41334.6334-.78667 1.22-1.12.6-.34667 1.2867-.52 2.06-.52.6267 0 1.1933.16666 1.7.5.52.33333.9334.81333 1.24 1.44002.3067.6266.46 1.36.46 2.2v5.76h-2.7v-5.5c0-.5867-.1533-1.04-.46-1.36-.2933-.3334-.6733-.5-1.14-.5-.5333 0-.9733.1933-1.32.58-.3467.3866-.52.9133-.52 1.58v5.2h-2.7v-5.5c0-.5867-.1533-1.04-.46-1.36-.2933-.3334-.6733-.5-1.14-.5-.5467 0-.9933.1933-1.34.58-.3467.3866-.52.9133-.52 1.58v5.2z"/><path d="m72.6594 18v-9.70002h2.7v1.2h.06c.24-.36.6-.68 1.08-.96.4933-.29334 1.0466-.44 1.66-.44h.46v2.90002c-.32-.1067-.62-.16-.9-.16-.6934 0-1.26.24-1.7.72-.44.4666-.66 1.0933-.66 1.88v4.56z"/><path clip-rule="evenodd" d="m66.3953 8.09998c.8267 0 1.56.17333 2.2.52.6533.33333 1.16.79333 1.52 1.38.36.57332.54 1.20662.54 1.90002v6.1h-2.56v-1.34h-.06c-.24.3866-.62.74-1.14 1.06s-1.1133.48-1.78.48c-.6133 0-1.1667-.1267-1.66-.38-.48-.2534-.86-.5934-1.14-1.02-.28-.44-.42-.9067-.42-1.4 0-.8267.26-1.5067.78-2.04.52-.5334 1.26-.8934 2.22-1.08l3.06-.58c-.0267-.3867-.2-.7134-.52-.98-.3067-.28-.7-.42-1.18-.42-.8267 0-1.58.38-2.26 1.14l-1.54-1.48002c.4267-.50667.9733-.94 1.64-1.3.68-.37334 1.4467-.56 2.3-.56zm-.5 7.94002c.5867 0 1.0733-.2067 1.46-.62.4-.4134.6-.9534.6-1.62v-.32l-2.1.42c-.3733.0666-.6667.2066-.88.42-.2133.2-.32.4266-.32.68 0 .3066.1067.56.32.76.2267.1866.5333.28.92.28z" fill-rule="evenodd"/></g></svg>