<svg fill="none" height="48" viewBox="0 0 163 48" width="163" xmlns="http://www.w3.org/2000/svg"><g fill="#000"><path clip-rule="evenodd" d="m24 48c13.2548 0 24-10.7452 24-24s-10.7452-24-24-24-24 10.7452-24 24 10.7452 24 24 24zm-5.8288-19.9727c-.6635 0-1.2842-.3599-1.6195-.9379-.935-1.6171-1.4291-3.4579-1.4291-5.3233 0-5.8743 4.781-10.6537 10.6579-10.6537 1.0304 0 1.8692.8416 1.8692 1.8758 0 1.0346-.8411 1.8761-1.875 1.8761-3.8061 0-6.9017 3.0963-6.9017 6.9018 0 1.2082.32 2.4003.9259 3.4483.1629.2813.2485.605.2485.9362 0 1.0348-.8415 1.8767-1.8762 1.8767zm3.7625-10.4089c-1.1146 1.0324-1.8123 2.5084-1.8123 4.1477 0 1.0285.278 1.9914.7592 2.8239.2689.466.4147 1.0024.4147 1.5606 0 1.2488-.732 2.3259-1.7898 2.8271 1.4512.4483 3.0781.3143 4.498-.5048.8915-.5144 1.5858-1.2362 2.0658-2.0702.2697-.4659.66-.86 1.1445-1.1393 1.0808-.6243 2.3803-.529 3.3432.1378-.337-1.4817-1.2664-2.8239-2.6866-3.644-.891-.5145-1.8636-.7546-2.8246-.754-.5385 0-1.0759-.1415-1.5594-.4212-1.0817-.6244-1.649-1.7968-1.5527-2.9636zm10.716 15.3006c-.3282 0-.6536-.0871-.9412-.2535-.896-.5174-1.2047-1.6662-.6869-2.5617 1.9016-3.296.7688-7.5251-2.5266-9.4281-1.0443-.6028-2.2349-.9215-3.4434-.9215-.3308 0-.6539-.0876-.9419-.2535-.8953-.5176-1.2026-1.6673-.6858-2.5631.3311-.574.9528-.9317 1.6219-.9332 1.8704 0 3.7097.4925 5.3242 1.4244 2.463 1.4223 4.2256 3.7202 4.9622 6.471.7364 2.7499.3582 5.6216-1.0647 8.0858-.332.5758-.9529.9334-1.6178.9334zm-11.4607 1.3102c-3.8029 0-7.3443-2.0429-9.2413-5.3307-.5157-.8924-.2057-2.0392.6898-2.5557.8698-.5022 2.066-.176 2.5619.6851 1.2301 2.1292 3.5228 3.4518 5.9837 3.4518 1.2039 0 2.3955-.3202 3.4442-.9255 1.047-.6038 1.9191-1.4777 2.5238-2.5272.1632-.2813.4005-.5171.6873-.6821.8679-.5028 2.0647-.1752 2.5623.6865.3321.5751.3304 1.2926-.0033 1.8714-.9321 1.6172-2.2785 2.9654-3.8942 3.8984-1.6182.9341-3.4556 1.428-5.3142 1.428z" fill-rule="evenodd"/><path d="m60 0h1v48h-1z"/><path clip-rule="evenodd" d="m74.8 22v-14h5.96c.9467 0 1.7933.20667 2.54.62.76.41333 1.3467.98 1.76 1.7.4267.7067.64 1.5.64 2.38s-.2133 1.68-.64 2.4c-.4133.7067-1 1.2667-1.76 1.68-.7467.4133-1.5933.62-2.54.62h-2.96v4.6zm5.86-7.3c.5733 0 1.0533-.1933 1.44-.58.4-.4.6-.8733.6-1.42s-.2-1.0133-.6-1.4c-.3867-.4-.8667-.6-1.44-.6h-2.86v4z" fill-rule="evenodd"/><path d="m87.2008 8v14h2.7v-5.1c0-.6667.1933-1.2067.58-1.62.4-.4267.9066-.64 1.52-.64.5333 0 .9666.18 1.3.54.3333.3467.5.82.5 1.42v5.4h2.7v-5.76c0-.8533-.16-1.5867-.48-2.2-.3067-.6267-.7334-1.1067-1.28-1.44-.5467-.3333-1.1734-.5-1.88-.5-.6667 0-1.26.1667-1.78.5-.5067.32-.88.68-1.12 1.08h-.06v-5.68z"/><path clip-rule="evenodd" d="m104.595 12.62c-.64-.3467-1.373-.52-2.2-.52-.853 0-1.62.1867-2.3.56-.6664.36-1.213.7933-1.6397 1.3l1.54 1.48c.6797-.76 1.4337-1.14 2.2597-1.14.48 0 .874.14 1.18.42.32.2667.494.5933.52.98l-3.06.58c-.9597.1867-1.6997.5467-2.2197 1.08s-.78 1.2133-.78 2.04c0 .4933.14.96.42 1.4.28.4267.66.7667 1.14 1.02.4933.2533 1.0467.38 1.6597.38.667 0 1.26-.16 1.78-.48s.9-.6733 1.14-1.06h.06v1.34h2.56v-6.1c0-.6933-.18-1.3267-.54-1.9-.36-.5867-.866-1.0467-1.52-1.38zm-1.24 6.8c-.386.4133-.873.62-1.46.62-.386 0-.693-.0933-.92-.28-.213-.2-.32-.4533-.32-.76 0-.2533.107-.48.32-.68.214-.2133.507-.3533.88-.42l2.1-.42v.32c0 .6667-.2 1.2067-.6 1.62z" fill-rule="evenodd"/><path d="m108.659 12.3v9.7h2.7v-4.56c0-.7867.22-1.4133.66-1.88.44-.48 1.007-.72 1.7-.72.28 0 .58.0533.9.16v-2.9h-.46c-.613 0-1.166.1467-1.66.44-.48.28-.84.6-1.08.96h-.06v-1.2z"/><path d="m115.816 12.3v9.7h2.7v-5.2c0-.6667.173-1.1933.52-1.58.346-.3867.793-.58 1.34-.58.466 0 .846.1667 1.14.5.306.32.46.7733.46 1.36v5.5h2.7v-5.2c0-.6667.173-1.1933.52-1.58.346-.3867.786-.58 1.32-.58.466 0 .846.1667 1.14.5.306.32.46.7733.46 1.36v5.5h2.7v-5.76c0-.84-.154-1.5733-.46-2.2-.307-.6267-.72-1.1067-1.24-1.44-.507-.3333-1.074-.5-1.7-.5-.774 0-1.46.1733-2.06.52-.587.3333-.994.7067-1.22 1.12h-.08c-.2-.4133-.547-.7867-1.04-1.12-.494-.3467-1.074-.52-1.74-.52-.654 0-1.22.1667-1.7.5-.48.32-.814.68-1 1.08h-.06v-1.38z"/><path clip-rule="evenodd" d="m138.916 12.62c-.64-.3467-1.374-.52-2.2-.52-.854 0-1.62.1867-2.3.56-.667.36-1.214.7933-1.64 1.3l1.54 1.48c.68-.76 1.433-1.14 2.26-1.14.48 0 .873.14 1.18.42.32.2667.493.5933.52.98l-3.06.58c-.96.1867-1.7.5467-2.22 1.08s-.78 1.2133-.78 2.04c0 .4933.14.96.42 1.4.28.4267.66.7667 1.14 1.02.493.2533 1.046.38 1.66.38.666 0 1.26-.16 1.78-.48s.9-.6733 1.14-1.06h.06v1.34h2.56v-6.1c0-.6933-.18-1.3267-.54-1.9-.36-.5867-.867-1.0467-1.52-1.38zm-1.24 6.8c-.387.4133-.874.62-1.46.62-.387 0-.694-.0933-.92-.28-.214-.2-.32-.4533-.32-.76 0-.2533.106-.48.32-.68.213-.2133.506-.3533.88-.42l2.1-.42v.32c0 .6667-.2 1.2067-.6 1.62z" fill-rule="evenodd"/><path clip-rule="evenodd" d="m154.694 21.52c.8.4533 1.68.68 2.64.68.973 0 1.853-.2267 2.64-.68.8-.4533 1.426-1.0667 1.88-1.84.453-.7733.68-1.62.68-2.54s-.227-1.7667-.68-2.54c-.454-.7733-1.08-1.38-1.88-1.82-.787-.4533-1.667-.68-2.64-.68-.96 0-1.84.2267-2.64.68-.787.44-1.414 1.0467-1.88 1.82-.454.7733-.68 1.62-.68 2.54s.226 1.7667.68 2.54c.466.7733 1.093 1.3867 1.88 1.84zm4.38-2.56c-.48.4933-1.06.74-1.74.74s-1.26-.2467-1.74-.74c-.467-.4933-.7-1.1-.7-1.82s.233-1.32.7-1.8c.48-.4933 1.06-.74 1.74-.74s1.26.2467 1.74.74c.48.48.72 1.08.72 1.8s-.24 1.3267-.72 1.82z" fill-rule="evenodd"/><path d="m144.804 22h-3.02l3.34-5-3.08-4.7h3.12l1.76 2.96h.06l1.78-2.96h3.02l-3.08 4.7 3.32 5h-3.12l-2.02-3.28h-.06z"/><path clip-rule="evenodd" d="m143.679 39.16c-.693 0-1.333-.176-1.92-.528-.586-.3627-1.056-.848-1.408-1.456s-.528-1.28-.528-2.016c0-.7467.171-1.424.512-2.032.342-.608.8-1.088 1.376-1.44s1.206-.528 1.888-.528c.672 0 1.28.1653 1.824.496.555.3307.992.7947 1.312 1.392s.48 1.2693.48 2.016c0 .1707-.01.3413-.032.512h-6.24c.054.4693.208.896.464 1.28s.582.688.976.912c.406.224.848.336 1.328.336.886 0 1.67-.384 2.352-1.152l.752.688c-.341.4267-.773.7893-1.296 1.088-.522.288-1.136.432-1.84.432zm2.432-4.528c-.096-.7467-.368-1.3387-.816-1.776-.448-.448-1.013-.672-1.696-.672-.448 0-.869.112-1.264.336-.384.2133-.704.5067-.96.88-.245.3733-.394.784-.448 1.232z" fill-rule="evenodd"/><path d="m135.345 31.32h1.088v1.2h.016c.203-.352.528-.6667.976-.944.459-.2773.976-.416 1.552-.416h.352v1.12c-.149-.0213-.298-.032-.448-.032-.448 0-.858.112-1.232.336-.373.224-.672.5333-.896.928-.213.3947-.32.8373-.32 1.328v4.16h-1.088z"/><path clip-rule="evenodd" d="m130.294 31.16c.587 0 1.104.128 1.552.384.459.256.816.6133 1.072 1.072.256.448.384.9653.384 1.552v4.832h-1.04v-1.232h-.016c-.202.352-.544.672-1.024.96s-1.029.432-1.648.432c-.501 0-.949-.1013-1.344-.304-.384-.2027-.688-.4693-.912-.8-.213-.3413-.32-.704-.32-1.088 0-.6187.214-1.136.64-1.552.427-.4267 1.03-.704 1.808-.832l2.784-.464v-.016c0-.576-.181-1.04-.544-1.392-.352-.352-.816-.528-1.392-.528-.448 0-.842.1013-1.184.304-.33.192-.65.448-.96.768l-.72-.688c.32-.3947.726-.7253 1.216-.992.491-.2773 1.04-.416 1.648-.416zm-.608 7.008c.47 0 .896-.112 1.28-.336.395-.224.704-.528.928-.912.224-.3947.336-.832.336-1.312v-.544l-2.528.416c-.544.096-.949.2667-1.216.512-.266.2453-.4.5493-.4.912 0 .352.144.6507.432.896.299.2453.688.368 1.168.368z" fill-rule="evenodd"/><path d="m122.958 39.16c-.694 0-1.339-.176-1.936-.528-.587-.3627-1.056-.848-1.408-1.456-.342-.608-.512-1.28-.512-2.016s.17-1.408.512-2.016c.352-.608.821-1.088 1.408-1.44.597-.3627 1.242-.544 1.936-.544.704 0 1.322.16 1.856.48.544.3093.97.672 1.28 1.088l-.8.656c-.63-.7787-1.408-1.168-2.336-1.168-.502 0-.966.128-1.392.384-.416.256-.752.6133-1.008 1.072-.246.448-.368.944-.368 1.488s.122 1.0453.368 1.504c.256.448.592.8 1.008 1.056.426.256.89.384 1.392.384.522 0 .981-.1173 1.376-.352.394-.2347.725-.5173.992-.848l.8.656c-.31.4267-.742.8-1.296 1.12-.544.32-1.168.48-1.872.48z"/><path d="m110.875 39v-11.2h1.088v4.752h.016c.203-.3627.528-.6827.976-.96.459-.288.971-.432 1.536-.432.587 0 1.115.1387 1.584.416.47.2773.838.6667 1.104 1.168.267.5013.4 1.0773.4 1.728v4.528h-1.088v-4.528c0-.672-.202-1.216-.608-1.632-.394-.416-.901-.624-1.52-.624-.448 0-.853.112-1.216.336-.362.2133-.65.512-.864.896-.213.384-.32.816-.32 1.296v4.256z"/><path d="m108.26 39.08c-.672 0-1.194-.192-1.568-.576-.362-.3947-.544-.9653-.544-1.712v-4.416h-1.488v-1.056h.976c.192 0 .342-.0587.448-.176.118-.128.176-.3147.176-.56v-1.824h.976v2.56h1.888v1.056h-1.888v4.352c0 .416.102.736.304.96.214.224.502.336.864.336.31 0 .635-.08.976-.24v1.056c-.128.064-.293.1173-.496.16-.202.0533-.41.08-.624.08z"/><path d="m103.279 39h-1.088v-11.2h1.088z"/><path clip-rule="evenodd" d="m97.0601 31.16c.5867 0 1.104.128 1.552.384.4587.256.816.6133 1.072 1.072.256.448.3839.9653.3839 1.552v4.832h-1.0399v-1.232h-.016c-.2027.352-.544.672-1.024.96s-1.0293.432-1.648.432c-.5013 0-.9493-.1013-1.344-.304-.384-.2027-.688-.4693-.912-.8-.2133-.3413-.32-.704-.32-1.088 0-.6187.2133-1.136.64-1.552.4267-.4267 1.0293-.704 1.808-.832l2.784-.464v-.016c0-.576-.1813-1.04-.544-1.392-.352-.352-.816-.528-1.392-.528-.448 0-.8427.1013-1.184.304-.3307.192-.6507.448-.96.768l-.72-.688c.32-.3947.7253-.7253 1.216-.992.4907-.2773 1.04-.416 1.648-.416zm-.608 7.008c.4693 0 .896-.112 1.28-.336.3947-.224.704-.528.928-.912.224-.3947.336-.832.336-1.312v-.544l-2.528.416c-.544.096-.9493.2667-1.216.512-.2666.2453-.4.5493-.4.912 0 .352.144.6507.432.896.2987.2453.688.368 1.168.368z" fill-rule="evenodd"/><path clip-rule="evenodd" d="m89.2389 39.16c-.6934 0-1.3334-.176-1.92-.528-.5867-.3627-1.056-.848-1.408-1.456s-.528-1.28-.528-2.016c0-.7467.1706-1.424.512-2.032.3413-.608.8-1.088 1.376-1.44s1.2053-.528 1.888-.528c.672 0 1.28.1653 1.824.496.5546.3307.992.7947 1.312 1.392s.48 1.2693.48 2.016c0 .1707-.0107.3413-.032.512h-6.24c.0533.4693.208.896.464 1.28s.5813.688.976.912c.4053.224.848.336 1.328.336.8853 0 1.6693-.384 2.352-1.152l.752.688c-.3414.4267-.7734.7893-1.296 1.088-.5227.288-1.136.432-1.84.432zm2.432-4.528c-.096-.7467-.368-1.3387-.816-1.776-.448-.448-1.0134-.672-1.696-.672-.448 0-.8694.112-1.264.336-.384.2133-.704.5067-.96.88-.2454.3733-.3947.784-.448 1.232z" fill-rule="evenodd"/><path d="m75.896 39h-1.2v-11.2h1.2v4.96h6.272v-4.96h1.2v11.2h-1.2v-5.12h-6.272z"/></g></svg>