<svg fill="none" height="48" viewBox="0 0 187 48" width="187" xmlns="http://www.w3.org/2000/svg"><g fill="#fff"><path d="m20.0089 10.0253c4.3353 0 7.1699 2.0886 9.3376 4.5114.0833.0836.1459.1671.2084.2506.0625.0836.125.1671.2084.2507.0834.0835.1459.1671.2084.2506.0626.0836.1251.1671.2085.2506.5021.615.9295 1.2674 1.3323 1.8821.1991.3039.3921.5986.5852.8749.1566.2198.3015.4395.4434.6548.2358.3577.4636.7032.7238 1.0161.0833.0835.1459.167.2084.2506.0625.0835.1251.1671.2084.2507.0834.0835.1459.167.2085.2506.0625.0835.125.1671.2084.2506 1.584 1.9215 3.1681 3.1747 5.5024 3.3418.3335-1.4203.5003-2.8405.5003-4.3443s-.1668-3.0076-.5003-4.3443c-2.3343.1671-3.9184 1.3367-5.5024 3.3418-.1457-.2434-.3197-.4868-.5055-.7466-.1332-.1862-.2724-.3809-.4116-.5902-.2694-.3711-.5387-.7695-.8191-1.1842-.4138-.612-.8515-1.2595-1.3485-1.9069 1.6674-1.9215 3.7516-3.5924 6.5862-4.2608-3.5015-6.09869-10.0878-10.2759-17.5912-10.2759-7.5033 0-14.08959 4.17721-17.50778 10.2759 2.8346.6684 4.83549 2.3393 6.58628 4.2608.08337.0836.1459.1671.20842.2506.06253.0836.12506.1671.20843.2507.08337.0835.1459.1671.20843.2506.06252.0836.12505.1671.20842.2506.6686.804 1.23 1.6617 1.7701 2.487.1333.2038.2655.4057.3975.6042.0862.1295.1668.2534.2447.3732.2236.3439.4251.6537.6724.9635.1221.1223.1995.2446.2976.3997.0359.0568.0746.1179.1193.1851.122.1223.1994.2446.2975.3997.036.0568.0746.118.1193.1851 1.7508 2.4228 3.5016 4.0937 6.2528 4.0937s4.502-1.6709 6.2528-4.0937c.0834.1671.1876.3133.2918.4595s.2084.2924.2918.4595c.2139.3096.4278.6328.6456.9619.5461.8251 1.1165 1.687 1.7722 2.4634-2.0843 2.4228-5.0023 4.5114-9.3376 4.5114-4.3352 0-7.1698-2.0886-9.3375-4.5114-.0833-.0835-.1459-.1671-.2084-.2506-.0625-.0836-.125-.1671-.2084-.2507-.0834-.0835-.1459-.167-.2084-.2506-.06257-.0835-.1251-.1671-.20847-.2506-.50213-.615-.92959-1.2674-1.33235-1.8821-.19908-.3039-.39213-.5985-.58517-.8749-.15668-.2198-.30158-.4396-.44355-.655-.23577-.3576-.46346-.703-.72364-1.0159-.08337-.0835-.1459-.1671-.20842-.2506-.06253-.0835-.12506-.1671-.20843-.2506-.08337-.0836-.1459-.1671-.20843-.2507-.06253-.0835-.12506-.1671-.20843-.2506-1.58404-1.9215-3.16808-3.1747-5.502457-3.3418-.250112 1.3367-.416853 2.8405-.416853 4.3443s.166741 3.0076.500224 4.3443c2.334376-.1671 3.918416-1.3367 5.502456-3.3417.14571.2433.31972.4867.50553.7465.13314.1862.27235.3809.41155.5902.26936.3711.53872.7695.81906 1.1841.4138.6121.85159 1.2596 1.34858 1.907-1.66742 1.9215-3.75168 3.5924-6.58628 4.2608 3.41819 6.1822 10.00448 10.3595 17.50778 10.3595 7.5034 0 14.0897-4.1773 17.5079-10.276-2.8346-.6683-4.8355-2.3392-6.5863-4.2607-.0834-.0836-.1459-.1671-.2084-.2507-.0625-.0835-.1251-.1671-.2085-.2506-.0833-.0836-.1459-.1671-.2084-.2506-.0625-.0836-.125-.1671-.2084-.2507-.6686-.804-1.23-1.6617-1.7701-2.487-.1333-.2037-.2655-.4056-.3975-.6041-.0862-.1295-.1668-.2534-.2447-.3732-.2236-.3439-.4251-.6537-.6724-.9635-.1221-.1223-.1995-.2446-.2976-.3997-.0359-.0568-.0746-.118-.1193-.1851-.122-.1224-.1994-.2447-.2975-.3998-.036-.0567-.0746-.1179-.1193-.185-1.7508-2.4228-3.5016-4.0937-6.2528-4.0937-2.7513 0-4.502 1.6709-6.2528 4.0937-.0834-.1671-.1876-.3133-.2918-.4595s-.2084-.2924-.2918-.4595c-.2139-.3096-.4278-.6328-.6456-.9618-.5461-.8252-1.1165-1.6871-1.7722-2.4635 2.1677-2.5064 5.0023-4.595 9.3375-4.595z"/><path d="m83.0604 29.2405h3.6651v-13.2152h-3.6651z"/><path d="m84.9016 14.3218c1.0926 0 1.9874-.8346 1.9874-1.8584 0-1.0153-.8948-1.8498-1.9874-1.8498-1.0841 0-1.9789.8345-1.9789 1.8498 0 1.0238.8948 1.8584 1.9789 1.8584z"/><path d="m59.7746 16.6878h-3.5705c-.1376-1.3852-1.2303-2.194-3.0113-2.194-1.8239 0-2.8305.8346-2.8305 1.9703-.0259 1.2647 1.2561 1.8325 2.7875 2.1853l1.5831.3785c3.0629.6883 5.274 2.2456 5.2826 5.1794-.0086 3.2264-2.538 5.2827-6.8399 5.2827-4.276 0-7.0033-1.9703-7.098-5.7817h3.605c.1204 1.7638 1.5142 2.6585 3.45 2.6585 1.8928 0 3.1145-.8775 3.1231-2.1681-.0086-1.1873-1.0754-1.7379-2.994-2.2025l-1.9186-.4818c-2.9769-.7141-4.8095-2.2025-4.8009-4.8008-.0172-3.2006 2.8134-5.3343 6.6765-5.3343 3.9232 0 6.5043 2.1681 6.5559 5.3085z"/><path d="m68.9311 29.2405h-3.8717l-3.5963-13.2152h3.7082l2.0476 8.8789h.1205l2.1337-8.8789h3.6393l2.1681 8.8273h.1119l2.0132-8.8273h3.6996l-3.5877 13.2152h-3.8803l-2.2713-8.3112h-.1635z"/><path d="m94.2645 16.0253h2.6241v2.7531h-2.6241v10.4621h-3.6652v-10.4621h-1.867v-2.7531h1.867v-.955c0-2.8736 1.8498-4.276 4.3363-4.276 1.127 0 2.1337.2237 2.5897.3613l-.6453 2.7532c-.2925-.0947-.7399-.1893-1.1787-.1893-1.0755 0-1.4368.5248-1.4368 1.4196z"/><path d="m106.155 16.0253h-2.487v-3.1662h-3.665v3.1662h-1.8067v2.7531h1.8067v6.883c-.0171 2.5896 1.747 3.8716 4.405 3.7597.947-.0344 1.618-.2237 1.988-.3441l-.577-2.7274c-.022.0042-.047.0092-.075.0147-.199.0395-.535.1058-.837.1058-.731 0-1.239-.2753-1.239-1.2906v-6.4011h2.487z"/><path clip-rule="evenodd" d="m123.762 20.4131c0 5.5064-3.252 8.8274-8.621 8.8274h-6.246v-17.6203h6.298c5.317 0 8.569 3.3038 8.569 8.7929zm-11.142-5.6009v11.2363h2.366c3.313 0 5.059-1.7035 5.059-5.6354 0-3.9146-1.746-5.6009-5.05-5.6009z" fill-rule="evenodd"/><path clip-rule="evenodd" d="m132.475 29.4986c3.27 0 5.472-1.5917 5.989-4.0437l-3.39-.2237c-.37 1.0066-1.317 1.5314-2.538 1.5314-1.833 0-2.994-1.2131-2.994-3.1833v-.0086h8.999v-1.0067c0-4.4911-2.719-6.7108-6.212-6.7108-3.889 0-6.41 2.7618-6.41 6.8399 0 4.19 2.487 6.8055 6.556 6.8055zm-2.933-8.1993c.077-1.5056 1.221-2.7101 2.847-2.7101 1.592 0 2.693 1.1356 2.702 2.7101z" fill-rule="evenodd"/><path d="m145.475 16.0253h2.487v2.7531h-2.487v6.4011c0 1.0153.508 1.2906 1.239 1.2906.303 0 .638-.0663.837-.1058.028-.0055.053-.0105.075-.0147l.577 2.7274c-.37.1204-1.041.3097-1.988.3441-2.658.1119-4.422-1.1701-4.405-3.7597v-6.883h-1.806v-2.7531h1.806v-3.1662h3.665z"/><path clip-rule="evenodd" d="m156.23 29.4986c3.269 0 5.472-1.5917 5.988-4.0437l-3.39-.2237c-.37 1.0066-1.316 1.5314-2.538 1.5314-1.832 0-2.994-1.2131-2.994-3.1833v-.0086h9v-1.0067c0-4.4911-2.719-6.7108-6.212-6.7108-3.889 0-6.41 2.7618-6.41 6.8399 0 4.19 2.487 6.8055 6.556 6.8055zm-2.934-8.1993c.078-1.5056 1.222-2.7101 2.848-2.7101 1.592 0 2.693 1.1356 2.702 2.7101z" fill-rule="evenodd"/><path d="m176.56 24.3966c-.172 3.0371-2.383 5.102-5.902 5.102-4.069 0-6.504-2.7962-6.504-6.8141 0-4.0523 2.478-6.8313 6.487-6.8313 3.45 0 5.765 2.0047 5.919 5.0589h-3.458c-.198-1.3163-1.058-2.2025-2.401-2.2025-1.703 0-2.822 1.4282-2.822 3.9233 0 2.5294 1.11 3.9662 2.822 3.9662 1.256 0 2.186-.7915 2.401-2.2025z"/><path d="m185.936 16.0253h-2.486v-3.1662h-3.665v3.1662h-1.807v2.7531h1.807v6.883c-.018 2.5896 1.746 3.8716 4.405 3.7597.946-.0344 1.617-.2237 1.987-.3441l-.576-2.7274c-.022.0042-.048.0092-.075.0147-.2.0395-.535.1058-.837.1058-.732 0-1.239-.2753-1.239-1.2906v-6.4011h2.486z"/><path d="m77.5728 45.1139h1.1202v-7.2911h-1.1202z"/><path d="m78.1424 36.6076c.4367 0 .7975-.3418.7975-.7595s-.3608-.7595-.7975-.7595-.7975.3418-.7975.7595.3608.7595.7975.7595z"/><path clip-rule="evenodd" d="m46.2911 45.1139h1.0823v-1.1202h.1329l.0317.0515c.2558.4177.7477 1.2206 2.0949 1.2206 1.8228 0 3.0949-1.462 3.0949-3.7784 0-2.2975-1.2721-3.7595-3.1139-3.7595-1.321 0-1.7924.7516-2.0507 1.1635-.0202.0321-.039.0621-.0569.0896h-.0949v-3.5886h-1.1203zm1.1013-3.6455c0-1.6329.7215-2.7342 2.0886-2.7342 1.4241 0 2.1266 1.1962 2.1266 2.7342 0 1.5569-.7215 2.7911-2.1266 2.7911-1.3481 0-2.0886-1.1392-2.0886-2.7911z" fill-rule="evenodd"/><path d="m54.8639 47.9431c1.0253 0 1.7279-.5317 2.1456-1.6519l3.1329-8.4684h-1.2152l-2.0126 5.8101h-.076l-2.0127-5.8101h-1.2151l2.6962 7.3291-.2469.6836c-.394 1.0917-.9114 1.1962-1.7278.9873l-.2848.9873c.1139.057.4367.133.8164.133z"/><path d="m65.5324 45.1139v-9.7215h1.4051l3.3038 8.0696h.1139l3.3038-8.0696h1.4051v9.7215h-1.1013v-7.386h-.0949l-3.038 7.386h-1.0633l-3.038-7.386h-.0949v7.386z"/><path d="m86.574 42.9874c-.1899 1.2911-1.2532 2.2784-2.8671 2.2784-2.0507 0-3.3038-1.5759-3.3038-3.7595 0-2.2215 1.3101-3.7784 3.2848-3.7784 1.538 0 2.6962.9114 2.8861 2.2784h-1.1203c-.1709-.6645-.7595-1.2721-1.7468-1.2721-1.3101 0-2.1836 1.0823-2.1836 2.7342 0 1.6898.8545 2.7911 2.1836 2.7911.8734 0 1.538-.4747 1.7468-1.2721z"/><path d="m88.2116 45.1139h1.1203v-4.6139c0-.9826.7785-1.7088 1.8418-1.7088.28 0 .4889.0522.6455.1329l.3798-.9494c-.2279-.1614-.5269-.2658-.9304-.2658-.8829 0-1.6377.4936-1.8987 1.2152h-.076v-1.1013h-1.0823z"/><g clip-rule="evenodd" fill-rule="evenodd"><path d="m99.3857 41.5063c0 2.2595-1.3291 3.7595-3.3038 3.7595s-3.3038-1.5-3.3038-3.7595c0-2.2784 1.3291-3.7784 3.3038-3.7784s3.3038 1.5 3.3038 3.7784zm-5.4874 0c0 1.4621.6836 2.7532 2.1836 2.7532s2.1835-1.2911 2.1835-2.7532c0-1.462-.6835-2.7721-2.1835-2.7721s-2.1836 1.3101-2.1836 2.7721z"/><path d="m104.039 48c1.747 0 3.152-.7975 3.152-2.6772v-7.5h-1.083v1.1582h-.114l-.027-.043-.022-.0352c-.259-.4092-.744-1.1749-2.077-1.1749-1.842 0-3.114 1.462-3.114 3.7025 0 2.2785 1.329 3.5696 3.095 3.5696 1.369 0 1.843-.7726 2.097-1.1865l.029-.0477h.095v1.481c0 1.2152-.854 1.7659-2.031 1.7659-1.277 0-1.756-.649-2.056-1.0571l-.033-.0442-.892.6266c.455.7642 1.353 1.462 2.981 1.462zm-.038-4.0063c-1.405 0-2.127-1.0633-2.127-2.5823 0-1.481.703-2.6772 2.127-2.6772 1.367 0 2.088 1.1013 2.088 2.6772 0 1.6139-.74 2.5823-2.088 2.5823z"/><path d="m114.121 43.1203 1.082.3038c-.341 1.1012-1.424 1.8417-2.905 1.8417-2.107 0-3.398-1.5-3.398-3.7405s1.31-3.7974 3.284-3.7974c1.519 0 3.133.9303 3.133 3.6455v.4747h-5.292c.052 1.5617.958 2.4114 2.273 2.4114.878 0 1.538-.3797 1.823-1.1392zm-1.937-4.3861c-1.281 0-2.084 1.0111-2.159 2.1456h4.153c0-1.2342-.778-2.1456-1.994-2.1456z"/></g><path d="m118.142 40.7279c0-1.2722.788-1.9937 1.86-1.9937 1.04 0 1.671.6788 1.671 1.8228v4.5569h1.121v-4.6329c0-1.8607-.993-2.7531-2.469-2.7531-1.101 0-1.785.4936-2.126 1.2341h-.095v-1.1392h-1.083v7.2911h1.121z"/><path clip-rule="evenodd" d="m129.72 43.1203 1.083.3038c-.342 1.1012-1.424 1.8417-2.905 1.8417-2.108 0-3.399-1.5-3.399-3.7405s1.31-3.7974 3.285-3.7974c1.519 0 3.133.9303 3.133 3.6455v.4747h-5.293c.052 1.5617.959 2.4114 2.274 2.4114.878 0 1.538-.3797 1.822-1.1392zm-1.936-4.3861c-1.282 0-2.084 1.0111-2.16 2.1456h4.153c0-1.2342-.778-2.1456-1.993-2.1456z" fill-rule="evenodd"/><path d="m135.792 37.8228h-1.557v-1.7468h-1.121v1.7468h-1.101v.9494h1.101v4.5569c0 1.2722 1.026 1.8798 1.975 1.8798.418 0 .684-.076.835-.1329l-.227-1.0064-.034.0069c-.096.02-.24.0501-.46.0501-.494 0-.968-.1519-.968-1.1013v-4.2531h1.557z"/><path d="m138.597 45.1139h-1.12v-7.2911h1.12z"/><path d="m138.844 35.8481c0 .4177-.361.7595-.798.7595-.436 0-.797-.3418-.797-.7595s.361-.7595.797-.7595c.437 0 .798.3418.798.7595z"/><path d="m143.611 45.2658c1.614 0 2.677-.9873 2.867-2.2784h-1.12c-.209.7974-.874 1.2721-1.747 1.2721-1.329 0-2.184-1.1013-2.184-2.7911 0-1.6519.874-2.7342 2.184-2.7342.987 0 1.576.6076 1.747 1.2721h1.12c-.19-1.367-1.348-2.2784-2.886-2.2784-1.975 0-3.285 1.5569-3.285 3.7784 0 2.1836 1.253 3.7595 3.304 3.7595z"/><path d="m150.698 37.7279c1.443 0 2.231.693 2.582 1.7278l-1.006.2848c-.195-.5031-.598-1.0443-1.576-1.0443-.893 0-1.557.4557-1.557 1.0823 0 .5601.389.8497 1.253 1.0633l1.082.2658c1.301.318 1.937.9589 1.937 1.9747 0 1.2579-1.154 2.1835-2.848 2.1835-1.491 0-2.511-.6598-2.772-1.8987l1.063-.2658c.199.7832.774 1.1772 1.69 1.1772 1.044 0 1.709-.5127 1.709-1.1392 0-.5032-.347-.8545-1.083-1.0254l-1.215-.2848c-1.338-.3133-1.936-.9873-1.936-1.9936 0-1.2342 1.139-2.1076 2.677-2.1076z"/></g></svg>