<svg fill="none" height="48" viewBox="0 0 163 48" width="163" xmlns="http://www.w3.org/2000/svg"><path d="m60 0h1v48h-1z" fill="#e0e0e0"/><g fill="#212121"><path clip-rule="evenodd" d="m74.8 22v-14h5.96c.9467 0 1.7934.20667 2.54.62.76.41333 1.3467.98 1.7601 1.7.4266.7067.6399 1.5.6399 2.38s-.2133 1.68-.6399 2.4c-.4134.7067-1.0001 1.2667-1.7601 1.68-.7466.4133-1.5933.62-2.54.62h-2.96v4.6zm5.86-7.3c.5734 0 1.0534-.1933 1.44-.58.4-.4.6-.8733.6-1.42s-.2-1.0133-.6-1.4c-.3866-.4-.8666-.6-1.44-.6h-2.86v4z" fill-rule="evenodd"/><path d="m87.2008 8v14h2.7v-5.1c0-.6667.1933-1.2067.58-1.62.4-.4267.9067-.64 1.52-.64.5333 0 .9667.18 1.3.54.3333.3467.5.82.5 1.42v5.4h2.7v-5.76c0-.8533-.16-1.5867-.48-2.2-.3067-.6267-.7333-1.1067-1.28-1.44s-1.1733-.5-1.88-.5c-.6667 0-1.26.1667-1.78.5-.5067.32-.88.68-1.12 1.08h-.06v-5.68z"/><path clip-rule="evenodd" d="m102.395 12.1c.827 0 1.56.1733 2.2.52.654.3333 1.16.7933 1.52 1.38.36.5733.54 1.2067.54 1.9v6.1h-2.56v-1.34h-.06c-.24.3867-.62.74-1.14 1.06s-1.113.48-1.78.48c-.613 0-1.1664-.1267-1.6597-.38-.48-.2533-.86-.5933-1.14-1.02-.28-.44-.42-.9067-.42-1.4 0-.8267.26-1.5067.78-2.04s1.26-.8933 2.2197-1.08l3.06-.58c-.026-.3867-.2-.7133-.52-.98-.306-.28-.7-.42-1.18-.42-.826 0-1.58.38-2.2597 1.14l-1.54-1.48c.4266-.5067.9733-.94 1.6397-1.3.68-.3733 1.447-.56 2.3-.56zm-.5 7.94c.587 0 1.074-.2067 1.46-.62.4-.4133.6-.9533.6-1.62v-.32l-2.1.42c-.373.0667-.666.2067-.88.42-.213.2-.32.4267-.32.68 0 .3067.107.56.32.76.227.1867.534.28.92.28z" fill-rule="evenodd"/><path d="m108.659 12.3v9.7h2.7v-4.56c0-.7867.22-1.4133.66-1.88.44-.48 1.007-.72 1.7-.72.28 0 .58.0533.9.16v-2.9h-.46c-.613 0-1.166.1467-1.66.44-.48.28-.84.6-1.08.96h-.06v-1.2z"/><path d="m115.816 22v-9.7h2.7v1.38h.06c.186-.4.52-.76 1-1.08.48-.3333 1.046-.5 1.7-.5.666 0 1.246.1733 1.74.52.493.3333.84.7067 1.04 1.12h.08c.226-.4133.633-.7867 1.22-1.12.6-.3467 1.286-.52 2.06-.52.626 0 1.193.1667 1.7.5.52.3333.933.8133 1.24 1.44.306.6267.46 1.36.46 2.2v5.76h-2.7v-5.5c0-.5867-.154-1.04-.46-1.36-.294-.3333-.674-.5-1.14-.5-.534 0-.974.1933-1.32.58-.347.3867-.52.9133-.52 1.58v5.2h-2.7v-5.5c0-.5867-.154-1.04-.46-1.36-.294-.3333-.674-.5-1.14-.5-.547 0-.994.1933-1.34.58-.347.3867-.52.9133-.52 1.58v5.2z"/><path clip-rule="evenodd" d="m138.916 12.62c-.64-.3467-1.374-.52-2.2-.52-.854 0-1.62.1867-2.3.56-.667.36-1.214.7933-1.64 1.3l1.54 1.48c.68-.76 1.433-1.14 2.26-1.14.48 0 .873.14 1.18.42.32.2667.493.5933.52.98l-3.06.58c-.96.1867-1.7.5467-2.22 1.08s-.78 1.2133-.78 2.04c0 .4933.14.96.42 1.4.28.4267.66.7667 1.14 1.02.493.2533 1.046.38 1.66.38.666 0 1.26-.16 1.78-.48s.9-.6733 1.14-1.06h.06v1.34h2.56v-6.1c0-.6933-.18-1.3267-.54-1.9-.36-.5867-.867-1.0467-1.52-1.38zm-1.24 6.8c-.387.4133-.874.62-1.46.62-.387 0-.694-.0933-.92-.28-.214-.2-.32-.4533-.32-.76 0-.2533.106-.48.32-.68.213-.2133.506-.3533.88-.42l2.1-.42v.32c0 .6667-.2 1.2067-.6 1.62z" fill-rule="evenodd"/><path clip-rule="evenodd" d="m157.334 22.2c-.96 0-1.84-.2267-2.64-.68-.787-.4533-1.414-1.0667-1.88-1.84-.454-.7733-.68-1.62-.68-2.54s.226-1.7667.68-2.54c.466-.7733 1.093-1.38 1.88-1.82.8-.4533 1.68-.68 2.64-.68.973 0 1.853.2267 2.64.68.8.44 1.426 1.0467 1.88 1.82.453.7733.68 1.62.68 2.54s-.227 1.7667-.68 2.54c-.454.7733-1.08 1.3867-1.88 1.84-.787.4533-1.667.68-2.64.68zm0-2.5c.68 0 1.26-.2467 1.74-.74s.72-1.1.72-1.82-.24-1.32-.72-1.8c-.48-.4933-1.06-.74-1.74-.74s-1.26.2467-1.74.74c-.467.48-.7 1.08-.7 1.8s.233 1.3267.7 1.82c.48.4933 1.06.74 1.74.74z" fill-rule="evenodd"/><path d="m144.804 22h-3.02l3.34-5-3.08-4.7h3.12l1.76 2.96h.06l1.78-2.96h3.02l-3.08 4.7 3.32 5h-3.12l-2.02-3.28h-.06z"/><path d="m114.475 39h1.088v-11.2h-1.088z"/><path clip-rule="evenodd" d="m109.344 31.16c.587 0 1.104.128 1.552.384.459.256.816.6133 1.072 1.072.256.448.384.9653.384 1.552v4.832h-1.04v-1.232h-.016c-.202.352-.544.672-1.024.96s-1.029.432-1.648.432c-.501 0-.949-.1013-1.344-.304-.384-.2027-.688-.4693-.912-.8-.213-.3413-.32-.704-.32-1.088 0-.6187.214-1.136.64-1.552.427-.4267 1.03-.704 1.808-.832l2.784-.464v-.016c0-.576-.181-1.04-.544-1.392-.352-.352-.816-.528-1.392-.528-.448 0-.842.1013-1.184.304-.33.192-.65.448-.96.768l-.72-.688c.32-.3947.726-.7253 1.216-.992.491-.2773 1.04-.416 1.648-.416zm-.608 7.008c.47 0 .896-.112 1.28-.336.395-.224.704-.528.928-.912.224-.3947.336-.832.336-1.312v-.544l-2.528.416c-.544.096-.949.2667-1.216.512-.266.2453-.4.5493-.4.912 0 .352.144.6507.432.896.299.2453.688.368 1.168.368z" fill-rule="evenodd"/><path d="m102.63 38.504c.373.384.896.576 1.568.576.213 0 .421-.0267.624-.08.203-.0427.368-.096.496-.16v-1.056c-.341.16-.667.24-.976.24-.363 0-.651-.112-.864-.336-.203-.224-.304-.544-.304-.96v-4.352h1.888v-1.056h-1.888v-2.56h-.976v1.824c0 .2453-.059.432-.176.56-.107.1173-.256.176-.448.176h-.976v1.056h1.488v4.416c0 .7467.181 1.3173.544 1.712z"/><path d="m98.1284 39v-7.68h1.088v7.68z"/><path d="m98.6724 29.64c-.192 0-.3627-.0693-.512-.208-.1387-.1387-.208-.3093-.208-.512s.0693-.3733.208-.512c.1493-.1387.32-.208.512-.208.2027 0 .3733.0693.512.208.1493.1387.224.3093.224.512s-.0747.3733-.224.512c-.1387.1387-.3093.208-.512.208z"/><path clip-rule="evenodd" d="m90.2872 41.848c.608.3413 1.2586.512 1.952.512.6933 0 1.3173-.1707 1.872-.512.5653-.3413 1.008-.8107 1.328-1.408.32-.5867.48-1.248.48-1.984v-7.136h-1.088v1.28h-.016c-.224-.3627-.576-.6933-1.056-.992s-1.024-.448-1.632-.448c-.6294 0-1.2107.1653-1.744.496-.5334.3307-.96.7893-1.28 1.376-.3094.5867-.464 1.2427-.464 1.968s.1546 1.3813.464 1.968c.32.5867.7466 1.0453 1.28 1.376.5333.3307 1.1146.496 1.744.496.544 0 1.0613-.128 1.552-.384.4906-.2667.8693-.624 1.136-1.072h.016v1.072c0 .832-.24 1.5147-.72 2.048s-1.104.8-1.872.8c-.5227 0-1.0187-.1333-1.488-.4-.4587-.2667-.7894-.5547-.992-.864l-.784.72c.2666.3947.704.7573 1.312 1.088zm3.264-4.416c-.384.2347-.816.352-1.296.352-.4587 0-.8854-.1173-1.28-.352-.384-.2453-.688-.576-.912-.992-.224-.4267-.336-.9067-.336-1.44s.112-1.0133.336-1.44.528-.7573.912-.992c.3946-.2347.8213-.352 1.28-.352.48 0 .912.1173 1.296.352.3946.2347.704.5653.928.992.2346.4267.352.9067.352 1.44s-.1174 1.0133-.352 1.44c-.224.416-.5334.7467-.928.992z" fill-rule="evenodd"/><path d="m86.9696 39h-1.088v-7.68h1.088z"/><path d="m86.4256 29.64c-.192 0-.3627-.0693-.512-.208-.1387-.1387-.208-.3093-.208-.512s.0693-.3733.208-.512c.1493-.1387.32-.208.512-.208.2026 0 .3733.0693.512.208.1493.1387.224.3093.224.512s-.0747.3733-.224.512c-.1387.1387-.3094.208-.512.208z"/><path clip-rule="evenodd" d="m74.696 27.8v11.2h3.472c1.088 0 2.0747-.2507 2.96-.752.896-.5013 1.6-1.1787 2.112-2.032.512-.864.768-1.8027.768-2.816s-.256-1.9467-.768-2.8c-.512-.864-1.216-1.5467-2.112-2.048-.8853-.5013-1.872-.752-2.96-.752zm5.856 9.472c-.704.3947-1.4986.592-2.384.592h-2.272v-8.928h2.272c.8854 0 1.68.1973 2.384.592.704.384 1.2534.9173 1.648 1.6.4054.6827.608 1.44.608 2.272s-.2026 1.5893-.608 2.272c-.3946.672-.944 1.2053-1.648 1.6z" fill-rule="evenodd"/></g><path d="m14.483 26.6626c-.5528 0-.9951-.3869-.9951-.9397 0-.258.129-.5712.3686-.8845l13.2668-16.63875c.9213-1.14245 2.4322-.36854 1.8794 1.05025l-4.3854 11.8296h8.1996c.5528 0 .995.3684.995.9213 0 .2763-.1289.5896-.3684.8844l-13.2668 16.6572c-.9214 1.124-2.4323.3685-1.8796-1.0503l4.3855-11.8295z" fill="#1565c0"/><path clip-rule="evenodd" d="m48 24.0092c0 13.1194-10.8714 23.9908-24.0092 23.9908-13.1194 0-23.9908-10.8714-23.9908-23.9908 0-13.1378 10.853-24.0092 23.9724-24.0092 13.1377 0 24.0276 10.8714 24.0276 24.0092zm-44.55432 0c0 11.3873 9.15772 20.5635 20.54512 20.5635 11.4057 0 20.5635-9.1762 20.5635-20.5635 0-11.4058-9.1762-20.56353-20.5819-20.56353-11.3874 0-20.52672 9.15773-20.52672 20.56353z" fill="#1565c0" fill-rule="evenodd"/></svg>