<svg fill="none" height="45" viewBox="0 0 165 45" width="165" xmlns="http://www.w3.org/2000/svg"><g fill="#fff"><path clip-rule="evenodd" d="m10.7817 27.5535h-1.94834c-4.87074 0-8.83336-3.9631-8.83336-8.8342v-18.7193h3.78755v7.53149c1.4629-1.03086 3.22383-1.59011 5.04581-1.59011h1.94834c4.8707 0 8.8334 3.96262 8.8334 8.83362v3.9443c0 4.8711-3.9627 8.8342-8.8334 8.8342zm-1.94834-17.82457c-2.78243 0-5.04581 2.26357-5.04581 5.04607v3.9443c0 2.7824 2.26338 5.0464 5.04581 5.0464h1.94834c2.782 0 5.0458-2.264 5.0458-5.0464v-3.9443c0-2.7825-2.2638-5.04607-5.0458-5.04607z" fill-rule="evenodd"/><path d="m56.8107 27.5152h-.8954c-4.8339 0-8.767-3.9335-8.767-8.7681v-18.570539h3.7708v5.865439c1.9249.00553 3.1728.02872 3.1728.02872l.4175.00765v3.76032l-3.5903.00341v8.905c0 2.7555 2.2413 4.9965 4.9962 4.9965h.8954z"/><path d="m75.6714 27.5273h-3.7222v-12.6915c0-2.7552-2.2415-4.99668-4.9967-4.99668-2.7545 0-4.996 2.24148-4.996 4.99668v12.6794h-3.7712v-27.338639h3.7712v7.461929c1.4495-1.01767 3.1926-1.57011 4.996-1.57011 4.8076 0 8.7189 3.93302 8.7189 8.76742z"/><path d="m46.4634 27.4818h-.7977c-4.8195 0-8.7404-3.9213-8.7404-8.7412v-3.9465c0-2.8384-2.3092-5.14771-5.1473-5.14771h-1.949c-2.8382 0-5.1473 2.30931-5.1473 5.14771v3.9465c0 2.8381 2.3091 5.1472 5.1473 5.1472h1.949c1.3733 0 2.6814-.5294 3.6839-1.4929l.8407-.836.2304.6184c.3125.8388.749 1.6261 1.298 2.3404l.2306.3004-.2716.264c-1.5918 1.5473-3.7269 2.3997-6.012 2.3997h-1.949c-4.8199 0-8.7406-3.9213-8.7406-8.7412v-3.9465c0-4.8199 3.9207-8.74104 8.7406-8.74104h1.949c4.8195 0 8.7404 3.92114 8.7404 8.74104v3.9465c0 2.8381 2.3091 5.1472 5.1473 5.1472h.7977z"/><path d="m146.968 21.7993c-.663 0-1.283-.3599-1.619-.9379-.935-1.6167-1.428-3.4572-1.428-5.3221 0-5.87334 4.779-10.65175 10.655-10.65175 1.03 0 1.869.84132 1.869 1.87537 0 1.03448-.841 1.8758-1.875 1.8758-3.805 0-6.9 3.09578-6.9 6.90058 0 1.208.32 2.3997.926 3.4476.163.2812.248.605.248.936 0 1.0344-.841 1.8764-1.876 1.8764z"/><path d="m150.73 11.3922c-1.114 1.0324-1.812 2.508-1.812 4.1471 0 1.0283.278 1.9909.759 2.8232.269.4661.415 1.0022.415 1.5604 0 1.2485-.732 2.3255-1.79 2.8264 1.451.4485 3.078.3144 4.498-.5045.891-.5144 1.585-1.236 2.065-2.0699.269-.4658.66-.8598 1.144-1.1391 1.081-.6241 2.38-.5288 3.343.1379-.337-1.4815-1.267-2.8235-2.686-3.6434-.891-.5143-1.864-.7545-2.824-.7539-.539 0-1.076-.1414-1.56-.4212-1.081-.6241-1.648-1.7962-1.552-2.963z"/><path d="m149.986 28c-3.803 0-7.343-2.0426-9.24-5.3298-.515-.8922-.205-2.0387.69-2.555.87-.5023 2.065-.1762 2.561.6847 1.23 2.129 3.522 3.4513 5.983 3.4513 1.203 0 2.395-.3202 3.443-.9254 1.047-.6037 1.919-1.4774 2.523-2.5267.164-.2812.401-.5169.688-.682.867-.5027 2.064-.1751 2.561.6865.332.5749.331 1.2922-.003 1.8711-.932 1.6167-2.278 2.9647-3.893 3.8975-1.618.9341-3.455 1.4278-5.313 1.4278z"/><path d="m161.444 26.69c-.328 0-.654-.087-.941-.2535-.896-.5172-1.204-1.6659-.687-2.5612 1.901-3.2953.769-7.5236-2.526-9.4262-1.044-.6027-2.234-.9213-3.443-.9213-.33 0-.653-.0877-.941-.2536-.895-.5174-1.203-1.6669-.686-2.5625.331-.5739.953-.9315 1.622-.93299 1.87 0 3.709.49219 5.323 1.42419 2.462 1.4218 4.224 3.7193 4.961 6.4696.736 2.7494.358 5.6206-1.065 8.0843-.332.5757-.952.9332-1.617.9332z"/><path d="m102.229 27.4818h-.799c-4.8198 0-8.7403-3.9213-8.7403-8.7412v-3.9465c0-2.8383-2.3087-5.14767-5.1469-5.14767h-1.9492c-2.8386 0-5.1475 2.30937-5.1475 5.14767v3.9465c0 2.8382 2.3089 5.1473 5.1475 5.1473h1.9492c1.3729 0 2.6814-.5295 3.6837-1.4929l.8403-.836.2306.6184c.3135.84.7503 1.6277 1.2982 2.3404l.2306.3003-.271.264c-1.5926 1.5474-3.7275 2.3997-6.0124 2.3997h-1.9492c-4.8201 0-8.7408-3.9213-8.7408-8.7412v-3.9465c0-4.81986 3.9207-8.741 8.7408-8.741h1.9492c4.8199 0 8.7406 3.92114 8.7406 8.741v3.9465c0 2.8382 2.3087 5.1473 5.1466 5.1473h.799z"/><path d="m104.079 27.4818h-.799v-3.5939h.799c2.837 0 5.146-2.3091 5.146-5.1473v-3.9465c0-4.81986 3.921-8.741 8.741-8.741h.798v3.59333h-.798c-2.838 0-5.147 2.30937-5.147 5.14767v3.9465c0 4.8199-3.921 8.7412-8.74 8.7412z"/><path d="m128.748 27.4818h.004l.178-.0034c4.707-.1082 8.536-4.0287 8.536-8.7378v-12.68729h-3.594v12.68729c0 2.8288-2.3 5.1377-5.125 5.1473-2.837 0-5.146-2.3091-5.146-5.1473v-12.68729h-3.594v12.68729c0 4.8161 3.921 8.7372 8.741 8.7412z"/><path clip-rule="evenodd" d="m63.577 33.6v8.4h.9v-3.144h2.244c.52 0 .988-.116 1.404-.348.424-.232.756-.548.996-.948.24-.408.36-.852.36-1.332s-.12-.92-.36-1.32c-.24-.408-.572-.728-.996-.96-.416-.232-.884-.348-1.404-.348zm4.476 3.9c-.344.336-.788.504-1.332.504h-2.244v-3.552h2.244c.36 0 .68.08.96.24.28.152.5.364.66.636.16.264.24.564.24.9 0 .512-.176.936-.528 1.272z" fill-rule="evenodd"/><path clip-rule="evenodd" d="m56.9993 36.12c.44 0 .828.096 1.164.288.344.192.612.46.804.804.192.336.288.724.288 1.164v3.624h-.78v-.924h-.012c-.152.264-.408.504-.768.72s-.772.324-1.236.324c-.376 0-.712-.076-1.008-.228-.288-.152-.516-.352-.684-.6-.16-.256-.24-.528-.24-.816 0-.464.16-.852.48-1.164.32-.32.772-.528 1.356-.624l2.088-.348v-.012c0-.432-.136-.78-.408-1.044-.264-.264-.612-.396-1.044-.396-.336 0-.632.076-.888.228-.248.144-.488.336-.72.576l-.54-.516c.24-.296.544-.544.912-.744.368-.208.78-.312 1.236-.312zm-.456 5.256c.352 0 .672-.084.96-.252.296-.168.528-.396.696-.684.168-.296.252-.624.252-.984v-.408l-1.896.312c-.408.072-.712.2-.912.384s-.3.412-.3.684c0 .264.108.488.324.672.224.184.516.276.876.276z" fill-rule="evenodd"/><path d="m70.6654 42v-8.4h.816v3.564h.012c.152-.272.396-.512.732-.72.344-.216.728-.324 1.152-.324.44 0 .836.104 1.188.312s.628.5.828.876.3.808.3 1.296v3.396h-.816v-3.396c0-.504-.152-.912-.456-1.224-.296-.312-.676-.468-1.14-.468-.336 0-.64.084-.912.252-.272.16-.488.384-.648.672s-.24.612-.24.972v3.192z"/><path clip-rule="evenodd" d="m79.3072 36.12c.44 0 .828.096 1.164.288.344.192.6119.46.8039.804.192.336.288.724.288 1.164v3.624h-.78v-.924h-.012c-.152.264-.4079.504-.7679.72s-.772.324-1.236.324c-.376 0-.7121-.076-1.0081-.228-.288-.152-.516-.352-.684-.6-.16-.256-.2399-.528-.2399-.816 0-.464.1599-.852.4799-1.164.32-.32.7721-.528 1.3561-.624l2.0879-.348v-.012c0-.432-.1359-.78-.4079-1.044-.264-.264-.612-.396-1.044-.396-.336 0-.632.076-.888.228-.248.144-.488.336-.72.576l-.5401-.516c.24-.296.5441-.544.9121-.744.3679-.208.78-.312 1.236-.312zm-.456 5.256c.3519 0 .6719-.084.9599-.252.296-.168.528-.396.696-.684.168-.296.252-.624.252-.984v-.408l-1.8959.312c-.408.072-.712.2-.9121.384-.2.184-.2999.412-.2999.684 0 .264.108.488.324.672.224.184.5159.276.876.276z" fill-rule="evenodd"/><path d="m83.0952 42v-5.76h.816v.9h.012c.152-.264.396-.5.732-.708.344-.208.732-.312 1.164-.312h.264v.84c-.112-.016-.224-.024-.336-.024-.336 0-.644.084-.924.252s-.504.4-.672.696c-.16.296-.24.628-.24.996v3.12z"/><path d="m86.9671 42v-5.76h.816v.888h.012c.12-.256.328-.488.624-.696.304-.208.664-.312 1.08-.312.44 0 .824.12 1.152.36s.56.504.696.792h.024c.128-.288.364-.552.708-.792.352-.24.772-.36 1.26-.36.392 0 .748.104 1.068.312.328.2.588.488.78.864.192.368.288.796.288 1.284v3.42h-.816v-3.42c0-.512-.136-.916-.408-1.212-.272-.304-.616-.456-1.032-.456-.456 0-.836.172-1.14.516-.296.336-.444.788-.444 1.356v3.216h-.816v-3.42c0-.512-.14-.916-.42-1.212-.272-.304-.616-.456-1.032-.456-.456 0-.836.172-1.14.516-.296.336-.444.788-.444 1.356v3.216z"/><path clip-rule="evenodd" d="m99.0908 36.12c.4399 0 .828.096 1.1642.288.344.192.612.46.804.804.192.336.288.724.288 1.164v3.624h-.78v-.924h-.012c-.152.264-.408.504-.7682.72-.36.216-.772.324-1.236.324-.376 0-.7121-.076-1.0081-.228-.288-.152-.516-.352-.684-.6-.16-.256-.2399-.528-.2399-.816 0-.464.1599-.852.4799-1.164.32-.32.7721-.528 1.3561-.624l2.0882-.348v-.012c0-.432-.136-.78-.408-1.044-.2642-.264-.6122-.396-1.0442-.396-.336 0-.632.076-.888.228-.248.144-.488.336-.7201.576l-.54-.516c.2401-.296.5441-.544.9121-.744.3679-.208.78-.312 1.236-.312zm-.456 5.256c.352 0 .6719-.084.9599-.252.296-.168.5283-.396.6963-.684.168-.296.252-.624.252-.984v-.408l-1.8962.312c-.408.072-.712.2-.9121.384-.2.184-.2999.412-.2999.684 0 .264.108.488.324.672.2239.184.5159.276.876.276z" fill-rule="evenodd"/><path d="m103.062 42h-.936l2.148-3-1.968-2.76h.972l1.524 2.196h.024l1.512-2.196h.948l-1.968 2.76 2.148 3h-.984l-1.692-2.436h-.024z"/><path clip-rule="evenodd" d="m110.724 42.12c-.528 0-1.016-.132-1.464-.396-.448-.272-.804-.636-1.068-1.092s-.396-.96-.396-1.512.132-1.056.396-1.512.62-.816 1.068-1.08c.448-.272.936-.408 1.464-.408s1.016.136 1.464.408c.448.264.804.624 1.068 1.08s.396.96.396 1.512-.132 1.056-.396 1.512-.62.82-1.068 1.092c-.448.264-.936.396-1.464.396zm0-.792c.384 0 .736-.096 1.056-.288.328-.192.584-.456.768-.792.192-.344.288-.72.288-1.128s-.096-.78-.288-1.116c-.184-.344-.44-.612-.768-.804-.32-.192-.672-.288-1.056-.288s-.74.096-1.068.288c-.32.192-.576.46-.768.804-.184.336-.276.708-.276 1.116s.092.784.276 1.128c.192.336.448.6.768.792.328.192.684.288 1.068.288z" fill-rule="evenodd"/><path d="m119.815 42.12c-.52 0-1.004-.132-1.452-.396-.44-.272-.792-.636-1.056-1.092-.256-.456-.384-.96-.384-1.512s.128-1.056.384-1.512c.264-.456.616-.816 1.056-1.08.448-.272.932-.408 1.452-.408.528 0 .992.12 1.392.36.408.232.728.504.96.816l-.6.492c-.472-.584-1.056-.876-1.752-.876-.376 0-.724.096-1.044.288-.312.192-.564.46-.756.804-.184.336-.276.708-.276 1.116s.092.784.276 1.128c.192.336.444.6.756.792.32.192.668.288 1.044.288.392 0 .736-.088 1.032-.264s.544-.388.744-.636l.6.492c-.232.32-.556.6-.972.84-.408.24-.876.36-1.404.36z"/><path clip-rule="evenodd" d="m125.656 42.12c-.528 0-1.016-.132-1.464-.396-.448-.272-.804-.636-1.068-1.092s-.396-.96-.396-1.512.132-1.056.396-1.512.62-.816 1.068-1.08c.448-.272.936-.408 1.464-.408s1.016.136 1.464.408c.448.264.804.624 1.068 1.08s.396.96.396 1.512-.132 1.056-.396 1.512-.62.82-1.068 1.092c-.448.264-.936.396-1.464.396zm0-.792c.384 0 .736-.096 1.056-.288.328-.192.584-.456.768-.792.192-.344.288-.72.288-1.128s-.096-.78-.288-1.116c-.184-.344-.44-.612-.768-.804-.32-.192-.672-.288-1.056-.288s-.74.096-1.068.288c-.32.192-.576.46-.768.804-.184.336-.276.708-.276 1.116s.092.784.276 1.128c.192.336.448.6.768.792.328.192.684.288 1.068.288z" fill-rule="evenodd"/><path d="m129.785 36.24h.816v.888h.012c.12-.256.328-.488.624-.696.304-.208.664-.312 1.08-.312.44 0 .824.12 1.152.36s.56.504.696.792h.024c.128-.288.364-.552.708-.792.352-.24.772-.36 1.26-.36.392 0 .748.104 1.068.312.328.2.588.488.78.864.192.368.288.796.288 1.284v3.42h-.816v-3.42c0-.512-.136-.916-.408-1.212-.272-.304-.616-.456-1.032-.456-.456 0-.836.172-1.14.516-.296.336-.444.788-.444 1.356v3.216h-.816v-3.42c0-.512-.14-.916-.42-1.212-.272-.304-.616-.456-1.032-.456-.456 0-.836.172-1.14.516-.296.336-.444.788-.444 1.356v3.216h-.816z"/><path clip-rule="evenodd" d="m139.833 44.52v-8.28h.816v.996h.012c.16-.288.428-.544.804-.768.376-.232.808-.348 1.296-.348.48 0 .924.132 1.332.396.416.256.748.612.996 1.068s.372.968.372 1.536-.124 1.08-.372 1.536-.58.816-.996 1.08c-.408.256-.852.384-1.332.384-.488 0-.92-.112-1.296-.336-.376-.232-.644-.492-.804-.78h-.012v3.516zm2.832-3.192c.352 0 .68-.096.984-.288s.544-.456.72-.792c.184-.336.276-.712.276-1.128 0-.424-.092-.804-.276-1.14-.176-.336-.416-.596-.72-.78-.304-.192-.632-.288-.984-.288-.368 0-.708.096-1.02.288-.304.184-.548.444-.732.78-.176.336-.264.716-.264 1.14 0 .416.088.792.264 1.128.184.336.428.6.732.792.312.192.652.288 1.02.288z" fill-rule="evenodd"/><path clip-rule="evenodd" d="m148.734 36.12c.44 0 .828.096 1.164.288.344.192.612.46.804.804.192.336.288.724.288 1.164v3.624h-.78v-.924h-.012c-.152.264-.408.504-.768.72s-.772.324-1.236.324c-.376 0-.712-.076-1.008-.228-.288-.152-.516-.352-.684-.6-.16-.256-.24-.528-.24-.816 0-.464.16-.852.48-1.164.32-.32.772-.528 1.356-.624l2.088-.348v-.012c0-.432-.136-.78-.408-1.044-.264-.264-.612-.396-1.044-.396-.336 0-.632.076-.888.228-.248.144-.488.336-.72.576l-.54-.516c.24-.296.544-.544.912-.744.368-.208.78-.312 1.236-.312zm-.456 5.256c.352 0 .672-.084.96-.252.296-.168.528-.396.696-.684.168-.296.252-.624.252-.984v-.408l-1.896.312c-.408.072-.712.2-.912.384s-.3.412-.3.684c0 .264.108.488.324.672.224.184.516.276.876.276z" fill-rule="evenodd"/><path d="m152.522 36.24h.816v.924h.012c.152-.272.396-.512.732-.72.344-.216.728-.324 1.152-.324.44 0 .836.104 1.188.312s.628.5.828.876.3.808.3 1.296v3.396h-.816v-3.396c0-.504-.152-.912-.456-1.224-.296-.312-.676-.468-1.14-.468-.336 0-.64.084-.912.252-.272.16-.488.384-.648.672s-.24.612-.24.972v3.192h-.816z"/><path d="m162.896 36.24h.852l-2.484 6.66c-.208.56-.46.968-.756 1.224-.288.264-.656.396-1.104.396-.248 0-.476-.048-.684-.144v-.792c.072.04.16.076.264.108.112.032.228.048.348.048.496 0 .856-.288 1.08-.864l.348-.864-2.544-5.772h.888l2.076 4.764h.024z"/></g></svg>