<svg fill="none" height="48" viewBox="0 0 113 48" width="113" xmlns="http://www.w3.org/2000/svg"><g fill="#00a3e0"><path d="m31.4399 3.16814h-1.3838l1.4706 10.81826h1.2495l4.2044-8.82418h.0299l1.0781 8.82418h1.2499l5.2708-10.81826h-1.3696l-4.1291 8.73486h-.0297l-1.1382-8.73486h-1.2501l-4.2113 8.77946h-.0297z"/><path d="m47.0943 3.16814h-1.2057l-1.9077 10.81826h1.2057l.9576-5.43124c.212-.18852.4456-.37471.7013-.55839.2554-.18315.5276-.34967.8165-.49812.2892-.14899.5933-.27026.9131-.36469.3191-.09408.6423-.1413.9694-.1413.2085 0 .4373.022.6873.06671.2501.04472.4713.1413.6632.29029.1918.14899.3358.36219.4307.63959.0945.27813.0968.64497.0066 1.10159l-.8633 4.89556h1.2051l.9054-5.1338c.1172-.66446.0882-1.19048-.0864-1.57735-.1749-.38705-.416-.67697-.7243-.8705-.3084-.19352-.6416-.31479-.9997-.36451-.3586-.04972-.6566-.07441-.8948-.07441-.6945 0-1.3339.13898-1.9186.41639-.5849.27812-1.1166.59559-1.5965.95259z"/><path clip-rule="evenodd" d="m62.1828 12.3643c-.235.2084-.4813.4241-.7389.6475-.2577.2232-.5584.4239-.9025.6027-.3439.1782-.7494.3248-1.2159.4388-.4663.1141-1.0322.1711-1.6963.1711-.6549 0-1.2343-.1041-1.7381-.3124-.5042-.2084-.9165-.4989-1.2375-.8707-.3218-.3717-.5439-.8133-.667-1.3243-.1239-.5108-.1323-1.064-.0272-1.6592.1081-.61513.3161-1.17531.6235-1.6813.3073-.50599.6836-.93775 1.1284-1.29475.4449-.35683.9449-.63245 1.4996-.82597.5553-.19317 1.1304-.28993 1.7256-.28993.6248 0 1.2025.08424 1.7333.25291.5309.16866.9759.42908 1.3357.78107.3594.35235.6121.80361.7579 1.35431.1461.55035.1461 1.21266-.0002 1.98636h-7.6484c-.035.3672-.0037.7216.0952 1.0641.098.3421.2652.6473.5006.9152.2356.2677.5373.4811.9063.6398.3688.1588.8061.238 1.3123.238.5058 0 .9411-.0495 1.3062-.149.3641-.0987.6791-.2252.9445-.379.2649-.154.4928-.3199.6827-.4988.1905-.1787.3581-.342.5039-.4912zm-.548-3.05057c-.004-.3173-.0655-.61724-.1839-.89984-.1189-.28313-.2939-.5287-.5248-.73707-.2311-.20837-.519-.37399-.864-.4983-.3456-.12377-.7466-.18583-1.2029-.18583-.8925 0-1.6285.20801-2.208.62475-.5791.41674-1.0164.98229-1.3108 1.69629z" fill-rule="evenodd"/><path d="m66.409 6.20409h-1.2055l-1.3724 7.78231h1.2054l.8215-4.65784c.0202-.05938.1278-.20587.3228-.43892.195-.23287.4468-.48095.7562-.74369.3091-.26292.6632-.49883 1.0621-.7072.3985-.20802.8116-.31247 1.238-.31247.2579 0 .4613.01503.6099.04472.1483.02969.2613.0499.3391.05973l.2129-1.20532c-.1921-.03971-.4266-.05956-.7044-.05956-.3872 0-.7519.05956-1.0955.17832-.3435.11912-.6625.27044-.9576.45412-.2954.18369-.5691.38455-.8207.6024-.2521.21856-.4846.42675-.6981.62511z"/><g clip-rule="evenodd" fill-rule="evenodd"><path d="m78.7146 12.3643c-.2352.2084-.4816.4241-.7388.6475-.258.2232-.5586.4239-.9027.6027-.3438.1782-.7494.3248-1.2159.4388-.4661.1141-1.032.1711-1.6968.1711-.6545 0-1.2338-.1041-1.7376-.3124-.5042-.2084-.9165-.4989-1.2381-.8707-.3214-.3717-.5434-.8133-.6666-1.3243-.1238-.5108-.1324-1.064-.0272-1.6592.1084-.61513.3162-1.17531.6237-1.6813.3071-.50599.6834-.93775 1.1284-1.29475.4446-.35683.9449-.63245 1.4997-.82597.555-.19317 1.1301-.28993 1.7253-.28993.6249 0 1.2028.08424 1.7337.25291.5308.16866.9756.42908 1.3355.78107.3591.35235.6119.80361.7578 1.35431.146.55035.146 1.21266-.0002 1.98636h-7.6488c-.0347.3672-.0032.7216.0953 1.0641.0984.3421.2651.6473.5006.9152.2356.2677.5377.4811.9068.6398.3687.1588.8062.238 1.3121.238s.941-.0495 1.3061-.149c.3643-.0987.6794-.2252.9447-.379.2649-.154.4926-.3199.6827-.4988.1903-.1787.3582-.342.5038-.4912zm-.5483-3.05057c-.0036-.3173-.0653-.61724-.1837-.89984-.1188-.28313-.2939-.5287-.5248-.73707-.2311-.20837-.519-.37399-.8642-.4983-.3454-.12377-.7464-.18583-1.2025-.18583-.8929 0-1.629.20801-2.2085.62475-.5792.41674-1.0163.98229-1.3107 1.69629z"/><path d="m33.1761 21.214h-1.8156l-1.8916 10.7286h1.8451l.6296-3.5711c.174.139.3484.2753.523.4093.1751.1338.3745.2531.5993.357.2247.1043.483.1858.7756.2455.2915.0598.641.0895 1.0479.0895.5654 0 1.1204-.097 1.6661-.2905.5444-.1932 1.0409-.4757 1.4882-.8481.4477-.3719.8325-.8256 1.1555-1.3615.3223-.5357.5432-1.1406.6621-1.8152.1068-.6053.1062-1.1655-.0009-1.6818-.1073-.5155-.3146-.9598-.621-1.3316-.3064-.3719-.7065-.6645-1.1991-.8779-.4932-.2133-1.067-.3199-1.7216-.3199-.4366 0-.8328.0499-1.1873.1486-.3549.0994-.6702.216-.9467.3497-.2767.1339-.5151.2754-.7149.424-.1998.149-.3584.2731-.4745.3722zm-.4666 5.9372c-.1642-.1388-.323-.2774-.4772-.4166l.5484-3.1099c.16-.119.3357-.2431.5269-.3719.1914-.1288.4058-.2481.6432-.3575.2371-.109.494-.198.7689-.2676.2752-.0694.5816-.1041.9188-.1041.3573 0 .6943.0572 1.0112.1712.3171.1141.5876.2826.8113.5058.2234.2232.3848.5036.4842.8408.0991.3371.1096.729.0309 1.1755-.0769.4365-.2223.8234-.4355 1.1604-.2135.3375-.4661.6178-.7585.8412-.2921.223-.6144.3916-.9669.5056-.3527.1145-.7069.1711-1.0644.1711-.3171 0-.5992-.0347-.8448-.104-.2455-.0691-.4653-.1585-.6594-.2678-.1941-.1095-.3731-.2332-.5371-.3722z"/><path d="m48.7654 27.9101c-.0471.2677-.0828.5235-.1054.7666-.023.2431-.0143.4189.0261.528h-1.8899c-.0054-.1386-.0067-.2728-.0036-.4017.0025-.1288.0164-.2628.0413-.4016-.218.1091-.4572.2279-.7181.357-.2608.129-.5464.2458-.8575.3499-.3114.1042-.6415.1904-.9908.2602-.3501.069-.7228.1043-1.1195.1043-.2676 0-.5724-.0328-.9133-.097-.3407-.0647-.6567-.186-.9474-.3647-.2913-.1781-.5205-.4238-.6884-.7365-.1683-.3123-.2085-.7165-.1209-1.2125.0785-.4466.2506-.8333.5169-1.1606.2661-.3278.5911-.6077.9741-.8408.3834-.233.8132-.4216 1.2901-.5655.477-.1438.9661-.263 1.4693-.3574.5022-.0939 1.0053-.1608 1.5086-.2007.5026-.0397.9705-.0744 1.4019-.1041l.0633-.3573c.0539-.3071-.0556-.5579-.3291-.7514-.2732-.1935-.7919-.2898-1.5557-.2898-.4269 0-.78.0346-1.0599.104-.2802.0692-.5063.1563-.6784.2602-.1724.1043-.3042.2182-.3951.3423-.0912.1243-.1615.2406-.2107.3495h-1.9193c.205-.5451.486-.9842.8421-1.3166.3562-.3325.7438-.5904 1.1631-.7739.4192-.1833.8476-.3051 1.2845-.3647.4372-.0594.8441-.089 1.2213-.089.9621 0 1.6902.1039 2.1844.3122.4936.2086.8381.4642 1.0329.7663.1944.3028.2863.6253.276.9674-.011.3422-.0408.6525-.0897.9301zm-1.3627-2.7378c-.5389.0199-1.0503.0648-1.5336.1338-.4834.0696-.9535.1588-1.4088.2676-.5997.1393-1.0548.313-1.364.521-.3098.2086-.5004.4861-.5711.8331-.0714.3475-.0125.6203.1755.8188.1881.1986.5106.2975.9669.2975.3471 0 .6834-.0345 1.0078-.1043.3248-.0694.6327-.1561.924-.2601.2912-.1044.5611-.216.8108-.3348.2486-.1189.4722-.233.67-.3425z"/></g><path d="m52.4731 21.482h-1.4285l-.278 1.5773h1.4284l-.7217 4.0919c-.0769.4366-.0821.8034-.0154 1.1011.0662.2979.1978.5358.3949.7147.196.1785.4586.3071.7872.3868.3284.0795.7106.119 1.1472.119.159 0 .3105-.0029.4555-.0079.1444-.005.295-.0148.4511-.0295.1565-.015.3236-.0347.5019-.0596.1774-.0248.3836-.0522.6169-.0817l.286-1.6221c-.2503.0698-.5375.1244-.8621.1637-.3247.0397-.5758.0596-.7545.0596-.2679 0-.4802-.0347-.6367-.1041-.1565-.0691-.2717-.1585-.3472-.2678-.0745-.1094-.1169-.2354-.1261-.3797-.0094-.1433-.0019-.2846.0224-.4239l.6457-3.6605h2.7828l.278-1.5773h-2.7829l.4591-2.6042h-1.845z"/><path d="m58.7104 21.214h1.8449l-1.409 7.9907h-1.8449z"/><path d="m59.2559 18.1189h1.845l-.2887 1.6367h-1.8447z"/><path clip-rule="evenodd" d="m69.5564 27.5086c.2162-.2978.3539-.5309.4137-.6996h-2.0238c-.1953.3179-.4992.5928-.912.826-.4133.2331-.9125.3493-1.4976.3493-.5621-.0193-.9967-.1264-1.3053-.3194-.3082-.1935-.5303-.4116-.6659-.655-.1357-.2429-.2142-.4858-.2359-.729-.022-.2429-.0307-.4291-.0277-.5581h7.0082c.1277-.724.1513-1.3788.0712-1.9642-.0803-.5852-.2678-1.0839-.5624-1.4956-.2945-.4115-.6995-.7313-1.2146-.9599-.5153-.2277-1.1491-.3468-1.9009-.3568-.7346 0-1.3995.1142-1.9951.3421-.5956.2286-1.114.5384-1.5547.9301-.4418.392-.7991.8433-1.0724 1.3539-.274.5114-.4606 1.0494-.5598 1.6148-.1104.6247-.1079 1.2006.0078 1.7259.1156.5261.3359.9771.6616 1.354.3252.3772.7519.6721 1.2798.8853.5278.2134 1.1489.3204 1.8633.3204.744 0 1.3904-.1095 1.9401-.3273.5492-.2184 1.0132-.4713 1.391-.7591.3781-.2876.6755-.5802.8914-.8778zm-1.5758-4.6501c.3916.2825.5971.7612.6171 1.4358h-4.9848c.1578-.3868.3468-.6995.5674-.9374.2201-.2382.4544-.4264.7025-.5655.2474-.1388.5017-.2331.7639-.2828.2615-.0494.5114-.074.7493-.074.6648 0 1.1929.1411 1.5846.4239z" fill-rule="evenodd"/><path d="m72.6231 21.214h1.8156l-.1764.9971c.1737-.1389.3599-.2827.56-.4315.1994-.149.4298-.2851.6895-.4094.2603-.1238.5509-.2256.8723-.3052.3214-.079.6857-.1187 1.0926-.1187.4164 0 .804.0499 1.1639.1486.3595.0994.6621.2677.9079.5058.2457.2382.4169.5607.5142.9674.0966.4069.0919.9129-.0149 1.5178l-.9023 5.1188h-1.8451l.7816-4.4343c.14-.7934.1121-1.3663-.0839-1.7188-.196-.352-.6061-.528-1.2314-.528-.3667 0-.6904.0347-.9705.1041-.2801.0696-.5269.1615-.7405.2753-.2135.1139-.402.2405-.5655.3793-.1635.1394-.317.278-.4602.4166l-.9707 5.5058h-1.8453z"/><path d="m83.0664 21.482h-1.4287l-.2778 1.5773h1.4284l-.7217 4.0919c-.0769.4366-.0819.8034-.0154 1.1011.0662.2979.1978.5358.3949.7147.1963.1785.4586.3071.787.3868.3286.0795.7108.119 1.1472.119.1585 0 .3107-.0029.4552-.0079.1443-.005.2955-.0148.4518-.0295.1558-.015.3234-.0347.5015-.0596.1778-.0248.3833-.0522.6173-.0817l.2858-1.6221c-.2502.0698-.538.1244-.8625.1637-.3244.0397-.5757.0596-.754.0596-.2682 0-.4803-.0347-.6366-.1041-.1565-.0691-.2726-.1585-.3473-.2678-.0748-.1094-.1172-.2354-.1261-.3797-.0095-.1433-.0022-.2846.0223-.4239l.6459-3.6605h2.7825l.2779-1.5773h-2.7825l.4592-2.6042h-1.8455z"/><path d="m94.7485 23.6692c-.0536-.0891-.1298-.2057-.2282-.3497-.0991-.1436-.2382-.2827-.4178-.4165-.1797-.134-.4101-.2479-.6911-.3424-.281-.0942-.6301-.1413-1.0463-.1413-.3379 0-.6257.0299-.8639.0893-.239.0596-.4361.1365-.5917.2307-.1558.0945-.2729.1984-.3521.3123-.0798.1143-.1294.2259-.1485.3348-.0281.159-.0036.2855.0742.3796.0775.0946.1928.1736.3449.2382.1524.0646.3393.1141.5616.1486.2219.0349.4684.0723.7394.1116.5332.0696 1.0447.1515 1.5339.2458.4891.0944.9113.233 1.2659.4164.354.1838.6191.4266.7936.729.1749.3032.2184.7024.1313 1.198-.0683.3872-.1967.7217-.3853 1.0043-.1888.2828-.4119.521-.6694.7145-.257.1934-.5378.3497-.8412.4686-.3042.1191-.6104.2107-.9191.2755-.3088.0644-.6044.1062-.8857.1266-.2812.0197-.5307.0297-.7487.0297-.6849 0-1.2517-.0624-1.701-.1858-.4496-.1242-.8192-.2807-1.108-.4688-.2889-.1889-.5198-.3994-.6918-.6328-.1725-.2329-.3245-.454-.4559-.662l1.722-.9079c.1132.2583.261.4763.4423.655.1825.1783.3906.3196.6251.4239.2345.1039.4894.1783.7643.2232.2747.0447.5557.0667.8435.0667.2482 0 .487-.0193.7176-.0592.23-.0391.4389-.0989.6265-.1785s.3445-.1808.4704-.3051c.1261-.1238.2048-.2753.2363-.4538.0263-.149.0128-.27-.0397-.3645-.0532-.0941-.1635-.1711-.3316-.2309-.1678-.0595-.4037-.1141-.708-.1635-.3035-.0495-.6923-.1091-1.1661-.1788-.7364-.0989-1.3282-.2306-1.7759-.3944-.447-.1631-.7848-.3568-1.0136-.58-.2284-.2232-.3663-.4688-.413-.7364-.0472-.2679-.0433-.5557.0106-.8635.037-.208.1309-.4588.2813-.7514.1508-.2924.3885-.5704.7124-.8331.3243-.2629.7485-.4885 1.2729-.6772.5241-.1881 1.1734-.2826 1.9473-.2826.2278 0 .5094.0197.8449.0594.3352.0397.6797.1241 1.0343.2529.3538.1293.6997.3202 1.0372.5731.3372.2531.618.5875.8421 1.0043z"/><path d="m36.6045 38.6273c.1048.1935.1896.3599.2543.4988l1.1467-.5954c-.105-.2479-.2467-.501-.4241-.7589-.1776-.2579-.4108-.4858-.6979-.6848-.2874-.198-.6405-.3617-1.0596-.4906-.4187-.1288-.9204-.1936-1.5054-.1936-.6054 0-1.1939.0893-1.7659.268-.5723.1783-1.0921.4389-1.5587.781-.4676.3424-.8653.7714-1.1948 1.2873-.3289.516-.5518 1.106-.6691 1.7705-.1034.5858-.0953 1.1314.024 1.6369.1191.506.3443.9447.6755 1.3169.3309.3721.7555.665 1.2735.878.518.2134 1.1288.32 1.8333.32.6052 0 1.1465-.0592 1.624-.1787.477-.1189.9002-.2826 1.2695-.4911.3688-.2082.6963-.4463.9814-.7138.2855-.268.5386-.5507.7598-.8487l-.9393-.5802c-.2715.3573-.5436.6501-.8171.8782-.2734.2284-.5557.4092-.847.543-.2914.1339-.5883.2282-.8909.2826-.3021.0551-.6119.0819-.9294.0819-.4761 0-.9066-.0766-1.2911-.2306-.3846-.1536-.7024-.3646-.9528-.6324-.2502-.2677-.43-.5852-.5384-.9524-.1089-.367-.1257-.7637-.0506-1.1901.0998-.5656.2797-1.0515.5401-1.4588.2597-.4065.5667-.7383.9194-.9968.3529-.2577.7338-.4464 1.1413-.5653.4083-.119.8154-.1784 1.2223-.1784.4859 0 .8891.0619 1.2094.1859.3205.1239.584.2751.7908.4539.2067.1785.3618.3643.4668.5577z"/><path clip-rule="evenodd" d="m42.8169 44.6614c-.665 0-1.2554-.0944-1.7728-.2828-.5174-.1881-.9426-.4636-1.2756-.8259-.3329-.362-.5618-.8085-.6865-1.3391-.1246-.5305-.1266-1.1386-.0057-1.8229.0977-.5554.2958-1.0762.5954-1.5624.2985-.4858.6731-.9077 1.1232-1.265.45-.3569.9709-.6395 1.5634-.848.5919-.2086 1.2304-.3125 1.9151-.3125.6845 0 1.2833.1039 1.7971.3125.5141.2085.9355.4911 1.2644.848.3285.3573.5544.7792.6773 1.265.1222.4862.1349 1.007.0372 1.5624-.1211.6843-.3373 1.2924-.6491 1.8229-.3119.5306-.6984.9771-1.159 1.3391-.4607.3623-.9805.6378-1.5591.8259-.5791.1884-1.201.2828-1.8653.2828zm.1814-1.0268c.5058 0 .9748-.0742 1.4081-.2234.4325-.1483.8146-.357 1.1446-.6246.3299-.2677.6027-.5927.8188-.9746.2162-.3818.3652-.8059.4475-1.2724.0631-.357.0674-.7192.0132-1.0865-.0546-.3667-.1873-.6992-.3972-.9968-.2106-.2976-.5073-.543-.8891-.7367-.3828-.1932-.8668-.2898-1.4518-.2898-.5854 0-1.1036.0966-1.5541.2898-.4511.1937-.8344.4391-1.1496.7367-.3153.2976-.5673.6301-.756.9968-.1889.3673-.3142.7295-.3774 1.0865-.0823.4665-.0801.8906.0063 1.2724.0862.3819.2475.7069.4829.9746.2354.2676.5432.4763.924.6246.3801.1492.8236.2234 1.3298.2234z" fill-rule="evenodd"/><path d="m51.4035 36.6411h-1.1607l-1.3724 7.7824h1.2057l.9917-5.6249c.1497-.1193.3302-.2577.542-.4169.2114-.1585.4509-.3069.7184-.4461.2676-.1387.559-.2579.8741-.3575.3152-.0989.6462-.1483.9936-.1483.4165 0 .7261.0718.929.2156.203.1441.3387.3151.4081.5133.0689.1987.0955.3996.0798.6026-.0161.2035-.0345.3648-.0556.4836l-.9129 5.1786h1.2049l.992-5.6249c.15-.1193.3303-.2577.5423-.4169.2116-.1585.4509-.3069.7183-.4461.2677-.1387.5564-.2579.8664-.3575.3105-.0989.6338-.1483.9715-.1483.4262 0 .7434.0718.951.2156.208.1441.3465.3151.4157.5133.0692.1987.0958.3996.0799.6026-.0161.2035-.0349.3648-.0558.4836l-.9129 5.1786h1.2052l.9919-5.6249c.1-.5653.0608-1.0066-.1161-1.3244-.1774-.3173-.4085-.5552-.6923-.7144-.2846-.1586-.5822-.2577-.8925-.2972-.3109-.0399-.5548-.0598-.7337-.0598-.2876 0-.5621.0249-.824.0744-.262.0501-.5264.1292-.7932.2381-.2674.1095-.5457.2508-.8335.4241-.2894.1738-.6099.3893-.9626.6474-.0551-.1388-.1224-.2904-.203-.4537-.08-.164-.2-.3148-.3592-.454-.1586-.1388-.369-.2529-.6313-.3423-.2621-.0891-.6064-.134-1.0326-.134-.6449 0-1.233.1267-1.7633.3797-.5309.2528-1.0528.5679-1.5652.9446z"/><path clip-rule="evenodd" d="m72.0722 42.8015c-.2354.2083-.4819.4239-.7392.6473-.2574.2232-.5581.4239-.9025.6025-.344.1785-.7489.3252-1.2156.4391-.4663.1138-1.0325.171-1.6973.171-.6543 0-1.2336-.1039-1.7376-.3123-.5035-.2083-.9161-.4988-1.2381-.8708-.3207-.3717-.5434-.8131-.6664-1.3243-.1232-.5108-.132-1.064-.027-1.6593.108-.6149.3162-1.1754.6237-1.6812.3071-.5062.6834-.9376 1.1284-1.2946.445-.3572.9451-.6324 1.4999-.8261.555-.193 1.1302-.29 1.7252-.29.625 0 1.2029.0843 1.7337.2529.5305.1691.9753.4291 1.3355.7813.3594.3525.6121.8034.758 1.3539.1458.5506.1456 1.2129-.0009 1.9866h-7.6483c-.0352.3674-.0028.7217.0952 1.0642.0982.3422.2647.6471.5006.9149.2352.2681.5373.4815.9066.6398.3687.1591.8065.2382 1.3123.2382.506 0 .941-.0495 1.306-.149.3645-.0985.6792-.2252.9448-.379.2652-.1538.4927-.32.6828-.4988.19-.1787.3581-.3422.5035-.4912zm-.5484-3.0508c-.0034-.3173-.0649-.6172-.1835-.9-.1188-.283-.2939-.5284-.5251-.7367-.2311-.2082-.5191-.3744-.8641-.4983-.3457-.124-.746-.1859-1.2023-.1859-.8927 0-1.6292.2079-2.2085.6246-.5797.4169-1.0163.9823-1.3112 1.6963z" fill-rule="evenodd"/><path d="m81.0985 38.2776-1.0839 6.1459h1.8454l1.0836-6.1459h2.8717l.2779-1.5772h-2.8715l.0969-.5505c.0229-.1289.0644-.2676.1252-.4167.0612-.1487.1592-.2851.2955-.4093.1359-.1237.32-.2255.5527-.3049.2318-.0794.5353-.1138.9107-.1043.0993 0 .1959.0027.2887.0075.0941.0049.1958.0147.3078.0297.1111.0149.2465.0372.4048.0671.1584.0297.3512.0744.5787.134l.2782-1.5777c-.1916-.0394-.369-.0741-.5321-.104-.1635-.0295-.3204-.0543-.4708-.0742-.1501-.0198-.3012-.0347-.4534-.0449-.1515-.0096-.3171-.0148-.4956-.0148-.0993 0-.2461.0027-.4404.0075-.1938.005-.4124.0299-.6528.0742-.2411.0447-.4915.1145-.7512.2086-.2597.0946-.5046.233-.7355.4165-.2309.1839-.4355.4166-.6143.6995-.1787.2826-.3041.6273-.3756 1.034l-.1628.9227h-1.7709l-.2781 1.5772z"/><path d="m87.9709 36.4325h1.8449l-1.4085 7.991h-1.8455z"/><path d="m88.5164 33.3374h1.8451l-.2883 1.6367h-1.8451z"/><path d="m93.8042 36.4325h-1.8451l-1.4089 7.991h1.8453l.7474-4.2409c.0245-.1389.0732-.33.1458-.5732.0721-.2427.2032-.4785.3921-.7069.1894-.228.4577-.4289.8059-.6027.3477-.1733.8147-.2602 1.4001-.2602.3073 0 .5469.02.7181.0595.1721.0401.3008.0696.3863.0893l.3517-1.9939c-.0959-.0197-.193-.0297-.2923-.0297h-.3572c-.3967 0-.7544.0447-1.0727.1337-.3182.0897-.6046.2063-.8579.3497-.2536.1442-.4725.303-.6565.4763-.1844.1735-.3406.3398-.4676.4983h-.0447z"/><path d="m104.159 38.8875c-.053-.0889-.13-.2053-.228-.3495-.099-.1436-.238-.2825-.418-.4163-.18-.1344-.41-.2483-.691-.3425-.281-.0941-.63-.1415-1.046-.1415-.338 0-.626.0302-.865.0894-.238.0597-.435.1365-.59.2305-.157.0945-.274.1986-.3532.3125-.0796.1145-.1291.2259-.1484.3348-.0281.1589-.0035.2855.0742.3796.0776.0946.1924.174.3454.238.152.0648.339.1147.561.149.222.0349.468.0721.739.1115.534.0695 1.045.1514 1.534.2459.49.0942.911.2327 1.266.4162.355.1838.619.4267.794.7294.175.3026.219.702.131 1.1976-.068.387-.196.7217-.385 1.0043-.189.2828-.412.521-.669.7143-.258.1938-.538.3501-.842.4688-.304.1192-.61.2107-.919.2755-.309.0645-.604.1064-.885.1264-.282.0199-.531.0299-.749.0299-.685 0-1.252-.0622-1.7011-.186-.4496-.124-.8188-.2805-1.108-.4686-.289-.1884-.5199-.3992-.6918-.6326-.1724-.2331-.3245-.454-.4563-.6622l1.7222-.9079c.1134.2583.2612.4763.4427.6548.1819.1785.3903.3198.6248.4241.2345.1039.4895.1783.7645.2234.275.0444.556.0669.843.0669.248 0 .488-.0197.718-.0597.23-.0394.439-.0991.627-.1784.187-.0796.344-.181.47-.3051.126-.1238.205-.2756.236-.4538.026-.1488.013-.2702-.04-.3645-.053-.0942-.163-.171-.331-.2309-.168-.0595-.404-.1141-.708-.1635-.304-.0495-.692-.1091-1.166-.1786-.737-.0991-1.3286-.2306-1.7761-.3942-.4468-.1637-.7852-.357-1.0134-.5802-.2286-.2236-.3663-.469-.4131-.7368-.0474-.2677-.0433-.5553.0107-.8635.0366-.208.1305-.4584.2813-.751s.3881-.5706.7121-.8333c.3244-.2631.7483-.4885 1.2725-.6772.524-.188 1.174-.2826 1.947-.2826.229 0 .51.0199.846.0596.335.0393.679.1241 1.034.2531.354.1288.7.32 1.037.5727.337.2531.618.5875.842 1.0043z"/><path d="m108.176 36.7005h-1.429l-.278 1.5771h1.429l-.722 4.0921c-.077.437-.082.8035-.015 1.1011.066.2979.197.5357.394.7143.197.1787.46.3075.787.3873.329.079.711.1189 1.148.1189.158 0 .31-.0027.455-.0075.144-.0052.295-.0149.452-.0297.156-.0152.323-.0352.501-.0596.178-.0248.383-.052.617-.0819l.286-1.622c-.25.0695-.538.1243-.862.1636-.325.0399-.576.0596-.754.0596-.268 0-.481-.0345-.637-.1039-.157-.0696-.272-.1587-.347-.268-.075-.1091-.117-.2354-.126-.3793-.01-.1438-.002-.2853.022-.4241l.646-3.6609h2.782l.278-1.5771h-2.782l.459-2.604h-1.845z"/></g><g clip-rule="evenodd" fill="#97999b" fill-rule="evenodd"><path d="m21.5545 5.06403c-.0084.07047.0168.26811.0168.26811s.4088-.06206.578.22554c.1698.29029.5817.89161 1.3066 1.78.7219.89142 1.0379 2.42871 1.1338 3.43852.096 1.0127.5781 4.7167.9165 6.6628.3389 1.9491.7002 4.9535.6519 5.388-.0476.4317-2.8489 1.0325-2.8489 1.0325s-.0706.9388-.2176 1.1087c-.137.1587-.123.6045-.0994 1.3553.0012.0363.0023.0733.0035.111.0132.4731-.0773 1.1385-.1517 1.6855-.0544.3991-.1001.7351-.0907.8874.0033.0467.007.1098.0114.1859.0297.5124.0935 1.611.3043 2.2178.2402.699.5309 3.4891.4093 4.9783-.0545.6689-.1083 1.4631-.16 2.2267-.0637.9401-.1242 1.8339-.179 2.3912-.0513.5429-.005 1.141.0335 1.6382.0331.4279.0605.781.0148.9598-.0719.2874.046.5619.1193.7327.0246.0572.0442.1028.0499.1333.0256.1182-.2652.4089-.2652.4089s.2425.793.147 1.0101c-.0993.2172-1.6925.361-1.7632.1914-.0508-.1169-.4148-.0255-.8429.082-.1894.0476-.3914.0983-.5844.1355-.6045.1171-1.9542.1211-2.5261-.0538.0133.3072.0051.5186-.0212.5366-.0737.0481-.3212.0586-.3212.0586s.2475.7482-.1079.9516c-.3578.1997-1.6835.2475-1.9345.1774-.1257-.0354-.2839-.19-.4268-.3298-.1427-.1396-.2702-.2643-.3349-.2402-.0442.0159-.0908.0475-.144.0835-.1064.072-.2389.1617-.4291.1783l-.2876.0229s-.2735.2368-.7981.2737c-.5247.0339-1.467.0481-1.7324-.1184-.074-.0471-.1327-.095-.185-.1377-.133-.1086-.2247-.1834-.4211-.1249-.2735.0844-1.15671.0959-1.76626-.0109-.60865-.1077-1.27776-.5586-1.24056-1.0583.03613-.4987.58326-.5695.85727-.5809.07906-.004.20085-.0077.33756-.0119.34107-.0105.77509-.0239.86955-.0502.0541-.0138.04478-.1145.03078-.2657-.01969-.2127-.04864-.5255.07671-.8372.21445-.5358.39188-1.8531.41746-2.4117.02058-.5022-.1805-2.2322-.28088-3.0958l-.02962-.2558c-.03007-.2547-.11627-.5801-.21086-.9373-.17045-.6434-.36813-1.3897-.31373-2.0103.06296-.7393-.18228-1.5768-.34277-2.1248-.04831-.165-.08895-.3037-.11117-.4057-.09587-.4392-.42908-3.018-.44303-3.6247-.00244-.1304-.00989-.2976-.01861-.4936-.03162-.7099-.08-1.7963.03256-2.8686.14434-1.3655.41763-1.9604.41763-1.9604s-.40887.0168-.24003-.4515l.01538-.0416c.21789-.5903.70963-1.9226.69863-2.768-.01127-.8689 0-2.1186 0-2.1186s-1.24986.793-1.70416.604c-.45359-.1892-.74996-1.1764-.77535-1.6391-.02236-.4629.34662-1.3906.67948-2.0307.15741-.3017.23304-.8979.31578-1.5502.09371-.7389.19656-1.5498.43775-2.0862.45143-1.0096 1.38221-1.1424 1.38221-1.1424s.77288-.1468 1.02108-.3017c.251-.1526.1129-.8492.1129-.8492s-.4769-.1442-.584-.28528c-.10695-.14363-.05919-.40297.0367-.59471.0582-.11789.0438-.23148.0328-.31806-.0066-.05226-.012-.09468.0006-.12229.037-.07064.144-.08138.144-.08138s-.107-.22589-.0478-.31049c.0197-.02692.0408-.05266.0602-.07638.0396-.04831.0724-.08826.0724-.11286v-.03648s-.2622-.20014-.203-.31873c.0446-.09103.2031-.19925.3404-.29294.0458-.0313.0893-.06097.1253-.08785.1408-.10695.3098-.29654.3441-.39223.0141-.03715.0121-.08483.0098-.14091-.0036-.08893-.0081-.19899.0489-.32162.0959-.20336.2513-.4289.2513-.4289s-.0817-.51028.4429-.9027c.5247-.39187 1.6449-.55839 2.5755-.19173.9308.3697 1.6362 1.03523 1.8617 1.86763.1023.37107.082.93081.0605 1.52554-.0266.73424-.0551 1.52187.1426 2.07367.0655.1825.1282.3464.1869.4923.1444-.4254.2854-.8011.3962-1.0963.0668-.17812.1226-.32693.1616-.4397.1608-.46294.4104-.83394.5711-1.0728.0988-.1468.164-.24369.1544-.28134-.0287-.09569-.0453-.35521.1858-.47111.2336-.11536.7532-.5609.7532-.5609s-.2229-.15006-.3753-.41763c-.039-.06864-.0745-.13783-.109-.20516-.1005-.19565-.1928-.37555-.3396-.48041-.1001-.07278-.264-.13413-.4432-.20118-.1743-.06524-.3631-.13589-.5215-.22772-.3113-.17884-.2144-.48259-.159-.65608.0023-.00713.0045-.01404.0066-.02072.0349-.11012.009-.20459-.0157-.29451-.0132-.0484-.0261-.09548-.029-.14297-.0086-.13236.2059-.23949.2059-.23949s-.2599-.09873-.1895-.19478c.0737-.09873.1895-.39206.1895-.39206s-.2145-.13557-.2878-.32194c-.0527-.13924.1135-.26408.2941-.39965.0609-.04571.1234-.09264.1797-.14175.2259-.19746.2511-.26793.2259-.40333-.0288-.13235-.0537-.24825.1518-.52477.2066-.27633.6237-.87139.562-.95331-.0624-.078878-.195-.614916-.0456-.67698.1518-.062063 1.7181-.434446 2.6943-.2933267.973.1438017 1.8501.6233207 2.0279 1.2382367.1806.61509-.0623 1.79144-.3749 2.54729-.225.54253-.5458.91229-.712 1.10384-.0654.07532-.1068.12309-.1091.14298zm-5.1642 26.05337c-.2545.8168-.4689 1.6942-.5001 2.0592-.0374.4361-.1693 1.1039-.2308 1.4148-.0173.0876-.029.1469-.0314.1647-.0057.0411.0411.1525.1096.3153.0727.1728.1697.4035.254.6695.2511.7866.46 1.2722.6856 1.7261.1535.3074.2691 1.3838.3496 2.355.001-.0053.002-.0107.0031-.016.1467-.745.2677-3.3683.2427-4.234-.0094-.3167.0299-.5497.0612-.7355.0544-.3225.0848-.5028-.205-.7322-.4602-.3607-.5559-.8658-.6289-1.3933-.0308-.222-.0696-.8404-.1096-1.5936zm.6931 9.4366c.0102.1396.0194.2703.0278.3882l.0062.0875c.0224.3058.021.6474.0154 1.0014.019-.0587.0385-.118.058-.177.1133-.3435.2225-.6743.1775-.7986-.0251-.0695-.0702-.1373-.1205-.2129-.055-.0827-.1163-.1747-.1644-.2886zm.0389 2.454c.002.2239.0094.4442.0271.6553.1404-.0601.2441-.1056.2441-.1056s-.1405-.2929-.2712-.5497z"/><path d="m.00028417 47.4584c.00804861.1553.18905283.1637.23949083.1637.015112 0 .041494.011.079261.0267.089182.0373.241846.101.459459.1088.088739.0024.202342.0069.327055.0118h.00113c.31141.0123.692.0274.92758.0188.16283-.0052.36886.0414.57946.089.21986.0497.44481.1006.63069.0947l.01981-.0004c.34445-.0078.4417-.01.52964-.2673.03971-.1184.03971-.2172.03971-.2172s.41495-.1218.72545.0419c.30996.1665.76712.2684 1.05776.2883.29011.0223.50742-.3388.41424-.7822-.09301-.4451-.12413-.9191 0-1.2999.01893-.0584.05151-.1476.0929-.2609.23045-.6309.73399-2.0095.6744-2.9804-.04819-.7565-.23189-1.418-.38118-1.9556-.07676-.2764-.14443-.5201-.1799-.7271-.10159-.6093-.13539-.8234-.08191-1.6192.05097-.7957.05097-.9899.05097-.9899s.71615-.1043.71615-.2597c0-.0608-.02666-.1636-.06458-.3099-.0569-.2195-.13917-.5368-.19477-.9565-.093-.7027-.15489-1.1398-.42586-1.9976-.26811-.8571-.71919-1.2266-.71919-1.2266s-.08191-.1102-.07941-.1918c.0019-.0336.01402-.0769.0292-.1311.02019-.0722.04578-.1637.05993-.2773.34418-.0108.91973-.0445 1.2904-.1475.51887-.1463.77839-.2792.8714-.6709.07828-.329.00956-.767-.08775-1.3871-.01874-.1194-.03854-.2456-.05856-.3791-.08791-.582-.21604-1.1029-.31663-1.5118-.04185-.1702-.07894-.3209-.10637-.4486-.04005-.1858-.06286-.3414-.08327-.4806-.02698-.1841-.04979-.3396-.10274-.4989-.03298-.0957-.06202-.1645-.08593-.2138-.01468-.0542-.04227-.1234-.08935-.2117-.06572-.1198-.34903-.198-.52268-.246-.04279-.0118-.07892-.0218-.1035-.0301l-.00099-.0003c-.12342-.0395-.17735-.0568-.31791-.1212-.10696-.0509-.21159-.1352-.21159-.1352s-.12413-.1245-.17493-.2908c-.05061-.1635-.08191-.2985-.08191-.2985s.22607.1238.3502.135c.12717.0115.37507.0115.46825-.0311.09319-.0426.2259-.0621.30978-.0426.08228.0227.21767.0118.32213-.0613.10123-.0708.12359-.4747.12359-1.1347 0-.0937.00103-.1952.00212-.3026.0066-.6488.01539-1.5135-.18778-2.1937-.2402-.7954-.70523-1.4867-1.3992-1.5486-.69433-.0619-1.00429.093-1.00429.093s-.98497.144-1.6387.6094c-.59615.4259-.60469.745-.60821.8766-.00033.0124-.00062.023-.00134.032-.00943.096-.02643.2101-.04297.3212-.02767.1859-.05405.3631-.04163.4322.01004.0505.02811.0931.04856.1413.0251.0592.05379.1268.07557.2278.04239.1864-.03953.3331-.13289.4969-.02293.0408-.04774.0803-.07151.1182-.07285.1161-.13603.2167-.1061.2932.03432.0824.09867.1162.14404.14.01824.0096.03341.0176.04233.0265.03112.0313.03112.155-.00876.2876-.0434.1421.02452.1967.08512.2454.01405.0113.02776.0223.03954.034.01814.0181-.00823.0607-.03544.1047-.00633.0103-.0127.0206-.01857.0307-.03077.0509.01127.1522.07369.2056.0617.051.12395.1129.10391.2258-.02235.1128-.04221.3106.07351.4231.09676.0966.39823.0279.60151-.0185l.00102-.0003c.0338-.0077.06487-.0147.0918-.0203.18601-.0426.23717-.0936.23717-.0936s.01037.2062-.05116.257c-.02004.0164-.04187.0438-.06914.0781-.05692.0715-.13754.1727-.27516.2657-.05415.0363-.12051.0871-.19181.1456-.01415.0085-.02832.0175-.04249.0268-.04923.033-.10422.0635-.16075.0948-.21904.1213-.46121.2555-.48095.601-.10494.2131-.29438.6362-.37082 1.0166-.13009.6463-.13283.8436-.13775 1.1983l-.00033.0231c-.00359.1832.00565.3703.0152.5641.01282.2598.02621.5314.01002.8207-.00634.1315.00032.2757.00881.4595.01426.3088.03369.7296.00532 1.3911-.0191.4824-.11418.7701-.16945.9373-.0265.0802-.04385.1327-.03927.1657.01413.0848.07601.2229.07601.2229s-.12127.6092-.12967.776c-.00618.1088-.01905.2115-.0315.3107-.02104.1679-.04087.3261-.02502.4876.00798.0829.03186.197.05906.327.0587.2806.13291.6353.09637.911-.05016.3955-.19399.7749-.2272.8625l-.0012.0032c-.03113.0825.11536.1637.28188.2261.16383.0619.32999.0735.32999.0735s.20569.8342.35235 1.1762l.03238.0762c.15737.3699.45451 1.0681.43319 1.4439-.01968.4037-.01127.6206.12162 1.0018.01724.0499.03611.0978.05435.1441.06196.1572.11664.296.07532.4314-.05079.1746-.21713 1.176-.26256 2.3805-.0037.1077-.00716.2157-.01061.3233-.03062.9544-.06003 1.8713-.23765 2.1957-.12557.2335-.26574.2865-.44755.3553-.09917.0375-.21073.0796-.33906.1584-.03108.0193-.0633.0399-.09673.0612-.20026.1278-.4443.2836-.741046.3729-.104938.0314-.212913.0437-.310164.0547-.19845.0226-.35225796.0402-.34445583.2046zm5.56570583-16.8295c-.01992.0109-.03998.0215-.0601.0319l.0009-.0149c.01299-.2252.04457-.3915.0742-.5475.01522-.0801.02993-.1576.04134-.2389.03094-.2204.23394-.508.28456-.5589.01878-.0185.01932-.0179.0226-.0142.00356.0041.01033.0118.04708.0027.02202.1204.08964.4731.15908.6607.01667.046.03123.0839.04342.1156.04753.1237.05889.1533.01846.2031-.04103.0478-.25644.1616-.45765.2678-.06079.0322-.12093.0639-.17389.0926zm.67125-1.4636c-.03409.0307-.07201.0503-.10835.0628.0694-.0355.12865-.0926.17755-.1674-.02084.0445-.04401.0819-.0692.1046zm-2.47396 17.6167s0-.5227.16329-1.4021c.06821-.3674.1783-.7512.28668-1.129.15223-.5307.30108-1.0496.32573-1.4947.02668-.4542-.0017-.8122-.02404-1.0941-.01512-.1908-.02748-.3467-.01817-.4741.01986-.3134.08693-.4344.08693-.4344s.28259.4144.3502 1.2185c.05111.6366.02153 1.1223-.00974 1.6357-.00833.137-.0168.276-.02388.4203-.03399.6863-.28546 1.8197-.40351 2.1357-.12144.3138-.73349.6182-.73349.6182z"/></g></svg>