<svg fill="none" height="16" viewBox="0 0 94 16" width="94" xmlns="http://www.w3.org/2000/svg"><path d="m58.4162 15.7039h-.4563c-2.7543 0-4.9946-2.2408-4.9946-4.995v-2.25513c0-1.62193-1.3192-2.94154-2.941-2.94154h-1.1138c-1.6221 0-2.9415 1.31961-2.9415 2.94154v2.25513c0 1.6218 1.3194 2.9413 2.9415 2.9413h1.1138c.7845 0 1.5322-.3026 2.105-.8531l.4801-.4777.1318.3534c.1792.48.4287.9301.7418 1.3373l.1318.1717-.1549.1508c-.91.8842-2.13 1.3713-3.4356 1.3713h-1.1138c-2.7544 0-4.9948-2.2408-4.9948-4.995v-2.25513c0-2.75423 2.2404-4.99488 4.9948-4.99488h1.1138c2.7542 0 4.9946 2.24065 4.9946 4.99488v2.25513c0 1.6218 1.3193 2.9413 2.941 2.9413h.4563z" fill="#97999b"/><path d="m59.4734 15.7039h-.4564v-2.0537h.4564c1.6215 0 2.9406-1.3195 2.9406-2.9413v-2.25513c0-2.75423 2.2409-4.99488 4.9952-4.99488h.4558v2.05334h-.4558c-1.622 0-2.9413 1.31961-2.9413 2.94154v2.25513c0 2.7542-2.2406 4.995-4.9945 4.995z" fill="#97999b"/><path d="m73.57 15.7039h.0022l.1016-.002c2.6898-.0618 4.878-2.3021 4.878-4.993v-7.24989h-2.054v7.24989c0 1.6164-1.314 2.9358-2.928 2.9413-1.6215 0-2.9406-1.3195-2.9406-2.9413v-7.24989h-2.0538v7.24989c0 2.752 2.2406 4.9927 4.9946 4.995z" fill="#97999b"/><g fill="#00a3e0"><path clip-rule="evenodd" d="m5.04763 15.7449h1.11334c2.78328 0 5.04763-2.2646 5.04763-5.0482v-2.25387c0-2.7834-2.26435-5.04776-5.04763-5.04776h-1.11334c-1.04113 0-2.04737.31958-2.88332.90864v-4.30371h-2.16431v10.6967c0 2.7836 2.26435 5.0482 5.04763 5.0482zm-2.88332-7.30207c0-1.58996 1.29337-2.88344 2.88332-2.88344h1.11334c1.58972 0 2.88332 1.29348 2.88332 2.88344v2.25387c0 1.59-1.2936 2.8837-2.88332 2.8837h-1.11334c-1.58995 0-2.88332-1.2937-2.88332-2.8837z" fill-rule="evenodd"/><path d="m31.9516 15.723h.5117v-2.1552h-.5117c-1.5743 0-2.855-1.2806-2.855-2.8551v-5.08864l2.0517-.00195v-2.14875l-.2387-.00438s-.713-.01325-1.813-.01641v-3.351678h-2.1547v10.611808c0 2.7626 2.2475 5.0103 5.0097 5.0103z"/><path d="m43.2408 15.7299h-2.127v-7.2523c0-1.5744-1.2808-2.85525-2.8552-2.85525-1.5741 0-2.8549 1.28085-2.8549 2.85525v7.2454h-2.1549v-15.622108h2.1549v4.263958c.8283-.58152 1.8243-.89721 2.8549-.89721 2.7472 0 4.9822 2.24746 4.9822 5.00996z"/><path d="m26.0947 15.7039h.4558v-2.0537h-.4558c-1.6218 0-2.9413-1.3195-2.9413-2.9413v-2.25513c0-2.75423-2.2406-4.99488-4.9946-4.99488h-1.1137c-2.7542 0-4.9946 2.24065-4.9946 4.99488v2.25513c0 2.7542 2.2404 4.995 4.9946 4.995h1.1137c1.3058 0 2.5259-.4871 3.4355-1.3713l.1552-.1508-.1318-.1717c-.3137-.4082-.5631-.858-.7417-1.3373l-.1316-.3534-.4804.4777c-.5729.5505-1.3204.8531-2.1052.8531h-1.1137c-1.6218 0-2.9413-1.3195-2.9413-2.9413v-2.25513c0-1.62193 1.3195-2.94155 2.9413-2.94155h1.1137c1.6219 0 2.9413 1.31962 2.9413 2.94155v2.25513c0 2.7542 2.2406 4.995 4.9946 4.995z"/><path d="m83.982 12.4567c-.3791 0-.7336-.2056-.9253-.5359-.5342-.9238-.8164-1.97553-.8164-3.04122 0-3.35617 2.7314-6.0867 6.0889-6.0867.5887 0 1.068.48076 1.068 1.07165 0 .59112-.4807 1.07188-1.0713 1.07188-2.1745 0-3.9429 1.76901-3.9429 3.94317 0 .69032.1827 1.37132.5289 1.97002.0931.1607.1419.3458.1419.5349 0 .5911-.4807 1.0722-1.0718 1.0722z"/><path d="m85.0961 8.87958c0-.93659.3986-1.77983 1.0353-2.36974-.0549.66674.2692 1.33651.8872 1.69316.2763.15985.5832.24068.8908.24068.5491-.00036 1.1047.13687 1.6138.4308.8113.46848 1.3424 1.23542 1.5349 2.08192-.5501-.381-1.2925-.4354-1.91-.0788-.2769.1596-.4998.3847-.6538.6509-.2743.4765-.671.8889-1.1802 1.1828-.8113.468-1.7409.5446-2.5699.2883.6044-.2862 1.0226-.9017 1.0226-1.6151 0-.319-.0833-.6253-.237-.8916-.2749-.4757-.4337-1.02571-.4337-1.61332z"/><path d="m85.706 16c-2.1726 0-4.1958-1.1672-5.2796-3.0456-.2946-.5098-.1175-1.165.3941-1.46.4969-.287 1.1803-.1007 1.4637.3913.7027 1.2165 2.0126 1.9721 3.4185 1.9721.6878 0 1.3686-.1829 1.9676-.5288.5982-.3449 1.0965-.8442 1.4419-1.4438.0933-.1607.2289-.2954.3927-.3897.4958-.2873 1.1796-.1001 1.4639.3922.1897.3286.1888.7385-.0018 1.0693-.5326.9238-1.3018 1.6941-2.2249 2.2271-.9245.5338-1.9742.8159-3.0361.8159z"/><path d="m91.716 15.1066c.1642.0951.3502.1449.5377.1449.3799 0 .7345-.2044.9242-.5333.813-1.4079 1.029-3.0485.6083-4.6196-.4208-1.57165-1.4278-2.88446-2.8349-3.69695-.9224-.53254-1.9733-.81382-3.0419-.81382-.3821.00085-.7373.20519-.9266.53315-.2953.51175-.1196 1.16864.3919 1.46427.1645.09481.3491.14489.5381.14489.6904 0 1.3706.1821 1.9672.52647 1.8827 1.0872 2.5299 3.50339 1.4435 5.38639-.2958.5117-.1194 1.1681.3925 1.4636z"/></g></svg>