<svg fill="none" height="45" viewBox="0 0 165 45" width="165" xmlns="http://www.w3.org/2000/svg"><g fill="#00a3e0"><path clip-rule="evenodd" d="m8.83336 27.5535h1.94834c4.8707 0 8.8334-3.9631 8.8334-8.8342v-3.9443c0-4.871-3.9627-8.83362-8.8334-8.83362h-1.94834c-1.82198 0-3.58291.55925-5.04581 1.59011v-7.53149h-3.78755v18.7193c0 4.8711 3.96262 8.8342 8.83336 8.8342zm-5.04581-12.7785c0-2.7825 2.26338-5.04607 5.04581-5.04607h1.94834c2.782 0 5.0458 2.26357 5.0458 5.04607v3.9443c0 2.7824-2.2638 5.0464-5.0458 5.0464h-1.94834c-2.78243 0-5.04581-2.264-5.04581-5.0464z" fill-rule="evenodd"/><path d="m55.9153 27.5152h.8954v-3.7716h-.8954c-2.7549 0-4.9962-2.241-4.9962-4.9965v-8.905l3.5903-.00341v-3.76032l-.4175-.00765s-1.2479-.02319-3.1728-.02872v-5.865439h-3.7708v18.570539c0 4.8346 3.9331 8.7681 8.767 8.7681z"/><path d="m75.6714 27.5273h-3.7222v-12.6915c0-2.7552-2.2415-4.99668-4.9967-4.99668-2.7545 0-4.996 2.24148-4.996 4.99668v12.6794h-3.7712v-27.338639h3.7712v7.461929c1.4495-1.01767 3.1926-1.57011 4.996-1.57011 4.8076 0 8.7189 3.93302 8.7189 8.76742z"/><path d="m45.6657 27.4818h.7977v-3.594h-.7977c-2.8382 0-5.1473-2.3091-5.1473-5.1472v-3.9465c0-4.8199-3.9209-8.74104-8.7404-8.74104h-1.949c-4.8199 0-8.7406 3.92114-8.7406 8.74104v3.9465c0 4.8199 3.9207 8.7412 8.7406 8.7412h1.949c2.2851 0 4.4202-.8524 6.012-2.3997l.2716-.264-.2306-.3004c-.549-.7143-.9855-1.5016-1.298-2.3404l-.2304-.6184-.8407.836c-1.0025.9635-2.3106 1.4929-3.6839 1.4929h-1.949c-2.8382 0-5.1473-2.3091-5.1473-5.1472v-3.9465c0-2.8384 2.3091-5.14771 5.1473-5.14771h1.949c2.8381 0 5.1473 2.30931 5.1473 5.14771v3.9465c0 4.8199 3.9209 8.7412 8.7404 8.7412z"/><path d="m146.968 21.7993c-.663 0-1.283-.3599-1.619-.9379-.935-1.6167-1.428-3.4572-1.428-5.3221 0-5.87334 4.779-10.65175 10.655-10.65175 1.03 0 1.869.84132 1.869 1.87537 0 1.03448-.841 1.8758-1.875 1.8758-3.805 0-6.9 3.09578-6.9 6.90058 0 1.208.32 2.3997.926 3.4476.163.2812.248.605.248.936 0 1.0344-.841 1.8764-1.876 1.8764z"/><path d="m148.918 15.5393c0-1.6391.698-3.1147 1.812-4.1471-.096 1.1668.471 2.3389 1.552 2.963.484.2798 1.021.4212 1.56.4212.96-.0006 1.933.2396 2.824.7539 1.419.8199 2.349 2.1619 2.686 3.6434-.963-.6667-2.262-.762-3.343-.1379-.484.2793-.875.6733-1.144 1.1391-.48.8339-1.174 1.5555-2.065 2.0699-1.42.8189-3.047.953-4.498.5045 1.058-.5009 1.79-1.5779 1.79-2.8264 0-.5582-.146-1.0943-.415-1.5604-.481-.8323-.759-1.7949-.759-2.8232z"/><path d="m149.986 28c-3.803 0-7.343-2.0426-9.24-5.3298-.515-.8922-.205-2.0387.69-2.555.87-.5023 2.065-.1762 2.561.6847 1.23 2.129 3.522 3.4513 5.983 3.4513 1.203 0 2.395-.3202 3.443-.9254 1.047-.6037 1.919-1.4774 2.523-2.5267.164-.2812.401-.5169.688-.682.867-.5027 2.064-.1751 2.561.6865.332.5749.331 1.2922-.003 1.8711-.932 1.6167-2.278 2.9647-3.893 3.8975-1.618.9341-3.455 1.4278-5.313 1.4278z"/><path d="m160.503 26.4365c.287.1665.613.2535.941.2535.665 0 1.285-.3575 1.617-.9332 1.423-2.4637 1.801-5.3349 1.065-8.0843-.737-2.7503-2.499-5.0478-4.961-6.4696-1.614-.932-3.453-1.42419-5.323-1.42419-.669.00149-1.291.35909-1.622.93299-.517.8956-.209 2.0451.686 2.5625.288.1659.611.2536.941.2536 1.209 0 2.399.3186 3.443.9213 3.295 1.9026 4.427 6.1309 2.526 9.4262-.517.8953-.209 2.044.687 2.5612z"/></g><g fill="#97999b"><path d="m102.228 27.4818h-.798c-4.8201 0-8.7406-3.9213-8.7406-8.7412v-3.9465c0-2.8383-2.3087-5.14767-5.1468-5.14767h-1.9492c-2.8386 0-5.1475 2.30937-5.1475 5.14767v3.9465c0 2.8382 2.3089 5.1473 5.1475 5.1473h1.9492c1.3729 0 2.6813-.5295 3.6837-1.4929l.8403-.836.2305.6184c.3136.84.7503 1.6277 1.2983 2.3404l.2306.3003-.271.264c-1.5927 1.5474-3.7276 2.3997-6.0124 2.3997h-1.9492c-4.8201 0-8.7409-3.9213-8.7409-8.7412v-3.9465c0-4.81986 3.9208-8.741 8.7409-8.741h1.9492c4.8199 0 8.7406 3.92114 8.7406 8.741v3.9465c0 2.8382 2.3087 5.1473 5.1468 5.1473h.798z"/><path d="m104.078 27.4818h-.798v-3.5939h.798c2.838 0 5.147-2.3091 5.147-5.1473v-3.9465c0-4.81986 3.921-8.741 8.741-8.741h.798v3.59333h-.798c-2.838 0-5.147 2.30937-5.147 5.14767v3.9465c0 4.8199-3.921 8.7412-8.741 8.7412z"/><path d="m128.751 27.4818h-.003c-4.82-.004-8.741-3.9251-8.741-8.7412v-12.68729h3.594v12.68729c0 2.8382 2.309 5.1473 5.146 5.1473 2.825-.0096 5.124-2.3185 5.124-5.1473v-12.68729h3.595v12.68729c0 4.7091-3.83 8.6296-8.537 8.7378z"/><path clip-rule="evenodd" d="m63.5768 33.6v8.4h.9v-3.144h2.244c.52 0 .988-.116 1.404-.348.424-.232.756-.548.996-.948.24-.408.36-.852.36-1.332s-.12-.92-.36-1.32c-.24-.408-.572-.728-.996-.96-.416-.232-.884-.348-1.404-.348zm4.476 3.9c-.344.336-.788.504-1.332.504h-2.244v-3.552h2.244c.36 0 .68.08.96.24.28.152.5.364.66.636.16.264.24.564.24.9 0 .512-.176.936-.528 1.272z" fill-rule="evenodd"/><path clip-rule="evenodd" d="m58.1631 36.408c-.336-.192-.724-.288-1.164-.288-.456 0-.868.104-1.236.312-.368.2-.672.448-.912.744l.54.516c.232-.24.472-.432.72-.576.256-.152.552-.228.888-.228.432 0 .78.132 1.044.396.272.264.408.612.408 1.044v.012l-2.088.348c-.584.096-1.036.304-1.356.624-.32.312-.48.7-.48 1.164 0 .288.08.56.24.816.168.248.396.448.684.6.296.152.632.228 1.008.228.464 0 .876-.108 1.236-.324s.616-.456.768-.72h.012v.924h.78v-3.624c0-.44-.096-.828-.288-1.164-.192-.344-.46-.612-.804-.804zm-.66 4.716c-.288.168-.608.252-.96.252-.36 0-.652-.092-.876-.276-.216-.184-.324-.408-.324-.672 0-.272.1-.5.3-.684s.504-.312.912-.384l1.896-.312v.408c0 .36-.084.688-.252.984-.168.288-.4.516-.696.684z" fill-rule="evenodd"/><path d="m70.6651 42v-8.4h.816v3.564h.012c.152-.272.396-.512.732-.72.344-.216.728-.324 1.152-.324.44 0 .836.104 1.188.312s.628.5.828.876.3.808.3 1.296v3.396h-.816v-3.396c0-.504-.152-.912-.456-1.224-.296-.312-.676-.468-1.14-.468-.336 0-.64.084-.912.252-.272.16-.488.384-.648.672s-.24.612-.24.972v3.192z"/><path clip-rule="evenodd" d="m80.4709 36.408c-.336-.192-.724-.288-1.164-.288-.456 0-.868.104-1.236.312-.368.2-.672.448-.912.744l.54.516c.232-.24.472-.432.72-.576.256-.152.552-.228.888-.228.432 0 .78.132 1.044.396.272.264.408.612.408 1.044v.012l-2.088.348c-.584.096-1.036.304-1.356.624-.32.312-.48.7-.48 1.164 0 .288.08.56.24.816.168.248.396.448.684.6.296.152.632.228 1.008.228.464 0 .876-.108 1.236-.324s.616-.456.768-.72h.012v.924h.78v-3.624c0-.44-.096-.828-.288-1.164-.192-.344-.46-.612-.804-.804zm-.66 4.716c-.288.168-.608.252-.96.252-.36 0-.652-.092-.876-.276-.216-.184-.324-.408-.324-.672 0-.272.1-.5.3-.684s.504-.312.912-.384l1.896-.312v.408c0 .36-.084.688-.252.984-.168.288-.4.516-.696.684z" fill-rule="evenodd"/><path d="m83.095 42v-5.76h.816v.9h.012c.152-.264.396-.5.732-.708.344-.208.732-.312 1.164-.312h.264v.84c-.112-.016-.224-.024-.336-.024-.336 0-.644.084-.924.252s-.504.4-.672.696c-.16.296-.24.628-.24.996v3.12z"/><path d="m86.9669 36.24v5.76h.816v-3.216c0-.568.148-1.02.444-1.356.304-.344.684-.516 1.14-.516.416 0 .76.152 1.0319.456.28.296.4201.7.4201 1.212v3.42h.8159v-3.216c0-.568.148-1.02.444-1.356.3041-.344.684-.516 1.14-.516.416 0 .7601.152 1.0321.456.272.296.408.7.408 1.212v3.42h.816v-3.42c0-.488-.096-.916-.288-1.284-.192-.376-.452-.664-.78-.864-.32-.208-.676-.312-1.068-.312-.488 0-.908.12-1.2601.36-.344.24-.58.504-.708.792h-.0239c-.136-.288-.368-.552-.696-.792s-.712-.36-1.152-.36c-.416 0-.776.104-1.08.312-.296.208-.504.44-.624.696h-.012v-.888z"/><path clip-rule="evenodd" d="m99.0905 36.12c.44 0 .828.096 1.1645.288.344.192.612.46.804.804.192.336.288.724.288 1.164v3.624h-.78v-.924h-.012c-.152.264-.408.504-.7685.72-.36.216-.772.324-1.236.324-.376 0-.712-.076-1.008-.228-.288-.152-.516-.352-.684-.6-.16-.256-.24-.528-.24-.816 0-.464.16-.852.48-1.164.32-.32.772-.528 1.356-.624l2.0885-.348v-.012c0-.432-.136-.78-.408-1.044-.2645-.264-.6125-.396-1.0445-.396-.336 0-.632.076-.888.228-.248.144-.488.336-.72.576l-.54-.516c.24-.296.544-.544.912-.744.368-.208.78-.312 1.236-.312zm-.456 5.256c.352 0 .672-.084.96-.252.296-.168.5285-.396.6965-.684.168-.296.252-.624.252-.984v-.408l-1.8965.312c-.408.072-.712.2-.912.384s-.3.412-.3.684c0 .264.108.488.324.672.224.184.516.276.876.276z" fill-rule="evenodd"/><path d="m102.125 42h.936l1.704-2.436h.024l1.692 2.436h.984l-2.148-3 1.968-2.76h-.948l-1.512 2.196h-.024l-1.524-2.196h-.972l1.968 2.76z"/><path clip-rule="evenodd" d="m110.724 42.12c-.528 0-1.016-.132-1.464-.396-.448-.272-.804-.636-1.068-1.092s-.396-.96-.396-1.512.132-1.056.396-1.512.62-.816 1.068-1.08c.448-.272.936-.408 1.464-.408s1.016.136 1.464.408c.448.264.804.624 1.068 1.08s.396.96.396 1.512-.132 1.056-.396 1.512-.62.82-1.068 1.092c-.448.264-.936.396-1.464.396zm0-.792c.384 0 .736-.096 1.056-.288.328-.192.584-.456.768-.792.192-.344.288-.72.288-1.128s-.096-.78-.288-1.116c-.184-.344-.44-.612-.768-.804-.32-.192-.672-.288-1.056-.288s-.74.096-1.068.288c-.32.192-.576.46-.768.804-.184.336-.276.708-.276 1.116s.092.784.276 1.128c.192.336.448.6.768.792.328.192.684.288 1.068.288z" fill-rule="evenodd"/><path d="m118.362 41.724c.448.264.932.396 1.452.396.528 0 .996-.12 1.404-.36.416-.24.74-.52.972-.84l-.6-.492c-.2.248-.448.46-.744.636s-.64.264-1.032.264c-.376 0-.724-.096-1.044-.288-.312-.192-.564-.456-.756-.792-.184-.344-.276-.72-.276-1.128s.092-.78.276-1.116c.192-.344.444-.612.756-.804.32-.192.668-.288 1.044-.288.696 0 1.28.292 1.752.876l.6-.492c-.232-.312-.552-.584-.96-.816-.4-.24-.864-.36-1.392-.36-.52 0-1.004.136-1.452.408-.44.264-.792.624-1.056 1.08-.256.456-.384.96-.384 1.512s.128 1.056.384 1.512c.264.456.616.82 1.056 1.092z"/><path clip-rule="evenodd" d="m125.656 42.12c-.528 0-1.016-.132-1.464-.396-.448-.272-.804-.636-1.068-1.092s-.396-.96-.396-1.512.132-1.056.396-1.512.62-.816 1.068-1.08c.448-.272.936-.408 1.464-.408s1.016.136 1.464.408c.448.264.804.624 1.068 1.08s.396.96.396 1.512-.132 1.056-.396 1.512-.62.82-1.068 1.092c-.448.264-.936.396-1.464.396zm0-.792c.384 0 .736-.096 1.056-.288.328-.192.584-.456.768-.792.192-.344.288-.72.288-1.128s-.096-.78-.288-1.116c-.184-.344-.44-.612-.768-.804-.32-.192-.672-.288-1.056-.288s-.74.096-1.068.288c-.32.192-.576.46-.768.804-.184.336-.276.708-.276 1.116s.092.784.276 1.128c.192.336.448.6.768.792.328.192.684.288 1.068.288z" fill-rule="evenodd"/><path d="m130.601 36.24h-.816v5.76h.816v-3.216c0-.568.148-1.02.444-1.356.304-.344.684-.516 1.14-.516.416 0 .76.152 1.032.456.28.296.42.7.42 1.212v3.42h.816v-3.216c0-.568.148-1.02.444-1.356.304-.344.684-.516 1.14-.516.416 0 .76.152 1.032.456.272.296.408.7.408 1.212v3.42h.816v-3.42c0-.488-.096-.916-.288-1.284-.192-.376-.452-.664-.78-.864-.32-.208-.676-.312-1.068-.312-.488 0-.908.12-1.26.36-.344.24-.58.504-.708.792h-.024c-.136-.288-.368-.552-.696-.792s-.712-.36-1.152-.36c-.416 0-.776.104-1.08.312-.296.208-.504.44-.624.696h-.012z"/><path clip-rule="evenodd" d="m139.832 44.52v-8.28h.816v.996h.012c.16-.288.428-.544.804-.768.376-.232.808-.348 1.296-.348.48 0 .924.132 1.332.396.416.256.748.612.996 1.068s.372.968.372 1.536-.124 1.08-.372 1.536-.58.816-.996 1.08c-.408.256-.852.384-1.332.384-.488 0-.92-.112-1.296-.336-.376-.232-.644-.492-.804-.78h-.012v3.516zm2.832-3.192c.352 0 .68-.096.984-.288s.544-.456.72-.792c.184-.336.276-.712.276-1.128 0-.424-.092-.804-.276-1.14-.176-.336-.416-.596-.72-.78-.304-.192-.632-.288-.984-.288-.368 0-.708.096-1.02.288-.304.184-.548.444-.732.78-.176.336-.264.716-.264 1.14 0 .416.088.792.264 1.128.184.336.428.6.732.792.312.192.652.288 1.02.288z" fill-rule="evenodd"/><path clip-rule="evenodd" d="m149.897 36.408c-.336-.192-.724-.288-1.164-.288-.456 0-.868.104-1.236.312-.368.2-.672.448-.912.744l.54.516c.232-.24.472-.432.72-.576.256-.152.552-.228.888-.228.432 0 .78.132 1.044.396.272.264.408.612.408 1.044v.012l-2.088.348c-.584.096-1.036.304-1.356.624-.32.312-.48.7-.48 1.164 0 .288.08.56.24.816.168.248.396.448.684.6.296.152.632.228 1.008.228.464 0 .876-.108 1.236-.324s.616-.456.768-.72h.012v.924h.78v-3.624c0-.44-.096-.828-.288-1.164-.192-.344-.46-.612-.804-.804zm-.66 4.716c-.288.168-.608.252-.96.252-.36 0-.652-.092-.876-.276-.216-.184-.324-.408-.324-.672 0-.272.1-.5.3-.684s.504-.312.912-.384l1.896-.312v.408c0 .36-.084.688-.252.984-.168.288-.4.516-.696.684z" fill-rule="evenodd"/><path d="m152.522 36.24h.816v.924h.012c.152-.272.396-.512.732-.72.344-.216.728-.324 1.152-.324.44 0 .836.104 1.188.312s.628.5.828.876.3.808.3 1.296v3.396h-.816v-3.396c0-.504-.152-.912-.456-1.224-.296-.312-.676-.468-1.14-.468-.336 0-.64.084-.912.252-.272.16-.488.384-.648.672s-.24.612-.24.972v3.192h-.816z"/><path d="m163.748 36.24h-.852l-1.692 4.764h-.024l-2.076-4.764h-.888l2.544 5.772-.348.864c-.224.576-.584.864-1.08.864-.12 0-.236-.016-.348-.048-.104-.032-.192-.068-.264-.108v.792c.208.096.436.144.684.144.448 0 .816-.132 1.104-.396.296-.256.548-.664.756-1.224z"/></g></svg>