<?xml version="1.0" encoding="UTF-8"?>
<svg width="90px" height="16px" viewBox="0 0 90 16" version="1.1" xmlns="http://www.w3.org/2000/svg" xmlns:xlink="http://www.w3.org/1999/xlink">
    <!-- Generator: Sketch 42 (36781) - http://www.bohemiancoding.com/sketch -->
    <title>bathasu-logo-black</title>
    <desc>Created with Sketch.</desc>
    <defs></defs>
    <g id="Brands" stroke="none" stroke-width="1" fill="none" fill-rule="evenodd">
        <g id="Bath-ASU-logo-black" transform="translate(-19.000000, -8.000000)" fill="#000000">
            <g id="bathasu-logo-black" transform="translate(19.000000, 8.000000)">
                <path d="M55.6293868,14.9980146 L55.1948329,14.9980146 C52.5719977,14.9980146 50.4385856,12.8641394 50.4385856,10.2413043 L50.4385856,8.09376972 C50.4385856,6.54921638 49.1822686,5.29255214 47.637831,5.29255214 L46.5771444,5.29255214 C45.0324753,5.29255214 43.7760426,6.54921638 43.7760426,8.09376972 L43.7760426,10.2413043 C43.7760426,11.7857419 45.0324753,13.0422903 46.5771444,13.0422903 L47.637831,13.0422903 C48.3849304,13.0422903 49.0969553,12.7541697 49.642405,12.2299037 L50.0996474,11.7749764 L50.2251286,12.1114837 C50.3957553,12.5686103 50.6334056,12.9972606 50.9315971,13.3850485 L51.0570783,13.5484982 L50.9096032,13.6921534 C50.0429262,14.534174 48.8811832,14.9980146 47.637831,14.9980146 L46.5771444,14.9980146 C43.9541935,14.9980146 41.8206656,12.8641394 41.8206656,10.2413043 L41.8206656,8.09376972 C41.8206656,5.47093456 43.9541935,3.33717516 46.5771444,3.33717516 L47.637831,3.33717516 C50.2606662,3.33717516 52.3941941,5.47093456 52.3941941,8.09376972 L52.3941941,10.2413043 C52.3941941,11.7857419 53.6505111,13.0422903 55.1948329,13.0422903 L55.6293868,13.0422903 L55.6293868,14.9980146 Z M56.6361305,14.9980146 L56.2015765,14.9980146 L56.2015765,13.0422903 L56.6361305,13.0422903 C58.1803365,13.0422903 59.4365378,11.7857419 59.4365378,10.2413043 L59.4365378,8.09376972 C59.4365378,5.47093456 61.5705287,3.33717516 64.1933638,3.33717516 L64.6274547,3.33717516 L64.6274547,5.29255214 L64.1933638,5.29255214 C62.6488105,5.29255214 61.3923778,6.54921638 61.3923778,8.09376972 L61.3923778,10.2413043 C61.3923778,12.8641394 59.2587341,14.9980146 56.6361305,14.9980146 Z M70.0623887,14.9980146 L70.0603051,14.9980146 C67.4377014,14.9958152 65.303942,12.8620558 65.303942,10.2413043 L65.303942,3.33729092 L67.259782,3.33729092 L67.259782,10.2413043 C67.259782,11.7857419 68.5159832,13.0422903 70.0600735,13.0422903 C71.5971026,13.0370813 72.848442,11.7806485 72.848442,10.2413043 L72.848442,3.33729092 L74.8043978,3.33729092 L74.8043978,10.2413043 C74.8043978,12.8038297 72.7206457,14.9372419 70.159162,14.9961625 L70.0623887,14.9980146 Z" id="Combined-Shape"></path>
                <path d="M4.80683335,5.33746608 C3.29272425,5.33746608 2.06106364,6.56924244 2.06106364,8.08335154 L2.06106364,10.2297285 C2.06106364,11.7438376 3.29272425,12.9758455 4.80683335,12.9758455 L5.86705699,12.9758455 C7.38093457,12.9758455 8.61282669,11.7438376 8.61282669,10.2297285 L8.61282669,8.08335154 C8.61282669,6.56924244 7.38093457,5.33746608 5.86705699,5.33746608 L4.80683335,5.33746608 Z M5.86705699,15.0370249 L4.80683335,15.0370249 C2.15633213,15.0370249 0,12.8804613 0,10.2297285 L0,0.0432933335 L2.06106364,0.0432933335 L2.06106364,4.14169032 C2.85712849,3.5807291 3.81536971,3.27640243 4.80683335,3.27640243 L5.86705699,3.27640243 C8.51755821,3.27640243 10.6738903,5.43273456 10.6738903,8.08335154 L10.6738903,10.2297285 C10.6738903,12.8804613 8.51755821,15.0370249 5.86705699,15.0370249 Z M30.9145655,15.0161885 L30.4273419,15.0161885 C27.7968667,15.0161885 25.6566249,12.8757152 25.6566249,10.2448928 L25.6566249,0.139372122 L27.7085437,0.139372122 L27.7085437,3.33115577 C28.756034,3.33416546 29.435068,3.34678304 29.435068,3.34678304 L29.6623001,3.35095031 L29.6623001,5.39719699 L27.7085437,5.39904911 L27.7085437,10.2448928 C27.7085437,11.7443006 28.9281655,12.9638067 30.4273419,12.9638067 L30.9145655,12.9638067 L30.9145655,15.0161885 Z M41.1779795,15.0227867 L39.1524534,15.0227867 L39.1524534,8.11645821 C39.1524534,6.61716608 37.9327159,5.3974285 36.4334237,5.3974285 C34.9344789,5.3974285 33.7147413,6.61716608 33.7147413,8.11645821 L33.7147413,15.0161885 L31.662591,15.0161885 L31.662591,0.139372122 L33.7147413,0.139372122 L33.7147413,4.19991638 C34.5035134,3.64613213 35.452031,3.34550971 36.4334237,3.34550971 C39.049545,3.34550971 41.1779795,5.48575153 41.1779795,8.11645821 L41.1779795,15.0227867 Z M25.2838855,14.9980146 L24.8497946,14.9980146 C22.227191,14.9980146 20.0935473,12.8641394 20.0935473,10.2413043 L20.0935473,8.09376972 C20.0935473,6.54921638 18.8369988,5.29255214 17.2925613,5.29255214 L16.2319904,5.29255214 C14.6875528,5.29255214 13.4310043,6.54921638 13.4310043,8.09376972 L13.4310043,10.2413043 C13.4310043,11.7857419 14.6875528,13.0422903 16.2319904,13.0422903 L17.2925613,13.0422903 C18.0398922,13.0422903 18.7516855,12.7541697 19.297251,12.2299037 L19.7547249,11.7749764 L19.8800904,12.1114837 C20.0501382,12.5679158 20.2876728,12.9963346 20.5864431,13.3850485 L20.7119243,13.5484982 L20.5641019,13.6921534 C19.6978879,14.534174 18.5360291,14.9980146 17.2925613,14.9980146 L16.2319904,14.9980146 C13.6091552,14.9980146 11.4756273,12.8641394 11.4756273,10.2413043 L11.4756273,8.09376972 C11.4756273,5.47093456 13.6091552,3.33717516 16.2319904,3.33717516 L17.2925613,3.33717516 C19.9151649,3.33717516 22.0488085,5.47093456 22.0488085,8.09376972 L22.0488085,10.2413043 C22.0488085,11.7857419 23.305357,13.0422903 24.8497946,13.0422903 L25.2838855,13.0422903 L25.2838855,14.9980146 Z M79.9755202,11.9057825 C79.6145881,11.9057825 79.2769233,11.7099206 79.0943736,11.3954073 C78.5857348,10.5156497 78.3169457,9.51411518 78.3169457,8.49926851 C78.3169457,5.30320183 80.9180184,2.7029394 84.1153584,2.7029394 C84.6759724,2.7029394 85.1324045,3.16076062 85.1324045,3.72345819 C85.1324045,4.28638729 84.674699,4.7442085 84.112233,4.7442085 C82.0414457,4.7442085 80.3574045,6.4288285 80.3574045,8.49926851 C80.3574045,9.15665578 80.5313881,9.80512973 80.8610657,10.3753515 C80.949736,10.5283831 80.9962705,10.7045661 80.9962705,10.8846849 C80.9962705,11.447614 80.5384493,11.9057825 79.9755202,11.9057825 Z M82.0224615,6.24257456 C81.970139,6.87750487 82.2787487,7.51532911 82.8672602,7.85496184 C83.1303772,8.00718305 83.4226651,8.08416184 83.7156475,8.08416184 C84.2385245,8.08381457 84.7676524,8.21450487 85.2524451,8.49440669 C86.0250112,8.94053639 86.530756,9.67085094 86.714116,10.4769867 C86.1901972,10.1142025 85.4832657,10.0623431 84.8952172,10.4019758 C84.6315215,10.5539655 84.4192221,10.7683485 84.2725572,11.0218576 C84.0114081,11.4756273 83.6335754,11.868277 83.1486669,12.1481788 C82.3761008,12.5938455 81.4909027,12.6667728 80.701436,12.4227558 C81.2769827,12.1501467 81.6751887,11.5640661 81.6751887,10.8846849 C81.6751887,10.580937 81.5958948,10.2892279 81.4495772,10.0356031 C81.1877336,9.58264366 81.0365542,9.05884063 81.0365542,8.49926851 C81.0365542,7.60735639 81.4161233,6.80434608 82.0224615,6.24257456 Z M81.6173099,15.28 C79.5483748,15.28 77.6217057,14.1684958 76.5896111,12.379694 C76.3090148,11.8942067 76.4776736,11.2702734 76.9648972,10.9893297 C77.4381142,10.7160261 78.0889033,10.8934825 78.3587342,11.3619534 C79.0279287,12.5204552 80.2753324,13.2400043 81.6141845,13.2400043 C82.2691408,13.2400043 82.917499,13.0657891 83.4879524,12.7364588 C84.0575954,12.4079388 84.5320857,11.9325225 84.8610687,11.3614903 C84.9498548,11.2084588 85.0790403,11.0801994 85.2349657,10.9903715 C85.7071409,10.7168364 86.3582772,10.8951031 86.6290342,11.3639212 C86.8097318,11.676814 86.8088057,12.0671485 86.6272978,12.3821249 C86.1201639,13.2618825 85.3876499,13.9954382 84.5085869,14.5030352 C83.6281348,15.0113267 82.6285681,15.28 81.6173099,15.28 Z M87.8527075,14.5671649 C87.6740936,14.5671649 87.4969845,14.51982 87.340596,14.4291819 C86.8531409,14.1477752 86.6851766,13.5226843 86.9668148,13.0354606 C88.001456,11.24226 87.3850469,8.94134669 85.5921936,7.90601093 C85.0240554,7.57806972 84.376276,7.40466487 83.7188887,7.40466487 C83.5388857,7.40466487 83.3630499,7.35697275 83.2064299,7.26668184 C82.7193221,6.98515941 82.5520524,6.35960547 82.8332275,5.87226608 C83.0134621,5.55995214 83.3517057,5.36536365 83.7156475,5.36455335 C84.7332724,5.36455335 85.7339966,5.63241638 86.6123651,6.13955032 C87.9523748,6.91327396 88.9113106,8.16345578 89.3120633,9.66008548 C89.7127003,11.1562522 89.5069991,12.7186322 88.7328124,14.0593364 C88.5521148,14.3725764 88.21445,14.5671649 87.8527075,14.5671649 Z" id="Combined-Shape"></path>
            </g>
        </g>
    </g>
</svg>