<?xml version="1.0" encoding="UTF-8"?>
<svg width="96px" height="41px" viewBox="0 0 96 41" version="1.1" xmlns="http://www.w3.org/2000/svg" xmlns:xlink="http://www.w3.org/1999/xlink">
    <!-- Generator: Sketch 42 (36781) - http://www.bohemiancoding.com/sketch -->
    <title>bathasu-mantra</title>
    <desc>Created with Sketch.</desc>
    <defs></defs>
    <g id="Brands" stroke="none" stroke-width="1" fill="none" fill-rule="evenodd">
        <g id="Bath-ASU-mantra" transform="translate(-16.000000, -11.000000)">
            <g id="bathasu-mantra" transform="translate(16.000000, 11.000000)">
                <polyline id="Fill-1" fill="#00A3E0" points="25.5661236 2.79084628 26.7432266 2.79084628 27.6037274 10.2587639 27.6289826 10.2587639 31.2112583 2.79084628 32.274561 2.79084628 33.2427765 10.2208811 33.2680317 10.2208811 36.7803233 2.79084628 37.9452552 2.79084628 33.4618574 11.9930016 32.3987068 11.9930016 31.4816101 4.48704913 31.4562029 4.48704913 27.8798605 11.9930016 26.8170143 11.9930016 25.5661236 2.79084628"></polyline>
                <path d="M39.0335087,2.79084628 L40.0590808,2.79084628 L39.4337876,6.33508716 C39.8419778,6.0314168 40.2942884,5.76136926 40.7917845,5.52479239 C41.2891284,5.28882409 41.8330269,5.17061173 42.4237845,5.17061173 C42.6264342,5.17061173 42.8798986,5.19160697 43.1849382,5.23390174 C43.4895214,5.27619651 43.7729572,5.37934707 44.0352456,5.54396197 C44.2975341,5.70857686 44.5026181,5.95519493 44.6514105,6.28442472 C44.7998986,6.61350238 44.8245452,7.06094453 44.7248938,7.62614263 L43.9547639,11.9930016 L42.9296482,11.9930016 L43.6640254,7.82879239 C43.7407036,7.44038035 43.7387258,7.12834231 43.6583962,6.89176545 C43.5776101,6.65579715 43.4551379,6.47444691 43.2920444,6.34771474 C43.1287987,6.22098257 42.9406022,6.13882726 42.7279113,6.10079239 C42.5152203,6.06275753 42.3206339,6.04404437 42.1432393,6.04404437 C41.8649762,6.04404437 41.5900602,6.08420919 41.3186434,6.16423455 C41.0466181,6.24456418 40.787981,6.34771474 40.5419715,6.47444691 C40.2962662,6.60072266 40.06471,6.7423645 39.8474548,6.89815531 C39.6298954,7.05440254 39.4312013,7.21277971 39.250916,7.37313471 L38.4363613,11.9930016 L37.4107892,11.9930016 L39.0335087,2.79084628" id="Fill-2" fill="#00A3E0"></path>
                <path d="M52.4274105,8.01835816 C52.4240634,7.74846276 52.3717274,7.49332488 52.2710111,7.25294453 C52.1698384,7.01210777 52.021046,6.80322029 51.8246339,6.62597781 C51.6280697,6.44873534 51.3831252,6.3078542 51.0896482,6.20211727 C50.7957147,6.09683677 50.4546181,6.04404437 50.0665103,6.04404437 C49.3073344,6.04404437 48.6812805,6.22098257 48.1883487,6.57546751 C47.6957211,6.92995246 47.3237401,7.41101743 47.0733185,8.01835816 L52.4274105,8.01835816 Z M52.8935658,10.6132488 C52.6936545,10.7904913 52.4841585,10.9739715 52.2650777,11.1639937 C52.0458447,11.3538637 51.7900983,11.5245642 51.4973819,11.6767036 C51.2048177,11.8282345 50.8599176,11.9529889 50.4631379,12.0499017 C50.0665103,12.1469667 49.585141,12.1954992 49.0202472,12.1954992 C48.4631125,12.1954992 47.9703328,12.106954 47.5417559,11.9297116 C47.1128748,11.7524691 46.7621933,11.5053946 46.489103,11.1890967 C46.2154041,10.8729509 46.0264469,10.4973185 45.921775,10.0626561 C45.8163423,9.6281458 45.8091918,9.15757845 45.8986498,8.65125832 C45.990542,8.12805071 46.1674802,7.65154992 46.4290079,7.22114739 C46.6903835,6.79074485 47.0104849,6.42348019 47.3888558,6.11980983 C47.7672266,5.8162916 48.1926086,5.58184469 48.664393,5.41722979 C49.1367861,5.25291918 49.6259144,5.17061173 50.1322345,5.17061173 C50.6636577,5.17061173 51.1550681,5.24226941 51.6066181,5.38573693 C52.058168,5.52920444 52.436691,5.75071949 52.7427956,6.05012995 C53.0484437,6.34984469 53.2634168,6.73369255 53.3874105,7.20212995 C53.5117084,7.67026307 53.5117084,8.2336355 53.3872583,8.89179081 L46.8814707,8.89179081 C46.8516513,9.20413312 46.8782758,9.50552139 46.9624089,9.79686846 C47.0457813,10.0879113 47.1880317,10.3474612 47.3882472,10.5753661 C47.5886149,10.8031189 47.8452742,10.9846212 48.1591379,11.1195689 C48.4728494,11.2546688 48.8448304,11.3220666 49.2753851,11.3220666 C49.7056355,11.3220666 50.0759429,11.2799239 50.3864596,11.1953344 C50.6962155,11.1113534 50.9641331,11.0037908 51.1899081,10.8729509 C51.4152266,10.7419588 51.6090523,10.6007734 51.7706244,10.4486339 C51.9326529,10.2966466 52.0752076,10.1577433 52.1992013,10.030859 L52.8935658,10.6132488 L52.8935658,10.6132488 Z" id="Fill-3" fill="#00A3E0"></path>
                <path d="M55.4630491,5.37326149 L56.4884691,5.37326149 L56.2448938,6.75270998 C56.4265483,6.58398732 56.6243296,6.40689699 56.8386941,6.22098257 C57.0527544,6.0356767 57.2855277,5.86482409 57.5368621,5.70857686 C57.7878922,5.55232964 58.0591569,5.42361965 58.3514168,5.32229477 C58.6436767,5.22127417 58.9538891,5.17061173 59.283271,5.17061173 C59.5195436,5.17061173 59.7189984,5.18749921 59.8823962,5.22127417 L59.7013502,6.246542 C59.6351696,6.23817433 59.5390174,6.22098257 59.4128938,6.19572742 C59.2864659,6.17047227 59.1134834,6.15769255 58.8940983,6.15769255 C58.5313978,6.15769255 58.1799556,6.246542 57.8409889,6.42348019 C57.5017179,6.60072266 57.2004818,6.80139461 56.9375848,7.02503962 C56.6743835,7.24853249 56.4601712,7.45954992 56.2943391,7.6576355 C56.1285071,7.85587322 56.0369192,7.98047544 56.0197274,8.03098574 L55.3209509,11.9930016 L54.295683,11.9930016 L55.4630491,5.37326149" id="Fill-4" fill="#00A3E0"></path>
                <path d="M66.4893566,8.01835816 C66.4863138,7.74846276 66.4338257,7.49332488 66.3331094,7.25294453 C66.2320887,7.01210777 66.0831442,6.80322029 65.8867322,6.62597781 C65.690168,6.44873534 65.4452235,6.3078542 65.1515943,6.20211727 C64.857813,6.09683677 64.5167163,6.04404437 64.1287607,6.04404437 C63.3692805,6.04404437 62.7430745,6.22098257 62.2501426,6.57546751 C61.7575151,6.92995246 61.3856862,7.41101743 61.1352647,8.01835816 L66.4893566,8.01835816 Z M66.9558162,10.6132488 C66.7557528,10.7904913 66.5461046,10.9739715 66.3273281,11.1639937 C66.1079429,11.3538637 65.8521965,11.5245642 65.5594802,11.6767036 C65.2670681,11.8282345 64.9220158,11.9529889 64.5252361,12.0499017 C64.1287607,12.1469667 63.6473914,12.1954992 63.0818891,12.1954992 C62.5252108,12.1954992 62.0324311,12.106954 61.6038542,11.9297116 C61.1749731,11.7524691 60.8242916,11.5053946 60.5507448,11.1890967 C60.2773502,10.8729509 60.0885452,10.4973185 59.9837211,10.0626561 C59.8784406,9.6281458 59.8711379,9.15757845 59.9605959,8.65125832 C60.0527924,8.12805071 60.2295784,7.65154992 60.4911062,7.22114739 C60.7523296,6.79074485 61.0724311,6.42348019 61.450954,6.11980983 C61.8291727,5.8162916 62.2547068,5.58184469 62.7266434,5.41722979 C63.1987322,5.25291918 63.6878605,5.17061173 64.1941807,5.17061173 C64.7257559,5.17061173 65.2173185,5.24226941 65.6688685,5.38573693 C66.1204184,5.52920444 66.4987892,5.75071949 66.8048938,6.05012995 C67.1103899,6.34984469 67.3253629,6.73369255 67.4495087,7.20212995 C67.5736545,7.67026307 67.5736545,8.2336355 67.4493566,8.89179081 L60.9431125,8.89179081 C60.9135975,9.20413312 60.940374,9.50552139 61.0242029,9.79686846 C61.1078796,10.0879113 61.2496735,10.3474612 61.4500412,10.5753661 C61.6504089,10.8031189 61.9073724,10.9846212 62.2213883,11.1195689 C62.5349477,11.2546688 62.9070808,11.3220666 63.3374834,11.3220666 C63.7677338,11.3220666 64.1378891,11.2799239 64.4484057,11.1953344 C64.7583138,11.1113534 65.0263835,11.0037908 65.2520063,10.8729509 C65.4773249,10.7419588 65.6709984,10.6007734 65.8327227,10.4486339 C65.994599,10.2966466 66.137458,10.1577433 66.2612995,10.030859 L66.9558162,10.6132488 L66.9558162,10.6132488 Z" id="Fill-5" fill="#00A3E0"></path>
                <path d="M27.4172044,22.8368938 C27.5483487,22.9552583 27.6834485,23.0731664 27.8231125,23.1912266 C27.9626244,23.309439 28.114916,23.4147195 28.2799873,23.5078288 C28.4450586,23.6007861 28.632038,23.6768558 28.8409255,23.7355816 C29.049813,23.7946117 29.2897369,23.8241268 29.5594802,23.8241268 C29.863607,23.8241268 30.1648431,23.7758986 30.4648621,23.6785293 C30.764729,23.5816165 31.0388843,23.438149 31.2873281,23.2484311 C31.5360761,23.0584089 31.750897,22.8200063 31.9325515,22.5329192 C32.1139017,22.2462884 32.2375911,21.9172108 32.3030111,21.5458384 C32.3699525,21.1660983 32.3609762,20.8327607 32.276691,20.5459778 C32.1921014,20.2591949 32.0548716,20.0206403 31.8648494,19.8307702 C31.674523,19.6409002 31.4444881,19.4975848 31.1747448,19.4005198 C30.9051537,19.303607 30.618523,19.2549223 30.3145483,19.2549223 C30.0277655,19.2549223 29.7671506,19.2844374 29.5330079,19.3434675 C29.2991696,19.4026498 29.0806973,19.4784152 28.8789604,19.5710681 C28.6770713,19.6641775 28.4946561,19.7656545 28.3318669,19.8751949 C28.1692298,19.9847353 28.0198288,20.0903201 27.883664,20.1914929 L27.4172044,22.8368938 Z M26.6756767,18.1409572 L28.2200444,18.1409572 L28.0662314,19.0143899 C28.1649699,18.9301046 28.2999176,18.8245198 28.4698574,18.6977876 C28.6397971,18.5713597 28.842599,18.4510174 29.0779588,18.337065 C29.3131664,18.2234168 29.5813883,18.1242219 29.883233,18.0396323 C30.1847734,17.9556513 30.5217623,17.9132044 30.8931347,17.9132044 C31.4499651,17.9132044 31.9380285,18.0038796 32.3576292,18.1853819 C32.7766212,18.3668843 33.1169572,18.6157845 33.3775721,18.9320824 C33.638187,19.2483803 33.8145166,19.6262948 33.9058003,20.0647607 C33.9969319,20.5039873 33.9973883,20.9804881 33.906561,21.4953281 C33.8053883,22.0691981 33.617496,22.5837338 33.3433407,23.0393914 C33.0685769,23.4952013 32.7413249,23.8811791 32.3605198,24.197477 C31.980019,24.5142314 31.5576799,24.7546117 31.0945674,24.9189223 C30.6303899,25.0835372 30.1583011,25.1659968 29.6773883,25.1659968 C29.331271,25.1659968 29.0339905,25.1407417 28.7860032,25.0899271 C28.537103,25.0391125 28.3174136,24.9697369 28.1263265,24.8810396 C27.9350872,24.7926466 27.7654517,24.6911696 27.6165071,24.5773693 C27.468019,24.4634168 27.319683,24.3474865 27.1716513,24.2292742 L26.6361204,27.2668906 L25.0666498,27.2668906 L26.6756767,18.1409572 L26.6756767,18.1409572 Z" id="Fill-6" fill="#00A3E0"></path>
                <path d="M40.3213693,21.5079556 C39.8629731,21.5248431 39.4280063,21.5630301 39.0169255,21.6217559 C38.6056926,21.6809382 38.20587,21.7568558 37.818523,21.8493566 C37.3083994,21.9678732 36.9213566,22.1156006 36.6583074,22.2925388 C36.3948019,22.4699334 36.2326212,22.7060539 36.1725261,23.0012044 C36.1118225,23.2968114 36.1618764,23.5288241 36.321775,23.6976989 C36.4818257,23.8665737 36.7561331,23.9507068 37.1442409,23.9507068 C37.4395436,23.9507068 37.7255658,23.9213439 38.0015468,23.8620095 C38.277832,23.8029794 38.539664,23.7291918 38.7874992,23.6407987 C39.0351823,23.5519493 39.2647607,23.4570143 39.4771474,23.3559937 C39.6886212,23.2548209 39.8787956,23.1577559 40.0470618,23.0646466 L40.3213693,21.5079556 Z M41.4805198,23.8367544 C41.4405071,24.0645071 41.4100792,24.2820666 41.3909097,24.4888241 C41.3712837,24.6955816 41.3787385,24.8451347 41.413122,24.9379398 L39.8054643,24.9379398 C39.8009002,24.8200317 39.7998352,24.7059271 39.8024216,24.5962345 C39.8045515,24.4866941 39.8164184,24.3727417 39.8375658,24.2546815 C39.6521078,24.3474865 39.4486973,24.4485071 39.2267258,24.5583518 C39.0049065,24.6680444 38.7619398,24.7673914 38.4973693,24.8559366 C38.2324945,24.9446339 37.951645,25.0179651 37.6545166,25.0772995 C37.3567797,25.1360254 37.0397211,25.1659968 36.7022758,25.1659968 C36.4746751,25.1659968 36.2154295,25.1381553 35.9254517,25.0835372 C35.635626,25.0284628 35.3667956,24.9253122 35.1195689,24.7733249 C34.8717338,24.621794 34.6768431,24.4127544 34.5339842,24.1468146 C34.3908209,23.8811791 34.3565895,23.5373439 34.4311379,23.1154612 C34.4979271,22.7355689 34.6442853,22.4066434 34.8708209,22.1282282 C35.0972044,21.8493566 35.3736418,21.6112583 35.6993724,21.4130206 C36.0255594,21.2147829 36.3911506,21.0544279 36.7967544,20.9319556 C37.2025103,20.8096355 37.6186117,20.7083106 38.04658,20.627981 C38.4737876,20.5481078 38.9017559,20.4912076 39.3298764,20.4572805 C39.7573883,20.4235055 40.1553851,20.3939905 40.5223455,20.3687353 L40.5762029,20.0647607 C40.6219968,19.8035372 40.5288875,19.5902377 40.2962662,19.4256228 C40.0637971,19.2610079 39.6225927,19.1791569 38.9729572,19.1791569 C38.6098003,19.1791569 38.309477,19.2085198 38.0713788,19.2675499 C37.8329762,19.3264279 37.6406719,19.4005198 37.4943138,19.4889128 C37.3476513,19.5776101 37.2355246,19.674523 37.1582377,19.7801078 C37.0806466,19.8858447 37.0208558,19.9847353 36.9790174,20.0773883 L35.3464089,20.0773883 C35.5207607,19.6136672 35.7597718,19.2401648 36.0626815,18.9574897 C36.3657433,18.6746624 36.6954295,18.4552773 37.0520444,18.2991823 C37.4086593,18.1432393 37.7730333,18.0396323 38.14471,17.9889699 C38.5165388,17.9384596 38.8626561,17.9132044 39.1835182,17.9132044 C40.0018764,17.9132044 40.6212361,18.0015975 41.0415975,18.1788399 C41.4615024,18.3562345 41.754523,18.5736418 41.9202029,18.8306054 C42.0855784,19.0881775 42.1637781,19.3624849 42.154954,19.6535277 C42.1456735,19.9445705 42.1202662,20.2085325 42.0787322,20.4446529 L41.4805198,23.8367544 L41.4805198,23.8367544 Z" id="Fill-7" fill="#00A3E0"></path>
                <path d="M43.419233,18.3688621 L44.6343708,18.3688621 L45.0247607,16.1537116 L46.5942314,16.1537116 L46.2036894,18.3688621 L48.5708273,18.3688621 L48.3344025,19.71058 L45.9672647,19.71058 L45.4180412,22.8242662 C45.3973502,22.9427829 45.3909604,23.0629731 45.3990238,23.1848368 C45.4067829,23.3076133 45.4428399,23.4147195 45.5062821,23.5078288 C45.5704849,23.6007861 45.6684628,23.6768558 45.8015848,23.7355816 C45.9347068,23.7946117 46.1152964,23.8241268 46.3432013,23.8241268 C46.4951886,23.8241268 46.7087924,23.8072393 46.9849255,23.7734643 C47.2610586,23.7399937 47.5053946,23.6935911 47.7182377,23.6342567 L47.4749667,25.0140095 C47.2765769,25.0391125 47.1011601,25.0623899 46.9502377,25.0835372 C46.7985547,25.1046846 46.6564564,25.12142 46.5233344,25.1341997 C46.3905166,25.1466751 46.2624152,25.1550428 46.1396387,25.1593027 C46.0162536,25.1635626 45.8873914,25.1659968 45.7521395,25.1659968 C45.380767,25.1659968 45.055645,25.132374 44.776317,25.0648241 C44.4968368,24.9969699 44.273496,24.8875816 44.1067512,24.7357464 C43.9390935,24.583607 43.8271189,24.3812615 43.7708273,24.1277971 C43.7140792,23.8746371 43.7184913,23.562599 43.7839113,23.1912266 L44.397794,19.71058 L43.1828082,19.71058 L43.419233,18.3688621" id="Fill-8" fill="#00A3E0"></path>
                <path d="M49.9399303,18.1409572 L51.5092488,18.1409572 L50.3106941,24.9379398 L48.7413756,24.9379398 L49.9399303,18.1409572 Z M50.4039556,15.5081838 L51.9732742,15.5081838 L51.7277211,16.900412 L50.1585547,16.900412 L50.4039556,15.5081838 L50.4039556,15.5081838 Z" id="Fill-9" fill="#00A3E0"></path>
                <path d="M58.3501997,20.761103 C58.3331601,20.187233 58.1583518,19.7801078 57.8253185,19.5397274 C57.4921331,19.2991949 57.0428653,19.1791569 56.4773629,19.1791569 C56.2750174,19.1791569 56.0624786,19.2001521 55.8400507,19.2421426 C55.6170143,19.2844374 55.4006719,19.3646149 55.1902631,19.4826751 C54.9792456,19.6010396 54.7799429,19.7610903 54.5926593,19.9637401 C54.4050713,20.1660856 54.2442599,20.4320254 54.1100729,20.761103 L58.3501997,20.761103 Z M59.5175658,22.9001838 C59.4667512,23.0436513 59.3496038,23.2418891 59.1656672,23.4952013 C58.9820349,23.7483613 58.7290269,23.9972615 58.4074041,24.2419017 C58.0860856,24.4866941 57.6914358,24.7018193 57.2242155,24.8875816 C56.756691,25.0728875 56.206859,25.1659968 55.5739588,25.1659968 C54.9663138,25.1659968 54.4379334,25.0750174 53.9889699,24.8935151 C53.5400063,24.7121648 53.1770016,24.4612868 52.900412,24.1404247 C52.6233661,23.8198669 52.4359303,23.4361712 52.3376482,22.988729 C52.2392139,22.5418954 52.237084,22.0520063 52.330954,21.5205832 C52.4153914,21.0396704 52.5740729,20.5820349 52.8071506,20.1470681 C53.0396197,19.71271 53.3435943,19.3288621 53.7193788,18.9953724 C54.0942504,18.662187 54.5351506,18.3986815 55.041775,18.2042472 C55.5483994,18.0104216 56.1140539,17.9132044 56.7388906,17.9132044 C57.3783328,17.9217242 57.9175151,18.0230491 58.3558288,18.2167227 C58.7939905,18.4111569 59.1384342,18.6831823 59.3890079,19.0332552 C59.6395816,19.3834802 59.7990238,19.807645 59.8673344,20.3054453 C59.9354929,20.8033978 59.9154105,21.3603803 59.8067829,21.9762409 L53.8455024,21.9762409 C53.842916,22.0859334 53.8503708,22.2443106 53.869084,22.450916 C53.8874929,22.6578257 53.9542821,22.8644311 54.0697559,23.0710365 C54.1850777,23.2780983 54.3740349,23.4635563 54.6361712,23.6281712 C54.8986117,23.7923296 55.2683106,23.8834612 55.7464849,23.8998922 C56.2441331,23.8998922 56.6687544,23.8010016 57.0203487,23.6027639 C57.3714865,23.404374 57.6299715,23.1705357 57.7961078,22.9001838 L59.5175658,22.9001838 L59.5175658,22.9001838 Z" id="Fill-10" fill="#00A3E0"></path>
                <path d="M61.7742504,18.1409572 L63.3186181,18.1409572 L63.1686086,18.9891347 C63.316336,18.8709223 63.4747132,18.7486022 63.6449572,18.6220222 C63.8145927,18.49529 64.0105483,18.3795119 64.2314548,18.273775 C64.4528177,18.1684945 64.7000444,18.0819271 64.973439,18.014225 C65.2468336,17.9469794 65.5567417,17.9132044 65.902859,17.9132044 C66.2570396,17.9132044 66.5867258,17.9556513 66.8928304,18.0396323 C67.1986307,18.1242219 67.4560507,18.2673851 67.6650903,18.4698827 C67.87413,18.6725325 68.0197274,18.9468399 68.1024913,19.2928051 C68.1846466,19.6389223 68.180691,20.0693249 68.0898637,20.5838605 L67.3223201,24.9379398 L65.7528494,24.9379398 L66.4176989,21.1660983 C66.5368241,20.4912076 66.5130903,20.0039049 66.3463455,19.704038 C66.1796006,19.4046276 65.8307448,19.2549223 65.2988653,19.2549223 C64.9869794,19.2549223 64.711607,19.2844374 64.4733566,19.3434675 C64.2351062,19.4026498 64.0251537,19.4808494 63.8434992,19.5776101 C63.6618447,19.674523 63.5014897,19.7822377 63.3624342,19.9002979 C63.2233788,20.0188146 63.0928431,20.1367227 62.9709794,20.2546307 L62.1453185,24.9379398 L60.5756957,24.9379398 L61.7742504,18.1409572" id="Fill-11" fill="#00A3E0"></path>
                <path d="M69.4422314,18.3688621 L70.6575214,18.3688621 L71.0477591,16.1537116 L72.6175341,16.1537116 L72.2269921,18.3688621 L74.5938257,18.3688621 L74.357401,19.71058 L71.9905674,19.71058 L71.4411918,22.8242662 C71.4203487,22.9427829 71.4141109,23.0629731 71.4221743,23.1848368 C71.4297813,23.3076133 71.4658384,23.4147195 71.5294326,23.5078288 C71.5930269,23.6007861 71.6917655,23.6768558 71.8248875,23.7355816 C71.9578574,23.7946117 72.1382948,23.8241268 72.3663518,23.8241268 C72.5180349,23.8241268 72.7317908,23.8072393 73.0077718,23.7734643 C73.2837528,23.7399937 73.5285452,23.6935911 73.7413883,23.6342567 L73.4982694,25.0140095 C73.299271,25.0391125 73.1244628,25.0623899 72.9732361,25.0835372 C72.8217052,25.1046846 72.6791506,25.12142 72.5466371,25.1341997 C72.4136672,25.1466751 72.2851094,25.1550428 72.1623328,25.1593027 C72.0394041,25.1635626 71.9099334,25.1659968 71.7751379,25.1659968 C71.4039176,25.1659968 71.0787956,25.132374 70.7993154,25.0648241 C70.5199873,24.9969699 70.2967987,24.8875816 70.1299017,24.7357464 C69.9622441,24.583607 69.8502694,24.3812615 69.7939778,24.1277971 C69.7373819,23.8746371 69.7416418,23.562599 69.8070618,23.1912266 L70.4209445,19.71058 L69.2059588,19.71058 L69.4422314,18.3688621" id="Fill-12" fill="#00A3E0"></path>
                <path d="M80.5945103,20.2293756 C80.5488685,20.1536101 80.4840571,20.0544152 80.4003803,19.9319429 C80.3160951,19.809775 80.1977306,19.6914105 80.0449826,19.5776101 C79.8920824,19.4636577 79.6961268,19.3667448 79.4571157,19.2864152 C79.2181046,19.2062377 78.9211284,19.166225 78.5670998,19.166225 C78.2797084,19.166225 78.034916,19.1916323 77.8322662,19.2421426 C77.6290079,19.2928051 77.4613502,19.358225 77.3289889,19.4384025 C77.1964754,19.5187322 77.0968241,19.6071252 77.0294263,19.704038 C76.9615721,19.8012552 76.9194295,19.8961902 76.9031506,19.9888431 C76.8792647,20.1240951 76.9001078,20.2316577 76.9662884,20.311683 C77.0321648,20.3921648 77.1302948,20.4594105 77.2596133,20.5143328 C77.3892361,20.5692552 77.5482219,20.6113978 77.7373312,20.6407607 C77.9261363,20.6704279 78.1357845,20.702225 78.3662758,20.7356957 C78.8198035,20.794878 79.2549223,20.8645578 79.6710238,20.9447353 C80.0871252,21.025065 80.4461743,21.1429731 80.7478669,21.298916 C81.0489509,21.4553154 81.2744216,21.6617686 81.4229097,21.9190365 C81.5717021,22.1769128 81.6086719,22.5164881 81.53458,22.9380666 C81.4764628,23.2674485 81.3672266,23.5519493 81.2068716,23.7923296 C81.0462124,24.0328621 80.8564945,24.2355119 80.6374136,24.4001268 C80.4187892,24.5645895 80.1799303,24.6975594 79.9219017,24.7987322 C79.6631125,24.9000571 79.4026498,24.9779525 79.1400571,25.0330269 C78.8774643,25.0877971 78.6259778,25.1233978 78.3866624,25.1407417 C78.1474992,25.157477 77.9352647,25.1659968 77.7498067,25.1659968 C77.1672647,25.1659968 76.6851347,25.1129002 76.3029604,25.0079239 C75.9204818,24.9023391 75.6061616,24.7692171 75.3604564,24.6091664 C75.1147512,24.4485071 74.9183391,24.269439 74.771981,24.070897 C74.6253185,23.8728114 74.496,23.684767 74.3841775,23.5078288 L75.8489762,22.7355689 C75.9452805,22.9552583 76.0709477,23.1407163 76.2252171,23.2927036 C76.3803994,23.4443867 76.5574897,23.5645769 76.7569445,23.6532742 C76.9563994,23.7416672 77.1731981,23.8049572 77.4070365,23.8431442 C77.6407227,23.8811791 77.8797338,23.8998922 78.1245261,23.8998922 C78.3356957,23.8998922 78.5388019,23.8834612 78.7349097,23.8495341 C78.930561,23.8162155 79.1082599,23.765401 79.2678542,23.6976989 C79.4274485,23.6299968 79.5608748,23.5438859 79.667981,23.438149 C79.7752393,23.3328685 79.8421807,23.2040063 79.8689572,23.0521712 C79.8913217,22.925439 79.8799113,22.8224406 79.8351823,22.7421109 C79.7899968,22.6620856 79.6961268,22.5965135 79.5531157,22.5456989 C79.4104089,22.4950365 79.2097369,22.4486339 78.9509477,22.4066434 C78.692767,22.3645008 78.3620158,22.3138384 77.9589984,22.254504 C77.3326403,22.1703708 76.8292108,22.0583962 76.4484057,21.9190365 C76.0682092,21.7802853 75.7808177,21.6155182 75.5862314,21.4256482 C75.3919493,21.2357781 75.2746498,21.0268906 75.2349414,20.79929 C75.1947765,20.5713851 75.1981236,20.3265927 75.2439176,20.0647607 C75.2754105,19.8878225 75.3552837,19.674523 75.483233,19.4256228 C75.6114865,19.1768748 75.8136799,18.9404501 76.0892044,18.7169572 C76.3650333,18.4933122 76.7259081,18.3014643 77.171981,18.1409572 C77.6177496,17.9809065 78.1700158,17.9005769 78.8283233,17.9005769 C79.022149,17.9005769 79.2616165,17.9173122 79.5470301,17.9510872 C79.8321395,17.9848621 80.1251601,18.0566719 80.4268526,18.1662124 C80.7277845,18.2762092 81.0220222,18.438542 81.3091094,18.6536672 C81.5958922,18.8689445 81.8347512,19.1534453 82.0253819,19.5079303 L80.5945103,20.2293756" id="Fill-13" fill="#00A3E0"></path>
                <path d="M31.3525959,33.3772678 C31.2975214,33.2590555 31.2254073,33.1175658 31.1362536,32.9529509 C31.0469477,32.7884881 30.9150428,32.6304152 30.7391696,32.47858 C30.5632964,32.3264406 30.3391949,32.1978827 30.066561,32.0924501 C29.7940792,31.9870174 29.4511569,31.9343772 29.037794,31.9343772 C28.6916767,31.9343772 28.3454073,31.9848875 27.9980729,32.0860602 C27.6514992,32.187233 27.3274422,32.3477401 27.027271,32.5669731 C26.727252,32.7868146 26.4661807,33.0690333 26.2452742,33.4148463 C26.0237591,33.7612678 25.8707068,34.1746307 25.785813,34.6556957 C25.7219144,35.0183962 25.7362155,35.3558415 25.8288685,35.6680317 C25.921065,35.980374 26.0739651,36.2504216 26.2868082,36.4781743 C26.4998035,36.7059271 26.7701553,36.8854517 27.0972552,37.0161395 C27.424355,37.1471315 27.7905547,37.2122472 28.1955499,37.2122472 C28.4655975,37.2122472 28.729103,37.1894263 28.9860666,37.1425674 C29.2434865,37.096317 29.496038,37.0161395 29.7438732,36.902187 C29.9917084,36.7883867 30.2317845,36.6345737 30.4644057,36.4402916 C30.6970269,36.2463138 30.9284311,35.9972615 31.1593788,35.6932868 L31.9584152,36.1868273 C31.7702187,36.4402916 31.5549414,36.6808241 31.3121268,36.908729 C31.0696165,37.1363296 30.7910491,37.3388273 30.4773376,37.5159176 C30.1631696,37.6933122 29.8032076,37.8325198 29.3974517,37.9336926 C28.9912393,38.0353217 28.5308653,38.0856799 28.0160254,38.0856799 C27.416748,38.0856799 26.8971918,37.9950048 26.4565959,37.8135024 C26.016,37.6323043 25.6548209,37.3830998 25.3733629,37.0666498 C25.0916006,36.7500475 24.9000571,36.3768494 24.7987322,35.9464469 C24.6972552,35.5165008 24.6904089,35.0523233 24.7783455,34.5540666 C24.878149,33.9888685 25.0677147,33.4869604 25.3474992,33.048038 C25.6277401,32.6092678 25.9660983,32.2442853 26.3637908,31.9530903 C26.7607227,31.6620475 27.2028399,31.4403803 27.6896862,31.2886973 C28.1762282,31.13671 28.676767,31.0607924 29.1917591,31.0607924 C29.6894073,31.0607924 30.1161585,31.1158669 30.472317,31.2254073 C30.8287797,31.3350998 31.129103,31.4743074 31.3735911,31.6427258 C31.617775,31.8120571 31.8161648,32.0058827 31.9672393,32.2252678 C32.1181616,32.4446529 32.2386561,32.6599303 32.327962,32.8707956 L31.3525959,33.3772678" id="Fill-14" fill="#00A3E0"></path>
                <path d="M36.574935,37.2122472 C37.0051854,37.2122472 37.4040951,37.1491094 37.772729,37.022225 C38.1406022,36.8961014 38.4655721,36.7185547 38.7462694,36.490954 C39.0269667,36.2632013 39.2589794,35.9867639 39.4427639,35.6619461 C39.6267005,35.3371284 39.7534326,34.9764057 39.8234168,34.579626 C39.877122,34.2759556 39.8807734,33.9678732 39.8346751,33.6553788 C39.7882726,33.3434929 39.6753851,33.0606656 39.4967734,32.8075055 C39.3177052,32.5543455 39.0653059,32.3456101 38.7404881,32.1808431 C38.4149097,32.0165325 38.0032203,31.9343772 37.5055721,31.9343772 C37.0076197,31.9343772 36.5668716,32.0165325 36.1836323,32.1808431 C35.7999366,32.3456101 35.4739017,32.5543455 35.205832,32.8075055 C34.9376101,33.0606656 34.7232456,33.3434929 34.5627385,33.6553788 C34.4020792,33.9678732 34.2954295,34.2759556 34.2417242,34.579626 C34.1717401,34.9764057 34.1735658,35.3371284 34.2470491,35.6619461 C34.3203803,35.9867639 34.4576101,36.2632013 34.6578257,36.490954 C34.8580412,36.7185547 35.1198732,36.8961014 35.4437781,37.022225 C35.7670745,37.1491094 36.1443803,37.2122472 36.574935,37.2122472 Z M36.4206656,38.0856799 C35.8550111,38.0856799 35.3527987,38.0053502 34.9126593,37.8451474 C34.4725198,37.6850967 34.1108843,37.4508019 33.8276006,37.1425674 C33.5444691,36.8346371 33.3497306,36.454897 33.2436894,36.0034992 C33.1376482,35.5522536 33.1359746,35.0349794 33.2388209,34.4528938 C33.3218891,33.9805008 33.4904596,33.5374707 33.7452932,33.1239556 C33.9992139,32.7107448 34.317794,32.3518479 34.700729,32.0478732 C35.0835119,31.744355 35.526542,31.5039746 36.03058,31.32658 C36.5340095,31.1491854 37.0771474,31.0607924 37.6595372,31.0607924 C38.241775,31.0607924 38.7511379,31.1491854 39.1882345,31.32658 C39.6254834,31.5039746 39.9839239,31.744355 40.2637084,32.0478732 C40.5431886,32.3518479 40.7353407,32.7107448 40.8398605,33.1239556 C40.9437718,33.5374707 40.9545737,33.9805008 40.8715055,34.4528938 C40.7685071,35.0349794 40.5845705,35.5522536 40.3193914,36.0034992 C40.0540602,36.454897 39.7252868,36.8346371 39.3335277,37.1425674 C38.9416165,37.4508019 38.4994992,37.6850967 38.0073281,37.8451474 C37.5147005,38.0053502 36.9857116,38.0856799 36.4206656,38.0856799 L36.4206656,38.0856799 Z" id="Fill-15" fill="#00A3E0"></path>
                <path d="M42.7371918,31.2634422 L43.7245769,31.2634422 L43.5617876,32.187233 C43.9976672,31.8668273 44.4416101,31.5987575 44.8931601,31.3837845 C45.3442536,31.1685071 45.8444881,31.0607924 46.393103,31.0607924 C46.7556513,31.0607924 47.0485198,31.0989794 47.2714041,31.1747448 C47.4945927,31.2508146 47.6735087,31.3478796 47.8084564,31.4659398 C47.9438605,31.5843043 48.0459461,31.7125578 48.1139525,31.8520697 C48.1825674,31.9909731 48.2397718,32.1199873 48.2866307,32.2380475 C48.5866498,32.0185103 48.8592837,31.8351823 49.1054453,31.6873027 C49.3502377,31.5398796 49.5869667,31.4196894 49.8144152,31.32658 C50.0414073,31.2339271 50.2662694,31.1666815 50.4891537,31.1240824 C50.7118859,31.0819398 50.94542,31.0607924 51.1900602,31.0607924 C51.3421997,31.0607924 51.5497179,31.0776799 51.8141363,31.111607 C52.0780983,31.1452298 52.3312583,31.2295151 52.5733122,31.3644628 C52.8147575,31.4998669 53.0113217,31.7022124 53.1622441,31.9721078 C53.31271,32.2424596 53.3460285,32.6177876 53.2609826,33.0987005 L52.4172171,37.8833344 L51.3921014,37.8833344 L52.1686212,33.4782884 C52.1864216,33.3772678 52.2023962,33.240038 52.2160887,33.0669033 C52.2296292,32.894225 52.2069604,32.7233724 52.1480824,32.5543455 C52.0892044,32.385775 51.9714485,32.2403296 51.7945103,32.1177052 C51.6178764,31.9953851 51.3481331,31.9343772 50.9855848,31.9343772 C50.6983455,31.9343772 50.4232773,31.9763677 50.1591632,32.0605008 C49.8955055,32.1452425 49.6499525,32.2465674 49.4221997,32.3646276 C49.1947512,32.4829921 48.9911886,32.6092678 48.8112076,32.7440634 C48.6309223,32.8794675 48.4775658,32.9972235 48.3499208,33.0987005 L47.5061553,37.8833344 L46.4811918,37.8833344 L47.2577116,33.4782884 C47.275664,33.3772678 47.2913344,33.240038 47.3050269,33.0669033 C47.3184152,32.894225 47.2957464,32.7233724 47.2371727,32.5543455 C47.1781426,32.385775 47.0626688,32.2403296 46.8899905,32.1177052 C46.7174643,31.9953851 46.4541109,31.9343772 46.0997781,31.9343772 C45.8043233,31.9343772 45.5227132,31.9763677 45.2546434,32.0605008 C44.9865737,32.1452425 44.7387385,32.2465674 44.5111379,32.3646276 C44.2835372,32.4829921 44.0798225,32.6092678 43.8999937,32.7440634 C43.7198605,32.8794675 43.5663518,32.9972235 43.4390111,33.0987005 L42.5953978,37.8833344 L41.5698257,37.8833344 L42.7371918,31.2634422" id="Fill-16" fill="#00A3E0"></path>
                <path d="M60.8392013,33.9085388 C60.8363106,33.6386434 60.7839746,33.3835055 60.6831062,33.1429731 C60.5820856,32.9022884 60.433141,32.6935531 60.2364247,32.5163106 C60.0398605,32.3392203 59.794916,32.1978827 59.501439,32.0924501 C59.2073534,31.9870174 58.8668653,31.9343772 58.4787575,31.9343772 C57.7194295,31.9343772 57.0929192,32.1111632 56.6001395,32.4656482 C56.1070555,32.8202853 55.735683,33.3011981 55.4848051,33.9085388 L60.8392013,33.9085388 Z M61.3056609,36.5035816 C61.1054453,36.6808241 60.8957971,36.8641521 60.6768685,37.0541743 C60.4579398,37.2440444 60.2021933,37.4147448 59.9091727,37.5667322 C59.6166086,37.7185674 59.2721648,37.8433217 58.875233,37.9402345 C58.4786054,38.0369952 57.9969319,38.0856799 57.4314295,38.0856799 C56.8749033,38.0856799 56.3821236,37.9972868 55.9533946,37.8200444 C55.525122,37.6428019 55.1741363,37.3957274 54.9002853,37.0792773 C54.6274992,36.7631315 54.4380856,36.3876513 54.3334136,35.9528368 C54.2285895,35.5183265 54.2211347,35.0477591 54.3104406,34.541439 C54.4023328,34.0183835 54.5794231,33.5415784 54.8409509,33.1113281 C55.1021743,32.6807734 55.4222758,32.313813 55.8007987,32.0101426 C56.1793217,31.7063201 56.6047036,31.4721775 57.0766403,31.3074105 C57.548729,31.143252 58.0380095,31.0607924 58.5441775,31.0607924 C59.0757528,31.0607924 59.5673154,31.1324501 60.0188653,31.2759176 C60.4701109,31.4196894 60.8484818,31.6409002 61.1548906,31.9404628 C61.4605388,32.2403296 61.6755119,32.6238732 61.7996577,33.0921585 C61.9236513,33.5604437 61.9234992,34.1238162 61.798897,34.7819715 L55.2931094,34.7819715 C55.2631379,35.0944659 55.2906751,35.3958542 55.3740475,35.6872013 C55.4575721,35.9782441 55.5992139,36.2376418 55.7998859,36.4653946 C55.9999493,36.6934517 56.2569128,36.874954 56.5710808,37.0095975 C56.8846403,37.1450016 57.2570777,37.2122472 57.6873281,37.2122472 C58.1177306,37.2122472 58.4877338,37.1701046 58.7982504,37.0855151 C59.1083106,37.0016862 59.3759239,36.8939715 59.601851,36.7631315 C59.8274739,36.6322916 60.0209952,36.490954 60.1827195,36.3388146 C60.3442916,36.1868273 60.4873027,36.0477718 60.6109921,35.9210396 L61.3056609,36.5035816 L61.3056609,36.5035816 Z" id="Fill-17" fill="#00A3E0"></path>
                <path d="M68.0615658,37.8833344 L68.9835309,32.6555182 L67.477046,32.6555182 L67.7136228,31.3139525 L69.2199556,31.3139525 L69.3584025,30.529065 C69.4192583,30.1830998 69.5259081,29.8899271 69.6778954,29.6495468 C69.8300349,29.4088621 70.0040824,29.2109287 70.2004945,29.0545293 C70.3969065,28.8984342 70.6051854,28.7806783 70.8260919,28.7001965 C71.0469984,28.6201712 71.2599937,28.5608368 71.4650777,28.5228019 C71.6695531,28.4850713 71.8554675,28.4639239 72.0203867,28.459664 C72.1856101,28.4555563 72.3105166,28.4532742 72.394954,28.4532742 C72.5467892,28.4532742 72.6876704,28.4576862 72.8165325,28.4659017 C72.9460032,28.4745737 73.074561,28.4872013 73.202206,28.5040887 C73.3301553,28.5209762 73.4635816,28.5421236 73.6026371,28.5672266 C73.7413883,28.5926339 73.8923106,28.622149 74.055252,28.6556197 L73.8186751,29.9976418 C73.6251537,29.9469794 73.4611474,29.9089445 73.3263518,29.8836894 C73.1917084,29.8582821 73.0765388,29.8392647 72.9820602,29.8266371 C72.8868209,29.8138574 72.8002536,29.8054897 72.7202282,29.8013819 C72.6412678,29.7972742 72.5591125,29.7949921 72.4746751,29.7949921 C72.1553344,29.7869287 71.8971537,29.8161395 71.699981,29.8836894 C71.5020475,29.9512393 71.345496,30.0378067 71.22987,30.1430872 C71.1139398,30.2486719 71.0305674,30.3647544 70.9785357,30.4911823 C70.9268082,30.6180666 70.8915119,30.7359746 70.872038,30.8456672 L70.7895784,31.3139525 L73.2321775,31.3139525 L72.9957528,32.6555182 L70.5530016,32.6555182 L69.6313407,37.8833344 L68.0615658,37.8833344" id="Fill-18" fill="#00A3E0"></path>
                <path d="M74.8293376,31.0860475 L76.3986561,31.0860475 L75.2005578,37.8833344 L73.6307829,37.8833344 L74.8293376,31.0860475 Z M75.2933629,28.4532742 L76.8628336,28.4532742 L76.6175848,29.8455024 L75.0481141,29.8455024 L75.2933629,28.4532742 L75.2933629,28.4532742 Z" id="Fill-19" fill="#00A3E0"></path>
                <path d="M78.2217433,31.0860475 L79.7912139,31.0860475 L79.6124501,32.0985357 L79.6504849,32.0985357 C79.758504,31.9637401 79.8913217,31.8222504 80.0481775,31.6746751 C80.204729,31.527252 80.3909477,31.3921521 80.6066815,31.2695277 C80.8221109,31.1475119 81.0656862,31.048317 81.3363423,30.9720951 C81.6071506,30.8963296 81.9114295,30.8582948 82.2488748,30.8582948 L82.5526973,30.8582948 C82.6371347,30.8582948 82.7197464,30.8668146 82.8012932,30.8835499 L82.502187,32.5796006 C82.4294643,32.5628653 82.3199239,32.5377623 82.1735658,32.503683 C82.0279683,32.4700602 81.8241014,32.4530206 81.5627258,32.4530206 C81.0647734,32.4530206 80.6675372,32.5269604 80.3717781,32.6743835 C80.0755626,32.8222631 79.8473534,32.9931157 79.6862377,33.1870935 C79.5255784,33.3813756 79.4140602,33.5818954 79.352748,33.7883487 C79.2909794,33.9952583 79.2495975,34.1577433 79.2287544,34.2759556 L78.5929635,37.8833344 L77.0233407,37.8833344 L78.2217433,31.0860475" id="Fill-20" fill="#00A3E0"></path>
                <path d="M88.5991759,33.1743138 C88.5538384,33.0987005 88.4887227,32.9996577 88.405046,32.8770333 C88.3207607,32.7548653 88.2025483,32.6366529 88.0496482,32.5228526 C87.8969002,32.4085959 87.7009445,32.311683 87.4620856,32.2315055 C87.2229223,32.1514802 86.9259461,32.1111632 86.5717655,32.1111632 C86.2846783,32.1111632 86.0395816,32.1368748 85.8367797,32.187233 C85.6336735,32.2380475 85.4663201,32.3033154 85.3341109,32.3833407 C85.2012932,32.4636704 85.1014897,32.5522155 85.0340919,32.6491284 C84.9663899,32.7464976 84.9242472,32.8412805 84.9078162,32.9339334 C84.8839303,33.0690333 84.9049255,33.176748 84.970954,33.2567734 C85.0369826,33.3372552 85.1349604,33.4048051 85.2644311,33.459271 C85.3940539,33.5143455 85.5530396,33.5567924 85.7419968,33.5860032 C85.9308019,33.6156704 86.1402979,33.6473154 86.3709414,33.6807861 C86.8244691,33.7399683 87.2594358,33.8096482 87.6758415,33.8899778 C88.0919429,33.9701553 88.4506878,34.0879113 88.7526846,34.2440063 C89.0540729,34.4004057 89.278935,34.6070111 89.4277274,34.8644311 C89.5765198,35.121851 89.6139461,35.4615784 89.5393978,35.8831569 C89.4811284,36.2123867 89.3720444,36.4970396 89.2115372,36.73742 C89.050878,36.9779525 88.8611601,37.1806022 88.6422314,37.345065 C88.4234548,37.509832 88.1852044,37.6428019 87.9267195,37.7438225 C87.6677781,37.8451474 87.4074675,37.9230428 87.1448748,37.9781173 C86.88213,38.0330396 86.6306434,38.0686403 86.3914802,38.0856799 C86.152317,38.1025674 85.9399303,38.1110872 85.7544723,38.1110872 C85.1720824,38.1110872 84.6898003,38.0581426 84.3077781,37.9528621 C83.9252995,37.8474295 83.6112837,37.7143074 83.3652742,37.5542567 C83.1194168,37.3940539 82.9230048,37.2146815 82.7767987,37.0161395 C82.6301363,36.8179017 82.5008177,36.6300095 82.388691,36.4529192 L83.8536418,35.6806593 C83.9500983,35.9003487 84.0757655,36.0858067 84.230187,36.2376418 C84.3849128,36.389477 84.5621553,36.5096672 84.7616101,36.5983645 C84.961065,36.6867575 85.1780158,36.7500475 85.4118542,36.7883867 C85.6455404,36.8261173 85.8845515,36.8452868 86.1291918,36.8452868 C86.3402092,36.8452868 86.5437718,36.8285515 86.7397274,36.7944723 C86.9352266,36.7610016 87.1130777,36.710187 87.2726719,36.6427892 C87.4322662,36.5750872 87.5655404,36.4888241 87.6726466,36.3832393 C87.7800571,36.2779588 87.8469984,36.1487924 87.8734707,35.9972615 C87.8959873,35.8706815 87.884729,35.7673788 87.8398479,35.6872013 C87.7946624,35.6070238 87.7007924,35.5417559 87.5580856,35.4907892 C87.4150745,35.4401268 87.2144025,35.3937242 86.9559176,35.3517338 C86.6975848,35.3095911 86.3669857,35.2589287 85.9639683,35.1997464 C85.3373059,35.1154612 84.8338764,35.0036387 84.4532235,34.8644311 C84.0731791,34.7252235 83.7853312,34.5607607 83.5912013,34.3708906 C83.396767,34.1807163 83.2796197,33.971981 83.2397591,33.7442282 C83.1994422,33.5164754 83.2029414,33.2718352 83.2488875,33.0096989 C83.2800761,32.8327607 83.3599493,32.6197655 83.4882029,32.3708653 C83.6164564,32.1219651 83.8183455,31.8855404 84.09387,31.6620475 C84.369851,31.4382504 84.7304216,31.2465547 85.1764945,31.0860475 C85.6224152,30.926149 86.1746815,30.8456672 86.8328368,30.8456672 C87.0269667,30.8456672 87.2664342,30.8625547 87.5518479,30.8963296 C87.8369572,30.9298003 88.1299778,31.0019144 88.4315182,31.111607 C88.7324501,31.2211474 89.0268399,31.3837845 89.313775,31.5987575 C89.60071,31.8140349 89.8395689,32.0985357 90.0301997,32.4530206 L88.5991759,33.1743138" id="Fill-21" fill="#00A3E0"></path>
                <path d="M90.8007861,31.3139525 L92.0157718,31.3139525 L92.4063138,29.098954 L93.9756323,29.098954 L93.5852425,31.3139525 L95.9522282,31.3139525 L95.7154992,32.6555182 L93.3488177,32.6555182 L92.7994422,35.7695087 C92.7787512,35.8875689 92.7722092,36.0079113 92.7805769,36.1302314 C92.7881838,36.2527036 92.8240887,36.3601141 92.8878352,36.4529192 C92.9515816,36.5458764 93.0498637,36.6216418 93.1829857,36.6808241 C93.3161078,36.7398542 93.4968494,36.7692171 93.7247544,36.7692171 C93.8762853,36.7692171 94.0900412,36.7524818 94.3663265,36.7185547 C94.6421553,36.685084 94.8867956,36.6385293 95.0997908,36.5793471 L94.8563677,37.9590998 C94.6575214,37.9845071 94.4830174,38.0076323 94.3313344,38.0287797 C94.1799556,38.0494707 94.0377052,38.0665103 93.9050396,38.0794422 C93.7719176,38.0920697 93.6435119,38.1002853 93.5205832,38.1046973 C93.3978067,38.1088051 93.2684881,38.1110872 93.1335404,38.1110872 C92.7624723,38.1110872 92.437046,38.0771601 92.1577179,38.0099144 C91.8788463,37.9420602 91.6550491,37.8325198 91.4883043,37.6805325 C91.3203423,37.5285452 91.2086719,37.3263518 91.1525325,37.0728875 C91.0954802,36.8197274 91.1000444,36.5079937 91.1654643,36.136317 L91.7793471,32.6555182 L90.5643613,32.6555182 L90.8007861,31.3139525" id="Fill-22" fill="#00A3E0"></path>
                <path d="M0.000152139461,40.4648368 C0.00699841521,40.5968938 0.16096355,40.6040444 0.203866878,40.6040444 C0.247074485,40.6040444 0.398605388,40.7099334 0.662110935,40.7193661 C0.92622504,40.7263645 1.44928051,40.7555753 1.73028209,40.7453819 C2.01341363,40.7362536 2.45005388,40.9113661 2.75965769,40.9016292 C3.06637084,40.8946307 3.15080824,40.8969128 3.22703011,40.6738764 C3.26080507,40.5731601 3.26080507,40.4891791 3.26080507,40.4891791 C3.26080507,40.4891791 3.61376862,40.3855721 3.87788273,40.5247797 C4.14154041,40.6664216 4.53040887,40.753141 4.7776355,40.7700285 C5.02440571,40.789046 5.20925515,40.4818764 5.12999049,40.1047227 C5.05087797,39.7260475 5.02440571,39.322878 5.12999049,38.9989731 C5.23572742,38.6727861 5.84245959,37.2160507 5.78266878,36.2419017 C5.72059588,35.2674485 5.39425674,34.4784532 5.30540729,33.959962 C5.21899208,33.4416228 5.19023772,33.2595119 5.23572742,32.5826434 C5.27908716,31.905775 5.27908716,31.7405515 5.27908716,31.7405515 C5.27908716,31.7405515 5.88825357,31.6518542 5.88825357,31.519645 C5.88825357,31.3904786 5.74645959,31.0373629 5.66765135,30.4424976 C5.58853883,29.8447417 5.53589857,29.4729128 5.30540729,28.743252 C5.07735024,28.0141997 4.69365452,27.6998796 4.69365452,27.6998796 C4.69365452,27.6998796 4.62397464,27.6061616 4.6261046,27.5367861 C4.6311252,27.4480887 4.7198225,27.2798225 4.71023772,27.0012552 C4.70080507,26.6778067 4.66946434,26.392393 4.68406973,26.1638796 C4.70080507,25.8739017 4.7537496,25.6987892 4.78235182,25.4949223 C4.80867195,25.3074865 4.98135024,25.0628463 5.02440571,25.0194865 C5.07019968,24.9744532 4.98850079,25.0628463 5.19967036,24.964412 C5.41099208,24.868412 5.51657686,24.5445071 5.50927417,24.1319049 C5.49984152,23.7191506 5.67738827,22.9727544 5.73018067,22.7547385 C5.78997147,22.5003613 5.78768938,22.497775 5.78997147,22.4740412 C5.78997147,22.4740412 5.91959429,22.4475689 5.7491981,22.1282282 C5.67951823,22.0011918 5.32229477,21.9290777 5.21655784,21.8933249 C5.11097306,21.8595499 5.06517908,21.8449445 4.94529319,21.7900222 C4.85431379,21.7466624 4.7653122,21.6750048 4.7653122,21.6750048 C4.7653122,21.6750048 4.65972742,21.5691157 4.61651981,21.427626 C4.57346434,21.2885705 4.54683994,21.1737052 4.54683994,21.1737052 C4.54683994,21.1737052 4.73914422,21.2789857 4.844729,21.2885705 C4.95290016,21.2983074 5.16376545,21.2983074 5.24303011,21.2620983 C5.32229477,21.2258891 5.43518225,21.2093059 5.50653566,21.2258891 C5.57651981,21.2452108 5.69168938,21.2359303 5.78053883,21.1737052 C5.86664976,21.113458 5.88566719,20.7699271 5.88566719,20.2085325 C5.88566719,19.6469857 5.92917908,18.7595563 5.72774643,18.085122 C5.52342314,17.4085578 5.12786054,16.8205388 4.53755943,16.7678986 C3.94695404,16.7152583 3.68329635,16.8470111 3.68329635,16.8470111 C3.68329635,16.8470111 2.84546434,16.9694834 2.28939461,17.3653502 C1.73484628,17.7615214 1.77805388,18.049065 1.77090333,18.1382187 C1.74945166,18.3563867 1.68205388,18.6851601 1.69894136,18.7790301 C1.7179588,18.8747258 1.77090333,18.937103 1.80452615,19.093046 C1.8405832,19.2515753 1.77090333,19.3763296 1.69148653,19.5156894 C1.61222187,19.6568748 1.50663708,19.7793471 1.54041204,19.8656101 C1.58133756,19.9638922 1.6724691,19.9809319 1.69894136,20.007252 C1.72541363,20.0338764 1.72541363,20.1391569 1.69148653,20.2518922 C1.64599683,20.4008368 1.74427892,20.4367417 1.79752773,20.4895341 C1.81654517,20.5085515 1.77805388,20.5592139 1.75158162,20.6047036 C1.72541363,20.6480634 1.7611664,20.7341743 1.81426307,20.779664 C1.86675119,20.8230238 1.91969572,20.875664 1.9026561,20.971664 C1.88363867,21.067664 1.86675119,21.2359303 1.96518542,21.331626 C2.06133756,21.427626 2.39513154,21.331626 2.55579081,21.2983074 C2.71401585,21.2620983 2.75752773,21.2187385 2.75752773,21.2187385 C2.75752773,21.2187385 2.76635182,21.3941553 2.71401585,21.4373629 C2.66137559,21.4804184 2.59428209,21.6127797 2.42114739,21.729775 C2.20997781,21.8712647 1.78064025,22.2726086 1.72739144,22.3681521 C1.67490333,22.4641521 1.44212995,22.9271125 1.3605832,23.3330206 C1.24754358,23.8945674 1.24754358,24.0576609 1.24313154,24.371981 C1.23598098,24.7366593 1.28862124,25.120355 1.2645832,25.5498447 C1.25012995,25.8498637 1.3150935,26.226561 1.27660222,27.1240317 C1.25256418,27.7312203 1.08703645,27.9757084 1.09905547,28.0622758 C1.11107448,28.1343899 1.16371474,28.2518415 1.16371474,28.2518415 C1.16371474,28.2518415 1.06056418,28.7700285 1.05341363,28.9119746 C1.03926466,29.1610269 0.983885895,29.3723487 1.00533756,29.5909731 C1.02678922,29.8138574 1.18303645,30.3008558 1.13754675,30.6440824 C1.09433914,30.9847227 0.969432647,31.3113661 0.943264659,31.3804374 C0.916792393,31.4505737 1.04139461,31.519645 1.18303645,31.5727417 C1.3223962,31.6253819 1.46373376,31.635271 1.46373376,31.635271 C1.46373376,31.635271 1.63869414,32.3448494 1.76344849,32.6357401 C1.8860729,32.9260222 2.17894136,33.5855468 2.15946751,33.9287734 C2.14273217,34.2721521 2.14988273,34.4566973 2.26292235,34.7809065 C2.32742948,34.9675816 2.41871315,35.1213946 2.37322345,35.2704913 C2.33001585,35.4189794 2.18852615,36.2708082 2.14988273,37.2953154 C2.11884628,38.2000887 2.10682726,39.1310301 1.93871315,39.4380475 C1.77364184,39.745065 1.57890333,39.6852742 1.2696038,39.8749921 C1.08475436,39.9901616 0.851828843,40.1555372 0.556982567,40.2442345 C0.285565769,40.325477 -0.00973692552,40.2564057 0.000152139461,40.4648368 Z M3.20101426,39.8894453 C3.20101426,39.8894453 3.20101426,39.4448938 3.33991759,38.6968241 C3.47942948,37.9454073 3.82493819,37.1132044 3.86084311,36.4650903 C3.89887797,35.8172805 3.8053122,35.3996577 3.82493819,35.1311315 C3.84182567,34.8645832 3.89887797,34.7615848 3.89887797,34.7615848 C3.89887797,34.7615848 4.13925832,35.1140919 4.19676704,35.7981109 C4.25184152,36.4841078 4.19676704,36.9641078 4.16816482,37.546954 C4.13925832,38.1307132 3.92535024,39.0948209 3.82493819,39.3636513 C3.7216355,39.630504 3.20101426,39.8894453 3.20101426,39.8894453 L3.20101426,39.8894453 Z" id="Fill-24" fill="#97999B"></path>
                <path d="M5.76349921,22.2094707 C5.76349921,22.2094707 5.6582187,22.6226815 5.59797147,22.9295468 C5.53589857,23.2370206 5.48295404,23.762206 5.49284311,23.9828082 C5.49984152,24.2012805 5.46591442,24.4652425 5.46591442,24.4652425 C5.46591442,24.4652425 5.40368938,24.8157718 5.30540729,24.9044691 C5.20925515,24.9908843 5.07735024,24.9744532 5.07735024,24.9744532 C5.07735024,24.9744532 5.14703011,25.3773185 5.21899208,25.5717528 C5.28851981,25.7636006 5.31483994,25.7896165 5.27163233,25.8428653 C5.22614263,25.8958098 4.92870998,26.0441458 4.73442789,26.1494263 C4.53999366,26.2556197 4.32897623,26.3347322 4.23023772,26.3517718 C4.134542,26.3701807 4.09863708,26.3701807 4.09863708,26.3701807 C4.09863708,26.3701807 4.14397464,26.3082599 4.07216482,26.1854834 C4.00248494,26.0611854 3.96642789,26.0274105 3.96642789,26.0274105 C3.96642789,26.0274105 4.11765452,25.9481458 4.09863708,25.8332805 C4.0817496,25.7202409 4.00248494,25.7296735 4.00248494,25.7296735 C4.00248494,25.7296735 4.18672583,25.6508653 4.14397464,25.5356957 C4.09863708,25.420374 3.98559746,25.4463899 3.98559746,25.4463899 C3.98559746,25.4463899 3.90633281,25.3341109 3.80074802,25.4036387 C3.692729,25.4730143 3.4386561,25.6315436 3.34950238,25.7567544 C3.26080507,25.8786181 3.06926149,26.2194105 3.02346751,26.3517718 C2.9802599,26.4832203 2.9802599,26.536317 3.0596767,26.5795246 C3.13863708,26.62471 3.1217496,26.7900856 3.19142948,26.8264469 C3.26080507,26.8600697 3.33322345,26.8337496 3.37597464,26.8793914 C3.42161648,26.922599 3.58714422,26.9924311 3.68557845,27.0546561 C3.78157845,27.1142948 3.89674802,27.2128811 4.01922029,27.1769762 L4.14397464,27.140767 C4.14397464,27.140767 4.35529635,27.1935594 4.47046593,27.1935594 C4.58289699,27.1935594 5.36032964,27.1859525 5.79955626,27.0639366 C6.24091284,26.9394865 6.46166719,26.8264469 6.54077971,26.4932615 C6.62019651,26.1594675 6.52176228,25.6939208 6.41632964,24.9908843 C6.31044057,24.2898257 6.13593661,23.6929826 6.05651981,23.3232837 C5.97740729,22.9563233 5.97740729,22.7281141 5.89829477,22.490168 C5.81674802,22.2535911 5.76349921,22.2094707 5.76349921,22.2094707" id="Fill-26" fill="#97999B"></path>
                <path d="M3.28027892,23.6493185 C3.28027892,23.6493185 3.49859905,22.9656038 3.29701426,22.4740412 C3.09573376,21.9821743 2.85565769,21.7180602 2.7500729,21.7104532 C2.64448811,21.7011727 2.4331664,21.7372298 2.22184469,21.8764374 C2.01067512,22.0180792 1.67490333,22.1043423 1.67490333,22.5075119 C1.67490333,22.9131157 1.70137559,23.1481712 1.79965769,23.411981 C1.89565769,23.6760951 1.98420285,23.7644881 2.00109033,23.9736799 C2.01812995,24.1846973 2.16920444,24.6236197 2.22184469,24.8612615 C2.27478922,25.0964691 2.31799683,25.3698637 2.20495721,25.528393 C2.09024406,25.6869223 1.79965769,26.5725261 1.72069731,27.018599 C1.64158479,27.4671062 1.42067829,27.9398035 1.42067829,28.1514295 C1.42067829,28.3622948 1.40120444,28.5736165 1.64843106,28.8276894 C1.89565769,29.0820666 2.31799683,29.3002345 2.44259905,29.3796513 C2.56522345,29.458916 2.7500729,29.4154041 2.87467512,29.3098193 C2.99729952,29.2042345 3.26080507,29.0555943 3.40229477,28.9068019 C3.54393661,28.7581616 3.57040887,28.6597274 3.68557845,28.5468399 C3.79846593,28.4318225 3.80789857,28.3257813 3.74582567,28.2827258 C3.68557845,28.2398225 3.57999366,28.3449509 3.57999366,28.3449509 C3.57999366,28.3449509 3.51776862,28.2468209 3.40229477,28.3359746 C3.2871252,28.4245198 3.21790174,28.554599 3.16465293,28.6163677 C3.11216482,28.6790491 2.87467512,28.7651601 2.82903328,28.7218003 C2.78567353,28.6790491 2.70656101,28.5736165 2.7500729,28.554599 C2.7955626,28.537103 2.93477021,28.554599 3.06926149,28.5110872 C3.20101426,28.4675753 3.34950238,28.3449509 3.32318225,28.2565578 C3.29701426,28.1696862 3.17484628,28.1514295 3.014187,28.1870301 C2.85565769,28.2205008 2.74277021,28.2297813 2.62729635,28.2138067 C2.51243106,28.1944849 2.41612678,28.2565578 2.40669414,28.1604057 C2.39710935,28.0645578 2.58424089,27.6591062 2.82903328,27.2293122 C3.07641204,26.8002789 3.38540729,26.3875246 3.4386561,25.9481458 C3.49114422,25.5090713 3.54393661,25.3698637 3.48155943,24.7728685 C3.41933439,24.1752647 3.28027892,23.6493185 3.28027892,23.6493185" id="Fill-27" fill="#97999B"></path>
                <path d="M8.05517591,9.74955309 C8.05517591,9.74955309 8.71257052,9.62464659 8.9237401,9.49289382 C9.13719176,9.36311886 9.0197401,8.77053566 9.0197401,8.77053566 C9.0197401,8.77053566 8.61413629,8.64791125 8.52300475,8.52787322 C8.43202536,8.40570523 8.47264659,8.18510301 8.55419334,8.02200951 C8.63361014,7.8611981 8.55419334,7.70981933 8.58264342,7.64744216 C8.61413629,7.58734707 8.70511569,7.5782187 8.70511569,7.5782187 C8.70511569,7.5782187 8.61413629,7.38606656 8.66449445,7.3141046 C8.71530903,7.24457686 8.77722979,7.18432964 8.77722979,7.15314105 L8.77722979,7.1221046 C8.77722979,7.1221046 8.55419334,6.95186054 8.60455151,6.85099208 C8.65521395,6.74768938 8.8782504,6.61837084 9.00072266,6.52708716 C9.12045642,6.43610777 9.26422821,6.27483994 9.29343899,6.19344532 C9.3243233,6.11174643 9.26422821,5.9701046 9.34334073,5.80001268 C9.42488748,5.62703011 9.55709667,5.43518225 9.55709667,5.43518225 C9.55709667,5.43518225 9.48756894,5.00112837 9.93379398,4.66733439 C10.3801712,4.33399683 11.3330206,4.19235499 12.1246022,4.50424089 C12.916336,4.81871315 13.516374,5.38482409 13.7082219,6.09288114 C13.902504,6.79819968 13.5766212,8.30483677 13.8809002,9.15438352 C14.1857876,10.0037781 14.418561,10.3781933 14.418561,10.3781933 C14.418561,10.3781933 15.332767,10.8820792 15.5151823,11.8321902 C15.6974453,12.7823011 16.4076323,14.8939968 16.6212361,15.6233534 C16.8345357,16.3502758 16.5710301,17.6843867 16.1534073,17.8958605 C15.7380666,18.1091601 14.9058637,17.3198605 14.9058637,17.3198605 C14.9058637,17.3198605 15.1094263,19.8175341 15.2608051,20.4031189 C15.4141616,20.9885515 15.5055975,21.4732678 15.4141616,21.4732678 C15.3230301,21.4732678 15.1190111,21.2023074 15.1190111,21.2023074 C15.1190111,21.2023074 15.2821046,22.5242472 15.1692171,23.1722092 C15.0590681,23.8198669 14.6320127,24.8081648 14.2962409,25.5766212 C13.9622948,26.346599 13.5569952,27.8415214 13.516374,28.3165008 C13.4756006,28.7919366 13.3027702,29.5909731 13.2933376,29.6600444 C13.2832964,29.7321585 13.4634295,30.0584976 13.6026371,30.4977242 C13.8162409,31.1668336 13.9939398,31.5798922 14.1857876,31.9660222 C14.3776355,32.3501743 14.4999556,34.1469414 14.5602029,34.9964881 C14.6224279,35.8457306 14.468767,37.0196387 14.6820666,37.8253693 C14.8958225,38.6342948 14.9461807,39.8485198 14.8863899,39.8894453 C14.8237084,39.9303708 14.6131474,39.9393471 14.6131474,39.9393471 C14.6131474,39.9393471 14.8237084,40.5757464 14.5214073,40.748729 C14.2169762,40.9186688 13.0893185,40.95929 12.8758669,40.8996513 C12.6621109,40.8395563 12.3380539,40.3738574 12.2279049,40.4147829 C12.1151696,40.4554041 11.9831125,40.6163677 11.7404501,40.6375151 L11.4958098,40.6569889 C11.4958098,40.6569889 11.2631886,40.8584216 10.8169635,40.8897623 C10.3705864,40.9186688 9.56911569,40.9306878 9.34334073,40.789046 C9.12045642,40.647252 9.06051347,40.4963296 8.8277401,40.5657052 C8.59511886,40.6375151 7.8438542,40.647252 7.32536292,40.5564247 C6.80763233,40.4648368 6.23847861,40.0812932 6.27012361,39.6562155 C6.30085578,39.2320507 6.7662504,39.1718035 6.99932805,39.1620666 C7.23438352,39.1503518 7.91353407,39.1406149 8.02611727,39.1092742 C8.1368748,39.0809762 7.93513788,38.62471 8.11755309,38.1711823 C8.2999683,37.7153724 8.45089065,36.5948653 8.47264659,36.1197338 C8.49212044,35.6444501 8.27821236,33.8764374 8.20853249,33.2687924 C8.1368748,32.6617559 7.69034548,31.5823265 7.76230745,30.7615341 C7.83198732,29.9433281 7.45787639,28.9837845 7.3761775,28.609065 C7.29463074,28.2354105 7.01119493,26.0418637 6.99932805,25.5258067 C6.98974326,25.0129445 6.88902694,23.8297559 7.01119493,22.6658891 C7.13397147,21.5043043 7.36644057,20.9982884 7.36644057,20.9982884 C7.36644057,20.9982884 7.01864976,21.0125895 7.16226941,20.6142884 C7.34012044,20.1320063 7.77919493,18.9609889 7.76961014,18.2243296 C7.76002536,17.4852361 7.76961014,16.4222377 7.76961014,16.4222377 C7.76961014,16.4222377 6.70645959,17.0968241 6.32002536,16.9360127 C5.93419968,16.7750491 5.6821046,15.9353914 5.66050079,15.5418067 C5.64148336,15.1480697 5.95534707,14.3589223 6.23847861,13.8144152 C6.52404437,13.2671696 6.49316006,11.5803994 6.87944216,10.7212678 C7.26344216,9.86244057 8.05517591,9.74955309 8.05517591,9.74955309" id="Fill-29" fill="#97999B"></path>
                <path d="M18.3487797,4.63158162 C18.3487797,4.63158162 18.3273281,4.46346751 18.3344786,4.40352456 C18.341477,4.34358162 18.7662504,3.98590174 19.0329509,3.34296038 C19.2988906,2.70001902 19.505496,1.69939778 19.3518352,1.17619017 C19.2006086,0.653134707 18.4545166,0.245248811 17.626878,0.122928685 C16.7965008,0.00289064976 15.4642155,0.319645008 15.3350491,0.372437401 C15.2080127,0.425229794 15.320748,0.881191759 15.3738447,0.948285261 C15.4263328,1.01796513 15.0715436,1.52413312 14.8958225,1.75918859 C14.7210143,1.9943962 14.7421616,2.09298257 14.7666561,2.20556577 C14.7881078,2.32073534 14.7666561,2.38067829 14.574504,2.54864025 C14.3846339,2.71432013 14.1115436,2.85078922 14.1714865,3.0091664 C14.2338637,3.16769572 14.4162789,3.28301743 14.4162789,3.28301743 C14.4162789,3.28301743 14.3178447,3.53252615 14.2551632,3.61650713 C14.1952203,3.69820602 14.4162789,3.782187 14.4162789,3.782187 C14.4162789,3.782187 14.2338637,3.87331854 14.2411664,3.98590174 C14.2481648,4.10137559 14.3248431,4.2139588 14.2792013,4.35803487 C14.2338637,4.50180666 14.1331474,4.77535341 14.4088241,4.93373059 C14.6820666,5.09210777 15.0613502,5.17639303 15.2294643,5.29856101 C15.3972742,5.41844691 15.4814073,5.65365452 15.6110301,5.88171157 C15.7406529,6.1093122 15.9302187,6.23695721 15.9302187,6.23695721 C15.9302187,6.23695721 15.4882536,6.61593661 15.2895594,6.71406656 C15.0929952,6.81265293 15.1071442,7.03340729 15.1314865,7.1148019 C15.1530903,7.19893502 14.7351632,7.63085895 14.5144089,8.26664976 C14.2938067,8.90472266 13.4392393,10.8989667 13.4179398,12.5569826 C13.3989223,14.2151506 13.9125452,18.2243296 13.7275436,19.2056292 C13.5426941,20.1870808 13.7059398,20.4944025 13.8713154,20.6168748 C14.0350174,20.7391949 13.7467132,22.5601521 13.8089382,23.8297559 C13.8713154,25.0964691 13.972336,27.4695404 14.0350174,27.9204818 C14.0970903,28.369141 14.1784849,28.7987829 14.5699398,29.1056482 C14.958504,29.413122 14.6703518,29.617141 14.6922599,30.3541046 C14.7135594,31.0904596 14.610561,33.3218891 14.4858067,33.9555499 C14.3630301,34.5887544 14.6922599,34.7929255 14.7736545,35.0183962 C14.8552013,35.2437147 14.3417306,36.2659398 14.4663328,36.4917147 C14.5889572,36.7170333 14.7951062,37.1468273 14.7951062,37.1468273 C14.7951062,37.1468273 14.2816355,37.3721458 14.0561648,37.4535404 C13.8282599,37.5352393 13.5209382,37.638542 13.458561,37.9650333 C13.3989223,38.2912203 13.3365452,38.4135404 13.6864659,38.516691 C14.0350174,38.6196894 14.5074105,38.6196894 14.5074105,38.6196894 C14.5074105,38.6196894 14.4039556,39.2536545 14.8552013,39.4165959 C15.3085769,39.5819715 16.5206719,39.5819715 17.0531601,39.4788209 C17.5880824,39.3756704 18.2048558,39.1503518 18.267233,39.2938193 C18.3273281,39.4380475 19.6825864,39.3157274 19.7670238,39.1310301 C19.8482662,38.9463328 19.6419651,38.2717464 19.6419651,38.2717464 C19.6419651,38.2717464 19.8893439,38.0245198 19.867588,37.9239556 C19.8482662,37.8208051 19.6419651,37.5137876 19.723664,37.1872964 C19.807645,36.858523 19.6013439,35.8366022 19.6825864,34.9774707 C19.7670238,34.1183391 19.867588,32.3188336 19.9708906,31.0493819 C20.0743455,29.7826688 19.8271189,27.4092932 19.6227956,26.8147322 C19.4167987,26.2219968 19.3758732,25.0772995 19.3542694,24.77013 C19.335252,24.4631125 19.5798922,23.2776418 19.5604184,22.5816038 C19.5388146,21.8857179 19.5197971,21.4758542 19.6419651,21.3343645 C19.7670238,21.189832 19.8271189,20.391252 19.8271189,20.391252 C19.8271189,20.391252 22.2099271,19.8802155 22.2503962,19.5129509 C22.2914739,19.1434041 21.9841521,16.5877655 21.6958479,14.9299017 C21.408,13.2744723 20.9979842,10.1238162 20.9162853,9.26240254 C20.8347385,8.40342314 20.5659081,7.09578447 19.9518732,6.33752139 C19.335252,5.58184469 18.9848748,5.07035182 18.8404945,4.82342948 C18.6965705,4.57878922 18.3487797,4.63158162 18.3487797,4.63158162" id="Fill-30" fill="#97999B"></path>
            </g>
        </g>
    </g>
</svg>