<?xml version="1.0" encoding="UTF-8"?>
<svg width="90px" height="16px" viewBox="0 0 90 16" version="1.1" xmlns="http://www.w3.org/2000/svg" xmlns:xlink="http://www.w3.org/1999/xlink">
    <!-- Generator: Sketch 42 (36781) - http://www.bohemiancoding.com/sketch -->
    <title>bathasu-logo</title>
    <desc>Created with Sketch.</desc>
    <defs></defs>
    <g id="Brands" stroke="none" stroke-width="1" fill="none" fill-rule="evenodd">
        <g id="Bath-ASU-logo" transform="translate(-19.000000, -8.000000)">
            <g id="bathasu-logo" transform="translate(19.000000, 8.000000)">
                <path d="M55.6293878,14.9980148 L55.1948338,14.9980148 C52.5719986,14.9980148 50.4385865,12.8641397 50.4385865,10.2413044 L50.4385865,8.09376986 C50.4385865,6.54921649 49.1822695,5.29255223 47.6378319,5.29255223 L46.5771452,5.29255223 C45.0324761,5.29255223 43.7760433,6.54921649 43.7760433,8.09376986 L43.7760433,10.2413044 C43.7760433,11.7857421 45.0324761,13.0422906 46.5771452,13.0422906 L47.6378319,13.0422906 C48.3849313,13.0422906 49.0969561,12.75417 49.6424058,12.2299039 L50.0996483,11.7749766 L50.2251295,12.1114839 C50.3957562,12.5686106 50.6334065,12.9972609 50.931598,13.3850488 L51.0570792,13.5484985 L50.909604,13.6921536 C50.0429271,14.5341742 48.881184,14.9980148 47.6378319,14.9980148 L46.5771452,14.9980148 C43.9541942,14.9980148 41.8206663,12.8641397 41.8206663,10.2413044 L41.8206663,8.09376986 C41.8206663,5.47093465 43.9541942,3.33717522 46.5771452,3.33717522 L47.6378319,3.33717522 C50.2606671,3.33717522 52.394195,5.47093465 52.394195,8.09376986 L52.394195,10.2413044 C52.394195,11.7857421 53.650512,13.0422906 55.1948338,13.0422906 L55.6293878,13.0422906 L55.6293878,14.9980148 Z M56.6361314,14.9980148 L56.2015775,14.9980148 L56.2015775,13.0422906 L56.6361314,13.0422906 C58.1803375,13.0422906 59.4365388,11.7857421 59.4365388,10.2413044 L59.4365388,8.09376986 C59.4365388,5.47093465 61.5705297,3.33717522 64.1933649,3.33717522 L64.6274558,3.33717522 L64.6274558,5.29255223 L64.1933649,5.29255223 C62.6488116,5.29255223 61.3923788,6.54921649 61.3923788,8.09376986 L61.3923788,10.2413044 C61.3923788,12.8641397 59.2587351,14.9980148 56.6361314,14.9980148 Z M70.0623899,14.9980148 L70.0603062,14.9980148 C67.4377026,14.9958155 65.3039431,12.862056 65.3039431,10.2413044 L65.3039431,3.33729098 L67.2597832,3.33729098 L67.2597832,10.2413044 C67.2597832,11.7857421 68.5159844,13.0422906 70.0600747,13.0422906 C71.5971039,13.0370815 72.8484433,11.7806487 72.8484433,10.2413044 L72.8484433,3.33729098 L74.8043991,3.33729098 L74.8043991,10.2413044 C74.8043991,12.80383 72.7206469,14.9372421 70.1591632,14.9961627 L70.0623899,14.9980148 Z" id="Combined-Shape" fill="#97999B"></path>
                <path d="M4.80683343,5.33746617 C3.29272431,5.33746617 2.06106368,6.56924256 2.06106368,8.08335168 L2.06106368,10.2297287 C2.06106368,11.7438378 3.29272431,12.9758457 4.80683343,12.9758457 L5.86705709,12.9758457 C7.38093469,12.9758457 8.61282684,11.7438378 8.61282684,10.2297287 L8.61282684,8.08335168 C8.61282684,6.56924256 7.38093469,5.33746617 5.86705709,5.33746617 L4.80683343,5.33746617 Z M5.86705709,15.0370251 L4.80683343,15.0370251 C2.15633216,15.0370251 0,12.8804615 0,10.2297287 L0,0.0432933342 L2.06106368,0.0432933342 L2.06106368,4.14169039 C2.85712854,3.58072916 3.81536977,3.27640249 4.80683343,3.27640249 L5.86705709,3.27640249 C8.51755835,3.27640249 10.6738905,5.43273465 10.6738905,8.08335168 L10.6738905,10.2297287 C10.6738905,12.8804615 8.51755835,15.0370251 5.86705709,15.0370251 Z M30.9145661,15.0161888 L30.4273424,15.0161888 C27.7968672,15.0161888 25.6566254,12.8757154 25.6566254,10.2448929 L25.6566254,0.139372124 L27.7085442,0.139372124 L27.7085442,3.33115582 C28.7560345,3.33416552 29.4350685,3.3467831 29.4350685,3.3467831 L29.6623006,3.35095037 L29.6623006,5.39719708 L27.7085442,5.3990492 L27.7085442,10.2448929 C27.7085442,11.7443008 28.928166,12.9638069 30.4273424,12.9638069 L30.9145661,12.9638069 L30.9145661,15.0161888 Z M41.1779802,15.022787 L39.1524541,15.022787 L39.1524541,8.11645834 C39.1524541,6.61716619 37.9327165,5.39742859 36.4334244,5.39742859 C34.9344795,5.39742859 33.7147419,6.61716619 33.7147419,8.11645834 L33.7147419,15.0161888 L31.6625915,15.0161888 L31.6625915,0.139372124 L33.7147419,0.139372124 L33.7147419,4.19991645 C34.503514,3.64613219 35.4520316,3.34550976 36.4334244,3.34550976 C39.0495456,3.34550976 41.1779802,5.48575162 41.1779802,8.11645834 L41.1779802,15.022787 Z M25.283886,14.9980148 L24.849795,14.9980148 C22.2271914,14.9980148 20.0935477,12.8641397 20.0935477,10.2413044 L20.0935477,8.09376986 C20.0935477,6.54921649 18.8369992,5.29255223 17.2925616,5.29255223 L16.2319906,5.29255223 C14.687553,5.29255223 13.4310045,6.54921649 13.4310045,8.09376986 L13.4310045,10.2413044 C13.4310045,11.7857421 14.687553,13.0422906 16.2319906,13.0422906 L17.2925616,13.0422906 C18.0398925,13.0422906 18.7516858,12.75417 19.2972513,12.2299039 L19.7547252,11.7749766 L19.8800907,12.1114839 C20.0501386,12.567916 20.2876731,12.9963348 20.5864434,13.3850488 L20.7119247,13.5484985 L20.5641022,13.6921536 C19.6978883,14.5341742 18.5360295,14.9980148 17.2925616,14.9980148 L16.2319906,14.9980148 C13.6091554,14.9980148 11.4756275,12.8641397 11.4756275,10.2413044 L11.4756275,8.09376986 C11.4756275,5.47093465 13.6091554,3.33717522 16.2319906,3.33717522 L17.2925616,3.33717522 C19.9151652,3.33717522 22.0488089,5.47093465 22.0488089,8.09376986 L22.0488089,10.2413044 C22.0488089,11.7857421 23.3053574,13.0422906 24.849795,13.0422906 L25.283886,13.0422906 L25.283886,14.9980148 Z M79.9755216,11.9057827 C79.6145895,11.9057827 79.2769246,11.7099208 79.0943749,11.3954075 C78.5857361,10.5156499 78.316947,9.51411534 78.316947,8.49926865 C78.316947,5.30320192 80.9180198,2.70293945 84.1153599,2.70293945 C84.6759738,2.70293945 85.1324059,3.16076067 85.1324059,3.72345826 C85.1324059,4.28638736 84.6747005,4.74420858 84.1122344,4.74420858 C82.0414471,4.74420858 80.3574058,6.42882861 80.3574058,8.49926865 C80.3574058,9.15665594 80.5313895,9.80512989 80.8610671,10.3753517 C80.9497374,10.5283832 80.9962719,10.7045663 80.9962719,10.8846851 C80.9962719,11.4476142 80.5384507,11.9057827 79.9755216,11.9057827 Z M82.0224629,6.24257467 C81.9701404,6.87750499 82.2787501,7.51532924 82.8672617,7.85496198 C83.1303786,8.00718319 83.4226665,8.08416198 83.7156489,8.08416198 C84.2385259,8.08381471 84.7676538,8.21450501 85.2524466,8.49440684 C86.0250126,8.94053654 86.5307575,9.6708511 86.7141175,10.4769869 C86.1901987,10.1142026 85.4832672,10.0623432 84.8952187,10.401976 C84.6315229,10.5539657 84.4192235,10.7683487 84.2725587,11.0218578 C84.0114096,11.4756275 83.6335768,11.8682772 83.1486683,12.148179 C82.3761023,12.5938457 81.4909041,12.666773 80.7014374,12.422756 C81.276984,12.1501469 81.6751901,11.5640663 81.6751901,10.8846851 C81.6751901,10.5809372 81.5958962,10.2892281 81.4495786,10.0356032 C81.187735,9.58264383 81.0365556,9.05884079 81.0365556,8.49926865 C81.0365556,7.60735652 81.4161247,6.8043462 82.0224629,6.24257467 Z M81.6173113,15.2800003 C79.5483761,15.2800003 77.621707,14.168496 76.5896124,12.3796942 C76.3090161,11.8942069 76.4776749,11.2702736 76.9648985,10.9893299 C77.4381155,10.7160263 78.0889046,10.8934826 78.3587355,11.3619536 C79.0279301,12.5204554 80.2753337,13.2400045 81.6141859,13.2400045 C82.2691422,13.2400045 82.9175004,13.0657894 83.4879538,12.736459 C84.0575968,12.407939 84.5320871,11.9325227 84.8610702,11.3614905 C84.9498562,11.208459 85.0790417,11.0801996 85.2349672,10.9903717 C85.7071423,10.7168366 86.3582787,10.8951032 86.6290357,11.3639214 C86.8097332,11.6768142 86.8088072,12.0671487 86.6272993,12.3821251 C86.1201654,13.2618827 85.3876514,13.9954385 84.5085884,14.5030354 C83.6281362,15.011327 82.6285695,15.2800003 81.6173113,15.2800003 Z M87.852709,14.5671651 C87.6740951,14.5671651 87.496986,14.5198203 87.3405975,14.4291821 C86.8531423,14.1477754 86.6851781,13.5226845 86.9668163,13.0354609 C88.0014575,11.2422602 87.3850484,8.94134685 85.592195,7.90601107 C85.0240568,7.57806985 84.3762774,7.404665 83.7188902,7.404665 C83.5388871,7.404665 83.3630514,7.35697287 83.2064314,7.26668196 C82.7193235,6.98515953 82.5520538,6.35960558 82.8332289,5.87226618 C83.0134635,5.55995223 83.3517071,5.36536374 83.7156489,5.36455344 C84.7332738,5.36455344 85.7339981,5.63241648 86.6123666,6.13955043 C87.9523763,6.91327408 88.9113121,8.16345592 89.3120648,9.66008565 C89.7127018,11.1562523 89.5070006,12.7186324 88.7328139,14.0593366 C88.5521163,14.3725767 88.2144515,14.5671651 87.852709,14.5671651 Z" id="Combined-Shape" fill="#00A3E0"></path>
            </g>
        </g>
    </g>
</svg>