<svg fill="none" height="32" viewBox="0 0 131 32" width="131" xmlns="http://www.w3.org/2000/svg"><path d="m15.9979 16.1367c1.8834 0 3.7293.1587 5.527.4586.0209-.1957.0331-.3943.0331-.5957 0-3.0702-2.4879-5.558-5.5585-5.558-3.0697 0-5.5577 2.4878-5.5577 5.558 0 .2013.012.3996.0329.5955 1.7966-.2999 3.6412-.4584 5.5232-.4584z" fill="#fff200"/><path d="m15.9981 17.5631c-5.4552 0-10.58953 1.3708-15.07909 3.7851 2.2011 6.2058 8.11952 10.6518 15.07999 10.6518 6.9619 0 12.8805-4.446 15.0815-10.6516-4.4902-2.4145-9.6254-3.7853-15.0824-3.7853z" fill="#96d550"/><path d="m82.5467 22.3358h-1.2636v-1.5316h1.2636v-1.0976c0-1.3527.3443-2.5015 2.4245-2.5015.3828 0 .7657.0258 1.1237.115l-.0895 1.6206c-.217-.0762-.3957-.1275-.625-.1275-.6134 0-.9197.1916-.9197 1.0081v.9829h1.4175v1.5316h-1.4175v4.6711h-1.914z" fill="#96d550"/><path d="m92.2589 27.0069h-1.8376v-.8423h-.026c-.2548.485-.8805.9953-1.8118.9953-1.9403 0-2.2973-1.2765-2.2973-2.9353v-3.4204h1.9142v3.0373c0 .7147.0125 1.6339.9953 1.6339.9952 0 1.1492-.7786 1.1492-1.5825v-3.0887h1.914z" fill="#96d550"/><path d="m93.2928 20.8042h1.8374v.8421h.0251c.256-.485.8807-.9953 1.8129-.9953 1.9403 0 2.2974 1.2762 2.2974 2.9356v3.4203h-1.914v-3.0376c0-.7147-.0128-1.6335-.9956-1.6335-.9953 0-1.1491.7783-1.1491 1.5822v3.0889h-1.9141z" fill="#96d550"/><path d="m103.515 22.3358c-.956 0-1.531.638-1.531 1.5696 0 .9317.575 1.57 1.531 1.57.958 0 1.532-.6383 1.532-1.57 0-.9316-.574-1.5696-1.532-1.5696zm3.293 4.6711h-1.761v-.817h-.026c-.293.4461-1.034.97-1.901.97-1.837 0-3.051-1.3273-3.051-3.2033 0-1.7231 1.073-3.3056 2.834-3.3056.791 0 1.532.2174 1.965.817h.026v-4.1097h1.914z" fill="#96d550"/><path d="m109.233 24.7353c.65 0 1.174.5235 1.174 1.1739 0 .6509-.524 1.1746-1.174 1.1746-.651 0-1.174-.5237-1.174-1.1746 0-.6504.523-1.1739 1.174-1.1739z" fill="#96d550"/><path d="m114.695 25.4754c.957 0 1.532-.6383 1.532-1.57 0-.9316-.575-1.5696-1.532-1.5696s-1.531.638-1.531 1.5696c0 .9317.574 1.57 1.531 1.57zm0-4.8244c1.915 0 3.446 1.2762 3.446 3.2544 0 1.978-1.531 3.2545-3.446 3.2545-1.914 0-3.446-1.2765-3.446-3.2545 0-1.9782 1.532-3.2544 3.446-3.2544z" fill="#96d550"/><path d="m118.945 20.8042h1.915v.9954h.025c.408-.753.944-1.1486 1.787-1.1486.216 0 .459.0127.637.0639v1.7484c-.267-.0768-.535-.1275-.816-.1275-1.455 0-1.633.8422-1.633 2.0799v2.5912h-1.915z" fill="#96d550"/><path d="m127.037 25.3985c.867 0 1.531-.7272 1.531-1.5316 0-.8037-.664-1.5311-1.531-1.5311-.868 0-1.532.7274-1.532 1.5311 0 .8044.664 1.5316 1.532 1.5316zm3.293 1.0845c0 2.336-1.187 3.5871-3.587 3.5871-1.098 0-2.22-.1919-3.114-.9065l1.059-1.5822c.587.4978 1.238.8035 2.017.8035 1.161 0 1.71-.6375 1.71-1.5184v-.6002h-.026c-.433.6002-1.174.8175-1.748.8175-1.838 0-3.051-1.3272-3.051-3.2034 0-1.6469 1.073-3.2294 2.834-3.2294 1.085 0 1.826.5234 2.118.9701h.026v-.8169h1.762z" fill="#96d550"/><g fill="#2d9edf"><path d="m9.04972 16.8645c-.03499-.2836-.05511-.5719-.05511-.8649 0-3.8696 3.13589-7.00508 7.00479-7.00508 3.87 0 7.0057 3.13548 7.0057 7.00508 0 .2932-.0201.5817-.0552.8653 3.024.6418 5.8958 1.6937 8.5551 3.0949.3224-1.2666.4948-2.5926.4948-3.9593 0-8.8366-7.1633-16.0005-16.0003-16.0005-8.83702 0-15.9995 7.1639-15.9995 16.0005 0 1.3665.172281 2.6926.494531 3.9589 2.659549-1.4012 5.531099-2.4533 8.555189-3.0949z"/><path d="m46.008 20.319c-.3959-.4718-.9693-.74-1.7101-.74-1.5056 0-2.6155 1.2252-2.6155 2.9098 0 1.6848 1.1099 2.9097 2.5512 2.9097.8051 0 1.4555-.357 1.8639-.9696l1.6589 1.2377c-.7523 1.0726-2.0287 1.5703-3.2668 1.5703-2.821 0-4.8751-1.8513-4.8751-4.7481s2.0541-4.7475 4.8751-4.7475c1.0079 0 2.2842.3446 3.05 1.3271z"/><path d="m51.7003 24.2884c-.5872 0-1.8888.0509-1.8888.8934 0 .4591.485.6765.906.6765.7533 0 1.4552-.3955 1.4552-1.1615v-.4084zm.4724 1.9399h-.0252c-.421.6641-1.187.9316-1.9656.9316-1.1615 0-2.2074-.6636-2.2074-1.9146 0-2.1437 2.6029-2.1821 4.1982-2.1821 0-.6767-.5618-1.1102-1.2248-1.1102-.6259 0-1.1491.2805-1.5571.7402l-1.021-1.0469c.7021-.6633 1.7225-.9953 2.7308-.9953 2.2337 0 2.8333 1.1358 2.8333 3.2037v3.1522h-1.7612z"/><path d="m54.8146 20.8042h1.9142v.9954h.0251c.4086-.753.945-1.1486 1.7868-1.1486.2176 0 .4596.0127.6385.0639v1.7484c-.2681-.0768-.5364-.1275-.8166-.1275-1.4551 0-1.6338.8422-1.6338 2.08v2.5911h-1.9142z"/><path d="m63.1609 25.4754c.9577 0 1.5309-.6383 1.5309-1.57 0-.9316-.5732-1.5696-1.5309-1.5696-.9575 0-1.5319.638-1.5319 1.5696 0 .9317.5744 1.57 1.5319 1.57zm-3.2932-8.1171h1.9148v4.1097h.0252c.4337-.5996 1.1743-.817 1.9658-.817 1.7612 0 2.8333 1.5825 2.8333 3.3056 0 1.876-1.2132 3.2033-3.0502 3.2033-.868 0-1.6079-.5239-1.9015-.97h-.0261v.817h-1.7613z"/><path d="m70.6273 25.4754c.9565 0 1.5313-.6383 1.5313-1.57 0-.9316-.5748-1.5696-1.5313-1.5696-.9573 0-1.5319.638-1.5319 1.5696 0 .9317.5746 1.57 1.5319 1.57zm0-4.8244c1.914 0 3.4461 1.2762 3.4461 3.2544 0 1.978-1.5321 3.2545-3.4461 3.2545-1.915 0-3.4459-1.2765-3.4459-3.2545 0-1.9782 1.5309-3.2544 3.4459-3.2544z"/><path d="m74.8771 20.8042h1.8372v.8421h.0257c.2553-.485.8806-.9953 1.8127-.9953 1.9405 0 2.2969 1.2762 2.2969 2.9356v3.4203h-1.914v-3.0376c0-.7147-.0127-1.6335-.9953-1.6335-.9955 0-1.149.7784-1.149 1.5822v3.0889h-1.9142z"/><path d="m41.7715 6.54015c-.4173-.66395-1.2077-1.03413-2.0376-1.03413-2.0297 0-3.598 1.62125-3.8869 3.67678-.2673 1.9019.7688 3.523 2.8753 3.523 1.0335 0 1.8899-.4596 2.5316-1.2125l.9246.7786c-.3196.3702-1.5753 1.5831-3.6433 1.5831-2.8723 0-4.3095-2.4001-3.9903-4.6722.3949-2.80884 2.6059-4.82576 5.3888-4.82576 1.1868 0 2.3754.44662 2.9687 1.40413z"/><path d="m46.4058 10.7139c-1.0853 0-2.4396.1919-2.5762 1.1623-.0967.6891.3726.9827 1.1641.9827 1.2766 0 1.8561-.9447 1.971-1.7619l.0539-.3831zm-2.9054-2.39925c.7227-.60006 1.6832-.89362 2.5257-.89362 1.787 0 2.3913.96985 2.244 2.01692l-.4341 3.08925c-.0589.421-.0965.7783-.1033 1.0976h-1.021c.0175-.306.0476-.6127.0906-.919h-.0253c-.62.7786-1.3506 1.0723-2.2699 1.0723-1.1237 0-2.0036-.6382-1.839-1.8127.219-1.5574 1.7881-2.09358 3.6261-2.09358h.8428l.0356-.25535c.088-.62533-.28-1.27654-1.263-1.27654-.881 0-1.3541.37018-1.8202.68922z"/><path d="m49.7576 7.57408h1.149l-.1308.93143h.0255c.3831-.63807 1.212-1.08448 1.9651-1.08448.179 0 .3539.02527.5002.07622l-.2255 1.23853c-.1841-.05134-.3702-.08976-.5491-.08976-1.1231 0-1.8219.613-2.009 1.94088l-.4267 3.0379h-1.1489z"/><path d="m58.7408 10.5997c.1725-1.22564-.4697-2.10652-1.6955-2.10652-1.2252 0-2.1151.88088-2.2874 2.10652-.1722 1.2256.4701 2.1061 1.6955 2.1061 1.2256 0 2.1154-.8805 2.2874-2.1061zm-4.2008-6.62598h1.1491l-.6277 4.46831h.0253c.4967-.62554 1.382-1.021 2.2499-1.021 1.8641 0 2.8845 1.36551 2.63 3.17867-.2512 1.7869-1.6466 3.1784-3.5232 3.1784-.8172 0-1.6079-.3703-1.963-1.0212h-.0256l-.122.8679h-1.149z"/><path d="m63.5888 12.7058c1.2256 0 2.1152-.8805 2.2878-2.1061.172-1.22564-.4701-2.10652-1.6953-2.10652-1.226 0-2.1156.88088-2.2878 2.10652-.1719 1.2256.4697 2.1061 1.6953 2.1061zm.7434-5.28477c1.7995 0 3.0176 1.41666 2.7696 3.17867-.2474 1.7615-1.8635 3.1784-3.6637 3.1784-1.7995 0-3.0178-1.4169-2.77-3.1784.2476-1.76201 1.8635-3.17867 3.6641-3.17867z"/><path d="m68.523 7.57408h1.1492l-.1309.93143h.0256c.3829-.63807 1.2117-1.08448 2.1439-1.08448 1.1743 0 2.0969.70216 1.8705 2.31028l-.5468 3.89349h-1.1489l.5021-3.5741c.16-1.13619-.4321-1.55753-1.1595-1.55753-.9577 0-1.7717.6126-1.9692 2.01673l-.4374 3.1149h-1.149z"/><path d="m77.135 7.76514h1.484l-.1063.37815h-1.4531l-.4239 2.01411c-.1367.6662-.288 1.3321-.4546 1.9836-.2727 1.0599-.9694 2.9074-1.6053 3.7853-.651.9089-1.1808 1.2421-2.3169 1.2421-.5754 0-1.1505-.4394-1.1505-1.0295 0-.3939.3031-.7272.7115-.7272.3483 0 .7121.2121.7121.6055 0 .1822-.0605.2878-.1214.3637-.0609.076-.1212.1211-.1212.2123 0 .1963.2575.1963.3936.1963.4998 0 .9542-.3784 1.3021-1.514.2426-.7876.3791-1.6202.5302-2.4229l.939-4.70931h-1.5142l.1061-.37815h1.514c.439-1.5904 1.1207-3.57388 2.726-4.2858.2418-.10608.5298-.19683.9539-.19683.7265 0 1.5896.37854 1.5896 1.21126 0 .51488-.318.78774-.8176.78774-.4392 0-.6661-.27286-.7119-.69638-.0298-.24241.1366-.48463.2727-.60603.3334-.28799-.2727-.31805-.4235-.31805-.7422 0-1.2268.71172-1.4394 1.62046z"/><path d="m81.4805 8.96088.0303.03025c.4999-.65101 1.3327-1.45308 2.2263-1.45308.5449 0 .9838.2874.9838.8777 0 .45418-.3326.74217-.7723.74217-.3785 0-.5296-.19704-.6508-.39407-.1214-.19644-.197-.39328-.4243-.39328-.4842 0-1.0751.90855-1.3022 1.27177-.2265.36366-.3783.95416-.4695 1.36316l-.6054 2.6193h-1.5596l1.1961-5.61784h-1.1961l.1057-.37835h1.3936c.4691 0 .9234-.0607 1.3927-.0607z"/><path d="m87.2799 10.7025c1.2266 0 2.0747-.4543 2.0747-1.80212 0-.54513-.2425-.98418-.8176-.98418-1.3176 0-1.4844 1.86267-1.8171 2.7863zm3.18 1.3932c-.7117 1.2416-1.6956 1.7563-3.1039 1.7563-1.3027 0-2.4988-1.1205-2.4988-2.4533 0-1.93787 1.7719-3.86065 3.7554-3.86065 1.0146 0 2.0744.49936 2.0744 1.66564 0 .77222-.5149 1.21111-1.1352 1.55931-.4094.2271-.8638.3177-1.787.3177h-1.1206c-.1667.4088-.2121.8484-.2121 1.3175 0 .7119.5901 1.0755 1.2572 1.0755 1.0749 0 1.9228-.6358 2.4526-1.5298z"/><path d="m93.6242 10.7025c1.2268 0 2.0753-.4543 2.0753-1.80212 0-.54513-.2426-.98418-.8182-.98418-1.3174 0-1.4842 1.86267-1.8167 2.7863zm3.1801 1.3932c-.7116 1.2416-1.6957 1.7563-3.1038 1.7563-1.3027 0-2.4988-1.1205-2.4988-2.4533 0-1.93787 1.7719-3.86065 3.7554-3.86065 1.0146 0 2.0744.49936 2.0744 1.66564 0 .77222-.5148 1.21111-1.1352 1.55931-.4096.2271-.8638.3177-1.787.3177h-1.1207c-.1666.4088-.212.8484-.212 1.3175 0 .7119.5903 1.0755 1.2572 1.0755 1.0748 0 1.9228-.6358 2.4526-1.5298z"/><path d="m99.4628 7.21205h.4208l.3934 1.11832h.01l.393-1.11832h.421v1.45806h-.276v-1.21704h-.007l-.424 1.21704h-.224l-.4242-1.21704h-.0071v1.21704h-.2759zm-.9941.23366h-.4389v-.23366h1.1534v.23366h-.4387v1.2244h-.2758z"/><path d="m35.3739 27.141v-.5111l1.8867-.4914v-.0079l-1.8867-.5879v-.4588l1.8867-.5774v-.0072l-1.8867-.5139v-.4738l2.6193.762v.4443l-1.994.6066v.0072l1.994.6064v.4295z"/><path d="m35.3739 23.2301v-.4659h2.6193v.4659z"/><path d="m35.7954 21.6541v.8029h-.4215v-2.0721h.4215v.8031h2.1978v.4661z"/><path d="m35.3739 20.0671v-.4662h1.0431v-1.2246h-1.0431v-.4663h2.6193v.4663h-1.1543v1.2246h1.1543v.4662z"/></g></svg>