<svg fill="none" height="72" viewBox="0 0 66 72" width="66" xmlns="http://www.w3.org/2000/svg"><g fill="#0067c2"><path clip-rule="evenodd" d="m0 1.71467c0-.947025.767645-1.71467 1.71467-1.71467h17.87483c.9466 0 1.7143.767645 1.7143 1.71467v17.87443c0 .9467-.7677 1.7144-1.7143 1.7144h-17.87483c-.947025 0-1.71467-.7677-1.71467-1.7144zm15.3806 6.07257c-.1685-.37887-.4214-.77918-.8425-1.2217-.8214-.88437-1.7483-1.24248-3.2859-1.24248-3.26449 0-5.3498 2.10608-5.3498 5.37054 0 3.3281 1.93725 5.2868 5.2657 5.2868 2.0428 0 3.1804-.6529 4.2336-2.4642l-2.0223-1.2002c-.189.5262-.3159.7999-.463 1.0106-.3584.5266-.9902.8214-1.7691.8214-1.74862 0-2.75961-1.2425-2.75961-3.4119 0-2.23232 1.0321-3.58065 2.78041-3.58065 1.2428 0 1.8532.50517 2.1905 1.83239z" fill-rule="evenodd"/><path d="m32.7291 7.15545c1.6428 0 2.6541 1.32689 2.6541 3.49625 0 2.1694-1.0113 3.4963-2.6541 3.4963-1.6639 0-2.6538-1.3269-2.6538-3.5385 0-2.12716 1.0321-3.45405 2.6538-3.45405z"/><g clip-rule="evenodd" fill-rule="evenodd"><path d="m22.0774 1.71467c0-.947025.7676-1.71467 1.7143-1.71467h17.8748c.9467 0 1.715.767645 1.715 1.71467v17.87443c0 .9467-.7683 1.7144-1.715 1.7144h-17.8748c-.9467 0-1.7143-.7677-1.7143-1.7144zm10.6517 3.60839c-1.4109 0-2.5697.37888-3.5173 1.1795-1.074.90581-1.6217 2.27491-1.6217 4.06474 0 1.9801.4844 3.2648 1.6217 4.2336.9269.7795 2.1064 1.1795 3.5384 1.1795 1.3902 0 2.5908-.4 3.4963-1.1795 1.0951-.9477 1.622-2.2746 1.622-4.1492 0-3.34885-1.9168-5.32864-5.1394-5.32864z"/><path d="m45.8691 0c-.9471 0-1.7144.767645-1.7144 1.71467v17.87443c0 .9467.7673 1.7144 1.7144 1.7144h17.8747c.9471 0 1.7147-.7677 1.7147-1.7144v-17.87443c0-.947025-.7676-1.71467-1.7147-1.71467zm8.8427 12.1682v-1.8746h4.57v4.9709c-1.6003.5055-2.7376.7159-3.9593.7159-3.3278 0-5.2868-1.9376-5.2868-5.2443 0-3.32773 2.0646-5.41304 5.3709-5.41304 2.0012 0 3.1807.674 4.1706 2.37977l-2.0009 1.17982c-.5266-1.32689-1.074-1.7272-2.2538-1.7272-1.748 0-2.8223 1.39021-2.8223 3.62295 0 2.232 1.0529 3.3907 3.0541 3.3907.5685 0 1.0107-.0633 1.411-.2315v-1.7694z"/><path d="m0 23.7917c0-.947.767645-1.7143 1.71467-1.7143h17.87483c.9466 0 1.7143.7673 1.7143 1.7143v17.8748c0 .9467-.7677 1.7143-1.7143 1.7143h-17.87483c-.947025 0-1.71467-.7676-1.71467-1.7143zm15.2438 3.8824h-2.296l.0633 6.5923-4.84464-6.5923h-2.10608v10.1097h2.29601l-.06331-6.529 4.80202 6.529h2.1487z"/><path d="m23.7917 22.0774c-.9467 0-1.7143.7673-1.7143 1.7143v17.8748c0 .9467.7676 1.7143 1.7143 1.7143h17.8748c.9467 0 1.715-.7676 1.715-1.7143v-17.8748c0-.947-.7683-1.7143-1.715-1.7143zm10.1063 15.7064h-2.3379v-10.1097h2.3379z"/><path d="m44.1547 23.7917c0-.947.7673-1.7143 1.7144-1.7143h17.8747c.9471 0 1.7147.7673 1.7147 1.7143v17.8748c0 .9467-.7676 1.7143-1.7147 1.7143h-17.8747c-.9471 0-1.7144-.7676-1.7144-1.7143zm14.3901 5.5041c-.6318-1.3058-1.6844-1.8954-3.3486-1.8954-2.0856 0-3.5596 1.2636-3.5596 3.033 0 1.3899.8217 2.3168 2.7376 3.159 1.5801.674 1.7486.8214 1.7486 1.4324 0 .7376-.5055 1.2006-1.3266 1.2006-.885 0-1.3905-.4425-1.7908-1.5376l-1.9798 1.2425c.7373 1.4743 1.8746 2.1275 3.7067 2.1275 2.3174 0 3.855-1.3269 3.855-3.3067 0-.8428-.3373-1.5795-.9058-2.0645-.4214-.3578-.8847-.6104-1.9587-1.0951-.8899-.3935-1.0568-.4674-1.2124-.5602-.036-.0215-.0713-.0439-.1148-.0716-.2526-.1685-.3792-.4211-.3792-.7162 0-.5896.4636-1.011 1.1165-1.011.7162 0 1.0743.2737 1.4532 1.1376l.0422.1263z"/></g><path d="m59.507 51.2396h-2.8648v8.2143h-2.3373v-8.2143h-2.8229v-1.8953h8.025z"/><path d="m10.6521 52.5105 1.2425 3.3911h-2.52719z"/><path clip-rule="evenodd" d="m0 45.8691c0-.9471.767645-1.7147 1.71467-1.7147h17.87483c.9466 0 1.7143.7676 1.7143 1.7147v17.8744c0 .947-.7677 1.7144-1.7143 1.7144h-17.87483c-.947025 0-1.71467-.7674-1.71467-1.7144zm11.8527 3.8821h-2.2327l-4.04399 10.1103h2.40087l.73764-2.022h3.79108l.7584 2.022h2.4638z" fill-rule="evenodd"/><path clip-rule="evenodd" d="m23.7917 44.1544c-.9467 0-1.7143.7676-1.7143 1.7147v17.8744c0 .947.7676 1.7144 1.7143 1.7144h17.8748c.9467 0 1.715-.7674 1.715-1.7144v-17.8744c0-.9471-.7683-1.7147-1.715-1.7147zm11.2334 5.5968h2.2957v10.1103h-2.1483l-4.8017-6.5296.0626 6.5296h-2.2956v-10.1103h2.106l4.8446 6.5925z" fill-rule="evenodd"/><path clip-rule="evenodd" d="m1.17291 68.3042v3.6411h.5022v-1.6593h.29512c.48539 0 .59453.0983.62751.5787.00929.1136.01771.225.02604.3353.01089.1441.02164.2863.03397.4287.00528.1148.03265.2239.0709.3166h.55693c-.08177-.2074-.10386-.3222-.13123-.644-.05969-1.0483-.09827-1.1245-.57838-1.2336.45835-.1204.62223-.333.62223-.8244 0-.3604-.09266-.6166-.27303-.7587-.16355-.1312-.37096-.1804-.77522-.1804zm.50222 1.5831v-1.1788h.3769c.48043 0 .64399.1418.64399.5675 0 .4369-.18565.6113-.64399.6113z" fill-rule="evenodd"/><path d="m10.0126 71.9453v-3.6411h1.6544v.4261h-1.1518v1.157h1.0861v.4261h-1.0861v1.2062h1.2171v.4257z"/><path d="m20.43 69.3469v-.0983c0-.3492-.0709-.5731-.2348-.7366-.1744-.1695-.4365-.2622-.7696-.2622-.6384 0-.9879.3331-.9879.9279 0 .4966.1909.7479.8623 1.1027.4969.2618.6496.4366.6496.7587 0 .3548-.2015.5566-.5514.5566-.3927 0-.5513-.207-.5513-.7036v-.153h-.5131c-.0052.0817-.0052.1638-.0052.2018 0 .7152.3492 1.0591 1.0752 1.0591.6767 0 1.048-.3492 1.048-.9882 0-.4858-.1853-.7532-.7367-1.0533-.2674-.1421-.4204-.2347-.4643-.2621-.2235-.1583-.3109-.3165-.3109-.5404 0-.3166.18-.5022.4857-.5022.1969 0 .3274.0656.4204.213.0657.1038.0765.1744.0765.3765l.0053.1036z"/><path d="m27.1834 71.9453v-3.6411h1.6537v.4261h-1.1515v1.157h1.0862v.4261h-1.0862v1.2062h1.2171v.4257z"/><path clip-rule="evenodd" d="m36.9343 68.3042h-.6166l-1.0044 3.6411h.4801l.213-.8079h1.2009l.2127.8079h.5075zm-.824 2.4075.5184-2.0527.4857 2.0527z" fill-rule="evenodd"/><path clip-rule="evenodd" d="m44.4858 71.9453v-3.6411h.977c.4039 0 .6114.0492.7752.1804.1801.1421.2727.3983.2727.7587 0 .4914-.1635.704-.6222.8244.4804.1091.5184.1853.5787 1.2336.0274.3218.0491.4366.1309.644h-.5569c-.0379-.0927-.065-.2018-.0709-.3166-.0114-.1314-.0212-.2626-.0312-.3954-.0091-.1211-.0183-.2436-.0288-.3686-.0327-.4804-.1418-.5787-.6275-.5787h-.2948v1.6593zm.5022-3.2368v1.1788h.3765c.4584 0 .644-.1744.644-.6113 0-.4257-.1638-.5675-.644-.5675z" fill-rule="evenodd"/><path d="m54.7016 70.7879c-.0112.3495-.0168.4369-.0547.5463-.0547.1636-.2074.2615-.4148.2615-.1313 0-.2569-.0379-.339-.1091-.1088-.0871-.1471-.2018-.1579-.464l-.0109-1.1518c0-.3874.0109-.7422.0273-.8405.038-.24.2074-.3765.4749-.3765.3165 0 .4751.2021.4751.6222v.0818h.4963c.0056-.3328-.027-.5128-.1144-.6714-.1636-.2945-.4478-.4366-.8623-.4366-.4152 0-.7047.1421-.8626.4201-.1144.1969-.1369.4208-.1369 1.4252 0 .4309.0116.9879.0165 1.0749.06.5735.366.83.983.83.6878 0 .9823-.333.9823-1.1135 0-.0109 0-.0548-.0056-.0986z"/><path d="m63.4157 68.3042h.5026v3.6411h-.5026v-1.6702h-1.0476v1.6702h-.5025v-3.6411h.5025v1.5452h1.0476z"/></g></svg>