<?xml version="1.0" encoding="UTF-8"?>
<svg width="73px" height="80px" viewBox="0 0 73 80" version="1.1" xmlns="http://www.w3.org/2000/svg" xmlns:xlink="http://www.w3.org/1999/xlink">
    <!-- Generator: Sketch 42 (36781) - http://www.bohemiancoding.com/sketch -->
    <title>cognisantresearch-logo</title>
    <desc>Created with Sketch.</desc>
    <defs></defs>
    <g id="Brands" stroke="none" stroke-width="1" fill="none" fill-rule="evenodd">
        <g id="Cognisant-Research-logo" transform="translate(-28.000000, -24.000000)" fill="#0067C2">
            <g id="cognisantresearch-logo" transform="translate(28.000000, 24.000000)">
                <path d="M0,2.136621 C0,1.08748858 0.850410959,0.237077626 1.89954338,0.237077626 L21.7015525,0.237077626 C22.7503196,0.237077626 23.6007306,1.08748858 23.6007306,2.136621 L23.6007306,21.9382648 C23.6007306,22.987032 22.7503196,23.8374429 21.7015525,23.8374429 L1.89954338,23.8374429 C0.850410959,23.8374429 0,22.987032 0,21.9382648 L0,2.136621 Z M17.0389041,8.86392694 C16.8522374,8.44420091 16.5720548,8.00073059 16.1055708,7.51050228 C15.1956164,6.53077626 14.1687671,6.13406393 12.4653881,6.13406393 C8.84894977,6.13406393 6.53881279,8.46721461 6.53881279,12.083653 C6.53881279,15.7705936 8.68493151,17.9404566 12.3722374,17.9404566 C14.6352511,17.9404566 15.8955251,17.2171689 17.0622831,15.2105936 L14.8219178,13.8809132 C14.6126027,14.4639269 14.4719635,14.7671233 14.3090411,15.0005479 C13.9119635,15.5839269 13.2120548,15.9105023 12.3492237,15.9105023 C10.4120548,15.9105023 9.29205479,14.5340639 9.29205479,12.1307763 C9.29205479,9.65771689 10.4354338,8.16401826 12.3722374,8.16401826 C13.7490411,8.16401826 14.4252055,8.72365297 14.7989041,10.1939726 L17.0389041,8.86392694 L17.0389041,8.86392694 Z" id="Fill-1"></path>
                <path d="M24.4577169,2.136621 C24.4577169,1.08748858 25.3081279,0.237077626 26.356895,0.237077626 L46.1589041,0.237077626 C47.2076712,0.237077626 48.0588128,1.08748858 48.0588128,2.136621 L48.0588128,21.9382648 C48.0588128,22.987032 47.2076712,23.8374429 46.1589041,23.8374429 L26.356895,23.8374429 C25.3081279,23.8374429 24.4577169,22.987032 24.4577169,21.9382648 L24.4577169,2.136621 Z M36.2578995,6.13406393 C34.6947945,6.13406393 33.4111416,6.55378995 32.3612785,7.44073059 C31.1715068,8.44420091 30.5647489,9.96091324 30.5647489,11.9437443 C30.5647489,14.1373516 31.1013699,15.5605479 32.3612785,16.63379 C33.3881279,17.4973516 34.6947945,17.9404566 36.2812785,17.9404566 C37.8213699,17.9404566 39.1514155,17.4973516 40.1545205,16.63379 C41.3676712,15.5839269 41.9514155,14.1139726 41.9514155,12.0372603 C41.9514155,8.32730594 39.8279452,6.13406393 36.2578995,6.13406393 Z M36.2578995,8.16401826 C38.0778082,8.16401826 39.1981735,9.6339726 39.1981735,12.0372603 C39.1981735,14.4405479 38.0778082,15.9105023 36.2578995,15.9105023 C34.4146119,15.9105023 33.3179909,14.4405479 33.3179909,11.9905023 C33.3179909,9.6339726 34.4613699,8.16401826 36.2578995,8.16401826 L36.2578995,8.16401826 Z" id="Fill-2"></path>
                <path d="M48.9154338,2.136621 C48.9154338,1.08748858 49.7654795,0.237077626 50.8146119,0.237077626 L70.616621,0.237077626 C71.6657534,0.237077626 72.5161644,1.08748858 72.5161644,2.136621 L72.5161644,21.9382648 C72.5161644,22.987032 71.6657534,23.8374429 70.616621,23.8374429 L50.8146119,23.8374429 C49.7654795,23.8374429 48.9154338,22.987032 48.9154338,21.9382648 L48.9154338,2.136621 Z M60.6107763,11.6405479 L60.6107763,13.7172603 L63.1072146,13.7172603 L63.1072146,15.6774429 C62.6637443,15.8637443 62.1738813,15.9338813 61.5441096,15.9338813 C59.3271233,15.9338813 58.1607306,14.6502283 58.1607306,12.1775342 C58.1607306,9.70410959 59.3508676,8.16401826 61.2873059,8.16401826 C62.5943379,8.16401826 63.2007306,8.60748858 63.7841096,10.0774429 L66.0007306,8.77041096 C64.9041096,6.88073059 63.5974429,6.13406393 61.3804566,6.13406393 C57.7176256,6.13406393 55.4305023,8.44420091 55.4305023,12.1307763 C55.4305023,15.7939726 57.6007306,17.9404566 61.2873059,17.9404566 C62.6407306,17.9404566 63.9006393,17.7073973 65.6734247,17.1473973 L65.6734247,11.6405479 L60.6107763,11.6405479 L60.6107763,11.6405479 Z" id="Fill-3"></path>
                <path d="M0,26.5939726 C0,25.5448402 0.850410959,24.6947945 1.89954338,24.6947945 L21.7015525,24.6947945 C22.7503196,24.6947945 23.6007306,25.5448402 23.6007306,26.5939726 L23.6007306,46.3959817 C23.6007306,47.4447489 22.7503196,48.2951598 21.7015525,48.2951598 L1.89954338,48.2951598 C0.850410959,48.2951598 0,47.4447489 0,46.3959817 L0,26.5939726 Z M16.8873059,30.8949772 L14.3437443,30.8949772 L14.4138813,38.1979909 L9.04694064,30.8949772 L6.71378995,30.8949772 L6.71378995,42.0946119 L9.2573516,42.0946119 L9.18721461,34.8617352 L14.507032,42.0946119 L16.8873059,42.0946119 L16.8873059,30.8949772 L16.8873059,30.8949772 Z" id="Fill-4"></path>
                <path d="M24.4577169,26.5939726 C24.4577169,25.5448402 25.3081279,24.6947945 26.356895,24.6947945 L46.1589041,24.6947945 C47.2076712,24.6947945 48.0588128,25.5448402 48.0588128,26.5939726 L48.0588128,46.3959817 C48.0588128,47.4447489 47.2076712,48.2951598 46.1589041,48.2951598 L26.356895,48.2951598 C25.3081279,48.2951598 24.4577169,47.4447489 24.4577169,46.3959817 L24.4577169,26.5939726 Z M34.9629224,42.0946119 L37.5528767,42.0946119 L37.5528767,30.8949772 L34.9629224,30.8949772 L34.9629224,42.0946119 Z" id="Fill-5"></path>
                <path d="M48.9154338,26.5939726 C48.9154338,25.5448402 49.7654795,24.6947945 50.8146119,24.6947945 L70.616621,24.6947945 C71.6657534,24.6947945 72.5161644,25.5448402 72.5161644,26.5939726 L72.5161644,46.3959817 C72.5161644,47.4447489 71.6657534,48.2951598 70.616621,48.2951598 L50.8146119,48.2951598 C49.7654795,48.2951598 48.9154338,47.4447489 48.9154338,46.3959817 L48.9154338,26.5939726 Z M64.8569863,32.6915068 C64.1570776,31.2449315 62.9910502,30.5917808 61.1473973,30.5917808 C58.836895,30.5917808 57.2040183,31.9915982 57.2040183,33.9517808 C57.2040183,35.4915068 58.1143379,36.5183562 60.2367123,37.4513242 C61.9872146,38.1979909 62.1738813,38.3612785 62.1738813,39.0381735 C62.1738813,39.8553425 61.6138813,40.3682192 60.7042922,40.3682192 C59.7238356,40.3682192 59.1638356,39.8779909 58.7203653,38.6648402 L56.5271233,40.0412785 C57.3439269,41.6745205 58.6038356,42.3981735 60.6334247,42.3981735 C63.2007306,42.3981735 64.9041096,40.9282192 64.9041096,38.7349772 C64.9041096,37.8012785 64.530411,36.9852055 63.9006393,36.4478539 C63.43379,36.0515068 62.9205479,35.7716895 61.7307763,35.2347032 C60.5172603,34.6980822 60.5172603,34.6980822 60.2604566,34.5347945 C59.9806393,34.3481279 59.8403653,34.0683105 59.8403653,33.7413699 C59.8403653,33.0882192 60.3539726,32.6213699 61.0772603,32.6213699 C61.8706849,32.6213699 62.2673973,32.9245662 62.6871233,33.8816438 L62.7338813,34.0215525 L64.8569863,32.6915068 L64.8569863,32.6915068 Z" id="Fill-6"></path>
                <polyline id="Fill-7" points="62.7492237 57.0012785 65.9229224 57.0012785 65.9229224 54.9015525 57.0326941 54.9015525 57.0326941 57.0012785 60.16 57.0012785 60.16 66.1011872 62.7492237 66.1011872 62.7492237 57.0012785"></polyline>
                <path d="M0,51.0516895 C0,50.0025571 0.850410959,49.1521461 1.89954338,49.1521461 L21.7015525,49.1521461 C22.7503196,49.1521461 23.6007306,50.0025571 23.6007306,51.0516895 L23.6007306,70.8533333 C23.6007306,71.9024658 22.7503196,72.7525114 21.7015525,72.7525114 L1.89954338,72.7525114 C0.850410959,72.7525114 0,71.9024658 0,70.8533333 L0,51.0516895 Z M13.1305936,55.3523288 L10.6571689,55.3523288 L6.17716895,66.5526941 L8.83689498,66.5526941 L9.65406393,64.3126941 L13.8538813,64.3126941 L14.6940639,66.5526941 L17.4235616,66.5526941 L13.1305936,55.3523288 Z M11.8005479,58.4091324 L13.1769863,62.1658447 L10.3773516,62.1658447 L11.8005479,58.4091324 L11.8005479,58.4091324 Z" id="Fill-8"></path>
                <path d="M24.4577169,51.0516895 C24.4577169,50.0025571 25.3081279,49.1521461 26.356895,49.1521461 L46.1589041,49.1521461 C47.2076712,49.1521461 48.0588128,50.0025571 48.0588128,51.0516895 L48.0588128,70.8533333 C48.0588128,71.9024658 47.2076712,72.7525114 46.1589041,72.7525114 L26.356895,72.7525114 C25.3081279,72.7525114 24.4577169,71.9024658 24.4577169,70.8533333 L24.4577169,51.0516895 Z M41.3446575,55.3523288 L38.8014612,55.3523288 L38.8715982,62.6557078 L33.5046575,55.3523288 L31.1715068,55.3523288 L31.1715068,66.5526941 L33.7147032,66.5526941 L33.6452968,59.3190868 L38.9647489,66.5526941 L41.3446575,66.5526941 L41.3446575,55.3523288 L41.3446575,55.3523288 Z" id="Fill-9"></path>
                <path d="M1.85570776,77.6595434 L1.85570776,76.3536073 L2.27324201,76.3536073 C2.80547945,76.3536073 2.98666667,76.5106849 2.98666667,76.9822831 C2.98666667,77.4663014 2.78100457,77.6595434 2.27324201,77.6595434 L1.85570776,77.6595434 Z M1.29936073,75.9057534 L1.29936073,79.9393607 L1.85570776,79.9393607 L1.85570776,78.1011872 L2.1826484,78.1011872 C2.7203653,78.1011872 2.84127854,78.2100457 2.87780822,78.7422831 C2.90155251,79.0326941 2.92018265,79.3103196 2.94429224,79.5886758 C2.95013699,79.7157991 2.98045662,79.8367123 3.02283105,79.9393607 L3.63981735,79.9393607 C3.54922374,79.709589 3.52474886,79.5824658 3.49442922,79.2259361 C3.4283105,78.0646575 3.38557078,77.980274 2.85369863,77.8593607 C3.36146119,77.7260274 3.5430137,77.490411 3.5430137,76.9461187 C3.5430137,76.5468493 3.4403653,76.2630137 3.24054795,76.1055708 C3.05936073,75.9601826 2.82958904,75.9057534 2.38173516,75.9057534 L1.29936073,75.9057534 L1.29936073,75.9057534 Z" id="Fill-10"></path>
                <polyline id="Fill-11" points="11.0922374 75.9057534 11.0922374 79.9393607 12.9972603 79.9393607 12.9972603 79.4677626 11.6489498 79.4677626 11.6489498 78.1315068 12.8522374 78.1315068 12.8522374 77.6595434 11.6489498 77.6595434 11.6489498 76.3777169 12.9249315 76.3777169 12.9249315 75.9057534 11.0922374 75.9057534"></polyline>
                <path d="M22.6326941,77.0608219 L22.6326941,76.9519635 C22.6326941,76.5651142 22.5541553,76.3170776 22.3726027,76.1358904 C22.1793607,75.9481279 21.8889498,75.8454795 21.52,75.8454795 C20.8127854,75.8454795 20.4255708,76.2144292 20.4255708,76.8734247 C20.4255708,77.4235616 20.6370776,77.7019178 21.3808219,78.0949772 C21.9313242,78.3850228 22.1004566,78.5786301 22.1004566,78.9355251 C22.1004566,79.3285845 21.8772603,79.5521461 21.4896804,79.5521461 C21.0546119,79.5521461 20.8789041,79.3227397 20.8789041,78.7726027 L20.8789041,78.603105 L20.3105023,78.603105 C20.3046575,78.6936986 20.3046575,78.7846575 20.3046575,78.8266667 C20.3046575,79.6189954 20.6915068,80 21.4958904,80 C22.2454795,80 22.6568037,79.6131507 22.6568037,78.9052055 C22.6568037,78.3671233 22.4515068,78.0708676 21.8407306,77.7384475 C21.5444749,77.5810046 21.3749772,77.4783562 21.3263927,77.4480365 C21.0787215,77.2726941 20.9819178,77.0973516 20.9819178,76.8493151 C20.9819178,76.4986301 21.1813699,76.292968 21.52,76.292968 C21.7380822,76.292968 21.8827397,76.3656621 21.9857534,76.5289498 C22.0584475,76.6440183 22.0705023,76.7221918 22.0705023,76.9461187 L22.076347,77.0608219 L22.6326941,77.0608219" id="Fill-12"></path>
                <polyline id="Fill-13" points="30.1143379 75.9057534 30.1143379 79.9393607 32.0189954 79.9393607 32.0189954 79.4677626 30.6706849 79.4677626 30.6706849 78.1315068 31.8739726 78.1315068 31.8739726 77.6595434 30.6706849 77.6595434 30.6706849 76.3777169 31.9463014 76.3777169 31.9463014 75.9057534 30.1143379 75.9057534"></polyline>
                <path d="M40.003653,78.5727854 L40.5778995,76.2988128 L41.1159817,78.5727854 L40.003653,78.5727854 Z M40.9165297,75.9057534 L40.2334247,75.9057534 L39.1207306,79.9393607 L39.6526027,79.9393607 L39.8885845,79.0443836 L41.2189954,79.0443836 L41.4546119,79.9393607 L42.0168037,79.9393607 L40.9165297,75.9057534 L40.9165297,75.9057534 Z" id="Fill-14"></path>
                <path d="M49.8385388,77.6595434 L49.8385388,76.3536073 L50.2557078,76.3536073 C50.7875799,76.3536073 50.9691324,76.5106849 50.9691324,76.9822831 C50.9691324,77.4663014 50.7634703,77.6595434 50.2557078,77.6595434 L49.8385388,77.6595434 Z M49.2821918,75.9057534 L49.2821918,79.9393607 L49.8385388,79.9393607 L49.8385388,78.1011872 L50.1651142,78.1011872 C50.7031963,78.1011872 50.8241096,78.2100457 50.860274,78.7422831 C50.8847489,79.0326941 50.9026484,79.3103196 50.926758,79.5886758 C50.9333333,79.7157991 50.9632877,79.8367123 51.0052968,79.9393607 L51.6222831,79.9393607 C51.5316895,79.709589 51.5075799,79.5824658 51.4772603,79.2259361 C51.410411,78.0646575 51.3684018,77.980274 50.8361644,77.8593607 C51.3442922,77.7260274 51.5254795,77.490411 51.5254795,76.9461187 C51.5254795,76.5468493 51.4228311,76.2630137 51.223379,76.1055708 C51.0418265,75.9601826 50.8120548,75.9057534 50.3645662,75.9057534 L49.2821918,75.9057534 L49.2821918,75.9057534 Z" id="Fill-15"></path>
                <path d="M60.5994521,78.6571689 C60.587032,79.0443836 60.5808219,79.1411872 60.5388128,79.2624658 C60.4781735,79.443653 60.3090411,79.5521461 60.0792694,79.5521461 C59.9338813,79.5521461 59.7947032,79.510137 59.7037443,79.4312329 C59.5831963,79.3347945 59.5408219,79.2076712 59.5287671,78.9172603 L59.5167123,77.6412785 C59.5167123,77.2120548 59.5287671,76.8189954 59.547032,76.710137 C59.5890411,76.4442009 59.7768037,76.292968 60.0730594,76.292968 C60.4237443,76.292968 60.5994521,76.516895 60.5994521,76.9822831 L60.5994521,77.0728767 L61.1492237,77.0728767 C61.1554338,76.7042922 61.1192694,76.5048402 61.0224658,76.3291324 C60.8412785,76.0029224 60.5263927,75.8454795 60.0672146,75.8454795 C59.6073059,75.8454795 59.2865753,76.0029224 59.1115982,76.3108676 C58.9848402,76.5289498 58.96,76.7769863 58.96,77.8896804 C58.96,78.3671233 58.9727854,78.9841096 58.9782648,79.0805479 C59.0447489,79.7157991 59.3837443,80 60.0672146,80 C60.8292237,80 61.1554338,79.6310502 61.1554338,78.7663927 C61.1554338,78.7543379 61.1554338,78.7057534 61.1492237,78.6571689 L60.5994521,78.6571689" id="Fill-16"></path>
                <polyline id="Fill-17" points="70.809863 75.9057534 70.2531507 75.9057534 70.2531507 77.6175342 69.0926027 77.6175342 69.0926027 75.9057534 68.5358904 75.9057534 68.5358904 79.9393607 69.0926027 79.9393607 69.0926027 78.0891324 70.2531507 78.0891324 70.2531507 79.9393607 70.809863 79.9393607 70.809863 75.9057534"></polyline>
            </g>
        </g>
    </g>
</svg>