<?xml version="1.0" encoding="UTF-8"?>
<svg width="64px" height="64px" viewBox="0 0 64 64" version="1.1" xmlns="http://www.w3.org/2000/svg" xmlns:xlink="http://www.w3.org/1999/xlink">
    <!-- Generator: Sketch 42 (36781) - http://www.bohemiancoding.com/sketch -->
    <title>cognisantresearch-avatar</title>
    <desc>Created with Sketch.</desc>
    <defs></defs>
    <g id="Brands" stroke="none" stroke-width="1" fill="none" fill-rule="evenodd">
        <g id="Cognisant-Research-avatar">
            <g id="cognisantresearch-avatar">
                <rect id="Rectangle" fill="#FFFFFF" x="0" y="0" width="64" height="64"></rect>
                <g id="Group" transform="translate(10.000000, 8.000000)" fill="#0067C2">
                    <path d="M0,1.2558099 C0,0.639176964 0.49983338,0.139343584 1.11646631,0.139343584 L12.7551982,0.139343584 C13.3716164,0.139343584 13.8714498,0.639176964 13.8714498,1.2558099 L13.8714498,12.8943271 C13.8714498,13.5107453 13.3716164,14.0105787 12.7551982,14.0105787 L1.11646631,14.0105787 C0.49983338,14.0105787 0,13.5107453 0,12.8943271 L0,1.2558099 Z M10.0147028,5.20981828 C9.90498854,4.96312217 9.74030976,4.70247023 9.4661314,4.41433604 C8.93130109,3.83849706 8.32776517,3.60532737 7.32659547,3.60532737 C5.20101538,3.60532737 3.84322058,4.97664859 3.84322058,7.10222868 C3.84322058,9.26924685 5.1046128,10.5445949 7.27184568,10.5445949 C8.60194353,10.5445949 9.34267599,10.1194789 10.0284439,8.940104 L8.71165781,8.15857758 C8.58863181,8.50124685 8.50597037,8.67945205 8.41021191,8.81664859 C8.17682751,9.15953257 7.76545261,9.35147889 7.25831926,9.35147889 C6.11973833,9.35147889 5.46145261,8.54247023 5.46145261,7.12992564 C5.46145261,5.67637238 6.13347945,4.79844339 7.27184568,4.79844339 C8.08106905,4.79844339 8.47848812,5.12737154 8.6981314,5.99155941 L10.0147028,5.20981828 L10.0147028,5.20981828 Z" id="Fill-1"></path>
                    <path d="M14.3751479,1.2558099 C14.3751479,0.639176964 14.8749813,0.139343584 15.4913995,0.139343584 L27.1301314,0.139343584 C27.7465496,0.139343584 28.2468124,0.639176964 28.2468124,1.2558099 L28.2468124,12.8943271 C28.2468124,13.5107453 27.7465496,14.0105787 27.1301314,14.0105787 L15.4913995,14.0105787 C14.8749813,14.0105787 14.3751479,13.5107453 14.3751479,12.8943271 L14.3751479,1.2558099 Z M21.3107654,3.60532737 C20.3920425,3.60532737 19.6375689,3.85202348 19.0205066,4.37332737 C18.3212122,4.96312217 17.9645871,5.85457758 17.9645871,7.01999665 C17.9645871,8.30930053 18.2799888,9.14579145 19.0205066,9.77659491 C19.6240425,10.2841577 20.3920425,10.5445949 21.3245066,10.5445949 C22.2297031,10.5445949 23.0114442,10.2841577 23.6010243,9.77659491 C24.3140598,9.15953257 24.6571585,8.29555941 24.6571585,7.07496114 C24.6571585,4.89441655 23.409078,3.60532737 21.3107654,3.60532737 Z M21.3107654,4.79844339 C22.3804261,4.79844339 23.0389265,5.66241655 23.0389265,7.07496114 C23.0389265,8.48750573 22.3804261,9.35147889 21.3107654,9.35147889 C20.2273637,9.35147889 19.5828191,8.48750573 19.5828191,7.04747889 C19.5828191,5.66241655 20.254846,4.79844339 21.3107654,4.79844339 L21.3107654,4.79844339 Z" id="Fill-2"></path>
                    <path d="M28.7502958,1.2558099 C28.7502958,0.639176964 29.2499145,0.139343584 29.8665474,0.139343584 L41.5052793,0.139343584 C42.1219122,0.139343584 42.6217456,0.639176964 42.6217456,1.2558099 L42.6217456,12.8943271 C42.6217456,13.5107453 42.1219122,14.0105787 41.5052793,14.0105787 L29.8665474,14.0105787 C29.2499145,14.0105787 28.7502958,13.5107453 28.7502958,12.8943271 L28.7502958,1.2558099 Z M35.624293,6.84179145 L35.624293,8.06238971 L37.0915874,8.06238971 L37.0915874,9.21449706 C36.8309354,9.32399665 36.5430159,9.36522002 36.1728644,9.36522002 C34.8698194,9.36522002 34.1842661,8.61074644 34.1842661,7.15740788 C34.1842661,5.70363992 34.8837752,4.79844339 36.0219268,4.79844339 C36.7901415,4.79844339 37.1465519,5.05909533 37.4894358,5.92306849 L38.7922661,5.15485379 C38.1477216,4.04418451 37.3797216,3.60532737 36.0766765,3.60532737 C33.9238289,3.60532737 32.5795605,4.96312217 32.5795605,7.12992564 C32.5795605,9.28298798 33.8551233,10.5445949 36.0219268,10.5445949 C36.817409,10.5445949 37.5579268,10.4076131 38.5998904,10.0784702 L38.5998904,6.84179145 L35.624293,6.84179145 L35.624293,6.84179145 Z" id="Fill-3"></path>
                    <path d="M0,15.6307431 C0,15.0141101 0.49983338,14.5144915 1.11646631,14.5144915 L12.7551982,14.5144915 C13.3716164,14.5144915 13.8714498,15.0141101 13.8714498,15.6307431 L13.8714498,27.269475 C13.8714498,27.8858932 13.3716164,28.3857266 12.7551982,28.3857266 L1.11646631,28.3857266 C0.49983338,28.3857266 0,27.8858932 0,27.269475 L0,15.6307431 Z M9.92560022,18.1586805 L8.43060889,18.1586805 L8.47183226,22.451064 L5.31738552,18.1586805 L3.9460643,18.1586805 L3.9460643,24.7413229 L5.44105563,24.7413229 L5.39983226,20.4901627 L8.52658205,24.7413229 L9.92560022,24.7413229 L9.92560022,18.1586805 L9.92560022,18.1586805 Z" id="Fill-4"></path>
                    <path d="M14.3751479,15.6307431 C14.3751479,15.0141101 14.8749813,14.5144915 15.4913995,14.5144915 L27.1301314,14.5144915 C27.7465496,14.5144915 28.2468124,15.0141101 28.2468124,15.6307431 L28.2468124,27.269475 C28.2468124,27.8858932 27.7465496,28.3857266 27.1301314,28.3857266 L15.4913995,28.3857266 C14.8749813,28.3857266 14.3751479,27.8858932 14.3751479,27.269475 L14.3751479,15.6307431 Z M20.549636,24.7413229 L22.0718949,24.7413229 L22.0718949,18.1586805 L20.549636,18.1586805 L20.549636,24.7413229 Z" id="Fill-5"></path>
                    <path d="M28.7502958,15.6307431 C28.7502958,15.0141101 29.2499145,14.5144915 29.8665474,14.5144915 L41.5052793,14.5144915 C42.1219122,14.5144915 42.6217456,15.0141101 42.6217456,15.6307431 L42.6217456,27.269475 C42.6217456,27.8858932 42.1219122,28.3857266 41.5052793,28.3857266 L29.8665474,28.3857266 C29.2499145,28.3857266 28.7502958,27.8858932 28.7502958,27.269475 L28.7502958,15.6307431 Z M38.1200246,19.2145999 C37.7086497,18.3643679 37.0233112,17.9804753 35.9396947,17.9804753 C34.5816852,17.9804753 33.6219536,18.803225 33.6219536,19.9553324 C33.6219536,20.8603142 34.1569986,21.4638502 35.404435,22.0122069 C36.4333016,22.451064 36.5430159,22.5470372 36.5430159,22.9448857 C36.5430159,23.4251809 36.2138731,23.7266268 35.6792575,23.7266268 C35.1029891,23.7266268 34.7738462,23.4384926 34.5131943,22.7254571 L33.2241051,23.5344658 C33.7041856,24.4944121 34.4447034,24.9197428 35.6376047,24.9197428 C37.1465519,24.9197428 38.1477216,24.0557696 38.1477216,22.7666805 C38.1477216,22.2178943 37.9280783,21.7382432 37.5579268,21.4224121 C37.2835337,21.1894571 36.9818731,21.024993 36.2825787,20.7093766 C35.5693285,20.3939748 35.5693285,20.3939748 35.4183908,20.2980017 C35.2539268,20.1882874 35.17148,20.0238233 35.17148,19.8316623 C35.17148,19.4477696 35.4733553,19.1733766 35.8984713,19.1733766 C36.3648107,19.1733766 36.5979804,19.3515818 36.8446765,19.914109 L36.8721588,19.9963411 L38.1200246,19.2145999 L38.1200246,19.2145999 Z" id="Fill-6"></path>
                    <polyline id="Fill-7" points="36.8811764 33.5027923 38.746534 33.5027923 38.746534 32.2686676 33.5212569 32.2686676 33.5212569 33.5027923 35.3593469 33.5027923 35.3593469 38.85131 36.8811764 38.85131 36.8811764 33.5027923"></polyline>
                    <path d="M0,30.005891 C0,29.389258 0.49983338,28.8894247 1.11646631,28.8894247 L12.7551982,28.8894247 C13.3716164,28.8894247 13.8714498,29.389258 13.8714498,30.005891 L13.8714498,41.6444082 C13.8714498,42.2610411 13.3716164,42.7606598 12.7551982,42.7606598 L1.11646631,42.7606598 C0.49983338,42.7606598 0,42.2610411 0,41.6444082 L0,30.005891 Z M7.71757339,32.5336136 L6.26380542,32.5336136 L3.63066257,39.1166855 L5.19393011,39.1166855 L5.67422533,37.8001141 L8.1426894,37.8001141 L8.63651104,39.1166855 L10.2407873,39.1166855 L7.71757339,32.5336136 Z M6.93583226,34.3302656 L7.74484093,36.5382924 L6.09934135,36.5382924 L6.93583226,34.3302656 L6.93583226,34.3302656 Z" id="Fill-8"></path>
                    <path d="M14.3751479,30.005891 C14.3751479,29.389258 14.8749813,28.8894247 15.4913995,28.8894247 L27.1301314,28.8894247 C27.7465496,28.8894247 28.2468124,29.389258 28.2468124,30.005891 L28.2468124,41.6444082 C28.2468124,42.2610411 27.7465496,42.7606598 27.1301314,42.7606598 L15.4913995,42.7606598 C14.8749813,42.7606598 14.3751479,42.2610411 14.3751479,41.6444082 L14.3751479,30.005891 Z M24.3005334,32.5336136 L22.8057568,32.5336136 L22.8469802,36.8262119 L19.6925334,32.5336136 L18.3212122,32.5336136 L18.3212122,39.1166855 L19.8159888,39.1166855 L19.7751949,34.8650959 L22.9017299,39.1166855 L24.3005334,39.1166855 L24.3005334,32.5336136 L24.3005334,32.5336136 Z" id="Fill-9"></path>
                    <path d="M1.09070171,45.6447928 L1.09070171,44.8772223 L1.33610959,44.8772223 C1.64893486,44.8772223 1.75542857,44.9695454 1.75542857,45.2467297 C1.75542857,45.5312139 1.63454962,45.6447928 1.33610959,45.6447928 L1.09070171,45.6447928 Z M0.763705899,44.6139938 L0.763705899,46.9847671 L1.09070171,46.9847671 L1.09070171,45.9043713 L1.28286273,45.9043713 C1.59890858,45.9043713 1.66997596,45.9683534 1.69144646,46.2811786 C1.70540229,46.4518692 1.71635225,46.615045 1.73052278,46.7786503 C1.73395807,46.8533676 1.75177859,46.924435 1.77668437,46.9847671 L2.13932122,46.9847671 C2.08607436,46.8497176 2.07168912,46.7750003 2.0538686,46.5654481 C2.01500699,45.8829008 1.9898865,45.8333039 1.67727593,45.7622365 C1.97571596,45.6838692 2.08242438,45.5453844 2.08242438,45.2254739 C2.08242438,44.9908012 2.02209226,44.8239754 1.90464859,44.7314375 C1.79815488,44.6459849 1.6631054,44.6139938 1.39987699,44.6139938 L0.763705899,44.6139938 L0.763705899,44.6139938 Z" id="Fill-10"></path>
                    <polyline id="Fill-11" points="6.51951915 44.6139938 6.51951915 46.9847671 7.63920604 46.9847671 7.63920604 46.7075829 6.84672966 46.7075829 6.84672966 45.9221918 7.55396813 45.9221918 7.55396813 45.6447928 6.84672966 45.6447928 6.84672966 44.8913928 7.59669444 44.8913928 7.59669444 44.6139938 6.51951915 44.6139938"></polyline>
                    <path d="M13.3024814,45.2928912 L13.3024814,45.2289091 C13.3024814,45.0015365 13.2563198,44.8557517 13.1496114,44.749258 C13.0360324,44.6388996 12.8653419,44.5785675 12.6484898,44.5785675 C12.2328208,44.5785675 12.0052334,44.7954196 12.0052334,45.1827476 C12.0052334,45.5060934 12.1295477,45.6696986 12.5666872,45.9007213 C12.8902477,46.0711971 12.9896561,46.1849908 12.9896561,46.3947576 C12.9896561,46.6257803 12.8584713,46.7571798 12.6306693,46.7571798 C12.3749555,46.7571798 12.2716824,46.622345 12.2716824,46.2989992 L12.2716824,46.199376 L11.9376013,46.199376 C11.9341661,46.2526229 11.9341661,46.3060844 11.9341661,46.3307755 C11.9341661,46.7964708 12.1615387,47.0204082 12.6343193,47.0204082 C13.074894,47.0204082 13.3166519,46.7930355 13.3166519,46.3769371 C13.3166519,46.0606765 13.1959877,45.8865507 12.8370008,45.6911691 C12.662875,45.5986313 12.5632519,45.5382991 12.5346961,45.5204786 C12.3891261,45.4174202 12.3322292,45.3143618 12.3322292,45.168577 C12.3322292,44.9624602 12.4494582,44.8415812 12.6484898,44.8415812 C12.7766687,44.8415812 12.8616919,44.8843075 12.9222387,44.9802807 C12.9649651,45.0479128 12.9720503,45.0938597 12.9720503,45.2254739 L12.9754856,45.2928912 L13.3024814,45.2928912" id="Fill-12"></path>
                    <polyline id="Fill-13" points="17.6998557 44.6139938 17.6998557 46.9847671 18.8193279 46.9847671 18.8193279 46.7075829 18.0268516 46.7075829 18.0268516 45.9221918 18.73409 45.9221918 18.73409 45.6447928 18.0268516 45.6447928 18.0268516 44.8913928 18.7766016 44.8913928 18.7766016 44.6139938 17.6998557 44.6139938"></polyline>
                    <path d="M23.5123511,46.1815555 L23.8498675,44.8450165 L24.166128,46.1815555 L23.5123511,46.1815555 Z M24.0488991,44.6139938 L23.6474006,44.6139938 L22.993409,46.9847671 L23.3060196,46.9847671 L23.444719,46.4587397 L24.2266749,46.4587397 L24.3651596,46.9847671 L24.6955907,46.9847671 L24.0488991,44.6139938 L24.0488991,44.6139938 Z" id="Fill-14"></path>
                    <path d="M29.2928555,45.6447928 L29.2928555,44.8772223 L29.5380486,44.8772223 C29.8506592,44.8772223 29.9573676,44.9695454 29.9573676,45.2467297 C29.9573676,45.5312139 29.8364887,45.6447928 29.5380486,45.6447928 L29.2928555,45.6447928 Z M28.9658597,44.6139938 L28.9658597,46.9847671 L29.2928555,46.9847671 L29.2928555,45.9043713 L29.4848018,45.9043713 C29.8010623,45.9043713 29.8721297,45.9683534 29.8933855,46.2811786 C29.9077708,46.4518692 29.9182913,46.615045 29.9324618,46.7786503 C29.9363265,46.8533676 29.9539323,46.924435 29.9786234,46.9847671 L30.3412603,46.9847671 C30.2880134,46.8497176 30.2738429,46.7750003 30.2560224,46.5654481 C30.2167313,45.8829008 30.1920403,45.8333039 29.879215,45.7622365 C30.1778697,45.6838692 30.2843634,45.5453844 30.2843634,45.2254739 C30.2843634,44.9908012 30.2240313,44.8239754 30.1068023,44.7314375 C30.0000939,44.6459849 29.8650445,44.6139938 29.6020308,44.6139938 L28.9658597,44.6139938 L28.9658597,44.6139938 Z" id="Fill-15"></path>
                    <path d="M35.6176371,46.2311524 C35.6103372,46.4587397 35.6066872,46.5156366 35.5819961,46.5869186 C35.546355,46.6934124 35.4469466,46.7571798 35.3118971,46.7571798 C35.2264445,46.7571798 35.1446419,46.7324887 35.0911803,46.6861124 C35.0203276,46.6294302 34.9954219,46.5547129 34.9883366,46.3840224 L34.9812513,45.6340576 C34.9812513,45.3817791 34.9883366,45.1507565 34.9990718,45.0867744 C35.0237629,44.9304691 35.1341213,44.8415812 35.3082471,44.8415812 C35.514364,44.8415812 35.6176371,44.9731954 35.6176371,45.2467297 L35.6176371,45.2999765 L35.9407682,45.2999765 C35.9444182,45.0833391 35.9231624,44.9661101 35.8662656,44.862837 C35.7597719,44.6711054 35.5746961,44.5785675 35.3048119,44.5785675 C35.0344982,44.5785675 34.8459871,44.6711054 34.7431434,44.8521018 C34.6686408,44.9802807 34.6540408,45.1260654 34.6540408,45.780057 C34.6540408,46.0606765 34.6615555,46.4233134 34.6647761,46.4799955 C34.7038524,46.8533676 34.9030987,47.0204082 35.3048119,47.0204082 C35.7526866,47.0204082 35.9444182,46.8035561 35.9444182,46.2953492 C35.9444182,46.2882639 35.9444182,46.2597081 35.9407682,46.2311524 L35.6176371,46.2311524" id="Fill-16"></path>
                    <polyline id="Fill-17" points="41.6188583 44.6139938 41.2916477 44.6139938 41.2916477 45.6201018 40.6095298 45.6201018 40.6095298 44.6139938 40.2823193 44.6139938 40.2823193 46.9847671 40.6095298 46.9847671 40.6095298 45.897286 41.2916477 45.897286 41.2916477 46.9847671 41.6188583 46.9847671 41.6188583 44.6139938"></polyline>
                </g>
            </g>
        </g>
    </g>
</svg>