<?xml version="1.0" encoding="UTF-8"?>
<svg width="72px" height="80px" viewBox="0 0 72 80" version="1.1" xmlns="http://www.w3.org/2000/svg" xmlns:xlink="http://www.w3.org/1999/xlink">
    <!-- Generator: Sketch 42 (36781) - http://www.bohemiancoding.com/sketch -->
    <title>cognisantresearch-logo-white</title>
    <desc>Created with Sketch.</desc>
    <defs></defs>
    <g id="Brands" stroke="none" stroke-width="1" fill="none" fill-rule="evenodd">
        <g id="Cognisant-Research-logo-white" transform="translate(-28.000000, -24.000000)" fill="#FFFFFF">
            <g id="cognisantresearch-logo-white" transform="translate(28.000000, 24.000000)">
                <path d="M0,2.11459398 C0,1.07627736 0.841643836,0.234633526 1.87996046,0.234633526 L21.4778252,0.234633526 C22.5157803,0.234633526 23.3574241,1.07627736 23.3574241,2.11459398 L23.3574241,21.7120972 C23.3574241,22.7500523 22.5157803,23.5916961 21.4778252,23.5916961 L1.87996046,23.5916961 C0.841643836,23.5916961 0,22.7500523 0,21.7120972 L0,2.11459398 Z M16.8632453,8.77254625 C16.678503,8.3571473 16.4012089,7.91824883 15.939534,7.43307442 C15.0389606,6.46344867 14.0226974,6.07082615 12.336879,6.07082615 C8.75772349,6.07082615 6.47140234,8.37992374 6.47140234,11.9590792 C6.47140234,15.6080102 8.59539613,17.7555035 12.2446886,17.7555035 C14.4843723,17.7555035 15.7316537,17.0396724 16.8863833,15.0537834 L14.6691145,13.737811 C14.4619574,14.3148143 14.322768,14.6148849 14.1615252,14.8459031 C13.7685412,15.4232679 13.075848,15.7464765 12.2219122,15.7464765 C10.304714,15.7464765 9.19626042,14.3842282 9.19626042,12.0057167 C9.19626042,9.5581528 10.327852,8.07985313 12.2446886,8.07985313 C13.6072984,8.07985313 14.276492,8.6337184 14.6463381,10.0888801 L16.8632453,8.77254625 L16.8632453,8.77254625 Z" id="Fill-1"></path>
                <path d="M24.2055755,2.11459398 C24.2055755,1.07627736 25.0472193,0.234633526 26.0851744,0.234633526 L45.6830391,0.234633526 C46.7209942,0.234633526 47.5633611,1.07627736 47.5633611,2.11459398 L47.5633611,21.7120972 C47.5633611,22.7500523 46.7209942,23.5916961 45.6830391,23.5916961 L26.0851744,23.5916961 C25.0472193,23.5916961 24.2055755,22.7500523 24.2055755,21.7120972 L24.2055755,2.11459398 Z M35.8841068,6.07082615 C34.3371162,6.07082615 33.0666968,6.48622511 32.0276571,7.36402203 C30.8501511,8.3571473 30.2496484,9.85822341 30.2496484,11.8206129 C30.2496484,13.9916057 30.7807372,15.4001299 32.0276571,16.4623076 C33.0439204,17.3169665 34.3371162,17.7555035 35.9072447,17.7555035 C37.4314588,17.7555035 38.7477927,17.3169665 39.7405564,16.4623076 C40.9412004,15.4232679 41.5189267,13.9684677 41.5189267,11.9131648 C41.5189267,8.24145742 39.4173478,6.07082615 35.8841068,6.07082615 Z M35.8841068,8.07985313 C37.6852535,8.07985313 38.7940686,9.5346533 38.7940686,11.9131648 C38.7940686,14.2916763 37.6852535,15.7464765 35.8841068,15.7464765 C34.0598221,15.7464765 32.9745064,14.2916763 32.9745064,11.8668889 C32.9745064,9.5346533 34.106098,8.07985313 35.8841068,8.07985313 L35.8841068,8.07985313 Z" id="Fill-2"></path>
                <path d="M48.411151,2.11459398 C48.411151,1.07627736 49.2524333,0.234633526 50.2907499,0.234633526 L69.8886146,0.234633526 C70.9269312,0.234633526 71.7685751,1.07627736 71.7685751,2.11459398 L71.7685751,21.7120972 C71.7685751,22.7500523 70.9269312,23.5916961 69.8886146,23.5916961 L50.2907499,23.5916961 C49.2524333,23.5916961 48.411151,22.7500523 48.411151,21.7120972 L48.411151,2.11459398 Z M59.9859229,11.5205423 L59.9859229,13.5758452 L62.4566248,13.5758452 L62.4566248,15.5158198 C62.0177263,15.7002005 61.5329134,15.7696145 60.9096342,15.7696145 C58.7155035,15.7696145 57.5611354,14.499195 57.5611354,12.0519927 C57.5611354,9.60406722 58.739003,8.07985313 60.655478,8.07985313 C61.9490354,8.07985313 62.5491767,8.51875159 63.1265414,9.97355176 L65.3203107,8.67999435 C64.2349951,6.80979523 62.9417992,6.07082615 60.7476684,6.07082615 C57.1225985,6.07082615 54.8590538,8.3571473 54.8590538,12.0057167 C54.8590538,15.6311481 57.0069086,17.7555035 60.655478,17.7555035 C61.9949499,17.7555035 63.2418698,17.5248468 64.996379,16.97062 L64.996379,11.5205423 L59.9859229,11.5205423 L59.9859229,11.5205423 Z" id="Fill-3"></path>
                <path d="M0,26.3198079 C0,25.2814913 0.841643836,24.440209 1.87996046,24.440209 L21.4778252,24.440209 C22.5157803,24.440209 23.3574241,25.2814913 23.3574241,26.3198079 L23.3574241,45.9176726 C23.3574241,46.9556277 22.5157803,47.7972716 21.4778252,47.7972716 L1.87996046,47.7972716 C0.841643836,47.7972716 0,46.9556277 0,45.9176726 L0,26.3198079 Z M16.71321,30.5764722 L14.1958706,30.5764722 L14.2652846,37.8041971 L8.95367321,30.5764722 L6.64457562,30.5764722 L6.64457562,41.6606468 L9.16191498,41.6606468 L9.09250106,34.5023358 L14.3574749,41.6606468 L16.71321,41.6606468 L16.71321,30.5764722 L16.71321,30.5764722 Z" id="Fill-4"></path>
                <path d="M24.2055755,26.3198079 C24.2055755,25.2814913 25.0472193,24.440209 26.0851744,24.440209 L45.6830391,24.440209 C46.7209942,24.440209 47.5633611,25.2814913 47.5633611,26.3198079 L47.5633611,45.9176726 C47.5633611,46.9556277 46.7209942,47.7972716 45.6830391,47.7972716 L26.0851744,47.7972716 C25.0472193,47.7972716 24.2055755,46.9556277 24.2055755,45.9176726 L24.2055755,26.3198079 Z M34.6024799,41.6606468 L37.1657337,41.6606468 L37.1657337,30.5764722 L34.6024799,30.5764722 L34.6024799,41.6606468 Z" id="Fill-5"></path>
                <path d="M48.411151,26.3198079 C48.411151,25.2814913 49.2524333,24.440209 50.2907499,24.440209 L69.8886146,24.440209 C70.9269312,24.440209 71.7685751,25.2814913 71.7685751,26.3198079 L71.7685751,45.9176726 C71.7685751,46.9556277 70.9269312,47.7972716 69.8886146,47.7972716 L50.2907499,47.7972716 C49.2524333,47.7972716 48.411151,46.9556277 48.411151,45.9176726 L48.411151,26.3198079 Z M64.1883576,32.354481 C63.4956645,30.9228188 62.341658,30.2764016 60.5170117,30.2764016 C58.230329,30.2764016 56.6142861,31.6617879 56.6142861,33.6017625 C56.6142861,35.125615 57.515221,36.1418783 59.6157153,37.0652281 C61.3481712,37.8041971 61.5329134,37.9658014 61.5329134,38.6357181 C61.5329134,39.4444626 60.9786866,39.952052 60.0784748,39.952052 C59.108126,39.952052 58.5538992,39.4668776 58.1150007,38.2662336 L55.9443694,39.6284819 C56.7527524,41.2448863 57.9996724,41.9610789 60.0083378,41.9610789 C62.5491767,41.9610789 64.2349951,40.5062788 64.2349951,38.3356475 C64.2349951,37.4115746 63.865149,36.6039147 63.2418698,36.0721028 C62.7798334,35.6798418 62.2718825,35.4029092 61.0943765,34.8714588 C59.893371,34.34037 59.893371,34.34037 59.6392148,34.1787657 C59.3622822,33.9940234 59.2234543,33.7170908 59.2234543,33.3935207 C59.2234543,32.7471035 59.7317667,32.2850671 60.4475978,32.2850671 C61.2328428,32.2850671 61.6254653,32.5851377 62.0408643,33.5323485 L62.0871402,33.6708149 L64.1883576,32.354481 L64.1883576,32.354481 Z" id="Fill-6"></path>
                <polyline id="Fill-7" points="62.1023245 56.4136365 65.2433046 56.4136365 65.2433046 54.3355571 56.4447281 54.3355571 56.4447281 56.4136365 59.5397938 56.4136365 59.5397938 65.4197317 62.1023245 65.4197317 62.1023245 56.4136365"></polyline>
                <path d="M0,50.5253834 C0,49.4870668 0.841643836,48.645423 1.87996046,48.645423 L21.4778252,48.645423 C22.5157803,48.645423 23.3574241,49.4870668 23.3574241,50.5253834 L23.3574241,70.1228866 C23.3574241,71.1612032 22.5157803,72.0024855 21.4778252,72.0024855 L1.87996046,72.0024855 C0.841643836,72.0024855 0,71.1612032 0,70.1228866 L0,50.5253834 Z M12.9952267,54.7816862 L10.5473012,54.7816862 L6.1134868,65.8665838 L8.74579297,65.8665838 L9.55453749,63.6496766 L13.7110578,63.6496766 L14.5425787,65.8665838 L17.2439373,65.8665838 L12.9952267,54.7816862 Z M11.6788928,57.8069764 L13.0411411,61.5249598 L10.2703686,61.5249598 L11.6788928,57.8069764 L11.6788928,57.8069764 Z" id="Fill-8"></path>
                <path d="M24.2055755,50.5253834 C24.2055755,49.4870668 25.0472193,48.645423 26.0851744,48.645423 L45.6830391,48.645423 C46.7209942,48.645423 47.5633611,49.4870668 47.5633611,50.5253834 L47.5633611,70.1228866 C47.5633611,71.1612032 46.7209942,72.0024855 45.6830391,72.0024855 L26.0851744,72.0024855 C25.0472193,72.0024855 24.2055755,71.1612032 24.2055755,70.1228866 L24.2055755,50.5253834 Z M40.918424,54.7816862 L38.4014461,54.7816862 L38.47086,62.0097726 L33.1592487,54.7816862 L30.8501511,54.7816862 L30.8501511,65.8665838 L33.3671289,65.8665838 L33.2984381,58.7075498 L38.5630504,65.8665838 L40.918424,65.8665838 L40.918424,54.7816862 L40.918424,54.7816862 Z" id="Fill-9"></path>
                <path d="M1.83657675,76.8589295 L1.83657675,75.5664567 L2.24980652,75.5664567 C2.77655698,75.5664567 2.95587629,75.721915 2.95587629,76.1886513 C2.95587629,76.6676797 2.75233442,76.8589295 2.24980652,76.8589295 L1.83657675,76.8589295 Z M1.28596526,75.1232199 L1.28596526,79.1152436 L1.83657675,79.1152436 L1.83657675,77.2960203 L2.16014687,77.2960203 C2.69232029,77.2960203 2.81198701,77.4037565 2.84814009,77.930507 C2.8716396,78.217924 2.89007767,78.4926875 2.91393871,78.768174 C2.9197232,78.8939867 2.94973026,79.0136534 2.99166784,79.1152436 L3.60229346,79.1152436 C3.51263381,78.8878407 3.48841124,78.762028 3.45840418,78.4091738 C3.3929671,77.2598673 3.35066798,77.1763536 2.82427906,77.0566869 C3.32680695,76.9247281 3.50648778,76.6915407 3.50648778,76.1528598 C3.50648778,75.7577065 3.40489761,75.4767971 3.20714023,75.3209773 C3.02782093,75.177088 2.80041802,75.1232199 2.35718119,75.1232199 L1.28596526,75.1232199 L1.28596526,75.1232199 Z" id="Fill-10"></path>
                <polyline id="Fill-11" points="10.9778845 75.1232199 10.9778845 79.1152436 12.8632679 79.1152436 12.8632679 78.6485073 11.5288575 78.6485073 11.5288575 77.3260274 12.7197401 77.3260274 12.7197401 76.8589295 11.5288575 76.8589295 11.5288575 75.5903178 12.7916848 75.5903178 12.7916848 75.1232199 10.9778845 75.1232199"></polyline>
                <path d="M22.3993673,76.2663805 L22.3993673,76.1586443 C22.3993673,75.7757831 22.3216382,75.5303036 22.1419574,75.3509843 C21.9507075,75.1651575 21.6632905,75.0635673 21.2981443,75.0635673 C20.5982206,75.0635673 20.2149979,75.4287135 20.2149979,76.0809151 C20.2149979,76.6253806 20.4243242,76.9008671 21.1604011,77.2898743 C21.7052281,77.5769298 21.8726169,77.7685412 21.8726169,78.1217568 C21.8726169,78.510764 21.6517215,78.7320209 21.2681373,78.7320209 C20.837554,78.7320209 20.6636577,78.5049795 20.6636577,77.9605141 L20.6636577,77.7927637 L20.1011157,77.7927637 C20.0953312,77.8824234 20.0953312,77.9724446 20.0953312,78.0140206 C20.0953312,78.798181 20.4781923,79.1752577 21.2742833,79.1752577 C22.0161446,79.1752577 22.4232284,78.7923966 22.4232284,78.0917498 C22.4232284,77.5592148 22.220048,77.2660133 21.6155684,76.9370202 C21.3223669,76.7812004 21.1546166,76.6796102 21.106533,76.6496032 C20.8614151,76.4760684 20.7656094,76.3025335 20.7656094,76.0570541 C20.7656094,75.7099845 20.9630052,75.5064426 21.2981443,75.5064426 C21.5139783,75.5064426 21.6571445,75.5783872 21.7590962,75.7399915 C21.8310408,75.8538737 21.8429713,75.9312414 21.8429713,76.1528598 L21.8487558,76.2663805 L22.3993673,76.2663805" id="Fill-12"></path>
                <polyline id="Fill-13" points="29.8038808 75.1232199 29.8038808 79.1152436 31.6889027 79.1152436 31.6889027 78.6485073 30.3544923 78.6485073 30.3544923 77.3260274 31.5453749 77.3260274 31.5453749 76.8589295 30.3544923 76.8589295 30.3544923 75.5903178 31.6169581 75.5903178 31.6169581 75.1232199 29.8038808 75.1232199"></polyline>
                <path d="M39.5912442,77.7627567 L40.1595707,75.5122271 L40.6921056,77.7627567 L39.5912442,77.7627567 Z M40.4947098,75.1232199 L39.8186471,75.1232199 L38.7174241,79.1152436 L39.243813,79.1152436 L39.477362,78.229493 L40.7940573,78.229493 L41.0272447,79.1152436 L41.5836407,79.1152436 L40.4947098,75.1232199 L40.4947098,75.1232199 Z" id="Fill-14"></path>
                <path d="M49.3247394,76.8589295 L49.3247394,75.5664567 L49.7376077,75.5664567 C50.2639966,75.5664567 50.4436774,75.721915 50.4436774,76.1886513 C50.4436774,76.6676797 50.2401356,76.8589295 49.7376077,76.8589295 L49.3247394,76.8589295 Z M48.7741279,75.1232199 L48.7741279,79.1152436 L49.3247394,79.1152436 L49.3247394,77.2960203 L49.647948,77.2960203 C50.180483,77.2960203 50.3001497,77.4037565 50.3359413,77.930507 C50.3601638,78.217924 50.3778788,78.4926875 50.4017399,78.768174 C50.4082474,78.8939867 50.437893,79.0136534 50.479469,79.1152436 L51.0900946,79.1152436 C51.000435,78.8878407 50.9765739,78.762028 50.9465669,78.4091738 C50.8804067,77.2598673 50.8388307,77.1763536 50.3120802,77.0566869 C50.8149696,76.9247281 50.9942889,76.6915407 50.9942889,76.1528598 C50.9942889,75.7577065 50.8926988,75.4767971 50.6953029,75.3209773 C50.5156221,75.177088 50.2882192,75.1232199 49.8453439,75.1232199 L48.7741279,75.1232199 L48.7741279,75.1232199 Z" id="Fill-15"></path>
                <path d="M59.9747154,77.8462703 C59.9624234,78.229493 59.9562774,78.3252987 59.9147013,78.4453269 C59.8546872,78.6246462 59.6872984,78.7320209 59.4598955,78.7320209 C59.3160062,78.7320209 59.178263,78.6904449 59.0882418,78.6123542 C58.9689366,78.51691 58.926999,78.3910973 58.9150685,78.1036803 L58.903138,76.840853 C58.903138,76.4160542 58.9150685,76.027047 58.933145,75.9193108 C58.9747211,75.6561164 59.1605479,75.5064426 59.4537495,75.5064426 C59.8008191,75.5064426 59.9747154,75.728061 59.9747154,76.1886513 L59.9747154,76.278311 L60.5188194,76.278311 C60.5249654,75.9135263 60.4891738,75.7161305 60.3933682,75.5422341 C60.2140489,75.2193871 59.9024093,75.0635673 59.447965,75.0635673 C58.9927976,75.0635673 58.6753735,75.2193871 58.5022003,75.5241576 C58.376749,75.7399915 58.3521649,75.985471 58.3521649,77.086694 C58.3521649,77.5592148 58.3648185,78.1698404 58.3702415,78.2652846 C58.4360401,78.8939867 58.7715407,79.1752577 59.447965,79.1752577 C60.2021183,79.1752577 60.5249654,78.8101116 60.5249654,77.954368 C60.5249654,77.9424375 60.5249654,77.8943539 60.5188194,77.8462703 L59.9747154,77.8462703" id="Fill-16"></path>
                <polyline id="Fill-17" points="70.0798644 75.1232199 69.5288914 75.1232199 69.5288914 76.8173535 68.3803079 76.8173535 68.3803079 75.1232199 67.8293348 75.1232199 67.8293348 79.1152436 68.3803079 79.1152436 68.3803079 77.2840898 69.5288914 77.2840898 69.5288914 79.1152436 70.0798644 79.1152436 70.0798644 75.1232199"></polyline>
            </g>
        </g>
    </g>
</svg>