<svg fill="none" height="32" viewBox="0 0 103 32" width="103" xmlns="http://www.w3.org/2000/svg"><g fill="#fff"><path d="m18.6668 2.66667c0 1.47276-1.1939 2.66666-2.6666 2.66666-1.4728 0-2.6667-1.1939-2.6667-2.66666s1.1939-2.66667 2.6667-2.66667c1.4727 0 2.6666 1.19391 2.6666 2.66667z"/><path d="m5.33333 16c0 1.4728-1.1939 2.6667-2.66666 2.6667s-2.66667-1.1939-2.66667-2.6667 1.19391-2.6667 2.66667-2.6667 2.66666 1.1939 2.66666 2.6667z"/><path d="m18.6668 16c0 1.4728-1.1939 2.6667-2.6666 2.6667-1.4728 0-2.6667-1.1939-2.6667-2.6667s1.1939-2.6667 2.6667-2.6667c1.4727 0 2.6666 1.1939 2.6666 2.6667z"/><path d="m25.3333 16c0 1.4728-1.1939 2.6667-2.6666 2.6667-1.4728 0-2.6667-1.1939-2.6667-2.6667s1.1939-2.6667 2.6667-2.6667c1.4727 0 2.6666 1.1939 2.6666 2.6667z"/><path d="m31.9998 16c0 1.4728-1.1939 2.6667-2.6666 2.6667-1.4728 0-2.6667-1.1939-2.6667-2.6667s1.1939-2.6667 2.6667-2.6667c1.4727 0 2.6666 1.1939 2.6666 2.6667z"/><path d="m18.6668 29.3333c0 1.4728-1.1939 2.6667-2.6666 2.6667-1.4728 0-2.6667-1.1939-2.6667-2.6667 0-1.4727 1.1939-2.6666 2.6667-2.6666 1.4727 0 2.6666 1.1939 2.6666 2.6666z"/><path d="m11.3335 2.66666c0 1.10457-.8954 2-2 2-1.10457 0-2-.89543-2-2s.89543-1.999996 2-1.999996c1.1046 0 2 .895426 2 1.999996z"/><path d="m24.6665 2.66666c0 1.10457-.8954 2-2 2s-2-.89543-2-2 .8954-1.999996 2-1.999996 2 .895426 2 1.999996z"/><path d="m4.6665 9.33334c0 1.10456-.89543 1.99996-2 1.99996s-1.999996-.8954-1.999996-1.99996c0-1.10457.895426-2 1.999996-2s2 .89543 2 2z"/><path d="m31.3335 9.33334c0 1.10456-.8954 1.99996-2 1.99996s-2-.8954-2-1.99996c0-1.10457.8954-2 2-2s2 .89543 2 2z"/><path d="m4.6665 22.6667c0 1.1045-.89543 2-2 2s-1.999996-.8955-1.999996-2c0-1.1046.895426-2 1.999996-2s2 .8954 2 2z"/><path d="m31.3335 22.6667c0 1.1045-.8954 2-2 2s-2-.8955-2-2c0-1.1046.8954-2 2-2s2 .8954 2 2z"/><path d="m11.3335 29.3333c0 1.1046-.8954 2-2 2-1.10457 0-2-.8954-2-2 0-1.1045.89543-2 2-2 1.1046 0 2 .8955 2 2z"/><path d="m24.6665 29.3333c0 1.1046-.8954 2-2 2s-2-.8954-2-2c0-1.1045.8954-2 2-2s2 .8955 2 2z"/><path d="m4.00016 2.66667c0 .73638-.59695 1.33333-1.33333 1.33333s-1.33333-.59695-1.33333-1.33333.59695-1.33333 1.33333-1.33333 1.33333.59695 1.33333 1.33333z"/><path d="m30.6667 2.66667c0 .73638-.597 1.33333-1.3334 1.33333-.7363 0-1.3333-.59695-1.3333-1.33333s.597-1.33333 1.3333-1.33333c.7364 0 1.3334.59695 1.3334 1.33333z"/><path d="m4.00016 29.3333c0 .7364-.59695 1.3334-1.33333 1.3334s-1.33333-.597-1.33333-1.3334c0-.7363.59695-1.3333 1.33333-1.3333s1.33333.597 1.33333 1.3333z"/><path d="m30.6667 29.3333c0 .7364-.597 1.3334-1.3334 1.3334-.7363 0-1.3333-.597-1.3333-1.3334 0-.7363.597-1.3333 1.3333-1.3333.7364 0 1.3334.597 1.3334 1.3333z"/><path d="m12.6664 10c-.4418 0-.8123.3109-1.0375.6909-.2288.386-.5521.7093-.9381.9381-.3801.2253-.69096.5958-.69096 1.0377 0 .4418.31096.8124.69106 1.0376.7836.4645 1.3089 1.3187 1.3089 2.2957s-.5253 1.8312-1.309 2.2957c-.38.2252-.69096.5958-.69096 1.0376 0 .4419.31086.8124.69096 1.0377.386.2288.7093.5521.9381.9381.2252.38.5957.6909 1.0375.6909s.8123-.3109 1.0376-.6909c.4644-.7837 1.3187-1.3091 2.2957-1.3091.9769 0 1.8311.5253 2.2955 1.3088.2254.3802.596.6912 1.038.6912.4419 0 .8125-.311 1.0379-.6912.4645-.7835 1.3187-1.3088 2.2956-1.3088 1.4727 0 2.6666 1.1939 2.6666 2.6667 0 1.4727-1.1939 2.6666-2.6666 2.6666-.9769 0-1.8311-.5253-2.2956-1.3088-.2254-.3802-.596-.6912-1.0379-.6912-.442 0-.8126.311-1.038.6912-.4644.7835-1.3186 1.3088-2.2955 1.3088-.977 0-1.8313-.5254-2.2957-1.309-.2253-.3801-.5958-.691-1.0376-.691s-.8123.3109-1.0375.691c-.4645.7836-1.3187 1.309-2.29573 1.309-1.47276 0-2.66667-1.1939-2.66667-2.6666 0-.977.52537-1.8312 1.30899-2.2957.3801-.2253.69101-.5958.69101-1.0377 0-.4418-.31091-.8124-.69101-1.0376-.78362-.4645-1.30899-1.3187-1.30899-2.2957s.52537-1.8312 1.30899-2.2957c.3801-.2252.69101-.5958.69101-1.0376 0-.4419-.31091-.8124-.69101-1.0377-.78362-.4645-1.30899-1.3187-1.30899-2.29567 0-1.47276 1.19391-2.66667 2.66667-2.66667.97703 0 1.83123.5254 2.29573 1.30906.2252.38007.5957.69094 1.0375.69094s.8123-.31087 1.0376-.69094c.4644-.78366 1.3187-1.30906 2.2957-1.30906.9769 0 1.8311.52531 2.2955 1.30885.2254.38017.596.69115 1.038.69115.4419 0 .8125-.31098 1.0379-.69115.4645-.78354 1.3187-1.30885 2.2956-1.30885 1.4727 0 2.6666 1.19391 2.6666 2.66667 0 1.47277-1.1939 2.66667-2.6666 2.66667-.9769 0-1.8311-.5253-2.2956-1.3088-.2254-.3802-.596-.6912-1.0379-.6912-.442 0-.8126.311-1.038.6911-.4644.7836-1.3186 1.3089-2.2955 1.3089-.977 0-1.8313-.5254-2.2957-1.3091-.2253-.38-.5958-.6909-1.0376-.6909z"/><path d="m48.4213 11.3067c-.448.608-1.0293 1.104-1.744 1.488-.7147.3733-1.5733.56-2.576.56-.864 0-1.664-.144-2.4-.432-.7253-.2987-1.3547-.7094-1.888-1.232-.5227-.5334-.9333-1.1627-1.232-1.88803-.2987-.736-.448-1.54133-.448-2.416 0-.88533.1493-1.69066.448-2.416.3093-.736.7307-1.36 1.264-1.872.544-.52266 1.184-.928 1.92-1.216s1.536-.432 2.4-.432c.384 0 .7733.03734 1.168.112.3947.07467.7733.18667 1.136.336.3627.14934.6933.336.992.56.2987.21334.5547.464.768.752l-1.248.96c-.2773-.384-.672-.69866-1.184-.944-.5013-.256-1.0453-.384-1.632-.384-.6613 0-1.2587.12267-1.792.368-.5227.23467-.9707.56-1.344.976s-.6613.90134-.864 1.456c-.2027.544-.304 1.12534-.304 1.744 0 .64.096 1.23734.288 1.792.2027.55467.4853 1.04003.848 1.45603.3733.4053.8213.7253 1.344.96.5333.2346 1.1253.352 1.776.352.64 0 1.2213-.128 1.744-.384s.9547-.6294 1.296-1.12z"/><path d="m57.4499 9.25867c0 .58667-.1066 1.12533-.32 1.61603-.2027.4906-.4906.9173-.864 1.28-.3626.352-.7946.6293-1.296.832-.5013.192-1.04.288-1.616.288s-1.1146-.096-1.616-.288c-.5013-.2027-.9333-.48-1.296-.832-.3626-.3627-.6506-.7894-.864-1.28-.2026-.4907-.304-1.02936-.304-1.61603 0-.58666.1014-1.12.304-1.6.2134-.49066.5014-.912.864-1.264.3627-.352.7947-.624 1.296-.816.5014-.20266 1.04-.304 1.616-.304s1.1147.10134 1.616.304c.5014.192.9334.464 1.296.816.3734.352.6613.77334.864 1.264.2134.48.32 1.01334.32 1.6zm-1.568 0c0-.36266-.0586-.70933-.176-1.04-.1066-.33066-.2666-.61866-.48-.864-.2133-.256-.48-.45866-.8-.608-.3093-.14933-.6666-.224-1.072-.224-.4053 0-.768.07467-1.088.224-.3093.14934-.5706.352-.784.608-.2133.24534-.3786.53334-.496.864-.1066.33067-.16.67734-.16 1.04 0 .36267.0534.70934.16 1.04003.1174.3306.2827.624.496.88.2134.256.4747.4586.784.608.32.1493.6827.224 1.088.224.4054 0 .7627-.0747 1.072-.224.32-.1494.5867-.352.8-.608.2134-.256.3734-.5494.48-.88.1174-.33069.176-.67736.176-1.04003z"/><path d="m59.5355 7.11467c0-.20266-.0053-.464-.016-.784-.0106-.32-.0266-.60266-.048-.848h1.424c.0214.192.0374.416.048.672.0107.24534.016.448.016.608h.048c.2134-.448.5227-.80533.928-1.072.416-.27733.88-.416 1.392-.416.2347 0 .432.02134.592.064l-.064 1.392c-.2133-.05333-.4426-.08-.688-.08-.3626 0-.6773.06934-.944.208-.2666.128-.4906.304-.672.528-.1706.224-.2986.48534-.384.784-.0853.288-.128.592-.128.912v3.98403h-1.504z"/><path d="m69.4284 7.40267c-.1706-.27733-.4106-.50133-.72-.672-.3093-.18133-.656-.272-1.04-.272-.1707 0-.3413.02134-.512.064-.1707.032-.3253.09067-.464.176-.128.07467-.2346.176-.32.304-.0746.11734-.112.26667-.112.448 0 .32.144.56.432.72.288.14934.72.288 1.296.416.3627.08534.6987.18667 1.008.304.3094.11734.576.26667.8.448.2347.17067.416.37867.544.624s.192.53333.192.86403c0 .448-.0853.8266-.256 1.136-.1706.3093-.4.5653-.688.768-.2773.192-.5973.3306-.96.416-.3626.0853-.736.128-1.12.128-.576 0-1.1413-.112-1.696-.336-.544-.224-.9973-.5654-1.36-1.024l1.072-.912c.2027.2986.48.5493.832.752.3627.2026.7574.304 1.184.304.192 0 .3733-.016.544-.048.1814-.0427.3414-.1067.48-.192.1494-.0854.2667-.1974.352-.336.0854-.1387.128-.3147.128-.528 0-.352-.1707-.6134-.512-.784-.3306-.1707-.8213-.33069-1.472-.48003-.256-.064-.5173-.13866-.784-.224-.256-.096-.4906-.224-.704-.384-.2133-.16-.3893-.35733-.528-.592-.128-.24533-.192-.544-.192-.896 0-.40533.08-.752.24-1.04.1707-.29866.3894-.53866.656-.72.2667-.192.5707-.33066.912-.416.3414-.096.6934-.144 1.056-.144.544 0 1.0667.10667 1.568.32.512.21334.9067.52267 1.184.928z"/><path d="m74.0098 6.63467c.1813-.37333.4907-.69333.928-.96.4373-.26666.928-.4 1.472-.4.4907 0 .912.08534 1.264.256.352.16.6453.37867.88.656.2347.27734.4053.60267.512.976.1173.37334.176.77334.176 1.2v4.70403h-1.504v-4.19203c0-.30933-.0267-.60266-.08-.88-.0427-.27733-.128-.52266-.256-.736-.128-.21333-.304-.384-.528-.512-.2133-.128-.496-.192-.848-.192-.5973 0-1.088.22934-1.472.688-.384.448-.576 1.05067-.576 1.808v4.01603h-1.504v-12.096027h1.504v5.663997z"/><path d="m86.5055 8.15467c0-.56533-.1706-.98133-.512-1.248-.3413-.27733-.7946-.416-1.36-.416-.4266 0-.832.08534-1.216.256-.3733.16-.688.368-.944.624l-.8-.96c.3734-.352.8267-.62933 1.36-.832.544-.20266 1.1254-.304 1.744-.304.544 0 1.0134.08 1.408.24.4054.14934.736.35734.992.624.256.26667.448.58134.576.944.128.36267.192.752.192 1.168v3.31203c0 .256.0054.528.016.816.0214.2773.0534.5066.096.688h-1.36c-.0853-.3627-.128-.7254-.128-1.088h-.048c-.2773.4053-.6293.72-1.056.944-.416.224-.912.336-1.488.336-.2986 0-.6133-.0427-.944-.128-.32-.0747-.6133-.2027-.88-.384-.2666-.1814-.4906-.4214-.672-.72-.1706-.2987-.256-.6667-.256-1.104 0-.576.1547-1.02936.464-1.36003.3094-.34133.7147-.59733 1.216-.768.5014-.18133 1.0667-.29866 1.696-.352.6294-.05333 1.264-.08 1.904-.08zm-.3679 1.296c-.3734 0-.7627.016-1.1681.048-.3946.032-.7573.096-1.088.192-.32.096-.5866.24-.8.43203-.2133.192-.32.448-.32.768 0 .224.0427.4106.128.56.096.1493.2187.272.368.368.1494.096.3147.1653.496.208.1814.032.368.048.56.048.704 0 1.2427-.208 1.616-.624.384-.4267.576-.96.576-1.60003v-.4z"/><path d="m91.9294 6.73067c.192-.40533.496-.74666.912-1.024.4267-.288.928-.432 1.504-.432.512 0 .9707.11734 1.376.352.416.23467.7414.624.976 1.168.256-.49066.6134-.864 1.072-1.12.4587-.26666.96-.4 1.504-.4.4907 0 .9116.08534 1.2636.256.352.16.646.37867.88.656.235.27734.406.60267.512.976.118.37334.176.77334.176 1.2v4.70403h-1.504v-4.20803c0-.30933-.026-.60266-.08-.88-.053-.27733-.144-.52266-.272-.736-.128-.21333-.2982-.384-.5116-.512-.2133-.128-.4853-.192-.816-.192-.3413 0-.6346.07467-.88.224-.2453.13867-.448.32534-.608.56-.1493.224-.2613.48-.336.768-.064.288-.096.58134-.096.88v4.09603h-1.504v-4.51203c0-.29866-.0266-.57066-.08-.816-.0533-.24533-.144-.45333-.272-.624-.128-.18133-.2933-.32-.496-.416-.2026-.10666-.4533-.16-.752-.16-.5546 0-1.0186.22934-1.392.688-.3626.448-.544 1.05067-.544 1.808v4.03203h-1.504v-5.95203c0-.20266-.0053-.464-.016-.784-.0106-.32-.0267-.60266-.048-.848h1.424c.0214.192.0374.41067.048.656.0107.23467.016.432.016.592z"/><path d="m44.3413 19.8347c-.224-.3094-.528-.56-.912-.752-.384-.2027-.816-.304-1.296-.304-.256 0-.5173.0373-.784.112-.256.064-.4907.176-.704.336-.2133.1493-.3893.3413-.528.576-.128.224-.192.496-.192.816 0 .3093.0587.5706.176.784.128.2026.2933.3786.496.528.2133.1386.4587.2613.736.368.288.096.592.1973.912.304.384.1173.7733.2506 1.168.4.3947.1493.752.3466 1.072.592.32.2453.5813.5546.784.928.2027.3626.304.8266.304 1.392 0 .5866-.112 1.0986-.336 1.536-.2133.4266-.5013.784-.864 1.072-.3627.2773-.784.4853-1.264.624-.4693.1386-.9547.208-1.456.208-.7147 0-1.408-.1387-2.08-.416-.6613-.2774-1.2107-.688-1.648-1.232l1.232-1.04c.2667.3946.624.7146 1.072.96.448.2453.9333.368 1.456.368.2667 0 .5333-.0374.8-.112.2667-.0747.5067-.192.72-.352.224-.16.4053-.3574.544-.592.1387-.2454.208-.5387.208-.88 0-.3414-.0747-.624-.224-.848-.1387-.2347-.3307-.432-.576-.592s-.5333-.2934-.864-.4c-.32-.1174-.6613-.2347-1.024-.352-.3627-.1067-.72-.2347-1.072-.384-.352-.16-.6667-.3574-.944-.592-.2773-.2454-.5013-.544-.672-.896s-.256-.7894-.256-1.312c0-.5654.112-1.0507.336-1.456.2347-.4054.5333-.7414.896-1.008.3733-.2667.7893-.4587 1.248-.576.4693-.128.9387-.192 1.408-.192.6613 0 1.28.1173 1.856.352.576.2346 1.04.5493 1.392.944z"/><path d="m53.0507 23.4027c-.16-.2454-.4-.448-.72-.608-.32-.1707-.6614-.256-1.024-.256-.3947 0-.7467.0746-1.056.224-.2987.1493-.5547.352-.768.608-.2134.2453-.3787.5333-.496.864-.1067.3306-.16.6773-.16 1.04 0 .3626.0533.7093.16 1.04.1173.3306.2826.624.496.88.2133.2453.4746.4426.784.592.3093.1493.6613.224 1.056.224.384 0 .7306-.0747 1.04-.224.32-.1494.5813-.352.784-.608l1.008.912c-.32.3733-.72.6666-1.2.88-.48.2026-1.024.304-1.632.304-.5867 0-1.1307-.096-1.632-.288-.4907-.192-.9174-.4587-1.28-.8-.3627-.352-.6507-.7734-.864-1.264-.2027-.4907-.304-1.04-.304-1.648 0-.5974.1013-1.1414.304-1.632.2026-.4907.4853-.912.848-1.264.3626-.352.7893-.624 1.28-.816.5013-.192 1.04-.288 1.616-.288.5333 0 1.0613.1066 1.584.32.5333.2133.9546.5226 1.264.928z"/><path d="m57.1649 29.0667h-1.504v-7.584h1.504zm.256-10.32c0 .2773-.1013.5066-.304.688-.192.1813-.4266.272-.704.272-.2773 0-.512-.0907-.704-.272-.192-.192-.288-.4214-.288-.688 0-.2774.096-.5067.288-.688.192-.192.4267-.288.704-.288.2774 0 .512.096.704.288.2027.1813.304.4106.304.688z"/><path d="m65.3375 24.6027c-.0106-.2987-.064-.576-.16-.832-.0853-.2667-.2186-.496-.4-.688-.1706-.192-.3893-.3414-.656-.448-.256-.1174-.56-.176-.912-.176-.32 0-.624.0586-.912.176-.2773.1066-.5226.256-.736.448-.2026.192-.3733.4213-.512.688-.128.256-.2026.5333-.224.832zm1.52.608v.256c0 .0853-.0053.1706-.016.256h-6.016c.0107.32.08.624.208.912.1387.2773.32.5226.544.736.224.2026.48.3626.768.48.2987.1173.6134.176.944.176.512 0 .9547-.112 1.328-.336.3734-.224.6667-.496.88-.816l1.056.848c-.4053.5333-.8853.928-1.44 1.184-.544.2453-1.152.368-1.824.368-.576 0-1.1093-.096-1.6-.288-.4906-.192-.912-.4587-1.264-.8-.352-.352-.6293-.7734-.832-1.264-.2026-.4907-.304-1.0347-.304-1.632 0-.5867.096-1.1254.288-1.616.2027-.5014.48-.928.832-1.28s.768-.624 1.248-.816c.48-.2027.9974-.304 1.552-.304.5547 0 1.056.0906 1.504.272.4587.1813.8427.4426 1.152.784.32.3413.5654.7573.736 1.248.1707.48.256 1.024.256 1.632z"/><path d="m70.3174 21.4827c.0214.192.0374.4106.048.656.0107.2346.016.432.016.592h.048c.096-.2027.224-.3894.384-.56.1707-.1814.3627-.336.576-.464.2134-.1387.448-.2454.704-.32.256-.0747.5227-.112.8-.112.4907 0 .912.0853 1.264.256.352.16.6454.3786.88.656.2347.2773.4054.6026.512.976.1174.3733.176.7733.176 1.2v4.704h-1.504v-4.208c0-.3094-.0266-.6027-.08-.88-.0426-.2774-.128-.5227-.256-.736-.128-.2134-.304-.384-.528-.512s-.512-.192-.864-.192c-.5973 0-1.088.2293-1.472.688-.3733.448-.56 1.0506-.56 1.808v4.032h-1.504v-5.952c0-.2027-.0053-.464-.016-.784-.0106-.32-.0267-.6027-.048-.848z"/><path d="m83.5819 23.4027c-.16-.2454-.4-.448-.72-.608-.32-.1707-.6613-.256-1.024-.256-.3946 0-.7466.0746-1.056.224-.2986.1493-.5547.352-.768.608-.2133.2453-.3786.5333-.496.864-.1066.3306-.16.6773-.16 1.04 0 .3626.0534.7093.16 1.04.1174.3306.2827.624.496.88.2133.2453.4747.4426.784.592.3094.1493.6614.224 1.056.224.384 0 .7307-.0747 1.04-.224.32-.1494.5814-.352.784-.608l1.008.912c-.32.3733-.72.6666-1.2.88-.48.2026-1.024.304-1.632.304-.5866 0-1.1306-.096-1.632-.288-.4906-.192-.9173-.4587-1.28-.8-.3626-.352-.6506-.7734-.864-1.264-.2026-.4907-.304-1.04-.304-1.648 0-.5974.1014-1.1414.304-1.632.2027-.4907.4854-.912.848-1.264.3627-.352.7893-.624 1.28-.816.5014-.192 1.04-.288 1.616-.288.5333 0 1.0614.1066 1.584.32.5334.2133.9547.5226 1.264.928z"/><path d="m91.7282 24.6027c-.0107-.2987-.064-.576-.16-.832-.0854-.2667-.2187-.496-.4-.688-.1707-.192-.3894-.3414-.656-.448-.256-.1174-.56-.176-.912-.176-.32 0-.624.0586-.912.176-.2774.1066-.5227.256-.736.448-.2027.192-.3734.4213-.512.688-.128.256-.2027.5333-.224.832zm1.52.608v.256c0 .0853-.0054.1706-.016.256h-6.016c.0106.32.08.624.208.912.1386.2773.32.5226.544.736.224.2026.48.3626.768.48.2986.1173.6133.176.944.176.512 0 .9546-.112 1.328-.336.3733-.224.6666-.496.88-.816l1.056.848c-.4054.5333-.8854.928-1.44 1.184-.544.2453-1.152.368-1.824.368-.576 0-1.1094-.096-1.6-.288-.4907-.192-.912-.4587-1.264-.8-.352-.352-.6294-.7734-.832-1.264-.2027-.4907-.304-1.0347-.304-1.632 0-.5867.096-1.1254.288-1.616.2026-.5014.48-.928.832-1.28s.768-.624 1.248-.816c.48-.2027.9973-.304 1.552-.304.5546 0 1.056.0906 1.504.272.4586.1813.8426.4426 1.152.784.32.3413.5653.7573.736 1.248.1706.48.256 1.024.256 1.632z"/></g></svg>