<svg fill="none" height="80" viewBox="0 0 80 80" width="80" xmlns="http://www.w3.org/2000/svg"><path d="m0 0h80v80h-80z" fill="#fff"/><path d="m43.3333 23.3333c0 1.841-1.4923 3.3334-3.3333 3.3334-1.8409 0-3.3333-1.4924-3.3333-3.3334 0-1.8409 1.4924-3.3333 3.3333-3.3333 1.841 0 3.3333 1.4924 3.3333 3.3333z" fill="#ff9100"/><path d="m26.6667 40c0 1.841-1.4924 3.3333-3.3334 3.3333-1.8409 0-3.3333-1.4923-3.3333-3.3333 0-1.8409 1.4924-3.3333 3.3333-3.3333 1.841 0 3.3334 1.4924 3.3334 3.3333z" fill="#ff9100"/><path d="m43.3333 40c0 1.841-1.4923 3.3333-3.3333 3.3333-1.8409 0-3.3333-1.4923-3.3333-3.3333 0-1.8409 1.4924-3.3333 3.3333-3.3333 1.841 0 3.3333 1.4924 3.3333 3.3333z" fill="#ff9100"/><path d="m51.6667 40c0 1.841-1.4924 3.3333-3.3334 3.3333-1.8409 0-3.3333-1.4923-3.3333-3.3333 0-1.8409 1.4924-3.3333 3.3333-3.3333 1.841 0 3.3334 1.4924 3.3334 3.3333z" fill="#ff9100"/><path d="m60 40c0 1.841-1.4924 3.3333-3.3333 3.3333-1.841 0-3.3334-1.4923-3.3334-3.3333 0-1.8409 1.4924-3.3333 3.3334-3.3333 1.8409 0 3.3333 1.4924 3.3333 3.3333z" fill="#ff9100"/><path d="m43.3333 56.6667c0 1.8409-1.4923 3.3333-3.3333 3.3333-1.8409 0-3.3333-1.4924-3.3333-3.3333 0-1.841 1.4924-3.3334 3.3333-3.3334 1.841 0 3.3333 1.4924 3.3333 3.3334z" fill="#ff9100"/><g fill="#ffab40"><path d="m34.1666 23.3333c0 1.3808-1.1193 2.5-2.5 2.5s-2.5-1.1192-2.5-2.5c0-1.3807 1.1193-2.5 2.5-2.5s2.5 1.1193 2.5 2.5z"/><path d="m50.8333 23.3333c0 1.3808-1.1193 2.5-2.5 2.5-1.3808 0-2.5-1.1192-2.5-2.5 0-1.3807 1.1192-2.5 2.5-2.5 1.3807 0 2.5 1.1193 2.5 2.5z"/><path d="m25.8333 31.6667c0 1.3807-1.1193 2.5-2.5 2.5-1.3808 0-2.5-1.1193-2.5-2.5s1.1192-2.5 2.5-2.5c1.3807 0 2.5 1.1193 2.5 2.5z"/><path d="m59.1666 31.6667c0 1.3807-1.1193 2.5-2.5 2.5s-2.5-1.1193-2.5-2.5 1.1193-2.5 2.5-2.5 2.5 1.1193 2.5 2.5z"/><path d="m25.8333 48.3333c0 1.3808-1.1193 2.5-2.5 2.5-1.3808 0-2.5-1.1192-2.5-2.5 0-1.3807 1.1192-2.5 2.5-2.5 1.3807 0 2.5 1.1193 2.5 2.5z"/><path d="m59.1666 48.3333c0 1.3808-1.1193 2.5-2.5 2.5s-2.5-1.1192-2.5-2.5c0-1.3807 1.1193-2.5 2.5-2.5s2.5 1.1193 2.5 2.5z"/><path d="m34.1666 56.6667c0 1.3807-1.1193 2.5-2.5 2.5s-2.5-1.1193-2.5-2.5 1.1193-2.5 2.5-2.5 2.5 1.1193 2.5 2.5z"/><path d="m50.8333 56.6667c0 1.3807-1.1193 2.5-2.5 2.5-1.3808 0-2.5-1.1193-2.5-2.5s1.1192-2.5 2.5-2.5c1.3807 0 2.5 1.1193 2.5 2.5z"/></g><path d="m25.0001 23.3333c0 .9205-.7462 1.6667-1.6667 1.6667s-1.6667-.7462-1.6667-1.6667.7462-1.6666 1.6667-1.6666 1.6667.7461 1.6667 1.6666z" fill="#ffd180"/><path d="m58.3334 23.3333c0 .9205-.7462 1.6667-1.6667 1.6667-.9204 0-1.6666-.7462-1.6666-1.6667s.7462-1.6666 1.6666-1.6666c.9205 0 1.6667.7461 1.6667 1.6666z" fill="#ffd180"/><path d="m25.0001 56.6667c0 .9204-.7462 1.6666-1.6667 1.6666s-1.6667-.7462-1.6667-1.6666c0-.9205.7462-1.6667 1.6667-1.6667s1.6667.7462 1.6667 1.6667z" fill="#ffd180"/><path d="m58.3334 56.6667c0 .9204-.7462 1.6666-1.6667 1.6666-.9204 0-1.6666-.7462-1.6666-1.6666 0-.9205.7462-1.6667 1.6666-1.6667.9205 0 1.6667.7462 1.6667 1.6667z" fill="#ffd180"/><path d="m35.6701 32.5c-.4563 0-.8411.318-1.0542.7214-.3136.5936-.801 1.081-1.3946 1.3946-.4034.2131-.7214.5979-.7214 1.0542v.3263c0 .4563.318.8411.7215 1.0542 1.0577.5588 1.7785 1.6699 1.7785 2.9493 0 1.2795-.7208 2.3905-1.7785 2.9493-.4035.2131-.7215.598-.7215 1.0542v.3263c0 .4563.318.8411.7214 1.0542.5936.3136 1.081.8011 1.3946 1.3946.2131.4035.5979.7214 1.0542.7214h.3263c.4563 0 .8411-.318 1.0542-.7214.5588-1.0578 1.6699-1.7786 2.9493-1.7786 1.2795 0 2.3905.7208 2.9493 1.7786.2131.4034.598.7214 1.0542.7214h.3263c.4563 0 .8411-.318 1.0543-.7214.5587-1.0578 1.6698-1.7786 2.9493-1.7786 1.8409 0 3.3333 1.4924 3.3333 3.3333 0 1.841-1.4924 3.3334-3.3333 3.3334-1.2795 0-2.3906-.7209-2.9493-1.7786-.2132-.4034-.598-.7214-1.0543-.7214h-.3263c-.4562 0-.8411.318-1.0542.7214-.5588 1.0577-1.6698 1.7786-2.9493 1.7786-1.2794 0-2.3905-.7209-2.9493-1.7786-.2131-.4034-.5979-.7214-1.0542-.7214h-.3263c-.4563 0-.8411.318-1.0542.7214-.5588 1.0577-1.6699 1.7786-2.9493 1.7786-1.841 0-3.3333-1.4924-3.3333-3.3334 0-1.2794.7208-2.3905 1.7785-2.9492.4034-.2132.7215-.598.7215-1.0543v-.3263c0-.4562-.3181-.8411-.7215-1.0542-1.0577-.5588-1.7785-1.6698-1.7785-2.9493 0-1.2794.7208-2.3905 1.7785-2.9493.4034-.2131.7215-.5979.7215-1.0542v-.3263c0-.4563-.3181-.8411-.7215-1.0542-1.0577-.5588-1.7785-1.6699-1.7785-2.9493 0-1.841 1.4923-3.3334 3.3333-3.3334 1.2794 0 2.3905.7209 2.9493 1.7786.2131.4034.5979.7214 1.0542.7214h.3263c.4563 0 .8411-.318 1.0542-.7214.5588-1.0577 1.6699-1.7786 2.9493-1.7786 1.2795 0 2.3905.7209 2.9493 1.7786.2131.4034.598.7214 1.0542.7214h.3263c.4563 0 .8411-.318 1.0543-.7214.5587-1.0577 1.6698-1.7786 2.9493-1.7786 1.8409 0 3.3333 1.4924 3.3333 3.3334 0 1.8409-1.4924 3.3333-3.3333 3.3333-1.2795 0-2.3906-.7208-2.9493-1.7785-.2132-.4035-.598-.7215-1.0543-.7215h-.3263c-.4562 0-.8411.318-1.0542.7215-.5588 1.0577-1.6698 1.7785-2.9493 1.7785-1.2794 0-2.3905-.7208-2.9493-1.7785-.2131-.4035-.5979-.7215-1.0542-.7215z" fill="#ff6d00"/></svg>