<svg fill="none" height="80" viewBox="0 0 80 80" width="80" xmlns="http://www.w3.org/2000/svg"><path d="m25 20h30v10h-30z" fill="#ffe0b2"/><path d="m20 25h10v30h-10z" fill="#ffe0b2"/><path d="m25 50h30v10h-30z" fill="#ffe0b2"/><path d="m15 10c0 2.7614-2.2386 5-5 5-2.76142 0-5-2.2386-5-5 0-2.76142 2.23858-5 5-5 2.7614 0 5 2.23858 5 5z" fill="#ffe0b2"/><path d="m15 70c0 2.7614-2.2386 5-5 5-2.76142 0-5-2.2386-5-5s2.23858-5 5-5c2.7614 0 5 2.2386 5 5z" fill="#ffe0b2"/><path d="m75 10c0 2.7614-2.2386 5-5 5s-5-2.2386-5-5c0-2.76142 2.2386-5 5-5s5 2.23858 5 5z" fill="#ffe0b2"/><path d="m75 70c0 2.7614-2.2386 5-5 5s-5-2.2386-5-5 2.2386-5 5-5 5 2.2386 5 5z" fill="#ffe0b2"/><path d="m30 25c0 2.7614-2.2386 5-5 5s-5-2.2386-5-5 2.2386-5 5-5 5 2.2386 5 5z" fill="#ff6d00"/><path d="m30 40c0 2.7614-2.2386 5-5 5s-5-2.2386-5-5 2.2386-5 5-5 5 2.2386 5 5z" fill="#ff6d00"/><path d="m30 55c0 2.7614-2.2386 5-5 5s-5-2.2386-5-5 2.2386-5 5-5 5 2.2386 5 5z" fill="#ff6d00"/><path d="m45 25c0 2.7614-2.2386 5-5 5s-5-2.2386-5-5 2.2386-5 5-5 5 2.2386 5 5z" fill="#ff6d00"/><path d="m45 55c0 2.7614-2.2386 5-5 5s-5-2.2386-5-5 2.2386-5 5-5 5 2.2386 5 5z" fill="#ff6d00"/><path d="m60 25c0 2.7614-2.2386 5-5 5s-5-2.2386-5-5 2.2386-5 5-5 5 2.2386 5 5z" fill="#ff6d00"/><path d="m60 55c0 2.7614-2.2386 5-5 5s-5-2.2386-5-5 2.2386-5 5-5 5 2.2386 5 5z" fill="#ff6d00"/><path d="m15 40c0 2.7614-2.2386 5-5 5-2.76142 0-5-2.2386-5-5s2.23858-5 5-5c2.7614 0 5 2.2386 5 5z" fill="#ffab40"/><path d="m45 10c0 2.7614-2.2386 5-5 5s-5-2.2386-5-5c0-2.76142 2.2386-5 5-5s5 2.23858 5 5z" fill="#ffab40"/><path d="m45 40c0 2.7614-2.2386 5-5 5s-5-2.2386-5-5 2.2386-5 5-5 5 2.2386 5 5z" fill="#ffab40"/><path d="m45 70c0 2.7614-2.2386 5-5 5s-5-2.2386-5-5 2.2386-5 5-5 5 2.2386 5 5z" fill="#ffab40"/><path d="m60 40c0 2.7614-2.2386 5-5 5s-5-2.2386-5-5 2.2386-5 5-5 5 2.2386 5 5z" fill="#ffab40"/><path d="m75 40c0 2.7614-2.2386 5-5 5s-5-2.2386-5-5 2.2386-5 5-5 5 2.2386 5 5z" fill="#ffab40"/><g fill="#ffd180"><path d="m15 25c0 2.7614-2.2386 5-5 5-2.76142 0-5-2.2386-5-5s2.23858-5 5-5c2.7614 0 5 2.2386 5 5z"/><path d="m15 55c0 2.7614-2.2386 5-5 5-2.76142 0-5-2.2386-5-5s2.23858-5 5-5c2.7614 0 5 2.2386 5 5z"/><path d="m30 10c0 2.7614-2.2386 5-5 5s-5-2.2386-5-5c0-2.76142 2.2386-5 5-5s5 2.23858 5 5z"/><path d="m30 70c0 2.7614-2.2386 5-5 5s-5-2.2386-5-5 2.2386-5 5-5 5 2.2386 5 5z"/><path d="m60 10c0 2.7614-2.2386 5-5 5s-5-2.2386-5-5c0-2.76142 2.2386-5 5-5s5 2.23858 5 5z"/><path d="m60 70c0 2.7614-2.2386 5-5 5s-5-2.2386-5-5 2.2386-5 5-5 5 2.2386 5 5z"/><path d="m75 25c0 2.7614-2.2386 5-5 5s-5-2.2386-5-5 2.2386-5 5-5 5 2.2386 5 5z"/><path d="m75 55c0 2.7614-2.2386 5-5 5s-5-2.2386-5-5 2.2386-5 5-5 5 2.2386 5 5z"/></g></svg>