<svg fill="none" height="80" viewBox="0 0 80 80" width="80" xmlns="http://www.w3.org/2000/svg"><path d="m0 0h80v80h-80z" fill="#fff"/><path d="m42.9999 25c0 1.6569-1.3432 3-3 3-1.6569 0-3-1.3431-3-3s1.3431-3 3-3c1.6568 0 3 1.3431 3 3z" fill="#ffab40"/><path d="m28 40c0 1.6569-1.3432 3-3 3-1.6569 0-3-1.3431-3-3s1.3431-3 3-3c1.6568 0 3 1.3431 3 3z" fill="#ffab40"/><path d="m42.9999 40c0 1.6569-1.3432 3-3 3-1.6569 0-3-1.3431-3-3s1.3431-3 3-3c1.6568 0 3 1.3431 3 3z" fill="#ffab40"/><path d="m50.4999 40c0 1.6569-1.3431 3-3 3-1.6568 0-3-1.3431-3-3s1.3432-3 3-3c1.6569 0 3 1.3431 3 3z" fill="#ffab40"/><path d="m58 40c0 1.6569-1.3431 3-3 3-1.6568 0-3-1.3431-3-3s1.3432-3 3-3c1.6569 0 3 1.3431 3 3z" fill="#ffab40"/><path d="m42.9999 55c0 1.6569-1.3432 3-3 3-1.6569 0-3-1.3431-3-3s1.3431-3 3-3c1.6568 0 3 1.3431 3 3z" fill="#ffab40"/><g fill="#ffd180"><path d="m34.826 25.2174c0 1.2246-.9928 2.2174-2.2174 2.2174-1.2247 0-2.2174-.9928-2.2174-2.2174s.9927-2.2174 2.2174-2.2174c1.2246 0 2.2174.9928 2.2174 2.2174z"/><path d="m49.6088 25.2174c0 1.2246-.9927 2.2174-2.2174 2.2174-1.2246 0-2.2174-.9928-2.2174-2.2174s.9928-2.2174 2.2174-2.2174c1.2247 0 2.2174.9928 2.2174 2.2174z"/><path d="m27.4348 32.6087c0 1.2246-.9928 2.2174-2.2174 2.2174s-2.2174-.9928-2.2174-2.2174.9928-2.2174 2.2174-2.2174 2.2174.9928 2.2174 2.2174z"/><path d="m57 32.6087c0 1.2246-.9928 2.2174-2.2174 2.2174s-2.2174-.9928-2.2174-2.2174.9928-2.2174 2.2174-2.2174 2.2174.9928 2.2174 2.2174z"/><path d="m27.4348 47.3913c0 1.2246-.9928 2.2174-2.2174 2.2174s-2.2174-.9928-2.2174-2.2174.9928-2.2174 2.2174-2.2174 2.2174.9928 2.2174 2.2174z"/><path d="m57 47.3913c0 1.2246-.9928 2.2174-2.2174 2.2174s-2.2174-.9928-2.2174-2.2174.9928-2.2174 2.2174-2.2174 2.2174.9928 2.2174 2.2174z"/><path d="m34.826 54.7826c0 1.2246-.9928 2.2174-2.2174 2.2174-1.2247 0-2.2174-.9928-2.2174-2.2174s.9927-2.2174 2.2174-2.2174c1.2246 0 2.2174.9928 2.2174 2.2174z"/><path d="m49.6088 54.7826c0 1.2246-.9927 2.2174-2.2174 2.2174-1.2246 0-2.2174-.9928-2.2174-2.2174s.9928-2.2174 2.2174-2.2174c1.2247 0 2.2174.9928 2.2174 2.2174z"/></g><path d="m27 25.5c0 .8284-.6716 1.5-1.5 1.5s-1.5-.6716-1.5-1.5.6716-1.5 1.5-1.5 1.5.6716 1.5 1.5z" fill="#ffe0b2"/><path d="m57 25.5c0 .8284-.6716 1.5-1.5 1.5s-1.5-.6716-1.5-1.5.6716-1.5 1.5-1.5 1.5.6716 1.5 1.5z" fill="#ffe0b2"/><path d="m27 55.5c0 .8284-.6716 1.5-1.5 1.5s-1.5-.6716-1.5-1.5.6716-1.5 1.5-1.5 1.5.6716 1.5 1.5z" fill="#ffe0b2"/><path d="m57 55.5c0 .8284-.6716 1.5-1.5 1.5s-1.5-.6716-1.5-1.5.6716-1.5 1.5-1.5 1.5.6716 1.5 1.5z" fill="#ffe0b2"/><path d="m36.75 33.75c-.497 0-.9138.3497-1.1673.7773-.2573.4343-.6211.798-1.0553 1.0554-.4276.2534-.7774.6703-.7774 1.1673 0 .4971.3498.9139.7774 1.1674.8816.5225 1.4726 1.4835 1.4726 2.5826s-.591 2.0601-1.4726 2.5826c-.4276.2535-.7774.6703-.7774 1.1674s.3498.9139.7774 1.1674c.4342.2573.7979.621 1.0552 1.0552.2535.4276.6703.7774 1.1674.7774s.9139-.3498 1.1674-.7774c.5225-.8816 1.4835-1.4726 2.5826-1.4726s2.0601.591 2.5826 1.4726c.2535.4276.6703.7774 1.1674.7774s.9139-.3498 1.1674-.7774c.5225-.8816 1.4835-1.4726 2.5826-1.4726 1.6569 0 3 1.3431 3 3s-1.3431 3-3 3c-1.0991 0-2.0601-.591-2.5826-1.4726-.2535-.4276-.6703-.7774-1.1674-.7774s-.9139.3498-1.1674.7774c-.5225.8816-1.4835 1.4726-2.5826 1.4726s-2.0601-.591-2.5826-1.4726c-.2535-.4276-.6703-.7774-1.1674-.7774s-.9139.3498-1.1674.7774c-.5225.8816-1.4835 1.4726-2.5826 1.4726-1.6569 0-3-1.3431-3-3 0-1.0991.591-2.0601 1.4726-2.5826.4276-.2535.7774-.6703.7774-1.1674s-.3498-.9139-.7774-1.1674c-.8816-.5225-1.4726-1.4835-1.4726-2.5826s.591-2.0601 1.4726-2.5826c.4276-.2535.7774-.6703.7774-1.1674s-.3498-.914-.7774-1.1674c-.8815-.5225-1.4725-1.4836-1.4725-2.5826 0-1.6569 1.3431-3 3-3 1.0991 0 2.0601.5911 2.5826 1.4726.2534.4276.6703.7774 1.1673.7774.4971 0 .9139-.3498 1.1674-.7774.5225-.8815 1.4835-1.4726 2.5826-1.4726s2.0601.591 2.5826 1.4726c.2535.4276.6703.7774 1.1674.7774s.9139-.3498 1.1674-.7774c.5225-.8816 1.4835-1.4726 2.5826-1.4726 1.6569 0 3 1.3431 3 3s-1.3431 3-3 3c-1.0991 0-2.0601-.591-2.5826-1.4726-.2535-.4276-.6703-.7774-1.1674-.7774s-.9139.3498-1.1674.7774c-.5225.8816-1.4835 1.4726-2.5826 1.4726s-2.0601-.5911-2.5826-1.4727c-.2535-.4275-.6703-.7773-1.1674-.7773z" fill="#ff6d00"/></svg>