<?xml version="1.0" encoding="UTF-8"?>
<svg width="96px" height="89px" viewBox="0 0 96 89" version="1.1" xmlns="http://www.w3.org/2000/svg" xmlns:xlink="http://www.w3.org/1999/xlink">
    <!-- Generator: Sketch 42 (36781) - http://www.bohemiancoding.com/sketch -->
    <title>eventstore-mascot</title>
    <desc>Created with Sketch.</desc>
    <defs>
        <linearGradient x1="74.6183055%" y1="88.0363385%" x2="25.4753886%" y2="12.0599224%" id="linearGradient-1">
            <stop stop-color="#4D9B46" offset="0%"></stop>
            <stop stop-color="#5AB552" offset="100%"></stop>
        </linearGradient>
        <linearGradient x1="60.6329727%" y1="77.7121081%" x2="19.9507554%" y2="4.77643867%" id="linearGradient-2">
            <stop stop-color="#4D9B46" stop-opacity="0" offset="0%"></stop>
            <stop stop-color="#4D9B46" offset="100%"></stop>
        </linearGradient>
        <linearGradient x1="24.6100204%" y1="63.7587322%" x2="74.540517%" y2="26.2507565%" id="linearGradient-3">
            <stop stop-color="#222222" stop-opacity="0" offset="0%"></stop>
            <stop stop-color="#222222" offset="100%"></stop>
        </linearGradient>
        <linearGradient x1="23.8659865%" y1="62.5621594%" x2="74.6557162%" y2="25.4600163%" id="linearGradient-4">
            <stop stop-color="#222222" stop-opacity="0" offset="0%"></stop>
            <stop stop-color="#222222" offset="100%"></stop>
        </linearGradient>
        <linearGradient x1="24.127027%" y1="62.5590306%" x2="74.9167568%" y2="25.4568875%" id="linearGradient-5">
            <stop stop-color="#222222" stop-opacity="0" offset="0%"></stop>
            <stop stop-color="#222222" offset="100%"></stop>
        </linearGradient>
        <linearGradient x1="79.6343366%" y1="87.2555122%" x2="11.0679937%" y2="17.9169833%" id="linearGradient-6">
            <stop stop-color="#222222" offset="0%"></stop>
            <stop stop-color="#222222" stop-opacity="0" offset="100%"></stop>
        </linearGradient>
        <linearGradient x1="74.9143701%" y1="128.467035%" x2="31.9265262%" y2="-45.0557402%" id="linearGradient-7">
            <stop stop-color="#222222" offset="0%"></stop>
            <stop stop-color="#222222" stop-opacity="0" offset="100%"></stop>
        </linearGradient>
        <linearGradient x1="82.6055955%" y1="78.1102063%" x2="27.8470074%" y2="20.6171681%" id="linearGradient-8">
            <stop stop-color="#222222" offset="0%"></stop>
            <stop stop-color="#222222" stop-opacity="0" offset="100%"></stop>
        </linearGradient>
    </defs>
    <g id="Brands" stroke="none" stroke-width="1" fill="none" fill-rule="evenodd">
        <g id="Event-Store-mascot" transform="translate(-16.000000, -20.000000)">
            <g id="eventstore-mascot" transform="translate(16.000000, 20.000000)">
                <g id="Group">
                    <path d="M19.4594756,26.9921758 C16.8008755,28.5061009 15.9146755,31.903201 17.4286005,34.5618011 L45.1223514,82.5273776 C46.6362764,85.1859776 50.0333766,86.0721777 52.6919766,84.5582526 L81.4565525,67.9420021 C84.1151526,66.4280771 85.0013526,63.030977 83.4874276,60.3723769 L55.7936767,12.4068004 C54.2797517,9.7482003 50.8826516,8.86200027 48.2240515,10.3759253 L19.4594756,26.9921758 L19.4594756,26.9921758 Z" id="Shape" fill="url(#linearGradient-1)"></path>
                    <path d="M54.0951267,86.9583777 C54.0951267,86.9953027 54.1320517,87.0322277 54.1320517,87.0691527 C54.9074767,88.3246027 56.5691018,88.7307778 57.8614768,87.9922777 C57.8984018,87.9922777 57.9353268,87.9553527 57.9722518,87.9553527 L62.6617269,85.2229026 C62.6986519,85.2229026 62.7355769,85.1859776 62.7725019,85.1859776 C63.991027,84.4105526 64.434127,82.8227776 63.732552,81.5673275 L63.658702,81.4565525 L62.2555519,79.0564275 L59.8554269,80.4595775 L55.0551767,83.2289526 L52.6550516,84.6321026 L54.0951267,86.9583777 L54.0951267,86.9583777 Z M73.2592023,75.8808774 C73.2961273,75.9178024 73.2961273,75.9547274 73.3330523,75.9916524 C74.1084773,77.2471024 75.7701023,77.6532774 77.0624774,76.9147774 C77.0994024,76.9147774 77.1363274,76.8778524 77.1732524,76.8778524 L81.8627275,74.1454023 C81.8996525,74.1454023 81.9365775,74.1084773 81.9735025,74.1084773 C83.1920276,73.3330523 83.6351276,71.7452772 82.9335526,70.4898272 L82.8597026,70.3790522 L81.4565525,67.9789271 L79.0564275,69.3820772 L74.2561773,72.1514522 L71.8560522,73.5546023 L73.2592023,75.8808774 L73.2592023,75.8808774 Z" id="Shape" fill="#4D9B46"></path>
                    <path d="M28.5430259,8.93585028 C30.869301,7.60655024 38.8820262,15.7669755 38.8820262,15.7669755 L29.2815259,21.3057257 C29.2815259,21.3057257 26.1059758,10.3759253 28.5430259,8.93585028 L28.5430259,8.93585028 Z M21.7119007,19.2748506 C22.8565757,18.6102006 26.8814008,22.6719507 26.8814008,22.6719507 L22.0811507,25.4413258 C22.0811507,25.4782508 20.4933756,19.9764256 21.7119007,19.2748506 Z M40.9129013,8.19735025 C42.0575763,7.53270023 46.0824014,11.5944504 46.0824014,11.5944504 L41.2821513,14.3638254 C41.2821513,14.4007504 39.6943762,8.89892528 40.9129013,8.19735025 Z" id="Shape" fill="#CED900"></path>
                    <path d="M66.7973271,31.423176 L58.5261268,17.1332005 C58.4892018,9.6374253 60.3354519,3.3232501 64.397202,1.03390003 C71.7822022,-3.1386251 83.7459026,13.3668504 82.4535276,16.4316255 C81.6042525,18.4625006 76.1762774,12.8129754 75.1423773,14.5115254 C73.8869273,16.6162505 79.8687775,22.2288507 78.7610274,24.4812758 C77.6902024,26.6967758 71.7822022,21.1211007 70.7483022,23.0781257 C69.8621022,24.7766758 75.0685273,31.460101 73.7761523,33.823301 C72.7422523,35.7434011 66.7973271,31.423176 66.7973271,31.423176 Z M28.4322509,53.5781767 C28.4322509,53.5781767 20.1979756,39.2882012 20.1610506,39.2882012 C13.6622504,35.5218511 7.31115023,33.9710011 3.2863251,36.3342011 C-4.02482512,40.6544263 4.28330013,59.2646268 7.60655024,59.6708018 C9.7851253,59.9292769 7.60655024,52.4335016 9.6005003,52.3596516 C12.0375504,52.3227266 13.9207254,60.2985269 16.4316255,60.4831519 C18.8686756,60.6308519 17.0224255,52.7658266 19.2379256,52.8396766 C21.1580257,52.9135266 24.3335758,60.7785519 27.0291008,60.8524019 C29.1707509,60.9262519 28.4322509,53.5781767 28.4322509,53.5781767 L28.4322509,53.5781767 Z M75.0685273,45.7500764 C88.6938527,49.4056515 89.2846528,36.7403761 93.5310279,35.2264511 C97.777403,33.712526 96.448103,52.5812016 83.3766526,60.1139019 C83.3766526,60.1508269 75.0685273,45.7500764 75.0685273,45.7500764 Z" id="Shape" fill="#4D9B46"></path>
                    <path d="M49.8118265,79.5733775 L51.3257516,82.1950525 C52.1011766,83.5243526 53.7628017,83.9674526 55.0921017,83.1920276 L79.0933525,69.3451521 C80.4226525,68.5697271 80.8657525,66.9081021 80.1272525,65.578802 L78.6133274,62.957127 C73.2961273,53.7628017 61.1847269,47.6701765 53.2458517,52.2488766 C45.3069764,56.8645018 44.5315514,70.3790522 49.8118265,79.5733775 L49.8118265,79.5733775 Z" id="Shape" fill="url(#linearGradient-2)"></path>
                    <path d="M49.8118265,79.5733775 L49.9226015,79.7580025 L78.6871774,63.141752 L78.5764024,62.957127 C77.6902024,61.4062769 76.6193774,59.9662019 75.4008523,58.6369018 L47.6701765,74.6623523 C48.2240515,76.3609024 48.9256265,78.0225274 49.8118265,79.5733775 L49.8118265,79.5733775 Z" id="Shape" fill="#FFFFFF" opacity="0.25"></path>
                    <path d="M71.0067772,54.7967017 C69.1605271,53.5043267 67.1665771,52.4704266 65.172627,51.7688516 L46.8209015,62.3663269 C46.4147264,64.471052 46.3408764,66.6865521 46.5255014,68.9389771 L71.0067772,54.7967017 L71.0067772,54.7967017 Z" id="Shape" fill="#FFFFFF" opacity="0.35"></path>
                </g>
                <g id="Group" transform="translate(29.170751, 21.785751)" fill-rule="nonzero">
                    <path d="M11.5206004,33.9710011 C10.3020753,34.3771761 7.49577523,29.4661509 7.49577523,29.4661509 L12.5545004,27.8414509 C12.5545004,27.8783759 12.8129754,33.564826 11.5206004,33.9710011 Z" id="Shape" fill="#FFFFFF"></path>
                    <path d="M33.306351,21.4165007 C34.2664011,20.5672256 31.423176,15.6931255 31.423176,15.6931255 L27.5091259,19.2748506 C27.5091259,19.2379256 32.309376,22.3027007 33.306351,21.4165007 Z" id="Shape" fill="#FFFFFF"></path>
                    <path d="M4.09725188,29.7062031 C12.8585126,30.3801463 29.7965106,20.5283131 33.3543529,12.8005266 C33.4698364,12.5496917 33.3601123,12.2527319 33.1092773,12.1372485 C32.8584423,12.021765 32.5614825,12.1314892 32.4459991,12.3823241 C29.0638569,19.7284826 12.5198701,29.3511426 4.17394838,28.7091487 C3.89861938,28.6879695 3.65825204,28.8939987 3.63707289,29.1693277 C3.61589373,29.4446566 3.82192289,29.685024 4.09725188,29.7062031 Z" id="Shape" fill="#222222"></path>
                    <path d="M18.5732756,17.6501505 C17.9455506,16.5793255 17.9086256,15.4715755 18.4255756,15.1761755 C18.9425256,14.8807755 19.8656506,15.4715755 20.4933756,16.5424005 C21.1211007,17.6132255 21.1580257,18.7209756 20.6410756,19.0163756 C20.1241256,19.3117756 19.2010006,18.7209756 18.5732756,17.6501505 Z" id="Shape" fill="#000000"></path>
                    <path d="M14.2530504,20.1610506 C13.6253254,19.0902256 13.5884004,17.9824756 14.1053504,17.6870755 C14.6223005,17.3916755 15.5454255,17.9824756 16.1731505,19.0533006 C16.8008755,20.1241256 16.8378005,21.2318757 16.3208505,21.5272757 C15.8039005,21.8226757 14.8807755,21.1949507 14.2530504,20.1610506 Z" id="Shape" fill="#000000"></path>
                    <path d="M15.7669755,10.5605503 C13.6991754,6.94190022 12.4068004,2.03087506 15.0654005,0.480025015 C17.7240005,-1.07082503 23.2627507,1.40315004 25.3674758,5.02180016 C27.4352759,8.64045027 26.9921758,12.8129754 24.3335758,14.3269004 C21.6749757,15.8408255 17.8347756,14.1792004 15.7669755,10.5605503 L15.7669755,10.5605503 Z" id="Shape" fill="#FFFFFF"></path>
                    <path d="M10.9667253,13.3299254 C8.89892528,9.7112753 5.24335016,6.16647519 2.58475008,7.68040024 C-0.0738500023,9.19432528 -0.738500023,15.2500255 1.36622504,18.8686756 C3.43402511,22.4873257 7.27422523,24.1858757 9.93282531,22.6350257 C12.5914254,21.1211007 13.0345254,16.9485755 10.9667253,13.3299254 Z" id="Shape" fill="#FFFFFF"></path>
                    <path d="M16.8747255,9.6743503 C15.7300505,7.68040024 16.3947005,5.13257516 18.3886506,3.98790012 C20.3826006,2.84322509 22.9304257,3.50787511 24.0751007,5.50182517 C25.2197758,7.49577523 24.5551258,10.0436003 22.5611757,11.1882753 C20.5672256,12.3698754 18.0194006,11.6683004 16.8747255,9.6743503 L16.8747255,9.6743503 Z" id="Shape" fill="#000000"></path>
                    <path d="M2.47397508,17.9824756 C1.32930004,15.9885255 1.99395006,13.4407004 3.98790012,12.2960254 C5.98185019,11.1513503 8.52967526,11.8160004 9.6743503,13.8099504 C10.8190253,15.8039005 10.1543753,18.3517256 8.16042525,19.4964006 C6.16647519,20.6780006 3.61865011,19.9764256 2.47397508,17.9824756 Z" id="Shape" fill="#000000"></path>
                    <path d="M6.5357252,14.2161254 C5.79722518,14.0315004 5.31720016,13.4407004 5.46490017,12.9237504 C5.61260017,12.4068004 6.3141752,12.1483254 7.05267522,12.3329504 C7.79117524,12.5175754 8.27120026,13.1083754 8.12350025,13.6253254 C7.97580025,14.1422754 7.23730022,14.4007504 6.5357252,14.2161254 Z" id="Shape" fill="#FFFFFF"></path>
                    <path d="M20.8995506,5.90800018 C20.1610506,5.72337518 19.6810256,5.13257516 19.8287256,4.61562514 C19.9764256,4.09867513 20.6780006,3.84020012 21.4165007,4.02482512 C22.1550007,4.20945013 22.6350257,4.80025015 22.4873257,5.31720016 C22.3396257,5.83415018 21.6380507,6.09262519 20.8995506,5.90800018 Z" id="Shape" fill="#FFFFFF"></path>
                </g>
                <g id="Group" transform="translate(1.107750, 5.538750)">
                    <path d="M52.9873766,81.4196275 C52.9873766,81.4565525 53.0243016,81.4934775 53.0243016,81.5304025 C53.7997267,82.7858526 55.4613517,83.1920276 56.7537268,82.4535276 C56.7906518,82.4535276 56.8275768,82.4166026 56.8645018,82.4166026 L61.5539769,79.6841525 C61.5909019,79.6841525 61.6278269,79.6472275 61.6647519,79.6472275 C62.8832769,78.8718024 63.326377,77.2840274 62.6248019,76.0285774 L62.5509519,75.9178024 L61.1478019,73.5176773 L58.7476768,74.9208273 L53.9474267,77.6902024 L51.5473016,79.0933525 L52.9873766,81.4196275 L52.9873766,81.4196275 Z M72.1514522,70.3421272 C72.1883772,70.3790522 72.1883772,70.4159772 72.2253022,70.4529022 C73.0007273,71.7083522 74.6623523,72.1145272 75.9547274,71.3760272 C75.9916524,71.3760272 76.0285774,71.3391022 76.0655024,71.3391022 L80.7549775,68.6066521 C80.7919025,68.6066521 80.8288275,68.5697271 80.8657525,68.5697271 C82.0842775,67.7943021 82.5273776,66.2065271 81.8258025,64.951077 L81.7519525,64.840302 L80.3488025,62.4401769 L77.9486774,63.843327 L73.1484273,66.6127021 L70.7483022,68.0158521 L72.1514522,70.3421272 L72.1514522,70.3421272 Z" id="Shape" fill="#000000" fill-rule="nonzero" opacity="0.1"></path>
                    <path d="M27.4352759,3.39710011 C27.2137258,3.50787511 27.0660258,3.69250011 26.9183258,3.95097512 C29.6507759,4.20945013 35.3741511,11.5944504 35.3741511,11.5944504 L37.7742762,10.1913003 C37.7742762,10.2282253 29.7615509,2.06780006 27.4352759,3.39710011 L27.4352759,3.39710011 Z" id="Shape" fill="url(#linearGradient-3)" opacity="0.15"></path>
                    <path d="M39.8051512,2.65860008 C39.6943762,2.73245008 39.5836012,2.84322509 39.5097512,3.02785009 C40.8759763,3.2863251 43.5345763,6.90497521 43.5345763,6.90497521 L44.9746514,6.09262519 C44.9746514,6.09262519 40.9498263,1.99395006 39.8051512,2.65860008 L39.8051512,2.65860008 Z" id="Shape" fill="url(#linearGradient-4)" opacity="0.15"></path>
                    <path d="M20.6041506,13.7361004 C20.4933756,13.8099504 20.3826006,13.9207254 20.3087506,14.1053504 C21.6749757,14.3638254 24.3335758,17.9824756 24.3335758,17.9824756 L25.7736508,17.1701255 C25.7736508,17.1701255 21.7857507,13.0714504 20.6041506,13.7361004 L20.6041506,13.7361004 Z" id="Shape" fill="url(#linearGradient-5)" opacity="0.15"></path>
                    <path d="M65.689577,25.8844258 C65.689577,25.8844258 71.6345022,30.2046509 72.6684023,28.3214759 C73.9607773,25.9582758 68.7174271,19.2748506 69.6405522,17.5763005 C70.6744522,15.6192755 76.5824524,21.1949507 77.6532774,18.9794506 C78.7610274,16.6901005 72.7791773,11.0775003 74.0346273,9.00970028 C75.0685273,7.31115023 80.4965025,12.9606754 81.3457775,10.9298003 C82.0104275,9.37895029 79.2410525,4.32022513 75.3639273,0.295400009 C78.2071524,3.80327512 77.8379024,6.4988002 77.2840274,7.82810024 C76.4347524,9.85897531 73.1853523,5.20642516 72.1145272,6.90497521 C70.8590772,9.00970028 74.6623523,13.6253254 73.5546023,15.9146755 C72.4837772,18.1301756 68.7174271,13.5514754 67.6835271,15.5085005 C66.7973271,17.2070505 69.8251772,22.8935007 68.5697271,25.2567008 C67.8312271,26.6598508 66.5757771,25.6628758 64.803377,24.5182008 L65.689577,25.8844258 L65.689577,25.8844258 Z" id="Shape" fill="url(#linearGradient-6)" opacity="0.15"></path>
                    <path d="M27.3245008,48.0394265 C27.3245008,48.0394265 28.0999259,55.3505767 25.9213508,55.3136517 C23.2627507,55.2398017 20.0502756,47.3747765 18.1301756,47.3009265 C15.9146755,47.2270765 17.7978506,55.1290267 15.3238755,54.9444017 C12.8129754,54.7597767 10.9298003,46.7839764 8.49275026,46.8209015 C6.4988002,46.8578265 8.67737527,54.3905267 6.4988002,54.1320517 C4.80025015,53.9105017 1.84625006,48.9994765 0.258475008,43.6453514 C1.88317506,47.8548015 4.39407514,48.8887015 5.79722518,49.0733265 C7.97580025,49.3318015 5.57567517,44.1992264 7.56962523,44.1623014 C10.0066753,44.1253764 12.1114004,49.7379765 14.6592255,49.9226015 C17.0962755,50.0703016 15.0284755,44.5684764 17.2439755,44.6423264 C19.1640756,44.7161764 22.5981007,50.2180016 25.2567008,50.2918516 C26.8444758,50.3287766 26.6229258,48.7410015 26.5121508,46.6732014 L27.3245008,48.0394265 L27.3245008,48.0394265 Z" id="Shape" fill="url(#linearGradient-7)" opacity="0.15"></path>
                    <path d="M79.4626025,49.7749015 L82.2689025,54.6120767 C95.340353,47.0793765 96.706578,28.2107009 92.4232779,29.7246259 C92.3125029,29.7615509 92.2017279,29.8354009 92.0909529,29.8723259 C95.0449529,34.9679761 86.9214527,46.4516514 79.4626025,49.7749015 Z" id="Shape" fill="url(#linearGradient-8)" opacity="0.15"></path>
                </g>
            </g>
        </g>
    </g>
</svg>