<?xml version="1.0" encoding="UTF-8"?>
<svg width="95px" height="24px" viewBox="0 0 95 24" version="1.1" xmlns="http://www.w3.org/2000/svg" xmlns:xlink="http://www.w3.org/1999/xlink">
    <!-- Generator: Sketch 42 (36781) - http://www.bohemiancoding.com/sketch -->
    <title>eventstore-logo-black</title>
    <desc>Created with Sketch.</desc>
    <defs></defs>
    <g id="Brands" stroke="none" stroke-width="1" fill="none" fill-rule="evenodd">
        <g id="Event-Store-logo-black" transform="translate(-16.000000, -20.000000)" fill="#000000">
            <g id="eventstore-logo-black" transform="translate(16.000000, 20.000000)">
                <path d="M5.08998708,3.3905693 C5.50202881,3.14779533 5.9328922,2.93312668 6.38245007,2.74643616 C7.3304004,2.35397914 8.30721908,2.10980626 9.31328763,2.01429906 L10.4032906,3.25512966 L9.9061699,4.53182315 C8.92439146,4.72817884 8.0004769,5.08477298 7.13404471,5.60185991 C7.07083954,5.63950323 7.00839742,5.67816393 6.94659116,5.71784203 L6.76257129,4.03686438 L5.08998708,3.3905693" id="Fill-1"></path>
                <path d="M4.61461302,3.68828217 L6.34442524,4.35759563 L6.52539295,6.00563537 C5.5890154,6.6951694 4.85878589,7.57470045 4.3362305,8.64435569 C4.28955787,8.73960854 4.24555589,8.83524292 4.20384302,8.93100447 L2.99633184,7.45604769 L1.01280874,7.87470243 C1.50700447,6.81000695 2.17097665,5.85709687 3.00485246,5.01597218 C3.50210035,4.51452757 4.03889916,4.07209141 4.61461302,3.68828217" id="Fill-2"></path>
                <path d="M15.9966299,15.3302414 C16.1820487,15.0173949 16.3356741,14.69908 16.457379,14.3751694 L18.3301341,16.6426706 L21.472461,15.9653453 C21.2930194,16.4610671 21.0796225,16.9461063 20.8334148,17.4208445 C20.1871197,18.6663805 19.3350581,19.7476085 18.2769757,20.6650373 C17.2023607,21.595692 15.9884908,22.2750522 14.6342216,22.7019732 C14.6072608,22.7104938 14.5803,22.7186329 14.5533393,22.7271535 L12.2242861,20.7577466 L12.8348455,18.0761689 C12.8501063,18.0699374 12.8652399,18.0635787 12.8805007,18.0570929 C14.2145494,17.4905355 15.2531744,16.5812459 15.9966299,15.3302414" id="Fill-3"></path>
                <path d="M19.9304839,4.73301143 C20.1226428,4.99829508 20.3029747,5.27349826 20.4731326,5.55823944 C21.190772,6.76307998 21.6867481,8.05249081 21.9610611,9.42583607 C22.2333393,10.7882444 22.2718728,12.1571386 22.076916,13.5318828 C21.9834436,14.19293 21.8383388,14.8369359 21.6414744,15.4650452 L18.5037258,16.1399543 L16.6220686,13.8631694 C16.8469111,13.0271316 16.8663686,12.1553582 16.6808227,11.2481033 C16.4608127,10.1723438 15.9917973,9.25402484 15.2736493,8.49365524 L18.6643458,8.09204173 L19.9304839,4.73301143" id="Fill-4"></path>
                <path d="M0.793943368,8.38110681 L2.82070541,7.95393145 L4.01486339,9.41159265 C3.64936711,10.4577208 3.55780229,11.5460705 3.73978738,12.676006 C3.79116542,12.9969916 3.86187382,13.3093294 3.95114953,13.6123835 L1.81133035,13.1241649 L0.273931446,14.9405822 C0.0895300546,14.1360835 -0.00178042722,13.3135261 -7.76549404e-14,12.473546 C0.00279781421,11.0731128 0.262358669,9.72138698 0.779064083,8.41925882 C0.783896672,8.40641431 0.788856433,8.3935698 0.793943368,8.38110681" id="Fill-6"></path>
                <path d="M4.11927273,14.1143368 C4.42665077,14.9276105 4.87951515,15.673228 5.4777387,16.3510621 C5.92996721,16.8630621 6.43382812,17.2873125 6.98893989,17.6240676 L4.86425435,18.8397178 L4.97921908,21.6076463 C4.27874814,21.1691525 3.63499652,20.6483775 3.04745554,20.0455758 C2.06198907,19.0346746 1.30683358,17.8739632 0.782116244,16.5629329 C0.639173373,16.2045584 0.515560854,15.8423686 0.412041729,15.4762365 L1.97996225,13.6257367 L4.11927273,14.1143368" id="Fill-7"></path>
                <path d="M7.45185097,17.8794317 C7.90891207,18.1066905 8.39789369,18.280155 8.91803279,18.3998251 C10.0838311,18.6700686 11.2201252,18.6244133 12.3269151,18.2643855 L11.7222057,20.9268872 L14.0288763,22.8769637 C12.8750323,23.1787462 11.6958808,23.3078271 10.4921848,23.2645882 C9.08742772,23.2189329 7.73938997,22.9216016 6.44667263,22.3711952 C6.10037953,22.2241828 5.76591356,22.060765 5.4423845,21.8811962 L5.32767412,19.0948276 L7.45185097,17.8794317" id="Fill-8"></path>
                <path d="M19.6060646,4.30698063 L18.3371287,7.67389568 L14.8482543,8.08657327 C14.7462613,7.99831495 14.6409617,7.91285445 14.5313383,7.82968306 C13.3930094,6.96490412 12.103853,6.45849975 10.6647591,6.31085147 C10.3394496,6.27956682 10.0215161,6.27015599 9.71070442,6.28198311 L10.9261003,3.16292896 L8.30111475,0.173591654 C9.09047988,0.105426726 9.8784461,0.0832985594 10.6647591,0.106952807 C11.1386071,0.118907104 11.6078768,0.155405862 12.0740944,0.215813214 C12.7301818,0.300892201 13.3790204,0.434424242 14.0202285,0.615773472 C15.3765325,0.997420765 16.6132936,1.61675509 17.7301302,2.47415797 C18.4347978,3.0151535 19.0601093,3.62584004 19.6060646,4.30698063" id="Fill-9"></path>
                <polyline id="Fill-11" points="31.202623 12.774311 28.7172737 12.774311 28.0962861 15.9147303 30.9508197 15.9147303 30.5817625 17.778456 25.644002 17.778456 27.8109091 6.45964431 32.5462096 6.45964431 32.176771 8.30696473 29.5740407 8.30696473 29.0195648 10.9940109 31.5554019 10.9940109 31.202623 12.774311"></polyline>
                <path d="M33.0777943,17.778456 L32.7256513,6.45964431 L35.0596642,6.45964431 L34.9083279,12.1863885 C34.8752628,13.2106428 34.8076066,14.5205286 34.7405862,15.3938281 L34.77416,15.3938281 C35.0091764,14.5205286 35.3955291,13.1941103 35.7486895,12.1863885 L37.780157,6.45964431 L40.0978917,6.45964431 L35.3622096,17.778456 L33.0777943,17.778456" id="Fill-12"></path>
                <polyline id="Fill-13" points="43.9194516 12.774311 41.4344839 12.774311 40.8127332 15.9147303 43.6677755 15.9147303 43.2980825 17.778456 38.3608306 17.778456 40.5274834 6.45964431 45.2630383 6.45964431 44.8935996 8.30696473 42.2907422 8.30696473 41.7362663 10.9940109 44.2722305 10.9940109 43.9194516 12.774311"></polyline>
                <path d="M44.3808366,17.778456 L46.5476165,6.45964431 L48.4615758,6.45964431 L49.3351297,10.9604372 C49.6205067,12.4545971 49.8049081,13.5299752 49.8888425,14.4705494 L49.9225435,14.4705494 C50.074007,13.2276841 50.2754496,11.2797695 50.627847,9.39887531 L51.1821957,6.45964431 L52.9960695,6.45964431 L50.8296711,17.778456 L49.0329657,17.778456 L48.1258381,13.5636761 C47.7729319,11.9848187 47.6722106,11.2124948 47.5549568,9.80163338 L47.521383,9.80163338 C47.370301,10.9435231 47.1184978,12.8077576 46.7484232,14.7723318 L46.177542,17.778456 L44.3808366,17.778456" id="Fill-14"></path>
                <polyline id="Fill-15" points="54.9736155 8.44138698 53.0086597 8.44138698 53.3951396 6.45964431 59.4241749 6.45964431 59.037695 8.44138698 57.072612 8.44138698 55.2925663 17.778456 53.1930611 17.778456 54.9736155 8.44138698"></polyline>
                <path d="M60.6829369,15.6289717 C61.0523756,15.8474555 61.6399165,16.0153244 62.2446259,16.0153244 C63.2021143,16.0486438 63.8734625,15.4611028 63.8734625,14.5708892 C63.8734625,13.8153522 63.4537904,13.3786388 62.7483597,12.6734625 C61.8582732,11.8337367 61.4049001,10.9271177 61.4049001,9.93618281 C61.4049001,7.83705912 62.8829091,6.358923 65.0991595,6.358923 C65.9725862,6.358923 66.5270621,6.54370591 66.7957794,6.71170194 L66.2245166,8.52544858 C65.8887789,8.34066567 65.5192131,8.22290313 64.9988197,8.22290313 C64.1086061,8.22290313 63.5040238,8.79403875 63.4874913,9.66746547 C63.4874913,10.2046458 63.705848,10.6245723 64.6125941,11.4307243 C65.5362543,12.2534088 65.9725862,13.2443438 65.9725862,14.1512171 C65.9725862,16.5023984 64.41077,17.8794317 62.26154,17.8794317 C61.1364372,17.8794317 60.4140924,17.6273741 60.1456294,17.4595052 L60.6829369,15.6289717" id="Fill-16"></path>
                <polyline id="Fill-17" points="68.8273741 8.44138698 66.8624183 8.44138698 67.2490253 6.45964431 73.2774247 6.45964431 72.8914536 8.44138698 70.9262434 8.44138698 69.1464521 17.778456 67.0468197 17.778456 68.8273741 8.44138698"></polyline>
                <path d="M75.6972797,8.52544858 C74.6558569,9.58314953 74.0679344,12.7407372 74.0679344,14.4200616 C74.0679344,15.0580904 74.1518689,16.065685 75.0252956,16.065685 C75.2609478,16.065685 75.5128783,15.9481769 75.7135579,15.729693 C76.8390422,14.6215042 77.3259891,10.977224 77.3259891,9.75114555 C77.3259891,9.02930949 77.2252678,8.17266965 76.4525623,8.17266965 C76.1842265,8.17266965 75.9322961,8.29043219 75.6972797,8.52544858 Z M79.4922603,9.91914158 C79.4922603,12.3208107 78.7032767,15.3435946 77.2084809,16.8380089 C76.5033045,17.5435668 75.6972797,17.9128783 74.7058361,17.9128783 C72.254315,17.9128783 71.9016632,15.4611028 71.9016632,14.218619 C71.9016632,11.9179255 72.6912827,8.89476006 74.2529717,7.36651764 C74.9249558,6.71170194 75.7477675,6.3254764 76.7387024,6.3254764 C79.1899692,6.3254764 79.4922603,8.57580924 79.4922603,9.91914158 L79.4922603,9.91914158 Z" id="Fill-18"></path>
                <path d="M82.4106349,11.61538 L82.8978361,11.61538 C83.9551555,11.61538 84.6605862,10.4900229 84.6605862,9.29777248 C84.6605862,8.69331744 84.4087829,8.0549071 83.6192906,8.0549071 C83.4014426,8.0549071 83.2,8.07194834 83.0654506,8.10539493 L82.4106349,11.61538 Z M81.3188515,6.61098063 C82.0240278,6.49321808 82.8133929,6.40915648 83.5694386,6.40915648 C84.543078,6.40915648 85.4835251,6.59419374 86.0714476,7.1818619 C86.5416076,7.65202186 86.8101977,8.30696473 86.8101977,9.04609637 C86.8101977,10.7085067 85.8029846,12.0354337 84.5096314,12.4717655 L84.5096314,12.5055936 C85.1311277,12.7909707 85.3995907,13.4461679 85.4331644,14.7055658 C85.4669925,15.9650909 85.5004391,17.3587839 85.6179473,17.778456 L83.5021639,17.778456 C83.4518033,17.4595052 83.4179752,16.3177427 83.4179752,15.0748773 C83.4179752,13.697844 83.1323438,13.2443438 82.4271674,13.2443438 L82.0745156,13.2443438 L81.234917,17.778456 L79.1860268,17.778456 L81.3188515,6.61098063 L81.3188515,6.61098063 Z" id="Fill-19"></path>
                <polyline id="Fill-20" points="91.9051446 12.774311 89.4197953 12.774311 88.7986806 15.9147303 91.6530869 15.9147303 91.2836483 17.778456 86.3465236 17.778456 88.5131764 6.45964431 93.2483497 6.45964431 92.8789111 8.30696473 90.2764352 8.30696473 89.7219593 10.9940109 92.2577963 10.9940109 91.9051446 12.774311"></polyline>
                <path d="M94.2275847,16.6186349 C94.1929935,16.6052817 94.1442861,16.5985415 94.0813353,16.5985415 L94.0200378,16.5985415 L94.0200378,16.8781957 L94.1179613,16.8781957 C94.1768425,16.8781957 94.2228793,16.8664958 94.2559444,16.8428415 C94.2890094,16.8193145 94.305542,16.7810353 94.305542,16.7283855 C94.305542,16.6757357 94.2795986,16.639237 94.2275847,16.6186349 Z M93.7674714,17.392612 L93.7674714,16.428765 C93.8272429,16.428765 93.916773,16.4288922 94.0359344,16.4292737 C94.1550959,16.4296552 94.2213532,16.4302911 94.2347064,16.4310541 C94.3110104,16.4365226 94.3743428,16.4531823 94.4247034,16.4806518 C94.5104183,16.5278331 94.5532757,16.6043915 94.5532757,16.7107084 C94.5532757,16.7917178 94.5306388,16.8502176 94.4854923,16.8862077 C94.4400914,16.9221977 94.3845166,16.94369 94.3183865,16.9508117 C94.3790482,16.9634019 94.4247034,16.9819692 94.4553522,17.0065137 C94.5119444,17.0522961 94.5401769,17.1244034 94.5401769,17.2227084 L94.5401769,17.3088048 C94.5401769,17.3183428 94.5409399,17.3277536 94.5422116,17.3371644 C94.5434834,17.3465753 94.5457725,17.3561133 94.5492062,17.3655241 L94.5579811,17.392612 L94.3173691,17.392612 C94.3094844,17.3619632 94.3041431,17.3175797 94.3014724,17.2593343 C94.2985474,17.2010889 94.2933333,17.1617923 94.2854486,17.1413174 C94.2728584,17.1074893 94.2492042,17.0839622 94.214613,17.0704819 C94.1957914,17.0627243 94.1670502,17.0575102 94.1285166,17.0552211 L94.0730691,17.0516602 L94.0200378,17.0516602 L94.0200378,17.392612 L93.7674714,17.392612 Z M93.6377546,16.4051108 C93.4992628,16.5466547 93.4300805,16.7147779 93.4300805,16.9089717 C93.4300805,17.1102871 93.5005345,17.2813353 93.6413154,17.4221162 C93.7813333,17.5628972 93.9503467,17.633224 94.1484829,17.633224 C94.3459831,17.633224 94.5147422,17.5625156 94.6547601,17.4208445 C94.7946508,17.2785375 94.8647233,17.1078708 94.8647233,16.9089717 C94.8647233,16.7154138 94.7950323,16.547545 94.6560318,16.4051108 C94.5151237,16.2603875 94.3459831,16.1880258 94.1484829,16.1880258 C93.9488207,16.1880258 93.7785355,16.2603875 93.6377546,16.4051108 Z M94.757389,17.5330114 C94.5882484,17.6965564 94.3854069,17.778456 94.1484829,17.778456 C93.9040556,17.778456 93.6979076,17.6946488 93.5302931,17.5271615 C93.3629329,17.3595469 93.2789985,17.1536533 93.2789985,16.9089717 C93.2789985,16.6548793 93.3694188,16.4437715 93.5503865,16.2752668 C93.7202901,16.1180805 93.9198251,16.0393602 94.1484829,16.0393602 C94.388459,16.0393602 94.5933353,16.124312 94.7632389,16.2942156 C94.9331426,16.4641192 95.0180944,16.6689955 95.0180944,16.9089717 C95.0180944,17.1558152 94.931235,17.363998 94.757389,17.5330114 L94.757389,17.5330114 Z" id="Fill-21"></path>
            </g>
        </g>
    </g>
</svg>