<?xml version="1.0" encoding="UTF-8"?>
<svg width="84px" height="16px" viewBox="0 0 84 16" version="1.1" xmlns="http://www.w3.org/2000/svg" xmlns:xlink="http://www.w3.org/1999/xlink">
    <!-- Generator: Sketch 42 (36781) - http://www.bohemiancoding.com/sketch -->
    <title>mabstalk-logo-black</title>
    <desc>Created with Sketch.</desc>
    <defs></defs>
    <g id="Brands" stroke="none" stroke-width="1" fill="none" fill-rule="evenodd">
        <g id="mAbstalk.com-logo-black" transform="translate(-22.000000, -8.000000)" fill="#000000">
            <g id="mabstalk-logo-black" transform="translate(22.000000, 8.000000)">
                <path d="M13.5879017,6.48161224 L12.0891526,7.98044128 C11.7961015,8.2734124 11.3221518,8.2734124 11.0291807,7.98044128 C10.7823336,7.73359413 10.7462018,7.35916665 10.9153496,7.0718711 L10.4576272,6.6141487 C10.3040672,6.76770873 10.1665746,6.90520131 10.0605774,7.0111985 L10.0605774,11.9467826 C10.0605774,12.360939 9.72539928,12.6961971 9.31108297,12.6961971 C8.89684659,12.6961971 8.56174838,12.360939 8.56166845,11.9467826 C8.56166845,11.9467826 8.56174838,9.14617055 8.56174838,7.63782895 L7.81225393,7.63774901 L7.81225393,7.6375092 L7.81209405,7.6375092 C7.81209405,9.14601068 7.81217399,11.9465428 7.81225393,11.9465428 C7.81209405,12.3606992 7.47699585,12.6959573 7.06275947,12.6959573 C6.64844315,12.6959573 6.31326501,12.3606992 6.31318507,11.9465428 C6.31318507,11.9465428 6.31326501,8.13679913 6.31326501,7.01095869 C6.20726782,6.90488156 6.0696953,6.76738898 5.91613527,6.61382895 L5.45841286,7.07155135 C5.62764066,7.35876696 5.59142895,7.73319444 5.34466173,7.98012153 C5.05169062,8.27293277 4.57766095,8.27293277 4.28468984,7.98012153 L2.78594073,6.48129249 C2.49304956,6.18848125 2.49304956,5.71445158 2.78594073,5.42156041 C3.07891185,5.12866923 3.55286158,5.12858929 3.84559288,5.42132059 L5.21212528,6.78793293 L5.6511423,6.34883597 C5.02123441,5.71892809 4.28468984,4.98246345 4.28476977,4.98246345 C3.99187859,4.68965221 3.99187859,4.21562254 4.28476977,3.92273137 C4.57774089,3.62984019 5.05169062,3.62976025 5.34442192,3.92257149 L7.58970779,6.16785736 C7.62607938,6.20382926 7.65877383,6.24347828 7.68715166,6.28624487 C7.68891029,6.28880287 7.69034916,6.29160069 7.69202785,6.29423863 C7.71672856,6.33236884 7.73823176,6.37265736 7.75573808,6.41518414 C7.75741677,6.41918101 7.75853589,6.42325783 7.76013464,6.42717477 C7.77612215,6.46802286 7.78907204,6.51022988 7.79778523,6.55419553 C7.79858461,6.55827235 7.79890436,6.5624291 7.79962379,6.56650592 C7.8072978,6.60855307 7.8117743,6.65171934 7.81209405,6.69592481 L7.81209405,6.70551731 L7.81209405,7.26276197 L8.56166845,7.2628419 L8.56166845,7.26300178 L8.56174838,7.26300178 L8.56174838,6.70583706 L8.56174838,6.69624456 C8.56206813,6.65203909 8.56654464,6.60887282 8.5741387,6.56682567 C8.57493808,6.56274885 8.57517789,6.5585921 8.57597727,6.55451528 C8.5847704,6.51054963 8.59772028,6.46826267 8.61370779,6.42749452 C8.61530654,6.42357758 8.61642567,6.41950077 8.61810436,6.41550389 C8.63561068,6.37297711 8.65711388,6.33268859 8.68181458,6.29447844 C8.68341333,6.2918405 8.68493215,6.28912262 8.68669077,6.28656462 C8.7150686,6.2437181 8.74776306,6.20414901 8.78413464,6.16817711 L11.0293406,3.92289124 C11.3220719,3.63008 11.7961015,3.63015994 12.0890727,3.92305112 C12.3819638,4.2159423 12.3819638,4.68989202 12.0890727,4.9827832 C12.0891526,4.9827832 11.3525281,5.71924784 10.7226202,6.34915572 L11.1617172,6.78817274 L12.5281696,5.42164034 C12.8209009,5.12890904 13.2949306,5.12898898 13.5879017,5.42188016 C13.8807929,5.71477133 13.8807929,6.18872106 13.5879017,6.48161224" id="Fill-1"></path>
                <path d="M14.4444565,13.295313 L14.8653277,14.8660859 L13.2945549,14.4452147 L11.8372134,14.0547198 C11.6306548,14.1857374 11.4173814,14.3066829 11.1972334,14.4165171 C10.2361443,14.8960625 9.15275066,15.1672906 8.0055669,15.1672906 C4.05065667,15.1672906 0.844601405,11.9610754 0.844601405,8.00624512 C0.844601405,4.05125496 4.05065667,0.845199688 8.0055669,0.845199688 C11.9605571,0.845199688 15.1666123,4.05125496 15.1666123,8.00624512 C15.1666123,9.15342888 14.8954642,10.2366626 14.4158389,11.1979916 C14.3060846,11.4180596 14.1850592,11.6314929 14.0539616,11.8379716 L14.4444565,13.295313 Z M14.9279988,12.0017636 C15.6081074,10.8258823 15.9993218,9.4621477 15.9993218,8.00616518 C15.9993218,3.59137424 12.4204378,0.012490242 8.0055669,0.012490242 C3.59077596,0.012490242 0.0118120219,3.59137424 0.0118120219,8.00616518 C0.0118120219,12.4209561 3.59077596,16 8.0055669,16 C9.46154941,16 10.8254439,15.6087856 12.0011653,14.9287569 L14.8848325,15.7014333 L15.9993218,16 L15.7006751,14.8855107 L14.9279988,12.0017636 Z" id="Fill-3"></path>
                <path d="M42.090554,8.43926682 C42.090554,9.34184169 45.0910898,8.92704575 45.0910898,10.9398732 C45.0910898,12.0861777 44.1152122,12.6718002 42.8588338,12.6718002 C41.8101331,12.6718002 41.0048422,12.1960918 40.6999604,11.8179872 C40.6023567,11.6960025 40.5535948,11.5863282 40.5535948,11.4399625 C40.5535948,11.1226904 40.822025,10.8544999 41.1390574,10.8544999 C41.2609621,10.8544999 41.3829468,10.8909514 41.5172419,11.0007057 C41.8465846,11.2688962 42.2489103,11.5009549 42.8588338,11.5009549 C43.4078449,11.5009549 43.7615685,11.3543494 43.7615685,11.0129361 C43.7615685,10.0250679 40.7731033,10.5370679 40.7731033,8.46364778 C40.7731033,7.36578548 41.6879885,6.82924465 42.8100719,6.82924465 C43.6761952,6.82924465 44.444475,7.15850742 44.786208,7.58545386 C44.8593509,7.68305761 44.9082727,7.76835098 44.9082727,7.95132802 C44.9082727,8.26844028 44.6400022,8.53687057 44.3225702,8.53687057 C44.1517437,8.53687057 44.0419894,8.46364778 43.9079342,8.36604403 C43.6395838,8.17091647 43.3103211,7.97578891 42.8100719,7.97578891 C42.3588244,7.97578891 42.090554,8.13438501 42.090554,8.43926682 L42.090554,8.43926682 Z M36.3309737,10.256647 C36.3309737,11.0983094 36.8312229,11.5741777 37.5385902,11.5741777 C38.3803326,11.5741777 38.8437306,10.9641742 38.8437306,9.76878813 C38.8437306,8.56117158 38.3681022,7.95132802 37.5385902,7.95132802 C36.806762,7.95132802 36.3309737,8.5735619 36.3309737,8.5735619 L36.3309737,10.256647 Z M40.1489509,9.76878813 C40.1489509,11.7570748 39.1852238,12.6961811 37.5385902,12.6961811 C36.0627033,12.6961811 35.0136828,11.8788996 35.0136828,10.256647 L35.0136828,4.51169524 C35.0136828,4.1456612 35.3062542,3.85300984 35.6722883,3.85300984 C36.0380825,3.85300984 36.3309737,4.1456612 36.3309737,4.51169524 L36.3309737,7.31702358 C36.5749431,7.07313411 37.0873428,6.82924465 37.6725656,6.82924465 C39.2094449,6.82924465 40.1489509,7.78066136 40.1489509,9.76878813 L40.1489509,9.76878813 Z M30.9786752,6.54858392 L29.9784965,9.11018267 L31.9789337,9.11018267 L30.9786752,6.54858392 Z M29.5028681,10.4030126 L28.7587295,12.1717908 C28.6490552,12.4278308 28.4172363,12.6351888 28.1000441,12.6351888 C27.7219395,12.6351888 27.4049072,12.3181564 27.4049072,11.9399719 C27.4049072,11.8667491 27.4170577,11.7691454 27.4536691,11.6837721 L30.3322202,4.6702114 C30.4053631,4.49946479 30.6006505,4.2310345 30.9786752,4.2310345 C31.3568597,4.2310345 31.5519873,4.49946479 31.6251301,4.6702114 L34.5038411,11.6837721 C34.5402926,11.7691454 34.552603,11.8667491 34.552603,11.9399719 C34.552603,12.3181564 34.2354908,12.6351888 33.8573062,12.6351888 C33.540114,12.6351888 33.308455,12.4278308 33.1987008,12.1717908 L32.4546421,10.4030126 L29.5028681,10.4030126 Z M26.8107314,8.95150664 L26.8107314,12.0009642 C26.8107314,12.3668384 26.51808,12.6351888 26.1521259,12.6351888 C25.7617909,12.6351888 25.4934405,12.3668384 25.4934405,12.0009642 L25.4934405,9.19547603 C25.4934405,8.50041905 25.2128597,8.02447088 24.4200391,8.02447088 C23.5418452,8.02447088 23.200352,8.50041905 23.200352,9.18332553 L23.200352,12.0009642 C23.200352,12.3668384 22.9075407,12.6351888 22.5415866,12.6351888 C22.1514115,12.6351888 21.8829812,12.3668384 21.8829812,12.0009642 L21.8829812,9.19547603 C21.8829812,8.50041905 21.6024004,8.02447088 20.8095798,8.02447088 C19.8947745,8.02447088 19.5898127,8.56117158 19.5898127,9.28084934 L19.5898127,12.0009642 C19.5898127,12.3668384 19.3092319,12.6351888 18.9312072,12.6351888 C18.5530227,12.6351888 18.2725218,12.3668384 18.2725218,12.0009642 L18.2725218,7.56107291 C18.2725218,7.19511881 18.5652531,6.90238751 18.9312072,6.90238751 C19.2970814,6.90238751 19.5898127,7.19511881 19.5898127,7.56107291 C19.8216316,7.20726932 20.3338714,6.82924465 21.151073,6.82924465 C22.1514115,6.82924465 22.6514208,7.14635691 22.9563826,7.62206526 C23.3467176,7.097595 23.8711079,6.82924465 24.7006199,6.82924465 C26.359404,6.82924465 26.8107314,7.89033568 26.8107314,8.95150664 L26.8107314,8.95150664 Z" id="Fill-5"></path>
                <path d="M83.0248221,8.98805408 L83.0248221,12.2449496 C83.0248221,12.4643782 82.8540755,12.6352047 82.6346469,12.6352047 C82.4150585,12.6352047 82.2443119,12.4643782 82.2443119,12.2449496 L82.2443119,9.14681005 C82.2443119,8.18300303 81.9026588,7.5244775 80.719663,7.5244775 C79.6705626,7.5244775 79.1949342,8.08547922 79.1949342,8.98805408 L79.1949342,12.2449496 C79.1949342,12.4643782 79.0241876,12.6352047 78.8043593,12.6352047 C78.5848508,12.6352047 78.4141842,12.4643782 78.4141842,12.2449496 L78.4141842,9.14681005 C78.4141842,8.18300303 78.1093024,7.5244775 76.9139163,7.5244775 C75.7793626,7.5244775 75.4134885,8.20738398 75.4134885,9.23226329 L75.4134885,12.2449496 C75.4134885,12.4643782 75.2428218,12.6352047 75.0232333,12.6352047 C74.8037248,12.6352047 74.6329782,12.4643782 74.6329782,12.2449496 L74.6329782,7.29273855 C74.6329782,7.0731501 74.8037248,6.9024035 75.0232333,6.9024035 C75.2428218,6.9024035 75.4134885,7.0731501 75.4134885,7.29273855 L75.4134885,7.68299366 C75.6208465,7.23166626 76.2065489,6.82926064 76.9992896,6.82926064 C77.999628,6.82926064 78.6460031,7.1951348 78.9388143,7.68299366 C79.243776,7.20728531 79.7803169,6.82926064 80.719663,6.82926064 C82.5979556,6.82926064 83.0248221,7.95134401 83.0248221,8.98805408 L83.0248221,8.98805408 Z M72.9096046,9.75657368 C72.9096046,8.21969436 72.2631497,7.53670795 71.1409864,7.53670795 C70.0186632,7.53670795 69.3722881,8.21969436 69.3722881,9.75657368 C69.3722881,11.3179139 70.0186632,11.9887498 71.1409864,11.9887498 C72.2631497,11.9887498 72.9096046,11.3179139 72.9096046,9.75657368 L72.9096046,9.75657368 Z M73.7024252,9.75657368 C73.7024252,11.7570908 72.7266276,12.6961971 71.1409864,12.6961971 C69.5674157,12.6961971 68.5796274,11.7570908 68.5796274,9.75657368 C68.5796274,7.75621646 69.5674157,6.82926064 71.1409864,6.82926064 C72.7266276,6.82926064 73.7024252,7.75621646 73.7024252,9.75657368 L73.7024252,9.75657368 Z M66.0863753,6.82926064 C67.1717673,6.82926064 67.7697002,7.40241286 67.9647478,7.67084315 C68.0258201,7.75621646 68.0501211,7.81720881 68.0501211,7.90258211 C68.0501211,8.10986017 67.8916049,8.25646564 67.6964774,8.25646564 C67.5745726,8.25646564 67.4891194,8.20738398 67.4035063,8.10986017 C67.2205292,7.90258211 66.8912664,7.53670795 66.0863753,7.53670795 C64.964132,7.53670795 64.3665988,8.25646564 64.3665988,9.75657368 C64.3665988,11.2812225 64.964132,11.9887498 66.0863753,11.9887498 C66.7937426,11.9887498 67.2205292,11.6717175 67.5013498,11.4642795 C67.5867231,11.4033671 67.6476355,11.3788263 67.7329289,11.3788263 C67.9281364,11.3788263 68.0867325,11.5374224 68.0867325,11.7325499 C68.0867325,11.8423841 68.0501211,11.9276775 67.9281364,12.0375117 C67.659866,12.2571001 67.0741636,12.6961971 66.0863753,12.6961971 C64.5129645,12.6961971 63.5735384,11.7570908 63.5735384,9.75657368 C63.5735384,7.75621646 64.5129645,6.82926064 66.0863753,6.82926064 L66.0863753,6.82926064 Z M61.8394532,12.0618926 C61.8394532,11.659487 62.0588018,11.4765899 62.4124455,11.4765899 C62.7660892,11.4765899 62.9855178,11.659487 62.9855178,12.0618926 C62.9855178,12.4643782 62.7660892,12.6352047 62.4124455,12.6352047 C62.0588018,12.6352047 61.8394532,12.4643782 61.8394532,12.0618926 L61.8394532,12.0618926 Z M60.4172842,12.4522277 L58.2580911,9.68335088 L57.5141123,10.2811239 L57.5141123,12.2449496 C57.5141123,12.4643782 57.3433657,12.6352047 57.1239372,12.6352047 C56.9041089,12.6352047 56.7335222,12.4643782 56.7335222,12.2449496 L56.7335222,4.24336087 C56.7335222,4.02377243 56.9041089,3.85302582 57.1239372,3.85302582 C57.3433657,3.85302582 57.5141123,4.02377243 57.5141123,4.24336087 L57.5141123,9.35408812 L60.3929033,6.99992731 C60.490507,6.914554 60.587871,6.9024035 60.6611737,6.9024035 C60.8806023,6.9024035 61.0514288,7.0731501 61.0514288,7.29273855 C61.0514288,7.39018242 61.0148174,7.51232699 60.8929926,7.6098508 L58.8925554,9.2078024 L61.0636593,12.0009003 C61.1368821,12.0861937 61.1488727,12.1718068 61.1488727,12.2449496 C61.1488727,12.4643782 60.9783659,12.6352047 60.7586975,12.6352047 C60.6246422,12.6352047 60.5147281,12.5742923 60.4172842,12.4522277 L60.4172842,12.4522277 Z M55.1551553,4.24336087 L55.1551553,11.2080797 C55.1551553,11.6960185 55.3137514,11.9033765 55.643174,11.9033765 C55.8383016,11.9033765 56.0091281,12.0618926 56.0091281,12.2692506 C56.0091281,12.4767685 55.8383016,12.6352047 55.643174,12.6352047 C54.8258126,12.6352047 54.3745651,12.1473459 54.3745651,11.2080797 L54.3745651,4.24336087 C54.3745651,4.03592294 54.5576221,3.85302582 54.7649801,3.85302582 C54.9844087,3.85302582 55.1551553,4.03592294 55.1551553,4.24336087 L55.1551553,4.24336087 Z M52.4767678,10.4274895 L52.4767678,9.91516977 L50.7568315,9.91516977 C49.9639309,9.91516977 49.4151597,10.2445125 49.4151597,10.9518798 C49.4151597,11.5863442 49.8540967,11.9887498 50.8055934,11.9887498 C51.6593264,11.9887498 52.4767678,11.4642795 52.4767678,10.4274895 L52.4767678,10.4274895 Z M49.6224377,8.18300303 C49.500533,8.31737805 49.4151597,8.35382957 49.3054054,8.35382957 C49.1101979,8.35382957 48.9516018,8.19515354 48.9516018,8.00018585 C48.9516018,7.91473262 48.9760627,7.8538202 49.012754,7.79274792 C49.3540074,7.25604721 50.0126928,6.82926064 51.0374123,6.82926064 C52.4522269,6.82926064 53.232897,7.65869265 53.232897,8.90276072 L53.232897,12.2571001 C53.232897,12.4643782 53.0620705,12.6352047 52.8547125,12.6352047 C52.6474344,12.6352047 52.4767678,12.4643782 52.4767678,12.2571001 L52.4767678,11.8179232 C52.1717261,12.3913153 51.4641988,12.6961971 50.7325305,12.6961971 C49.4393807,12.6961971 48.622419,12.0740432 48.622419,10.9518798 C48.622419,9.87871825 49.4393807,9.23226329 50.7568315,9.23226329 L52.4767678,9.23226329 L52.4767678,8.90276072 C52.4767678,8.07332871 51.9279166,7.5610889 51.0374123,7.5610889 C50.3910373,7.5610889 50.0003825,7.75621646 49.6224377,8.18300303 L49.6224377,8.18300303 Z M46.2680983,5.7191679 C46.2680983,5.51188984 46.4510753,5.32899272 46.6583534,5.32899272 C46.8779419,5.32899272 47.0486885,5.51188984 47.0486885,5.7191679 L47.0486885,6.99992731 L47.8416689,6.99992731 C48.0488671,6.99992731 48.2074632,7.1585234 48.2074632,7.36580147 C48.2074632,7.57331934 48.0488671,7.7318355 47.8416689,7.7318355 L47.0486885,7.7318355 L47.0486885,11.0982455 C47.0486885,11.6227957 47.3414997,11.9033765 47.7562956,11.9033765 C47.9635737,11.9033765 48.1342404,12.0618926 48.1342404,12.2692506 C48.1342404,12.4767685 47.9635737,12.6352047 47.7562956,12.6352047 C46.7925686,12.6352047 46.2680983,11.9887498 46.2680983,11.0982455 L46.2680983,7.7318355 L45.7924699,7.7318355 C45.5852718,7.7318355 45.4264358,7.57331934 45.4264358,7.36580147 C45.4264358,7.1585234 45.5852718,6.99992731 45.7924699,6.99992731 L46.2680983,6.99992731 L46.2680983,5.7191679 Z" id="Fill-7"></path>
            </g>
        </g>
    </g>
</svg>