<?xml version="1.0" encoding="UTF-8"?>
<svg width="64px" height="64px" viewBox="0 0 64 64" version="1.1" xmlns="http://www.w3.org/2000/svg" xmlns:xlink="http://www.w3.org/1999/xlink">
    <!-- Generator: Sketch 42 (36781) - http://www.bohemiancoding.com/sketch -->
    <title>mabstalk-avatar</title>
    <desc>Created with Sketch.</desc>
    <defs></defs>
    <g id="Brands" stroke="none" stroke-width="1" fill="none" fill-rule="evenodd">
        <g id="mAbstalk.com-avatar">
            <g id="mabstalk-avatar">
                <rect id="Rectangle-2" fill="#1466FF" x="0" y="0" width="64" height="64"></rect>
                <path d="M43.1758034,28.9632245 L40.1783052,31.9608826 C39.5922031,32.5468248 38.6443036,32.5468248 38.0583614,31.9608826 C37.5646671,31.4671883 37.4924036,30.7183333 37.8306993,30.1437422 L36.9152545,29.2282974 C36.6081344,29.5354175 36.3331492,29.8104026 36.1211548,30.022397 L36.1211548,39.8935652 C36.1211548,40.721878 35.4507986,41.3923942 34.6221659,41.3923942 C33.7936932,41.3923942 33.1234968,40.721878 33.1233369,39.8935652 C33.1233369,39.8935652 33.1234968,34.2923411 33.1234968,31.2756579 L31.6245079,31.275498 L31.6245079,31.2750184 L31.6241881,31.2750184 C31.6241881,34.2920214 31.624348,39.8930855 31.6245079,39.8930855 C31.6241881,40.7213984 30.9539917,41.3919146 30.1255189,41.3919146 C29.2968863,41.3919146 28.62653,40.7213984 28.6263701,39.8930855 C28.6263701,39.8930855 28.62653,32.2735983 28.62653,30.0219174 C28.4145356,29.8097631 28.1393906,29.534778 27.8322705,29.2276579 L26.9168257,30.1431027 C27.2552813,30.7175339 27.1828579,31.4663889 26.6893235,31.9602431 C26.1033812,32.5458655 25.1553219,32.5458655 24.5693797,31.9602431 L21.5718815,28.962585 C20.9860991,28.3769625 20.9860991,27.4289032 21.5718815,26.8431208 C22.1578237,26.2573385 23.1057232,26.2571786 23.6911858,26.8426412 L26.4242506,29.5758659 L27.3022846,28.6976719 C26.0424688,27.4378562 24.5693797,25.9649269 24.5695395,25.9649269 C23.9837572,25.3793044 23.9837572,24.4312451 24.5695395,23.8454627 C25.1554818,23.2596804 26.1033812,23.2595205 26.6888438,23.845143 L31.1794156,28.3357147 C31.2521588,28.4076585 31.3175477,28.4869566 31.3743033,28.5724897 C31.3778206,28.5776057 31.3806983,28.5832014 31.3840557,28.5884773 C31.4334571,28.6647377 31.4764635,28.7453147 31.5114762,28.8303683 C31.5148335,28.838362 31.5170718,28.8465157 31.5202693,28.8543495 C31.5522443,28.9360457 31.5781441,29.0204598 31.5955705,29.1083911 C31.5971692,29.1165447 31.5978087,29.1248582 31.5992476,29.1330118 C31.6145956,29.2171061 31.6235486,29.3034387 31.6241881,29.3918496 L31.6241881,29.4110346 L31.6241881,30.5255239 L33.1233369,30.5256838 L33.1233369,30.5260036 L33.1234968,30.5260036 L33.1234968,29.4116741 L33.1234968,29.3924891 C33.1241363,29.3040782 33.1330893,29.2177456 33.1482774,29.1336513 C33.1498762,29.1254977 33.1503558,29.1171842 33.1519545,29.1090306 C33.1695408,29.0210993 33.1954406,28.9365253 33.2274156,28.854989 C33.2306131,28.8471552 33.2328513,28.8390015 33.2362087,28.8310078 C33.2712214,28.7459542 33.3142278,28.6653772 33.3636292,28.5889569 C33.3668267,28.583681 33.3698643,28.5782452 33.3733815,28.5731292 C33.4301372,28.4874362 33.4955261,28.408298 33.5682693,28.3363542 L38.0586812,23.8457825 C38.6441438,23.26016 39.5922031,23.2603199 40.1781453,23.8461022 C40.7639277,24.4318846 40.7639277,25.379784 40.1781453,25.9655664 C40.1783052,25.9655664 38.7050562,27.4384957 37.4452404,28.6983114 L38.3234343,29.5763455 L41.0563392,26.8432807 C41.6418018,26.2578181 42.5898612,26.257978 43.1758034,26.8437603 C43.7615858,27.4295427 43.7615858,28.3774421 43.1758034,28.9632245" id="Fill-1" fill="#FFFFFF"></path>
                <path d="M44.888913,42.5906261 L45.7306554,45.7321717 L42.5891098,44.8904294 L39.6744269,44.1094395 C39.2613096,44.3714748 38.8347628,44.6133658 38.3944668,44.8330342 C36.4722885,45.7921249 34.3055013,46.3345811 32.0111338,46.3345811 C24.1013133,46.3345811 17.6892028,39.9221508 17.6892028,32.0124902 C17.6892028,24.1025099 24.1013133,17.6903994 32.0111338,17.6903994 C39.9211141,17.6903994 46.3332247,24.1025099 46.3332247,32.0124902 C46.3332247,34.3068578 45.7909283,36.4733252 44.8316778,38.3959831 C44.6121692,38.8361193 44.3701183,39.2629858 44.1079232,39.6759432 L44.888913,42.5906261 Z M45.8559975,40.0035272 C47.2162148,37.6517646 47.9986436,34.9242954 47.9986436,32.0123304 C47.9986436,23.1827485 40.8408756,16.0249805 32.0111338,16.0249805 C23.1815519,16.0249805 16.023624,23.1827485 16.023624,32.0123304 C16.023624,40.8419123 23.1815519,48 32.0111338,48 C34.9230988,48 37.6508877,47.2175713 40.0023307,45.8575138 L45.7696649,47.4028665 L47.9986436,48 L47.4013502,45.7710214 L45.8559975,40.0035272 Z" id="Fill-3" fill="#FFFFFF"></path>
            </g>
        </g>
    </g>
</svg>