<svg fill="none" height="16" viewBox="0 0 84 16" width="84" xmlns="http://www.w3.org/2000/svg"><g fill="#000"><path d="m12.0868 7.97417 1.4999-1.5c.2931-.29311.2931-.76743 0-1.06055-.2932-.29313-.7676-.2932-1.0606-.00025l-1.3675 1.36761-.4394-.43937.9057-.90565c.2708-.27075.4618-.46179.4618-.46179.2931-.29311.2931-.76743 0-1.06055-.2932-.29312-.7676-.2932-1.0606-.00016l-2.24692 2.24703c-.0364.03601-.06912.0756-.09752.11849l-.00153.00233-.00204.00338-.00131.0022c-.02472.03825-.04624.07856-.06376.12113-.00088.00209-.00161.0042-.00233.00631l-.00207.00569c-.016.04079-.02896.08311-.03776.12711l-.00184.01232c-.0076.04208-.01208.08528-.0124.12952v.56721l-.75024-.00025v-.56728c-.00032-.04424-.0048-.08743-.01248-.12952l-.00082-.00561-.00102-.00671c-.00872-.04399-.02168-.08623-.03768-.12712l-.00207-.00568c-.00073-.00211-.00145-.00422-.00233-.00632-.01752-.04255-.03904-.08288-.06376-.12104l-.00204-.00338-.00284-.00461c-.0284-.0428-.06112-.08248-.09752-.11848l-2.24704-2.24704c-.29296-.29304-.76728-.29296-1.06048.00016-.29312.29312-.29312.76752 0 1.06056 0 0 .28767.2877.65733.65735l.71011.71009-.43936.43944-1.3676-1.36769c-.29296-.29295-.76728-.29288-1.06048.00024-.29312.29313-.29312.76752 0 1.06057l1.49992 1.5c.2932.29304.7676.29304 1.0608 0 .24696-.24712.2832-.62184.11384-.90928l.45808-.45809.39744.39744-.00008 4.93947c.00008.4145.33552.75.75016.75.41456 0 .74992-.3355.75008-.75l-.00016-4.31243.75024.00032-.00008 4.31231c.00008.4145.33544.75.75.75.41464 0 .75006-.3355.75006-.75v-4.93942l.3974-.39737.4581.45808c-.1693.28753-.1332.66224.1139.90928.2932.2932.7675.2932 1.0608 0z"/><path clip-rule="evenodd" d="m16 7.99992c0 1.45712-.3915 2.82188-1.0722 3.99868l1.0722 4.0014-4.0013-1.0721c-1.1766.6806-2.54158 1.0721-3.9987 1.0721-4.41824 0-8-3.5818-8-8.00008 0-4.41824 3.58176-7.99992 8-7.99992 4.4183 0 8 3.58168 8 7.99992zm-4.166 6.05268 3.0305.812-.812-3.0305c.1312-.2067.2523-.4203.3621-.6405.48-.9621.7514-2.04617.7514-3.19425 0-3.95808-3.2086-7.166641-7.16665-7.166641-3.958 0-7.166561 3.208561-7.166561 7.166641 0 3.95795 3.208561 7.16665 7.166561 7.16665 1.14808 0 2.23235-.2714 3.19415-.7514.2203-.1099.4338-.2309.6405-.362z" fill-rule="evenodd"/><path d="m83.0778 12.242v-3.25942c0-1.03752-.4272-2.16048-2.3069-2.16048-.9401 0-1.4771.37832-1.7823.8544-.293-.48824-.9399-.8544-1.941-.8544-.7934 0-1.3795.40272-1.587.8544v-.39056c0-.21976-.1708-.39064-.3906-.39064-.2197 0-.3906.17088-.3906.39064v4.95606c0 .2196.1709.3906.3906.3906.2198 0 .3906-.171.3906-.3906v-3.01502c0-1.02568.3661-1.70912 1.5016-1.70912 1.1963 0 1.5014.65904 1.5014 1.6236v3.10054c0 .2196.1708.3906.3905.3906.22 0 .3908-.171.3908-.3906v-3.25942c0-.90328.4761-1.46472 1.526-1.46472 1.1839 0 1.5258.65904 1.5258 1.6236v3.10054c0 .2196.1709.3906.3907.3906.2196 0 .3904-.171.3904-.3906z"/><path clip-rule="evenodd" d="m73.7482 9.7517c0 2.0021-.9766 2.9419-2.5635 2.9419-1.5748 0-2.5633-.9398-2.5633-2.9419 0-2.00192.9885-2.9296 2.5633-2.9296 1.5869 0 2.5635.92768 2.5635 2.9296zm-.7935 0c0-1.53808-.6469-2.2216-1.77-2.2216-1.1232 0-1.7701.68352-1.7701 2.2216 0 1.5626.6469 2.2339 1.7701 2.2339 1.1231 0 1.77-.6713 1.77-2.2339z" fill-rule="evenodd"/><path d="m68.006 7.66434c-.1952-.26864-.7936-.84224-1.8799-.84224-1.5746 0-2.5148.92768-2.5148 2.9296 0 2.0021.9402 2.9419 2.5148 2.9419.9886 0 1.5748-.4394 1.8432-.6592.1221-.1099.1588-.1953.1588-.3052 0-.1953-.1588-.354-.3541-.354-.0854 0-.1463.0246-.2318.0855l-.0028.0021c-.2811.2077-.7077.5228-1.4133.5228-1.1231 0-1.7211-.7081-1.7211-2.2339 0-1.50128.598-2.2216 1.7211-2.2216.8056 0 1.1351.36616 1.3182.5736.0857.0976.1712.14672.2932.14672.1953 0 .3539-.14672.3539-.35416 0-.08544-.0243-.14648-.0854-.23192z"/><path d="m61.8759 12.0584c0-.4024.2194-.5853.573-.5853.3537 0 .5731.1829.5731.5853s-.2194.5733-.5731.5733c-.3536 0-.573-.1709-.573-.5733z"/><path d="m58.2917 9.67842 2.1609 2.77108c.0975.1221.2075.1831.3417.1831.2198 0 .3905-.171.3905-.3906 0-.0732-.012-.1589-.0853-.2442l-2.1728-2.7953 2.002-1.5992c.1219-.0976.1586-.21984.1586-.31736 0-.21976-.171-.39064-.3906-.39064-.0734 0-.1708.01216-.2685.0976l-2.881 2.356v-5.11472c0-.21976-.1709-.39064-.3905-.39064-.22 0-.3907.17088-.3907.39064v8.00782c0 .2196.1707.3906.3907.3906.2196 0 .3905-.171.3905-.3906v-1.9653z"/><path d="m55.1864 4.23418v6.97012c0 .4884.1587.6959.4884.6959.1953 0 .3662.1586.3662.3661 0 .2077-.1709.3663-.3662.3663-.818 0-1.2696-.4883-1.2696-1.4283v-6.97012c0-.2076.1832-.39064.3907-.39064.2196 0 .3905.18304.3905.39064z"/><path clip-rule="evenodd" d="m49.3321 8.34786c.1098 0 .1953-.03648.3173-.17096.3782-.42712.7692-.6224 1.416-.6224.8912 0 1.4405.51264 1.4405 1.34272v.32976h-1.7213c-1.3184 0-2.136.64696-2.136 1.72092 0 1.1231.8176 1.7457 2.1117 1.7457.7323 0 1.4403-.3051 1.7456-.8789v.4395c0 .2074.1708.3784.3783.3784s.3784-.171.3784-.3784v-3.35698c0-1.24504-.7812-2.07512-2.1972-2.07512-1.0255 0-1.6847.42712-2.0262.96424-.0367.06112-.0612.12208-.0612.2076 0 .19512.1587.35392.3541.35392zm3.1738 1.56256v.51268c0 1.0376-.8181 1.5625-1.6725 1.5625-.9522 0-1.3915-.4027-1.3915-1.0377 0-.7079.5492-1.03748 1.3427-1.03748z" fill-rule="evenodd"/><path d="m46.2924 5.71114c0-.20744.1831-.39048.3906-.39048.2197 0 .3906.18304.3906.39048v1.28176h.7936c.2074 0 .3661.15872.3661.36616 0 .20768-.1587.36632-.3661.36632h-.7936v3.36902c0 .525.293.8058.7082.8058.2074 0 .3782.1586.3782.3661 0 .2077-.1708.3663-.3782.3663-.9645 0-1.4894-.647-1.4894-1.5382v-3.36902h-.476c-.2074 0-.3663-.15864-.3663-.36632 0-.20744.1589-.36616.3663-.36616h.476z"/><path d="m43.1732 9.12577c-.5786-.17993-1.0616-.33013-1.0616-.69241 0-.30512.2685-.46384.7201-.46384.5006 0 .8301.19528 1.0987.39056.1342.09768.244.17096.415.17096.3176 0 .5861-.26864.5861-.586 0-.18312-.0489-.26848-.1221-.36616-.342-.42728-1.1109-.7568-1.9777-.7568-1.123 0-2.0386.53696-2.0386 1.63568 0 1.22765 1.0469 1.54964 1.9019 1.81264.5901.1815 1.0889.3349 1.0889.7386 0 .3417-.354.4884-.9034.4884-.6104 0-1.0131-.2322-1.3427-.5006-.1344-.1098-.2564-.1463-.3784-.1463-.3173 0-.586.2684-.586.5859 0 .1465.0488.2562.1465.3783.3051.3784 1.1111.8545 2.1606.8545 1.2573 0 2.234-.5861 2.234-1.7333 0-1.20647-1.0772-1.54144-1.9413-1.81013z"/><path clip-rule="evenodd" d="m40.1685 9.76392c0 1.98988-.9645 2.92968-2.6124 2.92968-1.4771 0-2.5269-.8179-2.5269-2.4414v-5.74948c0-.36632.2928-.6592.6591-.6592.3661 0 .6592.29288.6592.6592v2.80752c.2442-.24408.757-.48816 1.3427-.48816 1.538 0 2.4783.95216 2.4783 2.94184zm-3.821.48828c0 .8423.5007 1.3185 1.2086 1.3185.8424 0 1.3062-.6105 1.3062-1.80678 0-1.20856-.476-1.81888-1.3062-1.81888-.7324 0-1.2086.62272-1.2086.62272z" fill-rule="evenodd"/><path clip-rule="evenodd" d="m28.7694 12.1688.7447-1.7702h2.9541l.7446 1.7702c.1098.2562.3417.4638.6591.4638.3785 0 .6959-.3173.6959-.6958 0-.0733-.0124-.171-.0488-.2564l-2.881-7.01904c-.0732-.17088-.2685-.43952-.647-.43952-.3783 0-.5737.26864-.6469.43952l-2.8808 7.01904c-.0367.0854-.0488.1831-.0488.2564 0 .3785.3173.6958.6957.6958.3174 0 .5494-.2076.6592-.4638zm1.2207-3.064 1.001-2.5636 1.001 2.5636z" fill-rule="evenodd"/><path d="m26.8198 8.946v3.0518c0 .3662-.2928.6348-.6591.6348-.3906 0-.6592-.2686-.6592-.6348v-2.80764c0-.6956-.2808-1.17192-1.0742-1.17192-.8789 0-1.2207.47632-1.2207 1.15976v2.8198c0 .3662-.293.6348-.6592.6348-.3905 0-.6592-.2686-.6592-.6348v-2.80764c0-.6956-.2808-1.17192-1.0742-1.17192-.9155 0-1.2207.53712-1.2207 1.25736v2.7222c0 .3662-.2808.6348-.6591.6348-.3785 0-.6592-.2686-.6592-.6348v-4.44332c0-.36624.2929-.6592.6592-.6592.3661 0 .6591.29296.6591.6592.232-.35408.7446-.7324 1.5625-.7324 1.0011 0 1.5015.31736 1.8067.79344.3906-.52488.9154-.79344 1.7456-.79344 1.6601 0 2.1117 1.06192 2.1117 2.12392z"/></g></svg>