<svg fill="none" height="32" viewBox="0 0 32 32" width="32" xmlns="http://www.w3.org/2000/svg"><path d="m0 0h32v32h-32z" fill="#fff"/><g clip-rule="evenodd" fill-rule="evenodd"><path d="m22.9278 19.9986c.6807-1.1768 1.0722-2.5416 1.0722-3.9987 0-4.4182-3.5817-7.9999-8-7.9999-4.4182 0-8 3.5817-8 7.9999 0 4.4183 3.5818 8.0001 8 8.0001 1.4571 0 2.8221-.3915 3.9987-1.0721l4.0013 1.0721z" fill="#007bff"/><path d="m21.285 14.7807-1.4665 1.5c-.2868.2932-.7506.2932-1.0373 0-.2415-.2471-.2769-.6218-.1113-.9093l-.4479-.4581c-.1503.1537-.2848.2913-.3886.3974v4.9393c0 .4145-.3279.75-.7334.75-.4053 0-.7332-.3355-.7333-.75 0 0 .0001-2.8027.0001-4.3122l-.7334-.0001c0 1.5097-.0001 4.3121 0 4.3121-.0002.4144-.3281.75-.7334.75-.4055 0-.7334-.3356-.7335-.75 0 0 .0001-3.8127.0001-4.9393-.1038-.1062-.2384-.2438-.3886-.3975l-.4479.4581c.1656.2874.1301.6621-.1113.9093-.2867.293-.7506.293-1.0373 0l-1.4665-1.5c-.2867-.293-.2867-.7674 0-1.0606.2866-.2931.7504-.2931 1.0369-.0002l1.3372 1.3677.4296-.4395c-.6164-.6304-1.3372-1.3674-1.3371-1.3674-.2866-.293-.2866-.7674 0-1.0605.2867-.2931.7505-.2932 1.0369-.0002l2.1971 2.247c.0356.036.0676.0757.0954.1185.0017.0025.0031.0053.0047.008.0242.0381.0452.0785.0624.121.0016.004.0027.0081.0043.012.0156.0409.0283.0831.0368.1271.0008.0041.0011.0083.0018.0124.0075.042.0119.0852.0122.1295v.5672l.7335.0001.0001-.567c.0003-.0442.0047-.0874.0121-.1295.0008-.0041.001-.0083.0018-.0123.0086-.044.0213-.0864.0369-.1272.0016-.0039.0027-.008.0043-.012.0172-.0425.0382-.0828.0624-.1211.0015-.0026.003-.0053.0047-.0079.0278-.0429.0598-.0825.0954-.1185l2.197-2.247c.2865-.293.7503-.2929 1.037.0002.2866.2931.2866.7674 0 1.0605.0001 0-.7207.7371-1.3371 1.3674l.4296.4394 1.3372-1.3676c.2864-.2929.7503-.2928 1.0369.0003.2867.2931.2867.7674 0 1.0605z" fill="#fff"/></g></svg>