<svg fill="none" height="16" viewBox="0 0 84 16" width="84" xmlns="http://www.w3.org/2000/svg"><path d="m12.0868 7.97417 1.4999-1.5c.2931-.29311.2931-.76743 0-1.06055-.2932-.29312-.7676-.2932-1.0606-.00024l-1.3675 1.3676-.4394-.43937c.306-.306.6371-.63713.8969-.89689.2754-.27537.4706-.47055.4706-.47055.2931-.29311.2931-.76743 0-1.06055-.2932-.29312-.7676-.2932-1.0606-.00016l-2.24692 2.24704c-.0364.036-.06912.07559-.09752.11848-.00176.00255-.00328.00528-.00488.00792-.02472.03823-.04624.07855-.06376.12112-.00088.00209-.00161.00421-.00233.00631-.00066.00191-.00131.00382-.00207.00569-.016.04079-.02896.08311-.03776.12711-.0004.00204-.00066.0041-.00092.00616s-.00052.00413-.00092.00616c-.0076.04209-.01208.08528-.0124.12952v.5672l-.75024-.00024v-.56728c-.00032-.04424-.0048-.08743-.01248-.12952-.00033-.00185-.00058-.00373-.00082-.00561-.00029-.00224-.00059-.00448-.00102-.00671-.00872-.04399-.02168-.08623-.03768-.12711-.00076-.00187-.00142-.00378-.00207-.00569-.00073-.00211-.00145-.00422-.00233-.00632-.01752-.04256-.03904-.08287-.06376-.12104-.00071-.00111-.00137-.00224-.00204-.00338-.00091-.00157-.00182-.00313-.00284-.00461-.0284-.0428-.06112-.08248-.09752-.11848l-2.24704-2.24704c-.29296-.29304-.76728-.29296-1.06048.00016-.29312.29312-.29312.76752 0 1.06056-.00005 0 .29126.2913.66426.66427.2203.2203.4691.46908.70318.70317l-.43936.43944-1.3676-1.36768c-.29296-.29296-.76728-.29288-1.06048.00024-.29312.29311-.29312.76751 0 1.06056l1.49992 1.5c.2932.29303.7676.29303 1.0608 0 .24696-.24712.2832-.62184.11384-.90929l.45808-.45808.39744.39745-.00008 4.93946c.00008.4145.33552.75.75016.75.41456 0 .74992-.3355.75008-.75l-.00016-4.31243.75024.00032-.00008 4.31231c.00008.4145.33544.75.75.75.41464 0 .75006-.3355.75006-.75v-4.93943l.3974-.39736.4581.45808c-.1693.28752-.1332.66224.1139.90928.2932.2932.7675.2932 1.0608 0z" fill="#007bff"/><path d="m43.1732 9.12577c-.5786-.17993-1.0616-.33013-1.0616-.69241 0-.30512.2685-.46384.7201-.46384.5006 0 .8301.19528 1.0987.39056.1342.09768.244.17096.415.17096.3176 0 .5861-.26864.5861-.586 0-.18312-.0489-.26848-.1221-.36616-.342-.42728-1.1109-.7568-1.9777-.7568-1.123 0-2.0386.53696-2.0386 1.63568 0 1.22765 1.0469 1.54964 1.9019 1.81264.5901.1815 1.0889.3349 1.0889.7386 0 .3417-.354.4884-.9034.4884-.6104 0-1.0131-.2322-1.3427-.5006-.1344-.1098-.2564-.1463-.3784-.1463-.3173 0-.586.2684-.586.5859 0 .1465.0488.2562.1465.3783.3051.3784 1.1111.8545 2.1606.8545 1.2573 0 2.234-.5861 2.234-1.7333 0-1.20647-1.0772-1.54144-1.9413-1.81013z" fill="#007bff"/><path clip-rule="evenodd" d="m37.5561 12.6936c1.6479 0 2.6124-.9398 2.6124-2.92968 0-1.98968-.9403-2.94184-2.4783-2.94184-.5857 0-1.0985.24408-1.3427.48816v-2.80752c0-.36632-.2931-.6592-.6592-.6592-.3663 0-.6591.29288-.6591.6592v5.74948c0 1.6235 1.0498 2.4414 2.5269 2.4414zm0-1.1229c-.7079 0-1.2086-.4762-1.2086-1.3185v-1.68444s.4762-.62272 1.2086-.62272c.8302 0 1.3062.61032 1.3062 1.81888 0 1.19628-.4638 1.80678-1.3062 1.80678z" fill="#007bff" fill-rule="evenodd"/><path clip-rule="evenodd" d="m28.7694 12.1688.7447-1.7702h2.9541l.7446 1.7702c.1098.2562.3417.4638.6591.4638.3785 0 .6959-.3173.6959-.6958 0-.0733-.0124-.171-.0488-.2564l-2.881-7.01904c-.0732-.17088-.2685-.43952-.647-.43952-.3783 0-.5737.26864-.6469.43952l-2.8808 7.01904c-.0367.0854-.0488.1831-.0488.2564 0 .3785.3173.6958.6957.6958.3174 0 .5494-.2076.6592-.4638zm1.2207-3.064 1.001-2.5636 1.001 2.5636z" fill="#007bff" fill-rule="evenodd"/><path d="m26.8198 11.9978v-3.0518c0-1.062-.4516-2.12392-2.1117-2.12392-.8302 0-1.355.26856-1.7456.79344-.3052-.47608-.8056-.79344-1.8067-.79344-.8179 0-1.3305.37832-1.5625.7324 0-.36624-.293-.6592-.6591-.6592-.3663 0-.6592.29296-.6592.6592v4.44332c0 .3662.2807.6348.6592.6348.3783 0 .6591-.2686.6591-.6348v-2.7222c0-.72024.3052-1.25736 1.2207-1.25736.7934 0 1.0742.47632 1.0742 1.17192v2.80764c0 .3662.2687.6348.6592.6348.3662 0 .6592-.2686.6592-.6348v-2.8198c0-.68344.3418-1.15976 1.2207-1.15976.7934 0 1.0742.47632 1.0742 1.17192v2.80764c0 .3662.2686.6348.6592.6348.3663 0 .6591-.2686.6591-.6348z" fill="#007bff"/><g fill="#212121"><path clip-rule="evenodd" d="m16 7.99992c0 1.45712-.3915 2.82188-1.0722 3.99868l1.0722 4.0014-4.0013-1.0721c-1.1766.6806-2.54158 1.0721-3.9987 1.0721-4.41824 0-8-3.5818-8-8.00008 0-4.41824 3.58176-7.99992 8-7.99992 4.4183 0 8 3.58168 8 7.99992zm-4.166 6.05268 3.0305.812-.812-3.0305c.1312-.2067.2523-.4203.3621-.6405.48-.9621.7514-2.04617.7514-3.19425 0-3.95808-3.2086-7.166641-7.16665-7.166641-3.958 0-7.166561 3.208561-7.166561 7.166641 0 3.95795 3.208561 7.16665 7.166561 7.16665 1.14808 0 2.23235-.2714 3.19415-.7514.2203-.1099.4338-.2309.6405-.362z" fill-rule="evenodd"/><path d="m83.0778 12.242v-3.25942c0-1.03752-.4272-2.16048-2.3069-2.16048-.9401 0-1.4771.37832-1.7823.8544-.293-.48824-.9399-.8544-1.941-.8544-.7934 0-1.3795.40272-1.587.8544v-.39056c0-.21976-.1708-.39064-.3906-.39064-.2197 0-.3906.17088-.3906.39064v4.95606c0 .2196.1709.3906.3906.3906.2198 0 .3906-.171.3906-.3906v-3.01502c0-1.02568.3661-1.70912 1.5016-1.70912 1.1963 0 1.5014.65904 1.5014 1.6236v3.10054c0 .2196.1708.3906.3905.3906.22 0 .3908-.171.3908-.3906v-3.25942c0-.90328.4761-1.46472 1.526-1.46472 1.1839 0 1.5258.65904 1.5258 1.6236v3.10054c0 .2196.1709.3906.3907.3906.2196 0 .3904-.171.3904-.3906z"/><path clip-rule="evenodd" d="m71.1847 12.6936c1.5869 0 2.5635-.9398 2.5635-2.9419 0-2.00192-.9766-2.9296-2.5635-2.9296-1.5748 0-2.5633.92768-2.5633 2.9296 0 2.0021.9885 2.9419 2.5633 2.9419zm0-5.1635c1.1231 0 1.77.68352 1.77 2.2216 0 1.5626-.6469 2.2339-1.77 2.2339-1.1232 0-1.7701-.6713-1.7701-2.2339 0-1.53808.6469-2.2216 1.7701-2.2216z" fill-rule="evenodd"/><path d="m68.006 7.66434c-.1952-.26864-.7936-.84224-1.8799-.84224-1.5746 0-2.5148.92768-2.5148 2.9296 0 2.0021.9402 2.9419 2.5148 2.9419.9886 0 1.5748-.4394 1.8432-.6592.1221-.1099.1588-.1953.1588-.3052 0-.1953-.1588-.354-.3541-.354-.0854 0-.1463.0246-.2318.0855l-.0028.0021c-.2811.2077-.7077.5228-1.4133.5228-1.1231 0-1.7211-.7081-1.7211-2.2339 0-1.50128.598-2.2216 1.7211-2.2216.8056 0 1.1351.36616 1.3182.5736.0857.0976.1712.14672.2932.14672.1953 0 .3539-.14672.3539-.35416 0-.08544-.0243-.14648-.0854-.23192z"/><path d="m62.4489 11.4731c-.3536 0-.573.1829-.573.5853s.2194.5733.573.5733c.3537 0 .5731-.1709.5731-.5733s-.2194-.5853-.5731-.5853z"/><path d="m58.2917 9.67842 2.1609 2.77108c.0975.1221.2075.1831.3417.1831.2198 0 .3905-.171.3905-.3906 0-.0732-.012-.1589-.0853-.2442l-2.1728-2.7953 2.002-1.5992c.1219-.0976.1586-.21984.1586-.31736 0-.21976-.171-.39064-.3906-.39064-.0734 0-.1708.01216-.2685.0976l-2.881 2.356v-5.11472c0-.21976-.1709-.39064-.3905-.39064-.22 0-.3907.17088-.3907.39064v8.00782c0 .2196.1707.3906.3907.3906.2196 0 .3905-.171.3905-.3906v-1.9653z"/><path d="m55.1864 11.2043v-6.97012c0-.2076-.1709-.39064-.3905-.39064-.2075 0-.3907.18304-.3907.39064v6.97012c0 .94.4516 1.4283 1.2696 1.4283.1953 0 .3662-.1586.3662-.3663 0-.2075-.1709-.3661-.3662-.3661-.3297 0-.4884-.2075-.4884-.6959z"/><path clip-rule="evenodd" d="m49.3321 8.34786c.1098 0 .1953-.03648.3173-.17096.3782-.42712.7692-.6224 1.416-.6224.8912 0 1.4405.51264 1.4405 1.34272v.32976h-1.7213c-1.3184 0-2.136.64696-2.136 1.72092 0 1.1231.8176 1.7457 2.1117 1.7457.7323 0 1.4403-.3051 1.7456-.8789v.4395c0 .2074.1708.3784.3783.3784s.3784-.171.3784-.3784v-3.35698c0-1.24504-.7812-2.07512-2.1972-2.07512-1.0255 0-1.6847.42712-2.0262.96424-.0367.06112-.0612.12208-.0612.2076 0 .19512.1587.35392.3541.35392zm3.1738 1.56256v.51268c0 1.0376-.8181 1.5625-1.6725 1.5625-.9522 0-1.3915-.4027-1.3915-1.0377 0-.7079.5492-1.03748 1.3427-1.03748z" fill-rule="evenodd"/><path d="m46.683 5.32066c-.2075 0-.3906.18304-.3906.39048v1.28176h-.476c-.2074 0-.3663.15872-.3663.36616 0 .20768.1589.36632.3663.36632h.476v3.36902c0 .8912.5249 1.5382 1.4894 1.5382.2074 0 .3782-.1586.3782-.3663 0-.2075-.1708-.3661-.3782-.3661-.4152 0-.7082-.2808-.7082-.8058v-3.36902h.7936c.2074 0 .3661-.15864.3661-.36632 0-.20744-.1587-.36616-.3661-.36616h-.7936v-1.28176c0-.20744-.1709-.39048-.3906-.39048z"/></g></svg>