<?xml version="1.0" encoding="UTF-8"?>
<svg width="96px" height="17px" viewBox="0 0 96 17" version="1.1" xmlns="http://www.w3.org/2000/svg" xmlns:xlink="http://www.w3.org/1999/xlink">
    <!-- Generator: Sketch 42 (36781) - http://www.bohemiancoding.com/sketch -->
    <title>microgenetics-logo-black</title>
    <desc>Created with Sketch.</desc>
    <defs></defs>
    <g id="Brands" stroke="none" stroke-width="1" fill="none" fill-rule="evenodd">
        <g id="Microgenetics-logo-black" transform="translate(-16.000000, -8.000000)" fill-rule="nonzero" fill="#000000">
            <g id="microgenetics-logo-black" transform="translate(16.000000, 8.000000)">
                <path d="M24.7542857,3.80571429 L27.2571429,3.80571429 L27.2571429,12.2057143 L25.6457143,12.2057143 L25.6457143,6.54857143 L25.6457143,5.86285714 L25.6457143,5.17714286 L24.0685714,12.2057143 L22.3885714,12.2057143 L20.8114286,5.17714286 L20.8114286,5.86285714 L20.8114286,6.54857143 L20.8114286,12.2057143 L19.2,12.2057143 L19.2,3.80571429 L21.7371429,3.80571429 L23.2457143,10.3885714 L24.7542857,3.80571429 Z" id="Shape"></path>
                <path d="M30.4457143,5.28 L28.8,5.28 L28.8,3.77142857 L30.4457143,3.77142857 L30.4457143,5.28 Z M28.8,6 L30.4457143,6 L30.4457143,12.2057143 L28.8,12.2057143 L28.8,6 Z" id="Shape"></path>
                <path d="M35.6228571,8.22857143 C35.5885714,7.98857143 35.52,7.78285714 35.3828571,7.61142857 C35.2114286,7.37142857 34.9028571,7.23428571 34.5257143,7.23428571 C33.9771429,7.23428571 33.6,7.50857143 33.3942857,8.05714286 C33.2914286,8.33142857 33.2228571,8.74285714 33.2228571,9.18857143 C33.2228571,9.63428571 33.2914286,10.0114286 33.3942857,10.2857143 C33.6,10.8 33.9428571,11.0742857 34.4914286,11.0742857 C34.8685714,11.0742857 35.1428571,10.9714286 35.3142857,10.7657143 C35.4857143,10.56 35.5542857,10.2857143 35.5885714,9.97714286 L37.2342857,9.97714286 C37.2,10.4571429 37.0285714,10.9371429 36.6857143,11.3828571 C36.1714286,12.1028571 35.4171429,12.4457143 34.4228571,12.4457143 C33.4285714,12.4457143 32.7085714,12.1371429 32.2285714,11.5542857 C31.7485714,10.9714286 31.5085714,10.1828571 31.5085714,9.25714286 C31.5085714,8.19428571 31.7828571,7.37142857 32.2971429,6.78857143 C32.8114286,6.20571429 33.5314286,5.89714286 34.4571429,5.89714286 C35.2457143,5.89714286 35.8628571,6.06857143 36.3771429,6.41142857 C36.8571429,6.75428571 37.1657143,7.37142857 37.2685714,8.26285714 L35.6228571,8.26285714 L35.6228571,8.22857143 Z" id="Shape"></path>
                <path d="M41.7942857,5.86285714 L41.9314286,5.86285714 L41.9314286,7.54285714 C41.8285714,7.54285714 41.7257143,7.50857143 41.6571429,7.50857143 L41.4514286,7.50857143 C40.8,7.50857143 40.3542857,7.71428571 40.1485714,8.16 C40.0114286,8.4 39.9771429,8.77714286 39.9771429,9.25714286 L39.9771429,12.2057143 L38.3657143,12.2057143 L38.3657143,6 L39.9085714,6 L39.9085714,7.09714286 C40.1485714,6.68571429 40.3885714,6.41142857 40.56,6.24 C40.8685714,6 41.2457143,5.86285714 41.7257143,5.86285714 C41.76,5.86285714 41.7942857,5.86285714 41.7942857,5.86285714 Z" id="Shape"></path>
                <path d="M48,11.4514286 C47.4857143,12.1028571 46.6971429,12.4114286 45.6342857,12.4114286 C44.5714286,12.4114286 43.7828571,12.1028571 43.2685714,11.4514286 C42.7542857,10.8 42.48,10.0114286 42.48,9.12 C42.48,8.22857143 42.7542857,7.44 43.2685714,6.78857143 C43.7828571,6.13714286 44.5714286,5.79428571 45.6342857,5.79428571 C46.6971429,5.79428571 47.4857143,6.13714286 48,6.78857143 C48.5142857,7.44 48.7885714,8.22857143 48.7885714,9.12 C48.7542857,10.0114286 48.5142857,10.8 48,11.4514286 Z M46.6971429,10.56 C46.9371429,10.2171429 47.0742857,9.73714286 47.0742857,9.12 C47.0742857,8.50285714 46.9371429,8.02285714 46.6971429,7.68 C46.4571429,7.33714286 46.08,7.16571429 45.6,7.16571429 C45.12,7.16571429 44.7771429,7.33714286 44.5028571,7.68 C44.2628571,8.02285714 44.1257143,8.50285714 44.1257143,9.12 C44.1257143,9.73714286 44.2628571,10.2171429 44.5028571,10.56 C44.7428571,10.9028571 45.12,11.0742857 45.6,11.0742857 C46.08,11.0742857 46.4571429,10.9028571 46.6971429,10.56 Z" id="Shape"></path>
                <path d="M52.9714286,6 C53.3485714,6.17142857 53.6914286,6.44571429 53.9314286,6.89142857 L53.9314286,6 L55.5085714,6 L55.5085714,11.8971429 C55.5085714,12.6857143 55.3714286,13.3028571 55.0971429,13.7142857 C54.6514286,14.4 53.76,14.7771429 52.4571429,14.7771429 C51.6685714,14.7771429 51.0171429,14.6057143 50.5371429,14.2971429 C50.0228571,13.9885714 49.7485714,13.5085714 49.7142857,12.8914286 L51.4628571,12.8914286 C51.4971429,13.0971429 51.5657143,13.2342857 51.6685714,13.3028571 C51.84,13.44 52.1485714,13.5085714 52.56,13.5085714 C53.1428571,13.5085714 53.52,13.3028571 53.7257143,12.9257143 C53.8628571,12.6857143 53.9314286,12.24 53.9314286,11.6571429 L53.9314286,11.2457143 C53.76,11.52 53.6228571,11.7257143 53.4171429,11.8285714 C53.1085714,12.0685714 52.6628571,12.2057143 52.1485714,12.2057143 C51.36,12.2057143 50.7085714,11.9314286 50.2628571,11.3828571 C49.7828571,10.8342857 49.5428571,10.08 49.5428571,9.12 C49.5428571,8.19428571 49.7828571,7.44 50.2285714,6.78857143 C50.6742857,6.17142857 51.3257143,5.86285714 52.1828571,5.86285714 C52.4914286,5.86285714 52.7657143,5.89714286 52.9714286,6 Z M53.52,10.4571429 C53.7942857,10.1828571 53.8971429,9.70285714 53.8971429,9.08571429 C53.8971429,8.50285714 53.76,8.05714286 53.52,7.74857143 C53.28,7.44 52.9371429,7.30285714 52.5257143,7.30285714 C51.9771429,7.30285714 51.5657143,7.57714286 51.36,8.09142857 C51.2571429,8.36571429 51.1885714,8.74285714 51.1885714,9.15428571 C51.1885714,9.53142857 51.2571429,9.84 51.36,10.1142857 C51.5657143,10.6285714 51.9771429,10.9028571 52.5257143,10.9028571 C52.9371429,10.8685714 53.28,10.7314286 53.52,10.4571429 Z" id="Shape"></path>
                <path d="M61.0628571,6.13714286 C61.5085714,6.34285714 61.8514286,6.65142857 62.1257143,7.06285714 C62.3657143,7.44 62.5371429,7.85142857 62.6057143,8.33142857 C62.64,8.60571429 62.6742857,9.01714286 62.6742857,9.56571429 L58.1828571,9.56571429 C58.2171429,10.1828571 58.4228571,10.6285714 58.8342857,10.8685714 C59.0742857,11.04 59.3828571,11.1085714 59.7257143,11.1085714 C60.1028571,11.1085714 60.3771429,11.0057143 60.6171429,10.8342857 C60.7542857,10.7314286 60.8571429,10.5942857 60.96,10.4228571 L62.6057143,10.4228571 C62.5714286,10.8 62.3657143,11.1771429 62.0228571,11.5542857 C61.4742857,12.1714286 60.6857143,12.4457143 59.6914286,12.4457143 C58.8685714,12.4457143 58.1485714,12.2057143 57.5314286,11.6914286 C56.9142857,11.1771429 56.5714286,10.3542857 56.5714286,9.22285714 C56.5714286,8.16 56.8457143,7.33714286 57.4285714,6.75428571 C58.0114286,6.17142857 58.7314286,5.89714286 59.6228571,5.89714286 C60.1371429,5.82857143 60.6171429,5.93142857 61.0628571,6.13714286 Z M58.6285714,7.54285714 C58.3885714,7.78285714 58.2514286,8.09142857 58.1828571,8.50285714 L60.96,8.50285714 C60.9257143,8.05714286 60.7885714,7.74857143 60.5142857,7.50857143 C60.24,7.26857143 59.9314286,7.16571429 59.5542857,7.16571429 C59.1771429,7.16571429 58.8685714,7.30285714 58.6285714,7.54285714 Z" id="Shape"></path>
                <path d="M68.5714286,6.37714286 C68.9828571,6.72 69.1885714,7.26857143 69.1885714,8.05714286 L69.1885714,12.24 L67.5428571,12.24 L67.5428571,8.46857143 C67.5428571,8.12571429 67.5085714,7.88571429 67.4057143,7.71428571 C67.2342857,7.40571429 66.96,7.23428571 66.5142857,7.23428571 C65.9657143,7.23428571 65.5885714,7.47428571 65.3828571,7.92 C65.28,8.16 65.2114286,8.46857143 65.2114286,8.88 L65.2114286,12.24 L63.6,12.24 L63.6,6.06857143 L65.1771429,6.06857143 L65.1771429,6.96 C65.3828571,6.65142857 65.5885714,6.41142857 65.76,6.27428571 C66.1028571,6.03428571 66.5142857,5.89714286 67.0285714,5.89714286 C67.6457143,5.86285714 68.16,6.03428571 68.5714286,6.37714286 Z" id="Shape"></path>
                <path d="M74.7085714,6.13714286 C75.1542857,6.34285714 75.4971429,6.65142857 75.7714286,7.06285714 C76.0114286,7.44 76.1828571,7.85142857 76.2514286,8.33142857 C76.2857143,8.60571429 76.32,9.01714286 76.32,9.56571429 L71.8285714,9.56571429 C71.8628571,10.1828571 72.0685714,10.6285714 72.48,10.8685714 C72.72,11.04 73.0285714,11.1085714 73.3714286,11.1085714 C73.7485714,11.1085714 74.0228571,11.0057143 74.2628571,10.8342857 C74.4,10.7314286 74.5028571,10.5942857 74.6057143,10.4228571 L76.2514286,10.4228571 C76.2171429,10.8 76.0114286,11.1771429 75.6685714,11.5542857 C75.12,12.1714286 74.3314286,12.4457143 73.3371429,12.4457143 C72.5142857,12.4457143 71.7942857,12.2057143 71.1771429,11.6914286 C70.56,11.1771429 70.2171429,10.3542857 70.2171429,9.22285714 C70.2171429,8.16 70.4914286,7.33714286 71.0742857,6.75428571 C71.6571429,6.17142857 72.3771429,5.89714286 73.2685714,5.89714286 C73.7828571,5.82857143 74.2971429,5.93142857 74.7085714,6.13714286 Z M72.3085714,7.54285714 C72.0685714,7.78285714 71.9314286,8.09142857 71.8628571,8.50285714 L74.64,8.50285714 C74.6057143,8.05714286 74.4685714,7.74857143 74.1942857,7.50857143 C73.92,7.26857143 73.6114286,7.16571429 73.2342857,7.16571429 C72.8571429,7.16571429 72.5142857,7.30285714 72.3085714,7.54285714 Z" id="Shape"></path>
                <path d="M76.6285714,7.23428571 L76.6285714,6.06857143 L77.4857143,6.06857143 L77.4857143,4.35428571 L79.0971429,4.35428571 L79.0971429,6.06857143 L80.0914286,6.06857143 L80.0914286,7.23428571 L79.0971429,7.23428571 L79.0971429,10.5257143 C79.0971429,10.7657143 79.1314286,10.9371429 79.2,11.0057143 C79.2685714,11.0742857 79.4742857,11.1085714 79.7828571,11.1085714 L79.9542857,11.1085714 L80.1257143,11.1085714 L80.1257143,12.3085714 L79.3714286,12.3428571 C78.6171429,12.3771429 78.1028571,12.24 77.7942857,11.9314286 C77.6228571,11.76 77.52,11.4514286 77.52,11.0742857 L77.52,7.23428571 L76.6285714,7.23428571 Z" id="Shape"></path>
                <path d="M82.8,5.28 L81.1542857,5.28 L81.1542857,3.77142857 L82.8,3.77142857 L82.8,5.28 Z M81.1542857,6 L82.8,6 L82.8,12.2057143 L81.1542857,12.2057143 L81.1542857,6 Z" id="Shape"></path>
                <path d="M87.9771429,8.22857143 C87.9428571,7.98857143 87.8742857,7.78285714 87.7371429,7.61142857 C87.5657143,7.37142857 87.2571429,7.23428571 86.88,7.23428571 C86.3314286,7.23428571 85.9542857,7.50857143 85.7485714,8.05714286 C85.6457143,8.33142857 85.5771429,8.74285714 85.5771429,9.18857143 C85.5771429,9.63428571 85.6457143,10.0114286 85.7485714,10.2857143 C85.9542857,10.8 86.2971429,11.0742857 86.8457143,11.0742857 C87.2228571,11.0742857 87.4971429,10.9714286 87.6685714,10.7657143 C87.84,10.56 87.9085714,10.2857143 87.9428571,9.97714286 L89.5885714,9.97714286 C89.5542857,10.4571429 89.3828571,10.9371429 89.04,11.3828571 C88.5257143,12.1028571 87.7714286,12.4457143 86.7771429,12.4457143 C85.7828571,12.4457143 85.0628571,12.1371429 84.5828571,11.5542857 C84.1028571,10.9714286 83.8628571,10.1828571 83.8628571,9.25714286 C83.8628571,8.19428571 84.1371429,7.37142857 84.6514286,6.78857143 C85.1657143,6.20571429 85.8857143,5.89714286 86.8114286,5.89714286 C87.6,5.89714286 88.2171429,6.06857143 88.7314286,6.41142857 C89.2114286,6.75428571 89.52,7.37142857 89.6228571,8.26285714 L87.9771429,8.26285714 L87.9771429,8.22857143 Z" id="Shape"></path>
                <path d="M91.9885714,10.2171429 C92.0228571,10.4914286 92.0914286,10.6971429 92.1942857,10.8342857 C92.4,11.04 92.7771429,11.1428571 93.3257143,11.1428571 C93.6342857,11.1428571 93.9085714,11.1085714 94.08,11.0057143 C94.2514286,10.9028571 94.3542857,10.7657143 94.3542857,10.5942857 C94.3542857,10.4228571 94.2857143,10.2857143 94.1142857,10.1828571 C93.9771429,10.08 93.3942857,9.90857143 92.4342857,9.70285714 C91.7485714,9.53142857 91.2342857,9.32571429 90.96,9.05142857 C90.6857143,8.77714286 90.5142857,8.43428571 90.5142857,7.92 C90.5142857,7.33714286 90.7542857,6.85714286 91.2,6.44571429 C91.6457143,6.03428571 92.2971429,5.82857143 93.0857143,5.82857143 C93.8742857,5.82857143 94.4914286,6 94.9714286,6.30857143 C95.4514286,6.61714286 95.7257143,7.16571429 95.7942857,7.92 L94.1828571,7.92 C94.1485714,7.71428571 94.1142857,7.54285714 94.0114286,7.44 C93.84,7.23428571 93.5314286,7.09714286 93.0857143,7.09714286 C92.7428571,7.09714286 92.4685714,7.16571429 92.3314286,7.26857143 C92.1942857,7.37142857 92.0914286,7.50857143 92.0914286,7.64571429 C92.0914286,7.81714286 92.16,7.95428571 92.3314286,8.05714286 C92.5028571,8.16 93.0514286,8.29714286 94.0114286,8.50285714 C94.6628571,8.64 95.1428571,8.88 95.4514286,9.18857143 C95.76,9.49714286 95.9314286,9.87428571 95.9314286,10.3542857 C95.9314286,10.9714286 95.6914286,11.4857143 95.2457143,11.8628571 C94.8,12.24 94.08,12.4457143 93.12,12.4457143 C92.16,12.4457143 91.44,12.24 90.96,11.8285714 C90.48,11.4171429 90.2742857,10.9028571 90.2742857,10.2514286 L91.9885714,10.2514286 L91.9885714,10.2171429 Z" id="Shape"></path>
                <path d="M8.22857143,4.11428571 C10.0114286,4.11428571 11.1771429,4.97142857 12.0685714,5.96571429 C12.1371429,6.03428571 12.1714286,6.10285714 12.24,6.17142857 C12.3085714,6.24 12.3428571,6.30857143 12.4114286,6.37714286 C12.72,6.75428571 12.96,7.16571429 13.2,7.50857143 C13.3714286,7.74857143 13.5085714,7.98857143 13.68,8.19428571 C13.7485714,8.26285714 13.7828571,8.33142857 13.8514286,8.4 C13.92,8.46857143 13.9542857,8.53714286 14.0228571,8.60571429 C14.6742857,9.39428571 15.3257143,9.90857143 16.2857143,9.97714286 C16.4228571,9.39428571 16.4914286,8.81142857 16.4914286,8.19428571 C16.4914286,7.57714286 16.4228571,6.96 16.2857143,6.41142857 C15.3257143,6.48 14.6742857,6.96 14.0228571,7.78285714 C13.92,7.61142857 13.7828571,7.44 13.6457143,7.23428571 C13.3714286,6.85714286 13.0971429,6.41142857 12.7542857,5.96571429 C13.44,5.17714286 14.2971429,4.49142857 15.4628571,4.21714286 C14.0228571,1.71428571 11.3142857,0 8.22857143,0 C5.14285714,0 2.43428571,1.71428571 1.02857143,4.21714286 C2.19428571,4.49142857 3.01714286,5.17714286 3.73714286,5.96571429 C3.80571429,6.03428571 3.84,6.10285714 3.90857143,6.17142857 C3.97714286,6.24 4.01142857,6.30857143 4.08,6.37714286 C4.42285714,6.78857143 4.69714286,7.23428571 4.97142857,7.64571429 C5.10857143,7.85142857 5.21142857,8.02285714 5.34857143,8.19428571 C5.41714286,8.26285714 5.45142857,8.33142857 5.52,8.43428571 C5.58857143,8.50285714 5.62285714,8.57142857 5.69142857,8.67428571 C6.41142857,9.66857143 7.13142857,10.3542857 8.26285714,10.3542857 L8.26285714,10.3542857 C9.39428571,10.3542857 10.1142857,9.66857143 10.8342857,8.67428571 C10.9028571,8.81142857 11.0057143,8.91428571 11.0742857,9.05142857 C11.3828571,9.49714286 11.6914286,10.0114286 12.0685714,10.4571429 C11.2114286,11.4514286 10.0114286,12.3085714 8.22857143,12.3085714 C6.44571429,12.3085714 5.28,11.4514286 4.38857143,10.4571429 C4.32,10.3885714 4.28571429,10.32 4.21714286,10.2514286 C4.14857143,10.1828571 4.11428571,10.1142857 4.04571429,10.0457143 C3.73714286,9.66857143 3.49714286,9.25714286 3.25714286,8.91428571 C3.08571429,8.67428571 2.94857143,8.43428571 2.77714286,8.22857143 C2.70857143,8.16 2.67428571,8.09142857 2.60571429,8.02285714 C2.53714286,7.95428571 2.50285714,7.88571429 2.43428571,7.81714286 C1.78285714,7.02857143 1.13142857,6.51428571 0.171428571,6.44571429 C0.0685714286,6.99428571 0,7.61142857 0,8.22857143 C0,8.84571429 0.0685714286,9.46285714 0.205714286,10.0114286 C1.16571429,9.94285714 1.81714286,9.46285714 2.46857143,8.64 C2.57142857,8.81142857 2.70857143,8.98285714 2.84571429,9.18857143 C3.12,9.56571429 3.39428571,10.0114286 3.73714286,10.4571429 C3.05142857,11.2457143 2.19428571,11.9314286 1.02857143,12.2057143 C2.43428571,14.7428571 5.14285714,16.4571429 8.22857143,16.4571429 C11.3142857,16.4571429 14.0228571,14.7428571 15.4285714,12.24 C14.2628571,11.9657143 13.44,11.28 12.72,10.4914286 C12.6514286,10.4228571 12.6171429,10.3542857 12.5485714,10.2857143 C12.48,10.2171429 12.4457143,10.1485714 12.3771429,10.08 C12.0342857,9.66857143 11.76,9.22285714 11.4857143,8.81142857 C11.3485714,8.60571429 11.2457143,8.43428571 11.1085714,8.26285714 C11.04,8.19428571 11.0057143,8.12571429 10.9371429,8.02285714 C10.8685714,7.95428571 10.8342857,7.88571429 10.7657143,7.78285714 C10.0457143,6.78857143 9.32571429,6.10285714 8.19428571,6.10285714 L8.19428571,6.10285714 C7.06285714,6.10285714 6.34285714,6.78857143 5.62285714,7.78285714 C5.55428571,7.64571429 5.45142857,7.54285714 5.38285714,7.40571429 C5.07428571,6.96 4.76571429,6.44571429 4.38857143,6 C5.28,4.97142857 6.44571429,4.11428571 8.22857143,4.11428571 Z" id="Shape"></path>
            </g>
        </g>
    </g>
</svg>