<svg fill="none" height="36" viewBox="0 0 194 36" width="194" xmlns="http://www.w3.org/2000/svg"><g fill="#212121"><path d="m26.3451 13.05c-1.9459-2.175-4.4906-4.05-8.3825-4.05s-6.4366 1.875-8.38256 4.125c.58856.697 1.10066 1.4708 1.59096 2.2115.1955.2954.3875.5855.5795.8635.0749.15.1684.2813.262.4125.0935.1313.1871.2625.2619.4125 1.5718-2.175 3.1435-3.675 5.6133-3.675 2.4699 0 4.0416 1.5 5.6133 3.675.0401.0603.0749.1152.1071.1661.0881.1393.1576.2491.2672.3589.0401.0603.0748.1152.107.1662.0881.1392.1576.249.2672.3588.222.2781.4029.5562.6036.865.07.1075.1423.2187.2197.335.1185.1782.2371.3594.3569.5424.4848.7408.9888 1.5108 1.589 2.2326.0749.075.131.15.1871.225.0562.075.1123.15.1871.225.0749.075.131.15.1871.225.0562.075.1123.15.1872.225 1.5717 1.725 3.3679 3.225 5.9126 3.825-3.0686 5.475-8.9813 9.225-15.7172 9.225-6.736 0-12.64867-3.75-15.71728-9.3 2.5447-.6 4.4158-2.1 5.91268-3.825-.44615-.5812-.83912-1.1624-1.2106-1.7119-.25169-.3722-.49351-.7299-.73534-1.0631-.12497-.1878-.24994-.3626-.36946-.5298-.16681-.2333-.32302-.4517-.45383-.6702-1.42203 1.8-2.84407 2.85-4.939706 3-.299376-1.2-.449064-2.55-.449064-3.9s.149688-2.7.37422-3.9c2.09563.15 3.51767 1.275 4.93971 3 .07484.075.13098.15.18711.225s.11227.15.18711.225.13098.15.18711.225.11227.15.18711.225c.23357.2809.43798.5909.64963.912.12745.1934.25753.3907.39819.588.1733.2481.3466.5126.52532.7854.36157.5518.74531 1.1375 1.19609 1.6896.07484.075.13098.15.18711.225s.11227.15.18711.225.13098.15.18711.225.11227.15.18711.225c1.94596 2.175 4.49066 4.05 8.38256 4.05s6.5114-1.875 8.3825-4.05c-.5886-.697-1.1006-1.4708-1.5909-2.2115-.1955-.2954-.3875-.5855-.5796-.8635-.0748-.15-.1684-.2812-.2619-.4125-.0936-.1312-.1871-.2625-.262-.4125-1.5717 2.175-3.1434 3.675-5.6133 3.675-2.4698 0-4.0416-1.5-5.6133-3.675-.0401-.0603-.0748-.1152-.1071-.1662-.0881-.1392-.1575-.249-.2671-.3588-.0401-.0603-.0749-.1152-.1071-.1662-.0881-.1392-.1575-.249-.2671-.3588-.2221-.2781-.4029-.5562-.6037-.865-.0699-.1075-.1423-.2187-.2196-.335-.1186-.1782-.2372-.3594-.3569-.5424-.4849-.7408-.98883-1.5108-1.58905-2.2326-.07485-.075-.13098-.15-.18712-.225-.05613-.075-.11226-.15-.18711-.225-.07484-.075-.13097-.15-.18711-.225-.05613-.075-.11226-.15-.18711-.225-1.57172-1.725-3.36798-3.225-5.91268-3.825 3.06861-5.475 8.98128-9.225 15.71728-9.225 6.7359 0 12.6486 3.75 15.7921 9.225-2.5447.6-4.4158 2.1-5.9127 3.825.4462.5812.8391 1.1624 1.2106 1.7119.2517.3722.4935.7299.7353 1.0631.125.1878.25.3626.3695.5298.1668.2333.323.4517.4538.6702 1.4221-1.8 2.8441-2.85 4.9397-3 .2994 1.2.4491 2.55.4491 3.9s-.1497 2.625-.4491 3.9c-2.0956-.15-3.5176-1.275-4.9397-3-.0748-.075-.1309-.15-.1871-.225-.0561-.075-.1123-.15-.1871-.225s-.131-.15-.1871-.225-.1123-.15-.1871-.225c-.2336-.2809-.438-.5909-.6496-.912-.1275-.1933-.2576-.3907-.3982-.588-.1733-.2481-.3466-.5126-.5254-.7854-.3615-.5518-.7453-1.1375-1.196-1.6896-.0749-.075-.131-.15-.1872-.225-.0561-.075-.1122-.15-.1871-.225-.0748-.075-.1309-.15-.1871-.225-.0561-.075-.1122-.15-.1871-.225z"/><path d="m61.459 26v-12h3.3281v12z"/><path d="m63.1309 12.4531c-.4948 0-.9193-.164-1.2735-.4922-.3489-.3333-.5234-.7317-.5234-1.1953 0-.4583.1745-.85154.5234-1.17966.3542-.33334.7787-.5 1.2735-.5s.9166.16666 1.2656.5c.3541.32812.5312.72136.5312 1.17966 0 .4636-.1771.862-.5312 1.1953-.349.3282-.7708.4922-1.2656.4922z"/><path d="m41.3906 10h4.1719l4.4063 10.75h.1874l4.4063-10.75h4.1719v16h-3.2813v-10.4141h-.1328l-4.1406 10.336h-2.2344l-4.1406-10.375h-.1328v10.4531h-3.2813z"/><path d="m69.7031 25.4531c.8854.5209 1.9427.7813 3.1719.7813 1.0677 0 1.9922-.1953 2.7734-.586.7813-.3906 1.3933-.9323 1.836-1.625.4479-.6979.6979-1.5052.75-2.4218h-3.1406c-.0626.4218-.1954.7838-.3985 1.0859-.1979.2969-.4505.5234-.7578.6797-.3021.1562-.6432.2344-1.0234.2344-.5157 0-.9662-.1407-1.3516-.4219-.3854-.2813-.6849-.6901-.8984-1.2266-.2084-.5364-.3125-1.1875-.3125-1.9531 0-.7552.1067-1.3984.3203-1.9297.2135-.5312.5104-.9349.8906-1.2109.3854-.2813.8359-.4219 1.3516-.4219.6093 0 1.1015.1849 1.4765.5547.3802.3646.6146.8463.7032 1.4453h3.1406c-.0469-.9271-.2995-1.7344-.7578-2.4219-.4584-.6875-1.0808-1.2213-1.8672-1.6015-.7865-.3802-1.7032-.5703-2.75-.5703-1.2136 0-2.2604.263-3.1406.789-.8803.5208-1.5599 1.2474-2.0391 2.1797-.474.9271-.7109 2.0052-.7109 3.2344 0 1.2135.2343 2.2864.7031 3.2187.4739.9323 1.151 1.6615 2.0312 2.1875z"/><path d="m80.3652 14h3.2266v2.0938h.125c.2187-.7448.5859-1.3073 1.1016-1.6875.5156-.3855 1.1093-.5782 1.7812-.5782.1667 0 .3464.0104.5391.0313.1927.0208.3619.0495.5078.0859v2.9531c-.1563-.0468-.3724-.0885-.6485-.125-.276-.0364-.5286-.0546-.7578-.0546-.4896 0-.9271.1067-1.3125.3203-.3802.2083-.6823.5-.9062.875-.2188.375-.3281.8073-.3281 1.2968v6.7891h-3.3282z"/><g clip-rule="evenodd" fill-rule="evenodd"><path d="m91.082 25.4609c.8854.5157 1.9349.7735 3.1485.7735 1.2135 0 2.2604-.2578 3.1406-.7735.8854-.5208 1.5677-1.2448 2.0469-2.1718.4791-.9323.719-2.0131.719-3.2422 0-1.2396-.2399-2.3229-.719-3.25-.4792-.9323-1.1615-1.6563-2.0469-2.1719-.8802-.5208-1.9271-.7812-3.1406-.7812-1.2136 0-2.2631.2604-3.1485.7812-.8802.5156-1.5599 1.2396-2.039 2.1719-.4792.9271-.7188 2.0104-.7188 3.25 0 1.2291.2396 2.3099.7188 3.2422.4791.927 1.1588 1.651 2.039 2.1718zm4.5469-2.2734c-.3698.3125-.8307.4687-1.3828.4687-.5573 0-1.026-.1562-1.4063-.4687-.375-.3177-.6588-.75-.8515-1.2969-.1875-.5468-.2813-1.1692-.2813-1.8672 0-.6979.0938-1.3203.2813-1.8672.1927-.5468.4765-.9791.8515-1.2968.3803-.3177.849-.4766 1.4063-.4766.5521 0 1.013.1589 1.3828.4766s.6484.75.8359 1.2968c.1928.5469.2891 1.1693.2891 1.8672 0 .698-.0963 1.3204-.2891 1.8672-.1875.5469-.4661.9792-.8359 1.2969z"/><path d="m107.707 30.75c-1.078 0-2.003-.1484-2.773-.4453-.766-.2917-1.375-.6901-1.829-1.1953-.453-.5052-.747-1.0729-.882-1.7032l3.078-.414c.094.2396.242.4635.445.6719.203.2083.471.375.805.5.338.1302.75.1953 1.234.1953.724 0 1.32-.1771 1.789-.5313.474-.3489.711-.9349.711-1.7578v-2.1953h-.14c-.146.3333-.365.6484-.657.9453-.291.2969-.666.5391-1.125.7266-.458.1875-1.005.2812-1.64.2812-.901 0-1.722-.2083-2.461-.625-.735-.4219-1.321-1.0651-1.758-1.9297-.432-.8698-.649-1.9687-.649-3.2968 0-1.3594.222-2.4948.665-3.4063.442-.9114 1.031-1.5937 1.765-2.0469.74-.4531 1.55-.6796 2.43-.6796.672 0 1.234.1145 1.687.3437.453.224.818.5052 1.094.8438.281.3333.497.6614.649.9843h.125v-2.0156h3.304v12.1172c0 1.0208-.25 1.875-.75 2.5625s-1.192 1.2031-2.078 1.5469c-.88.3489-1.893.5234-3.039.5234zm.07-7.4219c.537 0 .99-.1328 1.36-.3984.375-.2708.661-.6563.859-1.1563.203-.5052.305-1.1093.305-1.8125 0-.7031-.099-1.3125-.297-1.8281-.198-.5208-.484-.9245-.859-1.2109-.375-.2865-.831-.4297-1.368-.4297-.547 0-1.007.1484-1.382.4453-.375.2917-.659.6979-.852 1.2187-.193.5209-.289 1.1224-.289 1.8047 0 .6927.096 1.2917.289 1.7969.198.5.482.888.852 1.1641.375.2708.835.4062 1.382.4062z"/><path d="m118.504 25.4844c.891.5 1.953.75 3.187.75.99 0 1.862-.1511 2.618-.4532.76-.3072 1.38-.7343 1.859-1.2812.484-.5521.805-1.1979.961-1.9375l-3.078-.2031c-.115.3021-.281.5573-.5.7656s-.482.3646-.789.4688c-.308.1041-.646.1562-1.016.1562-.557 0-1.039-.1172-1.445-.3516-.406-.2343-.722-.5677-.946-1-.218-.4323-.328-.9453-.328-1.539v-.0078h8.172v-.9141c0-1.0208-.143-1.9115-.429-2.6719-.287-.7656-.688-1.401-1.204-1.9062-.51-.5052-1.109-.8828-1.796-1.1328-.683-.2552-1.42-.3828-2.211-.3828-1.177 0-2.204.2604-3.079.7812-.869.5208-1.544 1.2474-2.023 2.1797s-.719 2.0156-.719 3.25c0 1.2656.24 2.362.719 3.2891.479.9218 1.161 1.6354 2.047 2.1406zm.526-6.6953c.021-.4309.131-.8242.333-1.1797.219-.3906.521-.7005.907-.9297.39-.2344.838-.3516 1.343-.3516.485 0 .909.1068 1.274.3203.37.2084.659.4974.867.8672s.312.7943.312 1.2735z"/></g><path d="m132.699 19.0625v6.9375h-3.328v-12h3.172v2.1172h.141c.265-.6979.711-1.25 1.336-1.6563.625-.4114 1.382-.6171 2.273-.6171.833 0 1.56.1822 2.18.5468.619.3646 1.101.8854 1.445 1.5625.344.6719.516 1.474.516 2.4063v7.6406h-3.329v-7.0469c.006-.7343-.182-1.3073-.562-1.7187-.38-.4167-.904-.625-1.57-.625-.448 0-.844.0963-1.188.289-.338.1927-.604.474-.797.8438-.187.3646-.284.8047-.289 1.3203z"/><path clip-rule="evenodd" d="m145.338 25.4844c.891.5 1.953.75 3.187.75.99 0 1.862-.1511 2.618-.4532.76-.3072 1.38-.7343 1.859-1.2812.484-.5521.805-1.1979.961-1.9375l-3.078-.2031c-.115.3021-.281.5573-.5.7656s-.482.3646-.789.4688c-.308.1041-.646.1562-1.016.1562-.557 0-1.039-.1172-1.445-.3516-.406-.2343-.722-.5677-.946-1-.218-.4323-.328-.9453-.328-1.539v-.0078h8.172v-.9141c0-1.0208-.143-1.9115-.429-2.6719-.287-.7656-.688-1.401-1.204-1.9062-.51-.5052-1.109-.8828-1.796-1.1328-.683-.2552-1.42-.3828-2.211-.3828-1.178 0-2.204.2604-3.079.7812-.869.5208-1.544 1.2474-2.023 2.1797s-.719 2.0156-.719 3.25c0 1.2656.24 2.362.719 3.2891.479.9218 1.161 1.6354 2.047 2.1406zm.526-6.6953c.021-.4309.131-.8242.333-1.1797.219-.3906.521-.7005.907-.9297.39-.2344.838-.3516 1.343-.3516.485 0 .909.1068 1.274.3203.369.2084.659.4974.867.8672s.312.7943.312 1.2735z" fill-rule="evenodd"/><path d="m162.588 14v2.5h-2.258v5.8125c0 .3073.047.5469.141.7187.093.1667.224.2839.39.3516.172.0677.37.1016.594.1016.156 0 .313-.013.469-.0391.156-.0312.276-.0547.359-.0703l.524 2.4766c-.167.052-.401.1119-.703.1796-.303.073-.67.1172-1.102.1329-.802.0312-1.505-.0756-2.109-.3203-.599-.2448-1.066-.625-1.399-1.1407-.333-.5156-.497-1.1666-.492-1.9531v-6.25h-1.641v-2.5h1.641v-2.875h3.328v2.875z"/><path d="m168.084 14h-3.328v12h3.328z"/><path d="m165.154 11.9609c.354.3282.779.4922 1.274.4922s.916-.164 1.265-.4922c.355-.3333.532-.7317.532-1.1953 0-.4583-.177-.85154-.532-1.17966-.349-.33334-.77-.5-1.265-.5s-.92.16666-1.274.5c-.349.32812-.523.72136-.523 1.17966 0 .4636.174.862.523 1.1953z"/><path d="m176.172 26.2344c-1.229 0-2.287-.2604-3.172-.7813-.88-.526-1.557-1.2552-2.031-2.1875-.469-.9323-.703-2.0052-.703-3.2187 0-1.2292.237-2.3073.711-3.2344.479-.9323 1.158-1.6589 2.039-2.1797.88-.526 1.927-.789 3.14-.789 1.047 0 1.964.1901 2.75.5703.787.3802 1.409.914 1.867 1.6015.459.6875.711 1.4948.758 2.4219h-3.14c-.089-.599-.323-1.0807-.703-1.4453-.376-.3698-.868-.5547-1.477-.5547-.516 0-.966.1406-1.352.4219-.38.276-.677.6797-.89 1.2109-.214.5313-.321 1.1745-.321 1.9297 0 .7656.105 1.4167.313 1.9531.213.5365.513.9453.898 1.2266.386.2812.836.4219 1.352.4219.38 0 .721-.0782 1.023-.2344.308-.1563.56-.3828.758-.6797.203-.3021.336-.6641.399-1.0859h3.14c-.052.9166-.302 1.7239-.75 2.4218-.442.6927-1.054 1.2344-1.836 1.625-.781.3907-1.705.586-2.773.586z"/><path d="m190.6 17.6094 3.046-.1875c-.145-1.1042-.656-1.9766-1.531-2.6172-.87-.6406-2.062-.9609-3.578-.9609-1.026 0-1.922.151-2.687.4531-.761.3021-1.352.7317-1.774 1.289-.416.5573-.625 1.2214-.625 1.9922 0 .8959.284 1.6328.852 2.211.573.5781 1.445.9843 2.617 1.2187l2.078.4141c.521.1041.906.2552 1.156.4531.25.1927.378.4401.383.7422-.005.3594-.187.6536-.547.8828-.354.224-.823.3359-1.406.3359-.594 0-1.081-.125-1.461-.375-.38-.2552-.62-.625-.719-1.1093l-3.273.1718c.161 1.1459.711 2.0521 1.648 2.7188.943.6614 2.209.9922 3.797.9922 1.042 0 1.961-.1641 2.758-.4922.802-.3333 1.432-.7969 1.891-1.3906.463-.5938.695-1.2839.695-2.0704 0-.8645-.287-1.5624-.859-2.0937-.573-.5313-1.443-.9167-2.61-1.1563l-2.172-.4374c-.557-.1198-.95-.2787-1.179-.4766-.23-.1979-.344-.4401-.344-.7266 0-.3594.177-.6458.531-.8594.354-.2187.789-.3281 1.305-.3281.385 0 .716.0651.992.1953.281.125.508.2943.68.5078.172.2084.284.4428.336.7032z"/></g></svg>