<svg fill="none" height="32" viewBox="0 0 32 32" width="32" xmlns="http://www.w3.org/2000/svg"><path d="m0 0h32v32h-32z" fill="#ff1744"/><path d="m15.9834 12c1.7297 0 2.8607.8333 3.7255 1.8.0666.0667.0998.1333.1664.2.0665.0667.0998.1333.1663.2.2994.3667.5322.7667.7651 1.1.1663.2333.2993.4667.4656.6667.0666.0666.0998.1333.1664.2.0665.0666.0998.1333.1663.2.632.7666 1.264 1.2666 2.1954 1.3333.1331-.5667.1996-1.1333.1996-1.7333s-.0665-1.2-.1996-1.7334c-.9314.0667-1.5634.5334-2.1954 1.3334-.0998-.1667-.2329-.3334-.3659-.5334-.2661-.3666-.5322-.8-.8649-1.2333.6653-.7667 1.4969-1.4333 2.6279-1.7-1.3971-2.43333-4.025-4.1-7.0187-4.1-2.9938 0-5.6217 1.66667-6.98548 4.1 1.13098.2667 1.92928.9333 2.62788 1.7.0665.0667.0998.1333.1663.2s.0998.1333.1663.2c.3327.4.5988.8333.8649 1.2333.133.2.2328.3667.3659.5334.0665.0666.0998.1333.1663.2333.0665.0667.0998.1333.1663.2333.6986.9667 1.3971 1.6334 2.4948 1.6334 1.0977 0 1.7963-.6667 2.4948-1.6334.0666.1334.1664.2334.2329.3667.2994.4333.5987.9333.9646 1.3667-.8316.9666-1.9958 1.8-3.7255 1.8-1.7298 0-2.8607-.8334-3.7256-1.8-.0665-.0667-.0998-.1334-.1663-.2-.0666-.0667-.0998-.1334-.1663-.2-.2994-.3667-.5323-.7667-.7651-1.1-.1663-.2334-.2994-.4667-.4657-.6667-.0665-.0667-.0998-.1333-.1663-.2-.0666-.0667-.0998-.1333-.1664-.2-.63197-.7667-1.26399-1.2667-2.19538-1.3333-.09979.5333-.16632 1.1333-.16632 1.7333s.06653 1.2.19958 1.7333c.9314-.0666 1.56341-.5333 2.19542-1.3333.0998.1667.2329.3333.3659.5333.2661.3667.5322.8.8649 1.2334-.6653.7666-1.4969 1.4333-2.62788 1.7 1.36378 2.4666 3.99168 4.1333 6.98548 4.1333 2.9937 0 5.6216-1.6667 6.9854-4.1-1.131-.2667-1.9293-.9333-2.6278-1.7-.0666-.0667-.0998-.1333-.1664-.2-.0665-.0667-.0998-.1333-.1663-.2-.3326-.4-.5987-.8333-.8648-1.2333-.1331-.2-.2329-.3667-.366-.5334-.0665-.0666-.0997-.1333-.1663-.2333-.0665-.0667-.0998-.1333-.1663-.2333-.6985-.9667-1.3971-1.6334-2.4948-1.6334-1.0977 0-1.7963.6667-2.4948 1.6334-.0665-.1334-.1663-.2334-.2328-.3667-.2994-.4333-.5988-.9333-.9647-1.3667.8649-1 1.9958-1.8333 3.7256-1.8333z" fill="#fff"/></svg>