<svg fill="none" height="45" viewBox="0 0 192 45" width="192" xmlns="http://www.w3.org/2000/svg"><path d="m17.9626 9c3.8919 0 6.4366 1.875 8.3825 4.05.1497.15.2245.3.3742.45s.2246.3.3743.45c.6736.825 1.1975 1.725 1.7214 2.475.3742.525.6736 1.05 1.0478 1.5.1497.15.2245.3.3742.45s.2245.3.3742.45c1.4221 1.725 2.8441 2.85 4.9397 3 .2994-1.275.4491-2.55.4491-3.9s-.1497-2.7-.4491-3.9c-2.0956.15-3.5176 1.2-4.9397 3-.2245-.375-.5239-.75-.8233-1.2-.5987-.825-1.1975-1.8-1.9459-2.775 1.4969-1.725 3.368-3.225 5.9127-3.825-3.1435-5.475-9.0562-9.225-15.7921-9.225-6.736 0-12.64867 3.75-15.71728 9.225 2.5447.6 4.34096 2.1 5.91268 3.825.14969.15.22454.3.37422.45.14969.15.22454.3.37423.45.74844.9 1.34715 1.875 1.94595 2.775.2994.45.5239.825.8233 1.2.1497.15.2245.3.3742.525.1497.15.2245.3.3742.525 1.5717 2.175 3.1435 3.675 5.6133 3.675 2.4699 0 4.0416-1.5 5.6133-3.675.1497.3.3742.525.5239.825.6736.975 1.3472 2.1 2.1705 3.075-1.8711 2.175-4.4906 4.05-8.3825 4.05s-6.4366-1.875-8.38256-4.05c-.14969-.15-.22453-.3-.37422-.45s-.22453-.3-.37422-.45c-.6736-.825-1.1975-1.725-1.72141-2.475-.37422-.525-.6736-1.05-1.04782-1.5-.14969-.15-.22453-.3-.37422-.45s-.22453-.3-.37422-.45c-1.42204-1.725-2.84408-2.85-4.93971-3-.224532 1.2-.37422 2.55-.37422 3.9s.149688 2.7.449064 3.9c2.095636-.15 3.517676-1.2 4.939706-3 .22454.375.52391.75.82329 1.2.59875.825 1.1975 1.8 1.94594 2.775-1.49688 1.725-3.36798 3.225-5.91268 3.825 3.06861 5.55 8.98128 9.3 15.71728 9.3 6.7359 0 12.6486-3.75 15.7172-9.225-2.5447-.6-4.3409-2.1-5.9126-3.825-.1497-.15-.2246-.3-.3743-.45s-.2245-.3-.3742-.45c-.7484-.9-1.3472-1.875-1.9459-2.775-.2994-.45-.5239-.825-.8233-1.2-.1497-.15-.2246-.3-.3742-.525-.1497-.15-.2246-.3-.3743-.525-1.5717-2.175-3.1434-3.675-5.6133-3.675-2.4698 0-4.0415 1.5-5.6133 3.675-.1497-.3-.3742-.525-.5239-.825-.6736-.975-1.3472-2.1-2.17046-3.075 1.94596-2.25 4.49066-4.125 8.38256-4.125z" fill="#ff1744"/><g fill="#fff"><path d="m60.8587 25.2h3.2676v-11.7818h-3.2676z"/><path d="m62.5001 11.8995c.9742 0 1.7719-.7441 1.7719-1.6568 0-.90516-.7977-1.64919-1.7719-1.64919-.9664 0-1.7642.74403-1.7642 1.64919 0 .9127.7978 1.6568 1.7642 1.6568z"/><path d="m40.9653 9.49095v15.70905h3.2216v-10.263h.1304l4.0654 10.1863h2.1937l4.0654-10.148h.1304v10.2247h3.2215v-15.70905h-4.096l-4.3261 10.55455h-.1841l-4.3261-10.55455z"/><path d="m77.329 20.8816c-.1534 2.7076-2.1247 4.5486-5.2619 4.5486-3.6281 0-5.7989-2.4929-5.7989-6.075 0-3.6128 2.2091-6.0904 5.7836-6.0904 3.0758 0 5.1392 1.7872 5.2772 4.5102h-3.0835c-.1764-1.1735-.9434-1.9636-2.14-1.9636-1.5188 0-2.5159 1.2733-2.5159 3.4977 0 2.2551.9894 3.5361 2.5159 3.5361 1.1198 0 1.9483-.7057 2.14-1.9636z"/><path d="m79.4212 25.2h3.2676v-6.6656c.0076-1.442 1.0508-2.4315 2.3701-2.4315.4449 0 .8054.1227 1.1123.2761l.9818-2.7c-.4296-.2608-.9818-.4295-1.6108-.4295-1.327 0-2.4009.767-2.8304 2.2244h-.1227v-2.0557h-3.1679z"/><path clip-rule="evenodd" d="m99.255 19.3552c0 3.6281-2.2244 6.075-5.7988 6.075-3.5745 0-5.7989-2.4469-5.7989-6.075 0-3.6512 2.2244-6.0904 5.7989-6.0904 3.5744 0 5.7988 2.4392 5.7988 6.0904zm-8.2764-.0231c0 2.0557.8438 3.5668 2.4929 3.5668 1.6185 0 2.4622-1.5111 2.4622-3.5668 0-2.0556-.8437-3.5744-2.4622-3.5744-1.6491 0-2.4929 1.5188-2.4929 3.5744z" fill-rule="evenodd"/><path clip-rule="evenodd" d="m106.688 29.787c3.367 0 5.76-1.5341 5.76-4.4719v-11.8969h-3.244v1.979h-.123c-.437-.9588-1.396-2.1324-3.367-2.1324-2.585 0-4.771 2.0097-4.771 6.0213 0 3.9196 2.124 5.7452 4.778 5.7452 1.879 0 2.93-.9435 3.36-1.9176h.138v2.1554c0 1.5417-1.036 2.1707-2.455 2.1707-1.442 0-2.17-.629-2.439-1.2656l-3.022.4065c.391 1.7796 2.209 3.2063 5.385 3.2063zm.069-7.2103c-1.603 0-2.478-1.2733-2.478-3.3059 0-2.002.859-3.4057 2.478-3.4057 1.588 0 2.477 1.3423 2.477 3.4057 0 2.0787-.905 3.3059-2.477 3.3059z" fill-rule="evenodd"/><path clip-rule="evenodd" d="m125.756 21.825c-.46 2.1861-2.423 3.6052-5.338 3.6052-3.628 0-5.845-2.3319-5.845-6.0674 0-3.6358 2.247-6.098 5.714-6.098 3.115 0 5.538 1.979 5.538 5.983v.8974h-8.023v.0077c0 1.7565 1.036 2.838 2.67 2.838 1.089 0 1.932-.4678 2.262-1.3653zm-5.415-6.121c-1.45 0-2.47 1.0739-2.539 2.4162h4.948c-.008-1.4037-.99-2.4162-2.409-2.4162z" fill-rule="evenodd"/><path d="m131.225 18.3887c.008-1.5188.913-2.4085 2.233-2.4085 1.311 0 2.101.859 2.094 2.3011v6.9187h3.267v-7.5017c0-2.746-1.611-4.4335-4.065-4.4335-1.749 0-3.015.8591-3.544 2.2321h-.138v-2.0787h-3.114v11.7818h3.267z"/><path clip-rule="evenodd" d="m152.103 21.825c-.461 2.1861-2.424 3.6052-5.339 3.6052-3.628 0-5.845-2.3319-5.845-6.0674 0-3.6358 2.247-6.098 5.715-6.098 3.114 0 5.538 1.979 5.538 5.983v.8974h-8.024v.0077c0 1.7565 1.036 2.838 2.67 2.838 1.089 0 1.933-.4678 2.262-1.3653zm-5.416-6.121c-1.45 0-2.47 1.0739-2.539 2.4162h4.948c-.008-1.4037-.99-2.4162-2.409-2.4162z" fill-rule="evenodd"/><path d="m160.571 13.4182h-2.217v-2.8227h-3.268v2.8227h-1.61v2.4546h1.61v6.1363c-.015 2.3088 1.557 3.4517 3.928 3.352.843-.0307 1.442-.1994 1.772-.3068l-.514-2.4315-.067.013c-.178.0352-.477.0944-.746.0944-.652 0-1.105-.2455-1.105-1.1506v-5.7068h2.217z"/><path d="m165.967 25.2h-3.268v-11.7818h3.268z"/><path d="m166.113 10.2427c0 .9127-.798 1.6568-1.772 1.6568-.967 0-1.764-.7441-1.764-1.6568 0-.90516.797-1.64919 1.764-1.64919.974 0 1.772.74403 1.772 1.64919z"/><path d="m173.908 25.4302c3.137 0 5.108-1.841 5.262-4.5486h-3.084c-.192 1.2579-1.02 1.9636-2.14 1.9636-1.526 0-2.516-1.281-2.516-3.5361 0-2.2244.997-3.4977 2.516-3.4977 1.197 0 1.964.7901 2.14 1.9636h3.084c-.138-2.723-2.202-4.5102-5.278-4.5102-3.574 0-5.783 2.4776-5.783 6.0904 0 3.5821 2.171 6.075 5.799 6.075z"/><path d="m186.048 13.2648c2.976 0 4.725 1.3423 5.017 3.5131l-2.992.1841c-.161-.7594-.836-1.3807-1.971-1.3807-1.013 0-1.81.4602-1.803 1.1659-.007.5676.399.9435 1.496 1.1812l2.132.4296c2.286.4679 3.398 1.4881 3.406 3.1909-.008 2.3242-2.194 3.8813-5.246 3.8813-3.122 0-5.04-1.3884-5.347-3.6435l3.214-.1688c.2.9588.974 1.4574 2.14 1.4574 1.143 0 1.902-.4986 1.918-1.1966-.016-.5906-.483-.9664-1.511-1.1735l-2.041-.4066c-2.301-.4602-3.413-1.6031-3.405-3.3673-.008-2.2705 1.979-3.6665 4.993-3.6665z"/><path clip-rule="evenodd" d="m86.0767 33.6v8.4h.9v-3.144h2.244c.52 0 .988-.116 1.404-.348.424-.232.756-.548.996-.948.24-.408.36-.852.36-1.332s-.12-.92-.36-1.32c-.24-.408-.572-.728-.996-.96-.416-.232-.884-.348-1.404-.348zm4.476 3.9c-.344.336-.788.504-1.332.504h-2.244v-3.552h2.244c.36 0 .68.08.96.24.28.152.5.364.66.636.16.264.24.564.24.9 0 .512-.176.936-.528 1.272z" fill-rule="evenodd"/><path clip-rule="evenodd" d="m80.063 36.408c-.336-.192-.724-.288-1.164-.288-.456 0-.868.104-1.236.312-.368.2-.672.448-.912.744l.54.516c.232-.24.472-.432.72-.576.256-.152.552-.228.888-.228.432 0 .78.132 1.044.396.272.264.408.612.408 1.044v.012l-2.088.348c-.584.096-1.036.304-1.356.624-.32.312-.48.7-.48 1.164 0 .288.08.56.24.816.168.248.396.448.684.6.296.152.632.228 1.008.228.464 0 .876-.108 1.236-.324s.616-.456.768-.72h.012v.924h.78v-3.624c0-.44-.096-.828-.288-1.164-.192-.344-.46-.612-.804-.804zm-.66 4.716c-.288.168-.608.252-.96.252-.36 0-.652-.092-.876-.276-.216-.184-.324-.408-.324-.672 0-.272.1-.5.3-.684s.504-.312.912-.384l1.896-.312v.408c0 .36-.084.688-.252.984-.168.288-.4.516-.696.684z" fill-rule="evenodd"/><path d="m93.465 42v-8.4h.816v3.564h.012c.152-.272.396-.512.732-.72.344-.216.728-.324 1.152-.324.44 0 .836.104 1.188.312s.628.5.828.876.3.808.3 1.296v3.396h-.816v-3.396c0-.504-.152-.912-.456-1.224-.296-.312-.676-.468-1.14-.468-.336 0-.64.084-.912.252-.272.16-.488.384-.648.672s-.24.612-.24.972v3.192z"/><path clip-rule="evenodd" d="m103.571 36.408c-.336-.192-.724-.288-1.164-.288-.456 0-.868.104-1.236.312-.368.2-.672.448-.912.744l.54.516c.232-.24.472-.432.72-.576.256-.152.552-.228.888-.228.432 0 .78.132 1.044.396.272.264.408.612.408 1.044v.012l-2.088.348c-.584.096-1.036.304-1.356.624-.32.312-.4802.7-.4802 1.164 0 .288.0802.56.2402.816.168.248.396.448.684.6.296.152.632.228 1.008.228.464 0 .876-.108 1.236-.324s.616-.456.768-.72h.012v.924h.78v-3.624c0-.44-.096-.828-.288-1.164-.192-.344-.46-.612-.804-.804zm-.66 4.716c-.288.168-.608.252-.96.252-.36 0-.652-.092-.876-.276-.216-.184-.324-.408-.324-.672 0-.272.1-.5.3-.684s.504-.312.912-.384l1.896-.312v.408c0 .36-.084.688-.252.984-.168.288-.4.516-.696.684z" fill-rule="evenodd"/><path d="m106.495 42v-5.76h.816v.9h.012c.152-.264.396-.5.732-.708.344-.208.732-.312 1.164-.312h.264v.84c-.112-.016-.224-.024-.336-.024-.336 0-.644.084-.924.252s-.504.4-.672.696c-.16.296-.24.628-.24.996v3.12z"/><path d="m110.667 36.24v5.76h.816v-3.216c0-.568.148-1.02.444-1.356.304-.344.684-.516 1.14-.516.416 0 .76.152 1.032.456.28.296.42.7.42 1.212v3.42h.816v-3.216c0-.568.148-1.02.444-1.356.304-.344.684-.516 1.14-.516.416 0 .76.152 1.032.456.272.296.408.7.408 1.212v3.42h.816v-3.42c0-.488-.096-.916-.288-1.284-.192-.376-.452-.664-.78-.864-.32-.208-.676-.312-1.068-.312-.488 0-.908.12-1.26.36-.344.24-.58.504-.708.792h-.024c-.136-.288-.368-.552-.696-.792s-.712-.36-1.152-.36c-.416 0-.776.104-1.08.312-.296.208-.504.44-.624.696h-.012v-.888z"/><path clip-rule="evenodd" d="m123.09 36.12c.44 0 .828.096 1.164.288.344.192.612.46.804.804.192.336.288.724.288 1.164v3.624h-.78v-.924h-.012c-.152.264-.408.504-.768.72s-.772.324-1.236.324c-.376 0-.712-.076-1.008-.228-.288-.152-.516-.352-.684-.6-.16-.256-.24-.528-.24-.816 0-.464.16-.852.48-1.164.32-.32.772-.528 1.356-.624l2.088-.348v-.012c0-.432-.136-.78-.408-1.044-.264-.264-.612-.396-1.044-.396-.336 0-.632.076-.888.228-.248.144-.488.336-.72.576l-.54-.516c.24-.296.544-.544.912-.744.368-.208.78-.312 1.236-.312zm-.456 5.256c.352 0 .672-.084.96-.252.296-.168.528-.396.696-.684.168-.296.252-.624.252-.984v-.408l-1.896.312c-.408.072-.712.2-.912.384s-.3.412-.3.684c0 .264.108.488.324.672.224.184.516.276.876.276z" fill-rule="evenodd"/><path d="m126.425 42h.936l1.704-2.436h.024l1.692 2.436h.984l-2.148-3 1.968-2.76h-.948l-1.512 2.196h-.024l-1.524-2.196h-.972l1.968 2.76z"/><path clip-rule="evenodd" d="m135.324 42.12c-.528 0-1.016-.132-1.464-.396-.448-.272-.804-.636-1.068-1.092s-.396-.96-.396-1.512.132-1.056.396-1.512.62-.816 1.068-1.08c.448-.272.936-.408 1.464-.408s1.016.136 1.464.408c.448.264.804.624 1.068 1.08s.396.96.396 1.512-.132 1.056-.396 1.512-.62.82-1.068 1.092c-.448.264-.936.396-1.464.396zm0-.792c.384 0 .736-.096 1.056-.288.328-.192.584-.456.768-.792.192-.344.288-.72.288-1.128s-.096-.78-.288-1.116c-.184-.344-.44-.612-.768-.804-.32-.192-.672-.288-1.056-.288s-.74.096-1.068.288c-.32.192-.576.46-.768.804-.184.336-.276.708-.276 1.116s.092.784.276 1.128c.192.336.448.6.768.792.328.192.684.288 1.068.288z" fill-rule="evenodd"/><path d="m143.562 41.724c.448.264.932.396 1.452.396.528 0 .996-.12 1.404-.36.416-.24.74-.52.972-.84l-.6-.492c-.2.248-.448.46-.744.636s-.64.264-1.032.264c-.376 0-.724-.096-1.044-.288-.312-.192-.564-.456-.756-.792-.184-.344-.276-.72-.276-1.128s.092-.78.276-1.116c.192-.344.444-.612.756-.804.32-.192.668-.288 1.044-.288.696 0 1.28.292 1.752.876l.6-.492c-.232-.312-.552-.584-.96-.816-.4-.24-.864-.36-1.392-.36-.52 0-1.004.136-1.452.408-.44.264-.792.624-1.056 1.08-.256.456-.384.96-.384 1.512s.128 1.056.384 1.512c.264.456.616.82 1.056 1.092z"/><path clip-rule="evenodd" d="m151.156 42.12c-.528 0-1.016-.132-1.464-.396-.448-.272-.804-.636-1.068-1.092s-.396-.96-.396-1.512.132-1.056.396-1.512.62-.816 1.068-1.08c.448-.272.936-.408 1.464-.408s1.016.136 1.464.408c.448.264.804.624 1.068 1.08s.396.96.396 1.512-.132 1.056-.396 1.512-.62.82-1.068 1.092c-.448.264-.936.396-1.464.396zm0-.792c.384 0 .736-.096 1.056-.288.328-.192.584-.456.768-.792.192-.344.288-.72.288-1.128s-.096-.78-.288-1.116c-.184-.344-.44-.612-.768-.804-.32-.192-.672-.288-1.056-.288s-.74.096-1.068.288c-.32.192-.576.46-.768.804-.184.336-.276.708-.276 1.116s.092.784.276 1.128c.192.336.448.6.768.792.328.192.684.288 1.068.288z" fill-rule="evenodd"/><path d="m156.401 36.24h-.816v5.76h.816v-3.216c0-.568.148-1.02.444-1.356.304-.344.684-.516 1.14-.516.416 0 .76.152 1.032.456.28.296.42.7.42 1.212v3.42h.816v-3.216c0-.568.148-1.02.444-1.356.304-.344.684-.516 1.14-.516.416 0 .76.152 1.032.456.272.296.408.7.408 1.212v3.42h.816v-3.42c0-.488-.096-.916-.288-1.284-.192-.376-.452-.664-.78-.864-.32-.208-.676-.312-1.068-.312-.488 0-.908.12-1.26.36-.344.24-.58.504-.708.792h-.024c-.136-.288-.368-.552-.696-.792s-.712-.36-1.152-.36c-.416 0-.776.104-1.08.312-.296.208-.504.44-.624.696h-.012z"/><path clip-rule="evenodd" d="m165.932 44.52v-8.28h.816v.996h.012c.16-.288.428-.544.804-.768.376-.232.808-.348 1.296-.348.48 0 .924.132 1.332.396.416.256.748.612.996 1.068s.372.968.372 1.536-.124 1.08-.372 1.536-.58.816-.996 1.08c-.408.256-.852.384-1.332.384-.488 0-.92-.112-1.296-.336-.376-.232-.644-.492-.804-.78h-.012v3.516zm2.832-3.192c.352 0 .68-.096.984-.288s.544-.456.72-.792c.184-.336.276-.712.276-1.128 0-.424-.092-.804-.276-1.14-.176-.336-.416-.596-.72-.78-.304-.192-.632-.288-.984-.288-.368 0-.708.096-1.02.288-.304.184-.548.444-.732.78-.176.336-.264.716-.264 1.14 0 .416.088.792.264 1.128.184.336.428.6.732.792.312.192.652.288 1.02.288z" fill-rule="evenodd"/><path clip-rule="evenodd" d="m176.297 36.408c-.336-.192-.724-.288-1.164-.288-.456 0-.868.104-1.236.312-.368.2-.672.448-.912.744l.54.516c.232-.24.472-.432.72-.576.256-.152.552-.228.888-.228.432 0 .78.132 1.044.396.272.264.408.612.408 1.044v.012l-2.088.348c-.584.096-1.036.304-1.356.624-.32.312-.48.7-.48 1.164 0 .288.08.56.24.816.168.248.396.448.684.6.296.152.632.228 1.008.228.464 0 .876-.108 1.236-.324s.616-.456.768-.72h.012v.924h.78v-3.624c0-.44-.096-.828-.288-1.164-.192-.344-.46-.612-.804-.804zm-.66 4.716c-.288.168-.608.252-.96.252-.36 0-.652-.092-.876-.276-.216-.184-.324-.408-.324-.672 0-.272.1-.5.3-.684s.504-.312.912-.384l1.896-.312v.408c0 .36-.084.688-.252.984-.168.288-.4.516-.696.684z" fill-rule="evenodd"/><path d="m179.221 36.24h.816v.924h.012c.152-.272.396-.512.732-.72.344-.216.728-.324 1.152-.324.44 0 .836.104 1.188.312s.628.5.828.876.3.808.3 1.296v3.396h-.816v-3.396c0-.504-.152-.912-.456-1.224-.296-.312-.676-.468-1.14-.468-.336 0-.64.084-.912.252-.272.16-.488.384-.648.672s-.24.612-.24.972v3.192h-.816z"/><path d="m190.747 36.24h-.852l-1.692 4.764h-.024l-2.076-4.764h-.888l2.544 5.772-.348.864c-.224.576-.584.864-1.08.864-.12 0-.236-.016-.348-.048-.104-.032-.192-.068-.264-.108v.792c.208.096.436.144.684.144.448 0 .816-.132 1.104-.396.296-.256.548-.664.756-1.224z"/></g></svg>