<svg fill="none" height="45" viewBox="0 0 185 45" width="185" xmlns="http://www.w3.org/2000/svg"><path d="m17.9626 9c3.8919 0 6.4366 1.875 8.3825 4.05.1497.15.2245.3.3742.45s.2246.3.3743.45c.6736.825 1.1975 1.725 1.7214 2.475.3742.525.6736 1.05 1.0478 1.5.1497.15.2245.3.3742.45s.2245.3.3742.45c1.4221 1.725 2.8441 2.85 4.9397 3 .2994-1.275.4491-2.55.4491-3.9s-.1497-2.7-.4491-3.9c-2.0956.15-3.5176 1.2-4.9397 3-.2245-.375-.5239-.75-.8233-1.2-.5987-.825-1.1975-1.8-1.9459-2.775 1.4969-1.725 3.368-3.225 5.9127-3.825-3.1435-5.475-9.0562-9.225-15.7921-9.225-6.736 0-12.64867 3.75-15.71728 9.225 2.5447.6 4.34096 2.1 5.91268 3.825.14969.15.22454.3.37422.45.14969.15.22454.3.37423.45.74844.9 1.34715 1.875 1.94595 2.775.2994.45.5239.825.8233 1.2.1497.15.2245.3.3742.525.1497.15.2245.3.3742.525 1.5717 2.175 3.1435 3.675 5.6133 3.675 2.4699 0 4.0416-1.5 5.6133-3.675.1497.3.3742.525.5239.825.6736.975 1.3472 2.1 2.1705 3.075-1.8711 2.175-4.4906 4.05-8.3825 4.05s-6.4366-1.875-8.38256-4.05c-.14969-.15-.22453-.3-.37422-.45s-.22453-.3-.37422-.45c-.6736-.825-1.1975-1.725-1.72141-2.475-.37422-.525-.6736-1.05-1.04782-1.5-.14969-.15-.22453-.3-.37422-.45s-.22453-.3-.37422-.45c-1.42204-1.725-2.84408-2.85-4.93971-3-.224532 1.2-.37422 2.55-.37422 3.9s.149688 2.7.449064 3.9c2.095636-.15 3.517676-1.2 4.939706-3 .22454.375.52391.75.82329 1.2.59875.825 1.1975 1.8 1.94594 2.775-1.49688 1.725-3.36798 3.225-5.91268 3.825 3.06861 5.55 8.98128 9.3 15.71728 9.3 6.7359 0 12.6486-3.75 15.7172-9.225-2.5447-.6-4.3409-2.1-5.9126-3.825-.1497-.15-.2246-.3-.3743-.45s-.2245-.3-.3742-.45c-.7484-.9-1.3472-1.875-1.9459-2.775-.2994-.45-.5239-.825-.8233-1.2-.1497-.15-.2246-.3-.3742-.525-.1497-.15-.2246-.3-.3743-.525-1.5717-2.175-3.1434-3.675-5.6133-3.675-2.4698 0-4.0415 1.5-5.6133 3.675-.1497-.3-.3742-.525-.5239-.825-.6736-.975-1.3472-2.1-2.17046-3.075 1.94596-2.25 4.49066-4.125 8.38256-4.125z" fill="#ff1744"/><g fill="#212121"><path d="m49.2656 13.1328c.474.349.7422.8386.8047 1.4688h3.2422c-.0156-.9532-.2708-1.7917-.7656-2.5157-.4948-.7239-1.1875-1.289-2.0781-1.6953-.8855-.40623-1.9219-.60935-3.1094-.60935-1.1667 0-2.2084.20312-3.125.60935-.9167.4063-1.638.9714-2.1641 1.6953-.5208.724-.7786 1.5703-.7734 2.5391-.0052 1.1823.3828 2.1224 1.164 2.8203.7813.6979 1.8464 1.2109 3.1953 1.5391l1.7422.4375c.5834.1406 1.0756.2969 1.4766.4687.4062.1719.7135.3802.9219.625.2135.2448.3203.5469.3203.9063 0 .3854-.1172.7265-.3516 1.0234s-.5651.5287-.9922.6953c-.4218.1667-.9192.25-1.4922.25-.5833 0-1.1067-.0885-1.5703-.2656-.4583-.1823-.8255-.4505-1.1015-.8047-.2709-.3594-.4245-.8073-.461-1.3437h-3.2734c.026 1.151.3047 2.1172.8359 2.8984.5365.776 1.2813 1.362 2.2344 1.7578.9583.3958 2.0833.5938 3.375.5938 1.3021 0 2.4141-.1954 3.3359-.586.9271-.3958 1.6355-.9505 2.1251-1.664.4947-.7188.7447-1.5677.7499-2.5469-.0052-.6667-.1276-1.2578-.3671-1.7735-.2344-.5156-.5651-.9635-.9922-1.3437s-.9323-.7005-1.5157-.9609c-.5833-.2605-1.2239-.4688-1.9218-.625l-1.4375-.3438c-.349-.0781-.6771-.1719-.9844-.2812-.3073-.1146-.5781-.2474-.8125-.3985-.2344-.1562-.4193-.3411-.5547-.5547-.1302-.2135-.1901-.4635-.1797-.75 0-.3437.099-.651.2969-.9218.2031-.2709.4948-.4818.875-.6328.3802-.1563.8464-.2344 1.3984-.2344.8125 0 1.4558.1745 1.9297.5234z"/><path d="m55.7441 14v12h3.3282v-7.2031c0-.4427.0859-.8281.2578-1.1563.1719-.3333.4036-.5911.6953-.7734.2969-.1875.6302-.2813 1-.2813.5469 0 .987.1745 1.3203.5235.3385.3489.5078.8177.5078 1.4062v7.4844h3.2266v-7.3281c0-.625.1692-1.1276.5078-1.5078.3385-.3855.8099-.5782 1.4141-.5782.5312 0 .9739.1667 1.3281.5.3541.3334.5312.8334.5312 1.5v7.4141h3.3203v-8.0703c0-1.3021-.3515-2.3073-1.0546-3.0156-.698-.7136-1.6068-1.0703-2.7266-1.0703-.8802 0-1.6432.2083-2.2891.625-.6406.4114-1.0833.9609-1.3281 1.6484h-.125c-.1927-.6979-.5781-1.25-1.1562-1.6563-.5782-.4114-1.2787-.6171-2.1016-.6171-.8125 0-1.5104.2031-2.0938.6093-.5833.4063-1 .961-1.25 1.6641h-.1406v-2.1172z"/><path clip-rule="evenodd" d="m79.2324 26.2266c-.7656 0-1.4479-.1328-2.0469-.3985-.5989-.2708-1.0729-.6692-1.4218-1.1953-.3438-.5312-.5157-1.1927-.5157-1.9844 0-.6666.1224-1.2265.3672-1.6796.2448-.4532.5782-.8178 1-1.0938.4219-.276.9011-.4844 1.4375-.625.5417-.1406 1.1094-.2396 1.7032-.2969.6979-.0729 1.2604-.1406 1.6875-.2031.427-.0677.7369-.1667.9296-.2969.1928-.1302.2891-.3229.2891-.5781v-.0469c0-.4948-.1562-.8776-.4687-1.1484-.3073-.2708-.7448-.4063-1.3125-.4063-.599 0-1.0756.1328-1.4297.3985-.3542.2604-.5886.5885-.7032.9844l-3.0781-.25c.1563-.7292.4636-1.3594.9219-1.8907.4583-.5364 1.0495-.9479 1.7734-1.2344.7292-.2916 1.573-.4374 2.5313-.4374.6667 0 1.3047.0781 1.914.2343.6146.1563 1.1589.3985 1.6329.7266.4791.3281.8567.75 1.1328 1.2656.276.5104.414 1.1224.414 1.8359v8.0938h-3.1562v-1.6641h-.0938c-.1927.375-.4505.7058-.7734.9922-.3229.2813-.7109.5026-1.1641.6641-.4531.1562-.9765.2344-1.5703.2344zm.9531-2.2969c.4896 0 .9219-.0964 1.2969-.2891.375-.1979.6693-.4635.8828-.7968.2136-.3334.3203-.711.3203-1.1329v-1.2734c-.1041.0677-.2473.1302-.4296.1875-.1771.0521-.3776.1016-.6016.1484-.224.0417-.4479.0808-.6719.1172-.2239.0313-.4271.0599-.6094.086-.3906.0573-.7317.1484-1.0234.2734s-.5182.2943-.6797.5078c-.1614.2083-.2422.4688-.2422.7813 0 .4531.1641.7994.4922 1.039.3334.2344.7552.3516 1.2656.3516z" fill-rule="evenodd"/><path d="m88.5723 14v12h3.3281v-6.7891c0-.4895.1094-.9218.3281-1.2968.224-.375.5261-.6667.9063-.875.3854-.2136.8229-.3203 1.3125-.3203.2291 0 .4817.0182.7578.0546.276.0365.4922.0782.6484.125v-2.9531c-.1458-.0364-.3151-.0651-.5078-.0859-.1927-.0209-.3724-.0313-.5391-.0313-.6718 0-1.2656.1927-1.7812.5782-.5156.3802-.8828.9427-1.1016 1.6875h-.125v-2.0938z"/><path d="m104.559 14v2.5h-2.258v5.8125c0 .3073.047.5469.14.7187.094.1667.224.2839.391.3516.172.0677.37.1016.594.1016.156 0 .312-.013.469-.0391.156-.0312.276-.0547.359-.0703l.523 2.4766c-.166.052-.401.1119-.703.1796-.302.073-.669.1172-1.101.1329-.802.0312-1.506-.0756-2.11-.3203-.599-.2448-1.0648-.625-1.3982-1.1407-.3333-.5156-.4974-1.1666-.4921-1.9531v-6.25h-1.6407v-2.5h1.6407v-2.875h3.3283v2.875z"/><path d="m117.484 15.6016h3.422c-.109-.9271-.359-1.75-.75-2.4688-.385-.7187-.885-1.3255-1.5-1.8203-.614-.5-1.32-.8802-2.117-1.1406-.792-.26044-1.651-.39065-2.578-.39065-1.406 0-2.672.32295-3.797.96875-1.125.6406-2.016 1.5729-2.672 2.7969-.656 1.2239-.984 2.7083-.984 4.4531 0 1.7396.323 3.2214.969 4.4453.651 1.224 1.536 2.1589 2.656 2.8047 1.125.6458 2.401.9688 3.828.9688 1.026 0 1.945-.1537 2.758-.461.817-.3125 1.521-.7344 2.109-1.2656.594-.5365 1.065-1.1432 1.414-1.8203.354-.6823.576-1.3907.664-2.125l-3.422-.0157c-.078.4271-.218.8073-.422 1.1407-.197.3333-.447.6172-.75.8515-.302.2292-.648.4037-1.039.5235-.385.1198-.804.1797-1.257.1797-.808 0-1.519-.198-2.133-.5938-.615-.3958-1.094-.9818-1.438-1.7578-.338-.776-.507-1.7344-.507-2.875 0-1.1094.169-2.0521.507-2.8281.339-.7813.815-1.375 1.43-1.7813.615-.4114 1.336-.6172 2.164-.6172.458 0 .883.0651 1.273.1954.396.1302.745.3177 1.047.5625.302.2447.55.5416.743.8906.192.3437.32.737.382 1.1797z"/><path clip-rule="evenodd" d="m128.691 26.2344c-1.213 0-2.263-.2578-3.148-.7735-.88-.5208-1.56-1.2448-2.039-2.1718-.479-.9323-.719-2.0131-.719-3.2422 0-1.2396.24-2.3229.719-3.25.479-.9323 1.159-1.6563 2.039-2.1719.885-.5208 1.935-.7812 3.148-.7812 1.214 0 2.261.2604 3.141.7812.885.5156 1.568 1.2396 2.047 2.1719.479.9271.719 2.0104.719 3.25 0 1.2291-.24 2.3099-.719 3.2422-.479.927-1.162 1.651-2.047 2.1718-.88.5157-1.927.7735-3.141.7735zm.016-2.5782c.552 0 1.013-.1562 1.383-.4687.37-.3177.648-.75.836-1.2969.192-.5468.289-1.1692.289-1.8672 0-.6979-.097-1.3203-.289-1.8672-.188-.5468-.466-.9791-.836-1.2968s-.831-.4766-1.383-.4766c-.557 0-1.026.1589-1.406.4766-.375.3177-.659.75-.852 1.2968-.187.5469-.281 1.1693-.281 1.8672 0 .698.094 1.3204.281 1.8672.193.5469.477.9792.852 1.2969.38.3125.849.4687 1.406.4687z" fill-rule="evenodd"/><path d="m140.09 26v-6.9375c.005-.5156.101-.9557.289-1.3203.193-.3698.458-.6511.797-.8438.344-.1927.739-.289 1.187-.289.667 0 1.19.2083 1.571.625.38.4114.567.9844.562 1.7187v7.0469h3.328v-7.6406c0-.9323-.172-1.7344-.515-2.4063-.344-.6771-.826-1.1979-1.446-1.5625s-1.346-.5468-2.179-.5468c-.891 0-1.649.2057-2.274.6171-.625.4063-1.07.9584-1.336 1.6563h-.14v-2.1172h-3.172v12z"/><path d="m156.83 14v2.5h-2.258v5.8125c0 .3073.047.5469.141.7187.094.1667.224.2839.391.3516.171.0677.369.1016.593.1016.157 0 .313-.013.469-.0391.156-.0312.276-.0547.359-.0703l.524 2.4766c-.167.052-.401.1119-.703.1796-.302.073-.67.1172-1.102.1329-.802.0312-1.505-.0756-2.109-.3203-.599-.2448-1.065-.625-1.399-1.1407-.333-.5156-.497-1.1666-.492-1.9531v-6.25h-1.64v-2.5h1.64v-2.875h3.328v2.875z"/><path d="m158.998 14v12h3.328v-6.7891c0-.4895.11-.9218.328-1.2968.224-.375.526-.6667.907-.875.385-.2136.822-.3203 1.312-.3203.229 0 .482.0182.758.0546.276.0365.492.0782.648.125v-2.9531c-.146-.0364-.315-.0651-.508-.0859-.192-.0209-.372-.0313-.539-.0313-.671 0-1.265.1927-1.781.5782-.515.3802-.883.9427-1.101 1.6875h-.125v-2.0938z"/><path clip-rule="evenodd" d="m172.863 26.2344c-1.213 0-2.263-.2578-3.148-.7735-.88-.5208-1.56-1.2448-2.039-2.1718-.479-.9323-.719-2.0131-.719-3.2422 0-1.2396.24-2.3229.719-3.25.479-.9323 1.159-1.6563 2.039-2.1719.885-.5208 1.935-.7812 3.148-.7812 1.214 0 2.261.2604 3.141.7812.885.5156 1.568 1.2396 2.047 2.1719.479.9271.719 2.0104.719 3.25 0 1.2291-.24 2.3099-.719 3.2422-.479.927-1.162 1.651-2.047 2.1718-.88.5157-1.927.7735-3.141.7735zm.016-2.5782c.552 0 1.013-.1562 1.383-.4687.37-.3177.648-.75.836-1.2969.192-.5468.289-1.1692.289-1.8672 0-.6979-.097-1.3203-.289-1.8672-.188-.5468-.466-.9791-.836-1.2968s-.831-.4766-1.383-.4766c-.557 0-1.026.1589-1.406.4766-.375.3177-.659.75-.852 1.2968-.187.5469-.281 1.1693-.281 1.8672 0 .698.094 1.3204.281 1.8672.193.5469.477.9792.852 1.2969.38.3125.849.4687 1.406.4687z" fill-rule="evenodd"/><path d="m180.934 26h3.328v-16h-3.328z"/><path d="m68.8697 35.4545h1.0057v6.5455h-1.0057z"/><path d="m69.3811 34.3636c-.196 0-.3651-.0667-.5071-.2002-.1392-.1336-.2088-.2941-.2088-.4816s.0696-.348.2088-.4815c.142-.1335.3111-.2003.5071-.2003s.3636.0668.5028.2003c.1421.1335.2131.294.2131.4815s-.071.348-.2131.4816c-.1392.1335-.3068.2002-.5028.2002z"/><path clip-rule="evenodd" d="m41.0569 42v-8.7273h1.0057v3.2216h.0852c.0739-.1136.1761-.2585.3068-.4346.1335-.179.3239-.3381.571-.4773.25-.1421.5881-.2131 1.0142-.2131.5512 0 1.037.1378 1.4574.4134.4205.2755.7486.6662.9844 1.1718.2358.5057.3537 1.1023.3537 1.7898 0 .6932-.1179 1.2941-.3537 1.8026-.2358.5057-.5625.8977-.9801 1.1761-.4176.2756-.8992.4134-1.4446.4134-.4205 0-.7571-.0696-1.01-.2088-.2528-.1421-.4474-.3026-.5838-.4816-.1363-.1818-.2414-.3324-.3153-.4517h-.1193v1.0057zm.9886-3.2727c0 .4943.0725.9304.2174 1.3082.1448.375.3565.669.6349.8821.2784.2102.6193.3154 1.0227.3154.4205 0 .7713-.1108 1.0526-.3324.2841-.2245.4971-.5256.6392-.9034.1449-.3807.2173-.804.2173-1.2699 0-.4603-.071-.875-.2131-1.2443-.1392-.3722-.3508-.6662-.6349-.8821-.2812-.2188-.6349-.3282-1.0611-.3282-.4091 0-.7528.1037-1.0312.3111-.2784.2046-.4887.4915-.6307.8608-.1421.3665-.2131.794-.2131 1.2827z" fill-rule="evenodd"/><path d="m48.787 44.4545c-.1705 0-.3224-.0142-.456-.0426-.1335-.0255-.2258-.0511-.277-.0767l.2557-.8863c.2443.0625.4603.0852.6478.0681.1875-.017.3536-.1008.4985-.2514.1478-.1477.2827-.3878.4049-.7201l.1875-.5114-2.4205-6.5796h1.0909l1.8068 5.216h.0682l1.8068-5.216h1.0909l-2.7784 7.5c-.125.3381-.2798.6179-.4645.8395-.1846.2245-.3991.3907-.6434.4986-.2415.108-.5142.1619-.8182.1619z"/><path d="m59.5917 33.2727h-1.2614v8.7273h.9887v-6.6307h.0852l2.7273 6.6307h.9545l2.7273-6.6307h.0852v6.6307h.9886v-8.7273h-1.2613l-2.9659 7.2443h-.1023z"/><path d="m72.7913 41.7017c.4431.2898.9715.4347 1.5852.4347.4829 0 .9062-.0895 1.2699-.2685.3665-.1818.6605-.4261.8821-.733.2244-.3096.365-.6576.4218-1.044h-1.0056c-.0625.2386-.1676.4432-.3154.6136-.1477.1705-.3281.3012-.5412.3921-.213.0909-.4503.1364-.7116.1364-.3977 0-.7443-.1037-1.0398-.3111-.2926-.2074-.5199-.4986-.6818-.8736-.1591-.375-.2386-.8153-.2386-1.321 0-.4943.0809-.9247.2429-1.2912.1647-.3693.3934-.6549.686-.8566.2955-.2045.6392-.3068 1.0313-.3068.4432 0 .7954.1165 1.0568.3495.2642.2301.4347.4943.5114.7926h1.0056c-.0568-.4091-.2031-.7671-.4389-1.0739s-.5383-.5454-.9076-.7159c-.3694-.1705-.7841-.2557-1.2444-.2557-.5909 0-1.1079.1449-1.5511.4347-.4403.2869-.7841.6861-1.0312 1.1974-.2444.5085-.3665 1.0952-.3665 1.76 0 .6534.1193 1.2343.3579 1.7429.2387.5085.5796.9076 1.0228 1.1974z"/><path d="m78.4205 35.4545h.9716v.9887h.0682c.1193-.3239.3352-.5867.6477-.7884s.6648-.3025 1.0568-.3025c.0739 0 .1662.0014.277.0042.1108.0029.1946.0071.2514.0128v1.0227c-.034-.0085-.1122-.0213-.2343-.0383-.1193-.0199-.2458-.0298-.3793-.0298-.3182 0-.6023.0667-.8523.2002-.2471.1307-.4431.3125-.588.5455-.1421.2301-.2131.4929-.2131.7884v4.142h-1.0057z"/><g clip-rule="evenodd" fill-rule="evenodd"><path d="m83.7898 41.7145c.4461.2812.9645.4219 1.5554.4219s1.108-.1407 1.5512-.4219c.446-.2813.7926-.6747 1.0397-1.1804.25-.5057.375-1.0966.375-1.7727 0-.6819-.125-1.277-.375-1.7855-.2471-.5086-.5937-.9035-1.0397-1.1847-.4432-.2813-.9603-.4219-1.5512-.4219s-1.1093.1406-1.5554.4219c-.4431.2812-.7897.6761-1.0397 1.1847-.2472.5085-.3708 1.1036-.3708 1.7855 0 .6761.1236 1.267.3708 1.7727.25.5057.5966.8991 1.0397 1.1804zm2.6634-.8267c-.2898.2301-.6591.3452-1.108.3452-.4488 0-.8181-.1151-1.1079-.3452s-.5043-.5327-.6435-.9077-.2088-.7812-.2088-1.2187.0696-.8452.2088-1.223c.1392-.3779.3537-.6833.6435-.9162.2898-.233.6591-.3495 1.1079-.3495.4489 0 .8182.1165 1.108.3495.2898.2329.5043.5383.6435.9162.1392.3778.2088.7855.2088 1.223s-.0696.8437-.2088 1.2187-.3537.6776-.6435.9077z"/><path d="m92.4883 44.5909c-.4857 0-.9034-.0625-1.2528-.1875-.3494-.1222-.6406-.2841-.8736-.4858-.2301-.1988-.4133-.4119-.5497-.6392l.8011-.5625c.091.1193.206.2557.3452.4091.1392.1562.3296.2912.571.4048.2444.1165.564.1747.9588.1747.5285 0 .9645-.1278 1.3083-.3835.3437-.2557.5156-.6562.5156-1.2017v-1.3295h-.0852c-.0739.1193-.179.267-.3154.4432-.1335.1732-.3267.3281-.5795.4644-.25.1336-.5881.2003-1.0142.2003-.5284 0-1.0028-.125-1.4233-.375-.4176-.25-.7486-.6136-.9929-1.0909-.2415-.4773-.3622-1.0568-.3622-1.7386 0-.6705.1179-1.2543.3537-1.7514.2358-.5.5639-.8864.9844-1.1591.4204-.2756.9062-.4134 1.4573-.4134.4262 0 .7642.071 1.0142.2131.2529.1392.4461.2983.5796.4773.1364.1761.2415.321.3153.4346h.1023v-1.0398h.9716v6.733c0 .5625-.1279 1.0199-.3835 1.3722-.2529.3551-.5938.615-1.0228.7798-.4261.1676-.9005.2514-1.4233.2514zm-.034-3.5966c.4034 0 .7443-.0923 1.0227-.277.2784-.1846.49-.4503.6349-.7968.1449-.3466.2174-.7614.2174-1.2444 0-.4716-.0711-.8877-.2131-1.2485-.1421-.3608-.3523-.6435-.6307-.8481-.2784-.2045-.6222-.3068-1.0312-.3068-.4262 0-.7813.108-1.0654.3239-.2812.2159-.4929.5057-.6349.8693-.1392.3636-.2088.7671-.2088 1.2102 0 .4546.071.8566.213 1.206.1449.3466.358.6193.6392.8182.2841.196.6364.294 1.0569.294z"/><path d="m98.271 41.7188c.4574.2784 1.0014.4176 1.6321.4176.4429 0 .8419-.0682 1.1979-.2046.355-.1392.653-.3324.894-.5795.242-.25.414-.5398.516-.8693l-.972-.2728c-.085.2273-.205.4176-.362.571-.156.1506-.342.2643-.558.341-.213.0738-.452.1108-.7159.1108-.4062 0-.7628-.0881-1.0696-.2642-.3068-.179-.5469-.439-.7202-.7799-.1545-.3117-.239-.6852-.2534-1.1207h4.7531v-.4262c0-.6108-.081-1.125-.243-1.5426-.161-.4176-.379-.7528-.652-1.0056-.272-.2557-.575-.4404-.907-.554-.333-.1137-.669-.1705-1.0102-.1705-.5909 0-1.1079.1449-1.5511.4347-.4403.2869-.7841.6875-1.0312 1.2017-.2444.5113-.3665 1.1023-.3665 1.7727 0 .6705.1221 1.2585.3665 1.7642.2471.5029.598.8949 1.0525 1.1762zm-.4085-3.5199c.0191-.3037.0956-.5906.2295-.8608.1563-.3154.3793-.5711.6691-.7671.2926-.1988.6392-.2983 1.0397-.2983.3632 0 .6792.0838.9462.2514.27.1677.477.3964.622.6861.148.2898.222.6193.222.9887z"/></g><path d="m105.149 38.0625v3.9375h-1.006v-6.5455h.972v1.0228h.085c.153-.3324.386-.5995.699-.8012.312-.2045.716-.3068 1.21-.3068.443 0 .831.0909 1.163.2727.333.179.591.4518.776.8182.185.3637.277.8239.277 1.3807v4.1591h-1.006v-4.0909c0-.5142-.133-.9148-.4-1.2017-.267-.2898-.634-.4347-1.1-.4347-.321 0-.608.0696-.86.2088-.25.1392-.448.3424-.593.6094-.145.2671-.217.5909-.217.9716z"/><path clip-rule="evenodd" d="m112.275 41.7188c.457.2784 1.001.4176 1.632.4176.443 0 .842-.0682 1.197-.2046.356-.1392.654-.3324.895-.5795.242-.25.414-.5398.516-.8693l-.972-.2728c-.085.2273-.206.4176-.362.571-.156.1506-.342.2643-.558.341-.213.0738-.452.1108-.716.1108-.406 0-.763-.0881-1.07-.2642-.306-.179-.546-.439-.72-.7799-.154-.3117-.239-.6852-.253-1.1207h4.753v-.4262c0-.6108-.081-1.125-.243-1.5426s-.379-.7528-.652-1.0056c-.272-.2557-.575-.4404-.907-.554-.333-.1137-.669-.1705-1.01-.1705-.591 0-1.108.1449-1.551.4347-.441.2869-.784.6875-1.032 1.2017-.244.5113-.366 1.1023-.366 1.7727 0 .6705.122 1.2585.366 1.7642.248.5029.598.8949 1.053 1.1762zm-.409-3.5199c.02-.3037.096-.5906.23-.8608.156-.3154.379-.5711.669-.7671.293-.1988.639-.2983 1.04-.2983.363 0 .679.0838.946.2514.27.1677.477.3964.622.6861.148.2898.222.6193.222.9887z" fill-rule="evenodd"/><path d="m120.994 35.4545v.8523h-1.398v3.8182c0 .2841.041.4972.124.6392.085.1392.193.233.323.2813.134.0454.275.0681.422.0681.111 0 .202-.0056.273-.017l.17-.0341.205.9034c-.068.0256-.163.0511-.286.0767-.122.0284-.277.0426-.464.0426-.284 0-.563-.0611-.835-.1832-.27-.1222-.495-.3082-.674-.5582-.176-.25-.264-.5654-.264-.9461v-4.0909h-.988v-.8523h.988v-1.5681h1.006v1.5681z"/><path d="m123.512 35.4545h-1.006v6.5455h1.006z"/><path d="m122.511 34.1634c.142.1335.311.2002.507.2002s.363-.0667.503-.2002c.142-.1336.213-.2941.213-.4816s-.071-.348-.213-.4815c-.14-.1335-.307-.2003-.503-.2003s-.365.0668-.507.2003c-.139.1335-.209.294-.209.4815s.07.348.209.4816z"/><path d="m128.013 42.1364c-.613 0-1.142-.1449-1.585-.4347s-.784-.6889-1.023-1.1974c-.238-.5086-.358-1.0895-.358-1.7429 0-.6648.122-1.2515.367-1.76.247-.5113.591-.9105 1.031-1.1974.443-.2898.96-.4347 1.551-.4347.46 0 .875.0852 1.244.2557.37.1705.672.4091.908.7159s.382.6648.439 1.0739h-1.006c-.076-.2983-.247-.5625-.511-.7926-.261-.233-.614-.3495-1.057-.3495-.392 0-.736.1023-1.031.3068-.293.2017-.521.4873-.686.8566-.162.3665-.243.7969-.243 1.2912 0 .5057.08.946.239 1.321.162.375.389.6662.681.8736.296.2074.642.3111 1.04.3111.262 0 .499-.0455.712-.1364s.393-.2216.541-.3921c.148-.1704.253-.375.315-.6136h1.006c-.057.3864-.197.7344-.422 1.044-.221.3069-.515.5512-.882.733-.364.179-.787.2685-1.27.2685z"/><path d="m135.79 37.1761.904-.2556c-.157-.466-.421-.841-.793-1.125-.369-.2841-.878-.4262-1.526-.4262-.46 0-.872.081-1.235.2429-.361.1619-.647.385-.857.669-.207.2841-.311.6108-.311.9802 0 .4517.139.8281.418 1.1292.281.2983.721.5185 1.321.6605l1.091.2557c.329.0767.573.1932.733.3494.159.1535.238.3438.238.5711 0 .2812-.139.5227-.417.7244-.276.1989-.648.2983-1.117.2983-.412 0-.746-.0881-1.001-.2642-.253-.1761-.425-.4403-.516-.7926l-.955.2386c.117.5568.394.9801.831 1.2699.438.2898.99.4347 1.658.4347.509 0 .955-.0853 1.338-.2557.384-.1705.682-.4034.895-.6989.216-.2954.324-.6307.324-1.0057 0-.4573-.144-.8309-.43-1.1207-.287-.2926-.723-.5099-1.309-.652l-.971-.2386c-.387-.0966-.671-.2174-.853-.3622-.181-.1449-.272-.3424-.272-.5924 0-.2812.132-.5128.396-.6946.267-.1846.601-.277 1.001-.277.293 0 .533.0469.721.1407.187.0937.335.213.443.3579.111.1421.194.2884.251.4389z"/></g></svg>