<svg fill="none" height="45" viewBox="0 0 192 45" width="192" xmlns="http://www.w3.org/2000/svg"><g fill="#212121"><path d="m26.3451 13.05c-1.9459-2.175-4.4906-4.05-8.3825-4.05s-6.4366 1.875-8.38256 4.125c.58856.697 1.10066 1.4708 1.59096 2.2115.1955.2954.3875.5855.5795.8635.0749.15.1684.2813.262.4125.0935.1313.1871.2625.2619.4125 1.5718-2.175 3.1435-3.675 5.6133-3.675 2.4699 0 4.0416 1.5 5.6133 3.675.0401.0603.0749.1152.1071.1661.0881.1393.1576.2491.2672.3589.0401.0603.0748.1152.107.1662.0881.1392.1576.249.2672.3588.222.2781.4029.5562.6036.865.07.1075.1423.2187.2197.335.1185.1782.2371.3594.3569.5424.4848.7408.9888 1.5108 1.589 2.2326.0749.075.131.15.1871.225.0562.075.1123.15.1871.225.0749.075.131.15.1871.225.0562.075.1123.15.1872.225 1.5717 1.725 3.3679 3.225 5.9126 3.825-3.0686 5.475-8.9813 9.225-15.7172 9.225-6.736 0-12.64867-3.75-15.71728-9.3 2.5447-.6 4.4158-2.1 5.91268-3.825-.44615-.5812-.83912-1.1624-1.2106-1.7119-.25169-.3722-.49351-.7299-.73534-1.0631-.12497-.1878-.24994-.3626-.36946-.5298-.16681-.2333-.32302-.4517-.45383-.6702-1.42203 1.8-2.84407 2.85-4.939706 3-.299376-1.2-.449064-2.55-.449064-3.9s.149688-2.7.37422-3.9c2.09563.15 3.51767 1.275 4.93971 3 .07484.075.13098.15.18711.225s.11227.15.18711.225.13098.15.18711.225.11227.15.18711.225c.23357.2809.43798.5909.64963.912.12745.1934.25753.3907.39819.588.1733.2481.3466.5126.52532.7854.36157.5518.74531 1.1375 1.19609 1.6896.07484.075.13098.15.18711.225s.11227.15.18711.225.13098.15.18711.225.11227.15.18711.225c1.94596 2.175 4.49066 4.05 8.38256 4.05s6.5114-1.875 8.3825-4.05c-.5886-.697-1.1006-1.4708-1.5909-2.2115-.1955-.2954-.3875-.5855-.5796-.8635-.0748-.15-.1684-.2812-.2619-.4125-.0936-.1312-.1871-.2625-.262-.4125-1.5717 2.175-3.1434 3.675-5.6133 3.675-2.4698 0-4.0416-1.5-5.6133-3.675-.0401-.0603-.0748-.1152-.1071-.1662-.0881-.1392-.1575-.249-.2671-.3588-.0401-.0603-.0749-.1152-.1071-.1662-.0881-.1392-.1575-.249-.2671-.3588-.2221-.2781-.4029-.5562-.6037-.865-.0699-.1075-.1423-.2187-.2196-.335-.1186-.1782-.2372-.3594-.3569-.5424-.4849-.7408-.98883-1.5108-1.58905-2.2326-.07485-.075-.13098-.15-.18712-.225-.05613-.075-.11226-.15-.18711-.225-.07484-.075-.13097-.15-.18711-.225-.05613-.075-.11226-.15-.18711-.225-1.57172-1.725-3.36798-3.225-5.91268-3.825 3.06861-5.475 8.98128-9.225 15.71728-9.225 6.7359 0 12.6486 3.75 15.7921 9.225-2.5447.6-4.4158 2.1-5.9127 3.825.4462.5812.8391 1.1624 1.2106 1.7119.2517.3722.4935.7299.7353 1.0631.125.1878.25.3626.3695.5298.1668.2333.323.4517.4538.6702 1.4221-1.8 2.8441-2.85 4.9397-3 .2994 1.2.4491 2.55.4491 3.9s-.1497 2.625-.4491 3.9c-2.0956-.15-3.5176-1.275-4.9397-3-.0748-.075-.1309-.15-.1871-.225-.0561-.075-.1123-.15-.1871-.225s-.131-.15-.1871-.225-.1123-.15-.1871-.225c-.2336-.2809-.438-.5909-.6496-.912-.1275-.1933-.2576-.3907-.3982-.588-.1733-.2481-.3466-.5126-.5254-.7854-.3615-.5518-.7453-1.1375-1.196-1.6896-.0749-.075-.131-.15-.1872-.225-.0561-.075-.1122-.15-.1871-.225-.0748-.075-.1309-.15-.1871-.225-.0561-.075-.1122-.15-.1871-.225z"/><path d="m62.5001 11.8995c.9742 0 1.7719-.7441 1.7719-1.6568 0-.90516-.7977-1.64919-1.7719-1.64919-.9664 0-1.7642.74403-1.7642 1.64919 0 .9127.7978 1.6568 1.7642 1.6568z"/><path d="m60.8587 25.2h3.2676v-11.7818h-3.2676z"/><path d="m40.9653 25.2v-15.70905h4.0961l4.3261 10.55455h.1841l4.3261-10.55455h4.096v15.70905h-3.2215v-10.2247h-.1304l-4.0654 10.148h-2.1937l-4.0654-10.1863h-.1304v10.263z"/><path d="m77.329 20.8816c-.1534 2.7076-2.1247 4.5486-5.2619 4.5486-3.6281 0-5.7989-2.4929-5.7989-6.075 0-3.6128 2.2091-6.0904 5.7836-6.0904 3.0758 0 5.1392 1.7872 5.2772 4.5102h-3.0835c-.1764-1.1735-.9434-1.9636-2.14-1.9636-1.5188 0-2.5159 1.2733-2.5159 3.4977 0 2.2551.9894 3.5361 2.5159 3.5361 1.1198 0 1.9483-.7057 2.14-1.9636z"/><path d="m82.6888 25.2h-3.2676v-11.7818h3.1679v2.0557h.1227c.4295-1.4574 1.5034-2.2244 2.8304-2.2244.629 0 1.1812.1687 1.6108.4295l-.9818 2.7c-.3069-.1534-.6674-.2761-1.1123-.2761-1.3193 0-2.3625.9895-2.3701 2.4315z"/><g clip-rule="evenodd" fill-rule="evenodd"><path d="m99.255 19.3552c0 3.6281-2.2244 6.075-5.7988 6.075-3.5745 0-5.7989-2.4469-5.7989-6.075 0-3.6512 2.2244-6.0904 5.7989-6.0904 3.5744 0 5.7988 2.4392 5.7988 6.0904zm-8.2764-.0231c0 2.0557.8438 3.5668 2.4929 3.5668 1.6185 0 2.4622-1.5111 2.4622-3.5668 0-2.0556-.8437-3.5744-2.4622-3.5744-1.6491 0-2.4929 1.5188-2.4929 3.5744z"/><path d="m112.448 25.3151c0 2.9378-2.393 4.4719-5.76 4.4719-3.176 0-4.994-1.4267-5.385-3.2063l3.022-.4065c.269.6366.997 1.2656 2.439 1.2656 1.419 0 2.455-.629 2.455-2.1707v-2.1554h-.138c-.43.9741-1.481 1.9176-3.36 1.9176-2.654 0-4.778-1.8256-4.778-5.7452 0-4.0116 2.186-6.0213 4.771-6.0213 1.971 0 2.93 1.1736 3.367 2.1324h.123v-1.979h3.244zm-8.169-6.0443c0 2.0326.875 3.3059 2.478 3.3059 1.572 0 2.477-1.2272 2.477-3.3059 0-2.0634-.889-3.4057-2.477-3.4057-1.619 0-2.478 1.4037-2.478 3.4057z"/><path d="m125.756 21.825c-.46 2.1861-2.423 3.6052-5.338 3.6052-3.628 0-5.845-2.3319-5.845-6.0674 0-3.6358 2.247-6.098 5.714-6.098 3.115 0 5.538 1.979 5.538 5.983v.8974h-8.023v.0077c0 1.7565 1.036 2.838 2.67 2.838 1.089 0 1.932-.4678 2.262-1.3653zm-5.415-6.121c-1.45 0-2.47 1.0739-2.539 2.4162h4.948c-.008-1.4037-.99-2.4162-2.409-2.4162z"/></g><path d="m133.458 15.9802c-1.32 0-2.225.8897-2.233 2.4085v6.8113h-3.267v-11.7818h3.114v2.0787h.138c.529-1.373 1.795-2.2321 3.544-2.2321 2.454 0 4.065 1.6875 4.065 4.4335v7.5017h-3.267v-6.9187c.007-1.4421-.783-2.3011-2.094-2.3011z"/><path clip-rule="evenodd" d="m152.103 21.825c-.461 2.1861-2.424 3.6052-5.339 3.6052-3.628 0-5.845-2.3319-5.845-6.0674 0-3.6358 2.247-6.098 5.715-6.098 3.114 0 5.538 1.979 5.538 5.983v.8974h-8.024v.0077c0 1.7565 1.036 2.838 2.67 2.838 1.089 0 1.933-.4678 2.262-1.3653zm-5.416-6.121c-1.45 0-2.47 1.0739-2.539 2.4162h4.948c-.008-1.4037-.99-2.4162-2.409-2.4162z" fill-rule="evenodd"/><path d="m158.354 13.4182h2.217v2.4546h-2.217v5.7068c0 .9051.453 1.1506 1.105 1.1506.269 0 .568-.0592.746-.0944l.067-.013.514 2.4315c-.33.1074-.929.2761-1.772.3068-2.371.0997-3.943-1.0432-3.928-3.352v-6.1363h-1.61v-2.4546h1.61v-2.8227h3.268z"/><path d="m165.967 25.2h-3.268v-11.7818h3.268z"/><path d="m164.341 11.8995c.974 0 1.772-.7441 1.772-1.6568 0-.90516-.798-1.64919-1.772-1.64919-.967 0-1.764.74403-1.764 1.64919 0 .9127.797 1.6568 1.764 1.6568z"/><path d="m173.908 25.4302c3.137 0 5.108-1.841 5.262-4.5486h-3.084c-.192 1.2579-1.02 1.9636-2.14 1.9636-1.526 0-2.516-1.281-2.516-3.5361 0-2.2244.997-3.4977 2.516-3.4977 1.197 0 1.964.7901 2.14 1.9636h3.084c-.138-2.723-2.202-4.5102-5.278-4.5102-3.574 0-5.783 2.4776-5.783 6.0904 0 3.5821 2.171 6.075 5.799 6.075z"/><path d="m191.065 16.7779c-.292-2.1708-2.041-3.5131-5.017-3.5131-3.014 0-5.001 1.396-4.993 3.6665-.008 1.7642 1.104 2.9071 3.405 3.3673l2.041.4066c1.028.2071 1.495.5829 1.511 1.1735-.016.698-.775 1.1966-1.918 1.1966-1.166 0-1.94-.4986-2.14-1.4574l-3.214.1688c.307 2.2551 2.225 3.6435 5.347 3.6435 3.052 0 5.238-1.5571 5.246-3.8813-.008-1.7028-1.12-2.723-3.406-3.1909l-2.132-.4296c-1.097-.2377-1.503-.6136-1.496-1.1812-.007-.7057.79-1.1659 1.803-1.1659 1.135 0 1.81.6213 1.971 1.3807z"/><path clip-rule="evenodd" d="m86.0767 33.6v8.4h.9v-3.144h2.244c.52 0 .988-.116 1.404-.348.424-.232.756-.548.996-.948.24-.408.36-.852.36-1.332s-.12-.92-.36-1.32c-.24-.408-.572-.728-.996-.96-.416-.232-.884-.348-1.404-.348zm4.476 3.9c-.344.336-.788.504-1.332.504h-2.244v-3.552h2.244c.36 0 .68.08.96.24.28.152.5.364.66.636.16.264.24.564.24.9 0 .512-.176.936-.528 1.272z" fill-rule="evenodd"/><path clip-rule="evenodd" d="m78.899 36.12c.44 0 .828.096 1.164.288.344.192.612.46.804.804.192.336.288.724.288 1.164v3.624h-.78v-.924h-.012c-.152.264-.408.504-.768.72s-.772.324-1.236.324c-.376 0-.712-.076-1.008-.228-.288-.152-.516-.352-.684-.6-.16-.256-.24-.528-.24-.816 0-.464.16-.852.48-1.164.32-.32.772-.528 1.356-.624l2.088-.348v-.012c0-.432-.136-.78-.408-1.044-.264-.264-.612-.396-1.044-.396-.336 0-.632.076-.888.228-.248.144-.488.336-.72.576l-.54-.516c.24-.296.544-.544.912-.744.368-.208.78-.312 1.236-.312zm-.456 5.256c.352 0 .672-.084.96-.252.296-.168.528-.396.696-.684.168-.296.252-.624.252-.984v-.408l-1.896.312c-.408.072-.712.2-.912.384s-.3.412-.3.684c0 .264.108.488.324.672.224.184.516.276.876.276z" fill-rule="evenodd"/><path d="m93.465 42v-8.4h.816v3.564h.012c.152-.272.396-.512.732-.72.344-.216.728-.324 1.152-.324.44 0 .836.104 1.188.312s.628.5.828.876.3.808.3 1.296v3.396h-.816v-3.396c0-.504-.152-.912-.456-1.224-.296-.312-.676-.468-1.14-.468-.336 0-.64.084-.912.252-.272.16-.488.384-.648.672s-.24.612-.24.972v3.192z"/><path clip-rule="evenodd" d="m102.407 36.12c.44 0 .828.096 1.164.288.344.192.612.46.804.804.192.336.288.724.288 1.164v3.624h-.78v-.924h-.012c-.152.264-.408.504-.768.72s-.772.324-1.236.324c-.376 0-.712-.076-1.008-.228-.288-.152-.516-.352-.684-.6-.16-.256-.2402-.528-.2402-.816 0-.464.1602-.852.4802-1.164.32-.32.772-.528 1.356-.624l2.088-.348v-.012c0-.432-.136-.78-.408-1.044-.264-.264-.612-.396-1.044-.396-.336 0-.632.076-.888.228-.248.144-.488.336-.72.576l-.54-.516c.24-.296.544-.544.912-.744.368-.208.78-.312 1.236-.312zm-.456 5.256c.352 0 .672-.084.96-.252.296-.168.528-.396.696-.684.168-.296.252-.624.252-.984v-.408l-1.896.312c-.408.072-.712.2-.912.384s-.3.412-.3.684c0 .264.108.488.324.672.224.184.516.276.876.276z" fill-rule="evenodd"/><path d="m106.495 42v-5.76h.816v.9h.012c.152-.264.396-.5.732-.708.344-.208.732-.312 1.164-.312h.264v.84c-.112-.016-.224-.024-.336-.024-.336 0-.644.084-.924.252s-.504.4-.672.696c-.16.296-.24.628-.24.996v3.12z"/><path d="m110.667 42v-5.76h.816v.888h.012c.12-.256.328-.488.624-.696.304-.208.664-.312 1.08-.312.44 0 .824.12 1.152.36s.56.504.696.792h.024c.128-.288.364-.552.708-.792.352-.24.772-.36 1.26-.36.392 0 .748.104 1.068.312.328.2.588.488.78.864.192.368.288.796.288 1.284v3.42h-.816v-3.42c0-.512-.136-.916-.408-1.212-.272-.304-.616-.456-1.032-.456-.456 0-.836.172-1.14.516-.296.336-.444.788-.444 1.356v3.216h-.816v-3.42c0-.512-.14-.916-.42-1.212-.272-.304-.616-.456-1.032-.456-.456 0-.836.172-1.14.516-.296.336-.444.788-.444 1.356v3.216z"/><path clip-rule="evenodd" d="m123.09 36.12c.44 0 .828.096 1.164.288.344.192.612.46.804.804.192.336.288.724.288 1.164v3.624h-.78v-.924h-.012c-.152.264-.408.504-.768.72s-.772.324-1.236.324c-.376 0-.712-.076-1.008-.228-.288-.152-.516-.352-.684-.6-.16-.256-.24-.528-.24-.816 0-.464.16-.852.48-1.164.32-.32.772-.528 1.356-.624l2.088-.348v-.012c0-.432-.136-.78-.408-1.044-.264-.264-.612-.396-1.044-.396-.336 0-.632.076-.888.228-.248.144-.488.336-.72.576l-.54-.516c.24-.296.544-.544.912-.744.368-.208.78-.312 1.236-.312zm-.456 5.256c.352 0 .672-.084.96-.252.296-.168.528-.396.696-.684.168-.296.252-.624.252-.984v-.408l-1.896.312c-.408.072-.712.2-.912.384s-.3.412-.3.684c0 .264.108.488.324.672.224.184.516.276.876.276z" fill-rule="evenodd"/><path d="m127.361 42h-.936l2.148-3-1.968-2.76h.972l1.524 2.196h.024l1.512-2.196h.948l-1.968 2.76 2.148 3h-.984l-1.692-2.436h-.024z"/><path clip-rule="evenodd" d="m135.324 42.12c-.528 0-1.016-.132-1.464-.396-.448-.272-.804-.636-1.068-1.092s-.396-.96-.396-1.512.132-1.056.396-1.512.62-.816 1.068-1.08c.448-.272.936-.408 1.464-.408s1.016.136 1.464.408c.448.264.804.624 1.068 1.08s.396.96.396 1.512-.132 1.056-.396 1.512-.62.82-1.068 1.092c-.448.264-.936.396-1.464.396zm0-.792c.384 0 .736-.096 1.056-.288.328-.192.584-.456.768-.792.192-.344.288-.72.288-1.128s-.096-.78-.288-1.116c-.184-.344-.44-.612-.768-.804-.32-.192-.672-.288-1.056-.288s-.74.096-1.068.288c-.32.192-.576.46-.768.804-.184.336-.276.708-.276 1.116s.092.784.276 1.128c.192.336.448.6.768.792.328.192.684.288 1.068.288z" fill-rule="evenodd"/><path d="m145.014 42.12c-.52 0-1.004-.132-1.452-.396-.44-.272-.792-.636-1.056-1.092-.256-.456-.384-.96-.384-1.512s.128-1.056.384-1.512c.264-.456.616-.816 1.056-1.08.448-.272.932-.408 1.452-.408.528 0 .992.12 1.392.36.408.232.728.504.96.816l-.6.492c-.472-.584-1.056-.876-1.752-.876-.376 0-.724.096-1.044.288-.312.192-.564.46-.756.804-.184.336-.276.708-.276 1.116s.092.784.276 1.128c.192.336.444.6.756.792.32.192.668.288 1.044.288.392 0 .736-.088 1.032-.264s.544-.388.744-.636l.6.492c-.232.32-.556.6-.972.84-.408.24-.876.36-1.404.36z"/><path clip-rule="evenodd" d="m151.156 42.12c-.528 0-1.016-.132-1.464-.396-.448-.272-.804-.636-1.068-1.092s-.396-.96-.396-1.512.132-1.056.396-1.512.62-.816 1.068-1.08c.448-.272.936-.408 1.464-.408s1.016.136 1.464.408c.448.264.804.624 1.068 1.08s.396.96.396 1.512-.132 1.056-.396 1.512-.62.82-1.068 1.092c-.448.264-.936.396-1.464.396zm0-.792c.384 0 .736-.096 1.056-.288.328-.192.584-.456.768-.792.192-.344.288-.72.288-1.128s-.096-.78-.288-1.116c-.184-.344-.44-.612-.768-.804-.32-.192-.672-.288-1.056-.288s-.74.096-1.068.288c-.32.192-.576.46-.768.804-.184.336-.276.708-.276 1.116s.092.784.276 1.128c.192.336.448.6.768.792.328.192.684.288 1.068.288z" fill-rule="evenodd"/><path d="m155.585 36.24h.816v.888h.012c.12-.256.328-.488.624-.696.304-.208.664-.312 1.08-.312.44 0 .824.12 1.152.36s.56.504.696.792h.024c.128-.288.364-.552.708-.792.352-.24.772-.36 1.26-.36.392 0 .748.104 1.068.312.328.2.588.488.78.864.192.368.288.796.288 1.284v3.42h-.816v-3.42c0-.512-.136-.916-.408-1.212-.272-.304-.616-.456-1.032-.456-.456 0-.836.172-1.14.516-.296.336-.444.788-.444 1.356v3.216h-.816v-3.42c0-.512-.14-.916-.42-1.212-.272-.304-.616-.456-1.032-.456-.456 0-.836.172-1.14.516-.296.336-.444.788-.444 1.356v3.216h-.816z"/><path clip-rule="evenodd" d="m165.932 44.52v-8.28h.816v.996h.012c.16-.288.428-.544.804-.768.376-.232.808-.348 1.296-.348.48 0 .924.132 1.332.396.416.256.748.612.996 1.068s.372.968.372 1.536-.124 1.08-.372 1.536-.58.816-.996 1.08c-.408.256-.852.384-1.332.384-.488 0-.92-.112-1.296-.336-.376-.232-.644-.492-.804-.78h-.012v3.516zm2.832-3.192c.352 0 .68-.096.984-.288s.544-.456.72-.792c.184-.336.276-.712.276-1.128 0-.424-.092-.804-.276-1.14-.176-.336-.416-.596-.72-.78-.304-.192-.632-.288-.984-.288-.368 0-.708.096-1.02.288-.304.184-.548.444-.732.78-.176.336-.264.716-.264 1.14 0 .416.088.792.264 1.128.184.336.428.6.732.792.312.192.652.288 1.02.288z" fill-rule="evenodd"/><path clip-rule="evenodd" d="m175.133 36.12c.44 0 .828.096 1.164.288.344.192.612.46.804.804.192.336.288.724.288 1.164v3.624h-.78v-.924h-.012c-.152.264-.408.504-.768.72s-.772.324-1.236.324c-.376 0-.712-.076-1.008-.228-.288-.152-.516-.352-.684-.6-.16-.256-.24-.528-.24-.816 0-.464.16-.852.48-1.164.32-.32.772-.528 1.356-.624l2.088-.348v-.012c0-.432-.136-.78-.408-1.044-.264-.264-.612-.396-1.044-.396-.336 0-.632.076-.888.228-.248.144-.488.336-.72.576l-.54-.516c.24-.296.544-.544.912-.744.368-.208.78-.312 1.236-.312zm-.456 5.256c.352 0 .672-.084.96-.252.296-.168.528-.396.696-.684.168-.296.252-.624.252-.984v-.408l-1.896.312c-.408.072-.712.2-.912.384s-.3.412-.3.684c0 .264.108.488.324.672.224.184.516.276.876.276z" fill-rule="evenodd"/><path d="m179.221 36.24h.816v.924h.012c.152-.272.396-.512.732-.72.344-.216.728-.324 1.152-.324.44 0 .836.104 1.188.312s.628.5.828.876.3.808.3 1.296v3.396h-.816v-3.396c0-.504-.152-.912-.456-1.224-.296-.312-.676-.468-1.14-.468-.336 0-.64.084-.912.252-.272.16-.488.384-.648.672s-.24.612-.24.972v3.192h-.816z"/><path d="m189.895 36.24h.852l-2.484 6.66c-.208.56-.46.968-.756 1.224-.288.264-.656.396-1.104.396-.248 0-.476-.048-.684-.144v-.792c.072.04.16.076.264.108.112.032.228.048.348.048.496 0 .856-.288 1.08-.864l.348-.864-2.544-5.772h.888l2.076 4.764h.024z"/></g></svg>