<svg fill="none" height="45" viewBox="0 0 195 45" width="195" xmlns="http://www.w3.org/2000/svg"><path d="m17.9626 9c3.8919 0 6.4366 1.875 8.3825 4.05.1497.15.2245.3.3742.45s.2246.3.3743.45c.6736.825 1.1975 1.725 1.7214 2.475.3742.525.6736 1.05 1.0478 1.5.1497.15.2245.3.3742.45s.2245.3.3742.45c1.4221 1.725 2.8441 2.85 4.9397 3 .2994-1.275.4491-2.55.4491-3.9s-.1497-2.7-.4491-3.9c-2.0956.15-3.5176 1.2-4.9397 3-.2245-.375-.5239-.75-.8233-1.2-.5987-.825-1.1975-1.8-1.9459-2.775 1.4969-1.725 3.368-3.225 5.9127-3.825-3.1435-5.475-9.0562-9.225-15.7921-9.225-6.736 0-12.64867 3.75-15.71728 9.225 2.5447.6 4.34096 2.1 5.91268 3.825.14969.15.22454.3.37422.45.14969.15.22454.3.37423.45.74844.9 1.34715 1.875 1.94595 2.775.2994.45.5239.825.8233 1.2.1497.15.2245.3.3742.525.1497.15.2245.3.3742.525 1.5717 2.175 3.1435 3.675 5.6133 3.675 2.4699 0 4.0416-1.5 5.6133-3.675.1497.3.3742.525.5239.825.6736.975 1.3472 2.1 2.1705 3.075-1.8711 2.175-4.4906 4.05-8.3825 4.05s-6.4366-1.875-8.38256-4.05c-.14969-.15-.22453-.3-.37422-.45s-.22453-.3-.37422-.45c-.6736-.825-1.1975-1.725-1.72141-2.475-.37422-.525-.6736-1.05-1.04782-1.5-.14969-.15-.22453-.3-.37422-.45s-.22453-.3-.37422-.45c-1.42204-1.725-2.84408-2.85-4.93971-3-.224532 1.2-.37422 2.55-.37422 3.9s.149688 2.7.449064 3.9c2.095636-.15 3.517676-1.2 4.939706-3 .22454.375.52391.75.82329 1.2.59875.825 1.1975 1.8 1.94594 2.775-1.49688 1.725-3.36798 3.225-5.91268 3.825 3.06861 5.55 8.98128 9.3 15.71728 9.3 6.7359 0 12.6486-3.75 15.7172-9.225-2.5447-.6-4.3409-2.1-5.9126-3.825-.1497-.15-.2246-.3-.3743-.45s-.2245-.3-.3742-.45c-.7484-.9-1.3472-1.875-1.9459-2.775-.2994-.45-.5239-.825-.8233-1.2-.1497-.15-.2246-.3-.3742-.525-.1497-.15-.2246-.3-.3743-.525-1.5717-2.175-3.1434-3.675-5.6133-3.675-2.4698 0-4.0415 1.5-5.6133 3.675-.1497-.3-.3742-.525-.5239-.825-.6736-.975-1.3472-2.1-2.17046-3.075 1.94596-2.25 4.49066-4.125 8.38256-4.125z" fill="#ff1744"/><g fill="#212121"><path d="m61.459 26v-12h3.3281v12z"/><path d="m63.1309 12.4531c-.4948 0-.9193-.164-1.2735-.4922-.3489-.3333-.5234-.7317-.5234-1.1953 0-.4583.1745-.85154.5234-1.17966.3542-.33334.7787-.5 1.2735-.5s.9166.16666 1.2656.5c.3542.32812.5312.72136.5312 1.17966 0 .4636-.177.862-.5312 1.1953-.349.3282-.7708.4922-1.2656.4922z"/><path d="m41.3906 10h4.1719l4.4063 10.75h.1874l4.4063-10.75h4.1719v16h-3.2813v-10.4141h-.1328l-4.1406 10.336h-2.2344l-4.1406-10.375h-.1328v10.4531h-3.2813z"/><path d="m69.7031 25.4531c.8854.5209 1.9427.7813 3.1719.7813 1.0677 0 1.9922-.1953 2.7734-.586.7813-.3906 1.3933-.9323 1.836-1.625.4479-.6979.6979-1.5052.75-2.4218h-3.1406c-.0626.4218-.1954.7838-.3985 1.0859-.1979.2969-.4505.5234-.7578.6797-.3021.1562-.6432.2344-1.0234.2344-.5157 0-.9662-.1407-1.3516-.4219-.3854-.2813-.6849-.6901-.8984-1.2266-.2084-.5364-.3125-1.1875-.3125-1.9531 0-.7552.1067-1.3984.3203-1.9297.2135-.5312.5104-.9349.8906-1.2109.3854-.2813.8359-.4219 1.3516-.4219.6093 0 1.1015.1849 1.4765.5547.3802.3646.6146.8463.7032 1.4453h3.1406c-.0469-.9271-.2995-1.7344-.7578-2.4219-.4584-.6875-1.0808-1.2213-1.8672-1.6015-.7865-.3802-1.7032-.5703-2.75-.5703-1.2136 0-2.2604.263-3.1406.789-.8803.5208-1.5599 1.2474-2.0391 2.1797-.474.9271-.7109 2.0052-.7109 3.2344 0 1.2135.2343 2.2864.7031 3.2187.4739.9323 1.151 1.6615 2.0312 2.1875z"/><path d="m80.3652 26v-12h3.2266v2.0938h.125c.2187-.7448.5859-1.3073 1.1016-1.6875.5156-.3855 1.1093-.5782 1.7812-.5782.1667 0 .3464.0104.5391.0313.1927.0208.362.0495.5078.0859v2.9531c-.1563-.0468-.3724-.0885-.6485-.125-.276-.0364-.5286-.0546-.7578-.0546-.4895 0-.927.1067-1.3125.3203-.3802.2083-.6823.5-.9062.875-.2188.375-.3281.8073-.3281 1.2968v6.7891z"/><path clip-rule="evenodd" d="m91.082 25.4609c.8854.5157 1.9349.7735 3.1485.7735 1.2135 0 2.2604-.2578 3.1406-.7735.8854-.5208 1.5677-1.2448 2.0469-2.1718.4791-.9323.719-2.0131.719-3.2422 0-1.2396-.2399-2.3229-.719-3.25-.4792-.9323-1.1615-1.6563-2.0469-2.1719-.8802-.5208-1.9271-.7812-3.1406-.7812-1.2136 0-2.2631.2604-3.1485.7812-.8802.5156-1.5599 1.2396-2.039 2.1719-.4792.9271-.7188 2.0104-.7188 3.25 0 1.2291.2396 2.3099.7188 3.2422.4791.927 1.1588 1.651 2.039 2.1718zm4.5469-2.2734c-.3698.3125-.8307.4688-1.3828.4688-.5573 0-1.026-.1563-1.4063-.4688-.375-.3177-.6588-.75-.8515-1.2969-.1875-.5468-.2813-1.1692-.2813-1.8672 0-.6979.0938-1.3203.2813-1.8671.1927-.5469.4765-.9792.8515-1.2969.3803-.3177.849-.4766 1.4063-.4766.5521 0 1.013.1589 1.3828.4766s.6484.75.8359 1.2969c.1928.5468.2891 1.1692.2891 1.8671 0 .698-.0963 1.3204-.2891 1.8672-.1875.5469-.4661.9792-.8359 1.2969z" fill-rule="evenodd"/><path clip-rule="evenodd" d="m107.707 30.75c-1.078 0-2.003-.1484-2.773-.4453-.766-.2917-1.375-.6901-1.829-1.1953-.453-.5052-.747-1.0729-.882-1.7032l3.078-.414c.094.2396.242.4635.445.6719.203.2083.471.375.805.5.338.1302.75.1953 1.234.1953.724 0 1.32-.1771 1.789-.5313.474-.3489.711-.9349.711-1.7578v-2.1953h-.14c-.146.3333-.365.6484-.657.9453-.291.2969-.666.5391-1.125.7266-.458.1875-1.005.2812-1.64.2812-.901 0-1.722-.2083-2.461-.625-.735-.4219-1.321-1.0651-1.758-1.9297-.432-.8698-.649-1.9687-.649-3.2968 0-1.3594.222-2.4948.665-3.4063.442-.9114 1.031-1.5937 1.765-2.0469.74-.4531 1.55-.6796 2.43-.6796.672 0 1.234.1145 1.687.3437.453.224.818.5052 1.094.8438.281.3333.497.6614.649.9843h.125v-2.0156h3.304v12.1172c0 1.0208-.25 1.875-.75 2.5625s-1.192 1.2031-2.078 1.5469c-.88.3489-1.893.5234-3.039.5234zm.07-7.4219c.537 0 .99-.1328 1.36-.3984.375-.2708.661-.6563.859-1.1563.203-.5052.305-1.1093.305-1.8125 0-.7031-.099-1.3125-.297-1.8281-.198-.5208-.484-.9245-.859-1.2109-.375-.2865-.831-.4297-1.368-.4297-.547 0-1.007.1484-1.382.4453-.375.2917-.659.6979-.852 1.2188-.193.5208-.289 1.1223-.289 1.8046 0 .6927.096 1.2917.289 1.7969.198.5.482.888.852 1.1641.375.2708.835.4062 1.382.4062z" fill-rule="evenodd"/><path clip-rule="evenodd" d="m118.504 25.4844c.891.5 1.953.75 3.187.75.99 0 1.862-.1511 2.618-.4532.76-.3072 1.38-.7343 1.859-1.2812.484-.5521.805-1.1979.961-1.9375l-3.078-.2031c-.115.3021-.281.5573-.5.7656s-.482.3646-.789.4688c-.308.1041-.646.1562-1.016.1562-.557 0-1.039-.1172-1.445-.3516-.406-.2343-.722-.5677-.946-1-.218-.4323-.328-.9453-.328-1.539v-.0078h8.172v-.9141c0-1.0208-.143-1.9115-.429-2.6719-.287-.7656-.688-1.401-1.204-1.9062-.51-.5052-1.109-.8828-1.796-1.1328-.683-.2552-1.42-.3828-2.211-.3828-1.177 0-2.204.2604-3.079.7812-.869.5208-1.544 1.2474-2.023 2.1797s-.719 2.0156-.719 3.25c0 1.2656.24 2.362.719 3.2891.479.9218 1.161 1.6354 2.047 2.1406zm.526-6.6953c.021-.4309.131-.8242.333-1.1797.219-.3906.521-.7005.907-.9297.39-.2344.838-.3516 1.343-.3516.485 0 .909.1068 1.274.3203.37.2084.659.4974.867.8672s.312.7943.312 1.2735z" fill-rule="evenodd"/><path d="m132.699 19.0625v6.9375h-3.328v-12h3.172v2.1172h.141c.265-.6979.711-1.25 1.336-1.6563.625-.4114 1.382-.6171 2.273-.6171.833 0 1.56.1822 2.18.5468.619.3646 1.101.8854 1.445 1.5625.344.6719.516 1.474.516 2.4063v7.6406h-3.329v-7.0469c.006-.7343-.182-1.3073-.562-1.7187-.38-.4167-.904-.625-1.57-.625-.448 0-.844.0963-1.188.289-.338.1927-.604.474-.797.8438-.187.3646-.284.8047-.289 1.3203z"/><path clip-rule="evenodd" d="m145.338 25.4844c.891.5 1.953.75 3.187.75.99 0 1.862-.1511 2.618-.4532.76-.3072 1.38-.7343 1.859-1.2812.484-.5521.805-1.1979.961-1.9375l-3.078-.2031c-.115.3021-.281.5573-.5.7656s-.482.3646-.789.4688c-.308.1041-.646.1562-1.016.1562-.557 0-1.039-.1172-1.445-.3516-.406-.2343-.722-.5677-.946-1-.218-.4323-.328-.9453-.328-1.539v-.0078h8.172v-.9141c0-1.0208-.143-1.9115-.429-2.6719-.287-.7656-.688-1.401-1.204-1.9062-.51-.5052-1.109-.8828-1.796-1.1328-.683-.2552-1.42-.3828-2.211-.3828-1.178 0-2.204.2604-3.079.7812-.869.5208-1.544 1.2474-2.023 2.1797s-.719 2.0156-.719 3.25c0 1.2656.24 2.362.719 3.2891.479.9218 1.161 1.6354 2.047 2.1406zm.526-6.6953c.021-.4309.131-.8242.333-1.1797.219-.3906.521-.7005.907-.9297.39-.2344.838-.3516 1.343-.3516.485 0 .909.1068 1.274.3203.369.2084.659.4974.867.8672s.312.7943.312 1.2735z" fill-rule="evenodd"/><path d="m162.588 14v2.5h-2.258v5.8125c0 .3073.047.5469.141.7188.093.1666.224.2838.39.3515.172.0677.37.1016.594.1016.156 0 .313-.013.469-.0391.156-.0312.276-.0547.359-.0703l.524 2.4766c-.167.052-.401.1119-.703.1796-.303.073-.67.1172-1.102.1329-.802.0312-1.505-.0756-2.109-.3203-.599-.2448-1.066-.625-1.399-1.1407-.333-.5156-.497-1.1666-.492-1.9531v-6.25h-1.641v-2.5h1.641v-2.875h3.328v2.875z"/><path d="m164.756 14v12h3.328v-12z"/><path d="m165.154 11.9609c.354.3282.779.4922 1.274.4922s.916-.164 1.265-.4922c.355-.3333.532-.7317.532-1.1953 0-.4583-.177-.85154-.532-1.17966-.349-.33334-.77-.5-1.265-.5s-.92.16666-1.274.5c-.349.32812-.523.72136-.523 1.17966 0 .4636.174.862.523 1.1953z"/><path d="m176.172 26.2344c-1.229 0-2.287-.2604-3.172-.7813-.88-.526-1.557-1.2552-2.031-2.1875-.469-.9323-.703-2.0052-.703-3.2187 0-1.2292.237-2.3073.711-3.2344.479-.9323 1.158-1.6589 2.039-2.1797.88-.526 1.927-.789 3.14-.789 1.047 0 1.964.1901 2.75.5703.787.3802 1.409.914 1.867 1.6015.459.6875.711 1.4948.758 2.4219h-3.14c-.089-.599-.323-1.0807-.703-1.4453-.376-.3698-.868-.5547-1.477-.5547-.516 0-.966.1406-1.352.4219-.38.276-.677.6797-.89 1.2109-.214.5313-.321 1.1745-.321 1.9297 0 .7656.105 1.4167.313 1.9531.213.5365.513.9453.898 1.2266.386.2812.836.4219 1.352.4219.38 0 .721-.0782 1.023-.2344.308-.1563.56-.3828.758-.6797.203-.3021.336-.6641.399-1.0859h3.14c-.052.9166-.302 1.7239-.75 2.4218-.442.6927-1.054 1.2344-1.836 1.625-.781.3907-1.705.586-2.773.586z"/><path d="m190.6 17.6094 3.046-.1875c-.145-1.1042-.656-1.9766-1.531-2.6172-.87-.6406-2.062-.9609-3.578-.9609-1.026 0-1.922.151-2.687.4531-.761.3021-1.352.7317-1.774 1.289-.416.5573-.625 1.2214-.625 1.9922 0 .8959.284 1.6328.852 2.211.573.5781 1.445.9843 2.617 1.2187l2.078.4141c.521.1041.906.2552 1.156.4531.25.1927.378.4401.383.7422-.005.3594-.187.6536-.547.8828-.354.224-.823.3359-1.406.3359-.594 0-1.081-.125-1.461-.375-.38-.2552-.62-.625-.719-1.1093l-3.273.1718c.161 1.1459.711 2.0521 1.648 2.7188.943.6614 2.209.9922 3.797.9922 1.042 0 1.961-.1641 2.758-.4922.802-.3333 1.432-.7969 1.891-1.3906.463-.5938.695-1.2839.695-2.0703 0-.8646-.287-1.5625-.859-2.0938-.573-.5312-1.443-.9167-2.61-1.1562l-2.172-.4375c-.557-.1198-.95-.2787-1.179-.4766-.23-.1979-.344-.4401-.344-.7266 0-.3593.177-.6458.531-.8593.354-.2188.789-.3282 1.305-.3282.385 0 .716.0651.992.1953.281.125.508.2943.68.5079.172.2083.284.4427.336.7031z"/><path clip-rule="evenodd" d="m84.3536 33.2727v8.7273h1.0568v-3.1875h1.9091c.679 0 1.2358-.1236 1.6704-.3708.4347-.25.7557-.5852.9631-1.0056.2102-.4205.3154-.8878.3154-1.402s-.1052-.9801-.3154-1.3978c-.2102-.4176-.5341-.7485-.9716-.9929-.4346-.2471-.9943-.3707-1.679-.3707zm1.0568 4.6023h1.875c.4688 0 .8452-.081 1.1293-.2429.2841-.162.49-.3807.6179-.6563.1306-.2784.196-.5923.196-.9417 0-.3495-.0654-.662-.196-.9375-.1279-.2756-.3353-.4915-.6222-.6478-.2869-.159-.6676-.2386-1.142-.2386h-1.858z" fill-rule="evenodd"/><path clip-rule="evenodd" d="m74.8774 41.919c.338.1563.7145.2344 1.1292.2344.3807 0 .7032-.0568.9674-.1705.2642-.1136.4758-.2514.6349-.4133.1591-.162.2727-.3139.3409-.456h.0512v.8864h1.0056v-4.3125c0-.5199-.0852-.9347-.2556-1.2443-.1705-.3097-.385-.5412-.6435-.6946-.2557-.1535-.5213-.2543-.7969-.3026-.2727-.0511-.5142-.0767-.7244-.0767-.3296 0-.6648.0455-1.0057.1364-.3381.088-.6506.2443-.9375.4687-.2841.2216-.5114.5313-.6818.929l.9545.3409c.1108-.2386.3026-.4631.5753-.6733s.6492-.3153 1.1293-.3153c.463 0 .8082.1164 1.0355.3494.2301.2329.3452.5597.3452.9801v.0341c0 .1619-.0583.2756-.1748.3409-.1136.0653-.2954.1122-.5454.1406-.2472.0256-.5696.064-.9673.1151-.304.0398-.6066.0937-.9077.1619-.2983.0654-.571.1648-.8182.2983s-.4446.3182-.5923.554c-.1478.2329-.2216.5369-.2216.9119 0 .4262.0994.7898.2983 1.0909.1988.2983.4673.527.8054.6861zm2.2883-.9034c-.2727.1563-.6079.2344-1.0057.2344-.4005 0-.7315-.0881-.9929-.2642-.2585-.179-.3877-.4432-.3877-.7926 0-.2557.0681-.4574.2045-.6052.1392-.1505.321-.2627.5455-.3366.2272-.0767.4716-.1321.7329-.1662.108-.0142.2486-.0312.4219-.0511.1761-.0228.3565-.0483.5412-.0767.1875-.0313.3523-.0668.4943-.1066.1449-.0426.2386-.0895.2813-.1406v.9205c0 .2727-.0711.5326-.2131.7798-.1392.2471-.3466.4489-.6222.6051z" fill-rule="evenodd"/><path d="m92.8401 38.0625v3.9375h-1.0057v-8.7273h1.0057v3.2046h.0852c.1534-.3381.3835-.6066.6904-.8054.3096-.2018.7215-.3026 1.2358-.3026.446 0 .8366.0895 1.1718.2685.3353.1761.5952.4474.7799.8139.1875.3636.2812.8267.2812 1.3892v4.1591h-1.0057v-4.0909c0-.5199-.1349-.9219-.4048-1.206-.267-.2869-.6378-.4304-1.1122-.4304-.3296 0-.625.0696-.8864.2088-.2585.1392-.4631.3423-.6136.6094-.1477.267-.2216.5909-.2216.9716z"/><path clip-rule="evenodd" d="m99.7211 41.919c.3379.1563.7149.2344 1.1289.2344.381 0 .704-.0568.968-.1705.264-.1136.476-.2514.635-.4133.159-.162.272-.3139.341-.456h.051v.8864h1.005v-4.3125c0-.5199-.085-.9347-.255-1.2443-.171-.3097-.385-.5412-.644-.6946-.255-.1535-.521-.2543-.797-.3026-.272-.0511-.514-.0767-.724-.0767-.33 0-.665.0455-1.006.1364-.338.088-.6503.2443-.9372.4687-.2841.2216-.5114.5313-.6819.929l.9546.3409c.1108-.2386.3025-.4631.5755-.6733.272-.2102.649-.3153 1.129-.3153.463 0 .808.1164 1.036.3494.23.2329.345.5597.345.9801v.0341c0 .1619-.059.2756-.175.3409-.114.0653-.295.1122-.545.1406-.248.0256-.57.064-.968.1151-.304.0398-.606.0937-.907.1619-.2988.0654-.5715.1648-.8186.2983-.2472.1335-.4446.3182-.5924.554-.1477.2329-.2216.5369-.2216.9119 0 .4262.0995.7898.2983 1.0909.1989.2983.4674.527.8054.6861zm2.2879-.9034c-.272.1563-.607.2344-1.005.2344-.401 0-.732-.0881-.993-.2642-.2586-.179-.3879-.4432-.3879-.7926 0-.2557.0682-.4574.2046-.6052.1392-.1505.3213-.2627.5453-.3366.227-.0767.472-.1321.733-.1662.108-.0142.249-.0312.422-.0511.176-.0228.356-.0483.541-.0767.188-.0313.352-.0668.494-.1066.145-.0426.239-.0895.282-.1406v.9205c0 .2727-.071.5326-.213.7798-.14.2471-.347.4489-.623.6051z" fill-rule="evenodd"/><path d="m105.686 42v-6.5455h.972v.9887h.068c.119-.3239.335-.5867.647-.7884.313-.2017.665-.3026 1.057-.3026.074 0 .166.0015.277.0043.111.0029.195.0071.252.0128v1.0227c-.034-.0085-.113-.0213-.235-.0383-.119-.0199-.245-.0299-.379-.0299-.318 0-.602.0668-.852.2003-.247.1307-.443.3125-.588.5455-.142.2301-.213.4929-.213.7883v4.1421z"/><path d="m110.151 35.4545v6.5455h1.005v-4.0909c0-.3211.069-.6037.205-.848.139-.2472.321-.4404.545-.5796.228-.1392.472-.2088.733-.2088.381 0 .692.1151.934.3452.241.2272.362.527.362.8991v4.483h1.023v-4.2614c0-.4233.126-.7727.379-1.0483.253-.2784.609-.4176 1.069-.4176.358 0 .67.1037.934.3111s.396.5525.396 1.0355v4.3807h1.006v-4.3807c0-.7699-.186-1.3367-.559-1.7003-.372-.3665-.85-.5497-1.436-.5497-.468 0-.87.1008-1.206.3026-.335.1988-.586.4673-.754.8054h-.068c-.162-.3495-.388-.6208-.678-.814-.286-.196-.646-.294-1.078-.294-.426 0-.791.098-1.095.294-.304.1932-.524.4645-.66.814h-.086v-1.0228z"/><path clip-rule="evenodd" d="m122.507 42.1534c-.415 0-.792-.0781-1.13-.2344-.338-.1591-.606-.3878-.805-.6861-.199-.3011-.298-.6647-.298-1.0909 0-.375.074-.679.221-.9119.148-.2358.345-.4205.593-.554.247-.1335.519-.2329.818-.2983.301-.0682.603-.1221.907-.1619.398-.0511.721-.0895.968-.1151.25-.0284.432-.0753.545-.1406.117-.0653.175-.179.175-.3409v-.0341c0-.4204-.115-.7472-.345-.9801-.227-.233-.573-.3494-1.036-.3494-.48 0-.856.1051-1.129.3153s-.464.4347-.575.6733l-.955-.3409c.171-.3977.398-.7074.682-.929.287-.2244.599-.3807.938-.4687.34-.0909.676-.1364 1.005-.1364.21 0 .452.0256.725.0767.275.0483.541.1491.796.3026.259.1534.474.3849.644.6946.17.3096.256.7244.256 1.2443v4.3125h-1.006v-.8864h-.051c-.068.1421-.182.294-.341.456-.159.1619-.371.2997-.635.4133-.264.1137-.587.1705-.967.1705zm.153-.9034c.398 0 .733-.0781 1.006-.2344.275-.1562.483-.358.622-.6051.142-.2472.213-.5071.213-.7798v-.9205c-.043.0511-.136.098-.281.1406-.142.0398-.307.0753-.495.1066-.184.0284-.365.0539-.541.0767-.173.0199-.314.0369-.422.0511-.261.0341-.505.0895-.733.1662-.224.0739-.406.1861-.545.3366-.136.1478-.205.3495-.205.6052 0 .3494.13.6136.388.7926.262.1761.592.2642.993.2642z" fill-rule="evenodd"/><path d="m129.66 38.1307-1.568-2.6762h-1.159l2.08 3.2728-2.08 3.2727h1.159l1.568-2.5398 1.569 2.5398h1.159l-2.114-3.2727 2.114-3.2728h-1.159z"/><path clip-rule="evenodd" d="m136.212 42.1363c-.591 0-1.109-.1406-1.555-.4218-.443-.2813-.79-.6747-1.04-1.1804-.247-.5057-.371-1.0966-.371-1.7728 0-.6818.124-1.2769.371-1.7855.25-.5085.597-.9034 1.04-1.1846.446-.2813.964-.4219 1.555-.4219s1.108.1406 1.551.4219c.446.2812.793.6761 1.04 1.1846.25.5086.375 1.1037.375 1.7855 0 .6762-.125 1.2671-.375 1.7728-.247.5057-.594.8991-1.04 1.1804-.443.2812-.96.4218-1.551.4218zm0-.9034c.449 0 .818-.115 1.108-.3451.29-.2302.504-.5327.644-.9077.139-.375.208-.7813.208-1.2188s-.069-.8451-.208-1.223c-.14-.3778-.354-.6832-.644-.9162-.29-.2329-.659-.3494-1.108-.3494s-.818.1165-1.108.3494c-.289.233-.504.5384-.643.9162-.139.3779-.209.7855-.209 1.223s.07.8438.209 1.2188.354.6775.643.9077c.29.2301.659.3451 1.108.3451z" fill-rule="evenodd"/><path d="m145.162 41.7017c.443.2898.972.4346 1.585.4346.483 0 .907-.0894 1.27-.2684.367-.1818.661-.4262.882-.733.225-.3096.365-.6576.422-1.044h-1.005c-.063.2386-.168.4432-.316.6136-.147.1705-.328.3012-.541.3921s-.45.1363-.712.1363c-.397 0-.744-.1037-1.039-.311-.293-.2074-.52-.4986-.682-.8736-.159-.375-.239-.8154-.239-1.321 0-.4944.081-.9248.243-1.2912.165-.3694.394-.6549.686-.8566.296-.2045.639-.3068 1.031-.3068.444 0 .796.1165 1.057.3494.264.2302.435.4944.512.7927h1.005c-.057-.4091-.203-.7671-.439-1.0739-.235-.3068-.538-.5455-.907-.7159-.37-.1705-.784-.2557-1.245-.2557-.591 0-1.108.1449-1.551.4347-.44.2869-.784.686-1.031 1.1974-.244.5085-.367 1.0952-.367 1.7599 0 .6535.12 1.2344.358 1.7429.239.5086.58.9077 1.023 1.1975z"/><path clip-rule="evenodd" d="m153.451 42.1363c-.591 0-1.11-.1406-1.556-.4218-.443-.2813-.79-.6747-1.04-1.1804-.247-.5057-.37-1.0966-.37-1.7728 0-.6818.123-1.2769.37-1.7855.25-.5085.597-.9034 1.04-1.1846.446-.2813.965-.4219 1.556-.4219.59 0 1.107.1406 1.551.4219.446.2812.792.6761 1.039 1.1846.25.5086.375 1.1037.375 1.7855 0 .6762-.125 1.2671-.375 1.7728-.247.5057-.593.8991-1.039 1.1804-.444.2812-.961.4218-1.551.4218zm0-.9034c.448 0 .818-.115 1.107-.3451.29-.2302.505-.5327.644-.9077s.209-.7813.209-1.2188-.07-.8451-.209-1.223c-.139-.3778-.354-.6832-.644-.9162-.289-.2329-.659-.3494-1.107-.3494-.449 0-.819.1165-1.108.3494-.29.233-.505.5384-.644.9162-.139.3779-.209.7855-.209 1.223s.07.8438.209 1.2188.354.6775.644.9077c.289.2301.659.3451 1.108.3451z" fill-rule="evenodd"/><path d="m157.952 35.4545v6.5455h1.005v-4.0909c0-.3211.068-.6037.205-.848.139-.2472.321-.4404.545-.5796.228-.1392.472-.2088.733-.2088.381 0 .692.1151.933.3452.242.2272.363.527.363.8991v4.483h1.022v-4.2614c0-.4233.127-.7727.38-1.0483.253-.2784.609-.4176 1.069-.4176.358 0 .669.1037.934.3111.264.2074.396.5525.396 1.0355v4.3807h1.006v-4.3807c0-.7699-.187-1.3367-.559-1.7003-.372-.3665-.851-.5497-1.436-.5497-.469 0-.871.1008-1.206.3026-.335.1988-.586.4673-.754.8054h-.068c-.162-.3495-.388-.6208-.678-.814-.287-.196-.646-.294-1.078-.294-.426 0-.791.098-1.095.294-.304.1932-.524.4645-.661.814h-.085v-1.0228z"/><path clip-rule="evenodd" d="m168.381 44.4545v-9h.972v1.0398h.119c.074-.1136.176-.2585.307-.4347.134-.1789.324-.338.571-.4772.25-.1421.588-.2131 1.014-.2131.551 0 1.037.1378 1.458.4133.42.2756.748.6662.984 1.1719s.354 1.1023.354 1.7898c0 .6932-.118 1.294-.354 1.8026-.236.5056-.563.8977-.98 1.1761-.418.2756-.899.4133-1.445.4133-.42 0-.757-.0696-1.01-.2088-.253-.142-.447-.3025-.583-.4815-.137-.1818-.242-.3324-.316-.4517h-.085v3.4602zm.989-5.7272c0 .4943.072.9303.217 1.3082.145.375.357.669.635.8821.279.2102.62.3153 1.023.3153.42 0 .771-.1108 1.052-.3324.285-.2244.498-.5255.64-.9034.145-.3806.217-.8039.217-1.2698 0-.4603-.071-.875-.213-1.2444-.139-.3721-.351-.6662-.635-.8821-.281-.2187-.635-.3281-1.061-.3281-.409 0-.753.1037-1.031.3111-.279.2045-.489.4915-.631.8608-.142.3665-.213.794-.213 1.2827z" fill-rule="evenodd"/><path clip-rule="evenodd" d="m176.491 41.919c.338.1563.714.2344 1.129.2344.381 0 .703-.0568.967-.1705.264-.1136.476-.2514.635-.4133.159-.162.273-.3139.341-.456h.051v.8864h1.006v-4.3125c0-.5199-.085-.9347-.256-1.2443-.17-.3097-.385-.5412-.643-.6946-.256-.1535-.522-.2543-.797-.3026-.273-.0511-.514-.0767-.725-.0767-.329 0-.664.0455-1.005.1364-.338.088-.651.2443-.938.4687-.284.2216-.511.5313-.682.929l.955.3409c.111-.2386.303-.4631.575-.6733.273-.2102.649-.3153 1.13-.3153.463 0 .808.1164 1.035.3494.23.2329.345.5597.345.9801v.0341c0 .1619-.058.2756-.174.3409-.114.0653-.296.1122-.546.1406-.247.0256-.57.064-.967.1151-.304.0398-.607.0937-.908.1619-.298.0654-.571.1648-.818.2983s-.445.3182-.592.554c-.148.2329-.222.5369-.222.9119 0 .4262.099.7898.298 1.0909.199.2983.468.527.806.6861zm2.288-.9034c-.273.1563-.608.2344-1.006.2344-.4 0-.731-.0881-.993-.2642-.258-.179-.387-.4432-.387-.7926 0-.2557.068-.4574.204-.6052.139-.1505.321-.2627.546-.3366.227-.0767.471-.1321.733-.1662.108-.0142.248-.0312.421-.0511.177-.0228.357-.0483.542-.0767.187-.0313.352-.0668.494-.1066.145-.0426.239-.0895.281-.1406v.9205c0 .2727-.071.5326-.213.7798-.139.2471-.346.4489-.622.6051z" fill-rule="evenodd"/><path d="m183.461 38.0625v3.9375h-1.005v-6.5455h.971v1.0228h.085c.154-.3324.387-.5995.699-.8012.313-.2045.716-.3068 1.21-.3068.444 0 .831.0909 1.164.2727.332.179.591.4517.775.8182.185.3636.277.8239.277 1.3807v4.1591h-1.005v-4.0909c0-.5142-.134-.9148-.401-1.2017-.267-.2898-.633-.4347-1.099-.4347-.321 0-.608.0696-.861.2088-.25.1392-.448.3423-.592.6094-.145.267-.218.5909-.218.9716z"/><path d="m189.432 44.4119c.134.0284.286.0426.456.0426.304 0 .577-.054.819-.1619.244-.108.458-.2742.643-.4986.185-.2216.34-.5014.465-.8395l2.778-7.5h-1.091l-1.807 5.2159h-.068l-1.807-5.2159h-1.091l2.421 6.5796-.188.5113c-.122.3324-.257.5725-.405.7202-.144.1506-.311.2344-.498.2514-.188.0171-.404-.0057-.648-.0682l-.256.8864c.052.0256.144.0511.277.0767z"/></g></svg>