<svg fill="none" height="36" viewBox="0 0 194 36" width="194" xmlns="http://www.w3.org/2000/svg"><path d="m17.9626 9c3.8919 0 6.4366 1.875 8.3825 4.05.1497.15.2245.3.3742.45s.2246.3.3743.45c.6736.825 1.1975 1.725 1.7214 2.475.3742.525.6736 1.05 1.0478 1.5.1497.15.2245.3.3742.45s.2245.3.3742.45c1.4221 1.725 2.8441 2.85 4.9397 3 .2994-1.275.4491-2.55.4491-3.9s-.1497-2.7-.4491-3.9c-2.0956.15-3.5176 1.2-4.9397 3-.2245-.375-.5239-.75-.8233-1.2-.5987-.825-1.1975-1.8-1.9459-2.775 1.4969-1.725 3.368-3.225 5.9127-3.825-3.1435-5.475-9.0562-9.225-15.7921-9.225-6.736 0-12.64867 3.75-15.71728 9.225 2.5447.6 4.34096 2.1 5.91268 3.825.14969.15.22454.3.37422.45.14969.15.22454.3.37423.45.74844.9 1.34715 1.875 1.94595 2.775.2994.45.5239.825.8233 1.2.1497.15.2245.3.3742.525.1497.15.2245.3.3742.525 1.5717 2.175 3.1435 3.675 5.6133 3.675 2.4699 0 4.0416-1.5 5.6133-3.675.1497.3.3742.525.5239.825.6736.975 1.3472 2.1 2.1705 3.075-1.8711 2.175-4.4906 4.05-8.3825 4.05s-6.4366-1.875-8.38256-4.05c-.14969-.15-.22453-.3-.37422-.45s-.22453-.3-.37422-.45c-.6736-.825-1.1975-1.725-1.72141-2.475-.37422-.525-.6736-1.05-1.04782-1.5-.14969-.15-.22453-.3-.37422-.45s-.22453-.3-.37422-.45c-1.42204-1.725-2.84408-2.85-4.93971-3-.224532 1.2-.37422 2.55-.37422 3.9s.149688 2.7.449064 3.9c2.095636-.15 3.517676-1.2 4.939706-3 .22454.375.52391.75.82329 1.2.59875.825 1.1975 1.8 1.94594 2.775-1.49688 1.725-3.36798 3.225-5.91268 3.825 3.06861 5.55 8.98128 9.3 15.71728 9.3 6.7359 0 12.6486-3.75 15.7172-9.225-2.5447-.6-4.3409-2.1-5.9126-3.825-.1497-.15-.2246-.3-.3743-.45s-.2245-.3-.3742-.45c-.7484-.9-1.3472-1.875-1.9459-2.775-.2994-.45-.5239-.825-.8233-1.2-.1497-.15-.2246-.3-.3742-.525-.1497-.15-.2246-.3-.3743-.525-1.5717-2.175-3.1434-3.675-5.6133-3.675-2.4698 0-4.0415 1.5-5.6133 3.675-.1497-.3-.3742-.525-.5239-.825-.6736-.975-1.3472-2.1-2.17046-3.075 1.94596-2.25 4.49066-4.125 8.38256-4.125z" fill="#ff1744"/><g fill="#212121"><path d="m41.3906 10h4.1719l4.4063 10.75h.1874l4.4063-10.75h4.1719v16h-3.2813v-10.4141h-.1328l-4.1406 10.336h-2.2344l-4.1406-10.375h-.1328v10.4531h-3.2813z"/><path d="m61.459 26v-12h3.3281v12zm1.6719-13.5469c-.4948 0-.9193-.164-1.2735-.4922-.3489-.3333-.5234-.7317-.5234-1.1953 0-.4583.1745-.85154.5234-1.17966.3542-.33334.7787-.5 1.2735-.5s.9166.16666 1.2656.5c.3542.32812.5312.72136.5312 1.17966 0 .4636-.177.862-.5312 1.1953-.349.3282-.7708.4922-1.2656.4922z"/><path d="m72.875 26.2344c-1.2292 0-2.2865-.2604-3.1719-.7813-.8802-.526-1.5573-1.2552-2.0312-2.1875-.4688-.9323-.7031-2.0052-.7031-3.2187 0-1.2292.2369-2.3073.7109-3.2344.4792-.9323 1.1588-1.6589 2.0391-2.1797.8802-.526 1.927-.789 3.1406-.789 1.0468 0 1.9635.1901 2.75.5703.7864.3802 1.4088.914 1.8672 1.6015.4583.6875.7109 1.4948.7578 2.4219h-3.1406c-.0886-.599-.323-1.0807-.7032-1.4453-.375-.3698-.8672-.5547-1.4765-.5547-.5157 0-.9662.1406-1.3516.4219-.3802.276-.6771.6797-.8906 1.2109-.2136.5313-.3203 1.1745-.3203 1.9297 0 .7656.1041 1.4167.3125 1.9531.2135.5365.513.9453.8984 1.2266.3854.2812.8359.4219 1.3516.4219.3802 0 .7213-.0782 1.0234-.2344.3073-.1563.5599-.3828.7578-.6797.2031-.3021.3359-.6641.3985-1.0859h3.1406c-.0521.9166-.3021 1.7239-.75 2.4218-.4427.6927-1.0547 1.2344-1.836 1.625-.7812.3907-1.7057.586-2.7734.586z"/><path d="m80.3652 26v-12h3.2266v2.0938h.125c.2187-.7448.5859-1.3073 1.1016-1.6875.5156-.3855 1.1093-.5782 1.7812-.5782.1667 0 .3464.0104.5391.0313.1927.0208.362.0495.5078.0859v2.9531c-.1563-.0468-.3724-.0885-.6485-.125-.276-.0364-.5286-.0546-.7578-.0546-.4895 0-.927.1067-1.3125.3203-.3802.2083-.6823.5-.9062.875-.2188.375-.3281.8073-.3281 1.2968v6.7891z"/><path d="m94.2305 26.2344c-1.2136 0-2.2631-.2578-3.1485-.7735-.8802-.5208-1.5599-1.2448-2.039-2.1718-.4792-.9323-.7188-2.0131-.7188-3.2422 0-1.2396.2396-2.3229.7188-3.25.4791-.9323 1.1588-1.6563 2.039-2.1719.8854-.5208 1.9349-.7812 3.1485-.7812 1.2135 0 2.2604.2604 3.1406.7812.8854.5156 1.5677 1.2396 2.0469 2.1719.4791.9271.719 2.0104.719 3.25 0 1.2291-.2399 2.3099-.719 3.2422-.4792.927-1.1615 1.651-2.0469 2.1718-.8802.5157-1.9271.7735-3.1406.7735zm.0156-2.5781c.5521 0 1.013-.1563 1.3828-.4688.3698-.3177.6484-.75.8359-1.2969.1928-.5468.2891-1.1692.2891-1.8672 0-.6979-.0963-1.3203-.2891-1.8671-.1875-.5469-.4661-.9792-.8359-1.2969s-.8307-.4766-1.3828-.4766c-.5573 0-1.026.1589-1.4063.4766-.375.3177-.6588.75-.8515 1.2969-.1875.5468-.2813 1.1692-.2813 1.8671 0 .698.0938 1.3204.2813 1.8672.1927.5469.4765.9792.8515 1.2969.3803.3125.849.4688 1.4063.4688z"/><path d="m107.707 30.75c-1.078 0-2.003-.1484-2.773-.4453-.766-.2917-1.375-.6901-1.829-1.1953-.453-.5052-.747-1.0729-.882-1.7032l3.078-.414c.094.2396.242.4635.445.6719.203.2083.471.375.805.5.338.1302.75.1953 1.234.1953.724 0 1.32-.1771 1.789-.5313.474-.3489.711-.9349.711-1.7578v-2.1953h-.14c-.146.3333-.365.6484-.657.9453-.291.2969-.666.5391-1.125.7266-.458.1875-1.005.2812-1.64.2812-.901 0-1.722-.2083-2.461-.625-.735-.4218-1.321-1.0651-1.758-1.9297-.432-.8698-.649-1.9687-.649-3.2968 0-1.3594.222-2.4948.665-3.4063.442-.9114 1.031-1.5937 1.765-2.0469.74-.4531 1.55-.6796 2.43-.6796.672 0 1.234.1145 1.687.3437.453.224.818.5052 1.094.8438.281.3333.497.6614.649.9843h.125v-2.0156h3.304v12.1172c0 1.0208-.25 1.875-.75 2.5625s-1.192 1.2031-2.078 1.5469c-.88.3489-1.893.5234-3.039.5234zm.07-7.4219c.537 0 .99-.1328 1.36-.3984.375-.2708.661-.6563.859-1.1563.203-.5052.305-1.1093.305-1.8125 0-.7031-.099-1.3125-.297-1.8281-.198-.5208-.484-.9245-.859-1.2109-.375-.2865-.831-.4297-1.368-.4297-.547 0-1.007.1484-1.382.4453-.375.2917-.659.6979-.852 1.2188-.193.5208-.289 1.1223-.289 1.8046 0 .6927.096 1.2917.289 1.7969.198.5.482.888.852 1.1641.375.2708.835.4062 1.382.4062z"/><path d="m121.691 26.2344c-1.234 0-2.296-.25-3.187-.75-.886-.5052-1.568-1.2188-2.047-2.1406-.479-.9271-.719-2.0235-.719-3.2891 0-1.2344.24-2.3177.719-3.25s1.154-1.6589 2.023-2.1797c.875-.5208 1.902-.7812 3.079-.7812.791 0 1.528.1276 2.211.3828.687.25 1.286.6276 1.796 1.1328.516.5052.917 1.1406 1.204 1.9062.286.7604.429 1.6511.429 2.6719v.9141h-10.133v-2.0625h7c0-.4792-.104-.9037-.312-1.2735s-.497-.6588-.867-.8672c-.365-.2135-.789-.3203-1.274-.3203-.505 0-.953.1172-1.343.3516-.386.2292-.688.5391-.907.9297-.218.3854-.33.8151-.336 1.289v1.961c0 .5937.11 1.1067.328 1.539.224.4323.54.7657.946 1 .406.2344.888.3516 1.445.3516.37 0 .708-.0521 1.016-.1562.307-.1042.57-.2605.789-.4688s.385-.4635.5-.7656l3.078.2031c-.156.7396-.477 1.3854-.961 1.9375-.479.5469-1.099.974-1.859 1.2812-.756.3021-1.628.4532-2.618.4532z"/><path d="m132.699 19.0625v6.9375h-3.328v-12h3.172v2.1172h.141c.265-.6979.711-1.25 1.336-1.6563.625-.4114 1.382-.6171 2.273-.6171.833 0 1.56.1822 2.18.5468.619.3646 1.101.8854 1.445 1.5625.344.6719.516 1.474.516 2.4063v7.6406h-3.329v-7.0469c.006-.7343-.182-1.3073-.562-1.7187-.38-.4167-.904-.625-1.57-.625-.448 0-.844.0963-1.188.289-.338.1927-.604.474-.797.8438-.187.3646-.284.8047-.289 1.3203z"/><path d="m148.525 26.2344c-1.234 0-2.296-.25-3.187-.75-.886-.5052-1.568-1.2188-2.047-2.1406-.479-.9271-.719-2.0235-.719-3.2891 0-1.2344.24-2.3177.719-3.25s1.154-1.6589 2.023-2.1797c.875-.5208 1.901-.7812 3.079-.7812.791 0 1.528.1276 2.211.3828.687.25 1.286.6276 1.796 1.1328.516.5052.917 1.1406 1.204 1.9062.286.7604.429 1.6511.429 2.6719v.9141h-10.133v-2.0625h7c0-.4792-.104-.9037-.312-1.2735s-.498-.6588-.867-.8672c-.365-.2135-.789-.3203-1.274-.3203-.505 0-.953.1172-1.343.3516-.386.2292-.688.5391-.907.9297-.218.3854-.33.8151-.336 1.289v1.961c0 .5937.11 1.1067.328 1.539.224.4323.54.7657.946 1 .406.2344.888.3516 1.445.3516.37 0 .708-.0521 1.016-.1562.307-.1042.57-.2605.789-.4688s.385-.4635.5-.7656l3.078.2031c-.156.7396-.477 1.3854-.961 1.9375-.479.5469-1.099.974-1.859 1.2812-.756.3021-1.628.4532-2.618.4532z"/><path d="m162.588 14v2.5h-7.227v-2.5zm-5.586-2.875h3.328v11.1875c0 .3073.047.5469.141.7188.093.1666.224.2838.39.3515.172.0677.37.1016.594.1016.156 0 .313-.013.469-.0391.156-.0312.276-.0547.359-.0703l.524 2.4766c-.167.052-.401.1119-.703.1796-.303.073-.67.1172-1.102.1329-.802.0312-1.505-.0756-2.109-.3203-.599-.2448-1.066-.625-1.399-1.1407-.333-.5156-.497-1.1666-.492-1.9531z"/><path d="m164.756 26v-12h3.328v12zm1.672-13.5469c-.495 0-.92-.164-1.274-.4922-.349-.3333-.523-.7317-.523-1.1953 0-.4583.174-.85154.523-1.17966.354-.33334.779-.5 1.274-.5s.916.16666 1.265.5c.355.32812.532.72136.532 1.17966 0 .4636-.177.862-.532 1.1953-.349.3282-.77.4922-1.265.4922z"/><path d="m176.172 26.2344c-1.229 0-2.287-.2604-3.172-.7813-.88-.526-1.557-1.2552-2.031-2.1875-.469-.9323-.703-2.0052-.703-3.2187 0-1.2292.237-2.3073.711-3.2344.479-.9323 1.158-1.6589 2.039-2.1797.88-.526 1.927-.789 3.14-.789 1.047 0 1.964.1901 2.75.5703.787.3802 1.409.914 1.867 1.6015.459.6875.711 1.4948.758 2.4219h-3.14c-.089-.599-.323-1.0807-.703-1.4453-.376-.3698-.868-.5547-1.477-.5547-.516 0-.966.1406-1.352.4219-.38.276-.677.6797-.89 1.2109-.214.5313-.321 1.1745-.321 1.9297 0 .7656.105 1.4167.313 1.9531.213.5365.513.9453.898 1.2266.386.2812.836.4219 1.352.4219.38 0 .721-.0782 1.023-.2344.308-.1563.56-.3828.758-.6797.203-.3021.336-.6641.399-1.0859h3.14c-.052.9166-.302 1.7239-.75 2.4218-.442.6927-1.054 1.2344-1.836 1.625-.781.3907-1.705.586-2.773.586z"/><path d="m193.646 17.4219-3.046.1875c-.052-.2604-.164-.4948-.336-.7031-.172-.2136-.399-.3829-.68-.5079-.276-.1302-.607-.1953-.992-.1953-.516 0-.951.1094-1.305.3282-.354.2135-.531.5-.531.8593 0 .2865.114.5287.344.7266.229.1979.622.3568 1.179.4766l2.172.4375c1.167.2395 2.037.625 2.61 1.1562.572.5313.859 1.2292.859 2.0938 0 .7864-.232 1.4765-.695 2.0703-.459.5937-1.089 1.0573-1.891 1.3906-.797.3281-1.716.4922-2.758.4922-1.588 0-2.854-.3308-3.797-.9922-.937-.6667-1.487-1.5729-1.648-2.7188l3.273-.1718c.099.4843.339.8541.719 1.1093.38.25.867.375 1.461.375.583 0 1.052-.1119 1.406-.3359.36-.2292.542-.5234.547-.8828-.005-.3021-.133-.5495-.383-.7422-.25-.1979-.635-.349-1.156-.4531l-2.078-.4141c-1.172-.2344-2.044-.6406-2.617-1.2187-.568-.5782-.852-1.3151-.852-2.211 0-.7708.209-1.4349.625-1.9922.422-.5573 1.013-.9869 1.774-1.289.765-.3021 1.661-.4531 2.687-.4531 1.516 0 2.708.3203 3.578.9609.875.6406 1.386 1.513 1.531 2.6172z"/></g></svg>