<svg fill="none" height="45" viewBox="0 0 195 45" width="195" xmlns="http://www.w3.org/2000/svg"><g fill="#fff"><path d="m26.3451 13.05c-1.9459-2.175-4.4906-4.05-8.3825-4.05s-6.4366 1.875-8.38256 4.125c.58856.697 1.10066 1.4708 1.59096 2.2115.1955.2954.3875.5855.5795.8635.0749.15.1684.2813.262.4125.0935.1313.1871.2625.2619.4125 1.5718-2.175 3.1435-3.675 5.6133-3.675 2.4699 0 4.0416 1.5 5.6133 3.675.0401.0603.0749.1152.1071.1661.0881.1393.1576.2491.2672.3589.0401.0603.0748.1152.107.1662.0881.1392.1576.249.2672.3588.222.2781.4029.5562.6036.865.07.1075.1423.2187.2197.335.1185.1782.2371.3594.3569.5424.4848.7408.9888 1.5108 1.589 2.2326.0749.075.131.15.1871.225.0562.075.1123.15.1871.225.0749.075.131.15.1871.225.0562.075.1123.15.1872.225 1.5717 1.725 3.3679 3.225 5.9126 3.825-3.0686 5.475-8.9813 9.225-15.7172 9.225-6.736 0-12.64867-3.75-15.71728-9.3 2.5447-.6 4.4158-2.1 5.91268-3.825-.44615-.5812-.83912-1.1624-1.2106-1.7119-.25169-.3722-.49351-.7299-.73534-1.0631-.12497-.1878-.24994-.3626-.36946-.5298-.16681-.2333-.32302-.4517-.45383-.6702-1.42203 1.8-2.84407 2.85-4.939706 3-.299376-1.2-.449064-2.55-.449064-3.9s.149688-2.7.37422-3.9c2.09563.15 3.51767 1.275 4.93971 3 .07484.075.13098.15.18711.225s.11227.15.18711.225.13098.15.18711.225.11227.15.18711.225c.23357.2809.43798.5909.64963.912.12745.1934.25753.3907.39819.588.1733.2481.3466.5126.52532.7854.36157.5518.74531 1.1375 1.19609 1.6896.07484.075.13098.15.18711.225s.11227.15.18711.225.13098.15.18711.225.11227.15.18711.225c1.94596 2.175 4.49066 4.05 8.38256 4.05s6.5114-1.875 8.3825-4.05c-.5886-.697-1.1006-1.4708-1.5909-2.2115-.1955-.2954-.3875-.5855-.5796-.8635-.0748-.15-.1684-.2812-.2619-.4125-.0936-.1312-.1871-.2625-.262-.4125-1.5717 2.175-3.1434 3.675-5.6133 3.675-2.4698 0-4.0416-1.5-5.6133-3.675-.0401-.0603-.0748-.1152-.1071-.1662-.0881-.1392-.1575-.249-.2671-.3588-.0401-.0603-.0749-.1152-.1071-.1662-.0881-.1392-.1575-.249-.2671-.3588-.2221-.2781-.4029-.5562-.6037-.865-.0699-.1075-.1423-.2187-.2196-.335-.1186-.1782-.2372-.3594-.3569-.5424-.4849-.7408-.98883-1.5108-1.58905-2.2326-.07485-.075-.13098-.15-.18712-.225-.05613-.075-.11226-.15-.18711-.225-.07484-.075-.13097-.15-.18711-.225-.05613-.075-.11226-.15-.18711-.225-1.57172-1.725-3.36798-3.225-5.91268-3.825 3.06861-5.475 8.98128-9.225 15.71728-9.225 6.7359 0 12.6486 3.75 15.7921 9.225-2.5447.6-4.4158 2.1-5.9127 3.825.4462.5812.8391 1.1624 1.2106 1.7119.2517.3722.4935.7299.7353 1.0631.125.1878.25.3626.3695.5298.1668.2333.323.4517.4538.6702 1.4221-1.8 2.8441-2.85 4.9397-3 .2994 1.2.4491 2.55.4491 3.9s-.1497 2.625-.4491 3.9c-2.0956-.15-3.5176-1.275-4.9397-3-.0748-.075-.1309-.15-.1871-.225-.0561-.075-.1123-.15-.1871-.225s-.131-.15-.1871-.225-.1123-.15-.1871-.225c-.2336-.2809-.438-.5909-.6496-.912-.1275-.1933-.2576-.3907-.3982-.588-.1733-.2481-.3466-.5126-.5254-.7854-.3615-.5518-.7453-1.1375-1.196-1.6896-.0749-.075-.131-.15-.1872-.225-.0561-.075-.1122-.15-.1871-.225-.0748-.075-.1309-.15-.1871-.225-.0561-.075-.1122-.15-.1871-.225z"/><path d="m63.1309 12.4531c-.4948 0-.9193-.164-1.2735-.4922-.3489-.3333-.5234-.7317-.5234-1.1953 0-.4583.1745-.85154.5234-1.17966.3542-.33334.7787-.5 1.2735-.5.4947 0 .9166.16666 1.2656.5.3541.32812.5312.72136.5312 1.17966 0 .4636-.1771.862-.5312 1.1953-.349.3282-.7709.4922-1.2656.4922z"/><path d="m61.459 26v-12h3.3281v12z"/><path d="m45.5625 10h-4.1719v16h3.2813v-10.4531h.1328l4.1406 10.375h2.2344l4.1406-10.336h.1328v10.4141h3.2813v-16h-4.1719l-4.4063 10.75h-.1874z"/><path d="m69.7031 25.4531c.8854.5209 1.9427.7813 3.1719.7813 1.0677 0 1.9922-.1953 2.7734-.586.7813-.3906 1.3933-.9323 1.836-1.625.4479-.6979.6979-1.5052.75-2.4218h-3.1406c-.0626.4218-.1954.7838-.3985 1.0859-.1979.2969-.4505.5234-.7578.6797-.3021.1562-.6432.2344-1.0234.2344-.5157 0-.9662-.1407-1.3516-.4219-.3854-.2813-.6849-.6901-.8984-1.2266-.2084-.5364-.3125-1.1875-.3125-1.9531 0-.7552.1067-1.3984.3203-1.9297.2135-.5312.5104-.9349.8906-1.2109.3854-.2813.8359-.4219 1.3516-.4219.6093 0 1.1015.1849 1.4765.5547.3802.3646.6146.8463.7032 1.4453h3.1406c-.0469-.9271-.2995-1.7344-.7578-2.4219-.4584-.6875-1.0808-1.2213-1.8672-1.6015-.7865-.3802-1.7032-.5703-2.75-.5703-1.2136 0-2.2604.263-3.1406.789-.8803.5208-1.5599 1.2474-2.0391 2.1797-.474.9271-.7109 2.0052-.7109 3.2344 0 1.2135.2343 2.2864.7031 3.2187.4739.9323 1.151 1.6615 2.0312 2.1875z"/><path d="m83.5918 14h-3.2266v12h3.3282v-6.7891c0-.4895.1093-.9218.3281-1.2968.2239-.375.526-.6667.9062-.875.3855-.2136.823-.3203 1.3125-.3203.2292 0 .4818.0182.7578.0546.2761.0365.4922.0782.6485.125v-2.9531c-.1458-.0364-.3151-.0651-.5078-.0859-.1927-.0209-.3724-.0313-.5391-.0313-.6719 0-1.2656.1927-1.7812.5782-.5157.3802-.8829.9427-1.1016 1.6875h-.125z"/><g clip-rule="evenodd" fill-rule="evenodd"><path d="m91.082 25.4609c.8855.5157 1.9349.7735 3.1485.7735 1.2135 0 2.2604-.2578 3.1406-.7735.8854-.5208 1.5677-1.2448 2.0469-2.1718.4791-.9323.719-2.0131.719-3.2422 0-1.2396-.2399-2.3229-.719-3.25-.4792-.9323-1.1615-1.6563-2.0469-2.1719-.8802-.5208-1.9271-.7812-3.1406-.7812-1.2136 0-2.263.2604-3.1485.7812-.8802.5156-1.5599 1.2396-2.039 2.1719-.4792.9271-.7188 2.0104-.7188 3.25 0 1.2291.2396 2.3099.7188 3.2422.4791.927 1.1588 1.651 2.039 2.1718zm4.5469-2.2734c-.3698.3125-.8307.4687-1.3828.4687-.5573 0-1.0261-.1562-1.4063-.4687-.375-.3177-.6588-.75-.8515-1.2969-.1875-.5468-.2813-1.1692-.2813-1.8672 0-.6979.0938-1.3203.2813-1.8672.1927-.5468.4765-.9791.8515-1.2968.3802-.3177.849-.4766 1.4063-.4766.5521 0 1.013.1589 1.3828.4766s.6484.75.8359 1.2968c.1927.5469.2891 1.1693.2891 1.8672 0 .698-.0964 1.3204-.2891 1.8672-.1875.5469-.4661.9792-.8359 1.2969z"/><path d="m104.934 30.3047c.77.2969 1.695.4453 2.773.4453 1.146 0 2.159-.1745 3.039-.5234.886-.3438 1.578-.8594 2.078-1.5469s.75-1.5417.75-2.5625v-12.1172h-3.304v2.0156h-.125c-.152-.3229-.368-.651-.649-.9843-.276-.3386-.641-.6198-1.094-.8438-.453-.2292-1.015-.3437-1.687-.3437-.88 0-1.69.2265-2.43.6796-.734.4532-1.323 1.1355-1.765 2.0469-.443.9115-.665 2.0469-.665 3.4063 0 1.3281.217 2.427.649 3.2968.437.8646 1.023 1.5078 1.758 1.9297.739.4167 1.56.625 2.461.625.635 0 1.182-.0937 1.64-.2812.459-.1875.834-.4297 1.125-.7266.292-.2969.511-.612.657-.9453h.14v2.1953c0 .8229-.237 1.4089-.711 1.7578-.469.3542-1.065.5313-1.789.5313-.484 0-.896-.0651-1.234-.1953-.334-.125-.602-.2917-.805-.5-.203-.2084-.351-.4323-.445-.6719l-3.078.414c.135.6303.429 1.198.882 1.7032.454.5052 1.063.9036 1.829 1.1953zm4.203-7.375c-.37.2656-.823.3984-1.36.3984-.547 0-1.007-.1354-1.382-.4062-.37-.2761-.654-.6641-.852-1.1641-.193-.5052-.289-1.1042-.289-1.7969 0-.6823.096-1.2838.289-1.8047.193-.5208.477-.927.852-1.2187.375-.2969.835-.4453 1.382-.4453.537 0 .993.1432 1.368.4297.375.2864.661.6901.859 1.2109.198.5156.297 1.125.297 1.8281 0 .7032-.102 1.3073-.305 1.8125-.198.5-.484.8855-.859 1.1563z"/><path d="m118.504 25.4844c.891.5 1.953.75 3.187.75.99 0 1.862-.1511 2.618-.4532.76-.3072 1.38-.7343 1.859-1.2812.484-.5521.805-1.1979.961-1.9375l-3.078-.2031c-.115.3021-.281.5573-.5.7656s-.482.3646-.789.4688c-.308.1041-.646.1562-1.016.1562-.557 0-1.039-.1172-1.445-.3516-.406-.2343-.722-.5677-.946-1-.218-.4323-.328-.9453-.328-1.539v-.0078h8.172v-.9141c0-1.0208-.143-1.9115-.429-2.6719-.287-.7656-.688-1.401-1.204-1.9062-.51-.5052-1.109-.8828-1.796-1.1328-.683-.2552-1.42-.3828-2.211-.3828-1.177 0-2.204.2604-3.079.7812-.869.5208-1.544 1.2474-2.023 2.1797s-.719 2.0156-.719 3.25c0 1.2656.24 2.362.719 3.2891.479.9218 1.161 1.6354 2.047 2.1406zm.526-6.6953c.021-.4309.131-.8242.333-1.1797.219-.3906.521-.7005.907-.9297.39-.2344.838-.3516 1.343-.3516.485 0 .909.1068 1.274.3203.37.2084.659.4974.867.8672s.312.7943.312 1.2735z"/></g><path d="m132.699 26v-6.9375c.005-.5156.102-.9557.289-1.3203.193-.3698.459-.6511.797-.8438.344-.1927.74-.289 1.188-.289.666 0 1.19.2083 1.57.625.38.4114.568.9844.562 1.7187v7.0469h3.329v-7.6406c0-.9323-.172-1.7344-.516-2.4063-.344-.6771-.826-1.1979-1.445-1.5625-.62-.3646-1.347-.5468-2.18-.5468-.891 0-1.648.2057-2.273.6171-.625.4063-1.071.9584-1.336 1.6563h-.141v-2.1172h-3.172v12z"/><path clip-rule="evenodd" d="m145.338 25.4844c.891.5 1.953.75 3.187.75.99 0 1.862-.1511 2.618-.4532.76-.3072 1.38-.7343 1.859-1.2812.484-.5521.805-1.1979.961-1.9375l-3.078-.2031c-.115.3021-.281.5573-.5.7656s-.482.3646-.789.4688c-.308.1041-.646.1562-1.016.1562-.557 0-1.039-.1172-1.445-.3516-.406-.2343-.722-.5677-.946-1-.218-.4323-.328-.9453-.328-1.539v-.0078h8.172v-.9141c0-1.0208-.143-1.9115-.429-2.6719-.287-.7656-.688-1.401-1.204-1.9062-.51-.5052-1.109-.8828-1.796-1.1328-.683-.2552-1.42-.3828-2.211-.3828-1.178 0-2.204.2604-3.079.7812-.869.5208-1.544 1.2474-2.023 2.1797s-.719 2.0156-.719 3.25c0 1.2656.24 2.362.719 3.2891.479.9218 1.161 1.6354 2.047 2.1406zm.526-6.6953c.021-.4309.131-.8242.333-1.1797.219-.3906.521-.7005.907-.9297.39-.2344.838-.3516 1.343-.3516.485 0 .909.1068 1.274.3203.369.2084.659.4974.867.8672s.312.7943.312 1.2735z" fill-rule="evenodd"/><path d="m162.588 16.5v-2.5h-2.258v-2.875h-3.328v2.875h-1.641v2.5h1.641v6.25c-.005.7865.159 1.4375.492 1.9531.333.5157.8.8959 1.399 1.1407.604.2447 1.307.3515 2.109.3203.432-.0157.799-.0599 1.102-.1329.302-.0677.536-.1276.703-.1796l-.524-2.4766c-.083.0156-.203.0391-.359.0703-.156.0261-.313.0391-.469.0391-.224 0-.422-.0339-.594-.1016-.166-.0677-.297-.1849-.39-.3516-.094-.1718-.141-.4114-.141-.7187v-5.8125z"/><path d="m164.756 26h3.328v-12h-3.328z"/><path d="m166.428 12.4531c-.495 0-.92-.164-1.274-.4922-.349-.3333-.523-.7317-.523-1.1953 0-.4583.174-.85154.523-1.17966.354-.33334.779-.5 1.274-.5s.916.16666 1.265.5c.355.32812.532.72136.532 1.17966 0 .4636-.177.862-.532 1.1953-.349.3282-.77.4922-1.265.4922z"/><path d="m176.172 26.2344c-1.229 0-2.287-.2604-3.172-.7813-.88-.526-1.557-1.2552-2.031-2.1875-.469-.9323-.703-2.0052-.703-3.2187 0-1.2292.237-2.3073.711-3.2344.479-.9323 1.158-1.6589 2.039-2.1797.88-.526 1.927-.789 3.14-.789 1.047 0 1.964.1901 2.75.5703.787.3802 1.409.914 1.867 1.6015.459.6875.711 1.4948.758 2.4219h-3.14c-.089-.599-.323-1.0807-.703-1.4453-.376-.3698-.868-.5547-1.477-.5547-.516 0-.966.1406-1.352.4219-.38.276-.677.6797-.89 1.2109-.214.5313-.321 1.1745-.321 1.9297 0 .7656.105 1.4167.313 1.9531.213.5365.513.9453.898 1.2266.386.2812.836.4219 1.352.4219.38 0 .721-.0782 1.023-.2344.308-.1563.56-.3828.758-.6797.203-.3021.336-.6641.399-1.0859h3.14c-.052.9166-.302 1.7239-.75 2.4218-.442.6927-1.054 1.2344-1.836 1.625-.781.3907-1.705.586-2.773.586z"/><path d="m193.646 17.4219-3.046.1875c-.052-.2604-.164-.4948-.336-.7032-.172-.2135-.399-.3828-.68-.5078-.276-.1302-.607-.1953-.992-.1953-.516 0-.951.1094-1.305.3281-.354.2136-.531.5-.531.8594 0 .2865.114.5287.344.7266.229.1979.622.3568 1.179.4766l2.172.4374c1.167.2396 2.037.625 2.61 1.1563.572.5313.859 1.2292.859 2.0937 0 .7865-.232 1.4766-.695 2.0704-.459.5937-1.089 1.0573-1.891 1.3906-.797.3281-1.716.4922-2.758.4922-1.588 0-2.854-.3308-3.797-.9922-.937-.6667-1.487-1.5729-1.648-2.7188l3.273-.1718c.099.4843.339.8541.719 1.1093.38.25.867.375 1.461.375.583 0 1.052-.1119 1.406-.3359.36-.2292.542-.5234.547-.8828-.005-.3021-.133-.5495-.383-.7422-.25-.1979-.635-.349-1.156-.4531l-2.078-.4141c-1.172-.2344-2.044-.6406-2.617-1.2187-.568-.5782-.852-1.3151-.852-2.211 0-.7708.209-1.4349.625-1.9922.422-.5573 1.013-.9869 1.774-1.289.765-.3021 1.661-.4531 2.687-.4531 1.516 0 2.708.3203 3.578.9609.875.6406 1.386 1.513 1.531 2.6172z"/><path clip-rule="evenodd" d="m84.3536 33.2727v8.7273h1.0568v-3.1875h1.9091c.679 0 1.2358-.1236 1.6704-.3708.4347-.25.7557-.5852.9631-1.0056.2102-.4205.3154-.8878.3154-1.402s-.1052-.9801-.3154-1.3978c-.2102-.4176-.5341-.7485-.9716-.9929-.4346-.2471-.9943-.3707-1.679-.3707zm1.0568 4.6023h1.875c.4688 0 .8452-.081 1.1293-.2429.2841-.162.49-.3807.6179-.6563.1306-.2784.196-.5923.196-.9417 0-.3495-.0654-.662-.196-.9375-.1279-.2756-.3353-.4915-.6222-.6478-.2869-.1591-.6676-.2386-1.142-.2386h-1.858z" fill-rule="evenodd"/><path clip-rule="evenodd" d="m76.0066 42.1534c-.4147 0-.7912-.0781-1.1292-.2344-.3381-.1591-.6066-.3878-.8054-.6861-.1989-.3011-.2983-.6647-.2983-1.0909 0-.375.0738-.679.2216-.9119.1477-.2358.3451-.4205.5923-.554s.5199-.2329.8182-.2983c.3011-.0682.6037-.1221.9077-.1619.3977-.0512.7201-.0895.9673-.1151.25-.0284.4318-.0753.5454-.1406.1165-.0653.1748-.179.1748-.3409v-.0341c0-.4205-.1151-.7472-.3452-.9801-.2273-.233-.5725-.3494-1.0355-.3494-.4801 0-.8566.1051-1.1293.3153s-.4645.4347-.5753.6733l-.9545-.3409c.1704-.3977.3977-.7074.6818-.929.2869-.2244.5994-.3807.9375-.4687.3409-.091.6761-.1364 1.0057-.1364.2102 0 .4517.0256.7244.0767.2756.0483.5412.1491.7969.3026.2585.1534.473.3849.6435.6946.1704.3096.2556.7244.2556 1.2443v4.3125h-1.0056v-.8864h-.0512c-.0682.1421-.1818.294-.3409.456-.1591.1619-.3707.2997-.6349.4133-.2642.1137-.5867.1705-.9674.1705zm.1534-.9034c.3978 0 .733-.0781 1.0057-.2344.2756-.1562.483-.358.6222-.6051.142-.2472.2131-.5071.2131-.7798v-.9205c-.0427.0511-.1364.098-.2813.1406-.142.0398-.3068.0753-.4943.1066-.1847.0284-.3651.0539-.5412.0767-.1733.0199-.3139.0369-.4219.0511-.2613.0341-.5057.0895-.7329.1662-.2245.0739-.4063.1861-.5455.3366-.1364.1478-.2045.3495-.2045.6052 0 .3494.1292.6136.3877.7926.2614.1761.5924.2642.9929.2642z" fill-rule="evenodd"/><path d="m92.8401 38.0625v3.9375h-1.0057v-8.7273h1.0057v3.2045h.0852c.1534-.338.3835-.6065.6904-.8053.3096-.2018.7215-.3026 1.2358-.3026.446 0 .8366.0895 1.1718.2685.3353.1761.5952.4474.7799.8139.1875.3636.2812.8267.2812 1.3892v4.1591h-1.0057v-4.0909c0-.5199-.1349-.9219-.4048-1.206-.267-.2869-.6378-.4304-1.1122-.4304-.3296 0-.625.0696-.8864.2088-.2585.1392-.4631.3423-.6136.6094-.1477.267-.2216.5909-.2216.9716z"/><path clip-rule="evenodd" d="m100.85 42.1534c-.414 0-.791-.0781-1.1289-.2344-.338-.1591-.6065-.3878-.8054-.6861-.1988-.3011-.2983-.6647-.2983-1.0909 0-.375.0739-.679.2216-.9119.1478-.2358.3452-.4205.5924-.554.2471-.1335.5198-.2329.8186-.2983.301-.0682.603-.1221.907-.1619.398-.0512.72-.0895.968-.1151.25-.0284.431-.0753.545-.1406.116-.0653.175-.179.175-.3409v-.0341c0-.4205-.115-.7472-.345-.9801-.228-.233-.573-.3494-1.036-.3494-.48 0-.857.1051-1.129.3153-.273.2102-.4647.4347-.5755.6733l-.9546-.3409c.1705-.3977.3978-.7074.6819-.929.2869-.2244.5992-.3807.9372-.4687.341-.091.676-.1364 1.006-.1364.21 0 .452.0256.724.0767.276.0483.542.1491.797.3026.259.1534.473.3849.644.6946.17.3096.255.7244.255 1.2443v4.3125h-1.005v-.8864h-.051c-.069.1421-.182.294-.341.456-.159.1619-.371.2997-.635.4133-.264.1137-.587.1705-.968.1705zm.154-.9034c.398 0 .733-.0781 1.005-.2344.276-.1562.483-.358.623-.6051.142-.2472.213-.5071.213-.7798v-.9205c-.043.0511-.137.098-.282.1406-.142.0398-.306.0753-.494.1066-.185.0284-.365.0539-.541.0767-.173.0199-.314.0369-.422.0511-.261.0341-.506.0895-.733.1662-.224.0739-.4061.1861-.5453.3366-.1364.1478-.2046.3495-.2046.6052 0 .3494.1293.6136.3879.7926.261.1761.592.2642.993.2642z" fill-rule="evenodd"/><path d="m105.686 42v-6.5455h.972v.9887h.068c.119-.3239.335-.5867.647-.7884.313-.2017.665-.3026 1.057-.3026.074 0 .166.0015.277.0043.111.0029.195.0071.252.0128v1.0227c-.034-.0085-.113-.0213-.235-.0383-.119-.0199-.245-.0299-.379-.0299-.318 0-.602.0668-.852.2003-.247.1307-.443.3125-.588.5455-.142.2301-.213.4929-.213.7883v4.1421z"/><path d="m110.151 42v-6.5455h.971v1.0227h.086c.136-.3494.356-.6207.66-.8139.304-.196.669-.294 1.095-.294.432 0 .792.098 1.078.294.29.1932.516.4645.678.8139h.068c.168-.338.419-.6065.754-.8053.336-.2018.738-.3026 1.206-.3026.586 0 1.064.1832 1.436.5497.373.3636.559.9304.559 1.7003v4.3807h-1.006v-4.3807c0-.483-.132-.8281-.396-1.0355s-.576-.3111-.934-.3111c-.46 0-.816.1392-1.069.4176-.253.2756-.379.625-.379 1.0483v4.2614h-1.023v-4.483c0-.3721-.121-.6719-.362-.8991-.242-.2301-.553-.3452-.934-.3452-.261 0-.505.0696-.733.2088-.224.1392-.406.3324-.545.5796-.136.2443-.205.5269-.205.848v4.0909z"/><path clip-rule="evenodd" d="m122.507 42.1534c-.415 0-.792-.0781-1.13-.2344-.338-.1591-.606-.3878-.805-.6861-.199-.3011-.298-.6647-.298-1.0909 0-.375.074-.679.221-.9119.148-.2358.345-.4205.593-.554.247-.1335.519-.2329.818-.2983.301-.0682.603-.1221.907-.1619.398-.0512.721-.0895.968-.1151.25-.0284.432-.0753.545-.1406.117-.0653.175-.179.175-.3409v-.0341c0-.4205-.115-.7472-.345-.9801-.227-.233-.573-.3494-1.036-.3494-.48 0-.856.1051-1.129.3153s-.464.4347-.575.6733l-.955-.3409c.171-.3977.398-.7074.682-.929.287-.2244.599-.3807.938-.4687.34-.091.676-.1364 1.005-.1364.21 0 .452.0256.725.0767.275.0483.541.1491.796.3026.259.1534.474.3849.644.6946.17.3096.256.7244.256 1.2443v4.3125h-1.006v-.8864h-.051c-.068.1421-.182.294-.341.456-.159.1619-.371.2997-.635.4133-.264.1137-.587.1705-.967.1705zm.153-.9034c.398 0 .733-.0781 1.006-.2344.275-.1562.483-.358.622-.6051.142-.2472.213-.5071.213-.7798v-.9205c-.043.0511-.136.098-.281.1406-.142.0398-.307.0753-.495.1066-.184.0284-.365.0539-.541.0767-.173.0199-.314.0369-.422.0511-.261.0341-.505.0895-.733.1662-.224.0739-.406.1861-.545.3366-.136.1478-.205.3495-.205.6052 0 .3494.13.6136.388.7926.262.1761.592.2642.993.2642z" fill-rule="evenodd"/><path d="m128.092 35.4545 1.568 2.6762 1.569-2.6762h1.159l-2.114 3.2727 2.114 3.2728h-1.159l-1.569-2.5398-1.568 2.5398h-1.159l2.08-3.2728-2.08-3.2727z"/><path clip-rule="evenodd" d="m136.212 42.1363c-.591 0-1.109-.1406-1.555-.4218-.443-.2813-.79-.6748-1.04-1.1804-.247-.5057-.371-1.0966-.371-1.7728 0-.6818.124-1.2769.371-1.7855.25-.5085.597-.9034 1.04-1.1846.446-.2813.964-.4219 1.555-.4219s1.108.1406 1.551.4219c.446.2812.793.6761 1.04 1.1846.25.5086.375 1.1037.375 1.7855 0 .6762-.125 1.2671-.375 1.7728-.247.5056-.594.8991-1.04 1.1804-.443.2812-.96.4218-1.551.4218zm0-.9034c.449 0 .818-.115 1.108-.3451.29-.2302.504-.5327.644-.9077.139-.375.208-.7813.208-1.2188s-.069-.8451-.208-1.223c-.14-.3778-.354-.6832-.644-.9162-.29-.2329-.659-.3494-1.108-.3494s-.818.1165-1.108.3494c-.289.233-.504.5384-.643.9162-.139.3779-.209.7855-.209 1.223s.07.8438.209 1.2188.354.6775.643.9077c.29.2301.659.3451 1.108.3451z" fill-rule="evenodd"/><path d="m146.747 42.1363c-.613 0-1.142-.1448-1.585-.4346s-.784-.6889-1.023-1.1975c-.238-.5085-.358-1.0895-.358-1.7429 0-.6647.123-1.2514.367-1.7599.247-.5114.591-.9105 1.031-1.1974.443-.2898.96-.4347 1.551-.4347.461 0 .875.0852 1.245.2557.369.1704.672.4091.907.7159.236.3068.382.6648.439 1.0738h-1.005c-.077-.2982-.248-.5625-.512-.7926-.261-.2329-.613-.3494-1.057-.3494-.392 0-.735.1023-1.031.3068-.292.2017-.521.4872-.686.8566-.162.3664-.243.7968-.243 1.2911 0 .5057.08.9461.239 1.3211.162.375.389.6662.682.8736.295.2073.642.311 1.039.311.262 0 .499-.0454.712-.1363s.394-.2216.541-.3921c.148-.1704.253-.375.316-.6136h1.005c-.057.3863-.197.7344-.422 1.044-.221.3068-.515.5512-.882.733-.363.179-.787.2684-1.27.2684z"/><path clip-rule="evenodd" d="m153.451 42.1363c-.591 0-1.11-.1406-1.556-.4218-.443-.2813-.79-.6748-1.04-1.1804-.247-.5057-.37-1.0966-.37-1.7728 0-.6818.123-1.2769.37-1.7855.25-.5085.597-.9034 1.04-1.1846.446-.2813.965-.4219 1.556-.4219.59 0 1.107.1406 1.551.4219.446.2812.792.6761 1.039 1.1846.25.5086.375 1.1037.375 1.7855 0 .6762-.125 1.2671-.375 1.7728-.247.5056-.593.8991-1.039 1.1804-.444.2812-.961.4218-1.551.4218zm0-.9034c.448 0 .818-.115 1.107-.3451.29-.2302.505-.5327.644-.9077s.209-.7813.209-1.2188-.07-.8451-.209-1.223c-.139-.3778-.354-.6832-.644-.9162-.289-.2329-.659-.3494-1.107-.3494-.449 0-.819.1165-1.108.3494-.29.233-.505.5384-.644.9162-.139.3779-.209.7855-.209 1.223s.07.8438.209 1.2188.354.6775.644.9077c.289.2301.659.3451 1.108.3451z" fill-rule="evenodd"/><path d="m158.957 42h-1.005v-6.5455h.971v1.0227h.085c.137-.3494.357-.6207.661-.8139.304-.196.669-.294 1.095-.294.432 0 .791.098 1.078.294.29.1932.516.4645.678.8139h.068c.168-.338.419-.6065.754-.8053.335-.2018.737-.3026 1.206-.3026.585 0 1.064.1832 1.436.5497.372.3636.559.9304.559 1.7003v4.3807h-1.006v-4.3807c0-.483-.132-.8281-.396-1.0355-.265-.2074-.576-.3111-.934-.3111-.46 0-.816.1392-1.069.4176-.253.2756-.38.625-.38 1.0483v4.2614h-1.022v-4.483c0-.3721-.121-.6719-.363-.8991-.241-.2301-.552-.3452-.933-.3452-.261 0-.505.0696-.733.2088-.224.1392-.406.3324-.545.5796-.137.2443-.205.5269-.205.848z"/><path clip-rule="evenodd" d="m168.381 44.4545v-9h.972v1.0398h.119c.074-.1136.176-.2585.307-.4347.134-.1789.324-.338.571-.4772.25-.1421.588-.2131 1.014-.2131.551 0 1.037.1378 1.458.4133.42.2756.748.6662.984 1.1719s.354 1.1023.354 1.7898c0 .6932-.118 1.294-.354 1.8026-.236.5056-.563.8977-.98 1.1761-.418.2756-.899.4133-1.445.4133-.42 0-.757-.0696-1.01-.2088-.253-.142-.447-.3025-.583-.4815-.137-.1818-.242-.3324-.316-.4517h-.085v3.4602zm.989-5.7273c0 .4944.072.9304.217 1.3083.145.375.357.669.635.8821.279.2102.62.3153 1.023.3153.42 0 .771-.1108 1.052-.3324.285-.2244.498-.5255.64-.9034.145-.3806.217-.8039.217-1.2699 0-.4602-.071-.875-.213-1.2443-.139-.3721-.351-.6662-.635-.8821-.281-.2187-.635-.3281-1.061-.3281-.409 0-.753.1037-1.031.3111-.279.2045-.489.4915-.631.8608-.142.3665-.213.794-.213 1.2826z" fill-rule="evenodd"/><path clip-rule="evenodd" d="m177.62 42.1534c-.415 0-.791-.0781-1.129-.2344-.338-.1591-.607-.3878-.806-.6861-.199-.3011-.298-.6647-.298-1.0909 0-.375.074-.679.222-.9119.147-.2358.345-.4205.592-.554s.52-.2329.818-.2983c.301-.0682.604-.1221.908-.1619.397-.0512.72-.0895.967-.1151.25-.0284.432-.0753.546-.1406.116-.0653.174-.179.174-.3409v-.0341c0-.4205-.115-.7472-.345-.9801-.227-.233-.572-.3494-1.035-.3494-.481 0-.857.1051-1.13.3153-.272.2102-.464.4347-.575.6733l-.955-.3409c.171-.3977.398-.7074.682-.929.287-.2244.6-.3807.938-.4687.341-.091.676-.1364 1.005-.1364.211 0 .452.0256.725.0767.275.0483.541.1491.797.3026.258.1534.473.3849.643.6946.171.3096.256.7244.256 1.2443v4.3125h-1.006v-.8864h-.051c-.068.1421-.182.294-.341.456-.159.1619-.371.2997-.635.4133-.264.1137-.586.1705-.967.1705zm.153-.9034c.398 0 .733-.0781 1.006-.2344.276-.1562.483-.358.622-.6051.142-.2472.213-.5071.213-.7798v-.9205c-.042.0511-.136.098-.281.1406-.142.0398-.307.0753-.494.1066-.185.0284-.365.0539-.542.0767-.173.0199-.313.0369-.421.0511-.262.0341-.506.0895-.733.1662-.225.0739-.407.1861-.546.3366-.136.1478-.204.3495-.204.6052 0 .3494.129.6136.387.7926.262.1761.593.2642.993.2642z" fill-rule="evenodd"/><path d="m183.461 38.0625v3.9375h-1.005v-6.5455h.971v1.0227h.085c.154-.3323.387-.5994.699-.8011.313-.2045.716-.3068 1.21-.3068.444 0 .831.0909 1.164.2727.332.179.591.4517.775.8182.185.3636.277.8239.277 1.3807v4.1591h-1.005v-4.0909c0-.5142-.134-.9148-.401-1.2017-.267-.2898-.633-.4347-1.099-.4347-.321 0-.608.0696-.861.2088-.25.1392-.448.3423-.592.6094-.145.267-.218.5909-.218.9716z"/><path d="m189.888 44.4545c-.17 0-.322-.0142-.456-.0426-.133-.0256-.225-.0511-.277-.0767l.256-.8864c.244.0625.46.0853.648.0682.187-.017.354-.1008.498-.2514.148-.1477.283-.3878.405-.7202l.188-.5113-2.421-6.5796h1.091l1.807 5.2159h.068l1.807-5.2159h1.091l-2.778 7.5c-.125.3381-.28.6179-.465.8395-.185.2244-.399.3906-.643.4986-.242.1079-.515.1619-.819.1619z"/></g></svg>