<svg fill="none" height="32" viewBox="0 0 121 32" width="121" xmlns="http://www.w3.org/2000/svg"><g fill="#212121"><path d="m0 12.418h2.4836v-4.16419h1.81251l2.22549 4.16419h2.74171l-2.49507-4.5657c1.33644-.57358 2.07636-1.73794 2.07636-3.34396 0-2.33447-1.54293-3.837252-4.21008-3.837252h-4.63452zm2.4836-6.16025v-3.55619h1.67485c1.43395 0 2.12798.63667 2.12798 1.80678 0 1.16436-.69403 1.74941-2.11651 1.74941z"/><path d="m14.427 12.5901c2.1796 0 3.6479-1.0612 3.9921-2.69585l-2.2599-.14913c-.2467.67108-.8776 1.02098-1.6921 1.02098-1.2217 0-1.996-.80876-1.996-2.12226v-.00573h5.9996v-.67109c0-2.99409-1.8125-4.47392-4.1413-4.47392-2.5925 0-4.2731 1.84119-4.2731 4.55996 0 2.79334 1.6576 4.53704 4.3707 4.53704zm-1.9559-5.46624c.0516-1.00377.8144-1.80678 1.8985-1.80678 1.0611 0 1.7953.75713 1.801 1.80678z"/><path d="m28.1369 3.60782h-2.5868l-1.824 6.30363h-.0918l-1.8297-6.30363h-2.5811l3.0801 8.81018h2.7532z"/><path d="m33.0683 12.5901c2.6729 0 4.3363-1.8297 4.3363-4.54278 0-2.73024-1.6634-4.55422-4.3363-4.55422s-4.3363 1.82398-4.3363 4.55422c0 2.71308 1.6634 4.54278 4.3363 4.54278zm.0115-1.8928c-1.2332 0-1.8642-1.12999-1.8642-2.66719 0-1.53719.631-2.67288 1.8642-2.67288 1.2102 0 1.8412 1.13569 1.8412 2.67288 0 1.5372-.631 2.66719-1.8412 2.66719z"/><path d="m41.4368.671088h-2.4434v11.746912h2.4434z"/><path d="m49.0439 8.66679c.0058 1.18157-.803 1.80101-1.6806 1.80101-.9234 0-1.52-.64812-1.5257-1.6863v-5.17368h-2.4434v5.6096c.0057 2.05918 1.2102 3.31528 2.9826 3.31528 1.3249 0 2.2771-.6825 2.6729-1.715h.0917v1.6003h2.346v-8.81018h-2.4435z"/><path d="m58.128 3.60782h-1.6577v-2.11078h-2.4434v2.11078h-1.2045v1.83545h1.2045v4.58863c-.0115 1.7265 1.1644 2.5811 2.9367 2.5065.6309-.0229 1.0783-.1491 1.325-.2294l-.3843-1.8182c-.1205.0229-.3786.0803-.608.0803-.4876 0-.826-.1836-.826-.8604v-4.26743h1.6577z"/><path d="m59.7197 12.418h2.4434v-8.81018h-2.4434zm1.2274-9.94587c.7285 0 1.325-.55637 1.325-1.23893 0-.676827-.5965-1.2332-1.325-1.2332-.7227 0-1.3192.556373-1.3192 1.2332 0 .68256.5965 1.23893 1.3192 1.23893z"/><path d="m68.1011 12.5901c2.6729 0 4.3363-1.8297 4.3363-4.54278 0-2.73024-1.6634-4.55422-4.3363-4.55422s-4.3363 1.82398-4.3363 4.55422c0 2.71308 1.6634 4.54278 4.3363 4.54278zm.0115-1.8928c-1.2332 0-1.8642-1.12999-1.8642-2.66719 0-1.53719.631-2.67288 1.8642-2.67288 1.2102 0 1.8412 1.13569 1.8412 2.67288 0 1.5372-.631 2.66719-1.8412 2.66719z"/><path d="m76.4696 7.32461c.0058-1.13569.6826-1.80104 1.6691-1.80104.9809 0 1.5716.64241 1.5659 1.72074v5.17369h2.4435v-5.60961c0-2.05342-1.2046-3.31529-3.04-3.31529-1.3078 0-2.2542.64241-2.65 1.66912h-.1032v-1.5544h-2.3287v8.81018h2.4434z"/><path d="m84.0739 12.418h2.4434v-8.81018h-2.4434zm1.2274-9.94587c.7285 0 1.325-.55637 1.325-1.23893 0-.676827-.5965-1.2332-1.325-1.2332-.7227 0-1.3192.556373-1.3192 1.2332 0 .68256.5965 1.23893 1.3192 1.23893z"/><path d="m95.805 6.12009c-.218-1.62323-1.5257-2.62699-3.7512-2.62699-2.2542 0-3.7398 1.04391-3.734 2.74171-.0058 1.31923.8259 2.17387 2.5467 2.51801l1.5257.304c.7686.15487 1.1185.43592 1.1299.87758-.0114.522-.5793.8948-1.4339.8948-.8718 0-1.4512-.3728-1.6003-1.08982l-2.4033.12619c.2294 1.68633 1.6634 2.72453 3.9979 2.72453 2.2828 0 3.9175-1.1644 3.9232-2.90234-.0057-1.27335-.8374-2.03621-2.5467-2.38609l-1.5945-.32121c-.8202-.17781-1.1242-.45886-1.1185-.88331-.0057-.52769.5908-.87184 1.3479-.87184.8489 0 1.3537.4646 1.4741 1.03244z"/><path d="m97.5444 12.418h2.4434v-8.81018h-2.4434zm1.2274-9.94587c.7285 0 1.3252-.55637 1.3252-1.23893 0-.676827-.5967-1.2332-1.3252-1.2332-.7227 0-1.3192.556373-1.3192 1.2332 0 .68256.5965 1.23893 1.3192 1.23893z"/><path d="m104.389 7.32461c.005-1.13569.682-1.80104 1.669-1.80104.981 0 1.571.64241 1.566 1.72074v5.17369h2.443v-5.60961c0-2.05342-1.204-3.31529-3.04-3.31529-1.308 0-2.254.64241-2.65 1.66912h-.103v-1.5544h-2.329v8.81018h2.444z"/><path d="m115.962 15.848c2.518 0 4.308-1.1472 4.308-3.344v-8.89618h-2.427v1.47983h-.091c-.327-.71697-1.044-1.59455-2.518-1.59455-1.933 0-3.568 1.50278-3.568 4.5026 0 2.931 1.589 4.2961 3.573 4.2961 1.406 0 2.191-.7055 2.513-1.4339h.103v1.6117c0 1.1529-.775 1.6232-1.836 1.6232-1.078 0-1.623-.4703-1.824-.9464l-2.26.304c.293 1.3307 1.652 2.3976 4.027 2.3976zm.052-5.3916c-1.199 0-1.853-.95219-1.853-2.47217 0-1.49705.642-2.5467 1.853-2.5467 1.187 0 1.852 1.00377 1.852 2.5467 0 1.5544-.677 2.47217-1.852 2.47217z"/><path d="m0 16.8231v11.7469h2.40903v-7.6745h.09751l3.03997 7.6171h1.64044l3.03995-7.5884h.0975v7.6458h2.4091v-11.7469h-3.06295l-3.23499 7.8924h-.13766l-3.23499-7.8924z"/><path d="m14.8758 28.57h2.4434v-8.8102h-2.4434zm1.2274-9.9459c.7285 0 1.325-.5563 1.325-1.2389 0-.6768-.5965-1.2332-1.325-1.2332-.7227 0-1.3192.5564-1.3192 1.2332 0 .6826.5965 1.2389 1.3192 1.2389z"/><path d="m23.2572 28.7421c2.346 0 3.8201-1.3766 3.9348-3.4014h-2.3058c-.1434.9407-.7629 1.4684-1.6003 1.4684-1.1414 0-1.8813-.9579-1.8813-2.6442 0-1.6634.7456-2.6155 1.8813-2.6155.8948 0 1.4684.5908 1.6003 1.4683h2.3058c-.1033-2.0362-1.6462-3.3726-3.9463-3.3726-2.6728 0-4.3247 1.8527-4.3247 4.5542 0 2.6786 1.6232 4.5428 4.3362 4.5428z"/><path d="m28.7564 28.57h2.4435v-4.9844c.0057-1.0783.7858-1.8183 1.7723-1.8183.3327 0 .6023.0918.8317.2065l.7342-2.019c-.3212-.195-.7342-.3212-1.2045-.3212-.9923 0-1.7953.5736-2.1165 1.6634h-.0918v-1.5372h-2.3689z"/><path d="m39.2515 28.7421c2.6729 0 4.3362-1.8297 4.3362-4.5428 0-2.7302-1.6633-4.5542-4.3362-4.5542s-4.3363 1.824-4.3363 4.5542c0 2.7131 1.6634 4.5428 4.3363 4.5428zm.0115-1.8928c-1.2332 0-1.8642-1.13-1.8642-2.6672s.631-2.6729 1.8642-2.6729c1.2102 0 1.8411 1.1357 1.8411 2.6729s-.6309 2.6672-1.8411 2.6672z"/><path d="m45.2224 28.57h2.4091v-1.411h.109c.3384.7342 1.0783 1.5544 2.5008 1.5544 2.0075 0 3.5734-1.5888 3.5734-4.537 0-3.0285-1.6347-4.5313-3.5677-4.5313-1.4741 0-2.1796.8776-2.5065 1.5945h-.0746v-4.4165h-2.4435zm2.3919-4.4051c0-1.5716.6653-2.5754 1.8526-2.5754 1.2103 0 1.8527 1.0497 1.8527 2.5754 0 1.5372-.6539 2.6041-1.8527 2.6041-1.1758 0-1.8526-1.0325-1.8526-2.6041z"/><path d="m55.4451 28.57h2.4434v-8.8102h-2.4434zm1.2274-9.9459c.7285 0 1.325-.5563 1.325-1.2389 0-.6768-.5965-1.2332-1.325-1.2332-.7227 0-1.3192.5564-1.3192 1.2332 0 .6826.5965 1.2389 1.3192 1.2389z"/><path d="m63.8265 28.7421c2.6729 0 4.3363-1.8297 4.3363-4.5428 0-2.7302-1.6634-4.5542-4.3363-4.5542s-4.3363 1.824-4.3363 4.5542c0 2.7131 1.6634 4.5428 4.3363 4.5428zm.0115-1.8928c-1.2332 0-1.8642-1.13-1.8642-2.6672s.631-2.6729 1.8642-2.6729c1.2102 0 1.8412 1.1357 1.8412 2.6729s-.631 2.6672-1.8412 2.6672z"/><path d="m72.195 16.8231h-2.4434v11.7469h2.4434z"/><path d="m78.133 28.7421c2.6729 0 4.3363-1.8297 4.3363-4.5428 0-2.7302-1.6634-4.5542-4.3363-4.5542s-4.3363 1.824-4.3363 4.5542c0 2.7131 1.6634 4.5428 4.3363 4.5428zm.0115-1.8928c-1.2332 0-1.8642-1.13-1.8642-2.6672s.631-2.6729 1.8642-2.6729c1.2102 0 1.8412 1.1357 1.8412 2.6729s-.631 2.6672-1.8412 2.6672z"/><path d="m88.0272 32c2.5181 0 4.3076-1.1472 4.3076-3.344v-8.8962h-2.4262v1.4798h-.0918c-.3269-.7169-1.0439-1.5945-2.518-1.5945-1.933 0-3.5677 1.5028-3.5677 4.5026 0 2.931 1.5889 4.2961 3.5734 4.2961 1.4053 0 2.1911-.7055 2.5123-1.4339h.1033v1.6117c0 1.1529-.7744 1.6232-1.8355 1.6232-1.0783 0-1.6232-.4703-1.824-.9464l-2.2599.304c.2925 1.3307 1.6519 2.3976 4.0265 2.3976zm.0517-5.3916c-1.1988 0-1.8527-.9522-1.8527-2.4722 0-1.497.6424-2.5467 1.8527-2.5467 1.1873 0 1.8526 1.0038 1.8526 2.5467 0 1.5544-.6768 2.4722-1.8526 2.4722z"/><path d="m95.7017 32c1.7896 0 2.8507-1.0095 3.3497-2.4205l3.4416-9.8197h-2.5869l-1.8412 6.47h-.0918l-1.824-6.47h-2.5696l3.1604 9.0626-.1606.4244c-.3441.803-.9349.8546-1.7953.5908l-.5506 1.8928c.2753.1205.7743.2696 1.4683.2696z"/></g></svg>