<?xml version="1.0" encoding="UTF-8"?>
<svg width="64px" height="64px" viewBox="0 0 64 64" version="1.1" xmlns="http://www.w3.org/2000/svg" xmlns:xlink="http://www.w3.org/1999/xlink">
    <!-- Generator: Sketch 42 (36781) - http://www.bohemiancoding.com/sketch -->
    <title>microgenetics-avatar</title>
    <desc>Created with Sketch.</desc>
    <defs></defs>
    <g id="Brands" stroke="none" stroke-width="1" fill="none" fill-rule="evenodd">
        <g id="Microgenetics-avatar">
            <g id="microgenetics-avatar">
                <rect id="Rectangle-4" fill="#FF0000" x="0" y="0" width="64" height="64"></rect>
                <path d="M31.966736,24 C35.4261954,24 37.6881497,25.6666667 39.4178794,27.6 C39.5509356,27.7333333 39.6174636,27.8666667 39.7505198,28 C39.8835759,28.1333333 39.950104,28.2666667 40.0831601,28.4 C40.6819127,29.1333333 41.1476091,29.9333333 41.6133056,30.6 C41.9459459,31.0666667 42.2120582,31.5333333 42.5446985,31.9333333 C42.6777547,32.0666667 42.7442827,32.2 42.8773389,32.3333333 C43.010395,32.4666667 43.0769231,32.6 43.2099792,32.7333333 C44.4740125,34.2666667 45.7380457,35.2666667 47.6008316,35.4 C47.8669439,34.2666667 48,33.1333333 48,31.9333333 C48,30.7333333 47.8669439,29.5333333 47.6008316,28.4666667 C45.7380457,28.6 44.4740125,29.5333333 43.2099792,31.1333333 C43.010395,30.8 42.7442827,30.4666667 42.4781705,30.0666667 C41.9459459,29.3333333 41.4137214,28.4666667 40.7484407,27.6 C42.0790021,26.0666667 43.7422037,24.7333333 46.004158,24.2 C43.2099792,19.3333333 37.954262,16 31.966736,16 C25.97921,16 20.7234927,19.3333333 17.995842,24.2 C20.2577963,24.7333333 21.8544699,26.0666667 23.2515593,27.6 C23.3846154,27.7333333 23.4511435,27.8666667 23.5841996,28 C23.7172557,28.1333333 23.7837838,28.2666667 23.9168399,28.4 C24.5821206,29.2 25.1143451,30.0666667 25.6465696,30.8666667 C25.9126819,31.2666667 26.1122661,31.6 26.3783784,31.9333333 C26.5114345,32.0666667 26.5779626,32.2 26.7110187,32.4 C26.8440748,32.5333333 26.9106029,32.6666667 27.043659,32.8666667 C28.4407484,34.8 29.8378378,36.1333333 32.033264,36.1333333 L32.033264,36.1333333 C34.2286902,36.1333333 35.6257796,34.8 37.022869,32.8666667 C37.1559252,33.1333333 37.3555094,33.3333333 37.4885655,33.6 C38.0873181,34.4666667 38.6860707,35.4666667 39.4178794,36.3333333 C37.7546778,38.2666667 35.4261954,39.9333333 31.966736,39.9333333 C28.5072765,39.9333333 26.2453222,38.2666667 24.5155925,36.3333333 C24.3825364,36.2 24.3160083,36.0666667 24.1829522,35.9333333 C24.049896,35.8 23.983368,35.6666667 23.8503119,35.5333333 C23.2515593,34.8 22.7858628,34 22.3201663,33.3333333 C21.987526,32.8666667 21.7214137,32.4 21.3887734,32 C21.2557173,31.8666667 21.1891892,31.7333333 21.0561331,31.6 C20.9230769,31.4666667 20.8565489,31.3333333 20.7234927,31.2 C19.4594595,29.6666667 18.1954262,28.6666667 16.3326403,28.5333333 C16.1330561,29.6 16,30.8 16,32 C16,33.2 16.1330561,34.4 16.3991684,35.4666667 C18.2619543,35.3333333 19.5259875,34.4 20.7900208,32.8 C20.989605,33.1333333 21.2557173,33.4666667 21.5218295,33.8666667 C22.0540541,34.6 22.5862786,35.4666667 23.2515593,36.3333333 C21.9209979,37.8666667 20.2577963,39.2 17.995842,39.7333333 C20.7234927,44.6666667 25.97921,48 31.966736,48 C37.954262,48 43.2099792,44.6666667 45.9376299,39.8 C43.6756757,39.2666667 42.0790021,37.9333333 40.6819127,36.4 C40.5488565,36.2666667 40.4823285,36.1333333 40.3492723,36 C40.2162162,35.8666667 40.1496881,35.7333333 40.016632,35.6 C39.3513514,34.8 38.8191268,33.9333333 38.2869023,33.1333333 C38.02079,32.7333333 37.8212058,32.4 37.5550936,32.0666667 C37.4220374,31.9333333 37.3555094,31.8 37.2224532,31.6 C37.0893971,31.4666667 37.022869,31.3333333 36.8898129,31.1333333 C35.4927235,29.2 34.0956341,27.8666667 31.9002079,27.8666667 L31.9002079,27.8666667 C29.7047817,27.8666667 28.3076923,29.2 26.9106029,31.1333333 C26.7775468,30.8666667 26.5779626,30.6666667 26.4449064,30.4 C25.8461538,29.5333333 25.2474012,28.5333333 24.5155925,27.6666667 C26.2453222,25.6666667 28.5072765,24 31.966736,24 Z" id="Shape" fill="#FFFFFF" fill-rule="nonzero"></path>
            </g>
        </g>
    </g>
</svg>