<svg fill="none" height="32" viewBox="0 0 32 32" width="32" xmlns="http://www.w3.org/2000/svg"><path d="m15.9667 8c3.4595 0 5.7214 1.66667 7.4512 3.6.133.1333.1996.2667.3326.4.1331.1333.1996.2667.3327.4.5987.7333 1.0644 1.5333 1.5301 2.2.3326.4667.5988.9333.9314 1.3333.1331.1334.1996.2667.3326.4.1331.1334.1996.2667.3327.4 1.264 1.5334 2.528 2.5334 4.3908 2.6667.2661-1.1333.3992-2.2667.3992-3.4667s-.1331-2.4-.3992-3.4666c-1.8628.1333-3.1268 1.0666-4.3908 2.6666-.1996-.3333-.4657-.6666-.7318-1.0666-.5323-.7334-1.0645-1.6-1.7298-2.4667 1.3306-1.5333 2.9938-2.86667 5.2558-3.4-2.7942-4.86667-8.0499-8.2-14.0375-8.2-5.98749 0-11.24321 3.33333-13.97086 8.2 2.26196.53333 3.85863 1.8667 5.25572 3.4.13306.1333.19958.2667.33264.4s.19958.2667.33264.4c.66528.8 1.1975 1.6667 1.72973 2.4667.26611.4.46573.7333.73183 1.0666.133.1334.1996.2667.3326.4667.1331.1333.1996.2667.3327.4667 1.397 1.9333 2.7941 3.2666 4.9896 3.2666 2.1954 0 3.5925-1.3333 4.9896-3.2666.133.2666.3326.4666.4657.7333.5987.8667 1.1975 1.8667 1.9293 2.7333-1.6632 1.9334-3.9917 3.6-7.4512 3.6-3.4594 0-5.7214-1.6666-7.45111-3.6-.13305-.1333-.19958-.2666-.33264-.4-.13305-.1333-.19958-.2666-.33264-.4-.59875-.7333-1.06445-1.5333-1.53014-2.2-.33264-.4666-.59876-.9333-.9314-1.3333-.13305-.1333-.19958-.2667-.33264-.4-.13305-.1333-.19958-.2667-.33264-.4-1.26403-1.5333-2.52806-2.5333-4.39085-2.6667-.199584 1.0667-.33264 2.2667-.33264 3.4667s.133056 2.4.399168 3.4667c1.862782-.1334 3.126822-1.0667 4.390852-2.6667.19959.3333.4657.6667.73181 1.0667.53222.7333 1.06445 1.6 1.72973 2.4666-1.33056 1.5334-2.99376 2.8667-5.25572 3.4 2.72765 4.9334 7.98337 8.2667 13.97086 8.2667 5.9876 0 11.2433-3.3333 13.9709-8.2-2.2619-.5333-3.8586-1.8667-5.2557-3.4-.133-.1333-.1996-.2667-.3326-.4-.1331-.1333-.1996-.2667-.3327-.4-.6652-.8-1.1975-1.6667-1.7297-2.4667-.2661-.4-.4657-.7333-.7318-1.0666-.1331-.1334-.1996-.2667-.3326-.4667-.1331-.1333-.1996-.2667-.3327-.4667-1.3971-1.9333-2.7942-3.2666-4.9896-3.2666s-3.5925 1.3333-4.9896 3.2666c-.1331-.2666-.3326-.4666-.4657-.7333-.59875-.8667-1.1975-1.8667-1.92931-2.7333 1.72971-2.00003 3.99171-3.6667 7.45111-3.6667z" fill="#ff1744"/></svg>