<svg fill="none" height="45" viewBox="0 0 168 45" width="168" xmlns="http://www.w3.org/2000/svg"><g fill="#212121"><path d="m26.3451 13.05c-1.9459-2.175-4.4906-4.05-8.3825-4.05s-6.4366 1.875-8.38256 4.125c.58856.697 1.10066 1.4708 1.59096 2.2115.1955.2954.3875.5855.5795.8635.0749.15.1684.2813.262.4125.0935.1313.1871.2625.2619.4125 1.5718-2.175 3.1435-3.675 5.6133-3.675 2.4699 0 4.0416 1.5 5.6133 3.675.0401.0603.0749.1152.1071.1661.0881.1393.1576.2491.2672.3589.0401.0603.0748.1152.107.1662.0881.1392.1576.249.2672.3588.222.2781.4029.5562.6036.865.07.1075.1423.2187.2197.335.1185.1782.2371.3594.3569.5424.4848.7408.9888 1.5108 1.589 2.2326.0749.075.131.15.1871.225.0562.075.1123.15.1871.225.0749.075.131.15.1871.225.0562.075.1123.15.1872.225 1.5717 1.725 3.3679 3.225 5.9126 3.825-3.0686 5.475-8.9813 9.225-15.7172 9.225-6.736 0-12.64867-3.75-15.71728-9.3 2.5447-.6 4.4158-2.1 5.91268-3.825-.44615-.5812-.83912-1.1624-1.2106-1.7119-.25169-.3722-.49351-.7299-.73534-1.0631-.12497-.1878-.24994-.3626-.36946-.5298-.16681-.2333-.32302-.4517-.45383-.6702-1.42203 1.8-2.84407 2.85-4.939706 3-.299376-1.2-.449064-2.55-.449064-3.9s.149688-2.7.37422-3.9c2.09563.15 3.51767 1.275 4.93971 3 .07484.075.13098.15.18711.225s.11227.15.18711.225.13098.15.18711.225.11227.15.18711.225c.23357.2809.43798.5909.64963.912.12745.1934.25753.3907.39819.588.1733.2481.3466.5126.52532.7854.36157.5518.74531 1.1375 1.19609 1.6896.07484.075.13098.15.18711.225s.11227.15.18711.225.13098.15.18711.225.11227.15.18711.225c1.94596 2.175 4.49066 4.05 8.38256 4.05s6.5114-1.875 8.3825-4.05c-.5886-.697-1.1006-1.4708-1.5909-2.2115-.1955-.2954-.3875-.5855-.5796-.8635-.0748-.15-.1684-.2812-.2619-.4125-.0936-.1312-.1871-.2625-.262-.4125-1.5717 2.175-3.1434 3.675-5.6133 3.675-2.4698 0-4.0416-1.5-5.6133-3.675-.0401-.0603-.0748-.1152-.1071-.1662-.0881-.1392-.1575-.249-.2671-.3588-.0401-.0603-.0749-.1152-.1071-.1662-.0881-.1392-.1575-.249-.2671-.3588-.2221-.2781-.4029-.5562-.6037-.865-.0699-.1075-.1423-.2187-.2196-.335-.1186-.1782-.2372-.3594-.3569-.5424-.4849-.7408-.98883-1.5108-1.58905-2.2326-.07485-.075-.13098-.15-.18712-.225-.05613-.075-.11226-.15-.18711-.225-.07484-.075-.13097-.15-.18711-.225-.05613-.075-.11226-.15-.18711-.225-1.57172-1.725-3.36798-3.225-5.91268-3.825 3.06861-5.475 8.98128-9.225 15.71728-9.225 6.7359 0 12.6486 3.75 15.7921 9.225-2.5447.6-4.4158 2.1-5.9127 3.825.4462.5812.8391 1.1624 1.2106 1.7119.2517.3722.4935.7299.7353 1.0631.125.1878.25.3626.3695.5298.1668.2333.323.4517.4538.6702 1.4221-1.8 2.8441-2.85 4.9397-3 .2994 1.2.4491 2.55.4491 3.9s-.1497 2.625-.4491 3.9c-2.0956-.15-3.5176-1.275-4.9397-3-.0748-.075-.1309-.15-.1871-.225-.0561-.075-.1123-.15-.1871-.225s-.131-.15-.1871-.225-.1123-.15-.1871-.225c-.2336-.2809-.438-.5909-.6496-.912-.1275-.1933-.2576-.3907-.3982-.588-.1733-.2481-.3466-.5126-.5254-.7854-.3615-.5518-.7453-1.1375-1.196-1.6896-.0749-.075-.131-.15-.1872-.225-.0561-.075-.1122-.15-.1871-.225-.0748-.075-.1309-.15-.1871-.225-.0561-.075-.1122-.15-.1871-.225z"/><path d="m74.8555 11.9609c.3541.3282.7786.4922 1.2734.4922s.9167-.164 1.2656-.4922c.3542-.3333.5313-.7317.5313-1.1953 0-.4583-.1771-.85154-.5313-1.17966-.3489-.33334-.7708-.5-1.2656-.5s-.9193.16666-1.2734.5c-.349.32812-.5235.72136-.5235 1.17966 0 .4636.1745.862.5235 1.1953z"/><path d="m74.457 14v12h3.3282v-12z"/><path d="m49.2656 13.1328c.474.349.7422.8386.8047 1.4688h3.2422c-.0156-.9532-.2708-1.7917-.7656-2.5157-.4948-.7239-1.1875-1.289-2.0781-1.6953-.8855-.40622-1.9219-.60935-3.1094-.60935-1.1667 0-2.2084.20313-3.125.60935-.9167.4063-1.638.9714-2.1641 1.6953-.5208.724-.7786 1.5703-.7734 2.5391-.0052 1.1823.3828 2.1224 1.164 2.8203.7813.6979 1.8464 1.2109 3.1953 1.5391l1.7422.4375c.5834.1406 1.0756.2969 1.4766.4687.4062.1719.7135.3802.9219.625.2135.2448.3203.5469.3203.9063 0 .3854-.1172.7265-.3516 1.0234s-.5651.5287-.9922.6953c-.4218.1667-.9192.25-1.4922.25-.5833 0-1.1067-.0885-1.5703-.2656-.4583-.1823-.8255-.4505-1.1015-.8047-.2709-.3594-.4245-.8073-.461-1.3437h-3.2734c.026 1.151.3047 2.1172.8359 2.8984.5365.776 1.2813 1.362 2.2344 1.7578.9583.3958 2.0833.5938 3.375.5938 1.3021 0 2.4141-.1954 3.3359-.586.9271-.3958 1.6355-.9505 2.125-1.664.4948-.7188.7448-1.5677.75-2.5469-.0052-.6667-.1276-1.2578-.3671-1.7735-.2344-.5156-.5651-.9635-.9922-1.3437s-.9323-.7005-1.5157-.9609c-.5833-.2605-1.2239-.4688-1.9218-.625l-1.4375-.3438c-.349-.0781-.6771-.1719-.9844-.2812-.3073-.1146-.5781-.2474-.8125-.3985-.2344-.1562-.4193-.3411-.5547-.5547-.1302-.2135-.1901-.4635-.1797-.75 0-.3437.099-.651.2969-.9218.2031-.2709.4948-.4818.875-.6328.3802-.1563.8464-.2344 1.3984-.2344.8125 0 1.4558.1745 1.9297.5234z"/><path d="m58.1113 26-3.2656-12h3.3672l1.8594 8.0625h.1093l1.9375-8.0625h3.3047l1.9688 8.0156h.1015l1.8282-8.0156h3.3593l-3.2578 12h-3.5234l-2.0625-7.5469h-.1484l-2.0625 7.5469z"/><path d="m86.9043 16.5v-2.5h-2.3906v-.8047c0-.4062.0963-.7213.289-.9453.1927-.2292.5339-.3437 1.0235-.3437.1979 0 .3906.0182.5781.0546.1927.0365.3542.0756.4844.1172l.5937-2.49997c-.2083-.0625-.526-.13282-.9531-.21094-.4219-.07813-.888-.11719-1.3984-.11719-.7552 0-1.4297.14323-2.0235.42969-.5937.28646-1.0625.71611-1.4062 1.28911-.3386.5729-.5078 1.2942-.5078 2.164v.8672h-1.6954v2.5h1.6954v9.5h3.3203v-9.5z"/><path d="m95.3203 16.5v-2.5h-2.2578v-2.875h-3.3281v2.875h-1.6406v2.5h1.6406v6.25c-.0052.7865.1588 1.4375.4922 1.9531.3333.5157.7994.8959 1.3984 1.1407.6042.2447 1.3073.3515 2.1094.3203.4323-.0157.7995-.0599 1.1015-.1329.3021-.0677.5365-.1276.7032-.1796l-.5235-2.4766c-.0833.0156-.2031.0391-.3594.0703-.1562.0261-.3124.0391-.4687.0391-.224 0-.4219-.0339-.5937-.1016-.1667-.0677-.2969-.1849-.3907-.3516-.0937-.1718-.1406-.4114-.1406-.7187v-5.8125z"/><path clip-rule="evenodd" d="m97.8086 26h5.6714c1.625 0 3.021-.3203 4.188-.9609 1.172-.6407 2.07-1.5599 2.695-2.7579.63-1.1979.946-2.6302.946-4.2968 0-1.6615-.316-3.0886-.946-4.2813-.625-1.1927-1.518-2.1067-2.679-2.7422-1.162-.6406-2.547-.9609-4.157-.9609h-5.7184zm5.5314-2.8984h-2.149v-10.2032h2.157c1 0 1.841.1771 2.523.5313s1.195.9062 1.539 1.6562c.349.75.524 1.7162.524 2.8985 0 1.1927-.175 2.1666-.524 2.9218-.344.75-.859 1.3047-1.547 1.6641-.682.3542-1.523.5313-2.523.5313z" fill-rule="evenodd"/><path clip-rule="evenodd" d="m116.033 25.4844c.891.5 1.953.75 3.188.75.989 0 1.862-.1511 2.617-.4532.76-.3072 1.38-.7343 1.859-1.2812.485-.5521.805-1.1979.961-1.9375l-3.078-.2031c-.115.3021-.281.5573-.5.7656s-.482.3646-.789.4688c-.307.1041-.646.1562-1.016.1562-.557 0-1.039-.1172-1.445-.3516-.406-.2343-.721-.5677-.945-1-.219-.4323-.328-.9453-.328-1.539v-.0078h8.172v-.9141c0-1.0208-.144-1.9115-.43-2.6719-.287-.7656-.688-1.401-1.203-1.9062-.511-.5052-1.11-.8828-1.797-1.1328-.682-.2552-1.419-.3828-2.211-.3828-1.177 0-2.203.2604-3.078.7812-.87.5208-1.545 1.2474-2.024 2.1797s-.718 2.0156-.718 3.25c0 1.2656.239 2.362.718 3.2891.479.9218 1.162 1.6354 2.047 2.1406zm.527-6.6953c.02-.4309.131-.8242.333-1.1797.218-.3906.52-.7005.906-.9297.39-.2344.838-.3516 1.344-.3516.484 0 .908.1068 1.273.3203.37.2084.659.4974.867.8672.209.3698.313.7943.313 1.2735z" fill-rule="evenodd"/><path d="m133.283 16.5v-2.5h-2.258v-2.875h-3.328v2.875h-1.64v2.5h1.64v6.25c-.005.7865.159 1.4375.492 1.9531.334.5157.8.8959 1.399 1.1407.604.2447 1.307.3515 2.109.3203.433-.0157.8-.0599 1.102-.1329.302-.0677.536-.1276.703-.1796l-.523-2.4766c-.084.0156-.204.0391-.36.0703-.156.0261-.312.0391-.469.0391-.224 0-.421-.0339-.593-.1016-.167-.0677-.297-.1849-.391-.3516-.094-.1718-.141-.4114-.141-.7187v-5.8125z"/><path clip-rule="evenodd" d="m137.604 25.4844c.89.5 1.953.75 3.187.75.99 0 1.862-.1511 2.617-.4532.761-.3072 1.38-.7343 1.86-1.2812.484-.5521.804-1.1979.961-1.9375l-3.079-.2031c-.114.3021-.281.5573-.5.7656-.218.2083-.481.3646-.789.4688-.307.1041-.646.1562-1.015.1562-.558 0-1.039-.1172-1.446-.3516-.406-.2343-.721-.5677-.945-1-.219-.4323-.328-.9453-.328-1.539v-.0078h8.172v-.9141c0-1.0208-.143-1.9115-.43-2.6719-.286-.7656-.687-1.401-1.203-1.9062-.51-.5052-1.109-.8828-1.797-1.1328-.682-.2552-1.419-.3828-2.211-.3828-1.177 0-2.203.2604-3.078.7812-.87.5208-1.544 1.2474-2.023 2.1797-.48.9323-.719 2.0156-.719 3.25 0 1.2656.239 2.362.719 3.2891.479.9218 1.161 1.6354 2.047 2.1406zm.526-6.6953c.02-.4309.131-.8242.333-1.1797.219-.3906.521-.7005.906-.9297.391-.2344.839-.3516 1.344-.3516.484 0 .909.1068 1.273.3203.37.2084.659.4974.868.8672.208.3698.312.7943.312 1.2735z" fill-rule="evenodd"/><path d="m150.721 25.4531c.885.5209 1.942.7813 3.172.7813 1.067 0 1.992-.1953 2.773-.586.781-.3906 1.393-.9323 1.836-1.625.448-.6979.698-1.5052.75-2.4218h-3.141c-.062.4218-.195.7838-.398 1.0859-.198.2969-.451.5234-.758.6797-.302.1562-.643.2344-1.023.2344-.516 0-.967-.1407-1.352-.4219-.385-.2813-.685-.6901-.898-1.2266-.209-.5364-.313-1.1875-.313-1.9531 0-.7552.107-1.3984.32-1.9297.214-.5312.511-.9349.891-1.2109.385-.2813.836-.4219 1.352-.4219.609 0 1.101.1849 1.476.5547.38.3646.615.8463.703 1.4453h3.141c-.047-.9271-.3-1.7344-.758-2.4219s-1.081-1.2213-1.867-1.6015c-.787-.3802-1.703-.5703-2.75-.5703-1.214 0-2.26.263-3.141.789-.88.5208-1.56 1.2474-2.039 2.1797-.474.9271-.711 2.0052-.711 3.2344 0 1.2135.235 2.2864.703 3.2187.474.9323 1.151 1.6615 2.032 2.1875z"/><path d="m167.766 16.5v-2.5h-2.258v-2.875h-3.328v2.875h-1.641v2.5h1.641v6.25c-.006.7865.159 1.4375.492 1.9531.333.5157.799.8959 1.398 1.1407.604.2447 1.308.3515 2.11.3203.432-.0157.799-.0599 1.101-.1329.302-.0677.537-.1276.703-.1796l-.523-2.4766c-.083.0156-.203.0391-.359.0703-.157.0261-.313.0391-.469.0391-.224 0-.422-.0339-.594-.1016-.167-.0677-.297-.1849-.391-.3516-.093-.1718-.14-.4114-.14-.7187v-5.8125z"/><path d="m69.8754 35.4545h-1.0057v6.5455h1.0057z"/><path d="m69.3811 34.3636c-.196 0-.3651-.0667-.5071-.2002-.1392-.1336-.2088-.2941-.2088-.4816s.0696-.348.2088-.4815c.142-.1335.3111-.2003.5071-.2003s.3636.0668.5028.2003c.1421.1335.2131.294.2131.4815s-.071.348-.2131.4816c-.1392.1335-.3068.2002-.5028.2002z"/><path clip-rule="evenodd" d="m41.0569 33.2727v8.7273h.9716v-1.0057h.1193c.0739.1193.179.2699.3153.4517.1364.179.331.3395.5838.4816.2529.1392.5895.2088 1.01.2088.5454 0 1.027-.1378 1.4446-.4134.4176-.2784.7443-.6704.9801-1.1761.2358-.5085.3537-1.1094.3537-1.8026 0-.6875-.1179-1.2841-.3537-1.7898-.2358-.5056-.5639-.8963-.9844-1.1718-.4204-.2756-.9062-.4134-1.4574-.4134-.4261 0-.7642.071-1.0142.2131-.2471.1392-.4375.2983-.571.4773-.1307.1761-.2329.321-.3068.4346h-.0852v-3.2216zm1.206 6.7628c-.1449-.3778-.2174-.8139-.2174-1.3082 0-.4887.071-.9162.2131-1.2827.142-.3693.3523-.6562.6307-.8608.2784-.2074.6221-.3111 1.0312-.3111.4262 0 .7799.1094 1.0611.3282.2841.2159.4957.5099.6349.8821.1421.3693.2131.784.2131 1.2443 0 .4659-.0724.8892-.2173 1.2699-.1421.3778-.3551.6789-.6392.9034-.2813.2216-.6321.3324-1.0526.3324-.4034 0-.7443-.1052-1.0227-.3154-.2784-.2131-.4901-.5071-.6349-.8821z" fill-rule="evenodd"/><path d="m48.787 44.4545c-.1705 0-.3224-.0142-.456-.0426-.1335-.0255-.2258-.0511-.277-.0767l.2557-.8863c.2443.0625.4603.0852.6478.0681.1875-.017.3536-.1008.4985-.2514.1478-.1477.2827-.3878.4049-.7201l.1875-.5114-2.4205-6.5796h1.0909l1.8068 5.216h.0682l1.8068-5.216h1.0909l-2.7784 7.5c-.125.3381-.2798.6179-.4645.8395-.1846.2245-.3991.3907-.6434.4986-.2415.108-.5142.1619-.8182.1619z"/><path d="m58.3303 33.2727h1.2614l2.9659 7.2443h.1023l2.9659-7.2443h1.2613v8.7273h-.9886v-6.6307h-.0852l-2.7273 6.6307h-.9545l-2.7273-6.6307h-.0852v6.6307h-.9887z"/><path d="m72.7913 41.7017c.4431.2898.9715.4347 1.5852.4347.4829 0 .9062-.0895 1.2699-.2685.3664-.1818.6605-.4261.8821-.733.2244-.3096.365-.6576.4218-1.044h-1.0056c-.0625.2386-.1676.4432-.3154.6136-.1477.1705-.3281.3012-.5412.3921-.213.0909-.4503.1364-.7116.1364-.3977 0-.7443-.1037-1.0398-.3111-.2926-.2074-.5199-.4986-.6818-.8736-.1591-.375-.2386-.8153-.2386-1.321 0-.4943.0809-.9247.2429-1.2912.1647-.3693.3934-.6549.686-.8566.2955-.2045.6392-.3068 1.0313-.3068.4432 0 .7954.1165 1.0568.3495.2642.2301.4347.4943.5114.7926h1.0056c-.0568-.4091-.2031-.7671-.4389-1.0739s-.5383-.5454-.9076-.7159c-.3694-.1705-.7841-.2557-1.2444-.2557-.5909 0-1.1079.1449-1.5511.4347-.4403.2869-.7841.6861-1.0312 1.1974-.2444.5085-.3665 1.0952-.3665 1.76 0 .6534.1193 1.2343.3579 1.7429.2387.5085.5796.9076 1.0228 1.1974z"/><path d="m79.3921 35.4545h-.9716v6.5455h1.0057v-4.142c0-.2955.071-.5583.2131-.7884.1449-.233.3409-.4148.588-.5455.25-.1335.5341-.2002.8523-.2002.1335 0 .26.0099.3793.0298.1221.017.2003.0298.2344.0383v-1.0227c-.0569-.0057-.1407-.0099-.2515-.0128-.1108-.0028-.2031-.0042-.277-.0042-.392 0-.7443.1008-1.0568.3025s-.5284.4645-.6477.7884h-.0682z"/><g clip-rule="evenodd" fill-rule="evenodd"><path d="m83.7898 41.7145c.4461.2812.9645.4219 1.5554.4219s1.108-.1407 1.5512-.4219c.446-.2813.7926-.6747 1.0397-1.1804.25-.5057.375-1.0966.375-1.7727 0-.6819-.125-1.277-.375-1.7855-.2471-.5086-.5937-.9035-1.0397-1.1847-.4432-.2813-.9603-.4219-1.5512-.4219s-1.1093.1406-1.5554.4219c-.4431.2812-.7897.6761-1.0397 1.1847-.2472.5085-.3708 1.1036-.3708 1.7855 0 .6761.1236 1.267.3708 1.7727.25.5057.5966.8991 1.0397 1.1804zm2.6634-.8267c-.2898.2301-.6591.3452-1.108.3452-.4488 0-.8181-.1151-1.1079-.3452s-.5043-.5327-.6435-.9077-.2088-.7812-.2088-1.2187.0696-.8452.2088-1.223c.1392-.3779.3537-.6833.6435-.9162.2898-.233.6591-.3495 1.1079-.3495.4489 0 .8182.1165 1.108.3495.2898.2329.5043.5383.6435.9162.1392.3778.2088.7855.2088 1.223s-.0696.8437-.2088 1.2187-.3537.6776-.6435.9077z"/><path d="m91.2355 44.4034c.3494.125.767.1875 1.2528.1875.5228 0 .9972-.0838 1.4233-.2514.429-.1648.7699-.4247 1.0228-.7798.2556-.3523.3835-.8097.3835-1.3722v-6.733h-.9716v1.0398h-.1023c-.0738-.1136-.179-.2585-.3153-.4346-.1335-.179-.3267-.3381-.5796-.4773-.25-.1421-.588-.2131-1.0142-.2131-.5511 0-1.0369.1378-1.4574.4134-.4204.2727-.7485.6591-.9843 1.1591-.2358.4971-.3537 1.0809-.3537 1.7514 0 .6818.1207 1.2613.3622 1.7386.2443.4773.5753.8409.9929 1.0909.4204.25.8949.375 1.4233.375.4261 0 .7642-.0667 1.0142-.2003.2528-.1363.446-.2912.5795-.4644.1364-.1762.2415-.3239.3154-.4432h.0852v1.3295c0 .5455-.1719.946-.5156 1.2017-.3438.2557-.7798.3835-1.3083.3835-.3948 0-.7144-.0582-.9588-.1747-.2414-.1136-.4318-.2486-.571-.4048-.1392-.1534-.2542-.2898-.3452-.4091l-.8011.5625c.1364.2273.3196.4404.5497.6392.233.2017.5242.3636.8736.4858zm2.2415-3.6861c-.2784.1847-.6193.277-1.0227.277-.4205 0-.7728-.098-1.0569-.294-.2812-.1989-.4943-.4716-.6392-.8182-.142-.3494-.213-.7514-.213-1.206 0-.4431.0696-.8466.2088-1.2102.142-.3636.3537-.6534.6349-.8693.2841-.2159.6392-.3239 1.0654-.3239.409 0 .7528.1023 1.0312.3068.2784.2046.4886.4873.6307.8481.142.3608.2131.7769.2131 1.2485 0 .483-.0725.8978-.2174 1.2444-.1449.3465-.3565.6122-.6349.7968z"/><path d="m98.271 41.7188c.4574.2784 1.0014.4176 1.6321.4176.4429 0 .8419-.0682 1.1979-.2046.355-.1392.653-.3324.894-.5795.242-.25.414-.5398.516-.8693l-.972-.2728c-.085.2273-.205.4176-.362.571-.156.1506-.342.2643-.558.341-.213.0738-.452.1108-.7159.1108-.4062 0-.7628-.0881-1.0696-.2642-.3068-.179-.5469-.439-.7202-.7799-.1545-.3117-.239-.6852-.2534-1.1207h4.7531v-.4262c0-.6108-.081-1.125-.243-1.5426-.161-.4176-.379-.7528-.652-1.0056-.272-.2557-.575-.4404-.907-.554-.333-.1137-.669-.1705-1.0102-.1705-.5909 0-1.1079.1449-1.5511.4347-.4403.2869-.7841.6875-1.0312 1.2017-.2444.5113-.3665 1.1023-.3665 1.7727 0 .6705.1221 1.2585.3665 1.7642.2471.5029.598.8949 1.0525 1.1762zm-.4085-3.5199c.0191-.3037.0956-.5906.2295-.8608.1563-.3154.3793-.5711.6691-.7671.2926-.1988.6392-.2983 1.0397-.2983.3632 0 .6792.0838.9462.2514.27.1677.477.3964.622.6861.148.2898.222.6193.222.9887z"/></g><path d="m105.149 42v-3.9375c0-.3807.072-.7045.217-.9716.145-.267.343-.4702.593-.6094.252-.1392.539-.2088.86-.2088.466 0 .833.1449 1.1.4347.267.2869.4.6875.4 1.2017v4.0909h1.006v-4.1591c0-.5568-.092-1.017-.277-1.3807-.185-.3664-.443-.6392-.776-.8182-.332-.1818-.72-.2727-1.163-.2727-.494 0-.898.1023-1.21.3068-.313.2017-.546.4688-.699.8012h-.085v-1.0228h-.972v6.5455z"/><path clip-rule="evenodd" d="m112.275 41.7188c.457.2784 1.001.4176 1.632.4176.443 0 .842-.0682 1.197-.2046.356-.1392.654-.3324.895-.5795.242-.25.414-.5398.516-.8693l-.972-.2728c-.085.2273-.206.4176-.362.571-.156.1506-.342.2643-.558.341-.213.0738-.452.1108-.716.1108-.406 0-.763-.0881-1.07-.2642-.306-.179-.546-.439-.72-.7799-.154-.3117-.239-.6852-.253-1.1207h4.753v-.4262c0-.6108-.081-1.125-.243-1.5426s-.379-.7528-.652-1.0056c-.272-.2557-.575-.4404-.907-.554-.333-.1137-.669-.1705-1.01-.1705-.591 0-1.108.1449-1.551.4347-.441.2869-.784.6875-1.032 1.2017-.244.5113-.366 1.1023-.366 1.7727 0 .6705.122 1.2585.366 1.7642.248.5029.598.8949 1.053 1.1762zm-.409-3.5199c.02-.3037.096-.5906.23-.8608.156-.3154.379-.5711.669-.7671.293-.1988.639-.2983 1.04-.2983.363 0 .679.0838.946.2514.27.1677.477.3964.622.6861.148.2898.222.6193.222.9887z" fill-rule="evenodd"/><path d="m120.994 36.3068v-.8523h-1.398v-1.5681h-1.006v1.5681h-.988v.8523h.988v4.0909c0 .3807.088.6961.264.9461.179.25.404.436.674.5582.272.1221.551.1832.835.1832.187 0 .342-.0142.464-.0426.123-.0256.218-.0511.286-.0767l-.205-.9034-.17.0341c-.071.0114-.162.017-.273.017-.147 0-.288-.0227-.422-.0681-.13-.0483-.238-.1421-.323-.2813-.083-.142-.124-.3551-.124-.6392v-3.8182z"/><path d="m123.512 35.4545h-1.006v6.5455h1.006z"/><path d="m123.018 34.3636c-.196 0-.365-.0667-.507-.2002-.139-.1336-.209-.2941-.209-.4816s.07-.348.209-.4815c.142-.1335.311-.2003.507-.2003s.363.0668.503.2003c.142.1335.213.294.213.4815s-.071.348-.213.4816c-.14.1335-.307.2002-.503.2002z"/><path d="m128.013 42.1364c-.613 0-1.142-.1449-1.585-.4347s-.784-.6889-1.023-1.1974c-.238-.5086-.358-1.0895-.358-1.7429 0-.6648.122-1.2515.367-1.76.247-.5113.591-.9105 1.031-1.1974.443-.2898.96-.4347 1.551-.4347.46 0 .875.0852 1.244.2557.37.1705.672.4091.908.7159s.382.6648.439 1.0739h-1.006c-.076-.2983-.247-.5625-.511-.7926-.261-.233-.614-.3495-1.057-.3495-.392 0-.736.1023-1.031.3068-.293.2017-.521.4873-.686.8566-.162.3665-.243.7969-.243 1.2912 0 .5057.08.946.239 1.321.162.375.389.6662.681.8736.296.2074.642.3111 1.04.3111.262 0 .499-.0455.712-.1364s.393-.2216.541-.3921c.148-.1704.253-.375.315-.6136h1.006c-.057.3864-.197.7344-.422 1.044-.221.3069-.515.5512-.882.733-.364.179-.787.2685-1.27.2685z"/><path d="m136.694 36.9205-.904.2556c-.057-.1505-.14-.2968-.251-.4389-.108-.1449-.256-.2642-.443-.3579-.188-.0938-.428-.1407-.721-.1407-.4 0-.734.0924-1.001.277-.264.1818-.396.4134-.396.6946 0 .25.091.4475.272.5924.182.1448.466.2656.853.3622l.971.2386c.586.1421 1.022.3594 1.309.652.286.2898.43.6634.43 1.1207 0 .375-.108.7103-.324 1.0057-.213.2955-.511.5284-.895.6989-.383.1704-.829.2557-1.338.2557-.667 0-1.22-.1449-1.658-.4347-.437-.2898-.714-.7131-.831-1.2699l.955-.2386c.091.3523.263.6165.516.7926.255.1761.589.2642 1.001.2642.469 0 .841-.0994 1.117-.2983.278-.2017.417-.4432.417-.7244 0-.2273-.079-.4176-.238-.5711-.16-.1562-.404-.2727-.733-.3494l-1.091-.2557c-.6-.142-1.04-.3622-1.321-.6605-.279-.3011-.418-.6775-.418-1.1292 0-.3694.104-.6961.311-.9802.21-.284.496-.5071.857-.669.363-.1619.775-.2429 1.235-.2429.648 0 1.157.1421 1.526.4262.372.284.636.659.793 1.125z"/></g></svg>