<svg fill="none" height="45" viewBox="0 0 168 45" width="168" xmlns="http://www.w3.org/2000/svg"><path d="m17.9626 9c3.8919 0 6.4366 1.875 8.3825 4.05.1497.15.2245.3.3742.45s.2246.3.3743.45c.6736.825 1.1975 1.725 1.7214 2.475.3742.525.6736 1.05 1.0478 1.5.1497.15.2245.3.3742.45s.2245.3.3742.45c1.4221 1.725 2.8441 2.85 4.9397 3 .2994-1.275.4491-2.55.4491-3.9s-.1497-2.7-.4491-3.9c-2.0956.15-3.5176 1.2-4.9397 3-.2245-.375-.5239-.75-.8233-1.2-.5987-.825-1.1975-1.8-1.9459-2.775 1.4969-1.725 3.368-3.225 5.9127-3.825-3.1435-5.475-9.0562-9.225-15.7921-9.225-6.736 0-12.64867 3.75-15.71728 9.225 2.5447.6 4.34096 2.1 5.91268 3.825.14969.15.22454.3.37422.45.14969.15.22454.3.37423.45.74844.9 1.34715 1.875 1.94595 2.775.2994.45.5239.825.8233 1.2.1497.15.2245.3.3742.525.1497.15.2245.3.3742.525 1.5717 2.175 3.1435 3.675 5.6133 3.675 2.4699 0 4.0416-1.5 5.6133-3.675.1497.3.3742.525.5239.825.6736.975 1.3472 2.1 2.1705 3.075-1.8711 2.175-4.4906 4.05-8.3825 4.05s-6.4366-1.875-8.38256-4.05c-.14969-.15-.22453-.3-.37422-.45s-.22453-.3-.37422-.45c-.6736-.825-1.1975-1.725-1.72141-2.475-.37422-.525-.6736-1.05-1.04782-1.5-.14969-.15-.22453-.3-.37422-.45s-.22453-.3-.37422-.45c-1.42204-1.725-2.84408-2.85-4.93971-3-.224532 1.2-.37422 2.55-.37422 3.9s.149688 2.7.449064 3.9c2.095636-.15 3.517676-1.2 4.939706-3 .22454.375.52391.75.82329 1.2.59875.825 1.1975 1.8 1.94594 2.775-1.49688 1.725-3.36798 3.225-5.91268 3.825 3.06861 5.55 8.98128 9.3 15.71728 9.3 6.7359 0 12.6486-3.75 15.7172-9.225-2.5447-.6-4.3409-2.1-5.9126-3.825-.1497-.15-.2246-.3-.3743-.45s-.2245-.3-.3742-.45c-.7484-.9-1.3472-1.875-1.9459-2.775-.2994-.45-.5239-.825-.8233-1.2-.1497-.15-.2246-.3-.3742-.525-.1497-.15-.2246-.3-.3743-.525-1.5717-2.175-3.1434-3.675-5.6133-3.675-2.4698 0-4.0415 1.5-5.6133 3.675-.1497-.3-.3742-.525-.5239-.825-.6736-.975-1.3472-2.1-2.17046-3.075 1.94596-2.25 4.49066-4.125 8.38256-4.125z" fill="#ff1744"/><g fill="#212121"><path d="m74.457 14v12h3.3282v-12z"/><path d="m74.8555 11.9609c.3541.3282.7786.4922 1.2734.4922s.9167-.164 1.2656-.4922c.3542-.3333.5313-.7317.5313-1.1953 0-.4583-.1771-.85154-.5313-1.17966-.3489-.33334-.7708-.5-1.2656-.5s-.9193.16666-1.2734.5c-.349.32812-.5235.72136-.5235 1.17966 0 .4636.1745.862.5235 1.1953z"/><path d="m50.0703 14.6016c-.0625-.6302-.3307-1.1198-.8047-1.4688-.4739-.3489-1.1172-.5234-1.9297-.5234-.552 0-1.0182.0781-1.3984.2344-.3802.151-.6719.3619-.875.6328-.1979.2708-.2969.5781-.2969.9218-.0104.2865.0495.5365.1797.75.1354.2136.3203.3985.5547.5547.2344.1511.5052.2839.8125.3985.3073.1093.6354.2031.9844.2812l1.4375.3438c.6979.1562 1.3385.3645 1.9218.625.5834.2604 1.0886.5807 1.5157.9609s.7578.8281.9922 1.3438c.2395.5156.3619 1.1067.3671 1.7734-.0052.9792-.2552 1.8281-.7499 2.5469-.4896.7135-1.198 1.2682-2.1251 1.664-.9218.3906-2.0338.586-3.3359.586-1.2917 0-2.4167-.198-3.375-.5938-.9531-.3958-1.6979-.9818-2.2344-1.7578-.5312-.7812-.8099-1.7474-.8359-2.8984h3.2734c.0365.5364.1901.9843.461 1.3437.276.3542.6432.6224 1.1015.8047.4636.1771.987.2656 1.5703.2656.573 0 1.0704-.0833 1.4922-.25.4271-.1666.7578-.3984.9922-.6953s.3516-.638.3516-1.0234c0-.3594-.1068-.6615-.3203-.9063-.2084-.2448-.5157-.4531-.9219-.625-.401-.1718-.8932-.3281-1.4766-.4687l-1.7422-.4375c-1.3489-.3281-2.414-.8412-3.1953-1.5391-.7812-.6979-1.1692-1.638-1.164-2.8203-.0052-.9688.2526-1.8151.7734-2.5391.5261-.7239 1.2474-1.289 2.1641-1.6953.9166-.40622 1.9583-.60935 3.125-.60935 1.1875 0 2.2239.20313 3.1094.60935.8906.4063 1.5833.9714 2.0781 1.6953.4948.724.75 1.5625.7656 2.5157z"/><path d="m58.1113 26-3.2656-12h3.3672l1.8594 8.0625h.1093l1.9375-8.0625h3.3047l1.9688 8.0156h.1015l1.8282-8.0156h3.3593l-3.2578 12h-3.5234l-2.0625-7.5469h-.1484l-2.0625 7.5469z"/><path d="m86.9043 14v2.5h-2.3906v9.5h-3.3203v-9.5h-1.6954v-2.5h1.6954v-.8672c0-.8698.1692-1.5911.5078-2.164.3437-.573.8125-1.00265 1.4062-1.28911.5938-.28646 1.2683-.42969 2.0235-.42969.5104 0 .9765.03906 1.3984.11719.4271.07812.7448.14844.9531.21094l-.5937 2.49997c-.1302-.0416-.2917-.0807-.4844-.1172-.1875-.0364-.3802-.0546-.5781-.0546-.4896 0-.8308.1145-1.0235.3437-.1927.224-.289.5391-.289.9453v.8047z"/><path d="m95.3203 16.5v-2.5h-2.2578v-2.875h-3.3281v2.875h-1.6406v2.5h1.6406v6.25c-.0052.7865.1588 1.4375.4922 1.9531.3333.5157.7994.8959 1.3984 1.1407.6042.2447 1.3073.3515 2.1094.3203.4323-.0157.7995-.0599 1.1015-.1329.3021-.0677.5365-.1276.7032-.1796l-.5235-2.4766c-.0833.0156-.2031.0391-.3594.0703-.1562.0261-.3124.0391-.4687.0391-.224 0-.4219-.0339-.5937-.1016-.1667-.0677-.2969-.1849-.3907-.3515-.0937-.1719-.1406-.4115-.1406-.7188v-5.8125z"/><path clip-rule="evenodd" d="m103.48 26h-5.6714v-16h5.7184c1.61 0 2.995.3203 4.157.9609 1.161.6355 2.054 1.5495 2.679 2.7422.63 1.1927.946 2.6198.946 4.2813 0 1.6666-.316 3.0989-.946 4.2969-.625 1.1979-1.523 2.1171-2.695 2.7578-1.167.6406-2.563.9609-4.188.9609zm-2.289-2.8984h2.149c1 0 1.841-.1771 2.523-.5313.688-.3594 1.203-.914 1.547-1.664.349-.7553.524-1.7292.524-2.9219 0-1.1823-.175-2.1485-.524-2.8985-.344-.75-.857-1.302-1.539-1.6562s-1.523-.5313-2.523-.5313h-2.157z" fill-rule="evenodd"/><path clip-rule="evenodd" d="m116.033 25.4844c.891.5 1.953.75 3.188.75.989 0 1.862-.1511 2.617-.4532.76-.3072 1.38-.7343 1.859-1.2812.485-.5521.805-1.1979.961-1.9375l-3.078-.2031c-.115.3021-.281.5573-.5.7656s-.482.3646-.789.4688c-.307.1041-.646.1562-1.016.1562-.557 0-1.039-.1172-1.445-.3516-.406-.2343-.721-.5677-.945-1-.219-.4323-.328-.9453-.328-1.539v-.0078h8.172v-.9141c0-1.0208-.144-1.9115-.43-2.6719-.287-.7656-.688-1.401-1.203-1.9062-.511-.5052-1.11-.8828-1.797-1.1328-.682-.2552-1.419-.3828-2.211-.3828-1.177 0-2.203.2604-3.078.7812-.87.5208-1.545 1.2474-2.024 2.1797s-.718 2.0156-.718 3.25c0 1.2656.239 2.362.718 3.2891.479.9218 1.162 1.6354 2.047 2.1406zm.527-6.6953c.02-.4309.131-.8242.333-1.1797.218-.3906.52-.7005.906-.9297.39-.2344.838-.3516 1.344-.3516.484 0 .908.1068 1.273.3203.37.2084.659.4974.867.8672.209.3698.313.7943.313 1.2735z" fill-rule="evenodd"/><path d="m133.283 14v2.5h-2.258v5.8125c0 .3073.047.5469.141.7188.094.1666.224.2838.391.3515.172.0677.369.1016.593.1016.157 0 .313-.013.469-.0391.156-.0312.276-.0547.36-.0703l.523 2.4766c-.167.052-.401.1119-.703.1796-.302.073-.669.1172-1.102.1329-.802.0312-1.505-.0756-2.109-.3203-.599-.2448-1.065-.625-1.399-1.1407-.333-.5156-.497-1.1666-.492-1.9531v-6.25h-1.64v-2.5h1.64v-2.875h3.328v2.875z"/><path clip-rule="evenodd" d="m137.604 25.4844c.89.5 1.953.75 3.187.75.99 0 1.862-.1511 2.617-.4532.761-.3072 1.38-.7343 1.86-1.2812.484-.5521.804-1.1979.961-1.9375l-3.079-.2031c-.114.3021-.281.5573-.5.7656-.218.2083-.481.3646-.789.4688-.307.1041-.646.1562-1.015.1562-.558 0-1.039-.1172-1.446-.3516-.406-.2343-.721-.5677-.945-1-.219-.4323-.328-.9453-.328-1.539v-.0078h8.172v-.9141c0-1.0208-.143-1.9115-.43-2.6719-.286-.7656-.687-1.401-1.203-1.9062-.51-.5052-1.109-.8828-1.797-1.1328-.682-.2552-1.419-.3828-2.211-.3828-1.177 0-2.203.2604-3.078.7812-.87.5208-1.544 1.2474-2.023 2.1797-.48.9323-.719 2.0156-.719 3.25 0 1.2656.239 2.362.719 3.2891.479.9218 1.161 1.6354 2.047 2.1406zm.526-6.6953c.02-.4309.131-.8242.333-1.1797.219-.3906.521-.7005.906-.9297.391-.2344.839-.3516 1.344-.3516.484 0 .909.1068 1.273.3203.37.2084.659.4974.868.8672.208.3698.312.7943.312 1.2735z" fill-rule="evenodd"/><path d="m153.893 26.2344c-1.23 0-2.287-.2604-3.172-.7813-.881-.526-1.558-1.2552-2.032-2.1875-.468-.9323-.703-2.0052-.703-3.2187 0-1.2292.237-2.3073.711-3.2344.479-.9323 1.159-1.6589 2.039-2.1797.881-.526 1.927-.789 3.141-.789 1.047 0 1.963.1901 2.75.5703.786.3802 1.409.914 1.867 1.6015s.711 1.4948.758 2.4219h-3.141c-.088-.599-.323-1.0807-.703-1.4453-.375-.3698-.867-.5547-1.476-.5547-.516 0-.967.1406-1.352.4219-.38.276-.677.6797-.891 1.2109-.213.5313-.32 1.1745-.32 1.9297 0 .7656.104 1.4167.313 1.9531.213.5365.513.9453.898 1.2266.385.2812.836.4219 1.352.4219.38 0 .721-.0782 1.023-.2344.307-.1563.56-.3828.758-.6797.203-.3021.336-.6641.398-1.0859h3.141c-.052.9166-.302 1.7239-.75 2.4218-.443.6927-1.055 1.2344-1.836 1.625-.781.3907-1.706.586-2.773.586z"/><path d="m167.766 16.5v-2.5h-2.258v-2.875h-3.328v2.875h-1.641v2.5h1.641v6.25c-.006.7865.159 1.4375.492 1.9531.333.5157.799.8959 1.398 1.1407.604.2447 1.308.3515 2.11.3203.432-.0157.799-.0599 1.101-.1329.302-.0677.537-.1276.703-.1796l-.523-2.4766c-.083.0156-.203.0391-.359.0703-.157.0261-.313.0391-.469.0391-.224 0-.422-.0339-.594-.1016-.167-.0677-.297-.1849-.391-.3515-.093-.1719-.14-.4115-.14-.7188v-5.8125z"/><path d="m68.8697 35.4545h1.0057v6.5455h-1.0057z"/><path d="m69.3811 34.3636c-.196 0-.3651-.0667-.5071-.2002-.1392-.1336-.2088-.2941-.2088-.4816s.0696-.348.2088-.4815c.142-.1335.3111-.2003.5071-.2003s.3636.0668.5028.2003c.1421.1335.2131.294.2131.4815s-.071.348-.2131.4816c-.1392.1335-.3068.2002-.5028.2002z"/><path clip-rule="evenodd" d="m41.0569 42v-8.7273h1.0057v3.2216h.0852c.0739-.1136.1761-.2585.3068-.4346.1335-.179.3239-.3381.571-.4773.25-.1421.5881-.2131 1.0142-.2131.5512 0 1.037.1378 1.4574.4134.4205.2755.7486.6662.9844 1.1718.2358.5057.3537 1.1023.3537 1.7898 0 .6932-.1179 1.2941-.3537 1.8026-.2358.5057-.5625.8977-.9801 1.1761-.4176.2756-.8992.4134-1.4446.4134-.4205 0-.7571-.0696-1.01-.2088-.2528-.1421-.4474-.3026-.5838-.4816-.1363-.1818-.2414-.3324-.3153-.4517h-.1193v1.0057zm.9886-3.2727c0 .4943.0725.9304.2174 1.3082.1448.375.3565.669.6349.8821.2784.2102.6193.3154 1.0227.3154.4205 0 .7713-.1108 1.0526-.3324.2841-.2245.4971-.5256.6392-.9034.1449-.3807.2173-.804.2173-1.2699 0-.4603-.071-.875-.2131-1.2443-.1392-.3722-.3508-.6662-.6349-.8821-.2812-.2188-.6349-.3282-1.0611-.3282-.4091 0-.7528.1037-1.0312.3111-.2784.2046-.4887.4915-.6307.8608-.1421.3665-.2131.794-.2131 1.2827z" fill-rule="evenodd"/><path d="m48.787 44.4545c-.1705 0-.3224-.0142-.456-.0426-.1335-.0255-.2258-.0511-.277-.0767l.2557-.8863c.2443.0625.4603.0852.6478.0681.1875-.017.3536-.1008.4985-.2514.1478-.1477.2827-.3878.4049-.7201l.1875-.5114-2.4205-6.5796h1.0909l1.8068 5.216h.0682l1.8068-5.216h1.0909l-2.7784 7.5c-.125.3381-.2798.6179-.4645.8395-.1846.2245-.3991.3907-.6434.4986-.2415.108-.5142.1619-.8182.1619z"/><path d="m59.5917 33.2727h-1.2614v8.7273h.9887v-6.6307h.0852l2.7273 6.6307h.9545l2.7273-6.6307h.0852v6.6307h.9886v-8.7273h-1.2613l-2.9659 7.2443h-.1023z"/><path d="m72.7913 41.7017c.4431.2898.9715.4347 1.5852.4347.4829 0 .9062-.0895 1.2699-.2685.3665-.1818.6605-.4261.8821-.733.2244-.3096.365-.6576.4218-1.044h-1.0056c-.0625.2386-.1676.4432-.3154.6136-.1477.1705-.3281.3012-.5412.3921-.213.0909-.4503.1364-.7116.1364-.3977 0-.7443-.1037-1.0398-.3111-.2926-.2074-.5199-.4986-.6818-.8736-.1591-.375-.2386-.8153-.2386-1.321 0-.4943.0809-.9247.2429-1.2912.1647-.3693.3934-.6549.686-.8566.2955-.2045.6392-.3068 1.0313-.3068.4432 0 .7954.1165 1.0568.3495.2642.2301.4347.4943.5114.7926h1.0056c-.0568-.4091-.2031-.7671-.4389-1.0739s-.5383-.5454-.9076-.7159c-.3694-.1705-.7841-.2557-1.2444-.2557-.5909 0-1.1079.1449-1.5511.4347-.4403.2869-.7841.6861-1.0312 1.1974-.2444.5085-.3665 1.0952-.3665 1.76 0 .6534.1193 1.2343.3579 1.7429.2387.5085.5796.9076 1.0228 1.1974z"/><path d="m78.4205 35.4545h.9716v.9887h.0682c.1193-.3239.3352-.5867.6477-.7884s.6648-.3025 1.0568-.3025c.0739 0 .1662.0014.277.0042.1108.0029.1946.0071.2514.0128v1.0227c-.034-.0085-.1122-.0213-.2343-.0383-.1193-.0199-.2458-.0298-.3793-.0298-.3182 0-.6023.0667-.8523.2002-.2471.1307-.4431.3125-.588.5455-.1421.2301-.2131.4929-.2131.7884v4.142h-1.0057z"/><g clip-rule="evenodd" fill-rule="evenodd"><path d="m83.7898 41.7145c.4461.2812.9645.4219 1.5554.4219s1.108-.1407 1.5512-.4219c.446-.2813.7926-.6747 1.0397-1.1804.25-.5057.375-1.0966.375-1.7727 0-.6819-.125-1.277-.375-1.7855-.2471-.5086-.5937-.9035-1.0397-1.1847-.4432-.2813-.9603-.4219-1.5512-.4219s-1.1093.1406-1.5554.4219c-.4431.2812-.7897.6761-1.0397 1.1847-.2472.5085-.3708 1.1036-.3708 1.7855 0 .6761.1236 1.267.3708 1.7727.25.5057.5966.8991 1.0397 1.1804zm2.6634-.8267c-.2898.2301-.6591.3452-1.108.3452-.4488 0-.8181-.1151-1.1079-.3452s-.5043-.5327-.6435-.9077-.2088-.7812-.2088-1.2187.0696-.8452.2088-1.223c.1392-.3779.3537-.6833.6435-.9162.2898-.233.6591-.3495 1.1079-.3495.4489 0 .8182.1165 1.108.3495.2898.2329.5043.5383.6435.9162.1392.3778.2088.7855.2088 1.223s-.0696.8437-.2088 1.2187-.3537.6776-.6435.9077z"/><path d="m92.4883 44.5909c-.4857 0-.9034-.0625-1.2528-.1875-.3494-.1222-.6406-.2841-.8736-.4858-.2301-.1988-.4133-.4119-.5497-.6392l.8011-.5625c.091.1193.206.2557.3452.4091.1392.1562.3296.2912.571.4048.2444.1165.564.1747.9588.1747.5285 0 .9645-.1278 1.3083-.3835.3437-.2557.5156-.6562.5156-1.2017v-1.3295h-.0852c-.0739.1193-.179.267-.3154.4432-.1335.1732-.3267.3281-.5795.4644-.25.1336-.5881.2003-1.0142.2003-.5284 0-1.0028-.125-1.4233-.375-.4176-.25-.7486-.6136-.9929-1.0909-.2415-.4773-.3622-1.0568-.3622-1.7386 0-.6705.1179-1.2543.3537-1.7514.2358-.5.5639-.8864.9844-1.1591.4204-.2756.9062-.4134 1.4573-.4134.4262 0 .7642.071 1.0142.2131.2529.1392.4461.2983.5796.4773.1364.1761.2415.321.3153.4346h.1023v-1.0398h.9716v6.733c0 .5625-.1279 1.0199-.3835 1.3722-.2529.3551-.5938.615-1.0228.7798-.4261.1676-.9005.2514-1.4233.2514zm-.034-3.5966c.4034 0 .7443-.0923 1.0227-.277.2784-.1846.49-.4503.6349-.7968.1449-.3466.2174-.7614.2174-1.2444 0-.4716-.0711-.8877-.2131-1.2485-.1421-.3608-.3523-.6435-.6307-.8481-.2784-.2045-.6222-.3068-1.0312-.3068-.4262 0-.7813.108-1.0654.3239-.2812.2159-.4929.5057-.6349.8693-.1392.3636-.2088.7671-.2088 1.2102 0 .4546.071.8566.213 1.206.1449.3466.358.6193.6392.8182.2841.196.6364.294 1.0569.294z"/><path d="m98.271 41.7188c.4574.2784 1.0014.4176 1.6321.4176.4429 0 .8419-.0682 1.1979-.2046.355-.1392.653-.3324.894-.5795.242-.25.414-.5398.516-.8693l-.972-.2728c-.085.2273-.205.4176-.362.571-.156.1506-.342.2643-.558.341-.213.0738-.452.1108-.7159.1108-.4062 0-.7628-.0881-1.0696-.2642-.3068-.179-.5469-.439-.7202-.7799-.1545-.3117-.239-.6852-.2534-1.1207h4.7531v-.4262c0-.6108-.081-1.125-.243-1.5426-.161-.4176-.379-.7528-.652-1.0056-.272-.2557-.575-.4404-.907-.554-.333-.1137-.669-.1705-1.0102-.1705-.5909 0-1.1079.1449-1.5511.4347-.4403.2869-.7841.6875-1.0312 1.2017-.2444.5113-.3665 1.1023-.3665 1.7727 0 .6705.1221 1.2585.3665 1.7642.2471.5029.598.8949 1.0525 1.1762zm-.4085-3.5199c.0191-.3037.0956-.5906.2295-.8608.1563-.3154.3793-.5711.6691-.7671.2926-.1988.6392-.2983 1.0397-.2983.3632 0 .6792.0838.9462.2514.27.1677.477.3964.622.6861.148.2898.222.6193.222.9887z"/></g><path d="m105.149 38.0625v3.9375h-1.006v-6.5455h.972v1.0228h.085c.153-.3324.386-.5995.699-.8012.312-.2045.716-.3068 1.21-.3068.443 0 .831.0909 1.163.2727.333.179.591.4518.776.8182.185.3637.277.8239.277 1.3807v4.1591h-1.006v-4.0909c0-.5142-.133-.9148-.4-1.2017-.267-.2898-.634-.4347-1.1-.4347-.321 0-.608.0696-.86.2088-.25.1392-.448.3424-.593.6094-.145.2671-.217.5909-.217.9716z"/><path clip-rule="evenodd" d="m112.275 41.7188c.457.2784 1.001.4176 1.632.4176.443 0 .842-.0682 1.197-.2046.356-.1392.654-.3324.895-.5795.242-.25.414-.5398.516-.8693l-.972-.2728c-.085.2273-.206.4176-.362.571-.156.1506-.342.2643-.558.341-.213.0738-.452.1108-.716.1108-.406 0-.763-.0881-1.07-.2642-.306-.179-.546-.439-.72-.7799-.154-.3117-.239-.6852-.253-1.1207h4.753v-.4262c0-.6108-.081-1.125-.243-1.5426s-.379-.7528-.652-1.0056c-.272-.2557-.575-.4404-.907-.554-.333-.1137-.669-.1705-1.01-.1705-.591 0-1.108.1449-1.551.4347-.441.2869-.784.6875-1.032 1.2017-.244.5113-.366 1.1023-.366 1.7727 0 .6705.122 1.2585.366 1.7642.248.5029.598.8949 1.053 1.1762zm-.409-3.5199c.02-.3037.096-.5906.23-.8608.156-.3154.379-.5711.669-.7671.293-.1988.639-.2983 1.04-.2983.363 0 .679.0838.946.2514.27.1677.477.3964.622.6861.148.2898.222.6193.222.9887z" fill-rule="evenodd"/><path d="m120.994 35.4545v.8523h-1.398v3.8182c0 .2841.041.4972.124.6392.085.1392.193.233.323.2813.134.0454.275.0681.422.0681.111 0 .202-.0056.273-.017l.17-.0341.205.9034c-.068.0256-.163.0511-.286.0767-.122.0284-.277.0426-.464.0426-.284 0-.563-.0611-.835-.1832-.27-.1222-.495-.3082-.674-.5582-.176-.25-.264-.5654-.264-.9461v-4.0909h-.988v-.8523h.988v-1.5681h1.006v1.5681z"/><path d="m123.512 35.4545h-1.006v6.5455h1.006z"/><path d="m122.511 34.1634c.142.1335.311.2002.507.2002s.363-.0667.503-.2002c.142-.1336.213-.2941.213-.4816s-.071-.348-.213-.4815c-.14-.1335-.307-.2003-.503-.2003s-.365.0668-.507.2003c-.139.1335-.209.294-.209.4815s.07.348.209.4816z"/><path d="m128.013 42.1364c-.613 0-1.142-.1449-1.585-.4347s-.784-.6889-1.023-1.1974c-.238-.5086-.358-1.0895-.358-1.7429 0-.6648.122-1.2515.367-1.76.247-.5113.591-.9105 1.031-1.1974.443-.2898.96-.4347 1.551-.4347.46 0 .875.0852 1.244.2557.37.1705.672.4091.908.7159s.382.6648.439 1.0739h-1.006c-.076-.2983-.247-.5625-.511-.7926-.261-.233-.614-.3495-1.057-.3495-.392 0-.736.1023-1.031.3068-.293.2017-.521.4873-.686.8566-.162.3665-.243.7969-.243 1.2912 0 .5057.08.946.239 1.321.162.375.389.6662.681.8736.296.2074.642.3111 1.04.3111.262 0 .499-.0455.712-.1364s.393-.2216.541-.3921c.148-.1704.253-.375.315-.6136h1.006c-.057.3864-.197.7344-.422 1.044-.221.3069-.515.5512-.882.733-.364.179-.787.2685-1.27.2685z"/><path d="m135.79 37.1761.904-.2556c-.157-.466-.421-.841-.793-1.125-.369-.2841-.878-.4262-1.526-.4262-.46 0-.872.081-1.235.2429-.361.1619-.647.385-.857.669-.207.2841-.311.6108-.311.9802 0 .4517.139.8281.418 1.1292.281.2983.721.5185 1.321.6605l1.091.2557c.329.0767.573.1932.733.3494.159.1535.238.3438.238.5711 0 .2812-.139.5227-.417.7244-.276.1989-.648.2983-1.117.2983-.412 0-.746-.0881-1.001-.2642-.253-.1761-.425-.4403-.516-.7926l-.955.2386c.117.5568.394.9801.831 1.2699.438.2898.99.4347 1.658.4347.509 0 .955-.0853 1.338-.2557.384-.1705.682-.4034.895-.6989.216-.2954.324-.6307.324-1.0057 0-.4573-.144-.8309-.43-1.1207-.287-.2926-.723-.5099-1.309-.652l-.971-.2386c-.387-.0966-.671-.2174-.853-.3622-.181-.1449-.272-.3424-.272-.5924 0-.2812.132-.5128.396-.6946.267-.1846.601-.277 1.001-.277.293 0 .533.0469.721.1407.187.0937.335.213.443.3579.111.1421.194.2884.251.4389z"/></g></svg>