<svg fill="none" height="16" viewBox="0 0 86 16" width="86" xmlns="http://www.w3.org/2000/svg"><g fill="#000"><path d="m11.7089 5.8c-.8648-.96667-1.9958-1.8-3.72553-1.8s-2.86071.83333-3.72557 1.83333c.26159.3098.48918.65367.70707.9829.08689.13128.17224.26024.25758.38377.03327.06667.07485.125.11643.18333.04158.05834.08316.11667.11642.18334.69855-.96667 1.39709-1.63334 2.4948-1.63334 1.09772 0 1.79626.66667 2.4948 1.63334.0178.02679.0333.05119.0476.07384.0391.06188.07.11069.1187.15949.0179.0268.0333.0512.0476.07385.0392.06188.07.11068.1187.15948.0987.12362.1791.24723.2683.38444.0311.04779.0633.09723.0977.1489.0527.07921.1054.15974.1586.24105.2155.32928.4395.6715.7062.99228.0333.03333.0582.06667.0832.1.0249.03333.0499.06667.0831.1.0333.0333.0582.0667.0832.1.0249.0333.0499.0667.0832.1.6985.7667 1.4968 1.4333 2.6278 1.7-1.3638 2.4333-3.9917 4.1-6.98543 4.1-2.99377 0-5.62162-1.6667-6.985449-4.1333 1.130979-.2667 1.962579-.9334 2.627859-1.7-.19829-.25835-.37294-.51667-.53805-.76086-.11186-.16545-.21934-.32442-.32682-.47251-.05554-.08348-.11108-.16116-.1642-.23545-.07414-.10369-.14356-.20078-.2017-.29788-.63202.8-1.26403 1.26667-2.195426 1.33333-.1330559-.53333-.199584-1.13333-.199584-1.73333s.0665281-1.2.16632-1.73333c.93139.06666 1.56341.56666 2.19543 1.33333.03326.03333.05821.06667.08316.1.02494.03333.04989.06667.08316.1.03326.03333.05821.06667.08316.1.02494.03333.04989.06667.08316.1.1038.12483.19465.26264.28872.40534.05665.08593.11446.17363.17697.26133.07703.11026.15405.22782.23348.34905.1607.24526.33125.50557.5316.75095.03326.03333.05821.06666.08316.1.02494.03333.04989.06666.08316.1.03326.03333.05821.06663.08316.10003.02494.0333.04989.0666.08316.1.86486.9666 1.99584 1.8 3.72557 1.8s2.89393-.8334 3.72553-1.8c-.2616-.30983-.4891-.6537-.707-.98293-.0869-.13128-.1723-.26023-.2576-.38377-.0333-.06667-.0749-.125-.1164-.18333-.0416-.05834-.0832-.11667-.1165-.18334-.69851.96667-1.39705 1.63337-2.49477 1.63337-1.09771 0-1.79626-.6667-2.4948-1.63337-.01783-.02679-.03326-.05119-.04759-.07384-.03915-.06188-.07003-.11069-.11873-.15949-.01783-.02679-.03326-.05119-.04759-.07384-.03915-.06188-.07003-.11069-.11873-.15949-.09868-.12361-.17907-.24722-.26829-.38443-.03109-.04779-.06324-.09724-.09762-.14891-.0527-.07921-.1054-.15974-.15862-.24105-.2155-.32928-.43948-.6715-.70624-.99228-.03326-.03333-.05821-.06667-.08316-.1s-.0499-.06667-.08316-.1-.05821-.06667-.08316-.1-.0499-.06667-.08316-.1c-.69855-.76667-1.49688-1.43333-2.627859-1.7 1.363829-2.43333 3.991679-4.1 6.985449-4.1 2.99373 0 5.62163 1.66667 7.01873 4.1-1.131.26667-1.9626.93333-2.6279 1.7.1983.25832.373.51664.5381.76083.1118.16545.2193.32441.3268.4725.0555.08349.1111.16117.1642.23546.0741.10369.1436.20078.2017.29788.632-.8 1.264-1.26667 2.1954-1.33334.1331.53334.1996 1.13334.1996 1.73334s-.0665 1.16666-.1996 1.73333c-.9314-.06667-1.5634-.56667-2.1954-1.33333-.0333-.03334-.0582-.06667-.0832-.1-.0249-.03334-.0499-.06667-.0831-.1-.0333-.03334-.0582-.06667-.0832-.1-.0249-.03334-.0499-.06667-.0832-.1-.1038-.12483-.1946-.26265-.2887-.40534-.0566-.08593-.1144-.17363-.1769-.26133-.0771-.11026-.1541-.22782-.2335-.34905-.1607-.24527-.3313-.50557-.5316-.75095-.0333-.03333-.0582-.06667-.0832-.1-.0249-.03333-.0499-.06667-.0831-.1-.0333-.03333-.0583-.06667-.0832-.1s-.0499-.06667-.0832-.1z"/><path d="m27.0483 11.2h1.4523v-5.23637h-1.4523z"/><path d="m27.7779 5.28863c.4329 0 .7875-.33068.7875-.73636 0-.40227-.3546-.73296-.7875-.73296-.4296 0-.7841.33069-.7841.73296 0 .40568.3545.73636.7841.73636z"/><path d="m18.2068 4.21818v6.98182h1.4319v-4.56137h.0579l1.8068 4.52727h.975l1.8069-4.51022h.0579v4.54432h1.4318v-6.98182h-1.8204l-1.9228 4.69091h-.0818l-1.9227-4.69091z"/><path d="m34.3685 9.28068c-.0682 1.20342-.9443 2.02162-2.3386 2.02162-1.6125 0-2.5773-1.108-2.5773-2.70003 0-1.60568.9818-2.70682 2.5704-2.70682 1.3671 0 2.2841.79432 2.3455 2.00455h-1.3705c-.0784-.5216-.4193-.87273-.9511-.87273-.675 0-1.1182.56591-1.1182 1.55454 0 1.00228.4398 1.57159 1.1182 1.57159.4977 0 .8659-.31363.9511-.87272z"/><path d="m35.2983 11.2h1.4523v-2.9625c.0034-.64091.467-1.08069 1.0534-1.08069.1977 0 .358.05455.4943.12273l.4364-1.2c-.1909-.11591-.4364-.19091-.7159-.19091-.5898 0-1.0671.34091-1.258.98864h-.0545v-.91364h-1.408z"/><g clip-rule="evenodd" fill-rule="evenodd"><path d="m44.1134 8.60227c0 1.61253-.9887 2.70003-2.5773 2.70003s-2.5773-1.0875-2.5773-2.70003c0-1.62273.9887-2.70682 2.5773-2.70682s2.5773 1.08409 2.5773 2.70682zm-3.6784-.01023c0 .91364.375 1.58526 1.1079 1.58526.7193 0 1.0943-.67162 1.0943-1.58526s-.375-1.58864-1.0943-1.58864c-.7329 0-1.1079.675-1.1079 1.58864z"/><path d="m47.4168 13.2386c1.4966 0 2.5602-.6818 2.5602-1.9875v-5.28747h-1.442v.87955h-.0546c-.1943-.42614-.6204-.94773-1.4966-.94773-1.1488 0-2.1204.89318-2.1204 2.67614 0 1.74201.9443 2.55341 2.1238 2.55341.8353 0 1.3023-.4193 1.4932-.8523h.0614v.958c0 .6852-.4602.9647-1.0909.9647-.6409 0-.9648-.2795-1.0841-.5625l-1.3432.1807c.1739.7909.9818 1.425 2.3932 1.425zm.0307-3.2045c-.7125 0-1.1012-.56592-1.1012-1.46933 0-.88977.3819-1.51364 1.1012-1.51364.7057 0 1.1011.59659 1.1011 1.51364 0 .92386-.4023 1.46933-1.1011 1.46933z"/><path d="m55.8918 9.7c-.2046.9716-1.0773 1.6023-2.3727 1.6023-1.6125 0-2.5978-1.0364-2.5978-2.69662 0-1.61591.9989-2.71023 2.5398-2.71023 1.3841 0 2.4614.87955 2.4614 2.65909v.39886h-3.5659v.00341c0 .78069.4602 1.26139 1.1863 1.26139.4841 0 .8591-.208 1.0057-.60684zm-2.4068-2.72046c-.6443 0-1.0978.47727-1.1284 1.07386h2.1988c-.0034-.62386-.4397-1.07386-1.0704-1.07386z"/></g><path d="m58.3225 8.17272c.0034-.675.4057-1.07045.992-1.07045.583 0 .9341.38182.9307 1.02273v3.075h1.4523v-3.3341c0-1.22045-.7159-1.97045-1.8068-1.97045-.7773 0-1.3398.38182-1.575.99205h-.0614v-.92387h-1.3841v5.23637h1.4523z"/><path clip-rule="evenodd" d="m67.6012 9.7c-.2046.9716-1.0773 1.6023-2.3728 1.6023-1.6125 0-2.5977-1.0364-2.5977-2.69662 0-1.61591.9989-2.71023 2.5398-2.71023 1.3841 0 2.4614.87955 2.4614 2.65909v.39886h-3.566v.00341c0 .78069.4603 1.26139 1.1864 1.26139.4841 0 .8591-.208 1.0057-.60684zm-2.4068-2.72046c-.6444 0-1.0978.47727-1.1285 1.07386h2.1989c-.0034-.62386-.4398-1.07386-1.0704-1.07386z" fill-rule="evenodd"/><path d="m71.3648 5.96363h-.9852v-1.25454h-1.4523v1.25454h-.7159v1.09091h.7159v2.72727c-.0068 1.02619.6921 1.53409 1.7455 1.48979.375-.0136.6409-.0886.7875-.1364l-.2285-1.0807-.0297.0059c-.0791.0156-.2119.0419-.3316.0419-.2898 0-.4909-.10912-.4909-.5114v-2.53636h.9852z"/><path d="m73.7631 11.2h-1.4523v-5.23637h1.4523z"/><path d="m73.8279 4.55227c0 .40568-.3546.73636-.7875.73636-.4296 0-.7841-.33068-.7841-.73636 0-.40227.3545-.73296.7841-.73296.4329 0 .7875.33069.7875.73296z"/><path d="m77.2924 11.3023c1.3943 0 2.2704-.8182 2.3386-2.02162h-1.3705c-.0852.55909-.4534.87272-.9511.87272-.6784 0-1.1182-.56931-1.1182-1.57159 0-.98863.4432-1.55454 1.1182-1.55454.5318 0 .8727.35113.9511.87273h1.3705c-.0614-1.21023-.9784-2.00455-2.3455-2.00455-1.5886 0-2.5704 1.10114-2.5704 2.70682 0 1.59203.9648 2.70003 2.5773 2.70003z"/><path d="m82.6881 5.89545c1.3227 0 2.1.59659 2.2295 1.56136l-1.3295.08182c-.0716-.3375-.3716-.61363-.8761-.61363-.45 0-.8046.20454-.8012.51818-.0034.25227.1773.41932.6648.525l.9477.19091c1.0159.20795 1.5103.66136 1.5137 1.41818-.0034 1.03293-.975 1.72503-2.3319 1.72503-1.3875 0-2.2397-.6171-2.3761-1.61935l1.4284-.075c.0887.42615.433.64775.9511.64775.508 0 .8455-.2216.8523-.53184-.0068-.2625-.2147-.42955-.6716-.52159l-.9068-.18068c-1.0227-.20455-1.517-.7125-1.5136-1.49659-.0034-1.0091.8795-1.62955 2.2193-1.62955z"/></g></svg>