<?xml version="1.0" encoding="UTF-8"?>
<svg width="96px" height="17px" viewBox="0 0 96 17" version="1.1" xmlns="http://www.w3.org/2000/svg" xmlns:xlink="http://www.w3.org/1999/xlink">
    <!-- Generator: Sketch 42 (36781) - http://www.bohemiancoding.com/sketch -->
    <title>microgenetics-logo</title>
    <desc>Created with Sketch.</desc>
    <defs></defs>
    <g id="Brands" stroke="none" stroke-width="1" fill="none" fill-rule="evenodd">
        <g id="Microgenetics-logo" transform="translate(-16.000000, -8.000000)" fill-rule="nonzero">
            <g id="microgenetics-logo" transform="translate(16.000000, 8.000000)">
                <g id="Group" transform="translate(19.200000, 3.771429)" fill="#000000">
                    <path d="M5.55428571,0.0342857143 L8.05714286,0.0342857143 L8.05714286,8.43428571 L6.44571429,8.43428571 L6.44571429,2.77714286 L6.44571429,2.09142857 L6.44571429,1.40571429 L4.86857143,8.43428571 L3.18857143,8.43428571 L1.61142857,1.40571429 L1.61142857,2.09142857 L1.61142857,2.77714286 L1.61142857,8.43428571 L0,8.43428571 L0,0.0342857143 L2.53714286,0.0342857143 L4.04571429,6.61714286 L5.55428571,0.0342857143 Z" id="Shape"></path>
                    <path d="M11.2457143,1.50857143 L9.6,1.50857143 L9.6,0 L11.2457143,0 L11.2457143,1.50857143 Z M9.6,2.22857143 L11.2457143,2.22857143 L11.2457143,8.43428571 L9.6,8.43428571 L9.6,2.22857143 Z" id="Shape"></path>
                    <path d="M16.4228571,4.45714286 C16.3885714,4.21714286 16.32,4.01142857 16.1828571,3.84 C16.0114286,3.6 15.7028571,3.46285714 15.3257143,3.46285714 C14.7771429,3.46285714 14.4,3.73714286 14.1942857,4.28571429 C14.0914286,4.56 14.0228571,4.97142857 14.0228571,5.41714286 C14.0228571,5.86285714 14.0914286,6.24 14.1942857,6.51428571 C14.4,7.02857143 14.7428571,7.30285714 15.2914286,7.30285714 C15.6685714,7.30285714 15.9428571,7.2 16.1142857,6.99428571 C16.2857143,6.78857143 16.3542857,6.51428571 16.3885714,6.20571429 L18.0342857,6.20571429 C18,6.68571429 17.8285714,7.16571429 17.4857143,7.61142857 C16.9714286,8.33142857 16.2171429,8.67428571 15.2228571,8.67428571 C14.2285714,8.67428571 13.5085714,8.36571429 13.0285714,7.78285714 C12.5485714,7.2 12.3085714,6.41142857 12.3085714,5.48571429 C12.3085714,4.42285714 12.5828571,3.6 13.0971429,3.01714286 C13.6114286,2.43428571 14.3314286,2.12571429 15.2571429,2.12571429 C16.0457143,2.12571429 16.6628571,2.29714286 17.1771429,2.64 C17.6571429,2.98285714 17.9657143,3.6 18.0685714,4.49142857 L16.4228571,4.49142857 L16.4228571,4.45714286 Z" id="Shape"></path>
                    <path d="M22.5942857,2.09142857 L22.7314286,2.09142857 L22.7314286,3.77142857 C22.6285714,3.77142857 22.5257143,3.73714286 22.4571429,3.73714286 L22.2514286,3.73714286 C21.6,3.73714286 21.1542857,3.94285714 20.9485714,4.38857143 C20.8114286,4.62857143 20.7771429,5.00571429 20.7771429,5.48571429 L20.7771429,8.43428571 L19.1657143,8.43428571 L19.1657143,2.22857143 L20.7085714,2.22857143 L20.7085714,3.32571429 C20.9485714,2.91428571 21.1885714,2.64 21.36,2.46857143 C21.6685714,2.22857143 22.0457143,2.09142857 22.5257143,2.09142857 C22.56,2.09142857 22.5942857,2.09142857 22.5942857,2.09142857 Z" id="Shape"></path>
                    <path d="M28.8,7.68 C28.2857143,8.33142857 27.4971429,8.64 26.4342857,8.64 C25.3714286,8.64 24.5828571,8.33142857 24.0685714,7.68 C23.5542857,7.02857143 23.28,6.24 23.28,5.34857143 C23.28,4.45714286 23.5542857,3.66857143 24.0685714,3.01714286 C24.5828571,2.36571429 25.3714286,2.02285714 26.4342857,2.02285714 C27.4971429,2.02285714 28.2857143,2.36571429 28.8,3.01714286 C29.3142857,3.66857143 29.5885714,4.45714286 29.5885714,5.34857143 C29.5542857,6.24 29.3142857,7.02857143 28.8,7.68 Z M27.4971429,6.78857143 C27.7371429,6.44571429 27.8742857,5.96571429 27.8742857,5.34857143 C27.8742857,4.73142857 27.7371429,4.25142857 27.4971429,3.90857143 C27.2571429,3.56571429 26.88,3.39428571 26.4,3.39428571 C25.92,3.39428571 25.5771429,3.56571429 25.3028571,3.90857143 C25.0628571,4.25142857 24.9257143,4.73142857 24.9257143,5.34857143 C24.9257143,5.96571429 25.0628571,6.44571429 25.3028571,6.78857143 C25.5428571,7.13142857 25.92,7.30285714 26.4,7.30285714 C26.88,7.30285714 27.2571429,7.13142857 27.4971429,6.78857143 Z" id="Shape"></path>
                    <path d="M33.7714286,2.22857143 C34.1485714,2.4 34.4914286,2.67428571 34.7314286,3.12 L34.7314286,2.22857143 L36.3085714,2.22857143 L36.3085714,8.12571429 C36.3085714,8.91428571 36.1714286,9.53142857 35.8971429,9.94285714 C35.4514286,10.6285714 34.56,11.0057143 33.2571429,11.0057143 C32.4685714,11.0057143 31.8171429,10.8342857 31.3371429,10.5257143 C30.8228571,10.2171429 30.5485714,9.73714286 30.5142857,9.12 L32.2628571,9.12 C32.2971429,9.32571429 32.3657143,9.46285714 32.4685714,9.53142857 C32.64,9.66857143 32.9485714,9.73714286 33.36,9.73714286 C33.9428571,9.73714286 34.32,9.53142857 34.5257143,9.15428571 C34.6628571,8.91428571 34.7314286,8.46857143 34.7314286,7.88571429 L34.7314286,7.47428571 C34.56,7.74857143 34.4228571,7.95428571 34.2171429,8.05714286 C33.9085714,8.29714286 33.4628571,8.43428571 32.9485714,8.43428571 C32.16,8.43428571 31.5085714,8.16 31.0628571,7.61142857 C30.5828571,7.06285714 30.3428571,6.30857143 30.3428571,5.34857143 C30.3428571,4.42285714 30.5828571,3.66857143 31.0285714,3.01714286 C31.4742857,2.4 32.1257143,2.09142857 32.9828571,2.09142857 C33.2914286,2.09142857 33.5657143,2.12571429 33.7714286,2.22857143 Z M34.32,6.68571429 C34.5942857,6.41142857 34.6971429,5.93142857 34.6971429,5.31428571 C34.6971429,4.73142857 34.56,4.28571429 34.32,3.97714286 C34.08,3.66857143 33.7371429,3.53142857 33.3257143,3.53142857 C32.7771429,3.53142857 32.3657143,3.80571429 32.16,4.32 C32.0571429,4.59428571 31.9885714,4.97142857 31.9885714,5.38285714 C31.9885714,5.76 32.0571429,6.06857143 32.16,6.34285714 C32.3657143,6.85714286 32.7771429,7.13142857 33.3257143,7.13142857 C33.7371429,7.09714286 34.08,6.96 34.32,6.68571429 Z" id="Shape"></path>
                    <path d="M41.8628571,2.36571429 C42.3085714,2.57142857 42.6514286,2.88 42.9257143,3.29142857 C43.1657143,3.66857143 43.3371429,4.08 43.4057143,4.56 C43.44,4.83428571 43.4742857,5.24571429 43.4742857,5.79428571 L38.9828571,5.79428571 C39.0171429,6.41142857 39.2228571,6.85714286 39.6342857,7.09714286 C39.8742857,7.26857143 40.1828571,7.33714286 40.5257143,7.33714286 C40.9028571,7.33714286 41.1771429,7.23428571 41.4171429,7.06285714 C41.5542857,6.96 41.6571429,6.82285714 41.76,6.65142857 L43.4057143,6.65142857 C43.3714286,7.02857143 43.1657143,7.40571429 42.8228571,7.78285714 C42.2742857,8.4 41.4857143,8.67428571 40.4914286,8.67428571 C39.6685714,8.67428571 38.9485714,8.43428571 38.3314286,7.92 C37.7142857,7.40571429 37.3714286,6.58285714 37.3714286,5.45142857 C37.3714286,4.38857143 37.6457143,3.56571429 38.2285714,2.98285714 C38.8114286,2.4 39.5314286,2.12571429 40.4228571,2.12571429 C40.9371429,2.05714286 41.4171429,2.16 41.8628571,2.36571429 Z M39.4285714,3.77142857 C39.1885714,4.01142857 39.0514286,4.32 38.9828571,4.73142857 L41.76,4.73142857 C41.7257143,4.28571429 41.5885714,3.97714286 41.3142857,3.73714286 C41.04,3.49714286 40.7314286,3.39428571 40.3542857,3.39428571 C39.9771429,3.39428571 39.6685714,3.53142857 39.4285714,3.77142857 Z" id="Shape"></path>
                    <path d="M49.3714286,2.60571429 C49.7828571,2.94857143 49.9885714,3.49714286 49.9885714,4.28571429 L49.9885714,8.46857143 L48.3428571,8.46857143 L48.3428571,4.69714286 C48.3428571,4.35428571 48.3085714,4.11428571 48.2057143,3.94285714 C48.0342857,3.63428571 47.76,3.46285714 47.3142857,3.46285714 C46.7657143,3.46285714 46.3885714,3.70285714 46.1828571,4.14857143 C46.08,4.38857143 46.0114286,4.69714286 46.0114286,5.10857143 L46.0114286,8.46857143 L44.4,8.46857143 L44.4,2.29714286 L45.9771429,2.29714286 L45.9771429,3.18857143 C46.1828571,2.88 46.3885714,2.64 46.56,2.50285714 C46.9028571,2.26285714 47.3142857,2.12571429 47.8285714,2.12571429 C48.4457143,2.09142857 48.96,2.26285714 49.3714286,2.60571429 Z" id="Shape"></path>
                    <path d="M55.5085714,2.36571429 C55.9542857,2.57142857 56.2971429,2.88 56.5714286,3.29142857 C56.8114286,3.66857143 56.9828571,4.08 57.0514286,4.56 C57.0857143,4.83428571 57.12,5.24571429 57.12,5.79428571 L52.6285714,5.79428571 C52.6628571,6.41142857 52.8685714,6.85714286 53.28,7.09714286 C53.52,7.26857143 53.8285714,7.33714286 54.1714286,7.33714286 C54.5485714,7.33714286 54.8228571,7.23428571 55.0628571,7.06285714 C55.2,6.96 55.3028571,6.82285714 55.4057143,6.65142857 L57.0514286,6.65142857 C57.0171429,7.02857143 56.8114286,7.40571429 56.4685714,7.78285714 C55.92,8.4 55.1314286,8.67428571 54.1371429,8.67428571 C53.3142857,8.67428571 52.5942857,8.43428571 51.9771429,7.92 C51.36,7.40571429 51.0171429,6.58285714 51.0171429,5.45142857 C51.0171429,4.38857143 51.2914286,3.56571429 51.8742857,2.98285714 C52.4571429,2.4 53.1771429,2.12571429 54.0685714,2.12571429 C54.5828571,2.05714286 55.0971429,2.16 55.5085714,2.36571429 Z M53.1085714,3.77142857 C52.8685714,4.01142857 52.7314286,4.32 52.6628571,4.73142857 L55.44,4.73142857 C55.4057143,4.28571429 55.2685714,3.97714286 54.9942857,3.73714286 C54.72,3.49714286 54.4114286,3.39428571 54.0342857,3.39428571 C53.6571429,3.39428571 53.3142857,3.53142857 53.1085714,3.77142857 Z" id="Shape"></path>
                    <path d="M57.4285714,3.46285714 L57.4285714,2.29714286 L58.2857143,2.29714286 L58.2857143,0.582857143 L59.8971429,0.582857143 L59.8971429,2.29714286 L60.8914286,2.29714286 L60.8914286,3.46285714 L59.8971429,3.46285714 L59.8971429,6.75428571 C59.8971429,6.99428571 59.9314286,7.16571429 60,7.23428571 C60.0685714,7.30285714 60.2742857,7.33714286 60.5828571,7.33714286 L60.7542857,7.33714286 L60.9257143,7.33714286 L60.9257143,8.53714286 L60.1714286,8.57142857 C59.4171429,8.60571429 58.9028571,8.46857143 58.5942857,8.16 C58.4228571,7.98857143 58.32,7.68 58.32,7.30285714 L58.32,3.46285714 L57.4285714,3.46285714 Z" id="Shape"></path>
                    <path d="M63.6,1.50857143 L61.9542857,1.50857143 L61.9542857,0 L63.6,0 L63.6,1.50857143 Z M61.9542857,2.22857143 L63.6,2.22857143 L63.6,8.43428571 L61.9542857,8.43428571 L61.9542857,2.22857143 Z" id="Shape"></path>
                    <path d="M68.7771429,4.45714286 C68.7428571,4.21714286 68.6742857,4.01142857 68.5371429,3.84 C68.3657143,3.6 68.0571429,3.46285714 67.68,3.46285714 C67.1314286,3.46285714 66.7542857,3.73714286 66.5485714,4.28571429 C66.4457143,4.56 66.3771429,4.97142857 66.3771429,5.41714286 C66.3771429,5.86285714 66.4457143,6.24 66.5485714,6.51428571 C66.7542857,7.02857143 67.0971429,7.30285714 67.6457143,7.30285714 C68.0228571,7.30285714 68.2971429,7.2 68.4685714,6.99428571 C68.64,6.78857143 68.7085714,6.51428571 68.7428571,6.20571429 L70.3885714,6.20571429 C70.3542857,6.68571429 70.1828571,7.16571429 69.84,7.61142857 C69.3257143,8.33142857 68.5714286,8.67428571 67.5771429,8.67428571 C66.5828571,8.67428571 65.8628571,8.36571429 65.3828571,7.78285714 C64.9028571,7.2 64.6628571,6.41142857 64.6628571,5.48571429 C64.6628571,4.42285714 64.9371429,3.6 65.4514286,3.01714286 C65.9657143,2.43428571 66.6857143,2.12571429 67.6114286,2.12571429 C68.4,2.12571429 69.0171429,2.29714286 69.5314286,2.64 C70.0114286,2.98285714 70.32,3.6 70.4228571,4.49142857 L68.7771429,4.49142857 L68.7771429,4.45714286 Z" id="Shape"></path>
                    <path d="M72.7885714,6.44571429 C72.8228571,6.72 72.8914286,6.92571429 72.9942857,7.06285714 C73.2,7.26857143 73.5771429,7.37142857 74.1257143,7.37142857 C74.4342857,7.37142857 74.7085714,7.33714286 74.88,7.23428571 C75.0514286,7.13142857 75.1542857,6.99428571 75.1542857,6.82285714 C75.1542857,6.65142857 75.0857143,6.51428571 74.9142857,6.41142857 C74.7771429,6.30857143 74.1942857,6.13714286 73.2342857,5.93142857 C72.5485714,5.76 72.0342857,5.55428571 71.76,5.28 C71.4857143,5.00571429 71.3142857,4.66285714 71.3142857,4.14857143 C71.3142857,3.56571429 71.5542857,3.08571429 72,2.67428571 C72.4457143,2.26285714 73.0971429,2.05714286 73.8857143,2.05714286 C74.6742857,2.05714286 75.2914286,2.22857143 75.7714286,2.53714286 C76.2514286,2.84571429 76.5257143,3.39428571 76.5942857,4.14857143 L74.9828571,4.14857143 C74.9485714,3.94285714 74.9142857,3.77142857 74.8114286,3.66857143 C74.64,3.46285714 74.3314286,3.32571429 73.8857143,3.32571429 C73.5428571,3.32571429 73.2685714,3.39428571 73.1314286,3.49714286 C72.9942857,3.6 72.8914286,3.73714286 72.8914286,3.87428571 C72.8914286,4.04571429 72.96,4.18285714 73.1314286,4.28571429 C73.3028571,4.38857143 73.8514286,4.52571429 74.8114286,4.73142857 C75.4628571,4.86857143 75.9428571,5.10857143 76.2514286,5.41714286 C76.56,5.72571429 76.7314286,6.10285714 76.7314286,6.58285714 C76.7314286,7.2 76.4914286,7.71428571 76.0457143,8.09142857 C75.6,8.46857143 74.88,8.67428571 73.92,8.67428571 C72.96,8.67428571 72.24,8.46857143 71.76,8.05714286 C71.28,7.64571429 71.0742857,7.13142857 71.0742857,6.48 L72.7885714,6.48 L72.7885714,6.44571429 Z" id="Shape"></path>
                </g>
                <path d="M8.22857143,4.11428571 C10.0114286,4.11428571 11.1771429,4.97142857 12.0685714,5.96571429 C12.1371429,6.03428571 12.1714286,6.10285714 12.24,6.17142857 C12.3085714,6.24 12.3428571,6.30857143 12.4114286,6.37714286 C12.72,6.75428571 12.96,7.16571429 13.2,7.50857143 C13.3714286,7.74857143 13.5085714,7.98857143 13.68,8.19428571 C13.7485714,8.26285714 13.7828571,8.33142857 13.8514286,8.4 C13.92,8.46857143 13.9542857,8.53714286 14.0228571,8.60571429 C14.6742857,9.39428571 15.3257143,9.90857143 16.2857143,9.97714286 C16.4228571,9.39428571 16.4914286,8.81142857 16.4914286,8.19428571 C16.4914286,7.57714286 16.4228571,6.96 16.2857143,6.41142857 C15.3257143,6.48 14.6742857,6.96 14.0228571,7.78285714 C13.92,7.61142857 13.7828571,7.44 13.6457143,7.23428571 C13.3714286,6.85714286 13.0971429,6.41142857 12.7542857,5.96571429 C13.44,5.17714286 14.2971429,4.49142857 15.4628571,4.21714286 C14.0228571,1.71428571 11.3142857,0 8.22857143,0 C5.14285714,0 2.43428571,1.71428571 1.02857143,4.21714286 C2.19428571,4.49142857 3.01714286,5.17714286 3.73714286,5.96571429 C3.80571429,6.03428571 3.84,6.10285714 3.90857143,6.17142857 C3.97714286,6.24 4.01142857,6.30857143 4.08,6.37714286 C4.42285714,6.78857143 4.69714286,7.23428571 4.97142857,7.64571429 C5.10857143,7.85142857 5.21142857,8.02285714 5.34857143,8.19428571 C5.41714286,8.26285714 5.45142857,8.33142857 5.52,8.43428571 C5.58857143,8.50285714 5.62285714,8.57142857 5.69142857,8.67428571 C6.41142857,9.66857143 7.13142857,10.3542857 8.26285714,10.3542857 L8.26285714,10.3542857 C9.39428571,10.3542857 10.1142857,9.66857143 10.8342857,8.67428571 C10.9028571,8.81142857 11.0057143,8.91428571 11.0742857,9.05142857 C11.3828571,9.49714286 11.6914286,10.0114286 12.0685714,10.4571429 C11.2114286,11.4514286 10.0114286,12.3085714 8.22857143,12.3085714 C6.44571429,12.3085714 5.28,11.4514286 4.38857143,10.4571429 C4.32,10.3885714 4.28571429,10.32 4.21714286,10.2514286 C4.14857143,10.1828571 4.11428571,10.1142857 4.04571429,10.0457143 C3.73714286,9.66857143 3.49714286,9.25714286 3.25714286,8.91428571 C3.08571429,8.67428571 2.94857143,8.43428571 2.77714286,8.22857143 C2.70857143,8.16 2.67428571,8.09142857 2.60571429,8.02285714 C2.53714286,7.95428571 2.50285714,7.88571429 2.43428571,7.81714286 C1.78285714,7.02857143 1.13142857,6.51428571 0.171428571,6.44571429 C0.0685714286,6.99428571 0,7.61142857 0,8.22857143 C0,8.84571429 0.0685714286,9.46285714 0.205714286,10.0114286 C1.16571429,9.94285714 1.81714286,9.46285714 2.46857143,8.64 C2.57142857,8.81142857 2.70857143,8.98285714 2.84571429,9.18857143 C3.12,9.56571429 3.39428571,10.0114286 3.73714286,10.4571429 C3.05142857,11.2457143 2.19428571,11.9314286 1.02857143,12.2057143 C2.43428571,14.7428571 5.14285714,16.4571429 8.22857143,16.4571429 C11.3142857,16.4571429 14.0228571,14.7428571 15.4285714,12.24 C14.2628571,11.9657143 13.44,11.28 12.72,10.4914286 C12.6514286,10.4228571 12.6171429,10.3542857 12.5485714,10.2857143 C12.48,10.2171429 12.4457143,10.1485714 12.3771429,10.08 C12.0342857,9.66857143 11.76,9.22285714 11.4857143,8.81142857 C11.3485714,8.60571429 11.2457143,8.43428571 11.1085714,8.26285714 C11.04,8.19428571 11.0057143,8.12571429 10.9371429,8.02285714 C10.8685714,7.95428571 10.8342857,7.88571429 10.7657143,7.78285714 C10.0457143,6.78857143 9.32571429,6.10285714 8.19428571,6.10285714 L8.19428571,6.10285714 C7.06285714,6.10285714 6.34285714,6.78857143 5.62285714,7.78285714 C5.55428571,7.64571429 5.45142857,7.54285714 5.38285714,7.40571429 C5.07428571,6.96 4.76571429,6.44571429 4.38857143,6 C5.28,4.97142857 6.44571429,4.11428571 8.22857143,4.11428571 Z" id="Shape" fill="#FF0000"></path>
            </g>
        </g>
    </g>
</svg>