<svg fill="none" height="16" viewBox="0 0 86 16" width="86" xmlns="http://www.w3.org/2000/svg"><path d="m7.98337 4c1.72973 0 2.86073.83333 3.72553 1.8.0666.06667.0998.13333.1664.2.0665.06667.0998.13333.1663.2.2994.36667.5322.76667.7651 1.1.1663.23333.2993.46667.4656.66667.0666.06666.0998.13333.1664.2.0665.06666.0998.13333.1663.2.632.76666 1.264 1.26666 2.1954 1.33333.1331-.56667.1996-1.13333.1996-1.73333s-.0665-1.2-.1996-1.73334c-.9314.06667-1.5634.53334-2.1954 1.33334-.0998-.16667-.2329-.33334-.3659-.53334-.2661-.36666-.5322-.8-.8649-1.23333.6653-.76667 1.4969-1.43333 2.6279-1.7-1.3971-2.43333-4.025-4.1-7.01873-4.1-2.99377 0-5.62162 1.66667-6.985449 4.1 1.130979.26667 1.929309.93333 2.627859 1.7.06653.06667.09979.13333.16632.2s.09979.13333.16632.2c.33264.4.59875.83333.86486 1.23333.13306.2.23285.36667.36591.53334.06653.06666.09979.13333.16632.23333.06653.06667.09979.13333.16632.23333.69854.96667 1.39709 1.63337 2.4948 1.63337 1.09772 0 1.79626-.6667 2.49477-1.63337.0666.13334.1664.23334.2329.36667.2994.43333.5987.93333.9646 1.3667-.8316.9666-1.9958 1.8-3.72553 1.8s-2.86071-.8334-3.72557-1.8c-.06653-.0667-.0998-.1334-.16632-.20003-.06653-.06667-.0998-.13334-.16632-.2-.29938-.36667-.53223-.76667-.76508-1.1-.16632-.23334-.29937-.46667-.46569-.66667-.06653-.06667-.0998-.13333-.16632-.2-.06653-.06667-.0998-.13333-.16632-.2-.63202-.76667-1.26404-1.26667-2.19543-1.33333-.0997919.53333-.16632 1.13333-.16632 1.73333s.0665281 1.2.199584 1.73333c.931396-.06666 1.563406-.53333 2.195426-1.33333.09979.16667.23285.33333.3659.53333.26612.36667.53223.8.86487 1.23337-.66528.7666-1.49688 1.4333-2.627859 1.7 1.363829 2.4666 3.991679 4.1333 6.985449 4.1333 2.99373 0 5.62163-1.6667 6.98543-4.1-1.131-.2667-1.9293-.9333-2.6278-1.7-.0666-.0667-.0998-.1333-.1664-.2-.0665-.06667-.0998-.13333-.1663-.2-.3326-.4-.5987-.83333-.8648-1.23333-.1331-.2-.2329-.36667-.366-.53334-.0665-.06666-.0997-.13333-.1663-.23333-.0665-.06667-.0998-.13333-.1663-.23333-.69854-.96667-1.39708-1.63334-2.4948-1.63334-1.09771 0-1.79625.66667-2.4948 1.63334-.06653-.13334-.16632-.23334-.23285-.36667-.29937-.43333-.59875-.93333-.96465-1.36667.86486-1 1.99584-1.83333 3.72557-1.83333z" fill="#ff1744"/><g fill="#fff"><path d="m18.2068 4.21817v6.98183h1.4319v-4.56138h.0579l1.8068 4.52728h.975l1.8069-4.51023h.0579v4.54433h1.4318v-6.98183h-1.8204l-1.9228 4.69091h-.0818l-1.9227-4.69091z"/><path d="m27.0483 11.2h1.4523v-5.23638h-1.4523zm.7296-5.91138c.4329 0 .7875-.33068.7875-.73636 0-.40227-.3546-.73295-.7875-.73295-.4296 0-.7841.33068-.7841.73295 0 .40568.3545.73636.7841.73636z"/><path d="m32.0299 11.3023c1.3943 0 2.2704-.8182 2.3386-2.02163h-1.3705c-.0852.55909-.4534.87273-.9511.87273-.6784 0-1.1182-.56932-1.1182-1.57159 0-.98864.4432-1.55455 1.1182-1.55455.5318 0 .8727.35114.9511.87273h1.3705c-.0614-1.21023-.9784-2.00455-2.3455-2.00455-1.5886 0-2.5704 1.10114-2.5704 2.70682 0 1.59204.9648 2.70004 2.5773 2.70004z"/><path d="m35.2983 11.2h1.4523v-2.96251c.0034-.64091.467-1.08068 1.0534-1.08068.1977 0 .358.05454.4943.12272l.4364-1.2c-.1909-.11591-.4364-.19091-.7159-.19091-.5898 0-1.0671.34091-1.258.98864h-.0545v-.91364h-1.408z"/><path d="m41.5361 11.3023c1.5886 0 2.5773-1.0875 2.5773-2.70004 0-1.62273-.9887-2.70682-2.5773-2.70682s-2.5773 1.08409-2.5773 2.70682c0 1.61254.9887 2.70004 2.5773 2.70004zm.0068-1.125c-.7329 0-1.1079-.67163-1.1079-1.58527 0-.91363.375-1.58863 1.1079-1.58863.7193 0 1.0943.675 1.0943 1.58863 0 .91364-.375 1.58527-1.0943 1.58527z"/><path d="m47.4168 13.2386c1.4966 0 2.5602-.6818 2.5602-1.9875v-5.28748h-1.442v.87955h-.0546c-.1943-.42614-.6204-.94773-1.4966-.94773-1.1488 0-2.1204.89318-2.1204 2.67614 0 1.74202.9443 2.55342 2.1238 2.55342.8353 0 1.3023-.4193 1.4932-.8523h.0614v.958c0 .6852-.4602.9647-1.0909.9647-.6409 0-.9648-.2795-1.0841-.5625l-1.3432.1807c.1739.7909.9818 1.425 2.3932 1.425zm.0307-3.2045c-.7125 0-1.1012-.56593-1.1012-1.46934 0-.88977.3819-1.51364 1.1012-1.51364.7057 0 1.1011.5966 1.1011 1.51364 0 .92386-.4023 1.46934-1.1011 1.46934z"/><path d="m53.5191 11.3023c1.2954 0 2.1681-.6307 2.3727-1.60231l-1.3432-.08864c-.1466.39885-.5216.60685-1.0057.60685-.7261 0-1.1863-.48071-1.1863-1.26139v-.00341h3.5659v-.39887c0-1.77954-1.0773-2.65909-2.4614-2.65909-1.5409 0-2.5398 1.09432-2.5398 2.71023 0 1.66023.9853 2.69663 2.5978 2.69663zm-1.1625-3.2489c.0306-.59659.4841-1.07387 1.1284-1.07387.6307 0 1.067.45 1.0704 1.07387z"/><path d="m58.3225 8.17272c.0034-.675.4057-1.07046.992-1.07046.583 0 .9341.38182.9307 1.02273v3.07501h1.4523v-3.3341c0-1.22046-.7159-1.97046-1.8068-1.97046-.7773 0-1.3398.38182-1.575.99205h-.0614v-.92387h-1.3841v5.23638h1.4523z"/><path d="m65.2284 11.3023c1.2955 0 2.1682-.6307 2.3728-1.60231l-1.3432-.08864c-.1466.39885-.5216.60685-1.0057.60685-.7261 0-1.1864-.48071-1.1864-1.26139v-.00341h3.5659v-.39887c0-1.77954-1.0772-2.65909-2.4613-2.65909-1.5409 0-2.5398 1.09432-2.5398 2.71023 0 1.66023.9852 2.69663 2.5977 2.69663zm-1.1625-3.2489c.0307-.59659.4841-1.07387 1.1284-1.07387.6307 0 1.0671.45 1.0705 1.07387z"/><path d="m71.3648 5.96362h-.9852v-1.25454h-1.4523v1.25454h-.7159v1.09091h.7159v2.72728c-.0068 1.02609.6921 1.53409 1.7455 1.48979.375-.0137.6409-.0887.7875-.1364l-.2285-1.0807c-.0715.0137-.225.0478-.3613.0478-.2898 0-.4909-.10913-.4909-.5114v-2.53637h.9852z"/><path d="m72.3108 11.2h1.4523v-5.23638h-1.4523zm.7296-5.91138c.4329 0 .7875-.33068.7875-.73636 0-.40227-.3546-.73295-.7875-.73295-.4296 0-.7841.33068-.7841.73295 0 .40568.3545.73636.7841.73636z"/><path d="m77.2924 11.3023c1.3943 0 2.2704-.8182 2.3386-2.02163h-1.3705c-.0852.55909-.4534.87273-.9511.87273-.6784 0-1.1182-.56932-1.1182-1.57159 0-.98864.4432-1.55455 1.1182-1.55455.5318 0 .8727.35114.9511.87273h1.3705c-.0614-1.21023-.9784-2.00455-2.3455-2.00455-1.5886 0-2.5704 1.10114-2.5704 2.70682 0 1.59204.9648 2.70004 2.5773 2.70004z"/><path d="m84.9176 7.45681c-.1295-.96478-.9068-1.56137-2.2295-1.56137-1.3398 0-2.2227.62046-2.2193 1.62955-.0034.78409.4909 1.29204 1.5136 1.49659l.9068.18068c.4569.09205.6648.25909.6716.52159-.0068.31025-.3443.53185-.8522.53185-.5182 0-.8625-.2216-.9512-.64776l-1.4284.075c.1364 1.00226.9886 1.61936 2.3761 1.61936 1.3569 0 2.3285-.6921 2.3319-1.72504-.0034-.75682-.4978-1.21023-1.5137-1.41818l-.9477-.19091c-.4875-.10568-.6682-.27273-.6648-.525-.0034-.31364.3512-.51818.8012-.51818.5045 0 .8045.27613.8761.61363z"/></g></svg>