<svg fill="none" height="24" viewBox="0 0 187 24" width="187" xmlns="http://www.w3.org/2000/svg"><circle cx="12" cy="12" fill="#1565c0" r="12"/><path d="m8.27586 13.5447c.16766.289.47799.4689.80972.4689.51737 0 .93812-.4209.93812-.9383 0-.1656-.0428-.3274-.12425-.4681-.30295-.524-.46294-1.12-.46294-1.7241 0-1.90282 1.54779-3.45097 3.45079-3.45097.517 0 .9376-.42074.9376-.93805 0-.5171-.4195-.93787-.9347-.93787-2.93839 0-5.3289 2.38967-5.3289 5.32689 0 .9327.24705 1.853.71456 2.6616z" fill="#fff"/><path d="m10.0607 10.8831c0-.8197.3488-1.55768.9061-2.07391-.0481.58343.2355 1.16962.7764 1.48181.2417.1398.5104.2106.7797.2106.4805-.0003.9668.1198 1.4123.377.7101.41 1.1748 1.0812 1.3433 1.822-.4814-.3334-1.1312-.3811-1.6716-.0689-.2423.1396-.4374.3367-.5722.5696-.24.4171-.5872.778-1.0329 1.0352-.71.4095-1.5235.4765-2.24903.2523.52893-.2505.89493-.7891.89493-1.4135 0-.2791-.073-.5473-.2074-.7803-.2406-.4163-.3796-.8977-.3796-1.4119z" fill="#fff"/><path d="m16.3249 16.4595c-.1642 0-.3269-.0435-.4706-.1268-.448-.2586-.6024-.833-.3435-1.2808.9508-1.648.3844-3.7625-1.2633-4.714-.5222-.3014-1.1175-.46079-1.7217-.46079-.1654 0-.327-.04379-.4709-.12676-.4477-.25878-.6013-.83366-.343-1.28156.1656-.28698.4765-.46584.811-.46657.9352 0 1.8549.24622 2.6621.7122 1.2315.71112 2.1128 1.86008 2.4811 3.23548.3682 1.375.1791 2.8108-.5323 4.0429-.1661.2879-.4765.4667-.8089.4667z" fill="#fff"/><path d="m5.97383 14.4492c.94853 1.644 2.71924 2.6654 4.62067 2.6654.9293 0 1.848-.2469 2.6571-.714.8078-.4665 1.481-1.1406 1.9471-1.9492.1669-.2894.1677-.6481.0017-.9357-.2489-.4308-.8473-.5947-1.2812-.3432-.1434.0824-.262.2004-.3437.341-.3023.5247-.7383.9617-1.2618 1.2636-.5244.3026-1.1202.4627-1.7221.4627-1.23052 0-2.37684-.6612-2.99188-1.7259-.24798-.4305-.84607-.5936-1.28096-.3425-.44777.2583-.60278.8316-.34493 1.2778z" fill="#fff"/><path d="m30 0h1v24h-1z" fill="#e0e0e0"/><g fill="#212121"><path d="m38.4399 17v-11.20001h4.768c.7574 0 1.4347.16533 2.032.496.608.33066 1.0774.784 1.408 1.36.3414.56533.512 1.2.512 1.904 0 .70401-.1706 1.34401-.512 1.92001-.3306.5653-.8 1.0133-1.408 1.344-.5973.3307-1.2746.496-2.032.496h-2.368v3.68zm4.688-5.84c.4587 0 .8427-.1547 1.152-.464.32-.32.48-.69868.48-1.13601 0-.43734-.16-.81067-.48-1.12-.3093-.32-.6933-.48-1.152-.48h-2.288v3.20001z"/><path d="m48.3606 17v-11.20001h2.16v4.54401h.048c.192-.32.4906-.60801.896-.86401.416-.26667.8906-.4 1.424-.4.5653 0 1.0666.13333 1.504.4.4373.26666.7786.65071 1.024 1.15201.256.4907.384 1.0773.384 1.76v4.608h-2.16v-4.32c0-.48-.1334-.8587-.4-1.136-.2667-.288-.6134-.432-1.04-.432-.4907 0-.896.1707-1.216.512-.3094.3307-.464.7627-.464 1.296v4.08z"/><path d="m60.5162 9.07999c.6613 0 1.248.13867 1.76.416.5227.26667.928.63471 1.216 1.10401.288.4587.432.9653.432 1.52v4.88h-2.048v-1.072h-.048c-.192.3093-.496.592-.912.848s-.8907.384-1.424.384c-.4907 0-.9333-.1013-1.328-.304-.384-.2027-.688-.4747-.912-.816-.224-.352-.336-.7253-.336-1.12 0-.6613.208-1.2053.624-1.632s1.008-.7147 1.776-.864l2.448-.464c-.0213-.3093-.16-.5707-.416-.784-.2453-.224-.56-.336-.944-.336-.6613 0-1.264.304-1.808.912l-1.232-1.184c.3413-.4053.7787-.75201 1.312-1.04001.544-.29867 1.1573-.448 1.84-.448zm-.4 6.35201c.4693 0 .8587-.1653 1.168-.496.32-.3307.48-.7627.48-1.296v-.256l-1.68.336c-.2987.0533-.5333.1653-.704.336-.1707.16-.256.3413-.256.544 0 .2453.0853.448.256.608.1813.1493.4267.224.736.224z"/><path d="m65.5274 17v-7.76001h2.16v.96001h.048c.192-.28801.48-.54401.864-.76801.3947-.23467.8374-.352 1.328-.352h.368v2.32001c-.256-.0853-.496-.128-.72-.128-.5546 0-1.008.192-1.36.576-.352.3733-.528.8747-.528 1.504v3.648z"/><path d="m71.2524 17v-7.76001h2.16v1.10401h.048c.1494-.32.416-.60801.8-.86401.384-.26667.8374-.4 1.36-.4.5334 0 .9974.13867 1.392.416.3947.26667.672.56531.832.89601h.064c.1814-.3307.5067-.62934.976-.89601.48-.27733 1.0294-.416 1.648-.416.5014 0 .9547.13333 1.36.4.416.26666.7467.65071.992 1.15201.2454.5013.368 1.088.368 1.76v4.608h-2.16v-4.4c0-.4693-.1226-.832-.368-1.088-.2346-.2667-.5386-.4-.912-.4-.4266 0-.7786.1547-1.056.464-.2773.3093-.416.7307-.416 1.264v4.16h-2.16v-4.4c0-.4693-.1226-.832-.368-1.088-.2346-.2667-.5386-.4-.912-.4-.4373 0-.7946.1547-1.072.464-.2773.3093-.416.7307-.416 1.264v4.16z"/><path d="m87.9724 9.07999c.6614 0 1.248.13867 1.76.416.5227.26667.928.63471 1.216 1.10401.288.4587.432.9653.432 1.52v4.88h-2.048v-1.072h-.048c-.192.3093-.496.592-.912.848s-.8906.384-1.424.384c-.4906 0-.9333-.1013-1.328-.304-.384-.2027-.688-.4747-.912-.816-.224-.352-.336-.7253-.336-1.12 0-.6613.208-1.2053.624-1.632s1.008-.7147 1.776-.864l2.448-.464c-.0213-.3093-.16-.5707-.416-.784-.2453-.224-.56-.336-.944-.336-.6613 0-1.264.304-1.808.912l-1.232-1.184c.3414-.4053.7787-.75201 1.312-1.04001.544-.29867 1.1574-.448 1.84-.448zm-.4 6.35201c.4694 0 .8587-.1653 1.168-.496.32-.3307.48-.7627.48-1.296v-.256l-1.68.336c-.2986.0533-.5333.1653-.704.336-.1706.16-.256.3413-.256.544 0 .2453.0854.448.256.608.1814.1493.4267.224.736.224z"/><path d="m94.4434 17h-2.416l2.672-4-2.464-3.76001h2.496l1.408 2.36801h.048l1.424-2.36801h2.4156l-2.4636 3.76001 2.6556 4h-2.4956l-1.616-2.624h-.048z"/><path d="m104.467 17.16c-.768 0-1.472-.1813-2.112-.544-.63-.3627-1.131-.8533-1.504-1.472-.363-.6187-.544-1.296-.544-2.032s.181-1.4133.544-2.032c.373-.6187.874-1.10401 1.504-1.45601.64-.36267 1.344-.544 2.112-.544.778 0 1.482.18133 2.112.544.64.352 1.141.83731 1.504 1.45601.362.6187.544 1.296.544 2.032s-.182 1.4133-.544 2.032c-.363.6187-.864 1.1093-1.504 1.472-.63.3627-1.334.544-2.112.544zm0-2c.544 0 1.008-.1973 1.392-.592s.576-.88.576-1.456-.192-1.056-.576-1.44c-.384-.3947-.848-.592-1.392-.592s-1.008.1973-1.392.592c-.374.384-.56.864-.56 1.44s.186 1.0613.56 1.456c.384.3947.848.592 1.392.592z"/><path d="m114.968 17h-1.2v-11.20001h1.2v4.96001h6.272v-4.96001h1.2v11.20001h-1.2v-5.12h-6.272z"/><path d="m128.311 17.16c-.694 0-1.334-.176-1.92-.528-.587-.3627-1.056-.848-1.408-1.456s-.528-1.28-.528-2.016c0-.7467.17-1.424.512-2.032.341-.608.8-1.088 1.376-1.44001.576-.352 1.205-.528 1.888-.528.672 0 1.28.16533 1.824.496.554.33067.992.79471 1.312 1.39201s.48 1.2693.48 2.016c0 .1707-.011.3413-.032.512h-6.24c.053.4693.208.896.464 1.28s.581.688.976.912c.405.224.848.336 1.328.336.885 0 1.669-.384 2.352-1.152l.752.688c-.342.4267-.774.7893-1.296 1.088-.523.288-1.136.432-1.84.432zm2.432-4.528c-.096-.7467-.368-1.3387-.816-1.776-.448-.448-1.014-.672-1.696-.672-.448 0-.87.112-1.264.336-.384.2133-.704.5067-.96.88-.246.3733-.395.784-.448 1.232z"/><path d="m136.132 9.15999c.587 0 1.104.128 1.552.384.459.256.816.61331 1.072 1.07201.256.448.384.9653.384 1.552v4.832h-1.04v-1.232h-.016c-.203.352-.544.672-1.024.96s-1.029.432-1.648.432c-.501 0-.949-.1013-1.344-.304-.384-.2027-.688-.4693-.912-.8-.213-.3413-.32-.704-.32-1.088 0-.6187.213-1.136.64-1.552.427-.4267 1.029-.704 1.808-.832l2.784-.464v-.016c0-.576-.181-1.04-.544-1.392-.352-.352-.816-.528-1.392-.528-.448 0-.843.1013-1.184.304-.331.192-.651.448-.96.768l-.72-.688c.32-.3947.725-.72534 1.216-.99201.491-.27733 1.04-.416 1.648-.416zm-.608 7.00801c.469 0 .896-.112 1.28-.336.395-.224.704-.528.928-.912.224-.3947.336-.832.336-1.312v-.544l-2.528.416c-.544.096-.949.2667-1.216.512s-.4.5493-.4.912c0 .352.144.6507.432.896.299.2453.688.368 1.168.368z"/><path d="m142.351 17h-1.088v-11.20001h1.088z"/><path d="m147.332 17.08c-.672 0-1.194-.192-1.568-.576-.362-.3947-.544-.9653-.544-1.712v-4.416h-1.488v-1.05601h.976c.192 0 .342-.05867.448-.176.118-.128.176-.31467.176-.56v-1.824h.976v2.56h1.888v1.05601h-1.888v4.352c0 .416.102.736.304.96.214.224.502.336.864.336.31 0 .635-.08.976-.24v1.056c-.128.064-.293.1173-.496.16-.202.0533-.41.08-.624.08z"/><path d="m149.947 17v-11.20001h1.088v4.75201h.016c.203-.3627.528-.68268.976-.96001.459-.288.971-.432 1.536-.432.587 0 1.115.13867 1.584.416s.837.66671 1.104 1.16801.4 1.0773.4 1.728v4.528h-1.088v-4.528c0-.672-.203-1.216-.608-1.632-.395-.416-.901-.624-1.52-.624-.448 0-.853.112-1.216.336-.363.2133-.651.512-.864.896s-.32.816-.32 1.296v4.256z"/><path d="m162.029 17.16c-.693 0-1.338-.176-1.936-.528-.586-.3627-1.056-.848-1.408-1.456-.341-.608-.512-1.28-.512-2.016s.171-1.408.512-2.016c.352-.608.822-1.088 1.408-1.44001.598-.36267 1.243-.544 1.936-.544.704 0 1.323.16 1.856.48.544.30933.971.67201 1.28 1.08801l-.8.656c-.629-.7787-1.408-1.168-2.336-1.168-.501 0-.965.128-1.392.384-.416.256-.752.6133-1.008 1.072-.245.448-.368.944-.368 1.488s.123 1.0453.368 1.504c.256.448.592.8 1.008 1.056.427.256.891.384 1.392.384.523 0 .982-.1173 1.376-.352.395-.2347.726-.5173.992-.848l.8.656c-.309.4267-.741.8-1.296 1.12-.544.32-1.168.48-1.872.48z"/><path d="m169.366 9.15999c.587 0 1.104.128 1.552.384.459.256.816.61331 1.072 1.07201.256.448.384.9653.384 1.552v4.832h-1.04v-1.232h-.016c-.202.352-.544.672-1.024.96s-1.029.432-1.648.432c-.501 0-.949-.1013-1.344-.304-.384-.2027-.688-.4693-.912-.8-.213-.3413-.32-.704-.32-1.088 0-.6187.214-1.136.64-1.552.427-.4267 1.03-.704 1.808-.832l2.784-.464v-.016c0-.576-.181-1.04-.544-1.392-.352-.352-.816-.528-1.392-.528-.448 0-.842.1013-1.184.304-.33.192-.65.448-.96.768l-.72-.688c.32-.3947.726-.72534 1.216-.99201.491-.27733 1.04-.416 1.648-.416zm-.608 7.00801c.47 0 .896-.112 1.28-.336.395-.224.704-.528.928-.912.224-.3947.336-.832.336-1.312v-.544l-2.528.416c-.544.096-.949.2667-1.216.512-.266.2453-.4.5493-.4.912 0 .352.144.6507.432.896.299.2453.688.368 1.168.368z"/><path d="m174.417 17v-7.68001h1.088v1.20001h.016c.203-.352.528-.66668.976-.94401.459-.27733.976-.416 1.552-.416h.352v1.12001c-.149-.0213-.299-.032-.448-.032-.448 0-.859.112-1.232.336s-.672.5333-.896.928c-.213.3947-.32.8373-.32 1.328v4.16z"/><path d="m182.751 17.16c-.693 0-1.333-.176-1.92-.528-.586-.3627-1.056-.848-1.408-1.456s-.528-1.28-.528-2.016c0-.7467.171-1.424.512-2.032.342-.608.8-1.088 1.376-1.44001.576-.352 1.206-.528 1.888-.528.672 0 1.28.16533 1.824.496.555.33067.992.79471 1.312 1.39201s.48 1.2693.48 2.016c0 .1707-.01.3413-.032.512h-6.24c.054.4693.208.896.464 1.28s.582.688.976.912c.406.224.848.336 1.328.336.886 0 1.67-.384 2.352-1.152l.752.688c-.341.4267-.773.7893-1.296 1.088-.522.288-1.136.432-1.84.432zm2.432-4.528c-.096-.7467-.368-1.3387-.816-1.776-.448-.448-1.013-.672-1.696-.672-.448 0-.869.112-1.264.336-.384.2133-.704.5067-.96.88-.245.3733-.394.784-.448 1.232z"/></g></svg>