<svg fill="none" height="48" viewBox="0 0 181 48" width="181" xmlns="http://www.w3.org/2000/svg"><g fill="#000"><path clip-rule="evenodd" d="m48 24c0 13.2549-10.7452 24-24 24s-24-10.7451-24-24 10.7452-24 24-24 24 10.7451 24 24zm-31.4483 3.0894c.3353.578.956.9378 1.6195.9378 1.0347 0 1.8762-.8418 1.8762-1.8766 0-.3311-.0856-.6549-.2485-.9362-.6059-1.048-.9259-2.24-.9259-3.4483 0-3.8055 3.0956-6.9018 6.9017-6.9018 1.0339 0 1.875-.8415 1.875-1.8761 0-1.0342-.8388-1.8758-1.8692-1.8758-5.8769 0-10.6579 4.7793-10.6579 10.6537 0 1.8655.4941 3.7062 1.4291 5.3233zm3.5697-5.3233c0-1.6393.6977-3.1152 1.8123-4.1477-.0963 1.1669.471 2.3392 1.5527 2.9636.4835.2797 1.0208.4212 1.5594.4212.961-.0006 1.9336.2396 2.8246.754 1.4202.8201 2.3496 2.1624 2.6866 3.644-.9629-.6668-2.2624-.7622-3.3432-.1378-.4845.2793-.8748.6734-1.1445 1.1393-.48.834-1.1743 1.5558-2.0658 2.0702-1.4199.8191-3.0468.9531-4.498.5048 1.0578-.5011 1.7898-1.5783 1.7898-2.8271 0-.5582-.1458-1.0946-.4147-1.5606-.4812-.8326-.7592-1.7954-.7592-2.8239zm11.5871 10.8993c.2876.1665.613.2535.9412.2535.6649 0 1.2858-.3575 1.6178-.9333 1.4229-2.4642 1.8011-5.3359 1.0647-8.0858-.7366-2.7508-2.4992-5.0487-4.9622-6.471-1.6145-.932-3.4538-1.4244-5.3242-1.4244-.6691.0015-1.2907.3592-1.6219.9332-.5168.8958-.2095 2.0456.6858 2.5631.288.1659.6111.2535.9419.2535 1.2085 0 2.3991.3187 3.4433.9215 3.2955 1.903 4.4283 6.1322 2.5267 9.4281-.5178.8955-.2091 2.0443.6869 2.5616zm-19.7608-3.767c1.897 3.2879 5.4384 5.3308 9.2413 5.3308 1.8586 0 3.696-.4938 5.3142-1.4281 1.6157-.9329 2.9621-2.2812 3.8942-3.8983.3337-.5788.3354-1.2962.0033-1.8714-.4976-.8617-1.6944-1.1894-2.5623-.6864-.2868.1649-.5241.4007-.6873.682-.6047 1.0495-1.4768 1.9234-2.5238 2.5272-1.0487.6052-2.2403.9255-3.4441.9255-2.461 0-4.7537-1.3226-5.9838-3.4519-.4959-.8609-1.6921-1.1872-2.5619-.685-.8955.5166-1.2055 1.6633-.6898 2.5556z" fill-rule="evenodd"/><path d="m60 0h1v48h-1z"/><path clip-rule="evenodd" d="m75.1599 33h3.6v-5.52h3.48c3.576 0 6-2.376 6-5.64 0-3.2641-2.424-5.64-6-5.64h-7.08zm3.6-8.88v-4.5601h3.36c1.44 0 2.4.9361 2.4 2.2801s-.96 2.28-2.4 2.28z" fill-rule="evenodd"/><path d="m89.9237 33h3.24v-6.24c0-1.56 1.08-2.64 2.52-2.64 1.344 0 2.16.84 2.16 2.2799v6.6001h3.2403v-7.0801c0-3-1.9203-4.9199-4.3203-4.9199-1.152 0-2.016.48-2.592.96-.336.2879-.624.5999-.888.9599h-.12v-6.7199h-3.24z"/><path clip-rule="evenodd" d="m113.434 33h-3.24v-1.4401h-.12c-.264.312-.552.6-.888.84-.576.4561-1.464.8401-2.592.8401-2.16 0-3.6-1.4401-3.6-3.36 0-1.92 1.296-3.384 3.48-3.7681l3.72-.672c-.12-.8399-.816-1.5599-2.04-1.5599-.84 0-1.488.3119-1.944.672-.264.1919-.504.408-.696.648l-1.92-1.9201c.336-.408.744-.792 1.224-1.1279.84-.5761 2.016-1.152 3.576-1.152 3 0 5.04 2.064 5.04 4.6799zm-5.76-2.4c1.44 0 2.52-1.0801 2.52-2.64v-.24l-2.64.48c-.84.1679-1.32.5999-1.32 1.1999 0 .744.48 1.2001 1.44 1.2001z" fill-rule="evenodd"/><path d="m115.955 33h3.24v-5.52c0-1.9201 1.2-3.12 2.76-3.12.294 0 .523.0318.702.0566.041.0056.079.0109.114.0154l.264.048v-3.48h-.24c-1.152 0-2.016.48-2.592.96-.336.2879-.624.5999-.888.9599h-.12v-1.6799h-3.24z"/><path d="m127.712 33h-3.24v-11.76h3.24v1.6799h.12c.216-.36.456-.672.768-.9599.552-.48 1.32-.96 2.472-.96 1.248 0 2.136.528 2.688 1.032.312.2879.576.624.792 1.0079h.12c.264-.3839.6-.72.984-1.0079.648-.504 1.584-1.032 2.856-1.032 2.304 0 4.08 1.7999 4.08 4.6799v7.3201h-3.24v-6.8401c0-1.344-.696-2.0399-1.92-2.0399-1.344 0-2.28.96-2.28 2.3999v6.4801h-3.24v-6.8401c0-1.344-.696-2.0399-1.92-2.0399-1.344 0-2.28.96-2.28 2.3999z"/><path clip-rule="evenodd" d="m151.707 33h3.24v-7.3201c0-2.6159-2.04-4.6799-5.04-4.6799-1.56 0-2.736.5759-3.576 1.152-.48.3359-.888.7199-1.224 1.1279l1.92 1.9201c.192-.24.432-.4561.696-.648.456-.3601 1.104-.672 1.944-.672 1.224 0 1.92.72 2.04 1.5599l-3.72.672c-2.184.3841-3.48 1.8481-3.48 3.7681 0 1.9199 1.44 3.36 3.6 3.36 1.128 0 2.016-.384 2.592-.8401.336-.24.624-.528.888-.84h.12zm0-5.04c0 1.5599-1.08 2.64-2.52 2.64-.96 0-1.44-.4561-1.44-1.2001 0-.6.48-1.032 1.32-1.1999l2.64-.48z" fill-rule="evenodd"/><path d="m159.508 33h-3.72l4.2-6-3.96-5.76h3.72l2.232 3.6h.096l2.232-3.6h3.72l-3.96 5.76 4.2 6h-3.72l-2.472-3.8401h-.096z"/><path clip-rule="evenodd" d="m168.148 27.12c0 3.36 2.76 6.12 6.24 6.12s6.24-2.76 6.24-6.12-2.76-6.12-6.24-6.12-6.24 2.76-6.24 6.12zm6.24 3.12c-1.68 0-3-1.3201-3-3.12 0-1.8001 1.32-3.12 3-3.12s3 1.3199 3 3.12c0 1.7999-1.32 3.12-3 3.12z" fill-rule="evenodd"/></g></svg>