<svg fill="none" height="48" viewBox="0 0 163 48" width="163" xmlns="http://www.w3.org/2000/svg"><g fill="#212121"><path d="m74.7999 23h3v-4.6h2.9c2.98 0 5-1.98 5-4.7s-2.02-4.7-5-4.7h-5.9zm3-7.4v-3.8h2.8c1.2 0 2 .78 2 1.9s-.8 1.9-2 1.9z"/><path d="m87.1031 23h2.7v-5.2c0-1.3.9-2.2 2.1-2.2 1.12 0 1.8.7 1.8 1.9v5.5h2.7v-5.9c0-2.5-1.6-4.1-3.6-4.1-.96 0-1.68.4-2.16.8-.28.24-.52.5-.74.8h-.1v-5.6h-2.7z"/><path d="m103.995 23h2.7v-6.1c0-2.18-1.7-3.9-4.2-3.9-1.3 0-2.28.48-2.9798.96-.4.28-.74.6-1.02.94l1.5998 1.6c.16-.2.36-.38.58-.54.38-.3.92-.56 1.62-.56 1.02 0 1.6.6 1.7 1.3l-3.1.56c-1.8198.32-2.8998 1.54-2.8998 3.14s1.2 2.8 2.9998 2.8c.94 0 1.68-.32 2.16-.7.28-.2.52-.44.74-.7h.1zm0-4.2c0 1.3-.9 2.2-2.1 2.2-.8 0-1.2-.38-1.2-1 0-.5.4-.86 1.1-1l2.2-.4z"/><path d="m108.796 23h2.7v-4.6c0-1.6 1-2.6 2.3-2.6.3 0 .52.04.68.06l.22.04v-2.9h-.2c-.96 0-1.68.4-2.16.8-.28.24-.52.5-.74.8h-.1v-1.4h-2.7z"/><path d="m115.894 23h2.7v-5.4c0-1.2.78-2 1.9-2 1.02 0 1.6.58 1.6 1.7v5.7h2.7v-5.4c0-1.2.78-2 1.9-2 1.02 0 1.6.58 1.6 1.7v5.7h2.7v-6.1c0-2.4-1.48-3.9-3.4-3.9-1.06 0-1.84.44-2.38.86-.32.24-.6.52-.82.84h-.1c-.18-.32-.4-.6-.66-.84-.46-.42-1.2-.86-2.24-.86-.96 0-1.6.4-2.06.8-.26.24-.46.5-.64.8h-.1v-1.4h-2.7z"/><path d="m138.589 23h2.7v-6.1c0-2.18-1.7-3.9-4.2-3.9-1.3 0-2.28.48-2.98.96-.4.28-.74.6-1.02.94l1.6 1.6c.16-.2.36-.38.58-.54.38-.3.92-.56 1.62-.56 1.02 0 1.6.6 1.7 1.3l-3.1.56c-1.82.32-2.9 1.54-2.9 3.14s1.2 2.8 3 2.8c.94 0 1.68-.32 2.16-.7.28-.2.52-.44.74-.7h.1zm0-4.2c0 1.3-.9 2.2-2.1 2.2-.8 0-1.2-.38-1.2-1 0-.5.4-.86 1.1-1l2.2-.4z"/><path d="m141.99 23h3.1l2.06-3.2h.08l2.06 3.2h3.1l-3.5-5 3.3-4.8h-3.1l-1.86 3h-.08l-1.86-3h-3.1l3.3 4.8z"/><path d="m157.49 20.7c-1.4 0-2.5-1.1-2.5-2.6s1.1-2.6 2.5-2.6 2.5 1.1 2.5 2.6-1.1 2.6-2.5 2.6zm-5.2-2.6c0 2.8 2.3 5.1 5.2 5.1s5.2-2.3 5.2-5.1-2.3-5.1-5.2-5.1-5.2 2.3-5.2 5.1z"/><path d="m74.6799 39h3.52c3.28 0 5.84-2.576 5.84-5.6s-2.56-5.6-5.84-5.6h-3.52zm1.2-1.12v-8.96h2.32c2.64 0 4.64 2 4.64 4.48s-2 4.48-4.64 4.48z"/><path d="m85.7199 28.76c0 .4.32.72.72.72s.72-.32.72-.72-.32-.72-.72-.72-.72.32-.72.72zm.16 10.24h1.12v-7.68h-1.12z"/><path d="m93.8074 39h1.12v-4.88c0-1.68-1.28-2.96-3.04-2.96-.944 0-1.632.352-2.128.72-.288.208-.544.448-.752.72l.72.72c.176-.208.368-.384.576-.56.368-.272.896-.56 1.584-.56 1.136 0 1.92.784 1.92 1.92l-2.96.48c-1.456.24-2.24 1.04-2.24 2.32 0 1.12 1.12 2.24 2.72 2.24.832 0 1.44-.288 1.872-.592.24-.176.448-.384.608-.608zm0-3.44c0 1.536-1.024 2.56-2.48 2.56-1.04 0-1.6-.56-1.6-1.2 0-.72.48-1.184 1.44-1.36l2.64-.48z"/><path d="m96.8399 40.76c.208.304.48.56.784.8.528.4 1.328.8 2.4161.8 2.08 0 3.76-1.68 3.76-3.84v-7.2h-1.12v1.04c-.144-.208-.352-.416-.592-.592-.432-.304-1.056-.608-1.968-.608-2.0001 0-3.6001 1.68-3.6001 3.84s1.6 3.84 3.6001 3.84c.912 0 1.536-.288 1.968-.592.24-.176.448-.384.592-.608v.88c0 1.6-1.184 2.8-2.64 2.8-.8161 0-1.4081-.32-1.8401-.64-.24-.192-.464-.4-.64-.64zm3.2801-2.96c-1.3441 0-2.4801-1.2-2.4801-2.8s1.136-2.8 2.4801-2.8c1.44 0 2.56 1.2 2.56 2.8s-1.12 2.8-2.56 2.8z"/><path d="m105.961 39h1.12v-4.24c0-1.536 1.04-2.56 2.4-2.56 1.216 0 2.08.88 2.08 2.24v4.56h1.12v-4.56c0-2-1.28-3.28-3.12-3.28-.848 0-1.44.32-1.872.64-.24.192-.448.4-.608.64v-1.12h-1.12z"/><path d="m118.202 39.16c2.16 0 3.92-1.76 3.92-4s-1.76-4-3.92-4-3.92 1.76-3.92 4 1.76 4 3.92 4zm0-1.04c-1.52 0-2.8-1.296-2.8-2.96 0-1.68 1.28-2.96 2.8-2.96s2.8 1.28 2.8 2.96-1.28 2.96-2.8 2.96z"/><path d="m123.004 37.8c.176.272.4.496.672.688.464.336 1.168.672 2.128.672 1.744 0 2.8-1.04 2.8-2.32 0-2.72-4.16-1.84-4.16-3.52 0-.56.56-1.12 1.44-1.12.56 0 .96.208 1.264.4.16.112.304.256.416.4l.8-.8c-.176-.192-.4-.368-.64-.512-.432-.256-1.024-.528-1.84-.528-1.536 0-2.56 1.056-2.56 2.16 0 2.64 4.16 1.76 4.16 3.52 0 .72-.544 1.28-1.68 1.28-.64 0-1.152-.256-1.488-.56-.192-.16-.368-.352-.512-.56z"/><path d="m130.839 36.92c0 1.456.784 2.24 2.112 2.24.304 0 .576-.048.768-.112.112-.048.224-.08.32-.128v-1.04c-.08.048-.192.08-.304.128-.192.064-.464.112-.736.112-.64 0-1.04-.384-1.04-1.2v-4.56h1.68v-1.04h-1.68v-2.56h-1.04v1.76c0 .528-.208.8-.64.8h-.88v1.04h1.44z"/><path d="m135.404 28.76c0 .4.32.72.72.72s.72-.32.72-.72-.32-.72-.72-.72-.72.32-.72.72zm.16 10.24h1.12v-7.68h-1.12z"/><path d="m144.532 36.84c-.176.24-.384.448-.624.64-.432.32-1.024.64-1.776.64-1.44 0-2.72-1.28-2.72-2.96s1.28-2.96 2.72-2.96c.752 0 1.344.32 1.728.64.224.192.416.4.592.64l.8-.8c-.24-.272-.512-.528-.816-.752-.528-.384-1.296-.768-2.304-.768-2.096 0-3.84 1.76-3.84 4s1.744 4 3.84 4c1.008 0 1.792-.4 2.352-.8.32-.24.608-.496.848-.8z"/><path d="m145.966 37.8c.176.272.4.496.672.688.464.336 1.168.672 2.128.672 1.744 0 2.8-1.04 2.8-2.32 0-2.72-4.16-1.84-4.16-3.52 0-.56.56-1.12 1.44-1.12.56 0 .96.208 1.264.4.16.112.304.256.416.4l.8-.8c-.176-.192-.4-.368-.64-.512-.432-.256-1.024-.528-1.84-.528-1.536 0-2.56 1.056-2.56 2.16 0 2.64 4.16 1.76 4.16 3.52 0 .72-.544 1.28-1.68 1.28-.64 0-1.152-.256-1.488-.56-.192-.16-.368-.352-.512-.56z"/></g><path d="m60 0h1v48h-1z" fill="#e0e0e0"/><circle cx="24" cy="24" fill="#1565c0" r="24"/><path d="m16.5517 27.0894c.3353.578.956.9379 1.6195.9379 1.0347 0 1.8762-.8419 1.8762-1.8767 0-.3312-.0856-.6549-.2485-.9362-.6059-1.048-.9259-2.2401-.9259-3.4483 0-3.8055 3.0956-6.9018 6.9017-6.9018 1.0339 0 1.875-.8415 1.875-1.8761 0-1.0342-.8388-1.8758-1.8692-1.8758-5.8769 0-10.6579 4.7794-10.6579 10.6537 0 1.8654.4941 3.7062 1.4291 5.3233z" fill="#fff"/><path d="m20.1214 21.7661c0-1.6393.6977-3.1153 1.8123-4.1477-.0963 1.1668.471 2.3392 1.5527 2.9636.4835.2797 1.0209.4212 1.5594.4212.961-.0006 1.9336.2395 2.8246.754 1.4202.8201 2.3496 2.1623 2.6866 3.644-.9629-.6668-2.2624-.7621-3.3432-.1378-.4845.2793-.8748.6734-1.1445 1.1393-.48.834-1.1743 1.5558-2.0658 2.0702-1.4199.8191-3.0468.9531-4.498.5048 1.0578-.5012 1.7898-1.5783 1.7898-2.8271 0-.5582-.1458-1.0946-.4147-1.5606-.4812-.8325-.7592-1.7954-.7592-2.8239z" fill="#fff"/><path d="m32.6497 32.919c-.3282 0-.6536-.0871-.9412-.2535-.896-.5174-1.2047-1.6662-.6869-2.5617 1.9016-3.296.7688-7.5251-2.5266-9.4281-1.0443-.6028-2.2349-.9215-3.4434-.9215-.3308 0-.6539-.0876-.9419-.2535-.8953-.5176-1.2026-1.6673-.6858-2.5631.3311-.574.9528-.9317 1.6219-.9332 1.8704 0 3.7097.4925 5.3242 1.4244 2.463 1.4223 4.2256 3.7202 4.9622 6.471.7364 2.7499.3582 5.6216-1.0647 8.0858-.332.5758-.9529.9334-1.6178.9334z" fill="#fff"/><path d="m11.9477 28.8985c1.897 3.2878 5.4384 5.3307 9.2413 5.3307 1.8586 0 3.696-.4939 5.3142-1.428 1.6157-.933 2.9621-2.2812 3.8942-3.8984.3337-.5788.3354-1.2963.0033-1.8714-.4976-.8617-1.6944-1.1893-2.5623-.6865-.2868.165-.5241.4008-.6873.6821-.6047 1.0495-1.4768 1.9234-2.5238 2.5272-1.0487.6053-2.2403.9255-3.4442.9255-2.4609 0-4.7536-1.3226-5.9837-3.4518-.4959-.8611-1.6921-1.1873-2.5619-.6851-.8955.5165-1.2055 1.6633-.6898 2.5557z" fill="#fff"/></svg>