<?xml version="1.0" encoding="UTF-8"?>
<svg width="77px" height="16px" viewBox="0 0 77 16" version="1.1" xmlns="http://www.w3.org/2000/svg" xmlns:xlink="http://www.w3.org/1999/xlink">
    <!-- Generator: Sketch 42 (36781) - http://www.bohemiancoding.com/sketch -->
    <title>pharmaxo-logo</title>
    <desc>Created with Sketch.</desc>
    <defs></defs>
    <g id="Brands" stroke="none" stroke-width="1" fill="none" fill-rule="evenodd">
        <g id="Pharmaxo-logo" transform="translate(-26.000000, -8.000000)">
            <g id="pharmaxo-logo" transform="translate(26.000000, 8.000000)">
                <path d="M3.7781,4.8101 C2.5696,4.8101 1.5864,5.7933 1.5864,7.0018 L1.5864,8.6984 C1.5864,9.9069 2.5696,10.8901 3.7781,10.8901 L3.9706,10.8901 C5.1791,10.8901 6.1624,9.9069 6.1624,8.6984 L6.1624,7.0018 C6.1624,5.7933 5.1791,4.8101 3.9706,4.8101 L3.7781,4.8101 Z M1.5864,16 L0,16 L0,7.0018 C0,4.9186 1.6948,3.2237 3.7781,3.2237 L3.9706,3.2237 C6.0539,3.2237 7.7487,4.9187 7.7487,7.0018 L7.7487,8.6984 C7.7487,10.7817 6.0539,12.4766 3.9706,12.4766 L3.7781,12.4766 C2.9848,12.4766 2.2186,12.2286 1.5864,11.7724 L1.5864,16 L1.5864,16 Z" id="Fill-1" fill="#00A3E0"></path>
                <path d="M23.5404,12.4454 L22.0375,12.4454 L22.0375,6.9963 C22.0375,5.7638 21.0348,4.761 19.8023,4.761 L19.6093,4.761 C18.3768,4.761 17.374,5.7638 17.374,6.9963 L17.374,8.6939 C17.374,9.9264 18.3768,10.9291 19.6093,10.9291 L19.8023,10.9291 C20.3984,10.9291 20.9664,10.699 21.4016,10.2811 L21.8376,9.8477 L21.8376,10.2361 C21.8376,10.4597 21.8359,10.8421 21.8344,11.1736 C21.8333,11.4265 21.8322,11.6498 21.8322,11.7496 L21.8322,11.8399 L21.7553,11.8872 C21.1761,12.2436 20.5007,12.4321 19.8023,12.4321 L19.6093,12.4321 C17.5481,12.4321 15.8712,10.7551 15.8712,8.6939 L15.8712,6.9963 C15.8712,4.9351 17.5481,3.2582 19.6093,3.2582 L19.8023,3.2582 C21.8635,3.2582 23.5404,4.9351 23.5404,6.9963 L23.5404,12.4454" id="Fill-2" fill="#00A3E0"></path>
                <path d="M15.5607,12.4516 L14.0022,12.4516 L14.0022,7.0142 C14.0022,5.8175 13.0287,4.8438 11.8319,4.8438 C10.6352,4.8438 9.6616,5.8175 9.6616,7.0142 L9.6616,12.4461 L8.0825,12.4461 L8.0825,0.0853 L9.6616,0.0853 L9.6616,3.9601 C10.2882,3.5096 11.0468,3.2647 11.8319,3.2647 C13.888,3.2647 15.5607,4.9467 15.5607,7.0142 L15.5607,12.4516" id="Fill-3" fill="#00A3E0"></path>
                <path d="M61.3914,12.4315 L61.1983,12.4315 C59.1442,12.4315 57.4673,10.7601 57.4602,8.7058 L57.4602,6.9958 C57.4602,4.9346 59.1372,3.2578 61.1983,3.2578 L61.3914,3.2578 C63.4525,3.2578 65.1294,4.9346 65.1294,6.9958 L65.1294,8.6935 C65.1233,10.7548 63.4464,12.4315 61.3914,12.4315 Z M61.1983,4.7605 C59.9658,4.7605 58.9631,5.7633 58.9631,6.9958 L58.9631,8.6935 C58.9631,9.9259 59.9658,10.9286 61.1983,10.9286 L61.3914,10.9286 C62.6239,10.9286 63.6266,9.9259 63.6266,8.6935 L63.6266,6.9958 C63.6266,5.7633 62.6239,4.7605 61.3914,4.7605 L61.1983,4.7605 L61.1983,4.7605 Z" id="Fill-4" fill="#00A3E0"></path>
                <path d="M68.6284,9.5828 C68.2419,8.9142 68.0187,8.1382 68.0187,7.3105 C68.0187,4.7992 70.0571,2.7622 72.5683,2.7622 C72.9956,2.7622 73.3387,3.1085 73.3387,3.5357 C73.3387,3.9629 72.9928,4.3094 72.5657,4.3094 C70.9083,4.3094 69.5646,5.653 69.5646,7.3104 C69.5646,7.857 69.7123,8.3687 69.9675,8.8101 C70.0331,8.9236 70.0696,9.0554 70.0696,9.196 C70.0696,9.6232 69.7233,9.9695 69.296,9.9695 C69.0101,9.9695 68.7623,9.8134 68.6284,9.5828 Z M70.9141,5.5268 C70.4348,5.9707 70.1348,6.6056 70.1348,7.3104 C70.1348,7.7529 70.2542,8.1667 70.4613,8.5247 C70.577,8.7253 70.6398,8.9556 70.6398,9.196 C70.6398,9.733 70.325,10.1962 69.8698,10.4115 C70.494,10.6044 71.1937,10.5468 71.8042,10.1945 C72.1874,9.9732 72.4861,9.6628 72.6926,9.3044 C72.8083,9.1041 72.9765,8.9345 73.1846,8.8144 C73.6496,8.5458 74.2083,8.5869 74.6222,8.8736 C74.4773,8.2365 74.0776,7.6592 73.4671,7.3068 C73.0839,7.0855 72.6658,6.982 72.2521,6.9823 C72.0208,6.9823 71.7898,6.9214 71.5817,6.8013 C71.1167,6.5329 70.8729,6.0285 70.9141,5.5268 Z M74.5252,10.3628 C74.1395,11.0318 73.5791,11.6132 72.8623,12.0271 C70.6875,13.2826 67.9042,12.5359 66.6485,10.3611 C66.4349,9.9912 66.5632,9.5206 66.9332,9.3072 C67.3031,9.0935 67.7761,9.2199 67.9897,9.5898 C68.8184,11.0251 70.6539,11.5169 72.0892,10.6882 C72.5626,10.415 72.9319,10.0312 73.1865,9.5894 C73.2521,9.4759 73.348,9.3785 73.4697,9.3081 C73.8397,9.0947 74.3127,9.2214 74.5263,9.5914 C74.6693,9.839 74.6582,10.1316 74.5252,10.3628 Z M72.2524,4.866 C73.0246,4.8656 73.8083,5.0603 74.5251,5.4742 C76.7,6.7298 77.4449,9.5136 76.1892,11.6884 C75.9756,12.0583 75.5042,12.1824 75.1342,11.9689 C74.7643,11.7552 74.6372,11.2824 74.8507,10.9124 C75.6794,9.4771 75.1876,7.6418 73.7522,6.8129 C73.2789,6.5396 72.762,6.4117 72.252,6.4121 C72.1208,6.4121 71.9885,6.3777 71.8668,6.3075 C71.4968,6.0938 71.3701,5.6208 71.5837,5.2509 C71.7267,5.0033 71.9857,4.8665 72.2524,4.866 L72.2524,4.866 Z" id="Fill-6" fill="#97999B"></path>
                <path d="M25.3735,12.4315 L23.8707,12.4315 L23.8707,3.2547 L25.3735,3.2547 L25.3735,4.0033 C26.0175,3.5209 26.7989,3.2583 27.6084,3.2578 L27.6849,3.2587 C27.9916,3.2658 28.2948,3.3102 28.5877,3.3908 L28.7064,3.4235 L28.7064,5.0382 L28.481,4.9413 C28.2049,4.8225 27.9111,4.7617 27.6079,4.7606 C26.3761,4.7606 25.3735,5.7633 25.3735,6.9958 L25.3735,12.4315" id="Fill-8" fill="#00A3E0"></path>
                <path d="M42.4548,12.4315 L40.9519,12.4315 L40.9519,6.9958 C40.9519,5.7676 39.9534,4.7649 38.7259,4.7606 C37.4941,4.7606 36.4916,5.7633 36.4916,6.9958 L36.4916,12.4315 L34.9888,12.4315 L34.9888,6.9958 C34.9888,5.7676 33.9903,4.7649 32.763,4.7606 C31.5312,4.7606 30.5286,5.7633 30.5286,6.9958 L30.5286,12.4315 L29.0258,12.4315 L29.0258,3.2547 L30.5286,3.2547 L30.5286,4.0033 C31.1726,3.5209 31.954,3.2583 32.7635,3.2578 L32.8399,3.2587 C33.986,3.2854 35.0533,3.839 35.7406,4.7516 C36.4474,3.8128 37.547,3.2585 38.7264,3.2578 L38.8029,3.2587 C40.8172,3.3055 42.4548,4.9819 42.4548,6.9958 L42.4548,12.4315" id="Fill-9" fill="#00A3E0"></path>
                <path d="M50.4856,12.4454 L48.9828,12.4454 L48.9828,6.9963 C48.9828,5.7638 47.9801,4.761 46.7476,4.761 L46.5544,4.761 C45.3219,4.761 44.3193,5.7638 44.3193,6.9963 L44.3193,8.6939 C44.3193,9.9264 45.3219,10.9291 46.5544,10.9291 L46.7476,10.9291 C47.3437,10.9291 47.9117,10.699 48.3468,10.2811 L48.7829,9.8477 L48.7829,10.2361 C48.7829,10.4597 48.7811,10.8421 48.7796,11.1735 C48.7785,11.4265 48.7775,11.6498 48.7775,11.7496 L48.7775,11.8399 L48.7005,11.8872 C48.1212,12.2436 47.4459,12.4321 46.7476,12.4321 L46.5544,12.4321 C44.4933,12.4321 42.8164,10.7551 42.8164,8.6939 L42.8164,6.9963 C42.8164,4.9351 44.4933,3.2582 46.5544,3.2582 L46.7476,3.2582 C48.8087,3.2582 50.4856,4.9351 50.4856,6.9963 L50.4856,12.4454" id="Fill-10" fill="#00A3E0"></path>
                <path d="M51.1453,12.4323 L50.8179,12.4323 L50.8179,10.928 L51.145,10.928 C52.3738,10.9248 53.3738,9.9225 53.3738,8.6939 L53.3738,6.9963 C53.3738,5.7675 52.3738,4.7651 51.1446,4.7619 L50.8179,4.7619 L50.8179,3.2578 L51.145,3.2578 C53.2027,3.261 54.8766,4.9381 54.8766,6.9963 L54.8766,8.6939 C54.8766,10.7513 53.2027,12.4284 51.1453,12.4323" id="Fill-11" fill="#00A3E0"></path>
                <path d="M57.4359,12.4323 L57.1089,12.4323 C55.0541,12.4257 53.3826,10.7487 53.3826,8.6939 L53.3826,6.9963 C53.3826,4.9398 55.0557,3.2627 57.1123,3.2578 L57.4397,3.2578 L57.4397,4.7619 L57.1126,4.7619 C55.8848,4.7659 54.8855,5.7683 54.8855,6.9963 L54.8855,8.6939 C54.8855,9.9198 55.8833,10.922 57.1097,10.928 L57.4359,10.928 L57.4359,12.4323" id="Fill-12" fill="#00A3E0"></path>
            </g>
        </g>
    </g>
</svg>