<svg fill="none" height="48" viewBox="0 0 163 48" width="163" xmlns="http://www.w3.org/2000/svg"><g fill="#fff"><path clip-rule="evenodd" d="m24 48c13.2548 0 24-10.7452 24-24s-10.7452-24-24-24-24 10.7452-24 24 10.7452 24 24 24zm-5.8288-19.9727c-.6635 0-1.2842-.3599-1.6195-.9379-.935-1.6171-1.4291-3.4579-1.4291-5.3233 0-5.8743 4.781-10.6537 10.6579-10.6537 1.0304 0 1.8692.8416 1.8692 1.8758 0 1.0346-.8411 1.8761-1.875 1.8761-3.8061 0-6.9017 3.0963-6.9017 6.9018 0 1.2082.32 2.4003.9259 3.4483.1629.2813.2485.605.2485.9362 0 1.0348-.8415 1.8767-1.8762 1.8767zm3.7625-10.4089c-1.1146 1.0324-1.8123 2.5084-1.8123 4.1477 0 1.0285.278 1.9914.7592 2.8239.2689.466.4147 1.0024.4147 1.5606 0 1.2488-.732 2.3259-1.7898 2.8271 1.4512.4483 3.0781.3143 4.498-.5048.8915-.5144 1.5858-1.2362 2.0658-2.0702.2697-.4659.66-.86 1.1445-1.1393 1.0808-.6243 2.3803-.529 3.3432.1378-.337-1.4817-1.2664-2.8239-2.6866-3.644-.891-.5145-1.8636-.7546-2.8246-.754-.5385 0-1.0759-.1415-1.5594-.4212-1.0817-.6244-1.649-1.7968-1.5527-2.9636zm10.716 15.3006c-.3282 0-.6536-.0871-.9412-.2535-.896-.5174-1.2047-1.6662-.6869-2.5617 1.9016-3.296.7688-7.5251-2.5266-9.4281-1.0443-.6028-2.2349-.9215-3.4434-.9215-.3308 0-.6539-.0876-.9419-.2535-.8953-.5176-1.2026-1.6673-.6858-2.5631.3311-.574.9528-.9317 1.6219-.9332 1.8704 0 3.7097.4925 5.3242 1.4244 2.463 1.4223 4.2256 3.7202 4.9622 6.471.7364 2.7499.3582 5.6216-1.0647 8.0858-.332.5758-.9529.9334-1.6178.9334zm-11.4607 1.3102c-3.8029 0-7.3443-2.0429-9.2413-5.3307-.5157-.8924-.2057-2.0392.6898-2.5557.8698-.5022 2.066-.176 2.5619.6851 1.2301 2.1292 3.5228 3.4518 5.9837 3.4518 1.2039 0 2.3955-.3202 3.4442-.9255 1.047-.6038 1.9191-1.4777 2.5238-2.5272.1632-.2813.4005-.5171.6873-.6821.8679-.5028 2.0647-.1752 2.5623.6865.3321.5751.3304 1.2926-.0033 1.8714-.9321 1.6172-2.2785 2.9654-3.8942 3.8984-1.6182.9341-3.4556 1.428-5.3142 1.428z" fill-rule="evenodd"/><path d="m61 0h-1v48h1z"/><path clip-rule="evenodd" d="m74.7998 16v-14h5.96c.9467 0 1.7933.20667 2.54.62.76.41333 1.3467.98 1.76 1.7.4267.70667.64 1.5.64 2.38s-.2133 1.68-.64 2.4c-.4133.70667-1 1.2667-1.76 1.68-.7467.4133-1.5933.62-2.54.62h-2.96v4.6zm5.86-7.3c.5733 0 1.0533-.19333 1.44-.58.4-.4.6-.87333.6-1.42s-.2-1.01333-.6-1.4c-.3867-.4-.8667-.6-1.44-.6h-2.86v4z" fill-rule="evenodd"/><path d="m87.2006 16v-14h2.7v5.68h.06c.24-.4.6133-.76 1.12-1.08.52-.33333 1.1133-.5 1.78-.5.7066 0 1.3333.16667 1.88.5.5466.33333.9733.81333 1.28 1.44.32.61333.48 1.34667.48 2.2v5.76h-2.7v-5.4c0-.6-.1667-1.07333-.5-1.42-.3334-.36-.7667-.54-1.3-.54-.6133 0-1.12.21333-1.52.64-.3867.41333-.58.9533-.58 1.62v5.1z"/><path clip-rule="evenodd" d="m104.595 6.62c-.64-.34667-1.373-.52-2.2-.52-.853 0-1.62.18667-2.3.56-.6666.36-1.2132.79333-1.6399 1.3l1.54 1.48c.6799-.76 1.4329-1.14 2.2599-1.14.48 0 .873.14 1.18.42.32.26667.493.59333.52.98l-3.06.58c-.9599.1867-1.6999.5467-2.2199 1.08s-.78 1.2133-.78 2.04c0 .4933.14.96.42 1.4.28.4267.66.7667 1.14 1.02.4933.2533 1.0469.38 1.6599.38.667 0 1.26-.16 1.78-.48s.9-.6733 1.14-1.06h.06v1.34h2.56v-6.1c0-.69333-.18-1.32667-.54-1.9-.36-.58667-.867-1.04667-1.52-1.38zm-1.24 6.8c-.387.4133-.873.62-1.46.62-.387 0-.693-.0933-.92-.28-.213-.2-.32-.4533-.32-.76 0-.2533.107-.48.32-.68.213-.2133.507-.3533.88-.42l2.1-.42v.32c0 .6667-.2 1.2067-.6 1.62z" fill-rule="evenodd"/><path d="m108.659 16v-9.7h2.7v1.2h.06c.24-.36.6-.68 1.08-.96.494-.29333 1.047-.44 1.66-.44h.46v2.9c-.32-.10667-.62-.16-.9-.16-.693 0-1.26.24-1.7.72-.44.4667-.66 1.0933-.66 1.88v4.56z"/><path d="m115.815 6.3v9.7h2.7v-5.2c0-.6667.174-1.19333.52-1.58.347-.38667.794-.58 1.34-.58.467 0 .847.16667 1.14.5.307.32.46.77333.46 1.36v5.5h2.7v-5.2c0-.6667.174-1.19333.52-1.58.347-.38667.787-.58 1.32-.58.467 0 .847.16667 1.14.5.307.32.46.77333.46 1.36v5.5h2.7v-5.76c0-.84-.153-1.57333-.46-2.2-.306-.62667-.72-1.10667-1.24-1.44-.506-.33333-1.073-.5-1.7-.5-.773 0-1.46.17333-2.06.52-.586.33333-.993.70667-1.22 1.12h-.08c-.2-.41333-.546-.78667-1.04-1.12-.493-.34667-1.073-.52-1.74-.52-.653 0-1.22.16667-1.7.5-.48.32-.813.68-1 1.08h-.06v-1.38z"/><path clip-rule="evenodd" d="m136.715 6.1c.827 0 1.56.17333 2.2.52.654.33333 1.16.79333 1.52 1.38.36.57333.54 1.20667.54 1.9v6.1h-2.56v-1.34h-.06c-.24.3867-.62.74-1.14 1.06s-1.113.48-1.78.48c-.613 0-1.166-.1267-1.66-.38-.48-.2533-.86-.5933-1.14-1.02-.28-.44-.42-.9067-.42-1.4 0-.8267.26-1.5067.78-2.04s1.26-.8933 2.22-1.08l3.06-.58c-.026-.38667-.2-.71333-.52-.98-.306-.28-.7-.42-1.18-.42-.826 0-1.58.38-2.26 1.14l-1.54-1.48c.427-.50667.974-.94 1.64-1.3.68-.37333 1.447-.56 2.3-.56zm-.5 7.94c.587 0 1.074-.2067 1.46-.62.4-.4133.6-.9533.6-1.62v-.32l-2.1.42c-.373.0667-.666.2067-.88.42-.213.2-.32.4267-.32.68 0 .3067.107.56.32.76.227.1867.534.28.92.28z" fill-rule="evenodd"/><path d="m141.784 16h3.02l2.02-3.28h.06l2.02 3.28h3.12l-3.32-5 3.08-4.7h-3.02l-1.78 2.96h-.06l-1.76-2.96h-3.12l3.08 4.7z"/><path clip-rule="evenodd" d="m157.333 16.2c-.96 0-1.84-.2267-2.64-.68-.786-.4533-1.413-1.0667-1.88-1.84-.453-.7733-.68-1.62-.68-2.54s.227-1.76667.68-2.54c.467-.77333 1.094-1.38 1.88-1.82.8-.45333 1.68-.68 2.64-.68.974 0 1.854.22667 2.64.68.8.44 1.427 1.04667 1.88 1.82.454.77333.68 1.62.68 2.54s-.226 1.7667-.68 2.54c-.453.7733-1.08 1.3867-1.88 1.84-.786.4533-1.666.68-2.64.68zm0-2.5c.68 0 1.26-.2467 1.74-.74s.72-1.1.72-1.82-.24-1.32-.72-1.8c-.48-.49333-1.06-.74-1.74-.74s-1.26.24667-1.74.74c-.466.48-.7 1.08-.7 1.8s.234 1.3267.7 1.82c.48.4933 1.06.74 1.74.74z" fill-rule="evenodd"/><path clip-rule="evenodd" d="m74.6958 20.8v11.2h3.472c1.088 0 2.0747-.2507 2.96-.752.896-.5013 1.6-1.1787 2.112-2.032.512-.864.768-1.8027.768-2.816s-.256-1.9467-.768-2.8c-.512-.864-1.216-1.5467-2.112-2.048-.8853-.5013-1.872-.752-2.96-.752zm5.856 9.472c-.704.3947-1.4987.592-2.384.592h-2.272v-8.928h2.272c.8853 0 1.68.1973 2.384.592.704.384 1.2533.9173 1.648 1.6.4053.6827.608 1.44.608 2.272s-.2027 1.5893-.608 2.272c-.3947.672-.944 1.2053-1.648 1.6z" fill-rule="evenodd"/><path d="m85.8813 32v-7.68h1.088v7.68z"/><path d="m86.4253 22.64c-.192 0-.3627-.0693-.512-.208-.1387-.1387-.208-.3093-.208-.512s.0693-.3733.208-.512c.1493-.1387.32-.208.512-.208.2027 0 .3733.0693.512.208.1493.1387.224.3093.224.512s-.0747.3733-.224.512c-.1387.1387-.3093.208-.512.208z"/><path clip-rule="evenodd" d="m93.4869 24.544c-.448-.256-.9653-.384-1.552-.384-.608 0-1.1573.1387-1.648.416-.4906.2667-.896.5973-1.216.992l.72.688c.3094-.32.6294-.576.96-.768.3414-.2027.736-.304 1.184-.304.576 0 1.04.176 1.392.528.3627.352.544.816.544 1.392v.016l-2.784.464c-.7786.128-1.3813.4053-1.808.832-.4266.416-.64.9333-.64 1.552 0 .384.1067.7467.32 1.088.224.3307.528.5973.912.8.3947.2027.8427.304 1.344.304.6187 0 1.168-.144 1.648-.432s.8214-.608 1.024-.96h.016v1.232h1.04v-4.832c0-.5867-.128-1.104-.384-1.552-.256-.4587-.6133-.816-1.072-1.072zm-.88 6.288c-.384.224-.8106.336-1.28.336-.48 0-.8693-.1227-1.168-.368-.288-.2453-.432-.544-.432-.896 0-.3627.1334-.6667.4-.912.2667-.2453.672-.416 1.216-.512l2.528-.416v.544c0 .48-.112.9173-.336 1.312-.224.384-.5333.688-.928.912z" fill-rule="evenodd"/><path clip-rule="evenodd" d="m100.058 35.36c-.6937 0-1.3443-.1707-1.9523-.512-.608-.3307-1.0454-.6933-1.312-1.088l.784-.72c.2026.3093.5333.5973.992.864.4693.2667.9653.4 1.4883.4.768 0 1.392-.2667 1.872-.8s.72-1.216.72-2.048v-1.072h-.016c-.267.448-.646.8053-1.136 1.072-.491.256-1.008.384-1.5523.384-.6294 0-1.2107-.1653-1.744-.496-.5334-.3307-.96-.7893-1.28-1.376-.3094-.5867-.464-1.2427-.464-1.968s.1546-1.3813.464-1.968c.32-.5867.7466-1.0453 1.28-1.376.5333-.3307 1.1146-.496 1.744-.496.6083 0 1.1523.1493 1.6323.448s.832.6293 1.056.992h.016v-1.28h1.088v7.136c0 .736-.16 1.3973-.48 1.984-.32.5973-.763 1.0667-1.328 1.408-.555.3413-1.179.512-1.872.512zm.016-4.576c.48 0 .912-.1173 1.296-.352.394-.2453.704-.576.928-.992.234-.4267.352-.9067.352-1.44s-.118-1.0133-.352-1.44c-.224-.4267-.534-.7573-.928-.992-.384-.2347-.816-.352-1.296-.352-.459 0-.8857.1173-1.2803.352-.384.2347-.688.5653-.912.992s-.336.9067-.336 1.44.112 1.0133.336 1.44c.224.416.528.7467.912.992.3946.2347.8213.352 1.2803.352z" fill-rule="evenodd"/><path d="m105.867 24.32v7.68h1.088v-4.256c0-.48.107-.912.32-1.296s.501-.6827.864-.896c.363-.224.768-.336 1.216-.336.619 0 1.125.208 1.52.624.405.416.608.96.608 1.632v4.528h1.088v-4.528c0-.6507-.133-1.2267-.4-1.728s-.635-.8907-1.104-1.168-.997-.416-1.584-.416c-.565 0-1.077.144-1.536.432-.448.2773-.773.5973-.976.96h-.016v-1.232z"/><path clip-rule="evenodd" d="m117.999 32.16c-.704 0-1.354-.176-1.952-.528-.597-.3627-1.072-.848-1.424-1.456s-.528-1.28-.528-2.016.176-1.408.528-2.016.827-1.088 1.424-1.44c.598-.3627 1.248-.544 1.952-.544s1.355.1813 1.952.544c.598.352 1.072.832 1.424 1.44s.528 1.28.528 2.016-.176 1.408-.528 2.016-.826 1.0933-1.424 1.456c-.597.352-1.248.528-1.952.528zm0-1.056c.512 0 .982-.128 1.408-.384.438-.256.779-.608 1.024-1.056.256-.4587.384-.96.384-1.504s-.128-1.04-.384-1.488c-.245-.4587-.586-.816-1.024-1.072-.426-.256-.896-.384-1.408-.384s-.986.128-1.424.384c-.426.256-.768.6133-1.024 1.072-.245.448-.368.944-.368 1.488s.123 1.0453.368 1.504c.256.448.598.8 1.024 1.056.438.256.912.384 1.424.384z" fill-rule="evenodd"/><path d="m124.064 31.744c.512.2773 1.072.416 1.68.416.566 0 1.062-.1067 1.488-.32.427-.2133.752-.496.976-.848.235-.3627.352-.7573.352-1.184 0-.4693-.122-.848-.368-1.136-.234-.288-.522-.5067-.864-.656-.33-.16-.762-.32-1.296-.48-.586-.1707-1.024-.336-1.312-.496-.277-.1707-.416-.416-.416-.736 0-.3093.134-.5707.4-.784.278-.224.651-.336 1.12-.336.683 0 1.286.2613 1.808.784l.736-.72c-.288-.2987-.645-.5547-1.072-.768-.426-.2133-.917-.32-1.472-.32-.501 0-.954.1013-1.36.304-.394.2027-.704.4693-.928.8-.213.32-.32.6667-.32 1.04 0 .448.118.816.352 1.104.235.288.518.5067.848.656.342.1493.779.3093 1.312.48.598.1707 1.04.3413 1.328.512s.432.4213.432.752c0 .384-.154.704-.464.96-.298.2453-.72.368-1.264.368-.437 0-.848-.1067-1.232-.32s-.682-.4533-.896-.72l-.736.72c.267.3413.656.6507 1.168.928z"/><path d="m132.951 32.08c-.672 0-1.195-.192-1.568-.576-.363-.3947-.544-.9653-.544-1.712v-4.416h-1.488v-1.056h.976c.192 0 .341-.0587.448-.176.117-.128.176-.3147.176-.56v-1.824h.976v2.56h1.888v1.056h-1.888v4.352c0 .416.101.736.304.96.213.224.501.336.864.336.309 0 .635-.08.976-.24v1.056c-.128.064-.293.1173-.496.16-.203.0533-.411.08-.624.08z"/><path d="m135.598 22.432c.149.1387.32.208.512.208.202 0 .373-.0693.512-.208.149-.1387.224-.3093.224-.512s-.075-.3733-.224-.512c-.139-.1387-.31-.208-.512-.208-.192 0-.363.0693-.512.208-.139.1387-.208.3093-.208.512s.069.3733.208.512z"/><path d="m142.179 32.16c-.693 0-1.338-.176-1.936-.528-.586-.3627-1.056-.848-1.408-1.456-.341-.608-.512-1.28-.512-2.016s.171-1.408.512-2.016c.352-.608.822-1.088 1.408-1.44.598-.3627 1.243-.544 1.936-.544.704 0 1.323.16 1.856.48.544.3093.971.672 1.28 1.088l-.8.656c-.629-.7787-1.408-1.168-2.336-1.168-.501 0-.965.128-1.392.384-.416.256-.752.6133-1.008 1.072-.245.448-.368.944-.368 1.488s.123 1.0453.368 1.504c.256.448.592.8 1.008 1.056.427.256.891.384 1.392.384.523 0 .982-.1173 1.376-.352.395-.2347.726-.5173.992-.848l.8.656c-.309.4267-.741.8-1.296 1.12-.544.32-1.168.48-1.872.48z"/><path d="m147.308 31.744c.512.2773 1.072.416 1.68.416.566 0 1.061-.1067 1.488-.32s.752-.496.976-.848c.235-.3627.352-.7573.352-1.184 0-.4693-.122-.848-.368-1.136-.234-.288-.522-.5067-.864-.656-.33-.16-.762-.32-1.296-.48-.586-.1707-1.024-.336-1.312-.496-.277-.1707-.416-.416-.416-.736 0-.3093.134-.5707.4-.784.278-.224.651-.336 1.12-.336.683 0 1.286.2613 1.808.784l.736-.72c-.288-.2987-.645-.5547-1.072-.768-.426-.2133-.917-.32-1.472-.32-.501 0-.954.1013-1.36.304-.394.2027-.704.4693-.928.8-.213.32-.32.6667-.32 1.04 0 .448.118.816.352 1.104.235.288.518.5067.848.656.342.1493.779.3093 1.312.48.598.1707 1.04.3413 1.328.512s.432.4213.432.752c0 .384-.155.704-.464.96-.298.2453-.72.368-1.264.368-.437 0-.848-.1067-1.232-.32s-.682-.4533-.896-.72l-.736.72c.267.3413.656.6507 1.168.928z"/><path d="m74.0082 44.0001v-3.312h-.744v-.528h.744v-.704c0-.368.0906-.648.272-.84.1866-.1974.448-.296.784-.296.1066 0 .2106.0133.312.04.1013.0213.184.048.248.08v.528c-.176-.08-.3387-.12-.488-.12-.1814 0-.3254.056-.432.168-.1014.112-.152.272-.152.48v.664h.944v.528h-.944v3.312z"/><path clip-rule="evenodd" d="m77.9842 44.0801c-.352 0-.6773-.088-.976-.264-.2986-.1814-.536-.424-.712-.728s-.264-.64-.264-1.008.088-.704.264-1.008.4134-.544.712-.72c.2987-.1814.624-.272.976-.272s.6774.0906.976.272c.2987.176.536.416.712.72s.264.64.264 1.008-.088.704-.264 1.008-.4133.5466-.712.728c-.2986.176-.624.264-.976.264zm0-.528c.256 0 .4907-.064.704-.192.2187-.128.3894-.304.512-.528.128-.2294.192-.48.192-.752s-.064-.52-.192-.744c-.1226-.2294-.2933-.408-.512-.536-.2133-.128-.448-.192-.704-.192s-.4933.064-.712.192c-.2133.128-.384.3066-.512.536-.1226.224-.184.472-.184.744s.0614.5226.184.752c.128.224.2987.4.512.528.2187.128.456.192.712.192z" fill-rule="evenodd"/><path d="m135.566 32h1.088v-7.68h-1.088z"/><path d="m81.4809 40.1601h-.5441v3.84h.5441v-2.08c0-.2454.0533-.4667.1599-.664.112-.1974.2614-.352.4481-.464.1866-.112.392-.168.6159-.168.0747 0 .1494.0053.224.016v-.56h-.176c-.288 0-.5466.0693-.776.208-.224.1386-.3866.296-.488.472h-.0079z"/><path d="m83.7181 40.1601h.544v.592h.008c.08-.1707.2187-.3254.416-.464.2027-.1387.4427-.208.72-.208.2933 0 .5493.08.768.24s.3733.336.464.528h.016c.0853-.192.2427-.368.472-.528.2347-.16.5147-.24.84-.24.2613 0 .4987.0693.712.208.2187.1333.392.3253.52.576.128.2453.192.5306.192.856v2.28h-.544v-2.28c0-.3414-.0907-.6107-.272-.808-.1813-.2027-.4107-.304-.688-.304-.304 0-.5573.1146-.76.344-.1973.224-.296.5253-.296.904v2.144h-.544v-2.28c0-.3414-.0933-.6107-.28-.808-.1813-.2027-.4107-.304-.688-.304-.304 0-.5573.1146-.76.344-.1973.224-.296.5253-.296.904v2.144h-.544z"/><path clip-rule="evenodd" d="m91.3205 43.8161c.2934.176.6134.264.96.264.352 0 .6587-.072.92-.216.2614-.1494.4774-.3307.648-.544l-.376-.344c-.3413.384-.7333.576-1.176.576-.24 0-.4613-.056-.664-.168-.1973-.112-.36-.264-.488-.456s-.2053-.4054-.232-.64h3.12c.0107-.0854.016-.1707.016-.256 0-.3734-.08-.7094-.24-1.008-.16-.2987-.3786-.5307-.656-.696-.272-.1654-.576-.248-.912-.248-.3413 0-.656.088-.944.264s-.5173.416-.688.72c-.1706.304-.256.6426-.256 1.016 0 .368.088.704.264 1.008s.4107.5466.704.728zm1.768-2.888c.224.2186.36.5146.408.888h-2.592c.0267-.224.1014-.4294.224-.616.128-.1867.288-.3334.48-.44.1974-.112.408-.168.632-.168.3414 0 .624.112.848.336z" fill-rule="evenodd"/><path d="m95.0072 40.1601h.544v.6h.008c.1013-.176.264-.3334.488-.472.2293-.1387.488-.208.776-.208h.176v.56c-.0747-.0107-.1494-.016-.224-.016-.224 0-.4294.056-.616.168-.1867.112-.336.2666-.448.464-.1067.1973-.16.4186-.16.664v2.08h-.544z"/><path d="m97.8284 44.0001h.544v-5.6h-.544z"/><path d="m102.287 40.1601h.568l-1.656 4.44c-.138.3733-.306.6453-.504.816-.192.176-.437.264-.7358.264-.1653 0-.3173-.032-.456-.096v-.528c.048.0266.1067.0506.176.072.0747.0213.152.032.232.032.3308 0 .5708-.192.7198-.576l.232-.576-1.6958-3.848h.592l1.3838 3.176h.016z"/><path d="m105.559 44.0001h.6v-4.528h.024l2.224 2.936 2.232-2.936h.016v4.528h.6v-5.6h-.512l-2.32 3.064h-.016l-2.32-3.064h-.528z"/><path d="m113.046 39.3201c-.096 0-.182-.0347-.256-.104-.07-.0694-.104-.1547-.104-.256 0-.1014.034-.1867.104-.256.074-.0694.16-.104.256-.104.101 0 .186.0346.256.104.074.0693.112.1546.112.256 0 .1013-.038.1866-.112.256-.07.0693-.155.104-.256.104z"/><path d="m115.313 43.8161c.298.176.621.264.968.264.352 0 .664-.08.936-.24.277-.16.493-.3467.648-.56l-.4-.328c-.134.1653-.299.3066-.496.424-.198.1173-.427.176-.688.176-.251 0-.483-.064-.696-.192-.208-.128-.376-.304-.504-.528-.123-.2294-.184-.48-.184-.752s.061-.52.184-.744c.128-.2294.296-.408.504-.536.213-.128.445-.192.696-.192.464 0 .853.1946 1.168.584l.4-.328c-.155-.208-.368-.3894-.64-.544-.267-.16-.576-.24-.928-.24-.347 0-.67.0906-.968.272-.294.176-.528.416-.704.72-.171.304-.256.64-.256 1.008s.085.704.256 1.008c.176.304.41.5466.704.728z"/><path d="m118.765 40.1601h.544v.6h.008c.101-.176.264-.3334.488-.472.229-.1387.488-.208.776-.208h.176v.56c-.075-.0107-.149-.016-.224-.016-.224 0-.429.056-.616.168s-.336.2666-.448.464c-.107.1973-.16.4186-.16.664v2.08h-.544z"/><g clip-rule="evenodd" fill-rule="evenodd"><path d="m122.18 43.8161c.299.176.624.264.976.264s.677-.088.976-.264c.299-.1814.536-.424.712-.728s.264-.64.264-1.008-.088-.704-.264-1.008-.413-.544-.712-.72c-.299-.1814-.624-.272-.976-.272s-.677.0906-.976.272c-.299.176-.536.416-.712.72s-.264.64-.264 1.008.088.704.264 1.008.413.5466.712.728zm1.68-.456c-.213.128-.448.192-.704.192s-.493-.064-.712-.192c-.213-.128-.384-.304-.512-.528-.123-.2294-.184-.48-.184-.752s.061-.52.184-.744c.128-.2294.299-.408.512-.536.219-.128.456-.192.712-.192s.491.064.704.192c.219.128.389.3066.512.536.128.224.192.472.192.744s-.064.5226-.192.752c-.123.224-.293.4-.512.528z"/><path d="m127.645 45.6801c-.347 0-.672-.0854-.976-.256-.304-.1654-.523-.3467-.656-.544l.392-.36c.101.1546.266.2986.496.432.234.1333.482.2.744.2.384 0 .696-.1334.936-.4.24-.2667.36-.608.36-1.024v-.536h-.008c-.134.224-.323.4026-.568.536-.246.128-.504.192-.776.192-.315 0-.606-.0827-.872-.248-.267-.1654-.48-.3947-.64-.688-.155-.2934-.232-.6214-.232-.984 0-.3627.077-.6907.232-.984.16-.2934.373-.5227.64-.688.266-.1654.557-.248.872-.248.304 0 .576.0746.816.224.24.1493.416.3146.528.496h.008v-.64h.544v3.568c0 .368-.08.6986-.24.992-.16.2986-.382.5333-.664.704-.278.1706-.59.256-.936.256zm.008-2.288c.24 0 .456-.0587.648-.176.197-.1227.352-.288.464-.496.117-.2134.176-.4534.176-.72 0-.2667-.059-.5067-.176-.72-.112-.2134-.267-.3787-.464-.496-.192-.1174-.408-.176-.648-.176-.23 0-.443.0586-.64.176-.192.1173-.344.2826-.456.496-.112.2133-.168.4533-.168.72 0 .2666.056.5066.168.72.112.208.264.3733.456.496.197.1173.41.176.64.176z"/><path d="m131.453 43.8161c.294.176.614.264.96.264.352 0 .659-.072.92-.216.262-.1494.478-.3307.648-.544l-.376-.344c-.341.384-.733.576-1.176.576-.24 0-.461-.056-.664-.168-.197-.112-.36-.264-.488-.456s-.205-.4054-.232-.64h3.12c.011-.0854.016-.1707.016-.256 0-.3734-.08-.7094-.24-1.008-.16-.2987-.378-.5307-.656-.696-.272-.1654-.576-.248-.912-.248-.341 0-.656.088-.944.264s-.517.416-.688.72c-.17.304-.256.6426-.256 1.016 0 .368.088.704.264 1.008s.411.5466.704.728zm1.768-2.888c.224.2186.36.5146.408.888h-2.592c.027-.224.102-.4294.224-.616.128-.1867.288-.3334.48-.44.198-.112.408-.168.632-.168.342 0 .624.112.848.336z"/></g><path d="m135.14 40.1601h.544v.616h.008c.101-.1814.264-.3414.488-.48.229-.144.485-.216.768-.216.293 0 .557.0693.792.208.235.1386.419.3333.552.584.133.2506.2.5386.2.864v2.264h-.544v-2.264c0-.336-.101-.608-.304-.816-.197-.208-.451-.312-.76-.312-.224 0-.427.056-.608.168-.181.1066-.325.256-.432.448s-.16.408-.16.648v2.128h-.544z"/><path clip-rule="evenodd" d="m140.422 43.8161c.293.176.613.264.96.264.352 0 .659-.072.92-.216.261-.1494.477-.3307.648-.544l-.376-.344c-.341.384-.733.576-1.176.576-.24 0-.461-.056-.664-.168-.197-.112-.36-.264-.488-.456s-.205-.4054-.232-.64h3.12c.011-.0854.016-.1707.016-.256 0-.3734-.08-.7094-.24-1.008-.16-.2987-.379-.5307-.656-.696-.272-.1654-.576-.248-.912-.248-.341 0-.656.088-.944.264s-.517.416-.688.72-.256.6426-.256 1.016c0 .368.088.704.264 1.008s.411.5466.704.728zm1.768-2.888c.224.2186.36.5146.408.888h-2.592c.027-.224.101-.4294.224-.616.128-.1867.288-.3334.48-.44.197-.112.408-.168.632-.168.341 0 .624.112.848.336z" fill-rule="evenodd"/><path d="m145.501 44.0401c-.336 0-.598-.096-.784-.288-.182-.1974-.272-.4827-.272-.856v-2.208h-.744v-.528h.488c.096 0 .17-.0294.224-.088.058-.064.088-.1574.088-.28v-.912h.488v1.28h.944v.528h-.944v2.176c0 .208.05.368.152.48.106.112.25.168.432.168.154 0 .317-.04.488-.12v.528c-.064.032-.147.0586-.248.08-.102.0266-.206.04-.312.04z"/><path d="m147.024 39.2161c.075.0693.16.104.256.104.101 0 .187-.0347.256-.104.075-.0694.112-.1547.112-.256 0-.1014-.037-.1867-.112-.256-.069-.0694-.155-.104-.256-.104-.096 0-.181.0346-.256.104-.069.0693-.104.1546-.104.256 0 .1013.035.1866.104.256z"/><path d="m150.515 44.0801c-.347 0-.669-.088-.968-.264-.293-.1814-.528-.424-.704-.728-.171-.304-.256-.64-.256-1.008s.085-.704.256-1.008c.176-.304.411-.544.704-.72.299-.1814.621-.272.968-.272.352 0 .661.08.928.24.272.1546.485.336.64.544l-.4.328c-.315-.3894-.704-.584-1.168-.584-.251 0-.483.064-.696.192-.208.128-.376.3066-.504.536-.123.224-.184.472-.184.744s.061.5226.184.752c.128.224.296.4.504.528.213.128.445.192.696.192.261 0 .491-.0587.688-.176.197-.1174.363-.2587.496-.424l.4.328c-.155.2133-.371.4-.648.56-.272.16-.584.24-.936.24z"/><path d="m153.279 43.8721c.256.1386.536.208.84.208.283 0 .531-.0534.744-.16.214-.1067.376-.248.488-.424.118-.1814.176-.3787.176-.592 0-.2347-.061-.424-.184-.568-.117-.144-.261-.2534-.432-.328-.165-.08-.381-.16-.648-.24-.293-.0854-.512-.168-.656-.248-.138-.0854-.208-.208-.208-.368 0-.1547.067-.2854.2-.392.139-.112.326-.168.56-.168.342 0 .643.1306.904.392l.368-.36c-.144-.1494-.322-.2774-.536-.384-.213-.1067-.458-.16-.736-.16-.25 0-.477.0506-.68.152-.197.1013-.352.2346-.464.4-.106.16-.16.3333-.16.52 0 .224.059.408.176.552.118.144.259.2533.424.328.171.0746.39.1546.656.24.299.0853.52.1706.664.256.144.0853.216.2106.216.376 0 .192-.077.352-.232.48-.149.1226-.36.184-.632.184-.218 0-.424-.0534-.616-.16-.192-.1067-.341-.2267-.448-.36l-.368.36c.134.1706.328.3253.584.464z"/><path d="m113.318 44.0001h-.544v-3.84h.544z"/><path d="m147.008 44.0001h.544v-3.84h-.544z"/></g></svg>