<svg fill="none" height="43" viewBox="0 0 174 43" width="174" xmlns="http://www.w3.org/2000/svg"><path d="m31.6738 27.9733h3.5254v-12.2997c0-4.6768-3.7837-8.48161-8.4347-8.48161-1.776 0-3.492.55398-4.9094 1.57304v-8.76503h-3.572v27.9609h3.572v-12.2873c0-2.707 2.2024-4.9096 4.9094-4.9096 2.7072 0 4.9093 2.2026 4.9093 4.9096z" fill="#00a3e0"/><path clip-rule="evenodd" d="m3.58853 36h-3.58853v-20.3545c0-4.7123 3.83374-8.54625 8.54629-8.54625h.43544c4.71257 0 8.54627 3.83415 8.54627 8.54625v3.8378c0 4.7126-3.8337 8.5466-8.54627 8.5466h-.43544c-1.79449 0-3.52768-.561-4.95776-1.593zm4.95775-25.3122c-2.7337 0-4.95776 2.224-4.95776 4.9577v3.8378c0 2.7337 2.22406 4.9578 4.95776 4.9578h.43544c2.73368 0 4.95798-2.2241 4.95798-4.9578v-3.8378c0-2.7337-2.2243-4.9577-4.95798-4.9577z" fill="#00a3e0" fill-rule="evenodd"/><path d="m53.2498 27.9593h-3.3997v-12.3262c0-2.788-2.2681-5.0564-5.0561-5.0564h-.4366c-2.788 0-5.0564 2.2684-5.0564 5.0564v3.8401c0 2.788 2.2684 5.0561 5.0564 5.0561h.4366c1.3484 0 2.6332-.5205 3.6177-1.4658l.9863-.9804v.8786c0 .5058-.0039 1.3708-.0073 2.1207l-.0014.3251c-.0019.4331-.0036.7961-.0036.9778v.2043l-.1739.107c-1.3102.8062-2.838 1.2326-4.4178 1.2326h-.4366c-4.6625 0-8.4558-3.7935-8.4558-8.456v-3.8401c0-4.6626 3.7933-8.45581 8.4558-8.45581h.4366c4.6625 0 8.4558 3.79321 8.4558 8.45581z" fill="#00a3e0"/><path clip-rule="evenodd" d="m138.871 27.9278h-.437c-4.646 0-8.44-3.7808-8.456-8.4277v-3.8681c0-4.6626 3.794-8.45561 8.456-8.45561h.437c4.662 0 8.456 3.79301 8.456 8.45561v3.8403c-.014 4.6628-3.807 8.4555-8.456 8.4555zm-.437-17.3522c-2.788 0-5.056 2.2684-5.056 5.0564v3.8403c0 2.7877 2.268 5.0559 5.056 5.0559h.437c2.788 0 5.056-2.2682 5.056-5.0559v-3.8403c0-2.788-2.268-5.0564-5.056-5.0564z" fill="#00a3e0" fill-rule="evenodd"/><path d="m53.9969 27.9278h3.3995v-12.2958c0-2.788 2.2679-5.0562 5.0543-5.0562.6859.0025 1.3505.14 1.975.4088l.5099.2192v-3.6526l-.2685-.07397c-.6626-.18232-1.3484-.28275-2.0422-.29881l-.1731-.00204c-1.8311.00113-3.5987.59515-5.0554 1.68637v-1.69338h-3.3995z" fill="#00a3e0"/><path d="m96.0353 27.9278h-3.3996v-12.2958c0-2.7783-2.2587-5.0465-5.0354-5.0562-2.7864 0-5.0541 2.2682-5.0541 5.0562v12.2958h-3.3994v-12.2958c0-2.7783-2.2587-5.0465-5.0349-5.0562-2.7864 0-5.0544 2.2682-5.0544 5.0562v12.2958h-3.3994v-20.75843h3.3994v1.69338c1.4568-1.09122 3.2244-1.68524 5.0555-1.68637l.1728.00204c2.5926.06039 5.0069 1.31267 6.5616 3.37698 1.5988-2.12358 4.0862-3.37744 6.754-3.37902l.1731.00204c4.5565.10586 8.2608 3.89798 8.2608 8.45358z" fill="#00a3e0"/><path d="m110.802 27.9593h3.399v-12.3262c0-4.6626-3.793-8.45581-8.455-8.45581h-.437c-4.662 0-8.4557 3.79321-8.4557 8.45581v3.8401c0 4.6625 3.7937 8.456 8.4557 8.456h.437c1.579 0 3.107-.4264 4.417-1.2326l.175-.107v-.2043c0-.2083.002-.6547.004-1.1722l.001-.2663v-.0034c.003-.7153.007-1.5068.007-1.9817v-.8786l-.987.9804c-.984.9453-2.269 1.4658-3.617 1.4658h-.437c-2.788 0-5.056-2.2681-5.056-5.0561v-3.8401c0-2.788 2.268-5.0564 5.056-5.0564h.437c2.788 0 5.056 2.2684 5.056 5.0564z" fill="#00a3e0"/><path d="m115.694 27.9297h-.741v-3.4029h.74c2.78-.0072 5.042-2.2745 5.042-5.0536v-3.8401c0-2.7796-2.262-5.0471-5.043-5.0543h-.739v-3.40241h.74c2.758.00429 5.211 1.33767 6.752 3.39201 1.541-2.05234 3.991-3.38545 6.746-3.39201h.741v3.40241h-.74c-2.777.009-5.038 2.2765-5.038 5.0543v3.8401c0 2.773 2.257 5.0401 5.032 5.0536h.737v3.4029h-.739c-2.752-.0089-5.2-1.342-6.739-3.3928-1.541 2.0539-3.994 3.3875-6.751 3.3928z" fill="#00a3e0"/><g fill="#97999b"><path d="m153.862 16.3438c0 1.8723.505 3.6277 1.379 5.1401.303.5216.864.8747 1.51.8747.967 0 1.75-.7833 1.75-1.7497 0-.318-.082-.6161-.231-.8729-.577-.9985-.911-2.156-.911-3.3924 0-3.7491 3.04-6.78844 6.789-6.78844.966 0 1.748-.78381 1.748-1.75016s-.776-1.7497-1.742-1.7497c-5.681 0-10.292 4.6078-10.292 10.2885z"/><path d="m158.649 16.3436c0-1.5943.678-3.0305 1.763-4.0346-.094 1.1349.458 2.2758 1.51 2.883.471.2717.993.4094 1.516.4094.936-.0007 1.882.2335 2.749.7341 1.381.7971 2.285 2.103 2.613 3.5441-.937-.6485-2.2-.7415-3.252-.1339-.471.2717-.852.6554-1.113 1.1084-.467.8108-1.143 1.5129-2.01 2.0135-1.381.7969-2.964.9272-4.376.4909 1.03-.4871 1.742-1.5348 1.742-2.7496 0-.5438-.142-1.0647-.404-1.5185-.468-.8098-.738-1.7458-.738-2.7468z"/><path d="m164.819 27.0131c1.621-.9363 2.889-2.2515 3.761-3.7648.301-.523.326-1.1849.003-1.7449-.483-.837-1.553-1.1236-2.39-.6409-.276.1593-.493.3796-.641.6363-.576.9994-1.411 1.8676-2.482 2.4856-3.247 1.8745-7.399.7621-9.273-2.4847-.484-.8367-1.554-1.1226-2.39-.6392-.837.4827-1.128 1.5472-.644 2.384 2.84 4.9195 9.136 6.6086 14.056 3.7686z"/><path d="m168.58 12.19c-1.621-.9363-3.394-1.3767-5.141-1.3758-.603.0011-1.189.3106-1.513.8707-.483.8367-.196 1.9067.641 2.3901.275.1588.574.2366.871.2366 1.154-.0009 2.323.2884 3.394.9066 3.247 1.875 4.359 6.0266 2.485 9.2733-.483.837-.196 1.9065.641 2.3899.837.4829 1.903.2022 2.386-.6345 2.841-4.9195 1.156-11.2167-3.764-14.0569z"/><path d="m119.12 42h.9v-3.84h4.704v3.84h.9v-8.4h-.9v3.72h-4.704v-3.72h-.9z"/><path clip-rule="evenodd" d="m128.587 41.724c.44.264.92.396 1.44.396.528 0 .988-.108 1.38-.324.392-.224.716-.496.972-.816l-.564-.516c-.512.576-1.1.864-1.764.864-.36 0-.692-.084-.996-.252-.296-.168-.54-.396-.732-.684s-.308-.608-.348-.96h4.68c.016-.128.024-.256.024-.384 0-.56-.12-1.064-.36-1.512s-.568-.796-.984-1.044c-.408-.248-.864-.372-1.368-.372-.512 0-.984.132-1.416.396s-.776.624-1.032 1.08-.384.964-.384 1.524c0 .552.132 1.056.396 1.512s.616.82 1.056 1.092zm2.652-4.332c.336.328.54.772.612 1.332h-3.888c.04-.336.152-.644.336-.924.192-.28.432-.5.72-.66.296-.168.612-.252.948-.252.512 0 .936.168 1.272.504z" fill-rule="evenodd"/><path clip-rule="evenodd" d="m135.893 36.12c.44 0 .828.096 1.164.288.344.192.612.46.804.804.192.336.288.724.288 1.164v3.624h-.78v-.924h-.012c-.152.264-.408.504-.768.72s-.772.324-1.236.324c-.376 0-.712-.076-1.008-.228-.288-.152-.516-.352-.684-.6-.16-.256-.24-.528-.24-.816 0-.464.16-.852.48-1.164.32-.32.772-.528 1.356-.624l2.088-.348v-.012c0-.432-.136-.78-.408-1.044-.264-.264-.612-.396-1.044-.396-.336 0-.632.076-.888.228-.248.144-.488.336-.72.576l-.54-.516c.24-.296.544-.544.912-.744.368-.208.78-.312 1.236-.312zm-.456 5.256c.352 0 .672-.084.96-.252.296-.168.528-.396.696-.684.168-.296.252-.624.252-.984v-.408l-1.896.312c-.408.072-.712.2-.912.384s-.3.412-.3.684c0 .264.108.488.324.672.224.184.516.276.876.276z" fill-rule="evenodd"/><path d="m139.741 42h.816v-8.4h-.816z"/><path d="m144.293 42.06c-.504 0-.896-.144-1.176-.432-.272-.296-.408-.724-.408-1.284v-3.312h-1.116v-.792h.732c.144 0 .256-.044.336-.132.088-.096.132-.236.132-.42v-1.368h.732v1.92h1.416v.792h-1.416v3.264c0 .312.076.552.228.72.16.168.376.252.648.252.232 0 .476-.06.732-.18v.792c-.096.048-.22.088-.372.12-.152.04-.308.06-.468.06z"/><path d="m147.071 33.6h-.816v8.4h.816v-3.192c0-.36.08-.684.24-.972s.376-.512.648-.672c.272-.168.576-.252.912-.252.464 0 .844.156 1.14.468.304.312.456.72.456 1.224v3.396h.816v-3.396c0-.488-.1-.92-.3-1.296s-.476-.668-.828-.876-.748-.312-1.188-.312c-.424 0-.808.108-1.152.324-.336.208-.58.448-.732.72h-.012z"/><path d="m155.316 42.12c-.52 0-1.004-.132-1.452-.396-.44-.272-.792-.636-1.056-1.092-.256-.456-.384-.96-.384-1.512s.128-1.056.384-1.512c.264-.456.616-.816 1.056-1.08.448-.272.932-.408 1.452-.408.528 0 .992.12 1.392.36.408.232.728.504.96.816l-.6.492c-.472-.584-1.056-.876-1.752-.876-.376 0-.724.096-1.044.288-.312.192-.564.46-.756.804-.184.336-.276.708-.276 1.116s.092.784.276 1.128c.192.336.444.6.756.792.32.192.668.288 1.044.288.392 0 .736-.088 1.032-.264s.544-.388.744-.636l.6.492c-.232.32-.556.6-.972.84-.408.24-.876.36-1.404.36z"/><path clip-rule="evenodd" d="m161.983 36.408c-.336-.192-.724-.288-1.164-.288-.456 0-.868.104-1.236.312-.368.2-.672.448-.912.744l.54.516c.232-.24.472-.432.72-.576.256-.152.552-.228.888-.228.432 0 .78.132 1.044.396.272.264.408.612.408 1.044v.012l-2.088.348c-.584.096-1.036.304-1.356.624-.32.312-.48.7-.48 1.164 0 .288.08.56.24.816.168.248.396.448.684.6.296.152.632.228 1.008.228.464 0 .876-.108 1.236-.324s.616-.456.768-.72h.012v.924h.78v-3.624c0-.44-.096-.828-.288-1.164-.192-.344-.46-.612-.804-.804zm-.66 4.716c-.288.168-.608.252-.96.252-.36 0-.652-.092-.876-.276-.216-.184-.324-.408-.324-.672 0-.272.1-.5.3-.684s.504-.312.912-.384l1.896-.312v.408c0 .36-.084.688-.252.984-.168.288-.4.516-.696.684z" fill-rule="evenodd"/><path d="m164.607 36.24h.816v.9h.012c.152-.264.396-.5.732-.708.344-.208.732-.312 1.164-.312h.264v.84c-.112-.016-.224-.024-.336-.024-.336 0-.644.084-.924.252s-.504.4-.672.696c-.16.296-.24.628-.24.996v3.12h-.816z"/><path clip-rule="evenodd" d="m169.418 41.724c.44.264.92.396 1.44.396.528 0 .988-.108 1.38-.324.392-.224.716-.496.972-.816l-.564-.516c-.512.576-1.1.864-1.764.864-.36 0-.692-.084-.996-.252-.296-.168-.54-.396-.732-.684s-.308-.608-.348-.96h4.68c.016-.128.024-.256.024-.384 0-.56-.12-1.064-.36-1.512s-.568-.796-.984-1.044c-.408-.248-.864-.372-1.368-.372-.512 0-.984.132-1.416.396s-.776.624-1.032 1.08-.384.964-.384 1.524c0 .552.132 1.056.396 1.512s.616.82 1.056 1.092zm2.652-4.332c.336.328.54.772.612 1.332h-3.888c.04-.336.152-.644.336-.924.192-.28.432-.5.72-.66.296-.168.612-.252.948-.252.512 0 .936.168 1.272.504z" fill-rule="evenodd"/></g></svg>