<svg fill="none" height="48" viewBox="0 0 173 48" width="173" xmlns="http://www.w3.org/2000/svg"><g fill="#000"><path clip-rule="evenodd" d="m48 24c0 13.2549-10.7452 24-24 24s-24-10.7451-24-24 10.7452-24 24-24 24 10.7451 24 24zm-31.4483 3.0894c.3354.578.956.9378 1.6195.9378 1.0347 0 1.8763-.8418 1.8763-1.8766 0-.3311-.0857-.6549-.2486-.9362-.6059-1.048-.9259-2.24-.9259-3.4483 0-3.8055 3.0956-6.9018 6.9017-6.9018 1.0339 0 1.875-.8415 1.875-1.8761 0-1.0342-.8388-1.8758-1.8692-1.8758-5.8769 0-10.6579 4.7793-10.6579 10.6537 0 1.8655.4941 3.7062 1.4291 5.3233zm3.5697-5.3233c0-1.6393.6977-3.1152 1.8123-4.1477-.0963 1.1669.471 2.3392 1.5527 2.9636.4835.2797 1.0209.4212 1.5594.4212.961-.0006 1.9336.2396 2.8246.754 1.4202.8201 2.3496 2.1624 2.6866 3.644-.9629-.6668-2.2624-.7622-3.3432-.1378-.4846.2793-.8747.6734-1.1445 1.1393-.48.834-1.1743 1.5558-2.0658 2.0702-1.4199.8191-3.0468.9531-4.498.5048 1.0578-.5011 1.7898-1.5783 1.7898-2.8271 0-.5582-.1458-1.0946-.4147-1.5606-.4812-.8326-.7592-1.7954-.7592-2.8239zm11.5871 10.8993c.2876.1665.613.2535.9412.2535.6649 0 1.2858-.3575 1.6178-.9333 1.4229-2.4642 1.8011-5.3359 1.0647-8.0858-.7366-2.7508-2.4992-5.0487-4.9622-6.471-1.6144-.932-3.4537-1.4244-5.3242-1.4244-.6691.0015-1.2908.3592-1.6219.9332-.5168.8958-.2095 2.0456.6858 2.5631.288.1659.6111.2536.9419.2536 1.2084 0 2.3991.3186 3.4434.9214 3.2954 1.903 4.4282 6.1322 2.5266 9.4281-.5178.8955-.2091 2.0443.6869 2.5616zm-19.7608-3.767c1.897 3.2879 5.4384 5.3308 9.2413 5.3308 1.8586 0 3.696-.4938 5.3142-1.4281 1.6157-.9329 2.9621-2.2812 3.8942-3.8983.3337-.5788.3354-1.2962.0033-1.8714-.4976-.8617-1.6944-1.1894-2.5623-.6864-.2868.1649-.5241.4007-.6873.682-.6047 1.0495-1.4768 1.9234-2.5238 2.5272-1.0487.6052-2.2403.9255-3.4442.9255-2.4609 0-4.7536-1.3226-5.9837-3.4519-.4959-.8609-1.6921-1.1872-2.5619-.685-.8955.5166-1.2055 1.6633-.6898 2.5556z" fill-rule="evenodd"/><path d="m60 0h1v48h-1z"/><path clip-rule="evenodd" d="m77.8 23h-3v-14h5.9c2.98 0 5 1.98 5 4.7s-2.02 4.7-5 4.7h-2.9zm0-11.2v3.8h2.8c1.2 0 2-.7801 2-1.9 0-1.12-.8-1.9-2-1.9z" fill-rule="evenodd"/><path d="m89.8031 23h-2.7v-14h2.7v5.6h.1c.22-.3.46-.56.74-.8.48-.4 1.2-.8 2.16-.8 2 0 3.6 1.6 3.6 4.1v5.9h-2.7v-5.5c0-1.2-.68-1.9-1.8-1.9-1.2 0-2.1.9-2.1 2.2z"/><path clip-rule="evenodd" d="m103.995 23h2.7v-6.1c0-2.18-1.7-3.9-4.2-3.9-1.3 0-2.28.48-2.9797.96-.4.28-.74.6001-1.02.94l1.5997 1.6c.16-.2.36-.38.58-.54.38-.3.92-.56 1.62-.56 1.02 0 1.6.6 1.7 1.3l-3.1.56c-1.8197.32-2.8997 1.54-2.8997 3.14s1.2 2.8 2.9997 2.8c.94 0 1.68-.32 2.16-.7.28-.2.52-.4399.74-.7h.1zm0-4.2c0 1.3-.9 2.2-2.1 2.2-.8 0-1.2-.38-1.2-1 0-.5.4-.86 1.1-1l2.2-.4z" fill-rule="evenodd"/><path d="m111.496 23h-2.7v-9.8h2.7v1.4h.1c.22-.3.46-.56.74-.8.48-.4 1.2-.8 2.16-.8h.2v2.9l-.22-.04c-.026-.0033-.054-.0071-.084-.0112l-.011-.0015c-.149-.0208-.34-.0473-.585-.0473-1.3 0-2.3 1-2.3 2.6z"/><path d="m115.894 23h2.7v-5.4c0-1.2.78-2 1.9-2 1.02 0 1.6.5801 1.6 1.7v5.7h2.7v-5.4c0-1.2.78-2 1.9-2 1.02 0 1.6.5801 1.6 1.7v5.7h2.7v-6.1c0-2.4-1.48-3.9-3.4-3.9-1.06 0-1.84.4399-2.38.86-.32.24-.6.52-.82.84h-.1c-.18-.32-.4-.6-.66-.84-.46-.4201-1.2-.86-2.24-.86-.96 0-1.6.4-2.06.8-.26.24-.46.5-.64.8h-.1v-1.4h-2.7z"/><path clip-rule="evenodd" d="m141.289 23h-2.7v-1.2h-.1c-.14.1662-.289.3241-.451.4687-.092.0816-.188.159-.289.2313-.48.38-1.22.7-2.16.7-1.8 0-3-1.2-3-2.8s1.08-2.82 2.9-3.14l3.1-.56c-.1-.7-.68-1.3-1.7-1.3-.7 0-1.24.26-1.62.56-.22.16-.42.34-.58.54l-1.6-1.6c.28-.3399.62-.66 1.02-.94.7-.48 1.68-.96 2.98-.96 2.5 0 4.2 1.72 4.2 3.9zm-4.8-2c1.2 0 2.1-.9 2.1-2.2v-.2l-2.2.4c-.7.14-1.1.5-1.1 1 0 .62.4 1 1.2 1z" fill-rule="evenodd"/><path d="m141.99 23h3.1l2.06-3.2h.08l2.06 3.2h3.1l-3.5-5 3.3-4.8h-3.1l-1.86 3h-.08l-1.86-3h-3.1l3.3 4.8z"/><path clip-rule="evenodd" d="m157.49 23.2c-2.9 0-5.2-2.3-5.2-5.1s2.3-5.1 5.2-5.1 5.2 2.3 5.2 5.1-2.3 5.1-5.2 5.1zm-2.5-5.1c0 1.5 1.1 2.6 2.5 2.6s2.5-1.1 2.5-2.6-1.1-2.6-2.5-2.6-2.5 1.1-2.5 2.6z" fill-rule="evenodd"/><path d="m83.56 36.12c-.272.368-.592.688-.96.96-.64.496-1.6.96-2.88.96-2.56 0-4.56-2-4.56-4.64s2-4.64 4.56-4.64c1.28 0 2.2079.464 2.832.96.368.2719.672.592.9279.9601l.8001-.7201c-.32-.432-.704-.816-1.136-1.152-.768-.5759-1.888-1.168-3.424-1.168-3.2 0-5.76 2.56-5.76 5.76s2.56 5.76 5.76 5.76c1.536 0 2.672-.576 3.456-1.1519.464-.3361.848-.7361 1.184-1.1681z"/><path clip-rule="evenodd" d="m93.0037 35.16c0 2.24-1.76 4-3.92 4s-3.92-1.76-3.92-4 1.76-4 3.92-4 3.92 1.76 3.92 4zm-6.72 0c0 1.664 1.28 2.96 2.8 2.96s2.8-1.28 2.8-2.96-1.28-2.96-2.8-2.96-2.8 1.28-2.8 2.96z" fill-rule="evenodd"/><path d="m94.6049 39h1.1201v-4.24c0-1.6.976-2.56 2.08-2.56 1.1359 0 1.92.784 1.92 2.2399v4.5601h1.12v-4.24c0-1.6.976-2.56 2.08-2.56 1.136 0 1.92.768 1.92 2.2399v4.5601h1.12v-4.5601c0-2.1439-1.28-3.2799-2.96-3.2799-.96 0-1.616.352-2.048.688-.24.192-.448.416-.592.672-.144-.256-.32-.48-.544-.672-.384-.336-1.024-.688-1.9361-.688-.7679 0-1.28.288-1.6479.56-.208.176-.368.352-.512.56v-.9601h-1.1201z"/><path clip-rule="evenodd" d="m109.247 42.36h-1.12v-11.0401h1.12v1.12c.176-.2399.384-.448.656-.6399.432-.32 1.088-.64 1.984-.64 2.08 0 3.76 1.68 3.76 4s-1.68 4-3.76 4c-.896 0-1.552-.32-1.984-.64-.272-.192-.48-.4-.656-.64zm0-7.2c0 1.68 1.296 2.96 2.64 2.96 1.456 0 2.64-1.2159 2.64-2.96 0-1.744-1.184-2.96-2.64-2.96-1.344 0-2.64 1.28-2.64 2.96z" fill-rule="evenodd"/><path clip-rule="evenodd" d="m120.602 39.16c2.16 0 3.92-1.76 3.92-4s-1.76-4-3.92-4-3.92 1.76-3.92 4 1.76 4 3.92 4zm0-1.04c-1.52 0-2.8-1.296-2.8-2.96 0-1.68 1.28-2.96 2.8-2.96s2.8 1.28 2.8 2.96-1.28 2.96-2.8 2.96z" fill-rule="evenodd"/><path d="m129.244 39.16c-1.76 0-3.12-1.36-3.12-3.36v-4.4801h1.12v4.4801c0 1.36.96 2.32 2.16 2.32 1.28 0 2.32-1.0241 2.32-2.5599v-4.2402h1.12v7.6801h-1.12v-1.04c-.102.1421-.222.2777-.358.4028-.079.0721-.162.1407-.25.2052-.432.3039-1.04.592-1.872.592z"/><path d="m135.083 39h1.12v-4.24c0-1.536 1.04-2.56 2.4-2.56 1.216 0 2.08.88 2.08 2.2399v4.5601h1.12v-4.5601c0-2-1.28-3.2799-3.12-3.2799-.848 0-1.44.32-1.872.64-.24.1919-.448.4-.608.6399v-1.12h-1.12z"/><path clip-rule="evenodd" d="m150.924 39h-1.12v-1.12c-.176.24-.4.448-.656.64-.448.32-1.088.64-1.984.64-2.08 0-3.76-1.68-3.76-4s1.68-4 3.76-4c.896 0 1.536.32 1.984.64.256.1919.48.4.656.6399v-4.6399h1.12zm-6.4-3.84c0 1.7441 1.184 2.96 2.64 2.96 1.344 0 2.64-1.28 2.64-2.96s-1.296-2.96-2.64-2.96c-1.456 0-2.64 1.216-2.64 2.96z" fill-rule="evenodd"/><path d="m152.998 28.76c0 .4.32.72.72.72s.72-.32.72-.72-.32-.72-.72-.72-.72.32-.72.72z"/><path d="m154.278 39v-7.6801h-1.12v7.6801z"/><path d="m157.566 39h-1.12v-7.6801h1.12v1.12c.16-.2399.368-.448.608-.6399.432-.32 1.024-.64 1.872-.64 1.84 0 3.12 1.2799 3.12 3.2799v4.5601h-1.12v-4.5601c0-1.3599-.864-2.2399-2.08-2.2399-1.36 0-2.4 1.024-2.4 2.56z"/><path clip-rule="evenodd" d="m165.087 40.76c.208.304.48.5599.784.8001.528.3999 1.328.7999 2.416.7999 2.08 0 3.76-1.6799 3.76-3.84v-7.2001h-1.12v1.0401c-.144-.208-.352-.416-.592-.5921-.432-.3039-1.056-.6079-1.968-.6079-2 0-3.6 1.68-3.6 3.84s1.6 3.84 3.6 3.84c.912 0 1.536-.288 1.968-.592.24-.176.448-.384.592-.608v.88c0 1.6-1.184 2.7999-2.64 2.7999-.816 0-1.408-.3199-1.84-.6398-.24-.1921-.464-.4001-.64-.6401zm3.28-2.96c-1.344 0-2.48-1.2-2.48-2.8s1.136-2.8 2.48-2.8c1.44 0 2.56 1.2 2.56 2.8s-1.12 2.8-2.56 2.8z" fill-rule="evenodd"/></g></svg>