<svg fill="none" height="48" viewBox="0 0 163 48" width="163" xmlns="http://www.w3.org/2000/svg"><g fill="#fff"><path clip-rule="evenodd" d="m48 24c0 13.2549-10.7452 24-24 24s-24-10.7451-24-24 10.7452-24 24-24 24 10.7451 24 24zm-31.4483 3.0894c.3353.578.956.9378 1.6195.9378 1.0347 0 1.8762-.8418 1.8762-1.8766 0-.3311-.0856-.6549-.2485-.9362-.6059-1.048-.9259-2.24-.9259-3.4483 0-3.8055 3.0956-6.9018 6.9017-6.9018 1.0339 0 1.875-.8415 1.875-1.8761 0-1.0342-.8388-1.8758-1.8692-1.8758-5.8769 0-10.6579 4.7793-10.6579 10.6537 0 1.8655.4941 3.7062 1.4291 5.3233zm3.5697-5.3233c0-1.6393.6977-3.1152 1.8123-4.1477-.0963 1.1669.471 2.3392 1.5527 2.9636.4835.2797 1.0208.4212 1.5594.4212.961-.0006 1.9336.2396 2.8246.754 1.4202.8201 2.3496 2.1624 2.6866 3.644-.9629-.6668-2.2624-.7622-3.3432-.1378-.4845.2793-.8748.6734-1.1445 1.1393-.48.834-1.1743 1.5558-2.0658 2.0702-1.4199.8191-3.0468.9531-4.498.5048 1.0578-.5011 1.7898-1.5783 1.7898-2.8271 0-.5582-.1458-1.0946-.4147-1.5606-.4812-.8326-.7592-1.7954-.7592-2.8239zm11.5871 10.8993c.2876.1665.613.2535.9412.2535.6649 0 1.2858-.3575 1.6178-.9333 1.4229-2.4642 1.8011-5.3359 1.0647-8.0858-.7366-2.7508-2.4992-5.0487-4.9622-6.471-1.6145-.932-3.4537-1.4244-5.3242-1.4244-.6691.0015-1.2907.3592-1.6219.9332-.5168.8958-.2095 2.0456.6858 2.5631.288.1659.6111.2536.9419.2536 1.2085 0 2.3991.3186 3.4433.9214 3.2955 1.903 4.4283 6.1322 2.5267 9.4281-.5178.8955-.2091 2.0443.6869 2.5616zm-19.7608-3.767c1.897 3.2879 5.4384 5.3308 9.2413 5.3308 1.8586 0 3.696-.4938 5.3142-1.4281 1.6157-.9329 2.9621-2.2812 3.8942-3.8983.3337-.5788.3354-1.2962.0033-1.8714-.4976-.8617-1.6944-1.1894-2.5623-.6864-.2868.1649-.5241.4007-.6873.682-.6047 1.0495-1.4768 1.9234-2.5238 2.5272-1.0487.6052-2.2403.9255-3.4441.9255-2.461 0-4.7537-1.3226-5.9838-3.4519-.4959-.8609-1.6921-1.1872-2.5619-.685-.8955.5166-1.2055 1.6633-.6898 2.5556z" fill-rule="evenodd"/><path d="m60 0h1v48h-1z"/><path clip-rule="evenodd" d="m77.8 23h-3v-14h5.9c2.98 0 5 1.98 5 4.7s-2.02 4.7-5 4.7h-2.9zm0-11.2v3.8h2.8c1.2 0 2-.7801 2-1.9 0-1.12-.8-1.9-2-1.9z" fill-rule="evenodd"/><path d="m89.8031 23h-2.7v-14h2.7v5.6h.1c.22-.3.46-.56.74-.8.48-.4 1.2-.8 2.16-.8 2 0 3.6 1.6 3.6 4.1v5.9h-2.7v-5.5c0-1.2-.68-1.9-1.8-1.9-1.2 0-2.1.9-2.1 2.2z"/><path clip-rule="evenodd" d="m103.995 23h2.7v-6.1c0-2.18-1.7-3.9-4.2-3.9-1.3 0-2.28.48-2.9797.96-.4.28-.74.6001-1.02.94l1.5997 1.6c.16-.2.36-.38.58-.54.38-.3.92-.56 1.62-.56 1.02 0 1.6.6 1.7 1.3l-3.1.56c-1.8197.32-2.8997 1.54-2.8997 3.14s1.2 2.8 2.9997 2.8c.94 0 1.68-.32 2.16-.7.28-.2.52-.4399.74-.7h.1zm0-4.2c0 1.3-.9 2.2-2.1 2.2-.8 0-1.2-.38-1.2-1 0-.5.4-.86 1.1-1l2.2-.4z" fill-rule="evenodd"/><path d="m111.496 23h-2.7v-9.8h2.7v1.4h.1c.22-.3.46-.56.74-.8.48-.4 1.2-.8 2.16-.8h.2v2.9l-.22-.04c-.16-.02-.38-.06-.68-.06-1.3 0-2.3 1-2.3 2.6z"/><path d="m115.894 23h2.7v-5.4c0-1.2.78-2 1.9-2 1.02 0 1.6.5801 1.6 1.7v5.7h2.7v-5.4c0-1.2.78-2 1.9-2 1.02 0 1.6.5801 1.6 1.7v5.7h2.7v-6.1c0-2.4-1.48-3.9-3.4-3.9-1.06 0-1.84.4399-2.38.86-.32.24-.6.52-.82.84h-.1c-.18-.32-.4-.6-.66-.84-.46-.4201-1.2-.86-2.24-.86-.96 0-1.6.4-2.06.8-.26.24-.46.5-.64.8h-.1v-1.4h-2.7z"/><path clip-rule="evenodd" d="m141.289 23h-2.7v-1.2h-.1c-.22.2601-.46.5-.74.7-.48.38-1.22.7-2.16.7-1.8 0-3-1.2-3-2.8s1.08-2.82 2.9-3.14l3.1-.56c-.1-.7-.68-1.3-1.7-1.3-.7 0-1.24.26-1.62.56-.22.16-.42.34-.58.54l-1.6-1.6c.28-.3399.62-.66 1.02-.94.7-.48 1.68-.96 2.98-.96 2.5 0 4.2 1.72 4.2 3.9zm-4.8-2c1.2 0 2.1-.9 2.1-2.2v-.2l-2.2.4c-.7.14-1.1.5-1.1 1 0 .62.4 1 1.2 1z" fill-rule="evenodd"/><path d="m141.99 23h3.1l2.06-3.2h.08l2.06 3.2h3.1l-3.5-5 3.3-4.8h-3.1l-1.86 3h-.08l-1.86-3h-3.1l3.3 4.8z"/><path clip-rule="evenodd" d="m157.49 23.2c-2.9 0-5.2-2.3-5.2-5.1s2.3-5.1 5.2-5.1 5.2 2.3 5.2 5.1-2.3 5.1-5.2 5.1zm-2.5-5.1c0 1.5 1.1 2.6 2.5 2.6s2.5-1.1 2.5-2.6-1.1-2.6-2.5-2.6-2.5 1.1-2.5 2.6z" fill-rule="evenodd"/><path d="m73.72 37.48c.24.32.544.608.912.848.624.432 1.568.832 2.848.832 2.4 0 3.76-1.36 3.76-3.2 0-2.1532-1.7761-2.68-3.4083-3.1641-1.3878-.4116-2.6717-.7924-2.6717-2.1158 0-1.0081.864-1.9201 2.4-1.9201.832 0 1.424.288 1.856.5599.24.1761.448.3521.624.5601l.8-.8c-.24-.272-.512-.512-.832-.72-.56-.3681-1.36-.72-2.448-.72-2.224 0-3.6 1.424-3.6 3.0401 0 2.1558 1.7805 2.6859 3.4145 3.1723 1.3854.4125 2.6655.7935 2.6655 2.1076 0 1.216-.88 2.08-2.56 2.08-1.04 0-1.808-.32-2.304-.6879-.288-.1921-.528-.4161-.736-.688z"/><path d="m87.9828 37.48c.24-.192.448-.4.624-.64l.8.7201c-.24.3039-.528.5599-.8479.7999-.5601.4-1.3441.8-2.3521.8-2.096 0-3.8399-1.76-3.8399-4s1.7439-4 3.8399-4c1.008 0 1.776.3839 2.304.768.304.224.5761.48.816.7521l-.8.7999c-.176-.24-.368-.448-.592-.64-.384-.32-.976-.64-1.728-.64-1.44 0-2.72 1.28-2.72 2.96s1.28 2.96 2.72 2.96c.752 0 1.344-.32 1.776-.64z"/><path d="m90.6012 28.76c0 .4.32.72.72.72s.72-.32.72-.72-.32-.72-.72-.72-.72.32-.72.72z"/><path d="m91.8812 39v-7.6801h-1.12v7.6801z"/><path clip-rule="evenodd" d="m99.1687 37.48c.24-.192.464-.4.64-.64l.7203.7201c-.224.3039-.496.5599-.8163.7999-.56.4-1.344.8-2.384.8-2.096 0-3.84-1.76-3.84-4s1.76-4 3.76-4c2.096 0 3.6803 1.6 3.6803 3.84 0 .0371-.002.072-.004.1051l-.003.036-.004.036c-.007.0554-.015.1055-.023.152-.005.0303-.01.0591-.014.0869l-.032.16-6.2403-.0159c.08 1.3599 1.264 2.5599 2.72 2.5599.816 0 1.408-.32 1.84-.64zm-1.92-5.28c-1.376 0-2.464 1.1199-2.64 2.4h5.2c-.176-1.36-1.2-2.4-2.56-2.4z" fill-rule="evenodd"/><path d="m102.524 39h1.12v-4.24c0-1.536 1.04-2.56 2.4-2.56 1.216 0 2.08.88 2.08 2.2399v4.5601h1.12v-4.5601c0-2-1.28-3.2799-3.12-3.2799-.848 0-1.44.32-1.872.64-.24.1919-.448.4-.608.6399v-1.12h-1.12z"/><path d="m114.001 39.16c-1.328 0-2.112-.784-2.112-2.24v-4.56h-1.44v-1.0401h.88c.432 0 .64-.2719.64-.7999v-1.76h1.04v2.5599h1.68v1.0401h-1.68v4.56c0 .816.4 1.2 1.04 1.2.272 0 .544-.048.736-.1119.112-.0481.224-.0801.304-.1281v1.04c-.029.0146-.06.0276-.091.0401-.029.0112-.059.0221-.089.0332-.046.017-.093.0344-.14.0547-.192.0641-.464.112-.768.112z"/><path d="m116.454 28.76c0 .4.32.72.72.72s.72-.32.72-.72-.32-.72-.72-.72-.72.32-.72.72z"/><path d="m117.734 39v-7.6801h-1.12v7.6801z"/><path d="m121.422 39h-1.12v-6.64h-1.2v-1.0401h1.2v-1.4399c0-1.456.8-2.24 2.08-2.24.32 0 .592.064.8.1279.085.0365.17.0638.248.0888.025.0079.049.0156.072.0233v1.04l-.304-.112c-.192-.064-.464-.1279-.736-.1279-.64 0-1.04.3839-1.04 1.1999v1.4399h4.56v7.6801h-1.12v-6.64h-3.44z"/><path d="m125.422 29.48c-.4 0-.72-.32-.72-.72s.32-.72.72-.72.72.32.72.72-.32.72-.72.72z"/><path d="m133.822 36.84c-.176.24-.384.448-.624.64-.432.32-1.024.64-1.776.64-1.44 0-2.72-1.28-2.72-2.96s1.28-2.96 2.72-2.96c.752 0 1.344.32 1.728.64.224.192.416.4.592.64l.8-.7999c-.24-.2721-.512-.5281-.816-.7521-.528-.3841-1.296-.768-2.304-.768-2.096 0-3.84 1.76-3.84 4s1.744 4 3.84 4c1.008 0 1.792-.4 2.352-.8.32-.24.608-.496.848-.7999z"/></g></svg>