<svg fill="none" height="48" viewBox="0 0 210 48" width="210" xmlns="http://www.w3.org/2000/svg"><circle cx="24" cy="24" fill="#1565c0" r="24"/><g fill="#fff"><path d="m16.5517 27.0894c.3353.578.956.9379 1.6195.9379 1.0347 0 1.8762-.8419 1.8762-1.8767 0-.3312-.0856-.6549-.2485-.9362-.6059-1.048-.9259-2.2401-.9259-3.4483 0-3.8055 3.0956-6.9018 6.9017-6.9018 1.0339 0 1.875-.8415 1.875-1.8761 0-1.0342-.8388-1.8758-1.8692-1.8758-5.8769 0-10.6579 4.7794-10.6579 10.6537 0 1.8654.4941 3.7062 1.4291 5.3233z"/><path d="m20.1214 21.7661c0-1.6393.6977-3.1153 1.8123-4.1477-.0963 1.1668.471 2.3392 1.5527 2.9636.4835.2797 1.0209.4212 1.5594.4212.961-.0006 1.9336.2395 2.8246.754 1.4202.8201 2.3496 2.1623 2.6866 3.644-.9629-.6668-2.2624-.7621-3.3432-.1378-.4845.2793-.8748.6734-1.1445 1.1393-.48.834-1.1743 1.5558-2.0658 2.0702-1.4199.8191-3.0468.9531-4.498.5048 1.0578-.5012 1.7898-1.5783 1.7898-2.8271 0-.5582-.1458-1.0946-.4147-1.5606-.4812-.8325-.7592-1.7954-.7592-2.8239z"/><path d="m32.6497 32.919c-.3282 0-.6536-.0871-.9412-.2535-.896-.5174-1.2047-1.6662-.6869-2.5617 1.9016-3.296.7688-7.5251-2.5266-9.4281-1.0443-.6028-2.2349-.9215-3.4434-.9215-.3308 0-.6539-.0876-.9419-.2535-.8953-.5176-1.2026-1.6673-.6858-2.5631.3311-.574.9528-.9317 1.6219-.9332 1.8704 0 3.7097.4925 5.3242 1.4244 2.463 1.4223 4.2256 3.7202 4.9622 6.471.7364 2.7499.3582 5.6216-1.0647 8.0858-.332.5758-.9529.9334-1.6178.9334z"/><path d="m11.9477 28.8985c1.897 3.2878 5.4384 5.3307 9.2413 5.3307 1.8586 0 3.696-.4939 5.3142-1.428 1.6157-.933 2.9621-2.2812 3.8942-3.8984.3337-.5788.3354-1.2963.0033-1.8714-.4976-.8617-1.6944-1.1893-2.5623-.6865-.2868.165-.5241.4008-.6873.6821-.6047 1.0495-1.4768 1.9234-2.5238 2.5272-1.0487.6053-2.2403.9255-3.4442.9255-2.4609 0-4.7536-1.3226-5.9837-3.4518-.4959-.8611-1.6921-1.1873-2.5619-.6851-.8955.5165-1.2055 1.6633-.6898 2.5557z"/><path d="m60 0h1v48h-1z"/><path clip-rule="evenodd" d="m74.7998 16v-14h5.96c.9467 0 1.7933.20667 2.54.62.76.41333 1.3467.98 1.76 1.7.4267.70667.64 1.5.64 2.38s-.2133 1.68-.64 2.4c-.4133.70667-1 1.2667-1.76 1.68-.7467.4133-1.5933.62-2.54.62h-2.96v4.6zm5.86-7.3c.5733 0 1.0533-.19333 1.44-.58.4-.4.6-.87333.6-1.42s-.2-1.01333-.6-1.4c-.3867-.4-.8667-.6-1.44-.6h-2.86v4z" fill-rule="evenodd"/><path d="m87.2006 16v-14h2.7v5.68h.06c.24-.4.6133-.76 1.12-1.08.52-.33333 1.1133-.5 1.78-.5.7066 0 1.3333.16667 1.88.5.5466.33333.9733.81333 1.28 1.44.32.61333.48 1.34667.48 2.2v5.76h-2.7v-5.4c0-.6-.1667-1.07333-.5-1.42-.3333-.36-.7667-.54-1.3-.54-.6133 0-1.12.21333-1.52.64-.3867.41333-.58.9533-.58 1.62v5.1z"/><path clip-rule="evenodd" d="m104.595 6.62c-.64-.34667-1.373-.52-2.2-.52-.853 0-1.62.18667-2.3.56-.6666.36-1.2132.79333-1.6399 1.3l1.54 1.48c.6799-.76 1.4329-1.14 2.2599-1.14.48 0 .873.14 1.18.42.32.26667.493.59333.52.98l-3.06.58c-.9599.1867-1.6999.5467-2.2199 1.08s-.78 1.2133-.78 2.04c0 .4933.14.96.42 1.4.28.4267.66.7667 1.14 1.02.4933.2533 1.0469.38 1.6599.38.667 0 1.26-.16 1.78-.48s.9-.6733 1.14-1.06h.06v1.34h2.56v-6.1c0-.69333-.18-1.32667-.54-1.9-.36-.58667-.867-1.04667-1.52-1.38zm-1.24 6.8c-.387.4133-.873.62-1.46.62-.387 0-.693-.0933-.92-.28-.213-.2-.32-.4533-.32-.76 0-.2533.107-.48.32-.68.213-.2133.507-.3533.88-.42l2.1-.42v.32c0 .6667-.2 1.2067-.6 1.62z" fill-rule="evenodd"/><path d="m108.659 16v-9.7h2.7v1.2h.06c.24-.36.6-.68 1.08-.96.494-.29333 1.047-.44 1.66-.44h.46v2.9c-.32-.10667-.62-.16-.9-.16-.693 0-1.26.24-1.7.72-.44.4667-.66 1.0933-.66 1.88v4.56z"/><path d="m115.815 6.3v9.7h2.7v-5.2c0-.6667.174-1.19333.52-1.58.347-.38667.794-.58 1.34-.58.467 0 .847.16667 1.14.5.307.32.46.77333.46 1.36v5.5h2.7v-5.2c0-.6667.174-1.19333.52-1.58.347-.38667.787-.58 1.32-.58.467 0 .847.16667 1.14.5.307.32.46.77333.46 1.36v5.5h2.7v-5.76c0-.84-.153-1.57333-.46-2.2-.306-.62667-.72-1.10667-1.24-1.44-.506-.33333-1.073-.5-1.7-.5-.773 0-1.46.17333-2.06.52-.586.33333-.993.70667-1.22 1.12h-.08c-.2-.41333-.546-.78667-1.04-1.12-.493-.34667-1.073-.52-1.74-.52-.653 0-1.22.16667-1.7.5-.48.32-.813.68-1 1.08h-.06v-1.38z"/><path clip-rule="evenodd" d="m136.715 6.1c.827 0 1.56.17333 2.2.52.654.33333 1.16.79333 1.52 1.38.36.57333.54 1.20667.54 1.9v6.1h-2.56v-1.34h-.06c-.24.3867-.62.74-1.14 1.06s-1.113.48-1.78.48c-.613 0-1.166-.1267-1.66-.38-.48-.2533-.86-.5933-1.14-1.02-.28-.44-.42-.9067-.42-1.4 0-.8267.26-1.5067.78-2.04s1.26-.8933 2.22-1.08l3.06-.58c-.026-.38667-.2-.71333-.52-.98-.306-.28-.7-.42-1.18-.42-.826 0-1.58.38-2.26 1.14l-1.54-1.48c.427-.50667.974-.94 1.64-1.3.68-.37333 1.447-.56 2.3-.56zm-.5 7.94c.587 0 1.074-.2067 1.46-.62.4-.4133.6-.9533.6-1.62v-.32l-2.1.42c-.373.0667-.666.2067-.88.42-.213.2-.32.4267-.32.68 0 .3067.107.56.32.76.227.1867.534.28.92.28z" fill-rule="evenodd"/><path d="m141.784 16h3.02l2.02-3.28h.06l2.02 3.28h3.12l-3.32-5 3.08-4.7h-3.02l-1.78 2.96h-.06l-1.76-2.96h-3.12l3.08 4.7z"/><path clip-rule="evenodd" d="m157.333 16.2c-.96 0-1.84-.2267-2.64-.68-.786-.4533-1.413-1.0667-1.88-1.84-.453-.7733-.68-1.62-.68-2.54s.227-1.76667.68-2.54c.467-.77333 1.094-1.38 1.88-1.82.8-.45333 1.68-.68 2.64-.68.974 0 1.854.22667 2.64.68.8.44 1.427 1.04667 1.88 1.82.454.77333.68 1.62.68 2.54s-.226 1.7667-.68 2.54c-.453.7733-1.08 1.3867-1.88 1.84-.786.4533-1.666.68-2.64.68zm0-2.5c.68 0 1.26-.2467 1.74-.74s.72-1.1.72-1.82-.24-1.32-.72-1.8c-.48-.49333-1.06-.74-1.74-.74s-1.26.24667-1.74.74c-.466.48-.7 1.08-.7 1.8s.234 1.3267.7 1.82c.48.4933 1.06.74 1.74.74z" fill-rule="evenodd"/><path d="m74.6958 32h1.2v-5.12h6.272v5.12h1.2v-11.2h-1.2v4.96h-6.272v-4.96h-1.2z"/><path clip-rule="evenodd" d="m89.2387 32.16c-.6934 0-1.3334-.176-1.92-.528-.5867-.3627-1.056-.848-1.408-1.456s-.528-1.28-.528-2.016c0-.7467.1706-1.424.512-2.032.3413-.608.8-1.088 1.376-1.44s1.2053-.528 1.888-.528c.672 0 1.28.1653 1.824.496.5546.3307.992.7947 1.312 1.392s.48 1.2693.48 2.016c0 .1707-.0107.3413-.032.512h-6.24c.0533.4693.208.896.464 1.28s.5813.688.976.912c.4053.224.848.336 1.328.336.8853 0 1.6693-.384 2.352-1.152l.752.688c-.3414.4267-.7734.7893-1.296 1.088-.5227.288-1.136.432-1.84.432zm2.432-4.528c-.096-.7467-.368-1.3387-.816-1.776-.448-.448-1.0134-.672-1.696-.672-.448 0-.8694.112-1.264.336-.384.2133-.704.5067-.96.88-.2454.3733-.3947.784-.448 1.232z" fill-rule="evenodd"/><path clip-rule="evenodd" d="m98.6119 24.544c-.448-.256-.9653-.384-1.552-.384-.608 0-1.1573.1387-1.648.416-.4906.2667-.896.5973-1.216.992l.72.688c.3094-.32.6294-.576.96-.768.3414-.2027.736-.304 1.184-.304.576 0 1.04.176 1.392.528.3627.352.544.816.544 1.392v.016l-2.784.464c-.7786.128-1.3813.4053-1.808.832-.4266.416-.64.9333-.64 1.552 0 .384.1067.7467.32 1.088.224.3307.528.5973.912.8.3947.2027.8427.304 1.344.304.6187 0 1.168-.144 1.648-.432s.8214-.608 1.024-.96h.016v1.232h1.0401v-4.832c0-.5867-.1281-1.104-.3841-1.552-.256-.4587-.6133-.816-1.072-1.072zm-.88 6.288c-.384.224-.8106.336-1.28.336-.48 0-.8693-.1227-1.168-.368-.288-.2453-.432-.544-.432-.896 0-.3627.1334-.6667.4-.912.2667-.2453.672-.416 1.216-.512l2.528-.416v.544c0 .48-.112.9173-.336 1.312-.224.384-.5333.688-.928.912z" fill-rule="evenodd"/><path d="m103.279 32h-1.088v-11.2h1.088z"/><path d="m106.692 31.504c.374.384.896.576 1.568.576.214 0 .422-.0267.624-.08.203-.0427.368-.096.496-.16v-1.056c-.341.16-.666.24-.976.24-.362 0-.65-.112-.864-.336-.202-.224-.304-.544-.304-.96v-4.352h1.888v-1.056h-1.888v-2.56h-.976v1.824c0 .2453-.058.432-.176.56-.106.1173-.256.176-.448.176h-.976v1.056h1.488v4.416c0 .7467.182 1.3173.544 1.712z"/><path d="m110.875 32v-11.2h1.088v4.752h.016c.203-.3627.528-.6827.976-.96.459-.288.971-.432 1.536-.432.587 0 1.115.1387 1.584.416s.837.6667 1.104 1.168.4 1.0773.4 1.728v4.528h-1.088v-4.528c0-.672-.203-1.216-.608-1.632-.395-.416-.901-.624-1.52-.624-.448 0-.853.112-1.216.336-.363.2133-.651.512-.864.896s-.32.816-.32 1.296v4.256z"/><path d="m121.021 31.632c.598.352 1.243.528 1.936.528.704 0 1.328-.16 1.872-.48.555-.32.987-.6933 1.296-1.12l-.8-.656c-.266.3307-.597.6133-.992.848-.394.2347-.853.352-1.376.352-.501 0-.965-.128-1.392-.384-.416-.256-.752-.608-1.008-1.056-.245-.4587-.368-.96-.368-1.504s.123-1.04.368-1.488c.256-.4587.592-.816 1.008-1.072.427-.256.891-.384 1.392-.384.928 0 1.707.3893 2.336 1.168l.8-.656c-.309-.416-.736-.7787-1.28-1.088-.533-.32-1.152-.48-1.856-.48-.693 0-1.338.1813-1.936.544-.586.352-1.056.832-1.408 1.44-.341.608-.512 1.28-.512 2.016s.171 1.408.512 2.016c.352.608.822 1.0933 1.408 1.456z"/><path clip-rule="evenodd" d="m130.294 24.16c.587 0 1.104.128 1.552.384.459.256.816.6133 1.072 1.072.256.448.384.9653.384 1.552v4.832h-1.04v-1.232h-.016c-.202.352-.544.672-1.024.96s-1.029.432-1.648.432c-.501 0-.949-.1013-1.344-.304-.384-.2027-.688-.4693-.912-.8-.213-.3413-.32-.704-.32-1.088 0-.6187.214-1.136.64-1.552.427-.4267 1.03-.704 1.808-.832l2.784-.464v-.016c0-.576-.181-1.04-.544-1.392-.352-.352-.816-.528-1.392-.528-.448 0-.842.1013-1.184.304-.33.192-.65.448-.96.768l-.72-.688c.32-.3947.726-.7253 1.216-.992.491-.2773 1.04-.416 1.648-.416zm-.608 7.008c.47 0 .896-.112 1.28-.336.395-.224.704-.528.928-.912.224-.3947.336-.832.336-1.312v-.544l-2.528.416c-.544.096-.949.2667-1.216.512-.266.2453-.4.5493-.4.912 0 .352.144.6507.432.896.299.2453.688.368 1.168.368z" fill-rule="evenodd"/><path d="m136.433 24.32h-1.088v7.68h1.088v-4.16c0-.4907.107-.9333.32-1.328.224-.3947.523-.704.896-.928s.784-.336 1.232-.336c.149 0 .299.0107.448.032v-1.12h-.352c-.576 0-1.093.1387-1.552.416-.448.2773-.773.592-.976.944h-.016z"/><path clip-rule="evenodd" d="m143.679 32.16c-.693 0-1.333-.176-1.92-.528-.586-.3627-1.056-.848-1.408-1.456s-.528-1.28-.528-2.016c0-.7467.171-1.424.512-2.032.342-.608.8-1.088 1.376-1.44s1.206-.528 1.888-.528c.672 0 1.28.1653 1.824.496.555.3307.992.7947 1.312 1.392s.48 1.2693.48 2.016c0 .1707-.01.3413-.032.512h-6.24c.054.4693.208.896.464 1.28s.582.688.976.912c.406.224.848.336 1.328.336.886 0 1.67-.384 2.352-1.152l.752.688c-.341.4267-.773.7893-1.296 1.088-.522.288-1.136.432-1.84.432zm2.432-4.528c-.096-.7467-.368-1.3387-.816-1.776-.448-.448-1.013-.672-1.696-.672-.448 0-.869.112-1.264.336-.384.2133-.704.5067-.96.88-.245.3733-.394.784-.448 1.232z" fill-rule="evenodd"/><path d="m74.0082 40.6881v3.312h.544v-3.312h.944v-.528h-.944v-.664c0-.208.0506-.368.152-.48.1066-.112.2506-.168.432-.168.1493 0 .312.04.488.12v-.528c-.064-.032-.1467-.0587-.248-.08-.1014-.0267-.2054-.04-.312-.04-.336 0-.5974.0986-.784.296-.1814.192-.272.472-.272.84v.704h-.744v.528z"/><path clip-rule="evenodd" d="m77.0082 43.8161c.2987.176.624.264.976.264s.6774-.088.976-.264c.2987-.1814.536-.424.712-.728s.264-.64.264-1.008-.088-.704-.264-1.008-.4133-.544-.712-.72c-.2986-.1814-.624-.272-.976-.272s-.6773.0906-.976.272c-.2986.176-.536.416-.712.72s-.264.64-.264 1.008.088.704.264 1.008.4134.5466.712.728zm1.68-.456c-.2133.128-.448.192-.704.192s-.4933-.064-.712-.192c-.2133-.128-.384-.304-.512-.528-.1226-.2294-.184-.48-.184-.752s.0614-.52.184-.744c.128-.2294.2987-.408.512-.536.2187-.128.456-.192.712-.192s.4907.064.704.192c.2187.128.3894.3066.512.536.128.224.192.472.192.744s-.064.5226-.192.752c-.1226.224-.2933.4-.512.528z" fill-rule="evenodd"/><path d="m80.9368 40.1601h.544v.6h.008c.1014-.176.264-.3334.488-.472.2294-.1387.488-.208.776-.208h.176v.56c-.0746-.0107-.1493-.016-.224-.016-.224 0-.4293.056-.616.168-.1866.112-.336.2666-.448.464-.1066.1973-.16.4186-.16.664v2.08h-.544z"/><path d="m84.2621 40.1601h-.544v3.84h.544v-2.144c0-.3787.0987-.68.296-.904.2027-.2294.456-.344.76-.344.2773 0 .5067.1013.688.304.1867.1973.28.4666.28.808v2.28h.544v-2.144c0-.3787.0987-.68.296-.904.2027-.2294.456-.344.76-.344.2773 0 .5067.1013.688.304.1813.1973.272.4666.272.808v2.28h.544v-2.28c0-.3254-.064-.6107-.192-.856-.128-.2507-.3013-.4427-.52-.576-.2133-.1387-.4507-.208-.712-.208-.3253 0-.6053.08-.84.24-.2293.16-.3867.336-.472.528h-.016c-.0907-.192-.2453-.368-.464-.528s-.4747-.24-.768-.24c-.2773 0-.5173.0693-.72.208-.1973.1386-.336.2933-.416.464h-.008z"/><path clip-rule="evenodd" d="m92.2805 44.0801c-.3466 0-.6666-.088-.96-.264-.2933-.1814-.528-.424-.704-.728s-.264-.64-.264-1.008c0-.3734.0854-.712.256-1.016.1707-.304.4-.544.688-.72s.6027-.264.944-.264c.336 0 .64.0826.912.248.2774.1653.496.3973.656.696.16.2986.24.6346.24 1.008 0 .0853-.0053.1706-.016.256h-3.12c.0267.2346.104.448.232.64s.2907.344.488.456c.2027.112.424.168.664.168.4427 0 .8347-.192 1.176-.576l.376.344c-.1706.2133-.3866.3946-.648.544-.2613.144-.568.216-.92.216zm1.216-2.264c-.048-.3734-.184-.6694-.408-.888-.224-.224-.5066-.336-.848-.336-.224 0-.4346.056-.632.168-.192.1066-.352.2533-.48.44-.1226.1866-.1973.392-.224.616z" fill-rule="evenodd"/><path d="m95.5512 40.1601h-.544v3.84h.544v-2.08c0-.2454.0533-.4667.16-.664.112-.1974.2613-.352.448-.464.1866-.112.392-.168.616-.168.0746 0 .1493.0053.224.016v-.56h-.176c-.288 0-.5467.0693-.776.208-.224.1386-.3867.296-.488.472h-.008z"/><path d="m98.3724 44.0001h-.544v-5.6h.544z"/><path d="m102.855 40.1601h-.568l-1.128 3.176h-.016l-1.3838-3.176h-.592l1.6958 3.848-.232.576c-.149.384-.389.576-.7198.576-.08 0-.1573-.0107-.232-.032-.0693-.0214-.128-.0454-.176-.072v.528c.1387.064.2907.096.456.096.2988 0 .5438-.088.7358-.264.198-.1707.366-.4427.504-.816z"/><path clip-rule="evenodd" d="m105.559 38.4001h2.096c.347 0 .659.0773.936.232.283.1546.504.368.664.64.16.2666.24.56.24.88s-.08.616-.24.888c-.16.2666-.381.4773-.664.632-.277.1546-.589.232-.936.232h-1.496v2.096h-.6zm2.096 2.936c.363 0 .659-.112.888-.336.235-.224.352-.5067.352-.848 0-.224-.053-.424-.16-.6-.107-.1814-.253-.3227-.44-.424-.187-.1067-.4-.16-.64-.16h-1.496v2.368z" fill-rule="evenodd"/><path d="m111.029 38.4001h-.544v5.6h.544v-2.128c0-.24.053-.456.16-.648.106-.192.25-.3414.432-.448.181-.112.384-.168.608-.168.309 0 .562.104.76.312.202.208.304.48.304.816v2.264h.544v-2.264c0-.3254-.067-.6134-.2-.864-.134-.2507-.318-.4454-.552-.584-.235-.1387-.499-.208-.792-.208-.283 0-.539.072-.768.216-.224.1386-.387.2986-.488.48h-.008z"/><path clip-rule="evenodd" d="m116.446 40.0801c.293 0 .552.064.776.192.229.128.408.3066.536.536.128.224.192.4826.192.776v2.416h-.52v-.616h-.008c-.101.176-.272.336-.512.48s-.515.216-.824.216c-.251 0-.475-.0507-.672-.152-.192-.1014-.344-.2347-.456-.4-.107-.1707-.16-.352-.16-.544 0-.3094.107-.568.32-.776.213-.2134.515-.352.904-.416l1.392-.232v-.008c0-.288-.091-.52-.272-.696-.176-.176-.408-.264-.696-.264-.224 0-.421.0506-.592.152-.165.096-.325.224-.48.384l-.36-.344c.16-.1974.363-.3627.608-.496.245-.1387.52-.208.824-.208zm-.304 3.504c.235 0 .448-.056.64-.168.197-.112.352-.264.464-.456.112-.1974.168-.416.168-.656v-.272l-1.264.208c-.272.048-.475.1333-.608.256-.133.1226-.2.2746-.2.456 0 .176.072.3253.216.448.149.1226.344.184.584.184z" fill-rule="evenodd"/><path d="m119.715 40.1601h-.544v3.84h.544v-2.08c0-.2454.054-.4667.16-.664.112-.1974.262-.352.448-.464.187-.112.392-.168.616-.168.075 0 .15.0053.224.016v-.56h-.176c-.288 0-.546.0693-.776.208-.224.1386-.386.296-.488.472h-.008z"/><path d="m121.952 40.1601h.544v.592h.008c.08-.1707.219-.3254.416-.464.203-.1387.443-.208.72-.208.294 0 .55.08.768.24.219.16.374.336.464.528h.016c.086-.192.243-.368.472-.528.235-.16.515-.24.84-.24.262 0 .499.0693.712.208.219.1333.392.3253.52.576.128.2453.192.5306.192.856v2.28h-.544v-2.28c0-.3414-.09-.6107-.272-.808-.181-.2027-.41-.304-.688-.304-.304 0-.557.1146-.76.344-.197.224-.296.5253-.296.904v2.144h-.544v-2.28c0-.3414-.093-.6107-.28-.808-.181-.2027-.41-.304-.688-.304-.304 0-.557.1146-.76.344-.197.224-.296.5253-.296.904v2.144h-.544z"/><path clip-rule="evenodd" d="m131.011 40.2721c-.224-.128-.483-.192-.776-.192-.304 0-.579.0693-.824.208-.245.1333-.448.2986-.608.496l.36.344c.155-.16.315-.288.48-.384.171-.1014.368-.152.592-.152.288 0 .52.088.696.264.181.176.272.408.272.696v.008l-1.392.232c-.389.064-.691.2026-.904.416-.213.208-.32.4666-.32.776 0 .192.053.3733.16.544.112.1653.264.2986.456.4.197.1013.421.152.672.152.309 0 .584-.072.824-.216s.411-.304.512-.48h.008v.616h.52v-2.416c0-.2934-.064-.552-.192-.776-.128-.2294-.307-.408-.536-.536zm-.44 3.144c-.192.112-.405.168-.64.168-.24 0-.435-.0614-.584-.184-.144-.1227-.216-.272-.216-.448 0-.1814.067-.3334.2-.456.133-.1227.336-.208.608-.256l1.264-.208v.272c0 .24-.056.4586-.168.656-.112.192-.267.344-.464.456z" fill-rule="evenodd"/><path d="m133.082 44.0001h-.624l1.432-2-1.312-1.84h.648l1.016 1.464h.016l1.008-1.464h.632l-1.312 1.84 1.432 2h-.656l-1.128-1.624h-.016z"/><path clip-rule="evenodd" d="m137.414 43.8161c.299.176.624.264.976.264s.678-.088.976-.264c.299-.1814.536-.424.712-.728s.264-.64.264-1.008-.088-.704-.264-1.008-.413-.544-.712-.72c-.298-.1814-.624-.272-.976-.272s-.677.0906-.976.272c-.298.176-.536.416-.712.72s-.264.64-.264 1.008.088.704.264 1.008.414.5466.712.728zm1.68-.456c-.213.128-.448.192-.704.192s-.493-.064-.712-.192c-.213-.128-.384-.304-.512-.528-.122-.2294-.184-.48-.184-.752s.062-.52.184-.744c.128-.2294.299-.408.512-.536.219-.128.456-.192.712-.192s.491.064.704.192c.219.128.39.3066.512.536.128.224.192.472.192.744s-.064.5226-.192.752c-.122.224-.293.4-.512.528z" fill-rule="evenodd"/><path clip-rule="evenodd" d="m143.403 38.4001h2.096c.347 0 .659.0773.936.232.283.1546.504.368.664.64.16.2666.24.56.24.88s-.08.616-.24.888c-.16.2666-.381.4773-.664.632-.277.1546-.589.232-.936.232h-1.496v2.096h-.6zm2.096 2.936c.363 0 .659-.112.888-.336.235-.224.352-.5067.352-.848 0-.224-.053-.424-.16-.6-.107-.1814-.253-.3227-.44-.424-.187-.1067-.4-.16-.64-.16h-1.496v2.368z" fill-rule="evenodd"/><path d="m148.872 38.4001h-.544v5.6h.544v-2.128c0-.24.054-.456.16-.648.107-.192.251-.3414.432-.448.182-.112.384-.168.608-.168.31 0 .563.104.76.312.203.208.304.48.304.816v2.264h.544v-2.264c0-.3254-.066-.6134-.2-.864-.133-.2507-.317-.4454-.552-.584-.234-.1387-.498-.208-.792-.208-.282 0-.538.072-.768.216-.224.1386-.386.2986-.488.48h-.008z"/><path clip-rule="evenodd" d="m154.29 40.0801c.293 0 .552.064.776.192.229.128.408.3066.536.536.128.224.192.4826.192.776v2.416h-.52v-.616h-.008c-.102.176-.272.336-.512.48s-.515.216-.824.216c-.251 0-.475-.0507-.672-.152-.192-.1014-.344-.2347-.456-.4-.107-.1707-.16-.352-.16-.544 0-.3094.106-.568.32-.776.213-.2134.514-.352.904-.416l1.392-.232v-.008c0-.288-.091-.52-.272-.696-.176-.176-.408-.264-.696-.264-.224 0-.422.0506-.592.152-.166.096-.326.224-.48.384l-.36-.344c.16-.1974.362-.3627.608-.496.245-.1387.52-.208.824-.208zm-.304 3.504c.234 0 .448-.056.64-.168.197-.112.352-.264.464-.456.112-.1974.168-.416.168-.656v-.272l-1.264.208c-.272.048-.475.1333-.608.256-.134.1226-.2.2746-.2.456 0 .176.072.3253.216.448.149.1226.344.184.584.184z" fill-rule="evenodd"/><path d="m157.559 40.1601h-.544v3.84h.544v-2.08c0-.2454.053-.4667.16-.664.112-.1974.261-.352.448-.464s.392-.168.616-.168c.075 0 .149.0053.224.016v-.56h-.176c-.288 0-.547.0693-.776.208-.224.1386-.387.296-.488.472h-.008z"/><path d="m159.796 40.1601h.544v.592h.008c.08-.1707.219-.3254.416-.464.203-.1387.443-.208.72-.208.294 0 .55.08.768.24.219.16.374.336.464.528h.016c.086-.192.243-.368.472-.528.235-.16.515-.24.84-.24.262 0 .499.0693.712.208.219.1333.392.3253.52.576.128.2453.192.5306.192.856v2.28h-.544v-2.28c0-.3414-.09-.6107-.272-.808-.181-.2027-.41-.304-.688-.304-.304 0-.557.1146-.76.344-.197.224-.296.5253-.296.904v2.144h-.544v-2.28c0-.3414-.093-.6107-.28-.808-.181-.2027-.41-.304-.688-.304-.304 0-.557.1146-.76.344-.197.224-.296.5253-.296.904v2.144h-.544z"/><path clip-rule="evenodd" d="m168.855 40.2721c-.224-.128-.483-.192-.776-.192-.304 0-.579.0693-.824.208-.246.1333-.448.2986-.608.496l.36.344c.154-.16.314-.288.48-.384.17-.1014.368-.152.592-.152.288 0 .52.088.696.264.181.176.272.408.272.696v.008l-1.392.232c-.39.064-.691.2026-.904.416-.214.208-.32.4666-.32.776 0 .192.053.3733.16.544.112.1653.264.2986.456.4.197.1013.421.152.672.152.309 0 .584-.072.824-.216s.41-.304.512-.48h.008v.616h.52v-2.416c0-.2934-.064-.552-.192-.776-.128-.2294-.307-.408-.536-.536zm-.44 3.144c-.192.112-.406.168-.64.168-.24 0-.435-.0614-.584-.184-.144-.1227-.216-.272-.216-.448 0-.1814.066-.3334.2-.456.133-.1227.336-.208.608-.256l1.264-.208v.272c0 .24-.056.4586-.168.656-.112.192-.267.344-.464.456z" fill-rule="evenodd"/><path d="m172.468 44.0801c-.347 0-.669-.088-.968-.264-.293-.1814-.528-.424-.704-.728-.171-.304-.256-.64-.256-1.008s.085-.704.256-1.008c.176-.304.411-.544.704-.72.299-.1814.621-.272.968-.272.352 0 .661.08.928.24.272.1546.485.336.64.544l-.4.328c-.315-.3894-.704-.584-1.168-.584-.251 0-.483.064-.696.192-.208.128-.376.3066-.504.536-.123.224-.184.472-.184.744s.061.5226.184.752c.128.224.296.4.504.528.213.128.445.192.696.192.261 0 .491-.0587.688-.176.197-.1174.363-.2587.496-.424l.4.328c-.155.2133-.371.4-.648.56-.272.16-.584.24-.936.24z"/><path d="m178.136 40.1601h-.568l-1.128 3.176h-.016l-1.384-3.176h-.592l1.696 3.848-.232.576c-.149.384-.389.576-.72.576-.08 0-.157-.0107-.232-.032-.069-.0214-.128-.0454-.176-.072v.528c.139.064.291.096.456.096.299 0 .544-.088.736-.264.198-.1707.366-.4427.504-.816z"/><path d="m182.304 44.0801c-.416 0-.792-.0827-1.128-.248-.33-.1707-.589-.368-.776-.592l.416-.4c.166.1866.374.3466.624.48.251.128.539.192.864.192.416 0 .736-.096.96-.288.23-.192.344-.4374.344-.736 0-.1974-.058-.36-.176-.488-.117-.1334-.264-.2374-.44-.312-.176-.0747-.413-.1574-.712-.248-.373-.1174-.674-.2267-.904-.328-.224-.1067-.416-.2614-.576-.464-.16-.208-.24-.48-.24-.816 0-.272.075-.5227.224-.752.15-.2347.363-.4187.64-.552.278-.1387.598-.208.96-.208.358 0 .68.0693.968.208.294.1386.526.2986.696.48l-.408.4c-.138-.1387-.314-.2587-.528-.36-.213-.1067-.456-.16-.728-.16-.384 0-.685.0906-.904.272-.213.1813-.32.4053-.32.672 0 .1973.059.3626.176.496.118.128.264.2293.44.304.176.0746.414.1573.712.248.368.112.667.2213.896.328.235.1066.432.264.592.472.16.2026.24.472.24.808 0 .2933-.077.5626-.232.808-.154.24-.378.432-.672.576-.288.1386-.624.208-1.008.208z"/><path clip-rule="evenodd" d="m185.992 43.8161c.294.176.614.264.96.264.352 0 .659-.072.92-.216.262-.1494.478-.3307.648-.544l-.376-.344c-.341.384-.733.576-1.176.576-.24 0-.461-.056-.664-.168-.197-.112-.36-.264-.488-.456s-.205-.4054-.232-.64h3.12c.011-.0854.016-.1707.016-.256 0-.3734-.08-.7094-.24-1.008-.16-.2987-.378-.5307-.656-.696-.272-.1654-.576-.248-.912-.248-.341 0-.656.088-.944.264s-.517.416-.688.72c-.17.304-.256.6426-.256 1.016 0 .368.088.704.264 1.008s.411.5466.704.728zm1.768-2.888c.224.2186.36.5146.408.888h-2.592c.027-.224.102-.4294.224-.616.128-.1867.288-.3334.48-.44.198-.112.408-.168.632-.168.342 0 .624.112.848.336z" fill-rule="evenodd"/><path d="m189.679 40.1601h.544v.6h.008c.101-.176.264-.3334.488-.472.229-.1387.488-.208.776-.208h.176v.56c-.075-.0107-.149-.016-.224-.016-.224 0-.429.056-.616.168s-.336.2666-.448.464c-.107.1973-.16.4186-.16.664v2.08h-.544z"/><path d="m193.657 44.0001h.6l1.544-3.84h-.568l-1.256 3.192h-.016l-1.264-3.192h-.584z"/><path d="m196.866 39.3201c-.096 0-.181-.0347-.256-.104-.069-.0694-.104-.1547-.104-.256 0-.1014.035-.1867.104-.256.075-.0694.16-.104.256-.104.101 0 .187.0346.256.104.075.0693.112.1546.112.256 0 .1013-.037.1866-.112.256-.069.0693-.155.104-.256.104z"/><path d="m199.133 43.8161c.299.176.621.264.968.264.352 0 .664-.08.936-.24.277-.16.493-.3467.648-.56l-.4-.328c-.133.1653-.299.3066-.496.424-.197.1173-.427.176-.688.176-.251 0-.483-.064-.696-.192-.208-.128-.376-.304-.504-.528-.123-.2294-.184-.48-.184-.752s.061-.52.184-.744c.128-.2294.296-.408.504-.536.213-.128.445-.192.696-.192.464 0 .853.1946 1.168.584l.4-.328c-.155-.208-.368-.3894-.64-.544-.267-.16-.576-.24-.928-.24-.347 0-.669.0906-.968.272-.293.176-.528.416-.704.72-.171.304-.256.64-.256 1.008s.085.704.256 1.008c.176.304.411.5466.704.728z"/><path clip-rule="evenodd" d="m204.171 44.0801c-.347 0-.667-.088-.96-.264-.293-.1814-.528-.424-.704-.728s-.264-.64-.264-1.008c0-.3734.085-.712.256-1.016s.4-.544.688-.72.603-.264.944-.264c.336 0 .64.0826.912.248.277.1653.496.3973.656.696.16.2986.24.6346.24 1.008 0 .0853-.005.1706-.016.256h-3.12c.027.2346.104.448.232.64s.291.344.488.456c.203.112.424.168.664.168.443 0 .835-.192 1.176-.576l.376.344c-.171.2133-.387.3946-.648.544-.261.144-.568.216-.92.216zm1.216-2.264c-.048-.3734-.184-.6694-.408-.888-.224-.224-.507-.336-.848-.336-.224 0-.435.056-.632.168-.192.1066-.352.2533-.48.44-.123.1866-.197.392-.224.616z" fill-rule="evenodd"/><path d="m207.178 43.8721c.256.1386.536.208.84.208.282 0 .53-.0534.744-.16.213-.1067.376-.248.488-.424.117-.1814.176-.3787.176-.592 0-.2347-.062-.424-.184-.568-.118-.144-.262-.2534-.432-.328-.166-.08-.382-.16-.648-.24-.294-.0854-.512-.168-.656-.248-.139-.0854-.208-.208-.208-.368 0-.1547.066-.2854.2-.392.138-.112.325-.168.56-.168.341 0 .642.1306.904.392l.368-.36c-.144-.1494-.323-.2774-.536-.384-.214-.1067-.459-.16-.736-.16-.251 0-.478.0506-.68.152-.198.1013-.352.2346-.464.4-.107.16-.16.3333-.16.52 0 .224.058.408.176.552.117.144.258.2533.424.328.17.0746.389.1546.656.24.298.0853.52.1706.664.256.144.0853.216.2106.216.376 0 .192-.078.352-.232.48-.15.1226-.36.184-.632.184-.219 0-.424-.0534-.616-.16-.192-.1067-.342-.2267-.448-.36l-.368.36c.133.1706.328.3253.584.464z"/><path d="m197.138 44.0001h-.544v-3.84h.544z"/></g></svg>