<svg fill="none" height="48" viewBox="0 0 172 48" width="172" xmlns="http://www.w3.org/2000/svg"><g fill="#212121"><path d="m74.8002 16v-14h5.96c.9467 0 1.7934.20667 2.54.62.76.41333 1.3467.98 1.76 1.7.4267.70667.64 1.5.64 2.38s-.2133 1.68-.64 2.4c-.4133.70667-1 1.2667-1.76 1.68-.7466.4133-1.5933.62-2.54.62h-2.96v4.6zm5.86-7.3c.5734 0 1.0534-.19333 1.44-.58.4-.4.6-.87333.6-1.42s-.2-1.01333-.6-1.4c-.3866-.4-.8666-.6-1.44-.6h-2.86v4z"/><path d="m87.201 16v-14h2.7v5.68h.06c.24-.4.6133-.76 1.12-1.08.52-.33333 1.1133-.5 1.78-.5.7067 0 1.3333.16667 1.88.5s.9733.81333 1.28 1.44c.32.61333.48 1.34667.48 2.2v5.76h-2.7v-5.4c0-.6-.1667-1.07333-.5-1.42-.3333-.36-.7667-.54-1.3-.54-.6133 0-1.12.21333-1.52.64-.3867.41333-.58.9533-.58 1.62v5.1z"/><path d="m102.396 6.1c.826 0 1.56.17333 2.2.52.653.33333 1.16.79333 1.52 1.38.36.57333.54 1.20667.54 1.9v6.1h-2.56v-1.34h-.06c-.24.3867-.62.74-1.14 1.06s-1.114.48-1.78.48c-.614 0-1.1671-.1267-1.6605-.38-.48-.2533-.86-.5933-1.14-1.02-.28-.44-.42-.9067-.42-1.4 0-.8267.26-1.5067.78-2.04s1.26-.8933 2.2205-1.08l3.06-.58c-.027-.38667-.2-.71333-.52-.98-.307-.28-.7-.42-1.18-.42-.827 0-1.58.38-2.2605 1.14l-1.54-1.48c.4267-.50667.9734-.94 1.6405-1.3.68-.37333 1.446-.56 2.3-.56zm-.5 7.94c.586 0 1.073-.2067 1.46-.62.4-.4133.6-.9533.6-1.62v-.32l-2.1.42c-.374.0667-.667.2067-.88.42-.214.2-.32.4267-.32.68 0 .3067.106.56.32.76.226.1867.533.28.92.28z"/><path d="m108.66 16v-9.7h2.7v1.2h.06c.24-.36.6-.68 1.08-.96.493-.29333 1.046-.44 1.66-.44h.46v2.9c-.32-.10667-.62-.16-.9-.16-.694 0-1.26.24-1.7.72-.44.4667-.66 1.0933-.66 1.88v4.56z"/><path d="m115.816 16v-9.7h2.7v1.38h.06c.187-.4.52-.76 1-1.08.48-.33333 1.047-.5 1.7-.5.667 0 1.247.17333 1.74.52.493.33333.84.70667 1.04 1.12h.08c.227-.41333.633-.78667 1.22-1.12.6-.34667 1.287-.52 2.06-.52.627 0 1.193.16667 1.7.5.52.33333.933.81333 1.24 1.44s.46 1.36.46 2.2v5.76h-2.7v-5.5c0-.58667-.153-1.04-.46-1.36-.293-.33333-.673-.5-1.14-.5-.533 0-.973.19333-1.32.58s-.52.9133-.52 1.58v5.2h-2.7v-5.5c0-.58667-.153-1.04-.46-1.36-.293-.33333-.673-.5-1.14-.5-.547 0-.993.19333-1.34.58s-.52.9133-.52 1.58v5.2z"/><path d="m136.716 6.1c.827 0 1.56.17333 2.2.52.653.33333 1.16.79333 1.52 1.38.36.57333.54 1.20667.54 1.9v6.1h-2.56v-1.34h-.06c-.24.3867-.62.74-1.14 1.06s-1.113.48-1.78.48c-.613 0-1.167-.1267-1.66-.38-.48-.2533-.86-.5933-1.14-1.02-.28-.44-.42-.9067-.42-1.4 0-.8267.26-1.5067.78-2.04s1.26-.8933 2.22-1.08l3.06-.58c-.027-.38667-.2-.71333-.52-.98-.307-.28-.7-.42-1.18-.42-.827 0-1.58.38-2.26 1.14l-1.54-1.48c.427-.50667.973-.94 1.64-1.3.68-.37333 1.447-.56 2.3-.56zm-.5 7.94c.587 0 1.073-.2067 1.46-.62.4-.4133.6-.9533.6-1.62v-.32l-2.1.42c-.373.0667-.667.2067-.88.42-.213.2-.32.4267-.32.68 0 .3067.107.56.32.76.227.1867.533.28.92.28z"/><path d="m144.805 16h-3.02l3.34-5-3.08-4.7h3.12l1.76 2.96h.06l1.78-2.96h3.02l-3.08 4.7 3.32 5h-3.12l-2.02-3.28h-.06z"/><path d="m157.334 16.2c-.96 0-1.84-.2267-2.64-.68-.787-.4533-1.414-1.0667-1.88-1.84-.454-.7733-.68-1.62-.68-2.54s.226-1.76667.68-2.54c.466-.77333 1.093-1.38 1.88-1.82.8-.45333 1.68-.68 2.64-.68.973 0 1.853.22667 2.64.68.8.44 1.426 1.04667 1.88 1.82.453.77333.68 1.62.68 2.54s-.227 1.7667-.68 2.54c-.454.7733-1.08 1.3867-1.88 1.84-.787.4533-1.667.68-2.64.68zm0-2.5c.68 0 1.26-.2467 1.74-.74s.72-1.1.72-1.82-.24-1.32-.72-1.8c-.48-.49333-1.06-.74-1.74-.74s-1.26.24667-1.74.74c-.467.48-.7 1.08-.7 1.8s.233 1.3267.7 1.82c.48.4933 1.06.74 1.74.74z"/><path d="m79.7042 32.16c-1.056 0-2.0266-.256-2.912-.768-.8853-.512-1.584-1.2107-2.096-2.096s-.768-1.8507-.768-2.896.256-2.0107.768-2.896 1.2107-1.584 2.096-2.096c.8854-.512 1.856-.768 2.912-.768 1.0134 0 1.92.224 2.72.672.8107.448 1.4294.9707 1.856 1.568l-.864.688c-.3733-.4907-.8746-.912-1.504-1.264-.6186-.352-1.3546-.528-2.208-.528-.832 0-1.6.2027-2.304.608s-1.2586.9653-1.664 1.68c-.4053.704-.608 1.4827-.608 2.336s.2027 1.632.608 2.336c.4054.704.96 1.264 1.664 1.68.704.4053 1.472.608 2.304.608.8534 0 1.6-.1813 2.24-.544.64-.3733 1.1574-.8107 1.552-1.312l.864.672c-.4586.6293-1.0933 1.1733-1.904 1.632-.8.4587-1.7173.688-2.752.688z"/><path d="m89.0215 32.16c-.704 0-1.3547-.176-1.952-.528-.5974-.3627-1.072-.848-1.424-1.456s-.528-1.28-.528-2.016.176-1.408.528-2.016.8266-1.088 1.424-1.44c.5973-.3627 1.248-.544 1.952-.544s1.3546.1813 1.952.544c.5973.352 1.072.832 1.424 1.44s.528 1.28.528 2.016-.176 1.408-.528 2.016-.8267 1.0933-1.424 1.456c-.5974.352-1.248.528-1.952.528zm0-1.056c.512 0 .9813-.128 1.408-.384.4373-.256.7786-.608 1.024-1.056.256-.4587.384-.96.384-1.504s-.128-1.04-.384-1.488c-.2454-.4587-.5867-.816-1.024-1.072-.4267-.256-.896-.384-1.408-.384s-.9867.128-1.424.384c-.4267.256-.768.6133-1.024 1.072-.2454.448-.368.944-.368 1.488s.1226 1.0453.368 1.504c.256.448.5973.8 1.024 1.056.4373.256.912.384 1.424.384z"/><path d="m94.5267 32v-7.68h1.088v1.184h.016c.16-.3413.4374-.6507.832-.928.4054-.2773.8854-.416 1.44-.416.5867 0 1.0987.16 1.536.48.4374.32.7463.672.9283 1.056h.032c.17-.384.485-.736.944-1.056.469-.32 1.029-.48 1.68-.48.522 0 .997.1387 1.424.416.437.2667.784.6507 1.04 1.152.256.4907.384 1.0613.384 1.712v4.56h-1.088v-4.56c0-.6827-.182-1.2213-.544-1.616-.363-.4053-.822-.608-1.376-.608-.608 0-1.115.2293-1.52.688-.395.448-.592 1.0507-.592 1.808v4.288h-1.0883v-4.56c0-.6827-.1866-1.2213-.56-1.616-.3626-.4053-.8213-.608-1.376-.608-.608 0-1.1146.2293-1.52.688-.3946.448-.592 1.0507-.592 1.808v4.288z"/><path d="m107.924 35.36v-11.04h1.088v1.328h.016c.213-.384.57-.7253 1.072-1.024.501-.3093 1.077-.464 1.728-.464.64 0 1.232.176 1.776.528.554.3413.997.816 1.328 1.424.33.608.496 1.2907.496 2.048s-.166 1.44-.496 2.048c-.331.608-.774 1.088-1.328 1.44-.544.3413-1.136.512-1.776.512-.651 0-1.227-.1493-1.728-.448-.502-.3093-.859-.656-1.072-1.04h-.016v4.688zm3.776-4.256c.469 0 .906-.128 1.312-.384.405-.256.725-.608.96-1.056.245-.448.368-.9493.368-1.504 0-.5653-.123-1.072-.368-1.52-.235-.448-.555-.7947-.96-1.04-.406-.256-.843-.384-1.312-.384-.491 0-.944.128-1.36.384-.406.2453-.731.592-.976 1.04-.235.448-.352.9547-.352 1.52 0 .5547.117 1.056.352 1.504.245.448.57.8.976 1.056.416.256.869.384 1.36.384z"/><path d="m120.4 32.16c-.704 0-1.355-.176-1.952-.528-.598-.3627-1.072-.848-1.424-1.456s-.528-1.28-.528-2.016.176-1.408.528-2.016.826-1.088 1.424-1.44c.597-.3627 1.248-.544 1.952-.544s1.354.1813 1.952.544c.597.352 1.072.832 1.424 1.44s.528 1.28.528 2.016-.176 1.408-.528 2.016-.827 1.0933-1.424 1.456c-.598.352-1.248.528-1.952.528zm0-1.056c.512 0 .981-.128 1.408-.384.437-.256.778-.608 1.024-1.056.256-.4587.384-.96.384-1.504s-.128-1.04-.384-1.488c-.246-.4587-.587-.816-1.024-1.072-.427-.256-.896-.384-1.408-.384s-.987.128-1.424.384c-.427.256-.768.6133-1.024 1.072-.246.448-.368.944-.368 1.488s.122 1.0453.368 1.504c.256.448.597.8 1.024 1.056.437.256.912.384 1.424.384z"/><path d="m128.913 32.16c-.587 0-1.115-.1387-1.584-.416s-.837-.6667-1.104-1.168-.4-1.0773-.4-1.728v-4.528h1.088v4.528c0 .672.197 1.216.592 1.632.405.416.917.624 1.536.624.448 0 .853-.1067 1.216-.32.363-.224.651-.528.864-.912s.32-.816.32-1.296v-4.256h1.088v7.68h-1.088v-1.232h-.016c-.192.352-.517.672-.976.96-.448.288-.96.432-1.536.432z"/><path d="m134.661 32v-7.68h1.088v1.232h.016c.203-.3627.528-.6827.976-.96.459-.288.971-.432 1.536-.432.587 0 1.115.1387 1.584.416s.837.6667 1.104 1.168.4 1.0773.4 1.728v4.528h-1.088v-4.528c0-.672-.203-1.216-.608-1.632-.395-.416-.901-.624-1.52-.624-.448 0-.853.112-1.216.336-.363.2133-.651.512-.864.896s-.32.816-.32 1.296v4.256z"/><path d="m146.489 32.16c-.64 0-1.237-.1707-1.792-.512-.544-.352-.981-.832-1.312-1.44-.33-.608-.496-1.2907-.496-2.048s.166-1.44.496-2.048c.331-.608.768-1.0827 1.312-1.424.555-.352 1.152-.528 1.792-.528.651 0 1.227.1547 1.728.464.502.2987.859.64 1.072 1.024h.032v-4.848h1.072v11.2h-1.072v-1.328h-.032c-.213.384-.57.7307-1.072 1.04-.501.2987-1.077.448-1.728.448zm.128-1.056c.491 0 .939-.128 1.344-.384.416-.256.747-.608.992-1.056.246-.448.368-.9493.368-1.504 0-.5653-.122-1.072-.368-1.52-.245-.448-.576-.7947-.992-1.04-.405-.256-.853-.384-1.344-.384-.469 0-.906.128-1.312.384-.405.2453-.73.592-.976 1.04-.234.448-.352.9547-.352 1.52 0 .5547.118 1.056.352 1.504.246.448.571.8.976 1.056.406.256.843.384 1.312.384z"/><path d="m153.763 32h-1.088v-7.68h1.088zm-.544-9.36c-.192 0-.362-.0693-.512-.208-.138-.1387-.208-.3093-.208-.512s.07-.3733.208-.512c.15-.1387.32-.208.512-.208.203 0 .374.0693.512.208.15.1387.224.3093.224.512s-.074.3733-.224.512c-.138.1387-.309.208-.512.208z"/><path d="m155.961 32v-7.68h1.088v1.232h.016c.203-.3627.528-.6827.976-.96.459-.288.971-.432 1.536-.432.587 0 1.115.1387 1.584.416s.837.6667 1.104 1.168.4 1.0773.4 1.728v4.528h-1.088v-4.528c0-.672-.203-1.216-.608-1.632-.395-.416-.901-.624-1.52-.624-.448 0-.853.112-1.216.336-.363.2133-.651.512-.864.896s-.32.816-.32 1.296v4.256z"/><path d="m167.789 35.36c-.693 0-1.344-.1707-1.952-.512-.608-.3307-1.045-.6933-1.312-1.088l.784-.72c.203.3093.534.5973.992.864.47.2667.966.4 1.488.4.768 0 1.392-.2667 1.872-.8s.72-1.216.72-2.048v-1.072h-.016c-.266.448-.645.8053-1.136 1.072-.49.256-1.008.384-1.552.384-.629 0-1.21-.1653-1.744-.496-.533-.3307-.96-.7893-1.28-1.376-.309-.5867-.464-1.2427-.464-1.968s.155-1.3813.464-1.968c.32-.5867.747-1.0453 1.28-1.376.534-.3307 1.115-.496 1.744-.496.608 0 1.152.1493 1.632.448s.832.6293 1.056.992h.016v-1.28h1.088v7.136c0 .736-.16 1.3973-.48 1.984-.32.5973-.762 1.0667-1.328 1.408-.554.3413-1.178.512-1.872.512zm.016-4.576c.48 0 .912-.1173 1.296-.352.395-.2453.704-.576.928-.992.235-.4267.352-.9067.352-1.44s-.117-1.0133-.352-1.44c-.224-.4267-.533-.7573-.928-.992-.384-.2347-.816-.352-1.296-.352-.458 0-.885.1173-1.28.352-.384.2347-.688.5653-.912.992s-.336.9067-.336 1.44.112 1.0133.336 1.44c.224.416.528.7467.912.992.395.2347.822.352 1.28.352z"/></g><path d="m60 0h1v48h-1z" fill="#e0e0e0"/><circle cx="24" cy="24" fill="#1565c0" r="24"/><path d="m16.5517 27.0894c.3353.578.956.9379 1.6195.9379 1.0347 0 1.8762-.8419 1.8762-1.8767 0-.3312-.0856-.6549-.2485-.9362-.6059-1.048-.9259-2.2401-.9259-3.4483 0-3.8055 3.0956-6.9018 6.9017-6.9018 1.0339 0 1.875-.8415 1.875-1.8761 0-1.0342-.8388-1.8758-1.8692-1.8758-5.8769 0-10.6579 4.7794-10.6579 10.6537 0 1.8654.4941 3.7062 1.4291 5.3233z" fill="#fff"/><path d="m20.1214 21.7661c0-1.6393.6977-3.1153 1.8123-4.1477-.0963 1.1668.471 2.3392 1.5527 2.9636.4835.2797 1.0209.4212 1.5594.4212.961-.0006 1.9336.2395 2.8246.754 1.4202.8201 2.3496 2.1623 2.6866 3.644-.9629-.6668-2.2624-.7621-3.3432-.1378-.4845.2793-.8748.6734-1.1445 1.1393-.48.834-1.1743 1.5558-2.0658 2.0702-1.4199.8191-3.0468.9531-4.498.5048 1.0578-.5012 1.7898-1.5783 1.7898-2.8271 0-.5582-.1458-1.0946-.4147-1.5606-.4812-.8325-.7592-1.7954-.7592-2.8239z" fill="#fff"/><path d="m32.6497 32.919c-.3282 0-.6536-.0871-.9412-.2535-.896-.5174-1.2047-1.6662-.6869-2.5617 1.9016-3.296.7688-7.5251-2.5266-9.4281-1.0443-.6028-2.2349-.9215-3.4434-.9215-.3308 0-.6539-.0876-.9419-.2535-.8953-.5176-1.2026-1.6673-.6858-2.5631.3311-.574.9528-.9317 1.6219-.9332 1.8704 0 3.7097.4925 5.3242 1.4244 2.463 1.4223 4.2256 3.7202 4.9622 6.471.7364 2.7499.3582 5.6216-1.0647 8.0858-.332.5758-.9529.9334-1.6178.9334z" fill="#fff"/><path d="m11.9477 28.8985c1.897 3.2878 5.4384 5.3307 9.2413 5.3307 1.8586 0 3.696-.4939 5.3142-1.428 1.6157-.933 2.9621-2.2812 3.8942-3.8984.3337-.5788.3354-1.2963.0033-1.8714-.4976-.8617-1.6944-1.1893-2.5623-.6865-.2868.165-.5241.4008-.6873.6821-.6047 1.0495-1.4768 1.9234-2.5238 2.5272-1.0487.6053-2.2403.9255-3.4442.9255-2.4609 0-4.7536-1.3226-5.9837-3.4518-.4959-.8611-1.6921-1.1873-2.5619-.6851-.8955.5165-1.2055 1.6633-.6898 2.5557z" fill="#fff"/><path d="m74.0082 44.0001v-3.312h-.744v-.528h.744v-.704c0-.368.0906-.648.272-.84.1866-.1974.448-.296.784-.296.1066 0 .2106.0133.312.04.1013.0213.184.048.248.08v.528c-.176-.08-.3387-.12-.488-.12-.1814 0-.3254.056-.432.168-.1014.112-.152.272-.152.48v.664h.944v.528h-.944v3.312z" fill="#757575"/><path d="m77.9842 44.0801c-.352 0-.6773-.088-.976-.264-.2986-.1814-.536-.424-.712-.728s-.264-.64-.264-1.008.088-.704.264-1.008.4134-.544.712-.72c.2987-.1814.624-.272.976-.272s.6774.0906.976.272c.2987.176.536.416.712.72s.264.64.264 1.008-.088.704-.264 1.008-.4133.5466-.712.728c-.2986.176-.624.264-.976.264zm0-.528c.256 0 .4907-.064.704-.192.2187-.128.3894-.304.512-.528.128-.2294.192-.48.192-.752s-.064-.52-.192-.744c-.1226-.2294-.2933-.408-.512-.536-.2133-.128-.448-.192-.704-.192s-.4933.064-.712.192c-.2133.128-.384.3066-.512.536-.1226.224-.184.472-.184.744s.0614.5226.184.752c.128.224.2987.4.512.528.2187.128.456.192.712.192z" fill="#757575"/><path d="m80.9368 44.0001v-3.84h.544v.6h.008c.1014-.176.264-.3334.488-.472.2294-.1387.488-.208.776-.208h.176v.56c-.0746-.0107-.1493-.016-.224-.016-.224 0-.4293.056-.616.168-.1866.112-.336.2666-.448.464-.1066.1973-.16.4186-.16.664v2.08z" fill="#757575"/><path d="m83.7181 44.0001v-3.84h.544v.592h.008c.08-.1707.2187-.3254.416-.464.2027-.1387.4427-.208.72-.208.2933 0 .5493.08.768.24s.3733.336.464.528h.016c.0853-.192.2427-.368.472-.528.2347-.16.5147-.24.84-.24.2613 0 .4987.0693.712.208.2187.1333.392.3253.52.576.128.2453.192.5306.192.856v2.28h-.544v-2.28c0-.3414-.0907-.6107-.272-.808-.1813-.2027-.4107-.304-.688-.304-.304 0-.5573.1146-.76.344-.1973.224-.296.5253-.296.904v2.144h-.544v-2.28c0-.3414-.0933-.6107-.28-.808-.1813-.2027-.4107-.304-.688-.304-.304 0-.5573.1146-.76.344-.1973.224-.296.5253-.296.904v2.144z" fill="#757575"/><path d="m92.2805 44.0801c-.3466 0-.6666-.088-.96-.264-.2933-.1814-.528-.424-.704-.728s-.264-.64-.264-1.008c0-.3734.0854-.712.256-1.016.1707-.304.4-.544.688-.72s.6027-.264.944-.264c.336 0 .64.0826.912.248.2774.1653.496.3973.656.696.16.2986.24.6346.24 1.008 0 .0853-.0053.1706-.016.256h-3.12c.0267.2346.104.448.232.64s.2907.344.488.456c.2027.112.424.168.664.168.4427 0 .8347-.192 1.176-.576l.376.344c-.1706.2133-.3866.3946-.648.544-.2613.144-.568.216-.92.216zm1.216-2.264c-.048-.3734-.184-.6694-.408-.888-.224-.224-.5066-.336-.848-.336-.224 0-.4346.056-.632.168-.192.1066-.352.2533-.48.44-.1226.1866-.1973.392-.224.616z" fill="#757575"/><path d="m95.0072 44.0001v-3.84h.544v.6h.008c.1013-.176.264-.3334.488-.472.2293-.1387.488-.208.776-.208h.176v.56c-.0747-.0107-.1494-.016-.224-.016-.224 0-.4294.056-.616.168-.1867.112-.336.2666-.448.464-.1067.1973-.16.4186-.16.664v2.08z" fill="#757575"/><path d="m98.3724 44.0001h-.544v-5.6h.544z" fill="#757575"/><path d="m102.287 40.1601h.568l-1.656 4.44c-.138.3733-.306.6453-.504.816-.192.176-.437.264-.7358.264-.1653 0-.3173-.032-.456-.096v-.528c.048.0266.1067.0506.176.072.0747.0213.152.032.232.032.3308 0 .5708-.192.7198-.576l.232-.576-1.6958-3.848h.592l1.3838 3.176h.016z" fill="#757575"/><path d="m105.559 44.0001v-5.6h2.144c.309 0 .584.064.824.192.245.1226.435.2933.568.512.133.2186.2.4613.2.728 0 .288-.075.536-.224.744-.144.2026-.309.344-.496.424.155.048.307.136.456.264.155.128.283.2906.384.488.107.1973.16.416.16.656 0 .2933-.075.5626-.224.808-.149.24-.36.432-.632.576-.272.1386-.579.208-.92.208zm2.144-3.224c.309 0 .549-.0827.72-.248.176-.1707.264-.3974.264-.68 0-.2667-.088-.4827-.264-.648-.171-.1654-.411-.248-.72-.248h-1.544v1.824zm.096 2.672c.357 0 .643-.0987.856-.296.213-.1974.32-.4507.32-.76 0-.3254-.107-.5867-.32-.784-.213-.2027-.499-.304-.856-.304h-1.64v2.144z" fill="#757575"/><path d="m112.071 40.0801c.293 0 .552.064.776.192.229.128.408.3066.536.536.128.224.192.4826.192.776v2.416h-.52v-.616h-.008c-.101.176-.272.336-.512.48s-.515.216-.824.216c-.251 0-.475-.0507-.672-.152-.192-.1014-.344-.2347-.456-.4-.107-.1707-.16-.352-.16-.544 0-.3094.107-.568.32-.776.213-.2134.515-.352.904-.416l1.392-.232v-.008c0-.288-.091-.52-.272-.696-.176-.176-.408-.264-.696-.264-.224 0-.421.0506-.592.152-.165.096-.325.224-.48.384l-.36-.344c.16-.1974.363-.3627.608-.496.245-.1387.52-.208.824-.208zm-.304 3.504c.235 0 .448-.056.64-.168.197-.112.352-.264.464-.456.112-.1974.168-.416.168-.656v-.272l-1.264.208c-.272.048-.475.1333-.608.256-.133.1226-.2.2746-.2.456 0 .176.072.3253.216.448.149.1226.344.184.584.184z" fill="#757575"/><path d="m116.11 44.0401c-.336 0-.597-.096-.784-.288-.181-.1974-.272-.4827-.272-.856v-2.208h-.744v-.528h.488c.096 0 .171-.0294.224-.088.059-.064.088-.1574.088-.28v-.912h.488v1.28h.944v.528h-.944v2.176c0 .208.051.368.152.48.107.112.251.168.432.168.155 0 .317-.04.488-.12v.528c-.064.032-.147.0586-.248.08-.101.0266-.205.04-.312.04z" fill="#757575"/><path d="m117.617 44.0001v-5.6h.544v2.376h.008c.102-.1814.264-.3414.488-.48.23-.144.486-.216.768-.216.294 0 .558.0693.792.208.235.1386.419.3333.552.584.134.2506.2.5386.2.864v2.264h-.544v-2.264c0-.336-.101-.608-.304-.816-.197-.208-.45-.312-.76-.312-.224 0-.426.056-.608.168-.181.1066-.325.256-.432.448-.106.192-.16.408-.16.648v2.128z" fill="#757575"/><path d="m123.948 44.0001h-.616l2.272-5.6h.664l2.272 5.6h-.648l-.632-1.56h-2.672zm1.968-4.88-1.112 2.76h2.232l-1.104-2.76z" fill="#757575"/><path d="m131.023 44.0801c-.416 0-.792-.0827-1.128-.248-.331-.1707-.589-.368-.776-.592l.416-.4c.165.1866.373.3466.624.48.251.128.539.192.864.192.416 0 .736-.096.96-.288.229-.192.344-.4374.344-.736 0-.1974-.059-.36-.176-.488-.117-.1334-.264-.2374-.44-.312-.176-.0747-.413-.1574-.712-.248-.373-.1174-.675-.2267-.904-.328-.224-.1067-.416-.2614-.576-.464-.16-.208-.24-.48-.24-.816 0-.272.075-.5227.224-.752.149-.2347.363-.4187.64-.552.277-.1387.597-.208.96-.208.357 0 .68.0693.968.208.293.1386.525.2986.696.48l-.408.4c-.139-.1387-.315-.2587-.528-.36-.213-.1067-.456-.16-.728-.16-.384 0-.685.0906-.904.272-.213.1813-.32.4053-.32.672 0 .1973.059.3626.176.496.117.128.264.2293.44.304.176.0746.413.1573.712.248.368.112.667.2213.896.328.235.1066.432.264.592.472.16.2026.24.472.24.808 0 .2933-.077.5626-.232.808-.155.24-.379.432-.672.576-.288.1386-.624.208-1.008.208z" fill="#757575"/><path d="m136.407 44.0801c-.427 0-.813-.096-1.16-.288-.347-.1974-.619-.4694-.816-.816-.192-.3467-.288-.736-.288-1.168v-3.408h.6v3.408c0 .3253.072.6186.216.88.144.256.341.4586.592.608.256.144.541.216.856.216.309 0 .592-.0747.848-.224.256-.1494.456-.352.6-.608.149-.2614.224-.552.224-.872v-3.408h.6v3.408c0 .432-.099.8213-.296 1.168-.192.3466-.461.6186-.808.816-.347.192-.736.288-1.168.288z" fill="#757575"/></svg>