<svg fill="none" height="24" viewBox="0 0 211 24" width="211" xmlns="http://www.w3.org/2000/svg"><circle cx="12" cy="12" fill="#1565c0" r="12"/><g fill="#fff"><path d="m8.27586 13.5447c.16766.289.47799.4689.80972.4689.51737 0 .93812-.4209.93812-.9383 0-.1656-.0428-.3274-.12425-.4681-.30295-.524-.46294-1.12-.46294-1.7241 0-1.90282 1.54779-3.45097 3.45079-3.45097.517 0 .9376-.42074.9376-.93805 0-.5171-.4195-.93787-.9347-.93787-2.93839 0-5.3289 2.38967-5.3289 5.32689 0 .9327.24705 1.853.71456 2.6616z"/><path d="m10.0607 10.8831c0-.8197.3488-1.55768.9061-2.07391-.0481.58343.2355 1.16962.7764 1.48181.2417.1398.5104.2106.7797.2106.4805-.0003.9668.1198 1.4123.377.7101.41 1.1748 1.0812 1.3433 1.822-.4814-.3334-1.1312-.3811-1.6716-.0689-.2423.1396-.4374.3367-.5722.5696-.24.4171-.5872.778-1.0329 1.0352-.71.4095-1.5235.4765-2.24903.2523.52893-.2505.89493-.7891.89493-1.4135 0-.2791-.073-.5473-.2074-.7803-.2406-.4163-.3796-.8977-.3796-1.4119z"/><path d="m16.3249 16.4595c-.1642 0-.3269-.0435-.4706-.1268-.448-.2586-.6024-.833-.3435-1.2808.9508-1.648.3844-3.7625-1.2633-4.714-.5222-.3014-1.1175-.46079-1.7217-.46079-.1654 0-.327-.04379-.4709-.12676-.4477-.25878-.6013-.83366-.343-1.28156.1656-.28698.4765-.46584.811-.46657.9352 0 1.8549.24622 2.6621.7122 1.2315.71112 2.1128 1.86008 2.4811 3.23548.3682 1.375.1791 2.8108-.5323 4.0429-.1661.2879-.4765.4667-.8089.4667z"/><path d="m5.97383 14.4492c.94853 1.644 2.71924 2.6654 4.62067 2.6654.9293 0 1.848-.2469 2.6571-.714.8078-.4665 1.481-1.1406 1.9471-1.9492.1669-.2894.1677-.6481.0017-.9357-.2489-.4308-.8473-.5947-1.2812-.3432-.1434.0824-.262.2004-.3437.341-.3023.5247-.7383.9617-1.2618 1.2636-.5244.3026-1.1202.4627-1.7221.4627-1.23052 0-2.37684-.6612-2.99188-1.7259-.24798-.4305-.84607-.5936-1.28096-.3425-.44777.2583-.60278.8316-.34493 1.2778z"/></g><path d="m30 0h1v24h-1z" fill="#e0e0e0"/><g fill="#212121"><path d="m38.4399 17v-11.19999h4.768c.7574 0 1.4347.16534 2.032.496.608.33067 1.0774.784 1.408 1.36.3414.56534.512 1.2.512 1.904 0 .70399-.1706 1.34399-.512 1.91999-.3306.5653-.8 1.0133-1.408 1.344-.5973.3307-1.2746.496-2.032.496h-2.368v3.68zm4.688-5.84c.4587 0 .8427-.1547 1.152-.464.32-.32.48-.69865.48-1.13599 0-.43733-.16-.81066-.48-1.12-.3093-.31999-.6933-.47999-1.152-.47999h-2.288v3.19998z"/><path d="m48.3606 17v-11.19999h2.16v4.54399h.048c.192-.32.4906-.60799.896-.86399.416-.26666.8906-.39999 1.424-.39999.5653 0 1.0666.13333 1.504.39999.4373.26667.7786.65069 1.024 1.15199.256.4907.384 1.0773.384 1.76v4.608h-2.16v-4.32c0-.48-.1334-.8587-.4-1.136-.2667-.288-.6134-.432-1.04-.432-.4907 0-.896.1707-1.216.512-.3094.3307-.464.7627-.464 1.296v4.08z"/><path d="m60.5162 9.08002c.6613 0 1.248.13866 1.76.416.5227.26666.928.63468 1.216 1.10398.288.4587.432.9653.432 1.52v4.88h-2.048v-1.072h-.048c-.192.3093-.496.592-.912.848s-.8907.384-1.424.384c-.4907 0-.9333-.1013-1.328-.304-.384-.2027-.688-.4747-.912-.816-.224-.352-.336-.7253-.336-1.12 0-.6613.208-1.2053.624-1.632s1.008-.7147 1.776-.864l2.448-.464c-.0213-.3093-.16-.5707-.416-.784-.2453-.224-.56-.336-.944-.336-.6613 0-1.264.304-1.808.912l-1.232-1.184c.3413-.4053.7787-.75199 1.312-1.03998.544-.29867 1.1573-.448 1.84-.448zm-.4 6.35198c.4693 0 .8587-.1653 1.168-.496.32-.3307.48-.7627.48-1.296v-.256l-1.68.336c-.2987.0533-.5333.1653-.704.336-.1707.16-.256.3413-.256.544 0 .2453.0853.448.256.608.1813.1493.4267.224.736.224z"/><path d="m65.5274 17v-7.75998h2.16v.95998h.048c.192-.28799.48-.54399.864-.76799.3947-.23466.8374-.35199 1.328-.35199h.368v2.31998c-.256-.0853-.496-.128-.72-.128-.5546 0-1.008.192-1.36.576-.352.3733-.528.8747-.528 1.504v3.648z"/><path d="m71.2524 17v-7.75998h2.16v1.10398h.048c.1494-.32.416-.60799.8-.86399.384-.26666.8374-.39999 1.36-.39999.5334 0 .9974.13866 1.392.416.3947.26666.672.56528.832.89598h.064c.1814-.3307.5067-.62932.976-.89598.48-.27734 1.0294-.416 1.648-.416.5014 0 .9547.13333 1.36.39999.416.26667.7467.65069.992 1.15199.2454.5013.368 1.088.368 1.76v4.608h-2.16v-4.4c0-.4693-.1226-.832-.368-1.088-.2346-.2667-.5386-.4-.912-.4-.4266 0-.7786.1547-1.056.464-.2773.3093-.416.7307-.416 1.264v4.16h-2.16v-4.4c0-.4693-.1226-.832-.368-1.088-.2346-.2667-.5386-.4-.912-.4-.4373 0-.7946.1547-1.072.464-.2773.3093-.416.7307-.416 1.264v4.16z"/><path d="m87.9724 9.08002c.6614 0 1.248.13866 1.76.416.5227.26666.928.63468 1.216 1.10398.288.4587.432.9653.432 1.52v4.88h-2.048v-1.072h-.048c-.192.3093-.496.592-.912.848s-.8906.384-1.424.384c-.4906 0-.9333-.1013-1.328-.304-.384-.2027-.688-.4747-.912-.816-.224-.352-.336-.7253-.336-1.12 0-.6613.208-1.2053.624-1.632s1.008-.7147 1.776-.864l2.448-.464c-.0213-.3093-.16-.5707-.416-.784-.2453-.224-.56-.336-.944-.336-.6613 0-1.264.304-1.808.912l-1.232-1.184c.3414-.4053.7787-.75199 1.312-1.03998.544-.29867 1.1574-.448 1.84-.448zm-.4 6.35198c.4694 0 .8587-.1653 1.168-.496.32-.3307.48-.7627.48-1.296v-.256l-1.68.336c-.2986.0533-.5333.1653-.704.336-.1706.16-.256.3413-.256.544 0 .2453.0854.448.256.608.1814.1493.4267.224.736.224z"/><path d="m94.4434 17h-2.416l2.672-4-2.464-3.75998h2.496l1.408 2.36798h.048l1.424-2.36798h2.4156l-2.4636 3.75998 2.6556 4h-2.4956l-1.616-2.624h-.048z"/><path d="m104.467 17.16c-.768 0-1.472-.1813-2.112-.544-.63-.3627-1.131-.8533-1.504-1.472-.363-.6187-.544-1.296-.544-2.032s.181-1.4133.544-2.032c.373-.6187.874-1.10399 1.504-1.45599.64-.36266 1.344-.54399 2.112-.54399.778 0 1.482.18133 2.112.54399.64.352 1.141.83729 1.504 1.45599.362.6187.544 1.296.544 2.032s-.182 1.4133-.544 2.032c-.363.6187-.864 1.1093-1.504 1.472-.63.3627-1.334.544-2.112.544zm0-2c.544 0 1.008-.1973 1.392-.592s.576-.88.576-1.456-.192-1.056-.576-1.44c-.384-.3947-.848-.592-1.392-.592s-1.008.1973-1.392.592c-.374.384-.56.864-.56 1.44s.186 1.0613.56 1.456c.384.3947.848.592 1.392.592z"/><path d="m118.776 17.16c-1.056 0-2.027-.256-2.912-.768-.886-.512-1.584-1.2107-2.096-2.096s-.768-1.8507-.768-2.896.256-2.01065.768-2.89599c.512-.88533 1.21-1.584 2.096-2.096.885-.512 1.856-.768 2.912-.768 1.013 0 1.92.224 2.72.672.81.448 1.429.97067 1.856 1.568l-.864.68801c-.374-.49067-.875-.912-1.504-1.264-.619-.35201-1.355-.52801-2.208-.52801-.832 0-1.6.20267-2.304.60801-.704.40533-1.259.96533-1.664 1.67999-.406.704-.608 1.48269-.608 2.33599s.202 1.632.608 2.336c.405.704.96 1.264 1.664 1.68.704.4053 1.472.608 2.304.608.853 0 1.6-.1813 2.24-.544.64-.3733 1.157-.8107 1.552-1.312l.864.672c-.459.6293-1.094 1.1733-1.904 1.632-.8.4587-1.718.688-2.752.688z"/><path d="m128.093 17.16c-.704 0-1.355-.176-1.952-.528-.597-.3627-1.072-.848-1.424-1.456s-.528-1.28-.528-2.016.176-1.408.528-2.016.827-1.088 1.424-1.43999c.597-.36266 1.248-.54399 1.952-.54399s1.355.18133 1.952.54399c.597.35199 1.072.83199 1.424 1.43999s.528 1.28.528 2.016-.176 1.408-.528 2.016-.827 1.0933-1.424 1.456c-.597.352-1.248.528-1.952.528zm0-1.056c.512 0 .981-.128 1.408-.384.437-.256.779-.608 1.024-1.056.256-.4587.384-.96.384-1.504s-.128-1.04-.384-1.488c-.245-.4587-.587-.816-1.024-1.072-.427-.256-.896-.384-1.408-.384s-.987.128-1.424.384c-.427.256-.768.6133-1.024 1.072-.245.448-.368.944-.368 1.488s.123 1.0453.368 1.504c.256.448.597.8 1.024 1.056.437.256.912.384 1.424.384z"/><path d="m133.598 17v-7.67999h1.088v1.18399h.016c.16-.3413.438-.65065.832-.92798.406-.27734.886-.416 1.44-.416.587 0 1.099.15999 1.536.47999.438.32.747.67199.928 1.05599h.032c.171-.384.486-.73599.944-1.05599.47-.32 1.03-.47999 1.68-.47999.523 0 .998.13866 1.424.416.438.26666.784.65068 1.04 1.15198.256.4907.384 1.0613.384 1.712v4.56h-1.088v-4.56c0-.6827-.181-1.2213-.544-1.616-.362-.4053-.821-.608-1.376-.608-.608 0-1.114.2293-1.52.688-.394.448-.592 1.0507-.592 1.808v4.288h-1.088v-4.56c0-.6827-.186-1.2213-.56-1.616-.362-.4053-.821-.608-1.376-.608-.608 0-1.114.2293-1.52.688-.394.448-.592 1.0507-.592 1.808v4.288z"/><path d="m146.995 20.36v-11.03999h1.088v1.32799h.016c.214-.384.571-.72532 1.072-1.02399.502-.30933 1.078-.46399 1.728-.46399.64 0 1.232.176 1.776.52799.555.34129.998.81599 1.328 1.42399.331.608.496 1.2907.496 2.048s-.165 1.44-.496 2.048c-.33.608-.773 1.088-1.328 1.44-.544.3413-1.136.512-1.776.512-.65 0-1.226-.1493-1.728-.448-.501-.3093-.858-.656-1.072-1.04h-.016v4.688zm3.776-4.256c.47 0 .907-.128 1.312-.384.406-.256.726-.608.96-1.056.246-.448.368-.9493.368-1.504 0-.5653-.122-1.072-.368-1.52-.234-.448-.554-.7947-.96-1.04-.405-.256-.842-.384-1.312-.384-.49 0-.944.128-1.36.384-.405.2453-.73.592-.976 1.04-.234.448-.352.9547-.352 1.52 0 .5547.118 1.056.352 1.504.246.448.571.8.976 1.056.416.256.87.384 1.36.384z"/><path d="m159.471 17.16c-.704 0-1.354-.176-1.952-.528-.597-.3627-1.072-.848-1.424-1.456s-.528-1.28-.528-2.016.176-1.408.528-2.016.827-1.088 1.424-1.43999c.598-.36266 1.248-.54399 1.952-.54399s1.355.18133 1.952.54399c.598.35199 1.072.83199 1.424 1.43999s.528 1.28.528 2.016-.176 1.408-.528 2.016-.826 1.0933-1.424 1.456c-.597.352-1.248.528-1.952.528zm0-1.056c.512 0 .982-.128 1.408-.384.438-.256.779-.608 1.024-1.056.256-.4587.384-.96.384-1.504s-.128-1.04-.384-1.488c-.245-.4587-.586-.816-1.024-1.072-.426-.256-.896-.384-1.408-.384s-.986.128-1.424.384c-.426.256-.768.6133-1.024 1.072-.245.448-.368.944-.368 1.488s.123 1.0453.368 1.504c.256.448.598.8 1.024 1.056.438.256.912.384 1.424.384z"/><path d="m167.984 17.16c-.586 0-1.114-.1387-1.584-.416-.469-.2773-.837-.6667-1.104-1.168-.266-.5013-.4-1.0773-.4-1.728v-4.52799h1.088v4.52799c0 .672.198 1.216.592 1.632.406.416.918.624 1.536.624.448 0 .854-.1067 1.216-.32.363-.224.651-.528.864-.912.214-.384.32-.816.32-1.296v-4.25599h1.088v7.67999h-1.088v-1.232h-.016c-.192.352-.517.672-.976.96-.448.288-.96.432-1.536.432z"/><path d="m173.733 17v-7.67999h1.088v1.23199h.016c.202-.3627.528-.68265.976-.95999.458-.288.97-.43199 1.536-.43199.586 0 1.114.13866 1.584.416.469.27733.837.66668 1.104 1.16798.266.5013.4 1.0773.4 1.728v4.528h-1.088v-4.528c0-.672-.203-1.216-.608-1.632-.395-.416-.902-.624-1.52-.624-.448 0-.854.112-1.216.336-.363.2133-.651.512-.864.896-.214.384-.32.816-.32 1.296v4.256z"/><path d="m185.561 17.16c-.64 0-1.237-.1707-1.792-.512-.544-.352-.981-.832-1.312-1.44s-.496-1.2907-.496-2.048.165-1.44.496-2.048.768-1.0827 1.312-1.42399c.555-.35199 1.152-.52799 1.792-.52799.651 0 1.227.15466 1.728.46399.501.29867.859.63999 1.072 1.02399h.032v-4.84799h1.072v11.19999h-1.072v-1.328h-.032c-.213.384-.571.7307-1.072 1.04-.501.2987-1.077.448-1.728.448zm.128-1.056c.491 0 .939-.128 1.344-.384.416-.256.747-.608.992-1.056s.368-.9493.368-1.504c0-.5653-.123-1.072-.368-1.52s-.576-.7947-.992-1.04c-.405-.256-.853-.384-1.344-.384-.469 0-.907.128-1.312.384-.405.2453-.731.592-.976 1.04-.235.448-.352.9547-.352 1.52 0 .5547.117 1.056.352 1.504.245.448.571.8.976 1.056s.843.384 1.312.384z"/><path d="m192.835 17h-1.088v-7.67999h1.088zm-.544-9.35999c-.192 0-.363-.06933-.512-.208-.139-.13866-.208-.30933-.208-.512 0-.20266.069-.37333.208-.512.149-.13866.32-.20799.512-.20799.203 0 .373.06933.512.20799.149.13867.224.30934.224.512 0 .20267-.075.37334-.224.512-.139.13867-.309.208-.512.208z"/><path d="m195.033 17v-7.67999h1.088v1.23199h.016c.202-.3627.528-.68265.976-.95999.458-.288.97-.43199 1.536-.43199.586 0 1.114.13866 1.584.416.469.27733.837.66668 1.104 1.16798.266.5013.4 1.0773.4 1.728v4.528h-1.088v-4.528c0-.672-.203-1.216-.608-1.632-.395-.416-.902-.624-1.52-.624-.448 0-.854.112-1.216.336-.363.2133-.651.512-.864.896-.214.384-.32.816-.32 1.296v4.256z"/><path d="m206.861 20.36c-.693 0-1.344-.1707-1.952-.512-.608-.3307-1.045-.6933-1.312-1.088l.784-.72c.203.3093.533.5973.992.864.469.2667.965.4 1.488.4.768 0 1.392-.2667 1.872-.8s.72-1.216.72-2.048v-1.072h-.016c-.267.448-.645.8053-1.136 1.072-.491.256-1.008.384-1.552.384-.629 0-1.211-.1653-1.744-.496s-.96-.7893-1.28-1.376c-.309-.5867-.464-1.2427-.464-1.968s.155-1.3813.464-1.968c.32-.5867.747-1.04532 1.28-1.37598.533-.33067 1.115-.496 1.744-.496.608 0 1.152.14933 1.632.448.48.29866.832.62928 1.056.99198h.016v-1.27999h1.088v7.13599c0 .736-.16 1.3973-.48 1.984-.32.5973-.763 1.0667-1.328 1.408-.555.3413-1.179.512-1.872.512zm.016-4.576c.48 0 .912-.1173 1.296-.352.395-.2453.704-.576.928-.992.235-.4267.352-.9067.352-1.44s-.117-1.0133-.352-1.44c-.224-.4267-.533-.7573-.928-.992-.384-.2347-.816-.352-1.296-.352-.459 0-.885.1173-1.28.352-.384.2347-.688.5653-.912.992s-.336.9067-.336 1.44.112 1.0133.336 1.44c.224.416.528.7467.912.992.395.2347.821.352 1.28.352z"/></g></svg>