<svg fill="none" height="48" viewBox="0 0 163 48" width="163" xmlns="http://www.w3.org/2000/svg"><g fill="#000"><path clip-rule="evenodd" d="m48 24c0 13.2549-10.7452 24-24 24s-24-10.7451-24-24 10.7452-24 24-24 24 10.7451 24 24zm-31.4483 3.0894c.3353.578.956.9378 1.6195.9378 1.0347 0 1.8762-.8418 1.8762-1.8766 0-.3311-.0856-.6549-.2485-.9362-.6059-1.048-.9259-2.24-.9259-3.4483 0-3.8055 3.0956-6.9018 6.9017-6.9018 1.0339 0 1.875-.8415 1.875-1.8761 0-1.0342-.8388-1.8758-1.8692-1.8758-5.8769 0-10.6579 4.7793-10.6579 10.6537 0 1.8655.4941 3.7062 1.4291 5.3233zm3.5697-5.3233c0-1.6393.6977-3.1152 1.8123-4.1477-.0963 1.1669.471 2.3392 1.5527 2.9636.4835.2797 1.0208.4212 1.5594.4212.961-.0006 1.9336.2396 2.8246.754 1.4202.8201 2.3496 2.1624 2.6866 3.644-.9629-.6668-2.2624-.7622-3.3432-.1378-.4845.2793-.8748.6734-1.1445 1.1393-.48.834-1.1743 1.5558-2.0658 2.0702-1.4199.8191-3.0468.9531-4.498.5048 1.0578-.5011 1.7898-1.5783 1.7898-2.8271 0-.5582-.1458-1.0946-.4147-1.5606-.4812-.8326-.7592-1.7954-.7592-2.8239zm11.5871 10.8993c.2876.1665.613.2535.9412.2535.6649 0 1.2858-.3575 1.6178-.9333 1.4229-2.4642 1.8011-5.3359 1.0647-8.0858-.7366-2.7508-2.4992-5.0487-4.9622-6.471-1.6145-.932-3.4538-1.4244-5.3242-1.4244-.6691.0015-1.2907.3592-1.6219.9332-.5168.8958-.2095 2.0456.6858 2.5631.288.1659.6111.2535.9419.2535 1.2085 0 2.3991.3187 3.4433.9215 3.2955 1.903 4.4283 6.1322 2.5267 9.4281-.5178.8955-.2091 2.0443.6869 2.5616zm-19.7608-3.767c1.897 3.2879 5.4384 5.3308 9.2413 5.3308 1.8586 0 3.696-.4938 5.3142-1.4281 1.6157-.9329 2.9621-2.2812 3.8942-3.8983.3337-.5788.3354-1.2962.0033-1.8714-.4976-.8617-1.6944-1.1894-2.5623-.6864-.2868.1649-.5241.4007-.6873.682-.6047 1.0495-1.4768 1.9234-2.5238 2.5272-1.0487.6052-2.2403.9255-3.4441.9255-2.461 0-4.7537-1.3226-5.9838-3.4519-.4959-.8609-1.6921-1.1872-2.5619-.685-.8955.5166-1.2055 1.6633-.6898 2.5556z" fill-rule="evenodd"/><path d="m60 0h1v48h-1z"/><path clip-rule="evenodd" d="m77.7999 23h-3v-14h5.9c2.98 0 5 1.98 5 4.7s-2.02 4.7-5 4.7h-2.9zm0-11.2v3.8h2.8c1.2 0 2-.7801 2-1.9 0-1.12-.8-1.9-2-1.9z" fill-rule="evenodd"/><path d="m89.8031 23h-2.7v-14h2.7v5.6h.1c.22-.3.46-.56.74-.8.48-.4 1.2-.8 2.16-.8 2 0 3.6 1.6 3.6 4.1v5.9h-2.7v-5.5c0-1.2-.68-1.9-1.8-1.9-1.2 0-2.1.9-2.1 2.2z"/><path clip-rule="evenodd" d="m103.995 23h2.7v-6.1c0-2.18-1.7-3.9-4.2-3.9-1.3 0-2.28.48-2.9798.96-.4.28-.74.6001-1.02.94l1.5998 1.6c.16-.2.36-.38.58-.54.38-.3.92-.56 1.62-.56 1.02 0 1.6.6 1.7 1.3l-3.1.56c-1.8198.32-2.8998 1.54-2.8998 3.14s1.2001 2.8 2.9998 2.8c.94 0 1.68-.32 2.16-.7.28-.2.52-.4399.74-.7h.1zm0-4.2c0 1.3-.9 2.2-2.1 2.2-.8 0-1.2-.38-1.2-1 0-.5.4-.86 1.1-1l2.2-.4z" fill-rule="evenodd"/><path d="m111.496 23h-2.7v-9.8h2.7v1.4h.1c.22-.3.46-.56.74-.8.48-.4 1.2-.8 2.16-.8h.2v2.9l-.22-.04c-.03-.0037-.061-.0081-.095-.0128-.078-.0109-.168-.0233-.271-.0327-.093-.0085-.198-.0145-.314-.0145-1.3 0-2.3 1-2.3 2.6z"/><path d="m115.894 23h2.7v-5.4c0-1.2.78-2 1.9-2 1.02 0 1.6.5801 1.6 1.7v5.7h2.7v-5.4c0-1.2.78-2 1.9-2 1.02 0 1.6.5801 1.6 1.7v5.7h2.7v-6.1c0-2.4-1.48-3.9-3.4-3.9-1.06 0-1.84.4399-2.38.86-.32.24-.6.52-.82.84h-.1c-.18-.32-.4-.6-.66-.84-.46-.4201-1.2-.86-2.24-.86-.96 0-1.6.4-2.06.8-.26.24-.46.5-.64.8h-.1v-1.4h-2.7z"/><path clip-rule="evenodd" d="m141.289 23h-2.7v-1.2h-.1c-.22.2601-.46.5-.74.7-.48.38-1.22.7-2.16.7-1.8 0-3-1.2-3-2.8s1.08-2.82 2.9-3.14l3.1-.56c-.1-.7-.68-1.3-1.7-1.3-.7 0-1.24.26-1.62.56-.22.16-.42.34-.58.54l-1.6-1.6c.28-.3399.62-.66 1.02-.94.7-.48 1.68-.96 2.98-.96 2.5 0 4.2 1.72 4.2 3.9zm-4.8-2c1.2 0 2.1-.9 2.1-2.2v-.2l-2.2.4c-.7.14-1.1.5-1.1 1 0 .62.4 1 1.2 1z" fill-rule="evenodd"/><path d="m141.99 23h3.1l2.06-3.2h.08l2.06 3.2h3.1l-3.5-5 3.3-4.8h-3.1l-1.86 3h-.08l-1.86-3h-3.1l3.3 4.8z"/><path clip-rule="evenodd" d="m157.49 23.2c-2.9 0-5.2-2.3-5.2-5.1s2.3-5.1 5.2-5.1 5.2 2.3 5.2 5.1-2.3 5.1-5.2 5.1zm-2.5-5.1c0 1.5 1.1 2.6 2.5 2.6s2.5-1.1 2.5-2.6-1.1-2.6-2.5-2.6-2.5 1.1-2.5 2.6z" fill-rule="evenodd"/><path clip-rule="evenodd" d="m74.6799 39h3.52c3.28 0 5.84-2.576 5.84-5.6s-2.56-5.6-5.84-5.6h-3.52zm1.2-1.12v-8.96h2.32c2.64 0 4.64 2 4.64 4.48s-2 4.48-4.64 4.48z" fill-rule="evenodd"/><path d="m86.4399 29.48c-.4 0-.72-.32-.72-.72s.32-.72.72-.72.72.32.72.72-.32.72-.72.72z"/><path d="m86.9999 39h-1.12v-7.6801h1.12z"/><path clip-rule="evenodd" d="m93.8074 39h1.12v-4.88c0-1.6801-1.28-2.96-3.04-2.96-.944 0-1.632.352-2.128.72-.288.208-.544.448-.752.72l.72.7199c.176-.2078.368-.3839.576-.5599.368-.272.896-.56 1.584-.56 1.136 0 1.92.784 1.92 1.92l-2.96.48c-1.456.24-2.24 1.04-2.24 2.32 0 1.12 1.12 2.24 2.72 2.24.832 0 1.44-.2881 1.872-.592.24-.176.448-.384.608-.608zm0-3.4399c0 1.5358-1.024 2.5599-2.48 2.5599-1.04 0-1.6-.5599-1.6-1.2 0-.72.48-1.184 1.44-1.3599l2.64-.4801z" fill-rule="evenodd"/><path clip-rule="evenodd" d="m97.6239 41.5601c-.304-.2402-.576-.4961-.784-.8001l.72-.72c.176.24.4.448.64.6401.432.3199 1.024.6398 1.8401.6398 1.456 0 2.64-1.1999 2.64-2.7999v-.88c-.144.224-.352.432-.592.608-.432.304-1.056.592-1.968.592-2.0001 0-3.6001-1.68-3.6001-3.84s1.6-3.84 3.6001-3.84c.912 0 1.536.304 1.968.6079.24.1761.448.3841.592.5921v-1.0401h1.12v7.2001c0 2.1601-1.68 3.84-3.76 3.84-1.0881 0-1.8881-.4-2.4161-.7999zm.016-6.5601c0 1.6 1.136 2.8 2.4801 2.8 1.44 0 2.56-1.2 2.56-2.8s-1.12-2.8-2.56-2.8c-1.3441 0-2.4801 1.2-2.4801 2.8z" fill-rule="evenodd"/><path d="m105.961 39h1.12v-4.24c0-1.536 1.04-2.56 2.4-2.56 1.216 0 2.08.88 2.08 2.2399v4.5601h1.12v-4.5601c0-2-1.28-3.2799-3.12-3.2799-.848 0-1.44.32-1.872.64-.24.1919-.448.4-.608.6399v-1.12h-1.12z"/><path clip-rule="evenodd" d="m122.122 35.16c0 2.24-1.76 4-3.92 4s-3.92-1.76-3.92-4 1.76-4 3.92-4 3.92 1.76 3.92 4zm-6.72 0c0 1.664 1.28 2.96 2.8 2.96s2.8-1.28 2.8-2.96-1.28-2.96-2.8-2.96-2.8 1.28-2.8 2.96z" fill-rule="evenodd"/><path d="m123.004 37.8c.176.272.4.496.672.688.464.336 1.168.672 2.128.672 1.744 0 2.8-1.04 2.8-2.32 0-1.523-1.305-1.9173-2.453-2.2643-.902-.2728-1.707-.5164-1.707-1.2558 0-.5599.56-1.1199 1.44-1.1199.56 0 .96.208 1.264.4.16.112.304.256.416.4l.8-.8c-.176-.1919-.4-.368-.64-.512-.432-.256-1.024-.528-1.84-.528-1.536 0-2.56 1.0559-2.56 2.1599 0 1.4534 1.26 1.84 2.394 2.1875.925.2837 1.766.5414 1.766 1.3326 0 .7201-.544 1.28-1.68 1.28-.64 0-1.152-.256-1.488-.5599-.192-.1601-.368-.3521-.512-.5601z"/><path d="m132.951 39.16c-1.328 0-2.112-.784-2.112-2.24v-4.56h-1.44v-1.0401h.88c.432 0 .64-.2719.64-.7999v-1.76h1.04v2.5599h1.68v1.0401h-1.68v4.56c0 .816.4 1.2 1.04 1.2.272 0 .544-.048.736-.1119.112-.0481.224-.0801.304-.1281v1.04c-.022.011-.045.0212-.069.0308-.032.0137-.067.0263-.101.0392l-.005.0018-.005.0015-.034.0124-.037.0143-.017.0065c-.017.0067-.035.0139-.052.0215-.192.0641-.464.112-.768.112z"/><path d="m135.404 28.76c0 .4.32.72.72.72s.72-.32.72-.72-.32-.72-.72-.72-.72.32-.72.72z"/><path d="m136.684 39v-7.6801h-1.12v7.6801z"/><path d="m143.908 37.48c.24-.192.448-.4.624-.64l.8.7201c-.24.3039-.528.5599-.848.7999-.56.4-1.344.8-2.352.8-2.096 0-3.84-1.76-3.84-4s1.744-4 3.84-4c1.008 0 1.776.3839 2.304.768.304.224.576.48.816.7521l-.8.7999c-.176-.24-.368-.448-.592-.64-.384-.32-.976-.64-1.728-.64-1.44 0-2.72 1.28-2.72 2.96s1.28 2.96 2.72 2.96c.752 0 1.344-.32 1.776-.64z"/><path d="m145.966 37.8c.176.272.4.496.672.688.464.336 1.168.672 2.128.672 1.744 0 2.8-1.04 2.8-2.32 0-1.523-1.304-1.9173-2.452-2.2643-.902-.2728-1.708-.5164-1.708-1.2558 0-.5599.56-1.1199 1.44-1.1199.56 0 .96.208 1.264.4.16.112.304.256.416.4l.8-.8c-.176-.1919-.4-.368-.64-.512-.432-.256-1.024-.528-1.84-.528-1.536 0-2.56 1.0559-2.56 2.1599 0 1.4534 1.261 1.84 2.394 2.1875.926.2837 1.766.5414 1.766 1.3326 0 .7201-.544 1.28-1.68 1.28-.64 0-1.152-.256-1.488-.5599-.192-.1601-.368-.3521-.512-.5601z"/></g></svg>