<svg fill="none" height="48" viewBox="0 0 163 48" width="163" xmlns="http://www.w3.org/2000/svg"><g fill="#fff"><path clip-rule="evenodd" d="m48 24c0 13.2549-10.7452 24-24 24s-24-10.7451-24-24 10.7452-24 24-24 24 10.7451 24 24zm-31.4483 3.0894c.3354.578.956.9378 1.6195.9378 1.0347 0 1.8763-.8418 1.8763-1.8766 0-.3311-.0857-.6549-.2486-.9362-.6059-1.048-.9259-2.24-.9259-3.4483 0-3.8055 3.0956-6.9018 6.9017-6.9018 1.0339 0 1.875-.8415 1.875-1.8761 0-1.0342-.8388-1.8758-1.8692-1.8758-5.8769 0-10.6579 4.7793-10.6579 10.6537 0 1.8655.4941 3.7062 1.4291 5.3233zm3.5697-5.3233c0-1.6393.6977-3.1152 1.8123-4.1477-.0963 1.1669.471 2.3392 1.5527 2.9636.4835.2797 1.0209.4212 1.5594.4212.961-.0006 1.9336.2396 2.8246.754 1.4202.8201 2.3496 2.1624 2.6866 3.644-.9629-.6668-2.2624-.7622-3.3432-.1378-.4846.2793-.8747.6734-1.1445 1.1393-.48.834-1.1743 1.5558-2.0658 2.0702-1.4199.8191-3.0468.9531-4.498.5048 1.0578-.5011 1.7898-1.5783 1.7898-2.8271 0-.5582-.1458-1.0946-.4147-1.5606-.4812-.8326-.7592-1.7954-.7592-2.8239zm11.5871 10.8993c.2876.1665.613.2535.9412.2535.6649 0 1.2858-.3575 1.6178-.9333 1.4229-2.4642 1.8011-5.3359 1.0647-8.0858-.7366-2.7508-2.4992-5.0487-4.9622-6.471-1.6144-.932-3.4537-1.4244-5.3242-1.4244-.6691.0015-1.2908.3592-1.6219.9332-.5168.8958-.2095 2.0456.6858 2.5631.288.1659.6111.2536.9419.2536 1.2084 0 2.3991.3186 3.4434.9214 3.2954 1.903 4.4282 6.1322 2.5266 9.4281-.5178.8955-.2091 2.0443.6869 2.5616zm-19.7608-3.767c1.897 3.2879 5.4384 5.3308 9.2413 5.3308 1.8586 0 3.696-.4938 5.3142-1.4281 1.6157-.9329 2.9621-2.2812 3.8942-3.8983.3337-.5788.3354-1.2962.0033-1.8714-.4976-.8617-1.6944-1.1894-2.5623-.6864-.2868.1649-.5241.4007-.6873.682-.6047 1.0495-1.4768 1.9234-2.5238 2.5272-1.0487.6052-2.2403.9255-3.4442.9255-2.4609 0-4.7536-1.3226-5.9837-3.4519-.4959-.8609-1.6921-1.1872-2.5619-.685-.8955.5166-1.2055 1.6633-.6898 2.5556z" fill-rule="evenodd"/><path d="m60 0h1v48h-1z"/><path clip-rule="evenodd" d="m74.7999 23h3v-4.6h2.9c2.98 0 5-1.98 5-4.7s-2.02-4.7-5-4.7h-5.9zm3-7.4v-3.8h2.8c1.2 0 2 .78 2 1.9 0 1.1199-.8 1.9-2 1.9z" fill-rule="evenodd"/><path d="m87.1031 23h2.7v-5.2c0-1.3.9-2.2 2.0999-2.2 1.1201 0 1.8001.7 1.8001 1.9v5.5h2.6999v-5.9c0-2.5-1.5999-4.1-3.5999-4.1-.9601 0-1.6801.4-2.16.8-.28.24-.5201.5-.7401.8h-.0999v-5.6h-2.7z"/><path clip-rule="evenodd" d="m106.695 23h-2.7v-1.2h-.1c-.22.2601-.46.5-.74.7-.48.38-1.22.7-2.16.7-1.7997 0-2.9998-1.2-2.9998-2.8s1.0801-2.82 2.8998-3.14l3.1-.56c-.1-.7-.68-1.3-1.7-1.3-.7 0-1.24.26-1.62.56-.22.16-.42.34-.58.54l-1.5998-1.6c.28-.3399.62-.66 1.0201-.94.6997-.48 1.6797-.96 2.9797-.96 2.5 0 4.2 1.72 4.2 3.9zm-4.8-2c1.2 0 2.1-.9 2.1-2.2v-.2l-2.2.4c-.7.14-1.1.5-1.1 1 0 .62.4 1 1.2 1z" fill-rule="evenodd"/><path d="m108.796 23h2.7v-4.6c0-1.6 1-2.6 2.3-2.6.13 0 .245.0075.346.0176.055.0054.106.0116.153.0178l.086.0119.011.0015c.03.0041.058.0079.084.0112l.22.04v-2.9h-.2c-.96 0-1.68.4-2.16.8-.28.24-.52.5-.74.8h-.1v-1.4h-2.7z"/><path d="m118.594 23h-2.7v-9.8h2.7v1.4h.1c.18-.3.38-.56.64-.8.46-.4 1.1-.8 2.06-.8 1.04 0 1.78.4399 2.24.86.26.24.48.52.66.84h.1c.22-.32.5-.6.82-.84.54-.4201 1.32-.86 2.38-.86 1.92 0 3.4 1.5 3.4 3.9v6.1h-2.7v-5.7c0-1.1199-.58-1.7-1.6-1.7-1.12 0-1.9.8-1.9 2v5.4h-2.7v-5.7c0-1.1199-.58-1.7-1.6-1.7-1.12 0-1.9.8-1.9 2z"/><path clip-rule="evenodd" d="m138.589 23h2.7v-6.1c0-2.18-1.7-3.9-4.2-3.9-1.3 0-2.28.48-2.98.96-.4.28-.74.6001-1.02.94l1.6 1.6c.053-.0665.111-.1309.172-.193.025-.0251.05-.0498.076-.0741.023-.0209.045-.0415.068-.0619.025-.0218.05-.0433.075-.0646.061-.0505.124-.0993.189-.1464.38-.3.92-.56 1.62-.56 1.02 0 1.6.6 1.7 1.3l-3.1.56c-1.82.32-2.9 1.54-2.9 3.14s1.2 2.8 3 2.8c.94 0 1.68-.32 2.16-.7.28-.2.52-.4399.74-.7h.1zm0-4.2c0 1.3-.9 2.2-2.1 2.2-.8 0-1.2-.38-1.2-1 0-.5.4-.86 1.1-1l2.2-.4z" fill-rule="evenodd"/><path d="m145.09 23h-3.1l3.5-5-3.3-4.8h3.1l1.86 3h.08l1.86-3h3.1l-3.3 4.8 3.5 5h-3.1l-2.06-3.2h-.08z"/><path clip-rule="evenodd" d="m152.29 18.1c0 2.8 2.3 5.1 5.2 5.1s5.2-2.3 5.2-5.1-2.3-5.1-5.2-5.1-5.2 2.3-5.2 5.1zm5.2 2.6c-1.4 0-2.5-1.1-2.5-2.6s1.1-2.6 2.5-2.6 2.5 1.1 2.5 2.6-1.1 2.6-2.5 2.6z" fill-rule="evenodd"/><path d="m75.8799 39h-1.2v-11.2h1.2v4.96h6.24v-4.96h1.2v11.2h-1.2v-5.12h-6.24z"/><path clip-rule="evenodd" d="m91.6399 36.84c-.176.24-.4.448-.64.64-.432.32-1.024.64-1.84.64-1.456 0-2.64-1.2-2.72-2.5599l6.24.0159.032-.16c.004-.0278.009-.0566.0141-.0868l.0008-.004.0098-.0588.0061-.0398.0035-.0252c.0079-.06.0137-.1263.0137-.2014 0-2.24-1.584-3.84-3.68-3.84-2 0-3.76 1.76-3.76 4s1.744 4 3.84 4c1.04 0 1.824-.4 2.384-.8.32-.24.592-.496.816-.7999zm-5.2-2.24c.176-1.2801 1.264-2.4 2.64-2.4 1.36 0 2.384 1.04 2.56 2.4z" fill-rule="evenodd"/><path clip-rule="evenodd" d="m100.115 39h-1.1201v-1.04c-.16.224-.368.432-.608.608-.432.3039-1.04.592-1.872.592-1.6 0-2.72-1.12-2.72-2.24 0-1.28.784-2.08 2.24-2.32l2.96-.48c0-1.136-.784-1.92-1.92-1.92-.688 0-1.216.288-1.584.56-.208.176-.4.3521-.576.5599l-.72-.7199c.208-.272.464-.512.752-.72.496-.368 1.184-.72 2.128-.72 1.76 0 3.0401 1.2799 3.0401 2.96zm-3.6001-.88c1.456 0 2.48-1.0241 2.48-2.5599v-.4801l-2.64.4801c-.96.1759-1.44.6399-1.44 1.3599 0 .6401.56 1.2 1.6 1.2z" fill-rule="evenodd"/><path d="m102.347 39h1.12v-11.2h-1.12z"/><path d="m108.463 39.16c-1.328 0-2.112-.784-2.112-2.24v-4.56h-1.44v-1.0401h.88c.432 0 .64-.2719.64-.7999v-1.76h1.04v2.5599h1.68v1.0401h-1.68v4.56c0 .816.4 1.2 1.04 1.2.272 0 .544-.048.736-.1119.041-.0176.082-.033.121-.0478l.003-.0011.002-.0007.008-.0029c.017-.0067.035-.0132.052-.0199l.026-.0109c.034-.0139.065-.0284.092-.0448v1.04c-.096.048-.208.08-.32.128-.192.0641-.464.112-.768.112z"/><path d="m111.157 39h1.12v-4.24c0-1.536 1.04-2.56 2.4-2.56 1.216 0 2.08.88 2.08 2.2399v4.5601h1.12v-4.5601c0-2-1.28-3.2799-3.12-3.2799-.848 0-1.44.32-1.872.64-.136.1083-.261.2216-.373.3429-.038.0417-.075.0843-.111.128-.016.0197-.031.0398-.047.06-.027.0357-.052.0721-.077.109v-4.6399h-1.12z"/><path d="m125.092 37.48c.24-.192.448-.4.624-.64l.8.7201c-.24.3039-.528.5599-.848.7999-.56.4-1.344.8-2.352.8-2.096 0-3.84-1.76-3.84-4s1.744-4 3.84-4c1.008 0 1.776.3839 2.304.768.304.224.576.48.816.7521l-.8.7999c-.12-.1646-.249-.3141-.39-.4538-.034-.0336-.068-.0668-.104-.0994-.032-.0293-.064-.0583-.098-.0868-.384-.32-.976-.64-1.728-.64-1.44 0-2.72 1.28-2.72 2.96s1.28 2.96 2.72 2.96c.752 0 1.344-.32 1.776-.64z"/><path clip-rule="evenodd" d="m132.511 39h1.12v-4.88c0-1.6801-1.28-2.96-3.04-2.96-.944 0-1.632.352-2.128.72-.288.208-.544.448-.752.72l.72.7199c.176-.2078.368-.3839.576-.5599.368-.272.896-.56 1.584-.56 1.136 0 1.92.784 1.92 1.92l-2.96.48c-1.456.24-2.24 1.04-2.24 2.32 0 1.12 1.12 2.24 2.72 2.24.832 0 1.44-.2881 1.872-.592.24-.176.448-.384.608-.608zm0-3.4399c0 1.5358-1.024 2.5599-2.48 2.5599-1.04 0-1.6-.5599-1.6-1.2 0-.72.48-1.184 1.44-1.3599l2.64-.4801z" fill-rule="evenodd"/><path d="m136.903 39h-1.12v-7.6801h1.12v1.0401c.176-.208.384-.416.624-.5921.432-.3039 1.04-.6079 1.936-.6079h.32v1.12h-.48c-1.28 0-2.4.96-2.4 2.48z"/><path clip-rule="evenodd" d="m146.502 36.84c-.176.24-.4.448-.64.64-.432.32-1.024.64-1.84.64-1.456 0-2.64-1.2-2.72-2.5599l6.24.0159.032-.16c.016-.112.048-.24.048-.416 0-2.24-1.584-3.84-3.68-3.84-2 0-3.76 1.76-3.76 4s1.744 4 3.84 4c1.04 0 1.824-.4 2.384-.8.32-.24.592-.496.816-.7999zm-5.2-2.24c.176-1.2801 1.264-2.4 2.64-2.4 1.36 0 2.384 1.04 2.56 2.4z" fill-rule="evenodd"/></g></svg>