<svg fill="none" height="48" viewBox="0 0 181 48" width="181" xmlns="http://www.w3.org/2000/svg"><g fill="#fff"><path d="m75.1599 33h3.6v-5.52h3.48c3.576 0 6-2.376 6-5.64s-2.424-5.64-6-5.64h-7.08zm3.6-8.88v-4.56h3.36c1.44 0 2.4.936 2.4 2.28s-.96 2.28-2.4 2.28z"/><path d="m89.9237 33h3.24v-6.24c0-1.56 1.08-2.64 2.52-2.64 1.344 0 2.16.84 2.16 2.28v6.6h3.2403v-7.08c0-3-1.9203-4.92-4.3203-4.92-1.152 0-2.016.48-2.592.96-.336.288-.624.6-.888.96h-.12v-6.72h-3.24z"/><path d="m110.194 33h3.24v-7.32c0-2.616-2.04-4.68-5.04-4.68-1.56 0-2.736.576-3.576 1.152-.48.336-.888.72-1.224 1.128l1.92 1.92c.192-.24.432-.456.696-.648.456-.36 1.104-.672 1.944-.672 1.224 0 1.92.72 2.04 1.56l-3.72.672c-2.184.384-3.48 1.848-3.48 3.768s1.44 3.36 3.6 3.36c1.128 0 2.016-.384 2.592-.84.336-.24.624-.528.888-.84h.12zm0-5.04c0 1.56-1.08 2.64-2.52 2.64-.96 0-1.44-.456-1.44-1.2 0-.6.48-1.032 1.32-1.2l2.64-.48z"/><path d="m115.955 33h3.24v-5.52c0-1.92 1.2-3.12 2.76-3.12.36 0 .624.048.816.072l.264.048v-3.48h-.24c-1.152 0-2.016.48-2.592.96-.336.288-.624.6-.888.96h-.12v-1.68h-3.24z"/><path d="m124.472 33h3.24v-6.48c0-1.44.936-2.4 2.28-2.4 1.224 0 1.92.696 1.92 2.04v6.84h3.24v-6.48c0-1.44.936-2.4 2.28-2.4 1.224 0 1.92.696 1.92 2.04v6.84h3.24v-7.32c0-2.88-1.776-4.68-4.08-4.68-1.272 0-2.208.528-2.856 1.032-.384.288-.72.624-.984 1.008h-.12c-.216-.384-.48-.72-.792-1.008-.552-.504-1.44-1.032-2.688-1.032-1.152 0-1.92.48-2.472.96-.312.288-.552.6-.768.96h-.12v-1.68h-3.24z"/><path d="m151.707 33h3.24v-7.32c0-2.616-2.04-4.68-5.04-4.68-1.56 0-2.736.576-3.576 1.152-.48.336-.888.72-1.224 1.128l1.92 1.92c.192-.24.432-.456.696-.648.456-.36 1.104-.672 1.944-.672 1.224 0 1.92.72 2.04 1.56l-3.72.672c-2.184.384-3.48 1.848-3.48 3.768s1.44 3.36 3.6 3.36c1.128 0 2.016-.384 2.592-.84.336-.24.624-.528.888-.84h.12zm0-5.04c0 1.56-1.08 2.64-2.52 2.64-.96 0-1.44-.456-1.44-1.2 0-.6.48-1.032 1.32-1.2l2.64-.48z"/><path d="m155.788 33h3.72l2.472-3.84h.096l2.472 3.84h3.72l-4.2-6 3.96-5.76h-3.72l-2.232 3.6h-.096l-2.232-3.6h-3.72l3.96 5.76z"/><path d="m174.388 30.24c-1.68 0-3-1.32-3-3.12s1.32-3.12 3-3.12 3 1.32 3 3.12-1.32 3.12-3 3.12zm-6.24-3.12c0 3.36 2.76 6.12 6.24 6.12s6.24-2.76 6.24-6.12-2.76-6.12-6.24-6.12-6.24 2.76-6.24 6.12z"/><path d="m60 0h1v48h-1z"/></g><circle cx="24" cy="24" fill="#1565c0" r="24"/><g fill="#fff"><path d="m16.5517 27.0894c.3353.578.956.9379 1.6195.9379 1.0347 0 1.8762-.8419 1.8762-1.8767 0-.3312-.0856-.6548-.2485-.9362-.6059-1.048-.9259-2.2401-.9259-3.4483 0-3.8055 3.0956-6.9018 6.9017-6.9018 1.0339 0 1.875-.8415 1.875-1.8761 0-1.0342-.8388-1.8758-1.8692-1.8758-5.8769 0-10.6579 4.7794-10.6579 10.6537 0 1.8655.4941 3.7062 1.4291 5.3233z"/><path d="m20.1214 21.7661c0-1.6392.6977-3.1152 1.8123-4.1477-.0963 1.1668.471 2.3392 1.5527 2.9636.4835.2797 1.0209.4212 1.5594.4212.961-.0006 1.9336.2396 2.8246.754 1.4202.8201 2.3496 2.1623 2.6866 3.644-.9629-.6668-2.2624-.7621-3.3432-.1378-.4845.2793-.8748.6734-1.1445 1.1393-.48.834-1.1743 1.5558-2.0658 2.0703-1.4199.819-3.0468.9531-4.498.5047 1.0578-.5012 1.7898-1.5783 1.7898-2.8271 0-.5582-.1458-1.0945-.4147-1.5606-.4812-.8325-.7592-1.7954-.7592-2.8239z"/><path d="m32.6497 32.919c-.3282 0-.6536-.0871-.9412-.2535-.896-.5174-1.2047-1.6662-.6869-2.5617 1.9016-3.296.7688-7.5251-2.5266-9.4281-1.0443-.6028-2.2349-.9215-3.4434-.9215-.3308 0-.6539-.0875-.9419-.2535-.8953-.5175-1.2026-1.6673-.6858-2.5631.3311-.574.9528-.9317 1.6219-.9331 1.8704 0 3.7097.4924 5.3242 1.4244 2.463 1.4222 4.2256 3.7201 4.9622 6.4709.7364 2.7499.3582 5.6216-1.0647 8.0859-.332.5757-.9529.9333-1.6178.9333z"/><path d="m11.9477 28.8985c1.897 3.2878 5.4384 5.3307 9.2413 5.3307 1.8586 0 3.696-.4939 5.3142-1.428 1.6157-.933 2.9621-2.2812 3.8942-3.8983.3337-.5789.3354-1.2964.0033-1.8715-.4976-.8616-1.6944-1.1893-2.5623-.6865-.2868.165-.5241.4008-.6873.6821-.6047 1.0495-1.4768 1.9234-2.5238 2.5273-1.0487.6052-2.2403.9254-3.4442.9254-2.4609 0-4.7536-1.3225-5.9837-3.4518-.4959-.8611-1.6921-1.1873-2.5619-.6851-.8955.5166-1.2055 1.6633-.6898 2.5557z"/></g></svg>