<svg fill="none" height="48" viewBox="0 0 210 48" width="210" xmlns="http://www.w3.org/2000/svg"><path d="m74.7998 16v-14h5.96c.9467 0 1.7933.20667 2.54.62.76.41333 1.3467.98 1.76 1.7.4267.70667.64 1.5.64 2.38s-.2133 1.68-.64 2.4c-.4133.70667-1 1.2667-1.76 1.68-.7467.4133-1.5933.62-2.54.62h-2.96v4.6zm5.86-7.3c.5733 0 1.0533-.19333 1.44-.58.4-.4.6-.87333.6-1.42s-.2-1.01333-.6-1.4c-.3867-.4-.8667-.6-1.44-.6h-2.86v4z" fill="#212121"/><path d="m87.2006 16v-14h2.7v5.68h.06c.24-.4.6133-.76 1.12-1.08.52-.33333 1.1133-.5 1.78-.5.7066 0 1.3333.16667 1.88.5.5466.33333.9733.81333 1.28 1.44.32.61333.48 1.34667.48 2.2v5.76h-2.7v-5.4c0-.6-.1667-1.07333-.5-1.42-.3334-.36-.7667-.54-1.3-.54-.6133 0-1.12.21333-1.52.64-.3867.41333-.58.9533-.58 1.62v5.1z" fill="#212121"/><path d="m102.395 6.1c.827 0 1.56.17333 2.2.52.653.33333 1.16.79333 1.52 1.38.36.57333.54 1.20667.54 1.9v6.1h-2.56v-1.34h-.06c-.24.3867-.62.74-1.14 1.06s-1.113.48-1.78.48c-.613 0-1.1666-.1267-1.6599-.38-.48-.2533-.86-.5933-1.14-1.02-.28-.44-.42-.9067-.42-1.4 0-.8267.26-1.5067.78-2.04s1.26-.8933 2.2199-1.08l3.06-.58c-.027-.38667-.2-.71333-.52-.98-.307-.28-.7-.42-1.18-.42-.827 0-1.58.38-2.2599 1.14l-1.54-1.48c.4267-.50667.9733-.94 1.6399-1.3.68-.37333 1.447-.56 2.3-.56zm-.5 7.94c.587 0 1.073-.2067 1.46-.62.4-.4133.6-.9533.6-1.62v-.32l-2.1.42c-.373.0667-.667.2067-.88.42-.213.2-.32.4267-.32.68 0 .3067.107.56.32.76.227.1867.533.28.92.28z" fill="#212121"/><path d="m108.659 16v-9.7h2.7v1.2h.06c.24-.36.6-.68 1.08-.96.494-.29333 1.047-.44 1.66-.44h.46v2.9c-.32-.10667-.62-.16-.9-.16-.693 0-1.26.24-1.7.72-.44.4667-.66 1.0933-.66 1.88v4.56z" fill="#212121"/><path d="m115.815 16v-9.7h2.7v1.38h.06c.187-.4.52-.76 1-1.08.48-.33333 1.047-.5 1.7-.5.667 0 1.247.17333 1.74.52.494.33333.84.70667 1.04 1.12h.08c.227-.41333.634-.78667 1.22-1.12.6-.34667 1.287-.52 2.06-.52.627 0 1.194.16667 1.7.5.52.33333.934.81333 1.24 1.44.307.62667.46 1.36.46 2.2v5.76h-2.7v-5.5c0-.58667-.153-1.04-.46-1.36-.293-.33333-.673-.5-1.14-.5-.533 0-.973.19333-1.32.58-.346.38667-.52.9133-.52 1.58v5.2h-2.7v-5.5c0-.58667-.153-1.04-.46-1.36-.293-.33333-.673-.5-1.14-.5-.546 0-.993.19333-1.34.58-.346.38667-.52.9133-.52 1.58v5.2z" fill="#212121"/><path d="m136.715 6.1c.827 0 1.56.17333 2.2.52.654.33333 1.16.79333 1.52 1.38.36.57333.54 1.20667.54 1.9v6.1h-2.56v-1.34h-.06c-.24.3867-.62.74-1.14 1.06s-1.113.48-1.78.48c-.613 0-1.166-.1267-1.66-.38-.48-.2533-.86-.5933-1.14-1.02-.28-.44-.42-.9067-.42-1.4 0-.8267.26-1.5067.78-2.04s1.26-.8933 2.22-1.08l3.06-.58c-.026-.38667-.2-.71333-.52-.98-.306-.28-.7-.42-1.18-.42-.826 0-1.58.38-2.26 1.14l-1.54-1.48c.427-.50667.974-.94 1.64-1.3.68-.37333 1.447-.56 2.3-.56zm-.5 7.94c.587 0 1.074-.2067 1.46-.62.4-.4133.6-.9533.6-1.62v-.32l-2.1.42c-.373.0667-.666.2067-.88.42-.213.2-.32.4267-.32.68 0 .3067.107.56.32.76.227.1867.534.28.92.28z" fill="#212121"/><path d="m144.804 16h-3.02l3.34-5-3.08-4.7h3.12l1.76 2.96h.06l1.78-2.96h3.02l-3.08 4.7 3.32 5h-3.12l-2.02-3.28h-.06z" fill="#212121"/><path d="m157.333 16.2c-.96 0-1.84-.2267-2.64-.68-.786-.4533-1.413-1.0667-1.88-1.84-.453-.7733-.68-1.62-.68-2.54s.227-1.76667.68-2.54c.467-.77333 1.094-1.38 1.88-1.82.8-.45333 1.68-.68 2.64-.68.974 0 1.854.22667 2.64.68.8.44 1.427 1.04667 1.88 1.82.454.77333.68 1.62.68 2.54s-.226 1.7667-.68 2.54c-.453.7733-1.08 1.3867-1.88 1.84-.786.4533-1.666.68-2.64.68zm0-2.5c.68 0 1.26-.2467 1.74-.74s.72-1.1.72-1.82-.24-1.32-.72-1.8c-.48-.49333-1.06-.74-1.74-.74s-1.26.24667-1.74.74c-.466.48-.7 1.08-.7 1.8s.234 1.3267.7 1.82c.48.4933 1.06.74 1.74.74z" fill="#212121"/><path d="m75.8958 32h-1.2v-11.2h1.2v4.96h6.272v-4.96h1.2v11.2h-1.2v-5.12h-6.272z" fill="#212121"/><path d="m89.2387 32.16c-.6934 0-1.3334-.176-1.92-.528-.5867-.3627-1.056-.848-1.408-1.456s-.528-1.28-.528-2.016c0-.7467.1706-1.424.512-2.032.3413-.608.8-1.088 1.376-1.44s1.2053-.528 1.888-.528c.672 0 1.28.1653 1.824.496.5546.3307.992.7947 1.312 1.392s.48 1.2693.48 2.016c0 .1707-.0107.3413-.032.512h-6.24c.0533.4693.208.896.464 1.28s.5813.688.976.912c.4053.224.848.336 1.328.336.8853 0 1.6693-.384 2.352-1.152l.752.688c-.3414.4267-.7734.7893-1.296 1.088-.5227.288-1.136.432-1.84.432zm2.432-4.528c-.096-.7467-.368-1.3387-.816-1.776-.448-.448-1.0134-.672-1.696-.672-.448 0-.8694.112-1.264.336-.384.2133-.704.5067-.96.88-.2454.3733-.3947.784-.448 1.232z" fill="#212121"/><path d="m97.0599 24.16c.5867 0 1.104.128 1.552.384.4587.256.816.6133 1.072 1.072.256.448.3841.9653.3841 1.552v4.832h-1.0401v-1.232h-.016c-.2026.352-.544.672-1.024.96s-1.0293.432-1.648.432c-.5013 0-.9493-.1013-1.344-.304-.384-.2027-.688-.4693-.912-.8-.2133-.3413-.32-.704-.32-1.088 0-.6187.2134-1.136.64-1.552.4267-.4267 1.0294-.704 1.808-.832l2.784-.464v-.016c0-.576-.1813-1.04-.544-1.392-.352-.352-.816-.528-1.392-.528-.448 0-.8426.1013-1.184.304-.3306.192-.6506.448-.96.768l-.72-.688c.32-.3947.7254-.7253 1.216-.992.4907-.2773 1.04-.416 1.648-.416zm-.608 7.008c.4694 0 .896-.112 1.28-.336.3947-.224.704-.528.928-.912.224-.3947.336-.832.336-1.312v-.544l-2.528.416c-.544.096-.9493.2667-1.216.512-.2666.2453-.4.5493-.4.912 0 .352.144.6507.432.896.2987.2453.688.368 1.168.368z" fill="#212121"/><path d="m103.279 32h-1.088v-11.2h1.088z" fill="#212121"/><path d="m108.26 32.08c-.672 0-1.194-.192-1.568-.576-.362-.3947-.544-.9653-.544-1.712v-4.416h-1.488v-1.056h.976c.192 0 .342-.0587.448-.176.118-.128.176-.3147.176-.56v-1.824h.976v2.56h1.888v1.056h-1.888v4.352c0 .416.102.736.304.96.214.224.502.336.864.336.31 0 .635-.08.976-.24v1.056c-.128.064-.293.1173-.496.16-.202.0533-.41.08-.624.08z" fill="#212121"/><path d="m110.875 32v-11.2h1.088v4.752h.016c.203-.3627.528-.6827.976-.96.459-.288.971-.432 1.536-.432.587 0 1.115.1387 1.584.416s.837.6667 1.104 1.168.4 1.0773.4 1.728v4.528h-1.088v-4.528c0-.672-.203-1.216-.608-1.632-.395-.416-.901-.624-1.52-.624-.448 0-.853.112-1.216.336-.363.2133-.651.512-.864.896s-.32.816-.32 1.296v4.256z" fill="#212121"/><path d="m122.957 32.16c-.693 0-1.338-.176-1.936-.528-.586-.3627-1.056-.848-1.408-1.456-.341-.608-.512-1.28-.512-2.016s.171-1.408.512-2.016c.352-.608.822-1.088 1.408-1.44.598-.3627 1.243-.544 1.936-.544.704 0 1.323.16 1.856.48.544.3093.971.672 1.28 1.088l-.8.656c-.629-.7787-1.408-1.168-2.336-1.168-.501 0-.965.128-1.392.384-.416.256-.752.6133-1.008 1.072-.245.448-.368.944-.368 1.488s.123 1.0453.368 1.504c.256.448.592.8 1.008 1.056.427.256.891.384 1.392.384.523 0 .982-.1173 1.376-.352.395-.2347.726-.5173.992-.848l.8.656c-.309.4267-.741.8-1.296 1.12-.544.32-1.168.48-1.872.48z" fill="#212121"/><path d="m130.294 24.16c.587 0 1.104.128 1.552.384.459.256.816.6133 1.072 1.072.256.448.384.9653.384 1.552v4.832h-1.04v-1.232h-.016c-.202.352-.544.672-1.024.96s-1.029.432-1.648.432c-.501 0-.949-.1013-1.344-.304-.384-.2027-.688-.4693-.912-.8-.213-.3413-.32-.704-.32-1.088 0-.6187.214-1.136.64-1.552.427-.4267 1.03-.704 1.808-.832l2.784-.464v-.016c0-.576-.181-1.04-.544-1.392-.352-.352-.816-.528-1.392-.528-.448 0-.842.1013-1.184.304-.33.192-.65.448-.96.768l-.72-.688c.32-.3947.726-.7253 1.216-.992.491-.2773 1.04-.416 1.648-.416zm-.608 7.008c.47 0 .896-.112 1.28-.336.395-.224.704-.528.928-.912.224-.3947.336-.832.336-1.312v-.544l-2.528.416c-.544.096-.949.2667-1.216.512-.266.2453-.4.5493-.4.912 0 .352.144.6507.432.896.299.2453.688.368 1.168.368z" fill="#212121"/><path d="m135.345 32v-7.68h1.088v1.2h.016c.203-.352.528-.6667.976-.944.459-.2773.976-.416 1.552-.416h.352v1.12c-.149-.0213-.299-.032-.448-.032-.448 0-.859.112-1.232.336s-.672.5333-.896.928c-.213.3947-.32.8373-.32 1.328v4.16z" fill="#212121"/><path d="m143.679 32.16c-.693 0-1.333-.176-1.92-.528-.586-.3627-1.056-.848-1.408-1.456s-.528-1.28-.528-2.016c0-.7467.171-1.424.512-2.032.342-.608.8-1.088 1.376-1.44s1.206-.528 1.888-.528c.672 0 1.28.1653 1.824.496.555.3307.992.7947 1.312 1.392s.48 1.2693.48 2.016c0 .1707-.01.3413-.032.512h-6.24c.054.4693.208.896.464 1.28s.582.688.976.912c.406.224.848.336 1.328.336.886 0 1.67-.384 2.352-1.152l.752.688c-.341.4267-.773.7893-1.296 1.088-.522.288-1.136.432-1.84.432zm2.432-4.528c-.096-.7467-.368-1.3387-.816-1.776-.448-.448-1.013-.672-1.696-.672-.448 0-.869.112-1.264.336-.384.2133-.704.5067-.96.88-.245.3733-.394.784-.448 1.232z" fill="#212121"/><path d="m60 0h1v48h-1z" fill="#e0e0e0"/><circle cx="24" cy="24" fill="#1565c0" r="24"/><path d="m16.5517 27.0894c.3353.578.956.9379 1.6195.9379 1.0347 0 1.8762-.8419 1.8762-1.8767 0-.3312-.0856-.6549-.2485-.9362-.6059-1.048-.9259-2.2401-.9259-3.4483 0-3.8055 3.0956-6.9018 6.9017-6.9018 1.0339 0 1.875-.8415 1.875-1.8761 0-1.0342-.8388-1.8758-1.8692-1.8758-5.8769 0-10.6579 4.7794-10.6579 10.6537 0 1.8654.4941 3.7062 1.4291 5.3233z" fill="#fff"/><path d="m20.1214 21.7661c0-1.6393.6977-3.1153 1.8123-4.1477-.0963 1.1668.471 2.3392 1.5527 2.9636.4835.2797 1.0209.4212 1.5594.4212.961-.0006 1.9336.2395 2.8246.754 1.4202.8201 2.3496 2.1623 2.6866 3.644-.9629-.6668-2.2624-.7621-3.3432-.1378-.4845.2793-.8748.6734-1.1445 1.1393-.48.834-1.1743 1.5558-2.0658 2.0702-1.4199.8191-3.0468.9531-4.498.5048 1.0578-.5012 1.7898-1.5783 1.7898-2.8271 0-.5582-.1458-1.0946-.4147-1.5606-.4812-.8325-.7592-1.7954-.7592-2.8239z" fill="#fff"/><path d="m32.6497 32.919c-.3282 0-.6536-.0871-.9412-.2535-.896-.5174-1.2047-1.6662-.6869-2.5617 1.9016-3.296.7688-7.5251-2.5266-9.4281-1.0443-.6028-2.2349-.9215-3.4434-.9215-.3308 0-.6539-.0876-.9419-.2535-.8953-.5176-1.2026-1.6673-.6858-2.5631.3311-.574.9528-.9317 1.6219-.9332 1.8704 0 3.7097.4925 5.3242 1.4244 2.463 1.4223 4.2256 3.7202 4.9622 6.471.7364 2.7499.3582 5.6216-1.0647 8.0858-.332.5758-.9529.9334-1.6178.9334z" fill="#fff"/><path d="m11.9477 28.8985c1.897 3.2878 5.4384 5.3307 9.2413 5.3307 1.8586 0 3.696-.4939 5.3142-1.428 1.6157-.933 2.9621-2.2812 3.8942-3.8984.3337-.5788.3354-1.2963.0033-1.8714-.4976-.8617-1.6944-1.1893-2.5623-.6865-.2868.165-.5241.4008-.6873.6821-.6047 1.0495-1.4768 1.9234-2.5238 2.5272-1.0487.6053-2.2403.9255-3.4442.9255-2.4609 0-4.7536-1.3226-5.9837-3.4518-.4959-.8611-1.6921-1.1873-2.5619-.6851-.8955.5165-1.2055 1.6633-.6898 2.5557z" fill="#fff"/><g fill="#757575"><path d="m74.0082 44.0001v-3.312h-.744v-.528h.744v-.704c0-.368.0906-.648.272-.84.1866-.1974.448-.296.784-.296.1066 0 .2106.0133.312.04.1013.0213.184.048.248.08v.528c-.176-.08-.3387-.12-.488-.12-.1814 0-.3254.056-.432.168-.1014.112-.152.272-.152.48v.664h.944v.528h-.944v3.312z"/><path d="m77.9842 44.0801c-.352 0-.6773-.088-.976-.264-.2986-.1814-.536-.424-.712-.728s-.264-.64-.264-1.008.088-.704.264-1.008.4134-.544.712-.72c.2987-.1814.624-.272.976-.272s.6774.0906.976.272c.2987.176.536.416.712.72s.264.64.264 1.008-.088.704-.264 1.008-.4133.5466-.712.728c-.2986.176-.624.264-.976.264zm0-.528c.256 0 .4907-.064.704-.192.2187-.128.3894-.304.512-.528.128-.2294.192-.48.192-.752s-.064-.52-.192-.744c-.1226-.2294-.2933-.408-.512-.536-.2133-.128-.448-.192-.704-.192s-.4933.064-.712.192c-.2133.128-.384.3066-.512.536-.1226.224-.184.472-.184.744s.0614.5226.184.752c.128.224.2987.4.512.528.2187.128.456.192.712.192z"/><path d="m80.9368 44.0001v-3.84h.544v.6h.008c.1014-.176.264-.3334.488-.472.2294-.1387.488-.208.776-.208h.176v.56c-.0746-.0107-.1493-.016-.224-.016-.224 0-.4293.056-.616.168-.1866.112-.336.2666-.448.464-.1066.1973-.16.4186-.16.664v2.08z"/><path d="m83.7181 44.0001v-3.84h.544v.592h.008c.08-.1707.2187-.3254.416-.464.2027-.1387.4427-.208.72-.208.2933 0 .5493.08.768.24s.3733.336.464.528h.016c.0853-.192.2427-.368.472-.528.2347-.16.5147-.24.84-.24.2613 0 .4987.0693.712.208.2187.1333.392.3253.52.576.128.2453.192.5306.192.856v2.28h-.544v-2.28c0-.3414-.0907-.6107-.272-.808-.1813-.2027-.4107-.304-.688-.304-.304 0-.5573.1146-.76.344-.1973.224-.296.5253-.296.904v2.144h-.544v-2.28c0-.3414-.0933-.6107-.28-.808-.1813-.2027-.4107-.304-.688-.304-.304 0-.5573.1146-.76.344-.1973.224-.296.5253-.296.904v2.144z"/><path d="m92.2805 44.0801c-.3466 0-.6666-.088-.96-.264-.2933-.1814-.528-.424-.704-.728s-.264-.64-.264-1.008c0-.3734.0854-.712.256-1.016.1707-.304.4-.544.688-.72s.6027-.264.944-.264c.336 0 .64.0826.912.248.2774.1653.496.3973.656.696.16.2986.24.6346.24 1.008 0 .0853-.0053.1706-.016.256h-3.12c.0267.2346.104.448.232.64s.2907.344.488.456c.2027.112.424.168.664.168.4427 0 .8347-.192 1.176-.576l.376.344c-.1706.2133-.3866.3946-.648.544-.2613.144-.568.216-.92.216zm1.216-2.264c-.048-.3734-.184-.6694-.408-.888-.224-.224-.5066-.336-.848-.336-.224 0-.4346.056-.632.168-.192.1066-.352.2533-.48.44-.1226.1866-.1973.392-.224.616z"/><path d="m95.0072 44.0001v-3.84h.544v.6h.008c.1013-.176.264-.3334.488-.472.2293-.1387.488-.208.776-.208h.176v.56c-.0747-.0107-.1494-.016-.224-.016-.224 0-.4294.056-.616.168-.1867.112-.336.2666-.448.464-.1067.1973-.16.4186-.16.664v2.08z"/><path d="m98.3724 44.0001h-.544v-5.6h.544z"/><path d="m102.287 40.1601h.568l-1.656 4.44c-.138.3733-.306.6453-.504.816-.192.176-.437.264-.7358.264-.1653 0-.3173-.032-.456-.096v-.528c.048.0266.1067.0506.176.072.0747.0213.152.032.232.032.3308 0 .5708-.192.7198-.576l.232-.576-1.6958-3.848h.592l1.3838 3.176h.016z"/><path d="m105.559 44.0001v-5.6h2.096c.347 0 .659.0773.936.232.283.1546.504.368.664.64.16.2666.24.56.24.88s-.08.616-.24.888c-.16.2666-.381.4773-.664.632-.277.1546-.589.232-.936.232h-1.496v2.096zm2.096-2.664c.363 0 .659-.112.888-.336.235-.224.352-.5067.352-.848 0-.224-.053-.424-.16-.6-.107-.1814-.253-.3227-.44-.424-.187-.1067-.4-.16-.64-.16h-1.496v2.368z"/><path d="m110.485 44.0001v-5.6h.544v2.376h.008c.101-.1814.264-.3414.488-.48.229-.144.485-.216.768-.216.293 0 .557.0693.792.208.234.1386.418.3333.552.584.133.2506.2.5386.2.864v2.264h-.544v-2.264c0-.336-.102-.608-.304-.816-.198-.208-.451-.312-.76-.312-.224 0-.427.056-.608.168-.182.1066-.326.256-.432.448-.107.192-.16.408-.16.648v2.128z"/><path d="m116.446 40.0801c.293 0 .552.064.776.192.229.128.408.3066.536.536.128.224.192.4826.192.776v2.416h-.52v-.616h-.008c-.101.176-.272.336-.512.48s-.515.216-.824.216c-.251 0-.475-.0507-.672-.152-.192-.1014-.344-.2347-.456-.4-.107-.1707-.16-.352-.16-.544 0-.3094.107-.568.32-.776.213-.2134.515-.352.904-.416l1.392-.232v-.008c0-.288-.091-.52-.272-.696-.176-.176-.408-.264-.696-.264-.224 0-.421.0506-.592.152-.165.096-.325.224-.48.384l-.36-.344c.16-.1974.363-.3627.608-.496.245-.1387.52-.208.824-.208zm-.304 3.504c.235 0 .448-.056.64-.168.197-.112.352-.264.464-.456.112-.1974.168-.416.168-.656v-.272l-1.264.208c-.272.048-.475.1333-.608.256-.133.1226-.2.2746-.2.456 0 .176.072.3253.216.448.149.1226.344.184.584.184z"/><path d="m119.171 44.0001v-3.84h.544v.6h.008c.102-.176.264-.3334.488-.472.23-.1387.488-.208.776-.208h.176v.56c-.074-.0107-.149-.016-.224-.016-.224 0-.429.056-.616.168-.186.112-.336.2666-.448.464-.106.1973-.16.4186-.16.664v2.08z"/><path d="m121.952 44.0001v-3.84h.544v.592h.008c.08-.1707.219-.3254.416-.464.203-.1387.443-.208.72-.208.294 0 .55.08.768.24.219.16.374.336.464.528h.016c.086-.192.243-.368.472-.528.235-.16.515-.24.84-.24.262 0 .499.0693.712.208.219.1333.392.3253.52.576.128.2453.192.5306.192.856v2.28h-.544v-2.28c0-.3414-.09-.6107-.272-.808-.181-.2027-.41-.304-.688-.304-.304 0-.557.1146-.76.344-.197.224-.296.5253-.296.904v2.144h-.544v-2.28c0-.3414-.093-.6107-.28-.808-.181-.2027-.41-.304-.688-.304-.304 0-.557.1146-.76.344-.197.224-.296.5253-.296.904v2.144z"/><path d="m130.235 40.0801c.293 0 .552.064.776.192.229.128.408.3066.536.536.128.224.192.4826.192.776v2.416h-.52v-.616h-.008c-.101.176-.272.336-.512.48s-.515.216-.824.216c-.251 0-.475-.0507-.672-.152-.192-.1014-.344-.2347-.456-.4-.107-.1707-.16-.352-.16-.544 0-.3094.107-.568.32-.776.213-.2134.515-.352.904-.416l1.392-.232v-.008c0-.288-.091-.52-.272-.696-.176-.176-.408-.264-.696-.264-.224 0-.421.0506-.592.152-.165.096-.325.224-.48.384l-.36-.344c.16-.1974.363-.3627.608-.496.245-.1387.52-.208.824-.208zm-.304 3.504c.235 0 .448-.056.64-.168.197-.112.352-.264.464-.456.112-.1974.168-.416.168-.656v-.272l-1.264.208c-.272.048-.475.1333-.608.256-.133.1226-.2.2746-.2.456 0 .176.072.3253.216.448.149.1226.344.184.584.184z"/><path d="m133.082 44.0001h-.624l1.432-2-1.312-1.84h.648l1.016 1.464h.016l1.008-1.464h.632l-1.312 1.84 1.432 2h-.656l-1.128-1.624h-.016z"/><path d="m138.39 44.0801c-.352 0-.677-.088-.976-.264-.298-.1814-.536-.424-.712-.728s-.264-.64-.264-1.008.088-.704.264-1.008.414-.544.712-.72c.299-.1814.624-.272.976-.272s.678.0906.976.272c.299.176.536.416.712.72s.264.64.264 1.008-.088.704-.264 1.008-.413.5466-.712.728c-.298.176-.624.264-.976.264zm0-.528c.256 0 .491-.064.704-.192.219-.128.39-.304.512-.528.128-.2294.192-.48.192-.752s-.064-.52-.192-.744c-.122-.2294-.293-.408-.512-.536-.213-.128-.448-.192-.704-.192s-.493.064-.712.192c-.213.128-.384.3066-.512.536-.122.224-.184.472-.184.744s.062.5226.184.752c.128.224.299.4.512.528.219.128.456.192.712.192z"/><path d="m143.403 44.0001v-5.6h2.096c.347 0 .659.0773.936.232.283.1546.504.368.664.64.16.2666.24.56.24.88s-.08.616-.24.888c-.16.2666-.381.4773-.664.632-.277.1546-.589.232-.936.232h-1.496v2.096zm2.096-2.664c.363 0 .659-.112.888-.336.235-.224.352-.5067.352-.848 0-.224-.053-.424-.16-.6-.107-.1814-.253-.3227-.44-.424-.187-.1067-.4-.16-.64-.16h-1.496v2.368z"/><path d="m148.328 44.0001v-5.6h.544v2.376h.008c.102-.1814.264-.3414.488-.48.23-.144.486-.216.768-.216.294 0 .558.0693.792.208.235.1386.419.3333.552.584.134.2506.2.5386.2.864v2.264h-.544v-2.264c0-.336-.101-.608-.304-.816-.197-.208-.45-.312-.76-.312-.224 0-.426.056-.608.168-.181.1066-.325.256-.432.448-.106.192-.16.408-.16.648v2.128z"/><path d="m154.29 40.0801c.293 0 .552.064.776.192.229.128.408.3066.536.536.128.224.192.4826.192.776v2.416h-.52v-.616h-.008c-.102.176-.272.336-.512.48s-.515.216-.824.216c-.251 0-.475-.0507-.672-.152-.192-.1014-.344-.2347-.456-.4-.107-.1707-.16-.352-.16-.544 0-.3094.106-.568.32-.776.213-.2134.514-.352.904-.416l1.392-.232v-.008c0-.288-.091-.52-.272-.696-.176-.176-.408-.264-.696-.264-.224 0-.422.0506-.592.152-.166.096-.326.224-.48.384l-.36-.344c.16-.1974.362-.3627.608-.496.245-.1387.52-.208.824-.208zm-.304 3.504c.234 0 .448-.056.64-.168.197-.112.352-.264.464-.456.112-.1974.168-.416.168-.656v-.272l-1.264.208c-.272.048-.475.1333-.608.256-.134.1226-.2.2746-.2.456 0 .176.072.3253.216.448.149.1226.344.184.584.184z"/><path d="m157.015 44.0001v-3.84h.544v.6h.008c.101-.176.264-.3334.488-.472.229-.1387.488-.208.776-.208h.176v.56c-.075-.0107-.149-.016-.224-.016-.224 0-.429.056-.616.168s-.336.2666-.448.464c-.107.1973-.16.4186-.16.664v2.08z"/><path d="m159.796 44.0001v-3.84h.544v.592h.008c.08-.1707.219-.3254.416-.464.203-.1387.443-.208.72-.208.294 0 .55.08.768.24.219.16.374.336.464.528h.016c.086-.192.243-.368.472-.528.235-.16.515-.24.84-.24.262 0 .499.0693.712.208.219.1333.392.3253.52.576.128.2453.192.5306.192.856v2.28h-.544v-2.28c0-.3414-.09-.6107-.272-.808-.181-.2027-.41-.304-.688-.304-.304 0-.557.1146-.76.344-.197.224-.296.5253-.296.904v2.144h-.544v-2.28c0-.3414-.093-.6107-.28-.808-.181-.2027-.41-.304-.688-.304-.304 0-.557.1146-.76.344-.197.224-.296.5253-.296.904v2.144z"/><path d="m168.079 40.0801c.293 0 .552.064.776.192.229.128.408.3066.536.536.128.224.192.4826.192.776v2.416h-.52v-.616h-.008c-.102.176-.272.336-.512.48s-.515.216-.824.216c-.251 0-.475-.0507-.672-.152-.192-.1014-.344-.2347-.456-.4-.107-.1707-.16-.352-.16-.544 0-.3094.106-.568.32-.776.213-.2134.514-.352.904-.416l1.392-.232v-.008c0-.288-.091-.52-.272-.696-.176-.176-.408-.264-.696-.264-.224 0-.422.0506-.592.152-.166.096-.326.224-.48.384l-.36-.344c.16-.1974.362-.3627.608-.496.245-.1387.52-.208.824-.208zm-.304 3.504c.234 0 .448-.056.64-.168.197-.112.352-.264.464-.456.112-.1974.168-.416.168-.656v-.272l-1.264.208c-.272.048-.475.1333-.608.256-.134.1226-.2.2746-.2.456 0 .176.072.3253.216.448.149.1226.344.184.584.184z"/><path d="m172.468 44.0801c-.347 0-.669-.088-.968-.264-.293-.1814-.528-.424-.704-.728-.171-.304-.256-.64-.256-1.008s.085-.704.256-1.008c.176-.304.411-.544.704-.72.299-.1814.621-.272.968-.272.352 0 .661.08.928.24.272.1546.485.336.64.544l-.4.328c-.315-.3894-.704-.584-1.168-.584-.251 0-.483.064-.696.192-.208.128-.376.3066-.504.536-.123.224-.184.472-.184.744s.061.5226.184.752c.128.224.296.4.504.528.213.128.445.192.696.192.261 0 .491-.0587.688-.176.197-.1174.363-.2587.496-.424l.4.328c-.155.2133-.371.4-.648.56-.272.16-.584.24-.936.24z"/><path d="m177.568 40.1601h.568l-1.656 4.44c-.138.3733-.306.6453-.504.816-.192.176-.437.264-.736.264-.165 0-.317-.032-.456-.096v-.528c.048.0266.107.0506.176.072.075.0213.152.032.232.032.331 0 .571-.192.72-.576l.232-.576-1.696-3.848h.592l1.384 3.176h.016z"/><path d="m182.304 44.0801c-.416 0-.792-.0827-1.128-.248-.33-.1707-.589-.368-.776-.592l.416-.4c.166.1866.374.3466.624.48.251.128.539.192.864.192.416 0 .736-.096.96-.288.23-.192.344-.4374.344-.736 0-.1974-.058-.36-.176-.488-.117-.1334-.264-.2374-.44-.312-.176-.0747-.413-.1574-.712-.248-.373-.1174-.674-.2267-.904-.328-.224-.1067-.416-.2614-.576-.464-.16-.208-.24-.48-.24-.816 0-.272.075-.5227.224-.752.15-.2347.363-.4187.64-.552.278-.1387.598-.208.96-.208.358 0 .68.0693.968.208.294.1386.526.2986.696.48l-.408.4c-.138-.1387-.314-.2587-.528-.36-.213-.1067-.456-.16-.728-.16-.384 0-.685.0906-.904.272-.213.1813-.32.4053-.32.672 0 .1973.059.3626.176.496.118.128.264.2293.44.304.176.0746.414.1573.712.248.368.112.667.2213.896.328.235.1066.432.264.592.472.16.2026.24.472.24.808 0 .2933-.077.5626-.232.808-.154.24-.378.432-.672.576-.288.1386-.624.208-1.008.208z"/><path d="m186.952 44.0801c-.346 0-.666-.088-.96-.264-.293-.1814-.528-.424-.704-.728s-.264-.64-.264-1.008c0-.3734.086-.712.256-1.016.171-.304.4-.544.688-.72s.603-.264.944-.264c.336 0 .64.0826.912.248.278.1653.496.3973.656.696.16.2986.24.6346.24 1.008 0 .0853-.005.1706-.016.256h-3.12c.027.2346.104.448.232.64s.291.344.488.456c.203.112.424.168.664.168.443 0 .835-.192 1.176-.576l.376.344c-.17.2133-.386.3946-.648.544-.261.144-.568.216-.92.216zm1.216-2.264c-.048-.3734-.184-.6694-.408-.888-.224-.224-.506-.336-.848-.336-.224 0-.434.056-.632.168-.192.1066-.352.2533-.48.44-.122.1866-.197.392-.224.616z"/><path d="m189.679 44.0001v-3.84h.544v.6h.008c.101-.176.264-.3334.488-.472.229-.1387.488-.208.776-.208h.176v.56c-.075-.0107-.149-.016-.224-.016-.224 0-.429.056-.616.168s-.336.2666-.448.464c-.107.1973-.16.4186-.16.664v2.08z"/><path d="m194.257 44.0001h-.6l-1.544-3.84h.584l1.264 3.192h.016l1.256-3.192h.568z"/><path d="m197.138 44.0001h-.544v-3.84h.544zm-.272-4.68c-.096 0-.181-.0347-.256-.104-.069-.0694-.104-.1547-.104-.256 0-.1014.035-.1867.104-.256.075-.0694.16-.104.256-.104.101 0 .187.0346.256.104.075.0693.112.1546.112.256 0 .1013-.037.1866-.112.256-.069.0693-.155.104-.256.104z"/><path d="m200.101 44.0801c-.347 0-.669-.088-.968-.264-.293-.1814-.528-.424-.704-.728-.171-.304-.256-.64-.256-1.008s.085-.704.256-1.008c.176-.304.411-.544.704-.72.299-.1814.621-.272.968-.272.352 0 .661.08.928.24.272.1546.485.336.64.544l-.4.328c-.315-.3894-.704-.584-1.168-.584-.251 0-.483.064-.696.192-.208.128-.376.3066-.504.536-.123.224-.184.472-.184.744s.061.5226.184.752c.128.224.296.4.504.528.213.128.445.192.696.192.261 0 .491-.0587.688-.176.197-.1174.363-.2587.496-.424l.4.328c-.155.2133-.371.4-.648.56-.272.16-.584.24-.936.24z"/><path d="m204.171 44.0801c-.347 0-.667-.088-.96-.264-.293-.1814-.528-.424-.704-.728s-.264-.64-.264-1.008c0-.3734.085-.712.256-1.016s.4-.544.688-.72.603-.264.944-.264c.336 0 .64.0826.912.248.277.1653.496.3973.656.696.16.2986.24.6346.24 1.008 0 .0853-.005.1706-.016.256h-3.12c.027.2346.104.448.232.64s.291.344.488.456c.203.112.424.168.664.168.443 0 .835-.192 1.176-.576l.376.344c-.171.2133-.387.3946-.648.544-.261.144-.568.216-.92.216zm1.216-2.264c-.048-.3734-.184-.6694-.408-.888-.224-.224-.507-.336-.848-.336-.224 0-.435.056-.632.168-.192.1066-.352.2533-.48.44-.123.1866-.197.392-.224.616z"/><path d="m208.018 44.0801c-.304 0-.584-.0694-.84-.208-.256-.1387-.451-.2934-.584-.464l.368-.36c.106.1333.256.2533.448.36.192.1066.397.16.616.16.272 0 .482-.0614.632-.184.154-.128.232-.288.232-.48 0-.1654-.072-.2907-.216-.376-.144-.0854-.366-.1707-.664-.256-.267-.0854-.486-.1654-.656-.24-.166-.0747-.307-.184-.424-.328-.118-.144-.176-.328-.176-.552 0-.1867.053-.36.16-.52.112-.1654.266-.2987.464-.4.202-.1014.429-.152.68-.152.277 0 .522.0533.736.16.213.1066.392.2346.536.384l-.368.36c-.262-.2614-.563-.392-.904-.392-.235 0-.422.056-.56.168-.134.1066-.2.2373-.2.392 0 .16.069.2826.208.368.144.08.362.1626.656.248.266.08.482.16.648.24.17.0746.314.184.432.328.122.144.184.3333.184.568 0 .2133-.059.4106-.176.592-.112.176-.275.3173-.488.424-.214.1066-.462.16-.744.16z"/></g></svg>