<svg fill="none" height="24" viewBox="0 0 175 24" width="175" xmlns="http://www.w3.org/2000/svg"><g fill="#000"><path clip-rule="evenodd" d="m12 24c6.6274 0 12-5.3726 12-12 0-6.62744-5.3726-12-12-12-6.62741 0-12 5.37256-12 12 0 6.6274 5.37259 12 12 12zm-2.91443-9.9864c-.33172 0-.64206-.1799-.80972-.4689-.4675-.8086-.71454-1.7289-.71454-2.6616 0-2.93724 2.3905-5.32689 5.32899-5.32689.5151 0 .9346.42078.9346.93787 0 .51733-.4206.93805-.9376.93805-1.903 0-3.45081 1.54816-3.45081 3.45097 0 .6041.16001 1.2001.46295 1.7241.03138.0542.05704.1116.07673.1711.00723.0218.01364.044.01925.0664.00558.0222.01028.0447.01428.0674.0093.0535.014.1082.014.1632 0 .5174-.42076.9383-.93813.9383zm1.88123-5.2044c-.5573.51624-.9061 1.2542-.9061 2.0739 0 .5142.139.9956.3796 1.4119.1344.233.2074.5012.2074.7803 0 .6244-.366 1.163-.89492 1.4135.72552.2242 1.53902.1572 2.24902-.2523.4457-.2573.7929-.6182 1.0329-1.0351.1348-.233.3299-.43.5722-.5697.5404-.3122 1.1902-.2645 1.6716.0689-.1685-.7408-.6332-1.412-1.3433-1.822-.4455-.2572-.9318-.3773-1.4123-.377-.2693 0-.5379-.0708-.7797-.2106-.5409-.31218-.8245-.89836-.7764-1.4818zm5.3581 7.6503c-.1642 0-.3269-.0435-.4707-.1268-.4479-.2587-.6023-.8331-.3434-1.2808.9508-1.648.3844-3.7625-1.2633-4.7141-.5222-.3014-1.1175-.46066-1.7217-.46066-.1654 0-.3269-.04383-.4709-.12677-.4477-.25879-.6013-.83368-.343-1.28156.1656-.28699.4765-.46588.811-.46661.9352 0 1.8549.24621 2.6621.71222 1.2315.71112 2.1128 1.86008 2.4811 3.23548.3682 1.3749.1791 2.8108-.5323 4.0429-.1661.2879-.4765.4667-.8089.4667zm-5.7304.6551c-1.90142 0-3.67214-1.0215-4.62065-2.6654-.25788-.4461-.10288-1.0195.34491-1.2778.43487-.2511 1.03299-.088 1.28097.3425.61502 1.0647 1.76135 1.726 2.99187 1.726.6019 0 1.1977-.1602 1.7221-.4628.5235-.3019.9595-.7388 1.2618-1.2636.0817-.1406.2003-.2586.3437-.341.4339-.2515 1.0323-.0877 1.2811.3432.1661.2876.1653.6463-.0016.9357-.4661.8085-1.1393 1.4827-1.9471 1.9492-.8091.4671-1.7278.714-2.6571.714z" fill-rule="evenodd"/><path d="m30 0h1v24h-1z"/><path d="m114.44 16.664c.672.3307 1.424.496 2.256.496.768 0 1.44-.1387 2.016-.416.586-.288 1.034-.672 1.344-1.152.309-.4907.464-1.0293.464-1.616 0-.672-.16-1.2107-.48-1.616-.32-.416-.715-.7307-1.184-.944-.459-.2133-1.056-.432-1.792-.656-.598-.1813-1.072-.3467-1.424-.496s-.646-.35199-.88-.60798c-.235-.26667-.352-.59734-.352-.99201 0-.53333.213-.98133.64-1.344.437-.36266 1.04-.544 1.808-.544.544 0 1.029.10667 1.456.32.426.20267.778.44267 1.056.72001l.816-.8c-.342-.36267-.806-.68267-1.392-.96-.576-.27734-1.222-.41601-1.936-.41601-.726 0-1.366.13867-1.92.41601-.555.26666-.982.63466-1.28 1.104-.299.45866-.448.96-.448 1.50399 0 .672.16 1.216.48 1.63199.32.4053.704.7147 1.152.928.458.2027 1.061.4213 1.808.656.597.1813 1.072.3467 1.424.496s.645.3573.88.624c.234.256.352.5813.352.976 0 .5973-.23 1.088-.688 1.472-.448.384-1.088.576-1.92.576-.651 0-1.227-.128-1.728-.384-.502-.2667-.918-.5867-1.248-.96l-.832.8c.373.448.89.8427 1.552 1.184z"/><path clip-rule="evenodd" d="m38.4399 17v-11.19999h4.768c.7574 0 1.4347.16534 2.032.496.608.33067 1.0774.784 1.408 1.36.3414.56534.512 1.20001.512 1.904s-.1706 1.34399-.512 1.91999c-.3306.5653-.8 1.0133-1.408 1.344-.5973.3307-1.2746.496-2.032.496h-2.368v3.68zm4.688-5.84c.4587 0 .8427-.1547 1.152-.464.32-.32.48-.69865.48-1.13599 0-.43733-.16-.81066-.48-1.12-.3093-.31999-.6933-.47999-1.152-.47999h-2.288v3.19998z" fill-rule="evenodd"/><path d="m48.3606 17v-11.19999h2.16v4.54399h.048c.192-.32.4906-.60798.896-.86399.416-.26666.8906-.39999 1.424-.39999.5653 0 1.0666.13333 1.504.39999.4373.26667.7786.65069 1.024 1.15199.256.4907.384 1.0773.384 1.76v4.608h-2.16v-4.32c0-.48-.1334-.8587-.4-1.136-.2667-.288-.6134-.432-1.04-.432-.4907 0-.896.1707-1.216.512-.3094.3307-.464.7627-.464 1.296v4.08z"/><path clip-rule="evenodd" d="m62.2762 9.49602c-.512-.27734-1.0987-.416-1.76-.416-.6827 0-1.296.14933-1.84.448-.5333.288-.9707.63468-1.312 1.03998l1.232 1.184c.544-.608 1.1467-.912 1.808-.912.384 0 .6987.112.944.336.256.2133.3947.4747.416.784l-2.448.464c-.768.1493-1.36.4373-1.776.864s-.624.9707-.624 1.632c0 .3947.112.768.336 1.12.224.3413.528.6133.912.816.3947.2027.8373.304 1.328.304.5333 0 1.008-.128 1.424-.384s.72-.5387.912-.848h.048v1.072h2.048v-4.88c0-.5547-.144-1.0613-.432-1.52-.288-.4693-.6933-.83732-1.216-1.10398zm-.992 5.43998c-.3093.3307-.6987.496-1.168.496-.3093 0-.5547-.0747-.736-.224-.1707-.16-.256-.3627-.256-.608 0-.2027.0853-.384.256-.544.1707-.1707.4053-.2827.704-.336l1.68-.336v.256c0 .5333-.16.9653-.48 1.296z" fill-rule="evenodd"/><path d="m65.5274 17v-7.75998h2.16v.95998h.048c.192-.28799.48-.54399.864-.76799.3947-.23466.8374-.35199 1.328-.35199h.368v2.31998c-.256-.0853-.496-.128-.72-.128-.5546 0-1.008.192-1.36.576-.352.3733-.528.8747-.528 1.504v3.648z"/><path d="m71.2524 9.24002v7.75998h2.16v-4.16c0-.5333.1387-.9547.416-1.264.2774-.3093.6347-.464 1.072-.464.3734 0 .6774.1333.912.4.2454.256.3681.6187.3681 1.088v4.4h2.1599v-4.16c0-.5333.1387-.9547.416-1.264.2774-.3093.6294-.464 1.056-.464.3734 0 .6774.1333.912.4.2454.256.368.6187.368 1.088v4.4h2.16v-4.608c0-.672-.1226-1.2587-.368-1.76-.2453-.5013-.576-.88532-.992-1.15199-.4053-.26666-.8586-.39999-1.36-.39999-.6186 0-1.168.13866-1.648.416-.4693.26666-.7946.56528-.976.89598h-.064c-.16-.3307-.4373-.62932-.832-.89598-.3946-.27734-.8586-.416-1.392-.416-.5226 0-.976.13333-1.36.39999-.384.25601-.6506.54399-.8.86399h-.048v-1.10398z"/><path clip-rule="evenodd" d="m87.9724 9.08002c.6614 0 1.248.13866 1.76.416.5227.26666.928.63468 1.216 1.10398.288.4587.432.9653.432 1.52v4.88h-2.048v-1.072h-.048c-.192.3093-.496.592-.912.848s-.8906.384-1.424.384c-.4906 0-.9333-.1013-1.328-.304-.384-.2027-.688-.4747-.912-.816-.224-.352-.336-.7253-.336-1.12 0-.6613.208-1.2053.624-1.632s1.008-.7147 1.776-.864l2.448-.464c-.0213-.3093-.16-.5707-.416-.784-.2453-.224-.56-.336-.944-.336-.6613 0-1.264.304-1.808.912l-1.232-1.184c.3414-.4053.7787-.75198 1.312-1.03998.544-.29867 1.1574-.448 1.84-.448zm-.4 6.35198c.4694 0 .8587-.1653 1.168-.496.32-.3307.48-.7627.48-1.296v-.256l-1.68.336c-.2986.0533-.5333.1653-.704.336-.1706.16-.256.3413-.256.544 0 .2453.0854.448.256.608.1814.1493.4267.224.736.224z" fill-rule="evenodd"/><path d="m92.0274 17h2.416l1.616-2.624h.048l1.616 2.624h2.4956l-2.6556-4 2.4636-3.75998h-2.4156l-1.424 2.36798h-.048l-1.408-2.36798h-2.496l2.464 3.75998z"/><path clip-rule="evenodd" d="m104.467 17.16c-.768 0-1.472-.1813-2.112-.544-.63-.3627-1.131-.8533-1.504-1.472-.363-.6187-.544-1.296-.544-2.032s.181-1.4133.544-2.032c.373-.6187.874-1.10398 1.504-1.45599.64-.36266 1.344-.54399 2.112-.54399.778 0 1.482.18133 2.112.54399.64.35201 1.141.83729 1.504 1.45599.362.6187.544 1.296.544 2.032s-.182 1.4133-.544 2.032c-.363.6187-.864 1.1093-1.504 1.472-.63.3627-1.334.544-2.112.544zm0-2c.544 0 1.008-.1973 1.392-.592s.576-.88.576-1.456-.192-1.056-.576-1.44c-.384-.3947-.848-.592-1.392-.592s-1.008.1973-1.392.592c-.374.384-.56.864-.56 1.44s.186 1.0613.56 1.456c.384.3947.848.592 1.392.592z" fill-rule="evenodd"/><path d="m125.592 17.16c-.693 0-1.339-.176-1.936-.528-.587-.3627-1.056-.848-1.408-1.456-.341-.608-.512-1.28-.512-2.016s.171-1.408.512-2.016c.352-.608.821-1.088 1.408-1.43999.597-.36266 1.243-.54399 1.936-.54399.704 0 1.323.15999 1.856.47999.544.30934.971.67199 1.28 1.08799l-.8.656c-.629-.7787-1.408-1.168-2.336-1.168-.501 0-.965.128-1.392.384-.416.256-.752.6133-1.008 1.072-.245.448-.368.944-.368 1.488s.123 1.0453.368 1.504c.256.448.592.8 1.008 1.056.427.256.891.384 1.392.384.523 0 .981-.1173 1.376-.352s.725-.5173.992-.848l.8.656c-.309.4267-.741.8-1.296 1.12-.544.32-1.168.48-1.872.48z"/><path d="m130.273 7.43201c.149.13867.32.208.512.208.202 0 .373-.06933.512-.208.149-.13866.224-.30933.224-.512 0-.20266-.075-.37333-.224-.512-.139-.13866-.31-.20799-.512-.20799-.192 0-.363.06933-.512.20799-.139.13867-.208.30934-.208.512 0 .20267.069.37334.208.512z"/><path clip-rule="evenodd" d="m136.854 17.16c-.693 0-1.333-.176-1.92-.528-.586-.3627-1.056-.848-1.408-1.456s-.528-1.28-.528-2.016c0-.7467.171-1.424.512-2.032.342-.608.8-1.088 1.376-1.43999.576-.352 1.206-.52799 1.888-.52799.672 0 1.28.16533 1.824.496.555.33066.992.79468 1.312 1.39198s.48 1.2693.48 2.016c0 .1707-.01.3413-.032.512h-6.24c.054.4693.208.896.464 1.28s.582.688.976.912c.406.224.848.336 1.328.336.886 0 1.67-.384 2.352-1.152l.752.688c-.341.4267-.773.7893-1.296 1.088-.522.288-1.136.432-1.84.432zm2.432-4.528c-.096-.7467-.368-1.3387-.816-1.776-.448-.448-1.013-.672-1.696-.672-.448 0-.869.112-1.264.336-.384.2133-.704.5067-.96.88-.245.3733-.394.784-.448 1.232z" fill-rule="evenodd"/><path d="m142.996 9.32001h-1.088v7.67999h1.088v-4.256c0-.48.106-.912.32-1.296.213-.384.501-.6827.864-.896.362-.224.768-.336 1.216-.336.618 0 1.125.208 1.52.624.405.416.608.96.608 1.632v4.528h1.088v-4.528c0-.6507-.134-1.2267-.4-1.728-.267-.5013-.635-.89065-1.104-1.16798-.47-.27734-.998-.416-1.584-.416-.566 0-1.078.14399-1.536.43199-.448.27734-.774.59729-.976.95999h-.016z"/><path d="m153.292 17.08c-.672 0-1.195-.192-1.568-.576-.363-.3947-.544-.9653-.544-1.712v-4.416h-1.488v-1.05599h.976c.192 0 .341-.05866.448-.176.117-.128.176-.31466.176-.56v-1.824h.976v2.56h1.888v1.05599h-1.888v4.352c0 .416.101.736.304.96.213.224.501.336.864.336.309 0 .634-.08.976-.24v1.056c-.128.064-.294.1173-.496.16-.203.0533-.411.08-.624.08z"/><path d="m155.938 7.43201c.15.13867.32.208.512.208.203 0 .374-.06933.512-.208.15-.13866.224-.30933.224-.512 0-.20266-.074-.37333-.224-.512-.138-.13866-.309-.20799-.512-.20799-.192 0-.362.06933-.512.20799-.138.13867-.208.30934-.208.512 0 .20267.07.37334.208.512z"/><path d="m159.944 17v-6.624h-1.488v-1.05599h1.488v-1.408c0-.736.181-1.296.544-1.68.373-.39466.896-.592 1.568-.592.213 0 .421.02667.624.08.203.04267.368.096.496.16v1.05601c-.352-.16001-.677-.24001-.976-.24001-.363 0-.651.112-.864.336-.203.224-.304.544-.304.96v1.328h4.512v7.67999h-1.088v-6.624h-3.424v6.624z"/><path d="m130.241 17h1.088v-7.67999h-1.088z"/><path d="m155.906 17h1.088v-7.67999h-1.088z"/><path d="m165.016 7.64001c-.203 0-.379-.06933-.528-.208-.139-.13866-.208-.30933-.208-.512 0-.20266.069-.37333.208-.512.149-.13866.325-.20799.528-.20799.192 0 .357.06933.496.20799.149.13867.224.30934.224.512 0 .20267-.075.37334-.224.512-.139.13867-.304.208-.496.208z"/><path d="m169.137 16.632c.598.352 1.243.528 1.936.528.704 0 1.328-.16 1.872-.48.555-.32.987-.6933 1.296-1.12l-.8-.656c-.266.3307-.597.6133-.992.848-.394.2347-.853.352-1.376.352-.501 0-.965-.128-1.392-.384-.416-.256-.752-.608-1.008-1.056-.245-.4587-.368-.96-.368-1.504s.123-1.04.368-1.488c.256-.4587.592-.816 1.008-1.072.427-.256.891-.384 1.392-.384.928 0 1.707.3893 2.336 1.168l.8-.656c-.309-.416-.736-.77865-1.28-1.08799-.533-.32-1.152-.47999-1.856-.47999-.693 0-1.338.18133-1.936.54399-.586.35199-1.056.83199-1.408 1.43999-.341.608-.512 1.28-.512 2.016s.171 1.408.512 2.016c.352.608.822 1.0933 1.408 1.456z"/></g></svg>