<svg fill="none" height="48" viewBox="0 0 172 48" width="172" xmlns="http://www.w3.org/2000/svg"><g fill="#000"><path clip-rule="evenodd" d="m24 48c13.2548 0 24-10.7452 24-24s-10.7452-24-24-24-24 10.7452-24 24 10.7452 24 24 24zm-5.8288-19.9727c-.6635 0-1.2842-.3599-1.6195-.9379-.935-1.6171-1.4291-3.4579-1.4291-5.3233 0-5.8743 4.781-10.6537 10.6579-10.6537 1.0304 0 1.8692.8416 1.8692 1.8758 0 1.0346-.8411 1.8761-1.875 1.8761-3.8061 0-6.9017 3.0963-6.9017 6.9018 0 1.2082.32 2.4003.9259 3.4483.1629.2813.2485.605.2485.9362 0 1.0348-.8415 1.8767-1.8762 1.8767zm3.7625-10.4089c-1.1146 1.0324-1.8123 2.5084-1.8123 4.1477 0 1.0285.278 1.9914.7592 2.8239.2689.466.4147 1.0024.4147 1.5606 0 1.2488-.732 2.3259-1.7898 2.8271 1.4512.4483 3.0781.3143 4.498-.5048.8915-.5144 1.5858-1.2362 2.0658-2.0702.2697-.4659.66-.86 1.1445-1.1393 1.0808-.6243 2.3803-.529 3.3432.1378-.337-1.4817-1.2664-2.8239-2.6866-3.644-.891-.5145-1.8636-.7546-2.8246-.754-.5385 0-1.0759-.1415-1.5594-.4212-1.0817-.6244-1.649-1.7968-1.5527-2.9636zm10.716 15.3006c-.3282 0-.6536-.0871-.9412-.2535-.896-.5174-1.2047-1.6662-.6869-2.5617 1.9016-3.296.7688-7.5251-2.5266-9.4281-1.0443-.6028-2.2349-.9215-3.4434-.9215-.3308 0-.6539-.0876-.9419-.2535-.8953-.5176-1.2026-1.6673-.6858-2.5631.3311-.574.9528-.9317 1.6219-.9332 1.8704 0 3.7097.4925 5.3242 1.4244 2.463 1.4223 4.2256 3.7202 4.9622 6.471.7364 2.7499.3582 5.6216-1.0647 8.0858-.332.5758-.9529.9334-1.6178.9334zm-11.4607 1.3102c-3.8029 0-7.3443-2.0429-9.2413-5.3307-.5157-.8924-.2057-2.0392.6898-2.5557.8698-.5022 2.066-.176 2.5619.6851 1.2301 2.1292 3.5228 3.4518 5.9837 3.4518 1.2039 0 2.3955-.3202 3.4442-.9255 1.047-.6038 1.9191-1.4777 2.5238-2.5272.1632-.2813.4005-.5171.6873-.6821.8679-.5028 2.0647-.1752 2.5623.6865.3321.5751.3304 1.2926-.0033 1.8714-.9321 1.6172-2.2785 2.9654-3.8942 3.8984-1.6182.9341-3.4556 1.428-5.3142 1.428z" fill-rule="evenodd"/><path d="m61 0h-1v48h1z"/><path clip-rule="evenodd" d="m74.8002 16v-14h5.96c.9467 0 1.7934.20667 2.54.62.76.41333 1.3467.98 1.76 1.7.4267.70667.64 1.5.64 2.38s-.2133 1.68-.64 2.4c-.4133.70667-1 1.2667-1.76 1.68-.7466.4133-1.5933.62-2.54.62h-2.96v4.6zm5.86-7.3c.5734 0 1.0534-.19333 1.44-.58.4-.4.6-.87333.6-1.42s-.2-1.01333-.6-1.4c-.3866-.4-.8666-.6-1.44-.6h-2.86v4z" fill-rule="evenodd"/><path d="m87.201 16v-14h2.7v5.68h.06c.24-.4.6133-.76 1.12-1.08.52-.33333 1.1133-.5 1.78-.5.7067 0 1.3333.16667 1.88.5s.9733.81333 1.28 1.44c.32.61333.48 1.34667.48 2.2v5.76h-2.7v-5.4c0-.6-.1667-1.07333-.5-1.42-.3333-.36-.7667-.54-1.3-.54-.6133 0-1.12.21333-1.52.64-.3867.41333-.58.9533-.58 1.62v5.1z"/><path clip-rule="evenodd" d="m104.596 6.62c-.64-.34667-1.374-.52-2.2-.52-.854 0-1.62.18667-2.3.56-.6671.36-1.2138.79333-1.6405 1.3l1.54 1.48c.6805-.76 1.4335-1.14 2.2605-1.14.48 0 .873.14 1.18.42.32.26667.493.59333.52.98l-3.06.58c-.9605.1867-1.7005.5467-2.2205 1.08s-.78 1.2133-.78 2.04c0 .4933.14.96.42 1.4.28.4267.66.7667 1.14 1.02.4934.2533 1.0465.38 1.6605.38.666 0 1.26-.16 1.78-.48s.9-.6733 1.14-1.06h.06v1.34h2.56v-6.1c0-.69333-.18-1.32667-.54-1.9-.36-.58667-.867-1.04667-1.52-1.38zm-1.24 6.8c-.387.4133-.874.62-1.46.62-.387 0-.694-.0933-.92-.28-.214-.2-.32-.4533-.32-.76 0-.2533.106-.48.32-.68.213-.2133.506-.3533.88-.42l2.1-.42v.32c0 .6667-.2 1.2067-.6 1.62z" fill-rule="evenodd"/><path d="m108.66 16v-9.7h2.7v1.2h.06c.24-.36.6-.68 1.08-.96.493-.29333 1.046-.44 1.66-.44h.46v2.9c-.32-.10667-.62-.16-.9-.16-.694 0-1.26.24-1.7.72-.44.4667-.66 1.0933-.66 1.88v4.56z"/><path d="m115.816 6.3v9.7h2.7v-5.2c0-.6667.173-1.19333.52-1.58s.793-.58 1.34-.58c.467 0 .847.16667 1.14.5.307.32.46.77333.46 1.36v5.5h2.7v-5.2c0-.6667.173-1.19333.52-1.58s.787-.58 1.32-.58c.467 0 .847.16667 1.14.5.307.32.46.77333.46 1.36v5.5h2.7v-5.76c0-.84-.153-1.57333-.46-2.2s-.72-1.10667-1.24-1.44c-.507-.33333-1.073-.5-1.7-.5-.773 0-1.46.17333-2.06.52-.587.33333-.993.70667-1.22 1.12h-.08c-.2-.41333-.547-.78667-1.04-1.12-.493-.34667-1.073-.52-1.74-.52-.653 0-1.22.16667-1.7.5-.48.32-.813.68-1 1.08h-.06v-1.38z"/><path clip-rule="evenodd" d="m136.716 6.1c.827 0 1.56.17333 2.2.52.653.33333 1.16.79333 1.52 1.38.36.57333.54 1.20667.54 1.9v6.1h-2.56v-1.34h-.06c-.24.3867-.62.74-1.14 1.06s-1.113.48-1.78.48c-.613 0-1.167-.1267-1.66-.38-.48-.2533-.86-.5933-1.14-1.02-.28-.44-.42-.9067-.42-1.4 0-.8267.26-1.5067.78-2.04s1.26-.8933 2.22-1.08l3.06-.58c-.027-.38667-.2-.71333-.52-.98-.307-.28-.7-.42-1.18-.42-.827 0-1.58.38-2.26 1.14l-1.54-1.48c.427-.50667.973-.94 1.64-1.3.68-.37333 1.447-.56 2.3-.56zm-.5 7.94c.587 0 1.073-.2067 1.46-.62.4-.4133.6-.9533.6-1.62v-.32l-2.1.42c-.373.0667-.667.2067-.88.42-.213.2-.32.4267-.32.68 0 .3067.107.56.32.76.227.1867.533.28.92.28z" fill-rule="evenodd"/><path d="m141.785 16h3.02l2.02-3.28h.06l2.02 3.28h3.12l-3.32-5 3.08-4.7h-3.02l-1.78 2.96h-.06l-1.76-2.96h-3.12l3.08 4.7z"/><path clip-rule="evenodd" d="m157.334 16.2c-.96 0-1.84-.2267-2.64-.68-.787-.4533-1.414-1.0667-1.88-1.84-.454-.7733-.68-1.62-.68-2.54s.226-1.76667.68-2.54c.466-.77333 1.093-1.38 1.88-1.82.8-.45333 1.68-.68 2.64-.68.973 0 1.853.22667 2.64.68.8.44 1.426 1.04667 1.88 1.82.453.77333.68 1.62.68 2.54s-.227 1.7667-.68 2.54c-.454.7733-1.08 1.3867-1.88 1.84-.787.4533-1.667.68-2.64.68zm0-2.5c.68 0 1.26-.2467 1.74-.74s.72-1.1.72-1.82-.24-1.32-.72-1.8c-.48-.49333-1.06-.74-1.74-.74s-1.26.24667-1.74.74c-.467.48-.7 1.08-.7 1.8s.233 1.3267.7 1.82c.48.4933 1.06.74 1.74.74z" fill-rule="evenodd"/><path d="m76.7922 31.392c.8854.512 1.856.768 2.912.768 1.0347 0 1.952-.2293 2.752-.688.8107-.4587 1.4454-1.0027 1.904-1.632l-.864-.672c-.3946.5013-.912.9387-1.552 1.312-.64.3627-1.3866.544-2.24.544-.832 0-1.6-.2027-2.304-.608-.704-.416-1.2586-.976-1.664-1.68-.4053-.704-.608-1.4827-.608-2.336s.2027-1.632.608-2.336c.4054-.7147.96-1.2747 1.664-1.68s1.472-.608 2.304-.608c.8534 0 1.5894.176 2.208.528.6294.352 1.1307.7733 1.504 1.264l.864-.688c-.4266-.5973-1.0453-1.12-1.856-1.568-.8-.448-1.7066-.672-2.72-.672-1.056 0-2.0266.256-2.912.768-.8853.512-1.584 1.2107-2.096 2.096s-.768 1.8507-.768 2.896.256 2.0107.768 2.896 1.2107 1.584 2.096 2.096z"/><path clip-rule="evenodd" d="m89.0215 32.16c-.704 0-1.3547-.176-1.952-.528-.5974-.3627-1.072-.848-1.424-1.456s-.528-1.28-.528-2.016.176-1.408.528-2.016.8266-1.088 1.424-1.44c.5973-.3627 1.248-.544 1.952-.544s1.3546.1813 1.952.544c.5973.352 1.072.832 1.424 1.44s.528 1.28.528 2.016-.176 1.408-.528 2.016-.8267 1.0933-1.424 1.456c-.5974.352-1.248.528-1.952.528zm0-1.056c.512 0 .9813-.128 1.408-.384.4373-.256.7786-.608 1.024-1.056.256-.4587.384-.96.384-1.504s-.128-1.04-.384-1.488c-.2454-.4587-.5867-.816-1.024-1.072-.4267-.256-.896-.384-1.408-.384s-.9867.128-1.424.384c-.4267.256-.768.6133-1.024 1.072-.2454.448-.368.944-.368 1.488s.1226 1.0453.368 1.504c.256.448.5973.8 1.024 1.056.4373.256.912.384 1.424.384z" fill-rule="evenodd"/><path d="m95.6147 24.32h-1.088v7.68h1.088v-4.288c0-.7573.1974-1.36.592-1.808.4054-.4587.912-.688 1.52-.688.5547 0 1.0134.2027 1.376.608.3734.3947.56.9333.56 1.616v4.56h1.0883v-4.288c0-.7573.197-1.36.592-1.808.405-.4587.912-.688 1.52-.688.554 0 1.013.2027 1.376.608.362.3947.544.9333.544 1.616v4.56h1.088v-4.56c0-.6507-.128-1.2213-.384-1.712-.256-.5013-.603-.8853-1.04-1.152-.427-.2773-.902-.416-1.424-.416-.651 0-1.211.16-1.68.48-.459.32-.774.672-.944 1.056h-.032c-.182-.384-.4909-.736-.9283-1.056-.4373-.32-.9493-.48-1.536-.48-.5546 0-1.0346.1387-1.44.416-.3946.2773-.672.5867-.832.928h-.016z"/><path clip-rule="evenodd" d="m107.924 24.32h1.088v1.328h.016c.213-.384.57-.7253 1.072-1.024.501-.3093 1.077-.464 1.728-.464.64 0 1.232.176 1.776.528.554.3413.997.816 1.328 1.424.33.608.496 1.2907.496 2.048s-.166 1.44-.496 2.048c-.331.608-.774 1.088-1.328 1.44-.544.3413-1.136.512-1.776.512-.651 0-1.227-.1493-1.728-.448-.502-.3093-.859-.656-1.072-1.04h-.016v4.688h-1.088zm3.776 6.784c.469 0 .906-.128 1.312-.384.405-.256.725-.608.96-1.056.245-.448.368-.9493.368-1.504 0-.5653-.123-1.072-.368-1.52-.235-.448-.555-.7947-.96-1.04-.406-.256-.843-.384-1.312-.384-.491 0-.944.128-1.36.384-.406.2453-.731.592-.976 1.04-.235.448-.352.9547-.352 1.52 0 .5547.117 1.056.352 1.504.245.448.57.8.976 1.056.416.256.869.384 1.36.384z" fill-rule="evenodd"/><path clip-rule="evenodd" d="m118.448 31.632c.597.352 1.248.528 1.952.528s1.354-.176 1.952-.528c.597-.3627 1.072-.848 1.424-1.456s.528-1.28.528-2.016-.176-1.408-.528-2.016-.827-1.088-1.424-1.44c-.598-.3627-1.248-.544-1.952-.544s-1.355.1813-1.952.544c-.598.352-1.072.832-1.424 1.44s-.528 1.28-.528 2.016.176 1.408.528 2.016.826 1.0933 1.424 1.456zm3.36-.912c-.427.256-.896.384-1.408.384s-.987-.128-1.424-.384c-.427-.256-.768-.608-1.024-1.056-.246-.4587-.368-.96-.368-1.504s.122-1.04.368-1.488c.256-.4587.597-.816 1.024-1.072.437-.256.912-.384 1.424-.384s.981.128 1.408.384c.437.256.778.6133 1.024 1.072.256.448.384.944.384 1.488s-.128 1.0453-.384 1.504c-.246.448-.587.8-1.024 1.056z" fill-rule="evenodd"/><path d="m128.913 32.16c-.587 0-1.115-.1387-1.584-.416s-.837-.6667-1.104-1.168-.4-1.0773-.4-1.728v-4.528h1.088v4.528c0 .672.197 1.216.592 1.632.405.416.917.624 1.536.624.448 0 .853-.1067 1.216-.32.363-.224.651-.528.864-.912s.32-.816.32-1.296v-4.256h1.088v7.68h-1.088v-1.232h-.016c-.192.352-.517.672-.976.96-.448.288-.96.432-1.536.432z"/><path d="m135.749 24.32h-1.088v7.68h1.088v-4.256c0-.48.107-.912.32-1.296s.501-.6827.864-.896c.363-.224.768-.336 1.216-.336.619 0 1.125.208 1.52.624.405.416.608.96.608 1.632v4.528h1.088v-4.528c0-.6507-.133-1.2267-.4-1.728s-.635-.8907-1.104-1.168-.997-.416-1.584-.416c-.565 0-1.077.144-1.536.432-.448.2773-.773.5973-.976.96h-.016z"/><path clip-rule="evenodd" d="m146.489 32.16c-.64 0-1.237-.1707-1.792-.512-.544-.352-.981-.832-1.312-1.44-.33-.608-.496-1.2907-.496-2.048s.166-1.44.496-2.048c.331-.608.768-1.0827 1.312-1.424.555-.352 1.152-.528 1.792-.528.651 0 1.227.1547 1.728.464.502.2987.859.64 1.072 1.024h.032v-4.848h1.072v11.2h-1.072v-1.328h-.032c-.213.384-.57.7307-1.072 1.04-.501.2987-1.077.448-1.728.448zm.128-1.056c.491 0 .939-.128 1.344-.384.416-.256.747-.608.992-1.056.246-.448.368-.9493.368-1.504 0-.5653-.122-1.072-.368-1.52-.245-.448-.576-.7947-.992-1.04-.405-.256-.853-.384-1.344-.384-.469 0-.906.128-1.312.384-.405.2453-.73.592-.976 1.04-.234.448-.352.9547-.352 1.52 0 .5547.118 1.056.352 1.504.246.448.571.8.976 1.056.406.256.843.384 1.312.384z" fill-rule="evenodd"/><path d="m152.707 22.432c.15.1387.32.208.512.208.203 0 .374-.0693.512-.208.15-.1387.224-.3093.224-.512s-.074-.3733-.224-.512c-.138-.1387-.309-.208-.512-.208-.192 0-.362.0693-.512.208-.138.1387-.208.3093-.208.512s.07.3733.208.512z"/><path d="m155.961 24.32h1.088v1.232h.016c.203-.3627.528-.6827.976-.96.459-.288.971-.432 1.536-.432.587 0 1.115.1387 1.584.416s.837.6667 1.104 1.168.4 1.0773.4 1.728v4.528h-1.088v-4.528c0-.672-.203-1.216-.608-1.632-.395-.416-.901-.624-1.52-.624-.448 0-.853.112-1.216.336-.363.2133-.651.512-.864.896s-.32.816-.32 1.296v4.256h-1.088z"/><path clip-rule="evenodd" d="m165.837 34.848c.608.3413 1.259.512 1.952.512.694 0 1.318-.1707 1.872-.512.566-.3413 1.008-.8107 1.328-1.408.32-.5867.48-1.248.48-1.984v-7.136h-1.088v1.28h-.016c-.224-.3627-.576-.6933-1.056-.992s-1.024-.448-1.632-.448c-.629 0-1.21.1653-1.744.496-.533.3307-.96.7893-1.28 1.376-.309.5867-.464 1.2427-.464 1.968s.155 1.3813.464 1.968c.32.5867.747 1.0453 1.28 1.376.534.3307 1.115.496 1.744.496.544 0 1.062-.128 1.552-.384.491-.2667.87-.624 1.136-1.072h.016v1.072c0 .832-.24 1.5147-.72 2.048s-1.104.8-1.872.8c-.522 0-1.018-.1333-1.488-.4-.458-.2667-.789-.5547-.992-.864l-.784.72c.267.3947.704.7573 1.312 1.088zm3.264-4.416c-.384.2347-.816.352-1.296.352-.458 0-.885-.1173-1.28-.352-.384-.2453-.688-.576-.912-.992-.224-.4267-.336-.9067-.336-1.44s.112-1.0133.336-1.44.528-.7573.912-.992c.395-.2347.822-.352 1.28-.352.48 0 .912.1173 1.296.352.395.2347.704.5653.928.992.235.4267.352.9067.352 1.44s-.117 1.0133-.352 1.44c-.224.416-.533.7467-.928.992z" fill-rule="evenodd"/><path d="m74.0082 44.0001v-3.312h-.744v-.528h.744v-.704c0-.368.0906-.648.272-.84.1866-.1974.448-.296.784-.296.1066 0 .2106.0133.312.04.1013.0213.184.048.248.08v.528c-.176-.08-.3387-.12-.488-.12-.1814 0-.3254.056-.432.168-.1014.112-.152.272-.152.48v.664h.944v.528h-.944v3.312z"/><path clip-rule="evenodd" d="m77.9842 44.0801c-.352 0-.6773-.088-.976-.264-.2986-.1814-.536-.424-.712-.728s-.264-.64-.264-1.008.088-.704.264-1.008.4134-.544.712-.72c.2987-.1814.624-.272.976-.272s.6774.0906.976.272c.2987.176.536.416.712.72s.264.64.264 1.008-.088.704-.264 1.008-.4133.5466-.712.728c-.2986.176-.624.264-.976.264zm0-.528c.256 0 .4907-.064.704-.192.2187-.128.3894-.304.512-.528.128-.2294.192-.48.192-.752s-.064-.52-.192-.744c-.1226-.2294-.2933-.408-.512-.536-.2133-.128-.448-.192-.704-.192s-.4933.064-.712.192c-.2133.128-.384.3066-.512.536-.1226.224-.184.472-.184.744s.0614.5226.184.752c.128.224.2987.4.512.528.2187.128.456.192.712.192z" fill-rule="evenodd"/><path d="m152.675 32h1.088v-7.68h-1.088z"/><path d="m81.4809 40.1601h-.5441v3.84h.5441v-2.08c0-.2454.0533-.4667.1599-.664.112-.1974.2614-.352.4481-.464.1866-.112.392-.168.6159-.168.0747 0 .1494.0053.224.016v-.56h-.176c-.288 0-.5466.0693-.776.208-.224.1386-.3866.296-.488.472h-.0079z"/><path d="m83.7181 40.1601h.544v.592h.008c.08-.1707.2187-.3254.416-.464.2027-.1387.4427-.208.72-.208.2933 0 .5493.08.768.24s.3733.336.464.528h.016c.0853-.192.2427-.368.472-.528.2347-.16.5147-.24.84-.24.2613 0 .4987.0693.712.208.2187.1333.392.3253.52.576.128.2453.192.5306.192.856v2.28h-.544v-2.28c0-.3414-.0907-.6107-.272-.808-.1813-.2027-.4107-.304-.688-.304-.304 0-.5573.1146-.76.344-.1973.224-.296.5253-.296.904v2.144h-.544v-2.28c0-.3414-.0933-.6107-.28-.808-.1813-.2027-.4107-.304-.688-.304-.304 0-.5573.1146-.76.344-.1973.224-.296.5253-.296.904v2.144h-.544z"/><path clip-rule="evenodd" d="m91.3205 43.8161c.2934.176.6134.264.96.264.352 0 .6587-.072.92-.216.2614-.1494.4774-.3307.648-.544l-.376-.344c-.3413.384-.7333.576-1.176.576-.24 0-.4613-.056-.664-.168-.1973-.112-.36-.264-.488-.456s-.2053-.4054-.232-.64h3.12c.0107-.0854.016-.1707.016-.256 0-.3734-.08-.7094-.24-1.008-.16-.2987-.3786-.5307-.656-.696-.272-.1654-.576-.248-.912-.248-.3413 0-.656.088-.944.264s-.5173.416-.688.72c-.1706.304-.256.6426-.256 1.016 0 .368.088.704.264 1.008s.4107.5466.704.728zm1.768-2.888c.224.2186.36.5146.408.888h-2.592c.0267-.224.1014-.4294.224-.616.128-.1867.288-.3334.48-.44.1974-.112.408-.168.632-.168.3414 0 .624.112.848.336z" fill-rule="evenodd"/><path d="m95.0072 40.1601h.544v.6h.008c.1013-.176.264-.3334.488-.472.2293-.1387.488-.208.776-.208h.176v.56c-.0747-.0107-.1494-.016-.224-.016-.224 0-.4294.056-.616.168-.1867.112-.336.2666-.448.464-.1067.1973-.16.4186-.16.664v2.08h-.544z"/><path d="m97.8284 44.0001h.544v-5.6h-.544z"/><path d="m102.287 40.1601h.568l-1.656 4.44c-.138.3733-.306.6453-.504.816-.192.176-.437.264-.7358.264-.1653 0-.3173-.032-.456-.096v-.528c.048.0266.1067.0506.176.072.0747.0213.152.032.232.032.3308 0 .5708-.192.7198-.576l.232-.576-1.6958-3.848h.592l1.3838 3.176h.016z"/><path clip-rule="evenodd" d="m107.703 38.4001h-2.144v5.6h2.24c.341 0 .648-.0694.92-.208.272-.144.483-.336.632-.576.149-.2454.224-.5147.224-.808 0-.24-.053-.4587-.16-.656-.101-.1974-.229-.36-.384-.488-.149-.128-.301-.216-.456-.264.187-.08.352-.2214.496-.424.149-.208.224-.456.224-.744 0-.2667-.067-.5094-.2-.728-.133-.2187-.323-.3894-.568-.512-.24-.128-.515-.192-.824-.192zm.72 2.128c-.171.1653-.411.248-.72.248h-1.544v-1.824h1.544c.309 0 .549.0826.72.248.176.1653.264.3813.264.648 0 .2826-.088.5093-.264.68zm.232 2.624c-.213.1973-.499.296-.856.296h-1.64v-2.144h1.64c.357 0 .643.1013.856.304.213.1973.32.4586.32.784 0 .3093-.107.5626-.32.76z" fill-rule="evenodd"/><path clip-rule="evenodd" d="m112.071 40.0801c.293 0 .552.064.776.192.229.128.408.3066.536.536.128.224.192.4826.192.776v2.416h-.52v-.616h-.008c-.101.176-.272.336-.512.48s-.515.216-.824.216c-.251 0-.475-.0507-.672-.152-.192-.1014-.344-.2347-.456-.4-.107-.1707-.16-.352-.16-.544 0-.3094.107-.568.32-.776.213-.2134.515-.352.904-.416l1.392-.232v-.008c0-.288-.091-.52-.272-.696-.176-.176-.408-.264-.696-.264-.224 0-.421.0506-.592.152-.165.096-.325.224-.48.384l-.36-.344c.16-.1974.363-.3627.608-.496.245-.1387.52-.208.824-.208zm-.304 3.504c.235 0 .448-.056.64-.168.197-.112.352-.264.464-.456.112-.1974.168-.416.168-.656v-.272l-1.264.208c-.272.048-.475.1333-.608.256-.133.1226-.2.2746-.2.456 0 .176.072.3253.216.448.149.1226.344.184.584.184z" fill-rule="evenodd"/><path d="m115.326 43.7521c.187.192.448.288.784.288.107 0 .211-.0134.312-.04.101-.0214.184-.048.248-.08v-.528c-.171.08-.333.12-.488.12-.181 0-.325-.056-.432-.168-.101-.112-.152-.272-.152-.48v-2.176h.944v-.528h-.944v-1.28h-.488v.912c0 .1226-.029.216-.088.28-.053.0586-.128.088-.224.088h-.488v.528h.744v2.208c0 .3733.091.6586.272.856z"/><path d="m117.617 38.4001h.544v2.376h.008c.102-.1814.264-.3414.488-.48.23-.144.486-.216.768-.216.294 0 .558.0693.792.208.235.1386.419.3333.552.584.134.2506.2.5386.2.864v2.264h-.544v-2.264c0-.336-.101-.608-.304-.816-.197-.208-.45-.312-.76-.312-.224 0-.426.056-.608.168-.181.1066-.325.256-.432.448-.106.192-.16.408-.16.648v2.128h-.544z"/><path clip-rule="evenodd" d="m123.332 44.0001h.616l.64-1.56h2.672l.632 1.56h.648l-2.272-5.6h-.664zm1.472-2.12 1.112-2.76h.016l1.104 2.76z" fill-rule="evenodd"/><path d="m131.023 44.0801c-.416 0-.792-.0827-1.128-.248-.331-.1707-.589-.368-.776-.592l.416-.4c.165.1866.373.3466.624.48.251.128.539.192.864.192.416 0 .736-.096.96-.288.229-.192.344-.4374.344-.736 0-.1974-.059-.36-.176-.488-.117-.1334-.264-.2374-.44-.312-.176-.0747-.413-.1574-.712-.248-.373-.1174-.675-.2267-.904-.328-.224-.1067-.416-.2614-.576-.464-.16-.208-.24-.48-.24-.816 0-.272.075-.5227.224-.752.149-.2347.363-.4187.64-.552.277-.1387.597-.208.96-.208.357 0 .68.0693.968.208.293.1386.525.2986.696.48l-.408.4c-.139-.1387-.315-.2587-.528-.36-.213-.1067-.456-.16-.728-.16-.384 0-.685.0906-.904.272-.213.1813-.32.4053-.32.672 0 .1973.059.3626.176.496.117.128.264.2293.44.304.176.0746.413.1573.712.248.368.112.667.2213.896.328.235.1066.432.264.592.472.16.2026.24.472.24.808 0 .2933-.077.5626-.232.808-.155.24-.379.432-.672.576-.288.1386-.624.208-1.008.208z"/><path d="m135.247 43.7921c.347.192.733.288 1.16.288.432 0 .821-.096 1.168-.288.347-.1974.616-.4694.808-.816.197-.3467.296-.736.296-1.168v-3.408h-.6v3.408c0 .32-.074.6106-.224.872-.144.256-.344.4586-.6.608-.256.1493-.539.224-.848.224-.315 0-.6-.072-.856-.216-.251-.1494-.448-.352-.592-.608-.144-.2614-.216-.5547-.216-.88v-3.408h-.6v3.408c0 .432.096.8213.288 1.168.197.3466.469.6186.816.816z"/></g></svg>