<svg fill="none" height="16" viewBox="0 0 78 16" width="78" xmlns="http://www.w3.org/2000/svg"><g fill="#000"><path d="m15.6441 12.4326h-1.5668v-5.46656c0-1.20312-.9788-2.18204-2.182-2.18204-1.2031 0-2.18191.97892-2.18191 2.18204v5.46106h-1.58757v-12.4271h1.58757v3.89557c.62991-.45292 1.39261-.69913 2.18191-.69913 2.0671 0 3.7488 1.69102 3.7488 3.7696z"/><path clip-rule="evenodd" d="m0 16h1.5949v-4.2503c.63559.4587 1.4059.708 2.20345.708h.19353c2.09447 0 3.79835-1.704 3.79835-3.79843v-1.7057c0-2.09426-1.70388-3.79835-3.79835-3.79835h-.19353c-2.09447 0-3.79835 1.70399-3.79835 3.79835zm1.5949-9.04643c0-1.21498.98847-2.20345 2.20345-2.20345h.19353c1.21497 0 2.20355.98847 2.20355 2.20345v1.70569c0 1.21498-.98858 2.20344-2.20355 2.20344h-.19353c-1.21498 0-2.20345-.98846-2.20345-2.20344z" fill-rule="evenodd"/><path d="m23.6666 12.4263h-1.511v-5.47826c0-1.2391-1.0081-2.24728-2.2472-2.24728h-.194c-1.2391 0-2.2473 1.00818-2.2473 2.24728v1.7067c0 1.23911 1.0082 2.24716 2.2473 2.24716h.194c.5993 0 1.1704-.2313 1.6079-.6515l.4383-.43568v.39048c0 .2248-.0017.6093-.0032.9425l-.0006.1445c-.0009.1925-.0016.3538-.0016.4346v.0908l-.0773.0476c-.5823.3583-1.2613.5478-1.9635.5478h-.194c-2.0722 0-3.7581-1.686-3.7581-3.75826v-1.7067c0-2.07225 1.6859-3.75813 3.7581-3.75813h.194c2.0723 0 3.7582 1.68588 3.7582 3.75813z"/><path clip-rule="evenodd" d="m61.5263 12.4124h.1942c2.066 0 3.7519-1.6857 3.758-3.75806v-1.7068c0-2.07225-1.6859-3.75803-3.758-3.75803h-.1942c-2.0721 0-3.7581 1.68578-3.7581 3.75803v1.71917c.0071 2.06529 1.693 3.74569 3.7581 3.74569zm-2.2472-5.46486c0-1.23911 1.0081-2.24728 2.2472-2.24728h.1941c1.2392 0 2.2472 1.00817 2.2472 2.24728v1.7068c0 1.239-1.008 2.24706-2.2472 2.24706h-.1941c-1.2391 0-2.2472-1.00806-2.2472-2.24706z" fill-rule="evenodd"/><path d="m23.9986 12.4124h1.5109v-5.46486c0-1.23911 1.008-2.24718 2.2464-2.24718.3048.0011.6002.06223.8778.18167l.2266.09741v-1.62335l-.1194-.03287c-.2944-.08104-.5993-.12567-.9076-.13281l-.0769-.00091c-.8139.00051-1.5995.26451-2.2469.7495v-.75261h-1.5109z"/><path d="m41.1714 12.4124h1.511v-5.46486c0-2.0247-1.6464-3.71008-3.6715-3.75713l-.0769-.00091c-1.1857.00071-2.2912.55798-3.0018 1.50181-.691-.91749-1.764-1.47406-2.9163-1.5009l-.0768-.00091c-.8138.00051-1.5994.26451-2.2469.7495v-.75261h-1.5108v9.22601h1.5108v-5.46486c0-1.23911 1.008-2.24718 2.2464-2.24718 1.2339.00432 2.2377 1.01239 2.2377 2.24718v5.46486h1.5109v-5.46486c0-1.23911 1.0079-2.24718 2.2463-2.24718 1.234.00432 2.2379 1.01239 2.2379 2.24718z"/><path d="m49.2453 12.4263h1.5109v-5.47826c0-2.07225-1.6859-3.75813-3.758-3.75813h-.1943c-2.0721 0-3.758 1.68588-3.758 3.75813v1.7067c0 2.07226 1.6859 3.75826 3.758 3.75826h.1943c.702 0 1.3809-.1895 1.9633-.5478l.0774-.0476v-.0908c0-.0926.0009-.291.0019-.521l.0005-.1183v-.0015c.0015-.318.0031-.6697.0031-.8808v-.39048l-.4385.43568c-.4374.4202-1.0084.6515-1.6077.6515h-.1943c-1.2391 0-2.247-1.00805-2.247-2.24716v-1.7067c0-1.2391 1.0079-2.24728 2.247-2.24728h.1943c1.2391 0 2.2471 1.00818 2.2471 2.24728z"/><path d="m51.0903 12.4132h.3291c1.2254-.0023 2.3155-.5951 3.0005-1.5079.6842.9114 1.7721 1.504 2.9951 1.5079h.3287v-1.5124h-.3279c-1.233-.006-2.2361-1.01359-2.2361-2.24606v-1.7067c0-1.23458 1.0046-2.24235 2.239-2.24637h.3289v-1.51216h-.3292c-1.2244.00291-2.3136.5954-2.9984 1.50754-.685-.91303-1.7752-1.50564-3.0009-1.50754h-.3288v1.51216h.3284c1.2358.00322 2.2412 1.01099 2.2412 2.24637v1.7067c0 1.23519-1.0054 2.24286-2.2408 2.24606h-.3288z"/><path d="m68.3833 7.26392c0 .83214.2244 1.6123.6129 2.28448.1347.23184.3838.38878.6712.38878.4296 0 .7778-.34816.7778-.77765 0-.14135-.0367-.27386-.1027-.38797-.2566-.44376-.4051-.95821-.4051-1.50774 0-1.66628 1.351-3.01708 3.0172-3.01708.4294 0 .7772-.34836.7772-.77785s-.345-.77764-.7745-.77764c-2.5247 0-4.574 2.04791-4.574 4.57267z"/><path d="m70.5107 7.26382c0-.70858.3016-1.34688.7835-1.79316-.0414.50439.2037 1.01149.6712 1.28133.2092.12075.4414.18197.674.18197.4159-.0003.8362.10376 1.2215.32624.6137.35429 1.0156.93469 1.1613 1.5752-.4162-.28824-.9779-.32956-1.4453-.05952-.2093.12075-.3784.29126-.4947.49263-.2076.36032-.5079.67238-.8931.89489-.6138.3542-1.3173.4121-1.9448.2181.4576-.2164.7741-.68209.7741-1.22197 0-.24169-.0631-.47322-.1794-.6749-.2082-.35992-.3283-.77594-.3283-1.22081z"/><path d="m73.2528 12.0058c.7207-.4161 1.2841-1.0006 1.6718-1.6732.1337-.2325.1449-.52663.0011-.77555-.2147-.37199-.6902-.49936-1.0622-.28482-.1224.07078-.2188.1687-.2847.28281-.256.44416-.6273.83006-1.1032 1.10466-1.443.8332-3.2884.3387-4.1215-1.10426-.2147-.37188-.6903-.49896-1.0622-.28412-.3719.21455-.5009.68767-.2862 1.05958 1.2625 2.1864 4.0607 2.9371 6.2471 1.6749z"/><path d="m74.9245 5.41778c-.7206-.41612-1.5085-.61186-2.2848-.61146-.2682.0005-.5286.13804-.6723.38696-.2148.37189-.0874.84742.2846 1.06227.1223.07057.2554.10516.3873.10516.5127-.0004 1.0324.12818 1.5082.40295 1.4431.83334 1.9375 2.67847 1.1044 4.12144-.2147.372-.0869.8473.285 1.0622.372.2146.8459.0899 1.0607-.282 1.2624-2.18647.5135-4.98519-1.6731-6.24752z"/></g></svg>