<svg fill="none" height="43" viewBox="0 0 174 43" width="174" xmlns="http://www.w3.org/2000/svg"><g fill="#000"><path d="m35.1992 27.9733h-3.5254v-12.2997c0-2.707-2.2021-4.9096-4.9093-4.9096-2.707 0-4.9094 2.2026-4.9094 4.9096v12.2873h-3.572v-27.9609h3.572v8.76503c1.4174-1.01906 3.1334-1.57304 4.9094-1.57304 4.651 0 8.4347 3.80481 8.4347 8.48161z"/><path clip-rule="evenodd" d="m0 36h3.58853v-9.5631c1.43008 1.032 3.16327 1.593 4.95776 1.593h.43544c4.71257 0 8.54627-3.834 8.54627-8.5466v-3.8378c0-4.7121-3.8337-8.54625-8.54627-8.54625h-.43544c-4.71255 0-8.54629 3.83395-8.54629 8.54625zm3.58852-20.3545c0-2.7337 2.22406-4.9577 4.95776-4.9577h.43544c2.73368 0 4.95798 2.224 4.95798 4.9577v3.8378c0 2.7337-2.2243 4.9578-4.95798 4.9578h-.43544c-2.7337 0-4.95776-2.2241-4.95776-4.9578z" fill-rule="evenodd"/><path d="m53.2498 27.9593h-3.3997v-12.3262c0-2.788-2.2681-5.0564-5.0561-5.0564h-.4366c-2.788 0-5.0564 2.2684-5.0564 5.0564v3.8401c0 2.788 2.2684 5.0561 5.0564 5.0561h.4366c1.3484 0 2.6332-.5205 3.6177-1.4658l.9863-.9804v.8786c0 .5058-.0039 1.3708-.0073 2.1207l-.0014.3251c-.0019.4331-.0036.7961-.0036.9778v.2043l-.1739.107c-1.3102.8062-2.838 1.2326-4.4178 1.2326h-.4366c-4.6625 0-8.4558-3.7935-8.4558-8.456v-3.8401c0-4.6626 3.7933-8.45581 8.4558-8.45581h.4366c4.6625 0 8.4558 3.79321 8.4558 8.45581z"/><path clip-rule="evenodd" d="m138.434 27.9278h.437c4.649 0 8.442-3.7927 8.456-8.4555v-3.8403c0-4.6626-3.794-8.45561-8.456-8.45561h-.437c-4.662 0-8.456 3.79301-8.456 8.45561v3.8681c.016 4.6469 3.81 8.4277 8.456 8.4277zm-5.056-12.2958c0-2.788 2.268-5.0564 5.056-5.0564h.437c2.788 0 5.056 2.2684 5.056 5.0564v3.8403c0 2.7877-2.268 5.0559-5.056 5.0559h-.437c-2.788 0-5.056-2.2682-5.056-5.0559z" fill-rule="evenodd"/><path d="m53.9969 27.9278h3.3995v-12.2958c0-2.788 2.2679-5.0562 5.0543-5.0562.6859.0025 1.3505.14 1.975.4088l.5099.2192v-3.6526l-.2685-.07397c-.6626-.18232-1.3484-.28275-2.0422-.29881l-.1731-.00204c-1.8311.00113-3.5987.59515-5.0554 1.68637v-1.69338h-3.3995z"/><path d="m92.6357 27.9278h3.3996v-12.2958c0-4.5556-3.7043-8.34772-8.2608-8.45358l-.1731-.00204c-2.6678.00158-5.1552 1.25544-6.754 3.37902-1.5547-2.06431-3.969-3.31659-6.5616-3.37698l-.1728-.00204c-1.8311.00113-3.5987.59515-5.0555 1.68637v-1.69338h-3.3994v20.75843h3.3994v-12.2958c0-2.788 2.268-5.0562 5.0544-5.0562 2.7762.0097 5.0349 2.2779 5.0349 5.0562v12.2958h3.3994v-12.2958c0-2.788 2.2677-5.0562 5.0541-5.0562 2.7767.0097 5.0354 2.2779 5.0354 5.0562z"/><path d="m110.802 27.9593h3.399v-12.3262c0-4.6626-3.793-8.45581-8.455-8.45581h-.437c-4.662 0-8.4557 3.79321-8.4557 8.45581v3.8401c0 4.6625 3.7937 8.456 8.4557 8.456h.437c1.579 0 3.107-.4264 4.417-1.2326l.175-.107v-.2043c0-.2083.002-.6547.004-1.1722l.001-.2663v-.0034c.003-.7153.007-1.5068.007-1.9817v-.8786l-.987.9804c-.984.9453-2.269 1.4658-3.617 1.4658h-.437c-2.788 0-5.056-2.2681-5.056-5.0561v-3.8401c0-2.788 2.268-5.0564 5.056-5.0564h.437c2.788 0 5.056 2.2684 5.056 5.0564z"/><path d="m114.953 27.9297h.741c2.757-.0053 5.21-1.3389 6.751-3.3928 1.539 2.0508 3.987 3.3839 6.739 3.3928h.739v-3.4029h-.737c-2.775-.0135-5.032-2.2806-5.032-5.0536v-3.8401c0-2.7778 2.261-5.0453 5.038-5.0543h.74v-3.40241h-.741c-2.755.00656-5.205 1.33967-6.746 3.39201-1.541-2.05434-3.994-3.38772-6.752-3.39201h-.74v3.40241h.739c2.781.0072 5.043 2.2747 5.043 5.0543v3.8401c0 2.7791-2.262 5.0464-5.042 5.0536h-.74z"/><path d="m155.241 21.4839c-.874-1.5124-1.379-3.2678-1.379-5.1401 0-5.6807 4.611-10.2885 10.292-10.2885.966 0 1.742.78335 1.742 1.7497s-.782 1.75016-1.748 1.75016c-3.749 0-6.789 3.03934-6.789 6.78844 0 1.2364.334 2.3939.911 3.3924.149.2568.231.5549.231.8729 0 .9664-.783 1.7497-1.75 1.7497-.646 0-1.207-.3531-1.51-.8747z"/><path d="m160.412 12.309c-1.085 1.0041-1.763 2.4403-1.763 4.0346 0 1.001.27 1.937.738 2.7468.262.4538.404.9747.404 1.5185 0 1.2148-.712 2.2625-1.742 2.7496 1.412.4363 2.995.306 4.376-.4909.867-.5006 1.543-1.2027 2.01-2.0135.261-.453.642-.8367 1.113-1.1084 1.052-.6076 2.315-.5146 3.252.1339-.328-1.4411-1.232-2.747-2.613-3.5441-.867-.5006-1.813-.7348-2.749-.7341-.523 0-1.045-.1377-1.516-.4094-1.052-.6072-1.604-1.7481-1.51-2.883z"/><path d="m164.819 27.0131c1.621-.9363 2.889-2.2515 3.761-3.7648.301-.523.326-1.1849.003-1.7449-.483-.837-1.553-1.1236-2.39-.6409-.276.1593-.493.3796-.641.6363-.576.9994-1.411 1.8676-2.482 2.4856-3.247 1.8745-7.399.7621-9.273-2.4847-.484-.8367-1.554-1.1226-2.39-.6392-.837.4827-1.128 1.5472-.644 2.384 2.84 4.9195 9.136 6.6086 14.056 3.7686z"/><path d="m163.439 10.8142c1.747-.0009 3.52.4395 5.141 1.3758 4.92 2.8402 6.605 9.1374 3.764 14.0569-.483.8367-1.549 1.1174-2.386.6345-.837-.4834-1.124-1.5529-.641-2.3899 1.874-3.2467.762-7.3983-2.485-9.2733-1.071-.6182-2.24-.9075-3.394-.9066-.297 0-.596-.0778-.871-.2366-.837-.4834-1.124-1.5534-.641-2.3901.324-.5601.91-.8696 1.513-.8707z"/><path d="m119.12 42h.9v-3.84h4.704v3.84h.9v-8.4h-.9v3.72h-4.704v-3.72h-.9z"/><path clip-rule="evenodd" d="m130.027 42.12c-.52 0-1-.132-1.44-.396-.44-.272-.792-.636-1.056-1.092s-.396-.96-.396-1.512c0-.56.128-1.068.384-1.524s.6-.816 1.032-1.08.904-.396 1.416-.396c.504 0 .96.124 1.368.372.416.248.744.596.984 1.044s.36.952.36 1.512c0 .128-.008.256-.024.384h-4.68c.04.352.156.672.348.96s.436.516.732.684c.304.168.636.252.996.252.664 0 1.252-.288 1.764-.864l.564.516c-.256.32-.58.592-.972.816-.392.216-.852.324-1.38.324zm1.824-3.396c-.072-.56-.276-1.004-.612-1.332-.336-.336-.76-.504-1.272-.504-.336 0-.652.084-.948.252-.288.16-.528.38-.72.66-.184.28-.296.588-.336.924z" fill-rule="evenodd"/><path clip-rule="evenodd" d="m135.893 36.12c.44 0 .828.096 1.164.288.344.192.612.46.804.804.192.336.288.724.288 1.164v3.624h-.78v-.924h-.012c-.152.264-.408.504-.768.72s-.772.324-1.236.324c-.376 0-.712-.076-1.008-.228-.288-.152-.516-.352-.684-.6-.16-.256-.24-.528-.24-.816 0-.464.16-.852.48-1.164.32-.32.772-.528 1.356-.624l2.088-.348v-.012c0-.432-.136-.78-.408-1.044-.264-.264-.612-.396-1.044-.396-.336 0-.632.076-.888.228-.248.144-.488.336-.72.576l-.54-.516c.24-.296.544-.544.912-.744.368-.208.78-.312 1.236-.312zm-.456 5.256c.352 0 .672-.084.96-.252.296-.168.528-.396.696-.684.168-.296.252-.624.252-.984v-.408l-1.896.312c-.408.072-.712.2-.912.384s-.3.412-.3.684c0 .264.108.488.324.672.224.184.516.276.876.276z" fill-rule="evenodd"/><path d="m140.557 42h-.816v-8.4h.816z"/><path d="m144.293 42.06c-.504 0-.896-.144-1.176-.432-.272-.296-.408-.724-.408-1.284v-3.312h-1.116v-.792h.733c.143 0 .255-.044.335-.132.088-.096.132-.236.132-.42v-1.368h.732v1.92h1.416v.792h-1.416v3.264c0 .312.076.552.228.72.16.168.376.252.648.252.232 0 .476-.06.732-.18v.792c-.096.048-.22.088-.372.12-.152.04-.308.06-.468.06z"/><path d="m146.255 33.6h.816v3.564h.012c.152-.272.396-.512.732-.72.344-.216.728-.324 1.152-.324.44 0 .836.104 1.188.312s.628.5.828.876.3.808.3 1.296v3.396h-.816v-3.396c0-.504-.152-.912-.456-1.224-.296-.312-.676-.468-1.14-.468-.336 0-.64.084-.912.252-.272.16-.488.384-.648.672s-.24.612-.24.972v3.192h-.816z"/><path d="m155.316 42.12c-.52 0-1.004-.132-1.452-.396-.44-.272-.792-.636-1.056-1.092-.256-.456-.384-.96-.384-1.512s.128-1.056.384-1.512c.264-.456.616-.816 1.056-1.08.448-.272.932-.408 1.452-.408.528 0 .992.12 1.392.36.408.232.728.504.96.816l-.6.492c-.472-.584-1.056-.876-1.752-.876-.376 0-.724.096-1.044.288-.312.192-.564.46-.756.804-.184.336-.276.708-.276 1.116s.092.784.276 1.128c.192.336.444.6.756.792.32.192.668.288 1.044.288.392 0 .736-.088 1.032-.264s.544-.388.744-.636l.6.492c-.232.32-.556.6-.972.84-.408.24-.876.36-1.404.36z"/><path clip-rule="evenodd" d="m160.819 36.12c.44 0 .828.096 1.164.288.344.192.612.46.804.804.192.336.288.724.288 1.164v3.624h-.78v-.924h-.012c-.152.264-.408.504-.768.72s-.772.324-1.236.324c-.376 0-.712-.076-1.008-.228-.288-.152-.516-.352-.684-.6-.16-.256-.24-.528-.24-.816 0-.464.16-.852.48-1.164.32-.32.772-.528 1.356-.624l2.088-.348v-.012c0-.432-.136-.78-.408-1.044-.264-.264-.612-.396-1.044-.396-.336 0-.632.076-.888.228-.248.144-.488.336-.72.576l-.54-.516c.24-.296.544-.544.912-.744.368-.208.78-.312 1.236-.312zm-.456 5.256c.352 0 .672-.084.96-.252.296-.168.528-.396.696-.684.168-.296.252-.624.252-.984v-.408l-1.896.312c-.408.072-.712.2-.912.384s-.3.412-.3.684c0 .264.108.488.324.672.224.184.516.276.876.276z" fill-rule="evenodd"/><path d="m164.607 36.24h.816v.9h.012c.152-.264.396-.5.732-.708.344-.208.732-.312 1.164-.312h.264v.84c-.112-.016-.224-.024-.336-.024-.336 0-.644.084-.924.252s-.504.4-.672.696c-.16.296-.24.628-.24.996v3.12h-.816z"/><path clip-rule="evenodd" d="m170.858 42.12c-.52 0-1-.132-1.44-.396-.44-.272-.792-.636-1.056-1.092s-.396-.96-.396-1.512c0-.56.128-1.068.384-1.524s.6-.816 1.032-1.08.904-.396 1.416-.396c.504 0 .96.124 1.368.372.416.248.744.596.984 1.044s.36.952.36 1.512c0 .128-.008.256-.024.384h-4.68c.04.352.156.672.348.96s.436.516.732.684c.304.168.636.252.996.252.664 0 1.252-.288 1.764-.864l.564.516c-.256.32-.58.592-.972.816-.392.216-.852.324-1.38.324zm1.824-3.396c-.072-.56-.276-1.004-.612-1.332-.336-.336-.76-.504-1.272-.504-.336 0-.652.084-.948.252-.288.16-.528.38-.72.66-.184.28-.296.588-.336.924z" fill-rule="evenodd"/></g></svg>