<svg fill="none" height="24" viewBox="0 0 187 24" width="187" xmlns="http://www.w3.org/2000/svg"><circle cx="12" cy="12" fill="#1565c0" r="12"/><g fill="#fff"><path d="m8.27586 13.5447c.16766.289.47799.4689.80972.4689.51737 0 .93812-.4209.93812-.9383 0-.1656-.0428-.3274-.12425-.4681-.30295-.524-.46294-1.12-.46294-1.7241 0-1.90282 1.54779-3.45097 3.45079-3.45097.517 0 .9376-.42074.9376-.93805 0-.5171-.4195-.93787-.9347-.93787-2.93839 0-5.3289 2.38967-5.3289 5.32689 0 .9327.24705 1.853.71456 2.6616z"/><path d="m10.0607 10.8831c0-.8197.3488-1.55768.9061-2.07391-.0481.58343.2355 1.16962.7764 1.48181.2417.1398.5104.2106.7797.2106.4805-.0003.9668.1198 1.4123.377.7101.41 1.1748 1.0812 1.3433 1.822-.4814-.3334-1.1312-.3811-1.6716-.0689-.2423.1396-.4374.3367-.5722.5696-.24.4171-.5872.778-1.0329 1.0352-.71.4095-1.5235.4765-2.24903.2523.52893-.2505.89493-.7891.89493-1.4135 0-.2791-.073-.5473-.2074-.7803-.2406-.4163-.3796-.8977-.3796-1.4119z"/><path d="m16.3249 16.4595c-.1642 0-.3269-.0435-.4706-.1268-.448-.2586-.6024-.833-.3435-1.2808.9508-1.648.3844-3.7625-1.2633-4.714-.5222-.3014-1.1175-.46079-1.7217-.46079-.1654 0-.327-.04379-.4709-.12676-.4477-.25878-.6013-.83366-.343-1.28156.1656-.28698.4765-.46584.811-.46657.9352 0 1.8549.24622 2.6621.7122 1.2315.71112 2.1128 1.86008 2.4811 3.23548.3682 1.375.1791 2.8108-.5323 4.0429-.1661.2879-.4765.4667-.8089.4667z"/><path d="m5.97383 14.4492c.94853 1.644 2.71924 2.6654 4.62067 2.6654.9293 0 1.848-.2469 2.6571-.714.8078-.4665 1.481-1.1406 1.9471-1.9492.1669-.2894.1677-.6481.0017-.9357-.2489-.4308-.8473-.5947-1.2812-.3432-.1434.0824-.262.2004-.3437.341-.3023.5247-.7383.9617-1.2618 1.2636-.5244.3026-1.1202.4627-1.7221.4627-1.23052 0-2.37684-.6612-2.99188-1.7259-.24798-.4305-.84607-.5936-1.28096-.3425-.44777.2583-.60278.8316-.34493 1.2778z"/><path d="m31 0h-1v24h1z"/><path clip-rule="evenodd" d="m38.4399 5.79999v11.20001h2.4v-3.68h2.368c.7574 0 1.4347-.1653 2.032-.496.608-.3307 1.0774-.7787 1.408-1.344.3414-.576.512-1.216.512-1.92001 0-.704-.1706-1.33867-.512-1.904-.3306-.576-.8-1.02933-1.408-1.36-.5973-.33067-1.2746-.496-2.032-.496zm5.84 4.89601c-.3093.3093-.6933.464-1.152.464h-2.288v-3.20001h2.288c.4587 0 .8427.16 1.152.48.32.30933.48.68266.48 1.12 0 .43733-.16.81601-.48 1.13601z" fill-rule="evenodd"/><path d="m48.3606 5.79999v11.20001h2.16v-4.08c0-.5333.1546-.9653.464-1.296.32-.3413.7253-.512 1.216-.512.4266 0 .7733.144 1.04.432.2666.2773.4.656.4 1.136v4.32h2.16v-4.608c0-.6827-.128-1.2693-.384-1.76-.2454-.5013-.5867-.88535-1.024-1.15201-.4374-.26667-.9387-.4-1.504-.4-.5334 0-1.008.13333-1.424.4-.4054.256-.704.54401-.896.86401h-.048v-4.54401z"/><path clip-rule="evenodd" d="m60.5162 9.07999c.6613 0 1.248.13867 1.76.416.5227.26667.928.63471 1.216 1.10401.288.4587.432.9653.432 1.52v4.88h-2.048v-1.072h-.048c-.192.3093-.496.592-.912.848s-.8907.384-1.424.384c-.4907 0-.9333-.1013-1.328-.304-.384-.2027-.688-.4747-.912-.816-.224-.352-.336-.7253-.336-1.12 0-.6613.208-1.2053.624-1.632s1.008-.7147 1.776-.864l2.448-.464c-.0213-.3093-.16-.5707-.416-.784-.2453-.224-.56-.336-.944-.336-.6613 0-1.264.304-1.808.912l-1.232-1.184c.3413-.4053.7787-.75201 1.312-1.04001.544-.29867 1.1573-.448 1.84-.448zm-.4 6.35201c.4693 0 .8587-.1653 1.168-.496.32-.3307.48-.7627.48-1.296v-.256l-1.68.336c-.2987.0533-.5333.1653-.704.336-.1707.16-.256.3413-.256.544 0 .2453.0853.448.256.608.1813.1493.4267.224.736.224z" fill-rule="evenodd"/><path d="m65.5274 9.23999v7.76001h2.16v-3.648c0-.6293.176-1.1307.528-1.504.352-.384.8054-.576 1.36-.576.224 0 .464.0427.72.128v-2.32001h-.368c-.4906 0-.9333.11733-1.328.352-.384.224-.672.48-.864.76801h-.048v-.96001z"/><path d="m71.2524 17v-7.76001h2.16v1.10401h.048c.1494-.32.416-.60801.8-.86401.384-.26667.8374-.4 1.36-.4.5334 0 .9974.13867 1.392.416.3947.26667.672.56531.832.89601h.064c.1814-.3307.5067-.62934.976-.89601.48-.27733 1.0294-.416 1.648-.416.5014 0 .9547.13333 1.36.4.416.26666.7467.65071.992 1.15201.2454.5013.368 1.088.368 1.76v4.608h-2.16v-4.4c0-.4693-.1226-.832-.368-1.088-.2346-.2667-.5386-.4-.912-.4-.4266 0-.7786.1547-1.056.464-.2773.3093-.416.7307-.416 1.264v4.16h-2.16v-4.4c0-.4693-.1226-.832-.368-1.088-.2346-.2667-.5386-.4-.912-.4-.4373 0-.7946.1547-1.072.464-.2773.3093-.416.7307-.416 1.264v4.16z"/><path clip-rule="evenodd" d="m89.7324 9.49599c-.512-.27733-1.0986-.416-1.76-.416-.6826 0-1.296.14933-1.84.448-.5333.288-.9706.63471-1.312 1.04001l1.232 1.184c.544-.608 1.1467-.912 1.808-.912.384 0 .6987.112.944.336.256.2133.3947.4747.416.784l-2.448.464c-.768.1493-1.36.4373-1.776.864s-.624.9707-.624 1.632c0 .3947.112.768.336 1.12.224.3413.528.6133.912.816.3947.2027.8374.304 1.328.304.5334 0 1.008-.128 1.424-.384s.72-.5387.912-.848h.048v1.072h2.048v-4.88c0-.5547-.144-1.0613-.432-1.52-.288-.4693-.6933-.83734-1.216-1.10401zm-.992 5.44001c-.3093.3307-.6986.496-1.168.496-.3093 0-.5546-.0747-.736-.224-.1706-.16-.256-.3627-.256-.608 0-.2027.0854-.384.256-.544.1707-.1707.4054-.2827.704-.336l1.68-.336v.256c0 .5333-.16.9653-.48 1.296z" fill-rule="evenodd"/><path d="m94.4434 17h-2.416l2.672-4-2.464-3.76001h2.496l1.408 2.36801h.048l1.424-2.36801h2.4156l-2.4636 3.76001 2.6556 4h-2.4956l-1.616-2.624h-.048z"/><path clip-rule="evenodd" d="m102.355 16.616c.64.3627 1.344.544 2.112.544.778 0 1.482-.1813 2.112-.544.64-.3627 1.141-.8533 1.504-1.472.362-.6187.544-1.296.544-2.032s-.182-1.4133-.544-2.032c-.363-.6187-.864-1.10401-1.504-1.45601-.63-.36267-1.334-.544-2.112-.544-.768 0-1.472.18133-2.112.544-.63.352-1.131.83731-1.504 1.45601-.363.6187-.544 1.296-.544 2.032s.181 1.4133.544 2.032c.373.6187.874 1.1093 1.504 1.472zm3.504-2.048c-.384.3947-.848.592-1.392.592s-1.008-.1973-1.392-.592c-.374-.3947-.56-.88-.56-1.456s.186-1.056.56-1.44c.384-.3947.848-.592 1.392-.592s1.008.1973 1.392.592c.384.384.576.864.576 1.44s-.192 1.0613-.576 1.456z" fill-rule="evenodd"/><path d="m114.968 17h-1.2v-11.20001h1.2v4.96001h6.272v-4.96001h1.2v11.20001h-1.2v-5.12h-6.272z"/><path clip-rule="evenodd" d="m126.391 16.632c.586.352 1.226.528 1.92.528.704 0 1.317-.144 1.84-.432.522-.2987.954-.6613 1.296-1.088l-.752-.688c-.683.768-1.467 1.152-2.352 1.152-.48 0-.923-.112-1.328-.336-.395-.224-.72-.528-.976-.912s-.411-.8107-.464-1.28h6.24c.021-.1707.032-.3413.032-.512 0-.7467-.16-1.4187-.48-2.016s-.758-1.06134-1.312-1.39201c-.544-.33067-1.152-.496-1.824-.496-.683 0-1.312.176-1.888.528-.576.35201-1.035.83201-1.376 1.44001-.342.608-.512 1.2853-.512 2.032 0 .736.176 1.408.528 2.016s.821 1.0933 1.408 1.456zm3.536-5.776c.448.4373.72 1.0293.816 1.776h-5.184c.053-.448.202-.8587.448-1.232.256-.3733.576-.6667.96-.88.394-.224.816-.336 1.264-.336.682 0 1.248.224 1.696.672z" fill-rule="evenodd"/><path clip-rule="evenodd" d="m136.132 9.15999c.587 0 1.104.128 1.552.384.459.256.816.61331 1.072 1.07201.256.448.384.9653.384 1.552v4.832h-1.04v-1.232h-.016c-.203.352-.544.672-1.024.96s-1.029.432-1.648.432c-.501 0-.949-.1013-1.344-.304-.384-.2027-.688-.4693-.912-.8-.213-.3413-.32-.704-.32-1.088 0-.6187.213-1.136.64-1.552.427-.4267 1.029-.704 1.808-.832l2.784-.464v-.016c0-.576-.181-1.04-.544-1.392-.352-.352-.816-.528-1.392-.528-.448 0-.843.1013-1.184.304-.331.192-.651.448-.96.768l-.72-.688c.32-.3947.725-.72534 1.216-.99201.491-.27733 1.04-.416 1.648-.416zm-.608 7.00801c.469 0 .896-.112 1.28-.336.395-.224.704-.528.928-.912.224-.3947.336-.832.336-1.312v-.544l-2.528.416c-.544.096-.949.2667-1.216.512s-.4.5493-.4.912c0 .352.144.6507.432.896.299.2453.688.368 1.168.368z" fill-rule="evenodd"/><path d="m141.263 17h1.088v-11.20001h-1.088z"/><path d="m147.332 17.08c-.672 0-1.194-.192-1.568-.576-.362-.3947-.544-.9653-.544-1.712v-4.416h-1.488v-1.05601h.976c.192 0 .342-.05867.448-.176.118-.128.176-.31467.176-.56v-1.824h.976v2.56h1.888v1.05601h-1.888v4.352c0 .416.102.736.304.96.214.224.502.336.864.336.31 0 .635-.08.976-.24v1.056c-.128.064-.293.1173-.496.16-.202.0533-.41.08-.624.08z"/><path d="m151.035 5.79999h-1.088v11.20001h1.088v-4.256c0-.48.107-.912.32-1.296s.501-.6827.864-.896c.363-.224.768-.336 1.216-.336.619 0 1.125.208 1.52.624.405.416.608.96.608 1.632v4.528h1.088v-4.528c0-.6507-.133-1.2267-.4-1.728s-.635-.89068-1.104-1.16801-.997-.416-1.584-.416c-.565 0-1.077.144-1.536.432-.448.27733-.773.59731-.976.96001h-.016z"/><path d="m162.029 17.16c-.693 0-1.338-.176-1.936-.528-.586-.3627-1.056-.848-1.408-1.456-.341-.608-.512-1.28-.512-2.016s.171-1.408.512-2.016c.352-.608.822-1.088 1.408-1.44001.598-.36267 1.243-.544 1.936-.544.704 0 1.323.16 1.856.48.544.30933.971.67201 1.28 1.08801l-.8.656c-.629-.7787-1.408-1.168-2.336-1.168-.501 0-.965.128-1.392.384-.416.256-.752.6133-1.008 1.072-.245.448-.368.944-.368 1.488s.123 1.0453.368 1.504c.256.448.592.8 1.008 1.056.427.256.891.384 1.392.384.523 0 .982-.1173 1.376-.352.395-.2347.726-.5173.992-.848l.8.656c-.309.4267-.741.8-1.296 1.12-.544.32-1.168.48-1.872.48z"/><path clip-rule="evenodd" d="m170.918 9.54399c-.448-.256-.965-.384-1.552-.384-.608 0-1.157.13867-1.648.416-.49.26667-.896.59731-1.216.99201l.72.688c.31-.32.63-.576.96-.768.342-.2027.736-.304 1.184-.304.576 0 1.04.176 1.392.528.363.352.544.816.544 1.392v.016l-2.784.464c-.778.128-1.381.4053-1.808.832-.426.416-.64.9333-.64 1.552 0 .384.107.7467.32 1.088.224.3307.528.5973.912.8.395.2027.843.304 1.344.304.619 0 1.168-.144 1.648-.432s.822-.608 1.024-.96h.016v1.232h1.04v-4.832c0-.5867-.128-1.104-.384-1.552-.256-.4587-.613-.81601-1.072-1.07201zm-.88 6.28801c-.384.224-.81.336-1.28.336-.48 0-.869-.1227-1.168-.368-.288-.2453-.432-.544-.432-.896 0-.3627.134-.6667.4-.912.267-.2453.672-.416 1.216-.512l2.528-.416v.544c0 .48-.112.9173-.336 1.312-.224.384-.533.688-.928.912z" fill-rule="evenodd"/><path d="m174.417 9.31999h1.088v1.20001h.016c.203-.352.528-.66668.976-.94401.459-.27733.976-.416 1.552-.416h.352v1.12001c-.149-.0213-.299-.032-.448-.032-.448 0-.859.112-1.232.336s-.672.5333-.896.928c-.213.3947-.32.8373-.32 1.328v4.16h-1.088z"/><path clip-rule="evenodd" d="m180.831 16.632c.587.352 1.227.528 1.92.528.704 0 1.318-.144 1.84-.432.523-.2987.955-.6613 1.296-1.088l-.752-.688c-.682.768-1.466 1.152-2.352 1.152-.48 0-.922-.112-1.328-.336-.394-.224-.72-.528-.976-.912s-.41-.8107-.464-1.28h6.24c.022-.1707.032-.3413.032-.512 0-.7467-.16-1.4187-.48-2.016s-.757-1.06134-1.312-1.39201c-.544-.33067-1.152-.496-1.824-.496-.682 0-1.312.176-1.888.528-.576.35201-1.034.83201-1.376 1.44001-.341.608-.512 1.2853-.512 2.032 0 .736.176 1.408.528 2.016s.822 1.0933 1.408 1.456zm3.536-5.776c.448.4373.72 1.0293.816 1.776h-5.184c.054-.448.203-.8587.448-1.232.256-.3733.576-.6667.96-.88.395-.224.816-.336 1.264-.336.683 0 1.248.224 1.696.672z" fill-rule="evenodd"/></g></svg>