<svg fill="none" height="48" viewBox="0 0 163 48" width="163" xmlns="http://www.w3.org/2000/svg"><circle cx="24" cy="24" fill="#1565c0" r="24"/><g fill="#fff"><path d="m16.5517 27.0894c.3353.578.956.9379 1.6195.9379 1.0347 0 1.8762-.8419 1.8762-1.8767 0-.3312-.0856-.6549-.2485-.9362-.6059-1.048-.9259-2.2401-.9259-3.4483 0-3.8055 3.0956-6.9018 6.9017-6.9018 1.0339 0 1.875-.8415 1.875-1.8761 0-1.0342-.8388-1.8758-1.8692-1.8758-5.8769 0-10.6579 4.7794-10.6579 10.6537 0 1.8654.4941 3.7062 1.4291 5.3233z"/><path d="m20.1214 21.7661c0-1.6393.6977-3.1153 1.8123-4.1477-.0963 1.1668.471 2.3392 1.5527 2.9636.4835.2797 1.0209.4212 1.5594.4212.961-.0006 1.9336.2395 2.8246.754 1.4202.8201 2.3496 2.1623 2.6866 3.644-.9629-.6668-2.2624-.7621-3.3432-.1378-.4845.2793-.8748.6734-1.1445 1.1393-.48.834-1.1743 1.5558-2.0658 2.0702-1.4199.8191-3.0468.9531-4.498.5048 1.0578-.5012 1.7898-1.5783 1.7898-2.8271 0-.5582-.1458-1.0946-.4147-1.5606-.4812-.8325-.7592-1.7954-.7592-2.8239z"/><path d="m32.6497 32.919c-.3282 0-.6536-.0871-.9412-.2535-.896-.5174-1.2047-1.6662-.6869-2.5617 1.9016-3.296.7688-7.5251-2.5266-9.4281-1.0443-.6028-2.2349-.9215-3.4434-.9215-.3308 0-.6539-.0876-.9419-.2535-.8953-.5176-1.2026-1.6673-.6858-2.5631.3311-.574.9528-.9317 1.6219-.9332 1.8704 0 3.7097.4925 5.3242 1.4244 2.463 1.4223 4.2256 3.7202 4.9622 6.471.7364 2.7499.3582 5.6216-1.0647 8.0858-.332.5758-.9529.9334-1.6178.9334z"/><path d="m11.9477 28.8985c1.897 3.2878 5.4384 5.3307 9.2413 5.3307 1.8586 0 3.696-.4939 5.3142-1.428 1.6157-.933 2.9621-2.2812 3.8942-3.8984.3337-.5788.3354-1.2963.0033-1.8714-.4976-.8617-1.6944-1.1893-2.5623-.6865-.2868.165-.5241.4008-.6873.6821-.6047 1.0495-1.4768 1.9234-2.5238 2.5272-1.0487.6053-2.2403.9255-3.4442.9255-2.4609 0-4.7536-1.3226-5.9837-3.4518-.4959-.8611-1.6921-1.1873-2.5619-.6851-.8955.5165-1.2055 1.6633-.6898 2.5557z"/><path d="m60 0h1v48h-1z"/><path clip-rule="evenodd" d="m74.7998 2v14h3v-4.6h2.96c.9467 0 1.7933-.2067 2.54-.62.76-.4133 1.3467-.97333 1.76-1.68.4267-.72.64-1.52.64-2.4s-.2133-1.67333-.64-2.38c-.4133-.72-1-1.28667-1.76-1.7-.7467-.41333-1.5933-.62-2.54-.62zm7.3 6.12c-.3867.38667-.8667.58-1.44.58h-2.86v-4h2.86c.5733 0 1.0533.2 1.44.6.4.38667.6.85333.6 1.4s-.2 1.02-.6 1.42z" fill-rule="evenodd"/><path d="m87.2006 2v14h2.7v-5.1c0-.6667.1933-1.20667.58-1.62.4-.42667.9067-.64 1.52-.64.5333 0 .9667.18 1.3.54.3333.34667.5.82.5 1.42v5.4h2.7v-5.76c0-.85333-.16-1.58667-.48-2.2-.3067-.62667-.7334-1.10667-1.28-1.44-.5467-.33333-1.1734-.5-1.88-.5-.6667 0-1.26.16667-1.78.5-.5067.32-.88.68-1.12 1.08h-.06v-5.68z"/><path clip-rule="evenodd" d="m102.395 6.1c.827 0 1.56.17333 2.2.52.653.33333 1.16.79333 1.52 1.38.36.57333.54 1.20667.54 1.9v6.1h-2.56v-1.34h-.06c-.24.3867-.62.74-1.14 1.06s-1.113.48-1.78.48c-.613 0-1.1666-.1267-1.6599-.38-.48-.2533-.86-.5933-1.14-1.02-.28-.44-.42-.9067-.42-1.4 0-.8267.26-1.5067.78-2.04s1.26-.8933 2.2199-1.08l3.06-.58c-.027-.38667-.2-.71333-.52-.98-.307-.28-.7-.42-1.18-.42-.827 0-1.58.38-2.2599 1.14l-1.54-1.48c.4267-.50667.9733-.94 1.6399-1.3.68-.37333 1.447-.56 2.3-.56zm-.5 7.94c.587 0 1.073-.2067 1.46-.62.4-.4133.6-.9533.6-1.62v-.32l-2.1.42c-.373.0667-.667.2067-.88.42-.213.2-.32.4267-.32.68 0 .3067.107.56.32.76.227.1867.533.28.92.28z" fill-rule="evenodd"/><path d="m108.659 6.3v9.7h2.7v-4.56c0-.7867.22-1.4133.66-1.88.44-.48 1.007-.72 1.7-.72.28 0 .58.05333.9.16v-2.9h-.46c-.613 0-1.166.14667-1.66.44-.48.28-.84.6-1.08.96h-.06v-1.2z"/><path d="m115.815 16v-9.7h2.7v1.38h.06c.187-.4.52-.76 1-1.08.48-.33333 1.047-.5 1.7-.5.667 0 1.247.17333 1.74.52.494.33333.84.70667 1.04 1.12h.08c.227-.41333.634-.78667 1.22-1.12.6-.34667 1.287-.52 2.06-.52.627 0 1.194.16667 1.7.5.52.33333.934.81333 1.24 1.44.307.62667.46 1.36.46 2.2v5.76h-2.7v-5.5c0-.58667-.153-1.04-.46-1.36-.293-.33333-.673-.5-1.14-.5-.533 0-.973.19333-1.32.58-.346.38667-.52.9133-.52 1.58v5.2h-2.7v-5.5c0-.58667-.153-1.04-.46-1.36-.293-.33333-.673-.5-1.14-.5-.546 0-.993.19333-1.34.58-.346.38667-.52.9133-.52 1.58v5.2z"/><path clip-rule="evenodd" d="m138.915 6.62c-.64-.34667-1.373-.52-2.2-.52-.853 0-1.62.18667-2.3.56-.666.36-1.213.79333-1.64 1.3l1.54 1.48c.68-.76 1.434-1.14 2.26-1.14.48 0 .874.14 1.18.42.32.26667.494.59333.52.98l-3.06.58c-.96.1867-1.7.5467-2.22 1.08s-.78 1.2133-.78 2.04c0 .4933.14.96.42 1.4.28.4267.66.7667 1.14 1.02.494.2533 1.047.38 1.66.38.667 0 1.26-.16 1.78-.48s.9-.6733 1.14-1.06h.06v1.34h2.56v-6.1c0-.69333-.18-1.32667-.54-1.9-.36-.58667-.866-1.04667-1.52-1.38zm-1.24 6.8c-.386.4133-.873.62-1.46.62-.386 0-.693-.0933-.92-.28-.213-.2-.32-.4533-.32-.76 0-.2533.107-.48.32-.68.214-.2133.507-.3533.88-.42l2.1-.42v.32c0 .6667-.2 1.2067-.6 1.62z" fill-rule="evenodd"/><path d="m144.804 16h-3.02l3.34-5-3.08-4.7h3.12l1.76 2.96h.06l1.78-2.96h3.02l-3.08 4.7 3.32 5h-3.12l-2.02-3.28h-.06z"/><path clip-rule="evenodd" d="m154.693 15.52c.8.4533 1.68.68 2.64.68.974 0 1.854-.2267 2.64-.68.8-.4533 1.427-1.0667 1.88-1.84.454-.7733.68-1.62.68-2.54s-.226-1.76667-.68-2.54c-.453-.77333-1.08-1.38-1.88-1.82-.786-.45333-1.666-.68-2.64-.68-.96 0-1.84.22667-2.64.68-.786.44-1.413 1.04667-1.88 1.82-.453.77333-.68 1.62-.68 2.54s.227 1.7667.68 2.54c.467.7733 1.094 1.3867 1.88 1.84zm4.38-2.56c-.48.4933-1.06.74-1.74.74s-1.26-.2467-1.74-.74c-.466-.4933-.7-1.1-.7-1.82s.234-1.32.7-1.8c.48-.49333 1.06-.74 1.74-.74s1.26.24667 1.74.74c.48.48.72 1.08.72 1.8s-.24 1.3267-.72 1.82z" fill-rule="evenodd"/><path clip-rule="evenodd" d="m74.6958 32v-11.2h3.472c1.088 0 2.0747.2507 2.96.752.896.5013 1.6 1.184 2.112 2.048.512.8533.768 1.7867.768 2.8s-.256 1.952-.768 2.816c-.512.8533-1.216 1.5307-2.112 2.032-.8853.5013-1.872.752-2.96.752zm3.472-1.136c.8853 0 1.68-.1973 2.384-.592s1.2533-.928 1.648-1.6c.4053-.6827.608-1.44.608-2.272s-.2027-1.5893-.608-2.272c-.3947-.6827-.944-1.216-1.648-1.6-.704-.3947-1.4987-.592-2.384-.592h-2.272v8.928z" fill-rule="evenodd"/><path d="m85.8813 24.32v7.68h1.088v-7.68z"/><path d="m85.9133 22.432c.1493.1387.32.208.512.208.2027 0 .3733-.0693.512-.208.1493-.1387.224-.3093.224-.512s-.0747-.3733-.224-.512c-.1387-.1387-.3093-.208-.512-.208-.192 0-.3627.0693-.512.208-.1387.1387-.208.3093-.208.512s.0693.3733.208.512z"/><path clip-rule="evenodd" d="m91.9349 24.16c.5867 0 1.104.128 1.552.384.4587.256.816.6133 1.072 1.072.256.448.384.9653.384 1.552v4.832h-1.04v-1.232h-.016c-.2026.352-.544.672-1.024.96s-1.0293.432-1.648.432c-.5013 0-.9493-.1013-1.344-.304-.384-.2027-.688-.4693-.912-.8-.2133-.3413-.32-.704-.32-1.088 0-.6187.2134-1.136.64-1.552.4267-.4267 1.0294-.704 1.808-.832l2.784-.464v-.016c0-.576-.1813-1.04-.544-1.392-.352-.352-.816-.528-1.392-.528-.448 0-.8426.1013-1.184.304-.3306.192-.6506.448-.96.768l-.72-.688c.32-.3947.7254-.7253 1.216-.992.4907-.2773 1.04-.416 1.648-.416zm-.608 7.008c.4694 0 .896-.112 1.28-.336.3947-.224.704-.528.928-.912.224-.3947.336-.832.336-1.312v-.544l-2.528.416c-.544.096-.9493.2667-1.216.512-.2666.2453-.4.5493-.4.912 0 .352.144.6507.432.896.2987.2453.688.368 1.168.368z" fill-rule="evenodd"/><path clip-rule="evenodd" d="m98.1057 34.848c.608.3413 1.2586.512 1.9523.512.693 0 1.317-.1707 1.872-.512.565-.3413 1.008-.8107 1.328-1.408.32-.5867.48-1.248.48-1.984v-7.136h-1.088v1.28h-.016c-.224-.3627-.576-.6933-1.056-.992s-1.024-.448-1.6323-.448c-.6294 0-1.2107.1653-1.744.496-.5334.3307-.96.7893-1.28 1.376-.3094.5867-.464 1.2427-.464 1.968s.1546 1.3813.464 1.968c.32.5867.7466 1.0453 1.28 1.376.5333.3307 1.1146.496 1.744.496.5443 0 1.0613-.128 1.5523-.384.49-.2667.869-.624 1.136-1.072h.016v1.072c0 .832-.24 1.5147-.72 2.048s-1.104.8-1.872.8c-.523 0-1.019-.1333-1.4883-.4-.4587-.2667-.7894-.5547-.992-.864l-.784.72c.2666.3947.704.7573 1.312 1.088zm3.2643-4.416c-.384.2347-.816.352-1.296.352-.459 0-.8857-.1173-1.2803-.352-.384-.2453-.688-.576-.912-.992-.224-.4267-.336-.9067-.336-1.44s.112-1.0133.336-1.44.528-.7573.912-.992c.3946-.2347.8213-.352 1.2803-.352.48 0 .912.1173 1.296.352.394.2347.704.5653.928.992.234.4267.352.9067.352 1.44s-.118 1.0133-.352 1.44c-.224.416-.534.7467-.928.992z" fill-rule="evenodd"/><path d="m105.867 32v-7.68h1.088v1.232h.016c.203-.3627.528-.6827.976-.96.459-.288.971-.432 1.536-.432.587 0 1.115.1387 1.584.416s.837.6667 1.104 1.168.4 1.0773.4 1.728v4.528h-1.088v-4.528c0-.672-.203-1.216-.608-1.632-.395-.416-.901-.624-1.52-.624-.448 0-.853.112-1.216.336-.363.2133-.651.512-.864.896s-.32.816-.32 1.296v4.256z"/><path clip-rule="evenodd" d="m116.047 31.632c.598.352 1.248.528 1.952.528s1.355-.176 1.952-.528c.598-.3627 1.072-.848 1.424-1.456s.528-1.28.528-2.016-.176-1.408-.528-2.016-.826-1.088-1.424-1.44c-.597-.3627-1.248-.544-1.952-.544s-1.354.1813-1.952.544c-.597.352-1.072.832-1.424 1.44s-.528 1.28-.528 2.016.176 1.408.528 2.016.827 1.0933 1.424 1.456zm3.36-.912c-.426.256-.896.384-1.408.384s-.986-.128-1.424-.384c-.426-.256-.768-.608-1.024-1.056-.245-.4587-.368-.96-.368-1.504s.123-1.04.368-1.488c.256-.4587.598-.816 1.024-1.072.438-.256.912-.384 1.424-.384s.982.128 1.408.384c.438.256.779.6133 1.024 1.072.256.448.384.944.384 1.488s-.128 1.0453-.384 1.504c-.245.448-.586.8-1.024 1.056z" fill-rule="evenodd"/><path d="m125.744 32.16c-.608 0-1.168-.1387-1.68-.416s-.901-.5867-1.168-.928l.736-.72c.214.2667.512.5067.896.72s.795.32 1.232.32c.544 0 .966-.1227 1.264-.368.31-.256.464-.576.464-.96 0-.3307-.144-.5813-.432-.752s-.73-.3413-1.328-.512c-.533-.1707-.97-.3307-1.312-.48-.33-.1493-.613-.368-.848-.656-.234-.288-.352-.656-.352-1.104 0-.3733.107-.72.32-1.04.224-.3307.534-.5973.928-.8.406-.2027.859-.304 1.36-.304.555 0 1.046.1067 1.472.32.427.2133.784.4693 1.072.768l-.736.72c-.522-.5227-1.125-.784-1.808-.784-.469 0-.842.112-1.12.336-.266.2133-.4.4747-.4.784 0 .32.139.5653.416.736.288.16.726.3253 1.312.496.534.16.966.32 1.296.48.342.1493.63.368.864.656.246.288.368.6667.368 1.136 0 .4267-.117.8213-.352 1.184-.224.352-.549.6347-.976.848-.426.2133-.922.32-1.488.32z"/><path d="m131.383 31.504c.373.384.896.576 1.568.576.213 0 .421-.0267.624-.08.203-.0427.368-.096.496-.16v-1.056c-.341.16-.667.24-.976.24-.363 0-.651-.112-.864-.336-.203-.224-.304-.544-.304-.96v-4.352h1.888v-1.056h-1.888v-2.56h-.976v1.824c0 .2453-.059.432-.176.56-.107.1173-.256.176-.448.176h-.976v1.056h1.488v4.416c0 .7467.181 1.3173.544 1.712z"/><path d="m136.654 32h-1.088v-7.68h1.088z"/><path d="m136.11 22.64c-.192 0-.363-.0693-.512-.208-.139-.1387-.208-.3093-.208-.512s.069-.3733.208-.512c.149-.1387.32-.208.512-.208.202 0 .373.0693.512.208.149.1387.224.3093.224.512s-.075.3733-.224.512c-.139.1387-.31.208-.512.208z"/><path d="m140.243 31.632c.598.352 1.243.528 1.936.528.704 0 1.328-.16 1.872-.48.555-.32.987-.6933 1.296-1.12l-.8-.656c-.266.3307-.597.6133-.992.848-.394.2347-.853.352-1.376.352-.501 0-.965-.128-1.392-.384-.416-.256-.752-.608-1.008-1.056-.245-.4587-.368-.96-.368-1.504s.123-1.04.368-1.488c.256-.4587.592-.816 1.008-1.072.427-.256.891-.384 1.392-.384.928 0 1.707.3893 2.336 1.168l.8-.656c-.309-.416-.736-.7787-1.28-1.088-.533-.32-1.152-.48-1.856-.48-.693 0-1.338.1813-1.936.544-.586.352-1.056.832-1.408 1.44-.341.608-.512 1.28-.512 2.016s.171 1.408.512 2.016c.352.608.822 1.0933 1.408 1.456z"/><path d="m148.988 32.16c-.608 0-1.168-.1387-1.68-.416s-.901-.5867-1.168-.928l.736-.72c.214.2667.512.5067.896.72s.795.32 1.232.32c.544 0 .966-.1227 1.264-.368.31-.256.464-.576.464-.96 0-.3307-.144-.5813-.432-.752s-.73-.3413-1.328-.512c-.533-.1707-.97-.3307-1.312-.48-.33-.1493-.613-.368-.848-.656-.234-.288-.352-.656-.352-1.104 0-.3733.107-.72.32-1.04.224-.3307.534-.5973.928-.8.406-.2027.859-.304 1.36-.304.555 0 1.046.1067 1.472.32.427.2133.784.4693 1.072.768l-.736.72c-.522-.5227-1.125-.784-1.808-.784-.469 0-.842.112-1.12.336-.266.2133-.4.4747-.4.784 0 .32.139.5653.416.736.288.16.726.3253 1.312.496.534.16.966.32 1.296.48.342.1493.63.368.864.656.246.288.368.6667.368 1.136 0 .4267-.117.8213-.352 1.184-.224.352-.549.6347-.976.848-.426.2133-.922.32-1.488.32z"/><path d="m74.0082 44.0001v-3.312h-.744v-.528h.744v-.704c0-.368.0906-.648.272-.84.1866-.1974.448-.296.784-.296.1066 0 .2106.0133.312.04.1013.0213.184.048.248.08v.528c-.176-.08-.3387-.12-.488-.12-.1814 0-.3254.056-.432.168-.1014.112-.152.272-.152.48v.664h.944v.528h-.944v3.312z"/><path clip-rule="evenodd" d="m77.9842 44.0801c-.352 0-.6773-.088-.976-.264-.2986-.1814-.536-.424-.712-.728s-.264-.64-.264-1.008.088-.704.264-1.008.4134-.544.712-.72c.2987-.1814.624-.272.976-.272s.6774.0906.976.272c.2987.176.536.416.712.72s.264.64.264 1.008-.088.704-.264 1.008-.4133.5466-.712.728c-.2986.176-.624.264-.976.264zm0-.528c.256 0 .4907-.064.704-.192.2187-.128.3894-.304.512-.528.128-.2294.192-.48.192-.752s-.064-.52-.192-.744c-.1226-.2294-.2933-.408-.512-.536-.2133-.128-.448-.192-.704-.192s-.4933.064-.712.192c-.2133.128-.384.3066-.512.536-.1226.224-.184.472-.184.744s.0614.5226.184.752c.128.224.2987.4.512.528.2187.128.456.192.712.192z" fill-rule="evenodd"/><path d="m81.4808 40.1601h-.544v3.84h.544v-2.08c0-.2454.0534-.4667.16-.664.112-.1974.2614-.352.448-.464.1867-.112.392-.168.616-.168.0747 0 .1494.0053.224.016v-.56h-.176c-.288 0-.5466.0693-.776.208-.224.1386-.3866.296-.488.472h-.008z"/><path d="m83.7181 40.1601h.544v.592h.008c.08-.1707.2187-.3254.416-.464.2027-.1387.4427-.208.72-.208.2933 0 .5493.08.768.24s.3733.336.464.528h.016c.0853-.192.2427-.368.472-.528.2347-.16.5147-.24.84-.24.2613 0 .4987.0693.712.208.2187.1333.392.3253.52.576.128.2453.192.5306.192.856v2.28h-.544v-2.28c0-.3414-.0907-.6107-.272-.808-.1813-.2027-.4107-.304-.688-.304-.304 0-.5573.1146-.76.344-.1973.224-.296.5253-.296.904v2.144h-.544v-2.28c0-.3414-.0933-.6107-.28-.808-.1813-.2027-.4107-.304-.688-.304-.304 0-.5573.1146-.76.344-.1973.224-.296.5253-.296.904v2.144h-.544z"/><path clip-rule="evenodd" d="m91.3205 43.8161c.2934.176.6134.264.96.264.352 0 .6587-.072.92-.216.2614-.1494.4774-.3307.648-.544l-.376-.344c-.3413.384-.7333.576-1.176.576-.24 0-.4613-.056-.664-.168-.1973-.112-.36-.264-.488-.456s-.2053-.4054-.232-.64h3.12c.0107-.0854.016-.1707.016-.256 0-.3734-.08-.7094-.24-1.008-.16-.2987-.3786-.5307-.656-.696-.272-.1654-.576-.248-.912-.248-.3413 0-.656.088-.944.264s-.5173.416-.688.72c-.1706.304-.256.6426-.256 1.016 0 .368.088.704.264 1.008s.4107.5466.704.728zm1.768-2.888c.224.2186.36.5146.408.888h-2.592c.0267-.224.1014-.4294.224-.616.128-.1867.288-.3334.48-.44.1974-.112.408-.168.632-.168.3414 0 .624.112.848.336z" fill-rule="evenodd"/><path d="m95.0072 40.1601h.544v.6h.008c.1013-.176.264-.3334.488-.472.2293-.1387.488-.208.776-.208h.176v.56c-.0747-.0107-.1494-.016-.224-.016-.224 0-.4294.056-.616.168-.1867.112-.336.2666-.448.464-.1067.1973-.16.4186-.16.664v2.08h-.544z"/><path d="m97.8284 44.0001h.544v-5.6h-.544z"/><path d="m102.287 40.1601h.568l-1.656 4.44c-.138.3733-.306.6453-.504.816-.192.176-.437.264-.7358.264-.1653 0-.3173-.032-.456-.096v-.528c.048.0266.1067.0506.176.072.0747.0213.152.032.232.032.3308 0 .5708-.192.7198-.576l.232-.576-1.6958-3.848h.592l1.3838 3.176h.016z"/><path d="m105.559 44.0001h.6v-4.528h.024l2.224 2.936 2.232-2.936h.016v4.528h.6v-5.6h-.512l-2.32 3.064h-.016l-2.32-3.064h-.528z"/><path d="m113.046 39.3201c-.096 0-.182-.0347-.256-.104-.07-.0694-.104-.1547-.104-.256 0-.1014.034-.1867.104-.256.074-.0694.16-.104.256-.104.101 0 .186.0346.256.104.074.0693.112.1546.112.256 0 .1013-.038.1866-.112.256-.07.0693-.155.104-.256.104z"/><path d="m115.313 43.8161c.298.176.621.264.968.264.352 0 .664-.08.936-.24.277-.16.493-.3467.648-.56l-.4-.328c-.134.1653-.299.3066-.496.424-.198.1173-.427.176-.688.176-.251 0-.483-.064-.696-.192-.208-.128-.376-.304-.504-.528-.123-.2294-.184-.48-.184-.752s.061-.52.184-.744c.128-.2294.296-.408.504-.536.213-.128.445-.192.696-.192.464 0 .853.1946 1.168.584l.4-.328c-.155-.208-.368-.3894-.64-.544-.267-.16-.576-.24-.928-.24-.347 0-.67.0906-.968.272-.294.176-.528.416-.704.72-.171.304-.256.64-.256 1.008s.085.704.256 1.008c.176.304.41.5466.704.728z"/><path d="m118.765 40.1601h.544v.6h.008c.101-.176.264-.3334.488-.472.229-.1387.488-.208.776-.208h.176v.56c-.075-.0107-.149-.016-.224-.016-.224 0-.429.056-.616.168s-.336.2666-.448.464c-.107.1973-.16.4186-.16.664v2.08h-.544z"/><path clip-rule="evenodd" d="m122.18 43.8161c.299.176.624.264.976.264s.677-.088.976-.264c.299-.1814.536-.424.712-.728s.264-.64.264-1.008-.088-.704-.264-1.008-.413-.544-.712-.72c-.299-.1814-.624-.272-.976-.272s-.677.0906-.976.272c-.299.176-.536.416-.712.72s-.264.64-.264 1.008.088.704.264 1.008.413.5466.712.728zm1.68-.456c-.213.128-.448.192-.704.192s-.493-.064-.712-.192c-.213-.128-.384-.304-.512-.528-.123-.2294-.184-.48-.184-.752s.061-.52.184-.744c.128-.2294.299-.408.512-.536.219-.128.456-.192.712-.192s.491.064.704.192c.219.128.389.3066.512.536.128.224.192.472.192.744s-.064.5226-.192.752c-.123.224-.293.4-.512.528z" fill-rule="evenodd"/><path clip-rule="evenodd" d="m127.645 45.6801c-.347 0-.672-.0854-.976-.256-.304-.1654-.523-.3467-.656-.544l.392-.36c.101.1546.266.2986.496.432.234.1333.482.2.744.2.384 0 .696-.1334.936-.4.24-.2667.36-.608.36-1.024v-.536h-.008c-.134.224-.323.4026-.568.536-.246.128-.504.192-.776.192-.315 0-.606-.0827-.872-.248-.267-.1654-.48-.3947-.64-.688-.155-.2934-.232-.6214-.232-.984 0-.3627.077-.6907.232-.984.16-.2934.373-.5227.64-.688.266-.1654.557-.248.872-.248.304 0 .576.0746.816.224.24.1493.416.3146.528.496h.008v-.64h.544v3.568c0 .368-.08.6986-.24.992-.16.2986-.382.5333-.664.704-.278.1706-.59.256-.936.256zm.008-2.288c.24 0 .456-.0587.648-.176.197-.1227.352-.288.464-.496.117-.2134.176-.4534.176-.72 0-.2667-.059-.5067-.176-.72-.112-.2134-.267-.3787-.464-.496-.192-.1174-.408-.176-.648-.176-.23 0-.443.0586-.64.176-.192.1173-.344.2826-.456.496-.112.2133-.168.4533-.168.72 0 .2666.056.5066.168.72.112.208.264.3733.456.496.197.1173.41.176.64.176z" fill-rule="evenodd"/><path clip-rule="evenodd" d="m131.453 43.8161c.294.176.614.264.96.264.352 0 .659-.072.92-.216.262-.1494.478-.3307.648-.544l-.376-.344c-.341.384-.733.576-1.176.576-.24 0-.461-.056-.664-.168-.197-.112-.36-.264-.488-.456s-.205-.4054-.232-.64h3.12c.011-.0854.016-.1707.016-.256 0-.3734-.08-.7094-.24-1.008-.16-.2987-.378-.5307-.656-.696-.272-.1654-.576-.248-.912-.248-.341 0-.656.088-.944.264s-.517.416-.688.72c-.17.304-.256.6426-.256 1.016 0 .368.088.704.264 1.008s.411.5466.704.728zm1.768-2.888c.224.2186.36.5146.408.888h-2.592c.027-.224.102-.4294.224-.616.128-.1867.288-.3334.48-.44.198-.112.408-.168.632-.168.342 0 .624.112.848.336z" fill-rule="evenodd"/><path d="m135.14 40.1601h.544v.616h.008c.101-.1814.264-.3414.488-.48.229-.144.485-.216.768-.216.293 0 .557.0693.792.208.235.1386.419.3333.552.584.133.2506.2.5386.2.864v2.264h-.544v-2.264c0-.336-.101-.608-.304-.816-.197-.208-.451-.312-.76-.312-.224 0-.427.056-.608.168-.181.1066-.325.256-.432.448s-.16.408-.16.648v2.128h-.544z"/><path clip-rule="evenodd" d="m140.422 43.8161c.293.176.613.264.96.264.352 0 .659-.072.92-.216.261-.1494.477-.3307.648-.544l-.376-.344c-.341.384-.733.576-1.176.576-.24 0-.461-.056-.664-.168-.197-.112-.36-.264-.488-.456s-.205-.4054-.232-.64h3.12c.011-.0854.016-.1707.016-.256 0-.3734-.08-.7094-.24-1.008-.16-.2987-.379-.5307-.656-.696-.272-.1654-.576-.248-.912-.248-.341 0-.656.088-.944.264s-.517.416-.688.72-.256.6426-.256 1.016c0 .368.088.704.264 1.008s.411.5466.704.728zm1.768-2.888c.224.2186.36.5146.408.888h-2.592c.027-.224.101-.4294.224-.616.128-.1867.288-.3334.48-.44.197-.112.408-.168.632-.168.341 0 .624.112.848.336z" fill-rule="evenodd"/><path d="m145.501 44.0401c-.336 0-.598-.096-.784-.288-.182-.1974-.272-.4827-.272-.856v-2.208h-.744v-.528h.488c.096 0 .17-.0294.224-.088.058-.064.088-.1574.088-.28v-.912h.488v1.28h.944v.528h-.944v2.176c0 .208.05.368.152.48.106.112.25.168.432.168.154 0 .317-.04.488-.12v.528c-.064.032-.147.0586-.248.08-.102.0266-.206.04-.312.04z"/><path d="m147.024 39.2161c.075.0693.16.104.256.104.101 0 .187-.0347.256-.104.075-.0694.112-.1547.112-.256 0-.1014-.037-.1867-.112-.256-.069-.0694-.155-.104-.256-.104-.096 0-.181.0346-.256.104-.069.0693-.104.1546-.104.256 0 .1013.035.1866.104.256z"/><path d="m150.515 44.0801c-.347 0-.669-.088-.968-.264-.293-.1814-.528-.424-.704-.728-.171-.304-.256-.64-.256-1.008s.085-.704.256-1.008c.176-.304.411-.544.704-.72.299-.1814.621-.272.968-.272.352 0 .661.08.928.24.272.1546.485.336.64.544l-.4.328c-.315-.3894-.704-.584-1.168-.584-.251 0-.483.064-.696.192-.208.128-.376.3066-.504.536-.123.224-.184.472-.184.744s.061.5226.184.752c.128.224.296.4.504.528.213.128.445.192.696.192.261 0 .491-.0587.688-.176.197-.1174.363-.2587.496-.424l.4.328c-.155.2133-.371.4-.648.56-.272.16-.584.24-.936.24z"/><path d="m153.279 43.8721c.256.1386.536.208.84.208.283 0 .531-.0534.744-.16.214-.1067.376-.248.488-.424.118-.1814.176-.3787.176-.592 0-.2347-.061-.424-.184-.568-.117-.144-.261-.2534-.432-.328-.165-.08-.381-.16-.648-.24-.293-.0854-.512-.168-.656-.248-.138-.0854-.208-.208-.208-.368 0-.1547.067-.2854.2-.392.139-.112.326-.168.56-.168.342 0 .643.1306.904.392l.368-.36c-.144-.1494-.322-.2774-.536-.384-.213-.1067-.458-.16-.736-.16-.25 0-.477.0506-.68.152-.197.1013-.352.2346-.464.4-.106.16-.16.3333-.16.52 0 .224.059.408.176.552.118.144.259.2533.424.328.171.0746.39.1546.656.24.299.0853.52.1706.664.256.144.0853.216.2106.216.376 0 .192-.077.352-.232.48-.149.1226-.36.184-.632.184-.218 0-.424-.0534-.616-.16-.192-.1067-.341-.2267-.448-.36l-.368.36c.134.1706.328.3253.584.464z"/><path d="m113.318 44.0001h-.544v-3.84h.544z"/><path d="m147.008 44.0001h.544v-3.84h-.544z"/></g></svg>