<svg fill="none" height="24" viewBox="0 0 211 24" width="211" xmlns="http://www.w3.org/2000/svg"><g fill="#000"><path clip-rule="evenodd" d="m12 24c6.6274 0 12-5.3726 12-12 0-6.62744-5.3726-12-12-12-6.62741 0-12 5.37256-12 12 0 6.6274 5.37259 12 12 12zm-2.91443-9.9864c-.33172 0-.64206-.1799-.80972-.4689-.4675-.8086-.71454-1.7289-.71454-2.6616 0-2.93724 2.3905-5.32689 5.32899-5.32689.5151 0 .9346.42078.9346.93787 0 .51733-.4206.93805-.9376.93805-1.903 0-3.45081 1.54816-3.45081 3.45097 0 .6041.16001 1.2001.46295 1.7241.08146.1407.12426.3025.12426.4681 0 .5174-.42076.9383-.93813.9383zm1.88123-5.2044c-.5573.51624-.9061 1.2542-.9061 2.0739 0 .5142.139.9956.3796 1.4119.1344.233.2074.5012.2074.7803 0 .6244-.366 1.163-.89492 1.4135.72552.2242 1.53902.1572 2.24902-.2523.4457-.2573.7929-.6182 1.0329-1.0351.1348-.233.3299-.43.5722-.5697.5404-.3122 1.1902-.2645 1.6716.0689-.1685-.7408-.6332-1.412-1.3433-1.822-.4455-.2572-.9318-.3773-1.4123-.377-.2693 0-.5379-.0708-.7797-.2106-.5409-.31218-.8245-.89836-.7764-1.4818zm5.3581 7.6503c-.1642 0-.3269-.0435-.4707-.1268-.4479-.2587-.6023-.8331-.3434-1.2808.9508-1.648.3844-3.7625-1.2633-4.7141-.5222-.3014-1.1175-.46066-1.7217-.46066-.1654 0-.3269-.04383-.4709-.12677-.4477-.25879-.6013-.83368-.343-1.28156.1656-.28699.4765-.46588.811-.46661.9352 0 1.8549.24621 2.6621.71222 1.2315.71112 2.1128 1.86008 2.4811 3.23548.3682 1.3749.1791 2.8108-.5323 4.0429-.1661.2879-.4765.4667-.8089.4667zm-5.7304.6551c-1.90142 0-3.67214-1.0215-4.62065-2.6654-.25788-.4461-.10288-1.0195.34491-1.2778.43487-.2511 1.03299-.088 1.28097.3425.61502 1.0647 1.76135 1.726 2.99187 1.726.6019 0 1.1977-.1602 1.7221-.4628.5235-.3019.9595-.7388 1.2618-1.2636.0817-.1406.2003-.2586.3437-.341.4339-.2515 1.0323-.0877 1.2811.3432.1661.2876.1653.6463-.0016.9357-.4661.8085-1.1393 1.4827-1.9471 1.9492-.8091.4671-1.7278.714-2.6571.714z" fill-rule="evenodd"/><path d="m30 0h1v24h-1z"/><path d="m115.864 16.392c.885.512 1.856.768 2.912.768 1.034 0 1.952-.2293 2.752-.688.81-.4587 1.445-1.0027 1.904-1.632l-.864-.672c-.395.5013-.912.9387-1.552 1.312-.64.3627-1.387.544-2.24.544-.832 0-1.6-.2027-2.304-.608-.704-.416-1.259-.976-1.664-1.68-.406-.704-.608-1.4827-.608-2.336s.202-1.63199.608-2.33599c.405-.71466.96-1.27466 1.664-1.67999.704-.40534 1.472-.60801 2.304-.60801.853 0 1.589.176 2.208.52801.629.35199 1.13.77333 1.504 1.264l.864-.68801c-.427-.59733-1.046-1.12-1.856-1.568-.8-.448-1.707-.672-2.72-.672-1.056 0-2.027.256-2.912.768-.886.512-1.584 1.21067-2.096 2.096-.512.88534-.768 1.85069-.768 2.89599s.256 2.0107.768 2.896 1.21 1.584 2.096 2.096z"/><path clip-rule="evenodd" d="m38.4399 17v-11.19999h4.768c.7574 0 1.4347.16534 2.032.496.608.33067 1.0774.784 1.408 1.36.3414.56534.512 1.20001.512 1.904s-.1706 1.34399-.512 1.91999c-.3306.5653-.8 1.0133-1.408 1.344-.5973.3307-1.2746.496-2.032.496h-2.368v3.68zm4.688-5.84c.4587 0 .8427-.1547 1.152-.464.32-.32.48-.69865.48-1.13599 0-.43733-.16-.81066-.48-1.12-.3093-.31999-.6933-.47999-1.152-.47999h-2.288v3.19998z" fill-rule="evenodd"/><path d="m48.3606 17v-11.19999h2.16v4.54399h.048c.192-.32.4906-.60798.896-.86399.416-.26666.8906-.39999 1.424-.39999.5653 0 1.0666.13333 1.504.39999.4373.26667.7786.65069 1.024 1.15199.256.4907.384 1.0773.384 1.76v4.608h-2.16v-4.32c0-.48-.1334-.8587-.4-1.136-.2667-.288-.6134-.432-1.04-.432-.4907 0-.896.1707-1.216.512-.3094.3307-.464.7627-.464 1.296v4.08z"/><path clip-rule="evenodd" d="m62.2762 9.49602c-.512-.27734-1.0987-.416-1.76-.416-.6827 0-1.296.14933-1.84.448-.5333.288-.9707.63468-1.312 1.03998l1.232 1.184c.544-.608 1.1467-.912 1.808-.912.384 0 .6987.112.944.336.256.2133.3947.4747.416.784l-2.448.464c-.768.1493-1.36.4373-1.776.864s-.624.9707-.624 1.632c0 .3947.112.768.336 1.12.224.3413.528.6133.912.816.3947.2027.8373.304 1.328.304.5333 0 1.008-.128 1.424-.384s.72-.5387.912-.848h.048v1.072h2.048v-4.88c0-.5547-.144-1.0613-.432-1.52-.288-.4693-.6933-.83732-1.216-1.10398zm-.992 5.43998c-.3093.3307-.6987.496-1.168.496-.3093 0-.5547-.0747-.736-.224-.1707-.16-.256-.3627-.256-.608 0-.2027.0853-.384.256-.544.1707-.1707.4053-.2827.704-.336l1.68-.336v.256c0 .5333-.16.9653-.48 1.296z" fill-rule="evenodd"/><path d="m65.5274 17v-7.75998h2.16v.95998h.048c.192-.28799.48-.54399.864-.76799.3947-.23466.8374-.35199 1.328-.35199h.368v2.31998c-.256-.0853-.496-.128-.72-.128-.5546 0-1.008.192-1.36.576-.352.3733-.528.8747-.528 1.504v3.648z"/><path d="m71.2524 9.24002v7.75998h2.16v-4.16c0-.5333.1387-.9547.416-1.264.2774-.3093.6347-.464 1.072-.464.3734 0 .6774.1333.912.4.2454.256.3681.6187.3681 1.088v4.4h2.1599v-4.16c0-.5333.1387-.9547.416-1.264.2774-.3093.6294-.464 1.056-.464.3734 0 .6774.1333.912.4.2454.256.368.6187.368 1.088v4.4h2.16v-4.608c0-.672-.1226-1.2587-.368-1.76-.2453-.5013-.576-.88532-.992-1.15199-.4053-.26666-.8586-.39999-1.36-.39999-.6186 0-1.168.13866-1.648.416-.4693.26666-.7946.56528-.976.89598h-.064c-.16-.3307-.4373-.62932-.832-.89598-.3946-.27734-.8586-.416-1.392-.416-.5226 0-.976.13333-1.36.39999-.384.25601-.6506.54399-.8.86399h-.048v-1.10398z"/><path clip-rule="evenodd" d="m87.9724 9.08002c.6614 0 1.248.13866 1.76.416.5227.26666.928.63468 1.216 1.10398.288.4587.432.9653.432 1.52v4.88h-2.048v-1.072h-.048c-.192.3093-.496.592-.912.848s-.8906.384-1.424.384c-.4906 0-.9333-.1013-1.328-.304-.384-.2027-.688-.4747-.912-.816-.224-.352-.336-.7253-.336-1.12 0-.6613.208-1.2053.624-1.632s1.008-.7147 1.776-.864l2.448-.464c-.0213-.3093-.16-.5707-.416-.784-.2453-.224-.56-.336-.944-.336-.6613 0-1.264.304-1.808.912l-1.232-1.184c.3414-.4053.7787-.75198 1.312-1.03998.544-.29867 1.1574-.448 1.84-.448zm-.4 6.35198c.4694 0 .8587-.1653 1.168-.496.32-.3307.48-.7627.48-1.296v-.256l-1.68.336c-.2986.0533-.5333.1653-.704.336-.1706.16-.256.3413-.256.544 0 .2453.0854.448.256.608.1814.1493.4267.224.736.224z" fill-rule="evenodd"/><path d="m92.0274 17h2.416l1.616-2.624h.048l1.616 2.624h2.4956l-2.6556-4 2.4636-3.75998h-2.4156l-1.424 2.36798h-.048l-1.408-2.36798h-2.496l2.464 3.75998z"/><path clip-rule="evenodd" d="m104.467 17.16c-.768 0-1.472-.1813-2.112-.544-.63-.3627-1.131-.8533-1.504-1.472-.363-.6187-.544-1.296-.544-2.032s.181-1.4133.544-2.032c.373-.6187.874-1.10398 1.504-1.45599.64-.36266 1.344-.54399 2.112-.54399.778 0 1.482.18133 2.112.54399.64.35201 1.141.83729 1.504 1.45599.362.6187.544 1.296.544 2.032s-.182 1.4133-.544 2.032c-.363.6187-.864 1.1093-1.504 1.472-.63.3627-1.334.544-2.112.544zm0-2c.544 0 1.008-.1973 1.392-.592s.576-.88.576-1.456-.192-1.056-.576-1.44c-.384-.3947-.848-.592-1.392-.592s-1.008.1973-1.392.592c-.374.384-.56.864-.56 1.44s.186 1.0613.56 1.456c.384.3947.848.592 1.392.592z" fill-rule="evenodd"/><path clip-rule="evenodd" d="m128.093 17.16c-.704 0-1.355-.176-1.952-.528-.597-.3627-1.072-.848-1.424-1.456s-.528-1.28-.528-2.016.176-1.408.528-2.016.827-1.088 1.424-1.43999c.597-.36266 1.248-.54399 1.952-.54399s1.355.18133 1.952.54399c.597.35199 1.072.83199 1.424 1.43999s.528 1.28.528 2.016-.176 1.408-.528 2.016-.827 1.0933-1.424 1.456c-.597.352-1.248.528-1.952.528zm0-1.056c.512 0 .981-.128 1.408-.384.437-.256.779-.608 1.024-1.056.256-.4587.384-.96.384-1.504s-.128-1.04-.384-1.488c-.245-.4587-.587-.816-1.024-1.072-.427-.256-.896-.384-1.408-.384s-.987.128-1.424.384c-.427.256-.768.6133-1.024 1.072-.245.448-.368.944-.368 1.488s.123 1.0453.368 1.504c.256.448.597.8 1.024 1.056.437.256.912.384 1.424.384z" fill-rule="evenodd"/><path d="m134.686 9.32001h-1.088v7.67999h1.088v-4.288c0-.7573.198-1.36.592-1.808.406-.4587.912-.688 1.52-.688.555 0 1.014.2027 1.376.608.374.3947.56.9333.56 1.616v4.56h1.088v-4.288c0-.7573.198-1.36.592-1.808.406-.4587.912-.688 1.52-.688.555 0 1.014.2027 1.376.608.363.3947.544.9333.544 1.616v4.56h1.088v-4.56c0-.6507-.128-1.2213-.384-1.712-.256-.5013-.602-.88532-1.04-1.15198-.426-.27734-.901-.416-1.424-.416-.65 0-1.21.15999-1.68.47999-.458.32-.773.67199-.944 1.05599h-.032c-.181-.384-.49-.73599-.928-1.05599-.437-.32-.949-.47999-1.536-.47999-.554 0-1.034.13866-1.44.416-.394.27733-.672.58668-.832.92798h-.016z"/><path clip-rule="evenodd" d="m146.995 9.32001h1.088v1.32799h.016c.214-.384.571-.72532 1.072-1.02399.502-.30933 1.078-.46399 1.728-.46399.64 0 1.232.17599 1.776.52799.555.34129.998.81599 1.328 1.42399.331.608.496 1.2907.496 2.048s-.165 1.44-.496 2.048c-.33.608-.773 1.088-1.328 1.44-.544.3413-1.136.512-1.776.512-.65 0-1.226-.1493-1.728-.448-.501-.3093-.858-.656-1.072-1.04h-.016v4.688h-1.088zm3.776 6.78399c.47 0 .907-.128 1.312-.384.406-.256.726-.608.96-1.056.246-.448.368-.9493.368-1.504 0-.5653-.122-1.072-.368-1.52-.234-.448-.554-.7947-.96-1.04-.405-.256-.842-.384-1.312-.384-.49 0-.944.128-1.36.384-.405.2453-.73.592-.976 1.04-.234.448-.352.9547-.352 1.52 0 .5547.118 1.056.352 1.504.246.448.571.8.976 1.056.416.256.87.384 1.36.384z" fill-rule="evenodd"/><path clip-rule="evenodd" d="m157.519 16.632c.598.352 1.248.528 1.952.528s1.355-.176 1.952-.528c.598-.3627 1.072-.848 1.424-1.456s.528-1.28.528-2.016-.176-1.408-.528-2.016-.826-1.088-1.424-1.43999c-.597-.36266-1.248-.54399-1.952-.54399s-1.354.18133-1.952.54399c-.597.35199-1.072.83199-1.424 1.43999s-.528 1.28-.528 2.016.176 1.408.528 2.016.827 1.0933 1.424 1.456zm3.36-.912c-.426.256-.896.384-1.408.384s-.986-.128-1.424-.384c-.426-.256-.768-.608-1.024-1.056-.245-.4587-.368-.96-.368-1.504s.123-1.04.368-1.488c.256-.4587.598-.816 1.024-1.072.438-.256.912-.384 1.424-.384s.982.128 1.408.384c.438.256.779.6133 1.024 1.072.256.448.384.944.384 1.488s-.128 1.0453-.384 1.504c-.245.448-.586.8-1.024 1.056z" fill-rule="evenodd"/><path d="m167.984 17.16c-.586 0-1.114-.1387-1.584-.416-.469-.2773-.837-.6667-1.104-1.168-.266-.5013-.4-1.0773-.4-1.728v-4.52799h1.088v4.52799c0 .672.198 1.216.592 1.632.406.416.918.624 1.536.624.448 0 .854-.1067 1.216-.32.363-.224.651-.528.864-.912.214-.384.32-.816.32-1.296v-4.25599h1.088v7.67999h-1.088v-1.232h-.016c-.192.352-.517.672-.976.96-.448.288-.96.432-1.536.432z"/><path d="m174.821 9.32001h-1.088v7.67999h1.088v-4.256c0-.48.106-.912.32-1.296.213-.384.501-.6827.864-.896.362-.224.768-.336 1.216-.336.618 0 1.125.208 1.52.624.405.416.608.96.608 1.632v4.528h1.088v-4.528c0-.6507-.134-1.2267-.4-1.728-.267-.5013-.635-.89065-1.104-1.16798-.47-.27734-.998-.416-1.584-.416-.566 0-1.078.14399-1.536.43199-.448.27734-.774.59729-.976.95999h-.016z"/><path clip-rule="evenodd" d="m185.561 17.16c-.64 0-1.237-.1707-1.792-.512-.544-.352-.981-.832-1.312-1.44s-.496-1.2907-.496-2.048.165-1.44.496-2.048.768-1.0827 1.312-1.42399c.555-.352 1.152-.52799 1.792-.52799.651 0 1.227.15466 1.728.46399.501.29867.859.63999 1.072 1.02399h.032v-4.84799h1.072v11.19999h-1.072v-1.328h-.032c-.213.384-.571.7307-1.072 1.04-.501.2987-1.077.448-1.728.448zm.128-1.056c.491 0 .939-.128 1.344-.384.416-.256.747-.608.992-1.056s.368-.9493.368-1.504c0-.5653-.123-1.072-.368-1.52s-.576-.7947-.992-1.04c-.405-.256-.853-.384-1.344-.384-.469 0-.907.128-1.312.384-.405.2453-.731.592-.976 1.04-.235.448-.352.9547-.352 1.52 0 .5547.117 1.056.352 1.504.245.448.571.8.976 1.056s.843.384 1.312.384z" fill-rule="evenodd"/><path d="m191.779 7.43201c.149.13867.32.208.512.208.203 0 .373-.06933.512-.208.149-.13866.224-.30933.224-.512 0-.20266-.075-.37333-.224-.512-.139-.13866-.309-.20799-.512-.20799-.192 0-.363.06933-.512.20799-.139.13867-.208.30934-.208.512 0 .20267.069.37334.208.512z"/><path d="m195.033 9.32001h1.088v1.23199h.016c.202-.3627.528-.68265.976-.95999.458-.288.97-.43199 1.536-.43199.586 0 1.114.13866 1.584.416.469.27733.837.66668 1.104 1.16798.266.5013.4 1.0773.4 1.728v4.528h-1.088v-4.528c0-.672-.203-1.216-.608-1.632-.395-.416-.902-.624-1.52-.624-.448 0-.854.112-1.216.336-.363.2133-.651.512-.864.896-.214.384-.32.816-.32 1.296v4.256h-1.088z"/><path clip-rule="evenodd" d="m204.909 19.848c.608.3413 1.259.512 1.952.512s1.317-.1707 1.872-.512c.565-.3413 1.008-.8107 1.328-1.408.32-.5867.48-1.248.48-1.984v-7.13599h-1.088v1.27999h-.016c-.224-.3627-.576-.69332-1.056-.99198-.48-.29867-1.024-.448-1.632-.448-.629 0-1.211.16533-1.744.496-.533.33066-.96.78928-1.28 1.37598-.309.5867-.464 1.2427-.464 1.968s.155 1.3813.464 1.968c.32.5867.747 1.0453 1.28 1.376s1.115.496 1.744.496c.544 0 1.061-.128 1.552-.384.491-.2667.869-.624 1.136-1.072h.016v1.072c0 .832-.24 1.5147-.72 2.048s-1.104.8-1.872.8c-.523 0-1.019-.1333-1.488-.4-.459-.2667-.789-.5547-.992-.864l-.784.72c.267.3947.704.7573 1.312 1.088zm3.264-4.416c-.384.2347-.816.352-1.296.352-.459 0-.885-.1173-1.28-.352-.384-.2453-.688-.576-.912-.992-.224-.4267-.336-.9067-.336-1.44s.112-1.0133.336-1.44.528-.7573.912-.992c.395-.2347.821-.352 1.28-.352.48 0 .912.1173 1.296.352.395.2347.704.5653.928.992.235.4267.352.9067.352 1.44s-.117 1.0133-.352 1.44c-.224.416-.533.7467-.928.992z" fill-rule="evenodd"/><path d="m191.747 17h1.088v-7.67999h-1.088z"/></g></svg>