<svg fill="none" height="24" viewBox="0 0 109 24" width="109" xmlns="http://www.w3.org/2000/svg"><circle cx="12" cy="12" fill="#1565c0" r="12"/><g fill="#fff"><path d="m8.27586 13.5447c.16766.289.47799.4689.80972.4689.51737 0 .93812-.4209.93812-.9383 0-.1656-.0428-.3274-.12425-.4681-.30295-.524-.46294-1.12-.46294-1.7241 0-1.90282 1.54779-3.45097 3.45079-3.45097.517 0 .9376-.42074.9376-.93805 0-.5171-.4195-.93787-.9347-.93787-2.93839 0-5.3289 2.38967-5.3289 5.32689 0 .9327.24705 1.853.71456 2.6616z"/><path d="m10.0607 10.8831c0-.8197.3488-1.55768.9061-2.07391-.0481.58343.2355 1.16962.7764 1.48181.2417.1398.5104.2106.7797.2106.4805-.0003.9668.1198 1.4123.377.7101.41 1.1748 1.0812 1.3433 1.822-.4814-.3334-1.1312-.3811-1.6716-.0689-.2423.1396-.4374.3367-.5722.5696-.24.4171-.5872.778-1.0329 1.0352-.71.4095-1.5235.4765-2.24903.2523.52893-.2505.89493-.7891.89493-1.4135 0-.2791-.073-.5473-.2074-.7803-.2406-.4163-.3796-.8977-.3796-1.4119z"/><path d="m16.3249 16.4595c-.1642 0-.3269-.0435-.4706-.1268-.448-.2586-.6024-.833-.3435-1.2808.9508-1.648.3844-3.7625-1.2633-4.714-.5222-.3014-1.1175-.46079-1.7217-.46079-.1654 0-.327-.04379-.4709-.12676-.4477-.25878-.6013-.83366-.343-1.28156.1656-.28698.4765-.46584.811-.46657.9352 0 1.8549.24622 2.6621.7122 1.2315.71112 2.1128 1.86008 2.4811 3.23548.3682 1.375.1791 2.8108-.5323 4.0429-.1661.2879-.4765.4667-.8089.4667z"/><path d="m5.97383 14.4492c.94853 1.644 2.71924 2.6654 4.62067 2.6654.9293 0 1.848-.2469 2.6571-.714.8078-.4665 1.481-1.1406 1.9471-1.9492.1669-.2894.1677-.6481.0017-.9357-.2489-.4308-.8473-.5947-1.2812-.3432-.1434.0824-.262.2004-.3437.341-.3023.5247-.7383.9617-1.2618 1.2636-.5244.3026-1.1202.4627-1.7221.4627-1.23052 0-2.37684-.6612-2.99188-1.7259-.24798-.4305-.84607-.5936-1.28096-.3425-.44777.2583-.60278.8316-.34493 1.2778z"/><path d="m31 0h-1v24h1z"/><path clip-rule="evenodd" d="m38.4399 5.79999v11.20001h2.4v-3.68h2.368c.7574 0 1.4347-.1653 2.032-.496.608-.3307 1.0774-.7787 1.408-1.344.3414-.576.512-1.216.512-1.92001 0-.704-.1706-1.33867-.512-1.904-.3306-.576-.8-1.02933-1.408-1.36-.5973-.33067-1.2746-.496-2.032-.496zm5.84 4.89601c-.3093.3093-.6933.464-1.152.464h-2.288v-3.20001h2.288c.4587 0 .8427.16 1.152.48.32.30933.48.68266.48 1.12 0 .43733-.16.81601-.48 1.13601z" fill-rule="evenodd"/><path d="m48.3606 5.79999v11.20001h2.16v-4.08c0-.5333.1546-.9653.464-1.296.32-.3413.7253-.512 1.216-.512.4266 0 .7733.144 1.04.432.2666.2773.4.656.4 1.136v4.32h2.16v-4.608c0-.6827-.128-1.2693-.384-1.76-.2454-.5013-.5867-.88535-1.024-1.15201-.4374-.26667-.9387-.4-1.504-.4-.5334 0-1.008.13333-1.424.4-.4054.256-.704.54401-.896.86401h-.048v-4.54401z"/><path clip-rule="evenodd" d="m60.5162 9.07999c.6613 0 1.248.13867 1.76.416.5227.26667.928.63471 1.216 1.10401.288.4587.432.9653.432 1.52v4.88h-2.048v-1.072h-.048c-.192.3093-.496.592-.912.848s-.8907.384-1.424.384c-.4907 0-.9333-.1013-1.328-.304-.384-.2027-.688-.4747-.912-.816-.224-.352-.336-.7253-.336-1.12 0-.6613.208-1.2053.624-1.632s1.008-.7147 1.776-.864l2.448-.464c-.0213-.3093-.16-.5707-.416-.784-.2453-.224-.56-.336-.944-.336-.6613 0-1.264.304-1.808.912l-1.232-1.184c.3413-.4053.7787-.75201 1.312-1.04001.544-.29867 1.1573-.448 1.84-.448zm-.4 6.35201c.4693 0 .8587-.1653 1.168-.496.32-.3307.48-.7627.48-1.296v-.256l-1.68.336c-.2987.0533-.5333.1653-.704.336-.1707.16-.256.3413-.256.544 0 .2453.0853.448.256.608.1813.1493.4267.224.736.224z" fill-rule="evenodd"/><path d="m65.5274 9.23999v7.76001h2.16v-3.648c0-.6293.176-1.1307.528-1.504.352-.384.8054-.576 1.36-.576.224 0 .464.0427.72.128v-2.32001h-.368c-.4906 0-.9333.11733-1.328.352-.384.224-.672.48-.864.76801h-.048v-.96001z"/><path d="m71.2524 17v-7.76001h2.16v1.10401h.048c.1494-.32.416-.60801.8-.86401.384-.26667.8374-.4 1.36-.4.5334 0 .9974.13867 1.392.416.3947.26667.672.56531.832.89601h.064c.1814-.3307.5067-.62934.976-.89601.48-.27733 1.0294-.416 1.648-.416.5014 0 .9547.13333 1.36.4.416.26666.7467.65071.992 1.15201.2454.5013.368 1.088.368 1.76v4.608h-2.16v-4.4c0-.4693-.1226-.832-.368-1.088-.2346-.2667-.5386-.4-.912-.4-.4266 0-.7786.1547-1.056.464-.2773.3093-.416.7307-.416 1.264v4.16h-2.16v-4.4c0-.4693-.1226-.832-.368-1.088-.2346-.2667-.5386-.4-.912-.4-.4373 0-.7946.1547-1.072.464-.2773.3093-.416.7307-.416 1.264v4.16z"/><path clip-rule="evenodd" d="m89.7324 9.49599c-.512-.27733-1.0986-.416-1.76-.416-.6826 0-1.296.14933-1.84.448-.5333.288-.9706.63471-1.312 1.04001l1.232 1.184c.544-.608 1.1467-.912 1.808-.912.384 0 .6987.112.944.336.256.2133.3947.4747.416.784l-2.448.464c-.768.1493-1.36.4373-1.776.864s-.624.9707-.624 1.632c0 .3947.112.768.336 1.12.224.3413.528.6133.912.816.3947.2027.8374.304 1.328.304.5334 0 1.008-.128 1.424-.384s.72-.5387.912-.848h.048v1.072h2.048v-4.88c0-.5547-.144-1.0613-.432-1.52-.288-.4693-.6933-.83734-1.216-1.10401zm-.992 5.44001c-.3093.3307-.6986.496-1.168.496-.3093 0-.5546-.0747-.736-.224-.1706-.16-.256-.3627-.256-.608 0-.2027.0854-.384.256-.544.1707-.1707.4054-.2827.704-.336l1.68-.336v.256c0 .5333-.16.9653-.48 1.296z" fill-rule="evenodd"/><path d="m94.4434 17h-2.416l2.672-4-2.464-3.76001h2.496l1.408 2.36801h.048l1.424-2.36801h2.4156l-2.4636 3.76001 2.6556 4h-2.4956l-1.616-2.624h-.048z"/><path clip-rule="evenodd" d="m102.355 16.616c.64.3627 1.344.544 2.112.544.778 0 1.482-.1813 2.112-.544.64-.3627 1.141-.8533 1.504-1.472.362-.6187.544-1.296.544-2.032s-.182-1.4133-.544-2.032c-.363-.6187-.864-1.10401-1.504-1.45601-.63-.36267-1.334-.544-2.112-.544-.768 0-1.472.18133-2.112.544-.63.352-1.131.83731-1.504 1.45601-.363.6187-.544 1.296-.544 2.032s.181 1.4133.544 2.032c.373.6187.874 1.1093 1.504 1.472zm3.504-2.048c-.384.3947-.848.592-1.392.592s-1.008-.1973-1.392-.592c-.374-.3947-.56-.88-.56-1.456s.186-1.056.56-1.44c.384-.3947.848-.592 1.392-.592s1.008.1973 1.392.592c.384.384.576.864.576 1.44s-.192 1.0613-.576 1.456z" fill-rule="evenodd"/></g></svg>