<?xml version="1.0" encoding="UTF-8"?>
<svg width="64px" height="64px" viewBox="0 0 64 64" version="1.1" xmlns="http://www.w3.org/2000/svg" xmlns:xlink="http://www.w3.org/1999/xlink">
    <!-- Generator: Sketch 42 (36781) - http://www.bohemiancoding.com/sketch -->
    <title>pharmaxo-avatar</title>
    <desc>Created with Sketch.</desc>
    <defs></defs>
    <g id="Brands" stroke="none" stroke-width="1" fill="none" fill-rule="evenodd">
        <g id="Pharmaxo-avatar">
            <g id="pharmaxo-avatar">
                <polygon id="Fill-1" fill="#97999B" points="0.00375 64 64 64 64 0.0025 0.00375 0.0025"></polygon>
                <path d="M29.24675,23.49275 C29.1184375,25.0485 29.87475,26.611625 31.3169375,27.4440625 C31.9615625,27.817 32.678,28.005625 33.396,28.005625 C34.67725,28.0048125 35.974,28.3250625 37.161875,29.0109375 C39.055375,30.104375 40.2945,31.8939375 40.7438125,33.8694375 C39.460125,32.9804375 37.7275625,32.8533125 36.2865,33.68575 C35.6405,34.0580625 35.12025,34.5835625 34.760625,35.2046875 C34.1206875,36.3166875 33.1949375,37.2790625 32.0064375,37.9649375 C30.11325,39.057 27.9441875,39.2356875 26.0094375,38.637875 C27.41975,37.9696875 28.3956875,36.5335625 28.3956875,34.868625 C28.3956875,34.1243125 28.20125,33.40925 27.84275,32.787875 C27.2011875,31.677875 26.8305,30.394125 26.8305,29.022875 C26.8305,26.83725 27.76075,24.8693125 29.24675,23.49275 Z M24.230375,37.37075 C23.3458125,37.37075 22.5183125,36.8909375 22.07125,36.12025 C20.824625,33.9641875 20.165875,31.51 20.165875,29.022875 C20.165875,21.1906875 26.5401875,14.8185 34.3755625,14.8185 C35.7493125,14.8185 36.8676875,15.9405 36.8676875,17.319375 C36.8676875,18.6988125 35.7463125,19.82075 34.3678125,19.82075 C29.2933125,19.82075 25.166125,23.949 25.166125,29.022875 C25.166125,30.63375 25.59275,32.2230625 26.4005625,33.620375 C26.61775,33.9955 26.7319375,34.4270625 26.7319375,34.868625 C26.7319375,36.24825 25.6099375,37.37075 24.230375,37.37075 Z M43.534,43.89275 C43.096375,43.89275 42.6625,43.7766875 42.279125,43.55475 C41.0845625,42.865 40.6729375,41.3333125 41.36325,40.1393125 C43.898625,35.744875 42.38825,30.1063125 37.994625,27.5690625 C36.6023125,26.765375 35.0149375,26.3404375 33.40375,26.3404375 C32.96275,26.3404375 32.5319375,26.2236875 32.148,26.0024375 C30.9543125,25.312375 30.544625,23.7794375 31.2335625,22.5850625 C31.675125,21.8198125 32.504,21.342875 33.396,21.3409375 C35.8898125,21.3409375 38.3420625,21.9975 40.4945,23.2400625 C43.778375,25.1363125 46.128375,28.200125 47.1104375,31.867625 C48.09225,35.5340625 47.588,39.3628125 45.6909375,42.648375 C45.24825,43.416 44.4205,43.89275 43.534,43.89275 Z M28.253875,45.6396875 C23.18375,45.6396875 18.462125,42.9159375 15.932875,38.5323125 C15.2453125,37.3425 15.658625,35.8135625 16.852625,35.124875 C18.01225,34.4553125 19.6070625,34.89025 20.2683125,36.03825 C21.9083125,38.8771875 24.965,40.6405 28.246125,40.6405 C29.8511875,40.6405 31.4399375,40.2135625 32.8380625,39.406625 C34.234,38.6015625 35.3966875,37.436375 36.202875,36.037125 C36.4205625,35.6620625 36.7369375,35.347625 37.11925,35.1276875 C38.276375,34.45725 39.872,34.894125 40.5355,36.0429375 C40.9781875,36.80975 40.976,37.7663125 40.5310625,38.538125 C39.2883125,40.6941875 37.49325,42.4918125 35.3390625,43.7356875 C33.181625,44.9811875 30.731875,45.6396875 28.253875,45.6396875 Z" id="Combined-Shape" fill="#FFFFFF"></path>
            </g>
        </g>
    </g>
</svg>