<svg fill="none" height="53" viewBox="0 0 79 53" width="79" xmlns="http://www.w3.org/2000/svg"><g fill="#fff"><path d="m3.59659 12h2.07955l2.33522-8.16478h.09091l2.32953 8.16478h2.0796l3.2841-11.636368h-2.2671l-2.0966 8.556818h-.1023l-2.24427-8.556818h-2.0625l-2.23864 8.551138h-.10795l-2.09659-8.551138h-2.26705z"/><path d="m19.223 6.88636c0-1.26136.7841-1.98864 1.8864-1.98864 1.0795 0 1.7159.6875 1.7159 1.86364v5.23864h2.0568v-5.55682c0-2.10796-1.1932-3.28409-3.0057-3.28409-1.3409 0-2.1932.60795-2.5966 1.59659h-.1022v-4.392048h-2.0114v11.636368h2.0568z"/><path d="m30.8423 12.1705c2.0341 0 3.4318-.9944 3.7955-2.51141l-1.9205-.21591c-.2784.73862-.9602 1.12502-1.8466 1.12502-1.3295 0-2.2102-.87502-2.2272-2.36934h6.0795v-.63068c0-3.0625-1.8409-4.40909-3.9886-4.40909-2.5 0-4.1307 1.83522-4.1307 4.52841 0 2.7386 1.6079 4.483 4.2386 4.483zm-2.1932-5.358c.0625-1.11364.8864-2.05114 2.1137-2.05114 1.1818 0 1.9773.86364 1.9886 2.05114z"/><path d="m36.4631 12h2.0568v-5.13069c0-1.10227.8295-1.88068 1.9034-1.88068.3352 0 .5909.07955.8125.18182l.6364-1.70454c-.3069-.19319-.6989-.31819-1.1705-.31819-1.0057 0-1.8352.56818-2.1534 1.57955h-.0909v-1.45455h-1.9943z"/><path d="m46.5923 12.1705c2.0341 0 3.4318-.9944 3.7955-2.51141l-1.9205-.21591c-.2784.73862-.9602 1.12502-1.8466 1.12502-1.3295 0-2.2102-.87502-2.2272-2.36934h6.0795v-.63068c0-3.0625-1.8409-4.40909-3.9886-4.40909-2.5 0-4.1307 1.83522-4.1307 4.52841 0 2.7386 1.6079 4.483 4.2386 4.483zm-2.1932-5.358c.0625-1.11364.8864-2.05114 2.1137-2.05114 1.1818 0 1.9773.86364 1.9886 2.05114z"/><path d="m1.05682 35.2727h2.05682v-4.6477h.08522c.32387.6364 1 1.5284 2.5 1.5284 2.05682 0 3.59659-1.6307 3.59659-4.5057 0-2.9091-1.58522-4.4886-3.60227-4.4886-1.53977 0-2.18182.9261-2.49432 1.5568h-.11931v-1.4432h-2.02273zm2.01704-7.6363c0-1.6932.72728-2.7898 2.05114-2.7898 1.36932 0 2.07386 1.1648 2.07386 2.7898 0 1.6363-.71591 2.8295-2.07386 2.8295-1.3125 0-2.05114-1.1364-2.05114-2.8295z"/><path d="m13.5682 32.1761c1.3693 0 2.1875-.642 2.5625-1.375h.0682v1.1989h1.9772v-5.8409c0-2.3068-1.8806-3-3.5454-3-1.8352 0-3.2443.8182-3.6989 2.4091l1.9205.2727c.2045-.5966.7841-1.1079 1.7897-1.1079.9546 0 1.4773.4886 1.4773 1.3465v.0341c0 .5909-.6193.6194-2.1591.7841-1.6932.1818-3.3125.6875-3.3125 2.6534 0 1.7159 1.2557 2.625 2.9205 2.625zm.5341-1.5113c-.858 0-1.4716-.3921-1.4716-1.1478 0-.7897.6875-1.1193 1.6079-1.25.5398-.0738 1.6194-.2102 1.8864-.4261v1.0284c0 .9716-.7841 1.7955-2.0227 1.7955z"/><path d="m24.6023 23.2727h-1.7216v-2.0909h-2.0568v2.0909h-1.2387v1.5909h1.2387v4.8523c-.0114 1.642 1.1818 2.4489 2.7272 2.4034.5853-.017.9887-.1307 1.2103-.2045l-.3466-1.608c-.1137.0284-.3466.0796-.6023.0796-.517 0-.9318-.1819-.9318-1.0114v-4.5114h1.7216z"/><path d="m26.3224 32h2.0569v-8.7273h-2.0569zm1.0341-9.9659c.6534 0 1.1875-.5 1.1875-1.1136 0-.6194-.5341-1.1194-1.1875-1.1194-.6591 0-1.1931.5-1.1931 1.1194 0 .6136.534 1.1136 1.1931 1.1136z"/><path d="m34.358 32.1705c2.034 0 3.4318-.9944 3.7954-2.5114l-1.9204-.2159c-.2785.7386-.9603 1.125-1.8466 1.125-1.3296 0-2.2103-.875-2.2273-2.3693h6.0795v-.6307c0-3.0625-1.8409-4.4091-3.9886-4.4091-2.5 0-4.1307 1.8352-4.1307 4.5284 0 2.7386 1.608 4.483 4.2387 4.483zm-2.1932-5.358c.0625-1.1136.8863-2.0511 2.1136-2.0511 1.1818 0 1.9773.8636 1.9886 2.0511z"/><path d="m42.0355 26.8864c0-1.2614.7614-1.9887 1.8466-1.9887 1.0625 0 1.6989.6989 1.6989 1.8637v5.2386h2.0568v-5.5568c.0057-2.0909-1.1875-3.2841-2.9887-3.2841-1.3068 0-2.2045.625-2.6022 1.5966h-.1023v-1.483h-1.9659v8.7273h2.0568z"/><path d="m54.0866 23.2727h-1.7215v-2.0909h-2.0569v2.0909h-1.2386v1.5909h1.2386v4.8523c-.0113 1.642 1.1819 2.4489 2.7273 2.4034.5852-.017.9886-.1307 1.2102-.2045l-.3466-1.608c-.1136.0284-.3465.0796-.6022.0796-.5171 0-.9318-.1819-.9318-1.0114v-4.5114h1.7215z"/><path d="m62.5795 25.5795c-.284-1.4772-1.4659-2.4204-3.5113-2.4204-2.1023 0-3.5341 1.0341-3.5284 2.6477-.0057 1.2727.7784 2.1136 2.4545 2.4602l1.4887.3125c.8011.1762 1.1761.5 1.1761.9944 0 .5966-.6477 1.0454-1.625 1.0454-.9432 0-1.5568-.4091-1.733-1.1932l-2.0056.1932c.2556 1.6023 1.6022 2.5512 3.7443 2.5512 2.1818 0 3.7216-1.1307 3.7272-2.7841-.0056-1.2444-.8068-2.0057-2.4545-2.3637l-1.4886-.3182c-.8864-.1988-1.2387-.5056-1.233-1.0113-.0057-.5909.6477-1 1.5057-1 .9489 0 1.4489.517 1.6079 1.0909z"/><path d="m4.86364 52.1705c2.19318 0 3.59091-1.3012 3.73863-3.1535h-1.96591c-.17613.9375-.85227 1.4773-1.75568 1.4773-1.28409 0-2.11363-1.0738-2.11363-2.8579 0-1.7614.84659-2.8182 2.11363-2.8182.98864 0 1.59659.6363 1.75568 1.4773h1.96591c-.14204-1.8921-1.61932-3.1364-3.75-3.1364-2.55682 0-4.170452 1.8466-4.170452 4.5114 0 2.642 1.573862 4.5 4.181822 4.5z"/><path d="m14.098 52.1705c2.5568 0 4.1818-1.8012 4.1818-4.5 0-2.7046-1.625-4.5114-4.1818-4.5114s-4.18181 1.8068-4.18181 4.5114c0 2.6988 1.62501 4.5 4.18181 4.5zm.0114-1.6478c-1.4148 0-2.108-1.2613-2.108-2.8579s.6932-2.875 2.108-2.875c1.392 0 2.0852 1.2784 2.0852 2.875s-.6932 2.8579-2.0852 2.8579z"/><path d="m20.0256 52h2.0568v-5.3068c0-1.0739.7159-1.8012 1.6023-1.8012.8693 0 1.4659.5853 1.4659 1.483v5.625h2.017v-5.4432c0-.9829.5852-1.6648 1.5796-1.6648.8295 0 1.4886.4887 1.4886 1.5682v5.5398h2.0625v-5.858c0-1.9488-1.125-2.9829-2.7273-2.9829-1.267 0-2.2329.625-2.6193 1.5966h-.0909c-.3352-.9887-1.1818-1.5966-2.358-1.5966-1.1704 0-2.0454.6023-2.409 1.5966h-.1023v-1.483h-1.9659z"/><path d="m38.2486 52.1705c2.0341 0 3.4318-.9944 3.7954-2.5114l-1.9204-.2159c-.2784.7386-.9602 1.125-1.8466 1.125-1.3296 0-2.2102-.875-2.2273-2.3693h6.0796v-.6307c0-3.0625-1.8409-4.4091-3.9887-4.4091-2.5 0-4.1307 1.8352-4.1307 4.5284 0 2.7386 1.608 4.483 4.2387 4.483zm-2.1932-5.358c.0625-1.1136.8864-2.0511 2.1136-2.0511 1.1819 0 1.9773.8636 1.9887 2.0511z"/><path d="m52.3153 43.2727h-1.8125v-.6875c0-.6818.2841-1.0625 1.0512-1.0625.3238 0 .5966.0739.767.125l.4148-1.5909c-.2671-.0909-.8523-.2386-1.5625-.2386-1.5171 0-2.7273.8693-2.7273 2.6307v.8238h-1.2898v1.5909h1.2898v7.1364h2.0568v-7.1364h1.8125z"/><path d="m53.9318 52h2.0568v-8.7273h-2.0568zm1.0341-9.9659c.6534 0 1.1875-.5 1.1875-1.1136 0-.6194-.5341-1.1194-1.1875-1.1194-.6591 0-1.1932.5-1.1932 1.1194 0 .6136.5341 1.1136 1.1932 1.1136z"/><path d="m58.1037 52h2.0568v-5.1307c0-1.1023.8296-1.8807 1.9034-1.8807.3352 0 .5909.0796.8125.1819l.6364-1.7046c-.3068-.1932-.6989-.3182-1.1705-.3182-1.0057 0-1.8352.5682-2.1534 1.5796h-.0909v-1.4546h-1.9943z"/><path d="m71.6264 45.5795c-.2841-1.4772-1.4659-2.4204-3.5113-2.4204-2.1023 0-3.5341 1.0341-3.5285 2.6477-.0056 1.2727.7785 2.1136 2.4546 2.4602l1.4886.3125c.8012.1762 1.1762.5 1.1762.9944 0 .5966-.6478 1.0454-1.625 1.0454-.9432 0-1.5568-.4091-1.733-1.1932l-2.0057.1932c.2557 1.6023 1.6023 2.5512 3.7443 2.5512 2.1819 0 3.7216-1.1307 3.7273-2.7841-.0057-1.2444-.8068-2.0057-2.4545-2.3637l-1.4887-.3182c-.8863-.1988-1.2386-.5056-1.2329-1.0113-.0057-.5909.6477-1 1.5057-1 .9488 0 1.4488.517 1.6079 1.0909z"/><path d="m77.8679 43.2727h-1.7216v-2.0909h-2.0568v2.0909h-1.2386v1.5909h1.2386v4.8523c-.0114 1.642 1.1818 2.4489 2.7273 2.4034.5852-.017.9886-.1307 1.2102-.2045l-.3466-1.608c-.1136.0284-.3466.0796-.6023.0796-.517 0-.9318-.1819-.9318-1.0114v-4.5114h1.7216z"/></g></svg>