<svg fill="none" height="56" viewBox="0 0 98 56" width="98" xmlns="http://www.w3.org/2000/svg"><g fill="#ed188f"><path d="m11.5454 6.18182c0-3.76137-2.29542-5.977276-5.34656-5.977276-3.05682 0-5.346589 2.215906-5.346589 5.977276 0 3.75568 2.289769 5.97728 5.346589 5.97728 3.05114 0 5.34656-2.21592 5.34656-5.97728zm-2.11928 0c0 2.64772-1.32955 4.08518-3.22728 4.08518-1.89204 0-3.22727-1.43746-3.22727-4.08518 0-2.64773 1.33523-4.08523 3.22727-4.08523 1.89773 0 3.22728 1.4375 3.22728 4.08523z"/><path d="m19.0099 8.32954c0 1.32955-.9488 1.98866-1.8579 1.98866-.9887 0-1.6478-.69888-1.6478-1.80684v-5.23863h-2.0568v5.55681c0 2.09656 1.1932 3.28406 2.9091 3.28406 1.3068 0 2.2273-.6875 2.625-1.6647h.0909v1.5511h1.9943v-8.72727h-2.0568z"/><path d="m23.1818 12h2.0568v-5.13068c0-1.10228.8296-1.88068 1.9034-1.88068.3353 0 .5909.07954.8125.18181l.6364-1.70454c-.3068-.19318-.6989-.31818-1.1705-.31818-1.0057 0-1.8352.56818-2.1534 1.57954h-.0909v-1.45454h-1.9943z"/><path d="m4.86361 32.1705c2.19319 0 3.59091-1.3012 3.73864-3.1535h-1.96591c-.17613.9375-.85227 1.4773-1.75568 1.4773-1.28409 0-2.11364-1.0738-2.11364-2.8579 0-1.7614.84659-2.8182 2.11364-2.8182.98864 0 1.59659.6363 1.75568 1.4773h1.96591c-.14204-1.8921-1.61932-3.1364-3.75-3.1364-2.55682 0-4.170454 1.8466-4.170454 4.5114 0 2.642 1.573864 4.5 4.181814 4.5z"/><path d="m14.098 32.1705c2.5568 0 4.1818-1.8012 4.1818-4.5 0-2.7046-1.625-4.5114-4.1818-4.5114s-4.18183 1.8068-4.18183 4.5114c0 2.6988 1.62503 4.5 4.18183 4.5zm.0114-1.6478c-1.4148 0-2.108-1.2613-2.108-2.8579s.6932-2.875 2.108-2.875c1.392 0 2.0852 1.2784 2.0852 2.875s-.6932 2.8579-2.0852 2.8579z"/><path d="m20.0255 32h2.0569v-5.3068c0-1.0739.7159-1.8012 1.6022-1.8012.8694 0 1.4659.5853 1.4659 1.483v5.625h2.0171v-5.4432c0-.9829.5852-1.6648 1.5795-1.6648.8296 0 1.4887.4887 1.4887 1.5682v5.5398h2.0625v-5.858c0-1.9488-1.125-2.9829-2.7273-2.9829-1.267 0-2.233.625-2.6193 1.5966h-.0909c-.3353-.9887-1.1818-1.5966-2.358-1.5966-1.1704 0-2.0454.6023-2.4091 1.5966h-.1022v-1.483h-1.966z"/><path d="m34.3849 32h2.0568v-5.3068c0-1.0739.7159-1.8012 1.6023-1.8012.8693 0 1.4659.5853 1.4659 1.483v5.625h2.0171v-5.4432c0-.9829.5852-1.6648 1.5795-1.6648.8296 0 1.4886.4887 1.4886 1.5682v5.5398h2.0625v-5.858c0-1.9488-1.125-2.9829-2.7272-2.9829-1.2671 0-2.233.625-2.6193 1.5966h-.091c-.3352-.9887-1.1818-1.5966-2.3579-1.5966-1.1705 0-2.0455.6023-2.4091 1.5966h-.1023v-1.483h-1.9659z"/><path d="m48.7443 32h2.0568v-8.7273h-2.0568zm1.0341-9.9659c.6534 0 1.1875-.5 1.1875-1.1136 0-.6194-.5341-1.1194-1.1875-1.1194-.6591 0-1.1932.5-1.1932 1.1194 0 .6136.5341 1.1136 1.1932 1.1136z"/><path d="m57.2741 23.2727h-1.7216v-2.0909h-2.0568v2.0909h-1.2386v1.5909h1.2386v4.8523c-.0113 1.6421 1.1818 2.4489 2.7273 2.4034.5852-.017.9886-.1307 1.2102-.2045l-.3466-1.608c-.1136.0284-.3466.0796-.6022.0796-.5171 0-.9319-.1819-.9319-1.0114v-4.5114h1.7216z"/><path d="m58.9943 32h2.0568v-5.3068c0-1.0739.7159-1.8012 1.6023-1.8012.8693 0 1.4659.5853 1.4659 1.483v5.625h2.017v-5.4432c0-.9829.5853-1.6648 1.5796-1.6648.8295 0 1.4886.4887 1.4886 1.5682v5.5398h2.0625v-5.858c0-1.9488-1.125-2.9829-2.7273-2.9829-1.267 0-2.2329.625-2.6193 1.5966h-.0909c-.3352-.9887-1.1818-1.5966-2.3579-1.5966-1.1705 0-2.0455.6023-2.4091 1.5966h-.1023v-1.483h-1.9659z"/><path d="m77.2173 32.1705c2.0341 0 3.4318-.9944 3.7955-2.5114l-1.9205-.2159c-.2784.7386-.9602 1.125-1.8466 1.125-1.3295 0-2.2102-.875-2.2273-2.3693h6.0796v-.6307c0-3.0625-1.8409-4.4091-3.9886-4.4091-2.5 0-4.1307 1.8352-4.1307 4.5284 0 2.7386 1.6079 4.483 4.2386 4.483zm-2.1932-5.358c.0625-1.1136.8864-2.0511 2.1137-2.0511 1.1818 0 1.9772.8636 1.9886 2.0511z"/><path d="m84.8949 26.8864c0-1.2614.7613-1.9887 1.8466-1.9887 1.0625 0 1.6988.6989 1.6988 1.8637v5.2386h2.0568v-5.5568c.0057-2.0909-1.1875-3.2841-2.9886-3.2841-1.3068 0-2.2045.625-2.6023 1.5966h-.1022v-1.483h-1.966v8.7273h2.0569z"/><path d="m96.946 23.2727h-1.7216v-2.0909h-2.0568v2.0909h-1.2386v1.5909h1.2386v4.8523c-.0114 1.6421 1.1818 2.4489 2.7273 2.4034.5852-.017.9886-.1307 1.2102-.2045l-.3466-1.608c-.1136.0284-.3466.0796-.6023.0796-.517 0-.9318-.1819-.9318-1.0114v-4.5114h1.7216z"/><path d="m5.41475 43.2727h-1.72159v-2.0909h-2.05682v2.0909h-1.238635v1.5909h1.238635v4.8523c-.01136 1.6421 1.18182 2.4489 2.72727 2.4034.58523-.017.98864-.1307 1.21023-.2045l-.34659-1.608c-.11364.0284-.34659.0796-.60227.0796-.51705 0-.93182-.1819-.93182-1.0114v-4.5114h1.72159z"/><path d="m10.848 52.1705c2.5568 0 4.1818-1.8012 4.1818-4.5 0-2.7046-1.625-4.5114-4.1818-4.5114-2.55683 0-4.18183 1.8068-4.18183 4.5114 0 2.6988 1.625 4.5 4.18183 4.5zm.0114-1.6478c-1.41482 0-2.108-1.2613-2.108-2.8579s.69318-2.875 2.108-2.875c1.392 0 2.0852 1.2784 2.0852 2.875s-.6932 2.8579-2.0852 2.8579z"/><path d="m21.9488 55.3977c1.591 0 2.5796-.8863 3.0682-2.2613l3.5227-9.8637h-2.1875l-2.017 6.5909h-.0909l-2.0114-6.5909h-2.1818l3.1648 8.9091-.2046.5568c-.3863.9603-.9829 1.0398-1.8806.7784l-.4773 1.6478c.2329.0966.6932.2329 1.2954.2329z"/><path d="m33.473 52.1705c2.5568 0 4.1818-1.8012 4.1818-4.5 0-2.7046-1.625-4.5114-4.1818-4.5114s-4.1818 1.8068-4.1818 4.5114c0 2.6988 1.625 4.5 4.1818 4.5zm.0114-1.6478c-1.4148 0-2.108-1.2613-2.108-2.8579s.6932-2.875 2.108-2.875c1.392 0 2.0852 1.2784 2.0852 2.875s-.6932 2.8579-2.0852 2.8579z"/><path d="m44.963 48.3295c0 1.3296-.9488 1.9887-1.8579 1.9887-.9886 0-1.6477-.6989-1.6477-1.8068v-5.2387h-2.0569v5.5568c0 2.0966 1.1932 3.2841 2.9091 3.2841 1.3069 0 2.2273-.6875 2.625-1.6647h.0909v1.5511h1.9944v-8.7273h-2.0569z"/></g></svg>