<svg fill="none" height="34" viewBox="0 0 80 34" width="80" xmlns="http://www.w3.org/2000/svg"><g fill="#fff"><path d="m11.108 5.28977c-.358-2.58523-2.34661-4.08523-4.92616-4.08523-3.03977 0-5.329545 2.21591-5.329545 5.97727 0 3.75569 2.261365 5.97729 5.329545 5.97729 2.76705 0 4.60226-1.7898 4.92616-4.01138l-2.12502-.01136c-.26705 1.36364-1.38068 2.13064-2.77273 2.13064-1.88636 0-3.23864-1.41473-3.23864-4.08519 0-2.625 1.34091-4.08522 3.24432-4.08522 1.41477 0 2.52273.80113 2.76705 2.19318z"/><path d="m15.4588 13.1761c1.3693 0 2.1875-.642 2.5625-1.375h.0682v1.1989h1.9773v-5.84091c0-2.30682-1.8807-3-3.5455-3-1.8352 0-3.2443.81818-3.6988 2.40909l1.9204.27273c.2046-.5966.7841-1.10796 1.7898-1.10796.9545 0 1.4773.48864 1.4773 1.34659v.03409c0 .59091-.6194.61932-2.1591.78409-1.6932.18182-3.3125.6875-3.3125 2.65338 0 1.7159 1.2557 2.625 2.9204 2.625zm.5341-1.5113c-.8579 0-1.4716-.3921-1.4716-1.1478 0-.78973.6875-1.11928 1.608-1.24996.5398-.07386 1.6193-.21023 1.8863-.42613v1.0284c0 .97159-.784 1.79549-2.0227 1.79549z"/><path d="m24.1918 7.88636c0-1.26136.7613-1.98864 1.8466-1.98864 1.0625 0 1.6988.69887 1.6988 1.86364v5.23864h2.0569v-5.55682c.0056-2.09091-1.1875-3.28409-2.9887-3.28409-1.3068 0-2.2045.625-2.6023 1.59659h-.1022v-1.48296h-1.9659v8.72728h2.0568z"/><path d="m35.8537 13h2.0568v-8.72728h-2.0568zm1.0341-9.96591c.6534 0 1.1875-.5 1.1875-1.11364 0-.61932-.5341-1.119318-1.1875-1.119318-.6591 0-1.1932.499998-1.1932 1.119318 0 .61364.5341 1.11364 1.1932 1.11364z"/><path d="m44.3835 4.27272h-1.7215v-2.09091h-2.0569v2.09091h-1.2386v1.59091h1.2386v4.85227c-.0113 1.6421 1.1819 2.4489 2.7273 2.4034.5852-.017.9886-.1307 1.2102-.2045l-.3466-1.608c-.1136.0284-.3465.0796-.6022.0796-.5171 0-.9318-.1819-.9318-1.0114v-4.51137h1.7215z"/><path d="m1.14775 33h2.02273v-1.375h.11931c.32387.6364 1 1.5284 2.5 1.5284 2.05682 0 3.5966-1.6307 3.5966-4.5057 0-2.9091-1.58523-4.4886-3.60228-4.4886-1.53977 0-2.18182.9261-2.49432 1.5568h-.08522v-4.3523h-2.05682zm2.01704-4.3636c0-1.6932.72728-2.7898 2.05114-2.7898 1.36932 0 2.07386 1.1648 2.07386 2.7898 0 1.6363-.7159 2.8295-2.07386 2.8295-1.3125 0-2.05114-1.1364-2.05114-2.8295z"/><path d="m14.9986 33.1705c2.0341 0 3.4318-.9944 3.7955-2.5114l-1.9205-.2159c-.2784.7386-.9602 1.125-1.8466 1.125-1.3295 0-2.2102-.875-2.2273-2.3693h6.0796v-.6307c0-3.0625-1.8409-4.4091-3.9887-4.4091-2.5 0-4.1306 1.8352-4.1306 4.5284 0 2.7386 1.6079 4.483 4.2386 4.483zm-2.1932-5.358c.0625-1.1136.8864-2.0511 2.1137-2.0511 1.1818 0 1.9772.8636 1.9886 2.0511z"/><path d="m24.679 33h2.0227v-1.375h.1193c.3239.6364 1 1.5284 2.5 1.5284 2.0569 0 3.5966-1.6307 3.5966-4.5057 0-2.9091-1.5852-4.4886-3.6022-4.4886-1.5398 0-2.1819.9261-2.4944 1.5568h-.0852v-4.3523h-2.0568zm2.017-4.3636c0-1.6932.7273-2.7898 2.0512-2.7898 1.3693 0 2.0738 1.1648 2.0738 2.7898 0 1.6363-.7159 2.8295-2.0738 2.8295-1.3125 0-2.0512-1.1364-2.0512-2.8295z"/><path d="m38.5299 33.1705c2.034 0 3.4318-.9944 3.7954-2.5114l-1.9204-.2159c-.2785.7386-.9603 1.125-1.8466 1.125-1.3296 0-2.2103-.875-2.2273-2.3693h6.0795v-.6307c0-3.0625-1.8409-4.4091-3.9886-4.4091-2.5 0-4.1307 1.8352-4.1307 4.5284 0 2.7386 1.608 4.483 4.2387 4.483zm-2.1932-5.358c.0625-1.1136.8863-2.0511 2.1136-2.0511 1.1818 0 1.9773.8636 1.9886 2.0511z"/><path d="m48.5085 24.2727h-1.7215v-2.0909h-2.0569v2.0909h-1.2386v1.5909h1.2386v4.8523c-.0113 1.642 1.1819 2.4489 2.7273 2.4034.5852-.017.9886-.1307 1.2102-.2045l-.3466-1.608c-.1136.0284-.3465.0796-.6022.0796-.5171 0-.9318-.1819-.9318-1.0114v-4.5114h1.7215z"/><path d="m54.5867 24.2727h-1.7216v-2.0909h-2.0568v2.0909h-1.2387v1.5909h1.2387v4.8523c-.0114 1.642 1.1818 2.4489 2.7272 2.4034.5853-.017.9887-.1307 1.2103-.2045l-.3466-1.608c-.1137.0284-.3466.0796-.6023.0796-.517 0-.9318-.1819-.9318-1.0114v-4.5114h1.7216z"/><path d="m60.0767 33.1705c2.0341 0 3.4318-.9944 3.7955-2.5114l-1.9205-.2159c-.2784.7386-.9602 1.125-1.8466 1.125-1.3295 0-2.2102-.875-2.2272-2.3693h6.0795v-.6307c0-3.0625-1.8409-4.4091-3.9886-4.4091-2.5 0-4.1307 1.8352-4.1307 4.5284 0 2.7386 1.6079 4.483 4.2386 4.483zm-2.1932-5.358c.0625-1.1136.8864-2.0511 2.1137-2.0511 1.1818 0 1.9773.8636 1.9886 2.0511z"/><path d="m65.6975 33h2.0568v-5.1307c0-1.1023.8295-1.8807 1.9034-1.8807.3352 0 .5909.0796.8125.1819l.6364-1.7046c-.3069-.1932-.6989-.3182-1.1705-.3182-1.0057 0-1.8352.5682-2.1534 1.5796h-.0909v-1.4546h-1.9943z"/><path d="m74.2884 29.5795h1.892v-.1477c.0114-1.2045.4034-1.7557 1.3296-2.3238 1.0454-.625 1.6988-1.4773 1.6988-2.7785 0-1.9204-1.4943-3.125-3.6647-3.125-1.9887 0-3.6023 1.1023-3.6591 3.2614h2.0227c.0511-1.0682.8239-1.5795 1.625-1.5795.8693 0 1.5682.5795 1.5682 1.4716 0 .7954-.5284 1.3409-1.2159 1.7727-1.0057.625-1.5853 1.2557-1.5966 3.3011zm.9943 3.5455c.6704 0 1.2443-.5568 1.25-1.25-.0057-.6818-.5796-1.2386-1.25-1.2386-.6932 0-1.2557.5568-1.25 1.2386-.0057.6932.5568 1.25 1.25 1.25z"/></g></svg>