<svg fill="none" height="32" viewBox="0 0 32 32" width="32" xmlns="http://www.w3.org/2000/svg"><path d="m0 0h32v32h-32z" fill="#fff"/><g fill="#1d253f"><path d="m8.23986 19.096c-.42133 0-.81333-.0747-1.176-.224s-.68-.3573-.952-.624c-.26667-.2667-.47733-.576-.632-.928-.14933-.3573-.224-.7413-.224-1.152 0-.416.07467-.8.224-1.152s.35733-.6587.624-.92c.272-.2667.58667-.472.944-.616.36267-.1493.75467-.224 1.176-.224.42667 0 .81867.0747 1.176.224.36267.144.67734.3493.94404.616.272.2613.4826.5707.632.928.1493.352.224.736.224 1.152 0 .4107-.0747.7947-.224 1.152-.1494.352-.36.6613-.632.928-.2667.2613-.57871.4667-.93604.616s-.74667.224-1.168.224zm-.016-1.144c.34133 0 .63733-.0747.888-.224s.44533-.3573.584-.624c.144-.272.216-.584.216-.936 0-.2667-.04-.5067-.12-.72-.08-.2187-.19467-.4053-.344-.56-.14933-.16-.328-.28-.536-.36-.20267-.0853-.432-.128-.688-.128-.336 0-.62933.0747-.88.224-.25067.144-.448.3493-.592.616-.13867.2613-.208.5707-.208.928 0 .2667.04.5093.12.728s.19467.408.344.568c.14933.1547.32533.2747.528.36.208.0853.43733.128.688.128zm2.53604 1.496-2.64004-2.64.728-.728 2.64004 2.64z"/><path d="m13.1054 16.944v-.976h1.216c.1547 0 .296-.032.424-.096s.2294-.1573.304-.28c.0747-.1227.112-.272.112-.448 0-.1707-.0373-.3173-.112-.44-.0746-.1227-.176-.216-.304-.28s-.2693-.096-.424-.096h-1.216v-.976h1.4c.3574 0 .68.072.968.216s.5147.352.68.624c.1707.2667.256.584.256.952s-.0853.688-.256.96c-.1653.2667-.392.4747-.68.624-.288.144-.6106.216-.968.216zm-.96 2.056v-5.648h1.256v5.648z"/><path d="m17.1142 19v-5.648h1.256v5.648zm3.496 0v-5.648h1.264v5.648zm-2.744-2.36v-1.088h3.16v1.088z"/><path d="m22.9579 19v-5.648h1.256v5.648zm.968 0v-1.104h2.792v1.104z"/></g></svg>