<svg fill="none" height="53" viewBox="0 0 58 53" width="58" xmlns="http://www.w3.org/2000/svg"><g fill="#eeb620"><path d="m2.25563.363636h-2.107958v11.636364h2.107958z"/><path d="m11.3451 5.57955c-.2841-1.47728-1.46589-2.42046-3.51135-2.42046-2.10227 0-3.53409 1.03409-3.52841 2.64773-.00568 1.27273.77841 2.11363 2.45455 2.46023l1.48863.3125c.80114.17613 1.17614.5 1.17614.99431 0 .59664-.64773 1.04544-1.625 1.04544-.94318 0-1.55682-.4091-1.73295-1.19316l-2.00569.19318c.25569 1.60228 1.60228 2.55118 3.74432 2.55118 2.18182 0 3.72156-1.1307 3.72726-2.78414-.0057-1.24431-.8068-2.00568-2.45453-2.36363l-1.48864-.31818c-.88636-.19887-1.23863-.50569-1.23295-1.01137-.00568-.59091.64773-1 1.50568-1 .94886 0 1.44886.51705 1.60796 1.09091z"/><path d="m21.5553 3.27273h-1.7215v-2.09091h-2.0569v2.09091h-1.2386v1.59091h1.2386v4.85227c-.0113 1.64209 1.1819 2.44889 2.7273 2.40339.5852-.017.9886-.1307 1.2102-.2045l-.3466-1.608c-.1136.0284-.3465.0796-.6022.0796-.5171 0-.9318-.1819-.9318-1.0114v-4.51136h1.7215z"/><path d="m25.5198 6.88636c0-1.26136.7841-1.98863 1.8864-1.98863 1.0795 0 1.7159.6875 1.7159 1.86363v5.23864h2.0568v-5.55682c0-2.10795-1.1932-3.28409-3.0057-3.28409-1.3409 0-2.1931.60796-2.5966 1.59659h-.1022v-4.392044h-2.0114v11.636364h2.0568z"/><path d="m37.1391 12.1705c2.0341 0 3.4319-.9944 3.7955-2.51141l-1.9205-.21591c-.2784.73862-.9602 1.12502-1.8465 1.12502-1.3296 0-2.2103-.87502-2.2273-2.36934h6.0795v-.63068c0-3.0625-1.8409-4.40909-3.9886-4.40909-2.5 0-4.1307 1.83523-4.1307 4.52841 0 2.7386 1.608 4.483 4.2386 4.483zm-2.1931-5.358c.0625-1.11364.8863-2.05114 2.1136-2.05114 1.1818 0 1.9773.86364 1.9886 2.05114z"/><path d="m42.7599 12h2.0568v-5.13068c0-1.10227.8295-1.88068 1.9034-1.88068.3352 0 .5909.07954.8125.18181l.6364-1.70454c-.3068-.19318-.6989-.31818-1.1705-.31818-1.0057 0-1.8352.56818-2.1534 1.57954h-.0909v-1.45454h-1.9943z"/><path d="m52.8891 12.1705c2.0341 0 3.4319-.9944 3.7955-2.51141l-1.9205-.21591c-.2784.73862-.9602 1.12502-1.8465 1.12502-1.3296 0-2.2103-.87502-2.2273-2.36934h6.0795v-.63068c0-3.0625-1.8409-4.40909-3.9886-4.40909-2.5 0-4.1307 1.83523-4.1307 4.52841 0 2.7386 1.608 4.483 4.2386 4.483zm-2.1931-5.358c.0625-1.11364.8863-2.05114 2.1136-2.05114 1.1818 0 1.9773.86364 1.9886 2.05114z"/><path d="m.0567627 32h2.0568173v-5.3068c0-1.0739.71591-1.8012 1.60227-1.8012.86932 0 1.46591.5853 1.46591 1.483v5.625h2.01705v-5.4432c0-.9829.58523-1.6648 1.57954-1.6648.82955 0 1.48865.4887 1.48865 1.5682v5.5398h2.0625v-5.858c0-1.9488-1.125-2.9829-2.72728-2.9829-1.26705 0-2.23296.625-2.61932 1.5966h-.09091c-.33523-.9887-1.18182-1.5966-2.35795-1.5966-1.17046 0-2.04546.6023-2.4091 1.5966h-.10227v-1.483h-1.9659073z"/><path d="m18.223 32.1705c2.5568 0 4.1818-1.8012 4.1818-4.5 0-2.7046-1.625-4.5114-4.1818-4.5114-2.5569 0-4.1819 1.8068-4.1819 4.5114 0 2.6988 1.625 4.5 4.1819 4.5zm.0113-1.6478c-1.4148 0-2.1079-1.2613-2.1079-2.8579s.6931-2.875 2.1079-2.875c1.3921 0 2.0852 1.2784 2.0852 2.875s-.6931 2.8579-2.0852 2.8579z"/><path d="m24.1505 32h2.0568v-5.1307c0-1.1023.8296-1.8807 1.9034-1.8807.3353 0 .5909.0796.8125.1819l.6364-1.7046c-.3068-.1932-.6989-.3182-1.1705-.3182-1.0056 0-1.8352.5682-2.1534 1.5796h-.0909v-1.4546h-1.9943z"/><path d="m34.2798 32.1705c2.0341 0 3.4318-.9944 3.7954-2.5114l-1.9204-.2159c-.2784.7386-.9603 1.125-1.8466 1.125-1.3296 0-2.2102-.875-2.2273-2.3693h6.0796v-.6307c0-3.0625-1.841-4.4091-3.9887-4.4091-2.5 0-4.1307 1.8352-4.1307 4.5284 0 2.7386 1.608 4.483 4.2387 4.483zm-2.1932-5.358c.0625-1.1136.8864-2.0511 2.1136-2.0511 1.1818 0 1.9773.8636 1.9887 2.0511z"/><path d="m48.2272 23.2727h-1.7216v-2.0909h-2.0568v2.0909h-1.2386v1.5909h1.2386v4.8523c-.0114 1.6421 1.1818 2.4489 2.7273 2.4034.5852-.017.9886-.1307 1.2102-.2045l-.3466-1.608c-.1136.0284-.3466.0796-.6023.0796-.517 0-.9318-.1819-.9318-1.0114v-4.5114h1.7216z"/><path d="m53.6605 32.1705c2.5568 0 4.1818-1.8012 4.1818-4.5 0-2.7046-1.625-4.5114-4.1818-4.5114-2.5569 0-4.1819 1.8068-4.1819 4.5114 0 2.6988 1.625 4.5 4.1819 4.5zm.0113-1.6478c-1.4148 0-2.1079-1.2613-2.1079-2.8579s.6931-2.875 2.1079-2.875c1.3921 0 2.0852 1.2784 2.0852 2.875s-.6931 2.8579-2.0852 2.8579z"/><path d="m2.11358 40.3636h-2.0568173v11.6364h2.0568173z"/><path d="m8.09227 52.1705c2.03413 0 3.43183-.9944 3.79543-2.5114l-1.92043-.2159c-.2784.7386-.96022 1.125-1.84659 1.125-1.32954 0-2.21022-.875-2.22727-2.3693h6.07959v-.6307c0-3.0625-1.841-4.4091-3.98868-4.4091-2.5 0-4.13068 1.8352-4.13068 4.5284 0 2.7386 1.60795 4.483 4.23863 4.483zm-2.19318-5.358c.0625-1.1136.88637-2.0511 2.11364-2.0511 1.18182 0 1.97727.8636 1.98867 2.0511z"/><path d="m16.2244 52.1761c1.3693 0 2.1875-.642 2.5625-1.375h.0682v1.1989h1.9772v-5.8409c0-2.3068-1.8807-3-3.5454-3-1.8353 0-3.2443.8182-3.6989 2.4091l1.9205.2727c.2045-.5966.7841-1.1079 1.7897-1.1079.9546 0 1.4773.4886 1.4773 1.3465v.0341c0 .5909-.6193.6194-2.1591.7841-1.6932.1818-3.3125.6875-3.3125 2.6534 0 1.7159 1.2557 2.625 2.9205 2.625zm.5341-1.5113c-.858 0-1.4716-.3921-1.4716-1.1478 0-.7897.6875-1.1193 1.6079-1.25.5398-.0738 1.6193-.2102 1.8864-.4261v1.0284c0 .9716-.7841 1.7955-2.0227 1.7955z"/><path d="m22.9005 52h2.0568v-5.1307c0-1.1079.8353-1.892 1.9659-1.892.3466 0 .7785.0625.9546.1193v-1.8921c-.1875-.034-.5114-.0568-.7387-.0568-1 0-1.8352.5682-2.1534 1.5796h-.0909v-1.4546h-1.9943z"/><path d="m31.3011 46.8864c0-1.2614.7613-1.9887 1.8466-1.9887 1.0625 0 1.6988.6989 1.6988 1.8637v5.2386h2.0569v-5.5568c.0056-2.0909-1.1875-3.2841-2.9887-3.2841-1.3068 0-2.2045.625-2.6023 1.5966h-.1022v-1.483h-1.9659v8.7273h2.0568z"/><path d="m40.9602 48.5795h1.892v-.1477c.0114-1.2045.4034-1.7557 1.3296-2.3238 1.0454-.625 1.6988-1.4773 1.6988-2.7785 0-1.9204-1.4943-3.125-3.6647-3.125-1.9887 0-3.6023 1.1023-3.6591 3.2614h2.0227c.0511-1.0682.8239-1.5795 1.625-1.5795.8693 0 1.5682.5795 1.5682 1.4716 0 .7954-.5284 1.3409-1.2159 1.7727-1.0057.625-1.5853 1.2557-1.5966 3.3011zm.9943 3.5455c.6704 0 1.2443-.5568 1.25-1.25-.0057-.6818-.5796-1.2386-1.25-1.2386-.6932 0-1.2557.5568-1.25 1.2386-.0057.6932.5568 1.25 1.25 1.25z"/></g></svg>