<svg fill="none" height="72" viewBox="0 0 44 72" width="44" xmlns="http://www.w3.org/2000/svg"><g fill="#fff"><path d="m2.99343 61.121v-2.0313h-.72549v-.4138h1.94298v.4138h-.72384v2.0313z"/><path d="m4.53113 61.121v-2.4451h.49365v.9623h.96733v-.9623h.49366v2.4451h-.49366v-1.069h-.96733v1.069z"/><path d="m6.99611 61.121v-2.4451h1.81288v.4138h-1.31922v.5418h1.22751v.4122h-1.22751v.6655h1.36594v.4118z"/><path d="m11.7943 60.5321c.0634-.0742.1109-.1645.1427-.2701.0316-.1056.0475-.2269.0475-.3635 0-.2823-.0623-.4935-.1868-.6329-.1246-.1394-.2875-.2093-.4887-.2093s-.3644.0699-.4895.2101c-.1251.1401-.1876.351-.1876.6321 0 .2858.0625.4994.1876.6411.1251.1421.2833.2128.4745.2128.0711 0 .1384-.0118.2018-.035-.1-.0655-.2018-.117-.3052-.1535l.1384-.2819c.1624.0558.3175.139.4653.2501zm.397.2788c.1211.0867.2529.1554.3953.2065l-.1819.3486c-.0744-.022-.1473-.0526-.2184-.0915-.0156-.0078-.1251-.0801-.3286-.2171-.1601.0703-.3374.1052-.532.1052-.3758 0-.6702-.1107-.8831-.3317-.2129-.2214-.3194-.532-.3194-.9324 0-.3993.1068-.7099.3202-.9313.2135-.2218.5031-.3329.8689-.3329.3625 0 .6499.1111.8623.3329.2124.2214.3186.532.3186.9313 0 .2112-.0295.3969-.0885.5571-.0444.1221-.1156.2406-.2134.3553z"/><path d="m12.8767 58.6759h.4937v1.3243c0 .21.0061.3462.0184.4087.021.1001.0714.1802.1509.241.0795.0605.1881.0907.326.0907.1401 0 .2458-.0287.3169-.0856.0711-.0573.114-.1276.1284-.2112.0145-.0832.0217-.2218.0217-.4154v-1.3525h.4937v1.2842c0 .2937-.0134.501-.0401.6223-.0266.1209-.0758.2234-.1475.3066-.0718.0836-.1676.15-.2877.1995-.1201.0494-.2769.0742-.4704.0742-.2335 0-.4105-.0271-.5311-.0809-.1207-.0538-.216-.1241-.2861-.2101-.07-.0863-.1161-.1766-.1384-.2713-.0323-.1397-.0484-.3466-.0484-.6203z"/><path d="m15.3467 61.121v-2.4451h1.8129v.4138h-1.3192v.5418h1.2275v.4122h-1.2275v.6655h1.3659v.4118z"/><path d="m17.6249 61.121v-2.4451h1.8129v.4138h-1.3192v.5418h1.2275v.4122h-1.2275v.6655h1.3659v.4118z"/><path d="m19.9081 61.121v-2.4451h.4803l1.0007 1.6328v-1.6328h.4587v2.4451h-.4954l-.9856-1.5943v1.5943z"/><path d="m22.3548 58.6826h.4686v.3353c0 .1358-.0117.2426-.035.3211-.0234.0785-.0676.1488-.1326.2108-.0651.0625-.1476.1112-.2477.1469l-.0917-.1936c.0945-.031.1618-.0738.2018-.1284.04-.0545.0612-.1287.0634-.2233h-.2268z"/><path d="m23.1937 60.3256.4803-.0467c.0289.161.0876.2795.1759.3549.0884.0758.2077.1135.3578.1135.159 0 .2787-.0334.3594-.1009.0806-.0672.1209-.1457.1209-.236 0-.0577-.017-.1068-.0509-.1476-.0339-.0404-.0931-.0758-.1775-.106-.0579-.0196-.1897-.0554-.3954-.1064-.2646-.0656-.4503-.1464-.557-.2418-.1501-.1347-.2252-.2988-.2252-.4924 0-.1244.0354-.2406.106-.349.0705-.1087.1723-.1912.3052-.2477.1328-.0569.2932-.0852.4811-.0852.3069 0 .5379.0671.693.2018s.2366.3141.2443.5386l-.4936.0216c-.0212-.1256-.0665-.2159-.1359-.2709-.0696-.0549-.1738-.0824-.3128-.0824-.1434 0-.2557.0294-.3368.0883-.0523.0377-.0784.0884-.0784.152 0 .0577.0244.1071.0733.1484.0623.0522.2135.1064.4537.1633.2401.0565.4177.1154.5328.1759.1151.0604.2052.1433.2702.2485.0651.1052.0976.2348.0976.3895 0 .1401-.0389.2712-.1168.3937-.0778.1221-.1879.2132-.3302.2725-.1423.0597-.3197.0891-.532.0891-.3091 0-.5465-.0714-.7122-.2143-.1656-.1426-.2646-.351-.2968-.6243z"/><path d="m27.715 60.1537-.3369-.9073-.3302.9073zm.909.9673h-.537l-.2135-.5555h-.9774l-.2018.5555h-.5236l.9522-2.4451h.5221z"/><path d="m29.0442 61.121-.5837-2.4451h.5053l.3686 1.6796.4469-1.6796h.5871l.4286 1.7078.3753-1.7078h.497l-.5937 2.4451h-.5237l-.487-1.8279-.4853 1.8279z"/><path d="m33.0286 60.1537-.3369-.9073-.3302.9073zm.9089.9673h-.537l-.2135-.5555h-.9773l-.2018.5555h-.5237l.9523-2.4451h.522z"/><path d="m34.6947 59.71h.3652c.2368 0 .3848-.0098.4437-.0298s.1052-.0546.1386-.1037c.0333-.0486.0498-.1099.0498-.1833 0-.0824-.022-.1488-.0659-.1994-.044-.0507-.1056-.0825-.1857-.0958-.0401-.0055-.1602-.0083-.3604-.0083h-.3853zm-.4937 1.411v-2.4451h1.0391c.2611 0 .4511.022.5697.066.1182.0439.2128.1221.2843.2344.071.1122.1067.2406.1067.3851 0 .1833-.0541.3349-.1617.4546-.108.1194-.2693.1948-.4837.2258.1068.0624.1947.1307.2642.2053s.1634.2069.2811.3969l.2984.477h-.5905l-.3568-.5319c-.1269-.1904-.2134-.3102-.2601-.3597-.0467-.0494-.0962-.0832-.1484-.1016-.0523-.0185-.1351-.0275-.2485-.0275h-.1001v1.0207z"/><path d="m37.158 59.0897v1.6195h.3687c.1378 0 .2371-.0079.2983-.0236.0801-.02.1465-.0537.1995-.1016.0526-.0479.0958-.1265.1291-.236.0334-.1095.0499-.2587.0499-.448 0-.1888-.0165-.3341-.0499-.435-.0333-.1012-.0801-.1802-.1401-.2371-.0601-.0565-.1363-.095-.2285-.115-.0687-.0153-.2038-.0232-.4052-.0232zm-.4935-.4138h.9022c.2034 0 .3584.0157.4652.0467.1433.0424.2662.1174.3687.2254.1021.1076.1802.2399.2336.3961.053.1559.0797.3487.0797.5779 0 .201-.0248.3746-.075.5202-.0613.1779-.1484.322-.2619.4319-.0856.0836-.201.1484-.3466.1951-.1092.0346-.2548.0518-.437.0518h-.9289z"/><path d="m39.0075 60.3256.4802-.0467c.029.161.0879.2795.1763.3549.0883.0758.2077.1135.3576.1135.159 0 .2788-.0334.3593-.1009.0808-.0672.1209-.1457.1209-.236 0-.0577-.0169-.1068-.0507-.1476-.0341-.0404-.0934-.0758-.1778-.106-.0577-.0196-.1896-.0554-.395-.1064-.265-.0656-.4503-.1464-.5571-.2418-.1503-.1347-.2253-.2988-.2253-.4924 0-.1244.0353-.2406.106-.349.0706-.1087.1723-.1912.305-.2477.1331-.0569.2933-.0852.4814-.0852.307 0 .5378.0671.6929.2018s.2363.3141.2442.5386l-.4935.0216c-.0212-.1256-.0664-.2159-.1358-.2709-.0695-.0549-.174-.0824-.3129-.0824-.1433 0-.2556.0294-.3369.0883-.0522.0377-.0785.0884-.0785.152 0 .0577.0247.1071.0734.1484.0624.0522.2136.1064.4538.1633.2399.0565.4178.1154.5328.1759.115.0604.2053.1433.2701.2485.0652.1052.0978.2348.0978.3895 0 .1401-.0389.2712-.117.3937-.0778.1221-.1877.2132-.3302.2725-.1421.0597-.3196.0891-.532.0891-.309 0-.5465-.0714-.7122-.2143-.1656-.1426-.2646-.351-.2968-.6243z"/><path d="m6.36901 64.733v-2.4452h1.67613v.4138h-1.18243v.5787h1.02068v.4134h-1.02068v1.0393z"/><path d="m8.86069 63.5088c0 .2768.06396.4869.19179.6294.12787.1429.29021.2143.48702.2143.19677 0 .35829-.0706.4845-.2124.1262-.1417.1893-.3545.1893-.6379 0-.2804-.0615-.4892-.1843-.627-.12289-.1382-.28605-.2069-.4895-.2069-.20349 0-.36751.0699-.49201.2092-.12453.1394-.1868.3498-.1868.6313zm-.50865.0165c0-.2489.03722-.4581.11173-.627.0556-.1244.13145-.2363.22767-.3352.09615-.099.20148-.1724.31601-.2203.15233-.0644.32798-.0966.52702-.0966.36026 0 .64853.1119.86483.3353.2162.2234.3243.5343.3243.9324 0 .3946-.1073.7036-.3219.9262-.2146.223-.5014.3345-.86055.3345-.36359 0-.65266-.1107-.86726-.3326-.21455-.2218-.32185-.5276-.32185-.9167z"/><path d="m11.6042 63.322h.3653c.2368 0 .3846-.0099.4436-.0299.0589-.02.1051-.0546.1384-.1036.0334-.0487.0501-.11.0501-.1834 0-.0824-.022-.1488-.0659-.1994-.044-.0507-.106-.0825-.186-.0958-.04-.0055-.1601-.0083-.3602-.0083h-.3853zm-.4937 1.411v-2.4452h1.0391c.2612 0 .4511.022.5695.066s.2132.1221.2844.2344c.0711.1123.1067.2406.1067.3851 0 .1834-.0539.3349-.1617.4547-.1079.1193-.2691.1947-.4837.2257.1067.0624.1948.1307.2643.2053s.1632.2069.2811.397l.2985.477h-.5904l-.3569-.532c-.1268-.1904-.2135-.3102-.2602-.3596-.0467-.0495-.0962-.0833-.1484-.1017-.0523-.0185-.1351-.0275-.2485-.0275h-.1001v1.0208z"/><path d="m14.5245 64.733v-2.4452h1.8129v.4138h-1.3192v.5418h1.2275v.4123h-1.2275v.6654h1.3659v.4119z"/><path d="m16.8077 64.733v-2.4452h.4803l1.0007 1.6329v-1.6329h.4586v2.4452h-.4953l-.9856-1.5944v1.5944z"/><path d="m19.8197 64.733v-2.0314h-.7255v-.4138h1.943v.4138h-.7238v2.0314z"/><path d="m21.3558 64.733v-2.4452h1.8128v.4138h-1.3192v.5418h1.2275v.4123h-1.2275v.6654h1.3659v.4119z"/><path d="m24.1293 63.322h.3652c.2368 0 .3847-.0099.4436-.0299.059-.02.1051-.0546.1385-.1036.0333-.0487.05-.11.05-.1834 0-.0824-.022-.1488-.0659-.1994-.0439-.0507-.1058-.0825-.1859-.0958-.04-.0055-.1601-.0083-.3602-.0083h-.3853zm-.4937 1.411v-2.4452h1.0391c.2612 0 .4511.022.5695.066s.2132.1221.2844.2344c.0711.1123.1067.2406.1067.3851 0 .1834-.0539.3349-.1618.4547-.1078.1193-.2691.1947-.4837.2257.1068.0624.1949.1307.2644.2053s.1631.2069.281.397l.2985.477h-.5904l-.3568-.532c-.1268-.1904-.2135-.3102-.2602-.3596-.0467-.0495-.0962-.0833-.1485-.1017-.0522-.0185-.135-.0275-.2485-.0275h-.1v1.0208z"/><path d="m26.5943 62.7016v.6938h.2701c.1946 0 .3247-.013.3904-.0385.0655-.0255.1169-.0656.1542-.1201.0373-.0542.0558-.1178.0558-.1901 0-.0887-.0261-.1621-.0783-.2202-.0523-.0577-.1184-.0938-.1984-.1084-.059-.011-.1774-.0165-.3553-.0165zm-.4937 2.0314v-2.4452h.7922c.3002 0 .4959.0122.5871.0369.1401.0366.2574.1163.3519.2391.0945.1229.1417.2819.1417.4763 0 .1499-.0272.2764-.0817.3784-.0545.1025-.1237.183-.2076.2411-.084.0585-.1693.097-.256.1158-.1179.0236-.2886.0353-.512.0353h-.3219v.9223z"/><path d="m28.8742 63.322h.3652c.2368 0 .3847-.0099.4436-.0299s.1051-.0546.1385-.1036c.0333-.0487.05-.11.05-.1834 0-.0824-.022-.1488-.0659-.1994-.0439-.0507-.1059-.0825-.1859-.0958-.04-.0055-.1601-.0083-.3603-.0083h-.3852zm-.4937 1.411v-2.4452h1.039c.2613 0 .4512.022.5696.066s.2131.1221.2843.2344.1068.2406.1068.3851c0 .1834-.054.3349-.1618.4547-.1079.1193-.2691.1947-.4837.2257.1068.0624.1949.1307.2644.2053s.1631.2069.281.397l.2985.477h-.5904l-.3569-.532c-.1267-.1904-.2135-.3102-.2601-.3596-.0467-.0495-.0962-.0833-.1485-.1017-.0522-.0185-.1351-.0275-.2485-.0275h-.1v1.0208z"/><path d="m30.8305 64.733v-2.4452h.4936v2.4452z"/><path d="m31.6694 63.9376.4803-.0468c.0289.161.0876.2796.176.355.0884.0757.2076.1134.3577.1134.159 0 .2788-.0334.3594-.1009.0806-.0671.121-.1456.121-.2359 0-.0578-.017-.1068-.0509-.1477-.034-.0404-.0932-.0757-.1776-.106-.0579-.0196-.1896-.0553-.3953-.1064-.2646-.0655-.4503-.1464-.5571-.2418-.1501-.1347-.2251-.2988-.2251-.4923 0-.1245.0353-.2407.1059-.349.0706-.1088.1723-.1912.3052-.2478.1329-.0569.2932-.0852.4812-.0852.3068 0 .5378.0672.6929.2018.1551.1347.2366.3141.2444.5387l-.4937.0216c-.0211-.1257-.0664-.216-.1359-.2709-.0695-.055-.1738-.0825-.3127-.0825-.1435 0-.2558.0295-.3369.0884-.0523.0377-.0784.0883-.0784.1519 0 .0577.0245.1072.0734.1484.0622.0522.2134.1064.4536.1633.2402.0566.4178.1155.5329.1759.115.0605.2051.1433.2701.2485.0651.1052.0976.2348.0976.3895 0 .1401-.0389.2713-.1167.3938-.0779.1221-.1879.2132-.3303.2724-.1423.0597-.3197.0892-.532.0892-.3091 0-.5465-.0715-.7121-.2144-.1657-.1425-.2647-.351-.2969-.6242z"/><path d="m34.0727 64.733v-2.4452h1.8129v.4138h-1.3192v.5418h1.2273v.4123h-1.2273v.6654h1.3659v.4119z"/><path d="m36.4376 64.733v-.4688h.4687v.4688zm0-1.3027v-.4688h.4687v.4688z"/><path d="m11.4441 68.3449v-2.4451h.4937v2.4451z"/><path d="m12.4131 68.3449v-2.4451h.4803l1.0007 1.6328v-1.6328h.4586v2.4451h-.4953l-.9857-1.5944v1.5944z"/><path d="m14.8797 68.3449v-2.4451h.4804l1.0006 1.6328v-1.6328h.4587v2.4451h-.4954l-.9856-1.5944v1.5944z"/><path d="m17.75 67.1208c0 .2767.064.4868.1918.6293.1279.1429.2902.2144.487.2144s.3583-.0707.4845-.2124c.1262-.1418.1893-.3546.1893-.638 0-.2803-.0614-.4892-.1843-.627-.1229-.1382-.286-.2069-.4895-.2069s-.3675.0699-.492.2093c-.1245.1393-.1868.3498-.1868.6313zm-.5086.0165c0-.249.0372-.4582.1117-.627.0556-.1245.1314-.2364.2277-.3353.0961-.0989.2014-.1724.316-.2203.1523-.0643.3279-.0965.527-.0965.3602 0 .6485.1119.8648.3352.2162.2234.3243.5344.3243.9325 0 .3945-.1073.7035-.3219.9261-.2146.223-.5014.3345-.8605.3345-.3636 0-.6527-.1107-.8673-.3325s-.3218-.5277-.3218-.9167z"/><path d="m20.6219 68.3449-.8739-2.4451h.5354l.6187 1.8095.5988-1.8095h.5237l-.8757 2.4451z"/><path d="m23.3187 67.3775-.3369-.9073-.3302.9073zm.9089.9674h-.5369l-.2135-.5555h-.9774l-.2017.5555h-.5237l.9523-2.4451h.522z"/><path d="m24.7864 68.3449v-2.0313h-.7255v-.4138h1.943v.4138h-.7239v2.0313z"/><path d="m26.3074 68.3449v-2.4451h.4936v2.4451z"/><path d="m27.68 67.1208c0 .2767.0639.4868.1918.6293.1278.1429.2901.2144.487.2144.1968 0 .3583-.0707.4845-.2124.1261-.1418.1893-.3546.1893-.638 0-.2803-.0615-.4892-.1843-.627-.1229-.1382-.2861-.2069-.4895-.2069-.2035 0-.3675.0699-.492.2093-.1245.1393-.1868.3498-.1868.6313zm-.5087.0165c0-.249.0372-.4582.1117-.627.0557-.1245.1315-.2364.2277-.3353s.2015-.1724.316-.2203c.1524-.0643.3281-.0965.5271-.0965.3602 0 .6485.1119.8647.3352.2163.2234.3244.5344.3244.9325 0 .3945-.1073.7035-.3219.9261-.2146.223-.5015.3345-.8606.3345-.3636 0-.6526-.1107-.8672-.3325s-.3219-.5277-.3219-.9167z"/><path d="m29.9332 68.3449v-2.4451h.4803l1.0007 1.6328v-1.6328h.4586v2.4451h-.4953l-.9857-1.5944v1.5944z"/><path d="m19.6071 71.5214v.4354h-1.6428c.0178-.1645.0712-.3203.1601-.468.089-.1472.2646-.3427.5271-.5861.2112-.1967.3407-.3302.3886-.4001.0644-.097.0967-.1923.0967-.287 0-.1044-.0281-.1849-.0843-.241-.0561-.0562-.1336-.084-.2326-.084-.0979 0-.1757.0294-.2335.0883s-.0912.1567-.1001.2933l-.4669-.0468c.0277-.2579.115-.4428.2618-.5551s.3302-.1684.5504-.1684c.2412 0 .4308.0648.5687.1951.1378.13.2068.2917.2068.4853 0 .1099-.0198.2147-.0592.3144-.0395.0994-.102.2038-.1876.3125-.0567.0723-.159.1763-.3069.3122-.1479.1354-.2416.2257-.281.2701-.0395.0443-.0715.0879-.0959.1299z"/><path d="m20.7162 69.8906c-.0567 0-.1074.018-.1518.0541-.0445.0362-.0789.1009-.1034.194-.0322.1213-.0484.3255-.0484.6124 0 .2866.0145.4837.0434.5909.0289.1076.0653.179.1092.2144.044.0357.0943.0533.151.0533s.1073-.018.1518-.0541c.0444-.0361.0789-.1009.1033-.1944.0323-.1201.0484-.3235.0484-.6101 0-.2869-.0144-.484-.0433-.5912-.029-.1076-.0654-.179-.1093-.2152-.0439-.0361-.0942-.0541-.1509-.0541zm0-.3887c.2368 0 .4219.0844.5554.2532.159.2002.2385.5324.2385.996 0 .4625-.0801.7947-.2402.9972-.1323.1669-.3169.2501-.5537.2501-.238 0-.4298-.0914-.5754-.2744-.1457-.183-.2185-.5088-.2185-.978 0-.4605.0801-.7918.2402-.994.1323-.1669.3169-.2501.5537-.2501z"/><path d="m23.0227 71.9568h-.4686v-1.7663c-.1712.1602-.373.2788-.6054.3553v-.4252c.1223-.04.2551-.1158.3986-.2277.1434-.1119.2418-.2422.2951-.391h.3803z"/><path d="m24.7939 70.3672c0-.1512-.0347-.2682-.1042-.3518-.0695-.0832-.1499-.1248-.241-.1248-.0867 0-.1587.0341-.216.1024s-.0859.1802-.0859.3361c0 .1578.0311.2736.0934.3478.0623.0738.1401.1108.2335.1108.0901 0 .1659-.0358.2277-.1068.0617-.0711.0925-.1755.0925-.3137zm-1.0607 1.0243.4537-.0503c.011.0923.04.161.0867.2053.0467.0444.1084.0668.1851.0668.0967 0 .179-.0448.2468-.1335.0679-.0891.1112-.2736.1301-.5536-.1178.1367-.2652.205-.4419.205-.1924 0-.3583-.0742-.4979-.2226-.1395-.1484-.2093-.3416-.2093-.5795 0-.2481.0736-.448.221-.5995.1473-.1519.3349-.2277.5629-.2277.2479 0 .4514.0958.6104.2878.159.1916.2385.5072.2385.9461 0 .4472-.0829.7695-.2485.9674-.1657.1979-.3814.2968-.6472.2968-.1912 0-.3457-.0506-.4636-.1523-.1178-.1021-.1934-.254-.2268-.4562z"/><path d="m38.0991 29.5685c-.1696.6097-.4024 1.1939-.6989 1.7514-.3757.7063-.8115 1.3737-1.3191 1.9944-.3981.4872-.8123.9595-1.2747 1.3847-.8229.756-1.7019 1.4387-2.6638 2.0135-.358.214-.709.4409-1.0847.6219-.9795.4719-1.9967.8375-3.0627 1.0621-.5178.1091-1.0396.1857-1.5669.2426-.6218.0672-1.2441.0946-1.8648.0617-.3322-.0177-.6717.0062-1.011-.0954.2603-.6636.4861-1.3495.7664-2.0158.3349-.7966.6882-1.5841 1.0844-2.3511.623-1.2081 1.3175-2.3761 2.0984-3.4883.4947-.7047 1.0208-1.3874 1.5877-2.0388.4967-.5704 1.016-1.1181 1.5696-1.6285.8818-.8131 1.8397-1.5288 2.9378-2.0309.576-.2631 1.1747-.4503 1.8122-.5214.4813-.0538.9379-.0247 1.3909.1508.5308.2057.8983.583 1.1625 1.0702.2384.4397.3467.914.4013 1.413.0907.8252-.0456 1.6163-.2646 2.4039zm-9.9092 11.9771c.2301-.159.4606-.3181.6902-.4778.4924-.3432.9752-.6969 1.4185-1.1052.3349-.3086.7208-.5595 1.0392-.8885.077-.0793.2113-.168.117-.2826-.0899-.1096-.2198-.0362-.3243.0365-.4888.3407-.9685.6961-1.4711 1.0156-.6124.3895-1.219.7892-1.8632 1.1284-.6577.3462-1.3188.6866-1.9956.9917-.5497.2481-1.1299.4299-1.6748.687-.7558.3573-1.5489.6035-2.3427.8457-.6706.2045-1.3584.3463-2.0478.4794-.5296.1024-1.0593.1652-1.5983.2025-.6266.0436-1.2508.0169-1.8755.0232-.2807.0027-.5618-.0554-.8433-.0856.0248-.0479.0691-.0632.1249-.0667.4256-.0248.8527-.0365 1.2759-.0817.5018-.0534 1.0063-.0828 1.5037-.1825.3376-.068.687-.0754 1.0278-.1304.5489-.0875 1.0938-.1967 1.6175-.3906.0927-.0342.1665-.0946.2285-.1802-.1001-.086-.1974-.0848-.329-.0723-.389.0365-.7695.1194-1.1542.1751-.4287.0621-.8563.1335-1.2862.1881-.2414.0306-.4837.0589-.7251.0824-.8386.0825-1.68.1284-2.5229.1186-.1888-.002-.3808-.0204-.5904-.095.371-.1041.7208-.1504 1.0761-.1798.6219-.0519 1.2461-.0695 1.8664-.1504.4264-.0557.8582-.0687 1.2846-.1252.3581-.0475.7149-.1151 1.0659-.2007 1.5492-.3784 3.0866-.7985 4.5927-1.3273.1244-.044.2406-.1111.3659-.1524.0942-.031.1075-.0989.0848-.1668-.0259-.0758-.0911-.1347-.1822-.1099-.4994.1334-1.0003.2602-1.4946.4102-.3577.1084-.7232.1783-1.0875.2532-.6521.1343-1.305.2631-1.9595.3836-.4256.0785-.8535.1437-1.2819.2061-.5728.0837-1.1499.1206-1.7266.1661-.7071.0558-1.4142.0907-2.1208.0648-.5238-.0196-1.0467-.064-1.5712-.0746-.9808-.0196-1.9367-.2081-2.8919-.4197-.5862-.13-1.17313-.2552-1.74122-.4456-.60735-.2038-1.22963-.3757-1.80165-.7397.22182-.0051.40046.0876.58576.1363.83742.219 1.67484.4397 2.52481.603.693.1331 1.3894.2493 2.0871.3522.3498.0518.7086.04 1.0592.0879.5418.0742 1.0879.0899 1.6309.1488.6486.0707 1.303.0687 1.9524.0338.4644-.0252.9328.0082 1.3941-.0703.1268-.0216.285-.0597.2953-.1955.0082-.108-.1461-.13-.2474-.1704-.0663-.0263-.126-.024-.188-.0244-.6808-.0019-1.3612-.0015-2.0416-.0011-.667.0008-1.3258-.1151-1.9932-.1241-.4095-.0055-.8198-.0605-1.2269-.1142-.6882-.0907-1.3761-.1818-2.0615-.3004-1.08754-.188-2.14285-.479-3.18442-.8339-.1488-.0506-.28621-.1209-.44168-.219.2709-.0628.4833.0636.70237.1154.55553.1311 1.1197.2155 1.67719.3349.58854.1264 1.18054.2391 1.77334.3439.3271.0577.6592.0856.9882.1303.3541.0483.7067.1041 1.0612.1496.2305.0299.4625.0094.6961.0389.4845.0612.9729.0977 1.4613.1307.8177.055 1.6359.0935 2.4545.0676.53-.0169 1.0608-.0483 1.59-.0821.397-.0251.7888-.13 1.1825-.201.3306-.0597.662-.1166.991-.1853.1091-.0228.2143-.0719.3168-.1194.0793-.0365.0283-.1146.0353-.1731.0087-.075-.0549-.0538-.0962-.0581-.325-.0326-.6422.0522-.9603.0895-.2909.0342-.5849.0526-.8751.1036-.6364.1115-1.2814.0958-1.9229.0774-.658-.0192-1.3196-.0385-1.9709-.1225-.9599-.1237-1.9045-.3227-2.8279-.6364-.625-.212-1.2653-.3836-1.8876-.6074-.87-.3129-1.7408-.623-2.57861-1.0207-.54729-.2595-1.09732-.5128-1.63676-.7885-1.00977-.5159-1.96379-1.1232-2.87227-1.7981-.37532-.2787-.74201-.5767-1.02822-.9501.63405.4146 1.26771.83 1.90215 1.2434.7907.5155 1.64068.9171 2.48988 1.3234.65957.3161 1.3317.6024 2.00541.8835 1.14912.479 2.29392.9662 3.50982 1.2728.6898.1739 1.3722.3832 2.0651.5493.2026.0486.4044.1016.6085.1421.0943.0188.1885-.0185.223-.1111.035-.0931-.029-.1563-.1111-.2002-.2697-.1437-.563-.214-.8562-.2902-.9336-.2422-1.8445-.5571-2.7561-.8684-.9532-.3259-1.8845-.7075-2.80316-1.1198-.881-.3958-1.75414-.808-2.61001-1.2548-.87707-.4581-1.71017-.9862-2.48831-1.5986-.25911-.2042-.51902-.4071-.76792-.6261.24694.0836.44952.2438.6682.3729.52727.3109 1.05257.6249 1.58729.9233.5465.3047 1.08397.6294 1.65481.8826 1.00074.4436 1.96654.963 3.0081 1.3219.6694.2304 1.3062.5623 1.983.7798 1.2705.4083 2.5437.8088 3.8236 1.1857.6972.2057 1.4118.3501 2.1263.4856.139.0263.2823-.002.4193-.04.0762-.0209.1425-.0758.1429-.152.0004-.0608-.0656-.0942-.1307-.1221-.3333-.1429-.689-.2006-1.0365-.2893-.8794-.225-1.7365-.5171-2.5915-.8198-.7012-.2485-1.3867-.5331-2.0565-.8513-.6953-.3297-1.3662-.709-2.0074-1.1393-.7094-.4762-1.4318-.9332-2.13689-1.4149-.62855-.4295-1.25593-.8628-1.857-1.3293-.6478-.5025-1.26104-1.0498-1.89587-1.5692-.62188-.5088-1.18566-1.0816-1.78398-1.6144-.93165-.8287-1.59318-1.8562-2.26963-2.8781-.03455-.0522-.05968-.1111-.08676-.1677-.00432-.0094.00314-.0247.00824-.0561.24459.2788.45463.5705.68195.8465.22378.2712.44835.5421.6737.8119.35962.4302.76243.8217 1.16877 1.2072.52766.5017 1.07691.9795 1.6344 1.4491.72396.6097 1.47147 1.1892 2.21467 1.7742.60421.4754 1.20921.948 1.86132 1.3602.55588.3514 1.07728.7569 1.64658 1.0887.4688.2732.9446.5351 1.4133.808.2462.1433.4947.2752.7782.3317.0436.0087.0867.0173.1315.0204.053.0036.1088.0055.1386-.0478.0369-.0668-.0326-.0884-.0632-.1241-.2077-.2419-.4833-.4017-.7534-.5501-.742-.4071-1.3922-.9469-2.0973-1.4063-.6156-.4012-1.22648-.8145-1.80635-1.2648-.52412-.4075-1.06041-.7997-1.57119-1.2261-.48761-.4067-.97129-.8178-1.45733-1.2261-.21907-.1833-.41341-.3918-.63484-.5736-.55435-.4546-1.02704-.9948-1.51387-1.517-.53511-.5736-1.03843-1.177-1.54371-1.7777-.12916-.1539-.25362-.3223-.32664-.5167.05496-.027.07538-.0004.09894.022.24969.2368.50056.4727.74986.7102.56967.5426 1.13423 1.0903 1.709 1.6278.2862.2673.55121.5551.84409.8174.62541.5594 1.24337 1.1267 1.87899 1.6748.44403.3828.86725.7907 1.32424 1.1574.56574.4534 1.14286.8932 1.73411 1.314.6521.4644 1.2783.9665 1.9402 1.4156.5952.404 1.1994.7955 1.8457 1.1213.433.2183.8429.4829 1.2842.6894.5987.2808 1.2261.4905 1.8381.7378.3259.1323.6616.2403.9917.3632.0287.0106.0534.0357.0876.0318.0946-.011.223.049.252-.1068.0248-.1327-.075-.1881-.17-.2297-.6858-.2976-1.3745-.589-2.036-.9388-1.0412-.5501-2.0341-1.1778-2.9967-1.8554-.5842-.4115-1.1448-.8516-1.6996-1.3018-.6148-.4986-1.1864-1.0408-1.74785-1.5963-.39378-.3891-.80326-.7624-1.19115-1.1574-.46877-.4774-.93636-.9572-1.37843-1.4585-.92025-1.0439-1.82598-2.1008-2.55426-3.2943-.37179-.609-.76832-1.2026-1.09535-1.8386-.24263-.4715-.5257-.9226-.75655-1.3996-.45267-.9367-.77067-1.9253-1.07298-2.9194-.11581-.3796-.23477-.7581-.32664-1.144-.03141-.1323-.08441-.2701-.04829-.4433.2548.724.5198 1.4158.8174 2.093.19747.4503.43735.8822.66899 1.3172.22535.4236.4723.8362.69412 1.2618.22221.4263.49585.8213.73298 1.2379.33136.5818.66585 1.1621 1.04079 1.7168.54768.8103 1.11027 1.6124 1.72823 2.3697.44324.5426.89591 1.0797 1.37528 1.5948.56377.6062 1.13579 1.2037 1.71881 1.7914.2038.2054.3647.4562.5814.6455.3404.2968.6785.601 1.0663.839.0589.0361.1241.113.2054.0416.0867-.0762.0216-.1559-.0102-.2281-.0809-.1834-.2105-.3357-.3506-.4743-.51-.5041-1.0318-.9968-1.5378-1.5048-.51357-.5155-.97134-1.0789-1.42637-1.647-.43146-.539-.87981-1.0639-1.29401-1.6171-.67252-.8987-1.32385-1.8119-1.90019-2.7757-.59282-.9917-1.12872-2.0152-1.69407-3.0223-.5516-.9822-.96423-2.0215-1.37332-3.0654-.12367-.3164-.26815-.6242-.37022-.9497-.01256-.0396-.01806-.0714-.00668-.117.23714.2536.35609.5697.48408.8747.23713.5666.54689 1.0958.82878 1.6387.32233.6219.68705 1.2206 1.05296 1.819.35491.581.68627 1.1774 1.04039 1.7596.32468.5343.65604 1.0655.99407 1.5916.5147.8013 1.08907 1.5614 1.66109 2.3219.34039.4522.6474.9304 1.01134 1.3623.34314.4071.66625.8299 1.01605 1.232.9336 1.0722 1.9556 2.0576 2.9539 3.0658.4221.4263.9097.7753 1.3659 1.1608.7141.6026 1.5044 1.1004 2.3124 1.5625.8315.4755 1.6874.9098 2.6081 1.1984.835.2618 1.6544.5744 2.513.7597.4542.0981.912.1692 1.3737.2288.6478.0841 1.296.0805 1.9442.068.5131-.0098 1.0227-.0695 1.5323-.1457.5971-.0887 1.1857-.2073 1.7694-.3588.7939-.2058 1.567-.4704 2.325-.7817.6129-.2518 1.2175-.5238 1.7997-.8371 1.0596-.5693 2.0832-1.1983 3.0445-1.9265.4499-.3412.8787-.705 1.3046-1.0741.0405-.0349.0899-.0589.1516-.0989-.7519 1.5844-7.0635 6.6412-9.1075 7.2769zm14.8065-15.792c-.4079-.9874-1.0809-1.7247-2.0039-2.2324-.9524-.5237-1.9995-.7223-3.0705-.7816-.4715-.0259-.9473-.0138-1.4236.0224-.6902.0518-1.3704.1452-2.0488.2799-1.0306.2049-2.0259.5206-2.9991.9085-.7856.3129-1.55.6709-2.2904 1.0816-.4421.245-.8818.4939-1.3054.7675-.8221.5304-1.6227 1.0899-2.3882 1.7027-.6482.519-1.2768 1.0593-1.8794 1.6273-.4688.4421-.9234.9011-1.3588 1.3789-.4597.5052-.9093 1.0176-1.3431 1.5452-.5292.6447-1.0215 1.316-1.4954 2.0023-.5787.8381-1.0977 1.712-1.5806 2.6083-.0389.0723-.0628.1076-.1559.0535-.883-.514-1.7282-1.0805-2.5374-1.7071-.7118-.5519-1.3886-1.1424-2.0494-1.7517-.5033-.4636-.9767-.9595-1.4318-1.4711-.1119-.1252-.2296-.2449-.3384-.3725-.49-.5772-.9725-1.1606-1.46439-1.7357-.41066-.4806-.775-.9957-1.15778-1.4974-.36198-.4747-.65879-.9945-1.02234-1.4668-.51823-.6737-.94342-1.4086-1.40825-2.1173-.28386-.433-.5363-.8868-.81465-1.3234-.55396-.8681-1.06003-1.7632-1.54607-2.6709-.51234-.9575-.89277-1.9854-1.53153-2.875-.23831-.3321-.47544-.6658-.83389-.8892-.33724-.2105-.524119-.1433-.656818.2367-.108751.3121-.131522.6368-.148796.9591-.024734.4633.020023.9234.10561 1.3839.102076.5477.193944 1.0962.359624 1.6293.21082.6796.46916 1.3416.72827 2.0039.17432.4452.3502.8904.58027 1.3085.24341.4421.48525.8853.74869 1.3172.35491.5818.69255 1.1747 1.05217 1.7541.38004.6117.8331 1.1696 1.27281 1.7369.3608.4656.74673.9116 1.12441 1.3643.30584.3667.61521.7302.92654 1.0989-.02199.0047-.03965.0137-.04594.0086-.34431-.2878-.70432-.5598-1.02861-.8692-.65447-.6242-1.28969-1.2677-1.95476-1.8821-.76165-.704-1.47343-1.4613-2.22487-2.1778-.46288-.4413-.89395-.9171-1.434173-1.2701-.325466-.2127-.620309-.3757-.921827-.0797v.5497c.0121706.0118.0345489.0228.0353341.0357.0270895.3447.1613589.6627.2653979.9858.189627.5901.496641 1.1299.806408 1.6631.59047 1.0172 1.29401 1.9551 2.09845 2.8138.41223.4401.82132.8825 1.27281 1.2873.5889.5277 1.19861 1.0282 1.80871 1.53.75301.6186 1.55745 1.1639 2.356 1.7187.25362.1758.5202.3325.78089.4982-.28582-.0471-.53316-.1826-.78167-.3067-.73495-.3662-1.46087-.7502-2.19032-1.1267-.47741-.2461-.96659-.4714-1.43025-.7415-1.00388-.5846-1.99088-1.1978-2.99358-1.784-.18845-.1099-.3612-.2544-.57791-.316-.21593-.0617-.43265.0267-.460915.2143-.01963.1311-.031801.2713.016095.4044.24184.6753.58105 1.2975 1.07887 1.815.42283.4388.85391.8699 1.32189 1.2672.41498.3522.83506.6941 1.28537.9972.68705.4617 1.39256.892 2.11102 1.3051.658.3781 1.31089.766 2.01797 1.0369.92025.3521 1.80123.8013 2.74583 1.0961-.2206.0314-.4491.0098-.6493-.0373-.6871-.1629-1.38435-.2583-2.0769-.3832-.77186-.1385-1.52879-.3439-2.29044-.5276-.49938-.1201-1.01094-.17-1.52525-.1743-.21161-.0016-.34274.148-.35491.351-.02003.3392.20886.5351.42872.7133.64504.5226 1.35997.9407 2.09178 1.3294.51195.2716 1.03921.5084 1.5861.7004.21947.0769.43893.1554.66782.2029.48329.1002.96578.2042 1.44868.3055.4523.095.9018.2073 1.358.2772.435.0667.8771.0891 1.3549.1346-.2002.0526-.3585.1048-.5116.1783-.1782.0848-.2662.2532-.2787.4059-.013.1519.1025.2925.2842.3608.6608.2477 1.3207.4939 2.02.6133.0997.0168.1707.0459.1539.1684-.0177.1272-.0389.2552-.0385.3828.0027.7271-.0138 1.4534.0699 2.1797.0667.5834.1582 1.1621.2976 1.7294.2312.9442.5653 1.8539 1.0466 2.7046.4912.8677 1.086 1.6486 1.8351 2.3172.7094.6336 1.502 1.1193 2.3693 1.4989 1.2226.5355 2.5126.7636 3.831.8296.8916.0447 1.7828.0008 2.6705-.1425.7019-.1131 1.3902-.2721 2.0694-.4739 1.2241-.3643 2.3893-.8684 3.5134-1.4727.5849-.3144 1.1566-.6489 1.7129-1.0101.9449-.6137 1.849-1.2823 2.7178-2.0015.5972-.4947 1.1641-1.0208 1.7302-1.548.3086-.2878.5933-.6023.8779-.9152.1759-.1935.3274-.4091.4974-.6081.0636-.0746.053-.1296-.0141-.1802-.2878-.2163-.519-.4916-.7766-.7393-.0546-.0522-.0985-.0695-.1661-.0122-.4801.4052-.9614.8092-1.4455 1.21-.4291.3549-.8504.7205-1.296 1.0534-.645.4817-1.2909.9622-1.9715 1.3953-.8323.53-1.6968.9925-2.6155 1.3545-1.0887.4287-2.2221.6348-3.3854.6756-.3451.0126-.6941-.0333-1.0408-.0667-.5339-.0511-1.0521-.1641-1.563-.32-.908-.2772-1.7294-.7196-2.4372-1.3505-.5976-.5316-1.0526-1.1731-1.3879-1.9057-.4067-.8885-.5739-1.8248-.6222-2.7887-.0291-.5775.0137-1.1534.0789-1.727.0263-.2336.0801-.4637.1127-.6965.009-.0632.0212-.0801.0879-.0926.4476-.0864.8971-.1661 1.3388-.2776 1.0812-.2733 2.1608-.5563 3.2228-.8991.7845-.2528 1.5622-.5261 2.3344-.8158.9851-.3694 1.952-.7785 2.903-1.2253.7027-.3306 1.3937-.6859 2.0736-1.0624.6416-.3553 1.2693-.7338 1.8797-1.1381.8504-.563 1.6705-1.167 2.4392-1.8403.6015-.5264 1.1731-1.08 1.711-1.6717.5681-.6249 1.0859-1.2876 1.5268-2.0068.4181-.6832.8355-1.3671 1.1645-2.1012.3812-.8508.6478-1.7369.707-2.663.0597-.9293.0318-1.8578-.336-2.749z"/><path d="m28.1888 0c0 .359705.0042.719409-.0026 1.07866-.0021.11036.0274.1467.1396.14079.1761-.00908.3533.00273.5295-.00454.0936-.00363.1257.02407.1206.11945-.0095.17531.056.3974-.0285.51367-.08.11036-.316.03179-.4832.03497-.2753.00545-.2737.00136-.2759.27568-.0024.3102-.0821.66264.399.69398.8532.46144.9618 1.64864.3953 2.2695-.4532.49641-.9991.65446-1.6125.44191-.5257-.18213-.9011-.57317-.9799-1.14497-.1079-.78163.2323-1.35979.977-1.66454.0962-.03906.1167-.07812.1153-.1626-.0038-.22799.0781-.52003-.0327-.66582-.1052-.13897-.4149-.03769-.634-.03769-.1261 0-.1724-.02952-.1609-.16032.0121-.13626.0059-.27478.0017-.41194-.003-.10037.0384-.1417.1393-.13943.1895.00363.3794-.00409.5687.00318.0955.00363.1209-.02725.1196-.12081-.0052-.352891-.0021-.706238-.0021-1.05913z"/><path d="m27.2074 12.4498c.0002-.2967-.0664-.5624-.1008-.8316-.0281-.2208-.063-.4405-.0958-.6605-.0077-.0519.0171-.0881.0545-.1168.3479-.2668.6613-.5729.993-.86488.2758.29788.5918.56198.8473.88538.0489.0621.0757.1151.0685.1898-.0395.4067-.0771.8138-.1504 1.2166-.0114.0629-.0016.1301-.0016.2256.1753-.1596.3168-.3352.5185-.4346.2993-.147.6008-.1871.9168-.0484.2656.1163.3516.3541.4013.6028.0951.4759-.0098.9361-.1544 1.388-.0903.2826-.2027.5557-.3425.8186-.0657.1234-.1357.1921-.2886.1815-.214-.0153-.4299-.0039-.6499-.0039.1104-.3097.2321-.6099.2584-.9333.0137-.1682.0282-.3541-.1918-.4193-.2135-.0637-.357.077-.4495.2193-.3141.4821-.2692 1.2461.3248 1.5711.4387.2401 1.0586.1965 1.4885-.1348.4091-.3152.5833-.7683.7115-1.241.0843-.3113.1346-.6315.1982-.9479.0146-.0731.0034-.1289-.0959-.1179-.0646.0075-.1307.0016-.1962.0016-.261 0-.2695-.0008-.253-.2546.0124-.1906.0472-.3796.0784-.5683.0142-.086.0878-.0786.1547-.0809.4477-.0169.4308-.0197.4756-.4669.0431-.4303.1299-.8562.1878-1.2854.0108-.0801.0353-.0943.1052-.0935.2421.0031.4846.0098.726-.0024.1283-.0062.1262.0637.1134.1435-.0434.2696-.0928.5383-.1391.8075-.0453.2633-.0907.5266-.1338.7899-.0155.0951-.002.1709.1264.1482.0317-.0056.0652-.0008.098-.0008.3977 0 .3981 0 .3228.3894-.0047.0244-.0292.0452-.0323.0696-.0175.1355.0453.323-.0845.3902-.1138.0585-.2823.0243-.425.0114-.1533-.0138-.1877.0283-.2155.191-.0337.1972-.0467.402-.0499.5914-.009.5281.0315 1.0724.429 1.4799.2474.2535.5897.3572.9429.3254.3066-.0271.609-.1018.8601-.3077.3443-.2826.6181-.9695.3547-1.4277-.0645-.1124-.1448-.1941-.2666-.176-.1226.018-.2432.0774-.2878.2145-.0715.2205-.0512.4461-.0316.6708.001.0118.0152.0224.0181.0346.0864.3643.0209.4484-.3478.4484-.3261 0-.3232-.0012-.4336-.3301-.1634-.4873-.225-.9903-.1867-1.498.0272-.3608.1237-.7156.3943-.9844.4172-.4146 1.103-.4299 1.5091.1124.1359.1812.2558.3737.3933.5757.0755-.2275.0704-.4562.0861-.6775.0153-.2197.0405-.3989.2688-.5089.5502-.2648 1.0921-.5462 1.6835-.8445-.182.5274-.3482 1.0056-.5125 1.4847-.4134 1.2017-.8228 2.4046-1.2394 3.6055-.2244.6476-.4653 1.2897-.6861 1.9385-.0548.1607-.1338.3163-.1625.4822-.0312.1803-.1108.222-.2901.2216-4.4422-.0059-8.8846-.0055-13.3268-.0012-.1754.0004-.2477-.0483-.3101-.222-.4213-1.1715-.8604-2.3362-1.2941-3.5033-.4733-1.2733-.9464-2.5465-1.4233-3.8181-.0175-.0464.01-.1053-.0454-.1474.2464.0546.4525.1878.6685.2963.4178.2095.8304.4295 1.2498.6358.1124.0554.1509.1175.1594.246.0194.2951.0701.5879.1124.9145.1503-.2397.2185-.4767.3586-.6818.2265-.3317.4543-.3789.8714-.2834.5808.1336.8263.5714.9259 1.1074.1173.6319.0465 1.2457-.2302 1.8328-.036.0767-.0811.0873-.1495.0869-.1701-.0016-.3411-.0118-.51.0027-.1535.0134-.1404-.0801-.1249-.1686.0591-.3391.0617-.6715-.0361-1.0079-.0472-.1627-.1645-.2126-.291-.2334-.1219-.0201-.1836.0864-.2273.1929-.2929.7125.1974 1.6552 1.0346 1.7318.3902.0358.7227-.0283 1.0274-.2743.255-.2055.3734-.4876.4472-.7867.1203-.4869.0922-.9789.0076-1.4705-.0145-.0845-.0632-.066-.1102-.0668-.1505-.0016-.301-.0016-.4514 0-.0629.0008-.1052.002-.1118-.0876-.0159-.2166-.0358-.4347-.0812-.6461-.0247-.1159.0088-.132.1033-.1308.1566.0015.3131.0004.4708.0004-.0593-.4559-.1159-.9031-.1765-1.3495-.0163-.1195-.0418-.2374-.0686-.3548-.0205-.09-.0215-.1474.1013-.1435.2287.0079.4579.0059.6868.0008.1124-.0024.133.0487.1491.1521.0831.5336.1842 1.0645.266 1.5982.0147.0963.0512.0998.1216.0971.0654-.0028.1309-.0004.1963-.0004.3035 0 .3081-.0008.3512.2829.0153.1006.0216.2028.0378.3046.0438.2746.0348.2762-.2483.2762-.1104 0-.2208 0-.3351 0 .0537.3427.0979.6704.1579.9954.0892.4834.2102.953.5918 1.3082.371.3458 1.0411.4087 1.4852.156.4769-.2715.6566-.6881.6301-1.2154-.016-.3195-.2797-.5545-.6005-.5376-.1784.0094-.2902.1257-.303.3045-.0245.3399.0916.6508.204.9907-.2766 0-.5406-.0016-.8046.0012-.0881.0008-.1062-.068-.1265-.1238-.181-.4987-.3525-.9981-.4167-1.5314-.0373-.3101-.0556-.6103.0387-.9105.1887-.6013.8556-.6095 1.2683-.3498.1594.1006.2982.2335.4658.3671z"/><path d="m35.7752 11.1546c-.0039-.035-.0129-.0595-.0082-.0816.1052-.5111-.1924-.7976-.5504-1.09295-.7004-.57855-1.4675-1.03963-2.2858-1.42033-.8358-.38861-1.6965-.70433-2.6093-.87052-.2841-.05207-.57-.06831-.8539-.11038-.0782-.01166-.1353-.01333-.146.11162-.038.4461-.0989.89011-.1515 1.33453-.039.3303-.0799.6606-.1159.99093-.0046.0429-.0128.0854-.0484.0962-.0412.0129-.0638-.0358-.0903-.0621-.2411-.23989-.4892-.47356-.7186-.7243-.1066-.11663-.1587-.09164-.2564.00625-.3071.30739-.6257.60311-.965.92755-.0823-.55436-.1565-1.08542-.241-1.6144-.0552-.34571-.1251-.68933-.1549-1.03921-.0099-.11662-.099-.06956-.1475-.06456-.5185.05123-1.0283.15286-1.5215.31947-1.082.36612-2.0834.89802-3.0265 1.53571-.4664.3153-.8961.68179-1.3132 1.06249-.1237.1125-.1724.2287-.1578.3895.011.1224.0021.2461.0021.3873-.3199-.1412-.6243-.2728-.9267-.4094-.224-.1012-.4436-.212-.6684-.3111-.0987-.0438-.1081-.0713-.0314-.1579.8303-.93924 1.7765-1.73854 2.849-2.3883 1.0907-.6606 2.2495-1.15626 3.4919-1.45199.558-.13329 1.1206-.22992 1.6935-.27907.4972-.0429.9948-.10038 1.4919-.06914.8534.05415 1.703.13287 2.5406.33947.8356.20576 1.6411.47774 2.427.8272.8607.3832 1.6534.87594 2.3976 1.44241.5854.44567 1.1331.94216 1.6061 1.51322.068.0825.0515.1112-.0337.1541-.4841.2424-.9642.4927-1.4774.7093z"/><path d="m32.9 5.74909c.0004.38847-.3018.68553-.6902.69103-.3511.00465-.6558-.27802-.6808-.68215-.0222-.36011.3273-.70372.6915-.69144.3222.01057.6999.27463.6795.68256z"/><path d="m33.9315 5.81027c.3831-.00754.69.32624.6949.6885.0047.34759-.3375.69687-.6998.6797-.3344-.0155-.671-.25295-.6774-.68347-.0054-.36016.3398-.72786.6823-.68473z"/><path d="m19.0099 7.73453c.3877.00244.7054.30962.6978.68067-.0077.38367-.3376.70508-.6941.6884-.3981-.01831-.6567-.27829-.6761-.68433-.0189-.39384.3514-.70671.6724-.68474z"/><path d="m37.6897 8.48556c.0406.35876-.3356.70738-.6391.70209-.4415-.00772-.7061-.34008-.7265-.71307-.0196-.3677.3246-.65415.7175-.66431.3133-.00812.694.30433.6481.67529z"/><path d="m24.2235 5.80865c0 .39538-.265.67573-.6475.6677-.4627-.01015-.6776-.28839-.7191-.66094-.0377-.33872.3486-.71253.7116-.70915.3286.00339.7167.33999.655.70239z"/><path d="m34.9416 7.34767c-.0709-.33477.3042-.68525.6418-.67988.3274.00537.7051.27939.7016.67161-.0028.36949-.3333.70096-.7004.70964-.3114.00702-.7061-.35585-.643-.70137z"/><path d="m21.9612 5.84972c.4361-.0205.6792.31297.6893.67071.0096.33933-.3363.71422-.6615.69623-.3789-.0205-.7253-.33263-.7123-.72636.0117-.35272.3091-.64058.6845-.64058z"/><path d="m30.4445 4.63311c.3717-.02939.6736.28412.6875.65769.0128.3395-.3637.73523-.6917.70243-.3862-.03919-.6773-.29264-.6836-.72074-.0046-.31777.3084-.67516.6878-.63938z"/><path d="m21.122 7.46342c.0037.4039-.3223.69188-.6624.69765-.3481.00537-.677-.32593-.6811-.70343-.0039-.34037.3346-.67579.6771-.67579.353-.00041.7.34202.6664.68157z"/><path d="m25.9509 5.27264c.0204.36232-.2805.68973-.6668.69015-.3825 0-.6724-.31803-.6692-.66928.0034-.3802.261-.66035.619-.66078.447-.00085.7158.23928.717.63991z"/></g></svg>