<svg fill="none" height="72" viewBox="0 0 50 72" width="50" xmlns="http://www.w3.org/2000/svg"><g fill="#316fb9"><path d="m43.3391 33.6351c-.1929.6936-.4577 1.3581-.795 1.9923-.4274.8033-.9231 1.5626-1.5006 2.2686-.4528.5542-.924 1.0915-1.4501 1.5752-.9361.8601-1.9359 1.6367-3.0301 2.2906-.4073.2433-.8066.5015-1.234.7074-1.1142.5367-2.2713.9527-3.4839 1.2081-.589.1242-1.1825.2113-1.7823.276-.7074.0764-1.4153.1076-2.1214.0701-.3778-.0201-.7641.0072-1.1499-.1085.2961-.7549.5528-1.535.8717-2.2929.381-.9062.7829-1.8021 1.2335-2.6747.7088-1.3742 1.4988-2.7028 2.3871-3.9679.5626-.8016 1.1611-1.5783 1.806-2.3192.565-.6489 1.1558-1.2719 1.7855-1.8525 1.0031-.9249 2.0928-1.739 3.3419-2.3102.6551-.2992 1.3362-.5122 2.0615-.5931.5475-.0612 1.0669-.0281 1.5823.1715.6038.234 1.0219.6632 1.3224 1.2174.2711.5002.3944 1.0397.4564 1.6073.1032.9388-.0518 1.8387-.301 2.7345zm-11.2721 13.6244c.2616-.1809.5238-.3618.7851-.5435.56-.3904 1.1093-.7928 1.6135-1.2572.3809-.351.8199-.6364 1.1822-1.0107.0875-.0902.2402-.1911.1331-.3215-.1023-.1246-.2501-.0411-.3689.0415-.556.3877-1.1018.7918-1.6734 1.1554-.6967.443-1.3867.8976-2.1196 1.2835-.748.3939-1.5001.7811-2.27 1.1281-.6253.2822-1.2853.489-1.9052.7815-.8597.4064-1.7618.6864-2.6648.962-.7628.2327-1.5453.3939-2.3295.5453-.6025.1166-1.2049.188-1.8181.2304-.7128.0496-1.4228.0192-2.1334.0264-.3193.0031-.6391-.063-.9593-.0974.0282-.0545.0786-.0719.142-.0759.4842-.0281.9701-.0415 1.4515-.0929.5707-.0607 1.1446-.0942 1.7105-.2077.384-.0772.7815-.0857 1.1691-.1482.6244-.0996 1.2443-.2238 1.84-.4444.1054-.0388.1894-.1076.2599-.205-.1138-.0978-.2246-.0964-.3742-.0822-.4426.0416-.8753.1358-1.313.1992-.4877.0706-.974.1519-1.4631.214-.2746.0348-.5502.0669-.8248.0937-.9539.0938-1.911.1461-2.8698.1349-.2149-.0022-.4332-.0232-.6717-.1081.422-.1183.8199-.171 1.2241-.2045.7074-.059 1.4175-.0791 2.1231-.1711.485-.0634.9763-.0781 1.4613-.1424.4073-.0541.8132-.1309 1.2125-.2282 1.7623-.4305 3.5111-.9084 5.2243-1.51.1415-.05.2737-.1264.4162-.1733.1072-.0352.1224-.1125.0965-.1898-.0295-.0861-.1036-.1531-.2073-.125-.568.1518-1.1379.2961-1.7001.4667-.4069.1233-.8227.2027-1.2371.288-.7418.1528-1.4845.2993-2.229.4364-.4841.0893-.9709.1634-1.4581.2344-.6516.0952-1.3081.1371-1.9641.1889-.8044.0635-1.6087.1032-2.4126.0737-.5957-.0223-1.1906-.0728-1.7872-.0848-1.1156-.0224-2.2031-.2367-3.2897-.4774-.6667-.1479-1.3344-.2903-1.9806-.5069-.69091-.2318-1.39877-.4274-2.04946-.8414.25233-.0058.45553.0996.66632.155.95259.2492 1.90514.5002 2.87204.6859.7883.1514 1.5805.2836 2.3741.4006.3979.059.8061.0456 1.2049.1001.6164.0844 1.2376.1022 1.8552.1692.7378.0804 1.4823.0782 2.2209.0384.5284-.0285 1.0611.0094 1.5859-.0799.1442-.0246.3242-.0679.3358-.2224.0094-.1228-.1661-.1478-.2813-.1938-.0755-.03-.1434-.0273-.2139-.0277-.7744-.0023-1.5484-.0018-2.3223-.0014-.7588.0009-1.5082-.1308-2.2674-.1411-.4658-.0062-.9325-.0688-1.3956-.1299-.7829-.1032-1.5653-.2068-2.3451-.3417-1.2371-.2139-2.43752-.5448-3.62234-.9486-.16926-.0576-.32557-.1375-.50242-.2492.30815-.0714.54976.0724.79896.1313.63193.1492 1.2737.2452 1.9079.381.6694.1438 1.3429.272 2.0172.3912.372.0656.7499.0974 1.1241.1483.4028.0549.8039.1183 1.2072.1701.2621.034.5261.0107.7918.0442.5511.0697 1.1066.1112 1.6622.1488.9303.0625 1.861.1062 2.7921.0768.6029-.0192 1.2067-.055 1.8087-.0934.4516-.0286.8973-.1478 1.3452-.2286.376-.0679.753-.1327 1.1272-.2108.1242-.0259.2438-.0817.3604-.1358.0902-.0415.0322-.1304.0402-.1969.0098-.0853-.0625-.0612-.1094-.0661-.3698-.0371-.7306.0594-1.0924.1018-.3309.0388-.6654.0598-.9955.1179-.7239.1268-1.4576.109-2.1874.088-.7485-.0219-1.501-.0438-2.2419-.1394-1.0919-.1406-2.1664-.3671-3.2168-.7239-.711-.2412-1.4394-.4363-2.1473-.6909-.9896-.3559-1.9802-.7087-2.9332-1.1611-.62256-.2952-1.24825-.5834-1.86187-.8969-1.14864-.5868-2.23387-1.2777-3.2673-2.0454-.42694-.3171-.84406-.6561-1.16963-1.0808.72125.4716 1.44206.9441 2.16376 1.4144.89944.5863 1.86632 1.0432 2.83231 1.5054.75028.3596 1.51483.6853 2.28123 1.005 1.3072.5449 2.6094 1.0991 3.9926 1.4479.7846.1978 1.5608.4359 2.3491.6248.2304.0553.4599.1156.6922.1616.1072.0215.2143-.021.2536-.1263.0398-.1059-.033-.1778-.1263-.2278-.3069-.1635-.6405-.2434-.9741-.33-1.062-.2756-2.0981-.6338-3.1351-.9879-1.0843-.3707-2.1436-.8048-3.1887-1.2738-1.0021-.4502-1.99537-.9191-2.96895-1.4274-.99769-.5211-1.94537-1.1218-2.83052-1.8185-.29476-.2322-.59041-.4631-.87355-.7123.28091.0951.51136.2773.76011.4242.59978.3537 1.19732.711 1.80559 1.0504.62166.3466 1.23305.7159 1.8824 1.004 1.13842.5046 2.23702 1.0955 3.42182 1.5037.7615.2622 1.4858.6396 2.2558.887 1.4451.4645 2.8935.92 4.3494 1.3488.7931.234 1.6059.3983 2.4187.5524.1581.0299.3211-.0022.477-.0455.0866-.0237.1621-.0862.1626-.1729.0004-.0692-.0746-.1072-.1488-.1389-.3791-.1625-.7837-.2282-1.179-.3291-1.0004-.2559-1.9753-.5882-2.948-.9325-.7976-.2827-1.5773-.6065-2.3392-.9684-.791-.3751-1.5542-.8065-2.2835-1.2959-.807-.5418-1.6287-1.0616-2.4308-1.6096-.715-.4886-1.42866-.9816-2.1124-1.5122-.73689-.5716-1.43447-1.1942-2.15662-1.785-.7074-.5788-1.34872-1.2303-2.02933-1.8363-1.05977-.9428-1.81229-2.1115-2.58178-3.274-.0393-.0594-.06788-.1264-.0987-.1907-.00492-.0107.00357-.0281.00938-.0639.27824.3171.51717.6489.77574.9629.25457.3086.51002.6167.76637.9236.40908.4894.86729.9347 1.32951 1.3732.60023.5708 1.22502 1.1142 1.85918 1.6483.82353.6936 1.67385 1.3527 2.51925 2.0182.68732.5408 1.3755 1.0785 2.1173 1.5474.6324.3997 1.2255.8611 1.873 1.2385.5333.3108 1.0746.6086 1.6078.9191.28.1629.5627.313.8851.3773.0496.0099.0987.0197.1497.0232.0602.004.1237.0063.1576-.0544.042-.076-.0371-.1005-.0719-.1411-.2363-.2752-.5498-.457-.857-.6257-.8441-.4631-1.5836-1.0772-2.3857-1.5998-.7003-.4564-1.3952-.9267-2.0548-1.4389-.59623-.4635-1.20628-.9097-1.78731-1.3947-.55467-.4627-1.10488-.9303-1.65776-1.3947-.2492-.2086-.47027-.4456-.72215-.6524-.63059-.5172-1.16829-1.1317-1.72207-1.7256-.60871-.6525-1.18125-1.3389-1.75602-2.0222-.14695-.1751-.28851-.3667-.37157-.5877.06252-.0309.08574-.0005.11254.025.28404.2693.56941.5377.853.8079.64801.6171 1.29022 1.2402 1.94404 1.8515.32557.3042.62702.6315.96018.9299.71143.6364 1.41437 1.2816 2.13741 1.905.5051.4354.98653.8995 1.50637 1.3166.64354.5158 1.30004 1.016 1.97264 1.4947.7418.5283 1.4541 1.0995 2.2071 1.6104.677.4596 1.3643.9049 2.0994 1.2755.4926.2483.9588.5493 1.4608.7843.6811.3194 1.3947.5579 2.091.8392.3707.1505.7525.2734 1.1281.4131.0326.0121.0607.0407.0996.0362.1076-.0125.2536.0558.2867-.1215.0281-.1509-.0853-.2139-.1934-.2612-.7802-.3385-1.5635-.67-2.316-1.068-1.1844-.6256-2.3138-1.3397-3.4089-2.1106-.6645-.468-1.3023-.9686-1.9333-1.4809-.6994-.5672-1.3496-1.1839-1.9883-1.8158-.4479-.4426-.9137-.8673-1.35494-1.3166-.53323-.5429-1.06513-1.0887-1.568-1.659-1.04682-1.1875-2.07712-2.3897-2.90555-3.7474-.42293-.6926-.87399-1.3679-1.24601-2.0914-.27599-.5363-.59799-1.0495-.86059-1.5921-.51492-1.0656-.87668-2.1901-1.22056-3.3209-.13173-.4319-.26707-.8624-.37156-1.3014-.03575-.1505-.09602-.3072-.05494-.5042.28984.8235.59129 1.6104.92983 2.3808.22464.5123.49751 1.0035.761 1.4984.25634.4818.53725.9512.78958 1.4353.25277.485.56405.9343.8338 1.4081.37692.6619.75742 1.322 1.18392 1.953.623.9218 1.26298 1.8342 1.96592 2.6957.50421.6172 1.01913 1.2281 1.56443 1.814.64127.6894 1.29197 1.3692 1.95517 2.0378.2318.2335.4149.5189.6614.7341.3872.3377.7718.6838 1.213.9544.067.0411.1411.1286.2336.0474.0987-.0867.0245-.1774-.0117-.2595-.092-.2086-.2393-.3819-.3988-.5395-.5801-.5735-1.1736-1.1339-1.7493-1.7118-.5841-.5864-1.1049-1.2271-1.6225-1.8734-.49077-.6131-1.00079-1.2102-1.47195-1.8395-.76502-1.0223-1.50592-2.061-2.16152-3.1574-.67436-1.1281-1.28397-2.2924-1.92707-3.4379-.62746-1.1174-1.09684-2.2996-1.56219-3.4871-.14068-.3599-.30502-.7101-.42116-1.0803-.01428-.0451-.02055-.0813-.00759-.1331.26976.2885.40508.648.55067.9951.26975.6444.62211 1.2464.94277 1.864.36665.7075.78154 1.3885 1.19777 2.0691.40372.661.78065 1.3394 1.18348 2.0017.36933.6078.74626 1.212 1.13078 1.8105.58549.9115 1.23886 1.7761 1.88955 2.6411.3872.5145.73646 1.0585 1.15046 1.5497.3903.4632.7578.9441 1.1558 1.4015 1.062 1.2195 2.2245 2.3405 3.3602 3.4873.48.485 1.0347.882 1.5537 1.3206.8123.6855 1.7113 1.2518 2.6304 1.7774.9459.5409 1.9195 1.0349 2.9668 1.3632.9499.2979 1.8819.6533 2.8586.8641.5167.1117 1.0375.1925 1.5627.2604.7368.0956 1.4742.0916 2.2115.0773.5837-.0112 1.1634-.0791 1.7431-.1657.6792-.101 1.3487-.2358 2.0127-.4082.9031-.234 1.7824-.535 2.6448-.8892.6971-.2864 1.3849-.5959 2.0472-.9523 1.2054-.6475 2.3697-1.363 3.4634-2.1914.5118-.3881.9995-.8021 1.484-1.2219.046-.0397.1023-.067.1724-.1125-.8552 1.8024-8.0352 7.5547-10.3601 8.2778zm16.843-17.9639c-.464-1.1232-1.2295-1.9619-2.2794-2.5394-1.0835-.5957-2.2746-.8217-3.4929-.8892-.5364-.0294-1.0777-.0156-1.6194.0255-.7851.059-1.5591.1652-2.3308.3184-1.1723.2331-2.3044.5922-3.4116 1.0335-.8936.3559-1.7632.7632-2.6054 1.2303-.5029.2787-1.0031.5618-1.4849.8731-.9352.6034-1.8458 1.2398-2.7167 1.9369-.7373.5904-1.4523 1.2049-2.1378 1.8512-.5333.5028-1.0504 1.0249-1.5457 1.5684-.523.5748-1.0343 1.1574-1.5278 1.7577-.602.7333-1.1621 1.497-1.7011 2.2777-.6583.9534-1.2487 1.9475-1.798 2.9671-.0442.0822-.0715.1224-.1773.0608-1.0044-.5846-1.9659-1.2291-2.8863-1.9419-.8097-.6278-1.5797-1.2995-2.3313-1.9927-.5725-.5274-1.1111-1.0914-1.6287-1.6734-.1273-.1424-.2613-.2787-.385-.4237-.5573-.6565-1.1062-1.3201-1.6658-1.9744-.4671-.5466-.8816-1.1325-1.317-1.7033-.41176-.5399-.74939-1.1312-1.16294-1.6685-.5895-.7663-1.07317-1.6024-1.60194-2.4085-.32289-.4926-.61005-1.0088-.92669-1.5054-.63014-.9875-1.20581-2.0057-1.75869-3.0382-.58281-1.0893-1.01556-2.2585-1.74217-3.2705-.27111-.3778-.54085-.7574-.94859-1.0115-.38362-.2394-.5962-.163-.747141.2693-.12372.355-.149628.7244-.169273 1.091-.028122.527.022785 1.0504.12013 1.5743.116134.623.220614 1.2469.409084 1.8534.23984.773.5337 1.526.82844 2.2794.19828.5064.39838 1.0129.66008 1.4885.27689.5029.552 1.0071.85166 1.4983.40372.6619.7878 1.3362 1.19688 1.9954.4323.6958.94768 1.3304 1.44786 1.9758.41043.5296.84943 1.037 1.27906 1.5519.34789.4171.69981.8306 1.05396 1.2499-.02501.0053-.0451.0156-.05225.0098-.39166-.3272-.80119-.6367-1.17008-.9886-.74448-.7101-1.46707-1.4421-2.2236-2.141-.8664-.8008-1.67608-1.6623-2.53087-2.4773-.52655-.502-1.01692-1.0432-1.63143-1.4447-.370215-.2421-.7056-.4274-1.04859-.0907v.6252c.0138356.0134.039287.0259.0401802.0407.0308241.3921.1835378.7538.3019038 1.1214.215692.6712.564944 1.2853.917316 1.8918.67166 1.1571 1.47198 2.224 2.38706 3.2007.46893.5005.93428 1.0039 1.44787 1.4643.66989.6003 1.36345 1.1697 2.05746 1.7404.85658.7038 1.77165 1.3241 2.68003 1.9552.28848.2001.59178.3782.88828.5667-.3251-.0536-.6065-.2077-.88917-.3488-.83603-.4167-1.66179-.8534-2.49157-1.2817-.54306-.28-1.09952-.5364-1.62695-.8436-1.14194-.665-2.26469-1.3626-3.4053-2.0293-.21437-.1251-.41087-.2895-.65739-.3596-.24563-.0701-.49214.0304-.5243.2439-.02233.1492-.03618.3086.0183.46.27512.7681.66097 1.476 1.22726 2.0646.48098.4993.97135.9896 1.50369 1.4416.47205.4006.94991.7896 1.46216 1.1343.78154.5253 1.58407 1.0147 2.40135 1.4846.74849.4301 1.49118.8714 2.29552 1.1795 1.0468.4006 2.049.9115 3.1235 1.2469-.251.0357-.5109.0112-.7387-.0424-.7815-.1854-1.5747-.2939-2.3625-.4359-.878-.1576-1.73904-.3912-2.60543-.6002-.56807-.1367-1.14999-.1934-1.73503-.1983-.24072-.0018-.38988.1684-.40372.3992-.02278.3859.23759.6088.48768.8115.73376.5944 1.54701 1.0701 2.37947 1.5122.58236.309 1.18214.5783 1.80425.7967.24968.0875.49928.1769.75968.2309.5497.1139 1.0986.2322 1.6479.3475.5145.108 1.0258.2358 1.5448.3153.4948.0759.9977.1013 1.5412.1531-.2278.0599-.4077.1193-.5819.2028-.2028.0965-.3028.288-.3171.4618-.0147.1728.1166.3327.3233.4104.7517.2818 1.5024.5618 2.2978.6976.1134.0192.1942.0522.175.1916-.0201.1447-.0442.2903-.0437.4354.0031.8271-.0157 1.6533.0795 2.4795.0759.6636.1799 1.3219.3385 1.9673.263 1.074.6431 2.1088 1.1906 3.0766.5587.9869 1.2353 1.8752 2.0874 2.6358.807.7208 1.7087 1.2732 2.6952 1.7051 1.3907.6091 2.8582.8686 4.3579.9436 1.0142.0509 2.028.0009 3.0378-.1621.7984-.1286 1.5813-.3095 2.354-.539 1.3924-.4145 2.7179-.9879 3.9965-1.6752.6655-.3577 1.3157-.7382 1.9485-1.1491 1.075-.698 2.1035-1.4586 3.0918-2.2767.6794-.5628 1.3243-1.1612 1.9683-1.761.351-.3273.6748-.6851.9986-1.041.2-.2202.3724-.4653.5658-.6918.0723-.0848.0603-.1473-.0161-.205-.3273-.246-.5904-.5591-.8833-.8409-.0621-.0594-.1121-.079-.189-.0138-.5461.4608-1.0937.9204-1.6443 1.3764-.4882.4037-.9674.8195-1.4743 1.1982-.7338.548-1.4684 1.0946-2.2428 1.5872-.9468.6029-1.9302 1.129-2.9753 1.5407-1.2384.4877-2.5277.7222-3.851.7686-.3925.0143-.7895-.0379-1.1839-.0759-.6074-.058-1.1969-.1867-1.7779-.364-1.033-.3153-1.9672-.8186-2.7725-1.5363-.6797-.6046-1.1973-1.3344-1.5787-2.1677-.4626-1.0107-.6529-2.0758-.7078-3.1722-.0331-.6569.0156-1.3121.0897-1.9646.03-.2657.0911-.5274.1282-.7922.0103-.0719.0241-.0911.1-.1054.5092-.0983 1.0205-.1889 1.5229-.3158 1.23-.3108 2.4581-.6328 3.6662-1.0227.8923-.2876 1.777-.5984 2.6554-.928 1.1205-.4203 2.2205-.8856 3.3021-1.3938.7995-.3761 1.5855-.7802 2.359-1.2085.7297-.4042 1.4438-.8347 2.1383-1.2947.9673-.6404 1.9002-1.3274 2.7748-2.0933.6842-.5989 1.3344-1.2286 1.9462-1.9016.6463-.711 1.2353-1.4648 1.7368-2.2831.4757-.777.9504-1.555 1.3246-2.39.4337-.9678.7369-1.9757.8044-3.0293.0678-1.0571.0361-2.1133-.3823-3.127z"/><path d="m32.0657 0c0 .409005.0047.818505-.003 1.22702-.0023.12546.0311.16695.1589.16004.2003-.01038.4017.00296.6022-.00494.1065-.00445.1431.02717.1372.13584-.0107.19956.0637.45198-.0323.58436-.0911.12547-.3595.03557-.5497.03952-.3132.00642-.3114.00197-.3139.31367-.0027.35269-.0934.7538.4539.78936.9705.52509 1.094 1.87559.4496 2.58147-.5154.5651-1.1364.7449-1.8342.50335-.598-.20746-1.0251-.65253-1.1148-1.30308-.1226-.88915.2643-1.54612 1.1115-1.89288.1094-.04495.1327-.08941.1311-.18574-.0043-.25933.0889-.59127-.0371-.75725-.1198-.15757-.472-.04248-.7213-.04248-.1434 0-.196-.03408-.183-.18276.0137-.15462.0067-.31219.0019-.46829-.0034-.1141.0438-.16103.1585-.15856.2155.00445.4316-.00444.647.00346.1085.00444.1375-.03063.1359-.13732-.0058-.401598-.0023-.803195-.0023-1.20479z"/><path d="m30.9493 14.1622c.0001-.3376-.0756-.64-.1147-.9459-.032-.251-.0717-.5011-.1089-.7516-.0088-.059.0193-.1001.0619-.1327.3958-.3036.7522-.652 1.1295-.9838.3138.339.6733.6391.964 1.0071.0556.0705.086.1313.0778.2161-.0449.4627-.0877.9258-.171 1.384-.0131.0715-.0019.1474-.0019.2564.1995-.1814.3603-.3814.5899-.4944.3403-.1675.6834-.213 1.0427-.0554.3023.1326.4001.4033.4566.6864.1083.5413-.0111 1.0643-.1756 1.5783-.1028.3215-.2306.6324-.3897.9312-.0746.1406-.1543.2188-.3282.2063-.2434-.017-.489-.004-.7393-.004.1256-.3524.2641-.6941.294-1.062.0154-.1912.032-.4024-.2182-.477-.2429-.0719-.4061.088-.5114.2496-.3572.5489-.3062 1.4175.3695 1.7873.4991.2733 1.2042.2238 1.6932-.1532.4655-.3586.6636-.8744.8094-1.4121.0959-.3537.1531-.7181.2254-1.0781.0167-.0831.004-.1465-.109-.134-.0735.0085-.1487.0018-.2231.0018-.297 0-.3067-.0009-.2879-.2898.0141-.2166.0537-.4314.0891-.6462.0162-.0979.0999-.0894.176-.092.5092-.0197.4901-.0224.5411-.5311.049-.4894.1478-.974.2135-1.4621.0123-.0911.0402-.1072.1198-.1063.2753.0031.5512.0112.8258-.0027.146-.0076.1436.0719.129.163-.0494.3068-.1056.6123-.1583.9187-.0515.2992-.1031.5989-.1521.8985-.0176.1081-.0023.1943.1437.1684.0361-.0067.0743-.0009.1115-.0009.4524 0 .4529 0 .3671.443-.0053.0277-.033.0514-.0366.0791-.0199.1545.0514.3675-.0961.4439-.1295.067-.3212.0277-.4835.0129-.1744-.0156-.2135.0322-.2451.2175-.0384.2242-.0531.4569-.0568.6726-.0101.6007.0358 1.2197.488 1.6832.2814.2885.6708.4064 1.0726.3707.3487-.0313.6927-.1161.9783-.3501.3917-.3216.7032-1.1031.4036-1.6243-.0734-.1277-.1647-.2211-.3033-.2001-.1394.0206-.2767.0876-.3275.2443-.0811.2506-.0581.5069-.0359.7628.0012.0134.0173.025.0206.0393.0983.414.0239.51-.3956.51-.371 0-.3676-.0013-.4932-.3756-.1859-.5542-.2559-1.1263-.2124-1.7037.031-.4105.1407-.8142.4485-1.1197.4746-.4716 1.2547-.4894 1.7167.1273.1543.2064.2913.4256.4474.6552.0857-.2586.0801-.519.0977-.7708.0174-.2497.0463-.4538.3063-.5788.6254-.301 1.2416-.6212 1.9146-.9607-.2071.6003-.3958 1.1442-.5829 1.6886-.4698 1.3671-.9359 2.7359-1.4095 4.1016-.2555.7368-.5298 1.467-.781 2.2053-.0621.1826-.152.3599-.1846.5484-.0356.2054-.1261.2523-.3301.2523-5.0532-.0071-10.1064-.0067-15.1596-.0013-.1996 0-.2818-.055-.3528-.2528-.4792-1.3322-.9787-2.6577-1.4721-3.985-.5383-1.4483-1.0765-2.8966-1.619-4.3431-.0199-.0532.0115-.1202-.0516-.168.2803.0621.5147.2135.7605.3372.4751.2385.9445.4886 1.4216.7231.1279.0629.1717.1335.1813.28.0221.3354.0798.6685.1279 1.0405.171-.2728.2485-.5426.4079-.7757.2577-.3774.5167-.4314.9912-.3224.6607.1518.94.6498 1.0532 1.2594.1335.719.053 1.4175-.2617 2.0851-.041.0871-.0924.0992-.1701.0987-.1935-.0018-.3881-.0134-.5802.0032-.1746.0151-.1596-.0912-.1421-.1916.0673-.3859.0703-.7642-.041-1.1469-.0537-.1849-.1871-.2416-.3311-.2653-.1387-.0228-.2087.0983-.2584.2193-.3332.8101.2245 1.8829 1.1768 1.9699.4439.0407.8221-.0321 1.1687-.3117.2901-.234.4247-.5547.5088-.8954.1367-.5533.1048-1.1134.0086-1.6721-.0166-.0964-.0719-.0754-.1255-.0763-.1711-.0018-.3424-.0018-.5135 0-.0714.0009-.1196.0022-.1271-.0996-.0181-.2461-.0408-.4944-.0923-.7351-.0282-.1318.01-.1501.1175-.1487.1781.0017.3562.0004.5355.0004-.0674-.5185-.1318-1.0272-.2008-1.5349-.0184-.1358-.0475-.2702-.078-.4038-.0233-.1022-.0245-.1674.1152-.163.2602.009.521.0067.7813.0009.1278-.0027.1513.0554.1696.1729.0946.6069.2095 1.2107.3025 1.818.0167.1095.0584.1135.1384.1104.0744-.0027.1488-.0005.2233-.0005.3452 0 .3504-.0009.3995.322.0174.1143.0246.2304.043.3461.0498.3126.0396.3144-.2825.3144-.1255 0-.2511 0-.3812 0 .0612.3899.1115.7628.1797 1.1321.1015.5502.2391 1.0844.6732 1.4885.422.3931 1.1842.465 1.6894.1773.5425-.309.7469-.7828.7168-1.3826-.0182-.3631-.3182-.6306-.683-.6114-.203.0107-.3301.1429-.3448.3466-.0278.3863.1042.74.2321 1.1267-.3147 0-.615-.0018-.9152.0009-.1003.0013-.1208-.0773-.1439-.1407-.206-.5671-.4011-1.1352-.4741-1.7417-.0424-.3528-.0632-.694.0441-1.0357.2147-.6837.9733-.6935 1.4427-.3979.1813.1144.3392.2658.5299.4176z"/><path d="m40.6953 12.6886c-.0044-.0397-.0144-.0676-.0093-.0929.1197-.5811-.2188-.9068-.626-1.2433-.7966-.6578-1.6692-1.182-2.6001-1.61508-.9508-.44256-1.9298-.80167-2.9682-.99069-.3231-.0591-.6484-.07759-.9714-.12541-.0888-.01354-.1539-.0149-.1661.12721-.0431.50708-.1125 1.01235-.1723 1.51807-.0443.3753-.0909.7511-.1318 1.1269-.0053.0488-.0146.097-.0551.1097-.0468.0144-.0726-.0411-.1026-.0709-.2744-.2729-.5565-.5386-.8174-.8237-.1213-.1327-.1806-.1047-.2917.0067-.3494.3501-.7118.6867-1.0978 1.0557-.0936-.6312-.1781-1.2348-.2741-1.83659-.0628-.39339-.1423-.78452-.1762-1.18197-.0113-.13308-.1127-.0794-.1678-.07398-.5898.05819-1.1698.17413-1.7309.36361-1.2307.4164-2.3698 1.02137-3.4426 1.74683-.5306.3586-1.0194.7759-1.4939 1.2085-.1407.1282-.1961.2604-.1795.4435.0126.139.0025.2797.0025.4403-.364-.1606-.7103-.3104-1.0542-.4656-.2548-.115-.5046-.2413-.7604-.3541-.1122-.0496-.1229-.0807-.0356-.1795.9444-1.0683 2.0209-1.97736 3.2408-2.71677 1.2406-.75159 2.5589-1.31506 3.9721-1.65205.6348-.15113 1.2747-.26121 1.9265-.31715.5654-.04872 1.1316-.11413 1.697-.0785.9709.06136 1.9372.15068 2.89.38572.9505.23459 1.8668.54362 2.7607.94152.9792.43534 1.881.9961 2.7274 1.64077.666.50706 1.2891 1.07146 1.827 1.72106.0776.0939.0588.1263-.0385.1755-.5505.2757-1.0968.5603-1.6805.8066z"/><path d="m37.4248 6.5397c.0004.44172-.3433.78024-.785.7862-.3994.00505-.7462-.31604-.7745-.77611-.0253-.40916.3723-.80042.7867-.78666.3663.01238.796.31237.7728.77657z"/><path d="m38.5982 6.60931c.4359-.00816.7849.37115.7905.78358.0053.39474-.384.7922-.7961.77314-.3804-.01815-.7633-.28766-.7706-.77768-.0061-.40971.3866-.82804.7762-.77904z"/><path d="m21.6244 8.79813c.441.00267.8025.35236.7939.7744-.0089.43587-.3841.80207-.7896.78287-.4528-.021-.7471-.3166-.7692-.77841-.0214-.44838.3998-.80387.7649-.77886z"/><path d="m42.8733 9.65247c.046.40823-.3815.80473-.7272.79853-.5021-.0085-.8032-.3863-.8261-.81058-.0225-.41847.3694-.74403.8161-.75609.3564-.00893.7895.34656.7372.76814z"/><path d="m27.5551 6.60727c0 .4501-.3016.76912-.7367.75949-.5264-.011-.7708-.32772-.8179-.75124-.0429-.38548.3965-.81083.8094-.8067.3738.00366.8153.38684.7452.79845z"/><path d="m39.7472 8.35821c-.0806-.3808.3458-.7795.73-.77323.3723.00626.8021.3177.7984.76383-.0035.42017-.3796.7974-.7969.80679-.3544.0085-.8033-.40451-.7315-.79739z"/><path d="m24.9816 6.65449c.4961-.02357.7726.35583.7841.76243.0109.3862-.3826.81274-.7525.79234-.431-.02357-.8251-.37849-.8103-.82634.0133-.40161.3516-.72843.7787-.72843z"/><path d="m34.6316 5.27025c.4228-.03372.7663.32332.7821.74825.0144.38614-.4138.83647-.7869.79906-.4392-.04434-.7705-.33302-.7775-.81984-.0052-.36166.3507-.76812.7823-.72747z"/><path d="m24.027 8.48992c.0042.45915-.3667.78698-.7536.79324-.3959.0067-.77-.37027-.7748-.79949-.0043-.38769.3807-.76912.7703-.76912.4015-.00044.7963.38903.7581.77537z"/><path d="m29.5201 5.99785c.0231.41179-.3192.78433-.7586.78479-.435.00047-.7649-.36146-.7612-.76125.0039-.43255.2969-.75109.704-.75155.5086-.00092.8144.27191.8158.72801z"/><path d="m24.9583 69.663c0 .2188-.0683.4193-.1959.606-.1321.1822-.3736.3827-.7198.6011-.4555.2872-.5876.4283-.6422.6016h1.5534v.4644h-2.1776c0-.4917.2324-.8927.7289-1.2254.164-.109.328-.2229.4829-.3368.3097-.2277.451-.4559.451-.6971 0-.3555-.2005-.5605-.5376-.5605-.3508 0-.5284.2416-.5466.7972h-.5193c.0136-.7744.4373-1.2299 1.0978-1.2299.6333 0 1.025.41 1.025.9794z"/><path d="m26.3977 71.5673c.3872 0 .5831-.3872.5831-1.2255 0-.8338-.2049-1.2255-.5876-1.2255s-.5786.4145-.5786 1.2255c0 .8338.2004 1.2255.5831 1.2255zm1.1025-1.2255c0 1.0477-.3782 1.6582-1.1025 1.6582s-1.1024-.606-1.1024-1.6582c0-1.0477.3735-1.6582 1.1024-1.6582.7335 0 1.1025.606 1.1025 1.6582z"/><path d="m29.2584 68.7474v3.1887h-.5694v-2.2504h-.7836v-.4099c.5376 0 .8702-.2006.9294-.5284z"/><path d="m31.4267 70.4374c.3827 0 .5786-.3189.5786-.6695 0-.351-.2096-.6516-.5831-.6516-.369 0-.5512.3144-.5512.6516s.1822.6695.5557.6695zm1.148-.0911c0 .7565-.3006 1.6537-1.2026 1.6537-.5057 0-.9339-.3506-.9613-.87h.5194c.0228.2595.2004.4373.4646.4373.5604 0 .6287-.6744.6606-1.0933l-.0091-.009c-.1367.2457-.41.3823-.6879.3823-.6332 0-1.0068-.4644-1.0068-1.0749 0-.6561.4465-1.0888 1.0979-1.0888.9703 0 1.1252.8699 1.1252 1.6627z"/></g></svg>