<svg fill="none" height="48" viewBox="0 0 244 48" width="244" xmlns="http://www.w3.org/2000/svg"><g fill="#fff"><path d="m79.1 22.3c-1.24 0-2.3334-.2333-3.28-.7-.9467-.48-1.6534-1.0333-2.12-1.66l1.88-1.84c.4.4267.8733.7933 1.42 1.1.56.2933 1.1866.44 1.88.44.7066 0 1.26-.16 1.66-.48s.6-.7.6-1.14c0-.4533-.2067-.8067-.62-1.06-.4134-.2533-1.06-.5267-1.94-.82-.9067-.3067-1.6467-.6-2.22-.88-.5734-.2933-1.0667-.72-1.48-1.28-.4134-.56-.62-1.2867-.62-2.18 0-.7733.2133-1.4733.64-2.09999.4266-.62666 1.02-1.11333 1.78-1.46.76-.36 1.6133-.54 2.56-.54 1.0666 0 2.02.20667 2.86.62.8533.4 1.48.85334 1.88 1.36l-1.88 1.83999c-.3067-.3067-.6934-.58-1.16-.82-.4667-.24-.9667-.36-1.5-.36-.6534 0-1.16.14-1.52.42-.3467.28-.52.62-.52 1.02 0 .4533.2066.8067.62 1.06.4133.2533 1.0666.5267 1.96.82.9066.3067 1.6466.6067 2.22.9.5733.28 1.0666.7 1.48 1.26.4133.56.62 1.2867.62 2.18 0 .7733-.2134 1.4933-.64 2.16-.4267.6533-1.0334 1.1733-1.82 1.56-.7867.3867-1.7.58-2.74.58z"/><path d="m85.9484 22v-9.7h2.7v1.38h.06c.1867-.4.52-.76 1-1.08.48-.3333 1.0467-.5 1.7-.5.6667 0 1.2467.1733 1.74.52.4933.3333.84.7067 1.04 1.12h.08c.2267-.4133.6333-.7867 1.22-1.12.6-.3467 1.2867-.52 2.06-.52.6267 0 1.1933.1667 1.7.5.52.3333.9336.8133 1.2396 1.44.307.6267.46 1.36.46 2.2v5.76h-2.6996v-5.5c0-.5867-.1533-1.04-.46-1.36-.2933-.3333-.6733-.5-1.14-.5-.5333 0-.9733.1933-1.32.58s-.52.9133-.52 1.58v5.2h-2.7v-5.5c0-.5867-.1533-1.04-.46-1.36-.2933-.3333-.6733-.5-1.14-.5-.5467 0-.9933.1933-1.34.58s-.52.9133-.52 1.58v5.2z"/><path d="m106.848 12.1c.827 0 1.56.1733 2.2.52.654.3333 1.16.7933 1.52 1.38.36.5733.54 1.2067.54 1.9v6.1h-2.56v-1.34h-.06c-.24.3867-.62.74-1.14 1.06s-1.113.48-1.78.48c-.613 0-1.166-.1267-1.66-.38-.48-.2533-.86-.5933-1.14-1.02-.28-.44-.42-.9067-.42-1.4 0-.8267.26-1.5067.78-2.04s1.26-.8933 2.22-1.08l3.06-.58c-.026-.3867-.2-.7133-.52-.98-.306-.28-.7-.42-1.18-.42-.826 0-1.58.38-2.26 1.14l-1.54-1.48c.427-.5067.974-.94 1.64-1.3.68-.3733 1.447-.56 2.3-.56zm-.5 7.94c.587 0 1.074-.2067 1.46-.62.4-.4133.6-.9533.6-1.62v-.32l-2.1.42c-.373.0667-.666.2067-.88.42-.213.2-.32.4267-.32.68 0 .3067.107.56.32.76.227.1867.534.28.92.28z"/><path d="m113.112 22v-9.7h2.7v1.2h.06c.24-.36.6-.68 1.08-.96.494-.2933 1.047-.44 1.66-.44h.46v2.9c-.32-.1067-.62-.16-.9-.16-.693 0-1.26.24-1.7.72-.44.4667-.66 1.0933-.66 1.88v4.56z"/><path d="m124.329 22.1c-1.014 0-1.814-.3067-2.4-.92-.574-.6133-.86-1.4733-.86-2.58v-3.8h-1.6v-2.5h.86c.32 0 .573-.1.76-.3.186-.2.28-.4867.28-.86v-1.93999h2.4v3.09999h2.1v2.5h-2.1v3.4c0 .44.106.7733.32 1 .226.2267.54.34.94.34.373 0 .72-.08 1.04-.24v2.5c-.2.08-.46.1467-.78.2-.32.0667-.64.1-.96.1z"/><path d="m134.919 22.3c-1.426 0-2.72-.3267-3.88-.98s-2.073-1.5333-2.74-2.64c-.653-1.12-.98-2.3467-.98-3.68s.327-2.56.98-3.68c.667-1.12 1.58-1.99999 2.74-2.63999 1.16-.65333 2.454-.98 3.88-.98 1.347 0 2.527.26667 3.54.8 1.014.53334 1.834 1.16667 2.46 1.89999l-2.02 1.8c-.52-.52-1.093-.94-1.72-1.26-.613-.3333-1.366-.5-2.26-.5-.84 0-1.613.2-2.32.6-.693.4-1.24.9533-1.64 1.66-.4.6933-.6 1.46-.6 2.3s.2 1.6067.6 2.3.947 1.24 1.64 1.64c.707.4 1.48.6 2.32.6.907 0 1.674-.16 2.3-.48.64-.3333 1.227-.7733 1.76-1.32l2.04 1.8c-.653.76-1.5 1.4133-2.54 1.96-1.026.5333-2.213.8-3.56.8z"/><path d="m146.662 22.2c-.96 0-1.84-.2267-2.64-.68-.787-.4533-1.414-1.0667-1.88-1.84-.454-.7733-.68-1.62-.68-2.54s.226-1.7667.68-2.54c.466-.7733 1.093-1.38 1.88-1.82.8-.4533 1.68-.68 2.64-.68.973 0 1.853.2267 2.64.68.8.44 1.426 1.0467 1.88 1.82.453.7733.68 1.62.68 2.54s-.227 1.7667-.68 2.54c-.454.7733-1.08 1.3867-1.88 1.84-.787.4533-1.667.68-2.64.68zm0-2.5c.68 0 1.26-.2467 1.74-.74s.72-1.1.72-1.82-.24-1.32-.72-1.8c-.48-.4933-1.06-.74-1.74-.74s-1.26.2467-1.74.74c-.467.48-.7 1.08-.7 1.8s.233 1.3267.7 1.82c.48.4933 1.06.74 1.74.74z"/><path d="m153.359 22v-9.7h2.7v1.38h.06c.24-.4.613-.76 1.12-1.08.52-.3333 1.113-.5 1.78-.5.706 0 1.333.1667 1.88.5.546.3333.973.8133 1.28 1.44.32.6133.48 1.3467.48 2.2v5.76h-2.7v-5.4c0-.6-.167-1.0733-.5-1.42-.334-.36-.767-.54-1.3-.54-.614 0-1.12.2133-1.52.64-.387.4133-.58.9533-.58 1.62v5.1z"/><path d="m168.52 22.1c-1.013 0-1.813-.3067-2.4-.92-.573-.6133-.86-1.4733-.86-2.58v-3.8h-1.6v-2.5h.86c.32 0 .573-.1.76-.3s.28-.4867.28-.86v-1.93999h2.4v3.09999h2.1v2.5h-2.1v3.4c0 .44.107.7733.32 1 .227.2267.54.34.94.34.373 0 .72-.08 1.04-.24v2.5c-.2.08-.46.1467-.78.2-.32.0667-.64.1-.96.1z"/><path d="m171.851 22v-9.7h2.7v1.2h.06c.24-.36.6-.68 1.08-.96.493-.2933 1.046-.44 1.66-.44h.46v2.9c-.32-.1067-.62-.16-.9-.16-.694 0-1.26.24-1.7.72-.44.4667-.66 1.0933-.66 1.88v4.56z"/><path d="m183.412 22.2c-.96 0-1.84-.2267-2.64-.68-.787-.4533-1.414-1.0667-1.88-1.84-.454-.7733-.68-1.62-.68-2.54s.226-1.7667.68-2.54c.466-.7733 1.093-1.38 1.88-1.82.8-.4533 1.68-.68 2.64-.68.973 0 1.853.2267 2.64.68.8.44 1.426 1.0467 1.88 1.82.453.7733.68 1.62.68 2.54s-.227 1.7667-.68 2.54c-.454.7733-1.08 1.3867-1.88 1.84-.787.4533-1.667.68-2.64.68zm0-2.5c.68 0 1.26-.2467 1.74-.74s.72-1.1.72-1.82-.24-1.32-.72-1.8c-.48-.4933-1.06-.74-1.74-.74s-1.26.2467-1.74.74c-.467.48-.7 1.08-.7 1.8s.233 1.3267.7 1.82c.48.4933 1.06.74 1.74.74z"/><path d="m192.909 22h-2.7v-13.99999h2.7z"/><path d="m78.248 38.16c-.64 0-1.216-.1547-1.728-.464-.5014-.3093-.8587-.6507-1.072-1.024h-.016v1.328h-1.088v-11.2h1.088v4.848h.016c.2133-.3733.5706-.7147 1.072-1.024.512-.3093 1.088-.464 1.728-.464s1.232.176 1.776.528c.5546.3413.9973.816 1.328 1.424.3306.608.496 1.2907.496 2.048s-.1654 1.44-.496 2.048c-.3307.608-.7734 1.088-1.328 1.44-.544.3413-1.136.512-1.776.512zm-.128-1.056c.4693 0 .9066-.128 1.312-.384.4053-.256.7253-.608.96-1.056.2453-.448.368-.9493.368-1.504 0-.5653-.1227-1.072-.368-1.52-.2347-.448-.5547-.7947-.96-1.04-.4054-.256-.8427-.384-1.312-.384-.4907 0-.944.128-1.36.384-.4054.2453-.7307.592-.976 1.04-.2347.448-.352.9547-.352 1.52 0 .5547.1173 1.056.352 1.504.2453.448.5706.8.976 1.056.416.256.8693.384 1.36.384z"/><path d="m88.6741 30.32h1.136l-3.312 8.88c-.2774.7467-.6134 1.2907-1.008 1.632-.384.352-.8747.528-1.472.528-.3307 0-.6347-.064-.912-.192v-1.056c.096.0533.2133.1013.352.144.1493.0427.304.064.464.064.6613 0 1.1413-.384 1.44-1.152l.464-1.152-3.392-7.696h1.184l2.768 6.352h.032z"/><path d="m94.4178 38v-11.2h4.192c.6934 0 1.3174.1547 1.8722.464.565.3093 1.008.736 1.328 1.28.32.5333.48 1.12.48 1.76s-.16 1.232-.48 1.776c-.32.5333-.763.9547-1.328 1.264-.5548.3093-1.1788.464-1.8722.464h-2.992v4.192zm4.192-5.328c.7254 0 1.3174-.224 1.7762-.672.469-.448.704-1.0133.704-1.696 0-.448-.107-.848-.32-1.2-.214-.3627-.507-.6453-.8802-.848-.3733-.2133-.8-.32-1.28-.32h-2.992v4.736z"/><path d="m103.869 38v-11.2h1.088v4.752h.016c.203-.3627.528-.6827.976-.96.459-.288.971-.432 1.536-.432.587 0 1.115.1387 1.584.416s.837.6667 1.104 1.168.4 1.0773.4 1.728v4.528h-1.088v-4.528c0-.672-.203-1.216-.608-1.632-.395-.416-.901-.624-1.52-.624-.448 0-.853.112-1.216.336-.363.2133-.651.512-.864.896s-.32.816-.32 1.296v4.256z"/><path d="m115.391 30.16c.587 0 1.104.128 1.552.384.459.256.816.6133 1.072 1.072.256.448.384.9653.384 1.552v4.832h-1.04v-1.232h-.016c-.202.352-.544.672-1.024.96s-1.029.432-1.648.432c-.501 0-.949-.1013-1.344-.304-.384-.2027-.688-.4693-.912-.8-.213-.3413-.32-.704-.32-1.088 0-.6187.214-1.136.64-1.552.427-.4267 1.03-.704 1.808-.832l2.784-.464v-.016c0-.576-.181-1.04-.544-1.392-.352-.352-.816-.528-1.392-.528-.448 0-.842.1013-1.184.304-.33.192-.65.448-.96.768l-.72-.688c.32-.3947.726-.7253 1.216-.992.491-.2773 1.04-.416 1.648-.416zm-.608 7.008c.47 0 .896-.112 1.28-.336.395-.224.704-.528.928-.912.224-.3947.336-.832.336-1.312v-.544l-2.528.416c-.544.096-.949.2667-1.216.512-.266.2453-.4.5493-.4.912 0 .352.144.6507.432.896.299.2453.688.368 1.168.368z"/><path d="m120.442 38v-7.68h1.088v1.2h.016c.203-.352.528-.6667.976-.944.459-.2773.976-.416 1.552-.416h.352v1.12c-.149-.0213-.299-.032-.448-.032-.448 0-.859.112-1.232.336s-.672.5333-.896.928c-.213.3947-.32.8373-.32 1.328v4.16z"/><path d="m125.605 38v-7.68h1.088v1.184h.016c.16-.3413.437-.6507.832-.928.405-.2773.885-.416 1.44-.416.586 0 1.098.16 1.536.48.437.32.746.672.928 1.056h.032c.17-.384.485-.736.944-1.056.469-.32 1.029-.48 1.68-.48.522 0 .997.1387 1.424.416.437.2667.784.6507 1.04 1.152.256.4907.384 1.0613.384 1.712v4.56h-1.088v-4.56c0-.6827-.182-1.2213-.544-1.616-.363-.4053-.822-.608-1.376-.608-.608 0-1.115.2293-1.52.688-.395.448-.592 1.0507-.592 1.808v4.288h-1.088v-4.56c0-.6827-.187-1.2213-.56-1.616-.363-.4053-.822-.608-1.376-.608-.608 0-1.115.2293-1.52.688-.395.448-.592 1.0507-.592 1.808v4.288z"/><path d="m141.769 30.16c.587 0 1.104.128 1.552.384.459.256.816.6133 1.072 1.072.256.448.384.9653.384 1.552v4.832h-1.04v-1.232h-.016c-.202.352-.544.672-1.024.96s-1.029.432-1.648.432c-.501 0-.949-.1013-1.344-.304-.384-.2027-.688-.4693-.912-.8-.213-.3413-.32-.704-.32-1.088 0-.6187.214-1.136.64-1.552.427-.4267 1.03-.704 1.808-.832l2.784-.464v-.016c0-.576-.181-1.04-.544-1.392-.352-.352-.816-.528-1.392-.528-.448 0-.842.1013-1.184.304-.33.192-.65.448-.96.768l-.72-.688c.32-.3947.726-.7253 1.216-.992.491-.2773 1.04-.416 1.648-.416zm-.608 7.008c.47 0 .896-.112 1.28-.336.395-.224.704-.528.928-.912.224-.3947.336-.832.336-1.312v-.544l-2.528.416c-.544.096-.949.2667-1.216.512-.266.2453-.4.5493-.4.912 0 .352.144.6507.432.896.299.2453.688.368 1.168.368z"/><path d="m147.064 38h-1.248l2.864-4-2.624-3.68h1.296l2.032 2.928h.032l2.016-2.928h1.264l-2.624 3.68 2.864 4h-1.312l-2.256-3.248h-.032z"/><path d="m157.281 38.16c-.704 0-1.355-.176-1.952-.528-.598-.3627-1.072-.848-1.424-1.456s-.528-1.28-.528-2.016.176-1.408.528-2.016.826-1.088 1.424-1.44c.597-.3627 1.248-.544 1.952-.544s1.354.1813 1.952.544c.597.352 1.072.832 1.424 1.44s.528 1.28.528 2.016-.176 1.408-.528 2.016-.827 1.0933-1.424 1.456c-.598.352-1.248.528-1.952.528zm0-1.056c.512 0 .981-.128 1.408-.384.437-.256.778-.608 1.024-1.056.256-.4587.384-.96.384-1.504s-.128-1.04-.384-1.488c-.246-.4587-.587-.816-1.024-1.072-.427-.256-.896-.384-1.408-.384s-.987.128-1.424.384c-.427.256-.768.6133-1.024 1.072-.246.448-.368.944-.368 1.488s.122 1.0453.368 1.504c.256.448.597.8 1.024 1.056.437.256.912.384 1.424.384z"/><path d="m166.505 38v-11.2h3.472c1.088 0 2.075.2507 2.96.752.896.5013 1.6 1.184 2.112 2.048.512.8533.768 1.7867.768 2.8s-.256 1.952-.768 2.816c-.512.8533-1.216 1.5307-2.112 2.032-.885.5013-1.872.752-2.96.752zm3.472-1.136c.886 0 1.68-.1973 2.384-.592s1.254-.928 1.648-1.6c.406-.6827.608-1.44.608-2.272s-.202-1.5893-.608-2.272c-.394-.6827-.944-1.216-1.648-1.6-.704-.3947-1.498-.592-2.384-.592h-2.272v8.928z"/><path d="m178.779 38h-1.088v-7.68h1.088zm-.544-9.36c-.192 0-.363-.0693-.512-.208-.139-.1387-.208-.3093-.208-.512s.069-.3733.208-.512c.149-.1387.32-.208.512-.208.202 0 .373.0693.512.208.149.1387.224.3093.224.512s-.075.3733-.224.512c-.139.1387-.31.208-.512.208z"/><path d="m183.744 30.16c.587 0 1.104.128 1.552.384.459.256.816.6133 1.072 1.072.256.448.384.9653.384 1.552v4.832h-1.04v-1.232h-.016c-.202.352-.544.672-1.024.96s-1.029.432-1.648.432c-.501 0-.949-.1013-1.344-.304-.384-.2027-.688-.4693-.912-.8-.213-.3413-.32-.704-.32-1.088 0-.6187.214-1.136.64-1.552.427-.4267 1.03-.704 1.808-.832l2.784-.464v-.016c0-.576-.181-1.04-.544-1.392-.352-.352-.816-.528-1.392-.528-.448 0-.842.1013-1.184.304-.33.192-.65.448-.96.768l-.72-.688c.32-.3947.726-.7253 1.216-.992.491-.2773 1.04-.416 1.648-.416zm-.608 7.008c.47 0 .896-.112 1.28-.336.395-.224.704-.528.928-.912.224-.3947.336-.832.336-1.312v-.544l-2.528.416c-.544.096-.949.2667-1.216.512-.266.2453-.4.5493-.4.912 0 .352.144.6507.432.896.299.2453.688.368 1.168.368z"/><path d="m191.867 41.36c-.693 0-1.344-.1707-1.952-.512-.608-.3307-1.045-.6933-1.312-1.088l.784-.72c.203.3093.534.5973.992.864.47.2667.966.4 1.488.4.768 0 1.392-.2667 1.872-.8s.72-1.216.72-2.048v-1.072h-.016c-.266.448-.645.8053-1.136 1.072-.49.256-1.008.384-1.552.384-.629 0-1.21-.1653-1.744-.496-.533-.3307-.96-.7893-1.28-1.376-.309-.5867-.464-1.2427-.464-1.968s.155-1.3813.464-1.968c.32-.5867.747-1.0453 1.28-1.376.534-.3307 1.115-.496 1.744-.496.608 0 1.152.1493 1.632.448s.832.6293 1.056.992h.016v-1.28h1.088v7.136c0 .736-.16 1.3973-.48 1.984-.32.5973-.762 1.0667-1.328 1.408-.554.3413-1.178.512-1.872.512zm.016-4.576c.48 0 .912-.1173 1.296-.352.395-.2453.704-.576.928-.992.235-.4267.352-.9067.352-1.44s-.117-1.0133-.352-1.44c-.224-.4267-.533-.7573-.928-.992-.384-.2347-.816-.352-1.296-.352-.458 0-.885.1173-1.28.352-.384.2347-.688.5653-.912.992s-.336.9067-.336 1.44.112 1.0133.336 1.44c.224.416.528.7467.912.992.395.2347.822.352 1.28.352z"/><path d="m197.676 38v-7.68h1.088v1.232h.016c.203-.3627.528-.6827.976-.96.459-.288.971-.432 1.536-.432.587 0 1.115.1387 1.584.416.47.2773.838.6667 1.104 1.168.267.5013.4 1.0773.4 1.728v4.528h-1.088v-4.528c0-.672-.202-1.216-.608-1.632-.394-.416-.901-.624-1.52-.624-.448 0-.853.112-1.216.336-.362.2133-.65.512-.864.896-.213.384-.32.816-.32 1.296v4.256z"/><path d="m209.809 38.16c-.704 0-1.355-.176-1.952-.528-.598-.3627-1.072-.848-1.424-1.456s-.528-1.28-.528-2.016.176-1.408.528-2.016.826-1.088 1.424-1.44c.597-.3627 1.248-.544 1.952-.544s1.354.1813 1.952.544c.597.352 1.072.832 1.424 1.44s.528 1.28.528 2.016-.176 1.408-.528 2.016-.827 1.0933-1.424 1.456c-.598.352-1.248.528-1.952.528zm0-1.056c.512 0 .981-.128 1.408-.384.437-.256.778-.608 1.024-1.056.256-.4587.384-.96.384-1.504s-.128-1.04-.384-1.488c-.246-.4587-.587-.816-1.024-1.072-.427-.256-.896-.384-1.408-.384s-.987.128-1.424.384c-.427.256-.768.6133-1.024 1.072-.246.448-.368.944-.368 1.488s.122 1.0453.368 1.504c.256.448.597.8 1.024 1.056.437.256.912.384 1.424.384z"/><path d="m217.554 38.16c-.608 0-1.168-.1387-1.68-.416s-.901-.5867-1.168-.928l.736-.72c.213.2667.512.5067.896.72s.795.32 1.232.32c.544 0 .965-.1227 1.264-.368.309-.256.464-.576.464-.96 0-.3307-.144-.5813-.432-.752s-.731-.3413-1.328-.512c-.533-.1707-.971-.3307-1.312-.48-.331-.1493-.613-.368-.848-.656s-.352-.656-.352-1.104c0-.3733.107-.72.32-1.04.224-.3307.533-.5973.928-.8.405-.2027.859-.304 1.36-.304.555 0 1.045.1067 1.472.32s.784.4693 1.072.768l-.736.72c-.523-.5227-1.125-.784-1.808-.784-.469 0-.843.112-1.12.336-.267.2133-.4.4747-.4.784 0 .32.139.5653.416.736.288.16.725.3253 1.312.496.533.16.965.32 1.296.48.341.1493.629.368.864.656.245.288.368.6667.368 1.136 0 .4267-.117.8213-.352 1.184-.224.352-.549.6347-.976.848s-.923.32-1.488.32z"/><path d="m224.76 38.08c-.672 0-1.194-.192-1.568-.576-.362-.3947-.544-.9653-.544-1.712v-4.416h-1.488v-1.056h.976c.192 0 .342-.0587.448-.176.118-.128.176-.3147.176-.56v-1.824h.976v2.56h1.888v1.056h-1.888v4.352c0 .416.102.736.304.96.214.224.502.336.864.336.31 0 .635-.08.976-.24v1.056c-.128.064-.293.1173-.496.16-.202.0533-.41.08-.624.08z"/><path d="m228.463 38h-1.088v-7.68h1.088zm-.544-9.36c-.192 0-.362-.0693-.512-.208-.138-.1387-.208-.3093-.208-.512s.07-.3733.208-.512c.15-.1387.32-.208.512-.208.203 0 .374.0693.512.208.15.1387.224.3093.224.512s-.074.3733-.224.512c-.138.1387-.309.208-.512.208z"/><path d="m233.989 38.16c-.694 0-1.339-.176-1.936-.528-.587-.3627-1.056-.848-1.408-1.456-.341-.608-.512-1.28-.512-2.016s.171-1.408.512-2.016c.352-.608.821-1.088 1.408-1.44.597-.3627 1.242-.544 1.936-.544.704 0 1.322.16 1.856.48.544.3093.97.672 1.28 1.088l-.8.656c-.63-.7787-1.408-1.168-2.336-1.168-.502 0-.966.128-1.392.384-.416.256-.752.6133-1.008 1.072-.245.448-.368.944-.368 1.488s.123 1.0453.368 1.504c.256.448.592.8 1.008 1.056.426.256.89.384 1.392.384.522 0 .981-.1173 1.376-.352s.725-.5173.992-.848l.8.656c-.31.4267-.741.8-1.296 1.12-.544.32-1.168.48-1.872.48z"/><path d="m240.798 38.16c-.608 0-1.168-.1387-1.68-.416s-.902-.5867-1.168-.928l.736-.72c.213.2667.512.5067.896.72s.794.32 1.232.32c.544 0 .965-.1227 1.264-.368.309-.256.464-.576.464-.96 0-.3307-.144-.5813-.432-.752s-.731-.3413-1.328-.512c-.534-.1707-.971-.3307-1.312-.48-.331-.1493-.614-.368-.848-.656-.235-.288-.352-.656-.352-1.104 0-.3733.106-.72.32-1.04.224-.3307.533-.5973.928-.8.405-.2027.858-.304 1.36-.304.554 0 1.045.1067 1.472.32.426.2133.784.4693 1.072.768l-.736.72c-.523-.5227-1.126-.784-1.808-.784-.47 0-.843.112-1.12.336-.267.2133-.4.4747-.4.784 0 .32.138.5653.416.736.288.16.725.3253 1.312.496.533.16.965.32 1.296.48.341.1493.629.368.864.656.245.288.368.6667.368 1.136 0 .4267-.118.8213-.352 1.184-.224.352-.55.6347-.976.848-.427.2133-.923.32-1.488.32z"/><path d="m60 0h1v48h-1z"/></g><circle cx="24" cy="24" fill="#1565c0" r="24"/><path d="m16.5517 27.0894c.3353.578.956.9379 1.6195.9379 1.0347 0 1.8762-.8419 1.8762-1.8767 0-.3312-.0856-.6549-.2485-.9362-.6059-1.048-.9259-2.2401-.9259-3.4483 0-3.8055 3.0956-6.9018 6.9017-6.9018 1.0339 0 1.875-.8415 1.875-1.8761 0-1.0342-.8388-1.8758-1.8692-1.8758-5.8769 0-10.6579 4.7794-10.6579 10.6537 0 1.8654.4941 3.7062 1.4291 5.3233z" fill="#fff"/><path d="m20.1214 21.7661c0-1.6393.6977-3.1153 1.8123-4.1477-.0963 1.1668.471 2.3392 1.5527 2.9636.4835.2797 1.0209.4212 1.5594.4212.961-.0006 1.9336.2395 2.8246.754 1.4202.8201 2.3496 2.1623 2.6866 3.644-.9629-.6668-2.2624-.7621-3.3432-.1378-.4845.2793-.8748.6734-1.1445 1.1393-.48.834-1.1743 1.5558-2.0658 2.0702-1.4199.8191-3.0468.9531-4.498.5048 1.0578-.5012 1.7898-1.5783 1.7898-2.8271 0-.5582-.1458-1.0946-.4147-1.5606-.4812-.8325-.7592-1.7954-.7592-2.8239z" fill="#fff"/><path d="m32.6497 32.919c-.3282 0-.6536-.0871-.9412-.2535-.896-.5174-1.2047-1.6662-.6869-2.5617 1.9016-3.296.7688-7.5251-2.5266-9.4281-1.0443-.6028-2.2349-.9215-3.4434-.9215-.3308 0-.6539-.0876-.9419-.2535-.8953-.5176-1.2026-1.6673-.6858-2.5631.3311-.574.9528-.9317 1.6219-.9332 1.8704 0 3.7097.4925 5.3242 1.4244 2.463 1.4223 4.2256 3.7202 4.9622 6.471.7364 2.7499.3582 5.6216-1.0647 8.0858-.332.5758-.9529.9334-1.6178.9334z" fill="#fff"/><path d="m11.9477 28.8985c1.897 3.2878 5.4384 5.3307 9.2413 5.3307 1.8586 0 3.696-.4939 5.3142-1.428 1.6157-.933 2.9621-2.2812 3.8942-3.8984.3337-.5788.3354-1.2963.0033-1.8714-.4976-.8617-1.6944-1.1893-2.5623-.6865-.2868.165-.5241.4008-.6873.6821-.6047 1.0495-1.4768 1.9234-2.5238 2.5272-1.0487.6053-2.2403.9255-3.4442.9255-2.4609 0-4.7536-1.3226-5.9837-3.4518-.4959-.8611-1.6921-1.1873-2.5619-.6851-.8955.5165-1.2055 1.6633-.6898 2.5557z" fill="#fff"/></svg>