<svg fill="none" height="58" viewBox="0 0 245 58" width="245" xmlns="http://www.w3.org/2000/svg"><g fill="#000"><path d="m23.9501 12c5.1892 0 8.5821 2.5 11.1767 5.4.1996.2.2994.4.499.6s.2994.4.4989.6c.8982 1.1 1.5967 2.3 2.2953 3.3.4989.7.8981 1.4 1.397 2 .1996.2.2994.4.499.6s.2994.4.499.6c1.896 2.3 3.7921 3.8 6.5862 4 .3992-1.7.5988-3.4.5988-5.2s-.1996-3.6-.5988-5.2c-2.7941.2-4.6902 1.6-6.5862 4-.2994-.5-.6986-1-1.0977-1.6-.7984-1.1-1.5967-2.4-2.5946-3.7 1.9958-2.3 4.4906-4.3 7.8835-5.1-4.1912-7.3-12.0748-12.3-21.0561-12.3s-16.86486 5-20.95634 12.3c3.39293.8 5.78794 2.8 7.88354 5.1.1996.2.2994.4.499.6s.2994.4.499.6c.9979 1.2 1.7962 2.5 2.5946 3.7.3991.6.6985 1.1 1.0977 1.6.1996.2.2993.4.4989.7.1996.2.2994.4.499.7 2.0956 2.9 4.1913 4.9 7.4844 4.9s5.3888-2 7.4844-4.9c.1996.4.499.7.6985 1.1.8982 1.3 1.7963 2.8 2.894 4.1-2.4948 2.9-5.9875 5.4-11.1767 5.4s-8.5821-2.5-11.1767-5.4c-.1996-.2-.2994-.4-.499-.6s-.2993-.4-.4989-.6c-.8982-1.1-1.5967-2.3-2.29525-3.3-.49896-.7-.89813-1.4-1.39709-2-.19958-.2-.29938-.4-.49896-.6s-.29938-.4-.49896-.6c-1.89605-2.3-3.7921-3.8-6.58628-4-.299376 1.6-.49896 3.4-.49896 5.2s.199584 3.6.598753 5.2c2.794177-.2 4.690227-1.6 6.586277-4 .29938.5.69855 1 1.09771 1.6.79834 1.1 1.59668 2.4 2.59456 3.7-1.9958 2.3-4.49061 4.3-7.88354 5.1 4.09148 7.4 11.97504 12.4 20.95634 12.4s16.8649-5 20.9563-12.3c-3.3929-.8-5.7879-2.8-7.8835-5.1-.1996-.2-.2994-.4-.499-.6s-.2994-.4-.499-.6c-.9979-1.2-1.7962-2.5-2.5945-3.7-.3992-.6-.6986-1.1-1.0978-1.6-.1995-.2-.2993-.4-.4989-.7-.1996-.2-.2994-.4-.499-.7-2.0956-2.9-4.1912-4.9-7.4844-4.9-3.2931 0-5.3888 2-7.4844 4.9-.1996-.4-.499-.7-.6985-1.1-.8982-1.3-1.7963-2.8-2.894-4.1 2.5946-3 5.9875-5.5 11.1767-5.5z"/><path d="m67.2745 19.9748c-.0824-.8308-.436-1.4761-1.0607-1.9361-.6248-.46-1.4727-.69-2.5437-.69-.7277 0-1.3422.103-1.8434.309-.5012.1991-.8856.4771-1.1534.8341-.2609.357-.3913.7621-.3913 1.2152-.0138.3776.0652.7072.2368.9887.1785.2814.4223.5252.7312.7311.309.1991.666.3742 1.071.5252.4051.1442.8376.2678 1.2976.3708l1.8949.4531c.92.206 1.7644.4806 2.5334.8239.7689.3433 1.4349.7655 1.9978 1.2667.563.5011.999 1.0916 1.3079 1.7713.3158.6797.4772 1.4589.484 2.3377-.0068 1.2907-.3364 2.4098-.9886 3.3572-.6453.9406-1.5791 1.6718-2.8011 2.1936-1.2152.5149-2.681.7723-4.3974.7723-1.7026 0-3.1856-.2609-4.4489-.7826-1.2564-.5218-2.2381-1.2942-2.9453-2.3171-.7003-1.0299-1.0676-2.3034-1.1019-3.8207h4.315c.0481.7071.2506 1.2976.6076 1.7713.3639.4668.8479.8204 1.4521 1.0607.611.2334 1.301.3502 2.0699.3502.7552 0 1.4109-.1099 1.967-.3296.563-.2197.9989-.5252 1.3079-.9165.3089-.3914.4634-.8411.4634-1.3491 0-.4737-.1407-.8719-.4222-1.1946-.2747-.3227-.6797-.5973-1.2152-.8239-.5287-.2265-1.1775-.4325-1.9464-.6179l-2.2965-.5767c-1.7782-.4325-3.1822-1.1088-4.212-2.0287-1.0299-.92-1.5413-2.1593-1.5345-3.7177-.0068-1.277.333-2.3927 1.0196-3.347.6934-.9543 1.6442-1.6992 2.8526-2.2347 1.2083-.5355 2.5814-.8033 4.1193-.8033 1.5653 0 2.9316.2678 4.0987.8033 1.174.5355 2.0871 1.2804 2.7394 2.2347.6522.9543.9886 2.0597 1.0092 3.3161z"/><path d="m74.7536 35v-15.8182h4.1811v2.7908h.1854c.3296-.9268.8788-1.658 1.6477-2.1935.769-.5355 1.689-.8033 2.76-.8033 1.0847 0 2.0082.2712 2.7702.8136.7621.5355 1.2702 1.2633 1.5242 2.1832h.1648c.3226-.9062.9062-1.6305 1.7507-2.1729.8513-.5492 1.8571-.8239 3.0174-.8239 1.4761 0 2.6741.4703 3.5941 1.4109.9268.9337 1.3902 2.2588 1.3902 3.9751v10.6382h-4.3767v-9.7731c0-.8788-.2335-1.5379-.7003-1.9773-.4669-.4394-1.0504-.6591-1.7507-.6591-.7964 0-1.4178.2541-1.864.7621-.4463.5012-.6694 1.1637-.6694 1.9876v9.6598h-4.2532v-9.8658c0-.7758-.2231-1.3937-.6694-1.8537-.4394-.46-1.0195-.69-1.7404-.69-.4875 0-.9269.1236-1.3182.3708-.3845.2403-.69.5801-.9165 1.0195-.2266.4325-.3399.9406-.3399 1.5242v9.495z"/><path d="m105.715 35.2986c-1.009 0-1.908-.175-2.698-.5252-.789-.357-1.414-.8822-1.874-1.5756-.453-.7003-.68-1.5722-.68-2.6158 0-.8788.162-1.6168.484-2.2141.323-.5973.762-1.0779 1.319-1.4418.556-.3638 1.187-.6385 1.894-.8238.714-.1854 1.463-.3159 2.245-.3914.92-.0961 1.662-.1853 2.225-.2677.563-.0893.971-.2197 1.225-.3914.254-.1716.381-.4256.381-.762v-.0618c0-.6523-.206-1.1569-.617-1.5139-.406-.357-.982-.5355-1.731-.5355-.789 0-1.417.1751-1.884.5252-.467.3433-.776.7758-.927 1.2976l-4.058-.3295c.206-.9612.611-1.7919 1.216-2.4922.604-.7072 1.383-1.2496 2.337-1.6272.962-.3844 2.074-.5767 3.337-.5767.879 0 1.72.103 2.523.309.81.206 1.528.5252 2.152.9577.632.4326 1.13.9887 1.494 1.6684.364.6728.545 1.4795.545 2.4201v10.669h-4.16v-2.1936h-.124c-.254.4944-.593.9303-1.019 1.3079-.426.3708-.937.6626-1.535.8754-.597.206-1.287.3089-2.07.3089zm1.257-3.0277c.645 0 1.215-.127 1.709-.381.495-.2609.883-.611 1.164-1.0504.282-.4394.422-.9372.422-1.4933v-1.6786c-.137.0893-.326.1716-.566.2472-.234.0686-.498.1338-.793.1956-.295.055-.59.1064-.886.1545-.295.0412-.563.079-.803.1133-.515.0755-.965.1957-1.349.3604-.385.1648-.683.3879-.896.6694-.213.2746-.319.6179-.319 1.0298 0 .5973.216 1.0539.649 1.3697.439.309.995.4634 1.668.4634z"/><path d="m118.027 35v-15.8182h4.253v2.76h.165c.288-.9818.772-1.7233 1.452-2.2245.68-.508 1.462-.7621 2.348-.7621.22 0 .457.0138.711.0412.254.0275.477.0653.669.1133v3.8928c-.206-.0618-.491-.1167-.855-.1648s-.697-.0721-.999-.0721c-.645 0-1.222.1408-1.73.4222-.501.2747-.899.6591-1.194 1.1535-.289.4943-.433 1.0641-.433 1.7095v8.9492z"/><path d="m139.1 19.1818v3.2955h-9.526v-3.2955zm-7.363-3.7898h4.387v14.7472c0 .4051.062.7209.185.9474.124.2197.295.3742.515.4635.227.0892.487.1338.783.1338.206 0 .412-.0171.618-.0515.206-.0411.363-.072.473-.0926l.69 3.2645c-.219.0687-.528.1476-.927.2369-.398.0961-.882.1545-1.452.1751-1.057.0411-1.984-.0996-2.78-.4223-.79-.3227-1.404-.8238-1.844-1.5035-.439-.6797-.655-1.5379-.648-2.5746z"/><path d="m160.649 21.293h-4.511c-.082-.5836-.25-1.102-.504-1.5551-.254-.46-.58-.8513-.978-1.174-.399-.3227-.859-.5698-1.38-.7415-.515-.1716-1.075-.2574-1.679-.2574-1.092 0-2.043.2712-2.853.8135-.81.5356-1.438 1.3182-1.884 2.3481-.447 1.0229-.67 2.2656-.67 3.7279 0 1.5036.223 2.7668.67 3.7898.453 1.023 1.084 1.7953 1.895 2.3171.81.5218 1.747.7827 2.811.7827.597 0 1.15-.079 1.658-.2369.515-.1579.972-.3879 1.37-.69.398-.3089.727-.6831.988-1.1225.268-.4394.454-.9405.556-1.5035l4.511.0206c-.117.968-.408 1.9017-.875 2.8011-.46.8925-1.082 1.6924-1.864 2.3995-.776.7003-1.703 1.2564-2.781 1.6683-1.071.4051-2.283.6076-3.635.6076-1.881 0-3.563-.4256-5.046-1.2769-1.476-.8514-2.643-2.0837-3.502-3.6971-.851-1.6134-1.277-3.5667-1.277-5.8598 0-2.2999.433-4.2566 1.298-5.87s2.039-2.8423 3.522-3.6868c1.483-.8513 3.151-1.277 5.005-1.277 1.222 0 2.355.1717 3.398.5149 1.051.3433 1.981.8445 2.791 1.5036.81.6522 1.469 1.4521 1.978 2.3995.514.9474.844 2.0322.988 3.2543z"/><path d="m170.911 35.3089c-1.599 0-2.983-.3398-4.15-1.0195-1.16-.6865-2.056-1.6409-2.688-2.8629-.631-1.229-.947-2.6535-.947-4.2738 0-1.634.316-3.062.947-4.2841.632-1.2289 1.528-2.1832 2.688-2.8629 1.167-.6866 2.551-1.0299 4.15-1.0299 1.6 0 2.98.3433 4.14 1.0299 1.167.6797 2.067 1.634 2.698 2.8629.632 1.2221.948 2.6501.948 4.2841 0 1.6203-.316 3.0448-.948 4.2738-.631 1.222-1.531 2.1764-2.698 2.8629-1.16.6797-2.54 1.0195-4.14 1.0195zm.021-3.3984c.728 0 1.335-.206 1.823-.6179.487-.4188.855-.9886 1.102-1.7095.254-.7209.381-1.5413.381-2.4613s-.127-1.7404-.381-2.4613c-.247-.7209-.615-1.2907-1.102-1.7095-.488-.4188-1.095-.6282-1.823-.6282-.735 0-1.353.2094-1.854.6282-.494.4188-.868.9886-1.122 1.7095-.247.7209-.371 1.5413-.371 2.4613s.124 1.7404.371 2.4613c.254.7209.628 1.2907 1.122 1.7095.501.4119 1.119.6179 1.854.6179z"/><path d="m185.937 25.8551v9.1449h-4.387v-15.8182h4.181v2.7908h.185c.35-.9199.937-1.6477 1.761-2.1832.824-.5424 1.823-.8136 2.997-.8136 1.098 0 2.056.2403 2.873.7209s1.452 1.1672 1.905 2.0597c.453.8856.68 1.9429.68 3.1719v10.0717h-4.387v-9.2891c.007-.968-.24-1.7232-.742-2.2656-.501-.5492-1.191-.8239-2.07-.8239-.59 0-1.112.1271-1.565.3811-.446.254-.796.6247-1.05 1.1122-.248.4806-.375 1.0607-.381 1.7404z"/><path d="m208.003 19.1818v3.2955h-9.526v-3.2955zm-7.363-3.7898h4.387v14.7472c0 .4051.062.7209.185.9474.124.2197.296.3742.515.4635.227.0892.488.1338.783.1338.206 0 .412-.0171.618-.0515.206-.0411.364-.072.474-.0926l.69 3.2645c-.22.0687-.529.1476-.927.2369-.398.0961-.882.1545-1.452.1751-1.058.0411-1.984-.0996-2.781-.4223-.789-.3227-1.404-.8238-1.843-1.5035-.44-.6797-.656-1.5379-.649-2.5746z"/><path d="m210.861 35v-15.8182h4.253v2.76h.165c.288-.9818.772-1.7233 1.452-2.2245.68-.508 1.462-.7621 2.348-.7621.22 0 .457.0138.711.0412.254.0275.477.0653.669.1133v3.8928c-.206-.0618-.491-.1167-.855-.1648s-.697-.0721-.999-.0721c-.645 0-1.222.1408-1.73.4222-.501.2747-.899.6591-1.194 1.1535-.289.4943-.433 1.0641-.433 1.7095v8.9492z"/><path d="m229.138 35.3089c-1.6 0-2.983-.3398-4.15-1.0195-1.161-.6865-2.056-1.6409-2.688-2.8629-.632-1.229-.948-2.6535-.948-4.2738 0-1.634.316-3.062.948-4.2841.632-1.2289 1.527-2.1832 2.688-2.8629 1.167-.6866 2.55-1.0299 4.15-1.0299s2.98.3433 4.14 1.0299c1.167.6797 2.066 1.634 2.698 2.8629.632 1.2221.947 2.6501.947 4.2841 0 1.6203-.315 3.0448-.947 4.2738-.632 1.222-1.531 2.1764-2.698 2.8629-1.16.6797-2.54 1.0195-4.14 1.0195zm.021-3.3984c.727 0 1.335-.206 1.822-.6179.488-.4188.855-.9886 1.102-1.7095.254-.7209.381-1.5413.381-2.4613s-.127-1.7404-.381-2.4613c-.247-.7209-.614-1.2907-1.102-1.7095-.487-.4188-1.095-.6282-1.822-.6282-.735 0-1.353.2094-1.854.6282-.494.4188-.869.9886-1.123 1.7095-.247.7209-.37 1.5413-.37 2.4613s.123 1.7404.37 2.4613c.254.7209.629 1.2907 1.123 1.7095.501.4119 1.119.6179 1.854.6179z"/><path d="m244.163 13.9091v21.0909h-4.387v-21.0909z"/><path d="m55.4091 54v-11.6364h1.3409v4.2955h.1136c.0985-.1515.2349-.3447.4091-.5796.1781-.2386.4318-.4507.7614-.6363.3333-.1894.7841-.2841 1.3523-.2841.7348 0 1.3825.1837 1.9431.5511.5606.3675.9981.8883 1.3125 1.5625.3144.6743.4716 1.4697.4716 2.3864 0 .9242-.1572 1.7254-.4716 2.4034-.3144.6742-.75 1.197-1.3068 1.5682-.5568.3674-1.1988.5511-1.9261.5511-.5606 0-1.0095-.0928-1.3466-.2784-.3371-.1894-.5966-.4034-.7784-.642-.1818-.2425-.322-.4432-.4205-.6023h-.1591v1.3409zm1.3182-4.3636c0 .6591.0966 1.2405.2897 1.7443.1932.5.4754.892.8466 1.1761.3712.2803.8258.4205 1.3637.4205.5606 0 1.0284-.1478 1.4034-.4432.3788-.2993.6629-.7008.8523-1.2046.1931-.5075.2897-1.0719.2897-1.6931 0-.6137-.0947-1.1667-.2841-1.6591-.1856-.4962-.4678-.8883-.8466-1.1762-.375-.2916-.8465-.4375-1.4147-.4375-.5455 0-1.0038.1383-1.375.4148-.3712.2727-.6515.6553-.8409 1.1477-.1894.4887-.2841 1.0587-.2841 1.7103z"/><path d="m65.7159 57.2727c-.2273 0-.4299-.0189-.6079-.0568-.1781-.0341-.3012-.0682-.3694-.1023l.3409-1.1818c.3258.0834.6137.1137.8637.0909.25-.0227.4716-.1344.6648-.3352.1969-.197.3768-.517.5397-.9602l.25-.6818-3.2272-8.7728h1.4545l2.4091 6.9546h.0909l2.4091-6.9546h1.4545l-3.7045 10c-.1667.4508-.3731.8239-.6193 1.1193-.2462.2993-.5322.5209-.858.6648-.322.144-.6856.2159-1.0909.2159z"/><path d="m78.4403 42.3636h1.6819l3.9545 9.6591h.1364l3.9545-9.6591h1.6818v11.6364h-1.3182v-8.8409h-.1136l-3.6364 8.8409h-1.2727l-3.6363-8.8409h-.1137v8.8409h-1.3182z"/><path d="m92.4929 54v-8.7273h1.3409v8.7273zm.6818-10.1818c-.2614 0-.4867-.089-.6761-.2671-.1856-.178-.2784-.392-.2784-.642s.0928-.464.2784-.6421c.1894-.178.4147-.267.6761-.267s.4849.089.6705.267c.1894.1781.2841.3921.2841.6421s-.0947.464-.2841.642c-.1856.1781-.4091.2671-.6705.2671z"/><path d="m99.8352 54.1818c-.8182 0-1.5227-.1932-2.1136-.5795-.5909-.3864-1.0455-.9186-1.3636-1.5966-.3182-.678-.4773-1.4527-.4773-2.3239 0-.8863.1629-1.6685.4886-2.3466.3296-.6818.7879-1.214 1.375-1.5966.5909-.3863 1.2803-.5795 2.0682-.5795.6135 0 1.1665.1136 1.6595.3409.492.2273.895.5455 1.21.9545.314.4091.509.8864.585 1.4319h-1.341c-.102-.3978-.329-.75-.682-1.0569-.348-.3106-.818-.4659-1.4088-.4659-.5227 0-.981.1364-1.375.4091-.3901.269-.6951.6496-.9147 1.1421-.216.4886-.3239 1.0625-.3239 1.7216 0 .6742.106 1.2613.3182 1.7613.2159.5.5189.8883.9091 1.1648.3939.2765.856.4148 1.3863.4148.3488 0 .6648-.0606.9488-.1818.284-.1213.525-.2955.722-.5228.197-.2272.337-.5.42-.8182h1.341c-.076.5152-.263.9792-.562 1.3921-.296.4091-.688.7348-1.177.9773-.484.2386-1.049.3579-1.6928.3579z"/><path d="m105.227 54v-8.7273h1.296v1.3182h.091c.159-.4318.447-.7822.863-1.0511.417-.269.887-.4034 1.409-.4034.099 0 .222.0019.37.0056.147.0038.259.0095.335.0171v1.3636c-.046-.0113-.15-.0284-.313-.0511-.159-.0265-.327-.0398-.505-.0398-.425 0-.803.089-1.137.2671-.329.1742-.591.4166-.784.7272-.189.3069-.284.6572-.284 1.0512v5.5227z"/><path d="m114.46 54.1818c-.788 0-1.479-.1875-2.074-.5625-.591-.375-1.053-.8996-1.386-1.5738-.33-.6743-.494-1.4622-.494-2.3637 0-.9091.164-1.7026.494-2.3807.333-.678.795-1.2045 1.386-1.5795.595-.375 1.286-.5625 2.074-.5625s1.477.1875 2.068.5625c.595.375 1.057.9015 1.387 1.5795.333.6781.5 1.4716.5 2.3807 0 .9015-.167 1.6894-.5 2.3637-.33.6742-.792 1.1988-1.387 1.5738-.591.375-1.28.5625-2.068.5625zm0-1.2045c.599 0 1.091-.1534 1.477-.4603.387-.3068.673-.7102.858-1.2102.186-.5.279-1.0416.279-1.625 0-.5833-.093-1.1269-.279-1.6307-.185-.5038-.471-.9109-.858-1.2216-.386-.3106-.878-.4659-1.477-.4659-.598 0-1.091.1553-1.477.4659-.386.3107-.672.7178-.858 1.2216s-.278 1.0474-.278 1.6307c0 .5834.092 1.125.278 1.625s.472.9034.858 1.2102c.386.3069.879.4603 1.477.4603z"/><path d="m123.984 57.4545c-.647 0-1.204-.0833-1.67-.25-.466-.1628-.854-.3787-1.165-.6477-.307-.2651-.551-.5492-.733-.8523l1.068-.75c.122.1591.275.341.461.5455.185.2083.439.3883.761.5398.326.1553.752.2329 1.278.2329.705 0 1.286-.1704 1.745-.5113.458-.3409.687-.875.687-1.6023v-1.7727h-.113c-.099.1591-.239.356-.421.5909-.178.231-.436.4375-.773.6193-.333.178-.784.267-1.352.267-.704 0-1.337-.1666-1.898-.5-.556-.3333-.998-.8181-1.323-1.4545-.322-.6364-.483-1.4091-.483-2.3182 0-.8939.157-1.6723.471-2.3352.315-.6667.752-1.1818 1.313-1.5455.56-.3674 1.208-.5511 1.943-.5511.568 0 1.019.0947 1.352.2841.337.1856.595.3977.773.6363.182.2349.322.4281.42.5796h.137v-1.3864h1.295v8.9773c0 .75-.17 1.3598-.511 1.8295-.337.4735-.792.8201-1.364 1.0398-.568.2235-1.201.3352-1.898.3352zm-.045-4.7954c.538 0 .992-.1231 1.364-.3693.371-.2462.653-.6004.846-1.0625s.29-1.0152.29-1.6591c0-.6288-.095-1.1837-.284-1.6648-.19-.4811-.47-.8579-.841-1.1307-.371-.2727-.83-.4091-1.375-.4091-.568 0-1.042.144-1.421.4319-.375.2878-.657.6742-.846 1.159-.186.4849-.279 1.0228-.279 1.6137 0 .606.095 1.142.285 1.6079.193.4622.477.8258.852 1.0909.379.2614.848.3921 1.409.3921z"/><path d="m133.871 54.1818c-.841 0-1.567-.1856-2.176-.5568-.606-.375-1.074-.8977-1.404-1.5682-.326-.6742-.488-1.4583-.488-2.3523 0-.8939.162-1.6818.488-2.3636.33-.6856.788-1.2197 1.375-1.6023.591-.3863 1.28-.5795 2.068-.5795.455 0 .904.0757 1.347.2273.443.1515.847.3977 1.21.7386.364.3371.654.7841.87 1.3409.215.5568.323 1.2424.323 2.0568v.5682h-6.727v-1.1591h5.364c0-.4924-.099-.9318-.296-1.3182-.193-.3863-.469-.6913-.829-.9147-.356-.2235-.777-.3353-1.262-.3353-.534 0-.996.1326-1.386.3978-.386.2613-.684.6022-.892 1.0227-.208.4204-.313.8712-.313 1.3523v.7727c0 .6591.114 1.2178.341 1.6761.231.4546.552.8012.961 1.0398.409.2348.884.3523 1.426.3523.352 0 .67-.0493.954-.1478.288-.1022.536-.2537.745-.4545.208-.2045.369-.4583.483-.7614l1.295.3637c-.136.4394-.366.8257-.687 1.1591-.322.3295-.72.5871-1.194.7727-.473.1818-1.005.2727-1.596.2727z"/><path d="m140.865 48.75v5.25h-1.341v-8.7273h1.296v1.3637h.113c.205-.4432.515-.7993.932-1.0682.417-.2727.955-.4091 1.614-.4091.591 0 1.108.1212 1.551.3636.443.2387.788.6023 1.034 1.0909.246.4849.369 1.0985.369 1.8409v5.5455h-1.341v-5.4545c0-.6857-.178-1.2197-.534-1.6023-.356-.3864-.844-.5796-1.466-.5796-.428 0-.81.0928-1.147.2784-.334.1857-.597.4565-.79.8125-.193.3561-.29.7879-.29 1.2955z"/><path d="m152.543 54.1818c-.841 0-1.567-.1856-2.177-.5568-.606-.375-1.073-.8977-1.403-1.5682-.326-.6742-.489-1.4583-.489-2.3523 0-.8939.163-1.6818.489-2.3636.33-.6856.788-1.2197 1.375-1.6023.591-.3863 1.28-.5795 2.068-.5795.455 0 .904.0757 1.347.2273.443.1515.846.3977 1.21.7386.364.3371.653.7841.869 1.3409s.324 1.2424.324 2.0568v.5682h-6.727v-1.1591h5.364c0-.4924-.099-.9318-.296-1.3182-.193-.3863-.47-.6913-.829-.9147-.356-.2235-.777-.3353-1.262-.3353-.534 0-.996.1326-1.386.3978-.386.2613-.684.6022-.892 1.0227-.208.4204-.313.8712-.313 1.3523v.7727c0 .6591.114 1.2178.341 1.6761.231.4546.551.8012.96 1.0398.41.2348.885.3523 1.427.3523.352 0 .67-.0493.954-.1478.288-.1022.536-.2537.744-.4545.209-.2045.37-.4583.483-.7614l1.296.3637c-.136.4394-.366.8257-.688 1.1591-.322.3295-.719.5871-1.193.7727-.473.1818-1.005.2727-1.596.2727z"/><path d="m161.991 45.2727v1.1364h-4.522v-1.1364zm-3.204-2.0909h1.341v8.3182c0 .3788.055.6629.165.8523.113.1856.257.3106.431.375.178.0606.366.0909.563.0909.148 0 .269-.0076.364-.0227.094-.019.17-.0341.227-.0455l.273 1.2045c-.091.0341-.218.0682-.381.1023-.163.0379-.369.0568-.619.0568-.379 0-.75-.0814-1.114-.2443-.36-.1629-.659-.411-.898-.7443-.235-.3333-.352-.7538-.352-1.2614z"/><path d="m164.009 54v-8.7273h1.34v8.7273zm.681-10.1818c-.261 0-.486-.089-.676-.2671-.185-.178-.278-.392-.278-.642s.093-.464.278-.6421c.19-.178.415-.267.676-.267.262 0 .485.089.671.267.189.1781.284.3921.284.6421s-.095.464-.284.642c-.186.1781-.409.2671-.671.2671z"/><path d="m171.351 54.1818c-.818 0-1.523-.1932-2.114-.5795-.591-.3864-1.045-.9186-1.363-1.5966-.319-.678-.478-1.4527-.478-2.3239 0-.8863.163-1.6685.489-2.3466.329-.6818.788-1.214 1.375-1.5966.591-.3863 1.28-.5795 2.068-.5795.614 0 1.167.1136 1.659.3409.493.2273.896.5455 1.21.9545.315.4091.51.8864.586 1.4319h-1.341c-.103-.3978-.33-.75-.682-1.0569-.349-.3106-.818-.4659-1.409-.4659-.523 0-.981.1364-1.375.4091-.39.269-.695.6496-.915 1.1421-.216.4886-.324 1.0625-.324 1.7216 0 .6742.106 1.2613.318 1.7613.216.5.519.8883.909 1.1648.394.2765.857.4148 1.387.4148.348 0 .665-.0606.949-.1818.284-.1213.524-.2955.721-.5228.197-.2272.337-.5.421-.8182h1.341c-.076.5152-.264.9792-.563 1.3921-.295.4091-.687.7348-1.176.9773-.485.2386-1.049.3579-1.693.3579z"/><path d="m182.925 47.2273-1.205.3409c-.076-.2008-.187-.3959-.335-.5852-.144-.1932-.341-.3523-.591-.4773s-.57-.1875-.96-.1875c-.534 0-.979.1231-1.335.3693-.353.2424-.529.5511-.529.9261 0 .3334.121.5966.364.7898.242.1932.621.3542 1.136.483l1.296.3181c.78.1894 1.361.4792 1.744.8694.383.3863.574.8844.574 1.4943 0 .5-.144.947-.432 1.3409-.284.3939-.682.7045-1.193.9318-.512.2273-1.106.3409-1.784.3409-.89 0-1.627-.1932-2.211-.5795-.583-.3864-.952-.9508-1.107-1.6932l1.272-.3182c.121.4697.351.822.688 1.0568.341.2349.786.3523 1.335.3523.625 0 1.121-.1326 1.489-.3977.371-.269.556-.5909.556-.9659 0-.3031-.106-.5569-.318-.7614-.212-.2083-.538-.3636-.977-.4659l-1.455-.3409c-.799-.1894-1.386-.483-1.761-.8807-.371-.4015-.557-.9034-.557-1.5057 0-.4924.139-.928.415-1.3068.28-.3788.661-.6761 1.142-.892.485-.216 1.034-.3239 1.648-.3239.863 0 1.541.1894 2.034.5682.496.3788.848.8788 1.057 1.5z"/></g></svg>