<svg fill="none" height="48" viewBox="0 0 244 48" width="244" xmlns="http://www.w3.org/2000/svg"><g fill="#fff"><path clip-rule="evenodd" d="m48 24c0 13.2548-10.7452 24-24 24s-24-10.7452-24-24 10.7452-24 24-24 24 10.7452 24 24zm-31.4483 3.0894c.3353.578.956.9379 1.6195.9379 1.0347 0 1.8762-.8419 1.8762-1.8767 0-.3312-.0856-.6549-.2485-.9362-.6059-1.048-.9259-2.2401-.9259-3.4483 0-3.8055 3.0956-6.9018 6.9017-6.9018 1.0339 0 1.875-.8415 1.875-1.8761 0-1.0342-.8388-1.8758-1.8692-1.8758-5.8769 0-10.6579 4.7794-10.6579 10.6537 0 1.8654.4941 3.7062 1.4291 5.3233zm3.5697-5.3233c0-1.6393.6977-3.1153 1.8123-4.1477-.0963 1.1668.471 2.3392 1.5527 2.9636.4835.2797 1.0209.4212 1.5594.4212.961-.0006 1.9336.2395 2.8246.754 1.4202.8201 2.3496 2.1623 2.6866 3.644-.9629-.6668-2.2624-.7621-3.3432-.1378-.4845.2793-.8748.6734-1.1445 1.1393-.48.834-1.1743 1.5558-2.0658 2.0702-1.4199.8191-3.0468.9531-4.498.5048 1.0578-.5012 1.7898-1.5783 1.7898-2.8271 0-.5582-.1458-1.0946-.4147-1.5606-.4812-.8325-.7592-1.7954-.7592-2.8239zm11.5871 10.8994c.2876.1664.613.2535.9412.2535.6649 0 1.2858-.3576 1.6178-.9334 1.4229-2.4642 1.8011-5.3359 1.0647-8.0858-.7366-2.7508-2.4992-5.0487-4.9622-6.471-1.6145-.9319-3.4538-1.4244-5.3242-1.4244-.6691.0015-1.2908.3592-1.6219.9332-.5168.8958-.2095 2.0455.6858 2.5631.288.1659.6111.2535.9419.2535 1.2085 0 2.3991.3187 3.4434.9215 3.2954 1.903 4.4282 6.1321 2.5266 9.4281-.5178.8955-.2091 2.0443.6869 2.5617zm-19.7608-3.767c1.897 3.2878 5.4384 5.3307 9.2413 5.3307 1.8586 0 3.696-.4939 5.3142-1.428 1.6157-.933 2.9621-2.2812 3.8942-3.8984.3337-.5788.3354-1.2963.0033-1.8714-.4976-.8617-1.6944-1.1893-2.5623-.6865-.2868.165-.5241.4008-.6873.6821-.6047 1.0495-1.4768 1.9234-2.5238 2.5272-1.0487.6053-2.2403.9255-3.4442.9255-2.4609 0-4.7536-1.3226-5.9837-3.4518-.4959-.8611-1.6921-1.1873-2.5619-.6851-.8955.5165-1.2055 1.6633-.6898 2.5557z" fill-rule="evenodd"/><path d="m60 0h1v48h-1z"/><path d="m75.8202 21.6c.9467.4667 2.04.7 3.28.7 1.04 0 1.9533-.1933 2.74-.58s1.3933-.9067 1.82-1.56c.4267-.6667.64-1.3867.64-2.16 0-.8933-.2067-1.62-.62-2.18s-.9067-.98-1.48-1.26c-.5733-.2933-1.3133-.5933-2.22-.9-.8933-.2933-1.5467-.5667-1.96-.82s-.62-.6067-.62-1.06c0-.4.1733-.74.52-1.02.36-.28.8667-.42 1.52-.42.5333 0 1.0333.12 1.5.36s.8533.5133 1.16.82l1.88-1.83999c-.4-.50666-1.0267-.96-1.88-1.36-.84-.41333-1.7933-.62-2.86-.62-.9467 0-1.8.18-2.56.54-.76.34667-1.3533.83334-1.78 1.46-.4267.62669-.64 1.32669-.64 2.09999 0 .8933.2067 1.62.62 2.18s.9067.9867 1.48 1.28c.5733.28 1.3133.5733 2.22.88.88.2933 1.5267.5667 1.94.82s.62.6067.62 1.06c0 .44-.2.82-.6 1.14s-.9533.48-1.66.48c-.6933 0-1.32-.1467-1.88-.44-.5467-.3067-1.02-.6733-1.42-1.1l-1.88 1.84c.4667.6267 1.1733 1.18 2.12 1.66z"/><path d="m85.9486 12.3v9.7h2.7v-5.2c0-.6667.1734-1.1933.52-1.58.3467-.3867.7934-.58 1.34-.58.4667 0 .8467.1667 1.14.5.3067.32.46.7733.46 1.36v5.5h2.7v-5.2c0-.6667.1734-1.1933.52-1.58.3467-.3867.7867-.58 1.32-.58.4667 0 .8467.1667 1.14.5.3067.32.46.7733.46 1.36v5.5h2.7004v-5.76c0-.84-.154-1.5733-.46-2.2-.307-.6267-.7204-1.1067-1.2404-1.44-.5066-.3333-1.0733-.5-1.7-.5-.7733 0-1.46.1733-2.06.52-.5866.3333-.9933.7067-1.22 1.12h-.08c-.2-.4133-.5466-.7867-1.04-1.12-.4933-.3467-1.0733-.52-1.74-.52-.6533 0-1.22.1667-1.7.5-.48.32-.8133.68-1 1.08h-.06v-1.38z"/><path clip-rule="evenodd" d="m106.849 12.1c.826 0 1.56.1733 2.2.52.653.3333 1.16.7933 1.52 1.38.36.5733.54 1.2067.54 1.9v6.1h-2.56v-1.34h-.06c-.24.3867-.62.74-1.14 1.06s-1.114.48-1.78.48c-.614 0-1.167-.1267-1.66-.38-.48-.2533-.86-.5933-1.14-1.02-.28-.44-.42-.9067-.42-1.4 0-.8267.26-1.5067.78-2.04s1.26-.8933 2.22-1.08l3.06-.58c-.027-.3867-.2-.7133-.52-.98-.307-.28-.7-.42-1.18-.42-.827 0-1.58.38-2.26 1.14l-1.54-1.48c.426-.5067.973-.94 1.64-1.3.68-.3733 1.446-.56 2.3-.56zm-.5 7.94c.586 0 1.073-.2067 1.46-.62.4-.4133.6-.9533.6-1.62v-.32l-2.1.42c-.374.0667-.667.2067-.88.42-.214.2-.32.4267-.32.68 0 .3067.106.56.32.76.226.1867.533.28.92.28z" fill-rule="evenodd"/><path d="m113.113 12.3v9.7h2.7v-4.56c0-.7867.22-1.4133.66-1.88.44-.48 1.006-.72 1.7-.72.28 0 .58.0533.9.16v-2.9h-.46c-.614 0-1.167.1467-1.66.44-.48.28-.84.6-1.08.96h-.06v-1.2z"/><path d="m124.329 22.1c-1.013 0-1.813-.3067-2.4-.92-.573-.6133-.86-1.4733-.86-2.58v-3.8h-1.6v-2.5h.86c.32 0 .573-.1.76-.3s.28-.4867.28-.86v-1.93999h2.4v3.09999h2.1v2.5h-2.1v3.4c0 .44.107.7733.32 1 .227.2267.54.34.94.34.373 0 .72-.08 1.04-.24v2.5c-.2.08-.46.1467-.78.2-.32.0667-.64.1-.96.1z"/><path d="m131.04 21.32c1.16.6533 2.453.98 3.88.98 1.346 0 2.533-.2667 3.56-.8 1.04-.5467 1.886-1.2 2.54-1.96l-2.04-1.8c-.534.5467-1.12.9867-1.76 1.32-.627.32-1.394.48-2.3.48-.84 0-1.614-.2-2.32-.6-.694-.4-1.24-.9467-1.64-1.64s-.6-1.46-.6-2.3.2-1.6067.6-2.3c.4-.7067.946-1.26 1.64-1.66.706-.4 1.48-.6 2.32-.6.893 0 1.646.1667 2.26.5.626.32 1.2.74 1.72 1.26l2.02-1.8c-.627-.73332-1.447-1.36665-2.46-1.89999-1.014-.53333-2.194-.8-3.54-.8-1.427 0-2.72.32667-3.88.98-1.16.64-2.074 1.51999-2.74 2.63999-.654 1.12-.98 2.3467-.98 3.68s.326 2.56.98 3.68c.666 1.1067 1.58 1.9867 2.74 2.64z"/><path clip-rule="evenodd" d="m146.662 22.2c-.96 0-1.84-.2267-2.64-.68-.787-.4533-1.413-1.0667-1.88-1.84-.453-.7733-.68-1.62-.68-2.54s.227-1.7667.68-2.54c.467-.7733 1.093-1.38 1.88-1.82.8-.4533 1.68-.68 2.64-.68.973 0 1.853.2267 2.64.68.8.44 1.427 1.0467 1.88 1.82s.68 1.62.68 2.54-.227 1.7667-.68 2.54-1.08 1.3867-1.88 1.84c-.787.4533-1.667.68-2.64.68zm0-2.5c.68 0 1.26-.2467 1.74-.74s.72-1.1.72-1.82-.24-1.32-.72-1.8c-.48-.4933-1.06-.74-1.74-.74s-1.26.2467-1.74.74c-.467.48-.7 1.08-.7 1.8s.233 1.3267.7 1.82c.48.4933 1.06.74 1.74.74z" fill-rule="evenodd"/><path d="m153.359 12.3v9.7h2.7v-5.1c0-.6667.193-1.2067.58-1.62.4-.4267.906-.64 1.52-.64.533 0 .966.18 1.3.54.333.3467.5.82.5 1.42v5.4h2.7v-5.76c0-.8533-.16-1.5867-.48-2.2-.307-.6267-.734-1.1067-1.28-1.44-.547-.3333-1.174-.5-1.88-.5-.667 0-1.26.1667-1.78.5-.507.32-.88.68-1.12 1.08h-.06v-1.38z"/><path d="m168.52 22.1c-1.013 0-1.813-.3067-2.4-.92-.573-.6133-.86-1.4733-.86-2.58v-3.8h-1.6v-2.5h.86c.32 0 .574-.1.76-.3.187-.2.28-.4867.28-.86v-1.93999h2.4v3.09999h2.1v2.5h-2.1v3.4c0 .44.107.7733.32 1 .227.2267.54.34.94.34.374 0 .72-.08 1.04-.24v2.5c-.2.08-.46.1467-.78.2-.32.0667-.64.1-.96.1z"/><path d="m171.851 12.3v9.7h2.7v-4.56c0-.7867.22-1.4133.66-1.88.44-.48 1.007-.72 1.7-.72.28 0 .58.0533.9.16v-2.9h-.46c-.613 0-1.167.1467-1.66.44-.48.28-.84.6-1.08.96h-.06v-1.2z"/><path clip-rule="evenodd" d="m183.412 22.2c-.96 0-1.84-.2267-2.64-.68-.787-.4533-1.413-1.0667-1.88-1.84-.453-.7733-.68-1.62-.68-2.54s.227-1.7667.68-2.54c.467-.7733 1.093-1.38 1.88-1.82.8-.4533 1.68-.68 2.64-.68.973 0 1.853.2267 2.64.68.8.44 1.427 1.0467 1.88 1.82s.68 1.62.68 2.54-.227 1.7667-.68 2.54-1.08 1.3867-1.88 1.84c-.787.4533-1.667.68-2.64.68zm0-2.5c.68 0 1.26-.2467 1.74-.74s.72-1.1.72-1.82-.24-1.32-.72-1.8c-.48-.4933-1.06-.74-1.74-.74s-1.26.2467-1.74.74c-.467.48-.7 1.08-.7 1.8s.233 1.3267.7 1.82c.48.4933 1.06.74 1.74.74z" fill-rule="evenodd"/><path d="m190.209 22h2.7v-13.99999h-2.7z"/><path clip-rule="evenodd" d="m78.2482 38.16c-.64 0-1.216-.1547-1.728-.464-.5013-.3093-.8587-.6507-1.072-1.024h-.016v1.328h-1.088v-11.2h1.088v4.848h.016c.2133-.3733.5707-.7147 1.072-1.024.512-.3093 1.088-.464 1.728-.464s1.232.176 1.776.528c.5547.3413.9973.816 1.328 1.424s.496 1.2907.496 2.048-.1653 1.44-.496 2.048-.7733 1.088-1.328 1.44c-.544.3413-1.136.512-1.776.512zm-.128-1.056c.4693 0 .9067-.128 1.312-.384s.7253-.608.96-1.056c.2453-.448.368-.9493.368-1.504 0-.5653-.1227-1.072-.368-1.52-.2347-.448-.5547-.7947-.96-1.04-.4053-.256-.8427-.384-1.312-.384-.4907 0-.944.128-1.36.384-.4053.2453-.7307.592-.976 1.04-.2347.448-.352.9547-.352 1.52 0 .5547.1173 1.056.352 1.504.2453.448.5707.8.976 1.056.416.256.8693.384 1.36.384z" fill-rule="evenodd"/><path d="m89.8103 30.32h-1.136l-2.256 6.352h-.032l-2.768-6.352h-1.184l3.392 7.696-.464 1.152c-.2986.768-.7786 1.152-1.44 1.152-.16 0-.3146-.0213-.464-.064-.1386-.0427-.256-.0907-.352-.144v1.056c.2774.128.5814.192.912.192.5974 0 1.088-.176 1.472-.528.3947-.3413.7307-.8853 1.008-1.632z"/><path clip-rule="evenodd" d="m94.4181 38v-11.2h4.192c.6933 0 1.3173.1547 1.8719.464.565.3093 1.008.736 1.328 1.28.32.5333.48 1.12.48 1.76s-.16 1.232-.48 1.776c-.32.5333-.763.9547-1.328 1.264-.5546.3093-1.1786.464-1.8719.464h-2.992v4.192zm4.192-5.328c.7253 0 1.3173-.224 1.7759-.672.469-.448.704-1.0133.704-1.696 0-.448-.107-.848-.32-1.2-.213-.3627-.507-.6453-.8799-.848-.3734-.2133-.8-.32-1.28-.32h-2.992v4.736z" fill-rule="evenodd"/><path d="m103.869 26.8v11.2h1.088v-4.256c0-.48.107-.912.32-1.296.214-.384.502-.6827.864-.896.363-.224.768-.336 1.216-.336.619 0 1.126.208 1.52.624.406.416.608.96.608 1.632v4.528h1.088v-4.528c0-.6507-.133-1.2267-.4-1.728-.266-.5013-.634-.8907-1.104-1.168-.469-.2773-.997-.416-1.584-.416-.565 0-1.077.144-1.536.432-.448.2773-.773.5973-.976.96h-.016v-4.752z"/><path clip-rule="evenodd" d="m115.392 30.16c.586 0 1.104.128 1.552.384.458.256.816.6133 1.072 1.072.256.448.384.9653.384 1.552v4.832h-1.04v-1.232h-.016c-.203.352-.544.672-1.024.96s-1.03.432-1.648.432c-.502 0-.95-.1013-1.344-.304-.384-.2027-.688-.4693-.912-.8-.214-.3413-.32-.704-.32-1.088 0-.6187.213-1.136.64-1.552.426-.4267 1.029-.704 1.808-.832l2.784-.464v-.016c0-.576-.182-1.04-.544-1.392-.352-.352-.816-.528-1.392-.528-.448 0-.843.1013-1.184.304-.331.192-.651.448-.96.768l-.72-.688c.32-.3947.725-.7253 1.216-.992.49-.2773 1.04-.416 1.648-.416zm-.608 7.008c.469 0 .896-.112 1.28-.336.394-.224.704-.528.928-.912.224-.3947.336-.832.336-1.312v-.544l-2.528.416c-.544.096-.95.2667-1.216.512-.267.2453-.4.5493-.4.912 0 .352.144.6507.432.896.298.2453.688.368 1.168.368z" fill-rule="evenodd"/><path d="m120.442 30.32v7.68h1.088v-4.16c0-.4907.107-.9333.32-1.328.224-.3947.523-.704.896-.928.374-.224.784-.336 1.232-.336.15 0 .299.0107.448.032v-1.12h-.352c-.576 0-1.093.1387-1.552.416-.448.2773-.773.592-.976.944h-.016v-1.2z"/><path d="m125.605 38v-7.68h1.088v1.184h.016c.16-.3413.437-.6507.832-.928.405-.2773.885-.416 1.44-.416.586 0 1.098.16 1.536.48.437.32.746.672.928 1.056h.032c.17-.384.485-.736.944-1.056.469-.32 1.029-.48 1.68-.48.522 0 .997.1387 1.424.416.437.2667.784.6507 1.04 1.152.256.4907.384 1.0613.384 1.712v4.56h-1.088v-4.56c0-.6827-.182-1.2213-.544-1.616-.363-.4053-.822-.608-1.376-.608-.608 0-1.115.2293-1.52.688-.395.448-.592 1.0507-.592 1.808v4.288h-1.088v-4.56c0-.6827-.187-1.2213-.56-1.616-.363-.4053-.822-.608-1.376-.608-.608 0-1.115.2293-1.52.688-.395.448-.592 1.0507-.592 1.808v4.288z"/><path clip-rule="evenodd" d="m143.322 30.544c-.448-.256-.966-.384-1.552-.384-.608 0-1.158.1387-1.648.416-.491.2667-.896.5973-1.216.992l.72.688c.309-.32.629-.576.96-.768.341-.2027.736-.304 1.184-.304.576 0 1.04.176 1.392.528.362.352.544.816.544 1.392v.016l-2.784.464c-.779.128-1.382.4053-1.808.832-.427.416-.64.9333-.64 1.552 0 .384.106.7467.32 1.088.224.3307.528.5973.912.8.394.2027.842.304 1.344.304.618 0 1.168-.144 1.648-.432s.821-.608 1.024-.96h.016v1.232h1.04v-4.832c0-.5867-.128-1.104-.384-1.552-.256-.4587-.614-.816-1.072-1.072zm-.88 6.288c-.384.224-.811.336-1.28.336-.48 0-.87-.1227-1.168-.368-.288-.2453-.432-.544-.432-.896 0-.3627.133-.6667.4-.912.266-.2453.672-.416 1.216-.512l2.528-.416v.544c0 .48-.112.9173-.336 1.312-.224.384-.534.688-.928.912z" fill-rule="evenodd"/><path d="m147.064 38h-1.248l2.864-4-2.624-3.68h1.296l2.032 2.928h.032l2.016-2.928h1.264l-2.624 3.68 2.864 4h-1.312l-2.256-3.248h-.032z"/><path clip-rule="evenodd" d="m155.329 37.632c.597.352 1.248.528 1.952.528s1.354-.176 1.952-.528c.597-.3627 1.072-.848 1.424-1.456s.528-1.28.528-2.016-.176-1.408-.528-2.016-.827-1.088-1.424-1.44c-.598-.3627-1.248-.544-1.952-.544s-1.355.1813-1.952.544c-.598.352-1.072.832-1.424 1.44s-.528 1.28-.528 2.016.176 1.408.528 2.016.826 1.0933 1.424 1.456zm3.36-.912c-.427.256-.896.384-1.408.384s-.987-.128-1.424-.384c-.427-.256-.768-.608-1.024-1.056-.246-.4587-.368-.96-.368-1.504s.122-1.04.368-1.488c.256-.4587.597-.816 1.024-1.072.437-.256.912-.384 1.424-.384s.981.128 1.408.384c.437.256.778.6133 1.024 1.072.256.448.384.944.384 1.488s-.128 1.0453-.384 1.504c-.246.448-.587.8-1.024 1.056z" fill-rule="evenodd"/><path clip-rule="evenodd" d="m166.506 38v-11.2h3.472c1.088 0 2.074.2507 2.96.752.896.5013 1.6 1.184 2.112 2.048.512.8533.768 1.7867.768 2.8s-.256 1.952-.768 2.816c-.512.8533-1.216 1.5307-2.112 2.032-.886.5013-1.872.752-2.96.752zm3.472-1.136c.885 0 1.68-.1973 2.384-.592s1.253-.928 1.648-1.6c.405-.6827.608-1.44.608-2.272s-.203-1.5893-.608-2.272c-.395-.6827-.944-1.216-1.648-1.6-.704-.3947-1.499-.592-2.384-.592h-2.272v8.928z" fill-rule="evenodd"/><path d="m177.691 30.32v7.68h1.088v-7.68z"/><path d="m177.723 28.432c.149.1387.32.208.512.208.203 0 .373-.0693.512-.208.149-.1387.224-.3093.224-.512s-.075-.3733-.224-.512c-.139-.1387-.309-.208-.512-.208-.192 0-.363.0693-.512.208-.139.1387-.208.3093-.208.512s.069.3733.208.512z"/><path clip-rule="evenodd" d="m183.745 30.16c.586 0 1.104.128 1.552.384.458.256.816.6133 1.072 1.072.256.448.384.9653.384 1.552v4.832h-1.04v-1.232h-.016c-.203.352-.544.672-1.024.96s-1.03.432-1.648.432c-.502 0-.95-.1013-1.344-.304-.384-.2027-.688-.4693-.912-.8-.214-.3413-.32-.704-.32-1.088 0-.6187.213-1.136.64-1.552.426-.4267 1.029-.704 1.808-.832l2.784-.464v-.016c0-.576-.182-1.04-.544-1.392-.352-.352-.816-.528-1.392-.528-.448 0-.843.1013-1.184.304-.331.192-.651.448-.96.768l-.72-.688c.32-.3947.725-.7253 1.216-.992.49-.2773 1.04-.416 1.648-.416zm-.608 7.008c.469 0 .896-.112 1.28-.336.394-.224.704-.528.928-.912.224-.3947.336-.832.336-1.312v-.544l-2.528.416c-.544.096-.95.2667-1.216.512-.267.2453-.4.5493-.4.912 0 .352.144.6507.432.896.298.2453.688.368 1.168.368z" fill-rule="evenodd"/><path clip-rule="evenodd" d="m189.915 40.848c.608.3413 1.259.512 1.952.512.694 0 1.318-.1707 1.872-.512.566-.3413 1.008-.8107 1.328-1.408.32-.5867.48-1.248.48-1.984v-7.136h-1.088v1.28h-.016c-.224-.3627-.576-.6933-1.056-.992s-1.024-.448-1.632-.448c-.629 0-1.21.1653-1.744.496-.533.3307-.96.7893-1.28 1.376-.309.5867-.464 1.2427-.464 1.968s.155 1.3813.464 1.968c.32.5867.747 1.0453 1.28 1.376.534.3307 1.115.496 1.744.496.544 0 1.062-.128 1.552-.384.491-.2667.87-.624 1.136-1.072h.016v1.072c0 .832-.24 1.5147-.72 2.048s-1.104.8-1.872.8c-.522 0-1.018-.1333-1.488-.4-.458-.2667-.789-.5547-.992-.864l-.784.72c.267.3947.704.7573 1.312 1.088zm3.264-4.416c-.384.2347-.816.352-1.296.352-.458 0-.885-.1173-1.28-.352-.384-.2453-.688-.576-.912-.992-.224-.4267-.336-.9067-.336-1.44s.112-1.0133.336-1.44.528-.7573.912-.992c.395-.2347.822-.352 1.28-.352.48 0 .912.1173 1.296.352.395.2347.704.5653.928.992.235.4267.352.9067.352 1.44s-.117 1.0133-.352 1.44c-.224.416-.533.7467-.928.992z" fill-rule="evenodd"/><path d="m197.677 38v-7.68h1.088v1.232h.016c.202-.3627.528-.6827.976-.96.458-.288.97-.432 1.536-.432.586 0 1.114.1387 1.584.416.469.2773.837.6667 1.104 1.168.266.5013.4 1.0773.4 1.728v4.528h-1.088v-4.528c0-.672-.203-1.216-.608-1.632-.395-.416-.902-.624-1.52-.624-.448 0-.854.112-1.216.336-.363.2133-.651.512-.864.896-.214.384-.32.816-.32 1.296v4.256z"/><path clip-rule="evenodd" d="m207.857 37.632c.597.352 1.248.528 1.952.528s1.355-.176 1.952-.528c.597-.3627 1.072-.848 1.424-1.456s.528-1.28.528-2.016-.176-1.408-.528-2.016-.827-1.088-1.424-1.44c-.597-.3627-1.248-.544-1.952-.544s-1.355.1813-1.952.544c-.597.352-1.072.832-1.424 1.44s-.528 1.28-.528 2.016.176 1.408.528 2.016.827 1.0933 1.424 1.456zm3.36-.912c-.427.256-.896.384-1.408.384s-.987-.128-1.424-.384c-.427-.256-.768-.608-1.024-1.056-.245-.4587-.368-.96-.368-1.504s.123-1.04.368-1.488c.256-.4587.597-.816 1.024-1.072.437-.256.912-.384 1.424-.384s.981.128 1.408.384c.437.256.779.6133 1.024 1.072.256.448.384.944.384 1.488s-.128 1.0453-.384 1.504c-.245.448-.587.8-1.024 1.056z" fill-rule="evenodd"/><path d="m217.554 38.16c-.608 0-1.168-.1387-1.68-.416s-.901-.5867-1.168-.928l.736-.72c.214.2667.512.5067.896.72s.795.32 1.232.32c.544 0 .966-.1227 1.264-.368.31-.256.464-.576.464-.96 0-.3307-.144-.5813-.432-.752s-.73-.3413-1.328-.512c-.533-.1707-.97-.3307-1.312-.48-.33-.1493-.613-.368-.848-.656-.234-.288-.352-.656-.352-1.104 0-.3733.107-.72.32-1.04.224-.3307.534-.5973.928-.8.406-.2027.859-.304 1.36-.304.555 0 1.046.1067 1.472.32.427.2133.784.4693 1.072.768l-.736.72c-.522-.5227-1.125-.784-1.808-.784-.469 0-.842.112-1.12.336-.266.2133-.4.4747-.4.784 0 .32.139.5653.416.736.288.16.726.3253 1.312.496.534.16.966.32 1.296.48.342.1493.63.368.864.656.246.288.368.6667.368 1.136 0 .4267-.117.8213-.352 1.184-.224.352-.549.6347-.976.848-.426.2133-.922.32-1.488.32z"/><path d="m223.193 37.504c.373.384.896.576 1.568.576.213 0 .421-.0267.624-.08.202-.0427.368-.096.496-.16v-1.056c-.342.16-.667.24-.976.24-.363 0-.651-.112-.864-.336-.203-.224-.304-.544-.304-.96v-4.352h1.888v-1.056h-1.888v-2.56h-.976v1.824c0 .2453-.059.432-.176.56-.107.1173-.256.176-.448.176h-.976v1.056h1.488v4.416c0 .7467.181 1.3173.544 1.712z"/><path d="m227.375 38v-7.68h1.088v7.68z"/><path d="m227.919 28.64c-.192 0-.362-.0693-.512-.208-.138-.1387-.208-.3093-.208-.512s.07-.3733.208-.512c.15-.1387.32-.208.512-.208.203 0 .374.0693.512.208.15.1387.224.3093.224.512s-.074.3733-.224.512c-.138.1387-.309.208-.512.208z"/><path d="m232.053 37.632c.597.352 1.243.528 1.936.528.704 0 1.328-.16 1.872-.48.555-.32.987-.6933 1.296-1.12l-.8-.656c-.267.3307-.597.6133-.992.848s-.853.352-1.376.352c-.501 0-.965-.128-1.392-.384-.416-.256-.752-.608-1.008-1.056-.245-.4587-.368-.96-.368-1.504s.123-1.04.368-1.488c.256-.4587.592-.816 1.008-1.072.427-.256.891-.384 1.392-.384.928 0 1.707.3893 2.336 1.168l.8-.656c-.309-.416-.736-.7787-1.28-1.088-.533-.32-1.152-.48-1.856-.48-.693 0-1.339.1813-1.936.544-.587.352-1.056.832-1.408 1.44-.341.608-.512 1.28-.512 2.016s.171 1.408.512 2.016c.352.608.821 1.0933 1.408 1.456z"/><path d="m240.798 38.16c-.608 0-1.168-.1387-1.68-.416s-.901-.5867-1.168-.928l.736-.72c.213.2667.512.5067.896.72s.795.32 1.232.32c.544 0 .965-.1227 1.264-.368.309-.256.464-.576.464-.96 0-.3307-.144-.5813-.432-.752s-.731-.3413-1.328-.512c-.533-.1707-.971-.3307-1.312-.48-.331-.1493-.613-.368-.848-.656s-.352-.656-.352-1.104c0-.3733.107-.72.32-1.04.224-.3307.533-.5973.928-.8.405-.2027.859-.304 1.36-.304.555 0 1.045.1067 1.472.32s.784.4693 1.072.768l-.736.72c-.523-.5227-1.125-.784-1.808-.784-.469 0-.843.112-1.12.336-.267.2133-.4.4747-.4.784 0 .32.139.5653.416.736.288.16.725.3253 1.312.496.533.16.965.32 1.296.48.341.1493.629.368.864.656.245.288.368.6667.368 1.136 0 .4267-.117.8213-.352 1.184-.224.352-.549.6347-.976.848s-.923.32-1.488.32z"/></g></svg>