<svg fill="none" height="48" viewBox="0 0 244 48" width="244" xmlns="http://www.w3.org/2000/svg"><g fill="#000"><path clip-rule="evenodd" d="m48 24c0 13.2548-10.7452 24-24 24s-24-10.7452-24-24 10.7452-24 24-24 24 10.7452 24 24zm-31.4483 3.0894c.3353.578.956.9379 1.6195.9379 1.0347 0 1.8762-.8419 1.8762-1.8767 0-.3312-.0856-.6549-.2485-.9362-.6059-1.048-.9259-2.2401-.9259-3.4483 0-3.8055 3.0956-6.9018 6.9017-6.9018 1.0339 0 1.875-.8415 1.875-1.8761 0-1.0342-.8388-1.8758-1.8692-1.8758-5.8769 0-10.6579 4.7794-10.6579 10.6537 0 1.8654.4941 3.7062 1.4291 5.3233zm3.5697-5.3233c0-1.6393.6977-3.1153 1.8123-4.1477-.0963 1.1668.471 2.3392 1.5527 2.9636.4835.2797 1.0209.4212 1.5594.4212.961-.0006 1.9336.2395 2.8246.754 1.4202.8201 2.3496 2.1623 2.6866 3.644-.9629-.6668-2.2624-.7621-3.3432-.1378-.4845.2793-.8748.6734-1.1445 1.1393-.48.834-1.1743 1.5558-2.0658 2.0702-1.4199.8191-3.0468.9531-4.498.5048 1.0578-.5012 1.7898-1.5783 1.7898-2.8271 0-.5582-.1458-1.0946-.4147-1.5606-.4812-.8325-.7592-1.7954-.7592-2.8239zm11.5871 10.8994c.2876.1664.613.2535.9412.2535.6649 0 1.2858-.3576 1.6178-.9334 1.4229-2.4642 1.8011-5.3359 1.0647-8.0858-.7366-2.7508-2.4992-5.0487-4.9622-6.471-1.6145-.9319-3.4538-1.4244-5.3242-1.4244-.6691.0015-1.2908.3592-1.6219.9332-.5168.8958-.2095 2.0455.6858 2.5631.288.1659.6111.2535.9419.2535 1.2085 0 2.3991.3187 3.4434.9215 3.2954 1.903 4.4282 6.1321 2.5266 9.4281-.5178.8955-.2091 2.0443.6869 2.5617zm-19.7608-3.767c1.897 3.2878 5.4384 5.3307 9.2413 5.3307 1.8586 0 3.696-.4939 5.3142-1.428 1.6157-.933 2.9621-2.2812 3.8942-3.8984.3337-.5788.3354-1.2963.0033-1.8714-.4976-.8617-1.6944-1.1893-2.5623-.6865-.2868.165-.5241.4008-.6873.6821-.6047 1.0495-1.4768 1.9234-2.5238 2.5272-1.0487.6053-2.2403.9255-3.4442.9255-2.4609 0-4.7536-1.3226-5.9837-3.4518-.4959-.8611-1.6921-1.1873-2.5619-.6851-.8955.5165-1.2055 1.6633-.6898 2.5557z" fill-rule="evenodd"/><path d="m60 0h1v48h-1z"/><path d="m79.1002 22.3c-1.24 0-2.3333-.2334-3.28-.7-.9467-.48-1.6533-1.0334-2.12-1.66l1.88-1.84c.4.4266.8733.7933 1.42 1.1.56.2933 1.1867.44 1.88.44.7067 0 1.26-.16 1.66-.48s.6-.7.6-1.14c0-.4534-.2067-.8067-.62-1.06-.4133-.2534-1.06-.5267-1.94-.82-.9067-.3067-1.6467-.6-2.22-.88-.5733-.2934-1.0667-.72-1.48-1.28s-.62-1.2867-.62-2.18c0-.7734.2133-1.4734.64-2.10005.4267-.62667 1.02-1.11333 1.78-1.46.76-.36 1.6133-.54 2.56-.54 1.0667 0 2.02.20667 2.86.62.8533.4 1.48.85333 1.88 1.36l-1.88 1.84005c-.3067-.3067-.6933-.58-1.16-.82s-.9667-.36-1.5-.36c-.6533 0-1.16.14-1.52.42-.3467.28-.52.62-.52 1.02 0 .4533.2067.8066.62 1.06.4133.2533 1.0667.5266 1.96.82.9067.3066 1.6467.6066 2.22.9.5733.28 1.0667.7 1.48 1.26s.62 1.2866.62 2.18c0 .7733-.2133 1.4933-.64 2.16-.4267.6533-1.0333 1.1733-1.82 1.56-.7867.3866-1.7.58-2.74.58z"/><path d="m90.2733 22h-2.32l-3.4-9.7h2.88l1.84 5.82h.06l1.92-5.82h2.1l1.92 5.82h.06l1.84-5.82h2.78l-3.4 9.7h-2.32l-1.94-5.94h-.06z"/><path d="m100.959 22h2.7v-9.7h-2.7z"/><path d="m101.199 10.42c.306.28.68.42 1.12.42.426 0 .786-.14 1.08-.42.306-.2934.46-.65338.46-1.08005 0-.41333-.154-.76667-.46-1.06-.294-.29333-.654-.44-1.08-.44-.427 0-.794.14667-1.1.44-.307.29333-.46.64667-.46 1.06 0 .42667.146.78665.44 1.08005z"/><path d="m106.767 22v-7.2h-1.6v-2.5h1.6v-1c0-1.12.286-1.98005.86-2.58005.586-.61333 1.386-.92 2.4-.92.32 0 .64.03333.96.1.32.05333.58.12.78.2v2.50005c-.347-.1734-.694-.26-1.04-.26-.4 0-.714.1133-.94.34-.214.2266-.32.5466-.32.96v.66h2.1v2.5h-2.1v7.2z"/><path d="m114.39 21.18c.587.6133 1.387.92 2.4.92.32 0 .64-.0334.96-.1.32-.0534.58-.12.78-.2v-2.5c-.32.16-.667.24-1.04.24-.4 0-.713-.1134-.94-.34-.213-.2267-.32-.56-.32-1v-3.4h2.1v-2.5h-2.1v-3.10005h-2.4v1.94005c0 .3733-.093.66-.28.86s-.44.3-.76.3h-.86v2.5h1.6v3.8c0 1.1066.287 1.9666.86 2.58z"/><path clip-rule="evenodd" d="m120.621 22v-14.00005h4.96c1.4 0 2.666.31333 3.8.94 1.133.62667 2.02 1.47335 2.66 2.54005.653 1.0666.98 2.24.98 3.52 0 1.2666-.327 2.44-.98 3.52-.64 1.0666-1.527 1.9133-2.66 2.54-1.134.6266-2.4.94-3.8.94zm4.96-2.7c.826 0 1.573-.1867 2.24-.56.68-.3734 1.206-.8867 1.58-1.54.386-.6667.579-1.4.579-2.2 0-.8134-.193-1.5467-.579-2.2-.374-.6534-.894-1.1667-1.56-1.54-.667-.3734-1.42-.56-2.26-.56h-1.96v8.6z" fill-rule="evenodd"/><path clip-rule="evenodd" d="m136.737 21.52c.8.4533 1.68.68 2.64.68.893 0 1.706-.16 2.44-.48.733-.32 1.3-.6934 1.7-1.12l-1.42-1.7c-.747.6666-1.587 1-2.52 1-.68 0-1.267-.1867-1.76-.56-.48-.3867-.76-.8334-.84-1.34h7.06c.066-.3334.1-.6867.1-1.06 0-.9067-.214-1.7267-.64-2.46-.427-.7334-1.014-1.3134-1.76-1.74-.747-.4267-1.58-.64-2.5-.64s-1.767.2266-2.54.68c-.774.44-1.387 1.0466-1.84 1.82-.454.7733-.68 1.62-.68 2.54s.226 1.7666.68 2.54c.466.7733 1.093 1.3866 1.88 1.84zm3.9-6.68c.386.3333.64.7666.76 1.3h-4.44c.16-.5334.433-.9667.82-1.3.386-.3334.873-.5 1.46-.5.56 0 1.026.1666 1.4.5z" fill-rule="evenodd"/><path d="m149.606 22.1c-1.013 0-1.813-.3067-2.4-.92-.573-.6134-.86-1.4734-.86-2.58v-3.8h-1.6v-2.5h.86c.32 0 .574-.1.76-.3.187-.2.28-.4867.28-.86v-1.94005h2.4v3.10005h2.1v2.5h-2.1v3.4c0 .44.107.7733.32 1 .227.2266.54.34.94.34.374 0 .72-.08 1.04-.24v2.5c-.2.08-.46.1466-.78.2-.32.0666-.64.1-.96.1z"/><path clip-rule="evenodd" d="m154.702 21.52c.8.4533 1.68.68 2.64.68.893 0 1.706-.16 2.44-.48.733-.32 1.3-.6934 1.7-1.12l-1.42-1.7c-.747.6666-1.587 1-2.52 1-.68 0-1.267-.1867-1.76-.56-.48-.3867-.76-.8334-.84-1.34h7.06c.066-.3334.1-.6867.1-1.06 0-.9067-.214-1.7267-.64-2.46-.427-.7334-1.014-1.3134-1.76-1.74-.747-.4267-1.58-.64-2.5-.64s-1.767.2266-2.54.68c-.774.44-1.387 1.0466-1.84 1.82-.454.7733-.68 1.62-.68 2.54s.226 1.7666.68 2.54c.466.7733 1.093 1.3866 1.88 1.84zm3.9-6.68c.386.3333.64.7666.76 1.3h-4.44c.16-.5334.433-.9667.82-1.3.386-.3334.873-.5 1.46-.5.56 0 1.026.1666 1.4.5z" fill-rule="evenodd"/><path d="m168.111 22.2c-.96 0-1.84-.2267-2.64-.68-.787-.4534-1.413-1.0667-1.88-1.84-.453-.7734-.68-1.62-.68-2.54s.227-1.7667.68-2.54c.467-.7734 1.093-1.38 1.88-1.82.8-.4534 1.68-.68 2.64-.68.947 0 1.78.2 2.5.6.733.3866 1.293.84 1.68 1.36l-1.76 1.62c-.64-.72-1.413-1.08-2.32-1.08-.72 0-1.327.2466-1.82.74-.48.48-.72 1.08-.72 1.8 0 .7333.24 1.3466.72 1.84.493.48 1.1.72 1.82.72.907 0 1.707-.3734 2.4-1.12l1.76 1.62c-.427.5333-1.007 1-1.74 1.4s-1.573.6-2.52.6z"/><path d="m175.198 21.18c.587.6133 1.387.92 2.4.92.32 0 .64-.0334.96-.1.32-.0534.58-.12.78-.2v-2.5c-.32.16-.666.24-1.04.24-.4 0-.713-.1134-.94-.34-.213-.2267-.32-.56-.32-1v-3.4h2.1v-2.5h-2.1v-3.10005h-2.4v1.94005c0 .3733-.093.66-.28.86-.186.2-.44.3-.76.3h-.86v2.5h1.6v3.8c0 1.1066.287 1.9666.86 2.58z"/><path clip-rule="evenodd" d="m78.2482 38.16c-.64 0-1.216-.1547-1.728-.464-.5013-.3094-.8587-.6507-1.072-1.024h-.016v1.328h-1.088v-11.2h1.088v4.848h.016c.2133-.3734.5707-.7147 1.072-1.024.512-.3094 1.088-.464 1.728-.464s1.232.176 1.776.528c.5547.3413.9973.816 1.328 1.424s.496 1.2906.496 2.048c0 .7573-.1653 1.44-.496 2.048s-.7733 1.088-1.328 1.44c-.544.3413-1.136.512-1.776.512zm-.128-1.056c.4693 0 .9067-.128 1.312-.384s.7253-.608.96-1.056c.2453-.448.368-.9494.368-1.504 0-.5654-.1227-1.072-.368-1.52-.2347-.448-.5547-.7947-.96-1.04-.4053-.256-.8427-.384-1.312-.384-.4907 0-.944.128-1.36.384-.4053.2453-.7307.592-.976 1.04-.2347.448-.352.9546-.352 1.52 0 .5546.1173 1.056.352 1.504.2453.448.5707.8.976 1.056.416.256.8693.384 1.36.384z" fill-rule="evenodd"/><path d="m89.8103 30.32h-1.136l-2.256 6.352h-.032l-2.768-6.352h-1.184l3.392 7.696-.464 1.152c-.2986.768-.7786 1.152-1.44 1.152-.16 0-.3146-.0214-.464-.064-.1386-.0427-.256-.0907-.352-.1441v1.056c.2774.128.5814.1921.912.1921.5974 0 1.088-.176 1.472-.528.3947-.3414.7307-.8854 1.008-1.632z"/><path clip-rule="evenodd" d="m94.4181 38v-11.2h4.192c.6933 0 1.3173.1546 1.8719.464.565.3093 1.008.736 1.328 1.28.32.5333.48 1.12.48 1.76s-.16 1.232-.48 1.776c-.32.5333-.763.9546-1.328 1.264-.5546.3093-1.1786.464-1.8719.464h-2.992v4.192zm4.192-5.328c.7253 0 1.3173-.224 1.7759-.672.469-.448.704-1.0134.704-1.696 0-.448-.107-.848-.32-1.2-.213-.3627-.507-.6454-.8799-.848-.3734-.2134-.8-.32-1.28-.32h-2.992v4.736z" fill-rule="evenodd"/><path d="m103.869 26.8v11.2h1.088v-4.2561c0-.4799.107-.9119.32-1.2959.214-.384.502-.6827.864-.896.363-.224.768-.336 1.216-.336.619 0 1.126.208 1.52.624.406.416.608.96.608 1.632v4.528h1.088v-4.528c0-.6507-.133-1.2267-.4-1.728-.266-.5014-.634-.8907-1.104-1.168-.469-.2774-.997-.416-1.584-.416-.565 0-1.077.144-1.536.432-.448.2773-.773.5973-.976.96h-.016v-4.752z"/><path clip-rule="evenodd" d="m115.392 30.16c.586 0 1.104.128 1.552.384.458.256.816.6133 1.072 1.072.256.4479.384.9653.384 1.552v4.832h-1.04v-1.232h-.016c-.203.352-.544.672-1.024.96s-1.03.432-1.648.432c-.502 0-.95-.1014-1.344-.304-.384-.2027-.688-.4694-.912-.8-.214-.3414-.32-.704-.32-1.088 0-.6187.213-1.136.64-1.552.426-.4267 1.029-.704 1.808-.832l2.784-.4641v-.0159c0-.576-.182-1.04-.544-1.392-.352-.352-.816-.528-1.392-.528-.448 0-.843.1013-1.184.304-.331.192-.651.448-.96.768l-.72-.688c.32-.3947.725-.7254 1.216-.992.49-.2774 1.04-.416 1.648-.416zm-.608 7.008c.469 0 .896-.112 1.28-.336.394-.224.704-.528.928-.912.224-.3947.336-.832.336-1.312v-.5441l-2.528.416c-.544.0961-.95.2667-1.216.5121-.267.2453-.4.5493-.4.912 0 .352.144.6506.432.8959.298.2454.688.3681 1.168.3681z" fill-rule="evenodd"/><path d="m120.442 30.32v7.68h1.088v-4.16c0-.4907.107-.9334.32-1.328.224-.3947.523-.704.896-.928.374-.224.784-.336 1.232-.336.15 0 .299.0106.448.032v-1.12h-.352c-.576 0-1.093.1386-1.552.416-.448.2773-.773.592-.976.944h-.016v-1.2z"/><path d="m125.605 38v-7.68h1.088v1.184h.016c.16-.3414.437-.6507.832-.928.405-.2774.885-.416 1.44-.416.586 0 1.098.16 1.536.48.437.32.746.672.928 1.056h.032c.17-.384.485-.736.944-1.056.469-.32 1.029-.48 1.68-.48.522 0 .997.1386 1.424.416.437.2666.784.6506 1.04 1.152.256.4906.384 1.0613.384 1.7119v4.5601h-1.088v-4.5601c0-.6826-.182-1.2213-.544-1.6159-.363-.4054-.822-.608-1.376-.608-.608 0-1.115.2293-1.52.688-.395.448-.592 1.0506-.592 1.808v4.288h-1.088v-4.5601c0-.6826-.187-1.2213-.56-1.6159-.363-.4054-.822-.608-1.376-.608-.608 0-1.115.2293-1.52.688-.395.448-.592 1.0506-.592 1.808v4.288z"/><path clip-rule="evenodd" d="m143.322 30.544c-.448-.256-.966-.384-1.552-.384-.608 0-1.158.1386-1.648.416-.491.2666-.896.5973-1.216.992l.72.688c.309-.32.629-.576.96-.768.341-.2027.736-.304 1.184-.304.576 0 1.04.176 1.392.528.362.352.544.816.544 1.392v.0159l-2.784.4641c-.779.128-1.382.4053-1.808.832-.427.416-.64.9333-.64 1.552 0 .384.106.7466.32 1.088.224.3306.528.5973.912.8.394.2026.842.304 1.344.304.618 0 1.168-.144 1.648-.432s.821-.608 1.024-.96h.016v1.232h1.04v-4.832c0-.5867-.128-1.1041-.384-1.552-.256-.4587-.614-.816-1.072-1.072zm-.88 6.288c-.384.224-.811.336-1.28.336-.48 0-.87-.1227-1.168-.3681-.288-.2453-.432-.5439-.432-.8959 0-.3627.133-.6667.4-.912.266-.2454.672-.416 1.216-.5121l2.528-.416v.5441c0 .48-.112.9173-.336 1.312-.224.384-.534.688-.928.912z" fill-rule="evenodd"/><path d="m147.064 38h-1.248l2.864-4-2.624-3.68h1.296l2.032 2.928h.032l2.016-2.928h1.264l-2.624 3.68 2.864 4h-1.312l-2.256-3.248h-.032z"/><path clip-rule="evenodd" d="m155.329 37.632c.597.352 1.248.528 1.952.528s1.354-.176 1.952-.528c.597-.3627 1.072-.848 1.424-1.456s.528-1.28.528-2.016-.176-1.408-.528-2.016-.827-1.088-1.424-1.44c-.598-.3627-1.248-.544-1.952-.544s-1.355.1813-1.952.544c-.598.352-1.072.832-1.424 1.44s-.528 1.28-.528 2.016.176 1.408.528 2.016.826 1.0933 1.424 1.456zm3.36-.912c-.427.256-.896.384-1.408.384s-.987-.128-1.424-.384c-.427-.256-.768-.608-1.024-1.056-.246-.4587-.368-.96-.368-1.504s.122-1.04.368-1.488c.256-.4587.597-.816 1.024-1.072.437-.256.912-.384 1.424-.384s.981.128 1.408.384c.437.256.778.6133 1.024 1.072.256.448.384.944.384 1.488s-.128 1.0453-.384 1.504c-.246.448-.587.8-1.024 1.056z" fill-rule="evenodd"/><path clip-rule="evenodd" d="m166.506 38v-11.2h3.472c1.088 0 2.074.2506 2.96.752.896.5013 1.6 1.184 2.112 2.048.512.8533.768 1.7866.768 2.8 0 1.0133-.256 1.952-.768 2.816-.512.8533-1.216 1.5306-2.112 2.032-.886.5013-1.872.752-2.96.752zm3.472-1.136c.885 0 1.68-.1974 2.384-.5921.704-.3946 1.253-.9279 1.648-1.5999.405-.6827.608-1.44.608-2.272s-.203-1.5894-.608-2.272c-.395-.6827-.944-1.216-1.648-1.6-.704-.3947-1.499-.592-2.384-.592h-2.272v8.928z" fill-rule="evenodd"/><path d="m177.691 30.32v7.68h1.088v-7.68z"/><path d="m177.723 28.432c.149.1386.32.208.512.208.203 0 .373-.0694.512-.208.149-.1387.224-.3094.224-.512 0-.2027-.075-.3734-.224-.512-.139-.1387-.309-.208-.512-.208-.192 0-.363.0693-.512.208-.139.1386-.208.3093-.208.512 0 .2026.069.3733.208.512z"/><path clip-rule="evenodd" d="m183.745 30.16c.586 0 1.104.128 1.552.384.458.256.816.6133 1.072 1.072.256.4479.384.9653.384 1.552v4.832h-1.04v-1.232h-.016c-.203.352-.544.672-1.024.96s-1.03.432-1.648.432c-.502 0-.95-.1014-1.344-.304-.384-.2027-.688-.4694-.912-.8-.214-.3414-.32-.704-.32-1.088 0-.6187.213-1.136.64-1.552.426-.4267 1.029-.704 1.808-.832l2.784-.4641v-.0159c0-.576-.182-1.04-.544-1.392-.352-.352-.816-.528-1.392-.528-.448 0-.843.1013-1.184.304-.331.192-.651.448-.96.768l-.72-.688c.32-.3947.725-.7254 1.216-.992.49-.2774 1.04-.416 1.648-.416zm-.608 7.008c.469 0 .896-.112 1.28-.336.394-.224.704-.528.928-.912.224-.3947.336-.832.336-1.312v-.5441l-2.528.416c-.544.0961-.95.2667-1.216.5121-.267.2453-.4.5493-.4.912 0 .352.144.6506.432.8959.298.2454.688.3681 1.168.3681z" fill-rule="evenodd"/><path clip-rule="evenodd" d="m189.915 40.8479c.608.3414 1.259.5121 1.952.5121.694 0 1.318-.1707 1.872-.5121.566-.3413 1.008-.8106 1.328-1.408.32-.5866.48-1.2479.48-1.9839v-7.136h-1.088v1.28h-.016c-.224-.3627-.576-.6934-1.056-.992-.48-.2987-1.024-.448-1.632-.448-.629 0-1.21.1653-1.744.496-.533.3306-.96.7893-1.28 1.376-.309.5866-.464 1.2426-.464 1.968 0 .7253.155 1.3813.464 1.968.32.5866.747 1.0453 1.28 1.376.534.3306 1.115.496 1.744.496.544 0 1.062-.128 1.552-.384.491-.2667.87-.624 1.136-1.072h.016v1.072c0 .832-.24 1.5146-.72 2.048-.48.5333-1.104.8-1.872.8-.522 0-1.018-.1334-1.488-.4001-.458-.2666-.789-.5546-.992-.8639l-.784.7199c.267.3947.704.7574 1.312 1.088zm3.264-4.4159c-.384.2346-.816.352-1.296.352-.458 0-.885-.1174-1.28-.352-.384-.2454-.688-.576-.912-.992-.224-.4267-.336-.9067-.336-1.44 0-.5334.112-1.0134.336-1.44.224-.4267.528-.7574.912-.992.395-.2347.822-.352 1.28-.352.48 0 .912.1173 1.296.352.395.2346.704.5653.928.992.235.4266.352.9066.352 1.44 0 .5333-.117 1.0133-.352 1.44-.224.416-.533.7466-.928.992z" fill-rule="evenodd"/><path d="m197.677 38v-7.68h1.088v1.232h.016c.202-.3627.528-.6827.976-.96.458-.288.97-.432 1.536-.432.586 0 1.114.1386 1.584.416.469.2773.837.6666 1.104 1.168.266.5013.4 1.0773.4 1.728v4.528h-1.088v-4.528c0-.672-.203-1.216-.608-1.632-.395-.416-.902-.624-1.52-.624-.448 0-.854.112-1.216.336-.363.2133-.651.512-.864.896-.214.384-.32.816-.32 1.2959v4.2561z"/><path clip-rule="evenodd" d="m207.857 37.632c.597.352 1.248.528 1.952.528s1.355-.176 1.952-.528c.597-.3627 1.072-.848 1.424-1.456s.528-1.28.528-2.016-.176-1.408-.528-2.016-.827-1.088-1.424-1.44c-.597-.3627-1.248-.544-1.952-.544s-1.355.1813-1.952.544c-.597.352-1.072.832-1.424 1.44s-.528 1.28-.528 2.016.176 1.408.528 2.016.827 1.0933 1.424 1.456zm3.36-.912c-.427.256-.896.384-1.408.384s-.987-.128-1.424-.384c-.427-.256-.768-.608-1.024-1.056-.245-.4587-.368-.96-.368-1.504s.123-1.04.368-1.488c.256-.4587.597-.816 1.024-1.072.437-.256.912-.384 1.424-.384s.981.128 1.408.384c.437.256.779.6133 1.024 1.072.256.448.384.944.384 1.488s-.128 1.0453-.384 1.504c-.245.448-.587.8-1.024 1.056z" fill-rule="evenodd"/><path d="m217.554 38.16c-.608 0-1.168-.1387-1.68-.4161-.512-.2773-.901-.5866-1.168-.9279l.736-.72c.214.2666.512.5066.896.72.384.2133.795.32 1.232.32.544 0 .966-.1227 1.264-.368.31-.256.464-.576.464-.96 0-.3307-.144-.5814-.432-.752-.288-.1707-.73-.3414-1.328-.512-.533-.1707-.97-.3307-1.312-.4801-.33-.1493-.613-.3679-.848-.6559-.234-.288-.352-.656-.352-1.104 0-.3734.107-.72.32-1.04.224-.3307.534-.5974.928-.8.406-.2027.859-.304 1.36-.304.555 0 1.046.1066 1.472.32.427.2133.784.4693 1.072.768l-.736.72c-.522-.5227-1.125-.784-1.808-.784-.469 0-.842.112-1.12.336-.266.2133-.4.4746-.4.784 0 .32.139.5653.416.736.288.16.726.3253 1.312.4959.534.1601.966.32 1.296.4801.342.1493.63.368.864.656.246.288.368.6666.368 1.136 0 .4266-.117.8213-.352 1.184-.224.352-.549.6346-.976.848-.426.2133-.922.32-1.488.32z"/><path d="m223.193 37.504c.373.384.896.576 1.568.576.213 0 .421-.0267.624-.08.202-.0427.368-.096.496-.16v-1.056c-.342.16-.667.24-.976.24-.363 0-.651-.112-.864-.336-.203-.224-.304-.544-.304-.96v-4.352h1.888v-1.056h-1.888v-2.56h-.976v1.824c0 .2453-.059.432-.176.56-.107.1173-.256.176-.448.176h-.976v1.056h1.488v4.416c0 .7466.181 1.3173.544 1.712z"/><path d="m227.375 38v-7.68h1.088v7.68z"/><path d="m227.919 28.64c-.192 0-.362-.0694-.512-.208-.138-.1387-.208-.3094-.208-.512 0-.2027.07-.3734.208-.512.15-.1387.32-.208.512-.208.203 0 .374.0693.512.208.15.1386.224.3093.224.512 0 .2026-.074.3733-.224.512-.138.1386-.309.208-.512.208z"/><path d="m232.053 37.632c.597.352 1.243.528 1.936.528.704 0 1.328-.16 1.872-.48.555-.32.987-.6934 1.296-1.12l-.8-.656c-.267.3306-.597.6133-.992.848-.395.2346-.853.352-1.376.352-.501 0-.965-.128-1.392-.384-.416-.256-.752-.608-1.008-1.056-.245-.4587-.368-.96-.368-1.504s.123-1.04.368-1.488c.256-.4587.592-.816 1.008-1.072.427-.256.891-.384 1.392-.384.928 0 1.707.3893 2.336 1.1679l.8-.6559c-.309-.416-.736-.7787-1.28-1.088-.533-.32-1.152-.48-1.856-.48-.693 0-1.339.1813-1.936.544-.587.352-1.056.832-1.408 1.44-.341.608-.512 1.28-.512 2.016s.171 1.408.512 2.016c.352.608.821 1.0933 1.408 1.456z"/><path d="m240.798 38.16c-.608 0-1.168-.1387-1.68-.4161-.512-.2773-.901-.5866-1.168-.9279l.736-.72c.213.2666.512.5066.896.72.384.2133.795.32 1.232.32.544 0 .965-.1227 1.264-.368.309-.256.464-.576.464-.96 0-.3307-.144-.5814-.432-.752-.288-.1707-.731-.3414-1.328-.512-.533-.1707-.971-.3307-1.312-.4801-.331-.1493-.613-.3679-.848-.6559s-.352-.656-.352-1.104c0-.3734.107-.72.32-1.04.224-.3307.533-.5974.928-.8.405-.2027.859-.304 1.36-.304.555 0 1.045.1066 1.472.32.427.2133.784.4693 1.072.768l-.736.72c-.523-.5227-1.125-.784-1.808-.784-.469 0-.843.112-1.12.336-.267.2133-.4.4746-.4.784 0 .32.139.5653.416.736.288.16.725.3253 1.312.4959.533.1601.965.32 1.296.4801.341.1493.629.368.864.656.245.288.368.6666.368 1.136 0 .4266-.117.8213-.352 1.184-.224.352-.549.6346-.976.848-.427.2133-.923.32-1.488.32z"/></g></svg>