<svg fill="none" height="48" viewBox="0 0 244 48" width="244" xmlns="http://www.w3.org/2000/svg"><g fill="#212121"><path d="m79.1 22.3c-1.24 0-2.3334-.2334-3.28-.7-.9467-.48-1.6534-1.0334-2.12-1.66l1.88-1.84c.4.4266.8733.7933 1.42 1.1.56.2933 1.1866.44 1.88.44.7066 0 1.26-.16 1.66-.48s.6-.7.6-1.14c0-.4534-.2067-.8067-.62-1.06-.4134-.2534-1.06-.5267-1.94-.82-.9067-.3067-1.6467-.6-2.22-.88-.5734-.2934-1.0667-.72-1.48-1.28-.4134-.56-.62-1.2867-.62-2.18 0-.7734.2133-1.4734.64-2.10005.4266-.62667 1.02-1.11333 1.78-1.46.76-.36 1.6133-.54 2.56-.54 1.0666 0 2.02.20667 2.86.62.8533.4 1.48.85333 1.88 1.36l-1.88 1.84005c-.3067-.3067-.6934-.58-1.16-.82-.4667-.24-.9667-.36-1.5-.36-.6534 0-1.16.14-1.52.42-.3467.28-.52.62-.52 1.02 0 .4533.2066.8066.62 1.06.4133.2533 1.0666.5266 1.96.82.9066.3066 1.6466.6066 2.22.9.5733.28 1.0666.7 1.48 1.26.4133.56.62 1.2866.62 2.18 0 .7733-.2134 1.4933-.64 2.16-.4267.6533-1.0334 1.1733-1.82 1.56-.7867.3866-1.7.58-2.74.58z"/><path d="m90.2731 22h-2.32l-3.4-9.7h2.88l1.84 5.82h.06l1.92-5.82h2.1l1.92 5.82h.06l1.84-5.82h2.78l-3.4 9.7h-2.32l-1.94-5.94h-.06z"/><path d="m103.659 22h-2.7v-9.7h2.7zm-1.34-11.16c-.44 0-.814-.14-1.12-.42-.294-.2934-.44-.65338-.44-1.08005 0-.41333.153-.76667.46-1.06.306-.29333.673-.44 1.1-.44.426 0 .786.14667 1.08.44.306.29333.46.64667.46 1.06 0 .42667-.154.78665-.46 1.08005-.294.28-.654.42-1.08.42z"/><path d="m106.766 22v-7.2h-1.6v-2.5h1.6v-1c0-1.12.287-1.98005.86-2.58005.587-.61333 1.387-.92 2.4-.92.32 0 .64.03333.96.1.32.05333.58.12.78.2v2.50005c-.346-.1734-.693-.26-1.04-.26-.4 0-.713.1133-.94.34-.213.2266-.32.5466-.32.96v.66h2.1v2.5h-2.1v7.2z"/><path d="m116.79 22.1c-1.014 0-1.814-.3067-2.4-.92-.574-.6134-.86-1.4734-.86-2.58v-3.8h-1.6v-2.5h.86c.32 0 .573-.1.76-.3.186-.2.28-.4867.28-.86v-1.94005h2.4v3.10005h2.1v2.5h-2.1v3.4c0 .44.106.7733.32 1 .226.2266.54.34.94.34.373 0 .72-.08 1.04-.24v2.5c-.2.08-.46.1466-.78.2-.32.0666-.64.1-.96.1z"/><path d="m120.62 22v-14.00005h4.96c1.4 0 2.667.31333 3.8.94 1.134.62667 2.02 1.47335 2.66 2.54005.654 1.0666.98 2.24.98 3.52 0 1.2666-.326 2.44-.98 3.52-.64 1.0666-1.526 1.9133-2.66 2.54-1.133.6266-2.4.94-3.8.94zm4.96-2.7c.827 0 1.574-.1867 2.24-.56.68-.3734 1.207-.8867 1.58-1.54.387-.6667.58-1.4.58-2.2 0-.8134-.193-1.5467-.58-2.2-.373-.6534-.893-1.1667-1.56-1.54-.666-.3734-1.42-.56-2.26-.56h-1.96v8.6z"/><path d="m139.377 22.2c-.96 0-1.84-.2267-2.64-.68-.787-.4534-1.414-1.0667-1.88-1.84-.454-.7734-.68-1.62-.68-2.54s.226-1.7667.68-2.54c.453-.7734 1.066-1.38 1.84-1.82.773-.4534 1.62-.68 2.54-.68s1.753.2133 2.5.64c.746.4266 1.333 1.0066 1.76 1.74.426.7333.64 1.5533.64 2.46 0 .3733-.034.7266-.1 1.06h-7.06c.08.5066.36.9533.84 1.34.493.3733 1.08.56 1.76.56.933 0 1.773-.3334 2.52-1l1.42 1.7c-.4.4266-.967.8-1.7 1.12-.734.32-1.547.48-2.44.48zm2.02-6.06c-.12-.5334-.374-.9667-.76-1.3-.374-.3334-.84-.5-1.4-.5-.587 0-1.074.1666-1.46.5-.387.3333-.66.7666-.82 1.3z"/><path d="m149.606 22.1c-1.013 0-1.813-.3067-2.4-.92-.573-.6134-.86-1.4734-.86-2.58v-3.8h-1.6v-2.5h.86c.32 0 .573-.1.76-.3s.28-.4867.28-.86v-1.94005h2.4v3.10005h2.1v2.5h-2.1v3.4c0 .44.107.7733.32 1 .227.2266.54.34.94.34.373 0 .72-.08 1.04-.24v2.5c-.2.08-.46.1466-.78.2-.32.0666-.64.1-.96.1z"/><path d="m157.341 22.2c-.96 0-1.84-.2267-2.64-.68-.786-.4534-1.413-1.0667-1.88-1.84-.453-.7734-.68-1.62-.68-2.54s.227-1.7667.68-2.54c.454-.7734 1.067-1.38 1.84-1.82.774-.4534 1.62-.68 2.54-.68s1.754.2133 2.5.64c.747.4266 1.334 1.0066 1.76 1.74.427.7333.64 1.5533.64 2.46 0 .3733-.033.7266-.1 1.06h-7.06c.08.5066.36.9533.84 1.34.494.3733 1.08.56 1.76.56.934 0 1.774-.3334 2.52-1l1.42 1.7c-.4.4266-.966.8-1.7 1.12-.733.32-1.546.48-2.44.48zm2.02-6.06c-.12-.5334-.373-.9667-.76-1.3-.373-.3334-.84-.5-1.4-.5-.586 0-1.073.1666-1.46.5-.386.3333-.66.7666-.82 1.3z"/><path d="m168.111 22.2c-.96 0-1.84-.2267-2.64-.68-.787-.4534-1.413-1.0667-1.88-1.84-.453-.7734-.68-1.62-.68-2.54s.227-1.7667.68-2.54c.467-.7734 1.093-1.38 1.88-1.82.8-.4534 1.68-.68 2.64-.68.947 0 1.78.2 2.5.6.733.3866 1.293.84 1.68 1.36l-1.76 1.62c-.64-.72-1.413-1.08-2.32-1.08-.72 0-1.327.2466-1.82.74-.48.48-.72 1.08-.72 1.8 0 .7333.24 1.3466.72 1.84.493.48 1.1.72 1.82.72.907 0 1.707-.3734 2.4-1.12l1.76 1.62c-.427.5333-1.007 1-1.74 1.4s-1.573.6-2.52.6z"/><path d="m177.598 22.1c-1.013 0-1.813-.3067-2.4-.92-.573-.6134-.86-1.4734-.86-2.58v-3.8h-1.6v-2.5h.86c.32 0 .574-.1.76-.3.187-.2.28-.4867.28-.86v-1.94005h2.4v3.10005h2.1v2.5h-2.1v3.4c0 .44.107.7733.32 1 .227.2266.54.34.94.34.374 0 .72-.08 1.04-.24v2.5c-.2.08-.46.1466-.78.2-.32.0666-.64.1-.96.1z"/><path d="m78.248 38.16c-.64 0-1.216-.1547-1.728-.464-.5014-.3094-.8587-.6507-1.072-1.024h-.016v1.328h-1.088v-11.2h1.088v4.848h.016c.2133-.3734.5706-.7147 1.072-1.024.512-.3094 1.088-.464 1.728-.464s1.232.176 1.776.528c.5546.3413.9973.816 1.328 1.424.3306.608.496 1.2906.496 2.048 0 .7573-.1654 1.44-.496 2.048-.3307.608-.7734 1.088-1.328 1.44-.544.3413-1.136.512-1.776.512zm-.128-1.056c.4693 0 .9066-.128 1.312-.384.4053-.256.7253-.608.96-1.056.2453-.448.368-.9494.368-1.504 0-.5654-.1227-1.072-.368-1.52-.2347-.448-.5547-.7947-.96-1.04-.4054-.256-.8427-.384-1.312-.384-.4907 0-.944.128-1.36.384-.4054.2453-.7307.592-.976 1.04-.2347.448-.352.9546-.352 1.52 0 .5546.1173 1.056.352 1.504.2453.448.5706.8.976 1.056.416.256.8693.384 1.36.384z"/><path d="m88.6741 30.32h1.136l-3.312 8.88c-.2774.7466-.6134 1.2906-1.008 1.632-.384.352-.8747.528-1.472.528-.3307 0-.6347-.0641-.912-.1921v-1.056c.096.0534.2133.1014.352.1441.1493.0426.304.064.464.064.6613 0 1.1413-.384 1.44-1.152l.464-1.152-3.392-7.696h1.184l2.768 6.352h.032z"/><path d="m94.4178 38v-11.2h4.192c.6934 0 1.3174.1546 1.8722.464.565.3093 1.008.736 1.328 1.28.32.5333.48 1.12.48 1.76s-.16 1.232-.48 1.776c-.32.5333-.763.9546-1.328 1.264-.5548.3093-1.1788.464-1.8722.464h-2.992v4.192zm4.192-5.328c.7254 0 1.3174-.224 1.7762-.672.469-.448.704-1.0134.704-1.696 0-.448-.107-.848-.32-1.2-.214-.3627-.507-.6454-.8802-.848-.3733-.2134-.8-.32-1.28-.32h-2.992v4.736z"/><path d="m103.869 38v-11.2h1.088v4.752h.016c.203-.3627.528-.6827.976-.96.459-.288.971-.432 1.536-.432.587 0 1.115.1386 1.584.416.469.2773.837.6666 1.104 1.168.267.5013.4 1.0773.4 1.728v4.528h-1.088v-4.528c0-.672-.203-1.216-.608-1.632-.395-.416-.901-.624-1.52-.624-.448 0-.853.112-1.216.336-.363.2133-.651.512-.864.896s-.32.816-.32 1.296v4.256z"/><path d="m115.391 30.16c.587 0 1.104.128 1.552.384.459.256.816.6133 1.072 1.072.256.448.384.9653.384 1.552v4.832h-1.04v-1.232h-.016c-.202.352-.544.672-1.024.96s-1.029.432-1.648.432c-.501 0-.949-.1014-1.344-.304-.384-.2027-.688-.4694-.912-.8-.213-.3414-.32-.704-.32-1.088 0-.6187.214-1.136.64-1.552.427-.4267 1.03-.704 1.808-.832l2.784-.464v-.016c0-.576-.181-1.04-.544-1.392-.352-.352-.816-.528-1.392-.528-.448 0-.842.1013-1.184.304-.33.192-.65.448-.96.768l-.72-.688c.32-.3947.726-.7254 1.216-.992.491-.2774 1.04-.416 1.648-.416zm-.608 7.008c.47 0 .896-.112 1.28-.336.395-.224.704-.528.928-.912.224-.3947.336-.832.336-1.312v-.544l-2.528.416c-.544.096-.949.2666-1.216.512-.266.2453-.4.5493-.4.912 0 .352.144.6506.432.896.299.2453.688.368 1.168.368z"/><path d="m120.442 38v-7.68h1.088v1.2h.016c.203-.352.528-.6667.976-.944.459-.2774.976-.416 1.552-.416h.352v1.12c-.149-.0214-.299-.032-.448-.032-.448 0-.859.112-1.232.336s-.672.5333-.896.928c-.213.3946-.32.8373-.32 1.328v4.16z"/><path d="m125.605 38v-7.68h1.088v1.184h.016c.16-.3414.437-.6507.832-.928.405-.2774.885-.416 1.44-.416.586 0 1.098.16 1.536.48.437.32.746.672.928 1.056h.032c.17-.384.485-.736.944-1.056.469-.32 1.029-.48 1.68-.48.522 0 .997.1386 1.424.416.437.2666.784.6506 1.04 1.152.256.4906.384 1.0613.384 1.712v4.56h-1.088v-4.56c0-.6827-.182-1.2214-.544-1.616-.363-.4054-.822-.608-1.376-.608-.608 0-1.115.2293-1.52.688-.395.448-.592 1.0506-.592 1.808v4.288h-1.088v-4.56c0-.6827-.187-1.2214-.56-1.616-.363-.4054-.822-.608-1.376-.608-.608 0-1.115.2293-1.52.688-.395.448-.592 1.0506-.592 1.808v4.288z"/><path d="m141.769 30.16c.587 0 1.104.128 1.552.384.459.256.816.6133 1.072 1.072.256.448.384.9653.384 1.552v4.832h-1.04v-1.232h-.016c-.202.352-.544.672-1.024.96s-1.029.432-1.648.432c-.501 0-.949-.1014-1.344-.304-.384-.2027-.688-.4694-.912-.8-.213-.3414-.32-.704-.32-1.088 0-.6187.214-1.136.64-1.552.427-.4267 1.03-.704 1.808-.832l2.784-.464v-.016c0-.576-.181-1.04-.544-1.392-.352-.352-.816-.528-1.392-.528-.448 0-.842.1013-1.184.304-.33.192-.65.448-.96.768l-.72-.688c.32-.3947.726-.7254 1.216-.992.491-.2774 1.04-.416 1.648-.416zm-.608 7.008c.47 0 .896-.112 1.28-.336.395-.224.704-.528.928-.912.224-.3947.336-.832.336-1.312v-.544l-2.528.416c-.544.096-.949.2666-1.216.512-.266.2453-.4.5493-.4.912 0 .352.144.6506.432.896.299.2453.688.368 1.168.368z"/><path d="m147.064 38h-1.248l2.864-4-2.624-3.68h1.296l2.032 2.928h.032l2.016-2.928h1.264l-2.624 3.68 2.864 4h-1.312l-2.256-3.248h-.032z"/><path d="m157.281 38.16c-.704 0-1.355-.176-1.952-.528-.598-.3627-1.072-.848-1.424-1.456s-.528-1.28-.528-2.016.176-1.408.528-2.016.826-1.088 1.424-1.44c.597-.3627 1.248-.544 1.952-.544s1.354.1813 1.952.544c.597.352 1.072.832 1.424 1.44s.528 1.28.528 2.016-.176 1.408-.528 2.016-.827 1.0933-1.424 1.456c-.598.352-1.248.528-1.952.528zm0-1.056c.512 0 .981-.128 1.408-.384.437-.256.778-.608 1.024-1.056.256-.4587.384-.96.384-1.504s-.128-1.04-.384-1.488c-.246-.4587-.587-.816-1.024-1.072-.427-.256-.896-.384-1.408-.384s-.987.128-1.424.384c-.427.256-.768.6133-1.024 1.072-.246.448-.368.944-.368 1.488s.122 1.0453.368 1.504c.256.448.597.8 1.024 1.056.437.256.912.384 1.424.384z"/><path d="m166.505 38v-11.2h3.472c1.088 0 2.075.2506 2.96.752.896.5013 1.6 1.184 2.112 2.048.512.8533.768 1.7866.768 2.8 0 1.0133-.256 1.952-.768 2.816-.512.8533-1.216 1.5306-2.112 2.032-.885.5013-1.872.752-2.96.752zm3.472-1.136c.886 0 1.68-.1974 2.384-.592.704-.3947 1.254-.928 1.648-1.6.406-.6827.608-1.44.608-2.272s-.202-1.5894-.608-2.272c-.394-.6827-.944-1.216-1.648-1.6-.704-.3947-1.498-.592-2.384-.592h-2.272v8.928z"/><path d="m178.779 38h-1.088v-7.68h1.088zm-.544-9.36c-.192 0-.363-.0694-.512-.208-.139-.1387-.208-.3094-.208-.512 0-.2027.069-.3734.208-.512.149-.1387.32-.208.512-.208.202 0 .373.0693.512.208.149.1386.224.3093.224.512 0 .2026-.075.3733-.224.512-.139.1386-.31.208-.512.208z"/><path d="m183.744 30.16c.587 0 1.104.128 1.552.384.459.256.816.6133 1.072 1.072.256.448.384.9653.384 1.552v4.832h-1.04v-1.232h-.016c-.202.352-.544.672-1.024.96s-1.029.432-1.648.432c-.501 0-.949-.1014-1.344-.304-.384-.2027-.688-.4694-.912-.8-.213-.3414-.32-.704-.32-1.088 0-.6187.214-1.136.64-1.552.427-.4267 1.03-.704 1.808-.832l2.784-.464v-.016c0-.576-.181-1.04-.544-1.392-.352-.352-.816-.528-1.392-.528-.448 0-.842.1013-1.184.304-.33.192-.65.448-.96.768l-.72-.688c.32-.3947.726-.7254 1.216-.992.491-.2774 1.04-.416 1.648-.416zm-.608 7.008c.47 0 .896-.112 1.28-.336.395-.224.704-.528.928-.912.224-.3947.336-.832.336-1.312v-.544l-2.528.416c-.544.096-.949.2666-1.216.512-.266.2453-.4.5493-.4.912 0 .352.144.6506.432.896.299.2453.688.368 1.168.368z"/><path d="m191.867 41.36c-.693 0-1.344-.1707-1.952-.5121-.608-.3306-1.045-.6933-1.312-1.088l.784-.7199c.203.3093.534.5973.992.8639.47.2667.966.4001 1.488.4001.768 0 1.392-.2667 1.872-.8.48-.5334.72-1.216.72-2.048v-1.072h-.016c-.266.448-.645.8053-1.136 1.072-.49.256-1.008.384-1.552.384-.629 0-1.21-.1654-1.744-.496-.533-.3307-.96-.7894-1.28-1.376-.309-.5867-.464-1.2427-.464-1.968 0-.7254.155-1.3814.464-1.968.32-.5867.747-1.0454 1.28-1.376.534-.3307 1.115-.496 1.744-.496.608 0 1.152.1493 1.632.448.48.2986.832.6293 1.056.992h.016v-1.28h1.088v7.136c0 .736-.16 1.3973-.48 1.984-.32.5973-.762 1.0666-1.328 1.4079-.554.3414-1.178.5121-1.872.5121zm.016-4.576c.48 0 .912-.1174 1.296-.352.395-.2454.704-.576.928-.992.235-.4267.352-.9067.352-1.44 0-.5334-.117-1.0134-.352-1.44-.224-.4267-.533-.7574-.928-.992-.384-.2347-.816-.352-1.296-.352-.458 0-.885.1173-1.28.352-.384.2346-.688.5653-.912.992-.224.4266-.336.9066-.336 1.44 0 .5333.112 1.0133.336 1.44.224.416.528.7466.912.992.395.2346.822.352 1.28.352z"/><path d="m197.676 38v-7.68h1.088v1.232h.016c.203-.3627.528-.6827.976-.96.459-.288.971-.432 1.536-.432.587 0 1.115.1386 1.584.416.47.2773.838.6666 1.104 1.168.267.5013.4 1.0773.4 1.728v4.528h-1.088v-4.528c0-.672-.202-1.216-.608-1.632-.394-.416-.901-.624-1.52-.624-.448 0-.853.112-1.216.336-.362.2133-.65.512-.864.896-.213.384-.32.816-.32 1.296v4.256z"/><path d="m209.809 38.16c-.704 0-1.355-.176-1.952-.528-.598-.3627-1.072-.848-1.424-1.456s-.528-1.28-.528-2.016.176-1.408.528-2.016.826-1.088 1.424-1.44c.597-.3627 1.248-.544 1.952-.544s1.354.1813 1.952.544c.597.352 1.072.832 1.424 1.44s.528 1.28.528 2.016-.176 1.408-.528 2.016-.827 1.0933-1.424 1.456c-.598.352-1.248.528-1.952.528zm0-1.056c.512 0 .981-.128 1.408-.384.437-.256.778-.608 1.024-1.056.256-.4587.384-.96.384-1.504s-.128-1.04-.384-1.488c-.246-.4587-.587-.816-1.024-1.072-.427-.256-.896-.384-1.408-.384s-.987.128-1.424.384c-.427.256-.768.6133-1.024 1.072-.246.448-.368.944-.368 1.488s.122 1.0453.368 1.504c.256.448.597.8 1.024 1.056.437.256.912.384 1.424.384z"/><path d="m217.554 38.16c-.608 0-1.168-.1387-1.68-.416-.512-.2774-.901-.5867-1.168-.928l.736-.72c.213.2666.512.5066.896.72.384.2133.795.32 1.232.32.544 0 .965-.1227 1.264-.368.309-.256.464-.576.464-.96 0-.3307-.144-.5814-.432-.752-.288-.1707-.731-.3414-1.328-.512-.533-.1707-.971-.3307-1.312-.48-.331-.1494-.613-.368-.848-.656s-.352-.656-.352-1.104c0-.3734.107-.72.32-1.04.224-.3307.533-.5974.928-.8.405-.2027.859-.304 1.36-.304.555 0 1.045.1066 1.472.32.427.2133.784.4693 1.072.768l-.736.72c-.523-.5227-1.125-.784-1.808-.784-.469 0-.843.112-1.12.336-.267.2133-.4.4746-.4.784 0 .32.139.5653.416.736.288.16.725.3253 1.312.496.533.16.965.32 1.296.48.341.1493.629.368.864.656.245.288.368.6666.368 1.136 0 .4266-.117.8213-.352 1.184-.224.352-.549.6346-.976.848-.427.2133-.923.32-1.488.32z"/><path d="m224.76 38.08c-.672 0-1.194-.192-1.568-.576-.362-.3947-.544-.9654-.544-1.712v-4.416h-1.488v-1.056h.976c.192 0 .342-.0587.448-.176.118-.128.176-.3147.176-.56v-1.824h.976v2.56h1.888v1.056h-1.888v4.352c0 .416.102.736.304.96.214.224.502.336.864.336.31 0 .635-.08.976-.24v1.056c-.128.064-.293.1173-.496.16-.202.0533-.41.08-.624.08z"/><path d="m228.463 38h-1.088v-7.68h1.088zm-.544-9.36c-.192 0-.362-.0694-.512-.208-.138-.1387-.208-.3094-.208-.512 0-.2027.07-.3734.208-.512.15-.1387.32-.208.512-.208.203 0 .374.0693.512.208.15.1386.224.3093.224.512 0 .2026-.074.3733-.224.512-.138.1386-.309.208-.512.208z"/><path d="m233.989 38.16c-.694 0-1.339-.176-1.936-.528-.587-.3627-1.056-.848-1.408-1.456-.341-.608-.512-1.28-.512-2.016s.171-1.408.512-2.016c.352-.608.821-1.088 1.408-1.44.597-.3627 1.242-.544 1.936-.544.704 0 1.322.16 1.856.48.544.3093.97.672 1.28 1.088l-.8.656c-.63-.7787-1.408-1.168-2.336-1.168-.502 0-.966.128-1.392.384-.416.256-.752.6133-1.008 1.072-.245.448-.368.944-.368 1.488s.123 1.0453.368 1.504c.256.448.592.8 1.008 1.056.426.256.89.384 1.392.384.522 0 .981-.1174 1.376-.352.395-.2347.725-.5174.992-.848l.8.656c-.31.4266-.741.8-1.296 1.12-.544.32-1.168.48-1.872.48z"/><path d="m240.798 38.16c-.608 0-1.168-.1387-1.68-.416-.512-.2774-.902-.5867-1.168-.928l.736-.72c.213.2666.512.5066.896.72.384.2133.794.32 1.232.32.544 0 .965-.1227 1.264-.368.309-.256.464-.576.464-.96 0-.3307-.144-.5814-.432-.752-.288-.1707-.731-.3414-1.328-.512-.534-.1707-.971-.3307-1.312-.48-.331-.1494-.614-.368-.848-.656-.235-.288-.352-.656-.352-1.104 0-.3734.106-.72.32-1.04.224-.3307.533-.5974.928-.8.405-.2027.858-.304 1.36-.304.554 0 1.045.1066 1.472.32.426.2133.784.4693 1.072.768l-.736.72c-.523-.5227-1.126-.784-1.808-.784-.47 0-.843.112-1.12.336-.267.2133-.4.4746-.4.784 0 .32.138.5653.416.736.288.16.725.3253 1.312.496.533.16.965.32 1.296.48.341.1493.629.368.864.656.245.288.368.6666.368 1.136 0 .4266-.118.8213-.352 1.184-.224.352-.55.6346-.976.848-.427.2133-.923.32-1.488.32z"/></g><path d="m60 0h1v48h-1z" fill="#e0e0e0"/><circle cx="24" cy="24" fill="#1565c0" r="24"/><path d="m16.5517 27.0894c.3353.578.956.9379 1.6195.9379 1.0347 0 1.8762-.8419 1.8762-1.8767 0-.3312-.0856-.6549-.2485-.9362-.6059-1.048-.9259-2.2401-.9259-3.4483 0-3.8055 3.0956-6.9018 6.9017-6.9018 1.0339 0 1.875-.8415 1.875-1.8761 0-1.0342-.8388-1.8758-1.8692-1.8758-5.8769 0-10.6579 4.7794-10.6579 10.6537 0 1.8654.4941 3.7062 1.4291 5.3233z" fill="#fff"/><path d="m20.1214 21.7661c0-1.6393.6977-3.1153 1.8123-4.1477-.0963 1.1668.471 2.3392 1.5527 2.9636.4835.2797 1.0209.4212 1.5594.4212.961-.0006 1.9336.2395 2.8246.754 1.4202.8201 2.3496 2.1623 2.6866 3.644-.9629-.6668-2.2624-.7621-3.3432-.1378-.4845.2793-.8748.6734-1.1445 1.1393-.48.834-1.1743 1.5558-2.0658 2.0702-1.4199.8191-3.0468.9531-4.498.5048 1.0578-.5012 1.7898-1.5783 1.7898-2.8271 0-.5582-.1458-1.0946-.4147-1.5606-.4812-.8325-.7592-1.7954-.7592-2.8239z" fill="#fff"/><path d="m32.6497 32.919c-.3282 0-.6536-.0871-.9412-.2535-.896-.5174-1.2047-1.6662-.6869-2.5617 1.9016-3.296.7688-7.5251-2.5266-9.4281-1.0443-.6028-2.2349-.9215-3.4434-.9215-.3308 0-.6539-.0876-.9419-.2535-.8953-.5176-1.2026-1.6673-.6858-2.5631.3311-.574.9528-.9317 1.6219-.9332 1.8704 0 3.7097.4925 5.3242 1.4244 2.463 1.4223 4.2256 3.7202 4.9622 6.471.7364 2.7499.3582 5.6216-1.0647 8.0858-.332.5758-.9529.9334-1.6178.9334z" fill="#fff"/><path d="m11.9477 28.8985c1.897 3.2878 5.4384 5.3307 9.2413 5.3307 1.8586 0 3.696-.4939 5.3142-1.428 1.6157-.933 2.9621-2.2812 3.8942-3.8984.3337-.5788.3354-1.2963.0033-1.8714-.4976-.8617-1.6944-1.1893-2.5623-.6865-.2868.165-.5241.4008-.6873.6821-.6047 1.0495-1.4768 1.9234-2.5238 2.5272-1.0487.6053-2.2403.9255-3.4442.9255-2.4609 0-4.7536-1.3226-5.9837-3.4518-.4959-.8611-1.6921-1.1873-2.5619-.6851-.8955.5165-1.2055 1.6633-.6898 2.5557z" fill="#fff"/></svg>