<svg fill="none" height="48" viewBox="0 0 187 48" width="187" xmlns="http://www.w3.org/2000/svg"><path d="m20.0089 10.0253c4.3353 0 7.1699 2.0886 9.3376 4.5114.1667.1671.2501.3342.4168.5013s.2501.3342.4169.5012c.7503.919 1.3339 1.9216 1.9175 2.757.4168.5848.7503 1.1696 1.1672 1.6709.1667.1671.2501.3342.4168.5013.1668.167.2501.3341.4169.5012 1.584 1.9215 3.1681 3.1747 5.5024 3.3418.3335-1.4203.5003-2.8405.5003-4.3443s-.1668-3.0076-.5003-4.3443c-2.3343.1671-3.9184 1.3367-5.5024 3.3418-.2501-.4178-.5836-.8355-.9171-1.3368-.667-.9189-1.3339-2.005-2.1676-3.0911 1.6674-1.9215 3.7516-3.5924 6.5862-4.2608-3.5015-6.09869-10.0878-10.2759-17.5912-10.2759-7.5033 0-14.08959 4.17721-17.50778 10.2759 2.8346.6684 4.83549 2.3393 6.58628 4.2608.16674.1671.25011.3342.41685.5013s.25011.3342.41685.5012c.8337 1.0026 1.5007 2.0886 2.1676 3.0912.3335.5012.5836.919.9171 1.3367.1668.1671.2501.3342.4169.5848.1667.1671.2501.3342.4168.5848 1.7508 2.4228 3.5016 4.0937 6.2528 4.0937s4.502-1.6709 6.2528-4.0937c.1668.3342.4169.5848.5836.919.7503 1.0861 1.5007 2.3392 2.4178 3.4253-2.0843 2.4228-5.0023 4.5114-9.3376 4.5114-4.3352 0-7.1698-2.0886-9.3375-4.5114-.1667-.1671-.2501-.3342-.4168-.5013-.1668-.167-.2501-.3341-.41687-.5012-.75033-.919-1.33393-1.9215-1.91752-2.757-.41686-.5848-.75034-1.1696-1.16719-1.6709-.16674-.1671-.25011-.3341-.41685-.5012s-.25012-.3342-.41686-.5013c-1.58404-1.9215-3.16808-3.1747-5.502457-3.3418-.250112 1.3367-.416853 2.8405-.416853 4.3443s.166741 3.0076.500224 4.3443c2.334376-.1671 3.918416-1.3367 5.502456-3.3417.25012.4177.5836.8354.91708 1.3367.66697.919 1.33393 2.005 2.16764 3.0911-1.66742 1.9215-3.75168 3.5924-6.58628 4.2608 3.41819 6.1823 10.00448 10.3595 17.50778 10.3595 7.5034 0 14.0897-4.1773 17.5079-10.276-2.8346-.6683-4.8355-2.3392-6.5863-4.2607-.1667-.1671-.2501-.3342-.4169-.5013-.1667-.1671-.2501-.3342-.4168-.5013-.8337-1.0025-1.5007-2.0886-2.1676-3.0911-.3335-.5013-.5836-.919-.9171-1.3367-.1668-.1671-.2501-.3342-.4169-.5848-.1667-.1671-.2501-.3342-.4168-.5848-1.7508-2.4228-3.5016-4.0937-6.2528-4.0937-2.7513 0-4.502 1.6709-6.2528 4.0937-.1668-.3342-.4169-.5849-.5836-.919-.7503-1.0861-1.5007-2.3393-2.4178-3.4253 2.1677-2.5064 5.0023-4.595 9.3375-4.595z" fill="#ff1744"/><g fill="#212121"><path d="m56.204 16.6878h3.5705c-.0516-3.1404-2.6327-5.3085-6.556-5.3085-3.863 0-6.6936 2.1337-6.6764 5.3343-.0086 2.5983 1.824 4.0867 4.8008 4.8008l1.9187.4818c1.9186.4646 2.9854 1.0152 2.994 2.2025-.0086 1.2906-1.2303 2.1682-3.1231 2.1682-1.9358 0-3.3296-.8948-3.4501-2.6586h-3.6049c.0947 3.8114 2.822 5.7817 7.098 5.7817 4.3018 0 6.8313-2.0563 6.8399-5.2827-.0086-2.9338-2.2197-4.4911-5.2826-5.1794l-1.5831-.3785c-1.5314-.3528-2.8134-.9206-2.7876-2.1853 0-1.1357 1.0067-1.9703 2.8306-1.9703 1.781 0 2.8736.8088 3.0113 2.194z"/><path d="m65.0593 29.2405h3.8716l2.2714-8.3112h.1635l2.2713 8.3112h3.8803l3.5877-13.2152h-3.6996l-2.0132 8.8273h-.1119l-2.1681-8.8273h-3.6393l-2.1337 8.8789h-.1205l-2.0477-8.8789h-3.7081z"/><path d="m83.0603 29.2405h3.6651v-13.2152h-3.6651zm1.8411-14.9187c1.0927 0 1.9875-.8346 1.9875-1.8584 0-1.0153-.8948-1.8498-1.9875-1.8498-1.084 0-1.9788.8345-1.9788 1.8498 0 1.0238.8948 1.8584 1.9788 1.8584z"/><path d="m96.8885 16.0253h-2.6241v-.8862c0-.8948.3613-1.4196 1.4368-1.4196.4387 0 .8861.0946 1.1787.1893l.6452-2.7532c-.456-.1376-1.4626-.3613-2.5897-.3613-2.4864 0-4.3362 1.4024-4.3362 4.276v.955h-1.867v2.7531h1.867v10.4621h3.6652v-10.4621h2.6241z"/><path d="m106.155 16.0253h-2.487v-3.1662h-3.665v3.1662h-1.8068v2.7531h1.8068v6.883c-.0172 2.5896 1.747 3.8716 4.405 3.7597.946-.0344 1.618-.2237 1.987-.3441l-.576-2.7274c-.181.0345-.568.1205-.912.1205-.731 0-1.239-.2753-1.239-1.2906v-6.4011h2.487z"/><path d="m115.141 29.2405c5.369 0 8.621-3.321 8.621-8.8274 0-5.4891-3.252-8.7929-8.569-8.7929h-6.298v17.6203zm-2.521-3.192v-11.2363h2.375c3.304 0 5.05 1.6863 5.05 5.6009 0 3.9319-1.746 5.6354-5.059 5.6354z"/><path d="m132.475 29.4986c3.27 0 5.472-1.5917 5.988-4.0437l-3.389-.2237c-.37 1.0066-1.317 1.5314-2.539 1.5314-1.832 0-2.994-1.2131-2.994-3.1833v-.0086h9v-1.0067c0-4.4911-2.719-6.7108-6.212-6.7108-3.889 0-6.41 2.7618-6.41 6.8399 0 4.19 2.487 6.8055 6.556 6.8055zm-2.934-8.1993c.078-1.5056 1.222-2.7101 2.848-2.7101 1.592 0 2.693 1.1356 2.702 2.7101z"/><path d="m147.962 16.0253h-2.487v-3.1662h-3.665v3.1662h-1.807v2.7531h1.807v6.883c-.017 2.5896 1.747 3.8716 4.405 3.7597.947-.0344 1.618-.2237 1.988-.3441l-.577-2.7274c-.18.0345-.568.1205-.912.1205-.731 0-1.239-.2753-1.239-1.2906v-6.4011h2.487z"/><path d="m156.23 29.4986c3.269 0 5.472-1.5917 5.988-4.0437l-3.39-.2237c-.37 1.0066-1.316 1.5314-2.538 1.5314-1.832 0-2.994-1.2131-2.994-3.1833v-.0086h8.999v-1.0067c0-4.4911-2.718-6.7108-6.211-6.7108-3.889 0-6.41 2.7618-6.41 6.8399 0 4.19 2.486 6.8055 6.556 6.8055zm-2.934-8.1993c.078-1.5056 1.222-2.7101 2.848-2.7101 1.592 0 2.693 1.1356 2.701 2.7101z"/><path d="m170.658 29.4986c3.519 0 5.73-2.0649 5.902-5.102h-3.458c-.215 1.411-1.145 2.2025-2.401 2.2025-1.712 0-2.822-1.4368-2.822-3.9662 0-2.4951 1.119-3.9233 2.822-3.9233 1.342 0 2.203.8862 2.401 2.2025h3.458c-.155-3.0542-2.469-5.0589-5.919-5.0589-4.009 0-6.487 2.779-6.487 6.8313 0 4.0179 2.435 6.8141 6.504 6.8141z"/><path d="m185.936 16.0253h-2.486v-3.1662h-3.665v3.1662h-1.807v2.7531h1.807v6.883c-.018 2.5896 1.746 3.8716 4.405 3.7597.946-.0344 1.617-.2237 1.987-.3441l-.576-2.7274c-.181.0345-.568.1205-.912.1205-.732 0-1.239-.2753-1.239-1.2906v-6.4011h2.486z"/><path d="m46.2911 45.1139h1.0823v-1.1202h.1329c.2469.3987.7215 1.2721 2.1266 1.2721 1.8228 0 3.0949-1.462 3.0949-3.7784 0-2.2975-1.2721-3.7595-3.1139-3.7595-1.424 0-1.8607.8734-2.1076 1.2531h-.0949v-3.5886h-1.1203zm1.1013-3.6455c0-1.6329.7215-2.7342 2.0886-2.7342 1.4241 0 2.1266 1.1962 2.1266 2.7342 0 1.5569-.7215 2.7911-2.1266 2.7911-1.3481 0-2.0886-1.1392-2.0886-2.7911z"/><path d="m54.8639 47.9431c1.0253 0 1.7279-.5317 2.1456-1.6519l3.1329-8.4684h-1.2152l-2.0126 5.8101h-.076l-2.0127-5.8101h-1.2151l2.6962 7.3291-.2469.6836c-.394 1.0917-.9114 1.1962-1.7278.9873l-.2848.9873c.1139.057.4367.133.8164.133z"/><path d="m65.5324 35.3924v9.7215h1.1013v-7.386h.0949l3.038 7.386h1.0633l3.038-7.386h.0949v7.386h1.1013v-9.7215h-1.4051l-3.3038 8.0696h-.1139l-3.3038-8.0696z"/><path d="m77.5728 45.1139h1.1202v-7.2911h-1.1202zm.5696-8.5063c.4367 0 .7975-.3418.7975-.7595s-.3608-.7595-.7975-.7595-.7975.3418-.7975.7595.3608.7595.7975.7595z"/><path d="m83.7069 45.2658c1.6139 0 2.6772-.9873 2.8671-2.2784h-1.1203c-.2088.7974-.8734 1.2721-1.7468 1.2721-1.3291 0-2.1836-1.1013-2.1836-2.7911 0-1.6519.8735-2.7342 2.1836-2.7342.9873 0 1.5759.6076 1.7468 1.2721h1.1203c-.1899-1.367-1.3481-2.2784-2.8861-2.2784-1.9747 0-3.2848 1.5569-3.2848 3.7784 0 2.1836 1.2531 3.7595 3.3038 3.7595z"/><path d="m88.2116 45.1139h1.1203v-4.6139c0-.9826.7785-1.7088 1.8418-1.7088.28 0 .4889.0522.6455.1329l.3798-.9494c-.2279-.1614-.5269-.2658-.9304-.2658-.8829 0-1.6377.4936-1.8987 1.2152h-.076v-1.1013h-1.0823z"/><path d="m96.0819 45.2658c1.9747 0 3.3038-1.5 3.3038-3.7595 0-2.2784-1.3291-3.7784-3.3038-3.7784s-3.3038 1.5-3.3038 3.7784c0 2.2595 1.3291 3.7595 3.3038 3.7595zm0-1.0063c-1.5 0-2.1836-1.2911-2.1836-2.7532 0-1.462.6836-2.7721 2.1836-2.7721s2.1835 1.3101 2.1835 2.7721c0 1.4621-.6835 2.7532-2.1835 2.7532z"/><path d="m104.039 48c1.747 0 3.152-.7975 3.152-2.6772v-7.5h-1.083v1.1582h-.114c-.246-.3797-.702-1.2531-2.126-1.2531-1.842 0-3.114 1.462-3.114 3.7025 0 2.2785 1.329 3.5696 3.095 3.5696 1.424 0 1.88-.8354 2.126-1.2342h.095v1.481c0 1.2152-.854 1.7659-2.031 1.7659-1.325 0-1.79-.6978-2.089-1.1013l-.892.6266c.455.7642 1.353 1.462 2.981 1.462zm-.038-4.0063c-1.405 0-2.127-1.0633-2.127-2.5823 0-1.481.703-2.6772 2.127-2.6772 1.367 0 2.088 1.1013 2.088 2.6772 0 1.6139-.74 2.5823-2.088 2.5823z"/><path d="m112.298 45.2658c1.481 0 2.564-.7405 2.905-1.8417l-1.082-.3038c-.285.7595-.945 1.1392-1.823 1.1392-1.315 0-2.221-.8497-2.273-2.4114h5.292v-.4747c0-2.7152-1.614-3.6455-3.133-3.6455-1.974 0-3.284 1.5569-3.284 3.7974s1.291 3.7405 3.398 3.7405zm-2.273-4.386c.075-1.1345.878-2.1456 2.159-2.1456 1.216 0 1.994.9114 1.994 2.1456z"/><path d="m118.142 40.7279c0-1.2722.788-1.9937 1.86-1.9937 1.04 0 1.671.6788 1.671 1.8228v4.5569h1.121v-4.6329c0-1.8607-.993-2.7531-2.469-2.7531-1.101 0-1.785.4936-2.126 1.2341h-.095v-1.1392h-1.083v7.2911h1.121z"/><path d="m127.898 45.2658c1.481 0 2.563-.7405 2.905-1.8417l-1.083-.3038c-.284.7595-.944 1.1392-1.822 1.1392-1.315 0-2.222-.8497-2.274-2.4114h5.293v-.4747c0-2.7152-1.614-3.6455-3.133-3.6455-1.975 0-3.285 1.5569-3.285 3.7974s1.291 3.7405 3.399 3.7405zm-2.274-4.386c.076-1.1345.878-2.1456 2.16-2.1456 1.215 0 1.993.9114 1.993 2.1456z"/><path d="m135.792 37.8228h-1.557v-1.7468h-1.121v1.7468h-1.101v.9494h1.101v4.5569c0 1.2722 1.026 1.8798 1.975 1.8798.418 0 .684-.076.835-.1329l-.227-1.0064c-.095.019-.247.057-.494.057-.494 0-.968-.1519-.968-1.1013v-4.2531h1.557z"/><path d="m137.477 45.1139h1.12v-7.2911h-1.12zm.569-8.5063c.437 0 .798-.3418.798-.7595s-.361-.7595-.798-.7595c-.436 0-.797.3418-.797.7595s.361.7595.797.7595z"/><path d="m143.611 45.2658c1.614 0 2.677-.9873 2.867-2.2784h-1.12c-.209.7974-.874 1.2721-1.747 1.2721-1.329 0-2.184-1.1013-2.184-2.7911 0-1.6519.874-2.7342 2.184-2.7342.987 0 1.576.6076 1.747 1.2721h1.12c-.19-1.367-1.348-2.2784-2.886-2.2784-1.975 0-3.285 1.5569-3.285 3.7784 0 2.1836 1.253 3.7595 3.304 3.7595z"/><path d="m153.28 39.4557c-.351-1.0348-1.139-1.7278-2.582-1.7278-1.538 0-2.677.8734-2.677 2.1076 0 1.0063.598 1.6803 1.936 1.9936l1.215.2848c.736.1709 1.083.5222 1.083 1.0254 0 .6265-.665 1.1392-1.709 1.1392-.916 0-1.491-.394-1.69-1.1772l-1.063.2658c.261 1.2389 1.281 1.8987 2.772 1.8987 1.694 0 2.848-.9256 2.848-2.1835 0-1.0158-.636-1.6567-1.937-1.9747l-1.082-.2658c-.864-.2136-1.253-.5032-1.253-1.0633 0-.6266.664-1.0823 1.557-1.0823.978 0 1.381.5412 1.576 1.0443z"/></g></svg>