<svg fill="none" height="36" viewBox="0 0 212 36" width="212" xmlns="http://www.w3.org/2000/svg"><g fill="#000"><path clip-rule="evenodd" d="m13.8622 35.4259h-2.505c-6.2624 0-11.3572-5.0953-11.3572-11.3583v-24.0676h4.86971v9.68335c1.88087-1.3254 4.14492-2.04443 6.48749-2.04443h2.505c6.2624 0 11.3572 5.09478 11.3572 11.35748v5.0712c0 6.263-5.0948 11.3583-11.3572 11.3583zm-2.505-22.9173c-3.57743 0-6.48749 2.9104-6.48749 6.4878v5.0712c0 3.5775 2.91006 6.4883 6.48749 6.4883h2.505c3.5768 0 6.4875-2.9108 6.4875-6.4883v-5.0712c0-3.5774-2.9107-6.4878-6.4875-6.4878z" fill-rule="evenodd"/><path d="m73.0423 35.3767h-1.1511c-6.2151 0-11.2719-5.0573-11.2719-11.2732v-23.876493h4.8481v7.541273c2.4749.00711 4.0793.03693 4.0793.03693l.5369.00984v4.83465l-4.6162.0044v11.4494c0 3.5426 2.8816 6.424 6.4238 6.424h1.1511z"/><path d="m97.2918 35.3923h-4.7857v-16.3177c0-3.5424-2.8819-6.4243-6.4243-6.4243-3.5416 0-6.4235 2.8819-6.4235 6.4243v16.3021h-4.8486v-35.149693h4.8486v9.593913c1.8637-1.30844 4.1048-2.01872 6.4235-2.01872 6.1812 0 11.21 5.0568 11.21 11.2724z"/><path d="m59.7386 35.3337h-1.0256c-6.1965 0-11.2377-5.0417-11.2377-11.2387v-5.074c0-3.6494-2.9688-6.6185-6.6179-6.6185h-2.5058c-3.6491 0-6.618 2.9691-6.618 6.6185v5.074c0 3.6491 2.9689 6.6179 6.618 6.6179h2.5058c1.7657 0 3.4475-.6807 4.7365-1.9194l1.0809-1.0749.2962.7951c.4018 1.0784.963 2.0906 1.6689 3.0091l.2965.3862-.3493.3394c-2.0466 1.9894-4.7917 3.0853-7.7297 3.0853h-2.5058c-6.197 0-11.238-5.0417-11.238-11.2387v-5.074c0-6.197 5.041-11.23849 11.238-11.23849h2.5058c6.1965 0 11.2377 5.04149 11.2377 11.23849v5.074c0 3.6491 2.9688 6.6179 6.6179 6.6179h1.0256z"/><path d="m188.959 28.0277c-.852 0-1.65-.4628-2.082-1.2059-1.201-2.0786-1.836-4.4449-1.836-6.8427 0-7.5514 6.145-13.69511 13.7-13.69511 1.324 0 2.403 1.0817 2.403 2.41119 0 1.33002-1.082 2.41172-2.411 2.41172-4.892 0-8.871 3.9803-8.871 8.8722 0 1.5532.411 3.0853 1.19 4.4326.209.3616.319.7779.319 1.2034 0 1.3301-1.082 2.4126-2.412 2.4126z"/><path d="m193.796 14.6471c-1.433 1.3273-2.33 3.2246-2.33 5.332 0 1.3221.358 2.5597.976 3.6299.346.5992.533 1.2885.533 2.0061 0 1.6052-.941 2.9899-2.3 3.634 1.865.5766 3.956.4043 5.782-.6487 1.145-.6613 2.038-1.589 2.655-2.6612.347-.5989.848-1.1055 1.471-1.4646 1.39-.8024 3.06-.6799 4.298.1772-.433-1.9046-1.628-3.6301-3.454-4.6842-1.145-.6614-2.395-.9701-3.631-.9693-.692 0-1.383-.1819-2.004-.5416-1.391-.8024-2.12-2.3094-1.996-3.8096z"/><path d="m192.838 36c-4.888 0-9.44-2.6262-11.879-6.8526-.663-1.1471-.264-2.6212.887-3.285 1.118-.6458 2.656-.2265 3.293.8804 1.582 2.7372 4.529 4.4373 7.692 4.4373 1.548 0 3.079-.4117 4.427-1.1898 1.346-.7762 2.467-1.8994 3.245-3.2486.209-.3616.515-.6646.883-.8769 1.116-.6463 2.654-.2251 3.294.8826.427.7393.424 1.6615-.004 2.4057-1.199 2.0787-2.929 3.8118-5.006 5.0112-2.081 1.2009-4.442 1.8357-6.832 1.8357z"/><path d="m207.571 34.3158c-.422 0-.841-.1119-1.21-.326-1.152-.6649-1.549-2.1418-.883-3.293 2.444-4.2368.988-9.6732-3.248-12.1194-1.342-.7749-2.873-1.1846-4.426-1.1846-.425 0-.841-.1127-1.211-.326-1.151-.6651-1.546-2.1432-.882-3.2946.426-.7379 1.225-1.1977 2.085-1.1996 2.405 0 4.769.6329 6.844 1.8311 3.166 1.8281 5.432 4.7819 6.379 8.318.947 3.5351.461 7.2265-1.369 10.3942-.427.7401-1.224 1.1999-2.079 1.1999z"/><path d="m131.436 35.3337h-1.026c-6.197 0-11.238-5.0417-11.238-11.2387v-5.074c0-3.6494-2.968-6.6185-6.618-6.6185h-2.506c-3.649 0-6.618 2.9691-6.618 6.6185v5.074c0 3.6491 2.969 6.6179 6.618 6.6179h2.506c1.766 0 3.448-.6807 4.737-1.9194l1.08-1.0749.297.7951c.403 1.0801.964 2.0928 1.669 3.0091l.296.3861-.348.3395c-2.048 1.9894-4.793 3.0853-7.731 3.0853h-2.506c-6.197 0-11.2378-5.0417-11.2378-11.2387v-5.074c0-6.197 5.0408-11.2385 11.2378-11.2385h2.506c6.197 0 11.238 5.0415 11.238 11.2385v5.074c0 3.6491 2.969 6.6179 6.618 6.6179h1.026z"/><path d="m133.815 35.3337h-1.027v-4.6208h1.027c3.648 0 6.616-2.9688 6.616-6.6179v-5.074c0-6.197 5.042-11.2385 11.24-11.2385h1.025v4.62h-1.025c-3.65 0-6.618 2.9691-6.618 6.6185v5.074c0 6.197-5.042 11.2387-11.238 11.2387z"/><path d="m165.537 35.3337h-.005c-6.196-.0052-11.238-5.0466-11.238-11.2387v-16.31223h4.622v16.31223c0 3.6491 2.968 6.6179 6.616 6.6179 3.631-.0123 6.588-2.9809 6.588-6.6179v-16.31223h4.621v16.31223c0 6.0545-4.923 11.0952-10.975 11.2344z"/></g></svg>