<svg fill="none" height="48" viewBox="0 0 48 48" width="48" xmlns="http://www.w3.org/2000/svg"><path clip-rule="evenodd" d="m48 0h-48v48h48zm-29.8291 28.0273c-.6635 0-1.2841-.3598-1.6194-.9378-.935-1.6171-1.4291-3.4578-1.4291-5.3233 0-5.8744 4.781-10.6537 10.6579-10.6537 1.0303 0 1.8692.8416 1.8692 1.8758 0 1.0346-.8412 1.8761-1.8751 1.8761-3.8061 0-6.9017 3.0963-6.9017 6.9018 0 1.2083.32 2.4003.9259 3.4483.1629.2813.2486.6051.2486.9363 0 1.0347-.8416 1.8765-1.8763 1.8765zm3.7625-10.4088c-1.1146 1.0325-1.8123 2.5085-1.8123 4.1477 0 1.0285.2781 1.9914.7593 2.8239.2688.4661.4147 1.0024.4147 1.5607 0 1.2487-.732 2.3259-1.7898 2.827 1.4511.4483 3.078.3143 4.498-.5048.8914-.5144 1.5858-1.2362 2.0658-2.0702.2697-.4659.6599-.86 1.1445-1.1393 1.0808-.6243 2.3803-.529 3.3431.1379-.337-1.4817-1.2664-2.824-2.6866-3.6441-.891-.5144-1.8636-.7546-2.8246-.754-.5385 0-1.0758-.1415-1.5594-.4211-1.0817-.6244-1.6489-1.7968-1.5527-2.9637zm10.2072 15.2299c-.1502-.0425-.2956-.1036-.4323-.1829-.896-.5173-1.2048-1.6661-.687-2.5616 1.9017-3.2959.7688-7.525-2.5266-9.4281-1.0443-.6028-2.2349-.9214-3.4434-.9214-.3307 0-.6538-.0877-.9418-.2535-.8953-.5176-1.2026-1.6674-.6859-2.5632.3312-.5739.9529-.9317 1.6219-.9332 1.8705 0 3.7098.4924 5.3243 1.4245 2.463 1.4222 4.2256 3.7202 4.9622 6.4709.7364 2.7499.3582 5.6216-1.0647 8.0858-.3321.5758-.9529.9334-1.6178.9334-.0896 0-.179-.0065-.2675-.0193-.0815-.0119-.1621-.029-.2414-.0514zm-10.9519 1.381c-3.8028 0-7.3442-2.043-9.2413-5.3308-.5157-.8924-.2057-2.0391.6899-2.5557.8697-.5022 2.0659-.1759 2.5619.6851 1.2301 2.1292 3.5227 3.4519 5.9837 3.4519 1.2039 0 2.3955-.3204 3.4442-.9256 1.047-.6037 1.919-1.4776 2.5237-2.5272.1633-.2813.4006-.5171.6873-.682.868-.5029 2.0647-.1753 2.5624.6864.332.5752.3304 1.2926-.0033 1.8715-.9322 1.617-2.2785 2.9653-3.8943 3.8983-1.6181.9342-3.4556 1.4281-5.3142 1.4281z" fill="#fff" fill-rule="evenodd"/></svg>