<svg fill="none" height="24" viewBox="0 0 127 24" width="127" xmlns="http://www.w3.org/2000/svg"><g fill="#fff"><path clip-rule="evenodd" d="m12 24c6.6274 0 12-5.3726 12-12 0-6.62744-5.3726-12-12-12-6.62741 0-12 5.37256-12 12 0 6.6274 5.37259 12 12 12zm-2.91443-9.9864c-.33172 0-.64206-.1799-.80972-.4689-.4675-.8086-.71454-1.7289-.71454-2.6616 0-2.93724 2.3905-5.32689 5.32899-5.32689.5151 0 .9346.42078.9346.93787 0 .51733-.4206.93805-.9376.93805-1.903 0-3.45081 1.54816-3.45081 3.45097 0 .6041.16001 1.2001.46295 1.7241.08146.1407.12426.3025.12426.4681 0 .5174-.42076.9383-.93813.9383zm1.88123-5.2044c-.5573.51624-.9061 1.2542-.9061 2.0739 0 .5142.139.9956.3796 1.4119.1344.233.2074.5012.2074.7803 0 .6244-.366 1.163-.89492 1.4135.72552.2242 1.53902.1572 2.24902-.2523.4457-.2573.7929-.6182 1.0329-1.0351.1348-.233.3299-.43.5722-.5697.5404-.3122 1.1902-.2645 1.6716.0689-.1685-.7408-.6332-1.412-1.3433-1.822-.4455-.2572-.9318-.3773-1.4123-.377-.2693 0-.5379-.0708-.7797-.2106-.5409-.31218-.8245-.89836-.7764-1.4818zm5.3581 7.6503c-.1642 0-.3269-.0435-.4707-.1268-.4479-.2587-.6023-.8331-.3434-1.2808.9508-1.648.3844-3.7625-1.2633-4.7141-.5222-.3014-1.1175-.46066-1.7217-.46066-.1654 0-.3269-.04383-.4709-.12677-.4477-.25879-.6013-.83368-.343-1.28156.1656-.28699.4765-.46588.811-.46661.9352 0 1.8549.24621 2.6621.71222 1.2315.71112 2.1128 1.86008 2.4811 3.23548.3682 1.3749.1791 2.8108-.5323 4.0429-.1661.2879-.4765.4667-.8089.4667zm-5.7304.6551c-1.90142 0-3.67214-1.0215-4.62065-2.6654-.25788-.4461-.10288-1.0195.34491-1.2778.43487-.2511 1.03299-.088 1.28097.3425.61502 1.0647 1.76135 1.726 2.99187 1.726.6019 0 1.1977-.1602 1.7221-.4628.5235-.3019.9595-.7388 1.2618-1.2636.0817-.1406.2003-.2586.3437-.341.4339-.2515 1.0323-.0877 1.2811.3432.1661.2876.1653.6463-.0016.9357-.4661.8085-1.1393 1.4827-1.9471 1.9492-.8091.4671-1.7278.714-2.6571.714z" fill-rule="evenodd"/><path d="m30 0h1v24h-1z"/><path clip-rule="evenodd" d="m38.8 18v-14h5.96c.9467 0 1.7933.20667 2.54.62.76.41333 1.3467.98 1.76 1.7.4267.70667.64 1.5.64 2.38s-.2133 1.68-.64 2.4c-.4133.7067-1 1.2667-1.76 1.68-.7467.4133-1.5933.62-2.54.62h-2.96v4.6zm5.86-7.3c.5733 0 1.0533-.1933 1.44-.58.4-.4.6-.87333.6-1.42s-.2-1.01333-.6-1.4c-.3867-.4-.8667-.6-1.44-.6h-2.86v4z" fill-rule="evenodd"/><path d="m51.2008 4v14h2.7v-5.1c0-.6667.1933-1.2067.58-1.62.4-.4267.9066-.64 1.52-.64.5333 0 .9666.18 1.3.54.3333.3467.5.82.5 1.42v5.4h2.7v-5.76c0-.8533-.16-1.5867-.48-2.2-.3067-.62667-.7334-1.10667-1.28-1.44-.5467-.33333-1.1734-.5-1.88-.5-.6667 0-1.26.16667-1.78.5-.5067.32-.88.68-1.12 1.08h-.06v-5.68z"/><path clip-rule="evenodd" d="m68.5953 8.61998c-.64-.34667-1.3733-.52-2.2-.52-.8533 0-1.62.18666-2.3.56-.6667.36-1.2133.79333-1.64 1.3l1.54 1.48002c.68-.76 1.4333-1.14 2.26-1.14.48 0 .8733.14 1.18.42.32.2666.4933.5933.52.98l-3.06.58c-.96.1866-1.7.5466-2.22 1.08-.52.5333-.78 1.2133-.78 2.04 0 .4933.14.96.42 1.4.28.4266.66.7666 1.14 1.02.4933.2533 1.0467.38 1.66.38.6667 0 1.26-.16 1.78-.48s.9-.6734 1.14-1.06h.06v1.34h2.56v-6.1c0-.6934-.18-1.3267-.54-1.90002-.36-.58667-.8667-1.04667-1.52-1.38zm-1.24 6.80002c-.3867.4133-.8733.62-1.46.62-.3867 0-.6933-.0934-.92-.28-.2133-.2-.32-.4534-.32-.76 0-.2534.1067-.48.32-.68.2133-.2134.5067-.3534.88-.42l2.1-.42v.32c0 .6666-.2 1.2066-.6 1.62z" fill-rule="evenodd"/><path d="m72.6594 8.29998v9.70002h2.7v-4.56c0-.7867.22-1.4134.66-1.88.44-.48 1.0066-.72 1.7-.72.28 0 .58.0533.9.16v-2.90002h-.46c-.6134 0-1.1667.14666-1.66.44-.48.28-.84.6-1.08.96h-.06v-1.2z"/><path d="m79.8156 8.29998v9.70002h2.7v-5.2c0-.6667.1733-1.1934.52-1.58.3467-.3867.7933-.58 1.34-.58.4667 0 .8467.1666 1.14.5.3067.32.46.7733.46 1.36v5.5h2.7v-5.2c0-.6667.1733-1.1934.52-1.58.3467-.3867.7867-.58 1.32-.58.4667 0 .8467.1666 1.14.5.3067.32.46.7733.46 1.36v5.5h2.7v-5.76c0-.84-.1533-1.5734-.46-2.2-.3066-.62669-.72-1.10669-1.24-1.44002-.5067-.33334-1.0733-.5-1.7-.5-.7733 0-1.46.17333-2.06.52-.5866.33333-.9933.70666-1.22 1.12h-.08c-.2-.41334-.5467-.78667-1.04-1.12-.4933-.34667-1.0733-.52-1.74-.52-.6533 0-1.22.16666-1.7.5-.48.32-.8133.68-1 1.08h-.06v-1.38z"/><path clip-rule="evenodd" d="m102.916 8.61998c-.64-.34667-1.374-.52-2.2-.52-.8537 0-1.6204.18666-2.3004.56-.6667.36-1.2133.79333-1.64 1.3l1.54 1.48002c.68-.76 1.4333-1.14 2.2604-1.14.48 0 .873.14 1.18.42.32.2666.493.5933.52.98l-3.0604.58c-.96.1866-1.7.5466-2.22 1.08-.52.5333-.78 1.2133-.78 2.04 0 .4933.14.96.42 1.4.28.4266.66.7666 1.14 1.02.4933.2533 1.0467.38 1.66.38.6664 0 1.2604-.16 1.7804-.48s.9-.6734 1.14-1.06h.06v1.34h2.56v-6.1c0-.6934-.18-1.3267-.54-1.90002-.36-.58667-.867-1.04667-1.52-1.38zm-1.24 6.80002c-.387.4133-.874.62-1.46.62-.3871 0-.6937-.0934-.9204-.28-.2133-.2-.32-.4534-.32-.76 0-.2534.1067-.48.32-.68.2133-.2134.5067-.3534.8804-.42l2.1-.42v.32c0 .6666-.2 1.2066-.6 1.62z" fill-rule="evenodd"/><path clip-rule="evenodd" d="m118.694 17.52c.8.4533 1.68.68 2.64.68.973 0 1.853-.2267 2.64-.68.8-.4534 1.426-1.0667 1.88-1.84.453-.7734.68-1.62.68-2.54s-.227-1.7667-.68-2.54c-.454-.77336-1.08-1.38002-1.88-1.82002-.787-.45334-1.667-.68-2.64-.68-.96 0-1.84.22666-2.64.68-.787.44-1.414 1.04666-1.88 1.82002-.454.7733-.68 1.62-.68 2.54s.226 1.7666.68 2.54c.466.7733 1.093 1.3866 1.88 1.84zm4.38-2.56c-.48.4933-1.06.74-1.74.74s-1.26-.2467-1.74-.74c-.467-.4934-.7-1.1-.7-1.82s.233-1.32.7-1.8c.48-.4934 1.06-.74 1.74-.74s1.26.2466 1.74.74c.48.48.72 1.08.72 1.8s-.24 1.3266-.72 1.82z" fill-rule="evenodd"/><path d="m108.804 18h-3.02l3.34-5-3.08-4.70001h3.12l1.76 2.96001h.06l1.78-2.96001h3.02l-3.08 4.70001 3.32 5h-3.12l-2.02-3.28h-.06z"/></g></svg>