<svg fill="none" height="48" viewBox="0 0 181 48" width="181" xmlns="http://www.w3.org/2000/svg"><g fill="#fff"><path clip-rule="evenodd" d="m24 48c13.2548 0 24-10.7452 24-24s-10.7452-24-24-24-24 10.7452-24 24 10.7452 24 24 24zm-5.8288-19.9727c-.6635 0-1.2842-.3599-1.6195-.9379-.935-1.6171-1.4291-3.4578-1.4291-5.3233 0-5.8743 4.781-10.6537 10.6579-10.6537 1.0304 0 1.8692.8416 1.8692 1.8758 0 1.0346-.8411 1.8761-1.875 1.8761-3.8061 0-6.9017 3.0963-6.9017 6.9018 0 1.2082.32 2.4003.9259 3.4483.1629.2814.2485.605.2485.9362 0 1.0348-.8415 1.8767-1.8762 1.8767zm3.7625-10.4089c-1.1146 1.0325-1.8123 2.5085-1.8123 4.1477 0 1.0285.278 1.9914.7592 2.8239.2689.4661.4147 1.0024.4147 1.5606 0 1.2488-.732 2.3259-1.7898 2.8271 1.4512.4484 3.0781.3143 4.498-.5047.8915-.5145 1.5858-1.2363 2.0658-2.0703.2697-.4659.66-.86 1.1445-1.1393 1.0808-.6243 2.3803-.529 3.3432.1378-.337-1.4817-1.2664-2.8239-2.6866-3.644-.891-.5144-1.8636-.7546-2.8246-.754-.5385 0-1.0759-.1415-1.5594-.4212-1.0817-.6244-1.649-1.7968-1.5527-2.9636zm10.716 15.3006c-.3282 0-.6536-.0871-.9412-.2535-.896-.5174-1.2047-1.6662-.6869-2.5617 1.9016-3.296.7688-7.5251-2.5266-9.4281-1.0443-.6028-2.2349-.9215-3.4434-.9215-.3308 0-.6539-.0875-.9419-.2535-.8953-.5175-1.2026-1.6673-.6858-2.5631.3311-.574.9528-.9317 1.6219-.9331 1.8704 0 3.7097.4924 5.3242 1.4244 2.463 1.4222 4.2256 3.7201 4.9622 6.4709.7364 2.7499.3582 5.6216-1.0647 8.0859-.332.5757-.9529.9333-1.6178.9333zm-11.4607 1.3102c-3.8029 0-7.3443-2.0429-9.2413-5.3307-.5157-.8924-.2057-2.0391.6898-2.5557.8698-.5022 2.066-.176 2.5619.6851 1.2301 2.1293 3.5228 3.4518 5.9837 3.4518 1.2039 0 2.3955-.3202 3.4442-.9254 1.047-.6039 1.9191-1.4778 2.5238-2.5273.1632-.2813.4005-.5171.6873-.6821.8679-.5028 2.0647-.1751 2.5623.6865.3321.5751.3304 1.2926-.0033 1.8715-.9321 1.6171-2.2785 2.9653-3.8942 3.8983-1.6182.9341-3.4556 1.428-5.3142 1.428z" fill-rule="evenodd"/><path d="m60 0h1v48h-1z"/><path clip-rule="evenodd" d="m75.16 31v-16.8h7.152c1.136 0 2.152.248 3.048.744.912.496 1.616 1.176 2.112 2.04.512.848.768 1.8.768 2.856s-.256 2.016-.768 2.88c-.496.848-1.2 1.52-2.112 2.016-.896.496-1.912.744-3.048.744h-3.552v5.52zm7.032-8.76c.688 0 1.264-.232 1.728-.696.48-.48.72-1.048.72-1.704s-.24-1.216-.72-1.68c-.464-.48-1.04-.72-1.728-.72h-3.432v4.8z" fill-rule="evenodd"/><path d="m90.0409 14.2v16.8h3.24v-6.12c0-.8.232-1.448.696-1.944.48-.512 1.088-.768 1.824-.768.64 0 1.16.216 1.56.648.4.416.6.984.6 1.704v6.48h3.2401v-6.912c0-1.024-.192-1.904-.576-2.64-.368-.752-.8801-1.328-1.5361-1.728s-1.408-.6-2.256-.6c-.8 0-1.512.2-2.136.6-.608.384-1.056.816-1.344 1.296h-.072v-6.816z"/><path clip-rule="evenodd" d="m110.914 19.744c-.768-.416-1.648-.624-2.64-.624-1.024 0-1.944.224-2.76.672-.8.432-1.456.952-1.968 1.56l1.848 1.776c.816-.912 1.72-1.368 2.712-1.368.576 0 1.048.168 1.416.504.384.32.592.712.624 1.176l-3.672.696c-1.152.224-2.04.656-2.664 1.296s-.936 1.456-.936 2.448c0 .592.168 1.152.504 1.68.336.512.792.92 1.368 1.224.592.304 1.256.456 1.992.456.8 0 1.512-.192 2.136-.576s1.08-.808 1.368-1.272h.072v1.608h3.072v-7.32c0-.832-.216-1.592-.648-2.28-.432-.704-1.04-1.256-1.824-1.656zm-1.488 8.16c-.464.496-1.048.744-1.752.744-.464 0-.832-.112-1.104-.336-.256-.24-.384-.544-.384-.912 0-.304.128-.576.384-.816.256-.256.608-.424 1.056-.504l2.52-.504v.384c0 .8-.24 1.448-.72 1.944z" fill-rule="evenodd"/><path d="m115.791 19.36v11.64h3.24v-5.472c0-.944.264-1.696.792-2.256.528-.576 1.208-.864 2.04-.864.336 0 .696.064 1.08.192v-3.48h-.552c-.736 0-1.4.176-1.992.528-.576.336-1.008.72-1.296 1.152h-.072v-1.44z"/><path d="m124.379 19.36v11.64h3.24v-6.24c0-.8.208-1.432.624-1.896s.952-.696 1.608-.696c.56 0 1.016.2 1.368.6.368.384.552.928.552 1.632v6.6h3.24v-6.24c0-.8.208-1.432.624-1.896s.944-.696 1.584-.696c.56 0 1.016.2 1.368.6.368.384.552.928.552 1.632v6.6h3.24v-6.912c0-1.008-.184-1.888-.552-2.64s-.864-1.328-1.488-1.728c-.608-.4-1.288-.6-2.04-.6-.928 0-1.752.208-2.472.624-.704.4-1.192.848-1.464 1.344h-.096c-.24-.496-.656-.944-1.248-1.344-.592-.416-1.288-.624-2.088-.624-.784 0-1.464.2-2.04.6-.576.384-.976.816-1.2 1.296h-.072v-1.656z"/><path clip-rule="evenodd" d="m152.099 19.744c-.768-.416-1.648-.624-2.64-.624-1.024 0-1.944.224-2.76.672-.8.432-1.456.952-1.968 1.56l1.848 1.776c.816-.912 1.72-1.368 2.712-1.368.576 0 1.048.168 1.416.504.384.32.592.712.624 1.176l-3.672.696c-1.152.224-2.04.656-2.664 1.296s-.936 1.456-.936 2.448c0 .592.168 1.152.504 1.68.336.512.792.92 1.368 1.224.592.304 1.256.456 1.992.456.8 0 1.512-.192 2.136-.576s1.08-.808 1.368-1.272h.072v1.608h3.072v-7.32c0-.832-.216-1.592-.648-2.28-.432-.704-1.04-1.256-1.824-1.656zm-1.488 8.16c-.464.496-1.048.744-1.752.744-.464 0-.832-.112-1.104-.336-.256-.24-.384-.544-.384-.912 0-.304.128-.576.384-.816.256-.256.608-.424 1.056-.504l2.52-.504v.384c0 .8-.24 1.448-.72 1.944z" fill-rule="evenodd"/><path clip-rule="evenodd" d="m171.032 30.424c.96.544 2.016.816 3.168.816 1.168 0 2.224-.272 3.168-.816.96-.544 1.712-1.28 2.256-2.208s.816-1.944.816-3.048-.272-2.12-.816-3.048-1.296-1.656-2.256-2.184c-.944-.544-2-.816-3.168-.816-1.152 0-2.208.272-3.168.816-.944.528-1.696 1.256-2.256 2.184-.544.928-.816 1.944-.816 3.048s.272 2.12.816 3.048c.56.928 1.312 1.664 2.256 2.208zm5.256-3.072c-.576.592-1.272.888-2.088.888s-1.512-.296-2.088-.888c-.56-.592-.84-1.32-.84-2.184s.28-1.584.84-2.16c.576-.592 1.272-.888 2.088-.888s1.512.296 2.088.888c.576.576.864 1.296.864 2.16s-.288 1.592-.864 2.184z" fill-rule="evenodd"/><path d="m159.165 31h-3.624l4.008-6-3.696-5.64h3.744l2.112 3.552h.072l2.136-3.552h3.624l-3.696 5.64 3.984 6h-3.744l-2.424-3.936h-.072z"/></g></svg>