<svg fill="none" height="48" viewBox="0 0 48 48" width="48" xmlns="http://www.w3.org/2000/svg"><path clip-rule="evenodd" d="m24 48c13.2548 0 24-10.7451 24-24s-10.7452-24-24-24-24 10.7451-24 24 10.7452 24 24 24zm-5.8288-19.9728c-.6635 0-1.2841-.3598-1.6195-.9378-.935-1.6171-1.4291-3.4578-1.4291-5.3233 0-5.8744 4.781-10.6537 10.6579-10.6537 1.0304 0 1.8692.8416 1.8692 1.8758 0 1.0346-.8411 1.8761-1.875 1.8761-3.8061 0-6.9017 3.0963-6.9017 6.9018 0 1.2083.32 2.4003.9259 3.4483.1629.2813.2486.6051.2486.9362 0 1.0348-.8416 1.8766-1.8763 1.8766zm3.7625-10.4088c-1.1146 1.0325-1.8123 2.5084-1.8123 4.1477 0 1.0285.278 1.9913.7592 2.8239.2689.466.4147 1.0024.4147 1.5606 0 1.2488-.732 2.326-1.7898 2.8271 1.4512.4483 3.0781.3143 4.498-.5048.8915-.5144 1.5858-1.2362 2.0658-2.0702.2698-.4659.6599-.86 1.1445-1.1393 1.0808-.6244 2.3803-.529 3.3432.1378-.337-1.4816-1.2664-2.8239-2.6866-3.644-.891-.5144-1.8636-.7546-2.8246-.754-.5385 0-1.0759-.1415-1.5594-.4212-1.0817-.6244-1.649-1.7967-1.5527-2.9636zm10.716 15.3005c-.3282 0-.6536-.087-.9412-.2535-.896-.5173-1.2047-1.6661-.6869-2.5616 1.9016-3.2959.7688-7.5251-2.5266-9.4281-1.0443-.6028-2.235-.9214-3.4434-.9214-.3308 0-.6539-.0877-.9419-.2536-.8953-.5175-1.2026-1.6673-.6858-2.5631.3311-.574.9528-.9317 1.6219-.9332 1.8705 0 3.7098.4924 5.3242 1.4244 2.463 1.4223 4.2256 3.7202 4.9622 6.471.7364 2.7499.3582 5.6216-1.0647 8.0858-.332.5758-.9529.9333-1.6178.9333zm-11.4607 1.3103c-3.8029 0-7.3443-2.0429-9.2413-5.3308-.5157-.8923-.2057-2.039.6898-2.5556.8698-.5022 2.066-.1759 2.5619.685 1.2301 2.1293 3.5228 3.4519 5.9837 3.4519 1.2039 0 2.3955-.3203 3.4442-.9255 1.047-.6038 1.9191-1.4777 2.5238-2.5272.1632-.2813.4005-.5171.6873-.682.8679-.503 2.0647-.1753 2.5623.6864.3321.5752.3304 1.2926-.0033 1.8714-.9321 1.6171-2.2785 2.9654-3.8942 3.8983-1.6182.9343-3.4556 1.4281-5.3142 1.4281z" fill="#000" fill-rule="evenodd"/></svg>