<svg fill="none" height="48" viewBox="0 0 181 48" width="181" xmlns="http://www.w3.org/2000/svg"><circle cx="24" cy="24" fill="#1565c0" r="24"/><g fill="#fff"><path d="m16.5517 27.0894c.3353.578.956.9379 1.6195.9379 1.0347 0 1.8762-.8419 1.8762-1.8767 0-.3312-.0856-.6549-.2485-.9362-.6059-1.048-.9259-2.2401-.9259-3.4483 0-3.8055 3.0956-6.9018 6.9017-6.9018 1.0339 0 1.875-.8415 1.875-1.8761 0-1.0342-.8388-1.8758-1.8692-1.8758-5.8769 0-10.6579 4.7794-10.6579 10.6537 0 1.8654.4941 3.7062 1.4291 5.3233z"/><path d="m20.1214 21.7661c0-1.6393.6977-3.1153 1.8123-4.1477-.0963 1.1668.471 2.3392 1.5527 2.9636.4835.2797 1.0209.4212 1.5594.4212.961-.0006 1.9336.2395 2.8246.754 1.4202.8201 2.3496 2.1623 2.6866 3.644-.9629-.6668-2.2624-.7621-3.3432-.1378-.4845.2793-.8748.6734-1.1445 1.1393-.48.834-1.1743 1.5558-2.0658 2.0702-1.4199.8191-3.0468.9531-4.498.5048 1.0578-.5012 1.7898-1.5783 1.7898-2.8271 0-.5582-.1458-1.0946-.4147-1.5606-.4812-.8325-.7592-1.7954-.7592-2.8239z"/><path d="m32.6497 32.919c-.3282 0-.6536-.0871-.9412-.2535-.896-.5174-1.2047-1.6662-.6869-2.5617 1.9016-3.296.7688-7.5251-2.5266-9.4281-1.0443-.6028-2.2349-.9215-3.4434-.9215-.3308 0-.6539-.0876-.9419-.2535-.8953-.5176-1.2026-1.6673-.6858-2.5631.3311-.574.9528-.9317 1.6219-.9332 1.8704 0 3.7097.4925 5.3242 1.4244 2.463 1.4223 4.2256 3.7202 4.9622 6.471.7364 2.7499.3582 5.6216-1.0647 8.0858-.332.5758-.9529.9334-1.6178.9334z"/><path d="m11.9477 28.8985c1.897 3.2878 5.4384 5.3307 9.2413 5.3307 1.8586 0 3.696-.4939 5.3142-1.428 1.6157-.933 2.9621-2.2812 3.8942-3.8984.3337-.5788.3354-1.2963.0033-1.8714-.4976-.8617-1.6944-1.1893-2.5623-.6865-.2868.165-.5241.4008-.6873.6821-.6047 1.0495-1.4768 1.9234-2.5238 2.5272-1.0487.6053-2.2403.9255-3.4442.9255-2.4609 0-4.7536-1.3226-5.9837-3.4518-.4959-.8611-1.6921-1.1873-2.5619-.6851-.8955.5165-1.2055 1.6633-.6898 2.5557z"/><path d="m60 0h1v48h-1z"/><path clip-rule="evenodd" d="m75.16 14.2v16.8h3.6v-5.52h3.552c1.136 0 2.152-.248 3.048-.744.912-.496 1.616-1.168 2.112-2.016.512-.864.768-1.824.768-2.88s-.256-2.008-.768-2.856c-.496-.864-1.2-1.544-2.112-2.04-.896-.496-1.912-.744-3.048-.744zm8.76 7.344c-.464.464-1.04.696-1.728.696h-3.432v-4.8h3.432c.688 0 1.264.24 1.728.72.48.464.72 1.024.72 1.68s-.24 1.224-.72 1.704z" fill-rule="evenodd"/><path d="m90.041 31v-16.8h3.24v6.816h.072c.288-.48.736-.912 1.344-1.296.624-.4 1.336-.6 2.136-.6.848 0 1.6.2 2.256.6s1.168.976 1.536 1.728c.384.736.576 1.616.576 2.64v6.912h-3.24v-6.48c0-.72-.2-1.288-.6-1.704-.4-.432-.92-.648-1.56-.648-.736 0-1.344.256-1.824.768-.464.496-.696 1.144-.696 1.944v6.12z"/><path clip-rule="evenodd" d="m110.914 19.744c-.768-.416-1.648-.624-2.64-.624-1.024 0-1.944.224-2.76.672-.8.432-1.456.952-1.968 1.56l1.848 1.776c.816-.912 1.72-1.368 2.712-1.368.576 0 1.048.168 1.416.504.384.32.592.712.624 1.176l-3.672.696c-1.152.224-2.04.656-2.664 1.296s-.936 1.456-.936 2.448c0 .592.168 1.152.504 1.68.336.512.792.92 1.368 1.224.592.304 1.256.456 1.992.456.8 0 1.512-.192 2.136-.576s1.08-.808 1.368-1.272h.072v1.608h3.072v-7.32c0-.832-.216-1.592-.648-2.28-.432-.704-1.04-1.256-1.824-1.656zm-1.488 8.16c-.464.496-1.048.744-1.752.744-.464 0-.832-.112-1.104-.336-.256-.24-.384-.544-.384-.912 0-.304.128-.576.384-.816.256-.256.608-.424 1.056-.504l2.52-.504v.384c0 .8-.24 1.448-.72 1.944z" fill-rule="evenodd"/><path d="m115.791 31v-11.64h3.24v1.44h.072c.288-.432.72-.816 1.296-1.152.592-.352 1.256-.528 1.992-.528h.552v3.48c-.384-.128-.744-.192-1.08-.192-.832 0-1.512.288-2.04.864-.528.56-.792 1.312-.792 2.256v5.472z"/><path d="m124.379 19.36v11.64h3.24v-6.24c0-.8.208-1.432.624-1.896s.952-.696 1.608-.696c.56 0 1.016.2 1.368.6.368.384.552.928.552 1.632v6.6h3.24v-6.24c0-.8.208-1.432.624-1.896s.944-.696 1.584-.696c.56 0 1.016.2 1.368.6.368.384.552.928.552 1.632v6.6h3.24v-6.912c0-1.008-.184-1.888-.552-2.64s-.864-1.328-1.488-1.728c-.608-.4-1.288-.6-2.04-.6-.928 0-1.752.208-2.472.624-.704.4-1.192.848-1.464 1.344h-.096c-.24-.496-.656-.944-1.248-1.344-.592-.416-1.288-.624-2.088-.624-.784 0-1.464.2-2.04.6-.576.384-.976.816-1.2 1.296h-.072v-1.656z"/><path clip-rule="evenodd" d="m149.459 19.12c.992 0 1.872.208 2.64.624.784.4 1.392.952 1.824 1.656.432.688.648 1.448.648 2.28v7.32h-3.072v-1.608h-.072c-.288.464-.744.888-1.368 1.272s-1.336.576-2.136.576c-.736 0-1.4-.152-1.992-.456-.576-.304-1.032-.712-1.368-1.224-.336-.528-.504-1.088-.504-1.68 0-.992.312-1.808.936-2.448s1.512-1.072 2.664-1.296l3.672-.696c-.032-.464-.24-.856-.624-1.176-.368-.336-.84-.504-1.416-.504-.992 0-1.896.456-2.712 1.368l-1.848-1.776c.512-.608 1.168-1.128 1.968-1.56.816-.448 1.736-.672 2.76-.672zm-.6 9.528c.704 0 1.288-.248 1.752-.744.48-.496.72-1.144.72-1.944v-.384l-2.52.504c-.448.08-.8.248-1.056.504-.256.24-.384.512-.384.816 0 .368.128.672.384.912.272.224.64.336 1.104.336z" fill-rule="evenodd"/><path clip-rule="evenodd" d="m171.032 30.424c.96.544 2.016.816 3.168.816 1.168 0 2.224-.272 3.168-.816.96-.544 1.712-1.28 2.256-2.208s.816-1.944.816-3.048-.272-2.12-.816-3.048-1.296-1.656-2.256-2.184c-.944-.544-2-.816-3.168-.816-1.152 0-2.208.272-3.168.816-.944.528-1.696 1.256-2.256 2.184-.544.928-.816 1.944-.816 3.048s.272 2.12.816 3.048c.56.928 1.312 1.664 2.256 2.208zm5.256-3.072c-.576.592-1.272.888-2.088.888s-1.512-.296-2.088-.888c-.56-.592-.84-1.32-.84-2.184s.28-1.584.84-2.16c.576-.592 1.272-.888 2.088-.888s1.512.296 2.088.888c.576.576.864 1.296.864 2.16s-.288 1.592-.864 2.184z" fill-rule="evenodd"/><path d="m155.541 31h3.624l2.424-3.936h.072l2.424 3.936h3.744l-3.984-6 3.696-5.64h-3.624l-2.136 3.552h-.072l-2.112-3.552h-3.744l3.696 5.64z"/></g></svg>