<svg width="1920" height="1080" viewBox="0 0 1920 1080" fill="none" xmlns="http://www.w3.org/2000/svg">
<g clip-path="url(#clip0_202_9)">
<rect width="1920" height="1080" fill="#002171"/>
<rect x="1920" y="1130.54" width="1920" height="1181.54" transform="rotate(-180 1920 1130.54)" fill="#002171"/>
<path d="M7.09848 114.594C170.412 114.594 323.19 203.178 405.729 345.464C547.208 590.149 647.675 855.631 704.092 1130.54L-0.00012207 1130.54L-3.32583e-05 114.647C2.36178 114.611 4.72836 114.594 7.09848 114.594Z" fill="#1565C0" fill-opacity="0.1"/>
<path d="M404.836 -51C535.365 66.4098 648.55 204.724 738.6 360.603C860.684 572.55 1155.13 652.849 1369.23 529.233C1573.63 411.336 1654.11 160.063 1563.54 -50.9999L404.836 -51Z" fill="#1565C0" fill-opacity="0.1"/>
</g>
<defs>
<clipPath id="clip0_202_9">
<rect width="1920" height="1080" fill="white"/>
</clipPath>
</defs>
</svg>
