<svg fill="none" height="24" viewBox="0 0 206 24" width="206" xmlns="http://www.w3.org/2000/svg" xmlns:xlink="http://www.w3.org/1999/xlink"><linearGradient id="a" gradientUnits="userSpaceOnUse" x1="12" x2="12" y1="0" y2="24"><stop offset="0" stop-color="#ffb300"/><stop offset="1" stop-color="#ff8f00"/></linearGradient><circle cx="12" cy="12" fill="url(#a)" r="12"/><path d="m8.27586 13.5446c.16766.289.47799.469.80972.469.51737 0 .93812-.421.93812-.9384 0-.1655-.0428-.3274-.12425-.4681-.30295-.524-.46294-1.12-.46294-1.7241 0-1.90278 1.54779-3.45093 3.45079-3.45093.517 0 .9376-.42074.9376-.93805 0-.5171-.4195-.93787-.9347-.93787-2.93839 0-5.3289 2.38967-5.3289 5.32685 0 .9327.24705 1.8531.71456 2.6616z" fill="#fff"/><path d="m10.0607 10.883c0-.8196.3488-1.55764.9061-2.07387-.0481.58342.2355 1.16962.7764 1.48177.2417.1399.5104.2106.7797.2106.4805-.0003.9668.1198 1.4123.377.7101.4101 1.1748 1.0812 1.3433 1.822-.4814-.3334-1.1312-.381-1.6716-.0688-.2423.1396-.4374.3366-.5722.5696-.24.417-.5872.7779-1.0329 1.0351-.71.4095-1.5235.4766-2.24903.2524.52893-.2506.89493-.7892.89493-1.4136 0-.2791-.073-.5472-.2074-.7803-.2406-.4162-.3796-.8977-.3796-1.4119z" fill="#fff"/><path d="m16.3249 16.4594c-.1642 0-.3269-.0435-.4706-.1267-.448-.2587-.6024-.8331-.3435-1.2809.9508-1.648.3844-3.7625-1.2633-4.714-.5222-.3014-1.1175-.46075-1.7217-.46075-.1654 0-.327-.04379-.4709-.12676-.4477-.25878-.6013-.83366-.343-1.28157.1656-.28698.4765-.46583.811-.46656.9352 0 1.8549.24622 2.6621.7122 1.2315.71112 2.1128 1.86014 2.4811 3.23544.3682 1.375.1791 2.8108-.5323 4.043-.1661.2878-.4765.4666-.8089.4666z" fill="#fff"/><path d="m5.97383 14.4492c.94853 1.6439 2.71924 2.6654 4.62067 2.6654.9293 0 1.848-.247 2.6571-.7141.8078-.4664 1.481-1.1406 1.9471-1.9491.1669-.2895.1677-.6482.0017-.9358-.2489-.4308-.8473-.5946-1.2812-.3432-.1434.0825-.262.2004-.3437.341-.3023.5248-.7383.9618-1.2618 1.2637-.5244.3026-1.1202.4627-1.7221.4627-1.23052 0-2.37684-.6613-2.99188-1.7259-.24798-.4305-.84607-.5937-1.28096-.3426-.44777.2583-.60278.8317-.34493 1.2779z" fill="#fff"/><path d="m30 0h1v24h-1z" fill="#e0e0e0"/><g fill="#212121"><path d="m43.4 18h-1.5v-12.58005h-4.44v-1.42h10.36v1.42h-4.42z"/><path d="m49.4691 18v-14.00005h1.36v5.94h.02c.2533-.45333.66-.85333 1.22-1.2.5733-.36 1.2133-.54 1.92-.54.7333 0 1.3933.17334 1.98.52.5866.34667 1.0466.83333 1.38 1.46005.3333.6266.5 1.3466.5 2.16v5.66h-1.36v-5.66c0-.84-.2534-1.52-.76-2.04-.4934-.52005-1.1267-.78005-1.9-.78005-.56 0-1.0667.14-1.52.42-.4534.26665-.8134.64005-1.08 1.12005-.2667.48-.4 1.02-.4 1.62v5.32z"/><path d="m64.572 18.2c-.8666 0-1.6666-.22-2.4-.66-.7333-.4534-1.32-1.06-1.76-1.82s-.66-1.6-.66-2.52c0-.9334.2134-1.78.64-2.54.4267-.76005 1-1.36005 1.72-1.80005s1.5067-.66 2.36-.66c.84 0 1.6.20667 2.28.62.6934.41333 1.24.99333 1.64 1.74005.4.7466.6 1.5866.6 2.52 0 .2133-.0133.4266-.04.64h-7.8c.0667.5866.26 1.12.58 1.6s.7267.86 1.22 1.14c.5067.28 1.06.42 1.66.42 1.1067 0 2.0867-.48 2.94-1.44l.94.86c-.4266.5333-.9666.9866-1.62 1.36-.6533.36-1.42.54-2.3.54zm3.04-5.66c-.12-.9334-.46-1.6734-1.02-2.22-.56-.56005-1.2666-.84005-2.12-.84005-.56 0-1.0866.14-1.58.42-.48.26665-.88.63335-1.2 1.10005-.3066.4666-.4933.98-.56 1.54z"/><path d="m78.218 18h-3v-14.00005h2.74l4.78 6.08005h.04l4.78-6.08005h2.66v14.00005h-3v-9.22005h-.08l-4.42 5.62005-4.42-5.62005h-.08z"/><path d="m94.8517 18h-3.14l5.44-14.00005h3.3403l5.42 14.00005h-3.18l-1.18-3.16h-5.5403zm3.9-10.94005-1.86 5.24005h3.7803l-1.8603-5.24005z"/><path d="m109.441 18h-3.42l4.76-7.28-4.36-6.72005h3.5l2.8 4.52h.06l2.82-4.52h3.42l-4.34 6.66005 4.74 7.34h-3.48l-3.22-5.14h-.06z"/><path d="m127.275 18.3c-1.427 0-2.72-.3267-3.88-.98-1.16-.6534-2.073-1.5334-2.74-2.64-.653-1.12-.98-2.3467-.98-3.68 0-1.33338.327-2.56005.98-3.68005.667-1.12 1.58-2 2.74-2.64 1.16-.65333 2.453-.98 3.88-.98s2.713.32667 3.86.98c1.16.64 2.073 1.52 2.74 2.64s1 2.34667 1 3.68005c0 1.3333-.333 2.56-1 3.68-.667 1.1066-1.58 1.9866-2.74 2.64-1.16.6533-2.447.98-3.86.98zm0-2.76c.84 0 1.607-.2 2.3-.6s1.24-.9467 1.64-1.64c.4-.6934.6-1.46.6-2.3s-.2-1.60672-.6-2.30005-.947-1.24-1.64-1.64c-.693-.41333-1.46-.62-2.3-.62s-1.613.2-2.32.6c-.693.4-1.24.95333-1.64 1.66-.4.69333-.6 1.46005-.6 2.30005s.2 1.6066.6 2.3c.413.6933.967 1.24 1.66 1.64s1.46.6 2.3.6z"/><path d="m142.168 18h-3.14l5.44-14.00005h3.34l5.42 14.00005h-3.18l-1.18-3.16h-5.54zm3.9-10.94005-1.86 5.24005h3.78l-1.86-5.24005z"/><path d="m158.367 18h-2.32l-3.4-9.70005h2.88l1.84 5.82005h.06l1.92-5.82005h2.1l1.92 5.82005h.06l1.84-5.82005h2.78l-3.4 9.70005h-2.32l-1.94-5.94h-.06z"/><path d="m172.657 8.09995c.827 0 1.56.17333 2.2.52.653.33333 1.16.79333 1.52 1.38.36.57335.54 1.20665.54 1.90005v6.1h-2.56v-1.34h-.06c-.24.3866-.62.74-1.14 1.06s-1.113.48-1.78.48c-.613 0-1.167-.1267-1.66-.38-.48-.2534-.86-.5934-1.14-1.02-.28-.44-.42-.9067-.42-1.4 0-.8267.26-1.5067.78-2.04.52-.5334 1.26-.8934 2.22-1.08l3.06-.58c-.027-.3867-.2-.7134-.52-.98-.307-.28-.7-.42-1.18-.42-.827 0-1.58.38-2.26 1.14l-1.54-1.48005c.427-.50667.973-.94 1.64-1.3.68-.37333 1.447-.56 2.3-.56zm-.5 7.94005c.587 0 1.073-.2067 1.46-.62.4-.4134.6-.9534.6-1.62v-.32l-2.1.42c-.373.0666-.667.2066-.88.42-.213.2-.32.4266-.32.68 0 .3066.107.56.32.76.227.1866.533.28.92.28z"/><path d="m178.921 18v-9.70005h2.7v1.2h.06c.24-.36.6-.68 1.08-.96.493-.29333 1.047-.44 1.66-.44h.46v2.90005c-.32-.1067-.62-.16-.9-.16-.693 0-1.26.24-1.7.72-.44.4666-.66 1.0933-.66 1.88v4.56z"/><path d="m189.682 18.2c-.787 0-1.52-.2134-2.2-.64-.667-.44-1.2-1.04-1.6-1.8-.4-.7734-.6-1.6467-.6-2.62 0-.9734.2-1.84.6-2.6.4-.77338.933-1.37338 1.6-1.80005.68-.42667 1.413-.64 2.2-.64.733 0 1.373.16667 1.92.5.547.32.94.68 1.18 1.08h.06v-5.68h2.7v14.00005h-2.7v-1.38h-.06c-.24.4-.633.7666-1.18 1.1-.547.32-1.187.48-1.92.48zm.76-2.5c.427 0 .82-.1134 1.18-.34.373-.2267.667-.5334.88-.92.227-.3867.34-.82.34-1.3 0-.4667-.113-.8934-.34-1.28-.213-.3867-.507-.6934-.88-.92-.36-.2267-.753-.34-1.18-.34s-.827.1133-1.2.34c-.36.2266-.653.5333-.88.92-.213.3866-.32.8133-.32 1.28 0 .48.107.9133.32 1.3.227.3866.52.6933.88.92.373.2266.773.34 1.2.34z"/><path d="m201.145 18.2c-.88 0-1.693-.18-2.44-.54-.746-.3734-1.313-.7934-1.7-1.26l1.54-1.6c.267.2933.614.56 1.04.8.427.2266.887.34 1.38.34.414 0 .727-.0734.94-.22.227-.16.34-.3667.34-.62 0-.24-.133-.4267-.4-.56-.253-.1467-.66-.3067-1.22-.48-.653-.2134-1.193-.42-1.62-.62-.413-.2-.78-.4934-1.1-.88-.306-.4-.46-.9134-.46-1.54 0-.5334.147-1.02005.44-1.46005.307-.45333.74-.80667 1.3-1.06.574-.26667 1.247-.4 2.02-.4.814 0 1.554.14667 2.22.44.667.28 1.174.6 1.52.96l-1.54 1.60005c-.213-.2-.486-.3734-.82-.52-.32-.16-.68-.24-1.08-.24-.373 0-.666.0733-.88.22-.213.1333-.32.3-.32.5 0 .2266.12.4066.36.54.254.1333.667.2933 1.24.48.654.2133 1.194.4266 1.62.64.427.2.794.5 1.1.9.32.4.48.9133.48 1.54 0 .56-.153 1.0733-.46 1.54-.306.4533-.76.82-1.36 1.1-.6.2666-1.313.4-2.14.4z"/></g></svg>