<svg fill="none" height="48" viewBox="0 0 205 48" width="205" xmlns="http://www.w3.org/2000/svg"><g fill="#000"><path clip-rule="evenodd" d="m48 24c0 13.2548-10.7452 24-24 24s-24-10.7452-24-24 10.7452-24 24-24 24 10.7452 24 24zm-31.4483 3.0894c.3354.578.956.9379 1.6195.9379 1.0347 0 1.8763-.8419 1.8763-1.8766 0-.3312-.0857-.6549-.2486-.9363-.6059-1.048-.9259-2.24-.9259-3.4482 0-3.8056 3.0956-6.9019 6.9017-6.9019 1.0339 0 1.875-.8415 1.875-1.8761 0-1.0342-.8388-1.8757-1.8692-1.8757-5.8769 0-10.6579 4.7793-10.6579 10.6537 0 1.8654.4941 3.7061 1.4291 5.3232zm3.5697-5.3232c0-1.6393.6977-3.1153 1.8123-4.1478-.0963 1.1669.471 2.3393 1.5527 2.9636.4835.2798 1.0209.4212 1.5594.4212.961-.0006 1.9336.2396 2.8246.754 1.4202.8201 2.3496 2.1624 2.6866 3.644-.9629-.6667-2.2624-.7621-3.3432-.1377-.4846.2792-.8747.6734-1.1445 1.1392-.48.8341-1.1743 1.5559-2.0658 2.0703-1.4199.8191-3.0468.9531-4.498.5047 1.0578-.5011 1.7898-1.5783 1.7898-2.827 0-.5583-.1458-1.0946-.4147-1.5606-.4812-.8326-.7592-1.7954-.7592-2.8239zm11.5871 10.8993c.2876.1665.613.2535.9412.2535.6649 0 1.2858-.3575 1.6178-.9333 1.4229-2.4643 1.8011-5.336 1.0647-8.0859-.7366-2.7507-2.4992-5.0487-4.9622-6.4709-1.6144-.932-3.4537-1.4244-5.3242-1.4244-.6691.0015-1.2908.3592-1.6219.9331-.5168.8958-.2095 2.0456.6858 2.5632.288.1659.6111.2535.9419.2535 1.2084 0 2.3991.3187 3.4434.9215 3.2954 1.903 4.4282 6.1321 2.5266 9.428-.5178.8956-.2091 2.0444.6869 2.5617zm-19.7608-3.767c1.897 3.2879 5.4384 5.3308 9.2413 5.3308 1.8586 0 3.696-.4939 5.3142-1.4281 1.6157-.9329 2.9621-2.2812 3.8942-3.8983.3337-.5789.3354-1.2963.0033-1.8715-.4976-.8616-1.6944-1.1893-2.5623-.6864-.2868.1649-.5241.4008-.6873.6821-.6047 1.0495-1.4768 1.9234-2.5238 2.5272-1.0487.6052-2.2403.9254-3.4442.9254-2.4609 0-4.7536-1.3225-5.9837-3.4518-.4959-.861-1.6921-1.1872-2.5619-.685-.8955.5165-1.2055 1.6632-.6898 2.5556z" fill-rule="evenodd"/><path d="m60 0h1v48h-1z"/><path d="m76.9202 19h1.2v-10.064h3.536v-1.136h-8.288v1.136h3.552z"/><path d="m82.9754 7.8v11.2h1.088v-4.256c0-.48.1067-.912.32-1.296s.5013-.6827.864-.896c.3627-.224.768-.336 1.216-.336.6187 0 1.1253.208 1.52.624.4053.416.608.96.608 1.632v4.528h1.088v-4.528c0-.6507-.1333-1.2267-.4-1.728-.2666-.5013-.6347-.8907-1.104-1.168s-.9973-.416-1.584-.416c-.5653 0-1.0773.144-1.536.432-.448.2773-.7733.5973-.976.96h-.016v-4.752z"/><path clip-rule="evenodd" d="m93.1378 18.632c.5867.352 1.2266.528 1.92.528.704 0 1.3173-.144 1.84-.432.5227-.2987.9546-.6613 1.296-1.088l-.752-.688c-.6827.768-1.4667 1.152-2.352 1.152-.48 0-.9227-.112-1.328-.336-.3947-.224-.72-.528-.976-.912s-.4107-.8107-.464-1.28h6.24c.0213-.1707.032-.3413.032-.512 0-.7467-.16-1.4187-.48-2.016s-.7574-1.0613-1.312-1.392c-.544-.3307-1.152-.496-1.824-.496-.6827 0-1.312.176-1.888.528s-1.0347.832-1.376 1.44-.512 1.2853-.512 2.032c0 .736.176 1.408.528 2.016s.8213 1.0933 1.408 1.456zm3.536-5.776c.448.4373.72 1.0293.816 1.776h-5.184c.0533-.448.2027-.8587.448-1.232.256-.3733.576-.6667.96-.88.3947-.224.816-.336 1.264-.336.6827 0 1.248.224 1.696.672z" fill-rule="evenodd"/><path clip-rule="evenodd" d="m126.857 38.3c-1.427 0-2.72-.3266-3.88-.98-1.16-.6533-2.073-1.5333-2.74-2.64-.653-1.12-.98-2.3467-.98-3.68s.327-2.56.98-3.68c.667-1.12 1.58-2 2.74-2.64 1.16-.6533 2.453-.98 3.88-.98s2.713.3267 3.86.98c1.16.64 2.073 1.52 2.74 2.64s1 2.3467 1 3.68-.333 2.56-1 3.68c-.667 1.1067-1.58 1.9867-2.74 2.64-1.16.6534-2.447.98-3.86.98zm0-2.76c.84 0 1.607-.2 2.3-.6s1.24-.9467 1.64-1.64.6-1.46.6-2.3-.2-1.6067-.6-2.3-.947-1.24-1.64-1.64c-.693-.4133-1.46-.62-2.3-.62s-1.613.2-2.32.6c-.693.4-1.24.9533-1.64 1.66-.4.6933-.6 1.46-.6 2.3s.2 1.6067.6 2.3c.413.6933.967 1.24 1.66 1.64s1.46.6 2.3.6z" fill-rule="evenodd"/><path d="m74.8002 38h3v-9.22h.08l4.42 5.62 4.42-5.62h.08v9.22h3v-14h-2.66l-4.78 6.08h-.04l-4.78-6.08h-2.74z"/><path clip-rule="evenodd" d="m94.4339 38h-3.14l5.44-14h3.3401l5.42 14h-3.18l-1.18-3.16h-5.5401zm3.9-10.94-1.86 5.24h3.7801l-1.8601-5.24z" fill-rule="evenodd"/><path d="m109.023 38h-3.42l4.76-7.28-4.36-6.72h3.5l2.8 4.52h.06l2.82-4.52h3.42l-4.34 6.66 4.74 7.34h-3.48l-3.22-5.14h-.06z"/><path clip-rule="evenodd" d="m138.61 38h3.14l1.16-3.16h5.54l1.18 3.16h3.18l-5.42-14h-3.34zm5.18-5.7 1.86-5.24h.06l1.86 5.24z" fill-rule="evenodd"/><path d="m155.629 38h2.32l1.96-5.94h.06l1.94 5.94h2.32l3.4-9.7h-2.78l-1.84 5.82h-.06l-1.92-5.82h-2.1l-1.92 5.82h-.06l-1.84-5.82h-2.88z"/><path clip-rule="evenodd" d="m174.439 28.62c-.64-.3467-1.373-.52-2.2-.52-.853 0-1.62.1867-2.3.56-.666.36-1.213.7933-1.64 1.3l1.54 1.48c.68-.76 1.434-1.14 2.26-1.14.48 0 .874.14 1.18.42.32.2667.494.5934.52.98l-3.06.58c-.96.1867-1.7.5467-2.22 1.08s-.78 1.2133-.78 2.04c0 .4933.14.96.42 1.4.28.4267.66.7667 1.14 1.02.494.2533 1.047.38 1.66.38.667 0 1.26-.16 1.78-.48s.9-.6733 1.14-1.06h.06v1.34h2.56v-6.1c0-.6933-.18-1.3267-.54-1.9-.36-.5867-.866-1.0467-1.52-1.38zm-1.24 6.8c-.386.4133-.873.62-1.46.62-.386 0-.693-.0933-.92-.28-.213-.2-.32-.4533-.32-.76 0-.2533.107-.48.32-.68.214-.2133.507-.3533.88-.42l2.1-.42v.32c0 .6667-.2 1.2067-.6 1.62z" fill-rule="evenodd"/><path d="m178.503 28.3v9.7h2.7v-4.56c0-.7866.22-1.4133.66-1.88.44-.48 1.007-.72 1.7-.72.28 0 .58.0533.9.16v-2.9h-.46c-.613 0-1.166.1467-1.66.44-.48.28-.84.6-1.08.96h-.06v-1.2z"/><path clip-rule="evenodd" d="m187.064 37.56c.68.4267 1.414.64 2.2.64.734 0 1.374-.16 1.92-.48.547-.3333.94-.7 1.18-1.1h.06v1.38h2.7v-14h-2.7v5.68h-.06c-.24-.4-.633-.76-1.18-1.08-.546-.3333-1.186-.5-1.92-.5-.786 0-1.52.2134-2.2.64-.666.4267-1.2 1.0267-1.6 1.8-.4.76-.6 1.6267-.6 2.6s.2 1.8467.6 2.62c.4.76.934 1.36 1.6 1.8zm4.14-2.2c-.36.2267-.753.34-1.18.34-.426 0-.826-.1133-1.2-.34-.36-.2266-.653-.5333-.88-.92-.213-.3867-.32-.82-.32-1.3 0-.4667.107-.8933.32-1.28.227-.3866.52-.6933.88-.92.374-.2267.774-.34 1.2-.34.427 0 .82.1133 1.18.34.374.2267.667.5334.88.92.227.3867.34.8133.34 1.28 0 .48-.113.9133-.34 1.3-.213.3867-.506.6934-.88.92z" fill-rule="evenodd"/><path d="m198.288 37.66c.746.36 1.56.54 2.44.54.826 0 1.54-.1333 2.139-.4.601-.28 1.054-.6466 1.361-1.1.306-.4667.46-.98.46-1.54 0-.6266-.16-1.14-.48-1.54-.307-.4-.674-.7-1.1-.9-.427-.2133-.967-.4267-1.62-.64-.574-.1867-.987-.3467-1.241-.48-.239-.1333-.359-.3133-.359-.54 0-.2.106-.3666.32-.5.213-.1467.506-.22.88-.22.4 0 .76.08 1.079.24.334.1467.607.32.821.52l1.54-1.6c-.347-.36-.854-.68-1.52-.96-.667-.2933-1.407-.44-2.22-.44-.774 0-1.447.1333-2.02.4-.56.2534-.994.6067-1.3 1.06-.294.44-.44.9267-.44 1.46 0 .6267.153 1.14.46 1.54.319.3867.686.68 1.1.88.426.2.966.4067 1.62.62.56.1733.966.3333 1.219.48.267.1333.401.32.401.56 0 .2533-.114.46-.34.62-.214.1467-.527.22-.941.22-.493 0-.953-.1133-1.38-.34-.426-.24-.773-.5066-1.039-.8l-1.54 1.6c.386.4667.953.8867 1.7 1.26z"/></g></svg>