<svg fill="none" height="24" viewBox="0 0 206 24" width="206" xmlns="http://www.w3.org/2000/svg"><g fill="#fff"><path clip-rule="evenodd" d="m12 24c6.6274 0 12-5.3726 12-12 0-6.62742-5.3726-12-12-12-6.62742 0-12 5.37258-12 12 0 6.6274 5.37258 12 12 12zm-2.91442-9.9864c-.33173 0-.64206-.18-.80972-.469-.46751-.8085-.71456-1.7289-.71456-2.6616 0-2.93718 2.39051-5.32685 5.3289-5.32685.5152 0 .9347.42077.9347.93787 0 .51731-.4206.93805-.9376.93805-1.903 0-3.45079 1.54815-3.45079 3.45093 0 .6041.15999 1.2001.46294 1.7241.08145.1407.12425.3026.12425.4681 0 .5174-.42075.9384-.93812.9384zm1.88122-5.20448c-.5573.51624-.9061 1.25428-.9061 2.07388 0 .5142.139.9957.3796 1.4119.1344.2331.2074.5012.2074.7803 0 .6244-.366 1.163-.89493 1.4136.72553.2242 1.53903.1571 2.24903-.2524.4457-.2572.7929-.6181 1.0329-1.0351.1348-.233.3299-.43.5722-.5697.5404-.3121 1.1902-.2645 1.6716.0689-.1685-.7408-.6332-1.4119-1.3433-1.822-.4455-.2572-.9318-.3773-1.4123-.377-.2693 0-.538-.0707-.7797-.2106-.5409-.31215-.8245-.89835-.7764-1.48178zm5.3581 7.65028c-.1642 0-.3269-.0435-.4706-.1267-.448-.2587-.6024-.8331-.3435-1.2809.9508-1.648.3844-3.7625-1.2633-4.714-.5222-.3014-1.1175-.46076-1.7217-.46076-.1654 0-.327-.04378-.4709-.12675-.4477-.25878-.6013-.83366-.343-1.28157.1656-.28698.4765-.46583.811-.46656.9352 0 1.8549.24622 2.6621.7122 1.2315.71112 2.1128 1.86014 2.4811 3.23544.3682 1.375.1791 2.8108-.5323 4.043-.1661.2878-.4765.4666-.8089.4666zm-5.7304.6551c-1.90143 0-3.67214-1.0214-4.62067-2.6653-.25785-.4462-.10284-1.0196.34493-1.2779.43489-.2511 1.03298-.0879 1.28096.3426.61504 1.0646 1.76136 1.7259 2.99188 1.7259.6019 0 1.1977-.1601 1.7221-.4627.5235-.3019.9595-.7389 1.2618-1.2637.0817-.1406.2003-.2585.3437-.341.4339-.2514 1.0323-.0876 1.2812.3432.166.2876.1652.6463-.0017.9358-.4661.8085-1.1393 1.4827-1.9471 1.9491-.8091.4671-1.7278.714-2.6571.714z" fill-rule="evenodd"/><path d="m30 0h1v24h-1z"/><path clip-rule="evenodd" d="m123.395 17.32c1.16.6533 2.453.98 3.88.98 1.413 0 2.7-.3267 3.86-.98 1.16-.6534 2.073-1.5334 2.74-2.64.667-1.12 1-2.3467 1-3.68 0-1.33338-.333-2.56005-1-3.68005s-1.58-2-2.74-2.64c-1.147-.65333-2.433-.98-3.86-.98s-2.72.32667-3.88.98c-1.16.64-2.073 1.52-2.74 2.64-.653 1.12-.98 2.34667-.98 3.68005 0 1.3333.327 2.56.98 3.68.667 1.1066 1.58 1.9866 2.74 2.64zm6.18-2.38c-.693.4-1.46.6-2.3.6s-1.607-.2-2.3-.6-1.247-.9467-1.66-1.64c-.4-.6934-.6-1.46-.6-2.3s.2-1.60672.6-2.30005c.4-.70667.947-1.26 1.64-1.66.707-.4 1.48-.6 2.32-.6s1.607.20667 2.3.62c.693.4 1.24.94667 1.64 1.64s.6 1.46005.6 2.30005-.2 1.6066-.6 2.3c-.4.6933-.947 1.24-1.64 1.64z" fill-rule="evenodd"/><path d="m43.4 18h-1.5v-12.58005h-4.44v-1.42h10.36v1.42h-4.42z"/><path d="m49.4691 18v-14.00005h1.36v5.94h.02c.2533-.45333.66-.85333 1.22-1.2.5733-.36 1.2133-.54 1.92-.54.7333 0 1.3933.17334 1.98.52.5867.34667 1.0467.83333 1.38 1.46005.3333.6266.5 1.3466.5 2.16v5.66h-1.36v-5.66c0-.84-.2533-1.52-.76-2.04-.4933-.52005-1.1267-.78005-1.9-.78005-.56 0-1.0667.14-1.52.42-.4533.26665-.8133.64005-1.08 1.12005s-.4 1.02-.4 1.62v5.32z"/><path clip-rule="evenodd" d="m62.1721 17.54c.7333.44 1.5333.66 2.4.66.88 0 1.6466-.18 2.3-.54.6533-.3734 1.1933-.8267 1.62-1.36l-.94-.86c-.8534.96-1.8334 1.44-2.94 1.44-.6 0-1.1534-.14-1.66-.42-.4934-.28-.9-.66-1.22-1.14s-.5134-1.0134-.58-1.6h7.8c.0266-.2134.04-.4267.04-.64 0-.9334-.2-1.7734-.6-2.52-.4-.74672-.9467-1.32672-1.64-1.74005-.68-.41333-1.44-.62-2.28-.62-.8534 0-1.64.22-2.36.66s-1.2934 1.04-1.72 1.80005c-.4267.76-.64 1.6066-.64 2.54 0 .92.22 1.76.66 2.52s1.0266 1.3666 1.76 1.82zm4.42-7.22c.56.5466.9 1.2866 1.02 2.22h-6.48c.0666-.56.2533-1.0734.56-1.54.32-.4667.72-.8334 1.2-1.10005.4933-.28 1.02-.42 1.58-.42.8533 0 1.56.28 2.12.84005z" fill-rule="evenodd"/><path d="m78.218 18h-3v-14.00005h2.74l4.78 6.08005h.04l4.78-6.08005h2.66v14.00005h-3v-9.22005h-.08l-4.42 5.62005-4.42-5.62005h-.08z"/><path clip-rule="evenodd" d="m91.7117 18h3.14l1.16-3.16h5.5403l1.18 3.16h3.18l-5.42-14.00005h-3.3403zm5.18-5.7 1.86-5.24005h.06l1.8603 5.24005z" fill-rule="evenodd"/><path d="m109.441 18h-3.42l4.76-7.28-4.36-6.72005h3.5l2.8 4.52h.06l2.82-4.52h3.42l-4.34 6.66005 4.74 7.34h-3.48l-3.22-5.14h-.06z"/><path clip-rule="evenodd" d="m142.168 18h-3.14l5.44-14.00005h3.34l5.42 14.00005h-3.18l-1.18-3.16h-5.54zm3.9-10.94005-1.86 5.24005h3.78l-1.86-5.24005z" fill-rule="evenodd"/><path d="m156.047 18h2.32l1.96-5.94h.06l1.94 5.94h2.32l3.4-9.70005h-2.78l-1.84 5.82005h-.06l-1.92-5.82005h-2.1l-1.92 5.82005h-.06l-1.84-5.82005h-2.88z"/><path clip-rule="evenodd" d="m172.657 8.09995c.827 0 1.56.17333 2.2.52.653.33334 1.16.79333 1.52 1.38.36.57335.54 1.20665.54 1.90005v6.1h-2.56v-1.34h-.06c-.24.3866-.62.74-1.14 1.06s-1.113.48-1.78.48c-.613 0-1.167-.1267-1.66-.38-.48-.2534-.86-.5934-1.14-1.02-.28-.44-.42-.9067-.42-1.4 0-.8267.26-1.5067.78-2.04.52-.5334 1.26-.8934 2.22-1.08l3.06-.58c-.027-.3867-.2-.7134-.52-.98-.307-.28-.7-.42-1.18-.42-.827 0-1.58.38-2.26 1.14l-1.54-1.48005c.427-.50667.973-.94 1.64-1.3.68-.37333 1.447-.56 2.3-.56zm-.5 7.94005c.587 0 1.073-.2067 1.46-.62.4-.4134.6-.9534.6-1.62v-.32l-2.1.42c-.373.0666-.667.2066-.88.42-.213.2-.32.4266-.32.68 0 .3066.107.56.32.76.227.1866.533.28.92.28z" fill-rule="evenodd"/><path d="m178.921 8.29995v9.70005h2.7v-4.56c0-.7867.22-1.4134.66-1.88.44-.48 1.007-.72 1.7-.72.28 0 .58.0533.9.16v-2.90005h-.46c-.613 0-1.167.14667-1.66.44-.48.28-.84.6-1.08.96h-.06v-1.2z"/><path clip-rule="evenodd" d="m189.682 18.2c-.787 0-1.52-.2134-2.2-.64-.667-.44-1.2-1.04-1.6-1.8-.4-.7734-.6-1.6467-.6-2.62 0-.9734.2-1.84.6-2.6.4-.77338.933-1.37338 1.6-1.80005.68-.42667 1.413-.64 2.2-.64.733 0 1.373.16667 1.92.5.547.32.94.68 1.18 1.08h.06v-5.68h2.7v14.00005h-2.7v-1.38h-.06c-.24.4-.633.7666-1.18 1.1-.547.32-1.187.48-1.92.48zm.76-2.5c.427 0 .82-.1134 1.18-.34.373-.2267.667-.5334.88-.92.227-.3867.34-.82.34-1.3 0-.4667-.113-.8934-.34-1.28-.213-.3867-.507-.6934-.88-.92-.36-.2267-.753-.34-1.18-.34s-.827.1133-1.2.34c-.36.2266-.653.5333-.88.92-.213.3866-.32.8133-.32 1.28 0 .48.107.9133.32 1.3.227.3866.52.6933.88.92.373.2266.773.34 1.2.34z" fill-rule="evenodd"/><path d="m198.705 17.66c.747.36 1.56.54 2.44.54.827 0 1.54-.1334 2.14-.4.6-.28 1.054-.6467 1.36-1.1.307-.4667.46-.98.46-1.54 0-.6267-.16-1.14-.48-1.54-.306-.4-.673-.7-1.1-.9-.426-.2134-.966-.4267-1.62-.64-.573-.1867-.986-.3467-1.24-.48-.24-.1334-.36-.3134-.36-.54 0-.2.107-.3667.32-.5.214-.1467.507-.22.88-.22.4 0 .76.08 1.08.24.334.1466.607.32.82.52l1.54-1.60005c-.346-.36-.853-.68-1.52-.96-.666-.29333-1.406-.44-2.22-.44-.773 0-1.446.13333-2.02.4-.56.25333-.993.60667-1.3 1.06-.293.44-.44.92665-.44 1.46005 0 .6266.154 1.14.46 1.54.32.3866.687.68 1.1.88.427.2.967.4066 1.62.62.56.1733.967.3333 1.22.48.267.1333.4.32.4.56 0 .2533-.113.46-.34.62-.213.1466-.526.22-.94.22-.493 0-.953-.1134-1.38-.34-.426-.24-.773-.5067-1.04-.8l-1.54 1.6c.387.4666.954.8866 1.7 1.26z"/></g></svg>