<svg fill="none" height="24" viewBox="0 0 227 24" width="227" xmlns="http://www.w3.org/2000/svg"><g fill="#000"><path clip-rule="evenodd" d="m12 24c6.6274 0 12-5.3726 12-12 0-6.62742-5.3726-12-12-12-6.62742 0-12 5.37258-12 12 0 6.6274 5.37258 12 12 12zm-2.91442-9.9864c-.33173 0-.64206-.18-.80972-.469-.46751-.8085-.71456-1.7289-.71456-2.6616 0-2.93718 2.39051-5.32685 5.3289-5.32685.5152 0 .9347.42077.9347.93787 0 .51731-.4206.93805-.9376.93805-1.903 0-3.45079 1.54815-3.45079 3.45093 0 .6041.15999 1.2001.46294 1.7241.08145.1407.12425.3026.12425.4681 0 .5174-.42075.9384-.93812.9384zm1.88122-5.20448c-.5573.51624-.9061 1.25428-.9061 2.07388 0 .5142.139.9957.3796 1.4119.1344.2331.2074.5012.2074.7803 0 .6244-.366 1.163-.89493 1.4136.72553.2242 1.53903.1571 2.24903-.2524.4457-.2572.7929-.6181 1.0329-1.0351.1348-.233.3299-.43.5722-.5697.5404-.3121 1.1902-.2645 1.6716.0689-.1685-.7408-.6332-1.4119-1.3433-1.822-.4455-.2572-.9318-.3773-1.4123-.377-.2693 0-.538-.0707-.7797-.2106-.5409-.31215-.8245-.89835-.7764-1.48178zm5.3581 7.65028c-.1642 0-.3269-.0435-.4706-.1267-.448-.2587-.6024-.8331-.3435-1.2809.9508-1.648.3844-3.7625-1.2633-4.714-.5222-.3014-1.1175-.46076-1.7217-.46076-.1654 0-.327-.04378-.4709-.12675-.4477-.25878-.6013-.83366-.343-1.28157.1656-.28698.4765-.46583.811-.46656.9352 0 1.8549.24622 2.6621.7122 1.2315.71112 2.1128 1.86014 2.4811 3.23544.3682 1.375.1791 2.8108-.5323 4.043-.1661.2878-.4765.4666-.8089.4666zm-5.7304.6551c-1.90143 0-3.67214-1.0214-4.62067-2.6653-.25785-.4462-.10284-1.0196.34493-1.2779.43489-.2511 1.03298-.0879 1.28096.3426.61504 1.0646 1.76136 1.7259 2.99188 1.7259.6019 0 1.1977-.1601 1.7221-.4627.5235-.3019.9595-.7389 1.2618-1.2637.0817-.1406.2003-.2585.3437-.341.4339-.2514 1.0323-.0876 1.2812.3432.166.2876.1652.6463-.0017.9358-.4661.8085-1.1393 1.4827-1.9471 1.9491-.8091.4671-1.7278.714-2.6571.714z" fill-rule="evenodd"/><path d="m30 0h1v24h-1z"/><path clip-rule="evenodd" d="m90.8569 18.3c-1.4267 0-2.72-.3267-3.88-.98-1.16-.6534-2.0734-1.5334-2.74-2.64-.6534-1.12-.98-2.3467-.98-3.68 0-1.33338.3266-2.56005.98-3.68005.6666-1.12 1.58-2 2.74-2.64 1.16-.65333 2.4533-.98 3.88-.98 1.4266 0 2.7133.32667 3.86.98 1.16.64 2.0733 1.52 2.74 2.64.6666 1.12 1 2.34667 1 3.68005 0 1.3333-.3334 2.56-1 3.68-.6667 1.1066-1.58 1.9866-2.74 2.64-1.16.6533-2.4467.98-3.86.98zm0-2.76c.84 0 1.6066-.2 2.3-.6.6933-.4 1.24-.9467 1.64-1.64.4-.6934.6-1.46.6-2.3s-.2-1.60672-.6-2.30005-.9467-1.24-1.64-1.64c-.6934-.41333-1.46-.62-2.3-.62s-1.6134.2-2.32.6c-.6934.4-1.24.95333-1.64 1.66-.4.69333-.6 1.46005-.6 2.30005s.2 1.6066.6 2.3c.4133.6933.9666 1.24 1.66 1.64.6933.4 1.46.6 2.3.6z" fill-rule="evenodd"/><path d="m41.8 18h-3v-14.00005h2.74l4.78 6.08005h.04l4.78-6.08005h2.66v14.00005h-3v-9.22005h-.08l-4.42 5.62005-4.42-5.62005h-.08z"/><path clip-rule="evenodd" d="m58.4337 18h-3.14l5.44-14.00005h3.34l5.42 14.00005h-3.18l-1.18-3.16h-5.54zm3.9-10.94005-1.86 5.24005h3.78l-1.86-5.24005z" fill-rule="evenodd"/><path d="m69.6031 18h3.42l3.22-5.14h.06l3.22 5.14h3.48l-4.74-7.34 4.34-6.66005h-3.42l-2.82 4.52h-.06l-2.8-4.52h-3.5l4.36 6.72005z"/><path clip-rule="evenodd" d="m102.61 18h3.14l1.16-3.16h5.54l1.18 3.16h3.18l-5.42-14.00005h-3.34zm5.18-5.7 1.86-5.24005h.06l1.86 5.24005z" fill-rule="evenodd"/><path d="m121.949 18h-2.32l-3.4-9.70005h2.88l1.84 5.82005h.06l1.92-5.82005h2.1l1.92 5.82005h.06l1.84-5.82005h2.78l-3.4 9.70005h-2.32l-1.94-5.94h-.06z"/><path clip-rule="evenodd" d="m138.439 8.61995c-.64-.34667-1.373-.52-2.2-.52-.853 0-1.62.18667-2.3.56-.667.36-1.213.79333-1.64 1.3l1.54 1.48005c.68-.76 1.433-1.14 2.26-1.14.48 0 .873.14 1.18.42.32.2666.493.5933.52.98l-3.06.58c-.96.1866-1.7.5466-2.22 1.08-.52.5333-.78 1.2133-.78 2.04 0 .4933.14.96.42 1.4.28.4266.66.7666 1.14 1.02.493.2533 1.047.38 1.66.38.667 0 1.26-.16 1.78-.48s.9-.6734 1.14-1.06h.06v1.34h2.56v-6.1c0-.6934-.18-1.3267-.54-1.90005-.36-.58667-.867-1.04666-1.52-1.38zm-1.24 6.80005c-.387.4133-.873.62-1.46.62-.387 0-.693-.0934-.92-.28-.213-.2-.32-.4534-.32-.76 0-.2534.107-.48.32-.68.213-.2134.507-.3534.88-.42l2.1-.42v.32c0 .6666-.2 1.2066-.6 1.62z" fill-rule="evenodd"/><path d="m142.503 18v-9.70005h2.7v1.2h.06c.24-.36.6-.68 1.08-.96.493-.29333 1.047-.44 1.66-.44h.46v2.90005c-.32-.1067-.62-.16-.9-.16-.693 0-1.26.24-1.7.72-.44.4666-.66 1.0933-.66 1.88v4.56z"/><path clip-rule="evenodd" d="m151.064 17.56c.68.4266 1.413.64 2.2.64.733 0 1.373-.16 1.92-.48.547-.3334.94-.7 1.18-1.1h.06v1.38h2.7v-14.00005h-2.7v5.68h-.06c-.24-.4-.633-.76-1.18-1.08-.547-.33333-1.187-.5-1.92-.5-.787 0-1.52.21333-2.2.64-.667.42667-1.2 1.02667-1.6 1.80005-.4.76-.6 1.6266-.6 2.6 0 .9733.2 1.8466.6 2.62.4.76.933 1.36 1.6 1.8zm4.14-2.2c-.36.2266-.753.34-1.18.34s-.827-.1134-1.2-.34c-.36-.2267-.653-.5334-.88-.92-.213-.3867-.32-.82-.32-1.3 0-.4667.107-.8934.32-1.28.227-.3867.52-.6934.88-.92.373-.2267.773-.34 1.2-.34s.82.1133 1.18.34c.373.2266.667.5333.88.92.227.3866.34.8133.34 1.28 0 .48-.113.9133-.34 1.3-.213.3866-.507.6933-.88.92z" fill-rule="evenodd"/><path d="m170.071 18h-1.5l-4.52-14.00005h1.58l3.72 11.64005h.04l3.72-11.64005h1.4l3.76 11.64005h.04l3.7-11.64005h1.54l-4.54 14.00005h-1.48l-3.72-11.60005h-.04z"/><path d="m185.258 8.39995v9.60005h1.36v-9.60005z"/><path d="m185.298 6.03995c.187.17333.4.26.64.26.253 0 .467-.08667.64-.26.187-.17333.28-.38666.28-.64 0-.25333-.093-.46667-.28-.64-.173-.17333-.387-.26-.64-.26-.24 0-.453.08667-.64.26-.173.17333-.26.38667-.26.64 0 .25334.087.46667.26.64z"/><path d="m189.365 18v-9.60005h1.36v1.54h.02c.253-.45333.66-.85333 1.22-1.2.573-.36 1.213-.54 1.92-.54.733 0 1.393.17334 1.98.52.587.34667 1.047.83333 1.38 1.46005.333.6266.5 1.3466.5 2.16v5.66h-1.36v-5.66c0-.84-.253-1.52-.76-2.04-.493-.52005-1.127-.78005-1.9-.78005-.56 0-1.067.14-1.52.42-.453.26665-.813.64005-1.08 1.12005s-.4 1.02-.4 1.62v5.32z"/><path d="m200.31 8.39995v9.60005h1.36v-5.32c0-.6.134-1.14.4-1.62.267-.48.627-.8534 1.08-1.12005.454-.28.96-.42 1.52-.42.774 0 1.407.26 1.9.78005.507.52.76 1.2.76 2.04v5.66h1.36v-5.66c0-.8134-.166-1.5334-.5-2.16-.333-.62672-.793-1.11338-1.38-1.46005-.586-.34666-1.246-.52-1.98-.52-.706 0-1.346.18-1.92.54-.56.34667-.966.74667-1.22 1.2h-.02v-1.54z"/><path clip-rule="evenodd" d="m215.416 18.2c-.867 0-1.667-.22-2.4-.66-.734-.4534-1.32-1.06-1.76-1.82s-.66-1.6-.66-2.52c0-.9334.213-1.78.64-2.54.426-.76005 1-1.36005 1.72-1.80005s1.506-.66 2.36-.66c.84 0 1.6.20667 2.28.62.693.41333 1.24.99333 1.64 1.74005.4.7466.6 1.5866.6 2.52 0 .2133-.014.4266-.04.64h-7.8c.066.5866.26 1.12.58 1.6s.726.86 1.22 1.14c.506.28 1.06.42 1.66.42 1.106 0 2.086-.48 2.94-1.44l.94.86c-.427.5333-.967.9866-1.62 1.36-.654.36-1.42.54-2.3.54zm3.04-5.66c-.12-.9334-.46-1.6734-1.02-2.22-.56-.56005-1.267-.84005-2.12-.84005-.56 0-1.087.14-1.58.42-.48.26665-.88.63335-1.2 1.10005-.307.4666-.494.98-.56 1.54z" fill-rule="evenodd"/><path d="m221.732 8.39995v9.60005h1.36v-5.2c0-.6134.134-1.1667.4-1.66.28-.4934.654-.88 1.12-1.16005.467-.28.98-.42 1.54-.42.187 0 .374.01334.56.04v-1.4h-.44c-.72 0-1.366.17334-1.94.52-.56.34667-.966.74-1.22 1.18h-.02v-1.5z"/></g></svg>