<svg fill="none" height="48" viewBox="0 0 205 48" width="205" xmlns="http://www.w3.org/2000/svg" xmlns:xlink="http://www.w3.org/1999/xlink"><linearGradient id="a" gradientUnits="userSpaceOnUse" x1="24" x2="24" y1="0" y2="48"><stop offset="0" stop-color="#ffb300"/><stop offset="1" stop-color="#ff8f00"/></linearGradient><g fill="#fff"><path d="m60 0h1v48h-1z"/><path d="m78.12 19h-1.2v-10.06395h-3.552v-1.136h8.288v1.136h-3.536z"/><path d="m82.9753 19v-11.19995h1.088v4.75195h.016c.2027-.3626.528-.6826.976-.96.4587-.288.9707-.432 1.536-.432.5867 0 1.1147.1387 1.584.416.4693.2774.8373.6667 1.104 1.168.2667.5014.4 1.0774.4 1.728v4.528h-1.088v-4.528c0-.672-.2027-1.216-.608-1.632-.3947-.416-.9013-.624-1.52-.624-.448 0-.8533.112-1.216.336-.3627.2134-.6507.512-.864.896s-.32.816-.32 1.296v4.256z"/><path clip-rule="evenodd" d="m93.1377 18.632c.5866.352 1.2266.528 1.92.528.704 0 1.3173-.144 1.84-.432.5226-.2986.9546-.6613 1.296-1.088l-.752-.688c-.6827.768-1.4667 1.152-2.352 1.152-.48 0-.9227-.112-1.328-.336-.3947-.224-.72-.528-.976-.912s-.4107-.8106-.464-1.28h6.24c.0213-.1706.032-.3413.032-.512 0-.7466-.16-1.4186-.48-2.016-.32-.5973-.7574-1.0613-1.312-1.392-.544-.3306-1.152-.496-1.824-.496-.6827 0-1.312.176-1.888.528s-1.0347.832-1.376 1.44c-.3414.608-.512 1.2854-.512 2.032 0 .736.176 1.408.528 2.016s.8213 1.0934 1.408 1.456zm3.536-5.776c.448.4374.72 1.0294.816 1.776h-5.184c.0533-.448.2026-.8586.448-1.232.256-.3733.576-.6666.96-.88.3946-.224.816-.336 1.264-.336.6826 0 1.248.224 1.696.672z" fill-rule="evenodd"/><path clip-rule="evenodd" d="m122.977 37.3201c1.16.6533 2.453.98 3.88.98 1.413 0 2.7-.3267 3.86-.98 1.16-.6534 2.073-1.5334 2.74-2.64.667-1.12 1-2.3467 1-3.68 0-1.3334-.333-2.56-1-3.68s-1.58-2-2.74-2.64c-1.147-.6534-2.433-.98-3.86-.98s-2.72.3266-3.88.98c-1.16.64-2.073 1.52-2.74 2.64-.653 1.12-.98 2.3466-.98 3.68 0 1.3333.327 2.56.98 3.68.667 1.1066 1.58 1.9866 2.74 2.64zm6.18-2.38c-.693.4-1.46.6-2.3.6s-1.607-.2-2.3-.6-1.247-.9467-1.66-1.64c-.4-.6934-.6-1.46-.6-2.3s.2-1.6067.6-2.3c.4-.7067.947-1.26 1.64-1.66.707-.4 1.48-.6 2.32-.6s1.607.2066 2.3.62c.693.4 1.24.9466 1.64 1.64.4.6933.6 1.46.6 2.3s-.2 1.6066-.6 2.3c-.4.6933-.947 1.24-1.64 1.64z" fill-rule="evenodd"/><path d="m74.8 38.0001h3v-9.22h.08l4.42 5.62 4.42-5.62h.08v9.22h3v-14h-2.66l-4.78 6.08h-.04l-4.78-6.08h-2.74z"/><path clip-rule="evenodd" d="m91.2938 38.0001h3.14l1.16-3.16h5.5402l1.18 3.16h3.18l-5.42-14h-3.3402zm5.18-5.7 1.86-5.24h.06l1.8602 5.24z" fill-rule="evenodd"/><path d="m109.023 38.0001h-3.42l4.76-7.28-4.36-6.72h3.5l2.8 4.52h.06l2.82-4.52h3.42l-4.34 6.66 4.74 7.34h-3.48l-3.22-5.14h-.06z"/><path clip-rule="evenodd" d="m141.75 38.0001h-3.14l5.44-14h3.34l5.42 14h-3.18l-1.18-3.16h-5.54zm3.9-10.94-1.86 5.24h3.78l-1.86-5.24z" fill-rule="evenodd"/><path d="m155.629 38.0001h2.32l1.96-5.94h.06l1.94 5.94h2.32l3.4-9.7h-2.78l-1.84 5.82h-.06l-1.92-5.82h-2.1l-1.92 5.82h-.06l-1.84-5.82h-2.88z"/><path clip-rule="evenodd" d="m172.239 28.1001c.827 0 1.56.1733 2.2.52.653.3333 1.16.7933 1.52 1.38.36.5733.54 1.2066.54 1.9v6.1h-2.56v-1.34h-.06c-.24.3866-.62.74-1.14 1.06s-1.113.48-1.78.48c-.613 0-1.167-.1267-1.66-.38-.48-.2534-.86-.5934-1.14-1.02-.28-.44-.42-.9067-.42-1.4 0-.8267.26-1.5067.78-2.04.52-.5334 1.26-.8934 2.22-1.08l3.06-.58c-.027-.3867-.2-.7134-.52-.98-.307-.28-.7-.42-1.18-.42-.827 0-1.58.38-2.26 1.14l-1.54-1.48c.427-.5067.973-.94 1.64-1.3.68-.3734 1.447-.56 2.3-.56zm-.5 7.94c.587 0 1.073-.2067 1.46-.62.4-.4134.6-.9534.6-1.62v-.32l-2.1.42c-.373.0666-.667.2066-.88.42-.213.2-.32.4266-.32.68 0 .3066.107.56.32.76.227.1866.533.28.92.28z" fill-rule="evenodd"/><path d="m178.503 28.3001v9.7h2.7v-4.56c0-.7867.22-1.4134.66-1.88.44-.48 1.007-.72 1.7-.72.28 0 .58.0533.9.16v-2.9h-.46c-.613 0-1.166.1466-1.66.44-.48.28-.84.6-1.08.96h-.06v-1.2z"/><path clip-rule="evenodd" d="m189.264 38.2001c-.787 0-1.52-.2134-2.2-.64-.667-.44-1.2-1.04-1.6-1.8-.4-.7734-.6-1.6467-.6-2.62 0-.9734.2-1.84.6-2.6.4-.7734.933-1.3734 1.6-1.8.68-.4267 1.413-.64 2.2-.64.733 0 1.373.1666 1.92.5.547.32.94.68 1.18 1.08h.06v-5.68h2.7v14h-2.7v-1.38h-.06c-.24.4-.633.7666-1.18 1.1-.547.32-1.187.48-1.92.48zm.76-2.5c.427 0 .82-.1134 1.18-.34.373-.2267.667-.5334.88-.92.227-.3867.34-.82.34-1.3 0-.4667-.113-.8934-.34-1.28-.213-.3867-.507-.6934-.88-.92-.36-.2267-.753-.34-1.18-.34s-.827.1133-1.2.34c-.36.2266-.653.5333-.88.92-.213.3866-.32.8133-.32 1.28 0 .48.107.9133.32 1.3.227.3866.52.6933.88.92.373.2266.773.34 1.2.34z" fill-rule="evenodd"/><path d="m198.287 37.6601c.747.36 1.56.54 2.44.54.827 0 1.54-.1334 2.14-.4.6-.28 1.054-.6467 1.36-1.1.307-.4667.46-.98.46-1.54 0-.6267-.16-1.14-.48-1.54-.306-.4-.673-.7-1.1-.9-.426-.2134-.966-.4267-1.62-.64-.573-.1867-.986-.3467-1.24-.48-.24-.1334-.36-.3134-.36-.54 0-.2.107-.3667.32-.5.214-.1467.507-.22.88-.22.4 0 .76.08 1.08.24.334.1466.607.32.82.52l1.54-1.6c-.346-.36-.853-.68-1.52-.96-.666-.2934-1.406-.44-2.22-.44-.773 0-1.446.1333-2.02.4-.56.2533-.993.6066-1.3 1.06-.293.44-.44.9266-.44 1.46 0 .6266.154 1.14.46 1.54.32.3866.687.68 1.1.88.427.2.967.4066 1.62.62.56.1733.967.3333 1.22.48.267.1333.4.32.4.56 0 .2533-.113.46-.34.62-.213.1466-.526.22-.94.22-.493 0-.953-.1134-1.38-.34-.426-.24-.773-.5067-1.04-.8l-1.54 1.6c.387.4666.954.8866 1.7 1.26z"/></g><circle cx="24" cy="24" fill="url(#a)" r="24"/><path d="m16.5517 27.0895c.3353.578.956.9379 1.6195.9379 1.0347 0 1.8762-.8419 1.8762-1.8767 0-.3312-.0856-.6548-.2485-.9362-.6059-1.048-.9259-2.24-.9259-3.4483 0-3.8055 3.0956-6.9018 6.9017-6.9018 1.0339 0 1.875-.8415 1.875-1.8761 0-1.0342-.8388-1.8758-1.8692-1.8758-5.8769 0-10.6579 4.7794-10.6579 10.6537 0 1.8655.4941 3.7062 1.4291 5.3233z" fill="#fff"/><path d="m20.1214 21.7663c0-1.6393.6977-3.1153 1.8123-4.1478-.0963 1.1669.471 2.3392 1.5527 2.9636.4835.2797 1.0209.4212 1.5594.4212.961-.0006 1.9336.2396 2.8246.754 1.4202.8201 2.3496 2.1623 2.6866 3.644-.9629-.6668-2.2624-.7621-3.3432-.1378-.4845.2793-.8748.6734-1.1445 1.1393-.48.834-1.1743 1.5558-2.0658 2.0703-1.4199.819-3.0468.9531-4.498.5047 1.0578-.5012 1.7898-1.5783 1.7898-2.8271 0-.5582-.1458-1.0945-.4147-1.5606-.4812-.8325-.7592-1.7954-.7592-2.8238z" fill="#fff"/><path d="m32.6497 32.9191c-.3282 0-.6536-.0871-.9412-.2535-.896-.5174-1.2047-1.6662-.6869-2.5617 1.9016-3.296.7688-7.525-2.5266-9.4281-1.0443-.6027-2.2349-.9215-3.4434-.9215-.3308 0-.6539-.0875-.9419-.2535-.8953-.5175-1.2026-1.6673-.6858-2.5631.3311-.574.9528-.9317 1.6219-.9331 1.8704 0 3.7097.4924 5.3242 1.4244 2.463 1.4222 4.2256 3.7202 4.9622 6.4709.7364 2.7499.3582 5.6216-1.0647 8.0859-.332.5757-.9529.9333-1.6178.9333z" fill="#fff"/><path d="m11.9477 28.8986c1.897 3.2879 5.4384 5.3307 9.2413 5.3307 1.8586 0 3.696-.4938 5.3142-1.428 1.6157-.933 2.9621-2.2812 3.8942-3.8983.3337-.5789.3354-1.2964.0033-1.8715-.4976-.8616-1.6944-1.1893-2.5623-.6865-.2868.165-.5241.4008-.6873.6821-.6047 1.0495-1.4768 1.9234-2.5238 2.5273-1.0487.6052-2.2403.9254-3.4442.9254-2.4609 0-4.7536-1.3225-5.9837-3.4518-.4959-.861-1.6921-1.1873-2.5619-.6851-.8955.5166-1.2055 1.6633-.6898 2.5557z" fill="#fff"/></svg>