<svg fill="none" height="48" viewBox="0 0 196 48" width="196" xmlns="http://www.w3.org/2000/svg" xmlns:xlink="http://www.w3.org/1999/xlink"><linearGradient id="a" gradientUnits="userSpaceOnUse" x1="24" x2="24" y1="0" y2="48"><stop offset="0" stop-color="#ffb300"/><stop offset="1" stop-color="#ff8f00"/></linearGradient><path d="m60 0h1v48h-1z" fill="#e0e0e0"/><circle cx="24" cy="24" fill="url(#a)" r="24"/><path d="m16.5517 27.0895c.3353.578.956.9379 1.6195.9379 1.0347 0 1.8762-.8419 1.8762-1.8767 0-.3312-.0856-.6548-.2485-.9362-.6059-1.048-.9259-2.24-.9259-3.4483 0-3.8055 3.0956-6.9018 6.9017-6.9018 1.0339 0 1.875-.8415 1.875-1.8761 0-1.0342-.8388-1.8758-1.8692-1.8758-5.8769 0-10.6579 4.7794-10.6579 10.6537 0 1.8655.4941 3.7062 1.4291 5.3233z" fill="#fff"/><path d="m20.1214 21.7663c0-1.6393.6977-3.1153 1.8123-4.1478-.0963 1.1669.471 2.3392 1.5527 2.9636.4835.2797 1.0209.4212 1.5594.4212.961-.0006 1.9336.2396 2.8246.754 1.4202.8201 2.3496 2.1623 2.6866 3.644-.9629-.6668-2.2624-.7621-3.3432-.1378-.4845.2793-.8748.6734-1.1445 1.1393-.48.834-1.1743 1.5558-2.0658 2.0703-1.4199.819-3.0468.9531-4.498.5047 1.0578-.5012 1.7898-1.5783 1.7898-2.8271 0-.5582-.1458-1.0945-.4147-1.5606-.4812-.8325-.7592-1.7954-.7592-2.8238z" fill="#fff"/><path d="m32.6497 32.9191c-.3282 0-.6536-.0871-.9412-.2535-.896-.5174-1.2047-1.6662-.6869-2.5617 1.9016-3.296.7688-7.525-2.5266-9.4281-1.0443-.6027-2.2349-.9215-3.4434-.9215-.3308 0-.6539-.0875-.9419-.2535-.8953-.5175-1.2026-1.6673-.6858-2.5631.3311-.574.9528-.9317 1.6219-.9331 1.8704 0 3.7097.4924 5.3242 1.4244 2.463 1.4222 4.2256 3.7202 4.9622 6.4709.7364 2.7499.3582 5.6216-1.0647 8.0859-.332.5757-.9529.9333-1.6178.9333z" fill="#fff"/><path d="m11.9477 28.8986c1.897 3.2879 5.4384 5.3307 9.2413 5.3307 1.8586 0 3.696-.4938 5.3142-1.428 1.6157-.933 2.9621-2.2812 3.8942-3.8983.3337-.5789.3354-1.2964.0033-1.8715-.4976-.8616-1.6944-1.1893-2.5623-.6865-.2868.165-.5241.4008-.6873.6821-.6047 1.0495-1.4768 1.9234-2.5238 2.5273-1.0487.6052-2.2403.9254-3.4442.9254-2.4609 0-4.7536-1.3225-5.9837-3.4518-.4959-.861-1.6921-1.1873-2.5619-.6851-.8955.5166-1.2055 1.6633-.6898 2.5557z" fill="#fff"/><g fill="#212121"><path clip-rule="evenodd" d="m126.857 22.3c-1.427 0-2.72-.3267-3.88-.98-1.16-.6534-2.073-1.5334-2.74-2.64-.653-1.12-.98-2.3467-.98-3.68 0-1.3334.327-2.56.98-3.68.667-1.12 1.58-2.00005 2.74-2.64005 1.16-.65333 2.453-.98 3.88-.98s2.713.32667 3.86.98c1.16.64 2.073 1.52005 2.74 2.64005s1 2.3466 1 3.68c0 1.3333-.333 2.56-1 3.68-.667 1.1066-1.58 1.9866-2.74 2.64-1.16.6533-2.447.98-3.86.98zm0-2.76c.84 0 1.607-.2 2.3-.6s1.24-.9467 1.64-1.64c.4-.6934.6-1.46.6-2.3s-.2-1.6067-.6-2.3c-.4-.6934-.947-1.24-1.64-1.64-.693-.4134-1.46-.62-2.3-.62s-1.613.2-2.32.6c-.693.4-1.24.9533-1.64 1.66-.4.6933-.6 1.46-.6 2.3s.2 1.6066.6 2.3c.413.6933.967 1.24 1.66 1.64s1.46.6 2.3.6z" fill-rule="evenodd"/><path clip-rule="evenodd" d="m138.61 21.9999h3.14l1.16-3.16h5.54l1.18 3.16h3.18l-5.42-13.99996h-3.34zm5.18-5.7 1.86-5.24h.06l1.86 5.24z" fill-rule="evenodd"/><path clip-rule="evenodd" d="m189.264 22.1999c-.787 0-1.52-.2133-2.2-.64-.667-.44-1.2-1.04-1.6-1.8-.4-.7733-.6-1.6466-.6-2.62 0-.9733.2-1.84.6-2.6.4-.7733.933-1.3733 1.6-1.8.68-.4266 1.413-.64 2.2-.64.733 0 1.373.1667 1.92.5.547.32.94.68 1.18 1.08h.06v-5.67996h2.7v13.99996h-2.7v-1.38h-.06c-.24.4-.633.7667-1.18 1.1-.547.32-1.187.48-1.92.48zm.76-2.5c.427 0 .82-.1133 1.18-.34.373-.2266.667-.5333.88-.92.227-.3866.34-.82.34-1.3 0-.4666-.113-.8933-.34-1.28-.213-.3866-.507-.6933-.88-.92-.36-.2266-.753-.34-1.18-.34s-.827.1134-1.2.34c-.36.2267-.653.5334-.88.92-.213.3867-.32.8134-.32 1.28 0 .48.107.9134.32 1.3.227.3867.52.6934.88.92.373.2267.773.34 1.2.34z" fill-rule="evenodd"/><path d="m178.503 21.9999v-9.7h2.7v1.2h.06c.24-.36.6-.68 1.08-.96.493-.2933 1.047-.44 1.66-.44h.46v2.9c-.32-.1066-.62-.16-.9-.16-.693 0-1.26.24-1.7.72-.44.4667-.66 1.0934-.66 1.88v4.56z"/><path clip-rule="evenodd" d="m174.439 12.6199c-.64-.3466-1.373-.52-2.2-.52-.853 0-1.62.1867-2.3.56-.667.36-1.213.7934-1.64 1.3l1.54 1.48c.68-.76 1.433-1.14 2.26-1.14.48 0 .873.14 1.18.42.32.2667.493.5934.52.98l-3.06.58c-.96.1867-1.7.5467-2.22 1.08-.52.5334-.78 1.2134-.78 2.04 0 .4934.14.96.42 1.4.28.4267.66.7667 1.14 1.02.493.2534 1.047.38 1.66.38.667 0 1.26-.16 1.78-.48s.9-.6733 1.14-1.06h.06v1.34h2.56v-6.1c0-.6933-.18-1.3266-.54-1.9-.36-.5866-.867-1.0466-1.52-1.38zm-1.24 6.8c-.387.4134-.873.62-1.46.62-.387 0-.693-.0933-.92-.28-.213-.2-.32-.4533-.32-.76 0-.2533.107-.48.32-.68.213-.2133.507-.3533.88-.42l2.1-.42v.32c0 .6667-.2 1.2067-.6 1.62z" fill-rule="evenodd"/><path d="m157.949 21.9999h-2.32l-3.4-9.7h2.88l1.84 5.82h.06l1.92-5.82h2.1l1.92 5.82h.06l1.84-5.82h2.78l-3.4 9.7h-2.32l-1.94-5.94h-.06z"/><path d="m105.603 21.9999h3.42l3.22-5.14h.06l3.22 5.14h3.48l-4.74-7.34 4.34-6.65996h-3.42l-2.82 4.51996h-.06l-2.8-4.51996h-3.5l4.36 6.71996z"/><path clip-rule="evenodd" d="m94.4338 21.9999h-3.14l5.44-13.99996h3.3402l5.42 13.99996h-3.18l-1.18-3.16h-5.5402zm3.9-10.94-1.86 5.24h3.7802l-1.8602-5.24z" fill-rule="evenodd"/><path d="m74.8 21.9999h3v-9.22h.08l4.42 5.62 4.42-5.62h.08v9.22h3v-13.99996h-2.66l-4.78 6.07996h-.04l-4.78-6.07996h-2.74z"/><path d="m120.649 39.9999h-1.088v-7.68h1.088v1.2h.016c.203-.352.528-.6666.976-.944.459-.2773.976-.416 1.552-.416h.352v1.12c-.149-.0213-.299-.032-.448-.032-.448 0-.859.112-1.232.336s-.672.5334-.896.928c-.213.3947-.32.8374-.32 1.328z"/><path clip-rule="evenodd" d="m112.588 39.6319c.586.352 1.226.528 1.92.528.704 0 1.317-.144 1.84-.432.522-.2986.954-.6613 1.296-1.088l-.752-.688c-.683.768-1.467 1.152-2.352 1.152-.48 0-.923-.112-1.328-.336-.395-.224-.72-.528-.976-.912s-.411-.8106-.464-1.28h6.24c.021-.1706.032-.3413.032-.512 0-.7466-.16-1.4186-.48-2.016-.32-.5973-.758-1.0613-1.312-1.392-.544-.3306-1.152-.496-1.824-.496-.683 0-1.312.176-1.888.528s-1.035.832-1.376 1.44c-.342.608-.512 1.2854-.512 2.032 0 .736.176 1.408.528 2.016s.821 1.0934 1.408 1.456zm3.536-5.776c.448.4374.72 1.0294.816 1.776h-5.184c.053-.448.202-.8586.448-1.232.256-.3733.576-.6666.96-.88.394-.224.816-.336 1.264-.336.682 0 1.248.224 1.696.672z" fill-rule="evenodd"/><path d="m102.423 39.9999v-7.68h1.088v1.232h.016c.203-.3626.528-.6826.976-.96.459-.288.971-.432 1.536-.432.587 0 1.115.1387 1.584.416.47.2774.838.6667 1.104 1.168.267.5014.4 1.0774.4 1.728v4.528h-1.088v-4.528c0-.672-.202-1.216-.608-1.632-.394-.416-.901-.624-1.52-.624-.448 0-.853.112-1.216.336-.362.2134-.65.512-.864.896-.213.384-.32.816-.32 1.296v4.256z"/><path d="m93.6671 32.3199v7.68h1.088v-4.256c0-.48.1067-.912.32-1.296.2134-.384.5014-.6826.864-.896.3627-.224.768-.336 1.216-.336.6187 0 1.1254.208 1.52.624.4054.416.608.96.608 1.632v4.528h1.0879v-4.528c0-.6506-.133-1.2266-.3999-1.728-.2666-.5013-.6346-.8906-1.104-1.168-.4693-.2773-.9973-.416-1.584-.416-.5653 0-1.0773.144-1.536.432-.448.2774-.7733.5974-.976.96h-.016v-1.232z"/><path d="m91.4695 40h-1.088v-7.68h1.088z"/><path d="m90.9255 30.6399c-.192 0-.3626-.0693-.512-.208-.1386-.1386-.208-.3093-.208-.5119 0-.2027.0694-.3734.208-.512.1494-.1387.32-.208.512-.208.2027 0 .3734.0693.512.208.1494.1386.224.3093.224.512 0 .2026-.0746.3733-.224.5119-.1386.1387-.3093.208-.512.208z"/><path d="m77.032 39.9999h1.2l2.96-9.28h.032l2.976 9.28h1.184l3.632-11.2h-1.232l-2.96 9.312h-.032l-3.008-9.312h-1.12l-2.976 9.312h-.032l-2.976-9.312h-1.264z"/></g></svg>