<svg fill="none" height="24" viewBox="0 0 227 24" width="227" xmlns="http://www.w3.org/2000/svg" xmlns:xlink="http://www.w3.org/1999/xlink"><linearGradient id="a" gradientUnits="userSpaceOnUse" x1="12" x2="12" y1="0" y2="24"><stop offset="0" stop-color="#ffb300"/><stop offset="1" stop-color="#ff8f00"/></linearGradient><circle cx="12" cy="12" fill="url(#a)" r="12"/><g fill="#fff"><path d="m8.27586 13.5446c.16766.289.47799.469.80972.469.51737 0 .93812-.421.93812-.9384 0-.1655-.0428-.3274-.12425-.4681-.30295-.524-.46294-1.12-.46294-1.7241 0-1.90278 1.54779-3.45093 3.45079-3.45093.517 0 .9376-.42074.9376-.93805 0-.5171-.4195-.93787-.9347-.93787-2.93839 0-5.3289 2.38967-5.3289 5.32685 0 .9327.24705 1.8531.71456 2.6616z"/><path d="m10.0607 10.883c0-.8196.3488-1.55764.9061-2.07387-.0481.58342.2355 1.16962.7764 1.48177.2417.1399.5104.2106.7797.2106.4805-.0003.9668.1198 1.4123.377.7101.4101 1.1748 1.0812 1.3433 1.822-.4814-.3334-1.1312-.381-1.6716-.0688-.2423.1396-.4374.3366-.5722.5696-.24.417-.5872.7779-1.0329 1.0351-.71.4095-1.5235.4766-2.24903.2524.52893-.2506.89493-.7892.89493-1.4136 0-.2791-.073-.5472-.2074-.7803-.2406-.4162-.3796-.8977-.3796-1.4119z"/><path d="m16.3249 16.4594c-.1642 0-.3269-.0435-.4706-.1267-.448-.2587-.6024-.8331-.3435-1.2809.9508-1.648.3844-3.7625-1.2633-4.714-.5222-.3014-1.1175-.46075-1.7217-.46075-.1654 0-.327-.04379-.4709-.12676-.4477-.25878-.6013-.83366-.343-1.28157.1656-.28698.4765-.46583.811-.46656.9352 0 1.8549.24622 2.6621.7122 1.2315.71112 2.1128 1.86014 2.4811 3.23544.3682 1.375.1791 2.8108-.5323 4.043-.1661.2878-.4765.4666-.8089.4666z"/><path d="m5.97383 14.4492c.94853 1.6439 2.71924 2.6654 4.62067 2.6654.9293 0 1.848-.247 2.6571-.7141.8078-.4664 1.481-1.1406 1.9471-1.9491.1669-.2895.1677-.6482.0017-.9358-.2489-.4308-.8473-.5946-1.2812-.3432-.1434.0825-.262.2004-.3437.341-.3023.5248-.7383.9618-1.2618 1.2637-.5244.3026-1.1202.4627-1.7221.4627-1.23052 0-2.37684-.6613-2.99188-1.7259-.24798-.4305-.84607-.5937-1.28096-.3426-.44777.2583-.60278.8317-.34493 1.2779z"/><path d="m30 0h1v24h-1z"/><path d="m41.8 18h-3v-14.00005h2.74l4.78 6.08005h.04l4.78-6.08005h2.66v14.00005h-3v-9.22005h-.08l-4.42 5.62005-4.42-5.62005h-.08z"/><path d="m58.4337 18h-3.14l5.44-14.00005h3.34l5.42 14.00005h-3.18l-1.18-3.16h-5.54zm3.9-10.94005-1.86 5.24005h3.78l-1.86-5.24005z"/><path d="m73.0231 18h-3.42l4.76-7.28-4.36-6.72005h3.5l2.8 4.52h.06l2.82-4.52h3.42l-4.34 6.66005 4.74 7.34h-3.48l-3.22-5.14h-.06z"/><path d="m90.8569 18.3c-1.4267 0-2.72-.3267-3.88-.98-1.16-.6534-2.0734-1.5334-2.74-2.64-.6534-1.12-.98-2.3467-.98-3.68 0-1.33338.3266-2.56005.98-3.68005.6666-1.12 1.58-2 2.74-2.64 1.16-.65333 2.4533-.98 3.88-.98 1.4266 0 2.7133.32667 3.86.98 1.16.64 2.0733 1.52 2.74 2.64.6666 1.12 1 2.34667 1 3.68005 0 1.3333-.3334 2.56-1 3.68-.6667 1.1066-1.58 1.9866-2.74 2.64-1.16.6533-2.4467.98-3.86.98zm0-2.76c.84 0 1.6066-.2 2.3-.6.6933-.4 1.24-.9467 1.64-1.64.4-.6934.6-1.46.6-2.3s-.2-1.60672-.6-2.30005-.9467-1.24-1.64-1.64c-.6934-.41333-1.46-.62-2.3-.62s-1.6134.2-2.32.6c-.6934.4-1.24.95333-1.64 1.66-.4.69333-.6 1.46005-.6 2.30005s.2 1.6066.6 2.3c.4133.6933.9666 1.24 1.66 1.64.6933.4 1.46.6 2.3.6z"/><path d="m105.75 18h-3.14l5.44-14.00005h3.34l5.42 14.00005h-3.18l-1.18-3.16h-5.54zm3.9-10.94005-1.86 5.24005h3.78l-1.86-5.24005z"/><path d="m121.949 18h-2.32l-3.4-9.70005h2.88l1.84 5.82005h.06l1.92-5.82005h2.1l1.92 5.82005h.06l1.84-5.82005h2.78l-3.4 9.70005h-2.32l-1.94-5.94h-.06z"/><path d="m136.239 8.09995c.827 0 1.56.17333 2.2.52.653.33333 1.16.79333 1.52 1.38.36.57335.54 1.20665.54 1.90005v6.1h-2.56v-1.34h-.06c-.24.3866-.62.74-1.14 1.06s-1.113.48-1.78.48c-.613 0-1.167-.1267-1.66-.38-.48-.2534-.86-.5934-1.14-1.02-.28-.44-.42-.9067-.42-1.4 0-.8267.26-1.5067.78-2.04.52-.5334 1.26-.8934 2.22-1.08l3.06-.58c-.027-.3867-.2-.7134-.52-.98-.307-.28-.7-.42-1.18-.42-.827 0-1.58.38-2.26 1.14l-1.54-1.48005c.427-.50667.973-.94 1.64-1.3.68-.37333 1.447-.56 2.3-.56zm-.5 7.94005c.587 0 1.073-.2067 1.46-.62.4-.4134.6-.9534.6-1.62v-.32l-2.1.42c-.373.0666-.667.2066-.88.42-.213.2-.32.4266-.32.68 0 .3066.107.56.32.76.227.1866.533.28.92.28z"/><path d="m142.503 18v-9.70005h2.7v1.2h.06c.24-.36.6-.68 1.08-.96.493-.29333 1.047-.44 1.66-.44h.46v2.90005c-.32-.1067-.62-.16-.9-.16-.693 0-1.26.24-1.7.72-.44.4666-.66 1.0933-.66 1.88v4.56z"/><path d="m153.264 18.2c-.787 0-1.52-.2134-2.2-.64-.667-.44-1.2-1.04-1.6-1.8-.4-.7734-.6-1.6467-.6-2.62 0-.9734.2-1.84.6-2.6.4-.77338.933-1.37338 1.6-1.80005.68-.42667 1.413-.64 2.2-.64.733 0 1.373.16667 1.92.5.547.32.94.68 1.18 1.08h.06v-5.68h2.7v14.00005h-2.7v-1.38h-.06c-.24.4-.633.7666-1.18 1.1-.547.32-1.187.48-1.92.48zm.76-2.5c.427 0 .82-.1134 1.18-.34.373-.2267.667-.5334.88-.92.227-.3867.34-.82.34-1.3 0-.4667-.113-.8934-.34-1.28-.213-.3867-.507-.6934-.88-.92-.36-.2267-.753-.34-1.18-.34s-.827.1133-1.2.34c-.36.2266-.653.5333-.88.92-.213.3866-.32.8133-.32 1.28 0 .48.107.9133.32 1.3.227.3866.52.6933.88.92.373.2266.773.34 1.2.34z"/><path d="m170.071 18h-1.5l-4.52-14.00005h1.58l3.72 11.64005h.04l3.72-11.64005h1.4l3.76 11.64005h.04l3.7-11.64005h1.54l-4.54 14.00005h-1.48l-3.72-11.60005h-.04z"/><path d="m186.618 18h-1.36v-9.60005h1.36zm-.68-11.70005c-.24 0-.453-.08667-.64-.26-.173-.17333-.26-.38667-.26-.64s.087-.46667.26-.64c.187-.17333.4-.26.64-.26.253 0 .467.08667.64.26.187.17333.28.38667.28.64s-.093.46667-.28.64c-.173.17333-.387.26-.64.26z"/><path d="m189.365 18v-9.60005h1.36v1.54h.02c.253-.45333.66-.85333 1.22-1.2.573-.36 1.213-.54 1.92-.54.733 0 1.393.17334 1.98.52.587.34667 1.047.83333 1.38 1.46005.333.6266.5 1.3466.5 2.16v5.66h-1.36v-5.66c0-.84-.253-1.52-.76-2.04-.493-.52005-1.127-.78005-1.9-.78005-.56 0-1.067.14-1.52.42-.453.26665-.813.64005-1.08 1.12005s-.4 1.02-.4 1.62v5.32z"/><path d="m200.31 18v-9.60005h1.36v1.54h.02c.254-.45333.66-.85333 1.22-1.2.574-.36 1.214-.54 1.92-.54.734 0 1.394.17334 1.98.52.587.34667 1.047.83333 1.38 1.46005.334.6266.5 1.3466.5 2.16v5.66h-1.36v-5.66c0-.84-.253-1.52-.76-2.04-.493-.52005-1.126-.78005-1.9-.78005-.56 0-1.066.14-1.52.42-.453.26665-.813.64005-1.08 1.12005-.266.48-.4 1.02-.4 1.62v5.32z"/><path d="m215.416 18.2c-.867 0-1.667-.22-2.4-.66-.734-.4534-1.32-1.06-1.76-1.82s-.66-1.6-.66-2.52c0-.9334.213-1.78.64-2.54.426-.76005 1-1.36005 1.72-1.80005s1.506-.66 2.36-.66c.84 0 1.6.20667 2.28.62.693.41333 1.24.99333 1.64 1.74005.4.7466.6 1.5866.6 2.52 0 .2133-.014.4266-.04.64h-7.8c.066.5866.26 1.12.58 1.6s.726.86 1.22 1.14c.506.28 1.06.42 1.66.42 1.106 0 2.086-.48 2.94-1.44l.94.86c-.427.5333-.967.9866-1.62 1.36-.654.36-1.42.54-2.3.54zm3.04-5.66c-.12-.9334-.46-1.6734-1.02-2.22-.56-.56005-1.267-.84005-2.12-.84005-.56 0-1.087.14-1.58.42-.48.26665-.88.63335-1.2 1.10005-.307.4666-.494.98-.56 1.54z"/><path d="m221.732 18v-9.60005h1.36v1.5h.02c.254-.44.66-.83333 1.22-1.18.574-.34666 1.22-.52 1.94-.52h.44v1.4c-.186-.02666-.373-.04-.56-.04-.56 0-1.073.14-1.54.42-.466.28005-.84.66665-1.12 1.16005-.266.4933-.4 1.0466-.4 1.66v5.2z"/></g></svg>