<svg fill="none" height="48" viewBox="0 0 196 48" width="196" xmlns="http://www.w3.org/2000/svg"><g fill="#fff"><path clip-rule="evenodd" d="m24 48c13.2548 0 24-10.7452 24-24s-10.7452-24-24-24-24 10.7452-24 24 10.7452 24 24 24zm-5.8288-19.9727c-.6635 0-1.2842-.3598-1.6195-.9379-.935-1.6171-1.4291-3.4578-1.4291-5.3232 0-5.8744 4.781-10.6537 10.6579-10.6537 1.0304 0 1.8692.8415 1.8692 1.8757 0 1.0346-.8411 1.8761-1.875 1.8761-3.8061 0-6.9017 3.0963-6.9017 6.9019 0 1.2082.32 2.4002.9259 3.4482.1629.2814.2485.6051.2485.9363 0 1.0347-.8415 1.8766-1.8762 1.8766zm3.7625-10.4089c-1.1146 1.0325-1.8123 2.5085-1.8123 4.1478 0 1.0285.278 1.9913.7592 2.8239.2689.466.4147 1.0023.4147 1.5606 0 1.2487-.732 2.3259-1.7898 2.827 1.4512.4484 3.0781.3144 4.498-.5047.8915-.5144 1.5858-1.2362 2.0658-2.0703.2697-.4658.66-.86 1.1445-1.1392 1.0808-.6244 2.3803-.529 3.3432.1378-.337-1.4817-1.2664-2.824-2.6866-3.6441-.891-.5144-1.8636-.7546-2.8246-.754-.5385 0-1.0759-.1415-1.5594-.4212-1.0817-.6243-1.649-1.7967-1.5527-2.9636zm10.716 15.3006c-.3282 0-.6536-.087-.9412-.2535-.896-.5173-1.2047-1.6661-.6869-2.5617 1.9016-3.2959.7688-7.525-2.5266-9.428-1.0443-.6028-2.2349-.9215-3.4434-.9215-.3308 0-.6539-.0876-.9419-.2535-.8953-.5176-1.2026-1.6674-.6858-2.5632.3311-.5739.9528-.9316 1.6219-.9331 1.8704 0 3.7097.4924 5.3242 1.4244 2.463 1.4222 4.2256 3.7202 4.9622 6.4709.7364 2.75.3582 5.6216-1.0647 8.0859-.332.5757-.9529.9333-1.6178.9333zm-11.4607 1.3103c-3.8029 0-7.3443-2.0429-9.2413-5.3308-.5157-.8924-.2057-2.0391.6898-2.5556.8698-.5022 2.066-.176 2.5619.685 1.2301 2.1293 3.5228 3.4518 5.9837 3.4518 1.2039 0 2.3955-.3202 3.4442-.9254 1.047-.6038 1.9191-1.4777 2.5238-2.5272.1632-.2813.4005-.5172.6873-.6821.8679-.5029 2.0647-.1752 2.5623.6864.3321.5752.3304 1.2926-.0033 1.8715-.9321 1.6171-2.2785 2.9654-3.8942 3.8983-1.6182.9342-3.4556 1.4281-5.3142 1.4281z" fill-rule="evenodd"/><path d="m60 0h1v48h-1z"/><g clip-rule="evenodd" fill-rule="evenodd"><path d="m122.977 21.32c1.16.6533 2.453.98 3.88.98 1.413 0 2.7-.3267 3.86-.98s2.073-1.5333 2.74-2.64c.667-1.12 1-2.3467 1-3.68s-.333-2.56-1-3.68-1.58-1.99999-2.74-2.63999c-1.147-.65333-2.433-.98-3.86-.98s-2.72.32667-3.88.98c-1.16.64-2.073 1.51999-2.74 2.63999-.653 1.12-.98 2.3467-.98 3.68s.327 2.56.98 3.68c.667 1.1067 1.58 1.9867 2.74 2.64zm6.18-2.38c-.693.4-1.46.6-2.3.6s-1.607-.2-2.3-.6-1.247-.9467-1.66-1.64c-.4-.6933-.6-1.46-.6-2.3s.2-1.6067.6-2.3c.4-.7067.947-1.26 1.64-1.66.707-.4 1.48-.6 2.32-.6s1.607.2067 2.3.62c.693.4 1.24.9467 1.64 1.64s.6 1.46.6 2.3-.2 1.6067-.6 2.3-.947 1.24-1.64 1.64z"/><path d="m141.75 22h-3.14l5.44-14h3.34l5.42 14h-3.18l-1.18-3.16h-5.54zm3.9-10.94-1.86 5.24h3.78l-1.86-5.24z"/><path d="m189.264 22.2c-.787 0-1.52-.2133-2.2-.64-.667-.44-1.2-1.04-1.6-1.8-.4-.7733-.6-1.6467-.6-2.62s.2-1.84.6-2.6c.4-.7733.933-1.3733 1.6-1.8.68-.4267 1.413-.64 2.2-.64.733 0 1.373.1667 1.92.5.547.32.94.68 1.18 1.08h.06v-5.68h2.7v14h-2.7v-1.38h-.06c-.24.4-.633.7667-1.18 1.1-.547.32-1.187.48-1.92.48zm.76-2.5c.427 0 .82-.1133 1.18-.34.373-.2267.667-.5333.88-.92.227-.3867.34-.82.34-1.3 0-.4667-.113-.8933-.34-1.28-.213-.3867-.507-.6933-.88-.92-.36-.2267-.753-.34-1.18-.34s-.827.1133-1.2.34c-.36.2267-.653.5333-.88.92-.213.3867-.32.8133-.32 1.28 0 .48.107.9133.32 1.3.227.3867.52.6933.88.92.373.2267.773.34 1.2.34z"/></g><path d="m178.503 12.3v9.7h2.7v-4.56c0-.7867.22-1.4133.66-1.88.44-.48 1.007-.72 1.7-.72.28 0 .58.0533.9.16v-2.9h-.46c-.613 0-1.167.1467-1.66.44-.48.28-.84.6-1.08.96h-.06v-1.2z"/><path clip-rule="evenodd" d="m174.439 12.62c-.64-.3467-1.373-.52-2.2-.52-.853 0-1.62.1867-2.3.56-.667.36-1.213.7933-1.64 1.3l1.54 1.48c.68-.76 1.433-1.14 2.26-1.14.48 0 .873.14 1.18.42.32.2667.493.5933.52.98l-3.06.58c-.96.1867-1.7.5467-2.22 1.08s-.78 1.2133-.78 2.04c0 .4933.14.96.42 1.4.28.4267.66.7667 1.14 1.02.493.2533 1.047.38 1.66.38.667 0 1.26-.16 1.78-.48s.9-.6733 1.14-1.06h.06v1.34h2.56v-6.1c0-.6933-.18-1.3267-.54-1.9-.36-.5867-.867-1.0467-1.52-1.38zm-1.24 6.8c-.387.4133-.873.62-1.46.62-.387 0-.693-.0933-.92-.28-.213-.2-.32-.4533-.32-.76 0-.2533.107-.48.32-.68.213-.2133.507-.3533.88-.42l2.1-.42v.32c0 .6667-.2 1.2067-.6 1.62z" fill-rule="evenodd"/><path d="m155.629 22h2.32l1.96-5.94h.06l1.94 5.94h2.32l3.4-9.7h-2.78l-1.84 5.82h-.06l-1.92-5.82h-2.1l-1.92 5.82h-.06l-1.84-5.82h-2.88z"/><path d="m105.603 22h3.42l3.22-5.14h.06l3.22 5.14h3.48l-4.74-7.34 4.34-6.66h-3.42l-2.82 4.52h-.06l-2.8-4.52h-3.5l4.36 6.72z"/><path clip-rule="evenodd" d="m91.2938 22h3.14l1.16-3.16h5.5402l1.18 3.16h3.18l-5.42-14h-3.3402zm5.18-5.7 1.86-5.24h.06l1.8602 5.24z" fill-rule="evenodd"/><path d="m74.8 22h3v-9.22h.0801l4.4199 5.62 4.42-5.62h.08v9.22h3v-14h-2.66l-4.78 6.08h-.0399l-4.7801-6.08h-2.74z"/><path d="m119.561 40h1.088v-4.16c0-.4907.107-.9333.32-1.328.224-.3947.523-.704.896-.928s.784-.336 1.232-.336c.149 0 .299.0107.448.032v-1.12h-.352c-.576 0-1.093.1387-1.552.416-.448.2773-.773.592-.976.944h-.016v-1.2h-1.088z"/><path clip-rule="evenodd" d="m112.588 39.632c.586.352 1.226.528 1.92.528.704 0 1.317-.144 1.84-.432.522-.2987.954-.6613 1.296-1.088l-.752-.688c-.683.768-1.467 1.152-2.352 1.152-.48 0-.923-.112-1.328-.336-.395-.224-.72-.528-.976-.912s-.411-.8107-.464-1.28h6.24c.021-.1707.032-.3413.032-.512 0-.7467-.16-1.4187-.48-2.016s-.758-1.0613-1.312-1.392c-.544-.3307-1.152-.496-1.824-.496-.683 0-1.312.176-1.888.528s-1.035.832-1.376 1.44c-.342.608-.512 1.2853-.512 2.032 0 .736.176 1.408.528 2.016s.821 1.0933 1.408 1.456zm3.536-5.776c.448.4373.72 1.0293.816 1.776h-5.184c.053-.448.202-.8587.448-1.232.256-.3733.576-.6667.96-.88.394-.224.816-.336 1.264-.336.682 0 1.248.224 1.696.672z" fill-rule="evenodd"/><path d="m102.423 32.32v7.68h1.088v-4.256c0-.48.107-.912.32-1.296.214-.384.502-.6827.864-.896.363-.224.768-.336 1.216-.336.619 0 1.126.208 1.52.624.406.416.608.96.608 1.632v4.528h1.088v-4.528c0-.6507-.133-1.2267-.4-1.728-.266-.5013-.634-.8907-1.104-1.168-.469-.2773-.997-.416-1.584-.416-.565 0-1.077.144-1.536.432-.448.2773-.773.5973-.976.96h-.016v-1.232z"/><path d="m93.6671 32.32v7.68h1.088v-4.256c0-.48.1067-.912.32-1.296.2134-.384.5014-.6827.864-.896.3627-.224.768-.336 1.216-.336.6187 0 1.1254.208 1.52.624.4054.416.608.96.608 1.632v4.528h1.0879v-4.528c0-.6507-.133-1.2267-.3999-1.728-.2666-.5013-.6346-.8907-1.104-1.168-.4693-.2773-.9973-.416-1.584-.416-.5653 0-1.0773.144-1.536.432-.448.2773-.7733.5973-.976.96h-.016v-1.232z"/><path d="m90.3815 40h1.088v-7.68h-1.088z"/><path d="m90.9255 30.64c-.192 0-.3626-.0693-.512-.208-.1386-.1387-.208-.3093-.208-.512s.0694-.3733.208-.512c.1494-.1387.32-.208.512-.208.2027 0 .3734.0693.512.208.1494.1387.224.3093.224.512s-.0746.3733-.224.512c-.1386.1387-.3093.208-.512.208z"/><path d="m78.232 40h-1.2l-3.616-11.2h1.264l2.976 9.312h.032l2.976-9.312h1.12l3.008 9.312h.032l2.96-9.312h1.232l-3.632 11.2h-1.184l-2.976-9.28h-.032z"/></g></svg>