<svg fill="none" height="16" viewBox="0 0 94 16" width="94" xmlns="http://www.w3.org/2000/svg"><g fill="#fff"><path clip-rule="evenodd" d="m6.16097 15.7449h-1.11334c-2.78328 0-5.04763-2.2646-5.04763-5.0482v-10.6967h2.16431v4.30371c.83595-.58906 1.84219-.90864 2.88332-.90864h1.11334c2.78328 0 5.04763 2.26436 5.04763 5.04776v2.25387c0 2.7836-2.26435 5.0482-5.04763 5.0482zm-1.11334-10.18551c-1.58995 0-2.88332 1.29348-2.88332 2.88344v2.25387c0 1.59 1.29337 2.8837 2.88332 2.8837h1.11334c1.58972 0 2.88332-1.2937 2.88332-2.8837v-2.25387c0-1.58996-1.2936-2.88344-2.88332-2.88344z" fill-rule="evenodd"/><path d="m32.4633 15.723h-.5117c-2.7622 0-5.0097-2.2477-5.0097-5.0103v-10.611808h2.1547v3.351678c1.1.00316 1.813.01641 1.813.01641l.2387.00438v2.14875l-2.0517.00195v5.08864c0 1.5745 1.2807 2.8551 2.855 2.8551h.5117z"/><path d="m43.2408 15.7299h-2.127v-7.2523c0-1.5744-1.2808-2.85525-2.8552-2.85525-1.5741 0-2.8549 1.28085-2.8549 2.85525v7.2454h-2.1549v-15.622108h2.1549v4.263958c.8283-.58152 1.8243-.89721 2.8549-.89721 2.7472 0 4.9822 2.24746 4.9822 5.00996z"/><path d="m26.5505 15.7039h-.4558c-2.754 0-4.9946-2.2408-4.9946-4.995v-2.25513c0-1.62193-1.3194-2.94155-2.9413-2.94155h-1.1137c-1.6218 0-2.9413 1.31962-2.9413 2.94155v2.25513c0 1.6218 1.3195 2.9413 2.9413 2.9413h1.1137c.7848 0 1.5323-.3026 2.1052-.8531l.4804-.4777.1316.3534c.1786.4793.428.9291.7417 1.3373l.1318.1717-.1552.1508c-.9096.8842-2.1297 1.3713-3.4355 1.3713h-1.1137c-2.7542 0-4.9946-2.2408-4.9946-4.995v-2.25513c0-2.75423 2.2404-4.99488 4.9946-4.99488h1.1137c2.754 0 4.9946 2.24065 4.9946 4.99488v2.25513c0 1.6218 1.3195 2.9413 2.9413 2.9413h.4558z"/><path d="m83.982 12.4567c-.3791 0-.7336-.2056-.9253-.5359-.5342-.9238-.8164-1.97553-.8164-3.04122 0-3.35617 2.7314-6.0867 6.0889-6.0867.5887 0 1.068.48076 1.068 1.07165 0 .59112-.4807 1.07188-1.0713 1.07188-2.1745 0-3.9429 1.76901-3.9429 3.94317 0 .69032.1827 1.37132.5289 1.97002.0931.1607.1419.3458.1419.5349 0 .5911-.4807 1.0722-1.0718 1.0722z"/><path d="m86.1314 6.50984c-.6367.58991-1.0353 1.43315-1.0353 2.36974 0 .58761.1588 1.13762.4337 1.61332.1537.2663.237.5726.237.8916 0 .7134-.4182 1.3289-1.0226 1.6151.829.2563 1.7586.1797 2.5699-.2883.5092-.2939.9059-.7063 1.1801-1.1828.1541-.2662.377-.4913.6539-.6509.6175-.3566 1.3599-.3022 1.91.0788-.1925-.8465-.7236-1.61344-1.5349-2.08192-.5091-.29393-1.0647-.43116-1.6138-.4308-.3076 0-.6145-.08083-.8908-.24068-.618-.35665-.9421-1.02642-.8872-1.69316z"/><path d="m85.706 16c-2.1726 0-4.1958-1.1672-5.2796-3.0456-.2946-.5098-.1175-1.165.3941-1.46.4969-.287 1.1803-.1007 1.4637.3913.7027 1.2165 2.0126 1.9721 3.4185 1.9721.6878 0 1.3686-.1829 1.9676-.5288.5982-.3449 1.0965-.8442 1.442-1.4438.0932-.1607.2288-.2954.3926-.3897.4958-.2873 1.1796-.1001 1.4639.3922.1897.3286.1888.7385-.0018 1.0693-.5326.9238-1.3018 1.6941-2.2249 2.2271-.9245.5338-1.9742.8159-3.0361.8159z"/><path d="m92.2537 15.2515c-.1875 0-.3735-.0498-.5377-.1449-.5119-.2955-.6883-.9519-.3925-1.4636 1.0865-1.883.4392-4.29919-1.4435-5.38639-.5966-.34437-1.2768-.52647-1.9672-.52647-.189 0-.3736-.05008-.5381-.14489-.5115-.29563-.6872-.95252-.3919-1.46427.1893-.32796.5445-.5323.9266-.53315 1.0686 0 2.1195.28128 3.0419.81382 1.4071.81249 2.4141 2.1253 2.8349 3.69695.4207 1.5711.2047 3.2117-.6083 4.6196-.1897.3289-.5443.5333-.9242.5333z"/><path d="m58.4162 15.7039h-.4563c-2.7543 0-4.9946-2.2408-4.9946-4.995v-2.25513c0-1.62193-1.3192-2.94154-2.941-2.94154h-1.1138c-1.6221 0-2.9415 1.31961-2.9415 2.94154v2.25513c0 1.6218 1.3194 2.9413 2.9415 2.9413h1.1138c.7845 0 1.5322-.3026 2.105-.8531l.4801-.4777.1318.3534c.1792.48.4287.9301.7418 1.3373l.1318.1717-.1549.1508c-.91.8842-2.13 1.3713-3.4356 1.3713h-1.1138c-2.7544 0-4.9948-2.2408-4.9948-4.995v-2.25513c0-2.75423 2.2404-4.99488 4.9948-4.99488h1.1138c2.7542 0 4.9946 2.24065 4.9946 4.99488v2.25513c0 1.6218 1.3193 2.9413 2.941 2.9413h.4563z"/><path d="m59.4734 15.7039h-.4564v-2.0537h.4564c1.6215 0 2.9406-1.3195 2.9406-2.9413v-2.25513c0-2.75423 2.2409-4.99488 4.9952-4.99488h.4558v2.05334h-.4558c-1.622 0-2.9413 1.31961-2.9413 2.94154v2.25513c0 2.7542-2.2406 4.995-4.9945 4.995z"/><path d="m73.5722 15.7039h-.0022c-2.754-.0023-4.9946-2.243-4.9946-4.995v-7.24989h2.0538v7.24989c0 1.6218 1.3191 2.9413 2.9406 2.9413 1.614-.0055 2.928-1.3249 2.928-2.9413v-7.24989h2.054v7.24989c0 2.6909-2.1882 4.9312-4.878 4.993z"/></g></svg>