<svg fill="none" height="48" viewBox="0 0 113 48" width="113" xmlns="http://www.w3.org/2000/svg"><g fill="#fff"><path clip-rule="evenodd" d="m21.5713 5.33214s-.0252-.19764-.0168-.26811c.0023-.01989.0437-.06766.1091-.14298.1662-.19155.487-.56131.712-1.10384.3126-.75585.5555-1.9322.3749-2.54729-.1778-.614916-1.0549-1.094435-2.0279-1.2382367-.9762-.1411193-2.5425.2312637-2.6943.2933267-.1494.062064-.0168.598102.0456.67698.0617.08192-.3554.67698-.562.95331-.2055.27652-.1806.39242-.1518.52477.0252.1354 0 .20587-.2259.40333-.0563.04911-.1188.09604-.1797.14175-.1806.13557-.3468.26041-.2941.39965.0733.18637.2878.32194.2878.32194s-.1158.29333-.1895.39206c-.0704.09605.1895.19478.1895.19478s-.2145.10713-.2059.23949c.0029.04749.0158.09457.029.14297.0247.08992.0506.18439.0157.29451l-.0066.02072c-.0554.17349-.1523.47724.159.65608.1584.09183.3472.16248.5215.22772.1792.06705.3431.1284.4432.20118.1468.10486.2391.28476.3396.48041.0345.06733.07.13652.109.20516.1524.26757.3753.41763.3753.41763s-.5196.44554-.7532.5609c-.2311.1159-.2145.37542-.1858.47111.0096.03765-.0556.13454-.1544.28134-.1607.23886-.4103.60986-.5711 1.0728-.039.11277-.0948.26158-.1616.4397-.1108.2952-.2518.6709-.3962 1.0963-.0587-.1459-.1214-.3098-.1869-.4923-.1977-.5518-.1692-1.33943-.1426-2.07367.0215-.59473.0418-1.15447-.0605-1.52554-.2255-.8324-.9309-1.49793-1.8617-1.86763-.9306-.36666-2.0508-.20014-2.5755.19173-.5246.39242-.4429.9027-.4429.9027s-.1554.22554-.2513.4289c-.057.12263-.0525.23269-.0489.32162.0023.05608.0043.10376-.0098.14091-.0343.09569-.2033.28528-.3441.39223-.036.02688-.0795.05655-.1253.08785-.1373.09369-.2958.20191-.3404.29294-.0592.11859.203.31873.203.31873v.03648c0 .02459-.0327.06453-.0723.11282-.0195.02372-.0406.0495-.0603.07642-.0592.0846.0478.31049.0478.31049s-.107.01074-.144.08138c-.0126.02761-.0072.07003-.0006.12229.011.08658.0254.20017-.0328.31806-.09589.19174-.14365.45108-.0367.59471.1071.14108.584.28528.584.28528s.1381.6966-.1129.8492c-.2482.1549-1.02108.3017-1.02108.3017s-.93078.1328-1.38221 1.1424c-.24119.5364-.34404 1.3473-.43775 2.0862-.08274.6523-.15837 1.2485-.31578 1.5502-.33286.6401-.70184 1.5678-.67948 2.0307.02539.4627.32176 1.4499.77535 1.6391.4543.189 1.70416-.604 1.70416-.604s-.01127 1.2497 0 2.1186c.011.8454-.48074 2.1777-.69863 2.768l-.01538.0416c-.16884.4683.24003.4515.24003.4515s-.27329.5949-.41763 1.9604c-.11256 1.0723-.06418 2.1587-.03256 2.8686.00872.196.01617.3632.01861.4936.01395.6067.34716 3.1855.44303 3.6247.02222.102.06286.2407.11117.4057.16049.548.40573 1.3855.34277 2.1248-.0544.6206.14328 1.3669.31373 2.0103.09459.3572.18079.6826.21086.9373l.02962.2558c.10038.8636.30146 2.5936.28088 3.0958-.02558.5586-.20301 1.8759-.41746 2.4117-.12535.3117-.0964.6245-.07671.8372.014.1512.02332.2519-.03078.2657-.09446.0263-.52848.0397-.86955.0502-.13671.0042-.2585.0079-.33756.0119-.27401.0114-.82114.0822-.85727.5809-.0372.4997.63191.9506 1.24056 1.0583.60955.1068 1.49276.0953 1.76626.0109.1964-.0585.2881.0163.4211.1249.0523.0427.111.0906.185.1377.2654.1665 1.2077.1523 1.7324.1184.5246-.0369.7981-.2737.7981-.2737l.2876-.0229c.1902-.0166.3227-.1063.4291-.1783.0532-.036.0998-.0676.144-.0835.0647-.0241.1922.1006.3349.2402.1429.1398.3011.2944.4268.3298.251.0701 1.5767.0223 1.9345-.1774.3554-.2034.1079-.9516.1079-.9516s.2475-.0105.3212-.0586c.0263-.018.0345-.2294.0212-.5366.5719.1749 1.9216.1709 2.5261.0538.193-.0372.395-.0879.5844-.1355.4281-.1075.7921-.1989.8429-.082.0707.1696 1.6639.0258 1.7632-.1914.0955-.2171-.147-1.0101-.147-1.0101s.2908-.2907.2652-.4089c-.0057-.0305-.0253-.0761-.0499-.1333-.0733-.1708-.1912-.4453-.1193-.7327.0457-.1788.0183-.5319-.0148-.9598-.0385-.4972-.0848-1.0953-.0335-1.6382.0548-.5573.1153-1.4511.179-2.3912.0517-.7636.1055-1.5578.16-2.2267.1216-1.4892-.1691-4.2793-.4093-4.9783-.2108-.6068-.2746-1.7054-.3043-2.2178-.0044-.0761-.0081-.1392-.0114-.1859-.0094-.1523.0363-.4883.0907-.8874.0744-.547.1649-1.2124.1517-1.6855l-.0035-.111c-.0236-.7508-.0376-1.1966.0994-1.3553.147-.1699.2176-1.1087.2176-1.1087s2.8013-.6008 2.8489-1.0325c.0483-.4345-.313-3.4389-.6519-5.388-.3384-1.9461-.8205-5.6501-.9165-6.6628-.0959-1.00981-.4119-2.5471-1.1338-3.43852-.7249-.88839-1.1368-1.48971-1.3066-1.78-.1692-.2876-.578-.22554-.578-.22554zm-5.6811 27.84446c.0312-.365.2456-1.2424.5001-2.0592.04.7532.0788 1.3716.1096 1.5936.073.5275.1687 1.0326.6289 1.3933.2898.2294.2594.4097.205.7322-.0313.1858-.0706.4188-.0612.7355.025.8657-.096 3.489-.2427 4.234l-.0031.016c-.0805-.9712-.1961-2.0476-.3496-2.355-.2256-.4539-.4345-.9395-.6856-1.7261-.0843-.266-.1813-.4967-.254-.6695-.0685-.1628-.1153-.2742-.1096-.3153.0024-.0178.0141-.0767.0313-.1637.0614-.311.1935-.9797.2309-1.4158zm1.221 7.7656c-.0084-.1179-.0176-.2486-.0278-.3882.0481.1139.1094.2059.1644.2886.0503.0756.0954.1434.1205.2129.045.1243-.0642.4551-.1775.7986-.0195.059-.039.1183-.058.177.0056-.354.007-.6956-.0154-1.0014zm.0382 2.7211c-.0177-.2111-.0251-.4314-.0271-.6553.1307.2568.2712.5497.2712.5497s-.1037.0455-.2441.1056z" fill-rule="evenodd"/><path clip-rule="evenodd" d="m.239775 47.6221c-.050438 0-.23144222-.0084-.23949083-.1637-.00780213-.1644.14600583-.182.34445583-.2046.097251-.011.205226-.0233.310164-.0547.296746-.0893.540786-.2451.741046-.3729.03343-.0213.06565-.0419.09673-.0612.12833-.0788.23989-.1209.33906-.1584.18181-.0688.32198-.1218.44755-.3553.17762-.3244.20703-1.2413.23765-2.1957.00345-.1076.00691-.2156.01061-.3233.04543-1.2045.21177-2.2059.26256-2.3805.04132-.1354-.01336-.2742-.07532-.4314-.01824-.0463-.03711-.0942-.05435-.1441-.13289-.3812-.1413-.5981-.12162-1.0018.02132-.3758-.27582-1.074-.43319-1.4439l-.03238-.0762c-.14666-.342-.35235-1.1762-.35235-1.1762s-.16616-.0116-.32999-.0735c-.16652-.0624-.31301-.1436-.28188-.2261l.0012-.0032c.03321-.0876.17704-.467.2272-.8625.03654-.2757-.03767-.6304-.09637-.911-.0272-.13-.05108-.2441-.05906-.327-.01585-.1615.00398-.3197.02502-.4876.01245-.0992.02532-.2019.0315-.3107.0084-.1668.12967-.776.12967-.776s-.06188-.1381-.07601-.2229c-.00458-.033.01277-.0855.03927-.1657.05527-.1672.15035-.4549.16945-.9373.02837-.6615.00894-1.0823-.00532-1.3911-.00849-.1838-.01515-.328-.00881-.4595.01619-.2893.0028-.5609-.01002-.8207-.00955-.1938-.01879-.3809-.0152-.5641l.00033-.0231c.00492-.3547.00766-.552.13775-1.1983.07644-.3804.26588-.8035.37082-1.0166.01974-.3455.26189-.4797.48093-.601.05653-.0313.11154-.0618.16077-.0948.01417-.0093.02834-.0183.04249-.0268.0713-.0585.13766-.1093.19181-.1456.13762-.093.21824-.1942.27516-.2657.02727-.0343.0491-.0617.06914-.0781.06153-.0508.05116-.257.05116-.257s-.05116.051-.23717.0936c-.02693.0056-.058.0126-.0918.0203l-.00102.0003c-.20328.0464-.50475.1151-.60151.0185-.11572-.1125-.09586-.3103-.07351-.4231.02004-.1129-.04221-.1748-.10391-.2258-.06242-.0534-.10446-.1547-.07369-.2056.00587-.0101.01224-.0204.01857-.0307.02721-.044.05358-.0866.03544-.1047-.01178-.0117-.02549-.0227-.03954-.034-.0606-.0487-.12852-.1033-.08512-.2454.03988-.1326.03988-.2563.00876-.2876-.00892-.0089-.02409-.0169-.04233-.0265-.04537-.0238-.10972-.0576-.14404-.14-.02993-.0765.03325-.1771.1061-.2932.02377-.0379.04858-.0774.07151-.1182.09336-.1638.17528-.3105.13289-.4969-.02178-.101-.05047-.1686-.07557-.2278-.02045-.0482-.03852-.0908-.04856-.1413-.01242-.0691.01396-.2463.04163-.4322.01654-.1111.03354-.2252.04297-.3212.00072-.009.00101-.0196.00134-.032.00352-.1316.01206-.4507.60821-.8766.65373-.4654 1.6387-.6094 1.6387-.6094s.30996-.1549 1.00429-.093c.69397.0619 1.159.7532 1.3992 1.5486.20317.6802.19438 1.5449.18778 2.1937-.00109.1074-.00212.2089-.00212.3026 0 .66-.02236 1.0639-.12359 1.1347-.10446.0731-.23985.084-.32213.0613-.08388-.0195-.21659 0-.30978.0426-.09318.0426-.34108.0426-.46825.0311-.12413-.0112-.3502-.135-.3502-.135s.0313.135.08191.2985c.0508.1663.17493.2908.17493.2908s.10463.0843.21159.1352c.14056.0644.19449.0817.31791.1212l.00099.0003c.02458.0083.06071.0183.1035.0301.17365.048.45696.1262.52268.246.04708.0883.07467.1575.08935.2117.02391.0493.05295.1181.08593.2138.05295.1593.07576.3148.10274.4989.02041.1392.04322.2948.08327.4806.02743.1277.06452.2784.10637.4486.10059.4089.22872.9298.31663 1.5118.02002.1335.03982.2597.05856.3791.09731.6201.16603 1.0581.08775 1.3871-.09301.3917-.35253.5246-.8714.6709-.37067.103-.94622.1367-1.2904.1475-.01415.1136-.03974.2051-.05993.2773-.01518.0542-.0273.0975-.0292.1311-.0025.0816.07941.1918.07941.1918s.45108.3695.71919 1.2266c.27097.8578.33286 1.2949.42586 1.9976.0556.4197.13787.737.19477.9565.03792.1463.06458.2491.06458.3099 0 .1554-.71615.2597-.71615.2597s0 .1942-.05097.9899c-.05348.7958-.01968 1.0099.08191 1.6192.03547.207.10314.4507.1799.7271.14929.5376.33299 1.1991.38118 1.9556.05959.9709-.44395 2.3495-.6744 2.9804-.04139.1133-.07397.2025-.0929.2609-.12413.3808-.09301.8548 0 1.2999.09318.4434-.12413.8045-.41424.7822-.29064-.0199-.7478-.1218-1.05776-.2883-.3105-.1637-.72545-.0419-.72545-.0419s0 .0988-.03971.2172c-.08794.2573-.18519.2595-.52964.2673l-.01981.0004c-.18588.0059-.41083-.045-.63069-.0947-.2106-.0476-.41663-.0942-.57946-.089-.23558.0086-.61617-.0065-.92758-.0188h-.00113c-.124713-.0049-.238316-.0094-.327055-.0118-.217613-.0078-.370277-.0715-.459459-.1088-.037767-.0157-.064149-.0267-.079261-.0267zm5.266115-16.9613c.02012-.0104.04018-.021.0601-.0319.05296-.0287.1131-.0604.17389-.0926.20121-.1062.41662-.22.45765-.2678.04043-.0498.02907-.0794-.01846-.2031-.01219-.0317-.02675-.0696-.04342-.1156-.06944-.1876-.13706-.5403-.15908-.6607-.03675.0091-.04352.0014-.04708-.0027-.00328-.0037-.00382-.0043-.0226.0142-.05062.0509-.25362.3385-.28456.5589-.01141.0813-.02612.1588-.04134.2389-.02963.156-.06121.3223-.0742.5475zm.623-1.4327c.03634-.0125.07426-.0321.10835-.0628.02519-.0227.04836-.0601.0692-.1046-.0489.0748-.10815.1319-.17755.1674zm-2.20232 16.1518c-.16329.8794-.16329 1.4021-.16329 1.4021s.61205-.3044.73349-.6182c.11805-.316.36952-1.4494.40351-2.1357.00707-.1442.01554-.2832.02388-.4201.03126-.5134.06085-.9993.00974-1.6359-.06761-.8041-.3502-1.2185-.3502-1.2185s-.06707.121-.08693.4344c-.00931.1274.00305.2833.01817.4741.02234.2819.05072.6399.02404 1.0941-.02465.4451-.1735.964-.32573 1.4947-.10838.3778-.21847.7616-.28668 1.129z" fill-rule="evenodd"/><path d="m30.0561 3.16815h1.3838l1.0117 8.77945h.0297l4.2113-8.77945h1.2501l1.1382 8.73485h.0297l4.1291-8.73485h1.3696l-5.2708 10.81825h-1.2499l-1.0781-8.82416h-.0299l-4.2044 8.82416h-1.2495z"/><path d="m45.8886 3.16815h1.2057l-.7351 4.16668c.4799-.357 1.0116-.67448 1.5965-.9526.5847-.27741 1.2241-.41638 1.9186-.41638.2382 0 .5362.02468.8948.0744.3581.04973.6913.17099.9997.36452.3083.19352.5494.48345.7243.8705.1746.38687.2036.91289.0864 1.57735l-.9054 5.13378h-1.2051l.8634-4.89554c.0901-.45663.0878-.82347-.0067-1.10159-.0949-.27741-.2389-.49061-.4307-.6396-.1919-.14898-.4131-.24557-.6632-.29028-.25-.04472-.4788-.06672-.6873-.06672-.3271 0-.6503.04722-.9694.1413-.3198.09444-.6239.2157-.9131.36469-.2889.14845-.5611.31497-.8165.49812-.2557.18369-.4893.36988-.7013.5584l-.9576 5.43122h-1.2057z"/><path clip-rule="evenodd" d="m62.1828 12.3643c-.235.2084-.4813.4241-.7389.6475-.2577.2232-.5584.4239-.9025.6028-.3439.1781-.7494.3248-1.2159.4387-.4663.1141-1.0322.1712-1.6963.1712-.6549 0-1.2343-.1041-1.7381-.3125-.5042-.2084-.9165-.4988-1.2375-.8707-.3218-.3717-.5439-.8133-.667-1.3243-.1239-.5108-.1323-1.064-.0272-1.6592.1081-.61511.3161-1.1753.6235-1.68129.3073-.50598.6836-.93775 1.1284-1.29475.4449-.35682.9449-.63244 1.4996-.82596.5553-.19317 1.1304-.28993 1.7256-.28993.6248 0 1.2025.08424 1.7333.2529.5309.16866.9759.42908 1.3357.78107.3594.35235.6121.80361.7579 1.35432.1461.55034.1461 1.21265-.0002 1.98644h-7.6484c-.035.3672-.0037.7215.0952 1.064.098.3421.2653.6473.5006.9152.2356.2677.5373.4811.9063.6398.3688.1588.8061.238 1.3123.238.5058 0 .9411-.0495 1.3062-.149.3641-.0987.6791-.2251.9445-.379.2649-.154.4928-.3199.6827-.4988.1905-.1787.3581-.342.5039-.4911zm-.548-3.05056c-.004-.31729-.0655-.61724-.1839-.89983-.1189-.28313-.2939-.52871-.5248-.73708-.2311-.20837-.519-.37399-.864-.4983-.3456-.12376-.7466-.18583-1.2029-.18583-.8925 0-1.6285.20801-2.208.62475-.5791.41674-1.0164.98229-1.3108 1.69629z" fill-rule="evenodd"/><path d="m65.2035 6.2041h1.2055l-.2863 1.62171c.2135-.19835.446-.40654.6981-.62511.2516-.21785.5253-.4187.8207-.60239.2951-.18369.6141-.335.9576-.45412.3436-.11876.7083-.17832 1.0955-.17832.2778 0 .5123.01985.7044.05956l-.2129 1.20532c-.0778-.00984-.1908-.03005-.3391-.05974-.1486-.02969-.352-.04471-.6099-.04471-.4264 0-.8395.10445-1.238.31246-.3989.20837-.753.44429-1.0621.70721-.3094.26274-.5613.51082-.7562.74369-.195.23305-.3026.37954-.3228.43892l-.8215 4.65782h-1.2054z"/><g clip-rule="evenodd" fill-rule="evenodd"><path d="m78.7146 12.3643c-.2352.2084-.4816.4241-.7388.6475-.258.2232-.5586.4239-.9027.6028-.3438.1781-.7494.3248-1.2159.4387-.4661.1141-1.032.1712-1.6968.1712-.6545 0-1.2338-.1041-1.7376-.3125-.5042-.2084-.9165-.4988-1.2381-.8707-.3214-.3717-.5434-.8133-.6666-1.3243-.1238-.5108-.1324-1.064-.0272-1.6592.1084-.61511.3162-1.1753.6237-1.68129.3071-.50598.6834-.93775 1.1284-1.29475.4446-.35682.9449-.63244 1.4997-.82596.555-.19317 1.1301-.28993 1.7253-.28993.6249 0 1.2028.08424 1.7337.2529.5308.16866.9756.42908 1.3355.78107.3591.35235.6119.80361.7578 1.35432.146.55034.146 1.21265-.0002 1.98644h-7.6488c-.0347.3672-.0032.7215.0953 1.064.0984.3421.2651.6473.5006.9152.2356.2677.5377.4811.9068.6398.3687.1588.8062.238 1.3121.238s.941-.0495 1.3061-.149c.3643-.0987.6795-.2251.9447-.379.2649-.154.4926-.3199.6827-.4988.1903-.1787.3582-.342.5038-.4911zm-.5483-3.05056c-.0036-.31729-.0653-.61724-.1837-.89983-.1188-.28313-.2939-.52871-.5248-.73708-.2311-.20837-.519-.37399-.8642-.4983-.3454-.12376-.7464-.18583-1.2025-.18583-.8929 0-1.629.20801-2.2085.62475-.5792.41674-1.0163.98229-1.3107 1.69629z"/><path d="m31.3605 21.214h1.8156l-.1808 1.0268c.1161-.099.2747-.2232.4745-.3722.1998-.1486.4382-.2901.7149-.424.2765-.1336.5918-.2503.9467-.3497.3545-.0987.7507-.1486 1.1873-.1486.6546 0 1.2284.1066 1.7216.32.4926.2133.8927.5059 1.1991.8778.3064.3718.5137.8161.621 1.3316.1071.5163.1077 1.0765.0009 1.6818-.1189.6746-.3398 1.2795-.6621 1.8152-.323.5359-.7078.9896-1.1555 1.3615-.4473.3724-.9438.655-1.4882.8481-.5457.1936-1.1007.2905-1.6661.2905-.4069 0-.7564-.0297-1.0479-.0894-.2926-.0598-.5509-.1413-.7756-.2456-.2248-.1039-.4242-.2232-.5993-.357-.1746-.134-.349-.2703-.523-.4092l-.6296 3.571h-1.8451zm.8718 5.5207c.1542.1391.313.2777.4772.4165.164.139.343.2628.5371.3722.1941.1093.4139.1987.6594.2678.2456.0694.5277.1041.8448.1041.3575 0 .7117-.0567 1.0644-.1712.3525-.1139.6748-.2826.9669-.5056.2924-.2234.545-.5037.7585-.8412.2132-.337.3586-.7238.4355-1.1604.0787-.4465.0682-.8383-.0309-1.1755-.0995-.3371-.2608-.6176-.4842-.8408-.2237-.2232-.4942-.3917-.8113-.5058-.3169-.1139-.6539-.1712-1.0112-.1712-.3372 0-.6436.0347-.9188.1041-.2749.0696-.5318.1587-.7689.2676-.2374.1094-.4518.2287-.6432.3575-.1912.1288-.3668.2529-.5269.3719z"/><path d="m48.7654 27.9101c-.0471.2678-.0828.5235-.1054.7666-.023.2431-.0143.4189.0261.528h-1.8899c-.0054-.1386-.0067-.2728-.0036-.4017.0025-.1288.0164-.2628.0413-.4016-.218.1091-.4572.2279-.7181.357-.2608.129-.5464.2458-.8575.3499-.3114.1043-.6415.1905-.9908.2602-.3501.0691-.7228.1043-1.1195.1043-.2676 0-.5724-.0327-.9133-.0969-.3407-.0648-.6567-.1861-.9474-.3647-.2913-.1782-.5205-.4239-.6884-.7366-.1683-.3123-.2085-.7165-.1209-1.2125.0785-.4466.2506-.8333.5169-1.1606.2661-.3278.5911-.6077.9741-.8408.3834-.233.8132-.4215 1.2901-.5655.477-.1438.9661-.2629 1.4693-.3574.5022-.0939 1.0053-.1608 1.5086-.2007.5026-.0397.9705-.0744 1.4019-.1041l.0633-.3573c.0539-.3071-.0556-.5579-.3291-.7514-.2732-.1935-.7919-.2897-1.5557-.2897-.4269 0-.78.0345-1.0599.1039-.2802.0692-.5063.1563-.6784.2602-.1724.1043-.3042.2182-.3951.3423-.0912.1243-.1615.2406-.2107.3495h-1.9193c.205-.5451.486-.9842.8421-1.3165.3562-.3325.7438-.5905 1.1631-.774.4192-.1833.8476-.3051 1.2845-.3647.4372-.0593.8441-.089 1.2213-.089.9621 0 1.6902.1039 2.1844.3123.4936.2085.8381.4641 1.0329.7662.1944.3028.2863.6253.276.9674-.011.3422-.0408.6525-.0897.9301zm-1.3627-2.7377c-.5389.0198-1.0503.0647-1.5336.1337-.4834.0696-.9535.1589-1.4088.2676-.5997.1393-1.0548.313-1.364.521-.3098.2086-.5004.4862-.5711.8331-.0714.3476-.0125.6203.1755.8189.1881.1985.5106.2974.9669.2974.3471 0 .6834-.0345 1.0078-.1043.3248-.0694.6327-.1561.924-.26.2912-.1045.5611-.2161.8108-.3349.2486-.1189.4722-.233.67-.3425z"/></g><path d="m51.0446 21.482h1.4285l.459-2.6042h1.845l-.4591 2.6042h2.7829l-.278 1.5773h-2.7828l-.6457 3.6605c-.0243.1394-.0318.2807-.0224.4239.0092.1444.0516.2703.1261.3797.0755.1093.1907.1987.3472.2678.1565.0694.3688.1041.6367.1041.1787 0 .4298-.0199.7545-.0596.3246-.0393.6118-.0939.8621-.1636l-.286 1.622c-.2333.0295-.4395.0569-.6169.0818-.1783.0248-.3454.0445-.5019.0595-.1561.0147-.3067.0245-.4511.0295-.145.005-.2965.0079-.4555.0079-.4366 0-.8188-.0395-1.1472-.1189-.3286-.0798-.5911-.2084-.7872-.3869-.1971-.1789-.3287-.4167-.3949-.7147-.0667-.2976-.0615-.6645.0154-1.1011l.7217-4.0919h-1.4284z"/><path d="m58.7104 21.214h1.8449l-1.409 7.9907h-1.8449z"/><path d="m61.1009 18.1189h-1.8449l-.2885 1.6367h1.8447z"/><path clip-rule="evenodd" d="m69.5564 27.5086c.2162-.2978.3539-.5309.4137-.6995h-2.0238c-.1953.3178-.4992.5927-.912.8259-.4133.2331-.9125.3493-1.4976.3493-.5621-.0193-.9968-.1264-1.3053-.3194-.3082-.1935-.5303-.4116-.6659-.655-.1357-.2429-.2142-.4858-.2359-.729-.022-.2429-.0307-.4291-.0277-.558h7.0082c.1277-.7241.1513-1.3789.0712-1.9643-.0803-.5852-.2678-1.0838-.5624-1.4956-.2945-.4115-.6995-.7313-1.2146-.9599-.5153-.2277-1.1491-.3468-1.9009-.3568-.7346 0-1.3996.1143-1.9951.3421-.5956.2286-1.114.5384-1.5547.9301-.4418.392-.7991.8433-1.0724 1.3539-.274.5114-.4606 1.0494-.5598 1.6148-.1104.6247-.1079 1.2006.0078 1.726.1156.526.3359.9771.6616 1.3539.3252.3772.7519.6722 1.2798.8854.5278.2133 1.1489.3203 1.8633.3203.744 0 1.3904-.1095 1.9401-.3273.5492-.2184 1.0132-.4713 1.391-.7591.3781-.2876.6755-.5802.8914-.8778zm-1.5758-4.6501c.3916.2826.5971.7612.6171 1.4358h-4.9848c.1578-.3868.3468-.6995.5674-.9374.2201-.2382.4544-.4264.7025-.5655.2474-.1388.5017-.2331.7639-.2828.2615-.0493.5114-.074.7493-.074.6648 0 1.1929.1411 1.5846.4239z" fill-rule="evenodd"/><path d="m74.4387 21.214h-1.8156l-1.4091 7.9907h1.8453l.9707-5.5058c.1432-.1386.2967-.2772.4602-.4166.1635-.1388.352-.2654.5655-.3793.2136-.1138.4604-.2057.7405-.2753.2801-.0694.6038-.1041.9705-.1041.6253 0 1.0354.176 1.2314.528.1961.3525.2239.9254.0839 1.7188l-.7816 4.4343h1.8451l.9023-5.1188c.1068-.6048.1115-1.1108.0149-1.5177-.0973-.4068-.2685-.7292-.5142-.9675-.2458-.238-.5484-.4064-.9079-.5058-.3599-.0987-.7475-.1486-1.1639-.1486-.4069 0-.7712.0397-1.0926.1187-.3214.0796-.6121.1814-.8723.3052-.2597.1243-.4901.2604-.6895.4094-.2001.1488-.3863.2926-.56.4316z"/><path d="m83.0664 21.482h-1.4287l-.2778 1.5773h1.4284l-.7217 4.0919c-.0769.4366-.0819.8035-.0154 1.1011.0662.298.1978.5358.3949.7147.1962.1785.4586.3071.787.3869.3286.0794.7108.1189 1.1472.1189.1585 0 .3107-.0029.4552-.0079.1443-.005.2955-.0148.4518-.0295.1558-.015.3234-.0347.5015-.0595.1778-.0249.3833-.0523.6173-.0818l.2858-1.622c-.2502.0697-.538.1243-.8625.1636-.3244.0397-.5757.0596-.754.0596-.2681 0-.4803-.0347-.6366-.1041-.1565-.0691-.2726-.1585-.3473-.2678-.0748-.1094-.1172-.2353-.1261-.3797-.0095-.1432-.0022-.2845.0223-.4239l.6459-3.6605h2.7825l.2779-1.5773h-2.7825l.4592-2.6042h-1.8455z"/><path d="m94.5203 23.3196c.0984.1439.1746.2606.2282.3496l1.6822-.8481c-.2241-.4168-.5049-.7512-.8421-1.0043-.3375-.2529-.6834-.4438-1.0372-.5731-.3546-.1287-.6991-.2132-1.0343-.2529-.3355-.0397-.6171-.0594-.8449-.0594-.7739 0-1.4232.0945-1.9473.2826-.5244.1887-.9486.4143-1.2729.6772-.3239.2627-.5616.5407-.7124.8331-.1504.2926-.2443.5434-.2813.7514-.0539.3078-.0578.5956-.0106.8635.0467.2676.1846.5132.413.7364.2288.2232.5666.4169 1.0136.58.4477.1639 1.0395.2955 1.7759.3944.4738.0698.8626.1293 1.1661.1789.3043.0493.5402.1039.708.1634.1681.0598.2784.1369.3316.2309.0525.0945.066.2156.0397.3646-.0315.1785-.1102.3299-.2363.4537-.1259.1243-.2828.2256-.4704.3051-.1876.0796-.3965.1394-.6265.1785-.2306.0399-.4694.0593-.7176.0593-.2878 0-.5688-.022-.8435-.0668-.2749-.0449-.5298-.1193-.7643-.2232-.2345-.1043-.4426-.2456-.6251-.4239-.1813-.1787-.3291-.3967-.4423-.6549l-1.722.9078c.1314.208.2834.4291.4559.662.172.2334.4029.4439.6918.6328.2888.1881.6584.3446 1.108.4688.4493.1234 1.0161.1858 1.701.1858.218 0 .4675-.01.7487-.0297.2813-.0204.5769-.0622.8857-.1266.3087-.0648.6149-.1563.9191-.2755.3034-.1189.5842-.2752.8412-.4686.2575-.1935.4806-.4317.6694-.7145.1886-.2826.317-.6171.3853-1.0043.0871-.4956.0436-.8948-.1313-1.198-.1745-.3024-.4396-.5451-.7936-.729-.3546-.1833-.7768-.322-1.2659-.4164-.4892-.0942-1.0007-.1762-1.5339-.2457-.271-.0394-.5175-.0768-.7394-.1116-.2223-.0346-.4092-.0841-.5616-.1487-.1521-.0645-.2674-.1436-.3449-.2382-.0778-.0941-.1023-.2205-.0742-.3796.0191-.1089.0687-.2205.1485-.3348.0792-.1139.1963-.2178.3521-.3123.1556-.0942.3527-.1711.5917-.2307.2382-.0594.526-.0892.8639-.0892.4162 0 .7653.047 1.0463.1413.281.0944.5114.2083.6911.3423.1796.1338.3187.2729.4178.4166z"/><path d="m36.6045 38.6273c.1048.1935.1896.3599.2543.4988l1.1467-.5954c-.105-.2479-.2467-.501-.4241-.7589-.1776-.2579-.4108-.4858-.6979-.6848-.2874-.198-.6405-.3617-1.0596-.4906-.4187-.1288-.9204-.1936-1.5054-.1936-.6054 0-1.1939.0893-1.7659.268-.5723.1783-1.0921.4389-1.5587.7811-.4676.3423-.8653.7714-1.1948 1.2872-.3289.516-.5518 1.106-.6691 1.7705-.1034.5858-.0953 1.1315.024 1.6369.1191.506.3443.9447.6755 1.3169.3309.3721.7555.665 1.2735.8781.518.2133 1.1288.3199 1.8333.3199.6052 0 1.1465-.0592 1.624-.1786.477-.119.9002-.2826 1.2695-.4912.3688-.2082.6963-.4462.9814-.7138.2855-.2679.5386-.5507.7598-.8487l-.9393-.5802c-.2715.3574-.5436.6501-.8171.8782-.2734.2284-.5557.4092-.847.543-.2914.134-.5883.2282-.8909.2826-.3021.0551-.6119.0819-.9294.0819-.4761 0-.9066-.0765-1.2911-.2305-.3846-.1537-.7024-.3647-.9528-.6325-.2502-.2677-.43-.5852-.5384-.9524-.1089-.367-.1257-.7637-.0506-1.1901.0998-.5656.2797-1.0515.5401-1.4588.2597-.4065.5667-.7383.9194-.9968.3529-.2577.7338-.4464 1.1413-.5653.4083-.119.8154-.1783 1.2223-.1783.4859 0 .8891.0618 1.2094.1858.3205.1239.584.2751.7908.4539.2067.1785.3618.3644.4668.5577z"/><path clip-rule="evenodd" d="m41.0441 44.3787c.5174.1883 1.1078.2827 1.7728.2827.6643 0 1.2862-.0944 1.8653-.2827.5786-.1882 1.0984-.4636 1.5591-.826.4606-.362.8471-.8084 1.159-1.3391.3118-.5305.528-1.1386.6491-1.8229.0977-.5554.085-1.0762-.0372-1.5624-.1229-.4857-.3488-.9077-.6773-1.265-.3289-.3568-.7503-.6394-1.2644-.848-.5138-.2085-1.1126-.3125-1.7971-.3125-.6847 0-1.3232.104-1.9151.3125-.5925.2086-1.1134.4912-1.5634.848-.4501.3573-.8247.7793-1.1232 1.265-.2996.4862-.4977 1.007-.5954 1.5624-.1209.6843-.1189 1.2924.0057 1.8229.1247.5307.3536.9771.6865 1.3391.333.3624.7582.6378 1.2756.826zm3.3623-.9675c-.4333.1492-.9023.2234-1.4081.2234-.5062 0-.9497-.0742-1.3298-.2234-.3808-.1483-.6886-.357-.924-.6246-.2354-.2677-.3967-.5927-.4829-.9746-.0864-.3818-.0886-.8059-.0063-1.2723.0632-.357.1885-.7192.3774-1.0866.1887-.3667.4407-.6992.756-.9968.3152-.2976.6985-.543 1.1496-.7367.4505-.1932.9687-.2897 1.5541-.2897.585 0 1.069.0965 1.4518.2897.3818.1937.6785.4391.8891.7367.2099.2976.3426.6301.3972.9968.0542.3674.0499.7296-.0132 1.0866-.0823.4664-.2313.8905-.4475 1.2723-.2161.3819-.4889.7069-.8189.9746-.3299.2676-.712.4763-1.1445.6246z" fill-rule="evenodd"/><path d="m51.4035 36.6411h-1.1607l-1.3724 7.7825h1.2057l.9917-5.625c.1497-.1192.3302-.2577.542-.4169.2114-.1584.4509-.3069.7184-.446.2676-.1388.559-.258.8741-.3576.3152-.0989.6462-.1482.9936-.1482.4165 0 .7261.0717.929.2155.203.1441.3387.3151.4081.5133.0689.1987.0955.3996.0798.6026-.0161.2035-.0345.3648-.0556.4836l-.9129 5.1787h1.2049l.992-5.625c.15-.1192.3303-.2577.5423-.4169.2116-.1584.4509-.3069.7183-.446.2677-.1388.5564-.258.8664-.3576.3105-.0989.6338-.1482.9715-.1482.4262 0 .7434.0717.951.2155.208.1441.3465.3151.4157.5133.0692.1987.0958.3996.0799.6026-.0161.2035-.0349.3648-.0558.4836l-.9129 5.1787h1.2052l.9919-5.625c.1-.5653.0608-1.0066-.1161-1.3244-.1774-.3173-.4085-.5552-.6923-.7144-.2846-.1586-.5822-.2577-.8925-.2972-.3109-.0399-.5548-.0598-.7337-.0598-.2876 0-.5621.0249-.824.0745-.262.05-.5264.1291-.7932.238-.2674.1095-.5457.2508-.8335.4241-.2894.1738-.6099.3894-.9626.6474-.0551-.1387-.1224-.2904-.203-.4537-.08-.164-.2-.3148-.3592-.454-.1586-.1387-.369-.2529-.6313-.3423-.2621-.0891-.6064-.134-1.0326-.134-.6449 0-1.233.1267-1.7633.3798-.5309.2527-1.0528.5678-1.5652.9445z"/><path clip-rule="evenodd" d="m71.333 43.4488c.2573-.2234.5038-.4389.7392-.6473l-.8167-.6849c-.1454.149-.3135.3125-.5035.4912-.1901.1788-.4176.345-.6828.4988-.2656.1538-.5803.2805-.9448.379-.365.0995-.8.149-1.306.149-.5058 0-.9436-.079-1.3123-.2382-.3693-.1583-.6714-.3717-.9066-.6398-.2359-.2678-.4024-.5727-.5006-.9149-.098-.3425-.1304-.6968-.0952-1.0642h7.6483c.1465-.7737.1467-1.436.0009-1.9865-.1459-.5506-.3986-1.0015-.758-1.354-.3602-.3522-.805-.6122-1.3355-.7812-.5308-.1687-1.1087-.253-1.7337-.253-.595 0-1.1702.097-1.7252.29-.5548.1937-1.0549.4689-1.4999.8261-.445.357-.8213.7884-1.1284 1.2946-.3075.5058-.5157 1.0663-.6237 1.6813-.105.5952-.0962 1.1484.027 1.6592.123.5112.3457.9526.6664 1.3243.322.372.7346.6625 1.2381.8709.504.2083 1.0833.3122 1.7376.3122.6648 0 1.231-.0572 1.6973-.171.4667-.1139.8716-.2605 1.2156-.439.3444-.1787.6451-.3794.9025-.6026zm.0073-4.5981c.1186.2828.1801.5827.1835.9h-6.2947c.2949-.714.7315-1.2794 1.3112-1.6963.5793-.4167 1.3158-.6245 2.2085-.6245.4563 0 .8566.0618 1.2023.1858.345.1239.633.2901.8641.4983.2312.2083.4063.4537.5251.7367z" fill-rule="evenodd"/><path d="m81.0984 38.2776-1.0838 6.1459h1.8454l1.0836-6.1459h2.8717l.2779-1.5771h-2.8715l.0969-.5506c.0229-.1289.0644-.2675.1252-.4167.0612-.1486.1592-.2851.2955-.4092.1359-.1238.32-.2256.5527-.305.2318-.0794.5353-.1137.9107-.1043.0993 0 .1959.0027.2887.0075.0941.0049.1958.0147.3078.0297.1111.0149.2465.0372.4047.0671.1585.0297.3513.0744.5788.134l.2782-1.5777c-.1916-.0394-.369-.0741-.5321-.1039-.1635-.0296-.3204-.0544-.4708-.0743-.1501-.0198-.3012-.0347-.4534-.0449-.1515-.0096-.3171-.0148-.4956-.0148-.0993 0-.2461.0027-.4404.0075-.1938.005-.4124.0299-.6528.0742-.2411.0447-.4915.1145-.7512.2086-.2597.0946-.5046.233-.7355.4165-.2309.1839-.4355.4166-.6143.6995-.1787.2826-.3041.6273-.3756 1.034l-.1628.9228h-1.7709l-.2781 1.5771z"/><path d="m89.8158 36.4325h-1.8449l-1.4091 7.9911h1.8455z"/><path d="m88.5164 33.3374h1.8451l-.2883 1.6367h-1.8451z"/><path d="m91.9591 36.4325h1.8451l-.2102 1.1903h.0447c.127-.1584.2832-.3248.4676-.4983.184-.1733.4029-.3321.6565-.4763.2533-.1434.5397-.26.8579-.3496.3183-.0891.676-.1338 1.0727-.1338h.3572c.0993 0 .1964.01.2923.0297l-.3517 1.9939c-.0855-.0197-.2142-.0492-.3863-.0893-.1712-.0395-.4108-.0595-.7181-.0595-.5854 0-1.0524.0869-1.4001.2602-.3482.1739-.6165.3747-.8059.6028-.1889.2284-.32.4641-.3921.7068-.0726.2433-.1213.4343-.1458.5732l-.7474 4.2409h-1.8453z"/><path d="m104.159 38.8876c-.053-.0889-.13-.2054-.228-.3495-.099-.1437-.238-.2826-.418-.4164-.18-.1343-.41-.2483-.691-.3425-.281-.0941-.63-.1415-1.046-.1415-.338 0-.626.0302-.865.0894-.238.0598-.435.1365-.59.2306-.157.0944-.274.1985-.3532.3124-.0796.1145-.1291.2259-.1484.3349-.0281.1588-.0035.2854.0742.3795.0776.0946.1924.174.3454.238.152.0648.339.1147.561.149.222.0349.468.0721.739.1115.534.0695 1.045.1515 1.534.2459.49.0943.911.2327 1.266.4162.355.1839.619.4268.794.7294s.219.702.131 1.1976c-.068.3871-.196.7217-.385 1.0043-.189.2828-.412.521-.669.7144-.258.1937-.538.35-.842.4687-.304.1192-.61.2107-.919.2755-.309.0646-.604.1064-.885.1264-.282.0199-.531.0299-.749.0299-.685 0-1.252-.0622-1.7011-.186-.4496-.1239-.8188-.2805-1.108-.4686-.289-.1883-.5199-.3992-.6918-.6326-.1724-.2331-.3245-.454-.4563-.6622l1.7222-.9078c.1134.2582.2612.4763.4427.6548.1819.1785.3903.3198.6248.424.2345.1039.4895.1783.7645.2234.275.0444.556.0669.843.0669.248 0 .488-.0197.718-.0597.23-.0394.439-.0991.627-.1783.187-.0796.344-.1811.47-.3052.126-.1237.205-.2756.236-.4537.026-.1489.013-.2703-.04-.3646-.053-.0942-.163-.1709-.331-.2309-.168-.0595-.404-.1141-.708-.1634-.304-.0496-.692-.1091-1.166-.1787-.737-.0991-1.3286-.2306-1.7761-.3942-.4468-.1637-.7852-.357-1.0134-.5802-.2286-.2236-.3663-.469-.4131-.7367-.0474-.2678-.0433-.5554.0107-.8636.0366-.208.1305-.4584.2813-.751s.3881-.5706.7121-.8333c.3244-.2631.7483-.4885 1.2725-.6772.524-.1879 1.174-.2826 1.947-.2826.229 0 .51.0199.846.0596.335.0394.679.1241 1.034.2531.354.1288.7.32 1.037.5727.337.2531.618.5875.842 1.0043z"/><path d="m106.747 36.7005h1.429l.459-2.604h1.845l-.459 2.604h2.782l-.278 1.5771h-2.782l-.646 3.6609c-.024.1388-.032.2803-.022.4241.009.144.051.2702.126.3793.075.1093.19.1984.347.268.156.0694.369.1039.637.1039.178 0 .429-.0197.754-.0596.324-.0393.612-.0941.862-.1636l-.286 1.622c-.234.0299-.439.0571-.617.082-.178.0243-.345.0443-.501.0595-.157.0149-.308.0245-.452.0297-.145.0048-.297.0075-.455.0075-.437 0-.819-.0399-1.148-.1189-.327-.0798-.59-.2086-.787-.3873-.197-.1786-.328-.4163-.394-.7143-.067-.2976-.062-.6641.015-1.1011l.722-4.0921h-1.429z"/></g></svg>