<svg fill="none" height="32" viewBox="0 0 32 32" width="32" xmlns="http://www.w3.org/2000/svg"><path d="m0 0h32v32h-32z" fill="#00a3e0"/><g fill="#fff"><path d="m11.0344 18.0596c.2235.3853.6373.6253 1.0796.6253.6898 0 1.2509-.5613 1.2509-1.2512 0-.2207-.0571-.4365-.1657-.6241-.4039-.6987-.6173-1.4934-.6173-2.2988 0-2.5371 2.0637-4.60128 4.6011-4.60128.6893 0 1.2501-.56099 1.2501-1.25074 0-.68946-.5593-1.25049-1.2462-1.25049-3.9179 0-7.1052 3.18621-7.1052 7.10251 0 1.2436.3294 2.4707.9527 3.5488z"/><path d="m13.4142 14.5108c0-1.0929.4651-2.0769 1.2082-2.7652-.0642.7779.314 1.5595 1.0351 1.9757.3223.1865.6806.2808 1.0396.2808.6407-.0004 1.2891.1597 1.8831.5027.9468.5467 1.5664 1.4416 1.791 2.4293-.6419-.4445-1.5082-.508-2.2288-.0918-.323.1862-.5831.4489-.7629.7595-.32.556-.7829 1.0372-1.3772 1.3802-.9467.546-2.0313.6354-2.9987.3365.7052-.3342 1.1932-1.0522 1.1932-1.8847 0-.3722-.0972-.7298-.2765-1.0405-.3208-.555-.5061-1.1969-.5061-1.8825z"/><path d="m21.7664 21.946c-.2188 0-.4358-.058-.6275-.169-.5973-.3449-.8031-1.1108-.4579-1.7078 1.2677-2.1973.5125-5.0167-1.6844-6.2854-.6962-.4018-1.49-.6143-2.2956-.6143-.2205 0-.436-.0584-.6279-.169-.5969-.3451-.8018-1.1116-.4573-1.7088.2208-.3826.6353-.6211 1.0813-.6221 1.247 0 2.4732.3283 3.5495.9496 1.642.9482 2.8171 2.4802 3.3081 4.314.491 1.8333.2388 3.7477-.7098 5.3906-.2213.3838-.6352.6222-1.0785.6222z"/><path d="m7.96503 19.2657c1.2647 2.1919 3.62567 3.5538 6.16087 3.5538 1.2391 0 2.464-.3293 3.5428-.952 1.0771-.622 1.9747-1.5209 2.5961-2.5989.2225-.386.2236-.8643.0023-1.2477-.3318-.5744-1.1297-.7928-1.7083-.4576-.1911.11-.3493.2672-.4582.4547-.4031.6997-.9845 1.2823-1.6825 1.6848-.6991.4035-1.4935.617-2.2961.617-1.6406 0-3.1691-.8817-3.9891-2.3012-.33067-.574-1.12812-.7915-1.70797-.4567-.59703.3443-.8037 1.1088-.4599 1.7038z"/></g></svg>