<svg fill="none" height="32" viewBox="0 0 32 32" width="32" xmlns="http://www.w3.org/2000/svg"><path d="m0 0h32v32h-32z" fill="#fff"/><g fill="#0067c2"><path clip-rule="evenodd" d="m9 8.38104c0-.21045.17059-.38104.38104-.38104h3.97216c.2104 0 .381.17059.381.38104v3.97206c0 .2104-.1706.381-.381.381h-3.97216c-.21045 0-.38104-.1706-.38104-.381zm3.4179 1.34946c-.0374-.0842-.0936-.17315-.1872-.27149-.1825-.19653-.3885-.27611-.7302-.27611-.7255 0-1.1889.46802-1.1889 1.1935 0 .7395.4305 1.1748 1.1702 1.1748.4539 0 .7067-.1451.9408-.5476l-.4494-.2667c-.042.1169-.0702.1777-.1029.2246-.0796.117-.22.1825-.3931.1825-.3886 0-.6133-.2761-.6133-.7582 0-.49607.2294-.7957.6179-.7957.2762 0 .4118.11226.4868.4072z" fill-rule="evenodd"/><path d="m16.2731 9.5901c.3651 0 .5898.29487.5898.777 0 .482-.2247.7769-.5898.7769-.3697 0-.5897-.2949-.5897-.7863 0-.47273.2294-.7676.5897-.7676z"/><g clip-rule="evenodd" fill-rule="evenodd"><path d="m13.9061 8.38104c0-.21045.1706-.38104.381-.38104h3.9721c.2104 0 .3811.17059.3811.38104v3.97206c0 .2104-.1707.381-.3811.381h-3.9721c-.2104 0-.381-.1706-.381-.381zm2.367.80186c-.3135 0-.571.0842-.7816.26211-.2387.20129-.3604.50554-.3604.90329 0 .44.1077.7255.3604.9408.206.1732.4681.2621.7863.2621.309 0 .5758-.0889.777-.2621.2433-.2106.3604-.5055.3604-.922 0-.74424-.4259-1.1842-1.1421-1.1842z"/><path d="m19.1931 8c-.2104 0-.3809.17059-.3809.38104v3.97206c0 .2104.1705.381.3809.381h3.9722c.2104 0 .381-.1706.381-.381v-3.97206c0-.21045-.1706-.38104-.381-.38104zm1.9651 2.7041v-.4166h1.0155v1.1046c-.3556.1123-.6083.1591-.8798.1591-.7395 0-1.1748-.4306-1.1748-1.1654 0-.7395.4587-1.2029 1.1935-1.2029.4447 0 .7068.14978.9268.52884l-.4447.26218c-.117-.29486-.2386-.38382-.5008-.38382-.3884 0-.6272.30893-.6272.8051 0 .496.234.7535.6787.7535.1263 0 .2246-.0141.3136-.0514v-.3932z"/><path d="m9 13.287c0-.2104.17059-.3809.38104-.3809h3.97216c.2104 0 .381.1705.381.3809v3.9722c0 .2104-.1706.381-.381.381h-3.97216c-.21045 0-.38104-.1706-.38104-.381zm3.3875.8628h-.5102l.014 1.4649-1.0765-1.4649h-.468v2.2466h.5102l-.0141-1.4509 1.0671 1.4509h.4775z"/><path d="m14.2871 12.9061c-.2104 0-.381.1705-.381.3809v3.9722c0 .2104.1706.381.381.381h3.9721c.2104 0 .3811-.1706.3811-.381v-3.9722c0-.2104-.1707-.3809-.3811-.3809zm2.2458 3.4903h-.5195v-2.2466h.5195z"/><path d="m18.8122 13.287c0-.2104.1705-.3809.3809-.3809h3.9722c.2104 0 .381.1705.381.3809v3.9722c0 .2104-.1706.381-.381.381h-3.9722c-.2104 0-.3809-.1706-.3809-.381zm3.1977 1.2232c-.1403-.2902-.3742-.4212-.7441-.4212-.4634 0-.791.2808-.791.674 0 .3088.1826.5148.6083.702.3512.1497.3886.1825.3886.3183 0 .1639-.1123.2668-.2948.2668-.1966 0-.309-.0984-.3979-.3417l-.44.2761c.1639.3276.4166.4728.8237.4728.515 0 .8567-.2949.8567-.7348 0-.1873-.075-.351-.2013-.4588-.0936-.0795-.1966-.1357-.4353-.2434-.1977-.0874-.2348-.1038-.2694-.1245-.008-.0047-.0158-.0097-.0255-.0159-.0561-.0374-.0843-.0935-.0843-.1591 0-.131.1031-.2247.2482-.2247.1591 0 .2387.0608.3229.2528l.0094.0281z"/></g><path d="m22.2238 19.3866h-.6367v1.8254h-.5193v-1.8254h-.6274v-.4212h1.7834z"/><path d="m11.3671 19.669.2761.7536h-.5616z"/><g clip-rule="evenodd" fill-rule="evenodd"><path d="m9 18.1931c0-.2104.17059-.381.38104-.381h3.97216c.2104 0 .381.1706.381.381v3.9721c0 .2105-.1706.381-.381.381h-3.97216c-.21045 0-.38104-.1705-.38104-.381zm2.6339.8627h-.4961l-.8987 2.2467h.5335l.164-.4493h.8424l.1686.4493h.5475z"/><path d="m14.2871 17.8121c-.2104 0-.381.1706-.381.381v3.9721c0 .2105.1706.381.381.381h3.9721c.2104 0 .3811-.1705.3811-.381v-3.9721c0-.2104-.1707-.381-.3811-.381zm2.4963 1.2437h.5101v2.2467h-.4774l-1.067-1.451.0139 1.451h-.5102v-2.2467h.4681l1.0765 1.465z"/><path d="m9.26065 23.1787v.8091h.1116v-.3687h.06558c.10786 0 .13212.0218.13945.1286.00206.0253.00393.05.00578.0745.00242.0321.00481.0636.00755.0953.00117.0255.00726.0497.01576.0703h.12376c-.01817-.0461-.02308-.0716-.02916-.1431-.01327-.2329-.02184-.2498-.12853-.2741.10185-.0267.13827-.074.13827-.1832 0-.0801-.02059-.137-.06067-.1686-.03635-.0292-.08244-.0401-.17227-.0401zm.1116.3518v-.2619h.08376c.10676 0 .1431.0315.1431.1261 0 .0971-.04125.1358-.1431.1358z"/></g><path d="m11.225 23.9878v-.8091h.3677v.0947h-.256v.2571h.2414v.0947h-.2414v.268h.2705v.0946z"/><path d="m13.54 23.4104v-.0218c0-.0776-.0158-.1274-.0522-.1637-.0387-.0377-.097-.0583-.171-.0583-.1419 0-.2195.074-.2195.2062 0 .1104.0424.1662.1916.2451.1104.0581.1443.097.1443.1686 0 .0788-.0447.1237-.1225.1237-.0873 0-.1225-.0461-.1225-.1564v-.034h-.114c-.0012.0182-.0012.0364-.0012.0448 0 .159.0776.2354.239.2354.1503 0 .2328-.0776.2328-.2196 0-.1079-.0411-.1674-.1637-.2341-.0594-.0315-.0934-.0521-.1031-.0582-.0497-.0352-.0691-.0704-.0691-.1201 0-.0704.04-.1116.1079-.1116.0437 0 .0728.0146.0934.0473.0146.0231.017.0388.017.0837l.0012.023z"/><path d="m15.0408 23.9878v-.8091h.3674v.0947h-.2558v.2571h.2413v.0947h-.2413v.268h.2704v.0946z"/><path clip-rule="evenodd" d="m17.2076 23.1787h-.137l-.2232.8091h.1067l.0473-.1795h.2669l.0473.1795h.1127zm-.1831.535.1152-.4561.1079.4561z" fill-rule="evenodd"/><path clip-rule="evenodd" d="m18.8857 23.9878v-.8091h.2171c.0898 0 .1359.0109.1723.0401.04.0316.0606.0885.0606.1686 0 .1092-.0363.1565-.1383.1832.1068.0243.1152.0412.1286.2741.0061.0715.011.097.0291.1431h-.1237c-.0085-.0206-.0145-.0448-.0158-.0703-.0025-.0292-.0047-.0584-.0069-.0879-.002-.0269-.0041-.0541-.0064-.0819-.0073-.1068-.0315-.1286-.1395-.1286h-.0655v.3687zm.1116-.7192v.2619h.0837c.1019 0 .1431-.0387.1431-.1358 0-.0946-.0364-.1261-.1431-.1261z" fill-rule="evenodd"/><path d="m21.1559 23.7306c-.0025.0777-.0037.0971-.0121.1215-.0122.0363-.0461.0581-.0922.0581-.0292 0-.0571-.0085-.0754-.0243-.0241-.0193-.0326-.0448-.0351-.1031l-.0024-.2559c0-.0861.0024-.165.0061-.1868.0084-.0534.0461-.0837.1055-.0837.0704 0 .1056.0449.1056.1383v.0181h.1103c.0012-.0739-.006-.1139-.0254-.1492-.0364-.0654-.0995-.097-.1916-.097-.0923 0-.1566.0316-.1917.0934-.0255.0437-.0304.0935-.0304.3167 0 .0958.0025.2195.0036.2389.0134.1274.0814.1844.2185.1844.1528 0 .2182-.074.2182-.2475 0-.0024 0-.0121-.0012-.0219z"/><path d="m23.0924 23.1787h.1117v.8091h-.1117v-.3711h-.2328v.3711h-.1117v-.8091h.1117v.3434h.2328z"/></g></svg>