<svg fill="none" height="32" viewBox="0 0 32 32" width="32" xmlns="http://www.w3.org/2000/svg"><g fill="#fff"><g fill-opacity=".6"><path d="m18.6666 2.66667c0 1.47276-1.1939 2.66666-2.6667 2.66666-1.4727 0-2.6666-1.1939-2.6666-2.66666s1.1939-2.66667 2.6666-2.66667c1.4728 0 2.6667 1.19391 2.6667 2.66667z"/><path d="m5.33333 16c0 1.4727-1.1939 2.6666-2.66666 2.6666s-2.66667-1.1939-2.66667-2.6666c0-1.4728 1.19391-2.6667 2.66667-2.6667s2.66666 1.1939 2.66666 2.6667z"/><path d="m18.6666 16c0 1.4727-1.1939 2.6666-2.6667 2.6666-1.4727 0-2.6666-1.1939-2.6666-2.6666 0-1.4728 1.1939-2.6667 2.6666-2.6667 1.4728 0 2.6667 1.1939 2.6667 2.6667z"/><path d="m25.3333 16c0 1.4727-1.1939 2.6666-2.6666 2.6666-1.4728 0-2.6667-1.1939-2.6667-2.6666 0-1.4728 1.1939-2.6667 2.6667-2.6667 1.4727 0 2.6666 1.1939 2.6666 2.6667z"/><path d="m32.0001 16c0 1.4727-1.1939 2.6666-2.6667 2.6666-1.4727 0-2.6667-1.1939-2.6667-2.6666 0-1.4728 1.194-2.6667 2.6667-2.6667 1.4728 0 2.6667 1.1939 2.6667 2.6667z"/><path d="m18.6666 29.3334c0 1.4727-1.1939 2.6666-2.6667 2.6666-1.4727 0-2.6666-1.1939-2.6666-2.6666 0-1.4728 1.1939-2.6667 2.6666-2.6667 1.4728 0 2.6667 1.1939 2.6667 2.6667z"/></g><g fill-opacity=".4"><path d="m11.3333 2.66669c0 1.10457-.8955 2-2.00005 2-1.10457 0-2-.89543-2-2s.89543-2.000003 2-2.000003c1.10455 0 2.00005.895433 2.00005 2.000003z"/><path d="m24.6667 2.66669c0 1.10457-.8954 2-2 2-1.1045 0-2-.89543-2-2s.8955-2.000003 2-2.000003c1.1046 0 2 .895433 2 2.000003z"/><path d="m4.66675 9.33331c0 1.10459-.89543 1.99999-2 1.99999s-2.000002-.8954-2.000002-1.99999c0-1.10457.895432-2 2.000002-2s2 .89543 2 2z"/><path d="m31.3333 9.33331c0 1.10459-.8955 1.99999-2 1.99999-1.1046 0-2-.8954-2-1.99999 0-1.10457.8954-2 2-2 1.1045 0 2 .89543 2 2z"/><path d="m4.66675 22.6667c0 1.1046-.89543 2-2 2s-2.000002-.8954-2.000002-2 .895432-2 2.000002-2 2 .8954 2 2z"/><path d="m31.3333 22.6667c0 1.1046-.8955 2-2 2-1.1046 0-2-.8954-2-2s.8954-2 2-2c1.1045 0 2 .8954 2 2z"/><path d="m11.3333 29.3333c0 1.1046-.8955 2-2.00005 2-1.10457 0-2-.8954-2-2s.89543-2 2-2c1.10455 0 2.00005.8954 2.00005 2z"/><path d="m24.6667 29.3333c0 1.1046-.8954 2-2 2-1.1045 0-2-.8954-2-2s.8955-2 2-2c1.1046 0 2 .8954 2 2z"/></g><path d="m3.99992 2.66665c0 .73638-.59695 1.33333-1.33333 1.33333s-1.33334-.59695-1.33334-1.33333.59696-1.33334 1.33334-1.33334 1.33333.59696 1.33333 1.33334z" fill-opacity=".2"/><path d="m30.6667 2.66665c0 .73638-.597 1.33333-1.3334 1.33333-.7363 0-1.3333-.59695-1.3333-1.33333s.597-1.33334 1.3333-1.33334c.7364 0 1.3334.59696 1.3334 1.33334z" fill-opacity=".2"/><path d="m3.99992 29.3333c0 .7364-.59695 1.3334-1.33333 1.3334s-1.33334-.597-1.33334-1.3334c0-.7363.59696-1.3333 1.33334-1.3333s1.33333.597 1.33333 1.3333z" fill-opacity=".2"/><path d="m30.6667 29.3333c0 .7364-.597 1.3334-1.3334 1.3334-.7363 0-1.3333-.597-1.3333-1.3334 0-.7363.597-1.3333 1.3333-1.3333.7364 0 1.3334.597 1.3334 1.3333z" fill-opacity=".2"/><path d="m18.2957 7.97567c.2253.3801.5959.69102 1.0377.69102.4419 0 .8124-.31092 1.0377-.69102.4644-.78362 1.3187-1.30898 2.2956-1.30898 1.4728 0 2.6667 1.1939 2.6667 2.66666 0 1.47275-1.1939 2.66665-2.6667 2.66665-.9769 0-1.8312-.5253-2.2956-1.309-.2253-.3801-.5958-.691-1.0377-.691-.4418 0-.8124.3109-1.0377.691-.4644.7837-1.3187 1.309-2.2956 1.309-.977 0-1.8313-.5254-2.2957-1.309-.2253-.3801-.5958-.691-1.0376-.691s-.8123.3109-1.0376.691c-.2288.386-.5521.7093-.9381.9381-.3801.2252-.691.5958-.691 1.0376s.3109.8124.691 1.0376c.7836.4645 1.309 1.3187 1.309 2.2957s-.5254 1.8312-1.309 2.2957c-.3801.2253-.691.5958-.691 1.0377 0 .4418.3109.8123.691 1.0376.3859.2288.7092.5521.938.938.2253.3801.5958.691 1.0376.691.4419 0 .8124-.3109 1.0377-.691.4645-.7836 1.3187-1.309 2.2957-1.309.9769 0 1.8312.5254 2.2956 1.309.2253.3801.5959.691 1.0377.691.4419 0 .8124-.3109 1.0377-.691.4644-.7836 1.3187-1.309 2.2956-1.309 1.4728 0 2.6667 1.1939 2.6667 2.6667 0 1.4727-1.1939 2.6667-2.6667 2.6667-.9769 0-1.8312-.5254-2.2956-1.309-.2253-.3801-.5958-.691-1.0377-.691-.4418 0-.8124.3109-1.0377.691-.4644.7836-1.3187 1.309-2.2956 1.309-.977 0-1.8312-.5254-2.2957-1.309-.2253-.3801-.5958-.691-1.0377-.691-.4418 0-.8123.3109-1.0376.691-.4645.7836-1.3187 1.309-2.29569 1.309-1.47275 0-2.66666-1.194-2.66666-2.6667 0-.977.52536-1.8312 1.30899-2.2957.38009-.2253.69101-.5958.69101-1.0376 0-.4419-.31092-.8124-.69101-1.0377-.78363-.4645-1.30899-1.3187-1.30899-2.2957 0-.9769.52536-1.8312 1.30897-2.2956.38011-.2253.69103-.5959.69103-1.0377 0-.4419-.31091-.8124-.691-1.0377-.78358-.4645-1.30892-1.3187-1.30892-2.29563 0-1.47276 1.19391-2.66666 2.66667-2.66666.977 0 1.8312.52537 2.2957 1.309.2252.38008.5958.69098 1.0376.69098s.8123-.3109 1.0376-.69099c.4644-.78364 1.3187-1.30901 2.2957-1.30901.9769 0 1.8312.52536 2.2956 1.30898z"/></g></svg>