<svg fill="none" height="32" viewBox="0 0 101 32" width="101" xmlns="http://www.w3.org/2000/svg"><g fill="#fff"><g fill-opacity=".6"><path d="m18.6666 2.66667c0 1.47276-1.1939 2.66666-2.6667 2.66666-1.4727 0-2.6666-1.1939-2.6666-2.66666s1.1939-2.66667 2.6666-2.66667c1.4728 0 2.6667 1.19391 2.6667 2.66667z"/><path d="m5.33333 16c0 1.4728-1.1939 2.6667-2.66666 2.6667s-2.66667-1.1939-2.66667-2.6667 1.19391-2.6667 2.66667-2.6667 2.66666 1.1939 2.66666 2.6667z"/><path d="m18.6666 16c0 1.4728-1.1939 2.6667-2.6667 2.6667-1.4727 0-2.6666-1.1939-2.6666-2.6667s1.1939-2.6667 2.6666-2.6667c1.4728 0 2.6667 1.1939 2.6667 2.6667z"/><path d="m25.3333 16c0 1.4728-1.1939 2.6667-2.6666 2.6667-1.4728 0-2.6667-1.1939-2.6667-2.6667s1.1939-2.6667 2.6667-2.6667c1.4727 0 2.6666 1.1939 2.6666 2.6667z"/><path d="m32.0001 16c0 1.4728-1.1939 2.6667-2.6667 2.6667-1.4727 0-2.6667-1.1939-2.6667-2.6667s1.194-2.6667 2.6667-2.6667c1.4728 0 2.6667 1.1939 2.6667 2.6667z"/><path d="m18.6666 29.3333c0 1.4728-1.1939 2.6667-2.6667 2.6667-1.4727 0-2.6666-1.1939-2.6666-2.6667 0-1.4727 1.1939-2.6666 2.6666-2.6666 1.4728 0 2.6667 1.1939 2.6667 2.6666z"/></g><g fill-opacity=".4"><path d="m11.3333 2.66667c0 1.10457-.8955 2-2.00005 2-1.10457 0-2-.89543-2-2s.89543-1.999998 2-1.999998c1.10455 0 2.00005.895428 2.00005 1.999998z"/><path d="m24.6667 2.66667c0 1.10457-.8954 2-2 2-1.1045 0-2-.89543-2-2s.8955-1.999998 2-1.999998c1.1046 0 2 .895428 2 1.999998z"/><path d="m4.66675 9.33333c0 1.10457-.89543 1.99997-2 1.99997s-2.000002-.8954-2.000002-1.99997.895432-2 2.000002-2 2 .89543 2 2z"/><path d="m31.3333 9.33333c0 1.10457-.8955 1.99997-2 1.99997-1.1046 0-2-.8954-2-1.99997s.8954-2 2-2c1.1045 0 2 .89543 2 2z"/><path d="m4.66675 22.6667c0 1.1045-.89543 2-2 2s-2.000002-.8955-2.000002-2c0-1.1046.895432-2 2.000002-2s2 .8954 2 2z"/><path d="m31.3333 22.6667c0 1.1045-.8955 2-2 2-1.1046 0-2-.8955-2-2 0-1.1046.8954-2 2-2 1.1045 0 2 .8954 2 2z"/><path d="m11.3333 29.3333c0 1.1046-.8955 2-2.00005 2-1.10457 0-2-.8954-2-2 0-1.1045.89543-2 2-2 1.10455 0 2.00005.8955 2.00005 2z"/><path d="m24.6667 29.3333c0 1.1046-.8954 2-2 2-1.1045 0-2-.8954-2-2 0-1.1045.8955-2 2-2 1.1046 0 2 .8955 2 2z"/></g><path d="m3.99992 2.66666c0 .73638-.59695 1.33333-1.33333 1.33333s-1.33334-.59695-1.33334-1.33333.59696-1.33333 1.33334-1.33333 1.33333.59695 1.33333 1.33333z" fill-opacity=".2"/><path d="m30.6667 2.66666c0 .73638-.597 1.33333-1.3334 1.33333-.7363 0-1.3333-.59695-1.3333-1.33333s.597-1.33333 1.3333-1.33333c.7364 0 1.3334.59695 1.3334 1.33333z" fill-opacity=".2"/><path d="m3.99992 29.3333c0 .7364-.59695 1.3334-1.33333 1.3334s-1.33334-.597-1.33334-1.3334c0-.7363.59696-1.3333 1.33334-1.3333s1.33333.597 1.33333 1.3333z" fill-opacity=".2"/><path d="m30.6667 29.3333c0 .7364-.597 1.3334-1.3334 1.3334-.7363 0-1.3333-.597-1.3333-1.3334 0-.7363.597-1.3333 1.3333-1.3333.7364 0 1.3334.597 1.3334 1.3333z" fill-opacity=".2"/><path d="m18.2957 7.97566c.2253.3801.5959.69101 1.0377.69101.4419 0 .8124-.31091 1.0377-.69101.4644-.78362 1.3187-1.30899 2.2956-1.30899 1.4728 0 2.6667 1.19391 2.6667 2.66667s-1.1939 2.66666-2.6667 2.66666c-.9769 0-1.8312-.5254-2.2956-1.309-.2253-.3801-.5958-.691-1.0377-.691-.4418 0-.8124.3109-1.0377.691-.4644.7836-1.3187 1.309-2.2956 1.309-.977 0-1.8313-.5254-2.2957-1.309-.2253-.3801-.5958-.691-1.0376-.691s-.8124.3109-1.0376.691c-.2288.386-.5521.7093-.9381.9381-.3801.2252-.691.5958-.691 1.0376s.3109.8124.691 1.0376c.7836.4645 1.309 1.3187 1.309 2.2957s-.5254 1.8312-1.309 2.2957c-.3801.2252-.691.5958-.691 1.0376 0 .4419.3109.8124.691 1.0377.3859.2288.7092.5521.938.938.2253.3801.5958.691 1.0376.691.4419 0 .8124-.3109 1.0377-.691.4645-.7836 1.3187-1.309 2.2957-1.309.9769 0 1.8312.5254 2.2956 1.309.2253.3801.5959.691 1.0377.691.4419 0 .8124-.3109 1.0377-.691.4644-.7836 1.3187-1.309 2.2956-1.309 1.4728 0 2.6667 1.1939 2.6667 2.6667 0 1.4727-1.1939 2.6666-2.6667 2.6666-.9769 0-1.8312-.5253-2.2956-1.3089-.2253-.3801-.5958-.6911-1.0377-.6911-.4418 0-.8124.311-1.0377.6911-.4644.7836-1.3187 1.3089-2.2956 1.3089-.977 0-1.8312-.5253-2.2957-1.3089-.2253-.3801-.5958-.6911-1.0377-.6911-.4418 0-.8123.311-1.0376.6911-.4645.7836-1.3187 1.3089-2.29569 1.3089-1.47275 0-2.66666-1.1939-2.66666-2.6666 0-.977.52536-1.8312 1.30899-2.2957.38009-.2253.69101-.5958.69101-1.0377 0-.4418-.31092-.8124-.69101-1.0376-.78363-.4645-1.30899-1.3187-1.30899-2.2957 0-.9769.52535-1.8312 1.30897-2.2956.38011-.2253.69103-.5959.69103-1.0377 0-.4419-.31091-.8124-.691-1.0377-.78359-.4645-1.30892-1.3187-1.30892-2.29566 0-1.47276 1.19391-2.66666 2.66667-2.66666.977 0 1.8312.52537 2.2957 1.30902.2252.38008.5958.69097 1.0376.69097s.8123-.31089 1.0376-.69098c.4644-.78364 1.3187-1.30902 2.2957-1.30902.9769 0 1.8312.52537 2.2956 1.30899z"/><path d="m47.088 11.5733c-.448.608-1.0293 1.104-1.744 1.488-.7146.3734-1.5733.56-2.576.56-.864 0-1.664-.144-2.4-.432-.7253-.2986-1.3546-.7093-1.888-1.232-.5226-.5333-.9333-1.1626-1.232-1.888-.2986-.73596-.448-1.5413-.448-2.41596 0-.88534.1494-1.69067.448-2.416.3094-.736.7307-1.36 1.264-1.872.544-.52267 1.184-.928 1.92-1.21601.736-.28799 1.536-.43199 2.4-.43199.384 0 .7734.03733 1.168.112.3947.07466.7734.18666 1.136.336.3627.14933.6934.336.992.56.2987.21333.5547.464.768.75199l-1.248.96001c-.2773-.384-.672-.69867-1.184-.944-.5013-.256-1.0453-.38401-1.632-.38401-.6613 0-1.2586.12267-1.792.368-.5226.23467-.9706.56001-1.344.97601-.3733.416-.6613.90133-.864 1.456-.2026.544-.304 1.12533-.304 1.744 0 .64.096 1.23733.288 1.792.2027.55466.4854 1.03996.848 1.45596.3734.4054.8214.7254 1.344.96.5334.2347 1.1254.352 1.776.352.64 0 1.2214-.128 1.744-.384.5227-.256.9547-.6293 1.296-1.12z"/><path d="m56.1167 9.52534c0 .58666-.1067 1.12536-.32 1.61596-.2027.4907-.4907.9174-.864 1.28-.3627.352-.7947.6294-1.296.832-.5014.192-1.04.288-1.616.288s-1.1147-.096-1.616-.288c-.5014-.2026-.9334-.48-1.296-.832-.3627-.3626-.6507-.7893-.864-1.28-.2027-.4906-.304-1.0293-.304-1.61596 0-.58667.1013-1.12.304-1.6.2133-.49067.5013-.912.864-1.264.3626-.352.7946-.624 1.296-.816.5013-.20267 1.04-.304 1.616-.304s1.1146.10133 1.616.304c.5013.192.9333.464 1.296.816.3733.352.6613.77333.864 1.264.2133.48.32 1.01333.32 1.6zm-1.568 0c0-.36267-.0587-.70934-.176-1.04-.1067-.33067-.2667-.61867-.48-.864-.2134-.256-.48-.45867-.8-.608-.3094-.14934-.6667-.224-1.072-.224-.4054 0-.768.07466-1.088.224-.3094.14933-.5707.352-.784.608-.2134.24533-.3787.53333-.496.864-.1067.33066-.16.67733-.16 1.04 0 .36266.0533.70936.16 1.03996.1173.3307.2826.624.496.88.2133.256.4746.4587.784.608.32.1494.6826.224 1.088.224.4053 0 .7626-.0746 1.072-.224.32-.1493.5866-.352.8-.608.2133-.256.3733-.5493.48-.88.1173-.3306.176-.6773.176-1.03996z"/><path d="m58.2023 7.38134c0-.20267-.0053-.464-.016-.784s-.0267-.60267-.048-.848h1.424c.0213.192.0373.416.048.672.0107.24533.016.448.016.608h.048c.2133-.448.5227-.80534.928-1.072.416-.27734.88-.416 1.392-.416.2347 0 .432.02133.592.064l-.064 1.392c-.2133-.05334-.4427-.08-.688-.08-.3627 0-.6773.06933-.944.208-.2667.128-.4907.304-.672.528-.1707.224-.2987.48533-.384.784-.0853.288-.128.592-.128.912v3.98396h-1.504z"/><path d="m68.0952 7.66934c-.1707-.27734-.4107-.50134-.72-.672-.3094-.18134-.656-.272-1.04-.272-.1707 0-.3414.02133-.512.064-.1707.032-.3254.09066-.464.176-.128.07466-.2347.176-.32.304-.0747.11733-.112.26666-.112.448 0 .32.144.56.432.72.288.14933.72.288 1.296.416.3626.08533.6986.18666 1.008.304.3093.11733.576.26666.8.448.2346.17066.416.37866.544.62396.128.2454.192.5334.192.864 0 .448-.0854.8267-.256 1.136-.1707.3094-.4.5654-.688.768-.2774.192-.5974.3307-.96.416-.3627.0854-.736.128-1.12.128-.576 0-1.1414-.112-1.696-.336-.544-.224-.9974-.5653-1.36-1.024l1.072-.912c.2026.2987.48.5494.832.752.3626.2027.7573.304 1.184.304.192 0 .3733-.016.544-.048.1813-.0426.3413-.1066.48-.192.1493-.0853.2666-.1973.352-.336.0853-.1386.128-.3146.128-.528 0-.352-.1707-.6133-.512-.784-.3307-.1706-.8214-.3306-1.472-.47996-.256-.064-.5174-.13867-.784-.224-.256-.096-.4907-.224-.704-.384-.2134-.16-.3894-.35734-.528-.592-.128-.24534-.192-.544-.192-.896 0-.40534.08-.752.24-1.04.1706-.29867.3893-.53867.656-.72.2666-.192.5706-.33067.912-.416.3413-.096.6933-.144 1.056-.144.544 0 1.0666.10666 1.568.32.512.21333.9066.52266 1.184.928z"/><path d="m72.6765 6.90134c.1814-.37334.4907-.69334.928-.96.4374-.26667.928-.4 1.472-.4.4907 0 .912.08533 1.264.256.352.16.6454.37866.88.656.2347.27733.4054.60266.512.976.1174.37333.176.77333.176 1.2v4.70396h-1.504v-4.19196c0-.30934-.0266-.60267-.08-.88-.0426-.27734-.128-.52267-.256-.736-.128-.21334-.304-.384-.528-.512-.2133-.128-.496-.192-.848-.192-.5973 0-1.088.22933-1.472.688-.384.448-.576 1.05066-.576 1.808v4.01596h-1.504v-12.09596h1.504v5.664z"/><path d="m85.1723 8.42134c0-.56534-.1707-.98134-.512-1.248-.3413-.27734-.7947-.416-1.36-.416-.4267 0-.832.08533-1.216.256-.3733.16-.688.368-.944.624l-.8-.96c.3733-.352.8267-.62934 1.36-.832.544-.20267 1.1253-.304 1.744-.304.544 0 1.0133.08 1.408.24.4053.14933.736.35733.992.624.256.26666.448.58133.576.944.128.36266.192.752.192 1.168v3.31196c0 .256.0053.528.016.816.0213.2774.0533.5067.096.688h-1.36c-.0853-.3626-.128-.7253-.128-1.088h-.048c-.2773.4054-.6293.72-1.056.944-.416.224-.912.336-1.488.336-.2987 0-.6133-.0426-.944-.128-.32-.0746-.6133-.2026-.88-.384-.2667-.1813-.4907-.4213-.672-.72-.1707-.2986-.256-.6666-.256-1.104 0-.576.1547-1.0293.464-1.35996.3093-.34134.7147-.59734 1.216-.768.5013-.18134 1.0667-.29867 1.696-.352.6293-.05334 1.264-.08 1.904-.08zm-.368 1.296c-.3733 0-.7627.016-1.168.048-.3947.032-.7573.096-1.088.192-.32.09596-.5867.23996-.8.43196s-.32.448-.32.768c0 .224.0427.4107.128.56.096.1494.2187.272.368.368s.3147.1654.496.208c.1813.032.368.048.56.048.704 0 1.2427-.208 1.616-.624.384-.4266.576-.96.576-1.6v-.39996z"/><path d="m90.5962 6.99734c.192-.40534.496-.74667.912-1.024.4266-.288.928-.432 1.504-.432.512 0 .9706.11733 1.376.352.416.23466.7413.624.976 1.168.256-.49067.6133-.864 1.072-1.12.4586-.26667.96-.4 1.504-.4.4906 0 .912.08533 1.264.256.352.16.6453.37866.8798.656.235.27733.405.60266.512.976.117.37333.176.77333.176 1.2v4.70396h-1.5038v-4.20796c0-.30934-.0267-.60267-.08-.88-.0534-.27734-.144-.52267-.272-.736-.128-.21334-.2987-.384-.512-.512-.2134-.128-.4854-.192-.816-.192-.3414 0-.6347.07466-.88.224-.2454.13866-.448.32533-.608.56-.1494.224-.2614.48-.336.768-.064.288-.096.58133-.096.88v4.09596h-1.504v-4.51196c0-.29867-.0267-.57067-.08-.816-.0534-.24534-.144-.45334-.272-.624-.128-.18134-.2934-.32-.496-.416-.2027-.10667-.4534-.16-.752-.16-.5547 0-1.0187.22933-1.392.688-.3627.448-.544 1.05066-.544 1.808v4.03196h-1.504v-5.95196c0-.20267-.0054-.464-.016-.784-.0107-.32-.0267-.60267-.048-.848h1.424c.0213.192.0373.41066.048.656.0106.23466.016.432.016.592z"/><path d="m43.008 20.1013c-.224-.3093-.528-.56-.912-.752-.384-.2026-.816-.304-1.296-.304-.256 0-.5173.0374-.784.112-.256.064-.4906.176-.704.336-.2133.1494-.3893.3414-.528.576-.128.224-.192.496-.192.816 0 .3094.0587.5707.176.784.128.2027.2934.3787.496.528.2134.1387.4587.2614.736.368.288.096.592.1974.912.304.384.1174.7734.2507 1.168.4.3947.1494.752.3467 1.072.592.32.2454.5814.5547.784.928.2027.3627.304.8267.304 1.392 0 .5867-.112 1.0987-.336 1.536-.2133.4267-.5013.784-.864 1.072-.3626.2774-.784.4854-1.264.624-.4693.1387-.9546.208-1.456.208-.7146 0-1.408-.1386-2.08-.416-.6613-.2773-1.2106-.688-1.648-1.232l1.232-1.04c.2667.3947.624.7147 1.072.96.448.2454.9334.368 1.456.368.2667 0 .5334-.0373.8-.112.2667-.0746.5067-.192.72-.352.224-.16.4054-.3573.544-.592.1387-.2453.208-.5386.208-.88 0-.3413-.0746-.624-.224-.848-.1386-.2346-.3306-.432-.576-.592-.2453-.16-.5333-.2933-.864-.4-.32-.1173-.6613-.2346-1.024-.352-.3626-.1066-.72-.2346-1.072-.384-.352-.16-.6666-.3573-.944-.592-.2773-.2453-.5013-.544-.672-.896-.1706-.352-.256-.7893-.256-1.312 0-.5653.112-1.0506.336-1.456.2347-.4053.5334-.7413.896-1.008.3734-.2666.7894-.4586 1.248-.576.4694-.128.9387-.192 1.408-.192.6614 0 1.28.1174 1.856.352.576.2347 1.04.5494 1.392.944z"/><path d="m51.7174 23.6693c-.16-.2453-.4-.448-.72-.608-.32-.1706-.6613-.256-1.024-.256-.3947 0-.7467.0747-1.056.224-.2987.1494-.5547.352-.768.608-.2133.2454-.3787.5334-.496.864-.1067.3307-.16.6774-.16 1.04 0 .3627.0533.7094.16 1.04.1173.3307.2827.624.496.88.2133.2454.4747.4427.784.592.3093.1494.6613.224 1.056.224.384 0 .7307-.0746 1.04-.224.32-.1493.5813-.352.784-.608l1.008.912c-.32.3734-.72.6667-1.2.88-.48.2027-1.024.304-1.632.304-.5867 0-1.1307-.096-1.632-.288-.4907-.192-.9173-.4586-1.28-.8-.3627-.352-.6506-.7733-.864-1.264-.2026-.4906-.304-1.04-.304-1.648 0-.5973.1014-1.1413.304-1.632.2027-.4906.4853-.912.848-1.264s.7893-.624 1.28-.816c.5013-.192 1.04-.288 1.616-.288.5333 0 1.0613.1067 1.584.32.5333.2134.9547.5227 1.264.928z"/><path d="m55.8317 29.3333h-1.504v-7.584h1.504zm.256-10.32c0 .2774-.1014.5067-.304.688-.192.1814-.4267.272-.704.272-.2774 0-.512-.0906-.704-.272-.192-.192-.288-.4213-.288-.688 0-.2773.096-.5066.288-.688.192-.192.4266-.288.704-.288.2773 0 .512.096.704.288.2026.1814.304.4107.304.688z"/><path d="m64.0043 24.8693c-.0107-.2986-.064-.576-.16-.832-.0853-.2666-.2187-.496-.4-.688-.1707-.192-.3893-.3413-.656-.448-.256-.1173-.56-.176-.912-.176-.32 0-.624.0587-.912.176-.2773.1067-.5227.256-.736.448-.2027.192-.3733.4214-.512.688-.128.256-.2027.5334-.224.832zm1.52.608v.256c0 .0854-.0053.1707-.016.256h-6.016c.0107.32.08.624.208.912.1387.2774.32.5227.544.736.224.2027.48.3627.768.48.2987.1174.6133.176.944.176.512 0 .9547-.112 1.328-.336s.6667-.496.88-.816l1.056.848c-.4053.5334-.8853.928-1.44 1.184-.544.2454-1.152.368-1.824.368-.576 0-1.1093-.096-1.6-.288s-.912-.4586-1.264-.8c-.352-.352-.6293-.7733-.832-1.264-.2027-.4906-.304-1.0346-.304-1.632 0-.5866.096-1.1253.288-1.616.2027-.5013.48-.928.832-1.28s.768-.624 1.248-.816c.48-.2026.9973-.304 1.552-.304s1.056.0907 1.504.272c.4587.1814.8427.4427 1.152.784.32.3414.5653.7574.736 1.248.1707.48.256 1.024.256 1.632z"/><path d="m68.9842 21.7493c.0213.192.0373.4107.048.656.0106.2347.016.432.016.592h.048c.096-.2026.224-.3893.384-.56.1706-.1813.3626-.336.576-.464.2133-.1386.448-.2453.704-.32.256-.0746.5226-.112.8-.112.4906 0 .912.0854 1.264.256.352.16.6453.3787.88.656.2346.2774.4053.6027.512.976.1173.3734.176.7734.176 1.2v4.704h-1.504v-4.208c0-.3093-.0267-.6026-.08-.88-.0427-.2773-.128-.5226-.256-.736-.128-.2133-.304-.384-.528-.512s-.512-.192-.864-.192c-.5974 0-1.088.2294-1.472.688-.3734.448-.56 1.0507-.56 1.808v4.032h-1.504v-5.952c0-.2026-.0054-.464-.016-.784-.0107-.32-.0267-.6026-.048-.848z"/><path d="m82.2487 23.6693c-.16-.2453-.4-.448-.72-.608-.32-.1706-.6614-.256-1.024-.256-.3947 0-.7467.0747-1.056.224-.2987.1494-.5547.352-.768.608-.2134.2454-.3787.5334-.496.864-.1067.3307-.16.6774-.16 1.04 0 .3627.0533.7094.16 1.04.1173.3307.2826.624.496.88.2133.2454.4746.4427.784.592.3093.1494.6613.224 1.056.224.384 0 .7306-.0746 1.04-.224.32-.1493.5813-.352.784-.608l1.008.912c-.32.3734-.72.6667-1.2.88-.48.2027-1.024.304-1.632.304-.5867 0-1.1307-.096-1.632-.288-.4907-.192-.9174-.4586-1.28-.8-.3627-.352-.6507-.7733-.864-1.264-.2027-.4906-.304-1.04-.304-1.648 0-.5973.1013-1.1413.304-1.632.2026-.4906.4853-.912.848-1.264.3626-.352.7893-.624 1.28-.816.5013-.192 1.04-.288 1.616-.288.5333 0 1.0613.1067 1.584.32.5333.2134.9546.5227 1.264.928z"/><path d="m90.3949 24.8693c-.0107-.2986-.064-.576-.16-.832-.0853-.2666-.2187-.496-.4-.688-.1707-.192-.3893-.3413-.656-.448-.256-.1173-.56-.176-.912-.176-.32 0-.624.0587-.912.176-.2773.1067-.5227.256-.736.448-.2027.192-.3733.4214-.512.688-.128.256-.2027.5334-.224.832zm1.52.608v.256c0 .0854-.0053.1707-.016.256h-6.016c.0107.32.08.624.208.912.1387.2774.32.5227.544.736.224.2027.48.3627.768.48.2987.1174.6133.176.944.176.512 0 .9547-.112 1.328-.336s.6667-.496.88-.816l1.056.848c-.4053.5334-.8853.928-1.44 1.184-.544.2454-1.152.368-1.824.368-.576 0-1.1093-.096-1.6-.288-.4906-.192-.912-.4586-1.264-.8-.352-.352-.6293-.7733-.832-1.264-.2027-.4906-.304-1.0346-.304-1.632 0-.5866.096-1.1253.288-1.616.2027-.5013.48-.928.832-1.28s.768-.624 1.248-.816c.48-.2026.9973-.304 1.552-.304s1.056.0907 1.504.272c.4587.1814.8427.4427 1.152.784.32.3414.5653.7574.736 1.248.1707.48.256 1.024.256 1.632z"/></g></svg>