<svg fill="none" height="16" viewBox="0 0 66 16" width="66" xmlns="http://www.w3.org/2000/svg"><g fill="#000"><path d="m13.5361 2.90603-.8761 2.32452-2.4087.28491c-.0704-.06093-.1431-.11993-.2188-.17735-.78591-.59705-1.67595-.94667-2.6695-1.04861-.22459-.0216-.44409-.02809-.65868-.01993l.83911-2.1534-1.81229-2.0638373c.54498-.04706111 1.08899-.0623384 1.63186-.04600749.32715.00825329.65113.03345209.97301.07515739.45296.0587384.90092.1509294 1.34361.2761334.93638.263489 1.79028.691074 2.56128 1.283034.4865.3735.9183.79512 1.2952 1.26538z"/><path d="m3.51416 2.27334c.28447-.16761.58194-.31582.89232-.44471.65446-.27096 1.32886-.43953 2.02345-.50547l.75254.85667-.34321.88143c-.67782.13556-1.31569.38176-1.91388.73875-.04364.02599-.08675.05268-.12942.08008l-.12705-1.16055z"/><path d="m4.38023 2.94098-1.19426-.4621c-.39747.26498-.76808.57044-1.11138.91664-.57571.58071-1.03412 1.2386-1.37531 1.97367l1.36943-.28904.83366 1.01831c.0288-.06611.05918-.13214.0914-.1979.36078-.73849.86493-1.34572 1.5114-1.82178z"/><path d="m11.3622 9.85712c-.084.22358-.1901.44338-.3181.65938-.5133.8637-1.23032 1.4915-2.15135 1.8826l-.03152.0132-.42153 1.8514 1.608 1.3596.0558-.0173c.935-.2948 1.7731-.7638 2.515-1.4064.7305-.6333 1.3187-1.3798 1.765-2.2397.1699-.3278.3173-.6627.4411-1.0049l-2.1694.4676z"/><path d="m14.1347 3.7699c-.1175-.19659-.242-.38659-.3746-.56974l-.8742 2.31908-2.3409.27727c.4958.52496.8196 1.15897.9715 1.90168.1281.62637.1147 1.22824-.0406 1.80544l1.2991 1.57187 2.1663-.4659c.136-.4337.2361-.8783.3007-1.33469.1346-.94912.108-1.89421-.08-2.83482-.1894-.94816-.5318-1.83837-1.0273-2.67019z"/><path d="m1.94744 5.42389-1.399283.29492c-.003512.00861-.006936.01747-.010273.02634-.356734.89899-.53593475 1.83223-.53786637 2.79909-.00122921.57992.06181167 1.14781.18912237 1.70326l1.06142-1.25408 1.47734.33707c-.06164-.20923-.11046-.42487-.14593-.64648-.12564-.7801-.06243-1.5315.18991-2.25375z"/><path d="m3.78185 11.2213c-.41302-.468-.72567-.9828-.93789-1.54426l-1.47698-.33733-1.082495 1.27759c.07147.2528.156812.5028.2555.7503.362265.9051.883625 1.7064 1.563995 2.4044.40564.4161.85008.7757 1.33369 1.0784l-.07937-1.911 1.46688-.8392c-.38325-.2325-.73111-.5254-1.04333-.8789z"/><path d="m6.15701 12.6357c-.3591-.0826-.6967-.2023-1.01225-.3592l-1.46654.8391.0792 1.9237c.22336.124.45428.2368.69336.3383.89249.38 1.82318.5853 2.79303.6168.83103.0298 1.64512-.0593 2.44173-.2676l-1.59253-1.3464.4175-1.8382c-.76413.2486-1.54863.2801-2.3535.0935z"/><path clip-rule="evenodd" d="m53.3048 11.5575c1.032-1.0318 1.5767-3.11872 1.5767-4.77683 0-.92744-.2087-2.48107-1.901-2.48107-.6842 0-1.2522.26665-1.7162.71873-1.0782 1.0551-1.6233 3.1423-1.6233 4.7307 0 .85777.2435 2.55057 1.936 2.55057.6845 0 1.241-.255 1.7278-.7421zm-2.1682-1.66939c0-1.15941.4059-3.33941 1.1249-4.06965.1622-.16225.3362-.24355.5214-.24355.5335 0 .603.59142.603 1.08978 0 .84648-.3361 3.36251-1.1132 4.12761-.1385.1508-.3125.232-.4751.232-.6031 0-.661-.6957-.661-1.13619z" fill-rule="evenodd"/><path d="m42.9737 10.9895c-.4174 0-.8231-.1159-1.0781-.2668l-.371 1.2638c.1853.1159.6841.29 1.4608.29 1.4839 0 2.5621-.9507 2.5621-2.574 0-.6261-.3012-1.31025-.9389-1.87823-.626-.55657-.7768-.84649-.7768-1.21736.0114-.60301.4288-.99732 1.0434-.99732.3593 0 .6145.0813.8463.20887l.3944-1.25221c-.1856-.11598-.5684-.24356-1.1714-.24356-1.5301 0-2.5505 1.02051-2.5505 2.46975 0 .68414.313 1.31007.9275 1.88982.4871.48685.7768.78836.7768 1.30998 0 .61456-.4635 1.02026-1.1246.99726z"/><path d="m21.5423 8.75188h-1.7159l-.4287 2.16812h1.9708l-.2548 1.2868h-3.409l1.496-7.81457h3.2692l-.255 1.27539h-1.7969l-.3829 1.85514h1.7508z"/><path d="m22.5939 4.39223.2431 7.81457h1.5772l3.2695-7.81457h-1.6002l-1.4025 3.95375c-.2438.69573-.5106 1.61149-.6728 2.21442h-.0232c.0463-.60293.093-1.50727.1158-2.21442l.1045-3.95375z"/><path d="m28.6064 8.75188h1.7157l.2435-1.22912h-1.7508l.3828-1.85514h1.797l.2551-1.27539h-3.2695l-1.4958 7.81457h3.4087l.2552-1.2868h-1.9711z"/><path d="m32.1366 4.39223-1.496 7.81457h1.2405l.3941-2.0755c.2555-1.35632.4294-2.64339.5337-3.43176h.0231c.081.97406.1505 1.50728.3942 2.59732l.6263 2.90994h1.2404l1.4957-7.81457h-1.2523l-.3827 2.02925c-.2017 1.0763-.3317 2.18439-.4299 3.02077l-.0001.0011-.0008.00693c-.02.16968-.0386.3281-.0562.47269h-.0232c-.058-.64937-.1853-1.39182-.3823-2.42339l-.6031-3.10735z"/><path d="m36.5972 5.76043h1.3566l-1.2293 6.44637h1.4495l1.229-6.44637h1.3567l.2668-1.3682h-4.1624z"/><path d="m47.5185 5.76043h-1.3566l.2669-1.3682h4.162l-.2665 1.3682h-1.3568l-1.2287 6.44637h-1.4496z"/><path clip-rule="evenodd" d="m57.6964 4.35737c-.522 0-1.0669.05804-1.5538.13934l-1.4725 7.70999h1.4146l.5796-3.13031h.2435c.4868 0 .684.3131.684 1.26381 0 .8581.0234 1.6463.0582 1.8665h1.4607c-.0783-.2796-.1025-1.1857-.1251-2.0303l-.0025-.0912c-.0231-.86947-.2085-1.32182-.6376-1.51884v-.02336c.893-.30124 1.5883-1.21735 1.5883-2.36508 0-.5103-.1854-.96247-.51-1.28707-.4059-.40573-1.0552-.53348-1.7274-.53348zm-.4636 3.59439h-.3364l.4521-2.4233c.0929-.02309.232-.03486.3824-.03486.545 0 .7189.44076.7189.85808 0 .82313-.4871 1.60008-1.217 1.60008z" fill-rule="evenodd"/><path d="m61.7356 8.75188h1.7158l.2435-1.22912h-1.7507l.3828-1.85514h1.7967l.2551-1.27539h-3.2692l-1.4958 7.81457h3.4086l.255-1.2868h-1.9707z"/><g clip-rule="evenodd" fill-rule="evenodd"><path d="m64.7372 11.2749v.6655h.1744v-.2354h.0366l.0383.0024c.0266.0016.0464.0052.0594.0106.0239.0093.0402.0255.0489.0489.0055.0141.0091.0412.0111.0815.0018.0402.0055.0708.011.092h.1661l-.0061-.0187c-.0024-.0065-.0039-.0131-.0048-.0196s-.0014-.013-.0014-.0196v-.0594c0-.0679-.0195-.1177-.0586-.1493-.0211-.0169-.0527-.0298-.0945-.0385.0456-.0049.084-.0197.1153-.0446.0312-.0248.0468-.0652.0468-.1211 0-.0734-.0296-.1263-.0887-.1589-.0348-.0189-.0785-.0304-.1312-.0342-.0092-.0005-.055-.001-.1373-.0012l-.0732-.0002zm.2167.1172c.0435 0 .0771.0047.101.0139.0359.0142.0538.0394.0538.0758 0 .0363-.0114.0628-.0343.079-.0228.0163-.0546.0244-.0952.0244h-.0676v-.1931z"/><path d="m65.4206 12.0373c-.1167.1129-.2568.1695-.4203.1695-.1688 0-.3111-.0579-.4268-.1735-.1156-.1158-.1735-.2579-.1735-.4268 0-.1755.0624-.3212.1873-.4375.1173-.1086.2551-.1629.413-.1629.1656 0 .3071.0586.4244.1759s.1759.2588.1759.4245c0 .1704-.0599.3141-.18.4308zm-.773-.7787c-.0956.0977-.1433.2138-.1433.3479 0 .1389.0486.257.1458.3542.0967.0972.2133.1458.3501.1458.1364 0 .2529-.0488.3496-.1466.0966-.0983.1449-.2161.1449-.3534 0-.1337-.0481-.2496-.144-.3479-.0973-.0999-.2141-.1499-.3505-.1499-.1378 0-.2554.05-.3526.1499z"/></g></g></svg>