<svg fill="none" height="32" viewBox="0 0 32 32" width="32" xmlns="http://www.w3.org/2000/svg" xmlns:xlink="http://www.w3.org/1999/xlink"><linearGradient id="a" gradientUnits="userSpaceOnUse" x1="25.3768" x2="17.251" y1="19.0178" y2="7.80393"><stop offset="0" stop-color="#4d9b46"/><stop offset="1" stop-color="#5ab552"/></linearGradient><linearGradient id="b" gradientUnits="userSpaceOnUse" x1="22.599" x2="19.8445" y1="21.5143" y2="16.4026"><stop offset="0" stop-color="#4d9b46" stop-opacity=".01"/><stop offset="1" stop-color="#4d9b46"/></linearGradient><linearGradient id="c"><stop offset="0" stop-color="#222" stop-opacity=".01"/><stop offset="1" stop-color="#222"/></linearGradient><linearGradient id="d" gradientUnits="userSpaceOnUse" x1="12.79" x2="13.6997" xlink:href="#c" y1="10.3206" y2="9.43153"/><linearGradient id="e" gradientUnits="userSpaceOnUse" x1="14.93" x2="15.4116" xlink:href="#c" y1="9.42517" y2="8.98009"/><linearGradient id="f" gradientUnits="userSpaceOnUse" x1="10.9054" x2="11.3869" xlink:href="#c" y1="11.7488" y2="11.3037"/><linearGradient id="g"><stop offset="0" stop-color="#222"/><stop offset="1" stop-color="#222" stop-opacity=".01"/></linearGradient><linearGradient id="h" gradientUnits="userSpaceOnUse" x1="23.7394" x2="20.1498" xlink:href="#g" y1="11.3148" y2="9.19533"/><linearGradient id="i" gradientUnits="userSpaceOnUse" x1="15.4348" x2="14.9611" xlink:href="#g" y1="19.8594" y2="15.4019"/><linearGradient id="j" gradientUnits="userSpaceOnUse" x1="26.3605" x2="23.7587" xlink:href="#g" y1="16.9605" y2="15.3045"/><circle cx="16" cy="16" fill="#435261" r="16"/><g clip-rule="evenodd" fill-rule="evenodd"><path d="m10.0056 12.586c-.5577.3176-.7436 1.0302-.42603 1.5879l5.80913 10.0614c.3176.5577 1.0302.7436 1.5878.426l6.0338-3.4855c.5577-.3176.7436-1.0301.426-1.5878l-5.8091-10.06146c-.3176-.55768-1.0302-.74357-1.5879-.426z" fill="url(#a)"/><path d="m17.2709 25.1647c0 .0078.0077.0155.0077.0233.1627.2633.5112.3485.7823.1936.0078 0 .0155-.0077.0233-.0077l.9836-.5732c.0078 0 .0155-.0077.0233-.0077.2556-.1627.3485-.4957.2014-.7591l-.0155-.0232-.2944-.5035-.5034.2943-1.0069.581-.5035.2943zm4.0199-2.3236c.0078.0077.0078.0155.0155.0232.1627.2634.5112.3486.7823.1937.0077 0 .0155-.0078.0232-.0078l.9837-.5731c.0078 0 .0155-.0078.0233-.0078.2556-.1627.3485-.4957.2013-.7591l-.0155-.0232-.2943-.5035-.5034.2944-1.007.5809-.5034.2943z" fill="#4d9b46"/><path d="m11.9109 8.79845c.488-.27883 2.1688 1.43295 2.1688 1.43295l-2.0138 1.1618s-.6662-2.29267-.155-2.59475zm-1.4329 2.16875c.2401-.1394 1.0844.7126 1.0844.7126l-1.0069.5809c0 .0078-.3331-1.1463-.0775-1.2935zm4.0277-2.32365c.2401-.13942 1.0844.71258 1.0844.71258l-1.007.58092c0 .00774-.333-1.14634-.0774-1.2935z" fill="#ced900"/><path d="m19.9353 13.5155-1.735-2.9975c-.0077-1.57238.3796-2.89686 1.2316-3.37708 1.5491-.87525 4.0586 2.587 3.7875 3.22988-.1781.426-1.3167-.75906-1.5336-.40277-.2633.44147.9914 1.61877.7591 2.09127-.2246.4648-1.4639-.7048-1.6808-.2943-.1859.3563.9062 1.7582.6351 2.2539-.2168.4028-1.4639-.5034-1.4639-.5034zm-8.0476 4.6473s-1.7272-2.9975-1.735-2.9975c-1.36318-.7901-2.69541-1.1154-3.53967-.6197-1.53361.9063.20913 4.81.90623 4.8952.45698.0542 0-1.5181.41826-1.5336.5112-.0078.90622 1.6653 1.43292 1.704.5112.031.12393-1.6188.58866-1.6033.4028.0155 1.0689 1.6653 1.6343 1.6808.4492.0155.2943-1.5259.2943-1.5259zm9.7826-1.6421c2.8581.7669 2.9821-1.8899 3.8728-2.2074.8907-.3176.6119 3.6404-2.13 5.2205 0 .0077-1.7428-3.0131-1.7428-3.0131z" fill="#4d9b46"/><path d="m16.3723 23.6156.3176.55c.1627.2788.5112.3717.7901.2091l5.0345-2.9046c.2789-.1626.3718-.5112.2169-.79l-.3175-.55c-1.1154-1.9286-3.6559-3.2066-5.3212-2.2462-1.6653.9682-1.828 3.8031-.7204 5.7317z" fill="url(#b)"/><g fill="#fff"><path d="m16.3725 23.6156.0232.0388 6.0338-3.4855-.0233-.0387c-.1859-.3253-.4105-.6274-.6661-.9063l-5.8169 3.3616c.1162.3563.2634.7048.4493 1.0301z" opacity=".25"/><path d="m20.8183 18.4184c-.3872-.2711-.8055-.488-1.2238-.6351l-3.8495 2.2229c-.0852.4415-.1007.9063-.0619 1.3787z" opacity=".35"/></g></g><path d="m14.4593 18.6198c-.2557.0852-.8443-.945-.8443-.945l1.0611-.3408c0 .0078.0542 1.2006-.2168 1.2858z" fill="#fff"/><path d="m19.0291 15.9863c.2014-.1782-.395-1.2006-.395-1.2006l-.8211.7514c0-.0078 1.007.6351 1.2161.4492z" fill="#fff"/><path d="m15.2029 11.5946c-.5577.3253-.2866 1.3554.1472 2.1145.4337.7591 1.2392 1.1076 1.7969.7901.5577-.3176.6507-1.1929.2169-1.9519-.4415-.7591-1.6033-1.278-2.161-.9527z" fill="#fff"/><path d="m12.5849 13.105c.5577-.3176 1.3245.426 1.7582 1.185.4338.7591.3408 1.6343-.2168 1.9519-.5577.3253-1.3632-.031-1.797-.79-.4415-.7591-.3021-2.0294.2556-2.3469z" fill="#fff"/><g fill="#000"><path d="m15.5823 13.5232c-.2401-.4182-.1007-.9527.3176-1.1928.4182-.2401.9527-.1007 1.1928.3176.2401.4182.1007.9527-.3176 1.1928-.4182.2478-.9527.1007-1.1928-.3176z"/><path d="m12.902 17.7252c1.8378.1413 5.3908-1.9252 6.1371-3.5462.0242-.0526.0012-.1149-.0514-.1392-.0526-.0242-.1149-.0012-.1391.0515-.7095 1.5409-4.1798 3.5594-5.9305 3.4247-.0577-.0044-.1081.0388-.1126.0966-.0044.0577.0388.1081.0965.1126z"/><path d="m15.9386 15.1962c-.1317-.2246-.1394-.4569-.031-.5189.1085-.062.3021.062.4338.2866.1316.2246.1394.457.0309.5189-.1084.062-.302-.0619-.4337-.2866z"/><path d="m15.0014 15.204c-.1085.062-.1007.2943.031.5189.1316.2169.3253.3486.4337.2866.1084-.0619.1007-.2943-.031-.5189-.1316-.2246-.3253-.3486-.4337-.2866z"/><path d="m12.8791 14.0731c-.4182.2402-.5577.7746-.3175 1.1929.2401.4182.7745.5654 1.1928.3175.4182-.2401.5576-.7745.3175-1.1928-.2401-.4182-.7745-.5577-1.1928-.3176z"/></g><path d="m13.4136 14.4759c-.1549-.0387-.2556-.1626-.2246-.2711.0309-.1084.1781-.1626.333-.1239s.2556.1627.2246.2711-.1859.1626-.333.1239z" fill="#fff"/><path d="m16.4266 12.7332c-.1549-.0387-.2556-.1627-.2246-.2711s.1782-.1627.3331-.1239c.1549.0387.2556.1626.2246.2711-.031.1084-.1782.1626-.3331.1239z" fill="#fff"/><g clip-rule="evenodd" fill-rule="evenodd"><path d="m21.2986 22.8527c-.002-.0039-.0039-.0077-.0078-.0116l-.2943-.488.5034-.2943 1.007-.5809.5034-.2944.2943.5035.0155.0232c.1472.2634.0543.5964-.2013.7591-.0039 0-.0078.0019-.0117.0039-.0038.0019-.0077.0039-.0116.0039l-.9837.5731c-.0038 0-.0077.002-.0116.0039s-.0077.0039-.0116.0039c-.2711.1549-.6196.0697-.7823-.1937-.0039-.0038-.0058-.0077-.0077-.0116zm-4.0238 2.3237c-.002-.0039-.0039-.0078-.0039-.0117l-.3021-.4879.5035-.2943 1.0069-.581.5034-.2943.2944.5035.0155.0232c.1471.2634.0542.5964-.2014.7591-.0039 0-.0078.0019-.0116.0038-.0039.002-.0078.0039-.0117.0039l-.9836.5732c-.0039 0-.0078.0019-.0117.0039-.0038.0019-.0077.0038-.0116.0038-.2711.1549-.6196.0697-.7823-.1936 0-.0039-.0019-.0078-.0038-.0116z" fill="#000" opacity=".1"/><path d="m11.911 8.79846c-.0465.02324-.0775.06196-.1084.11618.5731.05422 1.7737 1.60336 1.7737 1.60336l.5034-.2944c0 .0078-1.6807-1.70398-2.1687-1.42514z" fill="url(#d)" opacity=".15"/><path d="m14.5058 8.64354c-.0233.01549-.0465.03873-.062.07746.2866.05422.8442.81328.8442.81328l.3021-.1704s-.8442-.85976-1.0843-.72034z" fill="url(#e)" opacity=".15"/><path d="m10.4781 10.9672c-.0232.0155-.0465.0387-.062.0775.2866.0542.8443.8132.8443.8132l.3021-.1704s-.8365-.8597-1.0844-.7203z" fill="url(#f)" opacity=".15"/><path d="m19.9353 13.5155s1.2471.9062 1.4639.5112c.2711-.4957-.8287-1.8977-.6351-2.254.2169-.4105 1.4562.7591 1.6808.2944.2324-.4802-1.0224-1.6576-.7591-2.09131.2169-.3563 1.3555.82881 1.5336.40281.1395-.3254-.4414-1.3865-1.2547-2.23076.5964.73583.5189 1.30125.4027 1.58009-.1781.42597-.8597-.54993-1.0843-.19364-.2634.4415.5344 1.40971.302 1.88991-.2246.4647-1.0146-.4957-1.2315-.0852-.1859.3563.4492 1.5491.1859 2.0448-.1549.2943-.4183.0852-.79-.1549z" fill="url(#h)" opacity=".15"/><path d="m11.8877 18.1628s.1627 1.5336-.2943 1.5259c-.5577-.0155-1.2315-1.6653-1.6343-1.6808-.46473-.0155-.06971 1.642-.58866 1.6033-.5267-.0387-.92172-1.7118-1.43292-1.704-.41826.0077.03873 1.5878-.41826 1.5336-.35629-.0465-.97594-1.0766-1.30899-2.1997.3408.883.86749 1.0998 1.16182 1.1386.45699.0542-.04647-1.0224.37179-1.0302.5112-.0077.9527 1.1696 1.48714 1.2083.5112.031.07745-1.1231.54219-1.1076.40279.0155 1.12309 1.1696 1.68079 1.1851.333.0077.2866-.3253.2633-.7591z" fill="url(#i)" opacity=".15"/><path d="m22.8244 18.5268.5887 1.0147c2.7419-1.5801 3.0285-5.538 2.13-5.2205-.0233.0078-.0465.0233-.0697.031.6196 1.0689-1.0844 3.4777-2.649 4.1748z" fill="url(#j)" opacity=".15"/></g></svg>