<svg fill="none" height="32" viewBox="0 0 32 32" width="32" xmlns="http://www.w3.org/2000/svg"><g clip-rule="evenodd" fill-rule="evenodd"><path d="m29.8557 23.9973c1.3613-2.3536 2.1443-5.0832 2.1443-7.9975 0-8.83644-7.1634-15.9998-16-15.9998-8.83648 0-16 7.16336-16 15.9998 0 8.8365 7.16352 16.0002 16 16.0002 2.9142 0 5.6442-.783 7.9974-2.1442l8.0026 2.1442z" fill="#007bff"/><path d="m26.5701 12.5614-2.9332 2.9999c-.5735.5864-1.501.5864-2.0744 0-.4831-.494-.5538-1.2435-.2228-1.8185l-.8958-.9161c-.3005.3073-.5696.5825-.777.7947v9.8786c0 .829-.656 1.5-1.4668 1.5-.8107 0-1.4665-.671-1.4667-1.5 0 0 .0002-5.6054.0002-8.6244l-1.4668-.0002c0 3.0193-.0002 8.6242 0 8.6242-.0004.8289-.6562 1.4999-1.4669 1.4999-.8108 0-1.4668-.671-1.4669-1.4999 0 0 .0001-7.6253.0001-9.8787-.2074-.2123-.4767-.4875-.7772-.7949l-.8958.9162c.3312.5748.2603 1.3243-.2226 1.8185-.57336.5861-1.50107.5861-2.07444 0l-2.93315-2.9999c-.57321-.5861-.57321-1.5349 0-2.1211.57336-.58623 1.50091-.58639 2.07381-.0005l2.67438 2.7353.8592-.8788c-1.23277-1.2608-2.67424-2.73486-2.67408-2.73486-.57321-.58607-.57321-1.53484 0-2.12107.57336-.58623 1.50092-.58639 2.07378-.00032l4.3942 4.49395c.0712.072.1352.1514.1907.237.0035.0051.0063.0107.0096.016.0483.0763.0904.1569.1246.2421.0033.008.0055.0161.0086.024.0313.0817.0567.1662.0737.2542.0016.0081.0022.0165.0036.0246.0151.0842.0238.1706.0244.2591v1.1345l1.467.0002.0002-1.1341c.0006-.0885.0093-.1749.0242-.259.0016-.0082.002-.0165.0036-.0247.0172-.088.0426-.1726.0739-.2542.0031-.0078.0053-.016.0086-.024.0342-.0851.0763-.1658.1246-.2422.0032-.0053.0061-.0108.0096-.0159.0555-.0857.1195-.1649.1907-.2369l4.394-4.49401c.5729-.58607 1.5006-.58591 2.074.00032.5732.58623.5732 1.53484 0 2.12107.0001 0-1.4415 1.47402-2.6743 2.73482l.8594.8787 2.6742-2.7351c.5729-.58595 1.5006-.58579 2.074.0004.5732.5863.5732 1.5349 0 2.1211z" fill="#fff"/></g></svg>