<svg width="32" height="32" viewBox="0 0 32 32" fill="none" xmlns="http://www.w3.org/2000/svg">
<path d="M15.9667 8C19.4262 8 21.6881 9.66667 23.4179 11.6C23.5509 11.7333 23.6175 11.8667 23.7505 12C23.8836 12.1333 23.9501 12.2667 24.0832 12.4C24.6819 13.1333 25.1476 13.9333 25.6133 14.6C25.9459 15.0667 26.2121 15.5333 26.5447 15.9333C26.6778 16.0667 26.7443 16.2 26.8773 16.3333C27.0104 16.4667 27.0769 16.6 27.21 16.7333C28.474 18.2667 29.738 19.2667 31.6008 19.4C31.8669 18.2667 32 17.1333 32 15.9333C32 14.7333 31.8669 13.5333 31.6008 12.4667C29.738 12.6 28.474 13.5333 27.21 15.1333C27.0104 14.8 26.7443 14.4667 26.4782 14.0667C25.9459 13.3333 25.4137 12.4667 24.7484 11.6C26.079 10.0667 27.7422 8.73333 30.0042 8.2C27.21 3.33333 21.9543 0 15.9667 0C9.97921 0 4.72349 3.33333 1.99584 8.2C4.2578 8.73333 5.85447 10.0667 7.25156 11.6C7.38462 11.7333 7.45114 11.8667 7.5842 12C7.71726 12.1333 7.78378 12.2667 7.91684 12.4C8.58212 13.2 9.11434 14.0667 9.64657 14.8667C9.91268 15.2667 10.1123 15.6 10.3784 15.9333C10.5114 16.0667 10.578 16.2 10.711 16.4C10.8441 16.5333 10.9106 16.6667 11.0437 16.8667C12.4407 18.8 13.8378 20.1333 16.0333 20.1333C18.2287 20.1333 19.6258 18.8 21.0229 16.8667C21.1559 17.1333 21.3555 17.3333 21.4886 17.6C22.0873 18.4667 22.6861 19.4667 23.4179 20.3333C21.7547 22.2667 19.4262 23.9333 15.9667 23.9333C12.5073 23.9333 10.2453 22.2667 8.51559 20.3333C8.38254 20.2 8.31601 20.0667 8.18295 19.9333C8.0499 19.8 7.98337 19.6667 7.85031 19.5333C7.25156 18.8 6.78586 18 6.32017 17.3333C5.98753 16.8667 5.72141 16.4 5.38877 16C5.25572 15.8667 5.18919 15.7333 5.05613 15.6C4.92308 15.4667 4.85655 15.3333 4.72349 15.2C3.45946 13.6667 2.19543 12.6667 0.33264 12.5333C0.133056 13.6 0 14.8 0 16C0 17.2 0.133056 18.4 0.399168 19.4667C2.26195 19.3333 3.52599 18.4 4.79002 16.8C4.98961 17.1333 5.25572 17.4667 5.52183 17.8667C6.05405 18.6 6.58628 19.4667 7.25156 20.3333C5.921 21.8667 4.2578 23.2 1.99584 23.7333C4.72349 28.6667 9.97921 32 15.9667 32C21.9543 32 27.21 28.6667 29.9376 23.8C27.6757 23.2667 26.079 21.9333 24.6819 20.4C24.5489 20.2667 24.4823 20.1333 24.3493 20C24.2162 19.8667 24.1497 19.7333 24.0166 19.6C23.3514 18.8 22.8191 17.9333 22.2869 17.1333C22.0208 16.7333 21.8212 16.4 21.5551 16.0667C21.422 15.9333 21.3555 15.8 21.2225 15.6C21.0894 15.4667 21.0229 15.3333 20.8898 15.1333C19.4927 13.2 18.0956 11.8667 15.9002 11.8667C13.7048 11.8667 12.3077 13.2 10.9106 15.1333C10.7775 14.8667 10.578 14.6667 10.4449 14.4C9.84615 13.5333 9.2474 12.5333 8.51559 11.6667C10.2453 9.66667 12.5073 8 15.9667 8Z" fill="white"/>
</svg>
