<svg fill="none" height="48" viewBox="0 0 120 48" width="120" xmlns="http://www.w3.org/2000/svg"><g fill="#231f20"><g clip-rule="evenodd" fill-rule="evenodd"><path d="m28.7109 31.2308c-.0927-1.89-.2606-3.7773-.4812-5.6519-.1359-1.1366-.413-2.2568-.6611-3.377-.0851-.3881-.3209-.7442-.4-1.1373-.161-.8244-.5541-1.5113-1.0942-2.1296-.6022-.6947-1.3983-1.1031-2.1925-1.5293-1.1794-.6385-2.3415-1.2854-3.6907-1.5239-1.4323-.2558-2.8567-.5115-4.3245-.397-1.3598.1069-2.7243.1317-4.0833.2462-1.0023.082-2.00754.2281-3.00293.4007-1.16596.2054-2.31856.4961-3.48643.6889-1.519.2576-2.96051.7472-4.408131 1.232-.36181.1221-.649197.2927-.475544.7679.048089.143-.010305.3274-.037784.4866-.054195.3511-.090452.6907-.254183 1.04-.1389229.2931.104574.7492.118314 1.1335.027097.603-.003435 1.211.006487 1.8147.028625 1.5278.092361 3.0533.090453 4.5781-.005343 1.6621-.061828 3.3287-.100375 4.9959-.019465.7796-.041983 1.564-.063737 2.3453-.051142 1.6403-.1144969 3.2841-.1480827 4.9309-.02480765 1.0438-.0335857 2.0907.0038166 3.1365.0358757.9923.1385411 1.9834.2099111 2.9731.022518.2698.180524.3652.428218.3862.880867.0714 1.762487.1775 2.644497.2233 1.38732.0668 2.77426.1412 4.1654.1393.85414-.0019 1.70982-.1458 2.5625-.2302.235-.0198.3591-.116.2598-.4053-.0656-.1946-.0492-.4248-.0408-.6381.0447-1.8304.0901-3.6624.1401-5.497.0359-1.0858.0771-2.1709.129-3.2574.0626-1.2958.1419-2.5942.1934-3.8899.026-.5915-.0018-1.1881 0-1.7796.0126-.8835.0325-1.766.0592-2.6526.0229-.9686.0699-1.9376.084-2.9101.0107-.2957.1691-.4332.4118-.516.3237-.108.6469-.2225.9786-.2969 1.3327-.3129 2.6879-.3207 4.0291-.1343 1.5701.2144 2.4655 1.0991 2.4743 2.8108.008 1.7088.0561 3.4109.0561 5.115 0 1.6907-.0287 3.3834-.0649 5.0741-.0199.7843-.0946 1.5667-.1358 2.3491-.1012 1.9255-.1924 3.8566-.2951 5.7832-.0148.2451.0534.4073.2889.4462.4218.0679.8489.1538 1.2736.1557 1.2805.0145 2.5629.0145 3.8426-.016 1.4526-.0401 2.899-.1156 4.3443-.1843.3217-.0172.5329-.1985.5329-.5286 0-.895-.0188-1.787-.0272-2.6774-.0194-1.619-.0469-3.2353-.0561-4.8516 0-.7461.0439-1.4915.0519-2.2365 0-.087-.0793-.1748-.142-.3026.0627-.1851.2035-.4103.2149-.6412.0485-1.2862.1401-2.5793.0725-3.8616z"/><path d="m82.1615 3.60194c.084-.59043-.019-1.12096-.2144-1.66214-.1413-.40264-.5412-.45413-.8321-.65647-1.314-.900639-2.8044-1.2173963-4.3432-1.268984-1.8999-.063703-3.791.087835-5.665.39316-.977.161407-1.872.485784-2.6983 1.041914-1.5457 1.04573-2.8154 2.35213-3.7161 3.98183-.4199.76141-.8676 1.54753-.7187 2.49487.0107.06214-.0401.13659-.06.20723-.0831.23166-.1526.46634-.2384.69155-.2703.7194.1782 1.5152-.2397 2.2174-.0821 1.498-.1852 2.996-.2405 4.494-.0152.5267-.0438.624-.5847.606-1.1927-.0346-2.3976-.0869-3.5891-.0965-.1622-.0018-.4297.168-.4691.3091-.0732.2787-.0377.5947-.0294.8932.0294.9121.0894 1.8159.1035 2.7288.0226 1.3968.0244 2.7968.0176 4.1951-.003.379.1602.5691.5293.5794.2656.0077.5298-.0152.795-.0134 1 .0096 1.9972.0134 2.9922.0477.1022.0046.2664.1928.2786.3061.0553.5424.0687 1.0832.0985 1.6263.0305.5534.0542 1.1087.0961 1.659.0096.1451.1127.2882.1012.4256-.0343.3817-.1668.7614-.1603 1.1393.0286 1.5563.0878 3.1123.1432 4.663.0048.1065.1067.2107.1774.3359-.058.2641-.1642.5446-.1642.8213-.0038 1.9987.0154 3.9998.0249 5.9958.0088.5145.021 1.0305.0087 1.5457-.0106.8683-.042 1.7377-.0374 2.6048 0 .3569.4657.8885.7252.8664.4026-.0275.8007-.084 1.2041-.1172.3866-.0431.7767-.1126 1.1622-.1004 1.2385.0332 2.475.1042 3.7116.1527.9343.0374 1.8739.0057 2.7937.124.6087.0802 1.0095-.2251 1.4732-.4618.0344-.0217.063-.0828.063-.1305.0286-.6003.1194-1.2178.066-1.8102-.0489-.5477-.2225-1.0724-.1042-1.6411.0603-.3034.0076-.629.0145-.9465.0237-.9771.0504-1.9606.0656-2.9395.0058-.1538-.0991-.3046-.0859-.4534.0203-.2183.1413-.4332.1413-.6508.0019-.6419-.0439-1.2869-.0554-1.9311-.0248-1.1965-.0324-2.393-.0515-3.5876-.021-1.1488-.0476-2.2976-.0725-3.4433-.0153-.6653-.0496-1.3294-.061-2.0011-.0115-.6113.0152-1.2319-.0248-1.8441-.0153-.2824.0419-.4076.3179-.4221.119-.0054.2316-.0199.3404-.0199 1.3568-.0102 2.7097-.0064 4.0571-.0343.3854-.0095.7739-.0954 1.1468-.1871.1404-.0381.3416-.2335.1087-.3587-.3194-.1706-.2824-.4033-.2442-.6668.0821-.5678.2595-1.1326-.0096-1.6944-.0343-.0642-.0133-.1501-.0084-.2252.0638-1.5629.1343-3.1232.1916-4.6898.0202-.608-.0782-.6756-.6934-.6794-1.0813-.0076-2.1697-.0191-3.2567-.0248-.9121-.0027-1.8186.0076-2.725-.0065-.1069-.0019-.2767-.11-.2996-.1985-.0572-.2148-.0668-.4495-.0573-.6747.0382-.8187.1202-1.6354.1386-2.453.016-.9132.1744-1.7918.5866-2.602.1221-.25581.3473-.49695.5915-.65269 1.1641-.74997 2.414-.6 3.6907-.31372 1.0992.24807 2.0456.77166 2.954 1.40711.1042.0726.2919.0993.4.0546.0732-.0324.1145-.229.1114-.3523-.0172-.94527-.1164-1.89564-.0649-2.83946.0688-1.25569.2214-2.50943.3931-3.7574z"/><path d="m56.3272 42.6797c.0371-1.6507.1118-3.3002.168-4.7726-.0462-.7347-.0638-1.2881-.1187-1.8415-.0122-.1405-.0981-.3587-.1905-.3855-.1374-.0343-.3297.0401-.4638.1267-.3961.2511-.7518.5584-1.1628.7866-.7546.4275-1.5324.8213-2.3147 1.2068-1.1042.5439-2.2713.8339-3.5109.8549-1.0892.0191-2.0858-.3461-3.0727-.7289-1.3599-.5343-2.3239-1.5476-3.1201-2.727-.2973-.4484-.6041-.9198-.7702-1.4197-.1984-.5935-.2557-1.2328-.3606-1.8548-.2065-1.2443.04-2.4216.6602-3.5044.3557-.6202.7519-1.2263 1.1889-1.7892 1.2037-1.5381 2.7395-2.4312 4.7455-2.3996.729.0142 1.4599-.0526 2.1919-.0438.5843.0103 1.2144-.0363 1.7503.1457 1.393.4802 2.5231 1.4103 3.6459 2.3339.1065.0909.255.1259.3882.1851.0274-.1343.0942-.2766.0881-.4141-.0206-.9801-.0839-1.9617-.0797-2.9472.0038-1.1728.0755-2.3452.0942-3.5199.0077-.5306-.0504-1.0572-.0626-1.5885-.005-.1061 0-.2523.0703-.316.2809-.2825.1282-.5209-.0829-.7194-.1858-.1775-.4102-.3549-.6499-.4458-.9378-.3347-1.8671-.7183-2.8354-.932-1.7647-.3958-3.5547-.5847-5.3771-.411-1.7026.1648-3.3891.4206-5.0294.9014-1.1809.3473-2.3633.7569-3.4762 1.2778-.5611.2622-1.2304.3194-1.6827.8702-.5939.7202-1.2961 1.3442-1.943 2.0224-.8233.8625-1.429 1.8674-1.9007 2.9495-.4702 1.0896-.9782 2.1811-1.293 3.3195-.342 1.2458-.5367 2.5427-.6985 3.8299-.1637 1.3022-.2412 2.6381.1088 3.9148.3683 1.3617.8412 2.7013 1.3618 4.0111.5522 1.395 1.3079 2.6755 2.4708 3.6754.7144.6156 1.3808 1.2888 2.1147 1.872.8637.6824 1.7324 1.3599 2.7721 1.772.8651.3473 1.6994.8072 2.5902 1.0389 1.0705.2767 2.1839.3809 3.2853.5362 1.2778.1767 2.5529.0439 3.7814-.3091 1.869-.5305 3.7212-1.1461 5.4746-2.0026.2827-.1385.559-.3205.8591-.3904.4431-.1088.5454-.2137.4976-.6583-.0545-.5-.124-1.0057-.1118-1.5095z"/><path d="m115.34 39.5921c1.852-.1553 4.146 1.6583 4.278 4.0494.024.3683.031.7862-.114 1.1095-.722 1.6262-1.851 2.8444-3.681 3.1841-.541.0992-1.137.0802-1.675-.0267-.934-.1889-1.768-.645-2.494-1.2652-.685-.5782-1.067-1.3205-.976-2.2346.055-.5561.109-1.1297.281-1.6621.737-2.3128 1.961-3.1773 4.381-3.1544z"/></g><path d="m100.005 29.5958c-.1798.0503-.3644.0897-.5501.1019-.4963.0336-.9936.0611-1.4929.0737-.5915.014-1.1877.0534-1.7754-.0038-.4198-.0402-.837-.0623-1.2549-.0821-.5305-.0286-1.0591-.0508-1.5877-.0833-.435-.0256-.8777-.0256-1.3014-.1087-.4008-.0771-.7717.0183-1.1534.0611-.0908.0095-.1832.0324-.2759.0362-.0599.002-.1203-.018-.1916-.0305-.0756-.1691-.047-.2862.0057-.4057.2012-.4702.3893-.9492.6076-1.4129.2072-.4416.5515-.7919.8619-1.1603.1163-.1393.2907-.2308.4483-.3339.5554-.3721 1.1229-.7126 1.7622-.9438.5801-.2088 1.1747-.3062 1.7727-.3882.2653-.037.5546.0527.8283.1023.6976.1229 1.2712.5053 1.8145.9251.2042.1576.3566.3866.5158.5958.3283.4237.5325.914.7328 1.4045.1387.3462.2755.6934.4125 1.0419.021.0573.042.1172.055.1763.052.232-.013.3714-.234.4344zm9.098-1.3408c-.087-.7805-.195-1.5598-.286-2.3433-.152-1.3046-.622-2.5189-1.304-3.6132-.601-.9743-1.354-1.8598-2.271-2.5945-.962-.769-1.976-1.4388-3.135-1.8339-1.166-.4052-2.3756-.7041-3.5685-1.0312-.3664-.0984-.7494-.2034-1.126-.2015-1.2869.0107-2.5903-.1039-3.8604.2015-.6946.1679-1.4282.1126-2.1011.4256-.4446.2088-.9129.3912-1.3873.4835-.8683.1614-1.5705.6431-2.2774 1.0973-.706.4541-1.3242 1.0514-1.9532 1.6144-1.063.9484-1.9446 2.0514-2.6773 3.2662-.7004 1.1609-1.1794 2.4262-1.6286 3.701-.44 1.2594-.7728 2.5371-.9782 3.8547-.1774 1.1354-.2748 2.2822-.0935 3.4138.2118 1.2844.4828 2.5648.8568 3.8071.3798 1.2785 1.0553 2.4388 1.9293 3.4521.624.7251 1.3281 1.3797 2.0037 2.0601.0764.0771.1679.1451.269.1943.7328.3687 1.5038.6652 2.1862 1.1053 1.222.7889 2.5521 1.2762 3.9395 1.6037 1.0602.2469 2.1563.3454 3.2307.5114.4026.0592.8014.1576 1.2033.1699 1.0095.0248 2.016.0469 3.0233 0 .8686-.0409 1.7477-.105 2.5947-.2909 1.761-.3839 3.382-1.1709 5.015-1.9182.251-.1122.474-.3087.682-.495.217-.1889.298-.4083.075-.6736-.08-.0859-.082-.2507-.082-.3797 0-.2939.019-.5897.036-.8836.072-1.2384.142-2.4781.216-3.7181.022-.4076.068-.8114.066-1.2136-.004-.3608-.424-.7843-.647-.6519-.473.2873-.967.5095-1.506.6328-.045.0103-.071.0667-.116.0923-.191.1222-.374.2634-.584.3569-.3.1374-.612.2526-.932.3511-.802.2557-1.596.5897-2.423.7252-1.5261.2595-3.0737.3541-4.6234.2213-1.0305-.0885-2.035-.2908-2.9368-.7969-1.3664-.764-2.3842-1.9186-3.3471-3.1219-.0687-.0905-.0859-.221-.121-.3316.119-.0325.2469-.0929.3633-.0897.6393.014 1.2797.0694 1.919.061 1.8548-.0153 3.7104-.0554 5.5658-.0897.4895-.0069.9839-.0603 1.4714-.0393.6888.0248 1.3728.1023 2.0588.1577.004-.0325.004-.0611.008-.0929.968.0726 1.93.1768 2.9.2054 1.152.0332 2.309.0065 3.457-.0214.12 0 .3-.14.35-.2583.205-.4969.439-.9656.509-1.542.239-1.851.241-3.6917.037-5.5397z"/></g></svg>