<svg fill="none" height="16" viewBox="0 0 78 16" width="78" xmlns="http://www.w3.org/2000/svg"><path clip-rule="evenodd" d="m68.9962 9.5484c-.3885-.67218-.6129-1.45234-.6129-2.28448 0-2.52476 2.0493-4.57267 4.5739-4.57267.4296 0 .7746.34815.7746.77764s-.3478.77785-.7772.77785c-1.6662 0-3.0172 1.3508-3.0172 3.01708 0 .54953.1485 1.06398.4051 1.50774.066.11411.1027.24662.1027.38797 0 .42949-.3482.77765-.7778.77765-.2874 0-.5366-.15694-.6712-.38878zm2.298-4.07774c-.4819.44628-.7835 1.08458-.7835 1.79316 0 .44487.1201.86089.3283 1.22081.1163.20168.1794.43321.1794.6749 0 .53988-.3165 1.00557-.7741 1.22197.6275.194 1.331.1361 1.9448-.2181.3852-.22251.6855-.53457.8931-.89489.1163-.20137.2854-.37188.4947-.49263.4674-.27004 1.0291-.22872 1.4453.05952-.1457-.64051-.5476-1.22091-1.1613-1.5752-.3853-.22248-.8056-.32654-1.2215-.32624-.2326 0-.4648-.06122-.674-.18197-.4675-.26983-.7126-.77694-.6712-1.28133zm3.6304 4.86194c-.3877.6726-.9511 1.2571-1.6718 1.6732-2.1864 1.2622-4.9847.5115-6.2471-1.6749-.2147-.37191-.0857-.84503.2862-1.05958.3719-.21484.8475-.08776 1.0622.28412.8331 1.44296 2.6785 1.93746 4.1215 1.10426.4759-.2746.8472-.6605 1.1032-1.10466.0659-.11411.1623-.21203.2847-.28281.372-.21454.8475-.08717 1.0622.28482.1438.24892.1326.54305-.0011.77555zm-2.2849-5.52628c.7763-.0004 1.5642.19534 2.2848.61146 2.1866 1.26233 2.9355 4.06105 1.6731 6.24752-.2148.3719-.6887.4966-1.0607.282-.3719-.2149-.4997-.6902-.285-1.0622.8331-1.44296.3387-3.2881-1.1044-4.12144-.4758-.27477-.9955-.40335-1.5082-.40295-.1319 0-.265-.03459-.3873-.10516-.372-.21485-.4994-.69038-.2846-1.06227.1437-.24892.4041-.38646.6723-.38696z" fill="#97999b" fill-rule="evenodd"/><g fill="#00a3e0"><path d="m14.0773 12.4326h1.5668v-5.46656c0-2.07858-1.6817-3.7696-3.7488-3.7696-.7893 0-1.552.24621-2.18191.69913v-3.89557h-1.58757v12.4271h1.58757v-5.46106c0-1.20312.97881-2.18204 2.18191-2.18204 1.2032 0 2.182.97892 2.182 2.18204z"/><path clip-rule="evenodd" d="m1.5949 16h-1.5949v-9.04643c0-2.09436 1.70388-3.79835 3.79835-3.79835h.19353c2.09447 0 3.79835 1.70409 3.79835 3.79835v1.7057c0 2.09443-1.70388 3.79843-3.79835 3.79843h-.19353c-.79755 0-1.56786-.2493-2.20345-.708zm2.20345-11.24988c-1.21498 0-2.20345.98847-2.20345 2.20345v1.70569c0 1.21498.98847 2.20344 2.20345 2.20344h.19353c1.21497 0 2.20355-.98846 2.20355-2.20344v-1.70569c0-1.21498-.98858-2.20345-2.20355-2.20345z" fill-rule="evenodd"/><path d="m23.6666 12.4263h-1.511v-5.47826c0-1.2391-1.0081-2.24728-2.2472-2.24728h-.194c-1.2391 0-2.2473 1.00818-2.2473 2.24728v1.7067c0 1.23911 1.0082 2.24716 2.2473 2.24716h.194c.5993 0 1.1704-.2313 1.6079-.6515l.4383-.43568v.39048c0 .2248-.0017.6093-.0032.9425l-.0006.1445c-.0009.1925-.0016.3538-.0016.4346v.0908l-.0773.0476c-.5823.3583-1.2613.5478-1.9635.5478h-.194c-2.0722 0-3.7581-1.686-3.7581-3.75826v-1.7067c0-2.07225 1.6859-3.75813 3.7581-3.75813h.194c2.0723 0 3.7582 1.68588 3.7582 3.75813z"/><path clip-rule="evenodd" d="m61.7205 12.4124h-.1942c-2.0651 0-3.751-1.6804-3.7581-3.74569v-1.71917c0-2.07225 1.686-3.75803 3.7581-3.75803h.1942c2.0721 0 3.758 1.68578 3.758 3.75803v1.7068c-.0061 2.07236-1.692 3.75806-3.758 3.75806zm-.1942-7.71214c-1.2391 0-2.2472 1.00817-2.2472 2.24728v1.7068c0 1.239 1.0081 2.24706 2.2472 2.24706h.1941c1.2392 0 2.2472-1.00806 2.2472-2.24706v-1.7068c0-1.23911-1.008-2.24728-2.2472-2.24728z" fill-rule="evenodd"/><path d="m23.9986 12.4124h1.5109v-5.46486c0-1.23911 1.008-2.24718 2.2464-2.24718.3048.0011.6002.06223.8778.18167l.2266.09741v-1.62335l-.1194-.03287c-.2944-.08104-.5993-.12567-.9076-.13281l-.0769-.00091c-.8139.00051-1.5995.26451-2.2469.7495v-.75261h-1.5109z"/><path d="m42.6824 12.4124h-1.511v-5.46486c0-1.23479-1.0039-2.24286-2.2379-2.24718-1.2384 0-2.2463 1.00807-2.2463 2.24718v5.46486h-1.5109v-5.46486c0-1.23479-1.0038-2.24286-2.2377-2.24718-1.2384 0-2.2464 1.00807-2.2464 2.24718v5.46486h-1.5108v-9.22601h1.5108v.75261c.6475-.48499 1.4331-.74899 2.2469-.7495l.0768.00091c1.1523.02684 2.2253.58341 2.9163 1.5009.7106-.94383 1.8161-1.5011 3.0018-1.50181l.0769.00091c2.0251.04705 3.6715 1.73243 3.6715 3.75713z"/><path d="m49.2453 12.4263h1.5109v-5.47826c0-2.07225-1.6859-3.75813-3.758-3.75813h-.1943c-2.0721 0-3.758 1.68588-3.758 3.75813v1.7067c0 2.07226 1.6859 3.75826 3.758 3.75826h.1943c.702 0 1.3809-.1895 1.9633-.5478l.0774-.0476v-.0908c0-.0926.0009-.291.0019-.521l.0005-.1183v-.0015c.0015-.318.0031-.6697.0031-.8808v-.39048l-.4385.43568c-.4374.4202-1.0084.6515-1.6077.6515h-.1943c-1.2391 0-2.247-1.00805-2.247-2.24716v-1.7067c0-1.2391 1.0079-2.24728 2.247-2.24728h.1943c1.2391 0 2.2471 1.00818 2.2471 2.24728z"/><path d="m51.4194 12.4132h-.3291v-1.5124h.3288c1.2354-.0032 2.2408-1.01087 2.2408-2.24606v-1.7067c0-1.23538-1.0054-2.24315-2.2412-2.24637h-.3284v-1.51216h.3288c1.2257.0019 2.3159.59451 3.0009 1.50754.6848-.91214 1.774-1.50463 2.9984-1.50754h.3292v1.51216h-.3289c-1.2344.00402-2.239 1.01179-2.239 2.24637v1.7067c0 1.23247 1.0031 2.24006 2.2361 2.24606h.3279v1.5124h-.3287c-1.223-.0039-2.3109-.5965-2.9951-1.5079-.685.9128-1.7751 1.5056-3.0005 1.5079z"/></g></svg>