<svg fill="none" height="39" viewBox="0 0 91 39" width="91" xmlns="http://www.w3.org/2000/svg"><g fill="#0bb854"><path d="m2.3409 1h.36363c-.10795-.5625-.57954-.9488637-1.19318-.9488637-.745736 0-1.272725.5738637-1.272725 1.4943137 0 .92046.522728 1.49432 1.295455 1.49432.69318 0 1.1875-.46165 1.1875-1.18182v-.3125h-1.10795v.3125h.76704c-.00994.52273-.35369.85228-.84659.85228-.539773 0-.954546-.40909-.954546-1.16478 0-.755677.414773-1.164768.931816-1.164768.42046 0 .70597.237216.82955.619318z"/><path d="m3.27946 3h.33523v-1.38068c0-.29404.23296-.51137.55114-.51137.0838 0 .1463.01563.19318.03978l.11364-.284094c-.06819-.048295-.15768-.079545-.27841-.079545-.26421 0-.49006.147727-.56819.363639h-.02272v-.329548h-.32387z"/><path d="m5.66299 3.04545c.44318 0 .76704-.22159.86931-.55113l-.32386-.09091c-.08523.22727-.28267.34091-.54545.34091-.39347 0-.66478-.25426-.6804-.72159h1.58381v-.14205c0-.8125-.48296-1.090907-.9375-1.090907-.59091 0-.98296.465907-.98296 1.136367 0 .67045.38636 1.11931 1.01705 1.11931zm-.6804-1.3125c.02273-.33948.26278-.64204.64631-.64204.36363 0 .59659.27273.59659.64204z"/><path d="m7.71838 3.05114c.38069 0 .57955-.20455.64773-.34659h.01705v.29545h.33522v-1.4375c0-.693182-.52841-.772727-.80681-.772727-.32955 0-.70455.113636-.875.511367l.31818.11363c.07386-.15909.24858-.32954.56818-.32954.30824 0 .46023.16335.46023.44318v.01136c0 .16193-.16478.14773-.5625.19887-.40483.05255-.84659.14204-.84659.64204 0 .42614.32954.67046.74431.67046zm.05114-.30114c-.26705 0-.46023-.11932-.46023-.35227 0-.25568.23296-.33523.49432-.36932.14205-.01705.52273-.05682.57955-.125v.30682c0 .27272-.21591.53977-.61364.53977z"/><path d="m10.2791.818182h-.4659v-.522727h-.33523v.522727h-.32954v.284088h.32954v1.36364c0 .38068.30682.5625.59093.5625.125 0 .2045-.02273.25-.03977l-.0682-.30114c-.0284.00568-.0739.01705-.1477.01705-.14776 0-.2898-.04546-.2898-.32955v-1.27273h.4659z"/><path d="m11.9084 3h.3352v-2.181818h-.3352zm.1704-2.545455c.1307 0 .2387-.102272.2387-.227272s-.108-.227273-.2387-.227273-.2386.102273-.2386.227273.1079.227272.2386.227272z"/><path d="m13.1928 1.6875c0-.38068.2358-.59659.5568-.59659.3111 0 .5.20312.5.54545v1.36364h.3353v-1.38636c0-.55682-.2969-.823867-.7387-.823867-.3295 0-.5341.147727-.6363.369317h-.0284v-.340908h-.3239v2.181818h.3352z"/><path d="m15.5327 1.6875c0-.38068.2358-.59659.5568-.59659.3111 0 .5.20312.5.54545v1.36364h.3352v-1.38636c0-.55682-.2969-.823867-.7386-.823867-.3296 0-.5341.147727-.6364.369317h-.0284v-.340908h-.3239v2.181818h.3353z"/><path d="m18.4236 3.04545c.5909 0 .9887-.44886.9887-1.125 0-.68181-.3978-1.130677-.9887-1.130677s-.9886.448867-.9886 1.130677c0 .67614.3977 1.125.9886 1.125zm0-.30113c-.4488 0-.6534-.38637-.6534-.82387s.2046-.82954.6534-.82954c.4489 0 .6534.39204.6534.82954s-.2045.82387-.6534.82387z"/><path d="m21.63.818182h-.3637l-.6022 1.738638h-.0228l-.6022-1.738638h-.3637l.8068 2.181818h.3409z"/><path d="m22.7145 3.05114c.3807 0 .5795-.20455.6477-.34659h.017v.29545h.3353v-1.4375c0-.693182-.5284-.772727-.8068-.772727-.3296 0-.7046.113636-.875.511367l.3181.11363c.0739-.15909.2486-.32954.5682-.32954.3083 0 .4602.16335.4602.44318v.01136c0 .16193-.1647.14773-.5625.19887-.4048.05255-.8465.14204-.8465.64204 0 .42614.3295.67046.7443.67046zm.0511-.30114c-.267 0-.4602-.11932-.4602-.35227 0-.25568.2329-.33523.4943-.36932.1421-.01705.5227-.05682.5795-.125v.30682c0 .27272-.2159.53977-.6136.53977z"/><path d="m25.2752.818182h-.4659v-.522727h-.3352v.522727h-.3296v.284088h.3296v1.36364c0 .38068.3068.5625.5909.5625.125 0 .2045-.02273.25-.03977l-.0682-.30114c-.0284.00568-.0739.01705-.1477.01705-.1478 0-.2898-.04546-.2898-.32955v-1.27273h.4659z"/><path d="m25.7795 3h.3352v-2.181818h-.3352zm.1704-2.545455c.1307 0 .2387-.102272.2387-.227272s-.108-.227273-.2387-.227273-.2386.102273-.2386.227273.1079.227272.2386.227272z"/><path d="m27.615 3.04545c.591 0 .9887-.44886.9887-1.125 0-.68181-.3977-1.130677-.9887-1.130677-.5909 0-.9886.448867-.9886 1.130677 0 .67614.3977 1.125.9886 1.125zm0-.30113c-.4488 0-.6534-.38637-.6534-.82387s.2046-.82954.6534-.82954c.4489 0 .6535.39204.6535.82954s-.2046.82387-.6535.82387z"/><path d="m29.4506 1.6875c0-.38068.2358-.59659.5568-.59659.3111 0 .5.20312.5.54545v1.36364h.3353v-1.38636c0-.55682-.2969-.823867-.7387-.823867-.3295 0-.5341.147727-.6363.369317h-.0284v-.340908h-.3239v2.181818h.3352z"/><path d="m33.0007 1.30682c-.1051-.309661-.3409-.517047-.7727-.517047-.4603 0-.8012.261367-.8012.630677 0 .30114.179.50285.5796.5966l.3636.08522c.2202.05114.3239.15625.3239.30682 0 .1875-.1989.34091-.5114.34091-.2741 0-.446-.1179-.5057-.35227l-.3181.07954c.0781.37074.3835.56818.8295.56818.5071 0 .8523-.27698.8523-.6534 0-.30398-.1904-.49574-.5796-.59091l-.3238-.07955c-.2586-.06392-.375-.15057-.375-.31818 0-.1875.1988-.32386.4659-.32386.2926 0 .4133.16193.4716.3125z"/><path d="m34.0451 2.60227h-.3637l-.017.15909c-.0412.38495-.1222.76847-.1591.94887h.2557c.0682-.19318.2131-.63068.2614-.95455z"/><path d="m36.2855 3h.3295l.4773-1.67614h.0341l.4773 1.67614h.3295l.6648-2.181818h-.3523l-.4716 1.664768h-.0227l-.4602-1.664768h-.358l-.4659 1.670458h-.0227l-.4716-1.670458h-.3523z"/><path d="m39.8817 3.04545c.4432 0 .7671-.22159.8694-.55113l-.3239-.09091c-.0852.22727-.2827.34091-.5455.34091-.3934 0-.6647-.25426-.6804-.72159h1.5838v-.14205c0-.8125-.4829-1.090907-.9375-1.090907-.5909 0-.9829.465907-.9829 1.136367 0 .67045.3864 1.11931 1.017 1.11931zm-.6804-1.3125c.0228-.33948.2628-.64204.6463-.64204.3637 0 .5966.27273.5966.64204z"/><path d="m41.6303.090909h-.3352v2.909091h.3352z"/><path d="m42.5795.090909h-.3352v2.909091h.3352z"/><path d="m44.4435 1.59659h-1.2727v.3125h1.2727z"/><path d="m45.9481 3.04545c.4432 0 .7671-.22159.8694-.55113l-.3239-.09091c-.0852.22727-.2827.34091-.5455.34091-.3934 0-.6647-.25426-.6804-.72159h1.5839v-.14205c0-.8125-.483-1.090907-.9375-1.090907-.591 0-.983.465907-.983 1.136367 0 .67045.3864 1.11931 1.017 1.11931zm-.6804-1.3125c.0228-.33948.2628-.64204.6464-.64204.3636 0 .5965.27273.5965.64204z"/><path d="m47.5529.818182h-.3864l.6932 1.090908-.6932 1.09091h.3864l.5227-.84659.5228.84659h.3863l-.7045-1.09091.7045-1.090908h-.3863l-.5228.892048z"/><path d="m50.288 3.04545c.4432 0 .767-.22159.8693-.55113l-.3239-.09091c-.0852.22727-.2826.34091-.5454.34091-.3935 0-.6648-.25426-.6804-.72159h1.5838v-.14205c0-.8125-.483-1.090907-.9375-1.090907-.5909 0-.983.465907-.983 1.136367 0 .67045.3864 1.11931 1.0171 1.11931zm-.6804-1.3125c.0227-.33948.2628-.64204.6463-.64204.3636 0 .5966.27273.5966.64204z"/><path d="m52.5877 3.04545c.483 0 .8011-.29545.858-.68181h-.3353c-.0625.23863-.2613.38068-.5227.38068-.3977 0-.6534-.32955-.6534-.83523 0-.49432.2614-.81818.6534-.81818.2955 0 .4716.18182.5227.38068h.3353c-.0569-.40909-.4035-.681817-.8637-.681817-.5909 0-.9829.465907-.9829 1.130677 0 .65341.375 1.125.9886 1.125z"/><path d="m55.3107 2.10795c0 .4091-.3125.5966-.5625.5966-.2784 0-.4773-.20455-.4773-.52273v-1.363638h-.3352v1.386368c0 .55681.2955.82386.7046.82386.3295 0 .5454-.17614.6477-.39773h.0227v.36932h.3352v-2.181818h-.3352z"/><path d="m57.2088.818182h-.4659v-.522727h-.3352v.522727h-.3296v.284088h.3296v1.36364c0 .38068.3068.5625.5909.5625.125 0 .2045-.02273.25-.03977l-.0682-.30114c-.0284.00568-.0739.01705-.1477.01705-.1478 0-.2898-.04546-.2898-.32955v-1.27273h.4659z"/><path d="m58.6044 3.04545c.4432 0 .767-.22159.8693-.55113l-.3239-.09091c-.0852.22727-.2826.34091-.5454.34091-.3935 0-.6648-.25426-.6804-.72159h1.5838v-.14205c0-.8125-.483-1.090907-.9375-1.090907-.5909 0-.983.465907-.983 1.136367 0 .67045.3864 1.11931 1.0171 1.11931zm-.6804-1.3125c.0227-.33948.2628-.64204.6463-.64204.3636 0 .5966.27273.5966.64204z"/><path d="m60.8416 3.04545c.4205 0 .5625-.26136.6364-.38068h.0397v.33523h.3239v-2.909091h-.3352v1.073861h-.0284c-.0739-.11363-.2046-.374997-.6307-.374997-.5511 0-.9318.437497-.9318 1.124997 0 .69318.3807 1.13068.9261 1.13068zm.0455-.30113c-.4205 0-.6364-.36932-.6364-.83523 0-.46023.2102-.81818.6364-.81818.4091 0 .625.32954.625.81818 0 .49432-.2216.83523-.625.83523z"/><path d="m64.2692 3.05114c.3806 0 .5795-.20455.6477-.34659h.017v.29545h.3353v-1.4375c0-.693182-.5284-.772727-.8069-.772727-.3295 0-.7045.113636-.875.511367l.3182.11363c.0739-.15909.2486-.32954.5682-.32954.3083 0 .4602.16335.4602.44318v.01136c0 .16193-.1647.14773-.5625.19887-.4048.05255-.8466.14204-.8466.64204 0 .42614.3296.67046.7444.67046zm.0511-.30114c-.267 0-.4602-.11932-.4602-.35227 0-.25568.2329-.33523.4943-.36932.142-.01705.5227-.05682.5795-.125v.30682c0 .27272-.2159.53977-.6136.53977z"/><path d="m66.2163 1.6875c0-.38068.2357-.59659.5568-.59659.3111 0 .5.20312.5.54545v1.36364h.3352v-1.38636c0-.55682-.2969-.823867-.7386-.823867-.3296 0-.5341.147727-.6364.369317h-.0284v-.340908h-.3239v2.181818h.3353z"/><path d="m68.3473 3.84659c.3068 0 .517-.15909.642-.49432l.9375-2.534088h-.3636l-.6023 1.738638h-.0227l-.6023-1.738638h-.3636l.8068 2.193178-.0739.20455c-.1179.3267-.2727.35795-.517.29545l-.0852.29546c.0341.01704.1307.03977.2443.03977z"/><path d="m70.8636 3h.3296l.4772-1.67614h.0341l.4773 1.67614h.3296l.6647-2.181818h-.3522l-.4716 1.664768h-.0228l-.4602-1.664768h-.3579l-.466 1.670458h-.0227l-.4716-1.670458h-.3522z"/><path d="m73.9545 1.6875c0-.38068.2429-.59659.5739-.59659.3153 0 .5057.19886.5057.54545v1.36364h.3352v-1.38636c0-.56108-.2983-.823867-.7443-.823867-.3438 0-.5398.143466-.6421.369317h-.0284v-1.068181h-.3352v2.909091h.3352z"/><path d="m76.8974 3.04545c.4431 0 .767-.22159.8693-.55113l-.3239-.09091c-.0852.22727-.2827.34091-.5454.34091-.3935 0-.6648-.25426-.6804-.72159h1.5838v-.14205c0-.8125-.483-1.090907-.9375-1.090907-.5909 0-.983.465907-.983 1.136367 0 .67045.3864 1.11931 1.0171 1.11931zm-.6804-1.3125c.0227-.33948.2628-.64204.6463-.64204.3636 0 .5966.27273.5966.64204z"/><path d="m78.3107 3h.3352v-1.38068c0-.29404.233-.51137.5512-.51137.0838 0 .1463.01563.1932.03978l.1136-.284094c-.0682-.048295-.1577-.079545-.2784-.079545-.2642 0-.4901.147727-.5682.363639h-.0227v-.329548h-.3239z"/><path d="m80.6942 3.04545c.4432 0 .7671-.22159.8694-.55113l-.3239-.09091c-.0852.22727-.2827.34091-.5455.34091-.3934 0-.6647-.25426-.6804-.72159h1.5838v-.14205c0-.8125-.4829-1.090907-.9375-1.090907-.5909 0-.9829.465907-.9829 1.136367 0 .67045.3864 1.11931 1.017 1.11931zm-.6804-1.3125c.0228-.33948.2628-.64204.6463-.64204.3637 0 .5966.27273.5966.64204z"/><path d="m83.2326 3h.3352v-2.181818h-.3352zm.1704-2.545455c.1307 0 .2387-.102272.2387-.227272s-.108-.227273-.2387-.227273c-.1306 0-.2386.102273-.2386.227273s.108.227272.2386.227272z"/><path d="m84.517 1.6875c0-.38068.2358-.59659.5569-.59659.311 0 .5.20312.5.54545v1.36364h.3352v-1.38636c0-.55682-.2969-.823867-.7387-.823867-.3295 0-.534.147727-.6363.369317h-.0284v-.340908h-.3239v2.181818h.3352z"/><path d="m1.19317 8.04545c.59091 0 .98864-.44886.98864-1.125 0-.68181-.39773-1.13068-.98864-1.13068-.590908 0-.988636.44887-.988636 1.13068 0 .67614.397728 1.125.988636 1.125zm0-.30113c-.448863 0-.653408-.38637-.653408-.82387s.204545-.82954.653408-.82954c.44886 0 .65341.39204.65341.82954s-.20455.82387-.65341.82387z"/><path d="m4.06853 7.10795c0 .40909-.3125.5966-.5625.5966-.27841 0-.47728-.20455-.47728-.52273v-1.36364h-.33522v1.38637c0 .55681.29545.82386.70454.82386.32955 0 .54546-.17614.64773-.39773h.02273v.36932h.33522v-2.18182h-.33522z"/><path d="m5.01774 8h.33523v-1.38068c0-.29404.23296-.51137.55114-.51137.08381 0 .14631.01563.19318.03978l.11364-.28409c-.06819-.0483-.15767-.07955-.27841-.07955-.26421 0-.49006.14773-.56818.36364h-.02273v-.32955h-.32387z"/><path d="m7.6779 8.81818h.33523v-1.15341h.02841c.07386.11932.21591.38068.63636.38068.54545 0 .92614-.4375.92614-1.13068 0-.6875-.38069-1.125-.93182-1.125-.42614 0-.55682.26137-.63068.375h-.03978v-.34659h-.32386zm.32955-1.90909c0-.48864.21591-.81818.625-.81818.42613 0 .63636.35795.63636.81818 0 .46591-.21591.83523-.63636.83523-.40341 0-.625-.34091-.625-.83523z"/><path d="m10.1154 8h.3352v-1.38068c0-.29404.233-.51137.5512-.51137.0838 0 .1463.01563.1931.03978l.1137-.28409c-.0682-.0483-.1577-.07955-.2784-.07955-.2642 0-.4901.14773-.5682.36364h-.0227v-.32955h-.3239z"/><path d="m12.4705 8.04545c.5909 0 .9887-.44886.9887-1.125 0-.68181-.3978-1.13068-.9887-1.13068s-.9886.44887-.9886 1.13068c0 .67614.3977 1.125.9886 1.125zm0-.30113c-.4488 0-.6534-.38637-.6534-.82387s.2046-.82954.6534-.82954c.4489 0 .6534.39204.6534.82954s-.2045.82387-.6534.82387z"/><path d="m14.8572 8.04545c.483 0 .8012-.29545.858-.68181h-.3352c-.0625.23863-.2614.38068-.5228.38068-.3977 0-.6534-.32955-.6534-.83523 0-.49432.2614-.81818.6534-.81818.2955 0 .4716.18182.5228.38068h.3352c-.0568-.40909-.4034-.68182-.8636-.68182-.591 0-.983.46591-.983 1.13068 0 .65341.375 1.125.9886 1.125z"/><path d="m17.12 8.04545c.4432 0 .7671-.22159.8693-.55113l-.3238-.09091c-.0853.22727-.2827.34091-.5455.34091-.3934 0-.6648-.25426-.6804-.72159h1.5838v-.14205c0-.8125-.4829-1.09091-.9375-1.09091-.5909 0-.9829.46591-.9829 1.13637 0 .67045.3863 1.11931 1.017 1.11931zm-.6804-1.3125c.0227-.33948.2628-.64204.6463-.64204.3637 0 .5966.27273.5966.64204z"/><path d="m20.0788 6.30682c-.1051-.30966-.3409-.51705-.7727-.51705-.4602 0-.8011.26137-.8011.63068 0 .30114.1789.50284.5795.5966l.3636.08522c.2202.05114.3239.15625.3239.30682 0 .1875-.1989.34091-.5114.34091-.2741 0-.446-.1179-.5056-.35227l-.3182.07954c.0781.37074.3835.56818.8295.56818.5071 0 .8523-.27698.8523-.6534 0-.30398-.1903-.49574-.5795-.59091l-.3239-.07955c-.2585-.06392-.375-.15057-.375-.31818 0-.1875.1989-.32386.4659-.32386.2926 0 .4133.16193.4716.3125z"/><path d="m22.1687 6.30682c-.1051-.30966-.3409-.51705-.7728-.51705-.4602 0-.8011.26137-.8011.63068 0 .30114.179.50284.5795.5966l.3637.08522c.2202.05114.3238.15625.3238.30682 0 .1875-.1988.34091-.5113.34091-.2742 0-.446-.1179-.5057-.35227l-.3182.07954c.0781.37074.3835.56818.8296.56818.5071 0 .8522-.27698.8522-.6534 0-.30398-.1903-.49574-.5795-.59091l-.3239-.07955c-.2585-.06392-.375-.15057-.375-.31818 0-.1875.1989-.32386.4659-.32386.2927 0 .4134.16193.4716.3125z"/><path d="m23.6278 8.04545c.4432 0 .7671-.22159.8693-.55113l-.3238-.09091c-.0852.22727-.2827.34091-.5455.34091-.3934 0-.6647-.25426-.6804-.72159h1.5838v-.14205c0-.8125-.4829-1.09091-.9375-1.09091-.5909 0-.9829.46591-.9829 1.13637 0 .67045.3863 1.11931 1.017 1.11931zm-.6804-1.3125c.0228-.33948.2628-.64204.6463-.64204.3637 0 .5966.27273.5966.64204z"/><path d="m26.5866 6.30682c-.1051-.30966-.3409-.51705-.7727-.51705-.4602 0-.8011.26137-.8011.63068 0 .30114.1789.50284.5795.5966l.3637.08522c.2201.05114.3238.15625.3238.30682 0 .1875-.1988.34091-.5113.34091-.2742 0-.4461-.1179-.5057-.35227l-.3182.07954c.0781.37074.3835.56818.8295.56818.5071 0 .8523-.27698.8523-.6534 0-.30398-.1903-.49574-.5795-.59091l-.3239-.07955c-.2585-.06392-.375-.15057-.375-.31818 0-.1875.1989-.32386.4659-.32386.2926 0 .4134.16193.4716.3125z"/><path d="m27.631 7.60227h-.3636l-.0171.15909c-.0411.38495-.1221.76847-.159.94887h.2556c.0682-.19318.2131-.63068.2614-.95455z"/><path d="m30.2635 8.04545c.4829 0 .8011-.29545.8579-.68181h-.3352c-.0625.23863-.2614.38068-.5227.38068-.3977 0-.6534-.32955-.6534-.83523 0-.49432.2613-.81818.6534-.81818.2954 0 .4716.18182.5227.38068h.3352c-.0568-.40909-.4034-.68182-.8636-.68182-.5909 0-.983.46591-.983 1.13068 0 .65341.375 1.125.9887 1.125z"/><path d="m32.2535 8.05114c.3807 0 .5796-.20455.6478-.34659h.017v.29545h.3352v-1.4375c0-.69318-.5284-.77273-.8068-.77273-.3295 0-.7045.11364-.875.51137l.3182.11363c.0739-.15909.2486-.32954.5682-.32954.3082 0 .4602.16335.4602.44318v.01136c0 .16193-.1648.14773-.5625.19887-.4048.05255-.8466.14204-.8466.64204 0 .42614.3296.67046.7443.67046zm.0512-.30114c-.2671 0-.4603-.11932-.4603-.35227 0-.25568.233-.33523.4944-.36932.142-.01705.5227-.05682.5795-.125v.30682c0 .27272-.2159.53977-.6136.53977z"/><path d="m34.2006 6.6875c0-.38068.2358-.59659.5568-.59659.3111 0 .5.20312.5.54545v1.36364h.3353v-1.38636c0-.55682-.2969-.82387-.7387-.82387-.3295 0-.5341.14773-.6363.36932h-.0284v-.34091h-.3239v2.18182h.3352z"/><path d="m38.2166 8.04545c.483 0 .8011-.29545.858-.68181h-.3353c-.0625.23863-.2613.38068-.5227.38068-.3977 0-.6534-.32955-.6534-.83523 0-.49432.2614-.81818.6534-.81818.2955 0 .4716.18182.5227.38068h.3353c-.0569-.40909-.4034-.68182-.8637-.68182-.5909 0-.9829.46591-.9829 1.13068 0 .65341.375 1.125.9886 1.125z"/><path d="m39.5646 8h.3352v-1.38068c0-.29404.233-.51137.5512-.51137.0838 0 .1463.01563.1932.03978l.1136-.28409c-.0682-.0483-.1577-.07955-.2784-.07955-.2642 0-.4901.14773-.5682.36364h-.0227v-.32955h-.3239z"/><path d="m41.9481 8.04545c.4432 0 .7671-.22159.8694-.55113l-.3239-.09091c-.0852.22727-.2827.34091-.5455.34091-.3934 0-.6647-.25426-.6804-.72159h1.5839v-.14205c0-.8125-.483-1.09091-.9375-1.09091-.591 0-.983.46591-.983 1.13637 0 .67045.3864 1.11931 1.017 1.11931zm-.6804-1.3125c.0228-.33948.2628-.64204.6464-.64204.3636 0 .5965.27273.5965.64204z"/><path d="m44.0035 8.05114c.3807 0 .5796-.20455.6478-.34659h.017v.29545h.3352v-1.4375c0-.69318-.5284-.77273-.8068-.77273-.3295 0-.7045.11364-.875.51137l.3182.11363c.0739-.15909.2486-.32954.5682-.32954.3082 0 .4602.16335.4602.44318v.01136c0 .16193-.1648.14773-.5625.19887-.4048.05255-.8466.14204-.8466.64204 0 .42614.3296.67046.7443.67046zm.0512-.30114c-.2671 0-.4603-.11932-.4603-.35227 0-.25568.233-.33523.4944-.36932.142-.01705.5227-.05682.5795-.125v.30682c0 .27272-.2159.53977-.6136.53977z"/><path d="m46.5643 5.81818h-.4659v-.52273h-.3353v.52273h-.3295v.28409h.3295v1.36364c0 .38068.3068.5625.5909.5625.125 0 .2046-.02273.25-.03977l-.0681-.30114c-.0285.00568-.0739.01705-.1478.01705-.1477 0-.2897-.04546-.2897-.32955v-1.27273h.4659z"/><path d="m47.9599 8.04545c.4431 0 .767-.22159.8693-.55113l-.3239-.09091c-.0852.22727-.2827.34091-.5454.34091-.3935 0-.6648-.25426-.6804-.72159h1.5838v-.14205c0-.8125-.483-1.09091-.9375-1.09091-.5909 0-.983.46591-.983 1.13637 0 .67045.3864 1.11931 1.0171 1.11931zm-.6804-1.3125c.0227-.33948.2627-.64204.6463-.64204.3636 0 .5966.27273.5966.64204z"/><path d="m52.2823 5.81818h-.3636l-.6023 1.73864h-.0227l-.6023-1.73864h-.3636l.8068 2.18182h.3409z"/><path d="m53.3668 8.05114c.3807 0 .5796-.20455.6477-.34659h.0171v.29545h.3352v-1.4375c0-.69318-.5284-.77273-.8068-.77273-.3295 0-.7045.11364-.875.51137l.3182.11363c.0738-.15909.2486-.32954.5682-.32954.3082 0 .4602.16335.4602.44318v.01136c0 .16193-.1648.14773-.5625.19887-.4048.05255-.8466.14204-.8466.64204 0 .42614.3295.67046.7443.67046zm.0512-.30114c-.2671 0-.4603-.11932-.4603-.35227 0-.25568.233-.33523.4943-.36932.1421-.01705.5228-.05682.5796-.125v.30682c0 .27272-.2159.53977-.6136.53977z"/><path d="m55.3139 5.09091h-.3352v2.90909h.3352z"/><path d="m57.3029 7.10795c0 .40909-.3125.5966-.5625.5966-.2784 0-.4773-.20455-.4773-.52273v-1.36364h-.3352v1.38637c0 .55681.2955.82386.7045.82386.3296 0 .5455-.17614.6478-.39773h.0227v.36932h.3352v-2.18182h-.3352z"/><path d="m59.1669 8.04545c.4432 0 .767-.22159.8693-.55113l-.3239-.09091c-.0852.22727-.2826.34091-.5454.34091-.3935 0-.6648-.25426-.6804-.72159h1.5838v-.14205c0-.8125-.483-1.09091-.9375-1.09091-.5909 0-.983.46591-.983 1.13637 0 .67045.3864 1.11931 1.0171 1.11931zm-.6804-1.3125c.0227-.33948.2628-.64204.6463-.64204.3636 0 .5966.27273.5966.64204z"/><path d="m62.6541 5.81818h-.4659v-.52273h-.3352v.52273h-.3296v.28409h.3296v1.36364c0 .38068.3068.5625.5909.5625.125 0 .2045-.02273.25-.03977l-.0682-.30114c-.0284.00568-.0739.01705-.1477.01705-.1478 0-.2898-.04546-.2898-.32955v-1.27273h.4659z"/><path d="m63.5405 6.6875c0-.38068.2429-.59659.5738-.59659.3154 0 .5057.19886.5057.54545v1.36364h.3352v-1.38636c0-.56108-.2982-.82387-.7443-.82387-.3437 0-.5397.14347-.642.36932h-.0284v-1.06818h-.3353v2.90909h.3353z"/><path d="m65.5685 8h.3353v-1.38068c0-.29404.2329-.51137.5511-.51137.0838 0 .1463.01563.1932.03978l.1136-.28409c-.0682-.0483-.1577-.07955-.2784-.07955-.2642 0-.4901.14773-.5682.36364h-.0227v-.32955h-.3239z"/><path d="m67.9236 8.04545c.591 0 .9887-.44886.9887-1.125 0-.68181-.3977-1.13068-.9887-1.13068-.5909 0-.9886.44887-.9886 1.13068 0 .67614.3977 1.125.9886 1.125zm0-.30113c-.4488 0-.6534-.38637-.6534-.82387s.2046-.82954.6534-.82954c.4489 0 .6534.39204.6534.82954s-.2045.82387-.6534.82387z"/><path d="m70.799 7.10795c0 .40909-.3125.5966-.5625.5966-.2784 0-.4773-.20455-.4773-.52273v-1.36364h-.3352v1.38637c0 .55681.2954.82386.7045.82386.3296 0 .5455-.17614.6478-.39773h.0227v.36932h.3352v-2.18182h-.3352z"/><path d="m72.6289 8.86364c.5227 0 .9432-.23864.9432-.80114v-2.24432h-.3239v.34659h-.0341c-.0738-.11363-.2102-.375-.6363-.375-.5512 0-.9319.4375-.9319 1.10796 0 .68182.3978 1.06818.9262 1.06818.4261 0 .5625-.25.6363-.36932h.0285v.44318c0 .36364-.2557.52841-.608.52841-.3963 0-.5355-.20881-.625-.32954l-.267.1875c.1363.22869.4048.4375.892.4375zm-.0114-1.19887c-.4204 0-.6363-.31818-.6363-.77272 0-.44319.2102-.80114.6363-.80114.4091 0 .625.32954.625.80114 0 .48295-.2216.77272-.625.77272z"/><path d="m74.5209 6.6875c0-.38068.2429-.59659.5739-.59659.3154 0 .5057.19886.5057.54545v1.36364h.3352v-1.38636c0-.56108-.2983-.82387-.7443-.82387-.3438 0-.5398.14347-.642.36932h-.0285v-1.06818h-.3352v2.90909h.3352z"/><path d="m78.0092 6.6875c0-.38068.2429-.59659.5739-.59659.3153 0 .5057.19886.5057.54545v1.36364h.3352v-1.38636c0-.56108-.2983-.82387-.7443-.82387-.3438 0-.5398.14347-.6421.36932h-.0284v-1.06818h-.3352v2.90909h.3352z"/><path d="m80.0373 8h.3352v-2.18182h-.3352zm.1704-2.54545c.1307 0 .2387-.10228.2387-.22728s-.108-.22727-.2387-.22727c-.1306 0-.2386.10227-.2386.22727s.108.22728.2386.22728z"/><path d="m81.8672 8.86364c.5227 0 .9432-.23864.9432-.80114v-2.24432h-.3239v.34659h-.0341c-.0739-.11363-.2102-.375-.6364-.375-.5511 0-.9318.4375-.9318 1.10796 0 .68182.3978 1.06818.9262 1.06818.4261 0 .5625-.25.6363-.36932h.0284v.44318c0 .36364-.2556.52841-.6079.52841-.3963 0-.5355-.20881-.625-.32954l-.2671.1875c.1364.22869.4049.4375.8921.4375zm-.0114-1.19887c-.4204 0-.6363-.31818-.6363-.77272 0-.44319.2102-.80114.6363-.80114.4091 0 .625.32954.625.80114 0 .48295-.2216.77272-.625.77272z"/><path d="m83.7592 6.6875c0-.38068.2429-.59659.5739-.59659.3153 0 .5057.19886.5057.54545v1.36364h.3352v-1.38636c0-.56108-.2983-.82387-.7443-.82387-.3438 0-.5398.14347-.6421.36932h-.0284v-1.06818h-.3352v2.90909h.3352z"/><path d="m86.702 8.04545c.4432 0 .7671-.22159.8694-.55113l-.3239-.09091c-.0852.22727-.2827.34091-.5455.34091-.3934 0-.6647-.25426-.6803-.72159h1.5838v-.14205c0-.8125-.483-1.09091-.9375-1.09091-.5909 0-.983.46591-.983 1.13637 0 .67045.3864 1.11931 1.017 1.11931zm-.6803-1.3125c.0227-.33948.2627-.64204.6463-.64204.3636 0 .5965.27273.5965.64204z"/><path d="m88.1154 8h.3352v-1.38068c0-.29404.233-.51137.5512-.51137.0838 0 .1463.01563.1931.03978l.1137-.28409c-.0682-.0483-.1577-.07955-.2784-.07955-.2642 0-.4901.14773-.5682.36364h-.0227v-.32955h-.3239z"/><path d="m2.13067 13.8182v-3h-.32386v.3466h-.03978c-.07386-.1137-.20454-.375-.63068-.375-.551134 0-.931816.4375-.931816 1.125 0 .6932.380682 1.1307.926136 1.1307.42046 0 .5625-.2614.63636-.3807h.02841v1.1534zm-.32954-1.9091c0 .4943-.2216.8352-.625.8352-.420459 0-.636368-.3693-.636368-.8352 0-.4602.210227-.8182.636368-.8182.40909 0 .625.3296.625.8182z"/><path d="m4.11931 12.108c0 .409-.3125.5965-.5625.5965-.27841 0-.47728-.2045-.47728-.5227v-1.3636h-.33522v1.3863c0 .5569.29545.8239.70454.8239.32955 0 .54546-.1761.64773-.3977h.02273v.3693h.33522v-2.1818h-.33522z"/><path d="m5.71057 13.0511c.38068 0 .57955-.2045.64773-.3466h.01704v.2955h.33523v-1.4375c0-.6932-.52841-.7727-.80682-.7727-.32954 0-.70454.1136-.875.5113l.31819.1137c.07386-.1591.24857-.3296.56818-.3296.30824 0 .46022.1634.46022.4432v.0114c0 .1619-.16477.1477-.5625.1988-.40483.0526-.84659.1421-.84659.6421 0 .4261.32955.6704.74432.6704zm.05114-.3011c-.26705 0-.46023-.1193-.46023-.3523 0-.2557.23296-.3352.49432-.3693.14204-.017.52273-.0568.57954-.125v.3068c0 .2728-.2159.5398-.61363.5398z"/><path d="m7.65766 10.0909h-.33523v2.9091h.33523z"/><path d="m8.27165 13h.33523v-2.1818h-.33523zm.17046-2.5455c.13068 0 .23863-.1022.23863-.2272s-.10795-.2273-.23863-.2273c-.13069 0-.23864.1023-.23864.2273s.10795.2272.23864.2272z"/><path d="m10.1697 10.8182h-.46588v-.5227h-.33522v.5227h-.32955v.2841h.32955v1.3636c0 .3807.30682.5625.59091.5625.12499 0 .20459-.0227.24999-.0398l-.0682-.3011c-.0284.0057-.0738.017-.1477.017-.14773 0-.28978-.0454-.28978-.3295v-1.2727h.46588z"/><path d="m10.8785 13.8466c.3069 0 .5171-.1591.6421-.4943l.9375-2.5341h-.3637l-.6022 1.7386h-.0228l-.6022-1.7386h-.3637l.8069 2.1932-.0739.2045c-.1179.3267-.2727.358-.5171.2955l-.0852.2954c.0341.0171.1307.0398.2443.0398z"/><path d="m14.0256 13.8182h.3352v-1.1534h.0284c.0739.1193.2159.3807.6364.3807.5454 0 .9261-.4375.9261-1.1307 0-.6875-.3807-1.125-.9318-1.125-.4262 0-.5568.2613-.6307.375h-.0398v-.3466h-.3238zm.3295-1.9091c0-.4886.2159-.8182.625-.8182.4261 0 .6364.358.6364.8182 0 .4659-.2159.8352-.6364.8352-.4034 0-.625-.3409-.625-.8352z"/><path d="m16.4631 13h.3352v-1.3807c0-.294.2329-.5113.5511-.5113.0838 0 .1463.0156.1932.0397l.1136-.2841c-.0681-.0483-.1576-.0795-.2784-.0795-.2642 0-.49.1477-.5682.3636h-.0227v-.3295h-.3238z"/><path d="m18.8182 13.0455c.5909 0 .9886-.4489.9886-1.125 0-.6819-.3977-1.1307-.9886-1.1307s-.9887.4488-.9887 1.1307c0 .6761.3978 1.125.9887 1.125zm0-.3012c-.4489 0-.6534-.3863-.6534-.8238s.2045-.8296.6534-.8296c.4488 0 .6534.3921.6534.8296s-.2046.8238-.6534.8238z"/><path d="m21.1424 13.0455c.4204 0 .5625-.2614.6364-.3807h.0397v.3352h.3239v-2.9091h-.3352v1.0739h-.0284c-.0739-.1137-.2046-.375-.6307-.375-.5512 0-.9318.4375-.9318 1.125 0 .6932.3806 1.1307.9261 1.1307zm.0454-.3012c-.4204 0-.6363-.3693-.6363-.8352 0-.4602.2102-.8182.6363-.8182.4091 0 .625.3296.625.8182 0 .4943-.2215.8352-.625.8352z"/><path d="m24.1779 12.108c0 .409-.3125.5965-.5625.5965-.2784 0-.4773-.2045-.4773-.5227v-1.3636h-.3352v1.3863c0 .5569.2955.8239.7045.8239.3296 0 .5455-.1761.6478-.3977h.0227v.3693h.3352v-2.1818h-.3352z"/><path d="m26.0135 13.0455c.4829 0 .8011-.2955.8579-.6819h-.3352c-.0625.2387-.2614.3807-.5227.3807-.3977 0-.6534-.3295-.6534-.8352 0-.4943.2613-.8182.6534-.8182.2954 0 .4716.1818.5227.3807h.3352c-.0568-.4091-.4034-.6818-.8636-.6818-.5909 0-.983.4659-.983 1.1307 0 .6534.375 1.125.9887 1.125z"/><path d="m28.3104 10.8182h-.466v-.5227h-.3352v.5227h-.3295v.2841h.3295v1.3636c0 .3807.3068.5625.5909.5625.125 0 .2046-.0227.25-.0398l-.0682-.3011c-.0284.0057-.0738.017-.1477.017-.1477 0-.2898-.0454-.2898-.3295v-1.2727h.466z"/><path d="m30.321 11.3068c-.1051-.3096-.3409-.517-.7727-.517-.4602 0-.8012.2613-.8012.6307 0 .3011.179.5028.5796.5965l.3636.0853c.2202.0511.3239.1562.3239.3068 0 .1875-.1989.3409-.5114.3409-.2741 0-.446-.1179-.5057-.3523l-.3181.0796c.0781.3707.3835.5682.8295.5682.5071 0 .8523-.277.8523-.6535 0-.3039-.1904-.4957-.5796-.5909l-.3238-.0795c-.2585-.0639-.375-.1506-.375-.3182 0-.1875.1988-.3239.4659-.3239.2926 0 .4133.162.4716.3125z"/><path d="m32.6324 13.0511c.3807 0 .5796-.2045.6478-.3466h.017v.2955h.3352v-1.4375c0-.6932-.5284-.7727-.8068-.7727-.3295 0-.7045.1136-.875.5113l.3182.1137c.0739-.1591.2486-.3296.5682-.3296.3082 0 .4602.1634.4602.4432v.0114c0 .1619-.1648.1477-.5625.1988-.4048.0526-.8466.1421-.8466.6421 0 .4261.3296.6704.7443.6704zm.0512-.3011c-.2671 0-.4602-.1193-.4602-.3523 0-.2557.2329-.3352.4943-.3693.142-.017.5227-.0568.5795-.125v.3068c0 .2728-.2159.5398-.6136.5398z"/><path d="m34.5795 11.6875c0-.3807.2358-.5966.5569-.5966.311 0 .5.2031.5.5455v1.3636h.3352v-1.3864c0-.5568-.2969-.8238-.7387-.8238-.3295 0-.534.1477-.6363.3693h-.0284v-.3409h-.3239v2.1818h.3352z"/><path d="m37.408 13.0455c.4205 0 .5625-.2614.6364-.3807h.0398v.3352h.3238v-2.9091h-.3352v1.0739h-.0284c-.0739-.1137-.2046-.375-.6307-.375-.5511 0-.9318.4375-.9318 1.125 0 .6932.3807 1.1307.9261 1.1307zm.0455-.3012c-.4205 0-.6364-.3693-.6364-.8352 0-.4602.2102-.8182.6364-.8182.4091 0 .625.3296.625.8182 0 .4943-.2216.8352-.625.8352z"/><path d="m41.739 11.3068c-.1051-.3096-.3409-.517-.7727-.517-.4603 0-.8012.2613-.8012.6307 0 .3011.179.5028.5796.5965l.3636.0853c.2202.0511.3239.1562.3239.3068 0 .1875-.1989.3409-.5114.3409-.2741 0-.446-.1179-.5057-.3523l-.3182.0796c.0782.3707.3836.5682.8296.5682.5071 0 .8523-.277.8523-.6535 0-.3039-.1904-.4957-.5796-.5909l-.3239-.0795c-.2585-.0639-.375-.1506-.375-.3182 0-.1875.1989-.3239.466-.3239.2926 0 .4133.162.4715.3125z"/><path d="m43.1981 13.0455c.4432 0 .7671-.2216.8694-.5512l-.3239-.0909c-.0852.2273-.2827.3409-.5455.3409-.3934 0-.6647-.2542-.6804-.7216h1.5839v-.142c0-.8125-.483-1.0909-.9375-1.0909-.591 0-.983.4659-.983 1.1363 0 .6705.3864 1.1194 1.017 1.1194zm-.6804-1.3125c.0228-.3395.2628-.6421.6464-.6421.3636 0 .5965.2727.5965.6421z"/><path d="m44.6115 13h.3352v-1.3807c0-.2954.233-.5113.5512-.5113.0894 0 .1818.017.2045.0227v-.3409c-.0383-.0029-.1264-.0057-.1761-.0057-.2614 0-.4887.1477-.5682.3636h-.0227v-.3295h-.3239z"/><path d="m47.9503 10.8182h-.3637l-.6022 1.7386h-.0228l-.6022-1.7386h-.3637l.8068 2.1818h.341z"/><path d="m48.5295 13h.3352v-2.1818h-.3352zm.1704-2.5455c.1307 0 .2387-.1022.2387-.2272s-.108-.2273-.2387-.2273-.2386.1023-.2386.2273.1079.2272.2386.2272z"/><path d="m50.365 13.0455c.483 0 .8012-.2955.858-.6819h-.3352c-.0625.2387-.2614.3807-.5228.3807-.3977 0-.6534-.3295-.6534-.8352 0-.4943.2614-.8182.6534-.8182.2955 0 .4716.1818.5228.3807h.3352c-.0568-.4091-.4034-.6818-.8636-.6818-.5909 0-.983.4659-.983 1.1307 0 .6534.375 1.125.9886 1.125z"/><path d="m52.6278 13.0455c.4432 0 .7671-.2216.8693-.5512l-.3238-.0909c-.0852.2273-.2827.3409-.5455.3409-.3934 0-.6647-.2542-.6804-.7216h1.5838v-.142c0-.8125-.4829-1.0909-.9375-1.0909-.5909 0-.9829.4659-.9829 1.1363 0 .6705.3863 1.1194 1.017 1.1194zm-.6804-1.3125c.0228-.3395.2628-.6421.6463-.6421.3637 0 .5966.2727.5966.6421z"/><path d="m55.5866 11.3068c-.1051-.3096-.3409-.517-.7727-.517-.4602 0-.8011.2613-.8011.6307 0 .3011.179.5028.5795.5965l.3637.0853c.2201.0511.3238.1562.3238.3068 0 .1875-.1988.3409-.5113.3409-.2742 0-.4461-.1179-.5057-.3523l-.3182.0796c.0781.3707.3835.5682.8295.5682.5071 0 .8523-.277.8523-.6535 0-.3039-.1903-.4957-.5795-.5909l-.3239-.0795c-.2585-.0639-.375-.1506-.375-.3182 0-.1875.1989-.3239.4659-.3239.2926 0 .4134.162.4716.3125z"/><path d="m56.631 12.6023h-.3636l-.0171.1591c-.0411.3849-.1221.7684-.159.9488h.2556c.0682-.1932.2131-.6307.2614-.9545z"/><path d="m58.7123 10.0909h-.3352v2.9091h.3352z"/><path d="m60.2127 13.0455c.5909 0 .9886-.4489.9886-1.125 0-.6819-.3977-1.1307-.9886-1.1307s-.9886.4488-.9886 1.1307c0 .6761.3977 1.125.9886 1.125zm0-.3012c-.4489 0-.6534-.3863-.6534-.8238s.2045-.8296.6534-.8296.6534.3921.6534.8296-.2045.8238-.6534.8238z"/><path d="m62.1332 13h.3295l.4773-1.6761h.0341l.4772 1.6761h.3296l.6648-2.1818h-.3523l-.4716 1.6648h-.0227l-.4603-1.6648h-.3579l-.4659 1.6704h-.0228l-.4715-1.6704h-.3523z"/><path d="m65.7294 13.0455c.4432 0 .767-.2216.8693-.5512l-.3239-.0909c-.0852.2273-.2826.3409-.5454.3409-.3935 0-.6648-.2542-.6804-.7216h1.5838v-.142c0-.8125-.4829-1.0909-.9375-1.0909-.5909 0-.983.4659-.983 1.1363 0 .6705.3864 1.1194 1.0171 1.1194zm-.6804-1.3125c.0227-.3395.2628-.6421.6463-.6421.3636 0 .5966.2727.5966.6421z"/><path d="m67.1427 13h.3353v-1.3807c0-.294.2329-.5113.5511-.5113.0838 0 .1463.0156.1932.0397l.1136-.2841c-.0682-.0483-.1576-.0795-.2784-.0795-.2642 0-.49.1477-.5682.3636h-.0227v-.3295h-.3239z"/><path d="m70.6893 13.0455c.4829 0 .8011-.2955.8579-.6819h-.3352c-.0625.2387-.2614.3807-.5227.3807-.3978 0-.6534-.3295-.6534-.8352 0-.4943.2613-.8182.6534-.8182.2954 0 .4716.1818.5227.3807h.3352c-.0568-.4091-.4034-.6818-.8636-.6818-.5909 0-.983.4659-.983 1.1307 0 .6534.375 1.125.9887 1.125z"/><path d="m72.9236 13.0455c.591 0 .9887-.4489.9887-1.125 0-.6819-.3977-1.1307-.9887-1.1307-.5909 0-.9886.4488-.9886 1.1307 0 .6761.3977 1.125.9886 1.125zm0-.3012c-.4488 0-.6534-.3863-.6534-.8238s.2046-.8296.6534-.8296c.4489 0 .6534.3921.6534.8296s-.2045.8238-.6534.8238z"/><path d="m75.9695 11.3068c-.1052-.3096-.341-.517-.7728-.517-.4602 0-.8011.2613-.8011.6307 0 .3011.179.5028.5795.5965l.3637.0853c.2201.0511.3238.1562.3238.3068 0 .1875-.1988.3409-.5113.3409-.2742 0-.446-.1179-.5057-.3523l-.3182.0796c.0781.3707.3835.5682.8296.5682.5071 0 .8522-.277.8522-.6535 0-.3039-.1903-.4957-.5795-.5909l-.3239-.0795c-.2585-.0639-.375-.1506-.375-.3182 0-.1875.1989-.3239.4659-.3239.2926 0 .4134.162.4716.3125z"/><path d="m77.4627 10.8182h-.4659v-.5227h-.3352v.5227h-.3296v.2841h.3296v1.3636c0 .3807.3068.5625.5909.5625.125 0 .2045-.0227.25-.0398l-.0682-.3011c-.0284.0057-.0739.017-.1477.017-.1478 0-.2898-.0454-.2898-.3295v-1.2727h.4659z"/><path d="m79.4734 11.3068c-.1052-.3096-.341-.517-.7728-.517-.4602 0-.8011.2613-.8011.6307 0 .3011.179.5028.5795.5965l.3637.0853c.2201.0511.3238.1562.3238.3068 0 .1875-.1988.3409-.5113.3409-.2742 0-.446-.1179-.5057-.3523l-.3182.0796c.0781.3707.3835.5682.8296.5682.5071 0 .8522-.277.8522-.6535 0-.3039-.1903-.4957-.5795-.5909l-.3239-.0795c-.2585-.0639-.375-.1506-.375-.3182 0-.1875.1989-.3239.4659-.3239.2926 0 .4134.162.4716.3125z"/><path d="m81.7848 13.0511c.3807 0 .5795-.2045.6477-.3466h.0171v.2955h.3352v-1.4375c0-.6932-.5284-.7727-.8068-.7727-.3296 0-.7046.1136-.875.5113l.3182.1137c.0738-.1591.2485-.3296.5681-.3296.3083 0 .4603.1634.4603.4432v.0114c0 .1619-.1648.1477-.5625.1988-.4049.0526-.8466.1421-.8466.6421 0 .4261.3295.6704.7443.6704zm.0511-.3011c-.267 0-.4602-.1193-.4602-.3523 0-.2557.233-.3352.4943-.3693.1421-.017.5228-.0568.5796-.125v.3068c0 .2728-.2159.5398-.6137.5398z"/><path d="m83.7319 11.6875c0-.3807.2358-.5966.5568-.5966.3111 0 .5.2031.5.5455v1.3636h.3352v-1.3864c0-.5568-.2968-.8238-.7386-.8238-.3296 0-.5341.1477-.6364.3693h-.0284v-.3409h-.3238v2.1818h.3352z"/><path d="m86.5604 13.0455c.4204 0 .5625-.2614.6363-.3807h.0398v.3352h.3239v-2.9091h-.3353v1.0739h-.0284c-.0738-.1137-.2045-.375-.6307-.375-.5511 0-.9318.4375-.9318 1.125 0 .6932.3807 1.1307.9262 1.1307zm.0454-.3012c-.4204 0-.6363-.3693-.6363-.8352 0-.4602.2102-.8182.6363-.8182.4091 0 .625.3296.625.8182 0 .4943-.2216.8352-.625.8352z"/><path d="m.306807 18h.335227v-2.1818h-.335227zm.170455-2.5455c.130681 0 .238636-.1022.238636-.2272s-.107955-.2273-.238636-.2273c-.130682 0-.238637.1023-.238637.2273s.107955.2272.238637.2272z"/><path d="m1.59125 16.6875c0-.3807.2358-.5966.55682-.5966.31108 0 .5.2031.5.5455v1.3636h.33523v-1.3864c0-.5568-.29688-.8238-.73864-.8238-.32954 0-.53409.1477-.63636.3693h-.02841v-.3409h-.32386v2.1818h.33522z"/><path d="m4.48223 18.0455c.48296 0 .80114-.2955.85796-.6819h-.33523c-.0625.2387-.26136.3807-.52273.3807-.39772 0-.65341-.3295-.65341-.8352 0-.4943.26137-.8182.65341-.8182.29546 0 .47159.1818.52273.3807h.33523c-.05682-.4091-.40341-.6818-.86364-.6818-.59091 0-.98295.4659-.98295 1.1307 0 .6534.375 1.125.98863 1.125z"/><path d="m5.83024 18h.33523v-1.3807c0-.294.23296-.5113.55114-.5113.08381 0 .14631.0156.19318.0397l.11364-.2841c-.06819-.0483-.15767-.0795-.27841-.0795-.26421 0-.49006.1477-.56818.3636h-.02273v-.3295h-.32387z"/><path d="m8.21377 18.0455c.44318 0 .76704-.2216.86932-.5512l-.32387-.0909c-.08523.2273-.28267.3409-.54545.3409-.39347 0-.66478-.2542-.6804-.7216h1.58381v-.142c0-.8125-.48296-1.0909-.9375-1.0909-.59091 0-.98296.4659-.98296 1.1363 0 .6705.38637 1.1194 1.01705 1.1194zm-.6804-1.3125c.02273-.3395.26278-.6421.64631-.6421.36363 0 .59659.2727.59659.6421z"/><path d="m10.2692 18.0511c.3806 0 .5795-.2045.6477-.3466h.017v.2955h.3353v-1.4375c0-.6932-.5284-.7727-.8069-.7727-.3295 0-.7045.1136-.87495.5113l.31818.1137c.07386-.1591.24857-.3296.56817-.3296.3082 0 .4602.1634.4602.4432v.0114c0 .1619-.1647.1477-.5625.1988-.40479.0526-.84655.1421-.84655.6421 0 .4261.32954.6704.74435.6704zm.0511-.3011c-.267 0-.46023-.1193-.46023-.3523 0-.2557.23293-.3352.49433-.3693.142-.017.5227-.0568.5795-.125v.3068c0 .2728-.2159.5398-.6136.5398z"/><path d="m13.4265 16.3068c-.1051-.3096-.3409-.517-.7727-.517-.4603 0-.8012.2613-.8012.6307 0 .3011.179.5028.5796.5965l.3636.0853c.2202.0511.3239.1562.3239.3068 0 .1875-.1989.3409-.5114.3409-.2741 0-.446-.1179-.5057-.3523l-.3182.0796c.0782.3707.3836.5682.8296.5682.5071 0 .8523-.277.8523-.6535 0-.3039-.1904-.4957-.5796-.5909l-.3239-.0795c-.2585-.0639-.375-.1506-.375-.3182 0-.1875.1989-.3239.466-.3239.2926 0 .4133.162.4715.3125z"/><path d="m14.8856 18.0455c.4432 0 .7671-.2216.8694-.5512l-.3239-.0909c-.0852.2273-.2827.3409-.5455.3409-.3934 0-.6647-.2542-.6804-.7216h1.5839v-.142c0-.8125-.483-1.0909-.9375-1.0909-.591 0-.983.4659-.983 1.1363 0 .6705.3864 1.1194 1.017 1.1194zm-.6804-1.3125c.0228-.3395.2628-.6421.6464-.6421.3636 0 .5965.2727.5965.6421z"/><path d="m17.1229 18.0455c.4204 0 .5625-.2614.6363-.3807h.0398v.3352h.3239v-2.9091h-.3353v1.0739h-.0284c-.0738-.1137-.2045-.375-.6307-.375-.5511 0-.9318.4375-.9318 1.125 0 .6932.3807 1.1307.9262 1.1307zm.0454-.3012c-.4204 0-.6364-.3693-.6364-.8352 0-.4602.2103-.8182.6364-.8182.4091 0 .625.3296.625.8182 0 .4943-.2216.8352-.625.8352z"/><path d="m20.7947 18.0455c.483 0 .8012-.2955.858-.6819h-.3352c-.0625.2387-.2614.3807-.5228.3807-.3977 0-.6534-.3295-.6534-.8352 0-.4943.2614-.8182.6534-.8182.2955 0 .4716.1818.5228.3807h.3352c-.0568-.4091-.4034-.6818-.8636-.6818-.591 0-.983.4659-.983 1.1307 0 .6534.375 1.125.9886 1.125z"/><path d="m22.7848 18.0511c.3807 0 .5795-.2045.6477-.3466h.0171v.2955h.3352v-1.4375c0-.6932-.5284-.7727-.8068-.7727-.3296 0-.7046.1136-.875.5113l.3182.1137c.0738-.1591.2485-.3296.5681-.3296.3083 0 .4603.1634.4603.4432v.0114c0 .1619-.1648.1477-.5625.1988-.4049.0526-.8466.1421-.8466.6421 0 .4261.3295.6704.7443.6704zm.0511-.3011c-.267 0-.4602-.1193-.4602-.3523 0-.2557.233-.3352.4943-.3693.1421-.017.5227-.0568.5796-.125v.3068c0 .2728-.2159.5398-.6137.5398z"/><path d="m24.3967 18.8182h.3352v-1.1534h.0284c.0738.1193.2159.3807.6364.3807.5454 0 .9261-.4375.9261-1.1307 0-.6875-.3807-1.125-.9318-1.125-.4262 0-.5569.2613-.6307.375h-.0398v-.3466h-.3238zm.3295-1.9091c0-.4886.2159-.8182.625-.8182.4261 0 .6364.358.6364.8182 0 .4659-.2159.8352-.6364.8352-.4034 0-.625-.3409-.625-.8352z"/><path d="m27.4762 18.0511c.3807 0 .5795-.2045.6477-.3466h.0171v.2955h.3352v-1.4375c0-.6932-.5284-.7727-.8068-.7727-.3296 0-.7046.1136-.875.5113l.3182.1137c.0738-.1591.2485-.3296.5681-.3296.3083 0 .4603.1634.4603.4432v.0114c0 .1619-.1648.1477-.5625.1988-.4049.0526-.8466.1421-.8466.6421 0 .4261.3295.6704.7443.6704zm.0511-.3011c-.267 0-.4602-.1193-.4602-.3523 0-.2557.233-.3352.4943-.3693.1421-.017.5228-.0568.5796-.125v.3068c0 .2728-.2159.5398-.6137.5398z"/><path d="m29.9744 18.0455c.483 0 .8012-.2955.858-.6819h-.3353c-.0625.2387-.2613.3807-.5227.3807-.3977 0-.6534-.3295-.6534-.8352 0-.4943.2614-.8182.6534-.8182.2955 0 .4716.1818.5227.3807h.3353c-.0568-.4091-.4034-.6818-.8637-.6818-.5909 0-.9829.4659-.9829 1.1307 0 .6534.375 1.125.9886 1.125z"/><path d="m31.3224 18h.3353v-2.1818h-.3353zm.1705-2.5455c.1307 0 .2386-.1022.2386-.2272s-.1079-.2273-.2386-.2273-.2387.1023-.2387.2273.108.2272.2387.2272z"/><path d="m33.2205 15.8182h-.4659v-.5227h-.3352v.5227h-.3296v.2841h.3296v1.3636c0 .3807.3068.5625.5909.5625.125 0 .2045-.0227.25-.0398l-.0682-.3011c-.0284.0057-.0739.017-.1477.017-.1478 0-.2898-.0454-.2898-.3295v-1.2727h.4659z"/><path d="m33.9293 18.8466c.3068 0 .5171-.1591.6421-.4943l.9375-2.5341h-.3637l-.6022 1.7386h-.0228l-.6022-1.7386h-.3637l.8068 2.1932-.0738.2045c-.1179.3267-.2728.358-.5171.2955l-.0852.2954c.0341.0171.1307.0398.2443.0398z"/><path d="m36.3146 17.6023h-.3636l-.0171.1591c-.0412.3849-.1221.7684-.1591.9488h.2557c.0682-.1932.2131-.6307.2614-.9545z"/><path d="m38.1062 18h.3238v-.3352h.0398c.0739.1193.2159.3807.6364.3807.5454 0 .9261-.4375.9261-1.1307 0-.6875-.3807-1.125-.9318-1.125-.4261 0-.5568.2613-.6307.375h-.0284v-1.0739h-.3352zm.3295-1.0909c0-.4886.2159-.8182.625-.8182.4262 0 .6364.358.6364.8182 0 .4659-.2159.8352-.6364.8352-.4034 0-.625-.3409-.625-.8352z"/><path d="m41.4314 18.0455c.591 0 .9887-.4489.9887-1.125 0-.6819-.3977-1.1307-.9887-1.1307-.5909 0-.9886.4488-.9886 1.1307 0 .6761.3977 1.125.9886 1.125zm0-.3012c-.4488 0-.6534-.3863-.6534-.8238s.2046-.8296.6534-.8296c.4489 0 .6535.3921.6535.8296s-.2046.8238-.6535.8238z"/><path d="m43.8807 15.8182h-.4659v-.5227h-.3353v.5227h-.3295v.2841h.3295v1.3636c0 .3807.3069.5625.5909.5625.125 0 .2046-.0227.25-.0398l-.0681-.3011c-.0284.0057-.0739.017-.1478.017-.1477 0-.2897-.0454-.2897-.3295v-1.2727h.4659z"/><path d="m44.767 16.6875c0-.3807.2429-.5966.5739-.5966.3153 0 .5057.1989.5057.5455v1.3636h.3352v-1.3864c0-.561-.2983-.8238-.7443-.8238-.3438 0-.5398.1434-.6421.3693h-.0284v-1.0682h-.3352v2.9091h.3352z"/><path d="m48.8917 15.8182h-.4887v-.2216c0-.2159.091-.3296.3125-.3296.0966 0 .1535.0228.1875.0341l.0966-.2897c-.0511-.0228-.1534-.0569-.3182-.0569-.3125 0-.6136.1875-.6136.5625v.3012h-.3523v.2841h.3523v1.8977h.3352v-1.8977h.4887z"/><path d="m50.158 18.0455c.5909 0 .9887-.4489.9887-1.125 0-.6819-.3978-1.1307-.9887-1.1307s-.9886.4488-.9886 1.1307c0 .6761.3977 1.125.9886 1.125zm0-.3012c-.4489 0-.6534-.3863-.6534-.8238s.2045-.8296.6534-.8296.6534.3921.6534.8296-.2045.8238-.6534.8238z"/><path d="m51.6584 18h.3352v-1.3807c0-.294.2329-.5113.5511-.5113.0838 0 .1463.0156.1932.0397l.1137-.2841c-.0682-.0483-.1577-.0795-.2785-.0795-.2642 0-.49.1477-.5681.3636h-.0228v-.3295h-.3238z"/><path d="m55.6935 17.108c0 .409-.3125.5965-.5625.5965-.2784 0-.4772-.2045-.4772-.5227v-1.3636h-.3353v1.3863c0 .5569.2955.8239.7046.8239.3295 0 .5454-.1761.6477-.3977h.0227v.3693h.3353v-2.1818h-.3353z"/><path d="m58.1882 16.3068c-.1051-.3096-.3409-.517-.7727-.517-.4603 0-.8012.2613-.8012.6307 0 .3011.179.5028.5796.5965l.3636.0853c.2202.0511.3239.1562.3239.3068 0 .1875-.1989.3409-.5114.3409-.2741 0-.446-.1179-.5057-.3523l-.3181.0796c.0781.3707.3835.5682.8295.5682.5071 0 .8523-.277.8523-.6535 0-.3039-.1904-.4957-.5796-.5909l-.3238-.0795c-.2586-.0639-.375-.1506-.375-.3182 0-.1875.1988-.3239.4659-.3239.2926 0 .4133.162.4716.3125z"/><path d="m60.4996 18.0511c.3807 0 .5796-.2045.6478-.3466h.017v.2955h.3352v-1.4375c0-.6932-.5284-.7727-.8068-.7727-.3295 0-.7045.1136-.875.5113l.3182.1137c.0739-.1591.2486-.3296.5682-.3296.3082 0 .4602.1634.4602.4432v.0114c0 .1619-.1648.1477-.5625.1988-.4048.0526-.8466.1421-.8466.6421 0 .4261.3296.6704.7443.6704zm.0512-.3011c-.2671 0-.4603-.1193-.4603-.3523 0-.2557.233-.3352.4944-.3693.142-.017.5227-.0568.5795-.125v.3068c0 .2728-.2159.5398-.6136.5398z"/><path d="m62.4467 16.6875c0-.3807.2358-.5966.5568-.5966.3111 0 .5.2031.5.5455v1.3636h.3353v-1.3864c0-.5568-.2969-.8238-.7387-.8238-.3295 0-.5341.1477-.6363.3693h-.0284v-.3409h-.3239v2.1818h.3352z"/><path d="m65.2752 18.0455c.4205 0 .5625-.2614.6364-.3807h.0397v.3352h.3239v-2.9091h-.3352v1.0739h-.0284c-.0739-.1137-.2046-.375-.6307-.375-.5512 0-.9318.4375-.9318 1.125 0 .6932.3807 1.1307.9261 1.1307zm.0455-.3012c-.4205 0-.6364-.3693-.6364-.8352 0-.4602.2102-.8182.6364-.8182.4091 0 .625.3296.625.8182 0 .4943-.2216.8352-.625.8352z"/><path d="m69.0096 15.8182h-.4659v-.5227h-.3353v.5227h-.3295v.2841h.3295v1.3636c0 .3807.3069.5625.591.5625.125 0 .2045-.0227.25-.0398l-.0682-.3011c-.0284.0057-.0739.017-.1478.017-.1477 0-.2897-.0454-.2897-.3295v-1.2727h.4659z"/><path d="m69.8959 16.6875c0-.3807.2429-.5966.5739-.5966.3154 0 .5057.1989.5057.5455v1.3636h.3352v-1.3864c0-.561-.2983-.8238-.7443-.8238-.3438 0-.5398.1434-.642.3693h-.0285v-1.0682h-.3352v2.9091h.3352z"/><path d="m72.8388 18.0455c.4431 0 .767-.2216.8693-.5512l-.3239-.0909c-.0852.2273-.2826.3409-.5454.3409-.3935 0-.6648-.2542-.6804-.7216h1.5838v-.142c0-.8125-.483-1.0909-.9375-1.0909-.5909 0-.983.4659-.983 1.1363 0 .6705.3864 1.1194 1.0171 1.1194zm-.6804-1.3125c.0227-.3395.2628-.6421.6463-.6421.3636 0 .5966.2727.5966.6421z"/><path d="m75.3771 18.8182h.3352v-1.1534h.0285c.0738.1193.2159.3807.6363.3807.5455 0 .9262-.4375.9262-1.1307 0-.6875-.3807-1.125-.9319-1.125-.4261 0-.5568.2613-.6306.375h-.0398v-.3466h-.3239zm.3296-1.9091c0-.4886.2159-.8182.625-.8182.4261 0 .6363.358.6363.8182 0 .4659-.2159.8352-.6363.8352-.4034 0-.625-.3409-.625-.8352z"/><path d="m78.4567 18.0511c.3806 0 .5795-.2045.6477-.3466h.017v.2955h.3353v-1.4375c0-.6932-.5284-.7727-.8069-.7727-.3295 0-.7045.1136-.875.5113l.3182.1137c.0739-.1591.2486-.3296.5682-.3296.3083 0 .4602.1634.4602.4432v.0114c0 .1619-.1647.1477-.5625.1988-.4048.0526-.8466.1421-.8466.6421 0 .4261.3296.6704.7444.6704zm.0511-.3011c-.267 0-.4602-.1193-.4602-.3523 0-.2557.2329-.3352.4943-.3693.142-.017.5227-.0568.5795-.125v.3068c0 .2728-.2159.5398-.6136.5398z"/><path d="m80.0685 18h.3353v-1.3807c0-.2954.2329-.5113.5511-.5113.0895 0 .1818.017.2045.0227v-.3409c-.0383-.0029-.1264-.0057-.1761-.0057-.2614 0-.4886.1477-.5682.3636h-.0227v-.3295h-.3239z"/><path d="m82.6424 15.8182h-.4659v-.5227h-.3352v.5227h-.3296v.2841h.3296v1.3636c0 .3807.3068.5625.5909.5625.125 0 .2045-.0227.25-.0398l-.0682-.3011c-.0284.0057-.0739.017-.1477.017-.1478 0-.2898-.0454-.2898-.3295v-1.2727h.4659z"/><path d="m83.4819 16.6875c0-.3807.2358-.5966.5568-.5966.3111 0 .5.2031.5.5455v1.3636h.3352v-1.3864c0-.5568-.2968-.8238-.7386-.8238-.3296 0-.5341.1477-.6364.3693h-.0284v-.3409h-.3238v2.1818h.3352z"/><path d="m86.4013 18.0455c.4431 0 .767-.2216.8693-.5512l-.3239-.0909c-.0852.2273-.2826.3409-.5454.3409-.3935 0-.6648-.2542-.6804-.7216h1.5838v-.142c0-.8125-.483-1.0909-.9375-1.0909-.5909 0-.983.4659-.983 1.1363 0 .6705.3864 1.1194 1.0171 1.1194zm-.6804-1.3125c.0227-.3395.2628-.6421.6463-.6421.3636 0 .5966.2727.5966.6421z"/><path d="m87.8146 18h.3352v-1.3807c0-.294.233-.5113.5512-.5113.0838 0 .1463.0156.1932.0397l.1136-.2841c-.0682-.0483-.1577-.0795-.2784-.0795-.2642 0-.4901.1477-.5682.3636h-.0227v-.3295h-.3239z"/><path d="m90.8952 16.3068c-.1051-.3096-.3409-.517-.7727-.517-.4602 0-.8011.2613-.8011.6307 0 .3011.1789.5028.5795.5965l.3636.0853c.2202.0511.3239.1562.3239.3068 0 .1875-.1989.3409-.5114.3409-.2741 0-.446-.1179-.5056-.3523l-.3182.0796c.0781.3707.3835.5682.8295.5682.5071 0 .8523-.277.8523-.6535 0-.3039-.1903-.4957-.5795-.5909l-.3239-.0795c-.2585-.0639-.375-.1506-.375-.3182 0-.1875.1989-.3239.4659-.3239.2926 0 .4134.162.4716.3125z"/><path d="m.801125 23h.329545l.47727-1.6761h.03409l.47728 1.6761h.32954l.66478-2.1818h-.35228l-.47159 1.6648h-.02273l-.46022-1.6648h-.35796l-.465907 1.6704h-.022727l-.471591-1.6704h-.352272z"/><path d="m4.39736 23.0455c.44318 0 .76705-.2216.86932-.5512l-.32386-.0909c-.08523.2273-.28267.3409-.54546.3409-.39346 0-.66477-.2542-.6804-.7216h1.58381v-.142c0-.8125-.48295-1.0909-.9375-1.0909-.59091 0-.98295.4659-.98295 1.1363 0 .6705.38636 1.1194 1.01704 1.1194zm-.6804-1.3125c.02273-.3395.26279-.6421.64631-.6421.36364 0 .59659.2727.59659.6421z"/><path d="m7.43003 23h.32955l.47727-1.6761h.03409l.47727 1.6761h.32955l.66477-2.1818h-.35227l-.47159 1.6648h-.02273l-.46023-1.6648h-.35795l-.46591 1.6704h-.02273l-.47159-1.6704h-.35227z"/><path d="m10.9979 23.0455c.5909 0 .9886-.4489.9886-1.125 0-.6819-.3977-1.1307-.9886-1.1307-.591 0-.9887.4488-.9887 1.1307 0 .6761.3977 1.125.9887 1.125zm0-.3012c-.4489 0-.6535-.3863-.6535-.8238s.2046-.8296.6535-.8296c.4488 0 .6534.3921.6534.8296s-.2046.8238-.6534.8238z"/><path d="m12.4982 23h.3352v-1.3807c0-.294.233-.5113.5512-.5113.0838 0 .1463.0156.1932.0397l.1136-.2841c-.0682-.0483-.1577-.0795-.2784-.0795-.2642 0-.4901.1477-.5682.3636h-.0227v-.3295h-.3239z"/><path d="m14.0334 23h.3352v-.8168l.2344-.2173.8167 1.0341h.4262l-.9901-1.25.9219-.9318h-.4148l-.9545.9716h-.0398v-1.6989h-.3352z"/><path d="m17.8285 23h.3295l.4773-1.6761h.0341l.4773 1.6761h.3295l.6648-2.1818h-.3523l-.4716 1.6648h-.0227l-.4602-1.6648h-.358l-.4659 1.6704h-.0227l-.4716-1.6704h-.3523z"/><path d="m20.5842 23h.3352v-2.1818h-.3352zm.1704-2.5455c.1307 0 .2386-.1022.2386-.2272s-.1079-.2273-.2386-.2273-.2386.1023-.2386.2273.1079.2272.2386.2272z"/><path d="m22.4822 20.8182h-.4659v-.5227h-.3352v.5227h-.3295v.2841h.3295v1.3636c0 .3807.3068.5625.5909.5625.125 0 .2046-.0227.25-.0398l-.0682-.3011c-.0284.0057-.0738.017-.1477.017-.1477 0-.2898-.0454-.2898-.3295v-1.2727h.4659z"/><path d="m23.3686 21.6875c0-.3807.2429-.5966.5739-.5966.3153 0 .5056.1989.5056.5455v1.3636h.3353v-1.3864c0-.561-.2983-.8238-.7443-.8238-.3438 0-.5398.1434-.6421.3693h-.0284v-1.0682h-.3352v2.9091h.3352z"/><path d="m25.641 23.0227c.1406 0 .2557-.115.2557-.2557 0-.1406-.1151-.2556-.2557-.2556-.1407 0-.2557.115-.2557.2556 0 .1407.115.2557.2557.2557z"/><path d="m27.6687 23h.3522v-1.1364h.6364c.0256 0 .0497 0 .0739-.0014l.6136 1.1378h.4091l-.6577-1.2017c.3708-.1264.5441-.429.5441-.8153 0-.5143-.3069-.8921-.9887-.8921h-.9829zm.3522-1.4545v-1.1421h.6194c.4715 0 .6534.2301.6534.5796 0 .3494-.1819.5625-.6478.5625z"/><path d="m30.8239 23.0511c.3806 0 .5795-.2045.6477-.3466h.017v.2955h.3353v-1.4375c0-.6932-.5285-.7727-.8069-.7727-.3295 0-.7045.1136-.875.5113l.3182.1137c.0739-.1591.2486-.3296.5682-.3296.3082 0 .4602.1634.4602.4432v.0114c0 .1619-.1647.1477-.5625.1988-.4048.0526-.8466.1421-.8466.6421 0 .4261.3296.6704.7444.6704zm.0511-.3011c-.2671 0-.4602-.1193-.4602-.3523 0-.2557.2329-.3352.4943-.3693.142-.017.5227-.0568.5795-.125v.3068c0 .2728-.2159.5398-.6136.5398z"/><path d="m32.4357 23h.3352v-2.1818h-.3352zm.1705-2.5455c.1306 0 .2386-.1022.2386-.2272s-.108-.2273-.2386-.2273c-.1307 0-.2387.1023-.2387.2273s.108.2272.2387.2272z"/><path d="m34.9304 21.3068c-.1051-.3096-.3409-.517-.7727-.517-.4603 0-.8012.2613-.8012.6307 0 .3011.179.5028.5796.5965l.3636.0853c.2202.0511.3239.1562.3239.3068 0 .1875-.1989.3409-.5114.3409-.2741 0-.446-.1179-.5057-.3523l-.3182.0796c.0782.3707.3836.5682.8296.5682.5071 0 .8523-.277.8523-.6535 0-.3039-.1904-.4957-.5796-.5909l-.3239-.0795c-.2585-.0639-.375-.1506-.375-.3182 0-.1875.1989-.3239.466-.3239.2926 0 .4133.162.4715.3125z"/><path d="m35.4748 23h.3352v-2.1818h-.3352zm.1704-2.5455c.1307 0 .2387-.1022.2387-.2272s-.108-.2273-.2387-.2273-.2386.1023-.2386.2273.1079.2272.2386.2272z"/><path d="m36.7592 21.6875c0-.3807.2358-.5966.5568-.5966.3111 0 .5.2031.5.5455v1.3636h.3353v-1.3864c0-.5568-.2969-.8238-.7387-.8238-.3295 0-.5341.1477-.6363.3693h-.0284v-.3409h-.3239v2.1818h.3352z"/><path d="m39.6445 23.8636c.5227 0 .9432-.2386.9432-.8011v-2.2443h-.3239v.3466h-.0341c-.0738-.1137-.2102-.375-.6363-.375-.5512 0-.9318.4375-.9318 1.1079 0 .6818.3977 1.0682.9261 1.0682.4261 0 .5625-.25.6364-.3693h.0284v.4432c0 .3636-.2557.5284-.608.5284-.3963 0-.5355-.2088-.625-.3296l-.267.1875c.1363.2287.4048.4375.892.4375zm-.0113-1.1988c-.4205 0-.6364-.3182-.6364-.7728 0-.4431.2102-.8011.6364-.8011.409 0 .625.3296.625.8011 0 .483-.2216.7728-.625.7728z"/><path d="m42.6616 21.6875c0-.3807.2429-.5966.5738-.5966.3154 0 .5057.1989.5057.5455v1.3636h.3352v-1.3864c0-.561-.2983-.8238-.7443-.8238-.3437 0-.5398.1434-.642.3693h-.0284v-1.0682h-.3353v2.9091h.3353z"/><path d="m45.6044 23.0455c.4432 0 .767-.2216.8693-.5512l-.3239-.0909c-.0852.2273-.2826.3409-.5454.3409-.3935 0-.6648-.2542-.6804-.7216h1.5838v-.142c0-.8125-.483-1.0909-.9375-1.0909-.5909 0-.983.4659-.983 1.1363 0 .6705.3864 1.1194 1.0171 1.1194zm-.6804-1.3125c.0227-.3395.2628-.6421.6463-.6421.3636 0 .5966.2727.5966.6421z"/><path d="m47.6598 23.0511c.3807 0 .5795-.2045.6477-.3466h.0171v.2955h.3352v-1.4375c0-.6932-.5284-.7727-.8068-.7727-.3296 0-.7046.1136-.875.5113l.3182.1137c.0738-.1591.2485-.3296.5681-.3296.3083 0 .4603.1634.4603.4432v.0114c0 .1619-.1648.1477-.5625.1988-.4049.0526-.8466.1421-.8466.6421 0 .4261.3295.6704.7443.6704zm.0511-.3011c-.267 0-.4602-.1193-.4602-.3523 0-.2557.233-.3352.4943-.3693.1421-.017.5227-.0568.5796-.125v.3068c0 .2728-.2159.5398-.6137.5398z"/><path d="m49.6069 20.0909h-.3352v2.9091h.3352z"/><path d="m51.1697 20.8182h-.4659v-.5227h-.3352v.5227h-.3295v.2841h.3295v1.3636c0 .3807.3068.5625.5909.5625.125 0 .2046-.0227.25-.0398l-.0682-.3011c-.0284.0057-.0738.017-.1477.017-.1477 0-.2898-.0454-.2898-.3295v-1.2727h.4659z"/><path d="m52.0561 21.6875c0-.3807.2429-.5966.5739-.5966.3153 0 .5056.1989.5056.5455v1.3636h.3353v-1.3864c0-.561-.2983-.8238-.7443-.8238-.3438 0-.5398.1434-.6421.3693h-.0284v-1.0682h-.3352v2.9091h.3352z"/><path d="m54.9705 23.0455c.483 0 .8012-.2955.858-.6819h-.3353c-.0625.2387-.2613.3807-.5227.3807-.3977 0-.6534-.3295-.6534-.8352 0-.4943.2614-.8182.6534-.8182.2955 0 .4716.1818.5227.3807h.3353c-.0568-.4091-.4034-.6818-.8637-.6818-.5909 0-.9829.4659-.9829 1.1307 0 .6534.375 1.125.9886 1.125z"/><path d="m56.9606 23.0511c.3807 0 .5795-.2045.6477-.3466h.017v.2955h.3353v-1.4375c0-.6932-.5284-.7727-.8068-.7727-.3296 0-.7046.1136-.875.5113l.3181.1137c.0739-.1591.2486-.3296.5682-.3296.3083 0 .4602.1634.4602.4432v.0114c0 .1619-.1647.1477-.5625.1988-.4048.0526-.8465.1421-.8465.6421 0 .4261.3295.6704.7443.6704zm.0511-.3011c-.267 0-.4602-.1193-.4602-.3523 0-.2557.2329-.3352.4943-.3693.142-.017.5227-.0568.5795-.125v.3068c0 .2728-.2159.5398-.6136.5398z"/><path d="m58.5724 23h.3353v-1.3807c0-.294.2329-.5113.5511-.5113.0838 0 .1463.0156.1932.0397l.1136-.2841c-.0682-.0483-.1577-.0795-.2784-.0795-.2642 0-.4901.1477-.5682.3636h-.0227v-.3295h-.3239z"/><path d="m60.956 23.0455c.4431 0 .767-.2216.8693-.5512l-.3239-.0909c-.0852.2273-.2827.3409-.5454.3409-.3935 0-.6648-.2542-.6804-.7216h1.5838v-.142c0-.8125-.483-1.0909-.9375-1.0909-.5909 0-.983.4659-.983 1.1363 0 .6705.3864 1.1194 1.0171 1.1194zm-.6804-1.3125c.0227-.3395.2627-.6421.6463-.6421.3636 0 .5966.2727.5966.6421z"/><path d="m63.4943 23.8182h.3352v-1.1534h.0284c.0739.1193.216.3807.6364.3807.5455 0 .9261-.4375.9261-1.1307 0-.6875-.3806-1.125-.9318-1.125-.4261 0-.5568.2613-.6307.375h-.0397v-.3466h-.3239zm.3296-1.9091c0-.4886.2159-.8182.625-.8182.4261 0 .6363.358.6363.8182 0 .4659-.2159.8352-.6363.8352-.4035 0-.625-.3409-.625-.8352z"/><path d="m65.9318 23h.3352v-1.3807c0-.294.233-.5113.5512-.5113.0838 0 .1463.0156.1932.0397l.1136-.2841c-.0682-.0483-.1577-.0795-.2784-.0795-.2642 0-.4901.1477-.5682.3636h-.0227v-.3295h-.3239z"/><path d="m68.2869 23.0455c.5909 0 .9887-.4489.9887-1.125 0-.6819-.3978-1.1307-.9887-1.1307s-.9886.4488-.9886 1.1307c0 .6761.3977 1.125.9886 1.125zm0-.3012c-.4488 0-.6534-.3863-.6534-.8238s.2046-.8296.6534-.8296c.4489 0 .6534.3921.6534.8296s-.2045.8238-.6534.8238z"/><path d="m70.6111 23.0455c.4205 0 .5625-.2614.6364-.3807h.0398v.3352h.3238v-2.9091h-.3352v1.0739h-.0284c-.0739-.1137-.2045-.375-.6307-.375-.5511 0-.9318.4375-.9318 1.125 0 .6932.3807 1.1307.9261 1.1307zm.0455-.3012c-.4205 0-.6364-.3693-.6364-.8352 0-.4602.2103-.8182.6364-.8182.4091 0 .625.3296.625.8182 0 .4943-.2216.8352-.625.8352z"/><path d="m73.6467 22.108c0 .409-.3125.5965-.5625.5965-.2785 0-.4773-.2045-.4773-.5227v-1.3636h-.3352v1.3863c0 .5569.2954.8239.7045.8239.3295 0 .5455-.1761.6477-.3977h.0228v.3693h.3352v-2.1818h-.3352z"/><path d="m75.4822 23.0455c.483 0 .8012-.2955.858-.6819h-.3352c-.0625.2387-.2614.3807-.5228.3807-.3977 0-.6534-.3295-.6534-.8352 0-.4943.2614-.8182.6534-.8182.2955 0 .4716.1818.5228.3807h.3352c-.0568-.4091-.4034-.6818-.8636-.6818-.591 0-.983.4659-.983 1.1307 0 .6534.375 1.125.9886 1.125z"/><path d="m77.7791 20.8182h-.4659v-.5227h-.3352v.5227h-.3296v.2841h.3296v1.3636c0 .3807.3068.5625.5909.5625.125 0 .2045-.0227.25-.0398l-.0682-.3011c-.0284.0057-.0739.017-.1477.017-.1478 0-.2898-.0454-.2898-.3295v-1.2727h.4659z"/><path d="m78.2834 23h.3352v-2.1818h-.3352zm.1704-2.5455c.1307 0 .2387-.1022.2387-.2272s-.108-.2273-.2387-.2273-.2386.1023-.2386.2273.1079.2272.2386.2272z"/><path d="m81.0167 20.8182h-.3637l-.6022 1.7386h-.0228l-.6022-1.7386h-.3637l.8069 2.1818h.3409z"/><path d="m81.5959 23h.3352v-2.1818h-.3352zm.1704-2.5455c.1307 0 .2387-.1022.2387-.2272s-.108-.2273-.2387-.2273-.2386.1023-.2386.2273.1079.2272.2386.2272z"/><path d="m83.494 20.8182h-.466v-.5227h-.3352v.5227h-.3295v.2841h.3295v1.3636c0 .3807.3068.5625.5909.5625.125 0 .2046-.0227.25-.0398l-.0682-.3011c-.0284.0057-.0738.017-.1477.017-.1477 0-.2898-.0454-.2898-.3295v-1.2727h.466z"/><path d="m84.2028 23.8466c.3068 0 .517-.1591.642-.4943l.9375-2.5341h-.3636l-.6023 1.7386h-.0227l-.6023-1.7386h-.3636l.8068 2.1932-.0739.2045c-.1179.3267-.2727.358-.517.2955l-.0853.2954c.0341.0171.1307.0398.2444.0398z"/><path d="m.642034 25.0909h-.335227v2.9091h.335227z"/><path d="m1.25603 28h.33522v-2.1818h-.33522zm.17045-2.5455c.13068 0 .23864-.1022.23864-.2272s-.10796-.2273-.23864-.2273-.23864.1023-.23864.2273.10796.2272.23864.2272z"/><path d="m2.20524 28h.33523v-.8168l.23438-.2173.81676 1.0341h.42613l-.99005-1.25.92187-.9318h-.41477l-.95455.9716h-.03977v-1.6989h-.33523z"/><path d="m5.20596 28.0455c.44318 0 .76704-.2216.86931-.5512l-.32386-.0909c-.08523.2273-.28267.3409-.54545.3409-.39347 0-.66478-.2542-.6804-.7216h1.5838v-.142c0-.8125-.48295-1.0909-.9375-1.0909-.59091 0-.98295.4659-.98295 1.1363 0 .6705.38636 1.1194 1.01705 1.1194zm-.6804-1.3125c.02272-.3395.26278-.6421.6463-.6421.36364 0 .5966.2727.5966.6421z"/><path d="m8.69317 25.8182h-.46591v-.5227h-.33523v.5227h-.32954v.2841h.32954v1.3636c0 .3807.30682.5625.59091.5625.125 0 .20455-.0227.25-.0398l-.06818-.3011c-.02841.0057-.07386.017-.14773.017-.14772 0-.28977-.0454-.28977-.3295v-1.2727h.46591z"/><path d="m9.57953 26.6875c0-.3807.2429-.5966.57387-.5966.3153 0 .5057.1989.5057.5455v1.3636h.3352v-1.3864c0-.561-.2983-.8238-.7443-.8238-.34376 0-.53978.1434-.64206.3693h-.02841v-1.0682h-.33522v2.9091h.33522z"/><path d="m11.6076 28h.3352v-2.1818h-.3352zm.1704-2.5455c.1307 0 .2387-.1022.2387-.2272s-.108-.2273-.2387-.2273c-.1306 0-.2386.1023-.2386.2273s.108.2272.2386.2272z"/><path d="m14.1023 26.3068c-.1052-.3096-.3409-.517-.7728-.517-.4602 0-.8011.2613-.8011.6307 0 .3011.179.5028.5795.5965l.3637.0853c.2201.0511.3238.1562.3238.3068 0 .1875-.1988.3409-.5113.3409-.2742 0-.446-.1179-.5057-.3523l-.3182.0796c.0781.3707.3835.5682.8296.5682.5071 0 .8522-.277.8522-.6535 0-.3039-.1903-.4957-.5795-.5909l-.3239-.0795c-.2585-.0639-.375-.1506-.375-.3182 0-.1875.1989-.3239.4659-.3239.2926 0 .4134.162.4716.3125z"/><path d="m16.266 28h.3295l.4773-1.6761h.0341l.4773 1.6761h.3295l.6648-2.1818h-.3523l-.4716 1.6648h-.0227l-.4602-1.6648h-.358l-.4659 1.6704h-.0227l-.4716-1.6704h-.3523z"/><path d="m19.0217 28h.3352v-2.1818h-.3352zm.1704-2.5455c.1307 0 .2386-.1022.2386-.2272s-.1079-.2273-.2386-.2273-.2386.1023-.2386.2273.1079.2272.2386.2272z"/><path d="m20.3061 25.0909h-.3352v2.9091h.3352z"/><path d="m21.2553 25.0909h-.3352v2.9091h.3352z"/><path d="m22.9943 28h.3352v-2.1818h-.3352zm.1705-2.5455c.1306 0 .2386-.1022.2386-.2272s-.108-.2273-.2386-.2273c-.1307 0-.2387.1023-.2387.2273s.108.2272.2387.2272z"/><path d="m24.2788 26.6875c0-.3807.2357-.5966.5568-.5966.3111 0 .5.2031.5.5455v1.3636h.3352v-1.3864c0-.5568-.2969-.8238-.7386-.8238-.3296 0-.5341.1477-.6364.3693h-.0284v-.3409h-.3239v2.1818h.3353z"/><path d="m27.1697 28.0455c.483 0 .8012-.2955.858-.6819h-.3352c-.0625.2387-.2614.3807-.5228.3807-.3977 0-.6534-.3295-.6534-.8352 0-.4943.2614-.8182.6534-.8182.2955 0 .4716.1818.5228.3807h.3352c-.0568-.4091-.4034-.6818-.8636-.6818-.591 0-.983.4659-.983 1.1307 0 .6534.375 1.125.9886 1.125z"/><path d="m28.5177 28h.3353v-1.3807c0-.294.2329-.5113.5511-.5113.0838 0 .1463.0156.1932.0397l.1136-.2841c-.0682-.0483-.1576-.0795-.2784-.0795-.2642 0-.49.1477-.5682.3636h-.0227v-.3295h-.3239z"/><path d="m30.9013 28.0455c.4431 0 .767-.2216.8693-.5512l-.3239-.0909c-.0852.2273-.2826.3409-.5454.3409-.3935 0-.6648-.2542-.6804-.7216h1.5838v-.142c0-.8125-.483-1.0909-.9375-1.0909-.5909 0-.983.4659-.983 1.1363 0 .6705.3864 1.1194 1.0171 1.1194zm-.6804-1.3125c.0227-.3395.2628-.6421.6463-.6421.3636 0 .5966.2727.5966.6421z"/><path d="m32.9567 28.0511c.3806 0 .5795-.2045.6477-.3466h.017v.2955h.3353v-1.4375c0-.6932-.5284-.7727-.8069-.7727-.3295 0-.7045.1136-.875.5113l.3182.1137c.0739-.1591.2486-.3296.5682-.3296.3082 0 .4602.1634.4602.4432v.0114c0 .1619-.1647.1477-.5625.1988-.4048.0526-.8466.1421-.8466.6421 0 .4261.3296.6704.7444.6704zm.0511-.3011c-.267 0-.4602-.1193-.4602-.3523 0-.2557.2329-.3352.4943-.3693.142-.017.5227-.0568.5795-.125v.3068c0 .2728-.2159.5398-.6136.5398z"/><path d="m36.114 26.3068c-.1051-.3096-.3409-.517-.7727-.517-.4603 0-.8012.2613-.8012.6307 0 .3011.179.5028.5796.5965l.3636.0853c.2202.0511.3239.1562.3239.3068 0 .1875-.1989.3409-.5114.3409-.2741 0-.446-.1179-.5057-.3523l-.3182.0796c.0782.3707.3836.5682.8296.5682.5071 0 .8523-.277.8523-.6535 0-.3039-.1904-.4957-.5796-.5909l-.3239-.0795c-.2585-.0639-.375-.1506-.375-.3182 0-.1875.1989-.3239.466-.3239.2926 0 .4133.162.4715.3125z"/><path d="m37.5731 28.0455c.4432 0 .7671-.2216.8694-.5512l-.3239-.0909c-.0852.2273-.2827.3409-.5455.3409-.3934 0-.6647-.2542-.6804-.7216h1.5839v-.142c0-.8125-.483-1.0909-.9375-1.0909-.591 0-.983.4659-.983 1.1363 0 .6705.3864 1.1194 1.017 1.1194zm-.6804-1.3125c.0228-.3395.2628-.6421.6464-.6421.3636 0 .5965.2727.5965.6421z"/><path d="m41.0604 25.8182h-.466v-.5227h-.3352v.5227h-.3295v.2841h.3295v1.3636c0 .3807.3068.5625.5909.5625.125 0 .2046-.0227.25-.0398l-.0682-.3011c-.0284.0057-.0738.017-.1477.017-.1477 0-.2898-.0454-.2898-.3295v-1.2727h.466z"/><path d="m41.9467 26.6875c0-.3807.2429-.5966.5739-.5966.3153 0 .5057.1989.5057.5455v1.3636h.3352v-1.3864c0-.561-.2983-.8238-.7443-.8238-.3438 0-.5398.1434-.6421.3693h-.0284v-1.0682h-.3352v2.9091h.3352z"/><path d="m44.8895 28.0455c.4432 0 .7671-.2216.8694-.5512l-.3239-.0909c-.0852.2273-.2827.3409-.5455.3409-.3934 0-.6647-.2542-.6803-.7216h1.5838v-.142c0-.8125-.483-1.0909-.9375-1.0909-.591 0-.983.4659-.983 1.1363 0 .6705.3864 1.1194 1.017 1.1194zm-.6803-1.3125c.0227-.3395.2627-.6421.6463-.6421.3636 0 .5965.2727.5965.6421z"/><path d="m48.3143 28.0455c.4829 0 .8011-.2955.8579-.6819h-.3352c-.0625.2387-.2614.3807-.5227.3807-.3978 0-.6534-.3295-.6534-.8352 0-.4943.2613-.8182.6534-.8182.2954 0 .4716.1818.5227.3807h.3352c-.0568-.4091-.4034-.6818-.8636-.6818-.5909 0-.983.4659-.983 1.1307 0 .6534.375 1.125.9887 1.125z"/><path d="m50.3043 28.0511c.3807 0 .5796-.2045.6477-.3466h.0171v.2955h.3352v-1.4375c0-.6932-.5284-.7727-.8068-.7727-.3295 0-.7045.1136-.875.5113l.3182.1137c.0738-.1591.2486-.3296.5682-.3296.3082 0 .4602.1634.4602.4432v.0114c0 .1619-.1648.1477-.5625.1988-.4048.0526-.8466.1421-.8466.6421 0 .4261.3295.6704.7443.6704zm.0512-.3011c-.2671 0-.4603-.1193-.4603-.3523 0-.2557.233-.3352.4943-.3693.1421-.017.5228-.0568.5796-.125v.3068c0 .2728-.2159.5398-.6136.5398z"/><path d="m51.9162 28.8182h.3352v-1.1534h.0284c.0739.1193.2159.3807.6364.3807.5454 0 .9261-.4375.9261-1.1307 0-.6875-.3807-1.125-.9318-1.125-.4261 0-.5568.2613-.6307.375h-.0398v-.3466h-.3238zm.3295-1.9091c0-.4886.2159-.8182.625-.8182.4262 0 .6364.358.6364.8182 0 .4659-.2159.8352-.6364.8352-.4034 0-.625-.3409-.625-.8352z"/><path d="m54.9957 28.0511c.3807 0 .5796-.2045.6478-.3466h.017v.2955h.3352v-1.4375c0-.6932-.5284-.7727-.8068-.7727-.3295 0-.7045.1136-.875.5113l.3182.1137c.0739-.1591.2486-.3296.5682-.3296.3082 0 .4602.1634.4602.4432v.0114c0 .1619-.1648.1477-.5625.1988-.4048.0526-.8466.1421-.8466.6421 0 .4261.3296.6704.7443.6704zm.0512-.3011c-.2671 0-.4603-.1193-.4603-.3523 0-.2557.233-.3352.4944-.3693.142-.017.5227-.0568.5795-.125v.3068c0 .2728-.2159.5398-.6136.5398z"/><path d="m57.4939 28.0455c.483 0 .8012-.2955.858-.6819h-.3352c-.0625.2387-.2614.3807-.5228.3807-.3977 0-.6534-.3295-.6534-.8352 0-.4943.2614-.8182.6534-.8182.2955 0 .4716.1818.5228.3807h.3352c-.0568-.4091-.4034-.6818-.8636-.6818-.5909 0-.983.4659-.983 1.1307 0 .6534.375 1.125.9886 1.125z"/><path d="m58.842 28h.3352v-2.1818h-.3352zm.1704-2.5455c.1307 0 .2387-.1022.2387-.2272s-.108-.2273-.2387-.2273-.2386.1023-.2386.2273.1079.2272.2386.2272z"/><path d="m60.74 25.8182h-.4659v-.5227h-.3352v.5227h-.3295v.2841h.3295v1.3636c0 .3807.3068.5625.5909.5625.125 0 .2046-.0227.25-.0398l-.0682-.3011c-.0284.0057-.0738.017-.1477.017-.1477 0-.2898-.0454-.2898-.3295v-1.2727h.4659z"/><path d="m61.4489 28.8466c.3068 0 .517-.1591.642-.4943l.9375-2.5341h-.3636l-.6023 1.7386h-.0227l-.6023-1.7386h-.3636l.8068 2.1932-.0739.2045c-.1179.3267-.2727.358-.517.2955l-.0853.2954c.0341.0171.1307.0398.2444.0398z"/><path d="m65.4822 28.0455c.5909 0 .9887-.4489.9887-1.125 0-.6819-.3978-1.1307-.9887-1.1307s-.9886.4488-.9886 1.1307c0 .6761.3977 1.125.9886 1.125zm0-.3012c-.4488 0-.6534-.3863-.6534-.8238s.2046-.8296.6534-.8296c.4489 0 .6534.3921.6534.8296s-.2045.8238-.6534.8238z"/><path d="m67.9542 25.8182h-.4887v-.2216c0-.2159.091-.3296.3125-.3296.0966 0 .1535.0228.1875.0341l.0966-.2897c-.0511-.0228-.1534-.0569-.3181-.0569-.3125 0-.6137.1875-.6137.5625v.3012h-.3523v.2841h.3523v1.8977h.3352v-1.8977h.4887z"/><path d="m69.8842 26.6875c0-.3807.2429-.5966.5739-.5966.3153 0 .5057.1989.5057.5455v1.3636h.3352v-1.3864c0-.561-.2983-.8238-.7443-.8238-.3438 0-.5398.1434-.6421.3693h-.0284v-1.0682h-.3352v2.9091h.3352z"/><path d="m72.827 28.0455c.4432 0 .7671-.2216.8694-.5512l-.3239-.0909c-.0852.2273-.2827.3409-.5455.3409-.3934 0-.6647-.2542-.6803-.7216h1.5838v-.142c0-.8125-.483-1.0909-.9375-1.0909-.5909 0-.983.4659-.983 1.1363 0 .6705.3864 1.1194 1.017 1.1194zm-.6803-1.3125c.0227-.3395.2627-.6421.6463-.6421.3636 0 .5965.2727.5965.6421z"/><path d="m74.8824 28.0511c.3807 0 .5796-.2045.6478-.3466h.017v.2955h.3352v-1.4375c0-.6932-.5284-.7727-.8068-.7727-.3295 0-.7045.1136-.875.5113l.3182.1137c.0739-.1591.2486-.3296.5682-.3296.3082 0 .4602.1634.4602.4432v.0114c0 .1619-.1647.1477-.5625.1988-.4048.0526-.8466.1421-.8466.6421 0 .4261.3296.6704.7443.6704zm.0512-.3011c-.2671 0-.4602-.1193-.4602-.3523 0-.2557.2329-.3352.4943-.3693.142-.017.5227-.0568.5795-.125v.3068c0 .2728-.2159.5398-.6136.5398z"/><path d="m76.8295 25.0909h-.3352v2.9091h.3352z"/><path d="m78.3924 25.8182h-.4659v-.5227h-.3352v.5227h-.3296v.2841h.3296v1.3636c0 .3807.3068.5625.5909.5625.125 0 .2045-.0227.25-.0398l-.0682-.3011c-.0284.0057-.0739.017-.1477.017-.1478 0-.2898-.0454-.2898-.3295v-1.2727h.4659z"/><path d="m79.2788 26.6875c0-.3807.2429-.5966.5738-.5966.3154 0 .5057.1989.5057.5455v1.3636h.3352v-1.3864c0-.561-.2983-.8238-.7443-.8238-.3437 0-.5398.1434-.642.3693h-.0284v-1.0682h-.3353v2.9091h.3353z"/><path d="m82.1932 28.0455c.4829 0 .8011-.2955.8579-.6819h-.3352c-.0625.2387-.2614.3807-.5227.3807-.3978 0-.6534-.3295-.6534-.8352 0-.4943.2613-.8182.6534-.8182.2954 0 .4716.1818.5227.3807h.3352c-.0568-.4091-.4034-.6818-.8636-.6818-.5909 0-.983.4659-.983 1.1307 0 .6534.375 1.125.9887 1.125z"/><path d="m84.1832 28.0511c.3807 0 .5796-.2045.6478-.3466h.017v.2955h.3352v-1.4375c0-.6932-.5284-.7727-.8068-.7727-.3295 0-.7045.1136-.875.5113l.3182.1137c.0739-.1591.2486-.3296.5682-.3296.3082 0 .4602.1634.4602.4432v.0114c0 .1619-.1648.1477-.5625.1988-.4048.0526-.8466.1421-.8466.6421 0 .4261.3296.6704.7443.6704zm.0512-.3011c-.2671 0-.4603-.1193-.4603-.3523 0-.2557.233-.3352.4944-.3693.142-.017.5227-.0568.5795-.125v.3068c0 .2728-.2159.5398-.6136.5398z"/><path d="m85.7951 28h.3352v-1.3807c0-.294.233-.5113.5512-.5113.0838 0 .1463.0156.1931.0397l.1137-.2841c-.0682-.0483-.1577-.0795-.2784-.0795-.2642 0-.4901.1477-.5682.3636h-.0227v-.3295h-.3239z"/><path d="m88.1786 28.0455c.4432 0 .7671-.2216.8693-.5512l-.3238-.0909c-.0853.2273-.2827.3409-.5455.3409-.3935 0-.6648-.2542-.6804-.7216h1.5838v-.142c0-.8125-.4829-1.0909-.9375-1.0909-.5909 0-.9829.4659-.9829 1.1363 0 .6705.3863 1.1194 1.017 1.1194zm-.6804-1.3125c.0227-.3395.2628-.6421.6463-.6421.3637 0 .5966.2727.5966.6421z"/><path d="m1.85226 31.3068c-.10511-.3096-.34091-.517-.77273-.517-.460223 0-.801132.2613-.801132.6307 0 .3011.178977.5028.579545.5965l.363637.0853c.22017.0511.32386.1562.32386.3068 0 .1875-.19886.3409-.51136.3409-.274148 0-.446023-.1179-.505682-.3523l-.318182.0796c.078125.3707.383523.5682.829544.5682.5071 0 .85227-.277.85227-.6535 0-.3039-.19034-.4957-.57954-.5909l-.323865-.0795c-.258522-.0639-.375-.1506-.375-.3182 0-.1875.198864-.3239.465905-.3239.29262 0 .41336.162.4716.3125z"/><path d="m2.6012 33.8466c.30681 0 .51704-.1591.64204-.4943l.9375-2.5341h-.36363l-.60228 1.7386h-.02272l-.60228-1.7386h-.36363l.80681 2.1932-.07386.2045c-.1179.3267-.27273.358-.51704.2955l-.08523.2954c.03409.0171.13068.0398.24432.0398z"/><path d="m6.16867 31.3068c-.10512-.3096-.34091-.517-.77273-.517-.46023 0-.80114.2613-.80114.6307 0 .3011.17898.5028.57955.5965l.36364.0853c.22017.0511.32386.1562.32386.3068 0 .1875-.19886.3409-.51136.3409-.27415 0-.44603-.1179-.50569-.3523l-.31818.0796c.07813.3707.38353.5682.82955.5682.5071 0 .85227-.277.85227-.6535 0-.3039-.19034-.4957-.57954-.5909l-.32387-.0795c-.25852-.0639-.375-.1506-.375-.3182 0-.1875.19887-.3239.46591-.3239.29261 0 .41335.162.47159.3125z"/><path d="m7.66192 30.8182h-.46591v-.5227h-.33523v.5227h-.32954v.2841h.32954v1.3636c0 .3807.30682.5625.59091.5625.125 0 .20455-.0227.25-.0398l-.06818-.3011c-.02841.0057-.07386.017-.14773.017-.14772 0-.28977-.0454-.28977-.3295v-1.2727h.46591z"/><path d="m9.05752 33.0455c.44318 0 .76704-.2216.86932-.5512l-.32387-.0909c-.08523.2273-.28267.3409-.54545.3409-.39347 0-.66478-.2542-.6804-.7216h1.58381v-.142c0-.8125-.48296-1.0909-.9375-1.0909-.59091 0-.98296.4659-.98296 1.1363 0 .6705.38637 1.1194 1.01705 1.1194zm-.6804-1.3125c.02273-.3395.26278-.6421.64631-.6421.36363 0 .59659.2727.59659.6421z"/><path d="m10.4709 33h.3352v-1.3636c0-.3196.233-.5455.4943-.5455.2543 0 .4318.1662.4318.4148v1.4943h.3409v-1.4205c0-.2812.1762-.4886.483-.4886.2386 0 .4432.1264.4432.4489v1.4602h.3352v-1.4602c0-.5128-.2756-.75-.6648-.75-.3125 0-.5412.1434-.6534.3693h-.0227c-.108-.233-.2983-.3693-.5852-.3693-.2841 0-.4943.1363-.5853.3693h-.0284v-.3409h-.3238z"/><path d="m15.4929 31.3068c-.1051-.3096-.3409-.517-.7727-.517-.4603 0-.8012.2613-.8012.6307 0 .3011.179.5028.5796.5965l.3636.0853c.2202.0511.3239.1562.3239.3068 0 .1875-.1989.3409-.5114.3409-.2741 0-.446-.1179-.5057-.3523l-.3182.0796c.0782.3707.3836.5682.8296.5682.5071 0 .8523-.277.8523-.6535 0-.3039-.1904-.4957-.5796-.5909l-.3239-.0795c-.2585-.0639-.375-.1506-.375-.3182 0-.1875.1989-.3239.466-.3239.2926 0 .4133.162.4715.3125z"/><path d="m16.5373 32.6023h-.3637l-.017.1591c-.0412.3849-.1222.7684-.1591.9488h.2557c.0682-.1932.2131-.6307.2613-.9545z"/><path d="m19.2322 30.8182h-.4659v-.5227h-.3352v.5227h-.3295v.2841h.3295v1.3636c0 .3807.3068.5625.5909.5625.125 0 .2046-.0227.25-.0398l-.0682-.3011c-.0284.0057-.0738.017-.1477.017-.1477 0-.2898-.0454-.2898-.3295v-1.2727h.4659z"/><path d="m19.7365 33h.3352v-1.3807c0-.294.233-.5113.5512-.5113.0838 0 .1463.0156.1931.0397l.1137-.2841c-.0682-.0483-.1577-.0795-.2784-.0795-.2642 0-.4901.1477-.5682.3636h-.0227v-.3295h-.3239z"/><path d="m22.12 33.0455c.4432 0 .7671-.2216.8693-.5512l-.3238-.0909c-.0853.2273-.2827.3409-.5455.3409-.3934 0-.6648-.2542-.6804-.7216h1.5838v-.142c0-.8125-.4829-1.0909-.9375-1.0909-.5909 0-.9829.4659-.9829 1.1363 0 .6705.3863 1.1194 1.017 1.1194zm-.6804-1.3125c.0227-.3395.2628-.6421.6463-.6421.3637 0 .5966.2727.5966.6421z"/><path d="m24.1754 33.0511c.3807 0 .5796-.2045.6477-.3466h.0171v.2955h.3352v-1.4375c0-.6932-.5284-.7727-.8068-.7727-.3295 0-.7045.1136-.875.5113l.3182.1137c.0738-.1591.2486-.3296.5682-.3296.3082 0 .4602.1634.4602.4432v.0114c0 .1619-.1648.1477-.5625.1988-.4048.0526-.8466.1421-.8466.6421 0 .4261.3295.6704.7443.6704zm.0512-.3011c-.2671 0-.4603-.1193-.4603-.3523 0-.2557.233-.3352.4943-.3693.1421-.017.5228-.0568.5796-.125v.3068c0 .2728-.2159.5398-.6136.5398z"/><path d="m26.7361 30.8182h-.4659v-.5227h-.3352v.5227h-.3295v.2841h.3295v1.3636c0 .3807.3068.5625.5909.5625.125 0 .2046-.0227.25-.0398l-.0682-.3011c-.0284.0057-.0738.017-.1477.017-.1477 0-.2898-.0454-.2898-.3295v-1.2727h.4659z"/><path d="m28.3654 33h.3352v-1.3636c0-.3196.233-.5455.4943-.5455.2543 0 .4319.1662.4319.4148v1.4943h.3409v-1.4205c0-.2812.1761-.4886.4829-.4886.2387 0 .4432.1264.4432.4489v1.4602h.3352v-1.4602c0-.5128-.2755-.75-.6647-.75-.3125 0-.5412.1434-.6534.3693h-.0228c-.1079-.233-.2983-.3693-.5852-.3693-.2841 0-.4943.1363-.5852.3693h-.0284v-.3409h-.3239z"/><path d="m32.7283 33.0455c.5909 0 .9887-.4489.9887-1.125 0-.6819-.3978-1.1307-.9887-1.1307s-.9886.4488-.9886 1.1307c0 .6761.3977 1.125.9886 1.125zm0-.3012c-.4488 0-.6534-.3863-.6534-.8238s.2046-.8296.6534-.8296c.4489 0 .6534.3921.6534.8296s-.2045.8238-.6534.8238z"/><path d="m34.2287 33h.3352v-1.3807c0-.294.233-.5113.5511-.5113.0839 0 .1464.0156.1932.0397l.1137-.2841c-.0682-.0483-.1577-.0795-.2784-.0795-.2642 0-.4901.1477-.5682.3636h-.0228v-.3295h-.3238z"/><path d="m36.6122 33.0455c.4432 0 .767-.2216.8693-.5512l-.3238-.0909c-.0853.2273-.2827.3409-.5455.3409-.3935 0-.6648-.2542-.6804-.7216h1.5838v-.142c0-.8125-.4829-1.0909-.9375-1.0909-.5909 0-.9829.4659-.9829 1.1363 0 .6705.3863 1.1194 1.017 1.1194zm-.6804-1.3125c.0227-.3395.2628-.6421.6463-.6421.3636 0 .5966.2727.5966.6421z"/><path d="m39.1506 33.8182h.3352v-1.1534h.0284c.0739.1193.2159.3807.6364.3807.5454 0 .9261-.4375.9261-1.1307 0-.6875-.3807-1.125-.9318-1.125-.4262 0-.5568.2613-.6307.375h-.0398v-.3466h-.3238zm.3295-1.9091c0-.4886.2159-.8182.625-.8182.4261 0 .6364.358.6364.8182 0 .4659-.2159.8352-.6364.8352-.4034 0-.625-.3409-.625-.8352z"/><path d="m42.2301 33.0511c.3807 0 .5795-.2045.6477-.3466h.0171v.2955h.3352v-1.4375c0-.6932-.5284-.7727-.8068-.7727-.3296 0-.7046.1136-.875.5113l.3182.1137c.0738-.1591.2485-.3296.5681-.3296.3083 0 .4603.1634.4603.4432v.0114c0 .1619-.1648.1477-.5625.1988-.4049.0526-.8466.1421-.8466.6421 0 .4261.3295.6704.7443.6704zm.0511-.3011c-.267 0-.4602-.1193-.4602-.3523 0-.2557.233-.3352.4943-.3693.1421-.017.5228-.0568.5796-.125v.3068c0 .2728-.2159.5398-.6137.5398z"/><path d="m44.7908 30.8182h-.4659v-.5227h-.3352v.5227h-.3296v.2841h.3296v1.3636c0 .3807.3068.5625.5909.5625.125 0 .2045-.0227.25-.0398l-.0682-.3011c-.0284.0057-.0738.017-.1477.017-.1477 0-.2898-.0454-.2898-.3295v-1.2727h.4659z"/><path d="m45.2951 33h.3352v-2.1818h-.3352zm.1704-2.5455c.1307 0 .2387-.1022.2387-.2272s-.108-.2273-.2387-.2273c-.1306 0-.2386.1023-.2386.2273s.108.2272.2386.2272z"/><path d="m47.1591 33.0455c.4432 0 .767-.2216.8693-.5512l-.3239-.0909c-.0852.2273-.2826.3409-.5454.3409-.3935 0-.6648-.2542-.6804-.7216h1.5838v-.142c0-.8125-.483-1.0909-.9375-1.0909-.5909 0-.983.4659-.983 1.1363 0 .6705.3864 1.1194 1.0171 1.1194zm-.6804-1.3125c.0227-.3395.2628-.6421.6463-.6421.3636 0 .5966.2727.5966.6421z"/><path d="m48.9077 31.6875c0-.3807.2358-.5966.5568-.5966.3111 0 .5.2031.5.5455v1.3636h.3352v-1.3864c0-.5568-.2969-.8238-.7386-.8238-.3296 0-.5341.1477-.6364.3693h-.0284v-.3409h-.3239v2.1818h.3353z"/><path d="m51.8611 30.8182h-.4659v-.5227h-.3352v.5227h-.3295v.2841h.3295v1.3636c0 .3807.3068.5625.5909.5625.125 0 .2046-.0227.25-.0398l-.0682-.3011c-.0284.0057-.0738.017-.1477.017-.1477 0-.2898-.0454-.2898-.3295v-1.2727h.4659z"/><path d="m53.8718 31.3068c-.1051-.3096-.3409-.517-.7727-.517-.4603 0-.8012.2613-.8012.6307 0 .3011.179.5028.5796.5965l.3636.0853c.2202.0511.3239.1562.3239.3068 0 .1875-.1989.3409-.5114.3409-.2741 0-.446-.1179-.5057-.3523l-.3182.0796c.0782.3707.3836.5682.8296.5682.5071 0 .8523-.277.8523-.6535 0-.3039-.1904-.4957-.5796-.5909l-.3238-.0795c-.2586-.0639-.375-.1506-.375-.3182 0-.1875.1988-.3239.4659-.3239.2926 0 .4133.162.4716.3125z"/><path d="m56.1832 33.0511c.3807 0 .5796-.2045.6478-.3466h.017v.2955h.3352v-1.4375c0-.6932-.5284-.7727-.8068-.7727-.3295 0-.7045.1136-.875.5113l.3182.1137c.0739-.1591.2486-.3296.5682-.3296.3082 0 .4602.1634.4602.4432v.0114c0 .1619-.1648.1477-.5625.1988-.4048.0526-.8466.1421-.8466.6421 0 .4261.3296.6704.7443.6704zm.0512-.3011c-.2671 0-.4603-.1193-.4603-.3523 0-.2557.233-.3352.4944-.3693.142-.017.5227-.0568.5795-.125v.3068c0 .2728-.2159.5398-.6136.5398z"/><path d="m58.1303 31.6875c0-.3807.2358-.5966.5568-.5966.3111 0 .5.2031.5.5455v1.3636h.3353v-1.3864c0-.5568-.2969-.8238-.7387-.8238-.3295 0-.5341.1477-.6363.3693h-.0285v-.3409h-.3238v2.1818h.3352z"/><path d="m60.9588 33.0455c.4204 0 .5625-.2614.6364-.3807h.0397v.3352h.3239v-2.9091h-.3352v1.0739h-.0284c-.0739-.1137-.2046-.375-.6307-.375-.5512 0-.9318.4375-.9318 1.125 0 .6932.3806 1.1307.9261 1.1307zm.0454-.3012c-.4204 0-.6363-.3693-.6363-.8352 0-.4602.2102-.8182.6363-.8182.4091 0 .625.3296.625.8182 0 .4943-.2215.8352-.625.8352z"/><path d="m63.7443 33h.3352v-2.1818h-.3352zm.1705-2.5455c.1306 0 .2386-.1022.2386-.2272s-.108-.2273-.2386-.2273c-.1307 0-.2387.1023-.2387.2273s.108.2272.2387.2272z"/><path d="m64.6935 33h.3353v-1.3636c0-.3196.2329-.5455.4943-.5455.2542 0 .4318.1662.4318.4148v1.4943h.3409v-1.4205c0-.2812.1761-.4886.483-.4886.2386 0 .4431.1264.4431.4489v1.4602h.3353v-1.4602c0-.5128-.2756-.75-.6648-.75-.3125 0-.5412.1434-.6534.3693h-.0227c-.108-.233-.2983-.3693-.5853-.3693-.2841 0-.4943.1363-.5852.3693h-.0284v-.3409h-.3239z"/><path d="m68.1701 33.8182h.3352v-1.1534h.0284c.0739.1193.2159.3807.6364.3807.5454 0 .9261-.4375.9261-1.1307 0-.6875-.3807-1.125-.9318-1.125-.4261 0-.5568.2613-.6307.375h-.0397v-.3466h-.3239zm.3295-1.9091c0-.4886.2159-.8182.625-.8182.4262 0 .6364.358.6364.8182 0 .4659-.2159.8352-.6364.8352-.4034 0-.625-.3409-.625-.8352z"/><path d="m70.6076 33h.3352v-1.3807c0-.294.233-.5113.5512-.5113.0838 0 .1463.0156.1931.0397l.1137-.2841c-.0682-.0483-.1577-.0795-.2784-.0795-.2642 0-.4901.1477-.5682.3636h-.0227v-.3295h-.3239z"/><path d="m72.9627 33.0455c.5909 0 .9886-.4489.9886-1.125 0-.6819-.3977-1.1307-.9886-1.1307s-.9886.4488-.9886 1.1307c0 .6761.3977 1.125.9886 1.125zm0-.3012c-.4489 0-.6534-.3863-.6534-.8238s.2045-.8296.6534-.8296.6534.3921.6534.8296-.2045.8238-.6534.8238z"/><path d="m76.169 30.8182h-.3636l-.6023 1.7386h-.0227l-.6023-1.7386h-.3636l.8068 2.1818h.3409z"/><path d="m77.4481 33.0455c.4432 0 .7671-.2216.8694-.5512l-.3239-.0909c-.0852.2273-.2827.3409-.5455.3409-.3934 0-.6647-.2542-.6804-.7216h1.5839v-.142c0-.8125-.483-1.0909-.9375-1.0909-.591 0-.983.4659-.983 1.1363 0 .6705.3864 1.1194 1.017 1.1194zm-.6804-1.3125c.0228-.3395.2628-.6421.6464-.6421.3636 0 .5965.2727.5965.6421z"/><path d="m80.8729 33.0455c.5909 0 .9886-.4489.9886-1.125 0-.6819-.3977-1.1307-.9886-1.1307s-.9887.4488-.9887 1.1307c0 .6761.3978 1.125.9887 1.125zm0-.3012c-.4489 0-.6534-.3863-.6534-.8238s.2045-.8296.6534-.8296c.4488 0 .6534.3921.6534.8296s-.2046.8238-.6534.8238z"/><path d="m83.7482 32.108c0 .409-.3125.5965-.5625.5965-.2784 0-.4773-.2045-.4773-.5227v-1.3636h-.3352v1.3863c0 .5569.2955.8239.7046.8239.3295 0 .5454-.1761.6477-.3977h.0227v.3693h.3352v-2.1818h-.3352z"/><path d="m84.6974 33h.3353v-1.3807c0-.294.2329-.5113.5511-.5113.0838 0 .1463.0156.1932.0397l.1136-.2841c-.0682-.0483-.1577-.0795-.2784-.0795-.2642 0-.49.1477-.5682.3636h-.0227v-.3295h-.3239z"/><path d="m.352262 38h.323863v-.3352h.039773c.073864.1193.215909.3807.636362.3807.54546 0 .92614-.4375.92614-1.1307 0-.6875-.38068-1.125-.93182-1.125-.426137 0-.556818.2613-.630682.375h-.028409v-1.0739h-.335227zm.329545-1.0909c0-.4886.215909-.8182.625003-.8182.42613 0 .63636.358.63636.8182 0 .4659-.21591.8352-.63636.8352-.403412 0-.625003-.3409-.625003-.8352z"/><path d="m4.16618 37.108c0 .409-.3125.5965-.5625.5965-.27841 0-.47727-.2045-.47727-.5227v-1.3636h-.33523v1.3863c0 .5569.29546.8239.70455.8239.32954 0 .54545-.1761.64773-.3977h.02272v.3693h.33523v-2.1818h-.33523z"/><path d="m6.66086 36.3068c-.10512-.3096-.34091-.517-.77273-.517-.46023 0-.80114.2613-.80114.6307 0 .3011.17898.5028.57955.5965l.36363.0853c.22017.0511.32387.1562.32387.3068 0 .1875-.19887.3409-.51137.3409-.27414 0-.44602-.1179-.50568-.3523l-.31818.0796c.07813.3707.38352.5682.82955.5682.5071 0 .85227-.277.85227-.6535 0-.3039-.19034-.4957-.57955-.5909l-.32386-.0795c-.25852-.0639-.375-.1506-.375-.3182 0-.1875.19886-.3239.46591-.3239.29261 0 .41335.162.47159.3125z"/><path d="m7.20524 38h.33523v-2.1818h-.33523zm.17046-2.5455c.13068 0 .23864-.1022.23864-.2272s-.10796-.2273-.23864-.2273-.23864.1023-.23864.2273.10796.2272.23864.2272z"/><path d="m8.48969 36.6875c0-.3807.2358-.5966.55682-.5966.31108 0 .5.2031.5.5455v1.3636h.33523v-1.3864c0-.5568-.29688-.8238-.73864-.8238-.32955 0-.53409.1477-.63636.3693h-.02841v-.3409h-.32387v2.1818h.33523z"/><path d="m11.4091 38.0455c.4432 0 .767-.2216.8693-.5512l-.3239-.0909c-.0852.2273-.2826.3409-.5454.3409-.3935 0-.6648-.2542-.6804-.7216h1.5838v-.142c0-.8125-.483-1.0909-.9375-1.0909-.5909 0-.983.4659-.983 1.1363 0 .6705.3864 1.1194 1.0171 1.1194zm-.6804-1.3125c.0227-.3395.2628-.6421.6463-.6421.3636 0 .5966.2727.5966.6421z"/><path d="m14.3679 36.3068c-.1051-.3096-.3409-.517-.7727-.517-.4603 0-.8012.2613-.8012.6307 0 .3011.179.5028.5796.5965l.3636.0853c.2202.0511.3239.1562.3239.3068 0 .1875-.1989.3409-.5114.3409-.2741 0-.446-.1179-.5057-.3523l-.3182.0796c.0782.3707.3836.5682.8296.5682.5071 0 .8523-.277.8523-.6535 0-.3039-.1904-.4957-.5796-.5909l-.3239-.0795c-.2585-.0639-.375-.1506-.375-.3182 0-.1875.1989-.3239.466-.3239.2926 0 .4133.162.4715.3125z"/><path d="m16.4577 36.3068c-.1051-.3096-.3409-.517-.7727-.517-.4602 0-.8011.2613-.8011.6307 0 .3011.1789.5028.5795.5965l.3636.0853c.2202.0511.3239.1562.3239.3068 0 .1875-.1989.3409-.5114.3409-.2741 0-.446-.1179-.5056-.3523l-.3182.0796c.0781.3707.3835.5682.8295.5682.5071 0 .8523-.277.8523-.6535 0-.3039-.1903-.4957-.5795-.5909l-.3239-.0795c-.2585-.0639-.375-.1506-.375-.3182 0-.1875.1989-.3239.4659-.3239.2926 0 .4134.162.4716.3125z"/><path d="m17.2464 38.0227c.1407 0 .2557-.115.2557-.2557 0-.1406-.115-.2556-.2557-.2556-.1406 0-.2556.115-.2556.2556 0 .1407.115.2557.2556.2557z"/></g></svg>