<svg fill="none" height="34" viewBox="0 0 92 34" width="92" xmlns="http://www.w3.org/2000/svg"><g fill="#fff"><path d="m.471613 3 .292614-.82386h1.176133l.29262.82386h.36931l-1.06818-2.909091h-.36363l-1.068185 2.909091zm.403409-1.13636.465908-1.312504h.02273l.46591 1.312504z"/><path d="m3.34519.090909h-.33522v2.909091h.33522z"/><path d="m3.95918 3h.33523v-1.36364c0-.3196.23296-.54545.49432-.54545.25426 0 .43182.16619.43182.41477v1.49432h.34091v-1.42045c0-.28125.17613-.48864.48295-.48864.23864 0 .44318.12642.44318.44886v1.46023h.33523v-1.46023c0-.51278-.27557-.749997-.66477-.749997-.3125 0-.54119.143466-.65341.369317h-.02273c-.10795-.232954-.29829-.369317-.58523-.369317-.28409 0-.49431.136363-.58522.369317h-.02841v-.340908h-.32387z"/><path d="m8.32211 3.04545c.59091 0 .98864-.44886.98864-1.125 0-.68181-.39773-1.130677-.98864-1.130677s-.98864.448867-.98864 1.130677c0 .67614.39773 1.125.98864 1.125zm0-.30113c-.44886 0-.65341-.38637-.65341-.82387s.20455-.82954.65341-.82954.65341.39204.65341.82954-.20455.82387-.65341.82387z"/><path d="m11.3679 1.30682c-.1051-.309661-.3409-.517047-.7727-.517047-.4602 0-.80114.261367-.80114.630677 0 .30114.17897.50285.57954.5966l.3636.08522c.2202.05114.3239.15625.3239.30682 0 .1875-.1989.34091-.5114.34091-.2741 0-.446-.1179-.5056-.35227l-.31823.07954c.07813.37074.38353.56818.82953.56818.5071 0 .8523-.27698.8523-.6534 0-.30398-.1903-.49574-.5796-.59091l-.3238-.07955c-.2585-.06392-.375-.15057-.375-.31818 0-.1875.1988-.32386.4659-.32386.2926 0 .4133.16193.4716.3125z"/><path d="m12.8612.818182h-.4659v-.522727h-.3353v.522727h-.3295v.284088h.3295v1.36364c0 .38068.3069.5625.5909.5625.125 0 .2046-.02273.25-.03977l-.0681-.30114c-.0284.00568-.0739.01705-.1478.01705-.1477 0-.2897-.04546-.2897-.32955v-1.27273h.4659z"/><path d="m15.1325 3.05114c.3807 0 .5795-.20455.6477-.34659h.0171v.29545h.3352v-1.4375c0-.693182-.5284-.772727-.8068-.772727-.3296 0-.7046.113636-.875.511367l.3181.11363c.0739-.15909.2486-.32954.5682-.32954.3083 0 .4603.16335.4603.44318v.01136c0 .16193-.1648.14773-.5625.19887-.4049.05255-.8466.14204-.8466.64204 0 .42614.3295.67046.7443.67046zm.0511-.30114c-.267 0-.4602-.11932-.4602-.35227 0-.25568.2329-.33523.4943-.36932.1421-.01705.5227-.05682.5796-.125v.30682c0 .27272-.216.53977-.6137.53977z"/><path d="m17.0796.090909h-.3353v2.909091h.3353z"/><path d="m18.1879 3h.3295l.4773-1.67614h.0341l.4773 1.67614h.3295l.6648-2.181818h-.3523l-.4716 1.664768h-.0227l-.4602-1.664768h-.358l-.4659 1.670458h-.0227l-.4716-1.670458h-.3523z"/><path d="m21.5856 3.05114c.3807 0 .5796-.20455.6477-.34659h.0171v.29545h.3352v-1.4375c0-.693182-.5284-.772727-.8068-.772727-.3296 0-.7046.113636-.875.511367l.3182.11363c.0738-.15909.2485-.32954.5682-.32954.3082 0 .4602.16335.4602.44318v.01136c0 .16193-.1648.14773-.5625.19887-.4049.05255-.8466.14204-.8466.64204 0 .42614.3295.67046.7443.67046zm.0511-.30114c-.267 0-.4602-.11932-.4602-.35227 0-.25568.233-.33523.4943-.36932.1421-.01705.5228-.05682.5796-.125v.30682c0 .27272-.2159.53977-.6137.53977z"/><path d="m23.3239 3.84659c.3068 0 .517-.15909.642-.49432l.9375-2.534088h-.3636l-.6023 1.738638h-.0227l-.6023-1.738638h-.3636l.8068 2.193178-.0739.20455c-.1179.3267-.2727.35795-.517.29545l-.0852.29546c.0341.01704.1307.03977.2443.03977z"/><path d="m26.8914 1.30682c-.1052-.309661-.341-.517047-.7728-.517047-.4602 0-.8011.261367-.8011.630677 0 .30114.179.50285.5795.5966l.3637.08522c.2201.05114.3238.15625.3238.30682 0 .1875-.1988.34091-.5113.34091-.2742 0-.446-.1179-.5057-.35227l-.3182.07954c.0781.37074.3835.56818.8296.56818.5071 0 .8522-.27698.8522-.6534 0-.30398-.1903-.49574-.5795-.59091l-.3239-.07955c-.2585-.06392-.375-.15057-.375-.31818 0-.1875.1989-.32386.4659-.32386.2926 0 .4134.16193.4716.3125z"/><path d="m28.7653 3.84659c.3068 0 .517-.15909.642-.49432l.9375-2.534088h-.3636l-.6023 1.738638h-.0227l-.6023-1.738638h-.3636l.8068 2.193178-.0739.20455c-.1179.3267-.2727.35795-.517.29545l-.0852.29546c.0341.01704.1307.03977.2443.03977z"/><path d="m31.624 3.04545c.4431 0 .767-.22159.8693-.55113l-.3239-.09091c-.0852.22727-.2827.34091-.5454.34091-.3935 0-.6648-.25426-.6804-.72159h1.5838v-.14205c0-.8125-.483-1.090907-.9375-1.090907-.5909 0-.983.465907-.983 1.136367 0 .67045.3864 1.11931 1.0171 1.11931zm-.6804-1.3125c.0227-.33948.2627-.64204.6463-.64204.3636 0 .5966.27273.5966.64204z"/><path d="m34.5828 1.30682c-.1051-.309661-.3409-.517047-.7728-.517047-.4602 0-.8011.261367-.8011.630677 0 .30114.179.50285.5795.5966l.3637.08522c.2202.05114.3238.15625.3238.30682 0 .1875-.1988.34091-.5113.34091-.2742 0-.446-.1179-.5057-.35227l-.3182.07954c.0781.37074.3835.56818.8296.56818.5071 0 .8522-.27698.8522-.6534 0-.30398-.1903-.49574-.5795-.59091l-.3239-.07955c-.2585-.06392-.375-.15057-.375-.31818 0-.1875.1989-.32386.4659-.32386.2926 0 .4134.16193.4716.3125z"/><path d="m35.3715 3.02273c.1406 0 .2557-.11506.2557-.25568 0-.14063-.1151-.25569-.2557-.25569-.1407 0-.2557.11506-.2557.25569 0 .14062.115.25568.2557.25568z"/><path d="m37.2401.403409h.9148v2.596591h.3522v-2.596591h.9148v-.3125h-2.1818z"/><path d="m40.4901 3.04545c.5909 0 .9886-.44886.9886-1.125 0-.68181-.3977-1.130677-.9886-1.130677s-.9887.448867-.9887 1.130677c0 .67614.3978 1.125.9887 1.125zm0-.30113c-.4489 0-.6534-.38637-.6534-.82387s.2045-.82954.6534-.82954c.4488 0 .6534.39204.6534.82954s-.2046.82387-.6534.82387z"/><path d="m43.1154 3h.3353v-1.38068c0-.29404.2329-.51137.5511-.51137.0838 0 .1463.01563.1932.03978l.1136-.284094c-.0682-.048295-.1577-.079545-.2784-.079545-.2642 0-.4901.147727-.5682.363639h-.0227v-.329548h-.3239z"/><path d="m45.499 3.04545c.4431 0 .767-.22159.8693-.55113l-.3239-.09091c-.0852.22727-.2827.34091-.5454.34091-.3935 0-.6648-.25426-.6804-.72159h1.5838v-.14205c0-.8125-.483-1.090907-.9375-1.090907-.5909 0-.983.465907-.983 1.136367 0 .67045.3864 1.11931 1.0171 1.11931zm-.6804-1.3125c.0227-.33948.2627-.64204.6463-.64204.3636 0 .5966.27273.5966.64204z"/><path d="m47.5544 3.05114c.3806 0 .5795-.20455.6477-.34659h.017v.29545h.3353v-1.4375c0-.693182-.5285-.772727-.8069-.772727-.3295 0-.7045.113636-.875.511367l.3182.11363c.0739-.15909.2486-.32954.5682-.32954.3082 0 .4602.16335.4602.44318v.01136c0 .16193-.1647.14773-.5625.19887-.4048.05255-.8466.14204-.8466.64204 0 .42614.3296.67046.7444.67046zm.0511-.30114c-.2671 0-.4602-.11932-.4602-.35227 0-.25568.2329-.33523.4943-.36932.142-.01705.5227-.05682.5795-.125v.30682c0 .27272-.2159.53977-.6136.53977z"/><path d="m49.5014.090909h-.3352v2.909091h.3352z"/><path d="m50.1154 3h.3353v-2.181818h-.3353zm.1705-2.545455c.1307 0 .2386-.102272.2386-.227272s-.1079-.227273-.2386-.227273-.2386.102273-.2386.227273.1079.227272.2386.227272z"/><path d="m52.6101 1.30682c-.1051-.309661-.3409-.517047-.7727-.517047-.4602 0-.8012.261367-.8012.630677 0 .30114.179.50285.5796.5966l.3636.08522c.2202.05114.3239.15625.3239.30682 0 .1875-.1989.34091-.5114.34091-.2741 0-.446-.1179-.5057-.35227l-.3181.07954c.0781.37074.3835.56818.8295.56818.5071 0 .8523-.27698.8523-.6534 0-.30398-.1904-.49574-.5796-.59091l-.3238-.07955c-.2586-.06392-.375-.15057-.375-.31818 0-.1875.1988-.32386.4659-.32386.2926 0 .4133.16193.4716.3125z"/><path d="m54.0693 3.04545c.4432 0 .767-.22159.8693-.55113l-.3239-.09091c-.0852.22727-.2826.34091-.5454.34091-.3935 0-.6648-.25426-.6804-.72159h1.5838v-.14205c0-.8125-.483-1.090907-.9375-1.090907-.5909 0-.983.465907-.983 1.136367 0 .67045.3864 1.11931 1.0171 1.11931zm-.6804-1.3125c.0227-.33948.2628-.64204.6463-.64204.3636 0 .5966.27273.5966.64204z"/><path d="m57.494 3.04545c.5909 0 .9886-.44886.9886-1.125 0-.68181-.3977-1.130677-.9886-1.130677s-.9887.448867-.9887 1.130677c0 .67614.3978 1.125.9887 1.125zm0-.30113c-.4489 0-.6534-.38637-.6534-.82387s.2045-.82954.6534-.82954c.4488 0 .6534.39204.6534.82954s-.2046.82387-.6534.82387z"/><path d="m60.3693 2.10795c0 .4091-.3125.5966-.5625.5966-.2784 0-.4772-.20455-.4772-.52273v-1.363638h-.3353v1.386368c0 .55681.2955.82386.7046.82386.3295 0 .5454-.17614.6477-.39773h.0227v.36932h.3353v-2.181818h-.3353z"/><path d="m61.3186 3h.3352v-1.38068c0-.29404.2329-.51137.5511-.51137.0838 0 .1463.01563.1932.03978l.1136-.284094c-.0681-.048295-.1576-.079545-.2784-.079545-.2642 0-.49.147727-.5682.363639h-.0227v-.329548h-.3238z"/><path d="m65.7628.818182h-.3636l-.6023 1.738638h-.0227l-.6023-1.738638h-.3636l.8068 2.181818h.3409z"/><path d="m66.342 3h.3352v-2.181818h-.3352zm.1705-2.545455c.1306 0 .2386-.102272.2386-.227272s-.108-.227273-.2386-.227273c-.1307 0-.2387.102273-.2387.227273s.108.227272.2387.227272z"/><path d="m68.8367 1.30682c-.1051-.309661-.3409-.517047-.7728-.517047-.4602 0-.8011.261367-.8011.630677 0 .30114.179.50285.5796.5966l.3636.08522c.2202.05114.3239.15625.3239.30682 0 .1875-.1989.34091-.5114.34091-.2742 0-.446-.1179-.5057-.35227l-.3182.07954c.0782.37074.3835.56818.8296.56818.5071 0 .8522-.27698.8522-.6534 0-.30398-.1903-.49574-.5795-.59091l-.3239-.07955c-.2585-.06392-.375-.15057-.375-.31818 0-.1875.1989-.32386.4659-.32386.2927 0 .4134.16193.4716.3125z"/><path d="m69.3811 3h.3352v-2.181818h-.3352zm.1704-2.545455c.1307 0 .2387-.102272.2387-.227272s-.108-.227273-.2387-.227273-.2386.102273-.2386.227273.1079.227272.2386.227272z"/><path d="m71.2166 3.04545c.591 0 .9887-.44886.9887-1.125 0-.68181-.3977-1.130677-.9887-1.130677-.5909 0-.9886.448867-.9886 1.130677 0 .67614.3977 1.125.9886 1.125zm0-.30113c-.4488 0-.6534-.38637-.6534-.82387s.2046-.82954.6534-.82954c.4489 0 .6534.39204.6534.82954s-.2045.82387-.6534.82387z"/><path d="m73.0522 1.6875c0-.38068.2358-.59659.5568-.59659.3111 0 .5.20312.5.54545v1.36364h.3353v-1.38636c0-.55682-.2969-.823867-.7387-.823867-.3295 0-.5341.147727-.6363.369317h-.0284v-.340908h-.3239v2.181818h.3352z"/><path d="m75.5568 2.60227h-.3636l-.017.15909c-.0412.38495-.1222.76847-.1591.94887h.2557c.0681-.19318.213-.63068.2613-.95455z"/><path d="m77.7973 3h.3295l.4773-1.67614h.0341l.4772 1.67614h.3296l.6648-2.181818h-.3523l-.4716 1.664768h-.0227l-.4603-1.664768h-.3579l-.4659 1.670458h-.0228l-.4715-1.670458h-.3523z"/><path d="m81.3935 3.04545c.4432 0 .767-.22159.8693-.55113l-.3239-.09091c-.0852.22727-.2826.34091-.5454.34091-.3935 0-.6648-.25426-.6804-.72159h1.5838v-.14205c0-.8125-.483-1.090907-.9375-1.090907-.5909 0-.983.465907-.983 1.136367 0 .67045.3864 1.11931 1.0171 1.11931zm-.6804-1.3125c.0227-.33948.2628-.64204.6463-.64204.3636 0 .5966.27273.5966.64204z"/><path d="m.30684 8h.335228v-1.36364c0-.3196.232954-.54545.494322-.54545.25426 0 .43181.16619.43181.41477v1.49432h.34091v-1.42045c0-.28125.17614-.48864.48296-.48864.23863 0 .44318.12642.44318.44886v1.46023h.33523v-1.46023c0-.51278-.27557-.75-.66478-.75-.3125 0-.54119.14347-.65341.36932h-.02272c-.10796-.23295-.2983-.36932-.58523-.36932-.284091 0-.494318.13637-.585227.36932h-.028409v-.34091h-.323864z"/><path d="m5.1584 7.10795c0 .40909-.3125.5966-.5625.5966-.27841 0-.47727-.20455-.47727-.52273v-1.36364h-.33523v1.38637c0 .55681.29546.82386.70455.82386.32954 0 .54545-.17614.64773-.39773h.02272v.36932h.33523v-2.18182h-.33523z"/><path d="m7.65308 6.30682c-.10512-.30966-.34091-.51705-.77273-.51705-.46023 0-.80114.26137-.80114.63068 0 .30114.17898.50284.57955.5966l.36363.08522c.22018.05114.32387.15625.32387.30682 0 .1875-.19887.34091-.51137.34091-.27414 0-.44602-.1179-.50568-.35227l-.31818.07954c.07813.37074.38352.56818.82955.56818.5071 0 .85227-.27698.85227-.6534 0-.30398-.19034-.49574-.57955-.59091l-.32386-.07955c-.25852-.06392-.375-.15057-.375-.31818 0-.1875.19886-.32386.46591-.32386.29261 0 .41335.16193.47159.3125z"/><path d="m9.14633 5.81818h-.46591v-.52273h-.33523v.52273h-.32954v.28409h.32954v1.36364c0 .38068.30682.5625.59091.5625.125 0 .20455-.02273.25-.03977l-.06818-.30114c-.02841.00568-.07386.01705-.14773.01705-.14772 0-.28977-.04546-.28977-.32955v-1.27273h.46591z"/><path d="m11.4176 8.05114c.3807 0 .5796-.20455.6478-.34659h.017v.29545h.3352v-1.4375c0-.69318-.5284-.77273-.8068-.77273-.3295 0-.7045.11364-.875.51137l.3182.11363c.0739-.15909.2486-.32954.5682-.32954.3082 0 .4602.16335.4602.44318v.01136c0 .16193-.1648.14773-.5625.19887-.4048.05255-.8466.14204-.8466.64204 0 .42614.3296.67046.7443.67046zm.0512-.30114c-.2671 0-.4603-.11932-.4603-.35227 0-.25568.233-.33523.4944-.36932.142-.01705.5227-.05682.5795-.125v.30682c0 .27272-.2159.53977-.6136.53977z"/><path d="m13.3647 5.09091h-.3352v2.90909h.3352z"/><path d="m14.3139 5.09091h-.3352v2.90909h.3352z"/><path d="m16.0984 8h.3239v-.33523h.0397c.0739.11932.2159.38068.6364.38068.5454 0 .9261-.4375.9261-1.13068 0-.6875-.3807-1.125-.9318-1.125-.4261 0-.5568.26137-.6307.375h-.0284v-1.07386h-.3352zm.3295-1.09091c0-.48864.2159-.81818.625-.81818.4262 0 .6364.35795.6364.81818 0 .46591-.2159.83523-.6364.83523-.4034 0-.625-.34091-.625-.83523z"/><path d="m19.4521 8.04545c.4432 0 .767-.22159.8693-.55113l-.3239-.09091c-.0852.22727-.2826.34091-.5454.34091-.3935 0-.6648-.25426-.6804-.72159h1.5838v-.14205c0-.8125-.483-1.09091-.9375-1.09091-.5909 0-.983.46591-.983 1.13637 0 .67045.3864 1.11931 1.0171 1.11931zm-.6804-1.3125c.0227-.33948.2628-.64204.6463-.64204.3636 0 .5966.27273.5966.64204z"/><path d="m21.7518 8.04545c.483 0 .8011-.29545.858-.68181h-.3353c-.0625.23863-.2613.38068-.5227.38068-.3977 0-.6534-.32955-.6534-.83523 0-.49432.2614-.81818.6534-.81818.2955 0 .4716.18182.5227.38068h.3353c-.0569-.40909-.4035-.68182-.8637-.68182-.5909 0-.9829.46591-.9829 1.13068 0 .65341.375 1.125.9886 1.125z"/><path d="m23.9862 8.04545c.5909 0 .9886-.44886.9886-1.125 0-.68181-.3977-1.13068-.9886-1.13068s-.9887.44887-.9887 1.13068c0 .67614.3978 1.125.9887 1.125zm0-.30113c-.4489 0-.6534-.38637-.6534-.82387s.2045-.82954.6534-.82954c.4488 0 .6534.39204.6534.82954s-.2046.82387-.6534.82387z"/><path d="m25.4865 8h.3353v-1.36364c0-.3196.2329-.54545.4943-.54545.2542 0 .4318.16619.4318.41477v1.49432h.3409v-1.42045c0-.28125.1761-.48864.483-.48864.2386 0 .4431.12642.4431.44886v1.46023h.3353v-1.46023c0-.51278-.2756-.75-.6648-.75-.3125 0-.5412.14347-.6534.36932h-.0227c-.108-.23295-.2983-.36932-.5853-.36932-.2841 0-.4943.13637-.5852.36932h-.0284v-.34091h-.3239z"/><path d="m29.8779 8.04545c.4431 0 .767-.22159.8693-.55113l-.3239-.09091c-.0852.22727-.2827.34091-.5454.34091-.3935 0-.6648-.25426-.6804-.72159h1.5838v-.14205c0-.8125-.483-1.09091-.9375-1.09091-.5909 0-.983.46591-.983 1.13637 0 .67045.3864 1.11931 1.0171 1.11931zm-.6804-1.3125c.0227-.33948.2628-.64204.6463-.64204.3636 0 .5966.27273.5966.64204z"/><path d="m33.331 8.04545c.4432 0 .767-.22159.8693-.55113l-.3239-.09091c-.0852.22727-.2826.34091-.5454.34091-.3935 0-.6648-.25426-.6804-.72159h1.5838v-.14205c0-.8125-.483-1.09091-.9375-1.09091-.5909 0-.983.46591-.983 1.13637 0 .67045.3864 1.11931 1.0171 1.11931zm-.6804-1.3125c.0227-.33948.2628-.64204.6463-.64204.3636 0 .5966.27273.5966.64204z"/><path d="m34.9357 5.81818h-.3863l.6932 1.09091-.6932 1.09091h.3863l.5228-.84659.5227.84659h.3864l-.7046-1.09091.7046-1.09091h-.3864l-.5227.89205z"/><path d="m36.8459 8.81818h.3352v-1.15341h.0284c.0739.11932.216.38068.6364.38068.5455 0 .9261-.4375.9261-1.13068 0-.6875-.3806-1.125-.9318-1.125-.4261 0-.5568.26137-.6307.375h-.0397v-.34659h-.3239zm.3295-1.90909c0-.48864.216-.81818.625-.81818.4262 0 .6364.35795.6364.81818 0 .46591-.2159.83523-.6364.83523-.4034 0-.625-.34091-.625-.83523z"/><path d="m40.1982 8.04545c.4432 0 .767-.22159.8693-.55113l-.3239-.09091c-.0852.22727-.2826.34091-.5454.34091-.3935 0-.6648-.25426-.6804-.72159h1.5838v-.14205c0-.8125-.483-1.09091-.9375-1.09091-.5909 0-.983.46591-.983 1.13637 0 .67045.3864 1.11931 1.0171 1.11931zm-.6804-1.3125c.0227-.33948.2628-.64204.6463-.64204.3636 0 .5966.27273.5966.64204z"/><path d="m41.6115 8h.3353v-1.38068c0-.29546.2329-.51137.5511-.51137.0895 0 .1818.01705.2045.02273v-.34091c-.0383-.00284-.1264-.00568-.1761-.00568-.2614 0-.4886.14773-.5682.36364h-.0227v-.32955h-.3239z"/><path d="m44.1854 5.81818h-.4659v-.52273h-.3352v.52273h-.3296v.28409h.3296v1.36364c0 .38068.3068.5625.5909.5625.125 0 .2045-.02273.25-.03977l-.0682-.30114c-.0284.00568-.0739.01705-.1477.01705-.1478 0-.2898-.04546-.2898-.32955v-1.27273h.4659z"/><path d="m46.196 6.30682c-.1051-.30966-.3409-.51705-.7727-.51705-.4602 0-.8011.26137-.8011.63068 0 .30114.179.50284.5795.5966l.3637.08522c.2201.05114.3238.15625.3238.30682 0 .1875-.1988.34091-.5113.34091-.2742 0-.4461-.1179-.5057-.35227l-.3182.07954c.0781.37074.3835.56818.8295.56818.5071 0 .8523-.27698.8523-.6534 0-.30398-.1903-.49574-.5795-.59091l-.3239-.07955c-.2585-.06392-.375-.15057-.375-.31818 0-.1875.1989-.32386.4659-.32386.2926 0 .4134.16193.4716.3125z"/><path d="m47.8654 8h.3353v-2.18182h-.3353zm.1705-2.54545c.1307 0 .2386-.10228.2386-.22728s-.1079-.22727-.2386-.22727-.2386.10227-.2386.22727.1079.22728.2386.22728z"/><path d="m49.1499 6.6875c0-.38068.2358-.59659.5568-.59659.3111 0 .5.20312.5.54545v1.36364h.3352v-1.38636c0-.55682-.2968-.82387-.7386-.82387-.3296 0-.5341.14773-.6364.36932h-.0284v-.34091h-.3238v2.18182h.3352z"/><path d="m53.1659 8.04545c.5909 0 .9886-.44886.9886-1.125 0-.68181-.3977-1.13068-.9886-1.13068s-.9887.44887-.9887 1.13068c0 .67614.3978 1.125.9887 1.125zm0-.30113c-.4489 0-.6534-.38637-.6534-.82387s.2045-.82954.6534-.82954c.4488 0 .6534.39204.6534.82954s-.2046.82387-.6534.82387z"/><path d="m56.0412 7.10795c0 .40909-.3125.5966-.5625.5966-.2784 0-.4773-.20455-.4773-.52273v-1.36364h-.3352v1.38637c0 .55681.2955.82386.7046.82386.3295 0 .5454-.17614.6477-.39773h.0227v.36932h.3352v-2.18182h-.3352z"/><path d="m56.9904 8h.3353v-1.38068c0-.29404.2329-.51137.5511-.51137.0838 0 .1463.01563.1932.03978l.1136-.28409c-.0682-.0483-.1577-.07955-.2784-.07955-.2642 0-.4901.14773-.5682.36364h-.0227v-.32955h-.3239z"/><path d="m60.4745 8.04545c.4204 0 .5625-.26136.6363-.38068h.0398v.33523h.3239v-2.90909h-.3353v1.07386h-.0284c-.0738-.11363-.2045-.375-.6307-.375-.5511 0-.9318.4375-.9318 1.125 0 .69318.3807 1.13068.9262 1.13068zm.0454-.30113c-.4204 0-.6364-.36932-.6364-.83523 0-.46023.2103-.81818.6364-.81818.4091 0 .625.32954.625.81818 0 .49432-.2216.83523-.625.83523z"/><path d="m63.0213 8.04545c.5909 0 .9887-.44886.9887-1.125 0-.68181-.3978-1.13068-.9887-1.13068s-.9886.44887-.9886 1.13068c0 .67614.3977 1.125.9886 1.125zm0-.30113c-.4488 0-.6534-.38637-.6534-.82387s.2046-.82954.6534-.82954c.4489 0 .6534.39204.6534.82954s-.2045.82387-.6534.82387z"/><path d="m64.5217 8h.3352v-1.36364c0-.3196.233-.54545.4943-.54545.2543 0 .4319.16619.4319.41477v1.49432h.3409v-1.42045c0-.28125.1761-.48864.4829-.48864.2386 0 .4432.12642.4432.44886v1.46023h.3352v-1.46023c0-.51278-.2755-.75-.6647-.75-.3125 0-.5412.14347-.6535.36932h-.0227c-.1079-.23295-.2983-.36932-.5852-.36932-.2841 0-.4943.13637-.5852.36932h-.0284v-.34091h-.3239z"/><path d="m68.6403 8.05114c.3807 0 .5795-.20455.6477-.34659h.0171v.29545h.3352v-1.4375c0-.69318-.5284-.77273-.8068-.77273-.3296 0-.7046.11364-.875.51137l.3182.11363c.0738-.15909.2485-.32954.5681-.32954.3083 0 .4603.16335.4603.44318v.01136c0 .16193-.1648.14773-.5625.19887-.4049.05255-.8466.14204-.8466.64204 0 .42614.3295.67046.7443.67046zm.0511-.30114c-.267 0-.4602-.11932-.4602-.35227 0-.25568.233-.33523.4943-.36932.1421-.01705.5228-.05682.5796-.125v.30682c0 .27272-.2159.53977-.6137.53977z"/><path d="m70.2522 8h.3352v-2.18182h-.3352zm.1704-2.54545c.1307 0 .2386-.10228.2386-.22728s-.1079-.22727-.2386-.22727-.2386.10227-.2386.22727.1079.22728.2386.22728z"/><path d="m71.5366 6.6875c0-.38068.2358-.59659.5568-.59659.3111 0 .5.20312.5.54545v1.36364h.3352v-1.38636c0-.55682-.2968-.82387-.7386-.82387-.3295 0-.5341.14773-.6364.36932h-.0284v-.34091h-.3238v2.18182h.3352z"/><path d="m73.7855 8.02273c.1407 0 .2557-.11506.2557-.25568 0-.14063-.115-.25569-.2557-.25569-.1406 0-.2556.11506-.2556.25569 0 .14062.115.25568.2556.25568z"/><path d="m76.3416 8h.3637l.642-2.31818h.0227l.6421 2.31818h.3636l.7955-2.90909h-.358l-.6079 2.36932h-.0284l-.6194-2.36932h-.3977l-.6193 2.36932h-.0284l-.608-2.36932h-.3579z"/><path d="m79.8999 6.6875c0-.38068.2429-.59659.5738-.59659.3154 0 .5057.19886.5057.54545v1.36364h.3353v-1.38636c0-.56108-.2983-.82387-.7444-.82387-.3437 0-.5397.14347-.642.36932h-.0284v-1.06818h-.3352v2.90909h.3352z"/><path d="m82.57 8.05114c.3807 0 .5795-.20455.6477-.34659h.0171v.29545h.3352v-1.4375c0-.69318-.5284-.77273-.8068-.77273-.3296 0-.7046.11364-.875.51137l.3181.11363c.0739-.15909.2486-.32954.5682-.32954.3083 0 .4603.16335.4603.44318v.01136c0 .16193-.1648.14773-.5625.19887-.4049.05255-.8466.14204-.8466.64204 0 .42614.3295.67046.7443.67046zm.0511-.30114c-.267 0-.4602-.11932-.4602-.35227 0-.25568.2329-.33523.4943-.36932.1421-.01705.5227-.05682.5796-.125v.30682c0 .27272-.216.53977-.6137.53977z"/><path d="m85.1307 5.81818h-.4659v-.52273h-.3352v.52273h-.3296v.28409h.3296v1.36364c0 .38068.3068.5625.5909.5625.125 0 .2045-.02273.25-.03977l-.0682-.30114c-.0284.00568-.0739.01705-.1477.01705-.1478 0-.2898-.04546-.2898-.32955v-1.27273h.4659z"/><path d="m87.2543 8h.3295l.4773-1.67614h.0341l.4773 1.67614h.3295l.6648-2.18182h-.3523l-.4716 1.66477h-.0227l-.4602-1.66477h-.358l-.4659 1.67046h-.0227l-.4716-1.67046h-.3523z"/><path d="m90.8505 8.04545c.4432 0 .7671-.22159.8693-.55113l-.3238-.09091c-.0853.22727-.2827.34091-.5455.34091-.3934 0-.6648-.25426-.6804-.72159h1.5838v-.14205c0-.8125-.4829-1.09091-.9375-1.09091-.5909 0-.9829.46591-.9829 1.13637 0 .67045.3863 1.11931 1.017 1.11931zm-.6804-1.3125c.0227-.33948.2628-.64204.6463-.64204.3637 0 .5966.27273.5966.64204z"/><path d="m1.1307 13.0455c.42046 0 .5625-.2614.63637-.3807h.03977v.3352h.32386v-2.9091h-.33522v1.0739h-.02841c-.07387-.1137-.20455-.375-.63068-.375-.551141 0-.931822.4375-.931822 1.125 0 .6932.380681 1.1307.926132 1.1307zm.04546-.3012c-.420456 0-.636365-.3693-.636365-.8352 0-.4602.210227-.8182.636365-.8182.40909 0 .625.3296.625.8182 0 .4943-.22159.8352-.625.8352z"/><path d="m3.67758 13.0455c.59091 0 .98864-.4489.98864-1.125 0-.6819-.39773-1.1307-.98864-1.1307s-.98864.4488-.98864 1.1307c0 .6761.39773 1.125.98864 1.125zm0-.3012c-.44886 0-.65341-.3863-.65341-.8238s.20455-.8296.65341-.8296.65341.3921.65341.8296-.20455.8238-.65341.8238z"/><path d="m7.84839 11.3068c-.10511-.3096-.34091-.517-.77273-.517-.46023 0-.80113.2613-.80113.6307 0 .3011.17897.5028.57954.5965l.36364.0853c.22017.0511.32386.1562.32386.3068 0 .1875-.19886.3409-.51136.3409-.27415 0-.44603-.1179-.50568-.3523l-.31819.0796c.07813.3707.38353.5682.82955.5682.5071 0 .85227-.277.85227-.6535 0-.3039-.19034-.4957-.57954-.5909l-.32387-.0795c-.25852-.0639-.375-.1506-.375-.3182 0-.1875.19887-.3239.46591-.3239.29262 0 .41335.162.47159.3125z"/><path d="m8.72801 11.6875c0-.3807.24289-.5966.57386-.5966.31534 0 .50568.1989.50568.5455v1.3636h.33525v-1.3864c0-.561-.29832-.8238-.74434-.8238-.34375 0-.53977.1434-.64205.3693h-.0284v-1.0682h-.33523v2.9091h.33523z"/><path d="m11.6424 13.0455c.5909 0 .9887-.4489.9887-1.125 0-.6819-.3978-1.1307-.9887-1.1307s-.9886.4488-.9886 1.1307c0 .6761.3977 1.125.9886 1.125zm0-.3012c-.4488 0-.6534-.3863-.6534-.8238s.2046-.8296.6534-.8296c.4489 0 .6534.3921.6534.8296s-.2045.8238-.6534.8238z"/><path d="m14.5178 12.108c0 .409-.3125.5965-.5625.5965-.2784 0-.4773-.2045-.4773-.5227v-1.3636h-.3352v1.3863c0 .5569.2954.8239.7045.8239.3296 0 .5455-.1761.6478-.3977h.0227v.3693h.3352v-2.1818h-.3352z"/><path d="m15.8022 10.0909h-.3352v2.9091h.3352z"/><path d="m17.2401 13.0455c.4204 0 .5625-.2614.6363-.3807h.0398v.3352h.3239v-2.9091h-.3352v1.0739h-.0285c-.0738-.1137-.2045-.375-.6306-.375-.5512 0-.9319.4375-.9319 1.125 0 .6932.3807 1.1307.9262 1.1307zm.0454-.3012c-.4204 0-.6363-.3693-.6363-.8352 0-.4602.2102-.8182.6363-.8182.4091 0 .625.3296.625.8182 0 .4943-.2216.8352-.625.8352z"/><path d="m20.071 13h.3239v-.3352h.0398c.0738.1193.2159.3807.6363.3807.5455 0 .9262-.4375.9262-1.1307 0-.6875-.3807-1.125-.9318-1.125-.4262 0-.5569.2613-.6307.375h-.0284v-1.0739h-.3353zm.3296-1.0909c0-.4886.2159-.8182.625-.8182.4261 0 .6364.358.6364.8182 0 .4659-.216.8352-.6364.8352-.4034 0-.625-.3409-.625-.8352z"/><path d="m23.4247 13.0455c.4432 0 .7671-.2216.8694-.5512l-.3239-.0909c-.0852.2273-.2827.3409-.5455.3409-.3934 0-.6647-.2542-.6804-.7216h1.5838v-.142c0-.8125-.4829-1.0909-.9375-1.0909-.5909 0-.9829.4659-.9829 1.1363 0 .6705.3864 1.1194 1.017 1.1194zm-.6804-1.3125c.0228-.3395.2628-.6421.6463-.6421.3637 0 .5966.2727.5966.6421z"/><path d="m26.0085 13h.3239v-.3352h.0398c.0738.1193.2159.3807.6363.3807.5455 0 .9262-.4375.9262-1.1307 0-.6875-.3807-1.125-.9318-1.125-.4262 0-.5569.2613-.6307.375h-.0284v-1.0739h-.3353zm.3296-1.0909c0-.4886.2159-.8182.625-.8182.4261 0 .6364.358.6364.8182 0 .4659-.216.8352-.6364.8352-.4034 0-.625-.3409-.625-.8352z"/><path d="m29.8225 12.108c0 .409-.3125.5965-.5625.5965-.2784 0-.4773-.2045-.4773-.5227v-1.3636h-.3352v1.3863c0 .5569.2954.8239.7045.8239.3296 0 .5455-.1761.6477-.3977h.0228v.3693h.3352v-2.1818h-.3352z"/><path d="m30.7717 13h.3352v-2.1818h-.3352zm.1704-2.5455c.1307 0 .2387-.1022.2387-.2272s-.108-.2273-.2387-.2273c-.1306 0-.2386.1023-.2386.2273s.108.2272.2386.2272z"/><path d="m32.0561 10.0909h-.3352v2.9091h.3352z"/><path d="m33.619 10.8182h-.4659v-.5227h-.3353v.5227h-.3295v.2841h.3295v1.3636c0 .3807.3069.5625.591.5625.125 0 .2045-.0227.25-.0398l-.0682-.3011c-.0284.0057-.0739.017-.1478.017-.1477 0-.2897-.0454-.2897-.3295v-1.2727h.4659z"/><path d="m36.1346 13.0455c.5909 0 .9886-.4489.9886-1.125 0-.6819-.3977-1.1307-.9886-1.1307s-.9886.4488-.9886 1.1307c0 .6761.3977 1.125.9886 1.125zm0-.3012c-.4489 0-.6534-.3863-.6534-.8238s.2045-.8296.6534-.8296.6534.3921.6534.8296-.2045.8238-.6534.8238z"/><path d="m37.9702 11.6875c0-.3807.2358-.5966.5568-.5966.3111 0 .5.2031.5.5455v1.3636h.3352v-1.3864c0-.5568-.2968-.8238-.7386-.8238-.3295 0-.5341.1477-.6364.3693h-.0284v-.3409h-.3238v2.1818h.3352z"/><path d="m41.7419 13.0511c.3806 0 .5795-.2045.6477-.3466h.017v.2955h.3353v-1.4375c0-.6932-.5285-.7727-.8069-.7727-.3295 0-.7045.1136-.875.5113l.3182.1137c.0739-.1591.2486-.3296.5682-.3296.3082 0 .4602.1634.4602.4432v.0114c0 .1619-.1647.1477-.5625.1988-.4048.0526-.8466.1421-.8466.6421 0 .4261.3296.6704.7444.6704zm.0511-.3011c-.2671 0-.4602-.1193-.4602-.3523 0-.2557.2329-.3352.4943-.3693.142-.017.5227-.0568.5795-.125v.3068c0 .2728-.2159.5398-.6136.5398z"/><path d="m43.6889 11.6875c0-.3807.2358-.5966.5569-.5966.311 0 .5.2031.5.5455v1.3636h.3352v-1.3864c0-.5568-.2969-.8238-.7386-.8238-.3296 0-.5341.1477-.6364.3693h-.0284v-.3409h-.3239v2.1818h.3352z"/><path d="m47.7333 13.0455c.4432 0 .7671-.2216.8693-.5512l-.3238-.0909c-.0852.2273-.2827.3409-.5455.3409-.3934 0-.6647-.2542-.6804-.7216h1.5838v-.142c0-.8125-.4829-1.0909-.9375-1.0909-.5909 0-.9829.4659-.9829 1.1363 0 .6705.3864 1.1194 1.017 1.1194zm-.6804-1.3125c.0228-.3395.2628-.6421.6463-.6421.3637 0 .5966.2727.5966.6421z"/><path d="m49.3381 10.8182h-.3864l.6932 1.0909-.6932 1.0909h.3864l.5227-.8466.5227.8466h.3864l-.7045-1.0909.7045-1.0909h-.3864l-.5227.892z"/><path d="m51.2482 13.8182h.3353v-1.1534h.0284c.0738.1193.2159.3807.6363.3807.5455 0 .9262-.4375.9262-1.1307 0-.6875-.3807-1.125-.9318-1.125-.4262 0-.5569.2613-.6307.375h-.0398v-.3466h-.3239zm.3296-1.9091c0-.4886.2159-.8182.625-.8182.4261 0 .6364.358.6364.8182 0 .4659-.216.8352-.6364.8352-.4034 0-.625-.3409-.625-.8352z"/><path d="m54.3278 13.0511c.3807 0 .5795-.2045.6477-.3466h.0171v.2955h.3352v-1.4375c0-.6932-.5284-.7727-.8068-.7727-.3296 0-.7046.1136-.875.5113l.3182.1137c.0738-.1591.2485-.3296.5681-.3296.3083 0 .4603.1634.4603.4432v.0114c0 .1619-.1648.1477-.5625.1988-.4049.0526-.8466.1421-.8466.6421 0 .4261.3295.6704.7443.6704zm.0511-.3011c-.267 0-.4602-.1193-.4602-.3523 0-.2557.233-.3352.4943-.3693.1421-.017.5227-.0568.5796-.125v.3068c0 .2728-.2159.5398-.6137.5398z"/><path d="m56.2749 11.6875c0-.3807.2358-.5966.5568-.5966.3111 0 .5.2031.5.5455v1.3636h.3352v-1.3864c0-.5568-.2968-.8238-.7386-.8238-.3296 0-.5341.1477-.6364.3693h-.0284v-.3409h-.3238v2.1818h.3352z"/><path d="m59.1034 13.0455c.4204 0 .5625-.2614.6363-.3807h.0398v.3352h.3239v-2.9091h-.3353v1.0739h-.0284c-.0738-.1137-.2045-.375-.6307-.375-.5511 0-.9318.4375-.9318 1.125 0 .6932.3807 1.1307.9262 1.1307zm.0454-.3012c-.4204 0-.6363-.3693-.6363-.8352 0-.4602.2102-.8182.6363-.8182.4091 0 .625.3296.625.8182 0 .4943-.2216.8352-.625.8352z"/><path d="m60.7639 13h.3352v-2.1818h-.3352zm.1704-2.5455c.1307 0 .2387-.1022.2387-.2272s-.108-.2273-.2387-.2273-.2386.1023-.2386.2273.1079.2272.2386.2272z"/><path d="m62.0483 11.6875c0-.3807.2358-.5966.5568-.5966.3111 0 .5.2031.5.5455v1.3636h.3353v-1.3864c0-.5568-.2969-.8238-.7387-.8238-.3295 0-.5341.1477-.6363.3693h-.0284v-.3409h-.3239v2.1818h.3352z"/><path d="m64.9336 13.8636c.5227 0 .9432-.2386.9432-.8011v-2.2443h-.3239v.3466h-.0341c-.0738-.1137-.2102-.375-.6363-.375-.5512 0-.9318.4375-.9318 1.1079 0 .6818.3977 1.0682.9261 1.0682.4261 0 .5625-.25.6364-.3693h.0284v.4432c0 .3636-.2557.5284-.608.5284-.3963 0-.5355-.2088-.625-.3296l-.267.1875c.1363.2287.4048.4375.892.4375zm-.0113-1.1988c-.4205 0-.6364-.3182-.6364-.7728 0-.4431.2102-.8011.6364-.8011.409 0 .625.3296.625.8011 0 .483-.2216.7728-.625.7728z"/><path d="m69.1609 11.3068c-.1051-.3096-.3409-.517-.7727-.517-.4603 0-.8012.2613-.8012.6307 0 .3011.179.5028.5796.5965l.3636.0853c.2202.0511.3239.1562.3239.3068 0 .1875-.1989.3409-.5114.3409-.2741 0-.446-.1179-.5057-.3523l-.3182.0796c.0782.3707.3836.5682.8296.5682.5071 0 .8523-.277.8523-.6535 0-.3039-.1904-.4957-.5796-.5909l-.3238-.0795c-.2586-.0639-.375-.1506-.375-.3182 0-.1875.1988-.3239.4659-.3239.2926 0 .4133.162.4716.3125z"/><path d="m70.5916 13.0455c.483 0 .8012-.2955.858-.6819h-.3352c-.0625.2387-.2614.3807-.5228.3807-.3977 0-.6534-.3295-.6534-.8352 0-.4943.2614-.8182.6534-.8182.2955 0 .4716.1818.5228.3807h.3352c-.0568-.4091-.4034-.6818-.8636-.6818-.5909 0-.983.4659-.983 1.1307 0 .6534.375 1.125.9886 1.125z"/><path d="m71.9397 13h.3352v-2.1818h-.3352zm.1704-2.5455c.1307 0 .2386-.1022.2386-.2272s-.1079-.2273-.2386-.2273-.2386.1023-.2386.2273.1079.2272.2386.2272z"/><path d="m73.8036 13.0455c.4432 0 .7671-.2216.8694-.5512l-.3239-.0909c-.0852.2273-.2827.3409-.5455.3409-.3934 0-.6647-.2542-.6804-.7216h1.5839v-.142c0-.8125-.483-1.0909-.9375-1.0909-.591 0-.983.4659-.983 1.1363 0 .6705.3864 1.1194 1.017 1.1194zm-.6804-1.3125c.0228-.3395.2628-.6421.6464-.6421.3636 0 .5965.2727.5965.6421z"/><path d="m75.5522 11.6875c0-.3807.2358-.5966.5568-.5966.3111 0 .5.2031.5.5455v1.3636h.3353v-1.3864c0-.5568-.2969-.8238-.7387-.8238-.3295 0-.5341.1477-.6363.3693h-.0284v-.3409h-.3239v2.1818h.3352z"/><path d="m78.5057 10.8182h-.4659v-.5227h-.3352v.5227h-.3296v.2841h.3296v1.3636c0 .3807.3068.5625.5909.5625.125 0 .2045-.0227.25-.0398l-.0682-.3011c-.0284.0057-.0739.017-.1477.017-.1478 0-.2898-.0454-.2898-.3295v-1.2727h.4659z"/><path d="m79.01 13h.3352v-2.1818h-.3352zm.1704-2.5455c.1307 0 .2387-.1022.2387-.2272s-.108-.2273-.2387-.2273-.2386.1023-.2386.2273.1079.2272.2386.2272z"/><path d="m80.9308 10.8182h-.4887v-.2216c0-.2159.0909-.3296.3125-.3296.0966 0 .1534.0228.1875.0341l.0966-.2897c-.0511-.02276-.1534-.05685-.3181-.05685-.3125 0-.6137.18745-.6137.56245v.3012h-.3523v.2841h.3523v1.8977h.3352v-1.8977h.4887z"/><path d="m81.4006 13h.3352v-2.1818h-.3352zm.1704-2.5455c.1307 0 .2387-.1022.2387-.2272s-.108-.2273-.2387-.2273c-.1306 0-.2386.1023-.2386.2273s.108.2272.2386.2272z"/><path d="m83.2362 13.0455c.4829 0 .8011-.2955.8579-.6819h-.3352c-.0625.2387-.2614.3807-.5227.3807-.3978 0-.6534-.3295-.6534-.8352 0-.4943.2613-.8182.6534-.8182.2954 0 .4716.1818.5227.3807h.3352c-.0568-.4091-.4034-.6818-.8636-.6818-.5909 0-.983.4659-.983 1.1307 0 .6534.375 1.125.9887 1.125z"/><path d="m85.0842 12.6023h-.3636l-.0171.1591c-.0412.3849-.1222.7684-.1591.9488h.2557c.0682-.1932.2131-.6307.2614-.9545z"/><path d="m1.2557 15.8182h-.465905v-.5227h-.335227v.5227h-.329546v.2841h.329546v1.3636c0 .3807.306818.5625.590912.5625.125 0 .20454-.0227.25-.0398l-.06819-.3011c-.0284.0057-.07386.017-.14772.017-.14773 0-.289775-.0454-.289775-.3295v-1.2727h.465905z"/><path d="m2.6513 18.0455c.44318 0 .76705-.2216.86932-.5512l-.32386-.0909c-.08523.2273-.28268.3409-.54546.3409-.39347 0-.66477-.2542-.6804-.7216h1.58381v-.142c0-.8125-.48295-1.0909-.9375-1.0909-.59091 0-.98295.4659-.98295 1.1363 0 .6705.38636 1.1194 1.01704 1.1194zm-.6804-1.3125c.02273-.3395.26279-.6421.64631-.6421.36364 0 .59659.2727.59659.6421z"/><path d="m4.95102 18.0455c.48295 0 .80113-.2955.85795-.6819h-.33523c-.0625.2387-.26136.3807-.52272.3807-.39773 0-.65341-.3295-.65341-.8352 0-.4943.26136-.8182.65341-.8182.29545 0 .47159.1818.52272.3807h.33523c-.05682-.4091-.40341-.6818-.86364-.6818-.5909 0-.98295.4659-.98295 1.1307 0 .6534.375 1.125.98864 1.125z"/><path d="m6.63426 16.6875c0-.3807.24289-.5966.57386-.5966.31534 0 .50568.1989.50568.5455v1.3636h.33523v-1.3864c0-.561-.2983-.8238-.74432-.8238-.34375 0-.53977.1434-.64205.3693h-.0284v-1.0682h-.33523v2.9091h.33523z"/><path d="m8.99754 16.6875c0-.3807.23579-.5966.55681-.5966.31108 0 .50005.2031.50005.5455v1.3636h.3352v-1.3864c0-.5568-.2969-.8238-.73865-.8238-.32955 0-.5341.1477-.63637.3693h-.02841v-.3409h-.32386v2.1818h.33523z"/><path d="m11.0022 18h.3352v-2.1818h-.3352zm.1704-2.5455c.1307 0 .2386-.1022.2386-.2272s-.1079-.2273-.2386-.2273-.2386.1023-.2386.2273.1079.2272.2386.2272z"/><path d="m12.8377 18.0455c.483 0 .8012-.2955.858-.6819h-.3352c-.0625.2387-.2614.3807-.5228.3807-.3977 0-.6534-.3295-.6534-.8352 0-.4943.2614-.8182.6534-.8182.2955 0 .4716.1818.5228.3807h.3352c-.0568-.4091-.4034-.6818-.8636-.6818-.591 0-.983.4659-.983 1.1307 0 .6534.375 1.125.9886 1.125z"/><path d="m14.8278 18.0511c.3807 0 .5795-.2045.6477-.3466h.0171v.2955h.3352v-1.4375c0-.6932-.5284-.7727-.8068-.7727-.3296 0-.7046.1136-.875.5113l.3182.1137c.0738-.1591.2485-.3296.5681-.3296.3083 0 .4603.1634.4603.4432v.0114c0 .1619-.1648.1477-.5625.1988-.4049.0526-.8466.1421-.8466.6421 0 .4261.3295.6704.7443.6704zm.0511-.3011c-.267 0-.4602-.1193-.4602-.3523 0-.2557.233-.3352.4943-.3693.1421-.017.5227-.0568.5796-.125v.3068c0 .2728-.2159.5398-.6137.5398z"/><path d="m16.7749 15.0909h-.3352v2.9091h.3352z"/><path d="m17.8889 17.6023h-.3637l-.017.1591c-.0412.3849-.1222.7684-.1591.9488h.2557c.0682-.1932.213-.6307.2613-.9545z"/><path d="m19.635 18.8182h.3352v-1.1534h.0284c.0739.1193.2159.3807.6364.3807.5454 0 .9261-.4375.9261-1.1307 0-.6875-.3807-1.125-.9318-1.125-.4262 0-.5568.2613-.6307.375h-.0398v-.3466h-.3238zm.3295-1.9091c0-.4886.2159-.8182.625-.8182.4261 0 .6364.358.6364.8182 0 .4659-.2159.8352-.6364.8352-.4034 0-.625-.3409-.625-.8352z"/><path d="m22.0725 18h.3352v-1.3807c0-.294.2329-.5113.5511-.5113.0838 0 .1463.0156.1932.0397l.1136-.2841c-.0681-.0483-.1576-.0795-.2784-.0795-.2642 0-.49.1477-.5681.3636h-.0228v-.3295h-.3238z"/><path d="m24.4276 18.0455c.5909 0 .9886-.4489.9886-1.125 0-.6819-.3977-1.1307-.9886-1.1307s-.9887.4488-.9887 1.1307c0 .6761.3978 1.125.9887 1.125zm0-.3012c-.4489 0-.6534-.3863-.6534-.8238s.2045-.8296.6534-.8296c.4488 0 .6534.3921.6534.8296s-.2046.8238-.6534.8238z"/><path d="m26.8143 18.0455c.483 0 .8011-.2955.858-.6819h-.3353c-.0625.2387-.2613.3807-.5227.3807-.3977 0-.6534-.3295-.6534-.8352 0-.4943.2614-.8182.6534-.8182.2955 0 .4716.1818.5227.3807h.3353c-.0569-.4091-.4035-.6818-.8637-.6818-.5909 0-.9829.4659-.9829 1.1307 0 .6534.375 1.125.9886 1.125z"/><path d="m29.0771 18.0455c.4432 0 .767-.2216.8693-.5512l-.3239-.0909c-.0852.2273-.2826.3409-.5454.3409-.3935 0-.6648-.2542-.6804-.7216h1.5838v-.142c0-.8125-.483-1.0909-.9375-1.0909-.5909 0-.983.4659-.983 1.1363 0 .6705.3864 1.1194 1.0171 1.1194zm-.6804-1.3125c.0227-.3395.2628-.6421.6463-.6421.3636 0 .5966.2727.5966.6421z"/><path d="m32.0359 16.3068c-.1051-.3096-.3409-.517-.7727-.517-.4603 0-.8012.2613-.8012.6307 0 .3011.179.5028.5796.5965l.3636.0853c.2202.0511.3239.1562.3239.3068 0 .1875-.1989.3409-.5114.3409-.2741 0-.446-.1179-.5057-.3523l-.3182.0796c.0782.3707.3836.5682.8296.5682.5071 0 .8523-.277.8523-.6535 0-.3039-.1904-.4957-.5796-.5909l-.3238-.0795c-.2586-.0639-.375-.1506-.375-.3182 0-.1875.1988-.3239.4659-.3239.2926 0 .4133.162.4716.3125z"/><path d="m34.1257 16.3068c-.1051-.3096-.3409-.517-.7727-.517-.4602 0-.8011.2613-.8011.6307 0 .3011.1789.5028.5795.5965l.3637.0853c.2201.0511.3238.1562.3238.3068 0 .1875-.1988.3409-.5113.3409-.2742 0-.4461-.1179-.5057-.3523l-.3182.0796c.0781.3707.3835.5682.8295.5682.5071 0 .8523-.277.8523-.6535 0-.3039-.1903-.4957-.5795-.5909l-.3239-.0795c-.2585-.0639-.375-.1506-.375-.3182 0-.1875.1989-.3239.4659-.3239.2926 0 .4134.162.4716.3125z"/><path d="m36.4372 18.0511c.3806 0 .5795-.2045.6477-.3466h.017v.2955h.3353v-1.4375c0-.6932-.5284-.7727-.8069-.7727-.3295 0-.7045.1136-.875.5113l.3182.1137c.0739-.1591.2486-.3296.5682-.3296.3083 0 .4602.1634.4602.4432v.0114c0 .1619-.1647.1477-.5625.1988-.4048.0526-.8466.1421-.8466.6421 0 .4261.3296.6704.7444.6704zm.0511-.3011c-.267 0-.4602-.1193-.4602-.3523 0-.2557.2329-.3352.4943-.3693.142-.017.5227-.0568.5795-.125v.3068c0 .2728-.2159.5398-.6136.5398z"/><path d="m38.3843 16.6875c0-.3807.2358-.5966.5568-.5966.3111 0 .5.2031.5.5455v1.3636h.3352v-1.3864c0-.5568-.2969-.8238-.7386-.8238-.3296 0-.5341.1477-.6364.3693h-.0284v-.3409h-.3239v2.1818h.3353z"/><path d="m41.2127 18.0455c.4205 0 .5625-.2614.6364-.3807h.0398v.3352h.3238v-2.9091h-.3352v1.0739h-.0284c-.0739-.1137-.2045-.375-.6307-.375-.5511 0-.9318.4375-.9318 1.125 0 .6932.3807 1.1307.9261 1.1307zm.0455-.3012c-.4205 0-.6364-.3693-.6364-.8352 0-.4602.2103-.8182.6364-.8182.4091 0 .625.3296.625.8182 0 .4943-.2216.8352-.625.8352z"/><path d="m44.8846 18.0455c.483 0 .8011-.2955.858-.6819h-.3353c-.0625.2387-.2613.3807-.5227.3807-.3977 0-.6534-.3295-.6534-.8352 0-.4943.2614-.8182.6534-.8182.2955 0 .4716.1818.5227.3807h.3353c-.0569-.4091-.4034-.6818-.8637-.6818-.5909 0-.9829.4659-.9829 1.1307 0 .6534.375 1.125.9886 1.125z"/><path d="m46.5678 15.0909h-.3352v2.9091h.3352z"/><path d="m47.1818 18h.3353v-2.1818h-.3353zm.1705-2.5455c.1307 0 .2386-.1022.2386-.2272s-.1079-.2273-.2386-.2273-.2386.1023-.2386.2273.1079.2272.2386.2272z"/><path d="m48.4663 16.6875c0-.3807.2358-.5966.5568-.5966.3111 0 .5.2031.5.5455v1.3636h.3352v-1.3864c0-.5568-.2968-.8238-.7386-.8238-.3295 0-.5341.1477-.6364.3693h-.0284v-.3409h-.3238v2.1818h.3352z"/><path d="m50.4709 18h.3352v-2.1818h-.3352zm.1705-2.5455c.1306 0 .2386-.1022.2386-.2272s-.108-.2273-.2386-.2273c-.1307 0-.2387.1023-.2387.2273s.108.2272.2387.2272z"/><path d="m52.3065 18.0455c.4829 0 .8011-.2955.8579-.6819h-.3352c-.0625.2387-.2614.3807-.5227.3807-.3977 0-.6534-.3295-.6534-.8352 0-.4943.2613-.8182.6534-.8182.2954 0 .4716.1818.5227.3807h.3352c-.0568-.4091-.4034-.6818-.8636-.6818-.5909 0-.983.4659-.983 1.1307 0 .6534.375 1.125.9887 1.125z"/><path d="m54.2965 18.0511c.3807 0 .5796-.2045.6478-.3466h.017v.2955h.3352v-1.4375c0-.6932-.5284-.7727-.8068-.7727-.3295 0-.7045.1136-.875.5113l.3182.1137c.0739-.1591.2486-.3296.5682-.3296.3082 0 .4602.1634.4602.4432v.0114c0 .1619-.1648.1477-.5625.1988-.4048.0526-.8466.1421-.8466.6421 0 .4261.3296.6704.7443.6704zm.0512-.3011c-.2671 0-.4602-.1193-.4602-.3523 0-.2557.2329-.3352.4943-.3693.142-.017.5227-.0568.5795-.125v.3068c0 .2728-.2159.5398-.6136.5398z"/><path d="m56.2436 15.0909h-.3352v2.9091h.3352z"/><path d="m57.9826 18h.3352v-.8168l.2344-.2173.8168 1.0341h.4261l-.99-1.25.9218-.9318h-.4147l-.9546.9716h-.0398v-1.6989h-.3352z"/><path d="m60.4936 16.6875c0-.3807.2358-.5966.5568-.5966.3111 0 .5.2031.5.5455v1.3636h.3353v-1.3864c0-.5568-.2969-.8238-.7387-.8238-.3295 0-.534.1477-.6363.3693h-.0284v-.3409h-.3239v2.1818h.3352z"/><path d="m63.3846 18.0455c.5909 0 .9886-.4489.9886-1.125 0-.6819-.3977-1.1307-.9886-1.1307s-.9886.4488-.9886 1.1307c0 .6761.3977 1.125.9886 1.125zm0-.3012c-.4489 0-.6534-.3863-.6534-.8238s.2045-.8296.6534-.8296.6534.3921.6534.8296-.2045.8238-.6534.8238z"/><path d="m65.3051 18h.3295l.4773-1.6761h.0341l.4772 1.6761h.3296l.6648-2.1818h-.3523l-.4716 1.6648h-.0227l-.4603-1.6648h-.3579l-.4659 1.6704h-.0227l-.4716-1.6704h-.3523z"/><path d="m68.396 15.0909h-.3353v2.9091h.3353z"/><path d="m69.9247 18.0455c.4432 0 .7671-.2216.8694-.5512l-.3239-.0909c-.0852.2273-.2827.3409-.5455.3409-.3934 0-.6647-.2542-.6804-.7216h1.5838v-.142c0-.8125-.4829-1.0909-.9375-1.0909-.5909 0-.9829.4659-.9829 1.1363 0 .6705.3864 1.1194 1.017 1.1194zm-.6804-1.3125c.0228-.3395.2628-.6421.6463-.6421.3637 0 .5966.2727.5966.6421z"/><path d="m72.162 18.0455c.4204 0 .5625-.2614.6363-.3807h.0398v.3352h.3239v-2.9091h-.3353v1.0739h-.0284c-.0738-.1137-.2045-.375-.6307-.375-.5511 0-.9318.4375-.9318 1.125 0 .6932.3807 1.1307.9262 1.1307zm.0454-.3012c-.4204 0-.6364-.3693-.6364-.8352 0-.4602.2103-.8182.6364-.8182.4091 0 .625.3296.625.8182 0 .4943-.2216.8352-.625.8352z"/><path d="m74.7031 18.8636c.5228 0 .9432-.2386.9432-.8011v-2.2443h-.3238v.3466h-.0341c-.0739-.1137-.2103-.375-.6364-.375-.5511 0-.9318.4375-.9318 1.1079 0 .6818.3977 1.0682.9261 1.0682.4262 0 .5625-.25.6364-.3693h.0284v.4432c0 .3636-.2557.5284-.608.5284-.3963 0-.5355-.2088-.625-.3296l-.267.1875c.1364.2287.4048.4375.892.4375zm-.0113-1.1988c-.4205 0-.6364-.3182-.6364-.7728 0-.4431.2103-.8011.6364-.8011.4091 0 .625.3296.625.8011 0 .483-.2216.7728-.625.7728z"/><path d="m77.1747 18.0455c.4432 0 .7671-.2216.8694-.5512l-.3239-.0909c-.0852.2273-.2827.3409-.5455.3409-.3934 0-.6647-.2542-.6804-.7216h1.5838v-.142c0-.8125-.4829-1.0909-.9375-1.0909-.5909 0-.9829.4659-.9829 1.1363 0 .6705.3864 1.1194 1.017 1.1194zm-.6804-1.3125c.0228-.3395.2628-.6421.6463-.6421.3637 0 .5966.2727.5966.6421z"/><path d="m79.7585 18h.3239v-.3352h.0398c.0738.1193.2159.3807.6363.3807.5455 0 .9262-.4375.9262-1.1307 0-.6875-.3807-1.125-.9318-1.125-.4262 0-.5569.2613-.6307.375h-.0284v-1.0739h-.3353zm.3296-1.0909c0-.4886.2159-.8182.625-.8182.4261 0 .6364.358.6364.8182 0 .4659-.216.8352-.6364.8352-.4034 0-.625-.3409-.625-.8352z"/><path d="m82.8395 18.0511c.3807 0 .5796-.2045.6477-.3466h.0171v.2955h.3352v-1.4375c0-.6932-.5284-.7727-.8068-.7727-.3296 0-.7046.1136-.875.5113l.3182.1137c.0738-.1591.2486-.3296.5682-.3296.3082 0 .4602.1634.4602.4432v.0114c0 .1619-.1648.1477-.5625.1988-.4048.0526-.8466.1421-.8466.6421 0 .4261.3295.6704.7443.6704zm.0511-.3011c-.267 0-.4602-.1193-.4602-.3523 0-.2557.233-.3352.4943-.3693.1421-.017.5228-.0568.5796-.125v.3068c0 .2728-.2159.5398-.6137.5398z"/><path d="m85.9968 16.3068c-.1051-.3096-.3409-.517-.7727-.517-.4602 0-.8011.2613-.8011.6307 0 .3011.1789.5028.5795.5965l.3636.0853c.2202.0511.3239.1562.3239.3068 0 .1875-.1989.3409-.5114.3409-.2741 0-.446-.1179-.5056-.3523l-.3182.0796c.0781.3707.3835.5682.8295.5682.5071 0 .8523-.277.8523-.6535 0-.3039-.1903-.4957-.5795-.5909l-.3239-.0795c-.2585-.0639-.375-.1506-.375-.3182 0-.1875.1989-.3239.4659-.3239.2926 0 .4134.162.4716.3125z"/><path d="m87.456 18.0455c.4432 0 .767-.2216.8693-.5512l-.3239-.0909c-.0852.2273-.2826.3409-.5454.3409-.3935 0-.6648-.2542-.6804-.7216h1.5838v-.142c0-.8125-.483-1.0909-.9375-1.0909-.5909 0-.983.4659-.983 1.1363 0 .6705.3864 1.1194 1.0171 1.1194zm-.6804-1.3125c.0227-.3395.2628-.6421.6463-.6421.3636 0 .5966.2727.5966.6421z"/><path d="m.801159 23h.329541l.47728-1.6761h.03409l.47727 1.6761h.32955l.66477-2.1818h-.35227l-.4716 1.6648h-.02272l-.46023-1.6648h-.35795l-.465913 1.6704h-.022728l-.47159-1.6704h-.352273z"/><path d="m3.89207 21.6875c0-.3807.2429-.5966.57386-.5966.31534 0 .50568.1989.50568.5455v1.3636h.33523v-1.3864c0-.561-.29829-.8238-.74432-.8238-.34375 0-.53977.1434-.64204.3693h-.02841v-1.0682h-.33523v2.9091h.33523z"/><path d="m5.92012 23h.33523v-2.1818h-.33523zm.17046-2.5455c.13068 0 .23863-.1022.23863-.2272s-.10795-.2273-.23863-.2273c-.13069 0-.23864.1023-.23864.2273s.10795.2272.23864.2272z"/><path d="m7.20457 20.0909h-.33523v2.9091h.33523z"/><path d="m8.73333 23.0455c.44318 0 .76705-.2216.86932-.5512l-.32386-.0909c-.08523.2273-.28267.3409-.54546.3409-.39346 0-.66477-.2542-.6804-.7216h1.58381v-.142c0-.8125-.48295-1.0909-.9375-1.0909-.59091 0-.98295.4659-.98295 1.1363 0 .6705.38636 1.1194 1.01704 1.1194zm-.6804-1.3125c.02273-.3395.26279-.6421.64631-.6421.36364 0 .59659.2727.59659.6421z"/><path d="m11.766 23h.3295l.4773-1.6761h.0341l.4773 1.6761h.3295l.6648-2.1818h-.3523l-.4716 1.6648h-.0227l-.4602-1.6648h-.358l-.4659 1.6704h-.0227l-.4716-1.6704h-.3523z"/><path d="m15.3622 23.0455c.4432 0 .7671-.2216.8694-.5512l-.3239-.0909c-.0852.2273-.2827.3409-.5455.3409-.3934 0-.6647-.2542-.6804-.7216h1.5838v-.142c0-.8125-.4829-1.0909-.9375-1.0909-.5909 0-.9829.4659-.9829 1.1363 0 .6705.3864 1.1194 1.017 1.1194zm-.6804-1.3125c.0228-.3395.2628-.6421.6463-.6421.3637 0 .5966.2727.5966.6421z"/><path d="m18.7245 23.0455c.4204 0 .5625-.2614.6363-.3807h.0398v.3352h.3239v-2.9091h-.3353v1.0739h-.0284c-.0738-.1137-.2045-.375-.6307-.375-.5511 0-.9318.4375-.9318 1.125 0 .6932.3807 1.1307.9262 1.1307zm.0454-.3012c-.4204 0-.6364-.3693-.6364-.8352 0-.4602.2103-.8182.6364-.8182.4091 0 .625.3296.625.8182 0 .4943-.2216.8352-.625.8352z"/><path d="m21.2997 23.0455c.4432 0 .7671-.2216.8694-.5512l-.3239-.0909c-.0852.2273-.2827.3409-.5455.3409-.3934 0-.6647-.2542-.6804-.7216h1.5838v-.142c0-.8125-.4829-1.0909-.9375-1.0909-.5909 0-.9829.4659-.9829 1.1363 0 .6705.3864 1.1194 1.017 1.1194zm-.6804-1.3125c.0228-.3395.2628-.6421.6463-.6421.3637 0 .5966.2727.5966.6421z"/><path d="m24.4972 20.8182h-.3637l-.6022 1.7386h-.0228l-.6022-1.7386h-.3637l.8069 2.1818h.3409z"/><path d="m25.7763 23.0455c.4432 0 .767-.2216.8693-.5512l-.3238-.0909c-.0853.2273-.2827.3409-.5455.3409-.3935 0-.6648-.2542-.6804-.7216h1.5838v-.142c0-.8125-.4829-1.0909-.9375-1.0909-.5909 0-.9829.4659-.9829 1.1363 0 .6705.3863 1.1194 1.017 1.1194zm-.6804-1.3125c.0227-.3395.2628-.6421.6463-.6421.3636 0 .5966.2727.5966.6421z"/><path d="m27.5249 20.0909h-.3352v2.9091h.3352z"/><path d="m29.0252 23.0455c.5909 0 .9887-.4489.9887-1.125 0-.6819-.3978-1.1307-.9887-1.1307s-.9886.4488-.9886 1.1307c0 .6761.3977 1.125.9886 1.125zm0-.3012c-.4488 0-.6534-.3863-.6534-.8238s.2046-.8296.6534-.8296c.4489 0 .6534.3921.6534.8296s-.2045.8238-.6534.8238z"/><path d="m30.5256 23.8182h.3352v-1.1534h.0284c.0739.1193.2159.3807.6364.3807.5454 0 .9261-.4375.9261-1.1307 0-.6875-.3807-1.125-.9318-1.125-.4261 0-.5568.2613-.6307.375h-.0397v-.3466h-.3239zm.3295-1.9091c0-.4886.2159-.8182.625-.8182.4262 0 .6364.358.6364.8182 0 .4659-.2159.8352-.6364.8352-.4034 0-.625-.3409-.625-.8352z"/><path d="m34.7301 23.0511c.3807 0 .5796-.2045.6478-.3466h.017v.2955h.3352v-1.4375c0-.6932-.5284-.7727-.8068-.7727-.3295 0-.7045.1136-.875.5113l.3182.1137c.0739-.1591.2486-.3296.5682-.3296.3082 0 .4602.1634.4602.4432v.0114c0 .1619-.1648.1477-.5625.1988-.4048.0526-.8466.1421-.8466.6421 0 .4261.3296.6704.7443.6704zm.0512-.3011c-.2671 0-.4603-.1193-.4603-.3523 0-.2557.233-.3352.4944-.3693.142-.017.5227-.0568.5795-.125v.3068c0 .2728-.2159.5398-.6136.5398z"/><path d="m36.6772 21.6875c0-.3807.2358-.5966.5568-.5966.3111 0 .5.2031.5.5455v1.3636h.3353v-1.3864c0-.5568-.2969-.8238-.7387-.8238-.3295 0-.5341.1477-.6363.3693h-.0284v-.3409h-.3239v2.1818h.3352z"/><path d="m40.7216 23.0455c.4432 0 .7671-.2216.8693-.5512l-.3238-.0909c-.0853.2273-.2827.3409-.5455.3409-.3935 0-.6648-.2542-.6804-.7216h1.5838v-.142c0-.8125-.4829-1.0909-.9375-1.0909-.5909 0-.9829.4659-.9829 1.1363 0 .6705.3863 1.1194 1.017 1.1194zm-.6804-1.3125c.0227-.3395.2628-.6421.6463-.6421.3637 0 .5966.2727.5966.6421z"/><path d="m43.9191 20.8182h-.3637l-.6023 1.7386h-.0227l-.6023-1.7386h-.3636l.8068 2.1818h.3409z"/><path d="m45.1982 23.0455c.4432 0 .767-.2216.8693-.5512l-.3239-.0909c-.0852.2273-.2826.3409-.5454.3409-.3935 0-.6648-.2542-.6804-.7216h1.5838v-.142c0-.8125-.483-1.0909-.9375-1.0909-.5909 0-.983.4659-.983 1.1363 0 .6705.3864 1.1194 1.0171 1.1194zm-.6804-1.3125c.0227-.3395.2628-.6421.6463-.6421.3636 0 .5966.2727.5966.6421z"/><path d="m46.6115 23h.3353v-1.3807c0-.294.2329-.5113.5511-.5113.0838 0 .1463.0156.1932.0397l.1136-.2841c-.0682-.0483-.1577-.0795-.2784-.0795-.2642 0-.4901.1477-.5682.3636h-.0227v-.3295h-.3239z"/><path d="m49.2365 21.5966h-1.2727v.3125h1.2727z"/><path d="m50.6502 23.0455c.4205 0 .5625-.2614.6364-.3807h.0398v.3352h.3238v-2.9091h-.3352v1.0739h-.0284c-.0739-.1137-.2045-.375-.6307-.375-.5511 0-.9318.4375-.9318 1.125 0 .6932.3807 1.1307.9261 1.1307zm.0455-.3012c-.4205 0-.6364-.3693-.6364-.8352 0-.4602.2103-.8182.6364-.8182.4091 0 .625.3296.625.8182 0 .4943-.2216.8352-.625.8352z"/><path d="m53.2255 23.0455c.4432 0 .7671-.2216.8693-.5512l-.3238-.0909c-.0853.2273-.2827.3409-.5455.3409-.3934 0-.6648-.2542-.6804-.7216h1.5838v-.142c0-.8125-.4829-1.0909-.9375-1.0909-.5909 0-.9829.4659-.9829 1.1363 0 .6705.3863 1.1194 1.017 1.1194zm-.6804-1.3125c.0228-.3395.2628-.6421.6463-.6421.3637 0 .5966.2727.5966.6421z"/><path d="m55.5536 23.0455c.4432 0 .7671-.2216.8694-.5512l-.3239-.0909c-.0852.2273-.2827.3409-.5455.3409-.3934 0-.6647-.2542-.6804-.7216h1.5839v-.142c0-.8125-.483-1.0909-.9375-1.0909-.591 0-.983.4659-.983 1.1363 0 .6705.3864 1.1194 1.017 1.1194zm-.6804-1.3125c.0228-.3395.2628-.6421.6464-.6421.3636 0 .5965.2727.5965.6421z"/><path d="m56.967 23.8182h.3352v-1.1534h.0284c.0739.1193.2159.3807.6364.3807.5455 0 .9261-.4375.9261-1.1307 0-.6875-.3806-1.125-.9318-1.125-.4261 0-.5568.2613-.6307.375h-.0397v-.3466h-.3239zm.3295-1.9091c0-.4886.216-.8182.625-.8182.4262 0 .6364.358.6364.8182 0 .4659-.2159.8352-.6364.8352-.4034 0-.625-.3409-.625-.8352z"/><path d="m60.3193 23.0455c.4432 0 .767-.2216.8693-.5512l-.3239-.0909c-.0852.2273-.2826.3409-.5454.3409-.3935 0-.6648-.2542-.6804-.7216h1.5838v-.142c0-.8125-.483-1.0909-.9375-1.0909-.5909 0-.983.4659-.983 1.1363 0 .6705.3864 1.1194 1.0171 1.1194zm-.6804-1.3125c.0227-.3395.2628-.6421.6463-.6421.3636 0 .5966.2727.5966.6421z"/><path d="m61.7326 23h.3352v-1.3807c0-.294.233-.5113.5512-.5113.0838 0 .1463.0156.1932.0397l.1136-.2841c-.0682-.0483-.1577-.0795-.2784-.0795-.2642 0-.4901.1477-.5682.3636h-.0227v-.3295h-.3239z"/><path d="m65.7678 22.108c0 .409-.3125.5965-.5625.5965-.2784 0-.4773-.2045-.4773-.5227v-1.3636h-.3352v1.3863c0 .5569.2954.8239.7045.8239.3296 0 .5455-.1761.6477-.3977h.0228v.3693h.3352v-2.1818h-.3352z"/><path d="m67.0522 21.6875c0-.3807.2358-.5966.5568-.5966.3111 0 .5.2031.5.5455v1.3636h.3353v-1.3864c0-.5568-.2969-.8238-.7387-.8238-.3295 0-.5341.1477-.6363.3693h-.0284v-.3409h-.3239v2.1818h.3352z"/><path d="m69.8807 23.0455c.4205 0 .5625-.2614.6364-.3807h.0397v.3352h.3239v-2.9091h-.3352v1.0739h-.0284c-.0739-.1137-.2046-.375-.6307-.375-.5512 0-.9318.4375-.9318 1.125 0 .6932.3807 1.1307.9261 1.1307zm.0455-.3012c-.4205 0-.6364-.3693-.6364-.8352 0-.4602.2102-.8182.6364-.8182.4091 0 .625.3296.625.8182 0 .4943-.2216.8352-.625.8352z"/><path d="m72.456 23.0455c.4432 0 .767-.2216.8693-.5512l-.3239-.0909c-.0852.2273-.2826.3409-.5454.3409-.3935 0-.6648-.2542-.6804-.7216h1.5838v-.142c0-.8125-.483-1.0909-.9375-1.0909-.5909 0-.983.4659-.983 1.1363 0 .6705.3864 1.1194 1.0171 1.1194zm-.6804-1.3125c.0227-.3395.2628-.6421.6463-.6421.3636 0 .5966.2727.5966.6421z"/><path d="m73.8693 23h.3353v-1.3807c0-.294.2329-.5113.5511-.5113.0838 0 .1463.0156.1932.0397l.1136-.2841c-.0682-.0483-.1577-.0795-.2784-.0795-.2642 0-.49.1477-.5682.3636h-.0227v-.3295h-.3239z"/><path d="m76.95 21.3068c-.1052-.3096-.341-.517-.7728-.517-.4602 0-.8011.2613-.8011.6307 0 .3011.179.5028.5795.5965l.3637.0853c.2201.0511.3238.1562.3238.3068 0 .1875-.1988.3409-.5113.3409-.2742 0-.446-.1179-.5057-.3523l-.3182.0796c.0781.3707.3835.5682.8296.5682.5071 0 .8522-.277.8522-.6535 0-.3039-.1903-.4957-.5795-.5909l-.3239-.0795c-.2585-.0639-.375-.1506-.375-.3182 0-.1875.1989-.3239.4659-.3239.2926 0 .4134.162.4716.3125z"/><path d="m78.4432 20.8182h-.4659v-.5227h-.3352v.5227h-.3296v.2841h.3296v1.3636c0 .3807.3068.5625.5909.5625.125 0 .2045-.0227.25-.0398l-.0682-.3011c-.0284.0057-.0739.017-.1477.017-.1478 0-.2898-.0454-.2898-.3295v-1.2727h.4659z"/><path d="m79.5895 23.0511c.3807 0 .5796-.2045.6477-.3466h.0171v.2955h.3352v-1.4375c0-.6932-.5284-.7727-.8068-.7727-.3296 0-.7046.1136-.875.5113l.3182.1137c.0738-.1591.2486-.3296.5682-.3296.3082 0 .4602.1634.4602.4432v.0114c0 .1619-.1648.1477-.5625.1988-.4048.0526-.8466.1421-.8466.6421 0 .4261.3295.6704.7443.6704zm.0511-.3011c-.267 0-.4602-.1193-.4602-.3523 0-.2557.233-.3352.4943-.3693.1421-.017.5228-.0568.5796-.125v.3068c0 .2728-.2159.5398-.6137.5398z"/><path d="m81.5366 21.6875c0-.3807.2358-.5966.5568-.5966.3111 0 .5.2031.5.5455v1.3636h.3352v-1.3864c0-.5568-.2968-.8238-.7386-.8238-.3295 0-.5341.1477-.6364.3693h-.0284v-.3409h-.3238v2.1818h.3352z"/><path d="m84.3651 23.0455c.4204 0 .5625-.2614.6363-.3807h.0398v.3352h.3239v-2.9091h-.3352v1.0739h-.0285c-.0738-.1137-.2045-.375-.6306-.375-.5512 0-.9319.4375-.9319 1.125 0 .6932.3807 1.1307.9262 1.1307zm.0454-.3012c-.4204 0-.6363-.3693-.6363-.8352 0-.4602.2102-.8182.6363-.8182.4091 0 .625.3296.625.8182 0 .4943-.2216.8352-.625.8352z"/><path d="m86.0256 23h.3352v-2.1818h-.3352zm.1704-2.5455c.1307 0 .2387-.1022.2387-.2272s-.108-.2273-.2387-.2273c-.1306 0-.2386.1023-.2386.2273s.108.2272.2386.2272z"/><path d="m87.31 21.6875c0-.3807.2358-.5966.5569-.5966.311 0 .5.2031.5.5455v1.3636h.3352v-1.3864c0-.5568-.2969-.8238-.7387-.8238-.3295 0-.534.1477-.6363.3693h-.0284v-.3409h-.3239v2.1818h.3352z"/><path d="m90.1953 23.8636c.5228 0 .9432-.2386.9432-.8011v-2.2443h-.3238v.3466h-.0341c-.0739-.1137-.2103-.375-.6364-.375-.5511 0-.9318.4375-.9318 1.1079 0 .6818.3977 1.0682.9261 1.0682.4262 0 .5625-.25.6364-.3693h.0284v.4432c0 .3636-.2557.5284-.608.5284-.3963 0-.5355-.2088-.625-.3296l-.267.1875c.1364.2287.4048.4375.892.4375zm-.0113-1.1988c-.4205 0-.6364-.3182-.6364-.7728 0-.4431.2102-.8011.6364-.8011.4091 0 .625.3296.625.8011 0 .483-.2216.7728-.625.7728z"/><path d="m1.1932 28.0455c.59091 0 .98864-.4489.98864-1.125 0-.6819-.39773-1.1307-.98864-1.1307-.590905 0-.988632.4488-.988632 1.1307 0 .6761.397727 1.125.988632 1.125zm0-.3012c-.44886 0-.653405-.3863-.653405-.8238s.204545-.8296.653405-.8296c.44887 0 .65341.3921.65341.8296s-.20454.8238-.65341.8238z"/><path d="m3.66515 25.8182h-.48864v-.2216c0-.2159.09091-.3296.3125-.3296.09659 0 .15341.0228.1875.0341l.09659-.2897c-.05113-.0228-.1534-.0569-.31818-.0569-.3125 0-.61363.1875-.61363.5625v.3012h-.35228v.2841h.35228v1.8977h.33522v-1.8977h.48864z"/><path d="m6.14633 28.0455c.59091 0 .98864-.4489.98864-1.125 0-.6819-.39773-1.1307-.98864-1.1307s-.98864.4488-.98864 1.1307c0 .6761.39773 1.125.98864 1.125zm0-.3012c-.44886 0-.65341-.3863-.65341-.8238s.20455-.8296.65341-.8296.65341.3921.65341.8296-.20455.8238-.65341.8238z"/><path d="m9.02168 27.108c0 .409-.3125.5965-.5625.5965-.27841 0-.47727-.2045-.47727-.5227v-1.3636h-.33523v1.3863c0 .5569.29546.8239.70455.8239.32955 0 .54545-.1761.64773-.3977h.02272v.3693h.33523v-2.1818h-.33523z"/><path d="m9.9709 28h.3352v-1.3807c0-.294.233-.5113.5512-.5113.0838 0 .1463.0156.1931.0397l.1137-.2841c-.0682-.0483-.1577-.0795-.2784-.0795-.2642 0-.4901.1477-.5682.3636h-.0227v-.3295h-.3239z"/><path d="m12.6311 28.8182h.3352v-1.1534h.0284c.0739.1193.2159.3807.6364.3807.5454 0 .9261-.4375.9261-1.1307 0-.6875-.3807-1.125-.9318-1.125-.4262 0-.5568.2613-.6307.375h-.0398v-.3466h-.3238zm.3295-1.9091c0-.4886.2159-.8182.625-.8182.4261 0 .6364.358.6364.8182 0 .4659-.2159.8352-.6364.8352-.4034 0-.625-.3409-.625-.8352z"/><path d="m15.7106 28.0511c.3807 0 .5796-.2045.6477-.3466h.0171v.2955h.3352v-1.4375c0-.6932-.5284-.7727-.8068-.7727-.3296 0-.7046.1136-.875.5113l.3182.1137c.0738-.1591.2485-.3296.5681-.3296.3083 0 .4603.1634.4603.4432v.0114c0 .1619-.1648.1477-.5625.1988-.4049.0526-.8466.1421-.8466.6421 0 .4261.3295.6704.7443.6704zm.0511-.3011c-.267 0-.4602-.1193-.4602-.3523 0-.2557.233-.3352.4943-.3693.1421-.017.5228-.0568.5796-.125v.3068c0 .2728-.2159.5398-.6137.5398z"/><path d="m17.3225 28h.3352v-1.3807c0-.2954.2329-.5113.5511-.5113.0895 0 .1818.017.2046.0227v-.3409c-.0384-.0029-.1264-.0057-.1762-.0057-.2613 0-.4886.1477-.5681.3636h-.0228v-.3295h-.3238z"/><path d="m19.8963 25.8182h-.4659v-.5227h-.3352v.5227h-.3296v.2841h.3296v1.3636c0 .3807.3068.5625.5909.5625.125 0 .2045-.0227.25-.0398l-.0682-.3011c-.0284.0057-.0738.017-.1477.017-.1477 0-.2898-.0454-.2898-.3295v-1.2727h.4659z"/><path d="m20.7358 26.6875c0-.3807.2358-.5966.5568-.5966.3111 0 .5.2031.5.5455v1.3636h.3353v-1.3864c0-.5568-.2969-.8238-.7387-.8238-.3295 0-.5341.1477-.6363.3693h-.0284v-.3409h-.3239v2.1818h.3352z"/><path d="m23.6552 28.0455c.4432 0 .7671-.2216.8693-.5512l-.3238-.0909c-.0853.2273-.2827.3409-.5455.3409-.3935 0-.6648-.2542-.6804-.7216h1.5838v-.142c0-.8125-.4829-1.0909-.9375-1.0909-.5909 0-.9829.4659-.9829 1.1363 0 .6705.3863 1.1194 1.017 1.1194zm-.6804-1.3125c.0227-.3395.2628-.6421.6463-.6421.3637 0 .5966.2727.5966.6421z"/><path d="m25.0686 28h.3352v-1.3807c0-.294.2329-.5113.5511-.5113.0838 0 .1463.0156.1932.0397l.1136-.2841c-.0681-.0483-.1576-.0795-.2784-.0795-.2642 0-.49.1477-.5681.3636h-.0228v-.3295h-.3238z"/><path d="m28.1492 26.3068c-.1051-.3096-.3409-.517-.7728-.517-.4602 0-.8011.2613-.8011.6307 0 .3011.179.5028.5796.5965l.3636.0853c.2202.0511.3239.1562.3239.3068 0 .1875-.1989.3409-.5114.3409-.2742 0-.446-.1179-.5057-.3523l-.3182.0796c.0782.3707.3835.5682.8296.5682.5071 0 .8522-.277.8522-.6535 0-.3039-.1903-.4957-.5795-.5909l-.3239-.0795c-.2585-.0639-.375-.1506-.375-.3182 0-.1875.1989-.3239.4659-.3239.2927 0 .4134.162.4716.3125z"/><path d="m28.989 25.0909h-.3182v.2614c0 .2102-.1022.392-.2216.5625l.1819.1477c.2272-.1818.3579-.483.3579-.7159z"/><path d="m30.9507 26.6875c0-.3807.2358-.5966.5568-.5966.3111 0 .5.2031.5.5455v1.3636h.3352v-1.3864c0-.5568-.2969-.8238-.7386-.8238-.3296 0-.5341.1477-.6364.3693h-.0284v-.3409h-.3239v2.1818h.3353z"/><path d="m33.8701 28.0455c.4431 0 .767-.2216.8693-.5512l-.3239-.0909c-.0852.2273-.2827.3409-.5454.3409-.3935 0-.6648-.2542-.6804-.7216h1.5838v-.142c0-.8125-.483-1.0909-.9375-1.0909-.5909 0-.983.4659-.983 1.1363 0 .6705.3864 1.1194 1.0171 1.1194zm-.6804-1.3125c.0227-.3395.2627-.6421.6463-.6421.3636 0 .5966.2727.5966.6421z"/><path d="m36.1982 28.0455c.4432 0 .767-.2216.8693-.5512l-.3239-.0909c-.0852.2273-.2826.3409-.5454.3409-.3935 0-.6648-.2542-.6804-.7216h1.5838v-.142c0-.8125-.483-1.0909-.9375-1.0909-.5909 0-.983.4659-.983 1.1363 0 .6705.3864 1.1194 1.0171 1.1194zm-.6804-1.3125c.0227-.3395.2628-.6421.6463-.6421.3636 0 .5966.2727.5966.6421z"/><path d="m38.4354 28.0455c.4204 0 .5625-.2614.6364-.3807h.0397v.3352h.3239v-2.9091h-.3352v1.0739h-.0284c-.0739-.1137-.2046-.375-.6307-.375-.5512 0-.9318.4375-.9318 1.125 0 .6932.3806 1.1307.9261 1.1307zm.0454-.3012c-.4204 0-.6363-.3693-.6363-.8352 0-.4602.2102-.8182.6363-.8182.4091 0 .625.3296.625.8182 0 .4943-.2215.8352-.625.8352z"/><path d="m41.6414 26.3068c-.1052-.3096-.341-.517-.7728-.517-.4602 0-.8011.2613-.8011.6307 0 .3011.179.5028.5795.5965l.3637.0853c.2201.0511.3238.1562.3238.3068 0 .1875-.1988.3409-.5113.3409-.2742 0-.446-.1179-.5057-.3523l-.3182.0796c.0781.3707.3835.5682.8296.5682.5071 0 .8522-.277.8522-.6535 0-.3039-.1903-.4957-.5795-.5909l-.3239-.0795c-.2585-.0639-.375-.1506-.375-.3182 0-.1875.1989-.3239.4659-.3239.2926 0 .4134.162.4716.3125z"/><path d="m42.4301 28.0227c.1406 0 .2556-.115.2556-.2557 0-.1406-.115-.2556-.2556-.2556-.1407 0-.2557.115-.2557.2556 0 .1407.115.2557.2557.2557z"/><path d="m44.4578 28h1.7045v-.3125h-1.3523v-2.5966h-.3522z"/><path d="m47.5771 28.0455c.4432 0 .767-.2216.8693-.5512l-.3239-.0909c-.0852.2273-.2826.3409-.5454.3409-.3935 0-.6648-.2542-.6804-.7216h1.5838v-.142c0-.8125-.483-1.0909-.9375-1.0909-.5909 0-.983.4659-.983 1.1363 0 .6705.3864 1.1194 1.0171 1.1194zm-.6804-1.3125c.0227-.3395.2628-.6421.6463-.6421.3636 0 .5966.2727.5966.6421z"/><path d="m49.6325 28.0511c.3807 0 .5795-.2045.6477-.3466h.0171v.2955h.3352v-1.4375c0-.6932-.5284-.7727-.8068-.7727-.3296 0-.7046.1136-.875.5113l.3181.1137c.0739-.1591.2486-.3296.5682-.3296.3083 0 .4603.1634.4603.4432v.0114c0 .1619-.1648.1477-.5625.1988-.4049.0526-.8466.1421-.8466.6421 0 .4261.3295.6704.7443.6704zm.0511-.3011c-.267 0-.4602-.1193-.4602-.3523 0-.2557.2329-.3352.4943-.3693.1421-.017.5227-.0568.5796-.125v.3068c0 .2728-.216.5398-.6137.5398z"/><path d="m51.2443 28h.3353v-1.3807c0-.2954.2329-.5113.5511-.5113.0895 0 .1818.017.2046.0227v-.3409c-.0384-.0029-.1265-.0057-.1762-.0057-.2613 0-.4886.1477-.5682.3636h-.0227v-.3295h-.3239z"/><path d="m53.0678 26.6875c0-.3807.2358-.5966.5569-.5966.311 0 .5.2031.5.5455v1.3636h.3352v-1.3864c0-.5568-.2969-.8238-.7386-.8238-.3296 0-.5341.1477-.6364.3693h-.0284v-.3409h-.3239v2.1818h.3352z"/><path d="m55.0725 28h.3352v-2.1818h-.3352zm.1704-2.5455c.1307 0 .2387-.1022.2387-.2272s-.108-.2273-.2387-.2273-.2386.1023-.2386.2273.1079.2272.2386.2272z"/><path d="m56.3569 26.6875c0-.3807.2358-.5966.5568-.5966.3111 0 .5.2031.5.5455v1.3636h.3353v-1.3864c0-.5568-.2969-.8238-.7387-.8238-.3295 0-.5341.1477-.6363.3693h-.0285v-.3409h-.3238v2.1818h.3352z"/><path d="m59.2422 28.8636c.5227 0 .9432-.2386.9432-.8011v-2.2443h-.3239v.3466h-.0341c-.0738-.1137-.2102-.375-.6363-.375-.5512 0-.9318.4375-.9318 1.1079 0 .6818.3977 1.0682.9261 1.0682.4261 0 .5625-.25.6364-.3693h.0284v.4432c0 .3636-.2557.5284-.608.5284-.3963 0-.5355-.2088-.625-.3296l-.267.1875c.1363.2287.4048.4375.892.4375zm-.0114-1.1988c-.4204 0-.6363-.3182-.6363-.7728 0-.4431.2102-.8011.6363-.8011.4091 0 .625.3296.625.8011 0 .483-.2215.7728-.625.7728z"/><path d="m61.924 28h.3353v-1.3636c0-.3196.2329-.5455.4943-.5455.2542 0 .4318.1662.4318.4148v1.4943h.3409v-1.4205c0-.2812.1761-.4886.483-.4886.2386 0 .4431.1264.4431.4489v1.4602h.3353v-1.4602c0-.5128-.2756-.75-.6648-.75-.3125 0-.5412.1434-.6534.3693h-.0227c-.108-.233-.2983-.3693-.5853-.3693-.2841 0-.4943.1363-.5852.3693h-.0284v-.3409h-.3239z"/><path d="m66.287 28.0455c.5909 0 .9886-.4489.9886-1.125 0-.6819-.3977-1.1307-.9886-1.1307-.591 0-.9887.4488-.9887 1.1307 0 .6761.3977 1.125.9887 1.125zm0-.3012c-.4489 0-.6535-.3863-.6535-.8238s.2046-.8296.6535-.8296c.4488 0 .6534.3921.6534.8296s-.2046.8238-.6534.8238z"/><path d="m67.7873 28h.3352v-1.3807c0-.294.233-.5113.5512-.5113.0838 0 .1463.0156.1932.0397l.1136-.2841c-.0682-.0483-.1577-.0795-.2784-.0795-.2642 0-.4901.1477-.5682.3636h-.0227v-.3295h-.3239z"/><path d="m70.1708 28.0455c.4432 0 .7671-.2216.8694-.5512l-.3239-.0909c-.0852.2273-.2827.3409-.5455.3409-.3934 0-.6647-.2542-.6804-.7216h1.5838v-.142c0-.8125-.4829-1.0909-.9375-1.0909-.5909 0-.9829.4659-.9829 1.1363 0 .6705.3863 1.1194 1.017 1.1194zm-.6804-1.3125c.0228-.3395.2628-.6421.6463-.6421.3637 0 .5966.2727.5966.6421z"/><path d="m73.3512 28.0511c.3807 0 .5796-.2045.6478-.3466h.017v.2955h.3352v-1.4375c0-.6932-.5284-.7727-.8068-.7727-.3295 0-.7045.1136-.875.5113l.3182.1137c.0739-.1591.2486-.3296.5682-.3296.3082 0 .4602.1634.4602.4432v.0114c0 .1619-.1648.1477-.5625.1988-.4048.0526-.8466.1421-.8466.6421 0 .4261.3296.6704.7443.6704zm.0512-.3011c-.2671 0-.4603-.1193-.4603-.3523 0-.2557.233-.3352.4944-.3693.142-.017.5227-.0568.5795-.125v.3068c0 .2728-.2159.5398-.6136.5398z"/><path d="m75.0085 28h.3239v-.3352h.0398c.0738.1193.2159.3807.6363.3807.5455 0 .9262-.4375.9262-1.1307 0-.6875-.3807-1.125-.9318-1.125-.4262 0-.5569.2613-.6307.375h-.0284v-1.0739h-.3353zm.3296-1.0909c0-.4886.2159-.8182.625-.8182.4261 0 .6364.358.6364.8182 0 .4659-.216.8352-.6364.8352-.4034 0-.625-.3409-.625-.8352z"/><path d="m78.3338 28.0455c.5909 0 .9887-.4489.9887-1.125 0-.6819-.3978-1.1307-.9887-1.1307s-.9886.4488-.9886 1.1307c0 .6761.3977 1.125.9886 1.125zm0-.3012c-.4488 0-.6534-.3863-.6534-.8238s.2046-.8296.6534-.8296c.4489 0 .6534.3921.6534.8296s-.2045.8238-.6534.8238z"/><path d="m81.2092 27.108c0 .409-.3125.5965-.5625.5965-.2784 0-.4773-.2045-.4773-.5227v-1.3636h-.3352v1.3863c0 .5569.2954.8239.7045.8239.3296 0 .5455-.1761.6478-.3977h.0227v.3693h.3352v-2.1818h-.3352z"/><path d="m83.1073 25.8182h-.4659v-.5227h-.3353v.5227h-.3295v.2841h.3295v1.3636c0 .3807.3069.5625.5909.5625.125 0 .2046-.0227.25-.0398l-.0681-.3011c-.0285.0057-.0739.017-.1478.017-.1477 0-.2897-.0454-.2897-.3295v-1.2727h.4659z"/><path d="m85.6229 28.0455c.5909 0 .9886-.4489.9886-1.125 0-.6819-.3977-1.1307-.9886-1.1307s-.9886.4488-.9886 1.1307c0 .6761.3977 1.125.9886 1.125zm0-.3012c-.4489 0-.6534-.3863-.6534-.8238s.2045-.8296.6534-.8296.6534.3921.6534.8296-.2045.8238-.6534.8238z"/><path d="m88.4982 27.108c0 .409-.3125.5965-.5625.5965-.2784 0-.4772-.2045-.4772-.5227v-1.3636h-.3353v1.3863c0 .5569.2955.8239.7046.8239.3295 0 .5454-.1761.6477-.3977h.0227v.3693h.3353v-2.1818h-.3353z"/><path d="m89.4475 28h.3352v-1.3807c0-.294.2329-.5113.5511-.5113.0838 0 .1463.0156.1932.0397l.1136-.2841c-.0681-.0483-.1576-.0795-.2784-.0795-.2642 0-.49.1477-.5681.3636h-.0228v-.3295h-.3238z"/><path d="m1.1307 33.0455c.42046 0 .5625-.2614.63637-.3807h.03977v.3352h.32386v-2.9091h-.33522v1.0739h-.02841c-.07387-.1137-.20455-.375-.63068-.375-.551141 0-.931822.4375-.931822 1.125 0 .6932.380681 1.1307.926132 1.1307zm.04546-.3012c-.420456 0-.636365-.3693-.636365-.8352 0-.4602.210227-.8182.636365-.8182.40909 0 .625.3296.625.8182 0 .4943-.22159.8352-.625.8352z"/><path d="m3.67758 33.0455c.59091 0 .98864-.4489.98864-1.125 0-.6819-.39773-1.1307-.98864-1.1307s-.98864.4488-.98864 1.1307c0 .6761.39773 1.125.98864 1.125zm0-.3012c-.44886 0-.65341-.3863-.65341-.8238s.20455-.8296.65341-.8296.65341.3921.65341.8296-.20455.8238-.65341.8238z"/><path d="m5.17793 33h.33523v-1.3636c0-.3196.23296-.5455.49432-.5455.25426 0 .43182.1662.43182.4148v1.4943h.34091v-1.4205c0-.2812.17613-.4886.48295-.4886.23864 0 .44318.1264.44318.4489v1.4602h.33523v-1.4602c0-.5128-.27557-.75-.66477-.75-.3125 0-.54119.1434-.65341.3693h-.02273c-.10795-.233-.29829-.3693-.58523-.3693-.28409 0-.49431.1363-.58522.3693h-.02841v-.3409h-.32387z"/><path d="m9.29654 33.0511c.38068 0 .57955-.2045.64773-.3466h.01704v.2955h.33519v-1.4375c0-.6932-.52837-.7727-.80678-.7727-.32954 0-.70454.1136-.875.5113l.31819.1137c.07386-.1591.24857-.3296.56818-.3296.30824 0 .46022.1634.46022.4432v.0114c0 .1619-.16477.1477-.5625.1988-.40483.0526-.84659.1421-.84659.6421 0 .4261.32955.6704.74432.6704zm.05114-.3011c-.26705 0-.46023-.1193-.46023-.3523 0-.2557.23296-.3352.49432-.3693.14204-.017.52273-.0568.57954-.125v.3068c0 .2728-.2159.5398-.61363.5398z"/><path d="m10.9084 33h.3352v-2.1818h-.3352zm.1705-2.5455c.1306 0 .2386-.1022.2386-.2272s-.108-.2273-.2386-.2273c-.1307 0-.2387.1023-.2387.2273s.108.2272.2387.2272z"/><path d="m12.1928 31.6875c0-.3807.2358-.5966.5569-.5966.311 0 .5.2031.5.5455v1.3636h.3352v-1.3864c0-.5568-.2969-.8238-.7386-.8238-.3296 0-.5341.1477-.6364.3693h-.0284v-.3409h-.3239v2.1818h.3352z"/><path d="m16.2372 33.0455c.4432 0 .7671-.2216.8694-.5512l-.3239-.0909c-.0852.2273-.2827.3409-.5455.3409-.3934 0-.6647-.2542-.6804-.7216h1.5838v-.142c0-.8125-.4829-1.0909-.9375-1.0909-.5909 0-.9829.4659-.9829 1.1363 0 .6705.3864 1.1194 1.017 1.1194zm-.6804-1.3125c.0228-.3395.2628-.6421.6463-.6421.3637 0 .5966.2727.5966.6421z"/><path d="m19.4347 30.8182h-.3637l-.6022 1.7386h-.0228l-.6022-1.7386h-.3637l.8069 2.1818h.3409z"/><path d="m20.7138 33.0455c.4432 0 .767-.2216.8693-.5512l-.3238-.0909c-.0853.2273-.2827.3409-.5455.3409-.3935 0-.6648-.2542-.6804-.7216h1.5838v-.142c0-.8125-.4829-1.0909-.9375-1.0909-.5909 0-.9829.4659-.9829 1.1363 0 .6705.3863 1.1194 1.017 1.1194zm-.6804-1.3125c.0227-.3395.2628-.6421.6463-.6421.3636 0 .5966.2727.5966.6421z"/><path d="m22.1272 33h.3352v-1.3807c0-.2954.2329-.5113.5511-.5113.0895 0 .1818.017.2046.0227v-.3409c-.0384-.0029-.1265-.0057-.1762-.0057-.2613 0-.4886.1477-.5682.3636h-.0227v-.3295h-.3238z"/><path d="m23.8864 33.8466c.3068 0 .517-.1591.642-.4943l.9375-2.5341h-.3636l-.6023 1.7386h-.0227l-.6023-1.7386h-.3636l.8068 2.1932-.0739.2045c-.1179.3267-.2727.358-.517.2955l-.0852.2954c.0341.0171.1307.0398.2443.0398z"/><path d="m27.8573 33.0455c.4204 0 .5625-.2614.6363-.3807h.0398v.3352h.3239v-2.9091h-.3353v1.0739h-.0284c-.0738-.1137-.2045-.375-.6307-.375-.5511 0-.9318.4375-.9318 1.125 0 .6932.3807 1.1307.9262 1.1307zm.0454-.3012c-.4204 0-.6363-.3693-.6363-.8352 0-.4602.2102-.8182.6363-.8182.4091 0 .625.3296.625.8182 0 .4943-.2216.8352-.625.8352z"/><path d="m30.1598 33.0511c.3807 0 .5796-.2045.6478-.3466h.017v.2955h.3352v-1.4375c0-.6932-.5284-.7727-.8068-.7727-.3295 0-.7045.1136-.875.5113l.3182.1137c.0739-.1591.2486-.3296.5682-.3296.3082 0 .4602.1634.4602.4432v.0114c0 .1619-.1648.1477-.5625.1988-.4048.0526-.8466.1421-.8466.6421 0 .4261.3296.6704.7443.6704zm.0512-.3011c-.2671 0-.4603-.1193-.4603-.3523 0-.2557.233-.3352.4944-.3693.142-.017.5227-.0568.5795-.125v.3068c0 .2728-.2159.5398-.6136.5398z"/><path d="m31.8981 33.8466c.3068 0 .517-.1591.642-.4943l.9375-2.5341h-.3636l-.6023 1.7386h-.0227l-.6023-1.7386h-.3636l.8068 2.1932-.0738.2045c-.1179.3267-.2728.358-.5171.2955l-.0852.2954c.0341.0171.1307.0398.2443.0398z"/><path d="m35.869 33.0455c.4204 0 .5625-.2614.6363-.3807h.0398v.3352h.3239v-2.9091h-.3352v1.0739h-.0285c-.0738-.1137-.2045-.375-.6306-.375-.5512 0-.9319.4375-.9319 1.125 0 .6932.3807 1.1307.9262 1.1307zm.0454-.3012c-.4204 0-.6363-.3693-.6363-.8352 0-.4602.2102-.8182.6363-.8182.4091 0 .625.3296.625.8182 0 .4943-.2216.8352-.625.8352z"/><path d="m38.4443 33.0455c.4432 0 .767-.2216.8693-.5512l-.3239-.0909c-.0852.2273-.2826.3409-.5454.3409-.3935 0-.6648-.2542-.6804-.7216h1.5838v-.142c0-.8125-.483-1.0909-.9375-1.0909-.5909 0-.983.4659-.983 1.1363 0 .6705.3864 1.1194 1.0171 1.1194zm-.6804-1.3125c.0227-.3395.2628-.6421.6463-.6421.3636 0 .5966.2727.5966.6421z"/><path d="m41.6417 30.8182h-.3636l-.6023 1.7386h-.0227l-.6023-1.7386h-.3636l.8068 2.1818h.3409z"/><path d="m42.9208 33.0455c.4432 0 .7671-.2216.8693-.5512l-.3238-.0909c-.0852.2273-.2827.3409-.5455.3409-.3934 0-.6647-.2542-.6804-.7216h1.5838v-.142c0-.8125-.4829-1.0909-.9375-1.0909-.5909 0-.9829.4659-.9829 1.1363 0 .6705.3864 1.1194 1.017 1.1194zm-.6804-1.3125c.0228-.3395.2628-.6421.6463-.6421.3637 0 .5966.2727.5966.6421z"/><path d="m44.6694 30.0909h-.3352v2.9091h.3352z"/><path d="m46.1698 33.0455c.5909 0 .9886-.4489.9886-1.125 0-.6819-.3977-1.1307-.9886-1.1307s-.9887.4488-.9887 1.1307c0 .6761.3978 1.125.9887 1.125zm0-.3012c-.4489 0-.6534-.3863-.6534-.8238s.2045-.8296.6534-.8296c.4488 0 .6534.3921.6534.8296s-.2046.8238-.6534.8238z"/><path d="m47.6701 33.8182h.3352v-1.1534h.0285c.0738.1193.2159.3807.6363.3807.5455 0 .9262-.4375.9262-1.1307 0-.6875-.3807-1.125-.9319-1.125-.4261 0-.5568.2613-.6306.375h-.0398v-.3466h-.3239zm.3296-1.9091c0-.4886.2159-.8182.625-.8182.4261 0 .6363.358.6363.8182 0 .4659-.2159.8352-.6363.8352-.4034 0-.625-.3409-.625-.8352z"/><path d="m51.6531 31.3068c-.1051-.3096-.3409-.517-.7728-.517-.4602 0-.8011.2613-.8011.6307 0 .3011.179.5028.5796.5965l.3636.0853c.2202.0511.3239.1562.3239.3068 0 .1875-.1989.3409-.5114.3409-.2742 0-.446-.1179-.5057-.3523l-.3182.0796c.0782.3707.3836.5682.8296.5682.5071 0 .8522-.277.8522-.6535 0-.3039-.1903-.4957-.5795-.5909l-.3239-.0795c-.2585-.0639-.375-.1506-.375-.3182 0-.1875.1989-.3239.4659-.3239.2927 0 .4134.162.4716.3125z"/><path d="m54.2372 33.0455c.4432 0 .7671-.2216.8694-.5512l-.3239-.0909c-.0852.2273-.2827.3409-.5455.3409-.3934 0-.6647-.2542-.6804-.7216h1.5838v-.142c0-.8125-.4829-1.0909-.9375-1.0909-.5909 0-.9829.4659-.9829 1.1363 0 .6705.3864 1.1194 1.017 1.1194zm-.6804-1.3125c.0228-.3395.2628-.6421.6463-.6421.3637 0 .5966.2727.5966.6421z"/><path d="m55.842 30.8182h-.3864l.6932 1.0909-.6932 1.0909h.3864l.5227-.8466.5228.8466h.3863l-.7045-1.0909.7045-1.0909h-.3863l-.5228.892z"/><path d="m57.7522 33.8182h.3352v-1.1534h.0284c.0739.1193.2159.3807.6364.3807.5454 0 .9261-.4375.9261-1.1307 0-.6875-.3807-1.125-.9318-1.125-.4262 0-.5568.2613-.6307.375h-.0398v-.3466h-.3238zm.3295-1.9091c0-.4886.2159-.8182.625-.8182.4261 0 .6364.358.6364.8182 0 .4659-.2159.8352-.6364.8352-.4034 0-.625-.3409-.625-.8352z"/><path d="m61.1044 33.0455c.4432 0 .7671-.2216.8693-.5512l-.3238-.0909c-.0852.2273-.2827.3409-.5455.3409-.3934 0-.6647-.2542-.6804-.7216h1.5838v-.142c0-.8125-.4829-1.0909-.9375-1.0909-.5909 0-.9829.4659-.9829 1.1363 0 .6705.3863 1.1194 1.017 1.1194zm-.6804-1.3125c.0228-.3395.2628-.6421.6463-.6421.3637 0 .5966.2727.5966.6421z"/><path d="m62.5178 33h.3352v-1.3807c0-.2954.233-.5113.5511-.5113.0895 0 .1819.017.2046.0227v-.3409c-.0384-.0029-.1264-.0057-.1761-.0057-.2614 0-.4887.1477-.5682.3636h-.0228v-.3295h-.3238z"/><path d="m65.0916 30.8182h-.4659v-.5227h-.3352v.5227h-.3295v.2841h.3295v1.3636c0 .3807.3068.5625.5909.5625.125 0 .2046-.0227.25-.0398l-.0682-.3011c-.0284.0057-.0738.017-.1477.017-.1477 0-.2898-.0454-.2898-.3295v-1.2727h.4659z"/><path d="m65.5959 33h.3352v-2.1818h-.3352zm.1705-2.5455c.1306 0 .2386-.1022.2386-.2272s-.108-.2273-.2386-.2273c-.1307 0-.2387.1023-.2387.2273s.108.2272.2387.2272z"/><path d="m68.0906 31.3068c-.1051-.3096-.3409-.517-.7728-.517-.4602 0-.8011.2613-.8011.6307 0 .3011.179.5028.5796.5965l.3636.0853c.2202.0511.3239.1562.3239.3068 0 .1875-.1989.3409-.5114.3409-.2742 0-.446-.1179-.5057-.3523l-.3182.0796c.0782.3707.3836.5682.8296.5682.5071 0 .8522-.277.8522-.6535 0-.3039-.1903-.4957-.5795-.5909l-.3239-.0795c-.2585-.0639-.375-.1506-.375-.3182 0-.1875.1989-.3239.4659-.3239.2927 0 .4134.162.4716.3125z"/><path d="m69.5497 33.0455c.4432 0 .7671-.2216.8694-.5512l-.3239-.0909c-.0852.2273-.2827.3409-.5455.3409-.3934 0-.6647-.2542-.6804-.7216h1.5838v-.142c0-.8125-.4829-1.0909-.9375-1.0909-.5909 0-.9829.4659-.9829 1.1363 0 .6705.3864 1.1194 1.017 1.1194zm-.6804-1.3125c.0228-.3395.2628-.6421.6463-.6421.3637 0 .5966.2727.5966.6421z"/><path d="m71.2074 33.0227c.1406 0 .2557-.115.2557-.2557 0-.1406-.1151-.2556-.2557-.2556s-.2557.115-.2557.2556c0 .1407.1151.2557.2557.2557z"/></g></svg>