<svg fill="none" height="55" viewBox="0 0 99 55" width="99" xmlns="http://www.w3.org/2000/svg"><g fill="#000"><path d="m2.88631 2.54546c0-.94034-.57387-1.49432-1.33665-1.49432-.764204 0-1.336647.55398-1.336647 1.49432 0 .93892.572443 1.49432 1.336647 1.49432.76278 0 1.33665-.55398 1.33665-1.49432zm-.52983 0c0 .66193-.33239 1.0213-.80682 1.0213-.47301 0-.806818-.35937-.806818-1.0213s.333808-1.02131.806818-1.02131c.47443 0 .80682.35938.80682 1.02131z"/><path d="m4.75243 3.08239c0 .33239-.23722.49716-.46449.49716-.24716 0-.41193-.17472-.41193-.45171v-1.30966h-.5142v1.38921c0 .52415.29829.82102.72727.82102.3267 0 .55682-.17187.65625-.41619h.02273v.38778h.49857v-2.18182h-.5142z"/><path d="m5.7954 4h.5142v-1.28267c0-.27557.20739-.47017.47586-.47017.0838 0 .14772.01989.20312.04546l.15909-.42614c-.0767-.0483-.17471-.07955-.29261-.07955-.25142 0-.45881.14205-.53835.39489h-.02273v-.36364h-.49858z"/><path d="m9.39554 4.04262c.5483 0 .89776-.32529.93466-.78836h-.49148c-.04403.23438-.21306.36932-.43892.36932-.32102 0-.52841-.26846-.52841-.71449 0-.44034.21165-.70454.52841-.70454.24716 0 .39915.15909.43892.36932h.49148c-.0355-.47302-.40483-.78409-.9375-.78409-.6392 0-1.04261.46164-1.04261 1.12784 0 .66051.39346 1.125 1.04545 1.125z"/><path d="m11.7041 4.04262c.6392 0 1.0455-.45029 1.0455-1.125 0-.67614-.4063-1.12784-1.0455-1.12784s-1.0454.4517-1.0454 1.12784c0 .67471.4062 1.125 1.0454 1.125zm.0029-.41194c-.3537 0-.527-.31534-.527-.71448 0-.39915.1733-.71875.527-.71875.348 0 .5213.3196.5213.71875 0 .39914-.1733.71448-.5213.71448z"/><path d="m13.186 4h.5142v-1.3267c0-.26847.179-.45029.4006-.45029.2173 0 .3665.14631.3665.37074v1.40625h.5042v-1.36079c0-.24574.1463-.4162.3949-.4162.2074 0 .3722.12216.3722.39205v1.38494h.5156v-1.46449c0-.48721-.2812-.74573-.6818-.74573-.3168 0-.5583.15625-.6548.39914h-.0228c-.0838-.24716-.2954-.39914-.5895-.39914-.2926 0-.5113.15056-.6022.39914h-.0256v-.37074h-.4915z"/><path d="m16.7759 4h.5142v-1.3267c0-.26847.179-.45029.4005-.45029.2174 0 .3665.14631.3665.37074v1.40625h.5043v-1.36079c0-.24574.1463-.4162.3949-.4162.2074 0 .3721.12216.3721.39205v1.38494h.5156v-1.46449c0-.48721-.2812-.74573-.6818-.74573-.3167 0-.5582.15625-.6548.39914h-.0227c-.0838-.24716-.2955-.39914-.5895-.39914-.2926 0-.5114.15056-.6023.39914h-.0256v-.37074h-.4914z"/><path d="m21.7563 3.08239c0 .33239-.2372.49716-.4645.49716-.2471 0-.4119-.17472-.4119-.45171v-1.30966h-.5142v1.38921c0 .52415.2983.82102.7273.82102.3267 0 .5568-.17187.6562-.41619h.0228v.38778h.4985v-2.18182h-.5142z"/><path d="m23.3135 2.72159c0-.31534.1904-.49716.4617-.49716.2656 0 .4247.17472.4247.46591v1.30966h.5142v-1.3892c.0014-.52273-.2969-.82102-.7472-.82102-.3267 0-.5511.15625-.6505.39914h-.0256v-.37074h-.4915v2.18182h.5142z"/><path d="m25.2368 4h.5142v-2.18182h-.5142zm.2585-2.49147c.1634 0 .2969-.125.2969-.27841 0-.15483-.1335-.279833-.2969-.279833-.1647 0-.2983.125003-.2983.279833 0 .15341.1336.27841.2983.27841z"/><path d="m27.3693 1.81818h-.4304v-.52272h-.5142v.52272h-.3097v.39773h.3097v1.21307c-.0029.41051.2954.61222.6818.60085.1463-.00426.2471-.03267.3025-.05113l-.0866-.40199c-.0284.0071-.0867.01988-.1506.01988-.1292 0-.2329-.04545-.2329-.25284v-1.12784h.4304z"/><path d="m28.1004 4.84943c.3978 0 .6449-.22159.7671-.56534l.8807-2.46591h-.5469l-.5043 1.64773h-.0227l-.5028-1.64773h-.5455l.7912 2.22728-.0511.1392c-.0966.24006-.2458.25995-.4702.1946l-.1193.41194c.0582.02414.1733.05823.3238.05823z"/><path d="m32.9648 2.38921h-2v.3125h2z"/><path d="m34.9705 4h.3636l.6421-2.31818h.0227l.642 2.31818h.3637l.7954-2.90909h-.3579l-.608 2.36932h-.0284l-.6193-2.36932h-.3977l-.6194 2.36932h-.0284l-.6079-2.36932h-.358z"/><path d="m38.9051 4.04546c.4432 0 .7671-.22159.8693-.55114l-.3238-.09091c-.0852.22727-.2827.34091-.5455.34091-.3934 0-.6647-.25426-.6804-.72159h1.5838v-.14205c0-.8125-.4829-1.0909-.9375-1.0909-.5909 0-.9829.4659-.9829 1.13636 0 .67045.3863 1.11932 1.017 1.11932zm-.6804-1.3125c.0228-.33949.2628-.64205.6463-.64205.3637 0 .5966.27273.5966.64205z"/><path d="m42.9889 2.30682c-.1051-.30966-.3409-.51704-.7727-.51704-.4602 0-.8011.26136-.8011.63068 0 .30113.1789.50284.5795.59659l.3637.08523c.2201.05113.3238.15625.3238.30681 0 .1875-.1988.34091-.5113.34091-.2742 0-.4461-.11789-.5057-.35227l-.3182.07955c.0781.37073.3835.56818.8295.56818.5071 0 .8523-.27699.8523-.65341 0-.30398-.1903-.49574-.5795-.59091l-.3239-.07955c-.2585-.06392-.375-.15056-.375-.31818 0-.1875.1989-.32386.4659-.32386.2926 0 .4134.16193.4716.3125z"/><path d="m43.8685 2.6875c0-.38068.2429-.59659.5739-.59659.3154 0 .5057.19887.5057.54546v1.36363h.3352v-1.38636c0-.56108-.2983-.82386-.7443-.82386-.3437 0-.5398.14346-.642.36931h-.0285v-1.06818h-.3352v2.90909h.3352z"/><path d="m46.783 4.04546c.5909 0 .9886-.44887.9886-1.125 0-.68182-.3977-1.13068-.9886-1.13068s-.9887.44886-.9887 1.13068c0 .67613.3978 1.125.9887 1.125zm0-.30114c-.4489 0-.6534-.38636-.6534-.82386s.2045-.82955.6534-.82955c.4488 0 .6534.39205.6534.82955s-.2046.82386-.6534.82386z"/><path d="m49.6583 3.10796c0 .40909-.3125.59659-.5625.59659-.2784 0-.4773-.20455-.4773-.52273v-1.36364h-.3352v1.38637c0 .55682.2955.82386.7046.82386.3295 0 .5454-.17613.6477-.39773h.0227v.36932h.3352v-2.18182h-.3352z"/><path d="m50.9428 1.09091h-.3353v2.90909h.3353z"/><path d="m52.3806 4.04546c.4205 0 .5625-.26137.6364-.38068h.0398v.33522h.3238v-2.90909h-.3352v1.07387h-.0284c-.0739-.11364-.2046-.375-.6307-.375-.5511 0-.9318.4375-.9318 1.125 0 .69318.3807 1.13068.9261 1.13068zm.0455-.30114c-.4205 0-.6364-.36932-.6364-.83523 0-.46022.2102-.81818.6364-.81818.4091 0 .625.32955.625.81818 0 .49432-.2216.83523-.625.83523z"/><path d="m56.0525 4.04546c.483 0 .8011-.29546.858-.68182h-.3353c-.0625.23864-.2613.38068-.5227.38068-.3977 0-.6534-.32954-.6534-.83523 0-.49431.2614-.81818.6534-.81818.2955 0 .4716.18182.5227.38068h.3353c-.0569-.40909-.4035-.68181-.8637-.68181-.5909 0-.9829.4659-.9829 1.13068 0 .65341.375 1.125.9886 1.125z"/><path d="m58.0426 4.05114c.3806 0 .5795-.20455.6477-.34659h.017v.29545h.3353v-1.4375c0-.69318-.5285-.77272-.8069-.77272-.3295 0-.7045.11363-.875.51136l.3182.11364c.0739-.1591.2486-.32955.5682-.32955.3082 0 .4602.16335.4602.44318v.01137c0 .16193-.1647.14772-.5625.19886-.4048.05256-.8466.14204-.8466.64204 0 .42614.3296.67046.7444.67046zm.0511-.30114c-.2671 0-.4602-.11932-.4602-.35227 0-.25568.2329-.33523.4943-.36932.142-.01704.5227-.05682.5795-.125v.30682c0 .27273-.2159.53977-.6136.53977z"/><path d="m59.6544 4h.3352v-1.38068c0-.29403.233-.51136.5512-.51136.0838 0 .1463.01562.1932.03977l.1136-.28409c-.0682-.0483-.1577-.07955-.2784-.07955-.2642 0-.4901.14773-.5682.36364h-.0227v-.32955h-.3239z"/><path d="m62.0379 4.04546c.4432 0 .7671-.22159.8694-.55114l-.3239-.09091c-.0852.22727-.2827.34091-.5455.34091-.3934 0-.6647-.25426-.6804-.72159h1.5838v-.14205c0-.8125-.4829-1.0909-.9375-1.0909-.5909 0-.9829.4659-.9829 1.13636 0 .67045.3864 1.11932 1.017 1.11932zm-.6804-1.3125c.0228-.33949.2628-.64205.6463-.64205.3637 0 .5966.27273.5966.64205z"/><path d="m65.2183 4.05114c.3807 0 .5796-.20455.6478-.34659h.017v.29545h.3352v-1.4375c0-.69318-.5284-.77272-.8068-.77272-.3295 0-.7045.11363-.875.51136l.3182.11364c.0739-.1591.2486-.32955.5682-.32955.3082 0 .4602.16335.4602.44318v.01137c0 .16193-.1648.14772-.5625.19886-.4048.05256-.8466.14204-.8466.64204 0 .42614.3296.67046.7443.67046zm.0512-.30114c-.2671 0-.4603-.11932-.4603-.35227 0-.25568.233-.33523.4944-.36932.142-.01704.5227-.05682.5795-.125v.30682c0 .27273-.2159.53977-.6136.53977z"/><path d="m66.8757 4h.3238v-.33522h.0398c.0739.11931.2159.38068.6364.38068.5454 0 .9261-.4375.9261-1.13068 0-.6875-.3807-1.125-.9318-1.125-.4262 0-.5568.26136-.6307.375h-.0284v-1.07387h-.3352zm.3295-1.09091c0-.48863.2159-.81818.625-.81818.4261 0 .6364.35796.6364.81818 0 .46591-.2159.83523-.6364.83523-.4034 0-.625-.34091-.625-.83523z"/><path d="m70.2009 4.04546c.591 0 .9887-.44887.9887-1.125 0-.68182-.3977-1.13068-.9887-1.13068-.5909 0-.9886.44886-.9886 1.13068 0 .67613.3977 1.125.9886 1.125zm0-.30114c-.4488 0-.6534-.38636-.6534-.82386s.2046-.82955.6534-.82955c.4489 0 .6534.39205.6534.82955s-.2045.82386-.6534.82386z"/><path d="m73.0763 3.10796c0 .40909-.3125.59659-.5625.59659-.2784 0-.4773-.20455-.4773-.52273v-1.36364h-.3352v1.38637c0 .55682.2954.82386.7045.82386.3296 0 .5455-.17613.6478-.39773h.0227v.36932h.3352v-2.18182h-.3352z"/><path d="m74.9744 1.81818h-.4659v-.52272h-.3353v.52272h-.3295v.2841h.3295v1.36363c0 .38068.3069.5625.591.5625.125 0 .2045-.02273.25-.03977l-.0682-.30114c-.0284.00568-.0739.01705-.1478.01705-.1477 0-.2897-.04546-.2897-.32955v-1.27272h.4659z"/><path d="m77.5184 4.04546c.4432 0 .7671-.22159.8693-.55114l-.3238-.09091c-.0853.22727-.2827.34091-.5455.34091-.3935 0-.6648-.25426-.6804-.72159h1.5838v-.14205c0-.8125-.4829-1.0909-.9375-1.0909-.5909 0-.9829.4659-.9829 1.13636 0 .67045.3863 1.11932 1.017 1.11932zm-.6804-1.3125c.0227-.33949.2628-.64205.6463-.64205.3637 0 .5966.27273.5966.64205z"/><path d="m79.5738 4.05114c.3807 0 .5796-.20455.6477-.34659h.0171v.29545h.3352v-1.4375c0-.69318-.5284-.77272-.8068-.77272-.3296 0-.7046.11363-.875.51136l.3182.11364c.0738-.1591.2486-.32955.5682-.32955.3082 0 .4602.16335.4602.44318v.01137c0 .16193-.1648.14772-.5625.19886-.4048.05256-.8466.14204-.8466.64204 0 .42614.3295.67046.7443.67046zm.0511-.30114c-.267 0-.4602-.11932-.4602-.35227 0-.25568.233-.33523.4943-.36932.1421-.01704.5228-.05682.5796-.125v.30682c0 .27273-.2159.53977-.6137.53977z"/><path d="m82.072 4.04546c.483 0 .8012-.29546.858-.68182h-.3352c-.0625.23864-.2614.38068-.5228.38068-.3977 0-.6534-.32954-.6534-.83523 0-.49431.2614-.81818.6534-.81818.2955 0 .4716.18182.5228.38068h.3352c-.0568-.40909-.4034-.68181-.8636-.68181-.591 0-.983.4659-.983 1.13068 0 .65341.375 1.125.9886 1.125z"/><path d="m83.7553 2.6875c0-.38068.2429-.59659.5738-.59659.3154 0 .5057.19887.5057.54546v1.36363h.3352v-1.38636c0-.56108-.2982-.82386-.7443-.82386-.3437 0-.5397.14346-.642.36931h-.0284v-1.06818h-.3353v2.90909h.3353z"/><path d="m1.19313 9.04546c.59091 0 .98863-.44887.98863-1.125 0-.68182-.39772-1.13068-.98863-1.13068-.590913 0-.98864.44886-.98864 1.13068 0 .67613.397727 1.125.98864 1.125zm0-.30114c-.448867 0-.653413-.38636-.653413-.82386s.204546-.82955.653413-.82955c.44886 0 .65341.39205.65341.82955s-.20455.82386-.65341.82386z"/><path d="m3.64235 6.81818h-.46591v-.52272h-.33523v.52272h-.32955v.2841h.32955v1.36363c0 .38068.30682.5625.59091.5625.125 0 .20454-.02273.25-.03977l-.06818-.30114c-.02841.00568-.07387.01705-.14773.01705-.14773 0-.28977-.04546-.28977-.32955v-1.27272h.46591z"/><path d="m4.52871 7.6875c0-.38068.2429-.59659.57386-.59659.31534 0 .50568.19887.50568.54546v1.36363h.33523v-1.38636c0-.56108-.29829-.82386-.74432-.82386-.34375 0-.53977.14346-.64204.36931h-.02841v-1.06818h-.33523v2.90909h.33523z"/><path d="m7.47154 9.04546c.44318 0 .76704-.22159.86931-.55114l-.32386-.09091c-.08523.22727-.28267.34091-.54545.34091-.39347 0-.66478-.25426-.6804-.72159h1.5838v-.14205c0-.8125-.48295-1.0909-.9375-1.0909-.5909 0-.98295.4659-.98295 1.13636 0 .67045.38636 1.11932 1.01705 1.11932zm-.6804-1.3125c.02273-.33949.26278-.64205.6463-.64205.36364 0 .5966.27273.5966.64205z"/><path d="m8.88489 9h.33523v-1.38068c0-.29403.23295-.51136.55113-.51136.08381 0 .14631.01562.19318.03977l.11367-.28409c-.0682-.0483-.1577-.07955-.27844-.07955-.2642 0-.49006.14773-.56818.36364h-.02273v-.32955h-.32386z"/><path d="m12.1871 9.05114c.3807 0 .5795-.20455.6477-.34659h.0171v.29545h.3352v-1.4375c0-.69318-.5284-.77272-.8068-.77272-.3296 0-.7046.11363-.875.51136l.3182.11364c.0738-.1591.2485-.32955.5681-.32955.3083 0 .4603.16335.4603.44318v.01137c0 .16193-.1648.14772-.5625.19886-.4049.05256-.8466.14204-.8466.64204 0 .42614.3295.67046.7443.67046zm.0511-.30114c-.267 0-.4602-.11932-.4602-.35227 0-.25568.233-.33523.4943-.36932.1421-.01704.5227-.05682.5796-.125v.30682c0 .27273-.2159.53977-.6137.53977z"/><path d="m15.3444 7.30682c-.1051-.30966-.3409-.51704-.7727-.51704-.4602 0-.8012.26136-.8012.63068 0 .30113.179.50284.5796.59659l.3636.08523c.2202.05113.3239.15625.3239.30681 0 .1875-.1989.34091-.5114.34091-.2741 0-.446-.1179-.5057-.35227l-.3181.07955c.0781.37073.3835.56818.8295.56818.5071 0 .8523-.27699.8523-.65341 0-.30398-.1904-.49574-.5796-.59091l-.3238-.07955c-.2586-.06392-.375-.15056-.375-.31818 0-.1875.1988-.32386.4659-.32386.2926 0 .4133.16193.4716.3125z"/><path d="m17.0138 9h.3352v-1.36363c0-.31961.233-.54546.4943-.54546.2543 0 .4319.1662.4319.41477v1.49432h.3409v-1.42045c0-.28125.1761-.48864.4829-.48864.2387 0 .4432.12642.4432.44887v1.46022h.3352v-1.46022c0-.51279-.2755-.75-.6647-.75-.3125 0-.5412.14346-.6535.36931h-.0227c-.1079-.23295-.2983-.36931-.5852-.36931-.2841 0-.4943.13636-.5852.36931h-.0284v-.34091h-.3239z"/><path d="m21.8654 8.10796c0 .40909-.3125.59659-.5625.59659-.2785 0-.4773-.20455-.4773-.52273v-1.36364h-.3352v1.38637c0 .55682.2954.82386.7045.82386.3295 0 .5455-.17613.6477-.39773h.0228v.36932h.3352v-2.18182h-.3352z"/><path d="m23.7009 9.04546c.483 0 .8012-.29546.858-.68182h-.3352c-.0625.23864-.2614.38068-.5228.38068-.3977 0-.6534-.32954-.6534-.83523 0-.49431.2614-.81818.6534-.81818.2955 0 .4716.18182.5228.38068h.3352c-.0568-.40909-.4034-.68181-.8636-.68181-.591 0-.983.4659-.983 1.13068 0 .65341.375 1.125.9886 1.125z"/><path d="m25.3842 7.6875c0-.38068.2429-.59659.5738-.59659.3154 0 .5057.19887.5057.54546v1.36363h.3353v-1.38636c0-.56108-.2983-.82386-.7444-.82386-.3437 0-.5397.14346-.642.36931h-.0284v-1.06818h-.3352v2.90909h.3352z"/><path d="m29.1793 9.05114c.3807 0 .5795-.20455.6477-.34659h.017v.29545h.3353v-1.4375c0-.69318-.5284-.77272-.8068-.77272-.3296 0-.7046.11363-.875.51136l.3181.11364c.0739-.1591.2486-.32955.5682-.32955.3083 0 .4602.16335.4602.44318v.01137c0 .16193-.1647.14772-.5625.19886-.4048.05256-.8465.14204-.8465.64204 0 .42614.3295.67046.7443.67046zm.0511-.30114c-.267 0-.4602-.11932-.4602-.35227 0-.25568.2329-.33523.4943-.36932.1421-.01704.5227-.05682.5795-.125v.30682c0 .27273-.2159.53977-.6136.53977z"/><path d="m32.3366 7.30682c-.1051-.30966-.3409-.51704-.7727-.51704-.4603 0-.8012.26136-.8012.63068 0 .30113.179.50284.5796.59659l.3636.08523c.2202.05113.3239.15625.3239.30681 0 .1875-.1989.34091-.5114.34091-.2741 0-.446-.1179-.5057-.35227l-.3182.07955c.0782.37073.3836.56818.8296.56818.5071 0 .8523-.27699.8523-.65341 0-.30398-.1904-.49574-.5796-.59091l-.3238-.07955c-.2586-.06392-.375-.15056-.375-.31818 0-.1875.1988-.32386.4659-.32386.2926 0 .4133.16193.4716.3125z"/><path d="m34.5003 9h.3295l.4773-1.67613h.0341l.4773 1.67613h.3295l.6648-2.18182h-.3523l-.4716 1.66478h-.0227l-.4602-1.66478h-.358l-.4659 1.67046h-.0227l-.4716-1.67046h-.3523z"/><path d="m38.0965 9.04546c.4432 0 .7671-.22159.8694-.55114l-.3239-.09091c-.0852.22727-.2827.34091-.5455.34091-.3934 0-.6647-.25426-.6804-.72159h1.5838v-.14205c0-.8125-.4829-1.0909-.9375-1.0909-.5909 0-.9829.4659-.9829 1.13636 0 .67045.3864 1.11932 1.017 1.11932zm-.6804-1.3125c.0228-.33949.2628-.64205.6463-.64205.3637 0 .5966.27273.5966.64205z"/><path d="m41.5212 9.04546c.483 0 .8012-.29546.858-.68182h-.3352c-.0625.23864-.2614.38068-.5228.38068-.3977 0-.6534-.32954-.6534-.83523 0-.49431.2614-.81818.6534-.81818.2955 0 .4716.18182.5228.38068h.3352c-.0568-.40909-.4034-.68181-.8636-.68181-.5909 0-.983.4659-.983 1.13068 0 .65341.375 1.125.9886 1.125z"/><path d="m43.5113 9.05114c.3807 0 .5796-.20455.6477-.34659h.0171v.29545h.3352v-1.4375c0-.69318-.5284-.77272-.8068-.77272-.3296 0-.7046.11363-.875.51136l.3182.11364c.0738-.1591.2485-.32955.5682-.32955.3082 0 .4602.16335.4602.44318v.01137c0 .16193-.1648.14772-.5625.19886-.4049.05256-.8466.14204-.8466.64204 0 .42614.3295.67046.7443.67046zm.0511-.30114c-.267 0-.4602-.11932-.4602-.35227 0-.25568.233-.33523.4943-.36932.1421-.01704.5228-.05682.5796-.125v.30682c0 .27273-.2159.53977-.6137.53977z"/><path d="m45.1232 9h.3352v-1.38068c0-.29403.2329-.51136.5511-.51136.0838 0 .1463.01562.1932.03977l.1136-.28409c-.0681-.0483-.1576-.07955-.2784-.07955-.2642 0-.49.14773-.5681.36364h-.0228v-.32955h-.3238z"/><path d="m47.5067 9.04546c.4432 0 .767-.22159.8693-.55114l-.3239-.09091c-.0852.22727-.2826.34091-.5454.34091-.3935 0-.6648-.25426-.6804-.72159h1.5838v-.14205c0-.8125-.483-1.0909-.9375-1.0909-.5909 0-.983.4659-.983 1.13636 0 .67045.3864 1.11932 1.0171 1.11932zm-.6804-1.3125c.0227-.33949.2628-.64205.6463-.64205.3636 0 .5966.27273.5966.64205z"/><path d="m50.6871 9.05114c.3807 0 .5795-.20455.6477-.34659h.0171v.29545h.3352v-1.4375c0-.69318-.5284-.77272-.8068-.77272-.3296 0-.7046.11363-.875.51136l.3182.11364c.0738-.1591.2485-.32955.5681-.32955.3083 0 .4603.16335.4603.44318v.01137c0 .16193-.1648.14772-.5625.19886-.4049.05256-.8466.14204-.8466.64204 0 .42614.3295.67046.7443.67046zm.0511-.30114c-.267 0-.4602-.11932-.4602-.35227 0-.25568.233-.33523.4943-.36932.1421-.01704.5227-.05682.5796-.125v.30682c0 .27273-.2159.53977-.6137.53977z"/><path d="m52.3444 9h.3239v-.33522h.0397c.0739.11931.2159.38068.6364.38068.5455 0 .9261-.4375.9261-1.13068 0-.6875-.3806-1.125-.9318-1.125-.4261 0-.5568.26136-.6307.375h-.0284v-1.07387h-.3352zm.3296-1.09091c0-.48863.2159-.81818.625-.81818.4261 0 .6363.35796.6363.81818 0 .46591-.2159.83523-.6363.83523-.4035 0-.625-.34091-.625-.83523z"/><path d="m55.6697 9.04546c.5909 0 .9886-.44887.9886-1.125 0-.68182-.3977-1.13068-.9886-1.13068s-.9887.44886-.9887 1.13068c0 .67613.3978 1.125.9887 1.125zm0-.30114c-.4489 0-.6534-.38636-.6534-.82386s.2045-.82955.6534-.82955c.4488 0 .6534.39205.6534.82955s-.2046.82386-.6534.82386z"/><path d="m58.545 8.10796c0 .40909-.3125.59659-.5625.59659-.2784 0-.4772-.20455-.4772-.52273v-1.36364h-.3353v1.38637c0 .55682.2955.82386.7046.82386.3295 0 .5454-.17613.6477-.39773h.0227v.36932h.3353v-2.18182h-.3353z"/><path d="m60.4431 6.81818h-.4659v-.52272h-.3352v.52272h-.3296v.2841h.3296v1.36363c0 .38068.3068.5625.5909.5625.125 0 .2045-.02273.25-.03977l-.0682-.30114c-.0284.00568-.0738.01705-.1477.01705-.1477 0-.2898-.04546-.2898-.32955v-1.27272h.4659z"/><path d="m62.5667 9h.3295l.4773-1.67613h.0341l.4773 1.67613h.3295l.6648-2.18182h-.3523l-.4716 1.66478h-.0227l-.4602-1.66478h-.358l-.4659 1.67046h-.0227l-.4716-1.67046h-.3523z"/><path d="m65.6576 7.6875c0-.38068.2429-.59659.5739-.59659.3153 0 .5057.19887.5057.54546v1.36363h.3352v-1.38636c0-.56108-.2983-.82386-.7443-.82386-.3438 0-.5398.14346-.6421.36931h-.0284v-1.06818h-.3352v2.90909h.3352z"/><path d="m68.3277 9.05114c.3807 0 .5796-.20455.6477-.34659h.0171v.29545h.3352v-1.4375c0-.69318-.5284-.77272-.8068-.77272-.3295 0-.7045.11363-.875.51136l.3182.11364c.0738-.1591.2486-.32955.5682-.32955.3082 0 .4602.16335.4602.44318v.01137c0 .16193-.1648.14772-.5625.19886-.4048.05256-.8466.14204-.8466.64204 0 .42614.3295.67046.7443.67046zm.0512-.30114c-.2671 0-.4603-.11932-.4603-.35227 0-.25568.233-.33523.4943-.36932.1421-.01704.5228-.05682.5796-.125v.30682c0 .27273-.2159.53977-.6136.53977z"/><path d="m70.8884 6.81818h-.4659v-.52272h-.3352v.52272h-.3295v.2841h.3295v1.36363c0 .38068.3068.5625.5909.5625.125 0 .2046-.02273.25-.03977l-.0682-.30114c-.0284.00568-.0738.01705-.1477.01705-.1477 0-.2898-.04546-.2898-.32955v-1.27272h.4659z"/><path d="m73.012 9h.3296l.4772-1.67613h.0341l.4773 1.67613h.3295l.6648-2.18182h-.3523l-.4715 1.66478h-.0228l-.4602-1.66478h-.358l-.4659 1.67046h-.0227l-.4716-1.67046h-.3523z"/><path d="m76.6083 9.04546c.4431 0 .767-.22159.8693-.55114l-.3239-.09091c-.0852.22727-.2827.34091-.5454.34091-.3935 0-.6648-.25426-.6804-.72159h1.5838v-.14205c0-.8125-.483-1.0909-.9375-1.0909-.5909 0-.983.4659-.983 1.13636 0 .67045.3864 1.11932 1.0171 1.11932zm-.6804-1.3125c.0227-.33949.2627-.64205.6463-.64205.3636 0 .5966.27273.5966.64205z"/><path d="m79.9705 9.04546c.4204 0 .5625-.26137.6363-.38068h.0398v.33522h.3239v-2.90909h-.3353v1.07387h-.0284c-.0738-.11364-.2045-.375-.6306-.375-.5512 0-.9319.4375-.9319 1.125 0 .69318.3807 1.13068.9262 1.13068zm.0454-.30114c-.4204 0-.6363-.36932-.6363-.83523 0-.46022.2102-.81818.6363-.81818.4091 0 .625.32955.625.81818 0 .49432-.2216.83523-.625.83523z"/><path d="m82.5173 9.04546c.591 0 .9887-.44887.9887-1.125 0-.68182-.3977-1.13068-.9887-1.13068-.5909 0-.9886.44886-.9886 1.13068 0 .67613.3977 1.125.9886 1.125zm0-.30114c-.4488 0-.6534-.38636-.6534-.82386s.2046-.82955.6534-.82955c.4489 0 .6535.39205.6535.82955s-.2046.82386-.6535.82386z"/><path d="m84.262 9.02273c.1406 0 .2557-.11506.2557-.25568 0-.14063-.1151-.25568-.2557-.25568s-.2557.11505-.2557.25568c0 .14062.1151.25568.2557.25568z"/><path d="m2.69313 12c-.10796-.5966-.58523-.9489-1.17046-.9489-.744316 0-1.284089.5739-1.284089 1.4944 0 .9204.539773 1.4943 1.284089 1.4943.58523 0 1.0625-.3523 1.17046-.9489h-.35228c-.08522.4034-.43181.6193-.81818.6193-.528407 0-.94318-.4091-.94318-1.1647 0-.7557.414773-1.1648.94318-1.1648.38637 0 .73296.2159.81818.6193z"/><path d="m4.10328 14.0455c.59091 0 .98864-.4489.98864-1.125 0-.6819-.39773-1.1307-.98864-1.1307s-.98863.4488-.98863 1.1307c0 .6761.39772 1.125.98863 1.125zm0-.3012c-.44886 0-.65341-.3863-.65341-.8238s.20455-.8296.65341-.8296c.44887 0 .65341.3921.65341.8296s-.20454.8238-.65341.8238z"/><path d="m5.93887 11.0909h-.33523v2.9091h.33523z"/><path d="m6.88808 11.0909h-.33522v2.9091h.33522z"/><path d="m8.41685 14.0455c.44318 0 .76704-.2216.86932-.5512l-.32387-.0909c-.08522.2273-.28267.3409-.54545.3409-.39347 0-.66477-.2542-.6804-.7216h1.58381v-.142c0-.8125-.48296-1.0909-.9375-1.0909-.59091 0-.98296.4659-.98296 1.1363 0 .6705.38637 1.1194 1.01705 1.1194zm-.6804-1.3125c.02273-.3395.26278-.6421.64631-.6421.36363 0 .59659.2727.59659.6421z"/><path d="m10.7166 14.0455c.4829 0 .8011-.2955.8579-.6819h-.3352c-.0625.2387-.2614.3807-.5227.3807-.3978 0-.6534-.3295-.6534-.8352 0-.4943.2613-.8182.6534-.8182.2954 0 .4716.1818.5227.3807h.3352c-.0568-.4091-.4034-.6818-.8636-.6818-.5909 0-.98297.4659-.98297 1.1307 0 .6534.37497 1.125.98867 1.125z"/><path d="m13.0134 11.8182h-.4659v-.5227h-.3352v.5227h-.3295v.2841h.3295v1.3636c0 .3807.3068.5625.5909.5625.125 0 .2046-.0227.25-.0398l-.0682-.3011c-.0284.0057-.0738.017-.1477.017-.1477 0-.2898-.0454-.2898-.3295v-1.2727h.4659z"/><path d="m13.5177 14h.3352v-2.1818h-.3352zm.1705-2.5455c.1306 0 .2386-.1022.2386-.2272s-.108-.2273-.2386-.2273c-.1307 0-.2387.1023-.2387.2273s.108.2272.2387.2272z"/><path d="m16.251 11.8182h-.3636l-.6023 1.7386h-.0227l-.6023-1.7386h-.3636l.8068 2.1818h.3409z"/><path d="m17.5301 14.0455c.4432 0 .7671-.2216.8693-.5512l-.3238-.0909c-.0852.2273-.2827.3409-.5455.3409-.3934 0-.6647-.2542-.6804-.7216h1.5838v-.142c0-.8125-.4829-1.0909-.9375-1.0909-.5909 0-.9829.4659-.9829 1.1363 0 .6705.3863 1.1194 1.017 1.1194zm-.6804-1.3125c.0228-.3395.2628-.6421.6463-.6421.3637 0 .5966.2727.5966.6421z"/><path d="m20.9833 14.0455c.4431 0 .767-.2216.8693-.5512l-.3239-.0909c-.0852.2273-.2827.3409-.5454.3409-.3935 0-.6648-.2542-.6804-.7216h1.5838v-.142c0-.8125-.483-1.0909-.9375-1.0909-.5909 0-.983.4659-.983 1.1363 0 .6705.3864 1.1194 1.0171 1.1194zm-.6804-1.3125c.0227-.3395.2627-.6421.6463-.6421.3636 0 .5966.2727.5966.6421z"/><path d="m22.588 11.8182h-.3864l.6932 1.0909-.6932 1.0909h.3864l.5227-.8466.5228.8466h.3863l-.7045-1.0909.7045-1.0909h-.3863l-.5228.892z"/><path d="m24.4982 14.8182h.3352v-1.1534h.0284c.0739.1193.2159.3807.6364.3807.5454 0 .9261-.4375.9261-1.1307 0-.6875-.3807-1.125-.9318-1.125-.4261 0-.5568.2613-.6307.375h-.0398v-.3466h-.3238zm.3295-1.9091c0-.4886.2159-.8182.625-.8182.4262 0 .6364.358.6364.8182 0 .4659-.2159.8352-.6364.8352-.4034 0-.625-.3409-.625-.8352z"/><path d="m27.8504 14.0455c.4432 0 .7671-.2216.8694-.5512l-.3239-.0909c-.0852.2273-.2827.3409-.5455.3409-.3934 0-.6647-.2542-.6804-.7216h1.5839v-.142c0-.8125-.483-1.0909-.9375-1.0909-.591 0-.983.4659-.983 1.1363 0 .6705.3864 1.1194 1.017 1.1194zm-.6804-1.3125c.0228-.3395.2628-.6421.6464-.6421.3636 0 .5965.2727.5965.6421z"/><path d="m29.2638 14h.3352v-1.3807c0-.2954.233-.5113.5512-.5113.0894 0 .1818.017.2045.0227v-.3409c-.0383-.0029-.1264-.0057-.1761-.0057-.2614 0-.4887.1477-.5682.3636h-.0227v-.3295h-.3239z"/><path d="m30.7521 14h.3352v-2.1818h-.3352zm.1704-2.5455c.1307 0 .2387-.1022.2387-.2272s-.108-.2273-.2387-.2273-.2386.1023-.2386.2273.1079.2272.2386.2272z"/><path d="m32.6161 14.0455c.4431 0 .767-.2216.8693-.5512l-.3239-.0909c-.0852.2273-.2827.3409-.5454.3409-.3935 0-.6648-.2542-.6804-.7216h1.5838v-.142c0-.8125-.483-1.0909-.9375-1.0909-.5909 0-.983.4659-.983 1.1363 0 .6705.3864 1.1194 1.0171 1.1194zm-.6804-1.3125c.0227-.3395.2628-.6421.6463-.6421.3636 0 .5966.2727.5966.6421z"/><path d="m34.3646 12.6875c0-.3807.2358-.5966.5569-.5966.311 0 .5.2031.5.5455v1.3636h.3352v-1.3864c0-.5568-.2969-.8238-.7386-.8238-.3296 0-.5341.1477-.6364.3693h-.0284v-.3409h-.3239v2.1818h.3352z"/><path d="m37.2556 14.0455c.483 0 .8012-.2955.858-.6819h-.3352c-.0625.2387-.2614.3807-.5228.3807-.3977 0-.6534-.3295-.6534-.8352 0-.4943.2614-.8182.6534-.8182.2955 0 .4716.1818.5228.3807h.3352c-.0568-.4091-.4034-.6818-.8637-.6818-.5909 0-.9829.4659-.9829 1.1307 0 .6534.375 1.125.9886 1.125z"/><path d="m39.5184 14.0455c.4432 0 .7671-.2216.8693-.5512l-.3238-.0909c-.0853.2273-.2827.3409-.5455.3409-.3935 0-.6648-.2542-.6804-.7216h1.5838v-.142c0-.8125-.4829-1.0909-.9375-1.0909-.5909 0-.9829.4659-.9829 1.1363 0 .6705.3863 1.1194 1.017 1.1194zm-.6804-1.3125c.0227-.3395.2628-.6421.6463-.6421.3637 0 .5966.2727.5966.6421z"/><path d="m42.4772 12.3068c-.1051-.3096-.3409-.517-.7727-.517-.4602 0-.8011.2613-.8011.6307 0 .3011.1789.5028.5795.5965l.3636.0853c.2202.0511.3239.1562.3239.3068 0 .1875-.1989.3409-.5114.3409-.2741 0-.446-.1179-.5056-.3523l-.3182.0796c.0781.3707.3835.5682.8295.5682.5071 0 .8523-.277.8523-.6535 0-.3039-.1904-.4957-.5796-.5909l-.3238-.0795c-.2585-.0639-.375-.1506-.375-.3182 0-.1875.1988-.3239.4659-.3239.2926 0 .4133.162.4716.3125z"/><path d="m44.1921 14h.3238v-.3352h.0398c.0739.1193.2159.3807.6364.3807.5454 0 .9261-.4375.9261-1.1307 0-.6875-.3807-1.125-.9318-1.125-.4262 0-.5568.2613-.6307.375h-.0284v-1.0739h-.3352zm.3295-1.0909c0-.4886.2159-.8182.625-.8182.4261 0 .6364.358.6364.8182 0 .4659-.2159.8352-.6364.8352-.4034 0-.625-.3409-.625-.8352z"/><path d="m47.5173 14.0455c.591 0 .9887-.4489.9887-1.125 0-.6819-.3977-1.1307-.9887-1.1307-.5909 0-.9886.4488-.9886 1.1307 0 .6761.3977 1.125.9886 1.125zm0-.3012c-.4488 0-.6534-.3863-.6534-.8238s.2046-.8296.6534-.8296c.4489 0 .6535.3921.6535.8296s-.2046.8238-.6535.8238z"/><path d="m49.9666 11.8182h-.4659v-.5227h-.3353v.5227h-.3295v.2841h.3295v1.3636c0 .3807.3068.5625.5909.5625.125 0 .2046-.0227.25-.0398l-.0681-.3011c-.0285.0057-.0739.017-.1478.017-.1477 0-.2897-.0454-.2897-.3295v-1.2727h.4659z"/><path d="m50.8529 12.6875c0-.3807.2429-.5966.5739-.5966.3153 0 .5057.1989.5057.5455v1.3636h.3352v-1.3864c0-.561-.2983-.8238-.7443-.8238-.3438 0-.5398.1434-.6421.3693h-.0284v-1.0682h-.3352v2.9091h.3352z"/><path d="m54.006 14h.3352v-2.1818h-.3352zm.1704-2.5455c.1307 0 .2387-.1022.2387-.2272s-.108-.2273-.2387-.2273c-.1306 0-.2386.1023-.2386.2273s.108.2272.2386.2272z"/><path d="m55.2904 12.6875c0-.3807.2358-.5966.5568-.5966.3111 0 .5.2031.5.5455v1.3636h.3353v-1.3864c0-.5568-.2969-.8238-.7387-.8238-.3295 0-.5341.1477-.6363.3693h-.0284v-.3409h-.3239v2.1818h.3352z"/><path d="m59.0621 14.0511c.3807 0 .5795-.2045.6477-.3466h.0171v.2955h.3352v-1.4375c0-.6932-.5284-.7727-.8068-.7727-.3296 0-.7046.1136-.875.5113l.3182.1137c.0738-.1591.2485-.3296.5681-.3296.3083 0 .4603.1634.4603.4432v.0114c0 .1619-.1648.1477-.5625.1988-.4049.0526-.8466.1421-.8466.6421 0 .4261.3295.6704.7443.6704zm.0511-.3011c-.267 0-.4602-.1193-.4602-.3523 0-.2557.233-.3352.4943-.3693.1421-.017.5227-.0568.5796-.125v.3068c0 .2728-.2159.5398-.6137.5398z"/><path d="m61.0092 12.6875c0-.3807.2358-.5966.5568-.5966.3111 0 .5.2031.5.5455v1.3636h.3352v-1.3864c0-.5568-.2969-.8238-.7386-.8238-.3296 0-.5341.1477-.6364.3693h-.0284v-.3409h-.3238v2.1818h.3352z"/><path d="m63.8377 14.0455c.4204 0 .5625-.2614.6363-.3807h.0398v.3352h.3239v-2.9091h-.3353v1.0739h-.0284c-.0738-.1137-.2045-.375-.6307-.375-.5511 0-.9318.4375-.9318 1.125 0 .6932.3807 1.1307.9262 1.1307zm.0454-.3012c-.4204 0-.6364-.3693-.6364-.8352 0-.4602.2103-.8182.6364-.8182.4091 0 .625.3296.625.8182 0 .4943-.2216.8352-.625.8352z"/><path d="m67.5095 14.0455c.5909 0 .9887-.4489.9887-1.125 0-.6819-.3978-1.1307-.9887-1.1307s-.9886.4488-.9886 1.1307c0 .6761.3977 1.125.9886 1.125zm0-.3012c-.4488 0-.6534-.3863-.6534-.8238s.2046-.8296.6534-.8296c.4489 0 .6534.3921.6534.8296s-.2045.8238-.6534.8238z"/><path d="m70.3849 13.108c0 .409-.3125.5965-.5625.5965-.2784 0-.4773-.2045-.4773-.5227v-1.3636h-.3352v1.3863c0 .5569.2954.8239.7045.8239.3296 0 .5455-.1761.6478-.3977h.0227v.3693h.3352v-2.1818h-.3352z"/><path d="m72.283 11.8182h-.4659v-.5227h-.3353v.5227h-.3295v.2841h.3295v1.3636c0 .3807.3069.5625.5909.5625.125 0 .2046-.0227.25-.0398l-.0681-.3011c-.0284.0057-.0739.017-.1478.017-.1477 0-.2897-.0454-.2897-.3295v-1.2727h.4659z"/><path d="m74.7986 14.0455c.5909 0 .9886-.4489.9886-1.125 0-.6819-.3977-1.1307-.9886-1.1307s-.9886.4488-.9886 1.1307c0 .6761.3977 1.125.9886 1.125zm0-.3012c-.4489 0-.6534-.3863-.6534-.8238s.2045-.8296.6534-.8296.6534.3921.6534.8296-.2045.8238-.6534.8238z"/><path d="m77.2705 11.8182h-.4886v-.2216c0-.2159.0909-.3296.3125-.3296.0966 0 .1534.0228.1875.0341l.0966-.2897c-.0511-.0228-.1534-.0569-.3182-.0569-.3125 0-.6136.1875-.6136.5625v.3012h-.3523v.2841h.3523v1.8977h.3352v-1.8977h.4886z"/><path d="m79.3597 14h.3295l.4773-1.6761h.0341l.4773 1.6761h.3295l.6648-2.1818h-.3523l-.4716 1.6648h-.0227l-.4602-1.6648h-.358l-.4659 1.6704h-.0227l-.4716-1.6704h-.3523z"/><path d="m82.9275 14.0455c.5909 0 .9886-.4489.9886-1.125 0-.6819-.3977-1.1307-.9886-1.1307s-.9886.4488-.9886 1.1307c0 .6761.3977 1.125.9886 1.125zm0-.3012c-.4489 0-.6534-.3863-.6534-.8238s.2045-.8296.6534-.8296.6534.3921.6534.8296-.2045.8238-.6534.8238z"/><path d="m84.4279 14h.3352v-1.3807c0-.294.2329-.5113.5511-.5113.0838 0 .1463.0156.1932.0397l.1136-.2841c-.0681-.0483-.1576-.0795-.2784-.0795-.2642 0-.49.1477-.5681.3636h-.0228v-.3295h-.3238z"/><path d="m85.963 14h.3352v-.8168l.2344-.2173.8168 1.0341h.4261l-.99-1.25.9218-.9318h-.4147l-.9546.9716h-.0398v-1.6989h-.3352z"/><path d="m.948808 19.0511c.380682 0 .579542-.2045.647732-.3466h.01704v.2955h.33523v-1.4375c0-.6932-.52841-.7727-.80682-.7727-.329546 0-.704545.1136-.875.5113l.318182.1137c.073863-.1591.248579-.3296.568178-.3296.30824 0 .46023.1634.46023.4432v.0114c0 .1619-.16477.1477-.5625.1988-.404829.0526-.84659.1421-.84659.6421 0 .4261.329545.6704.744318.6704zm.051137-.3011c-.267046 0-.460228-.1193-.460228-.3523 0-.2557.232955-.3352.494323-.3693.14204-.017.52272-.0568.57954-.125v.3068c0 .2728-.21591.5398-.613635.5398z"/><path d="m2.8959 17.6875c0-.3807.23579-.5966.55681-.5966.31108 0 .5.2031.5.5455v1.3636h.33523v-1.3864c0-.5568-.29687-.8238-.73863-.8238-.32955 0-.5341.1477-.63637.3693h-.02841v-.3409h-.32386v2.1818h.33523z"/><path d="m5.72438 19.0455c.42045 0 .5625-.2614.63636-.3807h.03977v.3352h.32387v-2.9091h-.33523v1.0739h-.02841c-.07386-.1137-.20455-.375-.63068-.375-.55114 0-.93182.4375-.93182 1.125 0 .6932.38068 1.1307.92614 1.1307zm.04545-.3012c-.42045 0-.63636-.3693-.63636-.8352 0-.4602.21022-.8182.63636-.8182.40909 0 .625.3296.625.8182 0 .4943-.22159.8352-.625.8352z"/><path d="m8.50989 19h.33523v-1.3807c0-.294.23295-.5113.55113-.5113.08381 0 .14631.0156.19318.0397l.11364-.2841c-.06818-.0483-.15767-.0795-.27841-.0795-.2642 0-.49006.1477-.56818.3636h-.02273v-.3295h-.32386z"/><path d="m10.8934 19.0455c.4432 0 .7671-.2216.8693-.5512l-.3238-.0909c-.0853.2273-.2827.3409-.5455.3409-.3935 0-.6648-.2542-.6804-.7216h1.5838v-.142c0-.8125-.4829-1.0909-.9375-1.0909-.5909 0-.98294.4659-.98294 1.1363 0 .6705.38634 1.1194 1.01704 1.1194zm-.6804-1.3125c.0227-.3395.2628-.6421.6463-.6421.3637 0 .5966.2727.5966.6421z"/><path d="m13.8522 17.3068c-.1051-.3096-.3409-.517-.7727-.517-.4602 0-.8011.2613-.8011.6307 0 .3011.1789.5028.5795.5965l.3636.0853c.2202.0511.3239.1562.3239.3068 0 .1875-.1989.3409-.5114.3409-.2741 0-.446-.1179-.5056-.3523l-.3182.0796c.0781.3707.3835.5682.8295.5682.5071 0 .8523-.277.8523-.6535 0-.3039-.1904-.4957-.5796-.5909l-.3238-.0795c-.2585-.0639-.375-.1506-.375-.3182 0-.1875.1988-.3239.4659-.3239.2926 0 .4133.162.4716.3125z"/><path d="m14.3966 19.8182h.3352v-1.1534h.0284c.0739.1193.216.3807.6364.3807.5455 0 .9261-.4375.9261-1.1307 0-.6875-.3806-1.125-.9318-1.125-.4261 0-.5568.2613-.6307.375h-.0397v-.3466h-.3239zm.3296-1.9091c0-.4886.2159-.8182.625-.8182.4261 0 .6363.358.6363.8182 0 .4659-.2159.8352-.6363.8352-.4035 0-.625-.3409-.625-.8352z"/><path d="m17.7489 19.0455c.4432 0 .767-.2216.8693-.5512l-.3239-.0909c-.0852.2273-.2826.3409-.5454.3409-.3935 0-.6648-.2542-.6804-.7216h1.5838v-.142c0-.8125-.483-1.0909-.9375-1.0909-.5909 0-.983.4659-.983 1.1363 0 .6705.3864 1.1194 1.0171 1.1194zm-.6804-1.3125c.0227-.3395.2628-.6421.6463-.6421.3636 0 .5966.2727.5966.6421z"/><path d="m20.0486 19.0455c.4829 0 .8011-.2955.8579-.6819h-.3352c-.0625.2387-.2613.3807-.5227.3807-.3977 0-.6534-.3295-.6534-.8352 0-.4943.2613-.8182.6534-.8182.2954 0 .4716.1818.5227.3807h.3352c-.0568-.4091-.4034-.6818-.8636-.6818-.5909 0-.9829.4659-.9829 1.1307 0 .6534.375 1.125.9886 1.125z"/><path d="m22.3455 16.8182h-.4659v-.5227h-.3353v.5227h-.3295v.2841h.3295v1.3636c0 .3807.3069.5625.5909.5625.125 0 .2046-.0227.25-.0398l-.0681-.3011c-.0284.0057-.0739.017-.1478.017-.1477 0-.2897-.0454-.2897-.3295v-1.2727h.4659z"/><path d="m24.9463 16.8182h-.4886v-.2216c0-.2159.0909-.3296.3125-.3296.0966 0 .1534.0228.1875.0341l.0966-.2897c-.0512-.0228-.1534-.0569-.3182-.0569-.3125 0-.6136.1875-.6136.5625v.3012h-.3523v.2841h.3523v1.8977h.3352v-1.8977h.4886z"/><path d="m26.2127 19.0455c.5909 0 .9886-.4489.9886-1.125 0-.6819-.3977-1.1307-.9886-1.1307-.591 0-.9887.4488-.9887 1.1307 0 .6761.3977 1.125.9887 1.125zm0-.3012c-.4489 0-.6535-.3863-.6535-.8238s.2046-.8296.6535-.8296c.4488 0 .6534.3921.6534.8296s-.2046.8238-.6534.8238z"/><path d="m27.713 19h.3352v-1.3807c0-.294.233-.5113.5512-.5113.0838 0 .1463.0156.1932.0397l.1136-.2841c-.0682-.0483-.1577-.0795-.2784-.0795-.2642 0-.4901.1477-.5682.3636h-.0227v-.3295h-.3239z"/><path d="m31.2879 19.0455c.4432 0 .7671-.2216.8694-.5512l-.3239-.0909c-.0852.2273-.2827.3409-.5455.3409-.3934 0-.6647-.2542-.6804-.7216h1.5838v-.142c0-.8125-.4829-1.0909-.9374-1.0909-.591 0-.983.4659-.983 1.1363 0 .6705.3864 1.1194 1.017 1.1194zm-.6804-1.3125c.0228-.3395.2628-.6421.6464-.6421.3636 0 .5965.2727.5965.6421z"/><path d="m33.3433 19.0511c.3807 0 .5796-.2045.6478-.3466h.017v.2955h.3352v-1.4375c0-.6932-.5284-.7727-.8068-.7727-.3295 0-.7045.1136-.875.5113l.3182.1137c.0739-.1591.2486-.3296.5682-.3296.3082 0 .4602.1634.4602.4432v.0114c0 .1619-.1648.1477-.5625.1988-.4048.0526-.8466.1421-.8466.6421 0 .4261.3296.6704.7443.6704zm.0512-.3011c-.2671 0-.4603-.1193-.4603-.3523 0-.2557.233-.3352.4944-.3693.142-.017.5227-.0568.5795-.125v.3068c0 .2728-.2159.5398-.6136.5398z"/><path d="m35.8416 19.0455c.4829 0 .8011-.2955.8579-.6819h-.3352c-.0625.2387-.2614.3807-.5227.3807-.3978 0-.6534-.3295-.6534-.8352 0-.4943.2613-.8182.6534-.8182.2954 0 .4716.1818.5227.3807h.3352c-.0568-.4091-.4034-.6818-.8636-.6818-.5909 0-.983.4659-.983 1.1307 0 .6534.375 1.125.9887 1.125z"/><path d="m37.5248 17.6875c0-.3807.2429-.5966.5739-.5966.3153 0 .5056.1989.5056.5455v1.3636h.3353v-1.3864c0-.561-.2983-.8238-.7443-.8238-.3438 0-.5398.1434-.6421.3693h-.0284v-1.0682h-.3352v2.9091h.3352z"/><path d="m41.5642 19.0455c.5909 0 .9887-.4489.9887-1.125 0-.6819-.3978-1.1307-.9887-1.1307s-.9886.4488-.9886 1.1307c0 .6761.3977 1.125.9886 1.125zm0-.3012c-.4488 0-.6534-.3863-.6534-.8238s.2046-.8296.6534-.8296c.4489 0 .6534.3921.6534.8296s-.2045.8238-.6534.8238z"/><path d="m44.0134 16.8182h-.4659v-.5227h-.3352v.5227h-.3295v.2841h.3295v1.3636c0 .3807.3068.5625.5909.5625.125 0 .2046-.0227.25-.0398l-.0682-.3011c-.0284.0057-.0738.017-.1477.017-.1477 0-.2898-.0454-.2898-.3295v-1.2727h.4659z"/><path d="m44.8998 17.6875c0-.3807.2429-.5966.5739-.5966.3153 0 .5056.1989.5056.5455v1.3636h.3353v-1.3864c0-.561-.2983-.8238-.7443-.8238-.3438 0-.5398.1434-.6421.3693h-.0284v-1.0682h-.3352v2.9091h.3352z"/><path d="m47.8426 19.0455c.4432 0 .7671-.2216.8693-.5512l-.3238-.0909c-.0852.2273-.2827.3409-.5455.3409-.3934 0-.6647-.2542-.6804-.7216h1.5838v-.142c0-.8125-.4829-1.0909-.9375-1.0909-.5909 0-.9829.4659-.9829 1.1363 0 .6705.3863 1.1194 1.017 1.1194zm-.6804-1.3125c.0228-.3395.2628-.6421.6463-.6421.3637 0 .5966.2727.5966.6421z"/><path d="m49.256 19h.3352v-1.3807c0-.294.233-.5113.5511-.5113.0838 0 .1464.0156.1932.0397l.1137-.2841c-.0682-.0483-.1577-.0795-.2784-.0795-.2643 0-.4901.1477-.5682.3636h-.0228v-.3295h-.3238z"/><path d="m52.4105 19h.3295l.4773-1.6761h.0341l.4772 1.6761h.3296l.6648-2.1818h-.3523l-.4716 1.6648h-.0227l-.4603-1.6648h-.3579l-.4659 1.6704h-.0228l-.4715-1.6704h-.3523z"/><path d="m55.1661 19h.3353v-2.1818h-.3353zm.1705-2.5455c.1307 0 .2386-.1022.2386-.2272s-.1079-.2273-.2386-.2273-.2386.1023-.2386.2273.1079.2272.2386.2272z"/><path d="m56.4506 16.0909h-.3352v2.9091h.3352z"/><path d="m57.3998 16.0909h-.3352v2.9091h.3352z"/><path d="m59.9627 19.0455c.4204 0 .5625-.2614.6363-.3807h.0398v.3352h.3239v-2.9091h-.3353v1.0739h-.0284c-.0738-.1137-.2045-.375-.6307-.375-.5511 0-.9318.4375-.9318 1.125 0 .6932.3807 1.1307.9262 1.1307zm.0454-.3012c-.4204 0-.6364-.3693-.6364-.8352 0-.4602.2103-.8182.6364-.8182.4091 0 .625.3296.625.8182 0 .4943-.2216.8352-.625.8352z"/><path d="m61.6232 19h.3352v-1.3807c0-.2954.2329-.5113.5511-.5113.0895 0 .1818.017.2046.0227v-.3409c-.0384-.0029-.1264-.0057-.1762-.0057-.2613 0-.4886.1477-.5681.3636h-.0228v-.3295h-.3238z"/><path d="m63.1115 19h.3352v-2.1818h-.3352zm.1704-2.5455c.1307 0 .2386-.1022.2386-.2272s-.1079-.2273-.2386-.2273-.2386.1023-.2386.2273.1079.2272.2386.2272z"/><path d="m65.8448 16.8182h-.3637l-.6022 1.7386h-.0228l-.6022-1.7386h-.3637l.8068 2.1818h.3409z"/><path d="m67.1239 19.0455c.4432 0 .767-.2216.8693-.5512l-.3239-.0909c-.0852.2273-.2826.3409-.5454.3409-.3935 0-.6648-.2542-.6804-.7216h1.5838v-.142c0-.8125-.483-1.0909-.9375-1.0909-.5909 0-.983.4659-.983 1.1363 0 .6705.3864 1.1194 1.0171 1.1194zm-.6804-1.3125c.0227-.3395.2628-.6421.6463-.6421.3636 0 .5966.2727.5966.6421z"/><path d="m70.3043 19.0511c.3807 0 .5795-.2045.6477-.3466h.0171v.2955h.3352v-1.4375c0-.6932-.5284-.7727-.8068-.7727-.3296 0-.7046.1136-.875.5113l.3181.1137c.0739-.1591.2486-.3296.5682-.3296.3083 0 .4603.1634.4603.4432v.0114c0 .1619-.1648.1477-.5625.1988-.4049.0526-.8466.1421-.8466.6421 0 .4261.3295.6704.7443.6704zm.0511-.3011c-.267 0-.4602-.1193-.4602-.3523 0-.2557.2329-.3352.4943-.3693.142-.017.5227-.0568.5796-.125v.3068c0 .2728-.216.5398-.6137.5398z"/><path d="m74.5866 17.3068c-.1051-.3096-.3409-.517-.7727-.517-.4603 0-.8012.2613-.8012.6307 0 .3011.179.5028.5796.5965l.3636.0853c.2202.0511.3239.1562.3239.3068 0 .1875-.1989.3409-.5114.3409-.2741 0-.446-.1179-.5057-.3523l-.3182.0796c.0782.3707.3836.5682.8296.5682.5071 0 .8523-.277.8523-.6535 0-.3039-.1904-.4957-.5796-.5909l-.3238-.0795c-.2586-.0639-.375-.1506-.375-.3182 0-.1875.1988-.3239.4659-.3239.2926 0 .4133.162.4716.3125z"/><path d="m76.0458 19.0455c.4431 0 .767-.2216.8693-.5512l-.3239-.0909c-.0852.2273-.2827.3409-.5454.3409-.3935 0-.6648-.2542-.6804-.7216h1.5838v-.142c0-.8125-.483-1.0909-.9375-1.0909-.5909 0-.983.4659-.983 1.1363 0 .6705.3864 1.1194 1.0171 1.1194zm-.6804-1.3125c.0227-.3395.2627-.6421.6463-.6421.3636 0 .5966.2727.5966.6421z"/><path d="m77.7943 17.6875c0-.3807.2358-.5966.5569-.5966.311 0 .5.2031.5.5455v1.3636h.3352v-1.3864c0-.5568-.2969-.8238-.7387-.8238-.3295 0-.534.1477-.6363.3693h-.0284v-.3409h-.3239v2.1818h.3352z"/><path d="m81.3444 17.3068c-.1051-.3096-.3409-.517-.7727-.517-.4602 0-.8012.2613-.8012.6307 0 .3011.179.5028.5796.5965l.3636.0853c.2202.0511.3239.1562.3239.3068 0 .1875-.1989.3409-.5114.3409-.2741 0-.446-.1179-.5057-.3523l-.3181.0796c.0781.3707.3835.5682.8295.5682.5071 0 .8523-.277.8523-.6535 0-.3039-.1904-.4957-.5796-.5909l-.3238-.0795c-.2585-.0639-.375-.1506-.375-.3182 0-.1875.1988-.3239.4659-.3239.2926 0 .4133.162.4716.3125z"/><path d="m82.8036 19.0455c.4431 0 .767-.2216.8693-.5512l-.3239-.0909c-.0852.2273-.2827.3409-.5454.3409-.3935 0-.6648-.2542-.6804-.7216h1.5838v-.142c0-.8125-.483-1.0909-.9375-1.0909-.5909 0-.983.4659-.983 1.1363 0 .6705.3864 1.1194 1.0171 1.1194zm-.6804-1.3125c.0227-.3395.2628-.6421.6463-.6421.3636 0 .5966.2727.5966.6421z"/><path d="m86.2283 19.0455c.5909 0 .9886-.4489.9886-1.125 0-.6819-.3977-1.1307-.9886-1.1307s-.9887.4488-.9887 1.1307c0 .6761.3978 1.125.9887 1.125zm0-.3012c-.4489 0-.6534-.3863-.6534-.8238s.2045-.8296.6534-.8296.6534.3921.6534.8296-.2045.8238-.6534.8238z"/><path d="m88.7002 16.8182h-.4886v-.2216c0-.2159.0909-.3296.3125-.3296.0966 0 .1534.0228.1875.0341l.0966-.2897c-.0512-.0228-.1534-.0569-.3182-.0569-.3125 0-.6136.1875-.6136.5625v.3012h-.3523v.2841h.3523v1.8977h.3352v-1.8977h.4886z"/><path d="m1.19313 24.0455c.48295 0 .80113-.2955.85795-.6819h-.33523c-.0625.2387-.26136.3807-.52272.3807-.397731 0-.653413-.3295-.653413-.8352 0-.4943.261364-.8182.653413-.8182.29545 0 .47159.1818.52272.3807h.33523c-.05682-.4091-.40341-.6818-.86364-.6818-.590905 0-.98295.4659-.98295 1.1307 0 .6534.375 1.125.98864 1.125z"/><path d="m3.4275 24.0455c.59091 0 .98864-.4489.98864-1.125 0-.6819-.39773-1.1307-.98864-1.1307s-.98864.4488-.98864 1.1307c0 .6761.39773 1.125.98864 1.125zm0-.3012c-.44886 0-.65341-.3863-.65341-.8238s.20455-.8296.65341-.8296c.44887 0 .65341.3921.65341.8296s-.20454.8238-.65341.8238z"/><path d="m5.26308 22.6875c0-.3807.2358-.5966.55682-.5966.31108 0 .5.2031.5.5455v1.3636h.33523v-1.3864c0-.5568-.29688-.8238-.73864-.8238-.32954 0-.53409.1477-.63636.3693h-.02841v-.3409h-.32386v2.1818h.33522z"/><path d="m7.60293 22.6875c0-.3807.23579-.5966.55682-.5966.31108 0 .5.2031.5.5455v1.3636h.33522v-1.3864c0-.5568-.29687-.8238-.73863-.8238-.32955 0-.53409.1477-.63637.3693h-.02841v-.3409h-.32386v2.1818h.33523z"/><path d="m10.5223 24.0455c.4432 0 .7671-.2216.8693-.5512l-.3238-.0909c-.0853.2273-.2827.3409-.5455.3409-.3934 0-.66476-.2542-.68038-.7216h1.58378v-.142c0-.8125-.4829-1.0909-.9375-1.0909-.59088 0-.98293.4659-.98293 1.1363 0 .6705.38637 1.1194 1.01703 1.1194zm-.68038-1.3125c.02273-.3395.26278-.6421.64628-.6421.3637 0 .5966.2727.5966.6421z"/><path d="m12.822 24.0455c.483 0 .8012-.2955.858-.6819h-.3352c-.0625.2387-.2614.3807-.5228.3807-.3977 0-.6534-.3295-.6534-.8352 0-.4943.2614-.8182.6534-.8182.2955 0 .4716.1818.5228.3807h.3352c-.0568-.4091-.4034-.6818-.8636-.6818-.591 0-.983.4659-.983 1.1307 0 .6534.375 1.125.9886 1.125z"/><path d="m15.1189 21.8182h-.4659v-.5227h-.3352v.5227h-.3296v.2841h.3296v1.3636c0 .3807.3068.5625.5909.5625.125 0 .2045-.0227.25-.0398l-.0682-.3011c-.0284.0057-.0739.017-.1477.017-.1478 0-.2898-.0454-.2898-.3295v-1.2727h.4659z"/><path d="m15.6232 24h.3352v-2.1818h-.3352zm.1704-2.5455c.1307 0 .2387-.1022.2387-.2272s-.108-.2273-.2387-.2273-.2386.1023-.2386.2273.1079.2272.2386.2272z"/><path d="m17.4588 24.0455c.5909 0 .9886-.4489.9886-1.125 0-.6819-.3977-1.1307-.9886-1.1307-.591 0-.9887.4488-.9887 1.1307 0 .6761.3977 1.125.9887 1.125zm0-.3012c-.4489 0-.6535-.3863-.6535-.8238s.2046-.8296.6535-.8296c.4488 0 .6534.3921.6534.8296s-.2046.8238-.6534.8238z"/><path d="m19.2943 22.6875c0-.3807.2358-.5966.5569-.5966.311 0 .5.2031.5.5455v1.3636h.3352v-1.3864c0-.5568-.2969-.8238-.7387-.8238-.3295 0-.534.1477-.6363.3693h-.0284v-.3409h-.3239v2.1818h.3352z"/><path d="m23.066 24.0511c.3807 0 .5795-.2045.6477-.3466h.0171v.2955h.3352v-1.4375c0-.6932-.5284-.7727-.8068-.7727-.3296 0-.7046.1136-.875.5113l.3182.1137c.0738-.1591.2485-.3296.5681-.3296.3083 0 .4603.1634.4603.4432v.0114c0 .1619-.1648.1477-.5625.1988-.4049.0526-.8466.1421-.8466.6421 0 .4261.3295.6704.7443.6704zm.0511-.3011c-.267 0-.4602-.1193-.4602-.3523 0-.2557.233-.3352.4943-.3693.1421-.017.5228-.0568.5796-.125v.3068c0 .2728-.2159.5398-.6137.5398z"/><path d="m25.0131 22.6875c0-.3807.2358-.5966.5568-.5966.3111 0 .5.2031.5.5455v1.3636h.3352v-1.3864c0-.5568-.2968-.8238-.7386-.8238-.3296 0-.5341.1477-.6364.3693h-.0284v-.3409h-.3238v2.1818h.3352z"/><path d="m27.8416 24.0455c.4204 0 .5625-.2614.6363-.3807h.0398v.3352h.3239v-2.9091h-.3353v1.0739h-.0284c-.0738-.1137-.2045-.375-.6307-.375-.5511 0-.9318.4375-.9318 1.125 0 .6932.3807 1.1307.9262 1.1307zm.0454-.3012c-.4204 0-.6363-.3693-.6363-.8352 0-.4602.2102-.8182.6363-.8182.4091 0 .625.3296.625.8182 0 .4943-.2216.8352-.625.8352z"/><path d="m30.6725 24h.3239v-.3352h.0398c.0738.1193.2159.3807.6363.3807.5455 0 .9262-.4375.9262-1.1307 0-.6875-.3807-1.125-.9319-1.125-.4261 0-.5568.2613-.6306.375h-.0284v-1.0739h-.3353zm.3296-1.0909c0-.4886.2159-.8182.625-.8182.4261 0 .6363.358.6363.8182 0 .4659-.2159.8352-.6363.8352-.4034 0-.625-.3409-.625-.8352z"/><path d="m34.0262 24.0455c.4432 0 .7671-.2216.8693-.5512l-.3238-.0909c-.0853.2273-.2827.3409-.5455.3409-.3934 0-.6647-.2542-.6804-.7216h1.5838v-.142c0-.8125-.4829-1.0909-.9375-1.0909-.5909 0-.9829.4659-.9829 1.1363 0 .6705.3863 1.1194 1.017 1.1194zm-.6804-1.3125c.0228-.3395.2628-.6421.6463-.6421.3637 0 .5966.2727.5966.6421z"/><path d="m35.7748 21.0909h-.3352v2.9091h.3352z"/><path d="m37.2752 24.0455c.5909 0 .9886-.4489.9886-1.125 0-.6819-.3977-1.1307-.9886-1.1307-.591 0-.9887.4488-.9887 1.1307 0 .6761.3977 1.125.9887 1.125zm0-.3012c-.4489 0-.6535-.3863-.6535-.8238s.2046-.8296.6535-.8296c.4488 0 .6534.3921.6534.8296s-.2046.8238-.6534.8238z"/><path d="m39.1107 22.6875c0-.3807.2358-.5966.5569-.5966.311 0 .5.2031.5.5455v1.3636h.3352v-1.3864c0-.5568-.2969-.8238-.7387-.8238-.3295 0-.534.1477-.6363.3693h-.0284v-.3409h-.3239v2.1818h.3352z"/><path d="m41.996 24.8636c.5228 0 .9432-.2386.9432-.8011v-2.2443h-.3238v.3466h-.0341c-.0739-.1137-.2103-.375-.6364-.375-.5511 0-.9318.4375-.9318 1.1079 0 .6818.3977 1.0682.9261 1.0682.4262 0 .5625-.25.6364-.3693h.0284v.4432c0 .3636-.2557.5284-.608.5284-.3963 0-.5355-.2088-.625-.3296l-.267.1875c.1364.2287.4048.4375.892.4375zm-.0113-1.1988c-.4205 0-.6364-.3182-.6364-.7728 0-.4431.2102-.8011.6364-.8011.4091 0 .625.3296.625.8011 0 .483-.2216.7728-.625.7728z"/><path d="m43.5529 24h.3352v-2.1818h-.3352zm.1704-2.5455c.1307 0 .2386-.1022.2386-.2272s-.1079-.2273-.2386-.2273-.2386.1023-.2386.2273.1079.2272.2386.2272z"/><path d="m44.8373 22.6875c0-.3807.2358-.5966.5568-.5966.3111 0 .5.2031.5.5455v1.3636h.3352v-1.3864c0-.5568-.2968-.8238-.7386-.8238-.3295 0-.5341.1477-.6364.3693h-.0284v-.3409h-.3238v2.1818h.3352z"/><path d="m47.7226 24.8636c.5227 0 .9432-.2386.9432-.8011v-2.2443h-.3239v.3466h-.0341c-.0738-.1137-.2102-.375-.6363-.375-.5512 0-.9319.4375-.9319 1.1079 0 .6818.3978 1.0682.9262 1.0682.4261 0 .5625-.25.6363-.3693h.0285v.4432c0 .3636-.2557.5284-.608.5284-.3963 0-.5355-.2088-.625-.3296l-.267.1875c.1363.2287.4048.4375.892.4375zm-.0114-1.1988c-.4204 0-.6363-.3182-.6363-.7728 0-.4431.2102-.8011.6363-.8011.4091 0 .625.3296.625.8011 0 .483-.2216.7728-.625.7728z"/><path d="m49.5237 24.0227c.1407 0 .2557-.115.2557-.2557 0-.1406-.115-.2556-.2557-.2556-.1406 0-.2556.115-.2556.2556 0 .1407.115.2557.2556.2557z"/><path d="m.0880127 31.0909 1.0582373 1.8239v1.0852h.52557v-1.0852l1.05824-1.8239h-.59517l-.71165 1.2869h-.02841l-.711647-1.2869z"/><path d="m3.62601 34.0426c.6392 0 1.04545-.4503 1.04545-1.125 0-.6761-.40625-1.1278-1.04545-1.1278s-1.04545.4517-1.04545 1.1278c0 .6747.40625 1.125 1.04545 1.125zm.00284-.4119c-.35369 0-.52699-.3154-.52699-.7145s.1733-.7188.52699-.7188c.34801 0 .52131.3197.52131.7188s-.1733.7145-.52131.7145z"/><path d="m6.49852 33.0824c0 .3324-.23721.4971-.46448.4971-.24716 0-.41194-.1747-.41194-.4517v-1.3096h-.5142v1.3892c0 .5241.29829.821.72727.821.32671 0 .55682-.1719.65625-.4162h.02273v.3878h.49858v-2.1818h-.51421z"/><path d="m7.54149 34h.51421v-1.2827c0-.2755.20738-.4701.47585-.4701.08381 0 .14773.0198.20312.0454l.1591-.4261c-.07671-.0483-.17472-.0796-.29262-.0796-.25142 0-.45881.1421-.53835.3949h-.02273v-.3636h-.49858z"/><path d="m11.1416 34.0426c.5483 0 .8978-.3253.9347-.7883h-.4915c-.044.2343-.2131.3693-.4389.3693-.321 0-.5284-.2685-.5284-.7145 0-.4403.2116-.7046.5284-.7046.2472 0 .3991.1591.4389.3694h.4915c-.0355-.473-.4048-.7841-.9375-.7841-.6392 0-1.0426.4616-1.0426 1.1278 0 .6605.3934 1.125 1.0454 1.125z"/><path d="m13.1264 34.044c.3423 0 .5468-.1605.6406-.3437h.017v.2997h.4944v-1.4602c0-.5767-.4702-.75-.8864-.75-.4588 0-.8111.2045-.9247.6022l.4801.0682c.0511-.1491.196-.277.4474-.277.2387 0 .3693.1222.3693.3367v.0085c0 .1477-.1548.1548-.5397.196-.4233.0455-.8281.1719-.8281.6634 0 .429.3139.6562.7301.6562zm.1335-.3778c-.2145 0-.3679-.098-.3679-.2869 0-.1975.1719-.2799.402-.3125.1349-.0185.4048-.0526.4716-.1066v.2571c0 .2429-.1961.4489-.5057.4489z"/><path d="m14.7954 34h.5142v-1.2827c0-.2755.2074-.4701.4759-.4701.0838 0 .1477.0198.2031.0454l.1591-.4261c-.0767-.0483-.1747-.0796-.2926-.0796-.2515 0-.4588.1421-.5384.3949h-.0227v-.3636h-.4986z"/><path d="m17.3277 34.0426c.5085 0 .858-.2486.9489-.6278l-.4801-.054c-.0696.1847-.2401.2812-.4617.2812-.3324 0-.5525-.2187-.5568-.5923h1.5199v-.1577c0-.7656-.4602-1.1022-.9972-1.1022-.625 0-1.0326.4588-1.0326 1.1321 0 .6846.4019 1.1207 1.0596 1.1207zm-.5483-1.3395c.0156-.2784.2216-.5128.5284-.5128.2955 0 .4943.216.4972.5128z"/><path d="m19.6988 34.0426c.5085 0 .858-.2486.9489-.6278l-.4801-.054c-.0696.1847-.2401.2812-.4617.2812-.3324 0-.5525-.2187-.5568-.5923h1.5199v-.1577c0-.7656-.4602-1.1022-.9972-1.1022-.625 0-1.0327.4588-1.0327 1.1321 0 .6846.402 1.1207 1.0597 1.1207zm-.5483-1.3395c.0156-.2784.2216-.5128.5284-.5128.2955 0 .4943.216.4972.5128z"/><path d="m21.104 34h.5142v-1.2827c0-.2755.2074-.4701.4758-.4701.0839 0 .1478.0198.2032.0454l.1591-.4261c-.0767-.0483-.1747-.0796-.2926-.0796-.2515 0-.4589.1421-.5384.3949h-.0227v-.3636h-.4986z"/><path d="m25.621 32.3892h-2v.3125h2z"/><path d="m27.2176 34 .2926-.8239h1.1762l.2926.8239h.3693l-1.0682-2.9091h-.3636l-1.0682 2.9091zm.4034-1.1364.4659-1.3125h.0228l.4659 1.3125z"/><path d="m30.881 31.8182v2.3409c0 .2216-.0909.3466-.2955.3466h-.0625v.3125h.0682c.4205 0 .625-.2557.625-.6591v-2.3409zm.1648-.3637c.1306 0 .2386-.1022.2386-.2272s-.108-.2273-.2386-.2273c-.1307 0-.2387.1023-.2387.2273s.108.2272.2387.2272z"/><path d="m32.7166 34.0455c.5909 0 .9886-.4489.9886-1.125 0-.6819-.3977-1.1307-.9886-1.1307s-.9887.4488-.9887 1.1307c0 .6761.3978 1.125.9887 1.125zm0-.3012c-.4489 0-.6534-.3863-.6534-.8238s.2045-.8296.6534-.8296c.4488 0 .6534.3921.6534.8296s-.2046.8238-.6534.8238z"/><path d="m34.2624 34h.3238v-.3352h.0398c.0739.1193.2159.3807.6364.3807.5454 0 .9261-.4375.9261-1.1307 0-.6875-.3807-1.125-.9318-1.125-.4261 0-.5568.2613-.6307.375h-.0284v-1.0739h-.3352zm.3295-1.0909c0-.4886.2159-.8182.625-.8182.4262 0 .6364.358.6364.8182 0 .4659-.2159.8352-.6364.8352-.4034 0-.625-.3409-.625-.8352z"/><path d="m38.7752 31.8182h-.466v-.5227h-.3352v.5227h-.3295v.2841h.3295v1.3636c0 .3807.3068.5625.5909.5625.125 0 .2046-.0227.25-.0398l-.0682-.3011c-.0284.0057-.0738.017-.1477.017-.1477 0-.2898-.0454-.2898-.3295v-1.2727h.466z"/><path d="m39.6615 32.6875c0-.3807.2429-.5966.5739-.5966.3153 0 .5057.1989.5057.5455v1.3636h.3352v-1.3864c0-.561-.2983-.8238-.7443-.8238-.3438 0-.5398.1434-.6421.3693h-.0284v-1.0682h-.3352v2.9091h.3352z"/><path d="m42.3316 34.0511c.3807 0 .5796-.2045.6477-.3466h.0171v.2955h.3352v-1.4375c0-.6932-.5284-.7727-.8068-.7727-.3295 0-.7045.1136-.875.5113l.3182.1137c.0738-.1591.2486-.3296.5682-.3296.3082 0 .4602.1634.4602.4432v.0114c0 .1619-.1648.1477-.5625.1988-.4048.0526-.8466.1421-.8466.6421 0 .4261.3295.6704.7443.6704zm.0512-.3011c-.2671 0-.4603-.1193-.4603-.3523 0-.2557.233-.3352.4943-.3693.1421-.017.5228-.0568.5796-.125v.3068c0 .2728-.2159.5398-.6136.5398z"/><path d="m44.8923 31.8182h-.4659v-.5227h-.3352v.5227h-.3295v.2841h.3295v1.3636c0 .3807.3068.5625.5909.5625.125 0 .2046-.0227.25-.0398l-.0682-.3011c-.0284.0057-.0738.017-.1477.017-.1477 0-.2898-.0454-.2898-.3295v-1.2727h.4659z"/><path d="m47.4364 34.0455c.4432 0 .767-.2216.8693-.5512l-.3239-.0909c-.0852.2273-.2826.3409-.5454.3409-.3935 0-.6648-.2542-.6804-.7216h1.5838v-.142c0-.8125-.483-1.0909-.9375-1.0909-.5909 0-.983.4659-.983 1.1363 0 .6705.3864 1.1194 1.0171 1.1194zm-.6804-1.3125c.0227-.3395.2628-.6421.6463-.6421.3636 0 .5966.2727.5966.6421z"/><path d="m49.185 32.6875c0-.3807.2358-.5966.5568-.5966.3111 0 .5.2031.5.5455v1.3636h.3352v-1.3864c0-.5568-.2969-.8238-.7386-.8238-.3296 0-.5341.1477-.6364.3693h-.0284v-.3409h-.3239v2.1818h.3353z"/><path d="m51.8316 34.0511c.3807 0 .5796-.2045.6477-.3466h.0171v.2955h.3352v-1.4375c0-.6932-.5284-.7727-.8068-.7727-.3295 0-.7045.1136-.875.5113l.3182.1137c.0738-.1591.2486-.3296.5682-.3296.3082 0 .4602.1634.4602.4432v.0114c0 .1619-.1648.1477-.5625.1988-.4048.0526-.8466.1421-.8466.6421 0 .4261.3295.6704.7443.6704zm.0512-.3011c-.2671 0-.4603-.1193-.4603-.3523 0-.2557.233-.3352.4943-.3693.1421-.017.5228-.0568.5796-.125v.3068c0 .2728-.2159.5398-.6136.5398z"/><path d="m53.4889 34h.3239v-.3352h.0398c.0738.1193.2159.3807.6363.3807.5455 0 .9262-.4375.9262-1.1307 0-.6875-.3807-1.125-.9318-1.125-.4262 0-.5569.2613-.6307.375h-.0284v-1.0739h-.3353zm.3296-1.0909c0-.4886.2159-.8182.625-.8182.4261 0 .6363.358.6363.8182 0 .4659-.2159.8352-.6363.8352-.4034 0-.625-.3409-.625-.8352z"/><path d="m56.2631 31.0909h-.3352v2.9091h.3352z"/><path d="m57.7918 34.0455c.4432 0 .7671-.2216.8694-.5512l-.3239-.0909c-.0852.2273-.2827.3409-.5455.3409-.3934 0-.6647-.2542-.6803-.7216h1.5838v-.142c0-.8125-.483-1.0909-.9375-1.0909-.591 0-.983.4659-.983 1.1363 0 .6705.3864 1.1194 1.017 1.1194zm-.6803-1.3125c.0227-.3395.2627-.6421.6463-.6421.3636 0 .5965.2727.5965.6421z"/><path d="m60.7507 32.3068c-.1052-.3096-.341-.517-.7728-.517-.4602 0-.8011.2613-.8011.6307 0 .3011.179.5028.5795.5965l.3637.0853c.2201.0511.3238.1562.3238.3068 0 .1875-.1988.3409-.5113.3409-.2742 0-.4461-.1179-.5057-.3523l-.3182.0796c.0781.3707.3835.5682.8296.5682.5071 0 .8522-.277.8522-.6535 0-.3039-.1903-.4957-.5795-.5909l-.3239-.0795c-.2585-.0639-.375-.1506-.375-.3182 0-.1875.1989-.3239.4659-.3239.2926 0 .4134.162.4716.3125z"/><path d="m62.6246 34.8466c.3068 0 .517-.1591.642-.4943l.9375-2.5341h-.3636l-.6023 1.7386h-.0227l-.6023-1.7386h-.3636l.8068 2.1932-.0739.2045c-.1179.3267-.2727.358-.517.2955l-.0852.2954c.0341.0171.1307.0398.2443.0398z"/><path d="m65.4548 34.0455c.591 0 .9887-.4489.9887-1.125 0-.6819-.3977-1.1307-.9887-1.1307-.5909 0-.9886.4488-.9886 1.1307 0 .6761.3977 1.125.9886 1.125zm0-.3012c-.4488 0-.6534-.3863-.6534-.8238s.2046-.8296.6534-.8296c.4489 0 .6535.3921.6535.8296s-.2046.8238-.6535.8238z"/><path d="m68.3302 33.108c0 .4091-.3125.5965-.5625.5965-.2784 0-.4773-.2045-.4773-.5227v-1.3636h-.3352v1.3863c0 .5569.2955.8239.7045.8239.3296 0 .5455-.1761.6478-.3977h.0227v.3693h.3352v-2.1818h-.3352z"/><path d="m71.3533 31.8182h-.4659v-.5227h-.3353v.5227h-.3295v.2841h.3295v1.3636c0 .3807.3069.5625.591.5625.125 0 .2045-.0227.25-.0398l-.0682-.3011c-.0284.0057-.0739.017-.1478.017-.1477 0-.2897-.0454-.2897-.3295v-1.2727h.4659z"/><path d="m72.7205 34.0455c.5909 0 .9886-.4489.9886-1.125 0-.6819-.3977-1.1307-.9886-1.1307s-.9887.4488-.9887 1.1307c0 .6761.3978 1.125.9887 1.125zm0-.3012c-.4489 0-.6534-.3863-.6534-.8238s.2045-.8296.6534-.8296c.4488 0 .6534.3921.6534.8296s-.2046.8238-.6534.8238z"/><path d="m76.7208 33.108c0 .4091-.3125.5965-.5625.5965-.2784 0-.4772-.2045-.4772-.5227v-1.3636h-.3353v1.3863c0 .5569.2955.8239.7046.8239.3295 0 .5454-.1761.6477-.3977h.0227v.3693h.3353v-2.1818h-.3353z"/><path d="m79.2155 32.3068c-.1051-.3096-.3409-.517-.7727-.517-.4603 0-.8012.2613-.8012.6307 0 .3011.179.5028.5796.5965l.3636.0853c.2202.0511.3239.1562.3239.3068 0 .1875-.1989.3409-.5114.3409-.2741 0-.446-.1179-.5057-.3523l-.3181.0796c.0781.3707.3835.5682.8295.5682.5071 0 .8523-.277.8523-.6535 0-.3039-.1904-.4957-.5796-.5909l-.3238-.0795c-.2586-.0639-.375-.1506-.375-.3182 0-.1875.1988-.3239.4659-.3239.2926 0 .4133.162.4716.3125z"/><path d="m80.6747 34.0455c.4431 0 .767-.2216.8693-.5512l-.3239-.0909c-.0852.2273-.2827.3409-.5454.3409-.3935 0-.6648-.2542-.6804-.7216h1.5838v-.142c0-.8125-.483-1.0909-.9375-1.0909-.5909 0-.983.4659-.983 1.1363 0 .6705.3864 1.1194 1.0171 1.1194zm-.6804-1.3125c.0227-.3395.2627-.6421.6463-.6421.3636 0 .5966.2727.5966.6421z"/><path d="m83.4176 34.8466c.3068 0 .517-.1591.642-.4943l.9375-2.5341h-.3636l-.6023 1.7386h-.0227l-.6023-1.7386h-.3636l.8068 2.1932-.0739.2045c-.1179.3267-.2727.358-.517.2955l-.0853.2954c.0341.0171.1307.0398.2444.0398z"/><path d="m86.2478 34.0455c.5909 0 .9887-.4489.9887-1.125 0-.6819-.3978-1.1307-.9887-1.1307s-.9886.4488-.9886 1.1307c0 .6761.3977 1.125.9886 1.125zm0-.3012c-.4488 0-.6534-.3863-.6534-.8238s.2046-.8296.6534-.8296c.4489 0 .6534.3921.6534.8296s-.2045.8238-.6534.8238z"/><path d="m89.1232 33.108c0 .4091-.3125.5965-.5625.5965-.2784 0-.4773-.2045-.4773-.5227v-1.3636h-.3352v1.3863c0 .5569.2954.8239.7045.8239.3296 0 .5455-.1761.6477-.3977h.0228v.3693h.3352v-2.1818h-.3352z"/><path d="m90.0724 34h.3352v-1.3807c0-.294.233-.5113.5512-.5113.0838 0 .1463.0156.1931.0397l.1137-.2841c-.0682-.0483-.1577-.0795-.2784-.0795-.2642 0-.4901.1477-.5682.3636h-.0227v-.3295h-.3239z"/><path d="m1.85222 37.3068c-.10512-.3096-.34091-.517-.77273-.517-.460227 0-.801136.2613-.801136.6307 0 .3011.178977.5028.579545.5965l.363641.0853c.22017.0511.32386.1562.32386.3068 0 .1875-.19886.3409-.51136.3409-.274152 0-.446027-.1179-.505686-.3523l-.318182.0796c.078125.3707.383523.5682.829548.5682.5071 0 .85227-.277.85227-.6535 0-.3039-.19034-.4957-.57955-.5909l-.323859-.0795c-.258523-.0639-.375-.1506-.375-.3182 0-.1875.198864-.3239.465909-.3239.29261 0 .41335.162.47159.3125z"/><path d="m3.34547 36.8182h-.46591v-.5227h-.33523v.5227h-.32954v.2841h.32954v1.3636c0 .3807.30682.5625.59091.5625.125 0 .20455-.0227.25-.0398l-.06818-.3011c-.02841.0057-.07386.017-.14773.017-.14772 0-.28977-.0454-.28977-.3295v-1.2727h.46591z"/><path d="m3.84973 39h.33523v-1.3807c0-.294.23295-.5113.55114-.5113.0838 0 .1463.0156.19318.0397l.11363-.2841c-.06818-.0483-.15767-.0795-.27841-.0795-.2642 0-.49005.1477-.56818.3636h-.02272v-.3295h-.32387z"/><path d="m6.23325 39.0455c.44319 0 .76705-.2216.86932-.5512l-.32386-.0909c-.08523.2273-.28267.3409-.54546.3409-.39346 0-.66477-.2542-.68039-.7216h1.5838v-.142c0-.8125-.48295-1.0909-.9375-1.0909-.59091 0-.98295.4659-.98295 1.1363 0 .6705.38636 1.1194 1.01704 1.1194zm-.68039-1.3125c.02272-.3395.26278-.6421.6463-.6421.36364 0 .59659.2727.59659.6421z"/><path d="m7.98183 37.6875c0-.3807.2358-.5966.55682-.5966.31108 0 .5.2031.5.5455v1.3636h.33523v-1.3864c0-.5568-.29688-.8238-.73864-.8238-.32954 0-.53409.1477-.63636.3693h-.02841v-.3409h-.32386v2.1818h.33522z"/><path d="m10.8671 39.8636c.5228 0 .9432-.2386.9432-.8011v-2.2443h-.3238v.3466h-.0341c-.0739-.1137-.2103-.375-.6364-.375-.5511 0-.93182.4375-.93182 1.1079 0 .6818.39772 1.0682.92612 1.0682.4262 0 .5625-.25.6364-.3693h.0284v.4432c0 .3636-.2557.5284-.608.5284-.3963 0-.5355-.2088-.625-.3296l-.26701.1875c.13641.2287.40481.4375.89201.4375zm-.0113-1.1988c-.4205 0-.6364-.3182-.6364-.7728 0-.4431.2102-.8011.6364-.8011.4091 0 .625.3296.625.8011 0 .483-.2216.7728-.625.7728z"/><path d="m13.3728 36.8182h-.4659v-.5227h-.3352v.5227h-.3296v.2841h.3296v1.3636c0 .3807.3068.5625.5909.5625.125 0 .2045-.0227.25-.0398l-.0682-.3011c-.0284.0057-.0739.017-.1477.017-.1477 0-.2898-.0454-.2898-.3295v-1.2727h.4659z"/><path d="m14.2592 37.6875c0-.3807.2429-.5966.5738-.5966.3154 0 .5057.1989.5057.5455v1.3636h.3353v-1.3864c0-.561-.2983-.8238-.7444-.8238-.3437 0-.5397.1434-.642.3693h-.0284v-1.0682h-.3352v2.9091h.3352z"/><path d="m17.8327 37.3068c-.1051-.3096-.3409-.517-.7727-.517-.4603 0-.8012.2613-.8012.6307 0 .3011.179.5028.5796.5965l.3636.0853c.2202.0511.3239.1562.3239.3068 0 .1875-.1989.3409-.5114.3409-.2741 0-.446-.1179-.5057-.3523l-.3182.0796c.0782.3707.3836.5682.8296.5682.5071 0 .8523-.277.8523-.6535 0-.3039-.1904-.4957-.5796-.5909l-.3239-.0795c-.2585-.0639-.375-.1506-.375-.3182 0-.1875.1989-.3239.466-.3239.2926 0 .4133.162.4715.3125z"/><path d="m18.8771 38.6023h-.3637l-.017.1591c-.0412.3849-.1222.7684-.1591.9488h.2557c.0682-.1932.2131-.6307.2613-.9545z"/><path d="m21.447 39.0455c.4205 0 .5625-.2614.6364-.3807h.0398v.3352h.3238v-2.9091h-.3352v1.0739h-.0284c-.0739-.1137-.2045-.375-.6307-.375-.5511 0-.9318.4375-.9318 1.125 0 .6932.3807 1.1307.9261 1.1307zm.0455-.3012c-.4205 0-.6364-.3693-.6364-.8352 0-.4602.2103-.8182.6364-.8182.4091 0 .625.3296.625.8182 0 .4943-.2216.8352-.625.8352z"/><path d="m24.0223 39.0455c.4432 0 .7671-.2216.8693-.5512l-.3238-.0909c-.0853.2273-.2827.3409-.5455.3409-.3934 0-.6648-.2542-.6804-.7216h1.5838v-.142c0-.8125-.4829-1.0909-.9375-1.0909-.5909 0-.9829.4659-.9829 1.1363 0 .6705.3863 1.1194 1.017 1.1194zm-.6804-1.3125c.0227-.3395.2628-.6421.6463-.6421.3637 0 .5966.2727.5966.6421z"/><path d="m27.2198 36.8182h-.3637l-.6022 1.7386h-.0228l-.6022-1.7386h-.3637l.8068 2.1818h.3409z"/><path d="m28.4989 39.0455c.4432 0 .767-.2216.8693-.5512l-.3239-.0909c-.0852.2273-.2826.3409-.5454.3409-.3935 0-.6648-.2542-.6804-.7216h1.5838v-.142c0-.8125-.483-1.0909-.9375-1.0909-.5909 0-.983.4659-.983 1.1363 0 .6705.3864 1.1194 1.0171 1.1194zm-.6804-1.3125c.0227-.3395.2628-.6421.6463-.6421.3636 0 .5966.2727.5966.6421z"/><path d="m30.2475 36.0909h-.3353v2.9091h.3353z"/><path d="m31.7478 39.0455c.5909 0 .9887-.4489.9887-1.125 0-.6819-.3978-1.1307-.9887-1.1307s-.9886.4488-.9886 1.1307c0 .6761.3977 1.125.9886 1.125zm0-.3012c-.4488 0-.6534-.3863-.6534-.8238s.2046-.8296.6534-.8296c.4489 0 .6534.3921.6534.8296s-.2045.8238-.6534.8238z"/><path d="m33.2482 39.8182h.3352v-1.1534h.0284c.0739.1193.2159.3807.6364.3807.5454 0 .9261-.4375.9261-1.1307 0-.6875-.3807-1.125-.9318-1.125-.4262 0-.5568.2613-.6307.375h-.0398v-.3466h-.3238zm.3295-1.9091c0-.4886.2159-.8182.625-.8182.4261 0 .6364.358.6364.8182 0 .4659-.2159.8352-.6364.8352-.4034 0-.625-.3409-.625-.8352z"/><path d="m37.4527 39.0511c.3807 0 .5796-.2045.6477-.3466h.0171v.2955h.3352v-1.4375c0-.6932-.5284-.7727-.8068-.7727-.3296 0-.7046.1136-.875.5113l.3182.1137c.0738-.1591.2486-.3296.5682-.3296.3082 0 .4602.1634.4602.4432v.0114c0 .1619-.1648.1477-.5625.1988-.4048.0526-.8466.1421-.8466.6421 0 .4261.3295.6704.7443.6704zm.0511-.3011c-.267 0-.4602-.1193-.4602-.3523 0-.2557.233-.3352.4943-.3693.1421-.017.5228-.0568.5796-.125v.3068c0 .2728-.2159.5398-.6137.5398z"/><path d="m40.4396 38.108c0 .4091-.3125.5965-.5625.5965-.2784 0-.4773-.2045-.4773-.5227v-1.3636h-.3352v1.3863c0 .5569.2954.8239.7045.8239.3296 0 .5455-.1761.6477-.3977h.0228v.3693h.3352v-2.1818h-.3352z"/><path d="m42.3377 36.8182h-.466v-.5227h-.3352v.5227h-.3295v.2841h.3295v1.3636c0 .3807.3068.5625.5909.5625.125 0 .2046-.0227.25-.0398l-.0682-.3011c-.0284.0057-.0738.017-.1477.017-.1477 0-.2898-.0454-.2898-.3295v-1.2727h.466z"/><path d="m43.7048 39.0455c.591 0 .9887-.4489.9887-1.125 0-.6819-.3977-1.1307-.9887-1.1307-.5909 0-.9886.4488-.9886 1.1307 0 .6761.3977 1.125.9886 1.125zm0-.3012c-.4488 0-.6534-.3863-.6534-.8238s.2046-.8296.6534-.8296c.4489 0 .6535.3921.6535.8296s-.2046.8238-.6535.8238z"/><path d="m45.5404 37.6875c0-.3807.2358-.5966.5568-.5966.3111 0 .5.2031.5.5455v1.3636h.3353v-1.3864c0-.5568-.2969-.8238-.7387-.8238-.3295 0-.5341.1477-.6363.3693h-.0284v-.3409h-.3239v2.1818h.3352z"/><path d="m48.4314 39.0455c.5909 0 .9886-.4489.9886-1.125 0-.6819-.3977-1.1307-.9886-1.1307s-.9886.4488-.9886 1.1307c0 .6761.3977 1.125.9886 1.125zm0-.3012c-.4489 0-.6534-.3863-.6534-.8238s.2045-.8296.6534-.8296.6534.3921.6534.8296-.2045.8238-.6534.8238z"/><path d="m49.9318 39h.3352v-1.3636c0-.3196.2329-.5455.4943-.5455.2543 0 .4318.1662.4318.4148v1.4943h.3409v-1.4205c0-.2812.1762-.4886.483-.4886.2386 0 .4432.1264.4432.4489v1.4602h.3352v-1.4602c0-.5128-.2756-.75-.6648-.75-.3125 0-.5412.1434-.6534.3693h-.0227c-.108-.233-.2983-.3693-.5852-.3693-.2841 0-.4944.1363-.5853.3693h-.0284v-.3409h-.3238z"/><path d="m53.5347 39.8466c.3069 0 .5171-.1591.6421-.4943l.9375-2.5341h-.3636l-.6023 1.7386h-.0227l-.6023-1.7386h-.3637l.8069 2.1932-.0739.2045c-.1179.3267-.2727.358-.517.2955l-.0853.2954c.0341.0171.1307.0398.2443.0398z"/><path d="m57.3238 39.0511c.3807 0 .5796-.2045.6477-.3466h.0171v.2955h.3352v-1.4375c0-.6932-.5284-.7727-.8068-.7727-.3296 0-.7046.1136-.875.5113l.3182.1137c.0738-.1591.2485-.3296.5682-.3296.3082 0 .4602.1634.4602.4432v.0114c0 .1619-.1648.1477-.5625.1988-.4049.0526-.8466.1421-.8466.6421 0 .4261.3295.6704.7443.6704zm.0511-.3011c-.267 0-.4602-.1193-.4602-.3523 0-.2557.233-.3352.4943-.3693.1421-.017.5228-.0568.5796-.125v.3068c0 .2728-.2159.5398-.6137.5398z"/><path d="m59.2709 37.6875c0-.3807.2358-.5966.5568-.5966.3111 0 .5.2031.5.5455v1.3636h.3352v-1.3864c0-.5568-.2968-.8238-.7386-.8238-.3295 0-.5341.1477-.6364.3693h-.0284v-.3409h-.3238v2.1818h.3352z"/><path d="m62.0994 39.0455c.4204 0 .5625-.2614.6363-.3807h.0398v.3352h.3239v-2.9091h-.3353v1.0739h-.0284c-.0738-.1137-.2045-.375-.6306-.375-.5512 0-.9319.4375-.9319 1.125 0 .6932.3807 1.1307.9262 1.1307zm.0454-.3012c-.4204 0-.6363-.3693-.6363-.8352 0-.4602.2102-.8182.6363-.8182.4091 0 .625.3296.625.8182 0 .4943-.2216.8352-.625.8352z"/><path d="m65.8338 36.8182h-.466v-.5227h-.3352v.5227h-.3295v.2841h.3295v1.3636c0 .3807.3068.5625.5909.5625.125 0 .2046-.0227.25-.0398l-.0682-.3011c-.0284.0057-.0738.017-.1477.017-.1477 0-.2898-.0454-.2898-.3295v-1.2727h.466z"/><path d="m66.9801 39.0511c.3806 0 .5795-.2045.6477-.3466h.017v.2955h.3353v-1.4375c0-.6932-.5285-.7727-.8069-.7727-.3295 0-.7045.1136-.875.5113l.3182.1137c.0739-.1591.2486-.3296.5682-.3296.3082 0 .4602.1634.4602.4432v.0114c0 .1619-.1647.1477-.5625.1988-.4048.0526-.8466.1421-.8466.6421 0 .4261.3296.6704.7444.6704zm.0511-.3011c-.267 0-.4602-.1193-.4602-.3523 0-.2557.2329-.3352.4943-.3693.142-.017.5227-.0568.5795-.125v.3068c0 .2728-.2159.5398-.6136.5398z"/><path d="m68.5919 39h.3352v-.8168l.2344-.2173.8168 1.0341h.4261l-.99-1.25.9218-.9318h-.4147l-.9546.9716h-.0398v-1.6989h-.3352z"/><path d="m71.5926 39.0455c.4432 0 .7671-.2216.8694-.5512l-.3239-.0909c-.0852.2273-.2827.3409-.5455.3409-.3934 0-.6647-.2542-.6804-.7216h1.5838v-.142c0-.8125-.4829-1.0909-.9375-1.0909-.5909 0-.9829.4659-.9829 1.1363 0 .6705.3863 1.1194 1.017 1.1194zm-.6804-1.3125c.0228-.3395.2628-.6421.6463-.6421.3637 0 .5966.2727.5966.6421z"/><path d="m74.131 39h.3352v-1.3807c0-.294.233-.5113.5511-.5113.0839 0 .1464.0156.1932.0397l.1137-.2841c-.0682-.0483-.1577-.0795-.2784-.0795-.2643 0-.4901.1477-.5682.3636h-.0228v-.3295h-.3238z"/><path d="m76.5145 39.0455c.4432 0 .7671-.2216.8693-.5512l-.3238-.0909c-.0853.2273-.2827.3409-.5455.3409-.3935 0-.6648-.2542-.6804-.7216h1.5838v-.142c0-.8125-.4829-1.0909-.9375-1.0909-.5909 0-.9829.4659-.9829 1.1363 0 .6705.3863 1.1194 1.017 1.1194zm-.6804-1.3125c.0227-.3395.2628-.6421.6463-.6421.3637 0 .5966.2727.5966.6421z"/><path d="m79.4733 37.3068c-.1051-.3096-.3409-.517-.7727-.517-.4602 0-.8011.2613-.8011.6307 0 .3011.1789.5028.5795.5965l.3636.0853c.2202.0511.3239.1562.3239.3068 0 .1875-.1989.3409-.5114.3409-.2741 0-.446-.1179-.5056-.3523l-.3182.0796c.0781.3707.3835.5682.8295.5682.5071 0 .8523-.277.8523-.6535 0-.3039-.1904-.4957-.5796-.5909l-.3238-.0795c-.2585-.0639-.375-.1506-.375-.3182 0-.1875.1988-.3239.4659-.3239.2926 0 .4133.162.4716.3125z"/><path d="m80.0177 39.8182h.3352v-1.1534h.0284c.0739.1193.2159.3807.6364.3807.5455 0 .9261-.4375.9261-1.1307 0-.6875-.3806-1.125-.9318-1.125-.4261 0-.5568.2613-.6307.375h-.0397v-.3466h-.3239zm.3295-1.9091c0-.4886.216-.8182.625-.8182.4262 0 .6364.358.6364.8182 0 .4659-.2159.8352-.6364.8352-.4034 0-.625-.3409-.625-.8352z"/><path d="m83.3416 39.0455c.5909 0 .9886-.4489.9886-1.125 0-.6819-.3977-1.1307-.9886-1.1307s-.9887.4488-.9887 1.1307c0 .6761.3978 1.125.9887 1.125zm0-.3012c-.4489 0-.6534-.3863-.6534-.8238s.2045-.8296.6534-.8296c.4488 0 .6534.3921.6534.8296s-.2046.8238-.6534.8238z"/><path d="m85.1771 37.6875c0-.3807.2358-.5966.5569-.5966.311 0 .5.2031.5.5455v1.3636h.3352v-1.3864c0-.5568-.2969-.8238-.7386-.8238-.3296 0-.5341.1477-.6364.3693h-.0284v-.3409h-.3239v2.1818h.3352z"/><path d="m88.7272 37.3068c-.1051-.3096-.3409-.517-.7727-.517-.4602 0-.8011.2613-.8011.6307 0 .3011.1789.5028.5795.5965l.3636.0853c.2202.0511.3239.1562.3239.3068 0 .1875-.1989.3409-.5114.3409-.2741 0-.446-.1179-.5056-.3523l-.3182.0796c.0781.3707.3835.5682.8295.5682.5071 0 .8523-.277.8523-.6535 0-.3039-.1903-.4957-.5796-.5909l-.3238-.0795c-.2585-.0639-.375-.1506-.375-.3182 0-.1875.1988-.3239.4659-.3239.2926 0 .4133.162.4716.3125z"/><path d="m89.2716 39h.3352v-2.1818h-.3352zm.1705-2.5455c.1306 0 .2386-.1022.2386-.2272s-.108-.2273-.2386-.2273c-.1307 0-.2387.1023-.2387.2273s.108.2272.2387.2272z"/><path d="m90.2663 39h.3238v-.3352h.0398c.0739.1193.2159.3807.6364.3807.5454 0 .9261-.4375.9261-1.1307 0-.6875-.3807-1.125-.9318-1.125-.4261 0-.5568.2613-.6307.375h-.0284v-1.0739h-.3352zm.3295-1.0909c0-.4886.2159-.8182.625-.8182.4262 0 .6364.358.6364.8182 0 .4659-.2159.8352-.6364.8352-.4034 0-.625-.3409-.625-.8352z"/><path d="m92.7052 39h.3352v-2.1818h-.3352zm.1705-2.5455c.1306 0 .2386-.1022.2386-.2272s-.108-.2273-.2386-.2273c-.1307 0-.2387.1023-.2387.2273s.108.2272.2387.2272z"/><path d="m93.9896 36.0909h-.3352v2.9091h.3352z"/><path d="m94.6036 39h.3353v-2.1818h-.3353zm.1705-2.5455c.1307 0 .2386-.1022.2386-.2272s-.1079-.2273-.2386-.2273-.2386.1023-.2386.2273.1079.2272.2386.2272z"/><path d="m96.5017 36.8182h-.4659v-.5227h-.3352v.5227h-.3296v.2841h.3296v1.3636c0 .3807.3068.5625.5909.5625.125 0 .2045-.0227.25-.0398l-.0682-.3011c-.0284.0057-.0739.017-.1477.017-.1477 0-.2898-.0454-.2898-.3295v-1.2727h.4659z"/><path d="m97.2105 39.8466c.3068 0 .5171-.1591.6421-.4943l.9375-2.5341h-.3637l-.6022 1.7386h-.0228l-.6022-1.7386h-.3637l.8068 2.1932-.0738.2045c-.1179.3267-.2727.358-.5171.2955l-.0852.2954c.0341.0171.1307.0398.2443.0398z"/><path d="m.306763 44h.335227v-2.1818h-.335227zm.170454-2.5455c.130682 0 .238637-.1022.238637-.2272s-.107955-.2273-.238637-.2273-.238636.1023-.238636.2273.107954.2272.238636.2272z"/><path d="m2.80144 42.3068c-.10512-.3096-.34091-.517-.77273-.517-.46023 0-.80114.2613-.80114.6307 0 .3011.17898.5028.57955.5965l.36363.0853c.22017.0511.32387.1562.32387.3068 0 .1875-.19887.3409-.51137.3409-.27414 0-.44602-.1179-.50568-.3523l-.31818.0796c.07813.3707.38352.5682.82955.5682.5071 0 .85227-.277.85227-.6535 0-.3039-.19034-.4957-.57955-.5909l-.32386-.0795c-.25852-.0639-.375-.1506-.375-.3182 0-.1875.19886-.3239.46591-.3239.29261 0 .41335.162.47159.3125z"/><path d="m5.11287 44.0511c.38068 0 .57955-.2045.64773-.3466h.01704v.2955h.33523v-1.4375c0-.6932-.52841-.7727-.80682-.7727-.32954 0-.70454.1136-.875.5113l.31818.1137c.07387-.1591.24858-.3296.56819-.3296.30823 0 .46022.1634.46022.4432v.0114c0 .1619-.16477.1477-.5625.1988-.40483.0526-.84659.1421-.84659.6421 0 .4261.32955.6704.74432.6704zm.05114-.3011c-.26705 0-.46023-.1193-.46023-.3523 0-.2557.23295-.3352.49432-.3693.14204-.017.52273-.0568.57954-.125v.3068c0 .2728-.21591.5398-.61363.5398z"/><path d="m7.6736 41.8182h-.46591v-.5227h-.33523v.5227h-.32955v.2841h.32955v1.3636c0 .3807.30682.5625.59091.5625.125 0 .20454-.0227.25-.0398l-.06818-.3011c-.02841.0057-.07387.017-.14773.017-.14773 0-.28977-.0454-.28977-.3295v-1.2727h.46591z"/><path d="m10.2517 41.8182h-.46589v-.5227h-.33523v.5227h-.32954v.2841h.32954v1.3636c0 .3807.30682.5625.59092.5625.125 0 .2045-.0227.25-.0398l-.0682-.3011c-.0284.0057-.0739.017-.1477.017-.14774 0-.28979-.0454-.28979-.3295v-1.2727h.46589z"/><path d="m11.1381 42.6875c0-.3807.2429-.5966.5738-.5966.3154 0 .5057.1989.5057.5455v1.3636h.3353v-1.3864c0-.561-.2983-.8238-.7444-.8238-.3437 0-.5397.1434-.642.3693h-.0284v-1.0682h-.3352v2.9091h.3352z"/><path d="m14.0809 44.0455c.4432 0 .7671-.2216.8693-.5512l-.3238-.0909c-.0853.2273-.2827.3409-.5455.3409-.3935 0-.6648-.2542-.6804-.7216h1.5838v-.142c0-.8125-.4829-1.0909-.9375-1.0909-.5909 0-.9829.4659-.9829 1.1363 0 .6705.3863 1.1194 1.017 1.1194zm-.6804-1.3125c.0227-.3395.2628-.6421.6463-.6421.3637 0 .5966.2727.5966.6421z"/><path d="m16.9545 42.6875c0-.3807.2429-.5966.5739-.5966.3153 0 .5056.1989.5056.5455v1.3636h.3353v-1.3864c0-.561-.2983-.8238-.7444-.8238-.3437 0-.5397.1434-.642.3693h-.0284v-1.0682h-.3352v2.9091h.3352z"/><path d="m19.8973 44.0455c.4432 0 .7671-.2216.8693-.5512l-.3238-.0909c-.0853.2273-.2827.3409-.5455.3409-.3934 0-.6648-.2542-.6804-.7216h1.5838v-.142c0-.8125-.4829-1.0909-.9375-1.0909-.5909 0-.9829.4659-.9829 1.1363 0 .6705.3863 1.1194 1.017 1.1194zm-.6804-1.3125c.0227-.3395.2628-.6421.6463-.6421.3637 0 .5966.2727.5966.6421z"/><path d="m21.9527 44.0511c.3807 0 .5796-.2045.6477-.3466h.0171v.2955h.3352v-1.4375c0-.6932-.5284-.7727-.8068-.7727-.3295 0-.7045.1136-.875.5113l.3182.1137c.0738-.1591.2486-.3296.5682-.3296.3082 0 .4602.1634.4602.4432v.0114c0 .1619-.1648.1477-.5625.1988-.4048.0526-.8466.1421-.8466.6421 0 .4261.3295.6704.7443.6704zm.0512-.3011c-.2671 0-.4603-.1193-.4603-.3523 0-.2557.233-.3352.4943-.3693.1421-.017.5228-.0568.5796-.125v.3068c0 .2728-.2159.5398-.6136.5398z"/><path d="m23.5646 44h.3352v-1.3807c0-.2954.233-.5113.5511-.5113.0895 0 .1819.017.2046.0227v-.3409c-.0384-.0029-.1264-.0057-.1762-.0057-.2613 0-.4886.1477-.5681.3636h-.0228v-.3295h-.3238z"/><path d="m26.1384 41.8182h-.4659v-.5227h-.3352v.5227h-.3295v.2841h.3295v1.3636c0 .3807.3068.5625.5909.5625.125 0 .2046-.0227.25-.0398l-.0682-.3011c-.0284.0057-.0738.017-.1477.017-.1477 0-.2898-.0454-.2898-.3295v-1.2727h.4659z"/><path d="m28.6541 44.0455c.5909 0 .9886-.4489.9886-1.125 0-.6819-.3977-1.1307-.9886-1.1307s-.9887.4488-.9887 1.1307c0 .6761.3978 1.125.9887 1.125zm0-.3012c-.4489 0-.6534-.3863-.6534-.8238s.2045-.8296.6534-.8296c.4488 0 .6534.3921.6534.8296s-.2046.8238-.6534.8238z"/><path d="m31.126 41.8182h-.4886v-.2216c0-.2159.0909-.3296.3125-.3296.0966 0 .1534.0228.1875.0341l.0966-.2897c-.0512-.0228-.1534-.0569-.3182-.0569-.3125 0-.6137.1875-.6137.5625v.3012h-.3522v.2841h.3522v1.8977h.3353v-1.8977h.4886z"/><path d="m32.7208 44h.3352v-1.3636c0-.3196.233-.5455.4944-.5455.2542 0 .4318.1662.4318.4148v1.4943h.3409v-1.4205c0-.2812.1761-.4886.4829-.4886.2387 0 .4432.1264.4432.4489v1.4602h.3353v-1.4602c0-.5128-.2756-.75-.6648-.75-.3125 0-.5412.1434-.6534.3693h-.0228c-.1079-.233-.2982-.3693-.5852-.3693-.2841 0-.4943.1363-.5852.3693h-.0284v-.3409h-.3239z"/><path d="m37.0837 44.0455c.591 0 .9887-.4489.9887-1.125 0-.6819-.3977-1.1307-.9887-1.1307-.5909 0-.9886.4488-.9886 1.1307 0 .6761.3977 1.125.9886 1.125zm0-.3012c-.4488 0-.6534-.3863-.6534-.8238s.2046-.8296.6534-.8296c.4489 0 .6535.3921.6535.8296s-.2046.8238-.6535.8238z"/><path d="m39.533 41.8182h-.4659v-.5227h-.3353v.5227h-.3295v.2841h.3295v1.3636c0 .3807.3069.5625.5909.5625.125 0 .2046-.0227.25-.0398l-.0681-.3011c-.0285.0057-.0739.017-.1478.017-.1477 0-.2897-.0454-.2897-.3295v-1.2727h.4659z"/><path d="m40.0372 44h.3353v-2.1818h-.3353zm.1705-2.5455c.1307 0 .2386-.1022.2386-.2272s-.1079-.2273-.2386-.2273-.2387.1023-.2387.2273.108.2272.2387.2272z"/><path d="m42.7705 41.8182h-.3636l-.6023 1.7386h-.0227l-.6023-1.7386h-.3636l.8068 2.1818h.3409z"/><path d="m43.8551 44.0511c.3806 0 .5795-.2045.6477-.3466h.017v.2955h.3353v-1.4375c0-.6932-.5285-.7727-.8069-.7727-.3295 0-.7045.1136-.875.5113l.3182.1137c.0739-.1591.2486-.3296.5682-.3296.3082 0 .4602.1634.4602.4432v.0114c0 .1619-.1647.1477-.5625.1988-.4048.0526-.8466.1421-.8466.6421 0 .4261.3296.6704.7444.6704zm.0511-.3011c-.2671 0-.4602-.1193-.4602-.3523 0-.2557.2329-.3352.4943-.3693.142-.017.5227-.0568.5795-.125v.3068c0 .2728-.2159.5398-.6136.5398z"/><path d="m46.4158 41.8182h-.4659v-.5227h-.3353v.5227h-.3295v.2841h.3295v1.3636c0 .3807.3069.5625.591.5625.125 0 .2045-.0227.25-.0398l-.0682-.3011c-.0284.0057-.0739.017-.1478.017-.1477 0-.2897-.0454-.2897-.3295v-1.2727h.4659z"/><path d="m46.92 44h.3353v-2.1818h-.3353zm.1705-2.5455c.1307 0 .2386-.1022.2386-.2272s-.1079-.2273-.2386-.2273-.2386.1023-.2386.2273.1079.2272.2386.2272z"/><path d="m48.7556 44.0455c.5909 0 .9887-.4489.9887-1.125 0-.6819-.3978-1.1307-.9887-1.1307s-.9886.4488-.9886 1.1307c0 .6761.3977 1.125.9886 1.125zm0-.3012c-.4488 0-.6534-.3863-.6534-.8238s.2046-.8296.6534-.8296c.4489 0 .6534.3921.6534.8296s-.2045.8238-.6534.8238z"/><path d="m50.5912 42.6875c0-.3807.2358-.5966.5568-.5966.3111 0 .5.2031.5.5455v1.3636h.3353v-1.3864c0-.5568-.2969-.8238-.7387-.8238-.3295 0-.5341.1477-.6363.3693h-.0285v-.3409h-.3238v2.1818h.3352z"/><path d="m52.8401 44.0227c.1407 0 .2557-.115.2557-.2557 0-.1406-.115-.2556-.2557-.2556-.1406 0-.2556.115-.2556.2556 0 .1407.115.2557.2556.2557z"/><path d="m54.8678 44h.3523v-1.0625h.6364c.6775 0 .9829-.4119.9829-.9261s-.3054-.9205-.9886-.9205h-.983zm.3523-1.375v-1.2216h.6193c.473 0 .6534.2585.6534.608 0 .3494-.1804.6136-.6477.6136z"/><path d="m57.3615 44h.3352v-1.3807c0-.294.2329-.5113.5511-.5113.0838 0 .1463.0156.1932.0397l.1136-.2841c-.0682-.0483-.1576-.0795-.2784-.0795-.2642 0-.49.1477-.5682.3636h-.0227v-.3295h-.3238z"/><path d="m59.7166 44.0455c.5909 0 .9886-.4489.9886-1.125 0-.6819-.3977-1.1307-.9886-1.1307s-.9887.4488-.9887 1.1307c0 .6761.3978 1.125.9887 1.125zm0-.3012c-.4489 0-.6534-.3863-.6534-.8238s.2045-.8296.6534-.8296c.4488 0 .6534.3921.6534.8296s-.2046.8238-.6534.8238z"/><path d="m61.2169 44h.3352v-1.3636c0-.3196.233-.5455.4944-.5455.2542 0 .4318.1662.4318.4148v1.4943h.3409v-1.4205c0-.2812.1761-.4886.4829-.4886.2387 0 .4432.1264.4432.4489v1.4602h.3353v-1.4602c0-.5128-.2756-.75-.6648-.75-.3125 0-.5412.1434-.6534.3693h-.0228c-.1079-.233-.2982-.3693-.5852-.3693-.2841 0-.4943.1363-.5852.3693h-.0284v-.3409h-.3239z"/><path d="m65.5798 44.0455c.591 0 .9887-.4489.9887-1.125 0-.6819-.3977-1.1307-.9887-1.1307-.5909 0-.9886.4488-.9886 1.1307 0 .6761.3977 1.125.9886 1.125zm0-.3012c-.4488 0-.6534-.3863-.6534-.8238s.2046-.8296.6534-.8296c.4489 0 .6535.3921.6535.8296s-.2046.8238-.6535.8238z"/><path d="m68.0291 41.8182h-.4659v-.5227h-.3353v.5227h-.3295v.2841h.3295v1.3636c0 .3807.3068.5625.5909.5625.125 0 .2046-.0227.25-.0398l-.0681-.3011c-.0285.0057-.0739.017-.1478.017-.1477 0-.2897-.0454-.2897-.3295v-1.2727h.4659z"/><path d="m68.5333 44h.3353v-2.1818h-.3353zm.1705-2.5455c.1307 0 .2386-.1022.2386-.2272s-.1079-.2273-.2386-.2273-.2387.1023-.2387.2273.108.2272.2387.2272z"/><path d="m69.8178 42.6875c0-.3807.2358-.5966.5568-.5966.3111 0 .5.2031.5.5455v1.3636h.3352v-1.3864c0-.5568-.2969-.8238-.7386-.8238-.3296 0-.5341.1477-.6364.3693h-.0284v-.3409h-.3239v2.1818h.3353z"/><path d="m72.7031 44.8636c.5227 0 .9432-.2386.9432-.8011v-2.2443h-.3239v.3466h-.0341c-.0739-.1137-.2102-.375-.6364-.375-.5511 0-.9318.4375-.9318 1.1079 0 .6818.3977 1.0682.9262 1.0682.4261 0 .5625-.25.6363-.3693h.0284v.4432c0 .3636-.2557.5284-.6079.5284-.3963 0-.5355-.2088-.625-.3296l-.2671.1875c.1364.2287.4049.4375.8921.4375zm-.0114-1.1988c-.4204 0-.6364-.3182-.6364-.7728 0-.4431.2103-.8011.6364-.8011.4091 0 .625.3296.625.8011 0 .483-.2216.7728-.625.7728z"/><path d="m75.5894 44.8466c.3069 0 .5171-.1591.6421-.4943l.9375-2.5341h-.3637l-.6022 1.7386h-.0228l-.6022-1.7386h-.3637l.8069 2.1932-.0739.2045c-.1179.3267-.2727.358-.5171.2955l-.0852.2954c.0341.0171.1307.0398.2443.0398z"/><path d="m78.4197 44.0455c.5909 0 .9886-.4489.9886-1.125 0-.6819-.3977-1.1307-.9886-1.1307s-.9886.4488-.9886 1.1307c0 .6761.3977 1.125.9886 1.125zm0-.3012c-.4489 0-.6534-.3863-.6534-.8238s.2045-.8296.6534-.8296.6534.3921.6534.8296-.2045.8238-.6534.8238z"/><path d="m81.295 43.108c0 .4091-.3125.5965-.5625.5965-.2784 0-.4772-.2045-.4772-.5227v-1.3636h-.3353v1.3863c0 .5569.2955.8239.7046.8239.3295 0 .5454-.1761.6477-.3977h.0227v.3693h.3353v-2.1818h-.3353z"/><path d="m82.2443 44h.3352v-1.3807c0-.294.2329-.5113.5511-.5113.0838 0 .1463.0156.1932.0397l.1136-.2841c-.0681-.0483-.1576-.0795-.2784-.0795-.2642 0-.49.1477-.5681.3636h-.0228v-.3295h-.3238z"/><path d="m.64199 46.0909h-.335227v2.9091h.335227z"/><path d="m2.17075 49.0455c.44319 0 .76705-.2216.86932-.5512l-.32386-.0909c-.08523.2273-.28267.3409-.54546.3409-.39346 0-.66477-.2542-.68039-.7216h1.5838v-.142c0-.8125-.48295-1.0909-.9375-1.0909-.59091 0-.98295.4659-.98295 1.1363 0 .6705.38636 1.1194 1.01704 1.1194zm-.68039-1.3125c.02272-.3395.26278-.6421.6463-.6421.36364 0 .59659.2727.59659.6421z"/><path d="m4.22615 49.0511c.38068 0 .57955-.2045.64773-.3466h.01704v.2955h.33523v-1.4375c0-.6932-.52841-.7727-.80682-.7727-.32954 0-.70454.1136-.875.5113l.31819.1137c.07386-.1591.24858-.3296.56818-.3296.30824 0 .46022.1634.46022.4432v.0114c0 .1619-.16477.1477-.5625.1988-.40482.0526-.84659.1421-.84659.6421 0 .4261.32955.6704.74432.6704zm.05114-.3011c-.26705 0-.46023-.1193-.46023-.3523 0-.2557.23296-.3352.49432-.3693.14204-.017.52273-.0568.57954-.125v.3068c0 .2728-.2159.5398-.61363.5398z"/><path d="m5.83801 49h.33523v-1.3807c0-.2954.23295-.5113.55114-.5113.08949 0 .18181.017.20454.0227v-.3409c-.03835-.0029-.12642-.0057-.17613-.0057-.26137 0-.48864.1477-.56819.3636h-.02272v-.3295h-.32387z"/><path d="m7.66152 47.6875c0-.3807.2358-.5966.55682-.5966.31108 0 .5.2031.5.5455v1.3636h.33523v-1.3864c0-.5568-.29688-.8238-.73864-.8238-.32954 0-.53409.1477-.63636.3693h-.02841v-.3409h-.32387v2.1818h.33523z"/><path d="m9.66614 49h.33526v-2.1818h-.33526zm.17045-2.5455c.13068 0 .23861-.1022.23861-.2272s-.10793-.2273-.23861-.2273-.23863.1023-.23863.2273.10795.2272.23863.2272z"/><path d="m10.9506 47.6875c0-.3807.2358-.5966.5568-.5966.3111 0 .5.2031.5.5455v1.3636h.3352v-1.3864c0-.5568-.2968-.8238-.7386-.8238-.3296 0-.5341.1477-.6364.3693h-.0284v-.3409h-.3238v2.1818h.3352z"/><path d="m13.8359 49.8636c.5227 0 .9432-.2386.9432-.8011v-2.2443h-.3239v.3466h-.0341c-.0739-.1137-.2102-.375-.6364-.375-.5511 0-.9318.4375-.9318 1.1079 0 .6818.3978 1.0682.9262 1.0682.4261 0 .5625-.25.6363-.3693h.0284v.4432c0 .3636-.2556.5284-.6079.5284-.3963 0-.5355-.2088-.625-.3296l-.2671.1875c.1364.2287.4049.4375.8921.4375zm-.0114-1.1988c-.4204 0-.6363-.3182-.6363-.7728 0-.4431.2102-.8011.6363-.8011.4091 0 .625.3296.625.8011 0 .483-.2216.7728-.625.7728z"/><path d="m17.1597 49.0511c.3807 0 .5796-.2045.6478-.3466h.017v.2955h.3352v-1.4375c0-.6932-.5284-.7727-.8068-.7727-.3295 0-.7045.1136-.875.5113l.3182.1137c.0739-.1591.2486-.3296.5682-.3296.3082 0 .4602.1634.4602.4432v.0114c0 .1619-.1648.1477-.5625.1988-.4048.0526-.8466.1421-.8466.6421 0 .4261.3296.6704.7443.6704zm.0512-.3011c-.2671 0-.4602-.1193-.4602-.3523 0-.2557.2329-.3352.4943-.3693.142-.017.5227-.0568.5795-.125v.3068c0 .2728-.2159.5398-.6136.5398z"/><path d="m19.1068 47.6875c0-.3807.2358-.5966.5569-.5966.311 0 .5.2031.5.5455v1.3636h.3352v-1.3864c0-.5568-.2969-.8238-.7387-.8238-.3295 0-.534.1477-.6363.3693h-.0284v-.3409h-.3239v2.1818h.3352z"/><path d="m21.9353 49.0455c.4205 0 .5625-.2614.6364-.3807h.0398v.3352h.3238v-2.9091h-.3352v1.0739h-.0284c-.0739-.1137-.2046-.375-.6307-.375-.5511 0-.9318.4375-.9318 1.125 0 .6932.3807 1.1307.9261 1.1307zm.0455-.3012c-.4205 0-.6364-.3693-.6364-.8352 0-.4602.2102-.8182.6364-.8182.4091 0 .625.3296.625.8182 0 .4943-.2216.8352-.625.8352z"/><path d="m25.5447 49.0455c.4204 0 .5625-.2614.6364-.3807h.0397v.3352h.3239v-2.9091h-.3352v1.0739h-.0284c-.0739-.1137-.2046-.375-.6307-.375-.5512 0-.9318.4375-.9318 1.125 0 .6932.3806 1.1307.9261 1.1307zm.0454-.3012c-.4204 0-.6363-.3693-.6363-.8352 0-.4602.2102-.8182.6363-.8182.4091 0 .625.3296.625.8182 0 .4943-.2215.8352-.625.8352z"/><path d="m28.12 49.0455c.4432 0 .767-.2216.8693-.5512l-.3239-.0909c-.0852.2273-.2826.3409-.5454.3409-.3935 0-.6648-.2542-.6804-.7216h1.5838v-.142c0-.8125-.483-1.0909-.9375-1.0909-.5909 0-.983.4659-.983 1.1363 0 .6705.3864 1.1194 1.0171 1.1194zm-.6804-1.3125c.0227-.3395.2628-.6421.6463-.6421.3636 0 .5966.2727.5966.6421z"/><path d="m31.3174 46.8182h-.3636l-.6023 1.7386h-.0227l-.6023-1.7386h-.3636l.8068 2.1818h.3409z"/><path d="m32.5965 49.0455c.4432 0 .7671-.2216.8694-.5512l-.3239-.0909c-.0852.2273-.2827.3409-.5455.3409-.3934 0-.6647-.2542-.6804-.7216h1.5838v-.142c0-.8125-.4829-1.0909-.9375-1.0909-.5909 0-.9829.4659-.9829 1.1363 0 .6705.3864 1.1194 1.017 1.1194zm-.6804-1.3125c.0228-.3395.2628-.6421.6463-.6421.3637 0 .5966.2727.5966.6421z"/><path d="m34.3451 46.0909h-.3352v2.9091h.3352z"/><path d="m35.8455 49.0455c.5909 0 .9886-.4489.9886-1.125 0-.6819-.3977-1.1307-.9886-1.1307s-.9887.4488-.9887 1.1307c0 .6761.3978 1.125.9887 1.125zm0-.3012c-.4489 0-.6534-.3863-.6534-.8238s.2045-.8296.6534-.8296c.4488 0 .6534.3921.6534.8296s-.2046.8238-.6534.8238z"/><path d="m37.3458 49.8182h.3352v-1.1534h.0285c.0738.1193.2159.3807.6363.3807.5455 0 .9262-.4375.9262-1.1307 0-.6875-.3807-1.125-.9319-1.125-.4261 0-.5568.2613-.6306.375h-.0398v-.3466h-.3239zm.3296-1.9091c0-.4886.2159-.8182.625-.8182.4261 0 .6363.358.6363.8182 0 .4659-.2159.8352-.6363.8352-.4034 0-.625-.3409-.625-.8352z"/><path d="m39.7833 49h.3352v-1.3636c0-.3196.233-.5455.4944-.5455.2542 0 .4318.1662.4318.4148v1.4943h.3409v-1.4205c0-.2812.1761-.4886.4829-.4886.2387 0 .4432.1264.4432.4489v1.4602h.3353v-1.4602c0-.5128-.2756-.75-.6648-.75-.3125 0-.5412.1434-.6534.3693h-.0228c-.1079-.233-.2982-.3693-.5852-.3693-.2841 0-.4943.1363-.5852.3693h-.0284v-.3409h-.3239z"/><path d="m44.1747 49.0455c.4431 0 .767-.2216.8693-.5512l-.3239-.0909c-.0852.2273-.2827.3409-.5454.3409-.3935 0-.6648-.2542-.6804-.7216h1.5838v-.142c0-.8125-.483-1.0909-.9375-1.0909-.5909 0-.983.4659-.983 1.1363 0 .6705.3864 1.1194 1.0171 1.1194zm-.6804-1.3125c.0227-.3395.2627-.6421.6463-.6421.3636 0 .5966.2727.5966.6421z"/><path d="m45.9232 47.6875c0-.3807.2358-.5966.5569-.5966.311 0 .5.2031.5.5455v1.3636h.3352v-1.3864c0-.5568-.2969-.8238-.7387-.8238-.3295 0-.534.1477-.6363.3693h-.0284v-.3409h-.3239v2.1818h.3352z"/><path d="m48.8767 46.8182h-.4659v-.5227h-.3352v.5227h-.3296v.2841h.3296v1.3636c0 .3807.3068.5625.5909.5625.125 0 .2045-.0227.25-.0398l-.0682-.3011c-.0284.0057-.0739.017-.1477.017-.1477 0-.2898-.0454-.2898-.3295v-1.2727h.4659z"/><path d="m50.506 49h.3352v-2.1818h-.3352zm.1704-2.5455c.1307 0 .2387-.1022.2387-.2272s-.108-.2273-.2387-.2273c-.1306 0-.2386.1023-.2386.2273s.108.2272.2386.2272z"/><path d="m53.0007 47.3068c-.1052-.3096-.341-.517-.7728-.517-.4602 0-.8011.2613-.8011.6307 0 .3011.179.5028.5795.5965l.3637.0853c.2201.0511.3238.1562.3238.3068 0 .1875-.1988.3409-.5113.3409-.2742 0-.4461-.1179-.5057-.3523l-.3182.0796c.0781.3707.3835.5682.8296.5682.5071 0 .8522-.277.8522-.6535 0-.3039-.1903-.4957-.5795-.5909l-.3239-.0795c-.2585-.0639-.375-.1506-.375-.3182 0-.1875.1989-.3239.4659-.3239.2926 0 .4134.162.4716.3125z"/><path d="m54.67 49h.3353v-2.1818h-.3353zm.1705-2.5455c.1307 0 .2386-.1022.2386-.2272s-.1079-.2273-.2386-.2273-.2386.1023-.2386.2273.1079.2272.2386.2272z"/><path d="m55.6193 49h.3352v-1.3636c0-.3196.2329-.5455.4943-.5455.2543 0 .4318.1662.4318.4148v1.4943h.3409v-1.4205c0-.2812.1762-.4886.483-.4886.2386 0 .4432.1264.4432.4489v1.4602h.3352v-1.4602c0-.5128-.2756-.75-.6648-.75-.3125 0-.5412.1434-.6534.3693h-.0227c-.108-.233-.2983-.3693-.5852-.3693-.2841 0-.4944.1363-.5853.3693h-.0284v-.3409h-.3238z"/><path d="m59.0958 49.8182h.3352v-1.1534h.0285c.0738.1193.2159.3807.6363.3807.5455 0 .9262-.4375.9262-1.1307 0-.6875-.3807-1.125-.9319-1.125-.4261 0-.5568.2613-.6306.375h-.0398v-.3466h-.3239zm.3296-1.9091c0-.4886.2159-.8182.625-.8182.4261 0 .6363.358.6363.8182 0 .4659-.2159.8352-.6363.8352-.4034 0-.625-.3409-.625-.8352z"/><path d="m62.4197 49.0455c.5909 0 .9886-.4489.9886-1.125 0-.6819-.3977-1.1307-.9886-1.1307s-.9887.4488-.9887 1.1307c0 .6761.3978 1.125.9887 1.125zm0-.3012c-.4489 0-.6534-.3863-.6534-.8238s.2045-.8296.6534-.8296c.4488 0 .6534.3921.6534.8296s-.2046.8238-.6534.8238z"/><path d="m63.92 49h.3353v-1.3807c0-.2954.2329-.5113.5511-.5113.0895 0 .1818.017.2046.0227v-.3409c-.0384-.0029-.1265-.0057-.1762-.0057-.2613 0-.4886.1477-.5682.3636h-.0227v-.3295h-.3239z"/><path d="m66.4939 46.8182h-.4659v-.5227h-.3352v.5227h-.3296v.2841h.3296v1.3636c0 .3807.3068.5625.5909.5625.125 0 .2045-.0227.25-.0398l-.0682-.3011c-.0284.0057-.0739.017-.1477.017-.1478 0-.2898-.0454-.2898-.3295v-1.2727h.4659z"/><path d="m67.6402 49.0511c.3807 0 .5796-.2045.6477-.3466h.0171v.2955h.3352v-1.4375c0-.6932-.5284-.7727-.8068-.7727-.3295 0-.7045.1136-.875.5113l.3182.1137c.0738-.1591.2486-.3296.5682-.3296.3082 0 .4602.1634.4602.4432v.0114c0 .1619-.1648.1477-.5625.1988-.4048.0526-.8466.1421-.8466.6421 0 .4261.3295.6704.7443.6704zm.0512-.3011c-.2671 0-.4603-.1193-.4603-.3523 0-.2557.233-.3352.4943-.3693.1421-.017.5228-.0568.5796-.125v.3068c0 .2728-.2159.5398-.6136.5398z"/><path d="m69.5873 47.6875c0-.3807.2358-.5966.5568-.5966.3111 0 .5.2031.5.5455v1.3636h.3352v-1.3864c0-.5568-.2968-.8238-.7386-.8238-.3295 0-.5341.1477-.6364.3693h-.0284v-.3409h-.3238v2.1818h.3352z"/><path d="m72.5408 46.8182h-.4659v-.5227h-.3353v.5227h-.3295v.2841h.3295v1.3636c0 .3807.3069.5625.591.5625.125 0 .2045-.0227.25-.0398l-.0682-.3011c-.0284.0057-.0739.017-.1478.017-.1477 0-.2897-.0454-.2897-.3295v-1.2727h.4659z"/><path d="m75.1189 46.8182h-.4659v-.5227h-.3352v.5227h-.3296v.2841h.3296v1.3636c0 .3807.3068.5625.5909.5625.125 0 .2045-.0227.25-.0398l-.0682-.3011c-.0284.0057-.0739.017-.1477.017-.1478 0-.2898-.0454-.2898-.3295v-1.2727h.4659z"/><path d="m76.4861 49.0455c.5909 0 .9886-.4489.9886-1.125 0-.6819-.3977-1.1307-.9886-1.1307s-.9886.4488-.9886 1.1307c0 .6761.3977 1.125.9886 1.125zm0-.3012c-.4489 0-.6534-.3863-.6534-.8238s.2045-.8296.6534-.8296.6534.3921.6534.8296-.2045.8238-.6534.8238z"/><path d="m79.316 49.8466c.3068 0 .517-.1591.642-.4943l.9375-2.5341h-.3636l-.6023 1.7386h-.0227l-.6023-1.7386h-.3636l.8068 2.1932-.0738.2045c-.1179.3267-.2728.358-.5171.2955l-.0852.2954c.0341.0171.1307.0398.2443.0398z"/><path d="m82.1463 49.0455c.5909 0 .9886-.4489.9886-1.125 0-.6819-.3977-1.1307-.9886-1.1307-.591 0-.9887.4488-.9887 1.1307 0 .6761.3977 1.125.9887 1.125zm0-.3012c-.4489 0-.6535-.3863-.6535-.8238s.2046-.8296.6535-.8296c.4488 0 .6534.3921.6534.8296s-.2046.8238-.6534.8238z"/><path d="m85.0216 48.108c0 .4091-.3125.5965-.5625.5965-.2784 0-.4773-.2045-.4773-.5227v-1.3636h-.3352v1.3863c0 .5569.2955.8239.7046.8239.3295 0 .5454-.1761.6477-.3977h.0227v.3693h.3352v-2.1818h-.3352z"/><path d="m87.7379 49.0511c.3807 0 .5795-.2045.6477-.3466h.017v.2955h.3353v-1.4375c0-.6932-.5284-.7727-.8068-.7727-.3296 0-.7046.1136-.875.5113l.3181.1137c.0739-.1591.2486-.3296.5682-.3296.3083 0 .4602.1634.4602.4432v.0114c0 .1619-.1647.1477-.5625.1988-.4048.0526-.8465.1421-.8465.6421 0 .4261.3295.6704.7443.6704zm.0511-.3011c-.267 0-.4602-.1193-.4602-.3523 0-.2557.2329-.3352.4943-.3693.142-.017.5227-.0568.5795-.125v.3068c0 .2728-.2159.5398-.6136.5398z"/><path d="m89.685 47.6875c0-.3807.2358-.5966.5568-.5966.3111 0 .5.2031.5.5455v1.3636h.3352v-1.3864c0-.5568-.2969-.8238-.7386-.8238-.3296 0-.5341.1477-.6364.3693h-.0284v-.3409h-.3239v2.1818h.3353z"/><path d="m92.5134 49.0455c.4205 0 .5625-.2614.6364-.3807h.0398v.3352h.3238v-2.9091h-.3352v1.0739h-.0284c-.0739-.1137-.2045-.375-.6307-.375-.5511 0-.9318.4375-.9318 1.125 0 .6932.3807 1.1307.9261 1.1307zm.0455-.3012c-.4205 0-.6364-.3693-.6364-.8352 0-.4602.2103-.8182.6364-.8182.4091 0 .625.3296.625.8182 0 .4943-.2216.8352-.625.8352z"/><path d="m1.68176 53.108c0 .4091-.3125.5965-.5625.5965-.278406 0-.47727-.2045-.47727-.5227v-1.3636h-.335227v1.3863c0 .5569.295454.8239.704547.8239.32954 0 .54545-.1761.64773-.3977h.02272v.3693h.33523v-2.1818h-.33523z"/><path d="m4.17644 52.3068c-.10512-.3096-.34091-.517-.77273-.517-.46023 0-.80114.2613-.80114.6307 0 .3011.17898.5028.57955.5965l.36363.0853c.22017.0511.32387.1562.32387.3068 0 .1875-.19887.3409-.51137.3409-.27414 0-.44602-.1179-.50568-.3523l-.31818.0796c.07813.3707.38352.5682.82955.5682.5071 0 .85227-.277.85227-.6535 0-.3039-.19034-.4957-.57955-.5909l-.32386-.0795c-.25852-.0639-.375-.1506-.375-.3182 0-.1875.19886-.3239.46591-.3239.29261 0 .41335.162.47159.3125z"/><path d="m5.84583 54h.33522v-2.1818h-.33522zm.17045-2.5455c.13068 0 .23864-.1022.23864-.2272s-.10796-.2273-.23864-.2273-.23864.1023-.23864.2273.10796.2272.23864.2272z"/><path d="m7.13027 52.6875c0-.3807.2358-.5966.55682-.5966.31108 0 .5.2031.5.5455v1.3636h.33523v-1.3864c0-.5568-.29688-.8238-.73864-.8238-.32955 0-.53409.1477-.63636.3693h-.02841v-.3409h-.32387v2.1818h.33523z"/><path d="m10.4644 54.8466c.3069 0 .5171-.1591.6421-.4943l.9375-2.5341h-.3637l-.6022 1.7386h-.0228l-.6022-1.7386h-.3637l.8069 2.1932-.0739.2045c-.1179.3267-.2727.358-.5171.2955l-.0852.2954c.0341.0171.1307.0398.2443.0398z"/><path d="m13.2947 54.0455c.5909 0 .9886-.4489.9886-1.125 0-.6819-.3977-1.1307-.9886-1.1307s-.9886.4488-.9886 1.1307c0 .6761.3977 1.125.9886 1.125zm0-.3012c-.4489 0-.6534-.3863-.6534-.8238s.2045-.8296.6534-.8296.6534.3921.6534.8296-.2045.8238-.6534.8238z"/><path d="m16.17 53.108c0 .4091-.3125.5965-.5625.5965-.2784 0-.4772-.2045-.4772-.5227v-1.3636h-.3353v1.3863c0 .5569.2955.8239.7046.8239.3295 0 .5454-.1761.6477-.3977h.0227v.3693h.3353v-2.1818h-.3353z"/><path d="m17.1193 54h.3352v-1.3807c0-.294.2329-.5113.5511-.5113.0838 0 .1463.0156.1932.0397l.1136-.2841c-.0681-.0483-.1576-.0795-.2784-.0795-.2642 0-.49.1477-.5681.3636h-.0228v-.3295h-.3238z"/><path d="m19.7794 51.8182v2.3409c0 .2216-.0909.3466-.2954.3466h-.0625v.3125h.0681c.4205 0 .625-.2557.625-.6591v-2.3409zm.1648-.3637c.1307 0 .2386-.1022.2386-.2272s-.1079-.2273-.2386-.2273-.2386.1023-.2386.2273.1079.2272.2386.2272z"/><path d="m21.615 54.0455c.5909 0 .9886-.4489.9886-1.125 0-.6819-.3977-1.1307-.9886-1.1307s-.9886.4488-.9886 1.1307c0 .6761.3977 1.125.9886 1.125zm0-.3012c-.4489 0-.6534-.3863-.6534-.8238s.2045-.8296.6534-.8296.6534.3921.6534.8296-.2045.8238-.6534.8238z"/><path d="m23.1608 54h.3239v-.3352h.0397c.0739.1193.216.3807.6364.3807.5455 0 .9261-.4375.9261-1.1307 0-.6875-.3806-1.125-.9318-1.125-.4261 0-.5568.2613-.6307.375h-.0284v-1.0739h-.3352zm.3296-1.0909c0-.4886.2159-.8182.625-.8182.4261 0 .6363.358.6363.8182 0 .4659-.2159.8352-.6363.8352-.4035 0-.625-.3409-.625-.8352z"/><path d="m27.06 52.6875c0-.3807.2358-.5966.5568-.5966.3111 0 .5.2031.5.5455v1.3636h.3352v-1.3864c0-.5568-.2969-.8238-.7386-.8238-.3296 0-.5341.1477-.6364.3693h-.0284v-.3409h-.3239v2.1818h.3353z"/><path d="m29.9509 54.0455c.5909 0 .9887-.4489.9887-1.125 0-.6819-.3978-1.1307-.9887-1.1307s-.9886.4488-.9886 1.1307c0 .6761.3977 1.125.9886 1.125zm0-.3012c-.4488 0-.6534-.3863-.6534-.8238s.2046-.8296.6534-.8296c.4489 0 .6534.3921.6534.8296s-.2045.8238-.6534.8238z"/><path d="m31.8714 54h.3295l.4773-1.6761h.0341l.4773 1.6761h.3295l.6648-2.1818h-.3523l-.4716 1.6648h-.0227l-.4602-1.6648h-.358l-.4659 1.6704h-.0227l-.4716-1.6704h-.3523z"/><path d="m36.3941 54.0511c.3807 0 .5796-.2045.6477-.3466h.0171v.2955h.3352v-1.4375c0-.6932-.5284-.7727-.8068-.7727-.3295 0-.7045.1136-.875.5113l.3182.1137c.0738-.1591.2486-.3296.5682-.3296.3082 0 .4602.1634.4602.4432v.0114c0 .1619-.1648.1477-.5625.1988-.4048.0526-.8466.1421-.8466.6421 0 .4261.3295.6704.7443.6704zm.0512-.3011c-.2671 0-.4603-.1193-.4603-.3523 0-.2557.233-.3352.4943-.3693.1421-.017.5228-.0568.5796-.125v.3068c0 .2728-.2159.5398-.6136.5398z"/><path d="m38.3412 52.6875c0-.3807.2358-.5966.5568-.5966.3111 0 .5.2031.5.5455v1.3636h.3353v-1.3864c0-.5568-.2969-.8238-.7387-.8238-.3295 0-.5341.1477-.6363.3693h-.0285v-.3409h-.3238v2.1818h.3352z"/><path d="m41.1697 54.0455c.4204 0 .5625-.2614.6363-.3807h.0398v.3352h.3239v-2.9091h-.3352v1.0739h-.0285c-.0738-.1137-.2045-.375-.6306-.375-.5512 0-.9319.4375-.9319 1.125 0 .6932.3807 1.1307.9262 1.1307zm.0454-.3012c-.4204 0-.6363-.3693-.6363-.8352 0-.4602.2102-.8182.6363-.8182.4091 0 .625.3296.625.8182 0 .4943-.2215.8352-.625.8352z"/><path d="m44.9268 51.8182h-.4886v-.2216c0-.2159.0909-.3296.3125-.3296.0965 0 .1534.0228.1875.0341l.0965-.2897c-.0511-.0228-.1534-.0569-.3181-.0569-.3125 0-.6137.1875-.6137.5625v.3012h-.3522v.2841h.3522v1.8977h.3353v-1.8977h.4886z"/><path d="m46.1931 54.0455c.5909 0 .9887-.4489.9887-1.125 0-.6819-.3978-1.1307-.9887-1.1307s-.9886.4488-.9886 1.1307c0 .6761.3977 1.125.9886 1.125zm0-.3012c-.4488 0-.6534-.3863-.6534-.8238s.2046-.8296.6534-.8296c.4489 0 .6534.3921.6534.8296s-.2045.8238-.6534.8238z"/><path d="m47.6935 54h.3352v-1.3807c0-.294.233-.5113.5511-.5113.0838 0 .1464.0156.1932.0397l.1137-.2841c-.0682-.0483-.1577-.0795-.2784-.0795-.2643 0-.4901.1477-.5682.3636h-.0228v-.3295h-.3238z"/><path d="m51.3252 51.8182h-.4886v-.2216c0-.2159.0909-.3296.3125-.3296.0966 0 .1534.0228.1875.0341l.0966-.2897c-.0512-.0228-.1534-.0569-.3182-.0569-.3125 0-.6136.1875-.6136.5625v.3012h-.3523v.2841h.3523v1.8977h.3352v-1.8977h.4886z"/><path d="m53.17 53.108c0 .4091-.3125.5965-.5625.5965-.2784 0-.4772-.2045-.4772-.5227v-1.3636h-.3353v1.3863c0 .5569.2955.8239.7046.8239.3295 0 .5454-.1761.6477-.3977h.0227v.3693h.3353v-2.1818h-.3353z"/><path d="m55.0681 51.8182h-.4659v-.5227h-.3352v.5227h-.3296v.2841h.3296v1.3636c0 .3807.3068.5625.5909.5625.125 0 .2045-.0227.25-.0398l-.0682-.3011c-.0284.0057-.0738.017-.1477.017-.1477 0-.2898-.0454-.2898-.3295v-1.2727h.4659z"/><path d="m56.9474 53.108c0 .4091-.3125.5965-.5625.5965-.2784 0-.4773-.2045-.4773-.5227v-1.3636h-.3352v1.3863c0 .5569.2954.8239.7045.8239.3296 0 .5455-.1761.6478-.3977h.0227v.3693h.3352v-2.1818h-.3352z"/><path d="m57.8966 54h.3352v-1.3807c0-.294.233-.5113.5512-.5113.0838 0 .1463.0156.1932.0397l.1136-.2841c-.0682-.0483-.1577-.0795-.2784-.0795-.2642 0-.4901.1477-.5682.3636h-.0227v-.3295h-.3239z"/><path d="m60.2801 54.0455c.4432 0 .7671-.2216.8693-.5512l-.3238-.0909c-.0852.2273-.2827.3409-.5455.3409-.3934 0-.6647-.2542-.6804-.7216h1.5838v-.142c0-.8125-.4829-1.0909-.9375-1.0909-.5909 0-.9829.4659-.9829 1.1363 0 .6705.3863 1.1194 1.017 1.1194zm-.6804-1.3125c.0228-.3395.2628-.6421.6463-.6421.3637 0 .5966.2727.5966.6421z"/><path d="m62.8185 54h.3352v-1.3807c0-.294.233-.5113.5511-.5113.0838 0 .1464.0156.1932.0397l.1137-.2841c-.0682-.0483-.1577-.0795-.2784-.0795-.2643 0-.4901.1477-.5682.3636h-.0228v-.3295h-.3238z"/><path d="m65.1736 54.0455c.5909 0 .9886-.4489.9886-1.125 0-.6819-.3977-1.1307-.9886-1.1307s-.9886.4488-.9886 1.1307c0 .6761.3977 1.125.9886 1.125zm0-.3012c-.4489 0-.6534-.3863-.6534-.8238s.2045-.8296.6534-.8296.6534.3921.6534.8296-.2045.8238-.6534.8238z"/><path d="m67.0092 51.0909h-.3352v2.9091h.3352z"/><path d="m68.5379 54.0455c.4432 0 .7671-.2216.8694-.5512l-.3239-.0909c-.0852.2273-.2827.3409-.5455.3409-.3934 0-.6647-.2542-.6804-.7216h1.5839v-.142c0-.8125-.483-1.0909-.9375-1.0909-.591 0-.983.4659-.983 1.1363 0 .6705.3864 1.1194 1.017 1.1194zm-.6804-1.3125c.0228-.3395.2628-.6421.6464-.6421.3636 0 .5965.2727.5965.6421z"/><path d="m71.4967 52.3068c-.1051-.3096-.3409-.517-.7727-.517-.4602 0-.8011.2613-.8011.6307 0 .3011.179.5028.5795.5965l.3637.0853c.2201.0511.3238.1562.3238.3068 0 .1875-.1988.3409-.5113.3409-.2742 0-.4461-.1179-.5057-.3523l-.3182.0796c.0781.3707.3835.5682.8295.5682.5072 0 .8523-.277.8523-.6535 0-.3039-.1903-.4957-.5795-.5909l-.3239-.0795c-.2585-.0639-.375-.1506-.375-.3182 0-.1875.1989-.3239.4659-.3239.2926 0 .4134.162.4716.3125z"/><path d="m72.2855 54.0227c.1406 0 .2556-.115.2556-.2557 0-.1406-.115-.2556-.2556-.2556-.1407 0-.2557.115-.2557.2556 0 .1407.115.2557.2557.2557z"/></g></svg>