<svg fill="none" height="40" viewBox="0 0 91 40" width="91" xmlns="http://www.w3.org/2000/svg"><g fill="#fff"><path d="m2.80686 2.54545c0-.92045-.53977-1.49431-1.28409-1.49431-.744317 0-1.284089.57386-1.284089 1.49431 0 .92046.539772 1.49432 1.284089 1.49432.74432 0 1.28409-.57386 1.28409-1.49432zm-.34091 0c0 .75569-.41477 1.16478-.94318 1.16478-.528407 0-.94318-.40909-.94318-1.16478 0-.75568.414773-1.16477.94318-1.16477.52841 0 .94318.40909.94318 1.16477z"/><path d="m4.72874 3.10795c0 .40909-.3125.59659-.5625.59659-.27841 0-.47728-.20454-.47728-.52272v-1.36364h-.33522v1.38636c0 .55682.29545.82387.70454.82387.32955 0 .54546-.17614.64773-.39773h.02273v.36932h.33522v-2.18182h-.33522z"/><path d="m5.67796 4h.33522v-1.38068c0-.29404.23296-.51137.55114-.51137.08381 0 .14631.01563.19318.03978l.11364-.28409c-.06818-.0483-.15767-.07955-.27841-.07955-.26421 0-.49006.14773-.56818.36364h-.02273v-.32955h-.32386z"/><path d="m8.33811 4.81818h.33523v-1.15341h.02841c.07386.11932.21591.38068.63636.38068.54546 0 .92609-.4375.92609-1.13068 0-.6875-.38063-1.125-.93177-1.125-.42614 0-.55682.26136-.63068.375h-.03977v-.34659h-.32387zm.32955-1.90909c0-.48864.21591-.81818.625-.81818.42614 0 .63636.35795.63636.81818 0 .46591-.21591.83523-.63636.83523-.40341 0-.625-.34091-.625-.83523z"/><path d="m11.4177 4.05114c.3806 0 .5795-.20455.6477-.3466h.017v.29546h.3353v-1.4375c0-.69318-.5285-.77273-.8069-.77273-.3295 0-.7045.11364-.875.51137l.3182.11363c.0739-.15909.2486-.32954.5682-.32954.3082 0 .4602.16335.4602.44318v.01136c0 .16193-.1647.14773-.5625.19887-.4048.05255-.8466.14204-.8466.64204 0 .42614.3296.67046.7444.67046zm.0511-.30114c-.2671 0-.4602-.11932-.4602-.35227 0-.25569.2329-.33523.4943-.36932.142-.01705.5227-.05682.5795-.125v.30682c0 .27272-.2159.53977-.6136.53977z"/><path d="m13.9784 1.81818h-.4659v-.52273h-.3353v.52273h-.3295v.28409h.3295v1.36364c0 .38068.3069.5625.591.5625.125 0 .2045-.02273.25-.03977l-.0682-.30114c-.0284.00568-.0739.01704-.1478.01704-.1477 0-.2897-.04545-.2897-.32954v-1.27273h.4659z"/><path d="m14.4826 4h.3353v-2.18182h-.3353zm.1705-2.54546c.1307 0 .2386-.10227.2386-.22727s-.1079-.227271-.2386-.227271-.2386.102271-.2386.227271.1079.22727.2386.22727z"/><path d="m16.3466 4.04545c.4432 0 .7671-.22159.8694-.55113l-.3239-.09091c-.0852.22727-.2827.34091-.5455.34091-.3934 0-.6647-.25426-.6804-.72159h1.5838v-.14205c0-.8125-.4829-1.09091-.9375-1.09091-.5909 0-.9829.46591-.9829 1.13637 0 .67045.3864 1.11931 1.017 1.11931zm-.6804-1.3125c.0228-.33949.2628-.64204.6463-.64204.3637 0 .5966.27273.5966.64204z"/><path d="m18.0952 2.6875c0-.38068.2358-.59659.5568-.59659.3111 0 .5.20312.5.54545v1.36364h.3353v-1.38636c0-.55682-.2969-.82387-.7387-.82387-.3295 0-.5341.14773-.6363.36932h-.0284v-.34091h-.3239v2.18182h.3352z"/><path d="m21.0487 1.81818h-.4659v-.52273h-.3352v.52273h-.3296v.28409h.3296v1.36364c0 .38068.3068.5625.5909.5625.125 0 .2045-.02273.25-.03977l-.0682-.30114c-.0284.00568-.0739.01704-.1477.01704-.1478 0-.2898-.04545-.2898-.32954v-1.27273h.4659z"/><path d="m23.0593 2.30682c-.1051-.30966-.3409-.51705-.7727-.51705-.4602 0-.8011.26137-.8011.63068 0 .30114.179.50284.5795.59659l.3637.08523c.2201.05114.3238.15625.3238.30682 0 .1875-.1988.34091-.5113.34091-.2742 0-.4461-.1179-.5057-.35227l-.3182.07954c.0781.37074.3835.56818.8295.56818.5071 0 .8523-.27699.8523-.65341 0-.30397-.1903-.49573-.5795-.5909l-.3239-.07955c-.2585-.06392-.375-.15057-.375-.31818 0-.1875.1989-.32387.4659-.32387.2926 0 .4134.16194.4716.3125z"/><path d="m25.3708 4.05114c.3807 0 .5795-.20455.6477-.3466h.0171v.29546h.3352v-1.4375c0-.69318-.5284-.77273-.8068-.77273-.3296 0-.7046.11364-.875.51137l.3181.11363c.0739-.15909.2486-.32954.5682-.32954.3083 0 .4603.16335.4603.44318v.01136c0 .16193-.1648.14773-.5625.19887-.4049.05255-.8466.14204-.8466.64204 0 .42614.3295.67046.7443.67046zm.0511-.30114c-.267 0-.4602-.11932-.4602-.35227 0-.25569.2329-.33523.4943-.36932.1421-.01705.5227-.05682.5796-.125v.30682c0 .27272-.216.53977-.6137.53977z"/><path d="m26.9826 4h.3353v-1.38068c0-.29404.2329-.51137.5511-.51137.0838 0 .1463.01563.1932.03978l.1136-.28409c-.0682-.0483-.1576-.07955-.2784-.07955-.2642 0-.49.14773-.5682.36364h-.0227v-.32955h-.3239z"/><path d="m29.3662 4.04545c.4431 0 .767-.22159.8693-.55113l-.3239-.09091c-.0852.22727-.2826.34091-.5454.34091-.3935 0-.6648-.25426-.6804-.72159h1.5838v-.14205c0-.8125-.483-1.09091-.9375-1.09091-.5909 0-.983.46591-.983 1.13637 0 .67045.3864 1.11931 1.0171 1.11931zm-.6804-1.3125c.0227-.33949.2628-.64204.6463-.64204.3636 0 .5966.27273.5966.64204z"/><path d="m32.8761 1.81818h-.4886v-.22159c0-.21591.0909-.32955.3125-.32955.0966 0 .1534.02273.1875.0341l.0966-.28978c-.0512-.022725-.1534-.056816-.3182-.056816-.3125 0-.6137.187496-.6137.562496v.30114h-.3522v.28409h.3522v1.89773h.3353v-1.89773h.4886z"/><path d="m33.3459 4h.3353v-2.18182h-.3353zm.1705-2.54546c.1307 0 .2386-.10227.2386-.22727s-.1079-.227271-.2386-.227271-.2387.102271-.2387.227271.108.22727.2387.22727z"/><path d="m35.1758 4.86364c.5228 0 .9432-.23864.9432-.80114v-2.24432h-.3239v.34659h-.034c-.0739-.11364-.2103-.375-.6364-.375-.5511 0-.9318.4375-.9318 1.10796 0 .68181.3977 1.06818.9261 1.06818.4261 0 .5625-.25.6364-.36932h.0284v.44318c0 .36364-.2557.52841-.608.52841-.3963 0-.5355-.20881-.625-.32954l-.267.1875c.1363.22869.4048.4375.892.4375zm-.0113-1.19887c-.4205 0-.6364-.31818-.6364-.77273 0-.44318.2102-.80113.6364-.80113.4091 0 .625.32954.625.80113 0 .48296-.2216.77273-.625.77273z"/><path d="m37.0679 2.6875c0-.38068.2429-.59659.5738-.59659.3154 0 .5057.19886.5057.54545v1.36364h.3352v-1.38636c0-.56108-.2983-.82387-.7443-.82387-.3437 0-.5397.14347-.642.36932h-.0284v-1.06818h-.3353v2.90909h.3353z"/><path d="m40.0448 1.81818h-.4659v-.52273h-.3352v.52273h-.3296v.28409h.3296v1.36364c0 .38068.3068.5625.5909.5625.125 0 .2045-.02273.25-.03977l-.0682-.30114c-.0284.00568-.0739.01704-.1477.01704-.1478 0-.2898-.04545-.2898-.32954v-1.27273h.4659z"/><path d="m40.5491 4h.3352v-2.18182h-.3352zm.1704-2.54546c.1307 0 .2386-.10227.2386-.22727s-.1079-.227271-.2386-.227271-.2386.102271-.2386.227271.1079.22727.2386.22727z"/><path d="m41.8335 2.6875c0-.38068.2358-.59659.5568-.59659.3111 0 .5.20312.5.54545v1.36364h.3352v-1.38636c0-.55682-.2968-.82387-.7386-.82387-.3295 0-.5341.14773-.6364.36932h-.0284v-.34091h-.3238v2.18182h.3352z"/><path d="m44.7188 4.86364c.5227 0 .9432-.23864.9432-.80114v-2.24432h-.3239v.34659h-.0341c-.0738-.11364-.2102-.375-.6363-.375-.5512 0-.9319.4375-.9319 1.10796 0 .68181.3978 1.06818.9262 1.06818.4261 0 .5625-.25.6363-.36932h.0285v.44318c0 .36364-.2557.52841-.608.52841-.3963 0-.5355-.20881-.625-.32954l-.267.1875c.1363.22869.4048.4375.892.4375zm-.0114-1.19887c-.4204 0-.6363-.31818-.6363-.77273 0-.44318.2102-.80113.6363-.80113.4091 0 .625.32954.625.80113 0 .48296-.2216.77273-.625.77273z"/><path d="m48.287 4.04545c.4829 0 .8011-.29545.8579-.68181h-.3352c-.0625.23863-.2614.38068-.5227.38068-.3978 0-.6534-.32955-.6534-.83523 0-.49432.2613-.81818.6534-.81818.2954 0 .4716.18182.5227.38068h.3352c-.0568-.40909-.4034-.68182-.8636-.68182-.5909 0-.983.46591-.983 1.13068 0 .65341.375 1.125.9887 1.125z"/><path d="m50.277 4.05114c.3807 0 .5796-.20455.6478-.3466h.017v.29546h.3352v-1.4375c0-.69318-.5284-.77273-.8068-.77273-.3295 0-.7045.11364-.875.51137l.3182.11363c.0739-.15909.2486-.32954.5682-.32954.3082 0 .4602.16335.4602.44318v.01136c0 .16193-.1648.14773-.5625.19887-.4048.05255-.8466.14204-.8466.64204 0 .42614.3296.67046.7443.67046zm.0512-.30114c-.2671 0-.4603-.11932-.4603-.35227 0-.25569.233-.33523.4944-.36932.142-.01705.5227-.05682.5795-.125v.30682c0 .27272-.2159.53977-.6136.53977z"/><path d="m52.2241 2.6875c0-.38068.2358-.59659.5568-.59659.3111 0 .5.20312.5.54545v1.36364h.3353v-1.38636c0-.55682-.2969-.82387-.7387-.82387-.3295 0-.5341.14773-.6363.36932h-.0284v-.34091h-.3239v2.18182h.3352z"/><path d="m55.1151 4.04545c.483 0 .8011-.29545.858-.68181h-.3353c-.0625.23863-.2613.38068-.5227.38068-.3977 0-.6534-.32955-.6534-.83523 0-.49432.2614-.81818.6534-.81818.2955 0 .4716.18182.5227.38068h.3353c-.0569-.40909-.4035-.68182-.8637-.68182-.5909 0-.9829.46591-.9829 1.13068 0 .65341.375 1.125.9886 1.125z"/><path d="m57.3779 4.04545c.4432 0 .767-.22159.8693-.55113l-.3239-.09091c-.0852.22727-.2826.34091-.5454.34091-.3935 0-.6648-.25426-.6804-.72159h1.5838v-.14205c0-.8125-.483-1.09091-.9375-1.09091-.5909 0-.983.46591-.983 1.13637 0 .67045.3864 1.11931 1.0171 1.11931zm-.6804-1.3125c.0227-.33949.2628-.64204.6463-.64204.3636 0 .5966.27273.5966.64204z"/><path d="m58.7912 4h.3353v-1.38068c0-.29404.2329-.51137.5511-.51137.0838 0 .1463.01563.1932.03978l.1136-.28409c-.0682-.0483-.1576-.07955-.2784-.07955-.2642 0-.49.14773-.5682.36364h-.0227v-.32955h-.3239z"/><path d="m60.5764 3.60227h-.3636l-.0171.15909c-.0412.38495-.1221.76847-.1591.94887h.2557c.0682-.19319.2131-.63069.2614-.95455z"/><path d="m62.6577 1.09091h-.3352v2.90909h.3352z"/><path d="m63.2717 4h.3352v-2.18182h-.3352zm.1705-2.54546c.1306 0 .2386-.10227.2386-.22727s-.108-.227271-.2386-.227271c-.1307 0-.2387.102271-.2387.227271s.108.22727.2387.22727z"/><path d="m66.005 1.81818h-.3636l-.6023 1.73864h-.0227l-.6023-1.73864h-.3636l.8068 2.18182h.3409z"/><path d="m66.5842 4h.3352v-2.18182h-.3352zm.1705-2.54546c.1306 0 .2386-.10227.2386-.22727s-.108-.227271-.2386-.227271c-.1307 0-.2387.102271-.2387.227271s.108.22727.2387.22727z"/><path d="m67.8687 2.6875c0-.38068.2357-.59659.5568-.59659.311 0 .5.20312.5.54545v1.36364h.3352v-1.38636c0-.55682-.2969-.82387-.7386-.82387-.3296 0-.5341.14773-.6364.36932h-.0284v-.34091h-.3239v2.18182h.3353z"/><path d="m70.754 4.86364c.5227 0 .9431-.23864.9431-.80114v-2.24432h-.3238v.34659h-.0341c-.0739-.11364-.2103-.375-.6364-.375-.5511 0-.9318.4375-.9318 1.10796 0 .68181.3977 1.06818.9261 1.06818.4262 0 .5625-.25.6364-.36932h.0284v.44318c0 .36364-.2557.52841-.6079.52841-.3964 0-.5356-.20881-.625-.32954l-.2671.1875c.1364.22869.4048.4375.8921.4375zm-.0114-1.19887c-.4205 0-.6364-.31818-.6364-.77273 0-.44318.2103-.80113.6364-.80113.4091 0 .625.32954.625.80113 0 .48296-.2216.77273-.625.77273z"/><path d="m73.9301 4h.3295l.4773-1.67614h.0341l.4773 1.67614h.3295l.6648-2.18182h-.3523l-.4716 1.66477h-.0227l-.4602-1.66477h-.358l-.4659 1.67046h-.0227l-.4716-1.67046h-.3523z"/><path d="m76.6858 4h.3352v-2.18182h-.3352zm.1704-2.54546c.1307 0 .2387-.10227.2387-.22727s-.108-.227271-.2387-.227271-.2386.102271-.2386.227271.1079.22727.2386.22727z"/><path d="m78.5839 1.81818h-.466v-.52273h-.3352v.52273h-.3295v.28409h.3295v1.36364c0 .38068.3068.5625.5909.5625.125 0 .2046-.02273.25-.03977l-.0682-.30114c-.0284.00568-.0738.01704-.1477.01704-.1477 0-.2898-.04545-.2898-.32954v-1.27273h.466z"/><path d="m79.4702 2.6875c0-.38068.2429-.59659.5739-.59659.3153 0 .5057.19886.5057.54545v1.36364h.3352v-1.38636c0-.56108-.2983-.82387-.7443-.82387-.3438 0-.5398.14347-.6421.36932h-.0284v-1.06818h-.3352v2.90909h.3352z"/><path d="m.64209 6.09091h-.335227v2.90909h.335227z"/><path d="m2.14245 9.04545c.5909 0 .98863-.44886.98863-1.125 0-.68182-.39773-1.13068-.98863-1.13068-.59091 0-.98864.44886-.98864 1.13068 0 .67614.39773 1.125.98864 1.125zm0-.30113c-.44887 0-.65341-.38637-.65341-.82387s.20454-.82954.65341-.82954c.44886 0 .6534.39204.6534.82954s-.20454.82387-.6534.82387z"/><path d="m3.97803 7.6875c0-.38068.23579-.59659.55682-.59659.31107 0 .5.20312.5.54545v1.36364h.33522v-1.38636c0-.55682-.29687-.82387-.73863-.82387-.32955 0-.53409.14773-.63637.36932h-.02841v-.34091h-.32386v2.18182h.33523z"/><path d="m6.86333 9.86364c.52272 0 .94318-.23864.94318-.80114v-2.24432h-.32387v.34659h-.03409c-.07386-.11364-.21022-.375-.63636-.375-.55114 0-.93182.4375-.93182 1.10796 0 .68181.39773 1.06818.92614 1.06818.42613 0 .5625-.25.63636-.36932h.02841v.44318c0 .36364-.25568.52841-.60795.52841-.39631 0-.53552-.20881-.625-.32954l-.26705.1875c.13636.22869.40483.4375.89205.4375zm-.01137-1.19887c-.42045 0-.63636-.31818-.63636-.77273 0-.44318.21023-.80113.63636-.80113.40909 0 .625.32954.625.80113 0 .48296-.22159.77273-.625.77273z"/><path d="m9.67014 7.59659h-1.27272v.3125h1.27272z"/><path d="m11.2089 6.81818h-.466v-.52273h-.3352v.52273h-.3295v.28409h.3295v1.36364c0 .38068.3068.5625.5909.5625.125 0 .2046-.02273.25-.03977l-.0682-.30114c-.0284.00568-.0738.01704-.1477.01704-.1477 0-.2898-.04545-.2898-.32954v-1.27273h.466z"/><path d="m12.6044 9.04545c.4432 0 .7671-.22159.8694-.55113l-.3239-.09091c-.0852.22727-.2827.34091-.5455.34091-.3934 0-.6647-.25426-.6803-.72159h1.5838v-.14205c0-.8125-.483-1.09091-.9375-1.09091-.591 0-.983.46591-.983 1.13637 0 .67045.3864 1.11931 1.017 1.11931zm-.6803-1.3125c.0227-.33949.2627-.64204.6463-.64204.3636 0 .5965.27272.5965.64204z"/><path d="m14.0178 9h.3352v-1.38068c0-.29546.233-.51137.5512-.51137.0895 0 .1818.01705.2045.02273v-.34091c-.0383-.00284-.1264-.00568-.1761-.00568-.2614 0-.4887.14773-.5682.36364h-.0227v-.32955h-.3239z"/><path d="m15.5061 9h.3352v-1.36364c0-.3196.233-.54545.4943-.54545.2543 0 .4318.16619.4318.41477v1.49432h.341v-1.42046c0-.28125.1761-.48863.4829-.48863.2386 0 .4432.12642.4432.44886v1.46023h.3352v-1.46023c0-.51278-.2756-.75-.6648-.75-.3125 0-.5411.14347-.6534.36932h-.0227c-.1079-.23295-.2983-.36932-.5852-.36932-.2841 0-.4943.13637-.5852.36932h-.0285v-.34091h-.3238z"/><path d="m20.9315 9.04545c.4205 0 .5625-.26136.6364-.38068h.0397v.33523h.3239v-2.90909h-.3352v1.07386h-.0284c-.0739-.11364-.2046-.375-.6307-.375-.5511 0-.9318.4375-.9318 1.125 0 .69318.3807 1.13068.9261 1.13068zm.0455-.30113c-.4205 0-.6364-.36932-.6364-.83523 0-.46023.2102-.81818.6364-.81818.4091 0 .625.32954.625.81818 0 .49432-.2216.83523-.625.83523z"/><path d="m22.592 9h.3352v-2.18182h-.3352zm.1705-2.54546c.1307 0 .2386-.10227.2386-.22727s-.1079-.22727-.2386-.22727-.2387.10227-.2387.22727.108.22727.2387.22727z"/><path d="m25.0867 7.30682c-.1051-.30966-.3409-.51705-.7727-.51705-.4603 0-.8012.26136-.8012.63068 0 .30114.179.50284.5796.59659l.3636.08523c.2202.05114.3239.15625.3239.30682 0 .1875-.1989.34091-.5114.34091-.2741 0-.446-.1179-.5057-.35227l-.3182.07954c.0782.37074.3836.56818.8296.56818.5071 0 .8523-.27699.8523-.65341 0-.30397-.1904-.49573-.5796-.5909l-.3238-.07955c-.2586-.06392-.375-.15057-.375-.31818 0-.1875.1988-.32387.4659-.32387.2926 0 .4133.16194.4716.3125z"/><path d="m26.5459 9.04545c.4431 0 .767-.22159.8693-.55113l-.3239-.09091c-.0852.22727-.2827.34091-.5454.34091-.3935 0-.6648-.25426-.6804-.72159h1.5838v-.14205c0-.8125-.483-1.09091-.9375-1.09091-.5909 0-.983.46591-.983 1.13637 0 .67045.3864 1.11931 1.0171 1.11931zm-.6804-1.3125c.0227-.33949.2627-.64204.6463-.64204.3636 0 .5966.27272.5966.64204z"/><path d="m28.6013 9.05114c.3806 0 .5795-.20455.6477-.3466h.017v.29546h.3353v-1.4375c0-.69318-.5285-.77273-.8069-.77273-.3295 0-.7045.11364-.875.51137l.3182.11363c.0739-.15909.2486-.32954.5682-.32954.3082 0 .4602.16335.4602.44318v.01136c0 .16193-.1647.14773-.5625.19887-.4048.05255-.8466.14204-.8466.64204 0 .42614.3296.67046.7444.67046zm.0511-.30114c-.2671 0-.4602-.11932-.4602-.35227 0-.25569.2329-.33523.4943-.36932.142-.01705.5227-.05682.5795-.125v.30682c0 .27272-.2159.53977-.6136.53977z"/><path d="m31.7586 7.30682c-.1051-.30966-.3409-.51705-.7728-.51705-.4602 0-.8011.26136-.8011.63068 0 .30114.179.50284.5795.59659l.3637.08523c.2202.05114.3238.15625.3238.30682 0 .1875-.1988.34091-.5113.34091-.2742 0-.446-.1179-.5057-.35227l-.3182.07954c.0781.37074.3835.56818.8296.56818.5071 0 .8522-.27699.8522-.65341 0-.30397-.1903-.49573-.5795-.5909l-.3239-.07955c-.2585-.06392-.375-.15057-.375-.31818 0-.1875.1989-.32387.4659-.32387.2927 0 .4134.16194.4716.3125z"/><path d="m33.2177 9.04545c.4432 0 .7671-.22159.8693-.55113l-.3238-.09091c-.0852.22727-.2827.34091-.5455.34091-.3934 0-.6647-.25426-.6804-.72159h1.5838v-.14205c0-.8125-.4829-1.09091-.9375-1.09091-.5909 0-.9829.46591-.9829 1.13637 0 .67045.3863 1.11931 1.017 1.11931zm-.6804-1.3125c.0228-.33949.2628-.64204.6463-.64204.3637 0 .5966.27272.5966.64204z"/><path d="m36.6424 9.04545c.591 0 .9887-.44886.9887-1.125 0-.68182-.3977-1.13068-.9887-1.13068-.5909 0-.9886.44886-.9886 1.13068 0 .67614.3977 1.125.9886 1.125zm0-.30113c-.4488 0-.6534-.38637-.6534-.82387s.2046-.82954.6534-.82954c.4489 0 .6535.39204.6535.82954s-.2046.82387-.6535.82387z"/><path d="m38.1428 9h.3352v-1.38068c0-.29404.233-.51137.5512-.51137.0838 0 .1463.01563.1931.03978l.1137-.28409c-.0682-.0483-.1577-.07955-.2784-.07955-.2642 0-.4901.14773-.5682.36364h-.0227v-.32955h-.3239z"/><path d="m40.803 9h.3352v-2.18182h-.3352zm.1704-2.54546c.1307 0 .2386-.10227.2386-.22727s-.1079-.22727-.2386-.22727-.2386.10227-.2386.22727.1079.22727.2386.22727z"/><path d="m42.0874 7.6875c0-.38068.2358-.59659.5568-.59659.3111 0 .5.20312.5.54545v1.36364h.3353v-1.38636c0-.55682-.2969-.82387-.7387-.82387-.3295 0-.5341.14773-.6363.36932h-.0285v-.34091h-.3238v2.18182h.3352z"/><path d="m45.5522 7.6875c0-.38068.2358-.59659.5569-.59659.311 0 .5.20312.5.54545v1.36364h.3352v-1.38636c0-.55682-.2969-.82387-.7386-.82387-.3296 0-.5341.14773-.6364.36932h-.0284v-.34091h-.3239v2.18182h.3352z"/><path d="m48.4716 9.04545c.4432 0 .7671-.22159.8694-.55113l-.3239-.09091c-.0852.22727-.2827.34091-.5455.34091-.3934 0-.6647-.25426-.6804-.72159h1.5838v-.14205c0-.8125-.4829-1.09091-.9375-1.09091-.5909 0-.9829.46591-.9829 1.13637 0 .67045.3864 1.11931 1.017 1.11931zm-.6804-1.3125c.0228-.33949.2628-.64204.6463-.64204.3637 0 .5966.27272.5966.64204z"/><path d="m50.7998 9.04545c.4431 0 .767-.22159.8693-.55113l-.3239-.09091c-.0852.22727-.2827.34091-.5454.34091-.3935 0-.6648-.25426-.6804-.72159h1.5838v-.14205c0-.8125-.483-1.09091-.9375-1.09091-.5909 0-.983.46591-.983 1.13637 0 .67045.3864 1.11931 1.0171 1.11931zm-.6804-1.3125c.0227-.33949.2627-.64204.6463-.64204.3636 0 .5966.27272.5966.64204z"/><path d="m53.037 9.04545c.4204 0 .5625-.26136.6363-.38068h.0398v.33523h.3239v-2.90909h-.3352v1.07386h-.0285c-.0738-.11364-.2045-.375-.6306-.375-.5512 0-.9319.4375-.9319 1.125 0 .69318.3807 1.13068.9262 1.13068zm.0454-.30113c-.4204 0-.6363-.36932-.6363-.83523 0-.46023.2102-.81818.6363-.81818.4091 0 .625.32954.625.81818 0 .49432-.2216.83523-.625.83523z"/><path d="m56.7089 9.04545c.5909 0 .9886-.44886.9886-1.125 0-.68182-.3977-1.13068-.9886-1.13068-.591 0-.9887.44886-.9887 1.13068 0 .67614.3977 1.125.9887 1.125zm0-.30113c-.4489 0-.6535-.38637-.6535-.82387s.2046-.82954.6535-.82954c.4488 0 .6534.39204.6534.82954s-.2046.82387-.6534.82387z"/><path d="m59.1808 6.81818h-.4886v-.22159c0-.21591.0909-.32955.3125-.32955.0966 0 .1534.02273.1875.0341l.0966-.28978c-.0512-.02273-.1535-.05682-.3182-.05682-.3125 0-.6137.1875-.6137.5625v.30114h-.3522v.28409h.3522v1.89773h.3353v-1.89773h.4886z"/><path d="m60.7756 9.81818h.3352v-1.15341h.0285c.0738.11932.2159.38068.6363.38068.5455 0 .9262-.4375.9262-1.13068 0-.6875-.3807-1.125-.9319-1.125-.4261 0-.5568.26136-.6306.375h-.0398v-.34659h-.3239zm.3296-1.90909c0-.48864.2159-.81818.625-.81818.4261 0 .6363.35795.6363.81818 0 .46591-.2159.83523-.6363.83523-.4034 0-.625-.34091-.625-.83523z"/><path d="m63.8552 9.05114c.3806 0 .5795-.20455.6477-.3466h.017v.29546h.3353v-1.4375c0-.69318-.5285-.77273-.8069-.77273-.3295 0-.7045.11364-.875.51137l.3182.11363c.0739-.15909.2486-.32954.5682-.32954.3082 0 .4602.16335.4602.44318v.01136c0 .16193-.1647.14773-.5625.19887-.4048.05255-.8466.14204-.8466.64204 0 .42614.3296.67046.7444.67046zm.0511-.30114c-.267 0-.4602-.11932-.4602-.35227 0-.25569.2329-.33523.4943-.36932.142-.01705.5227-.05682.5795-.125v.30682c0 .27272-.2159.53977-.6136.53977z"/><path d="m65.467 9h.3352v-2.18182h-.3352zm.1705-2.54546c.1307 0 .2386-.10227.2386-.22727s-.1079-.22727-.2386-.22727-.2387.10227-.2387.22727.108.22727.2387.22727z"/><path d="m66.7515 7.6875c0-.38068.2358-.59659.5568-.59659.3111 0 .5.20312.5.54545v1.36364h.3352v-1.38636c0-.55682-.2969-.82387-.7386-.82387-.3296 0-.5341.14773-.6364.36932h-.0284v-.34091h-.3239v2.18182h.3353z"/><path d="m69.8811 9h.3352v-1.38068c0-.29404.233-.51137.5511-.51137.0839 0 .1463.01563.1932.03978l.1137-.28409c-.0682-.0483-.1577-.07955-.2784-.07955-.2643 0-.4901.14773-.5682.36364h-.0228v-.32955h-.3238z"/><path d="m72.2646 9.04545c.4432 0 .7671-.22159.8693-.55113l-.3238-.09091c-.0853.22727-.2827.34091-.5455.34091-.3935 0-.6648-.25426-.6804-.72159h1.5838v-.14205c0-.8125-.4829-1.09091-.9375-1.09091-.5909 0-.9829.46591-.9829 1.13637 0 .67045.3863 1.11931 1.017 1.11931zm-.6804-1.3125c.0227-.33949.2628-.64204.6463-.64204.3637 0 .5966.27272.5966.64204z"/><path d="m74.0132 6.09091h-.3352v2.90909h.3352z"/><path d="m74.6272 9h.3352v-2.18182h-.3352zm.1704-2.54546c.1307 0 .2387-.10227.2387-.22727s-.108-.22727-.2387-.22727-.2386.10227-.2386.22727.1079.22727.2386.22727z"/><path d="m76.4912 9.04545c.4431 0 .767-.22159.8693-.55113l-.3239-.09091c-.0852.22727-.2827.34091-.5454.34091-.3935 0-.6648-.25426-.6804-.72159h1.5838v-.14205c0-.8125-.483-1.09091-.9375-1.09091-.5909 0-.983.46591-.983 1.13637 0 .67045.3864 1.11931 1.0171 1.11931zm-.6804-1.3125c.0227-.33949.2628-.64204.6463-.64204.3636 0 .5966.27272.5966.64204z"/><path d="m78.8761 6.81818h-.4886v-.22159c0-.21591.0909-.32955.3125-.32955.0966 0 .1534.02273.1875.0341l.0966-.28978c-.0512-.02273-.1534-.05682-.3182-.05682-.3125 0-.6137.1875-.6137.5625v.30114h-.3522v.28409h.3522v1.89773h.3353v-1.89773h.4886z"/><path d="m79.3637 9.02273c.1406 0 .2557-.11506.2557-.25569 0-.14062-.1151-.25568-.2557-.25568s-.2557.11506-.2557.25568c0 .14063.1151.25569.2557.25569z"/><path d="m81.2323 6.40341h.9148v2.59659h.3522v-2.59659h.9148v-.3125h-2.1818z"/><path d="m84.2476 7.6875c0-.38068.2429-.59659.5738-.59659.3154 0 .5057.19886.5057.54545v1.36364h.3352v-1.38636c0-.56108-.2983-.82387-.7443-.82387-.3437 0-.5398.14347-.642.36932h-.0284v-1.06818h-.3353v2.90909h.3353z"/><path d="m87.1904 9.04545c.4432 0 .767-.22159.8693-.55113l-.3239-.09091c-.0852.22727-.2826.34091-.5454.34091-.3935 0-.6648-.25426-.6804-.72159h1.5838v-.14205c0-.8125-.483-1.09091-.9375-1.09091-.5909 0-.983.46591-.983 1.13637 0 .67045.3864 1.11931 1.0171 1.11931zm-.6804-1.3125c.0227-.33949.2628-.64204.6463-.64204.3636 0 .5966.27272.5966.64204z"/><path d="m88.8083 9.84659c.3068 0 .517-.15909.642-.49432l.9375-2.53409h-.3636l-.6023 1.73864h-.0227l-.6023-1.73864h-.3636l.8068 2.19318-.0739.20455c-.1179.3267-.2727.35795-.517.29545l-.0852.29546c.0341.01704.1306.03977.2443.03977z"/><path d="m.948908 14.0511c.380682 0 .579542-.2045.647732-.3466h.01704v.2955h.33523v-1.4375c0-.6932-.52841-.7727-.80682-.7727-.329546 0-.704546.1136-.875.5113l.318182.1137c.073863-.1591.248579-.3296.568178-.3296.30824 0 .46023.1634.46023.4432v.0114c0 .1619-.16477.1477-.5625.1988-.404829.0526-.84659.1421-.84659.6421 0 .4261.329545.6704.744318.6704zm.051132-.3011c-.267041 0-.460223-.1193-.460223-.3523 0-.2557.232955-.3352.494323-.3693.14204-.017.52272-.0568.57954-.125v.3068c0 .2728-.21591.5398-.61364.5398z"/><path d="m2.56077 14h.33523v-1.3807c0-.294.23295-.5113.55113-.5113.08381 0 .14631.0156.19318.0397l.11364-.2841c-.06818-.0483-.15767-.0795-.27841-.0795-.2642 0-.49006.1477-.56818.3636h-.02273v-.3295h-.32386z"/><path d="m4.94429 14.0455c.44318 0 .76705-.2216.86932-.5512l-.32386-.0909c-.08523.2273-.28267.3409-.54546.3409-.39346 0-.66477-.2542-.6804-.7216h1.58381v-.142c0-.8125-.48295-1.0909-.9375-1.0909-.59091 0-.98295.4659-.98295 1.1363 0 .6705.38636 1.1194 1.01704 1.1194zm-.6804-1.3125c.02273-.3395.26279-.6421.64631-.6421.36364 0 .59659.2727.59659.6421z"/><path d="m8.30651 14.0455c.42045 0 .5625-.2614.63636-.3807h.03977v.3352h.32387v-2.9091h-.33523v1.0739h-.02841c-.07386-.1137-.20454-.375-.63068-.375-.55114 0-.93182.4375-.93182 1.125 0 .6932.38068 1.1307.92614 1.1307zm.04545-.3012c-.42045 0-.63636-.3693-.63636-.8352 0-.4602.21023-.8182.63636-.8182.40909 0 .625.3296.625.8182 0 .4943-.22159.8352-.625.8352z"/><path d="m10.8818 14.0455c.4432 0 .767-.2216.8693-.5512l-.3239-.0909c-.0852.2273-.2826.3409-.5454.3409-.3935 0-.6648-.2542-.6804-.7216h1.5838v-.142c0-.8125-.483-1.0909-.9375-1.0909-.5909 0-.98295.4659-.98295 1.1363 0 .6705.38635 1.1194 1.01705 1.1194zm-.6804-1.3125c.0227-.3395.2628-.6421.6463-.6421.3636 0 .5966.2727.5966.6421z"/><path d="m12.2951 14.8182h.3353v-1.1534h.0284c.0738.1193.2159.3807.6363.3807.5455 0 .9262-.4375.9262-1.1307 0-.6875-.3807-1.125-.9318-1.125-.4262 0-.5569.2613-.6307.375h-.0398v-.3466h-.3239zm.3296-1.9091c0-.4886.2159-.8182.625-.8182.4261 0 .6364.358.6364.8182 0 .4659-.216.8352-.6364.8352-.4034 0-.625-.3409-.625-.8352z"/><path d="m15.6474 14.0455c.4432 0 .7671-.2216.8693-.5512l-.3238-.0909c-.0853.2273-.2827.3409-.5455.3409-.3934 0-.6648-.2542-.6804-.7216h1.5838v-.142c0-.8125-.4829-1.0909-.9375-1.0909-.5909 0-.9829.4659-.9829 1.1363 0 .6705.3863 1.1194 1.017 1.1194zm-.6804-1.3125c.0227-.3395.2628-.6421.6463-.6421.3637 0 .5966.2727.5966.6421z"/><path d="m17.396 12.6875c0-.3807.2358-.5966.5568-.5966.3111 0 .5.2031.5.5455v1.3636h.3352v-1.3864c0-.5568-.2968-.8238-.7386-.8238-.3295 0-.5341.1477-.6364.3693h-.0284v-.3409h-.3238v2.1818h.3352z"/><path d="m20.2245 14.0455c.4204 0 .5625-.2614.6363-.3807h.0398v.3352h.3239v-2.9091h-.3353v1.0739h-.0284c-.0738-.1137-.2045-.375-.6306-.375-.5512 0-.9319.4375-.9319 1.125 0 .6932.3807 1.1307.9262 1.1307zm.0454-.3012c-.4204 0-.6363-.3693-.6363-.8352 0-.4602.2102-.8182.6363-.8182.4091 0 .625.3296.625.8182 0 .4943-.2216.8352-.625.8352z"/><path d="m22.7998 14.0455c.4431 0 .767-.2216.8693-.5512l-.3239-.0909c-.0852.2273-.2827.3409-.5454.3409-.3935 0-.6648-.2542-.6804-.7216h1.5838v-.142c0-.8125-.483-1.0909-.9375-1.0909-.5909 0-.983.4659-.983 1.1363 0 .6705.3864 1.1194 1.0171 1.1194zm-.6804-1.3125c.0227-.3395.2627-.6421.6463-.6421.3636 0 .5966.2727.5966.6421z"/><path d="m24.5483 12.6875c0-.3807.2358-.5966.5569-.5966.311 0 .5.2031.5.5455v1.3636h.3352v-1.3864c0-.5568-.2969-.8238-.7387-.8238-.3295 0-.534.1477-.6363.3693h-.0284v-.3409h-.3239v2.1818h.3352z"/><path d="m27.5018 11.8182h-.4659v-.5227h-.3352v.5227h-.3296v.2841h.3296v1.3636c0 .3807.3068.5625.5909.5625.125 0 .2045-.0227.25-.0398l-.0682-.3011c-.0284.0057-.0739.017-.1477.017-.1477 0-.2898-.0454-.2898-.3295v-1.2727h.4659z"/><path d="m30.0174 14.0455c.591 0 .9887-.4489.9887-1.125 0-.6819-.3977-1.1307-.9887-1.1307-.5909 0-.9886.4488-.9886 1.1307 0 .6761.3977 1.125.9886 1.125zm0-.3012c-.4488 0-.6534-.3863-.6534-.8238s.2046-.8296.6534-.8296c.4489 0 .6535.3921.6535.8296s-.2046.8238-.6535.8238z"/><path d="m31.853 12.6875c0-.3807.2358-.5966.5568-.5966.3111 0 .5.2031.5.5455v1.3636h.3353v-1.3864c0-.5568-.2969-.8238-.7387-.8238-.3295 0-.5341.1477-.6363.3693h-.0284v-.3409h-.3239v2.1818h.3352z"/><path d="m35.3179 12.6875c0-.3807.2429-.5966.5738-.5966.3154 0 .5057.1989.5057.5455v1.3636h.3352v-1.3864c0-.561-.2983-.8238-.7443-.8238-.3437 0-.5397.1434-.642.3693h-.0284v-1.0682h-.3353v2.9091h.3353z"/><path d="m38.2607 14.0455c.4432 0 .767-.2216.8693-.5512l-.3238-.0909c-.0853.2273-.2827.3409-.5455.3409-.3935 0-.6648-.2542-.6804-.7216h1.5838v-.142c0-.8125-.4829-1.0909-.9375-1.0909-.5909 0-.9829.4659-.9829 1.1363 0 .6705.3863 1.1194 1.017 1.1194zm-.6804-1.3125c.0227-.3395.2628-.6421.6463-.6421.3636 0 .5966.2727.5966.6421z"/><path d="m40.3161 14.0511c.3807 0 .5795-.2045.6477-.3466h.0171v.2955h.3352v-1.4375c0-.6932-.5284-.7727-.8068-.7727-.3296 0-.7046.1136-.875.5113l.3182.1137c.0738-.1591.2485-.3296.5681-.3296.3083 0 .4603.1634.4603.4432v.0114c0 .1619-.1648.1477-.5625.1988-.4049.0526-.8466.1421-.8466.6421 0 .4261.3295.6704.7443.6704zm.0511-.3011c-.267 0-.4602-.1193-.4602-.3523 0-.2557.233-.3352.4943-.3693.1421-.017.5228-.0568.5796-.125v.3068c0 .2728-.2159.5398-.6137.5398z"/><path d="m42.2632 11.0909h-.3352v2.9091h.3352z"/><path d="m43.826 11.8182h-.4659v-.5227h-.3352v.5227h-.3295v.2841h.3295v1.3636c0 .3807.3068.5625.5909.5625.125 0 .2046-.0227.25-.0398l-.0682-.3011c-.0284.0057-.0738.017-.1477.017-.1477 0-.2898-.0454-.2898-.3295v-1.2727h.4659z"/><path d="m44.7124 12.6875c0-.3807.2429-.5966.5739-.5966.3153 0 .5057.1989.5057.5455v1.3636h.3352v-1.3864c0-.561-.2983-.8238-.7443-.8238-.3438 0-.5398.1434-.6421.3693h-.0284v-1.0682h-.3352v2.9091h.3352z"/><path d="m47.6268 14.0455c.483 0 .8012-.2955.858-.6819h-.3353c-.0625.2387-.2613.3807-.5227.3807-.3977 0-.6534-.3295-.6534-.8352 0-.4943.2614-.8182.6534-.8182.2955 0 .4716.1818.5227.3807h.3353c-.0568-.4091-.4034-.6818-.8637-.6818-.5909 0-.9829.4659-.9829 1.1307 0 .6534.375 1.125.9886 1.125z"/><path d="m49.6169 14.0511c.3807 0 .5795-.2045.6477-.3466h.0171v.2955h.3352v-1.4375c0-.6932-.5284-.7727-.8068-.7727-.3296 0-.7046.1136-.875.5113l.3181.1137c.0739-.1591.2486-.3296.5682-.3296.3083 0 .4603.1634.4603.4432v.0114c0 .1619-.1648.1477-.5625.1988-.4049.0526-.8466.1421-.8466.6421 0 .4261.3295.6704.7443.6704zm.0511-.3011c-.267 0-.4602-.1193-.4602-.3523 0-.2557.2329-.3352.4943-.3693.1421-.017.5227-.0568.5796-.125v.3068c0 .2728-.216.5398-.6137.5398z"/><path d="m51.2287 14h.3353v-1.3807c0-.294.2329-.5113.5511-.5113.0838 0 .1463.0156.1932.0397l.1136-.2841c-.0682-.0483-.1576-.0795-.2784-.0795-.2642 0-.49.1477-.5682.3636h-.0227v-.3295h-.3239z"/><path d="m53.6123 14.0455c.4431 0 .767-.2216.8693-.5512l-.3239-.0909c-.0852.2273-.2827.3409-.5454.3409-.3935 0-.6648-.2542-.6804-.7216h1.5838v-.142c0-.8125-.483-1.0909-.9375-1.0909-.5909 0-.983.4659-.983 1.1363 0 .6705.3864 1.1194 1.0171 1.1194zm-.6804-1.3125c.0227-.3395.2627-.6421.6463-.6421.3636 0 .5966.2727.5966.6421z"/><path d="m56.1506 14.8182h.3352v-1.1534h.0285c.0738.1193.2159.3807.6363.3807.5455 0 .9262-.4375.9262-1.1307 0-.6875-.3807-1.125-.9319-1.125-.4261 0-.5568.2613-.6306.375h-.0398v-.3466h-.3239zm.3296-1.9091c0-.4886.2159-.8182.625-.8182.4261 0 .6363.358.6363.8182 0 .4659-.2159.8352-.6363.8352-.4034 0-.625-.3409-.625-.8352z"/><path d="m58.5881 14h.3352v-1.3807c0-.294.233-.5113.5512-.5113.0838 0 .1463.0156.1932.0397l.1136-.2841c-.0682-.0483-.1577-.0795-.2784-.0795-.2642 0-.4901.1477-.5682.3636h-.0227v-.3295h-.3239z"/><path d="m60.9432 14.0455c.5909 0 .9887-.4489.9887-1.125 0-.6819-.3978-1.1307-.9887-1.1307s-.9886.4488-.9886 1.1307c0 .6761.3977 1.125.9886 1.125zm0-.3012c-.4488 0-.6534-.3863-.6534-.8238s.2046-.8296.6534-.8296c.4489 0 .6534.3921.6534.8296s-.2045.8238-.6534.8238z"/><path d="m63.4152 11.8182h-.4887v-.2216c0-.2159.0909-.3296.3125-.3296.0966 0 .1534.0228.1875.0341l.0966-.2897c-.0511-.0228-.1534-.0569-.3182-.0569-.3125 0-.6136.1875-.6136.5625v.3012h-.3523v.2841h.3523v1.8977h.3352v-1.8977h.4887z"/><path d="m64.7099 14.0455c.4432 0 .7671-.2216.8693-.5512l-.3238-.0909c-.0853.2273-.2827.3409-.5455.3409-.3935 0-.6648-.2542-.6804-.7216h1.5838v-.142c0-.8125-.4829-1.0909-.9375-1.0909-.5909 0-.9829.4659-.9829 1.1363 0 .6705.3863 1.1194 1.017 1.1194zm-.6804-1.3125c.0227-.3395.2628-.6421.6463-.6421.3637 0 .5966.2727.5966.6421z"/><path d="m67.6687 12.3068c-.1051-.3096-.3409-.517-.7727-.517-.4602 0-.8011.2613-.8011.6307 0 .3011.1789.5028.5795.5965l.3636.0853c.2202.0511.3239.1562.3239.3068 0 .1875-.1989.3409-.5114.3409-.2741 0-.446-.1179-.5056-.3523l-.3182.0796c.0781.3707.3835.5682.8295.5682.5071 0 .8523-.277.8523-.6535 0-.3039-.1903-.4957-.5795-.5909l-.3239-.0795c-.2585-.0639-.375-.1506-.375-.3182 0-.1875.1989-.3239.4659-.3239.2926 0 .4134.162.4716.3125z"/><path d="m69.7586 12.3068c-.1051-.3096-.3409-.517-.7728-.517-.4602 0-.8011.2613-.8011.6307 0 .3011.179.5028.5796.5965l.3636.0853c.2202.0511.3239.1562.3239.3068 0 .1875-.1989.3409-.5114.3409-.2742 0-.446-.1179-.5057-.3523l-.3182.0796c.0781.3707.3835.5682.8296.5682.5071 0 .8522-.277.8522-.6535 0-.3039-.1903-.4957-.5795-.5909l-.3239-.0795c-.2585-.0639-.375-.1506-.375-.3182 0-.1875.1989-.3239.4659-.3239.2927 0 .4134.162.4716.3125z"/><path d="m70.303 14h.3352v-2.1818h-.3352zm.1704-2.5455c.1307 0 .2387-.1022.2387-.2272s-.108-.2273-.2387-.2273-.2386.1023-.2386.2273.1079.2272.2386.2272z"/><path d="m72.1385 14.0455c.591 0 .9887-.4489.9887-1.125 0-.6819-.3977-1.1307-.9887-1.1307-.5909 0-.9886.4488-.9886 1.1307 0 .6761.3977 1.125.9886 1.125zm0-.3012c-.4488 0-.6534-.3863-.6534-.8238s.2046-.8296.6534-.8296c.4489 0 .6534.3921.6534.8296s-.2045.8238-.6534.8238z"/><path d="m73.9741 12.6875c0-.3807.2358-.5966.5568-.5966.3111 0 .5.2031.5.5455v1.3636h.3353v-1.3864c0-.5568-.2969-.8238-.7387-.8238-.3295 0-.5341.1477-.6363.3693h-.0284v-.3409h-.3239v2.1818h.3352z"/><path d="m76.6208 14.0511c.3807 0 .5795-.2045.6477-.3466h.0171v.2955h.3352v-1.4375c0-.6932-.5284-.7727-.8068-.7727-.3296 0-.7046.1136-.875.5113l.3181.1137c.0739-.1591.2486-.3296.5682-.3296.3083 0 .4603.1634.4603.4432v.0114c0 .1619-.1648.1477-.5625.1988-.4049.0526-.8466.1421-.8466.6421 0 .4261.3295.6704.7443.6704zm.0511-.3011c-.267 0-.4602-.1193-.4602-.3523 0-.2557.2329-.3352.4943-.3693.1421-.017.5227-.0568.5796-.125v.3068c0 .2728-.216.5398-.6137.5398z"/><path d="m78.5679 11.0909h-.3353v2.9091h.3353z"/><path d="m80.7273 12.3068c-.1051-.3096-.3409-.517-.7727-.517-.4602 0-.8011.2613-.8011.6307 0 .3011.1789.5028.5795.5965l.3636.0853c.2202.0511.3239.1562.3239.3068 0 .1875-.1989.3409-.5114.3409-.2741 0-.446-.1179-.5056-.3523l-.3182.0796c.0781.3707.3835.5682.8295.5682.5071 0 .8523-.277.8523-.6535 0-.3039-.1903-.4957-.5796-.5909l-.3238-.0795c-.2585-.0639-.375-.1506-.375-.3182 0-.1875.1988-.3239.4659-.3239.2926 0 .4133.162.4716.3125z"/><path d="m81.7717 13.6023h-.3636l-.0171.1591c-.0412.3849-.1221.7684-.1591.9488h.2557c.0682-.1932.2131-.6307.2614-.9545z"/><path d="m.306863 19h.335227v-2.1818h-.335227zm.170454-2.5455c.130682 0 .238636-.1022.238636-.2272s-.107954-.2273-.238636-.2273-.238636.1023-.238636.2273.107954.2272.238636.2272z"/><path d="m1.59131 17.6875c0-.3807.23579-.5966.55682-.5966.31108 0 .5.2031.5.5455v1.3636h.33522v-1.3864c0-.5568-.29687-.8238-.73863-.8238-.32955 0-.53409.1477-.63637.3693h-.02841v-.3409h-.32386v2.1818h.33523z"/><path d="m4.48229 19.0455c.48295 0 .80114-.2955.85795-.6819h-.33522c-.0625.2387-.26137.3807-.52273.3807-.39773 0-.65341-.3295-.65341-.8352 0-.4943.26136-.8182.65341-.8182.29545 0 .47159.1818.52273.3807h.33522c-.05681-.4091-.40341-.6818-.86363-.6818-.59091 0-.98296.4659-.98296 1.1307 0 .6534.375 1.125.98864 1.125z"/><path d="m6.16553 16.0909h-.33523v2.9091h.33523z"/><path d="m8.15452 18.108c0 .409-.3125.5965-.5625.5965-.27841 0-.47727-.2045-.47727-.5227v-1.3636h-.33523v1.3863c0 .5569.29545.8239.70454.8239.32955 0 .54546-.1761.64773-.3977h.02273v.3693h.33523v-2.1818h-.33523z"/><path d="m9.9276 19.0455c.4205 0 .5625-.2614.6364-.3807h.0397v.3352h.3239v-2.9091h-.3352v1.0739h-.0284c-.0739-.1137-.2046-.375-.63072-.375-.55113 0-.93182.4375-.93182 1.125 0 .6932.38069 1.1307.92614 1.1307zm.04546-.3012c-.42046 0-.63637-.3693-.63637-.8352 0-.4602.21023-.8182.63637-.8182.40904 0 .62504.3296.62504.8182 0 .4943-.2216.8352-.62504.8352z"/><path d="m11.5881 19h.3352v-2.1818h-.3352zm.1705-2.5455c.1306 0 .2386-.1022.2386-.2272s-.108-.2273-.2386-.2273c-.1307 0-.2387.1023-.2387.2273s.108.2272.2387.2272z"/><path d="m12.8726 17.6875c0-.3807.2358-.5966.5568-.5966.3111 0 .5.2031.5.5455v1.3636h.3352v-1.3864c0-.5568-.2969-.8238-.7386-.8238-.3296 0-.5341.1477-.6364.3693h-.0284v-.3409h-.3239v2.1818h.3353z"/><path d="m15.7579 19.8636c.5227 0 .9431-.2386.9431-.8011v-2.2443h-.3238v.3466h-.0341c-.0739-.1137-.2102-.375-.6364-.375-.5511 0-.9318.4375-.9318 1.1079 0 .6818.3977 1.0682.9261 1.0682.4262 0 .5625-.25.6364-.3693h.0284v.4432c0 .3636-.2557.5284-.6079.5284-.3963 0-.5356-.2088-.625-.3296l-.2671.1875c.1364.2287.4048.4375.8921.4375zm-.0114-1.1988c-.4205 0-.6364-.3182-.6364-.7728 0-.4431.2103-.8011.6364-.8011.4091 0 .625.3296.625.8011 0 .483-.2216.7728-.625.7728z"/><path d="m19.8147 18.108c0 .409-.3125.5965-.5625.5965-.2784 0-.4773-.2045-.4773-.5227v-1.3636h-.3352v1.3863c0 .5569.2954.8239.7045.8239.3296 0 .5455-.1761.6477-.3977h.0228v.3693h.3352v-2.1818h-.3352z"/><path d="m22.3093 17.3068c-.1051-.3096-.3409-.517-.7727-.517-.4602 0-.8011.2613-.8011.6307 0 .3011.179.5028.5795.5965l.3637.0853c.2201.0511.3238.1562.3238.3068 0 .1875-.1988.3409-.5113.3409-.2742 0-.4461-.1179-.5057-.3523l-.3182.0796c.0781.3707.3835.5682.8295.5682.5071 0 .8523-.277.8523-.6535 0-.3039-.1903-.4957-.5795-.5909l-.3239-.0795c-.2585-.0639-.375-.1506-.375-.3182 0-.1875.1989-.3239.4659-.3239.2926 0 .4134.162.4716.3125z"/><path d="m23.3537 18.6023h-.3636l-.017.1591c-.0412.3849-.1222.7684-.1591.9488h.2556c.0682-.1932.2131-.6307.2614-.9545z"/><path d="m26.0487 16.8182h-.4659v-.5227h-.3352v.5227h-.3296v.2841h.3296v1.3636c0 .3807.3068.5625.5909.5625.125 0 .2045-.0227.25-.0398l-.0682-.3011c-.0284.0057-.0739.017-.1477.017-.1478 0-.2898-.0454-.2898-.3295v-1.2727h.4659z"/><path d="m27.4159 19.0455c.5909 0 .9886-.4489.9886-1.125 0-.6819-.3977-1.1307-.9886-1.1307s-.9887.4488-.9887 1.1307c0 .6761.3978 1.125.9887 1.125zm0-.3012c-.4489 0-.6534-.3863-.6534-.8238s.2045-.8296.6534-.8296c.4488 0 .6534.3921.6534.8296s-.2046.8238-.6534.8238z"/><path d="m30.0412 19h.3353v-1.3636c0-.3196.2329-.5455.4943-.5455.2542 0 .4318.1662.4318.4148v1.4943h.3409v-1.4205c0-.2812.1761-.4886.483-.4886.2386 0 .4431.1264.4431.4489v1.4602h.3353v-1.4602c0-.5128-.2756-.75-.6648-.75-.3125 0-.5412.1434-.6534.3693h-.0227c-.108-.233-.2983-.3693-.5853-.3693-.2841 0-.4943.1363-.5852.3693h-.0284v-.3409h-.3239z"/><path d="m34.1598 19.0511c.3807 0 .5796-.2045.6478-.3466h.017v.2955h.3352v-1.4375c0-.6932-.5284-.7727-.8068-.7727-.3295 0-.7045.1136-.875.5113l.3182.1137c.0739-.1591.2486-.3296.5682-.3296.3082 0 .4602.1634.4602.4432v.0114c0 .1619-.1648.1477-.5625.1988-.4048.0526-.8466.1421-.8466.6421 0 .4261.3296.6704.7443.6704zm.0512-.3011c-.2671 0-.4602-.1193-.4602-.3523 0-.2557.2329-.3352.4943-.3693.142-.017.5227-.0568.5795-.125v.3068c0 .2728-.2159.5398-.6136.5398z"/><path d="m36.1069 17.6875c0-.3807.2358-.5966.5569-.5966.311 0 .5.2031.5.5455v1.3636h.3352v-1.3864c0-.5568-.2969-.8238-.7387-.8238-.3295 0-.534.1477-.6363.3693h-.0284v-.3409h-.3239v2.1818h.3352z"/><path d="m38.7536 19.0511c.3807 0 .5795-.2045.6477-.3466h.0171v.2955h.3352v-1.4375c0-.6932-.5284-.7727-.8068-.7727-.3296 0-.7046.1136-.875.5113l.3182.1137c.0738-.1591.2485-.3296.5681-.3296.3083 0 .4603.1634.4603.4432v.0114c0 .1619-.1648.1477-.5625.1988-.4049.0526-.8466.1421-.8466.6421 0 .4261.3295.6704.7443.6704zm.0511-.3011c-.267 0-.4602-.1193-.4602-.3523 0-.2557.233-.3352.4943-.3693.1421-.017.5228-.0568.5796-.125v.3068c0 .2728-.2159.5398-.6137.5398z"/><path d="m41.2461 19.8636c.5228 0 .9432-.2386.9432-.8011v-2.2443h-.3238v.3466h-.0341c-.0739-.1137-.2103-.375-.6364-.375-.5511 0-.9318.4375-.9318 1.1079 0 .6818.3977 1.0682.9261 1.0682.4262 0 .5625-.25.6364-.3693h.0284v.4432c0 .3636-.2557.5284-.608.5284-.3963 0-.5355-.2088-.625-.3296l-.267.1875c.1364.2287.4048.4375.892.4375zm-.0113-1.1988c-.4205 0-.6364-.3182-.6364-.7728 0-.4431.2102-.8011.6364-.8011.4091 0 .625.3296.625.8011 0 .483-.2216.7728-.625.7728z"/><path d="m43.7177 19.0455c.4432 0 .7671-.2216.8693-.5512l-.3238-.0909c-.0852.2273-.2827.3409-.5455.3409-.3934 0-.6647-.2542-.6804-.7216h1.5838v-.142c0-.8125-.4829-1.0909-.9375-1.0909-.5909 0-.9829.4659-.9829 1.1363 0 .6705.3863 1.1194 1.017 1.1194zm-.6804-1.3125c.0228-.3395.2628-.6421.6463-.6421.3637 0 .5966.2727.5966.6421z"/><path d="m46.2561 19.8182h.3352v-1.1534h.0284c.0739.1193.2159.3807.6364.3807.5454 0 .9261-.4375.9261-1.1307 0-.6875-.3807-1.125-.9318-1.125-.4261 0-.5568.2613-.6307.375h-.0398v-.3466h-.3238zm.3295-1.9091c0-.4886.2159-.8182.625-.8182.4262 0 .6364.358.6364.8182 0 .4659-.2159.8352-.6364.8352-.4034 0-.625-.3409-.625-.8352z"/><path d="m48.6936 19h.3352v-1.3807c0-.294.233-.5113.5511-.5113.0839 0 .1464.0156.1932.0397l.1137-.2841c-.0682-.0483-.1577-.0795-.2784-.0795-.2642 0-.4901.1477-.5682.3636h-.0228v-.3295h-.3238z"/><path d="m51.0487 19.0455c.5909 0 .9886-.4489.9886-1.125 0-.6819-.3977-1.1307-.9886-1.1307s-.9886.4488-.9886 1.1307c0 .6761.3977 1.125.9886 1.125zm0-.3012c-.4489 0-.6534-.3863-.6534-.8238s.2045-.8296.6534-.8296.6534.3921.6534.8296-.2045.8238-.6534.8238z"/><path d="m54.255 16.8182h-.3636l-.6023 1.7386h-.0227l-.6023-1.7386h-.3636l.8068 2.1818h.3409z"/><path d="m55.5341 19.0455c.4432 0 .7671-.2216.8694-.5512l-.3239-.0909c-.0852.2273-.2827.3409-.5455.3409-.3934 0-.6647-.2542-.6804-.7216h1.5838v-.142c0-.8125-.4829-1.0909-.9375-1.0909-.5909 0-.9829.4659-.9829 1.1363 0 .6705.3864 1.1194 1.017 1.1194zm-.6804-1.3125c.0228-.3395.2628-.6421.6463-.6421.3637 0 .5966.2727.5966.6421z"/><path d="m57.2827 17.6875c0-.3807.2358-.5966.5568-.5966.3111 0 .5.2031.5.5455v1.3636h.3353v-1.3864c0-.5568-.2969-.8238-.7387-.8238-.3295 0-.5341.1477-.6363.3693h-.0284v-.3409h-.3239v2.1818h.3352z"/><path d="m60.4578 19h.3239v-.3352h.0397c.0739.1193.2159.3807.6364.3807.5454 0 .9261-.4375.9261-1.1307 0-.6875-.3807-1.125-.9318-1.125-.4261 0-.5568.2613-.6307.375h-.0284v-1.0739h-.3352zm.3295-1.0909c0-.4886.2159-.8182.625-.8182.4262 0 .6364.358.6364.8182 0 .4659-.2159.8352-.6364.8352-.4034 0-.625-.3409-.625-.8352z"/><path d="m64.2717 18.108c0 .409-.3125.5965-.5625.5965-.2784 0-.4773-.2045-.4773-.5227v-1.3636h-.3352v1.3863c0 .5569.2955.8239.7046.8239.3295 0 .5454-.1761.6477-.3977h.0227v.3693h.3352v-2.1818h-.3352z"/><path d="m66.1698 16.8182h-.4659v-.5227h-.3352v.5227h-.3296v.2841h.3296v1.3636c0 .3807.3068.5625.5909.5625.125 0 .2045-.0227.25-.0398l-.0682-.3011c-.0284.0057-.0739.017-.1477.017-.1478 0-.2898-.0454-.2898-.3295v-1.2727h.4659z"/><path d="m68.6854 19.0455c.483 0 .8012-.2955.858-.6819h-.3353c-.0625.2387-.2613.3807-.5227.3807-.3977 0-.6534-.3295-.6534-.8352 0-.4943.2614-.8182.6534-.8182.2955 0 .4716.1818.5227.3807h.3353c-.0568-.4091-.4034-.6818-.8637-.6818-.5909 0-.9829.4659-.9829 1.1307 0 .6534.375 1.125.9886 1.125z"/><path d="m70.9198 19.0455c.5909 0 .9886-.4489.9886-1.125 0-.6819-.3977-1.1307-.9886-1.1307s-.9886.4488-.9886 1.1307c0 .6761.3977 1.125.9886 1.125zm0-.3012c-.4489 0-.6534-.3863-.6534-.8238s.2045-.8296.6534-.8296.6534.3921.6534.8296-.2045.8238-.6534.8238z"/><path d="m72.4201 19h.3353v-1.3636c0-.3196.2329-.5455.4943-.5455.2542 0 .4318.1662.4318.4148v1.4943h.3409v-1.4205c0-.2812.1762-.4886.483-.4886.2386 0 .4432.1264.4432.4489v1.4602h.3352v-1.4602c0-.5128-.2756-.75-.6648-.75-.3125 0-.5412.1434-.6534.3693h-.0227c-.108-.233-.2983-.3693-.5853-.3693-.284 0-.4943.1363-.5852.3693h-.0284v-.3409h-.3239z"/><path d="m75.8967 19.8182h.3352v-1.1534h.0284c.0739.1193.216.3807.6364.3807.5455 0 .9261-.4375.9261-1.1307 0-.6875-.3806-1.125-.9318-1.125-.4261 0-.5568.2613-.6307.375h-.0397v-.3466h-.3239zm.3295-1.9091c0-.4886.216-.8182.625-.8182.4262 0 .6364.358.6364.8182 0 .4659-.2159.8352-.6364.8352-.4034 0-.625-.3409-.625-.8352z"/><path d="m78.6694 16.0909h-.3352v2.9091h.3352z"/><path d="m80.1982 19.0455c.4432 0 .767-.2216.8693-.5512l-.3238-.0909c-.0853.2273-.2827.3409-.5455.3409-.3935 0-.6648-.2542-.6804-.7216h1.5838v-.142c0-.8125-.4829-1.0909-.9375-1.0909-.5909 0-.9829.4659-.9829 1.1363 0 .6705.3863 1.1194 1.017 1.1194zm-.6804-1.3125c.0227-.3395.2628-.6421.6463-.6421.3636 0 .5966.2727.5966.6421z"/><path d="m81.803 16.8182h-.3864l.6932 1.0909-.6932 1.0909h.3864l.5227-.8466.5227.8466h.3864l-.7046-1.0909.7046-1.0909h-.3864l-.5227.892z"/><path d="m1.19323 24.0455c.48295 0 .80113-.2955.85795-.6819h-.33523c-.0625.2387-.26136.3807-.52272.3807-.397731 0-.653413-.3295-.653413-.8352 0-.4943.261364-.8182.653413-.8182.29545 0 .47159.1818.52272.3807h.33523c-.05682-.4091-.40341-.6818-.86364-.6818-.590905 0-.98295.4659-.98295 1.1307 0 .6534.375 1.125.98864 1.125z"/><path d="m2.87646 21.0909h-.33522v2.9091h.33522z"/><path d="m3.49046 24h.33522v-2.1818h-.33522zm.17045-2.5455c.13068 0 .23864-.1022.23864-.2272s-.10796-.2273-.23864-.2273-.23864.1023-.23864.2273.10796.2272.23864.2272z"/><path d="m4.7749 22.6875c0-.3807.2358-.5966.55682-.5966.31108 0 .5.2031.5.5455v1.3636h.33523v-1.3864c0-.5568-.29688-.8238-.73864-.8238-.32954 0-.53409.1477-.63636.3693h-.02841v-.3409h-.32387v2.1818h.33523z"/><path d="m6.77952 24h.33523v-2.1818h-.33523zm.17045-2.5455c.13069 0 .23864-.1022.23864-.2272s-.10795-.2273-.23864-.2273c-.13068 0-.23863.1023-.23863.2273s.10795.2272.23863.2272z"/><path d="m8.6151 24.0455c.48296 0 .80114-.2955.85796-.6819h-.33523c-.0625.2387-.26136.3807-.52273.3807-.39773 0-.65341-.3295-.65341-.8352 0-.4943.26137-.8182.65341-.8182.29546 0 .47159.1818.52273.3807h.33523c-.05682-.4091-.40341-.6818-.86364-.6818-.59091 0-.98296.4659-.98296 1.1307 0 .6534.37501 1.125.98864 1.125z"/><path d="m10.6052 24.0511c.3806 0 .5795-.2045.6477-.3466h.017v.2955h.3353v-1.4375c0-.6932-.5285-.7727-.8069-.7727-.3295 0-.7045.1136-.87496.5113l.31816.1137c.0739-.1591.2486-.3296.5682-.3296.3082 0 .4602.1634.4602.4432v.0114c0 .1619-.1647.1477-.5625.1988-.4048.0526-.84656.1421-.84656.6421 0 .4261.32956.6704.74436.6704zm.0511-.3011c-.2671 0-.4602-.1193-.4602-.3523 0-.2557.2329-.3352.4943-.3693.142-.017.5227-.0568.5795-.125v.3068c0 .2728-.2159.5398-.6136.5398z"/><path d="m12.5522 21.0909h-.3352v2.9091h.3352z"/><path d="m14.2912 24.8182h.3353v-1.1534h.0284c.0738.1193.2159.3807.6363.3807.5455 0 .9262-.4375.9262-1.1307 0-.6875-.3807-1.125-.9318-1.125-.4262 0-.5569.2613-.6307.375h-.0398v-.3466h-.3239zm.3296-1.9091c0-.4886.2159-.8182.625-.8182.4261 0 .6363.358.6363.8182 0 .4659-.2159.8352-.6363.8352-.4034 0-.625-.3409-.625-.8352z"/><path d="m17.3708 24.0511c.3807 0 .5795-.2045.6477-.3466h.0171v.2955h.3352v-1.4375c0-.6932-.5284-.7727-.8068-.7727-.3296 0-.7046.1136-.875.5113l.3181.1137c.0739-.1591.2486-.3296.5682-.3296.3083 0 .4603.1634.4603.4432v.0114c0 .1619-.1648.1477-.5625.1988-.4049.0526-.8466.1421-.8466.6421 0 .4261.3295.6704.7443.6704zm.0511-.3011c-.267 0-.4602-.1193-.4602-.3523 0-.2557.2329-.3352.4943-.3693.1421-.017.5227-.0568.5796-.125v.3068c0 .2728-.216.5398-.6137.5398z"/><path d="m19.9315 21.8182h-.4659v-.5227h-.3352v.5227h-.3296v.2841h.3296v1.3636c0 .3807.3068.5625.5909.5625.125 0 .2045-.0227.25-.0398l-.0682-.3011c-.0284.0057-.0739.017-.1477.017-.1478 0-.2898-.0454-.2898-.3295v-1.2727h.4659z"/><path d="m20.8179 22.6875c0-.3807.2429-.5966.5738-.5966.3154 0 .5057.1989.5057.5455v1.3636h.3352v-1.3864c0-.561-.2983-.8238-.7443-.8238-.3437 0-.5397.1434-.642.3693h-.0284v-1.0682h-.3353v2.9091h.3353z"/><path d="m23.3402 24h.3296l.4773-1.6761h.0341l.4772 1.6761h.3296l.6647-2.1818h-.3522l-.4716 1.6648h-.0227l-.4603-1.6648h-.3579l-.4659 1.6704h-.0228l-.4716-1.6704h-.3522z"/><path d="m26.738 24.0511c.3807 0 .5795-.2045.6477-.3466h.017v.2955h.3353v-1.4375c0-.6932-.5284-.7727-.8068-.7727-.3296 0-.7046.1136-.875.5113l.3181.1137c.0739-.1591.2486-.3296.5682-.3296.3083 0 .4602.1634.4602.4432v.0114c0 .1619-.1647.1477-.5625.1988-.4048.0526-.8465.1421-.8465.6421 0 .4261.3295.6704.7443.6704zm.0511-.3011c-.267 0-.4602-.1193-.4602-.3523 0-.2557.2329-.3352.4943-.3693.142-.017.5227-.0568.5795-.125v.3068c0 .2728-.2159.5398-.6136.5398z"/><path d="m28.4763 24.8466c.3068 0 .517-.1591.642-.4943l.9375-2.5341h-.3636l-.6023 1.7386h-.0227l-.6023-1.7386h-.3636l.8068 2.1932-.0739.2045c-.1179.3267-.2727.358-.517.2955l-.0853.2954c.0341.0171.1307.0398.2444.0398z"/><path d="m32.0437 22.3068c-.1051-.3096-.3409-.517-.7727-.517-.4602 0-.8011.2613-.8011.6307 0 .3011.1789.5028.5795.5965l.3636.0853c.2202.0511.3239.1562.3239.3068 0 .1875-.1989.3409-.5114.3409-.2741 0-.446-.1179-.5056-.3523l-.3182.0796c.0781.3707.3835.5682.8295.5682.5071 0 .8523-.277.8523-.6535 0-.3039-.1903-.4957-.5795-.5909l-.3239-.0795c-.2585-.0639-.375-.1506-.375-.3182 0-.1875.1989-.3239.4659-.3239.2926 0 .4133.162.4716.3125z"/><path d="m34.662 21.8182h-.4659v-.5227h-.3353v.5227h-.3295v.2841h.3295v1.3636c0 .3807.3069.5625.591.5625.125 0 .2045-.0227.25-.0398l-.0682-.3011c-.0284.0057-.0739.017-.1478.017-.1477 0-.2897-.0454-.2897-.3295v-1.2727h.4659z"/><path d="m36.0292 24.0455c.5909 0 .9886-.4489.9886-1.125 0-.6819-.3977-1.1307-.9886-1.1307s-.9887.4488-.9887 1.1307c0 .6761.3978 1.125.9887 1.125zm0-.3012c-.4489 0-.6534-.3863-.6534-.8238s.2045-.8296.6534-.8296c.4488 0 .6534.3921.6534.8296s-.2046.8238-.6534.8238z"/><path d="m39.5352 24.8636c.5227 0 .9432-.2386.9432-.8011v-2.2443h-.3239v.3466h-.0341c-.0738-.1137-.2102-.375-.6363-.375-.5512 0-.9319.4375-.9319 1.1079 0 .6818.3978 1.0682.9262 1.0682.4261 0 .5625-.25.6363-.3693h.0285v.4432c0 .3636-.2557.5284-.608.5284-.3963 0-.5355-.2088-.625-.3296l-.267.1875c.1363.2287.4048.4375.892.4375zm-.0114-1.1988c-.4204 0-.6363-.3182-.6363-.7728 0-.4431.2102-.8011.6363-.8011.4091 0 .625.3296.625.8011 0 .483-.2216.7728-.625.7728z"/><path d="m42.0068 24.0455c.4432 0 .767-.2216.8693-.5512l-.3239-.0909c-.0852.2273-.2826.3409-.5454.3409-.3935 0-.6648-.2542-.6804-.7216h1.5838v-.142c0-.8125-.483-1.0909-.9375-1.0909-.5909 0-.983.4659-.983 1.1363 0 .6705.3864 1.1194 1.0171 1.1194zm-.6804-1.3125c.0227-.3395.2628-.6421.6463-.6421.3636 0 .5966.2727.5966.6421z"/><path d="m44.369 21.8182h-.4659v-.5227h-.3352v.5227h-.3296v.2841h.3296v1.3636c0 .3807.3068.5625.5909.5625.125 0 .2045-.0227.25-.0398l-.0682-.3011c-.0284.0057-.0739.017-.1477.017-.1478 0-.2898-.0454-.2898-.3295v-1.2727h.4659z"/><path d="m46.0437 24h.3239v-.3352h.0398c.0738.1193.2159.3807.6363.3807.5455 0 .9262-.4375.9262-1.1307 0-.6875-.3807-1.125-.9319-1.125-.4261 0-.5568.2613-.6306.375h-.0284v-1.0739h-.3353zm.3296-1.0909c0-.4886.2159-.8182.625-.8182.4261 0 .6363.358.6363.8182 0 .4659-.2159.8352-.6363.8352-.4034 0-.625-.3409-.625-.8352z"/><path d="m49.3974 24.0455c.4432 0 .7671-.2216.8693-.5512l-.3238-.0909c-.0853.2273-.2827.3409-.5455.3409-.3934 0-.6648-.2542-.6804-.7216h1.5838v-.142c0-.8125-.4829-1.0909-.9375-1.0909-.5909 0-.9829.4659-.9829 1.1363 0 .6705.3863 1.1194 1.017 1.1194zm-.6804-1.3125c.0227-.3395.2628-.6421.6463-.6421.3637 0 .5966.2727.5966.6421z"/><path d="m51.7596 21.8182h-.4659v-.5227h-.3352v.5227h-.3295v.2841h.3295v1.3636c0 .3807.3068.5625.5909.5625.125 0 .2046-.0227.25-.0398l-.0682-.3011c-.0284.0057-.0738.017-.1477.017-.1477 0-.2898-.0454-.2898-.3295v-1.2727h.4659z"/><path d="m53.2128 21.8182h-.466v-.5227h-.3352v.5227h-.3295v.2841h.3295v1.3636c0 .3807.3068.5625.5909.5625.125 0 .2046-.0227.25-.0398l-.0682-.3011c-.0284.0057-.0738.017-.1477.017-.1477 0-.2898-.0454-.2898-.3295v-1.2727h.466z"/><path d="m54.6084 24.0455c.4431 0 .767-.2216.8693-.5512l-.3239-.0909c-.0852.2273-.2827.3409-.5454.3409-.3935 0-.6648-.2542-.6804-.7216h1.5838v-.142c0-.8125-.483-1.0909-.9375-1.0909-.5909 0-.983.4659-.983 1.1363 0 .6705.3864 1.1194 1.0171 1.1194zm-.6804-1.3125c.0227-.3395.2627-.6421.6463-.6421.3636 0 .5966.2727.5966.6421z"/><path d="m56.0217 24h.3352v-1.3807c0-.294.233-.5113.5512-.5113.0838 0 .1463.0156.1932.0397l.1136-.2841c-.0682-.0483-.1577-.0795-.2784-.0795-.2642 0-.4901.1477-.5682.3636h-.0227v-.3295h-.3239z"/><path d="m57.5512 24.0227c.1406 0 .2557-.115.2557-.2557 0-.1406-.1151-.2556-.2557-.2556s-.2557.115-.2557.2556c0 .1407.1151.2557.2557.2557z"/><path d="m59.9312 21.0909h-.3523v2.9091h.3523z"/><path d="m60.9272 22.6875c0-.3807.2358-.5966.5569-.5966.311 0 .5.2031.5.5455v1.3636h.3352v-1.3864c0-.5568-.2969-.8238-.7386-.8238-.3296 0-.5341.1477-.6364.3693h-.0284v-.3409h-.3239v2.1818h.3352z"/><path d="m64.6989 24.0511c.3807 0 .5796-.2045.6477-.3466h.0171v.2955h.3352v-1.4375c0-.6932-.5284-.7727-.8068-.7727-.3296 0-.7046.1136-.875.5113l.3182.1137c.0738-.1591.2486-.3296.5682-.3296.3082 0 .4602.1634.4602.4432v.0114c0 .1619-.1648.1477-.5625.1988-.4048.0526-.8466.1421-.8466.6421 0 .4261.3295.6704.7443.6704zm.0511-.3011c-.267 0-.4602-.1193-.4602-.3523 0-.2557.233-.3352.4943-.3693.1421-.017.5228-.0568.5796-.125v.3068c0 .2728-.2159.5398-.6137.5398z"/><path d="m66.646 21.0909h-.3352v2.9091h.3352z"/><path d="m67.5952 21.0909h-.3352v2.9091h.3352z"/><path d="m70.2831 21.8182h-.4659v-.5227h-.3353v.5227h-.3295v.2841h.3295v1.3636c0 .3807.3069.5625.5909.5625.125 0 .2046-.0227.25-.0398l-.0681-.3011c-.0284.0057-.0739.017-.1478.017-.1477 0-.2897-.0454-.2897-.3295v-1.2727h.4659z"/><path d="m71.1694 22.6875c0-.3807.2429-.5966.5739-.5966.3153 0 .5057.1989.5057.5455v1.3636h.3352v-1.3864c0-.561-.2983-.8238-.7443-.8238-.3438 0-.5398.1434-.6421.3693h-.0284v-1.0682h-.3352v2.9091h.3352z"/><path d="m73.1975 24h.3352v-2.1818h-.3352zm.1704-2.5455c.1307 0 .2387-.1022.2387-.2272s-.108-.2273-.2387-.2273c-.1306 0-.2386.1023-.2386.2273s.108.2272.2386.2272z"/><path d="m74.4819 22.6875c0-.3807.2358-.5966.5568-.5966.3111 0 .5.2031.5.5455v1.3636h.3353v-1.3864c0-.5568-.2969-.8238-.7387-.8238-.3295 0-.534.1477-.6363.3693h-.0284v-.3409h-.3239v2.1818h.3352z"/><path d="m77.3672 24.8636c.5228 0 .9432-.2386.9432-.8011v-2.2443h-.3239v.3466h-.034c-.0739-.1137-.2103-.375-.6364-.375-.5511 0-.9318.4375-.9318 1.1079 0 .6818.3977 1.0682.9261 1.0682.4262 0 .5625-.25.6364-.3693h.0284v.4432c0 .3636-.2557.5284-.608.5284-.3963 0-.5355-.2088-.625-.3296l-.267.1875c.1364.2287.4048.4375.892.4375zm-.0113-1.1988c-.4205 0-.6364-.3182-.6364-.7728 0-.4431.2102-.8011.6364-.8011.4091 0 .625.3296.625.8011 0 .483-.2216.7728-.625.7728z"/><path d="m80.4695 22.3068c-.1051-.3096-.3409-.517-.7727-.517-.4602 0-.8012.2613-.8012.6307 0 .3011.179.5028.5796.5965l.3636.0853c.2202.0511.3239.1562.3239.3068 0 .1875-.1989.3409-.5114.3409-.2741 0-.446-.1179-.5057-.3523l-.3181.0796c.0781.3707.3835.5682.8295.5682.5071 0 .8523-.277.8523-.6535 0-.3039-.1904-.4957-.5796-.5909l-.3238-.0795c-.2585-.0639-.375-.1506-.375-.3182 0-.1875.1988-.3239.4659-.3239.2926 0 .4133.162.4716.3125z"/><path d="m81.5139 23.6023h-.3636l-.0171.1591c-.0412.3849-.1221.7684-.1591.9488h.2557c.0682-.1932.2131-.6307.2614-.9545z"/><path d="m83.3054 24h.3239v-.3352h.0398c.0738.1193.2159.3807.6363.3807.5455 0 .9262-.4375.9262-1.1307 0-.6875-.3807-1.125-.9318-1.125-.4262 0-.5569.2613-.6307.375h-.0284v-1.0739h-.3353zm.3296-1.0909c0-.4886.2159-.8182.625-.8182.4261 0 .6364.358.6364.8182 0 .4659-.216.8352-.6364.8352-.4034 0-.625-.3409-.625-.8352z"/><path d="m87.1194 23.108c0 .409-.3125.5965-.5625.5965-.2784 0-.4773-.2045-.4773-.5227v-1.3636h-.3352v1.3863c0 .5569.2954.8239.7045.8239.3296 0 .5455-.1761.6477-.3977h.0228v.3693h.3352v-2.1818h-.3352z"/><path d="m89.0174 21.8182h-.4659v-.5227h-.3352v.5227h-.3295v.2841h.3295v1.3636c0 .3807.3068.5625.5909.5625.125 0 .2046-.0227.25-.0398l-.0682-.3011c-.0284.0057-.0738.017-.1477.017-.1477 0-.2898-.0454-.2898-.3295v-1.2727h.4659z"/><path d="m.306863 29.8182h.335227v-1.1534h.028409c.073864.1193.215909.3807.636361.3807.54546 0 .92614-.4375.92614-1.1307 0-.6875-.38068-1.125-.93182-1.125-.426136 0-.556817.2613-.630681.375h-.039773v-.3466h-.323863zm.329545-1.9091c0-.4886.215909-.8182.625002-.8182.42613 0 .63636.358.63636.8182 0 .4659-.21591.8352-.63636.8352-.403411 0-.625002-.3409-.625002-.8352z"/><path d="m3.38641 29.0511c.38068 0 .57954-.2045.64773-.3466h.01704v.2955h.33523v-1.4375c0-.6932-.52841-.7727-.80682-.7727-.32955 0-.70455.1136-.875.5113l.31818.1137c.07387-.1591.24858-.3296.56818-.3296.30824 0 .46023.1634.46023.4432v.0114c0 .1619-.16477.1477-.5625.1988-.40483.0526-.84659.1421-.84659.6421 0 .4261.32955.6704.74432.6704zm.05113-.3011c-.26704 0-.46022-.1193-.46022-.3523 0-.2557.23295-.3352.49432-.3693.14204-.017.52272-.0568.57954-.125v.3068c0 .2728-.21591.5398-.61364.5398z"/><path d="m4.99827 29h.33523v-1.3807c0-.2954.23295-.5113.55113-.5113.08949 0 .18182.017.20455.0227v-.3409c-.03835-.0029-.12642-.0057-.17614-.0057-.26136 0-.48863.1477-.56818.3636h-.02273v-.3295h-.32386z"/><path d="m7.57213 26.8182h-.46591v-.5227h-.33522v.5227h-.32955v.2841h.32955v1.3636c0 .3807.30681.5625.59091.5625.125 0 .20454-.0227.25-.0398l-.06819-.3011c-.02841.0057-.07386.017-.14772.017-.14773 0-.28978-.0454-.28978-.3295v-1.2727h.46591z"/><path d="m8.07639 29h.33523v-2.1818h-.33523zm.17046-2.5455c.13068 0 .23864-.1022.23864-.2272s-.10796-.2273-.23864-.2273-.23864.1023-.23864.2273.10796.2272.23864.2272z"/><path d="m9.91198 29.0455c.48292 0 .80112-.2955.85792-.6819h-.3352c-.0625.2387-.2614.3807-.52272.3807-.39773 0-.65341-.3295-.65341-.8352 0-.4943.26136-.8182.65341-.8182.29542 0 .47162.1818.52272.3807h.3352c-.0568-.4091-.4034-.6818-.86361-.6818-.5909 0-.98295.4659-.98295 1.1307 0 .6534.375 1.125.98864 1.125z"/><path d="m12.635 28.108c0 .409-.3125.5965-.5625.5965-.2784 0-.4773-.2045-.4773-.5227v-1.3636h-.3352v1.3863c0 .5569.2954.8239.7045.8239.3296 0 .5455-.1761.6478-.3977h.0227v.3693h.3352v-2.1818h-.3352z"/><path d="m13.9194 26.0909h-.3352v2.9091h.3352z"/><path d="m15.1755 29.0511c.3807 0 .5795-.2045.6477-.3466h.017v.2955h.3353v-1.4375c0-.6932-.5284-.7727-.8068-.7727-.3296 0-.7046.1136-.875.5113l.3181.1137c.0739-.1591.2486-.3296.5682-.3296.3083 0 .4602.1634.4602.4432v.0114c0 .1619-.1647.1477-.5625.1988-.4048.0526-.8465.1421-.8465.6421 0 .4261.3295.6704.7443.6704zm.0511-.3011c-.267 0-.4602-.1193-.4602-.3523 0-.2557.2329-.3352.4943-.3693.142-.017.5227-.0568.5795-.125v.3068c0 .2728-.2159.5398-.6136.5398z"/><path d="m16.7873 29h.3353v-1.3807c0-.294.2329-.5113.5511-.5113.0838 0 .1463.0156.1932.0397l.1136-.2841c-.0682-.0483-.1577-.0795-.2784-.0795-.2642 0-.4901.1477-.5682.3636h-.0227v-.3295h-.3239z"/><path d="m18.6577 26.0909h-.3352v2.9091h.3352z"/><path d="m19.4763 29.8466c.3068 0 .517-.1591.642-.4943l.9375-2.5341h-.3636l-.6023 1.7386h-.0227l-.6023-1.7386h-.3636l.8068 2.1932-.0739.2045c-.1179.3267-.2727.358-.517.2955l-.0853.2954c.0341.0171.1307.0398.2444.0398z"/><path d="m23.1176 29h.3295l.4773-1.6761h.0341l.4773 1.6761h.3295l.6648-2.1818h-.3523l-.4716 1.6648h-.0227l-.4602-1.6648h-.358l-.4659 1.6704h-.0227l-.4716-1.6704h-.3523z"/><path d="m26.2085 27.6875c0-.3807.2429-.5966.5739-.5966.3153 0 .5056.1989.5056.5455v1.3636h.3353v-1.3864c0-.561-.2983-.8238-.7443-.8238-.3438 0-.5398.1434-.6421.3693h-.0284v-1.0682h-.3352v2.9091h.3352z"/><path d="m29.1513 29.0455c.4432 0 .7671-.2216.8693-.5512l-.3238-.0909c-.0852.2273-.2827.3409-.5455.3409-.3934 0-.6648-.2542-.6804-.7216h1.5838v-.142c0-.8125-.4829-1.0909-.9375-1.0909-.5909 0-.9829.4659-.9829 1.1363 0 .6705.3863 1.1194 1.017 1.1194zm-.6804-1.3125c.0228-.3395.2628-.6421.6463-.6421.3637 0 .5966.2727.5966.6421z"/><path d="m30.8999 27.6875c0-.3807.2358-.5966.5568-.5966.3111 0 .5.2031.5.5455v1.3636h.3353v-1.3864c0-.5568-.2969-.8238-.7387-.8238-.3295 0-.5341.1477-.6364.3693h-.0284v-.3409h-.3238v2.1818h.3352z"/><path d="m34.9784 26.8182h-.4659v-.5227h-.3353v.5227h-.3295v.2841h.3295v1.3636c0 .3807.3069.5625.591.5625.125 0 .2045-.0227.25-.0398l-.0682-.3011c-.0284.0057-.0739.017-.1478.017-.1477 0-.2897-.0454-.2897-.3295v-1.2727h.4659z"/><path d="m35.8647 27.6875c0-.3807.2429-.5966.5739-.5966.3154 0 .5057.1989.5057.5455v1.3636h.3352v-1.3864c0-.561-.2983-.8238-.7443-.8238-.3437 0-.5398.1434-.642.3693h-.0285v-1.0682h-.3352v2.9091h.3352z"/><path d="m37.8928 29h.3352v-2.1818h-.3352zm.1705-2.5455c.1306 0 .2386-.1022.2386-.2272s-.108-.2273-.2386-.2273c-.1307 0-.2387.1023-.2387.2273s.108.2272.2387.2272z"/><path d="m39.1772 27.6875c0-.3807.2358-.5966.5569-.5966.311 0 .5.2031.5.5455v1.3636h.3352v-1.3864c0-.5568-.2969-.8238-.7386-.8238-.3296 0-.5341.1477-.6364.3693h-.0284v-.3409h-.3239v2.1818h.3352z"/><path d="m42.0625 29.8636c.5228 0 .9432-.2386.9432-.8011v-2.2443h-.3238v.3466h-.0341c-.0739-.1137-.2103-.375-.6364-.375-.5511 0-.9318.4375-.9318 1.1079 0 .6818.3977 1.0682.9261 1.0682.4262 0 .5625-.25.6364-.3693h.0284v.4432c0 .3636-.2557.5284-.608.5284-.3963 0-.5355-.2088-.625-.3296l-.267.1875c.1364.2287.4048.4375.892.4375zm-.0113-1.1988c-.4205 0-.6364-.3182-.6364-.7728 0-.4431.2102-.8011.6364-.8011.4091 0 .625.3296.625.8011 0 .483-.2216.7728-.625.7728z"/><path d="m45.1648 27.3068c-.1051-.3096-.3409-.517-.7727-.517-.4602 0-.8011.2613-.8011.6307 0 .3011.1789.5028.5795.5965l.3636.0853c.2202.0511.3239.1562.3239.3068 0 .1875-.1989.3409-.5114.3409-.2741 0-.446-.1179-.5056-.3523l-.3182.0796c.0781.3707.3835.5682.8295.5682.5071 0 .8523-.277.8523-.6535 0-.3039-.1903-.4957-.5796-.5909l-.3238-.0795c-.2585-.0639-.375-.1506-.375-.3182 0-.1875.1988-.3239.4659-.3239.2926 0 .4133.162.4716.3125z"/><path d="m47.7149 29.8636c.5227 0 .9432-.2386.9432-.8011v-2.2443h-.3239v.3466h-.0341c-.0738-.1137-.2102-.375-.6363-.375-.5512 0-.9319.4375-.9319 1.1079 0 .6818.3978 1.0682.9262 1.0682.4261 0 .5625-.25.6363-.3693h.0284v.4432c0 .3636-.2556.5284-.6079.5284-.3963 0-.5355-.2088-.625-.3296l-.2671.1875c.1364.2287.4049.4375.8921.4375zm-.0114-1.1988c-.4204 0-.6363-.3182-.6363-.7728 0-.4431.2102-.8011.6363-.8011.4091 0 .625.3296.625.8011 0 .483-.2216.7728-.625.7728z"/><path d="m50.1581 29.0455c.5909 0 .9886-.4489.9886-1.125 0-.6819-.3977-1.1307-.9886-1.1307s-.9887.4488-.9887 1.1307c0 .6761.3978 1.125.9887 1.125zm0-.3012c-.4489 0-.6534-.3863-.6534-.8238s.2045-.8296.6534-.8296c.4488 0 .6534.3921.6534.8296s-.2046.8238-.6534.8238z"/><path d="m53.2777 29h.3296l.4773-1.6761h.0341l.4772 1.6761h.3296l.6647-2.1818h-.3522l-.4716 1.6648h-.0227l-.4603-1.6648h-.3579l-.4659 1.6704h-.0228l-.4716-1.6704h-.3522z"/><path d="m56.0334 29h.3353v-1.3807c0-.294.2329-.5113.5511-.5113.0838 0 .1463.0156.1932.0397l.1136-.2841c-.0682-.0483-.1577-.0795-.2784-.0795-.2642 0-.4901.1477-.5682.3636h-.0227v-.3295h-.3239z"/><path d="m58.3885 29.0455c.5909 0 .9887-.4489.9887-1.125 0-.6819-.3978-1.1307-.9887-1.1307s-.9886.4488-.9886 1.1307c0 .6761.3977 1.125.9886 1.125zm0-.3012c-.4488 0-.6534-.3863-.6534-.8238s.2046-.8296.6534-.8296c.4489 0 .6535.3921.6535.8296s-.2046.8238-.6535.8238z"/><path d="m60.2241 27.6875c0-.3807.2358-.5966.5568-.5966.3111 0 .5.2031.5.5455v1.3636h.3353v-1.3864c0-.5568-.2969-.8238-.7387-.8238-.3295 0-.5341.1477-.6363.3693h-.0284v-.3409h-.3239v2.1818h.3352z"/><path d="m63.1094 29.8636c.5227 0 .9432-.2386.9432-.8011v-2.2443h-.3239v.3466h-.0341c-.0738-.1137-.2102-.375-.6363-.375-.5512 0-.9318.4375-.9318 1.1079 0 .6818.3977 1.0682.9261 1.0682.4261 0 .5625-.25.6364-.3693h.0284v.4432c0 .3636-.2557.5284-.608.5284-.3963 0-.5355-.2088-.625-.3296l-.267.1875c.1363.2287.4048.4375.892.4375zm-.0113-1.1988c-.4205 0-.6364-.3182-.6364-.7728 0-.4431.2102-.8011.6364-.8011.409 0 .625.3296.625.8011 0 .483-.2216.7728-.625.7728z"/><path d="m65.1662 28.6023h-.3636l-.017.1591c-.0412.3849-.1222.7684-.1591.9488h.2556c.0682-.1932.2131-.6307.2614-.9545z"/><path d="m67.4067 29h.3295l.4773-1.6761h.0341l.4772 1.6761h.3296l.6648-2.1818h-.3523l-.4716 1.6648h-.0227l-.4603-1.6648h-.3579l-.4659 1.6704h-.0228l-.4715-1.6704h-.3523z"/><path d="m71.0029 29.0455c.4432 0 .767-.2216.8693-.5512l-.3239-.0909c-.0852.2273-.2826.3409-.5454.3409-.3935 0-.6648-.2542-.6804-.7216h1.5838v-.142c0-.8125-.483-1.0909-.9375-1.0909-.5909 0-.983.4659-.983 1.1363 0 .6705.3864 1.1194 1.0171 1.1194zm-.6804-1.3125c.0227-.3395.2628-.6421.6463-.6421.3636 0 .5966.2727.5966.6421z"/><path d="m73.5412 29h.3353v-1.3636c0-.3196.2329-.5455.4943-.5455.2542 0 .4318.1662.4318.4148v1.4943h.3409v-1.4205c0-.2812.1761-.4886.483-.4886.2386 0 .4431.1264.4431.4489v1.4602h.3353v-1.4602c0-.5128-.2756-.75-.6648-.75-.3125 0-.5412.1434-.6534.3693h-.0227c-.108-.233-.2983-.3693-.5853-.3693-.2841 0-.4943.1363-.5852.3693h-.0284v-.3409h-.3239z"/><path d="m78.3928 28.108c0 .409-.3125.5965-.5625.5965-.2784 0-.4773-.2045-.4773-.5227v-1.3636h-.3352v1.3863c0 .5569.2955.8239.7045.8239.3296 0 .5455-.1761.6478-.3977h.0227v.3693h.3352v-2.1818h-.3352z"/><path d="m80.8875 27.3068c-.1051-.3096-.3409-.517-.7728-.517-.4602 0-.8011.2613-.8011.6307 0 .3011.179.5028.5796.5965l.3636.0853c.2202.0511.3239.1562.3239.3068 0 .1875-.1989.3409-.5114.3409-.2742 0-.446-.1179-.5057-.3523l-.3182.0796c.0782.3707.3836.5682.8296.5682.5071 0 .8522-.277.8522-.6535 0-.3039-.1903-.4957-.5795-.5909l-.3239-.0795c-.2585-.0639-.375-.1506-.375-.3182 0-.1875.1989-.3239.4659-.3239.2927 0 .4134.162.4716.3125z"/><path d="m82.3807 26.8182h-.4659v-.5227h-.3352v.5227h-.3296v.2841h.3296v1.3636c0 .3807.3068.5625.5909.5625.125 0 .2045-.0227.25-.0398l-.0682-.3011c-.0284.0057-.0738.017-.1477.017-.1477 0-.2898-.0454-.2898-.3295v-1.2727h.4659z"/><path d="m84.652 29.0511c.3807 0 .5796-.2045.6478-.3466h.017v.2955h.3352v-1.4375c0-.6932-.5284-.7727-.8068-.7727-.3295 0-.7045.1136-.875.5113l.3182.1137c.0739-.1591.2486-.3296.5682-.3296.3082 0 .4602.1634.4602.4432v.0114c0 .1619-.1648.1477-.5625.1988-.4048.0526-.8466.1421-.8466.6421 0 .4261.3296.6704.7443.6704zm.0512-.3011c-.2671 0-.4603-.1193-.4603-.3523 0-.2557.233-.3352.4944-.3693.142-.017.5227-.0568.5795-.125v.3068c0 .2728-.2159.5398-.6136.5398z"/><path d="m87.1503 29.0455c.4829 0 .8011-.2955.8579-.6819h-.3352c-.0625.2387-.2614.3807-.5227.3807-.3978 0-.6535-.3295-.6535-.8352 0-.4943.2614-.8182.6535-.8182.2954 0 .4716.1818.5227.3807h.3352c-.0568-.4091-.4034-.6818-.8636-.6818-.5909 0-.983.4659-.983 1.1307 0 .6534.375 1.125.9887 1.125z"/><path d="m89.4471 26.8182h-.4659v-.5227h-.3352v.5227h-.3295v.2841h.3295v1.3636c0 .3807.3068.5625.5909.5625.125 0 .2046-.0227.25-.0398l-.0682-.3011c-.0284.0057-.0738.017-.1477.017-.1477 0-.2898-.0454-.2898-.3295v-1.2727h.4659z"/><path d="m.948908 34.0511c.380682 0 .579542-.2045.647732-.3466h.01704v.2955h.33523v-1.4375c0-.6932-.52841-.7727-.80682-.7727-.329546 0-.704546.1136-.875.5113l.318182.1137c.073863-.1591.248579-.3296.568178-.3296.30824 0 .46023.1634.46023.4432v.0114c0 .1619-.16477.1477-.5625.1988-.404829.0526-.84659.1421-.84659.6421 0 .4261.329545.6704.744318.6704zm.051132-.3011c-.267041 0-.460223-.1193-.460223-.3523 0-.2557.232955-.3352.494323-.3693.14204-.017.52272-.0568.57954-.125v.3068c0 .2728-.21591.5398-.61364.5398z"/><path d="m4.10622 32.3068c-.10511-.3096-.34091-.517-.77272-.517-.46023 0-.80114.2613-.80114.6307 0 .3011.17898.5028.57955.5965l.36363.0853c.22017.0511.32387.1562.32387.3068 0 .1875-.19887.3409-.51137.3409-.27415 0-.44602-.1179-.50568-.3523l-.31818.0796c.07812.3707.38352.5682.82954.5682.50711 0 .85228-.277.85228-.6535 0-.3039-.19034-.4957-.57955-.5909l-.32386-.0795c-.25853-.0639-.375-.1506-.375-.3182 0-.1875.19886-.3239.46591-.3239.29261 0 .41335.162.47159.3125z"/><path d="m6.72448 31.8182h-.46591v-.5227h-.33523v.5227h-.32955v.2841h.32955v1.3636c0 .3807.30682.5625.59091.5625.125 0 .20454-.0227.25-.0398l-.06818-.3011c-.02841.0057-.07387.017-.14773.017-.14773 0-.28977-.0454-.28977-.3295v-1.2727h.46591z"/><path d="m7.61084 32.6875c0-.3807.2429-.5966.57386-.5966.31534 0 .50569.1989.50569.5455v1.3636h.33522v-1.3864c0-.561-.29829-.8238-.74432-.8238-.34375 0-.53977.1434-.64204.3693h-.02841v-1.0682h-.33523v2.9091h.33523z"/><path d="m10.5253 34.0455c.5909 0 .9886-.4489.9886-1.125 0-.6819-.3977-1.1307-.9886-1.1307-.59095 0-.98868.4488-.98868 1.1307 0 .6761.39773 1.125.98868 1.125zm0-.3012c-.4489 0-.65345-.3863-.65345-.8238s.20455-.8296.65345-.8296c.4488 0 .6534.3921.6534.8296s-.2046.8238-.6534.8238z"/><path d="m13.4006 33.108c0 .409-.3125.5965-.5625.5965-.2784 0-.4773-.2045-.4773-.5227v-1.3636h-.3352v1.3863c0 .5569.2955.8239.7046.8239.3295 0 .5454-.1761.6477-.3977h.0227v.3693h.3352v-2.1818h-.3352z"/><path d="m15.2305 34.8636c.5227 0 .9432-.2386.9432-.8011v-2.2443h-.3239v.3466h-.0341c-.0738-.1137-.2102-.375-.6363-.375-.5512 0-.9318.4375-.9318 1.1079 0 .6818.3977 1.0682.9261 1.0682.4261 0 .5625-.25.6364-.3693h.0284v.4432c0 .3636-.2557.5284-.608.5284-.3963 0-.5355-.2088-.625-.3296l-.267.1875c.1363.2287.4048.4375.892.4375zm-.0114-1.1988c-.4204 0-.6363-.3182-.6363-.7728 0-.4431.2102-.8011.6363-.8011.4091 0 .625.3296.625.8011 0 .483-.2215.7728-.625.7728z"/><path d="m17.1226 32.6875c0-.3807.2429-.5966.5738-.5966.3154 0 .5057.1989.5057.5455v1.3636h.3352v-1.3864c0-.561-.2983-.8238-.7443-.8238-.3437 0-.5398.1434-.642.3693h-.0284v-1.0682h-.3353v2.9091h.3353z"/><path d="m21.2245 31.8182h-.4659v-.5227h-.3353v.5227h-.3295v.2841h.3295v1.3636c0 .3807.3069.5625.5909.5625.125 0 .2046-.0227.25-.0398l-.0681-.3011c-.0284.0057-.0739.017-.1478.017-.1477 0-.2897-.0454-.2897-.3295v-1.2727h.4659z"/><path d="m22.1108 32.6875c0-.3807.2429-.5966.5739-.5966.3153 0 .5057.1989.5057.5455v1.3636h.3352v-1.3864c0-.561-.2983-.8238-.7443-.8238-.3438 0-.5398.1434-.6421.3693h-.0284v-1.0682h-.3352v2.9091h.3352z"/><path d="m25.0537 34.0455c.4431 0 .767-.2216.8693-.5512l-.3239-.0909c-.0852.2273-.2826.3409-.5454.3409-.3935 0-.6648-.2542-.6804-.7216h1.5838v-.142c0-.8125-.483-1.0909-.9375-1.0909-.5909 0-.983.4659-.983 1.1363 0 .6705.3864 1.1194 1.0171 1.1194zm-.6804-1.3125c.0227-.3395.2628-.6421.6463-.6421.3636 0 .5966.2727.5966.6421z"/><path d="m27.592 34.8182h.3352v-1.1534h.0285c.0738.1193.2159.3807.6363.3807.5455 0 .9262-.4375.9262-1.1307 0-.6875-.3807-1.125-.9319-1.125-.4261 0-.5568.2613-.6306.375h-.0398v-.3466h-.3239zm.3296-1.9091c0-.4886.2159-.8182.625-.8182.4261 0 .6363.358.6363.8182 0 .4659-.2159.8352-.6363.8352-.4034 0-.625-.3409-.625-.8352z"/><path d="m30.6716 34.0511c.3806 0 .5795-.2045.6477-.3466h.017v.2955h.3353v-1.4375c0-.6932-.5284-.7727-.8069-.7727-.3295 0-.7045.1136-.875.5113l.3182.1137c.0739-.1591.2486-.3296.5682-.3296.3082 0 .4602.1634.4602.4432v.0114c0 .1619-.1647.1477-.5625.1988-.4048.0526-.8466.1421-.8466.6421 0 .4261.3296.6704.7444.6704zm.0511-.3011c-.267 0-.4602-.1193-.4602-.3523 0-.2557.2329-.3352.4943-.3693.142-.017.5227-.0568.5795-.125v.3068c0 .2728-.2159.5398-.6136.5398z"/><path d="m33.2323 31.8182h-.4659v-.5227h-.3352v.5227h-.3296v.2841h.3296v1.3636c0 .3807.3068.5625.5909.5625.125 0 .2045-.0227.25-.0398l-.0682-.3011c-.0284.0057-.0739.017-.1477.017-.1478 0-.2898-.0454-.2898-.3295v-1.2727h.4659z"/><path d="m33.7366 34h.3352v-2.1818h-.3352zm.1704-2.5455c.1307 0 .2386-.1022.2386-.2272s-.1079-.2273-.2386-.2273-.2386.1023-.2386.2273.1079.2272.2386.2272z"/><path d="m35.6005 34.0455c.4432 0 .7671-.2216.8694-.5512l-.3239-.0909c-.0852.2273-.2827.3409-.5455.3409-.3934 0-.6647-.2542-.6804-.7216h1.5839v-.142c0-.8125-.483-1.0909-.9375-1.0909-.591 0-.983.4659-.983 1.1363 0 .6705.3864 1.1194 1.017 1.1194zm-.6804-1.3125c.0228-.3395.2628-.6421.6464-.6421.3636 0 .5965.2727.5965.6421z"/><path d="m37.3491 32.6875c0-.3807.2358-.5966.5568-.5966.3111 0 .5.2031.5.5455v1.3636h.3353v-1.3864c0-.5568-.2969-.8238-.7387-.8238-.3295 0-.5341.1477-.6363.3693h-.0284v-.3409h-.3239v2.1818h.3352z"/><path d="m40.3026 31.8182h-.4659v-.5227h-.3352v.5227h-.3296v.2841h.3296v1.3636c0 .3807.3068.5625.5909.5625.125 0 .2045-.0227.25-.0398l-.0682-.3011c-.0284.0057-.0739.017-.1477.017-.1478 0-.2898-.0454-.2898-.3295v-1.2727h.4659z"/><path d="m41.9319 34h.3352v-2.1818h-.3352zm.1704-2.5455c.1307 0 .2387-.1022.2387-.2272s-.108-.2273-.2387-.2273-.2386.1023-.2386.2273.1079.2272.2386.2272z"/><path d="m44.4265 32.3068c-.1051-.3096-.3409-.517-.7727-.517-.4602 0-.8011.2613-.8011.6307 0 .3011.179.5028.5795.5965l.3637.0853c.2201.0511.3238.1562.3238.3068 0 .1875-.1988.3409-.5113.3409-.2742 0-.4461-.1179-.5057-.3523l-.3182.0796c.0781.3707.3835.5682.8295.5682.5071 0 .8523-.277.8523-.6535 0-.3039-.1903-.4957-.5795-.5909l-.3239-.0795c-.2585-.0639-.375-.1506-.375-.3182 0-.1875.1989-.3239.4659-.3239.2926 0 .4134.162.4716.3125z"/><path d="m46.9823 34.0455c.5909 0 .9886-.4489.9886-1.125 0-.6819-.3977-1.1307-.9886-1.1307s-.9886.4488-.9886 1.1307c0 .6761.3977 1.125.9886 1.125zm0-.3012c-.4489 0-.6534-.3863-.6534-.8238s.2045-.8296.6534-.8296.6534.3921.6534.8296-.2045.8238-.6534.8238z"/><path d="m48.8179 32.6875c0-.3807.2358-.5966.5568-.5966.3111 0 .5.2031.5.5455v1.3636h.3352v-1.3864c0-.5568-.2969-.8238-.7386-.8238-.3296 0-.5341.1477-.6364.3693h-.0284v-.3409h-.3239v2.1818h.3353z"/><path d="m51.7373 34.0455c.4431 0 .767-.2216.8693-.5512l-.3239-.0909c-.0852.2273-.2827.3409-.5454.3409-.3935 0-.6648-.2542-.6804-.7216h1.5838v-.142c0-.8125-.483-1.0909-.9375-1.0909-.5909 0-.983.4659-.983 1.1363 0 .6705.3864 1.1194 1.0171 1.1194zm-.6804-1.3125c.0227-.3395.2627-.6421.6463-.6421.3636 0 .5966.2727.5966.6421z"/><path d="m55.162 34.0455c.5909 0 .9886-.4489.9886-1.125 0-.6819-.3977-1.1307-.9886-1.1307s-.9887.4488-.9887 1.1307c0 .6761.3978 1.125.9887 1.125zm0-.3012c-.4489 0-.6534-.3863-.6534-.8238s.2045-.8296.6534-.8296c.4488 0 .6534.3921.6534.8296s-.2046.8238-.6534.8238z"/><path d="m57.6339 31.8182h-.4886v-.2216c0-.2159.0909-.3296.3125-.3296.0966 0 .1534.0228.1875.0341l.0966-.2897c-.0512-.0228-.1534-.0569-.3182-.0569-.3125 0-.6136.1875-.6136.5625v.3012h-.3523v.2841h.3523v1.8977h.3352v-1.8977h.4886z"/><path d="m60.6037 33.108c0 .409-.3125.5965-.5625.5965-.2784 0-.4772-.2045-.4772-.5227v-1.3636h-.3353v1.3863c0 .5569.2955.8239.7046.8239.3295 0 .5454-.1761.6477-.3977h.0227v.3693h.3353v-2.1818h-.3353z"/><path d="m63.0984 32.3068c-.1051-.3096-.3409-.517-.7727-.517-.4602 0-.8012.2613-.8012.6307 0 .3011.179.5028.5796.5965l.3636.0853c.2202.0511.3239.1562.3239.3068 0 .1875-.1989.3409-.5114.3409-.2741 0-.446-.1179-.5057-.3523l-.3181.0796c.0781.3707.3835.5682.8295.5682.5071 0 .8523-.277.8523-.6535 0-.3039-.1904-.4957-.5796-.5909l-.3238-.0795c-.2585-.0639-.375-.1506-.375-.3182 0-.1875.1988-.3239.4659-.3239.2926 0 .4133.162.4716.3125z"/><path d="m63.8871 34.0227c.1406 0 .2557-.115.2557-.2557 0-.1406-.1151-.2556-.2557-.2556s-.2557.115-.2557.2556c0 .1407.1151.2557.2557.2557z"/><path d="m68.3694 32.5455c0-.9205-.5398-1.4944-1.2841-1.4944s-1.2841.5739-1.2841 1.4944c0 .9204.5398 1.4943 1.2841 1.4943s1.2841-.5739 1.2841-1.4943zm-.3409 0c0 .7556-.4148 1.1647-.9432 1.1647s-.9432-.4091-.9432-1.1647c0-.7557.4148-1.1648.9432-1.1648s.9432.4091.9432 1.1648z"/><path d="m69.2515 32.6875c0-.3807.2358-.5966.5568-.5966.3111 0 .5.2031.5.5455v1.3636h.3352v-1.3864c0-.5568-.2969-.8238-.7386-.8238-.3296 0-.5341.1477-.6364.3693h-.0284v-.3409h-.3239v2.1818h.3353z"/><path d="m72.1709 34.0455c.4431 0 .767-.2216.8693-.5512l-.3239-.0909c-.0852.2273-.2827.3409-.5454.3409-.3935 0-.6648-.2542-.6804-.7216h1.5838v-.142c0-.8125-.483-1.0909-.9375-1.0909-.5909 0-.983.4659-.983 1.1363 0 .6705.3864 1.1194 1.0171 1.1194zm-.6804-1.3125c.0227-.3395.2627-.6421.6463-.6421.3636 0 .5966.2727.5966.6421z"/><path d="m75.5331 34.0455c.4204 0 .5625-.2614.6363-.3807h.0398v.3352h.3239v-2.9091h-.3353v1.0739h-.0284c-.0738-.1137-.2045-.375-.6307-.375-.5511 0-.9318.4375-.9318 1.125 0 .6932.3807 1.1307.9262 1.1307zm.0454-.3012c-.4204 0-.6363-.3693-.6363-.8352 0-.4602.2102-.8182.6363-.8182.4091 0 .625.3296.625.8182 0 .4943-.2216.8352-.625.8352z"/><path d="m77.8356 34.0511c.3807 0 .5796-.2045.6478-.3466h.017v.2955h.3352v-1.4375c0-.6932-.5284-.7727-.8068-.7727-.3295 0-.7045.1136-.875.5113l.3182.1137c.0739-.1591.2486-.3296.5682-.3296.3082 0 .4602.1634.4602.4432v.0114c0 .1619-.1648.1477-.5625.1988-.4048.0526-.8466.1421-.8466.6421 0 .4261.3296.6704.7443.6704zm.0512-.3011c-.2671 0-.4603-.1193-.4603-.3523 0-.2557.233-.3352.4944-.3693.142-.017.5227-.0568.5795-.125v.3068c0 .2728-.2159.5398-.6136.5398z"/><path d="m79.5739 34.8466c.3068 0 .5171-.1591.6421-.4943l.9375-2.5341h-.3637l-.6023 1.7386h-.0227l-.6023-1.7386h-.3636l.8068 2.1932-.0738.2045c-.1179.3267-.2728.358-.5171.2955l-.0852.2954c.0341.0171.1307.0398.2443.0398z"/><path d="m82.7209 34h.3353v-2.1818h-.3353zm.1705-2.5455c.1307 0 .2386-.1022.2386-.2272s-.1079-.2273-.2386-.2273-.2387.1023-.2387.2273.108.2272.2387.2272z"/><path d="m84.619 31.8182h-.4659v-.5227h-.3352v.5227h-.3296v.2841h.3296v1.3636c0 .3807.3068.5625.5909.5625.125 0 .2045-.0227.25-.0398l-.0682-.3011c-.0284.0057-.0739.017-.1477.017-.1478 0-.2898-.0454-.2898-.3295v-1.2727h.4659z"/><path d="m.306863 39h.335227v-1.3636c0-.3196.232954-.5455.49432-.5455.25426 0 .43182.1662.43182.4148v1.4943h.34091v-1.4205c0-.2812.17613-.4886.48295-.4886.23864 0 .44318.1264.44318.4489v1.4602h.33523v-1.4602c0-.5128-.27557-.75-.66477-.75-.3125 0-.5412.1434-.65341.3693h-.02273c-.10795-.233-.2983-.3693-.58523-.3693-.284088 0-.494316.1363-.585225.3693h-.028409v-.3409h-.323863z"/><path d="m3.78343 39h.33522v-2.1818h-.33522zm.17045-2.5455c.13068 0 .23864-.1022.23864-.2272s-.10796-.2273-.23864-.2273-.23864.1023-.23864.2273.10796.2272.23864.2272z"/><path d="m5.61333 39.8636c.52272 0 .94318-.2386.94318-.8011v-2.2443h-.32387v.3466h-.03409c-.07386-.1137-.21022-.375-.63636-.375-.55114 0-.93182.4375-.93182 1.1079 0 .6818.39773 1.0682.92614 1.0682.42613 0 .5625-.25.63636-.3693h.02841v.4432c0 .3636-.25568.5284-.60795.5284-.39631 0-.53552-.2088-.625-.3296l-.26705.1875c.13636.2287.40483.4375.89205.4375zm-.01137-1.1988c-.42045 0-.63636-.3182-.63636-.7728 0-.4431.21023-.8011.63636-.8011.40909 0 .625.3296.625.8011 0 .483-.22159.7728-.625.7728z"/><path d="m7.50537 37.6875c0-.3807.2429-.5966.57386-.5966.31535 0 .50569.1989.50569.5455v1.3636h.33522v-1.3864c0-.561-.29829-.8238-.74431-.8238-.34375 0-.53978.1434-.64205.3693h-.02841v-1.0682h-.33523v2.9091h.33523z"/><path d="m10.4823 36.8182h-.4659v-.5227h-.33525v.5227h-.32954v.2841h.32954v1.3636c0 .3807.30682.5625.59095.5625.125 0 .2045-.0227.25-.0398l-.0682-.3011c-.0284.0057-.0739.017-.1477.017-.1478 0-.2898-.0454-.2898-.3295v-1.2727h.4659z"/><path d="m12.157 39h.3239v-.3352h.0397c.0739.1193.216.3807.6364.3807.5455 0 .9261-.4375.9261-1.1307 0-.6875-.3806-1.125-.9318-1.125-.4261 0-.5568.2613-.6307.375h-.0284v-1.0739h-.3352zm.3296-1.0909c0-.4886.2159-.8182.625-.8182.4261 0 .6363.358.6363.8182 0 .4659-.2159.8352-.6363.8352-.4035 0-.625-.3409-.625-.8352z"/><path d="m15.5107 39.0455c.4432 0 .767-.2216.8693-.5512l-.3238-.0909c-.0853.2273-.2827.3409-.5455.3409-.3935 0-.6648-.2542-.6804-.7216h1.5838v-.142c0-.8125-.4829-1.0909-.9375-1.0909-.5909 0-.9829.4659-.9829 1.1363 0 .6705.3863 1.1194 1.017 1.1194zm-.6804-1.3125c.0227-.3395.2628-.6421.6463-.6421.3636 0 .5966.2727.5966.6421z"/><path d="m17.1684 39.0227c.1406 0 .2556-.115.2556-.2557 0-.1406-.115-.2556-.2556-.2556-.1407 0-.2557.115-.2557.2556 0 .1407.115.2557.2557.2557z"/></g></svg>