<svg fill="none" height="16" viewBox="0 0 44 16" width="44" xmlns="http://www.w3.org/2000/svg"><g fill="#000"><path d="m6.47996 14.192c-.84266 0-1.62666-.1493-2.352-.448-.72533-.2987-1.36-.7147-1.904-1.248-.53333-.5333-.95466-1.152-1.263997-1.856-.298667-.71467-.448-1.48266-.448-2.304 0-.832.149333-1.6.448-2.304s.714667-1.31733 1.247997-1.84c.544-.53333 1.17334-.944 1.888-1.232.72534-.29867 1.50934-.448 2.352-.448.85334 0 1.63734.14933 2.352.448.72534.288 1.35464.69867 1.88804 1.232.544.52267.9653 1.14134 1.264 1.856.2986.704.448 1.472.448 2.304 0 .82133-.1494 1.58934-.448 2.304-.2987.704-.72 1.3227-1.264 1.856-.5334.5227-1.15737.9333-1.87204 1.232-.71466.2987-1.49333.448-2.336.448zm-.032-2.288c.68267 0 1.27467-.1493 1.776-.448.50134-.2987.89067-.7147 1.168-1.248.288-.544.432-1.168.432-1.872 0-.53333-.08-1.01333-.24-1.44-.16-.43733-.38933-.81066-.688-1.12-.29866-.32-.656-.56-1.072-.72-.40533-.17067-.864-.256-1.376-.256-.672 0-1.25866.14933-1.76.448-.50133.288-.896.69867-1.184 1.232-.27733.52267-.416 1.14134-.416 1.856 0 .53334.08 1.01867.24 1.456.16.4373.38934.816.688 1.136.29867.3093.65067.5493 1.056.72.416.1707.87467.256 1.376.256zm5.07204 2.992-5.28004-5.28 1.456-1.456 5.28004 5.28z"/><path d="m16.2111 9.888v-1.952h2.432c.3093 0 .592-.064.848-.192s.4587-.31467.608-.56.224-.544.224-.896c0-.34133-.0747-.63466-.224-.88-.1493-.24533-.352-.432-.608-.56s-.5387-.192-.848-.192h-2.432v-1.952h2.8c.7147 0 1.36.144 1.936.432s1.0293.704 1.36 1.248c.3413.53334.512 1.168.512 1.904s-.1707 1.376-.512 1.92c-.3307.53334-.784.94933-1.36 1.248-.576.288-1.2213.432-1.936.432zm-1.92 4.112v-11.296h2.512v11.296z"/><path d="m24.2286 14v-11.296h2.512v11.296zm6.992 0v-11.296h2.528v11.296zm-5.488-4.72v-2.176h6.32v2.176z"/><path d="m35.9161 14v-11.296h2.512v11.296zm1.936 0v-2.208h5.584v2.208z"/></g></svg>