<svg fill="none" height="58" viewBox="0 0 223 58" width="223" xmlns="http://www.w3.org/2000/svg"><g fill="#fff"><path d="m23.9501 12c5.1892 0 8.5821 2.5 11.1767 5.4.1996.2.2994.4.499.6s.2994.4.4989.6c.8982 1.1 1.5967 2.3 2.2953 3.3.4989.7.8981 1.4 1.397 2 .1996.2.2994.4.499.6s.2994.4.499.6c1.896 2.3 3.7921 3.8 6.5862 4 .3992-1.7.5988-3.4.5988-5.2s-.1996-3.6-.5988-5.2c-2.7941.2-4.6902 1.6-6.5862 4-.2994-.5-.6986-1-1.0977-1.6-.7984-1.1-1.5967-2.4-2.5946-3.7 1.9958-2.3 4.4906-4.3 7.8835-5.1-4.1912-7.3-12.0748-12.3-21.0561-12.3s-16.86486 5-20.95634 12.3c3.39293.8 5.78794 2.8 7.88354 5.1.1996.2.2994.4.499.6s.2994.4.499.6c.9979 1.2 1.7962 2.5 2.5946 3.7.3991.6.6985 1.1 1.0977 1.6.1996.2.2993.4.4989.7.1996.2.2994.4.499.7 2.0956 2.9 4.1913 4.9 7.4844 4.9s5.3888-2 7.4844-4.9c.1996.4.499.7.6985 1.1.8982 1.3 1.7963 2.8 2.894 4.1-2.4948 2.9-5.9875 5.4-11.1767 5.4s-8.5821-2.5-11.1767-5.4c-.1996-.2-.2994-.4-.499-.6s-.2993-.4-.4989-.6c-.8982-1.1-1.5967-2.3-2.29525-3.3-.49896-.7-.89813-1.4-1.39709-2-.19958-.2-.29938-.4-.49896-.6s-.29938-.4-.49896-.6c-1.89605-2.3-3.7921-3.8-6.58628-4-.299376 1.6-.49896 3.4-.49896 5.2s.199584 3.6.598753 5.2c2.794177-.2 4.690227-1.6 6.586277-4 .29938.5.69855 1 1.09771 1.6.79834 1.1 1.59668 2.4 2.59456 3.7-1.9958 2.3-4.49061 4.3-7.88354 5.1 4.09148 7.4 11.97504 12.4 20.95634 12.4s16.8649-5 20.9563-12.3c-3.3929-.8-5.7879-2.8-7.8835-5.1-.1996-.2-.2994-.4-.499-.6s-.2994-.4-.499-.6c-.9979-1.2-1.7962-2.5-2.5945-3.7-.3992-.6-.6986-1.1-1.0978-1.6-.1995-.2-.2993-.4-.4989-.7-.1996-.2-.2994-.4-.499-.7-2.0956-2.9-4.1912-4.9-7.4844-4.9-3.2931 0-5.3888 2-7.4844 4.9-.1996-.4-.499-.7-.6985-1.1-.8982-1.3-1.7963-2.8-2.894-4.1 2.5946-3 5.9875-5.5 11.1767-5.5z"/><path d="m67.2745 19.9748h4.2738c-.0618-3.7589-3.1513-6.3541-7.8473-6.3541-4.6239 0-8.0121 2.554-7.9915 6.385-.0103 3.11 2.1833 4.8916 5.7465 5.7464l2.2965.5767c2.2965.5561 3.5735 1.2152 3.5838 2.6364-.0103 1.5447-1.4727 2.5951-3.7383 2.5951-2.3171 0-3.9854-1.071-4.1296-3.1821h-4.315c.1133 4.5621 3.3779 6.9204 8.4961 6.9204 5.1492 0 8.1769-2.4613 8.1871-6.3231-.0102-3.5117-2.6569-5.3757-6.3231-6.1996l-1.8949-.4531c-1.8331-.4223-3.3675-1.1019-3.3366-2.6158 0-1.3594 1.2049-2.3583 3.3881-2.3583 2.1318 0 3.4396.968 3.6044 2.6261z"/><path d="m77.874 35h4.6343l2.7187-9.9482h.1957l2.7187 9.9482h4.6446l4.2944-15.8182h-4.4283l-2.4098 10.566h-.1339l-2.5952-10.566h-4.3561l-2.554 10.6278h-.1442l-2.451-10.6278h-4.4386z"/><path d="m99.4206 35h4.3874v-15.8182h-4.3874zm2.2034-17.8573c1.308 0 2.379-.9989 2.379-2.2244 0-1.2152-1.071-2.2141-2.379-2.2141-1.297 0-2.3681.9989-2.3681 2.2141 0 1.2255 1.0711 2.2244 2.3681 2.2244z"/><path d="m115.973 19.1818h-3.141v-1.0607c0-1.0711.432-1.6993 1.719-1.6993.526 0 1.061.1133 1.411.2266l.773-3.2954c-.546-.1648-1.751-.4326-3.1-.4326-2.976 0-5.19 1.6786-5.19 5.1183v1.1431h-2.235v3.2954h2.235v12.5228h4.387v-12.5228h3.141z"/><path d="m127.064 19.1818h-2.976v-3.7898h-4.387v3.7898h-2.163v3.2954h2.163v8.2387c-.021 3.0998 2.09 4.6342 5.272 4.5003 1.133-.0412 1.936-.2677 2.379-.4119l-.69-3.2646c-.216.0412-.679.1442-1.091.1442-.876 0-1.483-.3295-1.483-1.5447v-7.662h2.976z"/><path d="m137.82 35c6.427 0 10.319-3.9752 10.319-10.5661 0-6.5703-3.892-10.5248-10.257-10.5248h-7.538v21.0909zm-3.017-3.8207v-13.4496h2.842c3.955 0 6.045 2.0185 6.045 6.7042 0 4.7063-2.09 6.7454-6.055 6.7454z"/><path d="m158.569 35.3089c3.913 0 6.55-1.9052 7.168-4.8402l-4.058-.2677c-.443 1.2049-1.576 1.8331-3.038 1.8331-2.194 0-3.584-1.4521-3.584-3.8104v-.0103h10.772v-1.2049c0-5.3757-3.254-8.0327-7.435-8.0327-4.655 0-7.672 3.3058-7.672 8.1872 0 5.0152 2.976 8.1459 7.847 8.1459zm-3.512-9.8143c.093-1.8022 1.463-3.2439 3.409-3.2439 1.905 0 3.223 1.3594 3.234 3.2439z"/><path d="m177.106 19.1818h-2.976v-3.7898h-4.387v3.7898h-2.163v3.2954h2.163v8.2387c-.021 3.0998 2.09 4.6342 5.272 4.5003 1.133-.0412 1.936-.2677 2.379-.4119l-.69-3.2646c-.216.0412-.679.1442-1.091.1442-.876 0-1.483-.3295-1.483-1.5447v-7.662h2.976z"/><path d="m187.002 35.3089c3.914 0 6.55-1.9052 7.168-4.8402l-4.057-.2677c-.443 1.2049-1.576 1.8331-3.038 1.8331-2.194 0-3.584-1.4521-3.584-3.8104v-.0103h10.772v-1.2049c0-5.3757-3.254-8.0327-7.436-8.0327-4.654 0-7.672 3.3058-7.672 8.1872 0 5.0152 2.976 8.1459 7.847 8.1459zm-3.511-9.8143c.092-1.8022 1.462-3.2439 3.409-3.2439 1.905 0 3.223 1.3594 3.233 3.2439z"/><path d="m204.273 35.3089c4.212 0 6.858-2.4716 7.064-6.1069h-4.14c-.257 1.689-1.369 2.6364-2.873 2.6364-2.049 0-3.378-1.7198-3.378-4.7475 0-2.9865 1.339-4.696 3.378-4.696 1.607 0 2.637 1.0607 2.873 2.6363h4.14c-.185-3.6559-2.955-6.0554-7.085-6.0554-4.799 0-7.765 3.3264-7.765 8.1769 0 4.8093 2.915 8.1562 7.786 8.1562z"/><path d="m222.56 19.1818h-2.976v-3.7898h-4.387v3.7898h-2.163v3.2954h2.163v8.2387c-.021 3.0998 2.09 4.6342 5.272 4.5003 1.133-.0412 1.936-.2677 2.379-.4119l-.69-3.2646c-.216.0412-.679.1442-1.091.1442-.876 0-1.483-.3295-1.483-1.5447v-7.662h2.976z"/><path d="m55.4091 54h1.2954v-1.3409h.1591c.2955.4773.8637 1.5227 2.5455 1.5227 2.1818 0 3.7045-1.75 3.7045-4.5227 0-2.75-1.5227-4.5-3.7272-4.5-1.7046 0-2.2273 1.0454-2.5228 1.5h-.1136v-4.2955h-1.3409zm1.3182-4.3636c0-1.9546.8636-3.2728 2.5-3.2728 1.7045 0 2.5454 1.4319 2.5454 3.2728 0 1.8636-.8636 3.3409-2.5454 3.3409-1.6137 0-2.5-1.3637-2.5-3.3409z"/><path d="m65.6704 57.3864c1.2273 0 2.0682-.6364 2.5682-1.9773l3.75-10.1364h-1.4545l-2.4091 6.9546h-.0909l-2.4091-6.9546h-1.4545l3.2272 8.7728-.2954.8181c-.4716 1.3069-1.0909 1.4319-2.0682 1.1819l-.3409 1.1818c.1363.0682.5227.1591.9772.1591z"/><path d="m78.4403 42.3636v11.6364h1.3182v-8.8409h.1137l3.6363 8.8409h1.2727l3.6364-8.8409h.1136v8.8409h1.3182v-11.6364h-1.6818l-3.9545 9.6591h-.1364l-3.9545-9.6591z"/><path d="m92.8523 54h1.3409v-8.7273h-1.3409zm.6818-10.1818c.5227 0 .9545-.4091.9545-.9091s-.4318-.9091-.9545-.9091-.9546.4091-.9546.9091.4319.9091.9546.9091z"/><path d="m100.195 54.1818c1.931 0 3.204-1.1818 3.431-2.7273h-1.34c-.25.9546-1.046 1.5228-2.091 1.5228-1.5913 0-2.614-1.3182-2.614-3.3409 0-1.9773 1.0454-3.2728 2.614-3.2728 1.181 0 1.886.7273 2.091 1.5228h1.34c-.227-1.6364-1.613-2.7273-3.454-2.7273-2.3638 0-3.9319 1.8636-3.9319 4.5227 0 2.6137 1.4999 4.5 3.9549 4.5z"/><path d="m105.587 54h1.341v-5.5227c0-1.1762.931-2.0455 2.204-2.0455.335 0 .585.0625.773.1591l.454-1.1364c-.272-.1931-.63-.3181-1.113-.3181-1.057 0-1.96.5909-2.273 1.4545h-.091v-1.3182h-1.295z"/><path d="m115.007 54.1818c2.364 0 3.955-1.7954 3.955-4.5 0-2.7273-1.591-4.5227-3.955-4.5227s-3.954 1.7954-3.954 4.5227c0 2.7046 1.59 4.5 3.954 4.5zm0-1.2045c-1.795 0-2.614-1.5455-2.614-3.2955s.819-3.3182 2.614-3.3182c1.796 0 2.614 1.5682 2.614 3.3182s-.818 3.2955-2.614 3.2955z"/><path d="m124.531 57.4545c2.091 0 3.773-.9545 3.773-3.2045v-8.9773h-1.295v1.3864h-.137c-.295-.4546-.841-1.5-2.545-1.5-2.205 0-3.728 1.75-3.728 4.4318 0 2.7273 1.591 4.2727 3.705 4.2727 1.705 0 2.25-1 2.545-1.4772h.114v1.7727c0 1.4545-1.023 2.1136-2.432 2.1136-1.585 0-2.142-.8352-2.5-1.3182l-1.068.75c.546.9148 1.619 1.75 3.568 1.75zm-.045-4.7954c-1.682 0-2.546-1.2727-2.546-3.0909 0-1.7727.841-3.2046 2.546-3.2046 1.636 0 2.5 1.3182 2.5 3.2046 0 1.9318-.887 3.0909-2.5 3.0909z"/><path d="m134.418 54.1818c1.772 0 3.068-.8863 3.477-2.2045l-1.296-.3637c-.34.9091-1.13 1.3637-2.181 1.3637-1.574 0-2.659-1.0171-2.722-2.8864h6.335v-.5682c0-3.25-1.932-4.3636-3.75-4.3636-2.363 0-3.932 1.8636-3.932 4.5454 0 2.6819 1.546 4.4773 4.069 4.4773zm-2.722-5.25c.091-1.3579 1.051-2.5682 2.585-2.5682 1.455 0 2.387 1.0909 2.387 2.5682z"/><path d="m141.412 48.75c0-1.5227.943-2.3864 2.227-2.3864 1.245 0 2 .8125 2 2.1819v5.4545h1.341v-5.5455c0-2.2272-1.187-3.2954-2.954-3.2954-1.319 0-2.137.5909-2.546 1.4773h-.114v-1.3637h-1.295v8.7273h1.341z"/><path d="m153.089 54.1818c1.773 0 3.069-.8863 3.478-2.2045l-1.296-.3637c-.341.9091-1.13 1.3637-2.182 1.3637-1.573 0-2.659-1.0171-2.721-2.8864h6.335v-.5682c0-3.25-1.932-4.3636-3.75-4.3636-2.364 0-3.932 1.8636-3.932 4.5454 0 2.6819 1.546 4.4773 4.068 4.4773zm-2.721-5.25c.091-1.3579 1.051-2.5682 2.585-2.5682 1.455 0 2.386 1.0909 2.386 2.5682z"/><path d="m162.538 45.2727h-1.863v-2.0909h-1.341v2.0909h-1.318v1.1364h1.318v5.4545c0 1.5228 1.227 2.25 2.363 2.25.5 0 .819-.0909 1-.1591l-.272-1.2045c-.114.0227-.296.0682-.591.0682-.591 0-1.159-.1818-1.159-1.3182v-5.0909h1.863z"/><path d="m164.555 54h1.341v-8.7273h-1.341zm.682-10.1818c.523 0 .955-.4091.955-.9091s-.432-.9091-.955-.9091-.954.4091-.954.9091.431.9091.954.9091z"/><path d="m171.898 54.1818c1.932 0 3.204-1.1818 3.432-2.7273h-1.341c-.25.9546-1.046 1.5228-2.091 1.5228-1.591 0-2.614-1.3182-2.614-3.3409 0-1.9773 1.046-3.2728 2.614-3.2728 1.182 0 1.886.7273 2.091 1.5228h1.341c-.228-1.6364-1.614-2.7273-3.455-2.7273-2.364 0-3.932 1.8636-3.932 4.5227 0 2.6137 1.5 4.5 3.955 4.5z"/><path d="m183.472 47.2273c-.421-1.2387-1.364-2.0682-3.091-2.0682-1.841 0-3.205 1.0454-3.205 2.5227 0 1.2046.716 2.0114 2.318 2.3864l1.455.3409c.881.2045 1.295.625 1.295 1.2273 0 .75-.795 1.3636-2.045 1.3636-1.097 0-1.784-.4716-2.023-1.4091l-1.273.3182c.313 1.4829 1.534 2.2727 3.319 2.2727 2.028 0 3.409-1.1079 3.409-2.6136 0-1.2159-.762-1.983-2.319-2.3637l-1.295-.3181c-1.034-.2557-1.5-.6023-1.5-1.2728 0-.75.795-1.2954 1.864-1.2954 1.17 0 1.653.6477 1.886 1.25z"/></g></svg>