<svg fill="none" height="48" viewBox="0 0 115 48" width="115" xmlns="http://www.w3.org/2000/svg" xmlns:xlink="http://www.w3.org/1999/xlink"><clipPath id="a"><path d="m0 0h114.667v48h-114.667z"/></clipPath><g clip-path="url(#a)" clip-rule="evenodd" fill-rule="evenodd"><path d="m23.5125 48.0001c-1.6047 0-3.2643-.3834-5.3812-1.2432-5.5515-2.255-8.23342-7.594-10.19122-11.4925l-.17444-.3467-7.489877-14.2416c-.3146669-.6367-.3615688-1.3587-.132706-2.0331.22949-.6749.707451-1.2196 1.345883-1.5339.3669-.1801.75874-.2715 1.1647-.2715.34291 0 .67859.0657.99765.1956.15592.063.30416.1399.44424.2301l.5211.4223c.01694.0188.06588.0702.14337.152.40235.4241 1.62729 1.7157 3.33066 3.6505.86244.9796 3.03754 3.3266 4.61004 3.9651.2251.0918.426.1398.5818.1398.0246 0 .0486-.0011.0723-.0038 1.9335-.2172 2.6204-4.6862 3.3798-10.9755l1.4409-11.97756c.0745-.73616.4298-1.39796 1.0019-1.864315.5039-.411137 1.1117-.628392 1.7577-.628392.0916 0 .1844.004549.2762.01349.2725.028549.5318.092549.7743.190902.4258.173333.8058.454117 1.0997.812705.4672.57255.6846 1.29694.6126 2.04157l-.937 14.4074c-.0738 1.495.0173 2.2784.2796 2.3851.0194.008.047.016.0817.0241.0342.008.0637.0123.0886.0123.1859 0 .4625-.4286.8221-1.2739l6.8422-16.88331c.4269-1.051142 1.4364-1.730357 2.5724-1.730357.358 0 .7087.068549 1.0421.204078 1.4144.574431 2.0986 2.193569 1.5281 3.612709l-6.1829 16.48158c-.4921 1.3018-.5793 2.0671-.2601 2.277.0341.0228.0586.0344.0742.0408.0345.014.0667.0202.1017.0202.2517 0 .7338-.2666 1.5998-1.5358l7.6355-12.0761c.386-.62525 1-1.06415 1.7255-1.22964.2031-.04785.4157-.07247.6271-.07247.3561 0 .7046.06855 1.0364.20298.1536.06243.2998.13678.4345.22149.6271.39215 1.0649 1.00643 1.2319 1.72914.1654.7156.042 1.4583-.3483 2.0925l-8.0012 14.0864c-.2449.4209-.2847.8465-.1003 1.0413.035.0361.0745.0638.1189.0817.0494.0201.1083.0305.1743.0305.149 0 .3278-.0502.5184-.1453l8.5095-5.202c.3861-.2372.8297-.3635 1.2816-.3635.1915 0 .3841.0226.5725.0673.1211.0287.2404.0668.3549.1131.4872.198.8906.5407 1.1673.9911.344.5589.4501 1.2185.2984 1.8556-.1511.6335-.5371 1.1696-1.088 1.5124-.2833.2538-.8596.69-1.6522 1.2898l-.0612.0466c-2.9376 2.2258-8.6781 7.8091-10.2854 10.6664-3.7661 6.6972-7.5752 9.8168-11.988 9.8168z" fill="#000"/><g fill="#fff"><path d="m16.5385 29.7798 1.72-6.2407-.9187-.2532.3924-1.4243 3.3263.9167-.3924 1.4241-.919-.2528-1.7198 6.2408z"/><path d="m22.157 28.2671.2077-1.8795-.792 1.7182zm-.3161 2.9746.1637-1.5533-1.0291-.2834-.6444 1.4204-1.4516-.3999 3.5748-7.2853 1.5423.4253-.662 8.0876z"/><path d="m26.3148 32.4768-.0292-2.8268-.3347.4827-.5749 2.0855-1.488-.4104 2.112-7.6649 1.4886.4097-.7336 2.6621 1.6328-2.4139 1.6768.4621-2.1976 2.9019.0947 4.7658z"/><path d="m28.5959 33.1083 2.1126-7.6651 3.0485.8402-.3925 1.4245-1.56-.4305-.4618 1.675 1.3787.3799-.3926 1.4243-1.3782-.3799-.4733 1.7175 1.5922.4388-.3926 1.4244z"/><path d="m13.1212 39.4551 2.4744-8.979 3.3867.9333-.452 1.6395-1.6716-.4605-.5591 2.0301 1.4577.4017-.4519 1.6396-1.4577-.4019-1.0113 3.6699z"/><path d="m17.4626 40.6519 2.4746-8.979 1.715.4726-2.4743 8.979z"/><path d="m21.3532 41.7508.878-9.446 1.7454.4811-.6786 5.3939 2.1804-4.9802 1.6952.4673-4.0845 8.5623z"/><path d="m25.3489 42.8257 2.4746-8.9793 3.5497.9782-.4519 1.6399-1.8346-.5056-.5523 2.0047 1.6209.4471-.4518 1.6392-1.6211-.4464-.5662 2.055 1.872.5163-.4517 1.6392z"/></g><g fill="#000"><path d="m55.144 28.5584-1.1391.0003-.0004-1.5358 3.8934-.0011v1.5358l-1.1387.0002.0017 7.7336h-1.6152z"/><path d="m61.4346 31.8939-.0006-.477c-.0003-2.3832-.3315-3.0455-.8213-3.0455-.4902 0-.821.6626-.8204 3.046l.0003.477c.0002 2.3837.3314 3.0452.8213 3.0452.4902 0 .821-.6623.8207-3.0457zm-3.2842.0005-.0003-.4769c-.0006-3.0585.992-4.5286 2.4619-4.5291 1.47-.0003 2.4636 1.4692 2.4645 4.528v.4767c.0006 3.0592-.992 4.5291-2.4619 4.5291-1.4697.0007-2.4632-1.4691-2.4642-4.5278z"/><path d="m65.7791 35.9713-.0003-1.6816c.5693.3305 1.0199.5158 1.4571.5154.4635.0002.8603-.2251.8599-.7945l.0004-.0265c0-.4237-.1328-.7415-.9011-1.6152-1.0993-1.2445-1.5496-1.8401-1.5496-2.9661v-.0264c-.0006-1.4825.966-2.4233 2.25-2.4239.6491-.0002 1.0338.0928 1.4308.2917l.0003 1.6813c-.5034-.291-.808-.4236-1.232-.4234-.4501-.0002-.8336.2914-.8339.7945l-.0003.0265c.0006.437.1327.5959.901 1.483 1.2719 1.4693 1.5497 2.0389 1.5506 3.0982l-.0003.0263c.0003 1.4567-1.019 2.4239-2.2905 2.4242-.635 0-1.1782-.1589-1.6421-.3835z"/><path d="m70.9435 28.5541-1.1387.0008-.0003-1.5362 3.8927-.0012.0007 1.5361-1.1392.0003.0025 7.7335-1.6158.0003z"/><path d="m77.2344 31.8895v-.4768c-.0007-2.3833-.3321-3.0456-.8217-3.0456-.4902.0006-.8212.6626-.8205 3.0463v.4767c.0012 2.3835.3317 3.0459.8219 3.0456.4899-.0004.8209-.6624.8203-3.0462zm-3.2841.0011v-.4771c-.0008-3.0585.9921-4.5286 2.4618-4.5292 1.4699 0 2.4635 1.4693 2.4645 4.5281v.4767c.0006 3.059-.9922 4.5291-2.4622 4.5296-1.4696.0002-2.4632-1.4693-2.4641-4.5281z"/><path d="m81.3479 31.8753c.6751-.04 1.1911-.5297 1.1908-1.6557l.0003-.0263c-.0003-1.1788-.4507-1.6813-1.1525-1.6813l-.0533.0003.0009 3.3633zm-1.6306-4.8591 1.4433-.0003c1.7614-.0005 2.9933.9523 2.9939 3.1242v.0264c.0006 2.0922-1.1649 3.0854-2.8066 3.2056l-.0129-.0003.0004 2.9132-1.6153.0005z"/><path d="m86.874 27.014 3.3765-.0005.0006 1.5359-1.7612.0006.0009 2.3305h1.5359l.0006 1.5359-1.5362.0003.001 3.8667-1.6156.0004z"/><path d="m92.6758 31.5944c.7013 0 1.2178-.4109 1.2175-1.4964v-.1059c-.0003-1.1653-.5567-1.4701-1.2582-1.4701l-.0398.0001.0009 3.0722zm-1.6967-4.5813 1.6689-.0005c1.6549-.0001 2.8602.8736 2.8605 2.9523l.0007.1191c0 1.2052-.4764 1.9729-1.0852 2.437l1.2453 3.7602-1.7211.0005-1.0472-3.2308c-.0138-.0003-.0263-.0001-.0263-.0001l-.2785.0001.0008 3.2311-1.615.0004z"/><path d="m98.9459 32.9832-.4905-3.0587-.5028 3.0589zm-1.3257-5.9981 1.7216-.0008 1.7632 9.2957-1.6156.0005-.3048-1.8405-1.4701.0002-.2903 1.8409-1.5632.0002z"/><path d="m101.301 33.5784-.002-6.5677 1.602-.0003.002 6.7266c.001.8342.292 1.1653.702 1.1653.411 0 .702-.3315.702-1.1655l-.002-6.7271 1.602-.0004.002 6.5681c0 1.9465-.979 2.8207-2.303 2.821-1.325.0002-2.304-.8732-2.305-2.82z"/><path d="m108.464 34.7948c.768-.0003 1.43-.6754 1.429-2.9931v-.3176c0-2.3177-.663-2.9927-1.431-2.9922l-.066-.0001.002 6.3035zm-1.684-7.7855 1.51-.0002c2.065-.0008 3.244 1.4952 3.245 4.4747v.3176c.001 2.9796-1.177 4.4764-3.242 4.4764l-1.511.0006z"/><path d="m112.956 28.4952v-1.4859h.307l.48 1.2045.465-1.2045h.307v1.4859h-.191v-1.3129h-.008l-.526 1.3129h-.108l-.527-1.3129h-.007v1.3129zm-.937 0v-1.3237h-.484v-.1622h1.158v.1622h-.483v1.3237z"/></g></g></svg>