<svg fill="none" height="48" viewBox="0 0 113 48" width="113" xmlns="http://www.w3.org/2000/svg"><g fill="#fff"><path clip-rule="evenodd" d="m21.5713 5.33214s-.0252-.19764-.0168-.26811c.0023-.01989.0437-.06766.1091-.14298.1662-.19155.487-.56131.712-1.10384.3126-.75585.5555-1.9322.3749-2.54729-.1778-.614916-1.0549-1.094435-2.0279-1.2382367-.9762-.1411193-2.5425.2312637-2.6943.2933267-.1494.062064-.0168.598102.0456.67698.0617.08192-.3554.67698-.562.95331-.2055.27652-.1806.39242-.1518.52477.0252.1354 0 .20587-.2259.40333-.0563.04911-.1188.09604-.1797.14175-.1806.13557-.3468.26041-.2941.39965.0733.18637.2878.32194.2878.32194s-.1158.29333-.1895.39206c-.0704.09605.1895.19478.1895.19478s-.2145.10713-.2059.23949c.0029.04749.0158.09457.029.14297.0247.08992.0506.18439.0157.29451l-.0066.02072c-.0554.17349-.1523.47724.159.65608.1584.09183.3472.16248.5215.22772.1792.06705.3431.1284.4432.20118.1468.10486.2391.28476.3396.48041.0345.06733.07.13652.109.20516.1524.26757.3753.41763.3753.41763s-.5196.44554-.7532.5609c-.2311.1159-.2145.37542-.1858.47111.0096.03765-.0556.13454-.1544.28134-.1607.23886-.4103.60986-.5711 1.0728-.039.11277-.0948.26158-.1616.4397-.1108.2952-.2518.6709-.3962 1.0963-.0587-.1459-.1214-.3098-.1869-.4923-.1977-.5518-.1692-1.33943-.1426-2.07367.0215-.59473.0418-1.15447-.0605-1.52554-.2255-.8324-.9309-1.49793-1.8617-1.86763-.9306-.36666-2.0508-.20014-2.5755.19173-.5246.39242-.4429.9027-.4429.9027s-.1554.22554-.2513.4289c-.057.12263-.0525.23269-.0489.32162.0023.05608.0043.10376-.0098.14091-.0343.09569-.2033.28528-.3441.39223-.036.02688-.0795.05655-.1253.08785-.1373.09369-.2958.20191-.3404.29294-.0592.11858.203.31873.203.31873v.03648c0 .02459-.0327.06453-.0723.11282-.0195.02372-.0406.0495-.0603.07642-.0592.0846.0478.31049.0478.31049s-.107.01074-.144.08138c-.0126.02761-.0072.07003-.0006.12229.011.08658.0254.20017-.0328.31806-.09589.19174-.14365.45108-.0367.59471.1071.14108.584.28528.584.28528s.1381.6966-.1129.8492c-.2482.1549-1.02108.3017-1.02108.3017s-.93078.1328-1.38221 1.1424c-.24119.5364-.34404 1.3473-.43775 2.0862-.08274.6523-.15837 1.2485-.31578 1.5502-.33286.6401-.70184 1.5678-.67948 2.0307.02539.4627.32176 1.4499.77535 1.6391.4543.189 1.70416-.604 1.70416-.604s-.01127 1.2497 0 2.1186c.011.8454-.48074 2.1777-.69863 2.768l-.01538.0416c-.16884.4683.24003.4515.24003.4515s-.27329.5949-.41763 1.9604c-.11256 1.0723-.06418 2.1587-.03256 2.8686.00872.196.01617.3632.01861.4936.01395.6067.34716 3.1855.44303 3.6247.02222.102.06286.2407.11117.4057.16049.548.40573 1.3855.34277 2.1248-.0544.6206.14328 1.3669.31373 2.0103.09459.3572.18079.6826.21086.9373l.02962.2558c.10038.8636.30146 2.5936.28088 3.0958-.02558.5586-.20301 1.8759-.41746 2.4117-.12535.3117-.0964.6245-.07671.8372.014.1512.02332.2519-.03078.2657-.09446.0263-.52848.0397-.86955.0502-.13671.0042-.2585.0079-.33756.0119-.27401.0114-.82114.0822-.85727.5809-.0372.4997.63191.9506 1.24056 1.0583.60955.1068 1.49276.0953 1.76626.0109.1964-.0585.2881.0163.4211.1249.0523.0427.111.0906.185.1377.2654.1665 1.2077.1523 1.7324.1184.5246-.0369.7981-.2737.7981-.2737l.2876-.0229c.1902-.0166.3227-.1063.4291-.1783.0532-.036.0998-.0676.144-.0835.0647-.0241.1922.1006.3349.2402.1429.1398.3011.2944.4268.3298.251.0701 1.5767.0223 1.9345-.1774.3554-.2034.1079-.9516.1079-.9516s.2475-.0105.3212-.0586c.0263-.018.0345-.2294.0212-.5366.5719.1749 1.9216.1709 2.5261.0538.193-.0372.395-.0879.5844-.1355.4281-.1075.7921-.1989.8429-.082.0707.1696 1.6639.0258 1.7632-.1914.0955-.2171-.147-1.0101-.147-1.0101s.2908-.2907.2652-.4089c-.0057-.0305-.0253-.0761-.0499-.1333-.0733-.1708-.1912-.4453-.1193-.7327.0457-.1788.0183-.5319-.0148-.9598-.0385-.4972-.0848-1.0953-.0335-1.6382.0548-.5573.1153-1.4511.179-2.3912.0517-.7636.1055-1.5578.16-2.2267.1216-1.4892-.1691-4.2793-.4093-4.9783-.2108-.6068-.2746-1.7054-.3043-2.2178-.0044-.0761-.0081-.1392-.0114-.1859-.0094-.1523.0363-.4883.0907-.8874.0744-.547.1649-1.2124.1517-1.6855l-.0035-.111c-.0236-.7508-.0376-1.1966.0994-1.3553.147-.1699.2176-1.1087.2176-1.1087s2.8013-.6008 2.8489-1.0325c.0483-.4345-.313-3.4389-.6519-5.388-.3384-1.9461-.8205-5.6501-.9165-6.6628-.0959-1.00981-.4119-2.5471-1.1338-3.43852-.7249-.88839-1.1368-1.48971-1.3066-1.78-.1692-.2876-.578-.22554-.578-.22554zm-5.6811 27.84446c.0312-.365.2456-1.2424.5001-2.0592.04.7532.0788 1.3716.1096 1.5936.073.5275.1687 1.0326.6289 1.3933.2898.2294.2594.4097.205.7322-.0313.1858-.0706.4188-.0612.7355.025.8657-.096 3.489-.2427 4.234l-.0031.016c-.0805-.9712-.1961-2.0476-.3496-2.355-.2256-.4539-.4345-.9395-.6856-1.7261-.0843-.266-.1813-.4967-.254-.6695-.0685-.1628-.1153-.2742-.1096-.3153.0024-.0178.0141-.0767.0313-.1637.0614-.311.1935-.9797.2309-1.4158zm1.221 7.7656c-.0084-.1179-.0176-.2486-.0278-.3882.0481.1139.1094.2059.1644.2886.0503.0756.0954.1434.1205.2129.045.1243-.0642.4551-.1775.7986-.0195.059-.039.1183-.058.177.0056-.354.007-.6956-.0154-1.0014zm.0382 2.7211c-.0177-.2111-.0251-.4314-.0271-.6553.1307.2568.2712.5497.2712.5497s-.1037.0455-.2441.1056z" fill-rule="evenodd"/><path clip-rule="evenodd" d="m.239775 47.6221c-.050438 0-.23144222-.0084-.23949083-.1637-.00780213-.1644.14600583-.182.34445583-.2046.097251-.011.205226-.0233.310164-.0547.296746-.0893.540786-.2451.741046-.3729.03343-.0213.06565-.0419.09673-.0612.12833-.0788.23989-.1209.33906-.1584.18181-.0688.32198-.1218.44755-.3553.17762-.3244.20703-1.2413.23765-2.1957.00345-.1076.00691-.2156.01061-.3233.04543-1.2045.21177-2.2059.26256-2.3805.04132-.1354-.01336-.2742-.07532-.4314-.01824-.0463-.03711-.0942-.05435-.1441-.13289-.3812-.1413-.5981-.12162-1.0018.02132-.3758-.27582-1.074-.43319-1.4439l-.03238-.0762c-.14666-.342-.35235-1.1762-.35235-1.1762s-.16616-.0116-.32999-.0735c-.16652-.0624-.31301-.1436-.28188-.2261l.0012-.0032c.03321-.0876.17704-.467.2272-.8625.03654-.2757-.03767-.6304-.09637-.911-.0272-.13-.05108-.2441-.05906-.327-.01585-.1615.00398-.3197.02502-.4876.01245-.0992.02532-.2019.0315-.3107.0084-.1668.12967-.776.12967-.776s-.06188-.1381-.07601-.2229c-.00458-.033.01277-.0855.03927-.1657.05527-.1672.15035-.4549.16945-.9373.02837-.6615.00894-1.0823-.00532-1.3911-.00849-.1838-.01515-.328-.00881-.4595.01619-.2893.0028-.5609-.01002-.8207-.00955-.1938-.01879-.3809-.0152-.5641l.00033-.0231c.00492-.3547.00766-.552.13775-1.1983.07644-.3804.26588-.8035.37082-1.0166.01974-.3455.26189-.4797.48093-.601.05653-.0313.11154-.0618.16077-.0948.01417-.0093.02834-.0183.04249-.0268.0713-.0585.13766-.1093.19181-.1456.13762-.093.21824-.1942.27516-.2657.02727-.0343.0491-.0617.06914-.0781.06153-.0508.05116-.257.05116-.257s-.05116.051-.23717.0936c-.02693.0056-.058.0126-.0918.0203l-.00102.0003c-.20328.0464-.50475.1151-.60151.0185-.11572-.1125-.09586-.3103-.07351-.4231.02004-.1129-.04221-.1748-.10391-.2258-.06242-.0534-.10446-.1547-.07369-.2056.00587-.0101.01224-.0204.01857-.0307.02721-.044.05358-.0866.03544-.1047-.01178-.0117-.02549-.0227-.03954-.034-.0606-.0487-.12852-.1033-.08512-.2454.03988-.1326.03988-.2563.00876-.2876-.00892-.0089-.02409-.0169-.04233-.0265-.04537-.0238-.10972-.0576-.14404-.14-.02993-.0765.03325-.1771.1061-.2932.02377-.0379.04858-.0774.07151-.1182.09336-.1638.17528-.3105.13289-.4969-.02178-.101-.05047-.1686-.07557-.2278-.02045-.0482-.03852-.0908-.04856-.1413-.01242-.0691.01396-.2463.04163-.4322.01654-.1111.03354-.2252.04297-.3212.00072-.009.00101-.0196.00134-.032.00352-.1316.01206-.4507.60821-.8766.65373-.4654 1.6387-.6094 1.6387-.6094s.30996-.1549 1.00429-.093c.69397.0619 1.159.7532 1.3992 1.5486.20317.6802.19438 1.5449.18778 2.1937-.00109.1074-.00212.2089-.00212.3026 0 .66-.02236 1.0639-.12359 1.1347-.10446.0731-.23985.084-.32213.0613-.08388-.0195-.21659 0-.30978.0426-.09318.0426-.34108.0426-.46825.0311-.12413-.0112-.3502-.135-.3502-.135s.0313.135.08191.2985c.0508.1663.17493.2908.17493.2908s.10463.0843.21159.1352c.14056.0644.19449.0817.31791.1212l.00099.0003c.02458.0083.06071.0183.1035.0301.17365.048.45696.1262.52268.246.04708.0883.07467.1575.08935.2117.02391.0493.05295.1181.08593.2138.05295.1593.07576.3148.10274.4989.02041.1392.04322.2948.08327.4806.02743.1277.06452.2784.10637.4486.10059.4089.22872.9298.31663 1.5118.02002.1335.03982.2597.05856.3791.09731.6201.16603 1.0581.08775 1.3871-.09301.3917-.35253.5246-.8714.6709-.37067.103-.94622.1367-1.2904.1475-.01415.1136-.03974.2051-.05993.2773-.01518.0542-.0273.0975-.0292.1311-.0025.0816.07941.1918.07941.1918s.45108.3695.71919 1.2266c.27097.8578.33286 1.2949.42586 1.9976.0556.4197.13787.737.19477.9565.03792.1463.06458.2491.06458.3099 0 .1554-.71615.2597-.71615.2597s0 .1942-.05097.9899c-.05348.7958-.01968 1.0099.08191 1.6192.03547.207.10314.4507.1799.7271.14929.5376.33299 1.1991.38118 1.9556.05959.9709-.44395 2.3495-.6744 2.9804-.04139.1133-.07397.2025-.0929.2609-.12413.3808-.09301.8548 0 1.2999.09318.4434-.12413.8045-.41424.7822-.29064-.0199-.7478-.1218-1.05776-.2883-.3105-.1637-.72545-.0419-.72545-.0419s0 .0988-.03971.2172c-.08794.2573-.18519.2595-.52964.2673l-.01981.0004c-.18588.0059-.41083-.045-.63069-.0947-.2106-.0476-.41663-.0942-.57946-.089-.23558.0086-.61617-.0065-.92758-.0188h-.00113c-.124713-.0049-.238316-.0094-.327055-.0118-.217613-.0078-.370277-.0715-.459459-.1088-.037767-.0157-.064149-.0267-.079261-.0267zm5.266115-16.9613c.02012-.0104.04018-.021.0601-.0319.05272-.0285.11256-.0602.17308-.0921.20121-.1063.41743-.2205.45846-.2683.04043-.0498.02907-.0794-.01846-.2031-.01219-.0317-.02675-.0696-.04342-.1156-.06944-.1876-.13706-.5403-.15908-.6607-.03675.0091-.04352.0014-.04708-.0027-.00328-.0037-.00382-.0043-.0226.0142-.05062.0509-.25362.3385-.28456.5589-.01141.0813-.02612.1588-.04134.2389-.02963.156-.06121.3223-.0742.5475zm.623-1.4327c.03634-.0125.07426-.0321.10835-.0628.02519-.0227.04836-.0601.0692-.1046-.0489.0748-.10815.1319-.17755.1674zm-2.20232 16.1518c-.16329.8794-.16329 1.4021-.16329 1.4021s.61205-.3044.73349-.6182c.11805-.316.36952-1.4494.40351-2.1357.00707-.1442.01554-.2832.02388-.4201.03126-.5134.06085-.9993.00974-1.6359-.06761-.8041-.3502-1.2185-.3502-1.2185s-.06707.121-.08693.4344c-.00931.1274.00305.2833.01817.4741.02234.2819.05072.6399.02404 1.0941-.02465.4451-.1735.964-.32573 1.4947-.10838.3778-.21847.7616-.28668 1.129z" fill-rule="evenodd"/><path d="m30.0562 3.16815h1.3838l1.0116 8.77945h.0297l4.2114-8.77945h1.25l1.1383 8.73485h.0297l4.1291-8.73485h1.3695l-5.2707 10.81825h-1.2499l-1.0782-8.82416h-.0298l-4.2044 8.82416h-1.2495z"/><path d="m45.8887 3.16815h1.2057l-.7351 4.16668c.4798-.357 1.0116-.67448 1.5964-.9526.5847-.27741 1.2242-.41638 1.9187-.41638.2382 0 .5362.02468.8948.0744.3581.04973.6913.17099.9996.36452.3084.19352.5495.48345.7244.8705.1746.38687.2035.91289.0864 1.57735l-.9054 5.13378h-1.2051l.8633-4.89554c.0902-.45663.0878-.82347-.0066-1.10159-.095-.27741-.239-.49061-.4307-.6396-.1919-.14898-.4132-.24557-.6632-.29028-.25-.04472-.4788-.06672-.6874-.06672-.3271 0-.6503.04722-.9694.1413-.3198.09444-.6238.2157-.913.36469-.2889.14845-.5611.31497-.8165.49812-.2558.18369-.4894.36988-.7013.5584l-.9576 5.43122h-1.2057z"/><path clip-rule="evenodd" d="m62.1828 12.3643c-.235.2084-.4813.4241-.7388.6475-.2578.2232-.5584.4239-.9025.6028-.344.1781-.7495.3248-1.2159.4387-.4663.1141-1.0322.1712-1.6963.1712-.655 0-1.2343-.1041-1.7381-.3125-.5042-.2084-.9165-.4988-1.2376-.8707-.3217-.3717-.5439-.8133-.6669-1.3243-.124-.5108-.1324-1.064-.0272-1.6592.108-.61511.316-1.1753.6235-1.68129.3073-.50598.6836-.93775 1.1284-1.29475.4448-.35682.9449-.63244 1.4995-.82596.5554-.19317 1.1304-.28993 1.7257-.28993.6247 0 1.2024.08424 1.7333.2529.5308.16866.9758.42908 1.3357.78107.3593.35235.612.80361.7578 1.35432.1461.55034.1461 1.21265-.0002 1.98644h-7.6483c-.035.3672-.0037.7215.0952 1.064.098.3421.2652.6473.5006.9152.2355.2677.5373.4811.9063.6398.3688.1588.8061.238 1.3122.238.5059 0 .9412-.0495 1.3062-.149.3642-.0987.6792-.2251.9446-.379.2649-.154.4927-.3199.6827-.4988.1905-.1787.3581-.342.5038-.4911zm-.548-3.05056c-.0039-.31729-.0654-.61724-.1838-.89983-.119-.28313-.2939-.52871-.5248-.73708-.2311-.20837-.5191-.37399-.8641-.4983-.3455-.12376-.7465-.18583-1.2028-.18583-.8925 0-1.6285.20801-2.208.62475-.5791.41674-1.0165.98229-1.3108 1.69629z" fill-rule="evenodd"/><path d="m65.2036 6.2041h1.2055l-.2864 1.62171c.2136-.19835.4461-.40654.6981-.62511.2517-.21785.5253-.4187.8208-.60239.2951-.18369.614-.335.9576-.45412.3436-.11876.7083-.17832 1.0955-.17832.2778 0 .5122.01985.7043.05956l-.2128 1.20532c-.0778-.00984-.1908-.03005-.3391-.05974-.1486-.02969-.352-.04471-.6099-.04471-.4264 0-.8396.10445-1.2381.31246-.3988.20837-.753.44429-1.062.70721-.3095.26274-.5613.51082-.7562.74369-.195.23305-.3027.37954-.3229.43892l-.8215 4.65782h-1.2053z"/><g clip-rule="evenodd" fill-rule="evenodd"><path d="m78.7147 12.3643c-.2352.2084-.4817.4241-.7389.6475-.2579.2232-.5586.4239-.9027.6028-.3437.1781-.7494.3248-1.2159.4387-.466.1141-1.032.1712-1.6968.1712-.6544 0-1.2337-.1041-1.7376-.3125-.5042-.2084-.9164-.4988-1.238-.8707-.3215-.3717-.5434-.8133-.6666-1.3243-.1238-.5108-.1324-1.064-.0272-1.6592.1084-.61511.3162-1.1753.6236-1.68129.3071-.50598.6835-.93775 1.1285-1.29475.4446-.35682.9449-.63244 1.4997-.82596.555-.19317 1.13-.28993 1.7253-.28993.6249 0 1.2028.08424 1.7336.2529.5309.16866.9757.42908 1.3356.78107.3591.35235.6118.80361.7578 1.35432.1459.55034.1459 1.21265-.0002 1.98644h-7.6489c-.0347.3672-.0032.7215.0954 1.064.0983.3421.265.6473.5006.9152.2355.2677.5376.4811.9068.6398.3686.1588.8061.238 1.3121.238.5058 0 .941-.0495 1.306-.149.3644-.0987.6795-.2251.9448-.379.2648-.154.4925-.3199.6827-.4988.1903-.1787.3582-.342.5038-.4911zm-.5484-3.05056c-.0036-.31729-.0653-.61724-.1837-.89983-.1187-.28313-.2938-.52871-.5247-.73708-.2311-.20837-.5191-.37399-.8643-.4983-.3454-.12376-.7464-.18583-1.2024-.18583-.8929 0-1.6291.20801-2.2086.62475-.5791.41674-1.0163.98229-1.3107 1.69629z"/><path d="m31.3606 21.214h1.8156l-.1808 1.0268c.116-.099.2747-.2232.4745-.3722.1998-.1486.4382-.2901.7149-.424.2765-.1336.5918-.2503.9467-.3497.3545-.0987.7506-.1486 1.1872-.1486.6546 0 1.2284.1066 1.7217.32.4926.2133.8927.5059 1.1991.8778.3064.3718.5137.8161.621 1.3316.1071.5163.1076 1.0765.0009 1.6818-.119.6746-.3399 1.2795-.6622 1.8152-.323.5359-.7077.9896-1.1554 1.3615-.4473.3724-.9438.655-1.4883.8481-.5457.1936-1.1007.2905-1.666.2905-.4069 0-.7564-.0297-1.048-.0894-.2926-.0598-.5508-.1413-.7755-.2456-.2248-.1039-.4242-.2232-.5993-.357-.1746-.134-.349-.2703-.523-.4092l-.6296 3.571h-1.8451zm.8718 5.5207c.1541.1391.313.2777.4771.4165.1641.139.3431.2628.5372.3722.194.1093.4138.1987.6594.2678.2456.0694.5276.1041.8448.1041.3575 0 .7116-.0567 1.0643-.1712.3526-.1139.6749-.2826.9669-.5056.2925-.2234.545-.5037.7586-.8412.2132-.337.3586-.7238.4355-1.1604.0787-.4465.0681-.8383-.0309-1.1755-.0995-.3371-.2608-.6176-.4842-.8408-.2238-.2232-.4942-.3917-.8113-.5058-.3169-.1139-.6539-.1712-1.0113-.1712-.3371 0-.6435.0347-.9188.1041-.2749.0696-.5317.1587-.7689.2676-.2373.1094-.4518.2287-.6432.3575-.1912.1288-.3668.2529-.5269.3719z"/><path d="m48.7654 27.9101c-.047.2678-.0828.5235-.1053.7666-.0231.2431-.0143.4189.0261.528h-1.89c-.0054-.1386-.0066-.2728-.0036-.4017.0025-.1288.0165-.2628.0414-.4016-.2181.1091-.4572.2279-.7182.357-.2607.129-.5464.2458-.8574.3499-.3114.1043-.6416.1905-.9909.2602-.35.0691-.7227.1043-1.1195.1043-.2675 0-.5723-.0327-.9132-.0969-.3407-.0648-.6568-.1861-.9474-.3647-.2914-.1782-.5205-.4239-.6884-.7366-.1683-.3123-.2086-.7165-.1209-1.2125.0785-.4466.2505-.8333.5169-1.1606.2661-.3278.5911-.6077.974-.8408.3835-.233.8133-.4215 1.2901-.5655.477-.1438.9662-.2629 1.4693-.3574.5023-.0939 1.0054-.1608 1.5087-.2007.5026-.0397.9705-.0744 1.4019-.1041l.0633-.3573c.0538-.3071-.0556-.5579-.3291-.7514-.2733-.1935-.792-.2897-1.5557-.2897-.4269 0-.78.0345-1.0599.1039-.2803.0692-.5064.1563-.6784.2602-.1724.1043-.3043.2182-.3951.3423-.0912.1243-.1615.2406-.2107.3495h-1.9193c.2049-.5451.4859-.9842.842-1.3165.3563-.3325.7439-.5905 1.1631-.774.4193-.1833.8476-.3051 1.2846-.3647.4371-.0593.844-.089 1.2212-.089.9621 0 1.6902.1039 2.1844.3123.4937.2085.8382.4641 1.0329.7662.1945.3028.2864.6253.276.9674-.0109.3422-.0408.6525-.0896.9301zm-1.3627-2.7377c-.5389.0198-1.0502.0647-1.5335.1337-.4835.0696-.9535.1589-1.4089.2676-.5997.1393-1.0547.313-1.3639.521-.3098.2086-.5005.4862-.5711.8331-.0714.3476-.0126.6203.1754.8189.1882.1985.5107.2974.9669.2974.3472 0 .6835-.0345 1.0079-.1043.3248-.0694.6326-.1561.924-.26.2912-.1045.5611-.2161.8107-.3349.2487-.1189.4722-.233.67-.3425z"/></g><path d="m51.0446 21.482h1.4286l.4589-2.6042h1.8451l-.4591 2.6042h2.7828l-.2779 1.5773h-2.7829l-.6456 3.6605c-.0244.1394-.0319.2807-.0224.4239.0091.1444.0515.2703.1261.3797.0755.1093.1907.1987.3472.2678.1565.0694.3688.1041.6367.1041.1787 0 .4298-.0199.7544-.0596.3246-.0393.6119-.0939.8621-.1636l-.286 1.622c-.2332.0295-.4394.0569-.6169.0818-.1783.0248-.3453.0445-.5018.0595-.1562.0147-.3068.0245-.4511.0295-.1451.005-.2966.0079-.4556.0079-.4366 0-.8188-.0395-1.1472-.1189-.3285-.0798-.5911-.2084-.7871-.3869-.1971-.1789-.3288-.4167-.3949-.7147-.0667-.2976-.0616-.6645.0153-1.1011l.7217-4.0919h-1.4283z"/><path d="m58.7105 21.214h1.8449l-1.409 7.9907h-1.845z"/><path d="m61.1009 18.1189h-1.8449l-.2885 1.6367h1.8448z"/><path clip-rule="evenodd" d="m69.5564 27.5086c.2163-.2978.354-.5309.4137-.6995h-2.0237c-.1954.3178-.4992.5927-.912.8259-.4134.2331-.9126.3493-1.4976.3493-.5622-.0193-.9968-.1264-1.3053-.3194-.3082-.1935-.5303-.4116-.6659-.655-.1358-.2429-.2143-.4858-.2359-.729-.022-.2429-.0308-.4291-.0277-.558h7.0082c.1277-.7241.1513-1.3789.0711-1.9643-.0803-.5852-.2677-1.0838-.5623-1.4956-.2946-.4115-.6995-.7313-1.2146-.9599-.5153-.2277-1.1492-.3468-1.9009-.3568-.7346 0-1.3996.1143-1.9952.3421-.5956.2286-1.1139.5384-1.5546.9301-.4418.392-.7992.8433-1.0725 1.3539-.274.5114-.4605 1.0494-.5598 1.6148-.1103.6247-.1078 1.2006.0079 1.726.1155.526.3359.9771.6616 1.3539.3252.3772.7519.6722 1.2797.8854.5278.2133 1.149.3203 1.8634.3203.744 0 1.3904-.1095 1.94-.3273.5493-.2184 1.0133-.4713 1.391-.7591.3781-.2876.6756-.5802.8914-.8778zm-1.5757-4.6501c.3915.2826.597.7612.6171 1.4358h-4.9848c.1577-.3868.3468-.6995.5673-.9374.2202-.2382.4545-.4264.7026-.5655.2473-.1388.5017-.2331.7639-.2828.2615-.0493.5113-.074.7492-.074.6648 0 1.193.1411 1.5847.4239z" fill-rule="evenodd"/><path d="m74.4387 21.214h-1.8156l-1.409 7.9907h1.8453l.9706-5.5058c.1433-.1386.2968-.2772.4602-.4166.1635-.1388.352-.2654.5656-.3793.2135-.1138.4604-.2057.7405-.2753.28-.0694.6038-.1041.9704-.1041.6253 0 1.0355.176 1.2315.528.196.3525.2239.9254.0839 1.7188l-.7816 4.4343h1.8451l.9023-5.1188c.1068-.6048.1114-1.1108.0148-1.5177-.0973-.4068-.2684-.7292-.5142-.9675-.2457-.238-.5484-.4064-.9079-.5058-.3598-.0987-.7474-.1486-1.1638-.1486-.4069 0-.7712.0397-1.0926.1187-.3214.0796-.6121.1814-.8723.3052-.2597.1243-.4901.2604-.6895.4094-.2002.1488-.3864.2926-.56.4316z"/><path d="m83.0665 21.482h-1.4287l-.2778 1.5773h1.4284l-.7217 4.0919c-.0769.4366-.082.8035-.0154 1.1011.0662.298.1978.5358.3949.7147.1962.1785.4586.3071.787.3869.3285.0794.7108.1189 1.1472.1189.1584 0 .3106-.0029.4552-.0079.1443-.005.2954-.0148.4518-.0295.1558-.015.3233-.0347.5015-.0595.1778-.0249.3833-.0523.6172-.0818l.2858-1.622c-.2502.0697-.538.1243-.8624.1636-.3245.0397-.5758.0596-.7541.0596-.2681 0-.4802-.0347-.6365-.1041-.1565-.0691-.2726-.1585-.3474-.2678-.0747-.1094-.1171-.2353-.1261-.3797-.0095-.1432-.0021-.2845.0224-.4239l.6458-3.6605h2.7825l.278-1.5773h-2.7825l.4591-2.6042h-1.8454z"/><path d="m94.5204 23.3196c.0984.1439.1745.2606.2282.3496l1.6822-.8481c-.2242-.4168-.505-.7512-.8421-1.0043-.3375-.2529-.6834-.4438-1.0372-.5731-.3547-.1287-.6992-.2132-1.0343-.2529-.3356-.0397-.6171-.0594-.845-.0594-.7739 0-1.4231.0945-1.9472.2826-.5244.1887-.9487.4143-1.2729.6772-.3239.2627-.5616.5407-.7124.8331-.1504.2926-.2443.5434-.2814.7514-.0538.3078-.0577.5956-.0105.8635.0467.2676.1846.5132.413.7364.2287.2232.5666.4169 1.0136.58.4476.1639 1.0395.2955 1.7758.3944.4738.0698.8627.1293 1.1662.1789.3042.0493.5402.1039.7079.1634.1681.0598.2785.1369.3316.2309.0526.0945.066.2156.0397.3646-.0314.1785-.1101.3299-.2362.4537-.126.1243-.2828.2256-.4704.3051-.1877.0796-.3966.1394-.6266.1785-.2305.0399-.4693.0593-.7176.0593-.2877 0-.5687-.022-.8434-.0668-.275-.0449-.5298-.1193-.7643-.2232-.2345-.1043-.4427-.2456-.6251-.4239-.1814-.1787-.3291-.3967-.4423-.6549l-1.7221.9078c.1315.208.2835.4291.4559.662.1721.2334.403.4439.6918.6328.2889.1881.6584.3446 1.1081.4688.4493.1234 1.0161.1858 1.7009.1858.218 0 .4675-.01.7487-.0297.2814-.0204.577-.0622.8857-.1266.3087-.0648.6149-.1563.9192-.2755.3033-.1189.5841-.2752.8411-.4686.2576-.1935.4806-.4317.6695-.7145.1885-.2826.3169-.6171.3853-1.0043.0871-.4956.0436-.8948-.1313-1.198-.1746-.3024-.4396-.5451-.7936-.729-.3547-.1833-.7768-.322-1.266-.4164-.4891-.0942-1.0007-.1762-1.5338-.2457-.271-.0394-.5175-.0768-.7395-.1116-.2223-.0346-.4092-.0841-.5616-.1487-.152-.0645-.2674-.1436-.3448-.2382-.0778-.0941-.1023-.2205-.0742-.3796.0191-.1089.0687-.2205.1484-.3348.0793-.1139.1964-.2178.3522-.3123.1556-.0942.3527-.1711.5917-.2307.2382-.0594.526-.0892.8638-.0892.4162 0 .7654.047 1.0464.1413.2809.0944.5113.2083.6911.3423.1795.1338.3187.2729.4178.4166z"/><path d="m36.6045 38.6273c.1048.1935.1896.3599.2544.4988l1.1466-.5954c-.105-.2479-.2466-.501-.424-.7589-.1776-.2579-.4109-.4858-.6979-.6848-.2875-.198-.6405-.3617-1.0596-.4906-.4187-.1288-.9204-.1936-1.5054-.1936-.6055 0-1.1939.0893-1.7659.268-.5724.1783-1.0921.4389-1.5588.7811-.4675.3423-.8653.7714-1.1947 1.2872-.329.516-.5518 1.106-.6691 1.7705-.1034.5858-.0954 1.1315.0239 1.6369.1191.506.3443.9447.6756 1.3169.3309.3721.7555.665 1.2734.8781.518.2133 1.1288.3199 1.8333.3199.6053 0 1.1465-.0592 1.6241-.1786.477-.119.9002-.2826 1.2695-.4912.3688-.2082.6963-.4462.9814-.7138.2855-.2679.5385-.5507.7598-.8487l-.9394-.5802c-.2715.3574-.5435.6501-.817.8782-.2735.2284-.5557.4092-.8471.543-.2913.134-.5882.2282-.8909.2826-.3021.0551-.6118.0819-.9293.0819-.4761 0-.9066-.0765-1.2912-.2305-.3845-.1537-.7024-.3647-.9528-.6325-.2502-.2677-.4299-.5852-.5383-.9524-.109-.367-.1258-.7637-.0506-1.1901.0998-.5656.2797-1.0515.5401-1.4588.2597-.4065.5666-.7383.9193-.9968.3529-.2577.7339-.4464 1.1413-.5653.4084-.119.8154-.1783 1.2223-.1783.486 0 .8891.0618 1.2095.1858.3205.1239.584.2751.7907.4539.2068.1785.3618.3644.4668.5577z"/><path clip-rule="evenodd" d="m41.0442 44.3787c.5174.1883 1.1078.2827 1.7728.2827.6643 0 1.2862-.0944 1.8653-.2827.5786-.1882 1.0984-.4636 1.5591-.826.4606-.362.8471-.8084 1.159-1.3391.3118-.5305.528-1.1386.6491-1.8229.0976-.5554.0849-1.0762-.0372-1.5624-.1229-.4857-.3488-.9077-.6774-1.265-.3289-.3568-.7503-.6394-1.2643-.848-.5139-.2085-1.1127-.3125-1.7972-.3125-.6846 0-1.3232.104-1.915.3125-.5926.2086-1.1134.4912-1.5634.848-.4502.3573-.8247.7793-1.1232 1.265-.2996.4862-.4978 1.007-.5954 1.5624-.121.6843-.119 1.2924.0057 1.8229.1246.5307.3536.9771.6864 1.3391.3331.3624.7582.6378 1.2757.826zm3.3623-.9675c-.4334.1492-.9023.2234-1.4081.2234-.5062 0-.9498-.0742-1.3299-.2234-.3807-.1483-.6886-.357-.9239-.6246-.2354-.2677-.3967-.5927-.483-.9746-.0863-.3818-.0885-.8059-.0062-1.2723.0631-.357.1885-.7192.3774-1.0866.1887-.3667.4407-.6992.756-.9968.3152-.2976.6984-.543 1.1495-.7367.4506-.1932.9687-.2897 1.5541-.2897.5851 0 1.0691.0965 1.4518.2897.3819.1937.6786.4391.8891.7367.21.2976.3427.6301.3973.9968.0542.3674.0499.7296-.0133 1.0866-.0822.4664-.2312.8905-.4475 1.2723-.216.3819-.4888.7069-.8188.9746-.33.2676-.712.4763-1.1445.6246z" fill-rule="evenodd"/><path d="m51.4036 36.6411h-1.1608l-1.3724 7.7825h1.2057l.9918-5.625c.1497-.1192.3302-.2577.5419-.4169.2114-.1584.4509-.3069.7185-.446.2676-.1388.5589-.258.8741-.3576.3151-.0989.6462-.1482.9935-.1482.4166 0 .7262.0717.929.2155.203.1441.3388.3151.4082.5133.0688.1987.0955.3996.0797.6026-.016.2035-.0345.3648-.0556.4836l-.9129 5.1787h1.205l.9919-5.625c.1501-.1192.3304-.2577.5423-.4169.2116-.1584.4509-.3069.7183-.446.2678-.1388.5565-.258.8664-.3576.3105-.0989.6339-.1482.9716-.1482.4262 0 .7433.0717.951.2155.208.1441.3464.3151.4156.5133.0693.1987.0959.3996.08.6026-.0161.2035-.0349.3648-.0558.4836l-.9129 5.1787h1.2051l.992-5.625c.1-.5653.0608-1.0066-.1161-1.3244-.1774-.3173-.4085-.5552-.6924-.7144-.2845-.1586-.5821-.2577-.8925-.2972-.3108-.0399-.5548-.0598-.7336-.0598-.2876 0-.5622.0249-.824.0745-.2621.05-.5264.1291-.7933.238-.2674.1095-.5457.2508-.8334.4241-.2894.1738-.61.3894-.9627.6474-.055-.1387-.1223-.2904-.203-.4537-.0799-.164-.1999-.3148-.3591-.454-.1587-.1387-.369-.2529-.6314-.3423-.262-.0891-.6063-.134-1.0325-.134-.645 0-1.2331.1267-1.7634.3798-.5308.2527-1.0527.5678-1.5652.9445z"/><path clip-rule="evenodd" d="m71.333 43.4488c.2574-.2234.5039-.4389.7393-.6473l-.8167-.6849c-.1454.149-.3136.3125-.5035.4912-.1901.1788-.4176.345-.6829.4988-.2656.1538-.5802.2805-.9447.379-.3651.0995-.8.149-1.306.149-.5058 0-.9437-.079-1.3123-.2382-.3694-.1583-.6714-.3717-.9066-.6398-.236-.2678-.4025-.5727-.5007-.9149-.098-.3425-.1304-.6968-.0951-1.0642h7.6483c.1465-.7737.1467-1.436.0009-1.9865-.1459-.5506-.3987-1.0015-.758-1.354-.3602-.3522-.805-.6122-1.3355-.7812-.5309-.1687-1.1088-.253-1.7337-.253-.5951 0-1.1703.097-1.7253.29-.5548.1937-1.0549.4689-1.4999.8261-.445.357-.8213.7884-1.1284 1.2946-.3074.5058-.5156 1.0663-.6237 1.6813-.105.5952-.0962 1.1484.027 1.6592.1231.5112.3458.9526.6665 1.3243.3219.372.7345.6625 1.238.8709.504.2083 1.0834.3122 1.7376.3122.6648 0 1.2311-.0572 1.6974-.171.4666-.1139.8716-.2605 1.2155-.439.3445-.1787.6452-.3794.9025-.6026zm.0074-4.5981c.1185.2828.1801.5827.1835.9h-6.2948c.295-.714.7316-1.2794 1.3113-1.6963.5793-.4167 1.3158-.6245 2.2085-.6245.4563 0 .8565.0618 1.2023.1858.345.1239.6329.2901.864.4983.2313.2083.4064.4537.5252.7367z" fill-rule="evenodd"/><path d="m81.0985 38.2776-1.0839 6.1459h1.8455l1.0835-6.1459h2.8718l.2779-1.5771h-2.8716l.097-.5506c.0229-.1289.0644-.2675.1252-.4167.0611-.1486.1592-.2851.2955-.4092.1359-.1238.3199-.2256.5526-.305.2318-.0794.5353-.1137.9108-.1043.0992 0 .1958.0027.2886.0075.0941.0049.1959.0147.3079.0297.111.0149.2464.0372.4047.0671.1585.0297.3513.0744.5788.134l.2781-1.5777c-.1915-.0394-.369-.0741-.5321-.1039-.1635-.0296-.3203-.0544-.4707-.0743-.1501-.0198-.3012-.0347-.4534-.0449-.1515-.0096-.3172-.0148-.4957-.0148-.0992 0-.2461.0027-.4403.0075-.1939.005-.4125.0299-.6528.0742-.2411.0447-.4915.1145-.7512.2086-.2597.0946-.5046.233-.7355.4165-.2309.1839-.4355.4166-.6144.6995-.1787.2826-.304.6273-.3756 1.034l-.1627.9228h-1.7709l-.2781 1.5771z"/><path d="m89.8159 36.4325h-1.845l-1.409 7.9911h1.8455z"/><path d="m88.5165 33.3374h1.8451l-.2884 1.6367h-1.8451z"/><path d="m91.9591 36.4325h1.8451l-.2101 1.1903h.0447c.127-.1584.2831-.3248.4675-.4983.1841-.1733.403-.3321.6566-.4763.2533-.1434.5396-.26.8578-.3496.3184-.0891.6761-.1338 1.0728-.1338h.3572c.0992 0 .1964.01.2922.0297l-.3516 1.9939-.0451-.0104-.0017-.0004c-.0832-.0191-.1964-.0451-.3395-.0785-.1712-.0395-.4109-.0595-.7182-.0595-.5854 0-1.0524.0869-1.4001.2602-.3482.1739-.6165.3747-.8059.6028-.1889.2284-.32.4641-.392.7068-.0727.2433-.1213.4343-.1458.5732l-.7475 4.2409h-1.8452z"/><path d="m104.159 38.8876c-.053-.0889-.13-.2054-.228-.3495-.099-.1437-.238-.2826-.418-.4164-.18-.1343-.41-.2483-.691-.3425-.281-.0941-.63-.1415-1.046-.1415-.338 0-.626.0302-.864.0894-.239.0598-.436.1365-.591.2306-.157.0944-.274.1985-.3531.3124-.0796.1145-.1292.2259-.1485.3349-.0281.1588-.0034.2854.0742.3795.0777.0946.1924.174.3454.238.152.0648.339.1147.561.149.222.0349.468.0721.739.1115.534.0695 1.045.1515 1.535.2459.489.0943.91.2327 1.266.4162.354.1839.618.4268.793.7294s.219.702.131 1.1976c-.068.3871-.196.7217-.385 1.0043-.189.2828-.412.521-.669.7144-.258.1937-.538.35-.842.4687-.304.1192-.61.2107-.919.2755-.309.0646-.604.1064-.885.1264-.282.0199-.531.0299-.749.0299-.685 0-1.2519-.0622-1.701-.186-.4497-.1239-.8188-.2805-1.108-.4686-.2891-.1883-.52-.3992-.6919-.6326-.1724-.2331-.3244-.454-.4562-.6622l1.7222-.9078c.1134.2582.2611.4763.4427.6548.1819.1785.3902.3198.6247.424.2345.1039.4895.1783.7645.2234.275.0444.556.0669.843.0669.248 0 .488-.0197.718-.0597.23-.0394.439-.0991.627-.1783.187-.0796.344-.1811.47-.3052.126-.1237.205-.2756.236-.4537.026-.1489.013-.2703-.04-.3646-.053-.0942-.163-.1709-.331-.2309-.168-.0595-.404-.1141-.708-.1634-.303-.0496-.692-.1091-1.166-.1787-.737-.0991-1.3285-.2306-1.776-.3942-.4468-.1637-.7852-.357-1.0134-.5802-.2286-.2236-.3663-.469-.4132-.7367-.0474-.2678-.0433-.5554.0107-.8636.0367-.208.1306-.4584.2814-.751s.3881-.5706.712-.8333c.3245-.2631.7484-.4885 1.2725-.6772.525-.1879 1.174-.2826 1.948-.2826.228 0 .509.0199.845.0596.335.0394.679.1241 1.034.2531.354.1288.7.32 1.037.5727.337.2531.618.5875.842 1.0043z"/><path d="m106.747 36.7005h1.429l.459-2.604h1.845l-.459 2.604h2.782l-.278 1.5771h-2.782l-.646 3.6609c-.024.1388-.032.2803-.022.4241.009.144.051.2702.126.3793.075.1093.19.1984.347.268.156.0694.369.1039.637.1039.178 0 .429-.0197.754-.0596.324-.0393.612-.0941.862-.1636l-.286 1.622c-.234.0299-.439.0571-.617.082-.178.0243-.345.0443-.501.0595-.157.0149-.308.0245-.452.0297-.145.0048-.297.0075-.455.0075-.437 0-.819-.0399-1.147-.1189-.328-.0798-.591-.2086-.787-.3873-.198-.1786-.329-.4163-.395-.7143-.067-.2976-.062-.6641.015-1.1011l.722-4.0921h-1.429z"/></g></svg>