<svg fill="none" height="24" viewBox="0 0 197 24" width="197" xmlns="http://www.w3.org/2000/svg"><g fill="#fff"><path d="m5.69368 10.3278c0-2.07292 1.44645-3.59308 3.45487-3.59308 1.26225 0 2.26645.74625 2.84685 1.80578.5804-1.05953 1.6031-1.80578 2.856-1.80578 1.9993 0 3.4549 1.52016 3.4549 3.59308 0 3.2062-3.4641 6.0438-5.7674 7.5824-.1658.1197-.3869.2579-.5251.2579s-.3685-.1382-.562-.2579c-2.34009-1.4741-5.75812-4.3762-5.75812-7.5824z"/><path clip-rule="evenodd" d="m24 12.0046c0 6.5597-5.4357 11.9954-12.0046 11.9954-6.55971 0-11.9954-5.4357-11.9954-11.9954 0-6.56891 5.42649-12.0046 11.9862-12.0046 6.5689 0 12.0138 5.43569 12.0138 12.0046zm-22.27716 0c0 5.6937 4.57887 10.2818 10.27256 10.2818 5.7029 0 10.2818-4.5881 10.2818-10.2818 0-5.70289-4.5881-10.28176-10.291-10.28176-5.69369 0-10.26336 4.57887-10.26336 10.28176z" fill-rule="evenodd"/><path d="m30 0h1v24h-1z"/><path clip-rule="evenodd" d="m38.8 18v-14h5.96c.9467 0 1.7933.20667 2.54.62.76.41333 1.3467.98 1.76 1.7.4267.70667.64 1.5.64 2.38s-.2133 1.68-.64 2.4c-.4133.7067-1 1.2667-1.76 1.68-.7467.4133-1.5933.62-2.54.62h-2.96v4.6zm5.86-7.3c.5733 0 1.0533-.1933 1.44-.58.4-.4.6-.87333.6-1.42s-.2-1.01333-.6-1.4c-.3867-.4-.8667-.6-1.44-.6h-2.86v4z" fill-rule="evenodd"/><path d="m51.2008 4v14h2.7v-5.1c0-.6667.1933-1.2067.58-1.62.4-.4267.9066-.64 1.52-.64.5333 0 .9666.18 1.3.54.3333.3467.5.82.5 1.42v5.4h2.7v-5.76c0-.8533-.16-1.5867-.48-2.2-.3067-.62667-.7334-1.10667-1.28-1.44-.5467-.33333-1.1734-.5-1.88-.5-.6667 0-1.26.16667-1.78.5-.5067.32-.88.68-1.12 1.08h-.06v-5.68z"/><path d="m132.96 18h9.8v-1.42h-8.3v-5.16h6.5v-1.42h-6.5v-4.58h8.1v-1.42h-9.6z"/><path d="m144.908 8.40001v9.59999h1.36v-5.32c0-.6.133-1.14.4-1.62s.627-.8533 1.08-1.11999c.453-.28.96-.42 1.52-.42.773 0 1.407.26 1.9.77999.507.52.76 1.2.76 2.04v5.66h1.36v-5.66c0-.8133-.167-1.5333-.5-2.16-.333-.62666-.793-1.11332-1.38-1.45999-.587-.34666-1.247-.52-1.98-.52-.707 0-1.347.18-1.92.54-.56.34667-.967.74667-1.22 1.2h-.02v-1.54z"/><g clip-rule="evenodd" fill-rule="evenodd"><path d="m157.253 21.56c.76.4267 1.574.64 2.44.64.867 0 1.647-.2133 2.34-.64.707-.4267 1.26-1.0133 1.66-1.76.4-.7333.6-1.56.6-2.48v-8.91999h-1.36v1.59999h-.02c-.28-.45332-.72-.86665-1.32-1.23999-.6-.37333-1.28-.56-2.04-.56-.786 0-1.513.20667-2.18.62-.666.41334-1.2.98667-1.6 1.71999-.386.7333-.58 1.5533-.58 2.46s.194 1.7267.58 2.46c.4.7333.934 1.3067 1.6 1.72.667.4133 1.394.62 2.18.62.68 0 1.327-.16 1.94-.48.614-.3333 1.087-.78 1.42-1.34h.02v1.34c0 1.04-.3 1.8933-.9 2.56s-1.38 1-2.34 1c-.653 0-1.273-.1667-1.86-.5-.573-.3333-.986-.6933-1.24-1.08l-.98.9c.334.4933.88.9467 1.64 1.36zm4.08-5.52c-.48.2933-1.02.44-1.62.44-.573 0-1.106-.1467-1.6-.44-.48-.3067-.86-.72-1.14-1.24-.28-.5333-.42-1.1333-.42-1.8s.14-1.2667.42-1.8.66-.9467 1.14-1.23999c.494-.29333 1.027-.44 1.6-.44.6 0 1.14.14667 1.62.44.494.29329.88.70669 1.16 1.23999.294.5333.44 1.1333.44 1.8s-.146 1.2667-.44 1.8c-.28.52-.666.9333-1.16 1.24z"/><path d="m172.355 8.68001c-.56-.32-1.207-.48-1.94-.48-.76 0-1.447.17334-2.06.52-.613.33333-1.12.74667-1.52 1.24l.9.85999c.387-.4.787-.72 1.2-.95999.427-.25333.92-.38 1.48-.38.72 0 1.3.22 1.74.65999.453.44.68 1.02.68 1.74v.02l-3.48.58c-.973.16-1.727.5067-2.26 1.04-.533.52-.8 1.1667-.8 1.94 0 .48.133.9333.4 1.36.28.4133.66.7467 1.14 1 .493.2533 1.053.38 1.68.38.773 0 1.46-.18 2.06-.54s1.027-.76 1.28-1.2h.02v1.54h1.3v-6.04c0-.7333-.16-1.38-.48-1.94-.32-.57332-.767-1.01999-1.34-1.33999zm-1.1 7.85999c-.48.28-1.013.42-1.6.42-.6 0-1.087-.1533-1.46-.46-.36-.3067-.54-.68-.54-1.12 0-.4533.167-.8333.5-1.14s.84-.52 1.52-.64l3.16-.52v.68c0 .6-.14 1.1467-.42 1.64-.28.48-.667.86-1.16 1.14z"/><path d="m178.128 21.56c.76.4267 1.574.64 2.44.64.867 0 1.647-.2133 2.34-.64.707-.4267 1.26-1.0133 1.66-1.76.4-.7333.6-1.56.6-2.48v-8.91999h-1.36v1.59999h-.02c-.28-.45332-.72-.86665-1.32-1.23999-.6-.37333-1.28-.56-2.04-.56-.786 0-1.513.20667-2.18.62-.666.41334-1.2.98667-1.6 1.71999-.386.7333-.58 1.5533-.58 2.46s.194 1.7267.58 2.46c.4.7333.934 1.3067 1.6 1.72.667.4133 1.394.62 2.18.62.68 0 1.327-.16 1.94-.48.614-.3333 1.087-.78 1.42-1.34h.02v1.34c0 1.04-.3 1.8933-.9 2.56s-1.38 1-2.34 1c-.653 0-1.273-.1667-1.86-.5-.573-.3333-.986-.6933-1.24-1.08l-.98.9c.334.4933.88.9467 1.64 1.36zm4.08-5.52c-.48.2933-1.02.44-1.62.44-.573 0-1.106-.1467-1.6-.44-.48-.3067-.86-.72-1.14-1.24-.28-.5333-.42-1.1333-.42-1.8s.14-1.2667.42-1.8.66-.9467 1.14-1.23999c.494-.29333 1.027-.44 1.6-.44.6 0 1.14.14667 1.62.44.494.29329.88.70669 1.16 1.23999.294.5333.44 1.1333.44 1.8s-.146 1.2667-.44 1.8c-.28.52-.666.9333-1.16 1.24z"/><path d="m191.99 18.2c-.867 0-1.667-.22-2.4-.66-.733-.4533-1.32-1.06-1.76-1.82s-.66-1.6-.66-2.52c0-.9333.213-1.78.64-2.54.427-.75999 1-1.35999 1.72-1.79999s1.507-.66 2.36-.66c.84 0 1.6.20667 2.28.62.693.41334 1.24.99333 1.64 1.73999.4.7467.6 1.5867.6 2.52 0 .2133-.013.4267-.04.64h-7.8c.067.5867.26 1.12.58 1.6s.727.86 1.22 1.14c.507.28 1.06.42 1.66.42 1.107 0 2.087-.48 2.94-1.44l.94.86c-.427.5333-.967.9867-1.62 1.36-.653.36-1.42.54-2.3.54zm3.04-5.66c-.12-.9333-.46-1.6733-1.02-2.22-.56-.55999-1.267-.83999-2.12-.83999-.56 0-1.087.14-1.58.42-.48.26669-.88.63329-1.2 1.09999-.307.4667-.493.98-.56 1.54z"/><path d="m121.334 18.2c-.96 0-1.84-.2267-2.64-.68-.787-.4534-1.414-1.0667-1.88-1.84-.454-.7734-.68-1.62-.68-2.54s.226-1.7667.68-2.54c.466-.77336 1.093-1.38002 1.88-1.82002.8-.45334 1.68-.68 2.64-.68.973 0 1.853.22666 2.64.68.8.44 1.426 1.04666 1.88 1.82002.453.7733.68 1.62.68 2.54s-.227 1.7666-.68 2.54c-.454.7733-1.08 1.3866-1.88 1.84-.787.4533-1.667.68-2.64.68zm0-2.5c.68 0 1.26-.2467 1.74-.74.48-.4934.72-1.1.72-1.82s-.24-1.32-.72-1.8c-.48-.4934-1.06-.74-1.74-.74s-1.26.2466-1.74.74c-.467.48-.7 1.08-.7 1.8s.233 1.3266.7 1.82c.48.4933 1.06.74 1.74.74z"/></g><path d="m108.804 18h-3.02l3.34-5-3.08-4.70001h3.12l1.76 2.96001h.06l1.78-2.96001h3.02l-3.08 4.70001 3.32 5h-3.12l-2.02-3.28h-.06z"/><path clip-rule="evenodd" d="m100.716 8.09998c.826 0 1.56.17333 2.2.52.653.33333 1.16.79333 1.52 1.38.36.57332.54 1.20662.54 1.90002v6.1h-2.56v-1.34h-.06c-.24.3866-.62.74-1.14 1.06s-1.114.48-1.7804.48c-.6133 0-1.1667-.1267-1.66-.38-.48-.2534-.86-.5934-1.14-1.02-.28-.44-.42-.9067-.42-1.4 0-.8267.26-1.5067.78-2.04.52-.5334 1.26-.8934 2.22-1.08l3.0604-.58c-.027-.3867-.2-.7134-.52-.98-.307-.28-.7-.42-1.18-.42-.8271 0-1.5804.38-2.2604 1.14l-1.54-1.48002c.4267-.50667.9733-.94 1.64-1.3.68-.37334 1.4467-.56 2.3004-.56zm-.5 7.94002c.586 0 1.073-.2067 1.46-.62.4-.4134.6-.9534.6-1.62v-.32l-2.1.42c-.3737.0666-.6671.2066-.8804.42-.2133.2-.32.4266-.32.68 0 .3066.1067.56.32.76.2267.1866.5333.28.9204.28z" fill-rule="evenodd"/><path d="m79.8156 18v-9.70002h2.7v1.38h.06c.1867-.4.52-.76 1-1.08.48-.33334 1.0467-.5 1.7-.5.6667 0 1.2467.17333 1.74.52.4933.33333.84.70666 1.04 1.12h.08c.2267-.41334.6334-.78667 1.22-1.12.6-.34667 1.2867-.52 2.06-.52.6267 0 1.1933.16666 1.7.5.52.33333.9334.81333 1.24 1.44002.3067.6266.46 1.36.46 2.2v5.76h-2.7v-5.5c0-.5867-.1533-1.04-.46-1.36-.2933-.3334-.6733-.5-1.14-.5-.5333 0-.9733.1933-1.32.58-.3467.3866-.52.9133-.52 1.58v5.2h-2.7v-5.5c0-.5867-.1533-1.04-.46-1.36-.2933-.3334-.6733-.5-1.14-.5-.5467 0-.9933.1933-1.34.58-.3467.3866-.52.9133-.52 1.58v5.2z"/><path d="m72.6594 18v-9.70002h2.7v1.2h.06c.24-.36.6-.68 1.08-.96.4933-.29334 1.0466-.44 1.66-.44h.46v2.90002c-.32-.1067-.62-.16-.9-.16-.6934 0-1.26.24-1.7.72-.44.4666-.66 1.0933-.66 1.88v4.56z"/><path clip-rule="evenodd" d="m66.3953 8.09998c.8267 0 1.56.17333 2.2.52.6533.33333 1.16.79333 1.52 1.38.36.57332.54 1.20662.54 1.90002v6.1h-2.56v-1.34h-.06c-.24.3866-.62.74-1.14 1.06s-1.1133.48-1.78.48c-.6133 0-1.1667-.1267-1.66-.38-.48-.2534-.86-.5934-1.14-1.02-.28-.44-.42-.9067-.42-1.4 0-.8267.26-1.5067.78-2.04.52-.5334 1.26-.8934 2.22-1.08l3.06-.58c-.0267-.3867-.2-.7134-.52-.98-.3067-.28-.7-.42-1.18-.42-.8267 0-1.58.38-2.26 1.14l-1.54-1.48002c.4267-.50667.9733-.94 1.64-1.3.68-.37334 1.4467-.56 2.3-.56zm-.5 7.94002c.5867 0 1.0733-.2067 1.46-.62.4-.4134.6-.9534.6-1.62v-.32l-2.1.42c-.3733.0666-.6667.2066-.88.42-.2133.2-.32.4266-.32.68 0 .3066.1067.56.32.76.2267.1866.5333.28.92.28z" fill-rule="evenodd"/></g></svg>