<svg fill="none" height="24" viewBox="0 0 197 24" width="197" xmlns="http://www.w3.org/2000/svg"><path d="m30 0h1v24h-1z" fill="#e0e0e0"/><path d="m5.69368 10.3278c0-2.07292 1.44645-3.59308 3.45487-3.59308 1.26225 0 2.26645.74625 2.84685 1.80578.5804-1.05953 1.6031-1.80578 2.856-1.80578 1.9993 0 3.4549 1.52016 3.4549 3.59308 0 3.2062-3.4641 6.0438-5.7674 7.5824-.1658.1197-.3869.2579-.5251.2579s-.3685-.1382-.562-.2579c-2.34009-1.4741-5.75812-4.3762-5.75812-7.5824z" fill="#1565c0"/><path clip-rule="evenodd" d="m24 12.0046c0 6.5597-5.4357 11.9954-12.0046 11.9954-6.55971 0-11.9954-5.4357-11.9954-11.9954 0-6.56891 5.42649-12.0046 11.9862-12.0046 6.5689 0 12.0138 5.43569 12.0138 12.0046zm-22.27716 0c0 5.6937 4.57887 10.2818 10.27256 10.2818 5.7029 0 10.2818-4.5881 10.2818-10.2818 0-5.70289-4.5881-10.28176-10.291-10.28176-5.69369 0-10.26336 4.57887-10.26336 10.28176z" fill="#1565c0" fill-rule="evenodd"/><g fill="#212121"><path clip-rule="evenodd" d="m38.8 4v14h3v-4.6h2.96c.9467 0 1.7933-.2067 2.54-.62.76-.4133 1.3467-.9733 1.76-1.68.4267-.72.64-1.52.64-2.4s-.2133-1.67333-.64-2.38c-.4133-.72-1-1.28667-1.76-1.7-.7467-.41333-1.5933-.62-2.54-.62zm7.3 6.12c-.3867.3867-.8667.58-1.44.58h-2.86v-4h2.86c.5733 0 1.0533.2 1.44.6.4.38667.6.85333.6 1.4s-.2 1.02-.6 1.42z" fill-rule="evenodd"/><path d="m51.2008 18v-14h2.7v5.68h.06c.24-.4.6133-.76 1.12-1.08.52-.33333 1.1133-.5 1.78-.5.7066 0 1.3333.16667 1.88.5.5466.33333.9733.81333 1.28 1.44.32.6133.48 1.3467.48 2.2v5.76h-2.7v-5.4c0-.6-.1667-1.0733-.5-1.42-.3334-.36-.7667-.54-1.3-.54-.6134 0-1.12.2133-1.52.64-.3867.4133-.58.9533-.58 1.62v5.1z"/><path d="m132.96 18h9.8v-1.42h-8.3v-5.16h6.5v-1.42h-6.5v-4.58h8.1v-1.42h-9.6z"/><path d="m144.908 18v-9.59999h1.36v1.54h.02c.253-.45333.66-.85333 1.22-1.2.573-.36 1.213-.54 1.92-.54.733 0 1.393.17334 1.98.52.587.34667 1.047.83334 1.38 1.45999.333.6267.5 1.3467.5 2.16v5.66h-1.36v-5.66c0-.84-.253-1.52-.76-2.04-.493-.51999-1.127-.77999-1.9-.77999-.56 0-1.067.14-1.52.42-.453.26669-.813.63999-1.08 1.11999s-.4 1.02-.4 1.62v5.32z"/><path clip-rule="evenodd" d="m157.253 21.56c.76.4267 1.574.64 2.44.64.867 0 1.647-.2133 2.34-.64.707-.4267 1.26-1.0133 1.66-1.76.4-.7333.6-1.56.6-2.48v-8.91999h-1.36v1.59999h-.02c-.28-.45332-.72-.86665-1.32-1.23999-.6-.37333-1.28-.56-2.04-.56-.786 0-1.513.20667-2.18.62-.666.41334-1.2.98667-1.6 1.71999-.386.7333-.58 1.5533-.58 2.46s.194 1.7267.58 2.46c.4.7333.934 1.3067 1.6 1.72.667.4133 1.394.62 2.18.62.68 0 1.327-.16 1.94-.48.614-.3333 1.087-.78 1.42-1.34h.02v1.34c0 1.04-.3 1.8933-.9 2.56s-1.38 1-2.34 1c-.653 0-1.273-.1667-1.86-.5-.573-.3333-.986-.6933-1.24-1.08l-.98.9c.334.4933.88.9467 1.64 1.36zm4.08-5.52c-.48.2933-1.02.44-1.62.44-.573 0-1.106-.1467-1.6-.44-.48-.3067-.86-.72-1.14-1.24-.28-.5333-.42-1.1333-.42-1.8s.14-1.2667.42-1.8.66-.9467 1.14-1.23999c.494-.29333 1.027-.44 1.6-.44.6 0 1.14.14667 1.62.44.494.29329.88.70669 1.16 1.23999.294.5333.44 1.1333.44 1.8s-.146 1.2667-.44 1.8c-.28.52-.666.9333-1.16 1.24z" fill-rule="evenodd"/><path clip-rule="evenodd" d="m170.415 8.20001c.733 0 1.38.16 1.94.48.573.32 1.02.76667 1.34 1.33999.32.56.48 1.2067.48 1.94v6.04h-1.3v-1.54h-.02c-.253.44-.68.84-1.28 1.2s-1.287.54-2.06.54c-.627 0-1.187-.1267-1.68-.38-.48-.2533-.86-.5867-1.14-1-.267-.4267-.4-.88-.4-1.36 0-.7733.267-1.42.8-1.94.533-.5333 1.287-.88 2.26-1.04l3.48-.58v-.02c0-.72-.227-1.3-.68-1.74-.44-.43999-1.02-.65999-1.74-.65999-.56 0-1.053.12667-1.48.38-.413.23999-.813.55999-1.2.95999l-.9-.85999c.4-.49333.907-.90666 1.52-1.24.613-.34666 1.3-.52 2.06-.52zm-.76 8.75999c.587 0 1.12-.14 1.6-.42.493-.28.88-.66 1.16-1.14.28-.4933.42-1.04.42-1.64v-.68l-3.16.52c-.68.12-1.187.3333-1.52.64s-.5.6867-.5 1.14c0 .44.18.8133.54 1.12.373.3067.86.46 1.46.46z" fill-rule="evenodd"/><path clip-rule="evenodd" d="m178.128 21.56c.76.4267 1.574.64 2.44.64.867 0 1.647-.2133 2.34-.64.707-.4267 1.26-1.0133 1.66-1.76.4-.7333.6-1.56.6-2.48v-8.91999h-1.36v1.59999h-.02c-.28-.45332-.72-.86665-1.32-1.23999-.6-.37333-1.28-.56-2.04-.56-.786 0-1.513.20667-2.18.62-.666.41334-1.2.98667-1.6 1.71999-.386.7333-.58 1.5533-.58 2.46s.194 1.7267.58 2.46c.4.7333.934 1.3067 1.6 1.72.667.4133 1.394.62 2.18.62.68 0 1.327-.16 1.94-.48.614-.3333 1.087-.78 1.42-1.34h.02v1.34c0 1.04-.3 1.8933-.9 2.56s-1.38 1-2.34 1c-.653 0-1.273-.1667-1.86-.5-.573-.3333-.986-.6933-1.24-1.08l-.98.9c.334.4933.88.9467 1.64 1.36zm4.08-5.52c-.48.2933-1.02.44-1.62.44-.573 0-1.106-.1467-1.6-.44-.48-.3067-.86-.72-1.14-1.24-.28-.5333-.42-1.1333-.42-1.8s.14-1.2667.42-1.8.66-.9467 1.14-1.23999c.494-.29333 1.027-.44 1.6-.44.6 0 1.14.14667 1.62.44.494.29329.88.70669 1.16 1.23999.294.5333.44 1.1333.44 1.8s-.146 1.2667-.44 1.8c-.28.52-.666.9333-1.16 1.24z" fill-rule="evenodd"/><path clip-rule="evenodd" d="m189.59 17.54c.733.44 1.533.66 2.4.66.88 0 1.647-.18 2.3-.54.653-.3733 1.193-.8267 1.62-1.36l-.94-.86c-.853.96-1.833 1.44-2.94 1.44-.6 0-1.153-.14-1.66-.42-.493-.28-.9-.66-1.22-1.14s-.513-1.0133-.58-1.6h7.8c.027-.2133.04-.4267.04-.64 0-.9333-.2-1.7733-.6-2.52-.4-.74666-.947-1.32665-1.64-1.73999-.68-.41333-1.44-.62-2.28-.62-.853 0-1.64.22-2.36.66s-1.293 1.04-1.72 1.79999c-.427.76-.64 1.6067-.64 2.54 0 .92.22 1.76.66 2.52s1.027 1.3667 1.76 1.82zm4.42-7.22c.56.5467.9 1.2867 1.02 2.22h-6.48c.067-.56.253-1.0733.56-1.54.32-.4667.72-.8333 1.2-1.09999.493-.28 1.02-.42 1.58-.42.853 0 1.56.28 2.12.83999z" fill-rule="evenodd"/><path clip-rule="evenodd" d="m121.334 18.2c-.96 0-1.84-.2267-2.64-.68-.787-.4534-1.414-1.0667-1.88-1.84-.454-.7734-.68-1.62-.68-2.54s.226-1.7667.68-2.54c.466-.77336 1.093-1.38002 1.88-1.82002.8-.45334 1.68-.68 2.64-.68.973 0 1.853.22666 2.64.68.8.44 1.426 1.04666 1.88 1.82002.453.7733.68 1.62.68 2.54s-.227 1.7666-.68 2.54c-.454.7733-1.08 1.3866-1.88 1.84-.787.4533-1.667.68-2.64.68zm0-2.5c.68 0 1.26-.2467 1.74-.74.48-.4934.72-1.1.72-1.82s-.24-1.32-.72-1.8c-.48-.4934-1.06-.74-1.74-.74s-1.26.2466-1.74.74c-.467.48-.7 1.08-.7 1.8s.233 1.3266.7 1.82c.48.4933 1.06.74 1.74.74z" fill-rule="evenodd"/><path d="m105.784 18h3.02l2.02-3.28h.06l2.02 3.28h3.12l-3.32-5 3.08-4.70001h-3.02l-1.78 2.96001h-.06l-1.76-2.96001h-3.12l3.08 4.70001z"/><path clip-rule="evenodd" d="m100.716 8.09998c.826 0 1.56.17333 2.2.52.653.33333 1.16.79333 1.52 1.38.36.57332.54 1.20662.54 1.90002v6.1h-2.56v-1.34h-.06c-.24.3866-.62.74-1.14 1.06s-1.114.48-1.7804.48c-.6133 0-1.1666-.1267-1.66-.38-.48-.2534-.86-.5934-1.14-1.02-.28-.44-.42-.9067-.42-1.4 0-.8267.26-1.5067.78-2.04.52-.5334 1.26-.8934 2.22-1.08l3.0604-.58c-.027-.3867-.2-.7134-.52-.98-.307-.28-.7-.42-1.18-.42-.827 0-1.5804.38-2.2604 1.14l-1.54-1.48002c.4267-.50667.9734-.94 1.64-1.3.68-.37334 1.4467-.56 2.3004-.56zm-.5 7.94002c.586 0 1.073-.2067 1.46-.62.4-.4134.6-.9534.6-1.62v-.32l-2.1.42c-.3737.0666-.667.2066-.8804.42-.2133.2-.32.4266-.32.68 0 .3066.1067.56.32.76.2267.1866.5334.28.9204.28z" fill-rule="evenodd"/><path d="m79.8156 8.29998v9.70002h2.7v-5.2c0-.6667.1734-1.1934.52-1.58.3467-.3867.7934-.58 1.34-.58.4667 0 .8467.1666 1.14.5.3067.32.46.7733.46 1.36v5.5h2.7v-5.2c0-.6667.1734-1.1934.52-1.58.3467-.3867.7867-.58 1.32-.58.4667 0 .8467.1666 1.14.5.3067.32.46.7733.46 1.36v5.5h2.7v-5.76c0-.84-.1533-1.5734-.46-2.2-.3066-.62669-.72-1.10669-1.24-1.44002-.5066-.33334-1.0733-.5-1.7-.5-.7733 0-1.46.17333-2.06.52-.5866.33333-.9933.70666-1.22 1.12h-.08c-.2-.41334-.5466-.78667-1.04-1.12-.4933-.34667-1.0733-.52-1.74-.52-.6533 0-1.22.16666-1.7.5-.48.32-.8133.68-1 1.08h-.06v-1.38z"/><path d="m72.6594 18v-9.70002h2.7v1.2h.06c.24-.36.6-.68 1.08-.96.4933-.29334 1.0466-.44 1.66-.44h.46v2.90002c-.32-.1067-.62-.16-.9-.16-.6934 0-1.26.24-1.7.72-.44.4666-.66 1.0933-.66 1.88v4.56z"/><path clip-rule="evenodd" d="m68.5953 8.61998c-.64-.34667-1.3733-.52-2.2-.52-.8533 0-1.62.18666-2.3.56-.6667.36-1.2133.79333-1.64 1.3l1.54 1.48002c.68-.76 1.4333-1.14 2.26-1.14.48 0 .8733.14 1.18.42.32.2666.4933.5933.52.98l-3.06.58c-.96.1866-1.7.5466-2.22 1.08-.52.5333-.78 1.2133-.78 2.04 0 .4933.14.96.42 1.4.28.4266.66.7666 1.14 1.02.4933.2533 1.0467.38 1.66.38.6667 0 1.26-.16 1.78-.48s.9-.6734 1.14-1.06h.06v1.34h2.56v-6.1c0-.6934-.18-1.3267-.54-1.90002-.36-.58667-.8667-1.04667-1.52-1.38zm-1.24 6.80002c-.3867.4133-.8733.62-1.46.62-.3867 0-.6933-.0934-.92-.28-.2133-.2-.32-.4534-.32-.76 0-.2534.1067-.48.32-.68.2133-.2134.5067-.3534.88-.42l2.1-.42v.32c0 .6666-.2 1.2066-.6 1.62z" fill-rule="evenodd"/></g></svg>