<svg fill="none" height="48" viewBox="0 0 163 48" width="163" xmlns="http://www.w3.org/2000/svg"><g fill="#000"><path d="m18.2971 13.4591c-4.0168 0-6.9097 3.038-6.9097 7.1807 0 6.4073 6.836 12.2071 11.5162 15.153.387.2394.8476.5156 1.124.5156s.7187-.2762 1.0503-.5156c4.6065-3.0748 11.5348-8.7457 11.5348-15.153 0-4.1427-2.9113-7.1807-6.9098-7.1807-2.5059 0-4.5513 1.4913-5.7121 3.6088-1.1608-2.1175-3.1693-3.6088-5.6937-3.6088z"/><path clip-rule="evenodd" d="m23.9908 47.9631c13.1378 0 24.0092-10.863 24.0092-23.9723 0-13.1278-10.8899-23.9908-24.0276-23.9908-13.1194 0-23.9724 10.863-23.9724 23.9908 0 13.1093 10.8714 23.9723 23.9908 23.9723zm0-3.4246c-11.3874 0-20.54512-9.1692-20.54512-20.5477 0-11.397 9.13932-20.54775 20.52672-20.54775 11.4057 0 20.5819 9.15075 20.5819 20.54775 0 11.3785-9.1578 20.5477-20.5635 20.5477z" fill-rule="evenodd"/><path d="m60 0h1v48h-1z"/><path clip-rule="evenodd" d="m74.8 8v14h3v-4.6h2.96c.9467 0 1.7933-.2066 2.54-.62.76-.4134 1.3467-.9734 1.76-1.68.4267-.72.64-1.52.64-2.4s-.2133-1.6733-.64-2.38c-.4133-.72002-1-1.28667-1.76-1.7-.7467-.41333-1.5933-.62-2.54-.62zm7.3 6.12c-.3867.3867-.8667.58-1.44.58h-2.86v-4h2.86c.5733 0 1.0533.2 1.44.6.4.3866.6.8533.6 1.4 0 .5466-.2 1.02-.6 1.42z" fill-rule="evenodd"/><path d="m87.2008 22v-14h2.7v5.68h.06c.24-.4.6133-.76 1.12-1.08.52-.3333 1.1133-.5 1.78-.5.7066 0 1.3333.1667 1.88.5.5466.3333.9733.8133 1.28 1.44.32.6133.48 1.3467.48 2.2v5.76h-2.7v-5.4c0-.6-.1667-1.0733-.5-1.42-.3334-.36-.7667-.54-1.3-.54-.6133 0-1.12.2133-1.52.64-.3867.4134-.58.9533-.58 1.62v5.1z"/><path clip-rule="evenodd" d="m102.395 12.1c.827 0 1.56.1733 2.2.52.654.3333 1.16.7933 1.52 1.38.36.5734.54 1.2067.54 1.9v6.1h-2.56v-1.34h-.06c-.24.3867-.62.74-1.14 1.06s-1.113.48-1.78.48c-.613 0-1.1664-.1266-1.6597-.38-.48-.2533-.86-.5933-1.14-1.02-.28-.44-.42-.9067-.42-1.4 0-.8266.26-1.5067.78-2.04s1.26-.8933 2.2197-1.08l3.06-.58c-.026-.3866-.2-.7133-.52-.98-.306-.28-.7-.42-1.18-.42-.826 0-1.58.38-2.2597 1.14l-1.54-1.48c.4267-.5067.9733-.94 1.6397-1.3.68-.3733 1.447-.56 2.3-.56zm-.5 7.94c.587 0 1.074-.2067 1.46-.62.4-.4133.6-.9533.6-1.62v-.32l-2.1.42c-.373.0667-.666.2067-.88.42-.213.2-.32.4266-.32.68 0 .3066.107.56.32.76.227.1867.534.28.92.28z" fill-rule="evenodd"/><path d="m108.659 22v-9.7h2.7v1.2h.06c.24-.36.6-.68 1.08-.96.494-.2934 1.047-.44 1.66-.44h.46v2.9c-.32-.1067-.62-.16-.9-.16-.693 0-1.26.24-1.7.72-.44.4667-.66 1.0933-.66 1.88v4.56z"/><path d="m115.816 22v-9.7h2.7v1.38h.06c.186-.4.52-.76 1-1.08.48-.3333 1.046-.5 1.7-.5.666 0 1.246.1733 1.74.52.493.3333.84.7067 1.04 1.12h.08c.226-.4133.633-.7867 1.22-1.12.6-.3467 1.286-.52 2.06-.52.626 0 1.193.1667 1.7.5.52.3333.933.8133 1.24 1.44.306.6267.46 1.36.46 2.2v5.76h-2.7v-5.5c0-.5867-.154-1.04-.46-1.36-.294-.3334-.674-.5-1.14-.5-.534 0-.974.1933-1.32.58-.347.3867-.52.9134-.52 1.58v5.2h-2.7v-5.5c0-.5867-.154-1.04-.46-1.36-.294-.3334-.674-.5-1.14-.5-.547 0-.994.1933-1.34.58-.347.3867-.52.9134-.52 1.58v5.2z"/><path clip-rule="evenodd" d="m136.716 12.1c.826 0 1.56.1733 2.2.52.653.3333 1.16.7933 1.52 1.38.36.5734.54 1.2067.54 1.9v6.1h-2.56v-1.34h-.06c-.24.3867-.62.74-1.14 1.06s-1.114.48-1.78.48c-.614 0-1.167-.1266-1.66-.38-.48-.2533-.86-.5933-1.14-1.02-.28-.44-.42-.9067-.42-1.4 0-.8266.26-1.5067.78-2.04s1.26-.8933 2.22-1.08l3.06-.58c-.027-.3866-.2-.7133-.52-.98-.307-.28-.7-.42-1.18-.42-.827 0-1.58.38-2.26 1.14l-1.54-1.48c.426-.5067.973-.94 1.64-1.3.68-.3733 1.446-.56 2.3-.56zm-.5 7.94c.586 0 1.073-.2067 1.46-.62.4-.4133.6-.9533.6-1.62v-.32l-2.1.42c-.374.0667-.667.2067-.88.42-.214.2-.32.4266-.32.68 0 .3066.106.56.32.76.226.1867.533.28.92.28z" fill-rule="evenodd"/><path clip-rule="evenodd" d="m157.334 22.2c-.96 0-1.84-.2267-2.64-.68-.787-.4533-1.414-1.0667-1.88-1.84-.454-.7733-.68-1.62-.68-2.54s.226-1.7666.68-2.54c.466-.7733 1.093-1.38 1.88-1.82.8-.4533 1.68-.68 2.64-.68.973 0 1.853.2267 2.64.68.8.44 1.426 1.0467 1.88 1.82.453.7734.68 1.62.68 2.54s-.227 1.7667-.68 2.54c-.454.7733-1.08 1.3867-1.88 1.84-.787.4533-1.667.68-2.64.68zm0-2.5c.68 0 1.26-.2467 1.74-.74s.72-1.1.72-1.82-.24-1.32-.72-1.8c-.48-.4933-1.06-.74-1.74-.74s-1.26.2467-1.74.74c-.467.48-.7 1.08-.7 1.8s.233 1.3267.7 1.82c.48.4933 1.06.74 1.74.74z" fill-rule="evenodd"/><path d="m141.784 22h3.02l2.02-3.28h.06l2.02 3.28h3.12l-3.32-5 3.08-4.7h-3.02l-1.78 2.96h-.06l-1.76-2.96h-3.12l3.08 4.7z"/><g clip-rule="evenodd" fill-rule="evenodd"><path d="m120 38.6321c.587.352 1.227.5279 1.92.5279.704 0 1.317-.1439 1.84-.432.523-.2986.955-.6613 1.296-1.0879l-.752-.6881c-.683.768-1.467 1.1521-2.352 1.1521-.48 0-.923-.112-1.328-.336-.395-.224-.72-.528-.976-.912-.256-.3841-.411-.8107-.464-1.2801h6.24c.021-.1706.032-.3413.032-.512 0-.7466-.16-1.4186-.48-2.016-.32-.5973-.757-1.0613-1.312-1.3919-.544-.3307-1.152-.4961-1.824-.4961-.683 0-1.312.1761-1.888.528-.576.352-1.035.832-1.376 1.4401-.341.6079-.512 1.2853-.512 2.0319 0 .7361.176 1.4081.528 2.016.352.6081.821 1.0934 1.408 1.4561zm3.536-5.776c.448.4373.72 1.0293.816 1.776h-5.184c.053-.4481.203-.8587.448-1.2321.256-.3733.576-.6666.96-.88.395-.224.816-.336 1.264-.336.683 0 1.248.224 1.696.6721z"/><path d="m110.831 41.848c.608.3414 1.259.512 1.952.512s1.317-.1706 1.872-.512c.565-.3413 1.008-.8106 1.328-1.4079.32-.5867.48-1.248.48-1.984v-7.136h-1.088v1.2799h-.016c-.224-.3626-.576-.6933-1.056-.992-.48-.2986-1.024-.448-1.632-.448-.629 0-1.211.1654-1.744.4961-.533.3306-.96.7893-1.28 1.3759-.309.5867-.464 1.2427-.464 1.9681 0 .7253.155 1.3813.464 1.968.32.5866.747 1.0453 1.28 1.376.533.3306 1.115.4959 1.744.4959.544 0 1.061-.128 1.552-.3839.491-.2667.869-.6241 1.136-1.0721h.016v1.0721c0 .8319-.24 1.5146-.72 2.0479-.48.5334-1.104.8001-1.872.8001-.523 0-1.019-.1334-1.488-.4-.459-.2667-.789-.5547-.992-.8641l-.784.7201c.267.3946.704.7573 1.312 1.0879zm3.264-4.4159c-.384.2346-.816.352-1.296.352-.459 0-.885-.1174-1.28-.352-.384-.2454-.688-.576-.912-.992-.224-.4267-.336-.9067-.336-1.44 0-.5334.112-1.0134.336-1.44.224-.4267.528-.7574.912-.992.395-.2347.821-.352 1.28-.352.48 0 .912.1173 1.296.352.395.2346.704.5653.928.992.235.4266.352.9066.352 1.44 0 .5333-.117 1.0133-.352 1.44-.224.416-.533.7466-.928.992z"/><path d="m106.212 31.5441c-.448-.2561-.965-.3841-1.552-.3841-.608 0-1.157.1387-1.648.416-.491.2667-.896.5974-1.216.9921l.72.6879c.309-.32.629-.5759.96-.768.341-.2026.736-.304 1.184-.304.576 0 1.04.176 1.392.528.363.352.544.8161.544 1.3921v.016l-2.784.4639c-.779.128-1.381.4054-1.808.8321-.427.4159-.64.9333-.64 1.552 0 .384.107.7466.32 1.0879.224.3307.528.5974.912.8001.395.2026.843.3039 1.344.3039.619 0 1.168-.1439 1.648-.432.48-.2879.821-.6079 1.024-.9599h.016v1.232h1.04v-4.8321c0-.5866-.128-1.104-.384-1.552-.256-.4586-.613-.816-1.072-1.0719zm-.88 6.2879c-.384.224-.811.336-1.28.336-.48 0-.869-.1226-1.168-.368-.288-.2453-.432-.544-.432-.8959 0-.3627.133-.6667.4-.912.267-.2454.672-.4161 1.216-.5121l2.528-.416v.544c0 .4801-.112.9174-.336 1.312-.224.3841-.533.688-.928.912z"/><path d="m94.1309 41.848c.608.3414 1.2586.512 1.952.512.6933 0 1.3173-.1706 1.872-.512.5653-.3413 1.008-.8106 1.328-1.4079.32-.5867.48-1.248.48-1.984v-7.136h-1.088v1.2799h-.016c-.224-.3626-.576-.6933-1.056-.992-.48-.2986-1.024-.448-1.632-.448-.6294 0-1.2107.1654-1.744.4961-.5334.3306-.96.7893-1.28 1.3759-.3094.5867-.4641 1.2427-.4641 1.9681 0 .7253.1547 1.3813.4641 1.968.32.5866.7466 1.0453 1.28 1.376.5333.3306 1.1146.4959 1.744.4959.544 0 1.0613-.128 1.552-.3839.4906-.2667.8693-.6241 1.136-1.0721h.016v1.0721c0 .8319-.24 1.5146-.72 2.0479-.48.5334-1.104.8001-1.872.8001-.5227 0-1.0187-.1334-1.4881-.4-.4586-.2667-.7893-.5547-.9919-.8641l-.784.7201c.2666.3946.704.7573 1.312 1.0879zm3.264-4.4159c-.384.2346-.816.352-1.296.352-.4587 0-.8854-.1174-1.28-.352-.384-.2454-.688-.576-.912-.992-.224-.4267-.336-.9067-.336-1.44 0-.5334.112-1.0134.336-1.44.224-.4267.528-.7574.912-.992.3946-.2347.8213-.352 1.28-.352.48 0 .912.1173 1.296.352.3946.2346.704.5653.928.992.2346.4266.352.9066.352 1.44 0 .5333-.1174 1.0133-.352 1.44-.224.416-.5334.7466-.928.992z"/></g><path d="m84.2546 31.3201v7.68h1.088v-4.2561c0-.48.1067-.912.32-1.2959.2133-.3841.5013-.6827.864-.896.3627-.224.768-.336 1.216-.336.6187 0 1.1254.208 1.52.6239.4053.416.608.96.608 1.632v4.5281h1.088v-4.5281c0-.6506-.1333-1.2266-.4-1.728-.2667-.5013-.6346-.8906-1.104-1.168-.4693-.2773-.9973-.416-1.584-.416-.5653 0-1.0773.1441-1.536.432-.448.2774-.7733.5974-.976.9601h-.016v-1.232z"/><path d="m74.696 39.0001h7.84v-1.136h-6.64v-4.1281h5.2v-1.136h-5.2v-3.664h6.48v-1.136h-7.68z"/></g></svg>