<svg fill="none" height="48" viewBox="0 0 205 48" width="205" xmlns="http://www.w3.org/2000/svg"><g fill="#fff"><path clip-rule="evenodd" d="m48 24c0 13.2548-10.7452 24-24 24s-24-10.7452-24-24 10.7452-24 24-24 24 10.7452 24 24zm-31.4483 3.0894c.3353.5781.956.9379 1.6195.9379 1.0347 0 1.8762-.8419 1.8762-1.8766 0-.3312-.0856-.6549-.2485-.9363-.6059-1.048-.9259-2.24-.9259-3.4482 0-3.8056 3.0956-6.9019 6.9017-6.9019 1.0339 0 1.875-.8415 1.875-1.8761 0-1.0342-.8388-1.8757-1.8692-1.8757-5.8769 0-10.6579 4.7793-10.6579 10.6537 0 1.8654.4941 3.7061 1.4291 5.3232zm3.5697-5.3232c0-1.6393.6977-3.1153 1.8123-4.1478-.0963 1.1669.471 2.3393 1.5527 2.9636.4835.2797 1.0209.4212 1.5594.4212.961-.0006 1.9336.2396 2.8246.754 1.4202.8201 2.3496 2.1624 2.6866 3.6441-.9629-.6668-2.2624-.7622-3.3432-.1378-.4845.2792-.8748.6734-1.1445 1.1392-.48.8341-1.1743 1.5559-2.0658 2.0703-1.4199.8191-3.0468.9531-4.498.5047 1.0578-.5011 1.7898-1.5783 1.7898-2.827 0-.5583-.1458-1.0946-.4147-1.5606-.4812-.8326-.7592-1.7954-.7592-2.8239zm11.5871 10.8993c.2876.1665.613.2535.9412.2535.6649 0 1.2858-.3576 1.6178-.9333 1.4229-2.4643 1.8011-5.3359 1.0647-8.0859-.7366-2.7507-2.4992-5.0487-4.9622-6.4709-1.6145-.932-3.4538-1.4244-5.3242-1.4244-.6691.0015-1.2908.3592-1.6219.9331-.5168.8958-.2095 2.0456.6858 2.5632.288.1659.6111.2535.9419.2535 1.2085 0 2.3991.3187 3.4434.9215 3.2954 1.903 4.4282 6.1321 2.5266 9.428-.5178.8956-.2091 2.0444.6869 2.5617zm-19.7608-3.767c1.897 3.2879 5.4384 5.3308 9.2413 5.3308 1.8586 0 3.696-.4939 5.3142-1.4281 1.6157-.9329 2.9621-2.2812 3.8942-3.8983.3337-.5789.3354-1.2963.0033-1.8715-.4976-.8616-1.6944-1.1893-2.5623-.6864-.2868.1649-.5241.4008-.6873.6821-.6047 1.0495-1.4768 1.9234-2.5238 2.5272-1.0487.6052-2.2403.9254-3.4442.9254-2.4609 0-4.7536-1.3225-5.9837-3.4518-.4959-.861-1.6921-1.1872-2.5619-.685-.8955.5165-1.2055 1.6632-.6898 2.5556z" fill-rule="evenodd"/><path d="m61 0h-1v48h1z"/><path d="m76.9199 19h1.2v-10.064h3.536v-1.136h-8.288v1.136h3.552z"/><path d="m82.9752 7.8v11.2h1.088v-4.256c0-.48.1066-.912.32-1.296.2133-.384.5013-.6827.864-.896.3626-.224.768-.336 1.216-.336.6186 0 1.1253.208 1.52.624.4053.416.608.96.608 1.632v4.528h1.088v-4.528c0-.6507-.1334-1.2267-.4-1.728-.2667-.5013-.6347-.8907-1.104-1.168-.4694-.2773-.9974-.416-1.584-.416-.5654 0-1.0774.144-1.536.432-.448.2773-.7734.5973-.976.96h-.016v-4.752z"/><path clip-rule="evenodd" d="m95.0575 19.16c-.6933 0-1.3333-.176-1.92-.528-.5866-.3627-1.056-.848-1.408-1.456s-.528-1.28-.528-2.016c0-.7467.1707-1.424.512-2.032.3414-.608.8-1.088 1.376-1.44s1.2054-.528 1.888-.528c.672 0 1.28.1653 1.824.496.5547.3307.992.7947 1.312 1.392s.48 1.2693.48 2.016c0 .1707-.0106.3413-.032.512h-6.24c.0534.4693.208.896.464 1.28s.5814.688.976.912c.4054.224.848.336 1.328.336.8854 0 1.6694-.384 2.352-1.152l.752.688c-.3413.4267-.7733.7893-1.296 1.088-.5226.288-1.136.432-1.84.432zm2.432-4.528c-.096-.7467-.368-1.3387-.816-1.776-.448-.448-1.0133-.672-1.696-.672-.448 0-.8693.112-1.264.336-.384.2133-.704.5067-.96.88-.2453.3733-.3946.784-.448 1.232z" fill-rule="evenodd"/><path clip-rule="evenodd" d="m122.977 37.32c1.16.6533 2.453.98 3.88.98 1.413 0 2.7-.3267 3.86-.98s2.073-1.5333 2.74-2.64c.667-1.12 1-2.3467 1-3.68s-.333-2.56-1-3.68-1.58-2-2.74-2.64c-1.147-.6533-2.433-.98-3.86-.98s-2.72.3267-3.88.98c-1.16.64-2.073 1.52-2.74 2.64-.653 1.12-.98 2.3467-.98 3.68s.327 2.56.98 3.68c.667 1.1067 1.58 1.9867 2.74 2.64zm6.18-2.38c-.693.4-1.46.6-2.3.6s-1.607-.2-2.3-.6-1.247-.9467-1.66-1.64c-.4-.6933-.6-1.46-.6-2.3s.2-1.6067.6-2.3c.4-.7067.947-1.26 1.64-1.66.707-.4 1.48-.6 2.32-.6s1.607.2067 2.3.62c.693.4 1.24.9467 1.64 1.64s.6 1.46.6 2.3-.2 1.6067-.6 2.3-.947 1.24-1.64 1.64z" fill-rule="evenodd"/><path d="m74.8 38h3v-9.22h.0801l4.4199 5.62 4.42-5.62h.08v9.22h3v-14h-2.66l-4.78 6.08h-.0399l-4.7801-6.08h-2.74z"/><path clip-rule="evenodd" d="m91.2938 38h3.14l1.16-3.16h5.5402l1.18 3.16h3.18l-5.42-14h-3.3402zm5.18-5.7 1.86-5.24h.06l1.8602 5.24z" fill-rule="evenodd"/><path d="m109.023 38h-3.42l4.76-7.28-4.36-6.72h3.5l2.8 4.52h.06l2.82-4.52h3.42l-4.34 6.66 4.74 7.34h-3.48l-3.22-5.14h-.06z"/><path clip-rule="evenodd" d="m141.75 38h-3.14l5.44-14h3.34l5.42 14h-3.18l-1.18-3.16h-5.54zm3.9-10.94-1.86 5.24h3.78l-1.86-5.24z" fill-rule="evenodd"/><path d="m155.629 38h2.32l1.96-5.94h.06l1.94 5.94h2.32l3.4-9.7h-2.78l-1.84 5.82h-.06l-1.92-5.82h-2.1l-1.92 5.82h-.06l-1.84-5.82h-2.88z"/><path clip-rule="evenodd" d="m172.239 28.1c.827 0 1.56.1733 2.2.52.653.3333 1.16.7933 1.52 1.38.36.5733.54 1.2067.54 1.9v6.1h-2.56v-1.34h-.06c-.24.3867-.62.74-1.14 1.06s-1.113.48-1.78.48c-.613 0-1.167-.1267-1.66-.38-.48-.2533-.86-.5933-1.14-1.02-.28-.44-.42-.9067-.42-1.4 0-.8267.26-1.5067.78-2.04s1.26-.8933 2.22-1.08l3.06-.58c-.027-.3867-.2-.7133-.52-.98-.307-.28-.7-.42-1.18-.42-.827 0-1.58.38-2.26 1.14l-1.54-1.48c.427-.5067.973-.94 1.64-1.3.68-.3733 1.447-.56 2.3-.56zm-.5 7.94c.587 0 1.073-.2067 1.46-.62.4-.4133.6-.9533.6-1.62v-.32l-2.1.42c-.373.0667-.667.2067-.88.42-.213.2-.32.4267-.32.68 0 .3067.107.56.32.76.227.1867.533.28.92.28z" fill-rule="evenodd"/><path d="m178.503 28.3v9.7h2.7v-4.56c0-.7867.22-1.4133.66-1.88.44-.48 1.007-.72 1.7-.72.28 0 .58.0533.9.16v-2.9h-.46c-.613 0-1.166.1467-1.66.44-.48.28-.84.6-1.08.96h-.06v-1.2z"/><path clip-rule="evenodd" d="m189.264 38.2c-.787 0-1.52-.2133-2.2-.64-.667-.44-1.2-1.04-1.6-1.8-.4-.7733-.6-1.6467-.6-2.62s.2-1.84.6-2.6c.4-.7733.933-1.3733 1.6-1.8.68-.4267 1.413-.64 2.2-.64.733 0 1.373.1667 1.92.5.547.32.94.68 1.18 1.08h.06v-5.68h2.7v14h-2.7v-1.38h-.06c-.24.4-.633.7667-1.18 1.1-.547.32-1.187.48-1.92.48zm.76-2.5c.427 0 .82-.1133 1.18-.34.373-.2267.667-.5333.88-.92.227-.3867.34-.82.34-1.3 0-.4667-.113-.8933-.34-1.28-.213-.3867-.507-.6933-.88-.92-.36-.2267-.753-.34-1.18-.34s-.827.1133-1.2.34c-.36.2267-.653.5333-.88.92-.213.3867-.32.8133-.32 1.28 0 .48.107.9133.32 1.3.227.3867.52.6933.88.92.373.2267.773.34 1.2.34z" fill-rule="evenodd"/><path d="m198.287 37.66c.747.36 1.56.54 2.44.54.827 0 1.54-.1333 2.14-.4.6-.28 1.054-.6467 1.36-1.1.307-.4667.46-.98.46-1.54 0-.6267-.16-1.14-.48-1.54-.306-.4-.673-.7-1.1-.9-.426-.2133-.966-.4267-1.62-.64-.573-.1867-.986-.3467-1.24-.48-.24-.1333-.36-.3133-.36-.54 0-.2.107-.3667.32-.5.214-.1467.507-.22.88-.22.4 0 .76.08 1.08.24.334.1467.607.32.82.52l1.54-1.6c-.346-.36-.853-.68-1.52-.96-.666-.2933-1.406-.44-2.22-.44-.773 0-1.446.1333-2.02.4-.56.2533-.993.6067-1.3 1.06-.293.44-.44.9267-.44 1.46 0 .6267.154 1.14.46 1.54.32.3867.687.68 1.1.88.427.2.967.4067 1.62.62.56.1733.967.3333 1.22.48.267.1333.4.32.4.56 0 .2533-.113.46-.34.62-.213.1467-.526.22-.94.22-.493 0-.953-.1133-1.38-.34-.426-.24-.773-.5067-1.04-.8l-1.54 1.6c.387.4667.954.8867 1.7 1.26z"/></g></svg>