<svg fill="none" height="36" viewBox="0 0 187 36" width="187" xmlns="http://www.w3.org/2000/svg"><path d="m27.1951 17.9419 3.3748-3.375c.6596-.6595.6596-1.7267 0-2.3862-.6597-.6596-1.7271-.6597-2.3862-.0006l-3.0769 3.0771-.9888-.9885c.6885-.6886 1.4336-1.4336 2.0182-2.0181.6196-.6196 1.0587-1.0587 1.0587-1.0587.6596-.6595.6596-1.72673 0-2.38625-.6597-.65952-1.7271-.6597-2.3862-.00036l-5.0557 5.05581c-.0819.081-.1555.1701-.2194.2666-.004.0058-.0074.0119-.011.0178-.0556.0861-.104.1768-.1434.2726-.002.0047-.0037.0094-.0053.0142-.0015.0043-.0029.0086-.0046.0128-.036.0918-.0652.187-.085.286-.0009.0046-.0015.0092-.0021.0138-.0006.0047-.0011.0093-.002.0139-.0171.0947-.0272.1919-.0279.2914v1.2762l-1.6881-.0005v-1.2764c-.0007-.0995-.0108-.1967-.0281-.2914l-.0018-.0127c-.0007-.005-.0013-.01-.0023-.015-.0196-.099-.0488-.1941-.0848-.2861-.0017-.0042-.0032-.0085-.0047-.0128-.0016-.0047-.0032-.0095-.0052-.0142-.0394-.0957-.0878-.1864-.1434-.2723l-.0046-.0076-.0064-.0104c-.0639-.0963-.1375-.1856-.2194-.2666l-5.0559-5.05583c-.6591-.65934-1.7264-.65916-2.38607.00036-.65952.65952-.65952 1.72697 0 2.38627 0 0 .65537.6554 1.49457 1.4946.4957.4957 1.0555 1.0554 1.5822 1.5821l-.9886.9888-3.07709-3.0773c-.65916-.6592-1.72638-.659-2.38608.0005-.65952.6596-.65952 1.727 0 2.3863l3.37482 3.375c.65975.6593 1.72715.6593 2.38685 0 .5556-.556.6372-1.3991.2561-2.0459l1.0307-1.0307.8942.8943-.0002 11.1137c.0002.9326.755 1.6875 1.6879 1.6875.9328 0 1.6873-.7549 1.6877-1.6875l-.0004-9.7029 1.6881.0007-.0002 9.7028c.0002.9325.7547 1.6875 1.6875 1.6875.9329 0 1.6877-.755 1.6877-1.6875v-11.1138l.894-.894 1.0307 1.0306c-.3809.647-.2995 1.4901.2563 2.0459.6597.6597 1.7269.6597 2.3868 0z" fill="#007bff"/><path d="m97.1396 20.533c-1.3018-.4048-2.3887-.7428-2.3887-1.5579 0-.6865.6041-1.0437 1.6202-1.0437 1.1265 0 1.8679.4394 2.4721.8788.3019.2198.549.3847.9337.3847.7151 0 1.3191-.6045 1.3191-1.3185 0-.4121-.11-.6041-.275-.8239-.77-.9614-2.4996-1.7028-4.4499-1.7028-2.5266 0-4.5867 1.2082-4.5867 3.6803 0 2.7622 2.3554 3.4867 4.2792 4.0784 1.3278.4084 2.4501.7536 2.4501 1.662 0 .7687-.7965 1.0989-2.0328 1.0989-1.3734 0-2.2793-.5226-3.0209-1.1265-.3024-.2471-.5771-.3292-.8516-.3292-.7139 0-1.3183.6039-1.3183 1.3183 0 .3296.1098.5766.3296.8512.6865.8514 2.4998 1.9226 4.8612 1.9226 2.8291 0 5.0261-1.3187 5.0261-3.8999 0-2.7146-2.4233-3.4682-4.3674-4.0728z" fill="#007bff"/><path clip-rule="evenodd" d="m84.501 28.5606c3.7078 0 5.8779-2.1146 5.8779-6.5918 0-4.4767-2.1155-6.6191-5.5762-6.6191-1.3178 0-2.4716.5492-3.0209 1.0984v-6.317c0-.82418-.6596-1.48316-1.4832-1.48316-.8243 0-1.4831.65898-1.4831 1.48316v12.9363c0 3.6529 2.3622 5.4932 5.6855 5.4932zm.0001-2.5265c-1.5928 0-2.7193-1.0715-2.7193-2.9667v-3.7899s1.0714-1.4011 2.7193-1.4011c1.8678 0 2.9388 1.3732 2.9388 4.0924 0 2.6918-1.0434 4.0653-2.9388 4.0653z" fill="#007bff" fill-rule="evenodd"/><path clip-rule="evenodd" d="m64.7309 27.3798 1.6756-3.9828h6.6467l1.6755 3.9828c.2471.5766.7687 1.0435 1.483 1.0435.8516 0 1.5656-.7139 1.5656-1.5655 0-.1649-.0277-.3846-.1098-.5769l-6.4821-15.7928c-.1647-.3845-.6041-.98894-1.4557-.98894-.8512 0-1.291.60444-1.4557.98894l-6.4818 15.7928c-.0824.1923-.1098.412-.1098.5769 0 .8516.7139 1.5655 1.5653 1.5655.7143 0 1.2363-.4669 1.4832-1.0435zm2.7467-6.894 2.2521-5.7681 2.2524 5.7681z" fill="#007bff" fill-rule="evenodd"/><path d="m60.3445 26.9952v-6.8667c0-2.3895-1.0163-4.7788-4.7515-4.7788-1.8678 0-3.0486.6043-3.9276 1.7852-.6867-1.0711-1.8126-1.7852-4.0651-1.7852-1.8401 0-2.9936.8512-3.5156 1.6479 0-.824-.6591-1.4832-1.483-1.4832-.824 0-1.4832.6592-1.4832 1.4832v9.9976c0 .8238.6316 1.4281 1.4832 1.4281.8512 0 1.483-.6043 1.483-1.4281v-6.1251c0-1.6205.6867-2.829 2.7467-2.829 1.7852 0 2.417 1.0717 2.417 2.6368v6.3173c0 .8238.6044 1.4281 1.483 1.4281.8241 0 1.4834-.6043 1.4834-1.4281v-6.3447c0-1.5377.769-2.6094 2.7464-2.6094 1.7853 0 2.4171 1.0717 2.4171 2.6368v6.3173c0 .8238.6042 1.4281 1.4832 1.4281.824 0 1.483-.6043 1.483-1.4281z" fill="#007bff"/><g fill="#212121"><path clip-rule="evenodd" d="m36 17.9998c0 3.2785-.8809 6.3493-2.4124 8.9971l2.4124 9.0031-9.0029-2.4122c-2.6474 1.5313-5.7186 2.4122-8.9971 2.4122-9.94104 0-18-8.0591-18-18.0002 0-9.94102 8.05896-17.9998 18-17.9998 9.9412 0 18 8.05878 18 17.9998zm-9.3735 13.6184 6.8186 1.827-1.827-6.8185c.2952-.465.5677-.9456.8148-1.4411 1.08-2.1647 1.6906-4.6039 1.6906-7.1871 0-8.90564-7.2193-16.1249-16.125-16.1249-8.90546 0-16.12472 7.21926-16.12472 16.1249 0 8.9054 7.21926 16.125 16.12472 16.125 2.5832 0 5.0228-.6108 7.1869-1.6906.4957-.2473.976-.5196 1.4411-.8147z" fill-rule="evenodd"/><path d="m186.925 27.5445v-7.3337c0-2.3344-.961-4.8611-5.191-4.8611-2.115 0-3.323.8512-4.01 1.9224-.659-1.0985-2.114-1.9224-4.367-1.9224-1.785 0-3.104.9061-3.571 1.9224v-.8787c0-.4945-.384-.879-.879-.879-.494 0-.878.3845-.878.879v11.1511c0 .4941.384.8788.878.8788.495 0 .879-.3847.879-.8788v-6.7838c0-2.3078.824-3.8455 3.379-3.8455 2.692 0 3.378 1.4828 3.378 3.6531v6.9762c0 .4941.384.8788.879.8788s.879-.3847.879-.8788v-7.3337c0-2.0324 1.071-3.2956 3.433-3.2956 2.664 0 3.434 1.4828 3.434 3.6531v6.9762c0 .4941.384.8788.879.8788.494 0 .878-.3847.878-.8788z"/><path clip-rule="evenodd" d="m160.166 28.5606c3.57 0 5.767-2.1146 5.767-6.6193 0-4.5043-2.197-6.5916-5.767-6.5916-3.544 0-5.768 2.0873-5.768 6.5916 0 4.5047 2.224 6.6193 5.768 6.6193zm0-11.6179c2.526 0 3.982 1.5379 3.982 4.9986 0 3.5158-1.456 5.0263-3.982 5.0263-2.528 0-3.983-1.5105-3.983-5.0263 0-3.4607 1.455-4.9986 3.983-4.9986z" fill-rule="evenodd"/><path d="m153.013 17.2448c-.439-.6045-1.785-1.8951-4.229-1.8951-3.543 0-5.658 2.0873-5.658 6.5916 0 4.5047 2.115 6.6193 5.658 6.6193 2.224 0 3.543-.9887 4.147-1.4832.275-.2473.357-.4393.357-.6867 0-.4393-.357-.7965-.797-.7965-.192 0-.329.0553-.521.1925l-.006.0047c-.633.4671-1.593 1.1762-3.18 1.1762-2.527 0-3.873-1.5931-3.873-5.0263 0-3.3779 1.346-4.9986 3.873-4.9986 1.812 0 2.554.8239 2.966 1.2906.192.2196.385.3301.659.3301.44 0 .797-.3301.797-.7968 0-.1923-.055-.3296-.193-.5218z"/><path d="m140.51 25.8144c-.796 0-1.289.4115-1.289 1.3169 0 .9056.493 1.29 1.289 1.29s1.289-.3844 1.289-1.29c0-.9054-.493-1.3169-1.289-1.3169z"/><path d="m131.156 21.7764 4.862 6.2349c.22.2748.467.412.769.412.495 0 .879-.3847.879-.8788 0-.1647-.027-.3574-.192-.5495l-4.889-6.2894 4.505-3.5982c.274-.2196.356-.4946.356-.714 0-.4945-.384-.879-.878-.879-.165 0-.385.0274-.605.2196l-6.482 5.301v-11.5081c0-.49446-.384-.87894-.878-.87894-.495 0-.88.38448-.88.87894v18.0176c0 .4941.385.8788.88.8788.494 0 .878-.3847.878-.8788v-4.422z"/><path d="m124.169 25.2098v-15.6829c0-.4671-.384-.87894-.878-.87894-.467 0-.879.41184-.879.87894v15.6829c0 2.115 1.016 3.2135 2.856 3.2135.44 0 .824-.3568.824-.824 0-.467-.384-.8239-.824-.8239-.742 0-1.099-.4669-1.099-1.5656z"/><path clip-rule="evenodd" d="m110.997 18.7827c.247 0 .44-.0821.714-.3847.851-.961 1.731-1.4004 3.186-1.4004 2.005 0 3.241 1.1535 3.241 3.0211v.742h-3.873c-2.966 0-4.806 1.4557-4.806 3.8722 0 2.5268 1.84 3.9277 4.752 3.9277 1.647 0 3.24-.6865 3.927-1.9776v.9889c0 .4667.385.8514.851.8514.467 0 .852-.3847.852-.8514v-7.5532c0-2.8013-1.758-4.669-4.944-4.669-2.307 0-3.79.961-4.559 2.1696-.082.1375-.138.2746-.138.4671 0 .439.358.7963.797.7963zm7.141 3.5157v1.1537c0 2.3346-1.84 3.5155-3.763 3.5155-2.142 0-3.131-.9061-3.131-2.3347 0-1.5929 1.236-2.3345 3.021-2.3345z" fill-rule="evenodd"/><path d="m105.037 11.9715c-.467 0-.879.4118-.879.8786v2.8839h-1.071c-.467 0-.824.3571-.824.8239 0 .4673.357.8242.824.8242h1.071v7.5803c0 2.0052 1.181 3.4609 3.351 3.4609.467 0 .851-.3568.851-.824 0-.467-.384-.8239-.851-.8239-.934 0-1.593-.6318-1.593-1.813v-7.5803h1.785c.467 0 .824-.3569.824-.8242 0-.4668-.357-.8239-.824-.8239h-1.785v-2.8839c0-.4668-.385-.8786-.879-.8786z"/></g></svg>