<svg fill="none" height="24" viewBox="0 0 254 24" width="254" xmlns="http://www.w3.org/2000/svg"><g fill="#fff"><path clip-rule="evenodd" d="m12 24c6.6274 0 12-5.3726 12-12 0-6.62744-5.3726-12-12-12-6.62741 0-12 5.37256-12 12 0 6.6274 5.37259 12 12 12zm-2.91443-9.9864c-.33172 0-.64206-.1799-.80972-.4689-.4675-.8086-.71454-1.7289-.71454-2.6616 0-2.93724 2.3905-5.32689 5.32899-5.32689.5151 0 .9346.42078.9346.93787 0 .51733-.4206.93805-.9376.93805-1.903 0-3.45081 1.54816-3.45081 3.45097 0 .6041.16001 1.2001.46295 1.7241.08146.1407.12426.3025.12426.4681 0 .5174-.42076.9383-.93813.9383zm1.88123-5.2044c-.5573.51624-.9061 1.2542-.9061 2.0739 0 .5142.139.9956.3796 1.4119.1344.233.2074.5012.2074.7803 0 .6244-.366 1.163-.89492 1.4135.72552.2242 1.53902.1572 2.24902-.2523.4457-.2573.7929-.6182 1.0329-1.0351.1348-.233.3299-.43.5722-.5697.5404-.3122 1.1902-.2645 1.6716.0689-.1685-.7408-.6332-1.412-1.3433-1.822-.4455-.2572-.9318-.3773-1.4123-.377-.2693 0-.5379-.0708-.7797-.2106-.5409-.31218-.8245-.89836-.7764-1.4818zm5.3581 7.6503c-.1642 0-.3269-.0435-.4707-.1268-.4479-.2587-.6023-.8331-.3434-1.2808.9508-1.648.3844-3.7625-1.2633-4.7141-.5222-.3014-1.1175-.46066-1.7217-.46066-.1654 0-.3269-.04383-.4709-.12677-.4477-.25879-.6013-.83368-.343-1.28156.1656-.28699.4765-.46588.811-.46661.9352 0 1.8549.24621 2.6621.71222 1.2315.71112 2.1128 1.86008 2.4811 3.23548.3682 1.3749.1791 2.8108-.5323 4.0429-.1661.2879-.4765.4667-.8089.4667zm-5.7304.6551c-1.90142 0-3.67214-1.0215-4.62065-2.6654-.25788-.4461-.10288-1.0195.34491-1.2778.43487-.2511 1.03299-.088 1.28097.3425.61502 1.0647 1.76135 1.726 2.99187 1.726.6019 0 1.1977-.1602 1.7221-.4628.5235-.3019.9595-.7388 1.2618-1.2636.0689-.1187.1641-.2211.2783-.2998.008-.0055.0161-.0109.0243-.0162.004-.0026.0081-.0051.0121-.0077.0031-.0019.0061-.0037.0092-.0056l.0076-.0046.0122-.0071c.4339-.2515 1.0323-.0877 1.2811.3432.1661.2876.1653.6463-.0016.9357-.4661.8085-1.1393 1.4827-1.9471 1.9492-.8091.4671-1.7278.714-2.6571.714z" fill-rule="evenodd"/><path d="m30 0h1v24h-1z"/><path d="m139.22 18.2c-1.32 0-2.534-.32-3.64-.96-1.107-.64-1.98-1.5133-2.62-2.62s-.96-2.3133-.96-3.62c0-1.30668.32-2.51335.96-3.62001.64-1.10667 1.513-1.98 2.62-2.62 1.106-.64 2.32-.96 3.64-.96 1.266 0 2.4.28 3.4.84 1.013.56 1.786 1.21333 2.32 1.96l-1.08.86c-.467-.61334-1.094-1.14-1.88-1.58-.774-.44-1.694-.66-2.76-.66-1.04 0-2 .25333-2.88.76-.88.50666-1.574 1.20667-2.08 2.1-.507.88-.76 1.85333-.76 2.92001 0 1.0667.253 2.04.76 2.92.506.88 1.2 1.58 2.08 2.1.88.5067 1.84.76 2.88.76 1.066 0 2-.2267 2.8-.68.8-.4667 1.446-1.0133 1.94-1.64l1.08.84c-.574.7867-1.367 1.4667-2.38 2.04-1 .5733-2.147.86-3.44.86z"/><path clip-rule="evenodd" d="m220.461 17.56c.694.4267 1.44.64 2.24.64.814 0 1.534-.1867 2.16-.56.627-.3867 1.074-.82 1.34-1.3h.04v1.66h1.34v-14h-1.34v6.06h-.04c-.266-.48-.713-.90667-1.34-1.28-.626-.38667-1.346-.58-2.16-.58-.8 0-1.546.22-2.24.66-.68.42667-1.226 1.02-1.64 1.78-.413.76-.62 1.6133-.62 2.56s.207 1.8.62 2.56c.414.76.96 1.36 1.64 1.8zm4.08-1.16c-.506.32-1.066.48-1.68.48-.586 0-1.133-.16-1.64-.48-.506-.32-.913-.76-1.22-1.32-.293-.56-.44-1.1867-.44-1.88 0-.7067.147-1.34.44-1.9.307-.56.714-.9933 1.22-1.3.507-.32 1.054-.48 1.64-.48.614 0 1.174.16 1.68.48.52.3067.934.74 1.24 1.3.307.56.46 1.1933.46 1.9 0 .6933-.153 1.32-.46 1.88-.306.56-.72 1-1.24 1.32z" fill-rule="evenodd"/><path d="m230.434 18h1.36v-9.6h-1.36z"/><path d="m231.114 6.3c-.24 0-.453-.08667-.64-.26-.173-.17333-.26-.38667-.26-.64s.087-.46667.26-.64c.187-.17333.4-.26.64-.26.253 0 .467.08667.64.26.187.17333.28.38667.28.64s-.093.46667-.28.64c-.173.17333-.387.26-.64.26z"/><path d="m235.901 18h-1.36v-9.59999h1.36v1.54h.02c.253-.45333.66-.85333 1.22-1.2.573-.36 1.213-.54 1.92-.54.733 0 1.393.17334 1.98.52.587.34667 1.047.83333 1.38 1.45999.333.6267.5 1.3467.5 2.16v5.66h-1.36v-5.66c0-.84-.253-1.52-.76-2.04-.493-.51999-1.127-.77999-1.9-.77999-.56 0-1.067.14-1.52.42-.453.26669-.813.63999-1.08 1.11999s-.4 1.02-.4 1.62z"/><path clip-rule="evenodd" d="m246.886 21.56c.76.4267 1.574.64 2.44.64.867 0 1.647-.2133 2.34-.64.707-.4267 1.26-1.0133 1.66-1.76.4-.7333.6-1.56.6-2.48v-8.91999h-1.36v1.59999h-.02c-.28-.45332-.72-.86665-1.32-1.23999-.6-.37333-1.28-.56-2.04-.56-.786 0-1.513.20667-2.18.62-.666.41334-1.2.98667-1.6 1.71999-.386.7333-.58 1.5533-.58 2.46s.194 1.7267.58 2.46c.4.7333.934 1.3067 1.6 1.72.667.4133 1.394.62 2.18.62.68 0 1.327-.16 1.94-.48.614-.3333 1.087-.78 1.42-1.34h.02v1.34c0 1.04-.3 1.8933-.9 2.56s-1.38 1-2.34 1c-.653 0-1.273-.1667-1.86-.5-.573-.3333-.986-.6933-1.24-1.08l-.98.9c.334.4933.88.9467 1.64 1.36zm4.08-5.52c-.48.2933-1.02.44-1.62.44-.573 0-1.106-.1467-1.6-.44-.48-.3067-.86-.72-1.14-1.24-.28-.5333-.42-1.1333-.42-1.8s.14-1.2667.42-1.8.66-.9467 1.14-1.23999c.494-.29333 1.027-.44 1.6-.44.6 0 1.14.14667 1.62.44.494.29329.88.70669 1.16 1.23999.294.5333.44 1.1333.44 1.8s-.146 1.2667-.44 1.8c-.28.52-.666.9333-1.16 1.24z" fill-rule="evenodd"/><path d="m209.276 8.40001h-1.36v9.59999h1.36v-5.32c0-.6.133-1.14.4-1.62s.627-.8533 1.08-1.11999c.453-.28.96-.42 1.52-.42.773 0 1.407.26 1.9.77999.507.52.76 1.2.76 2.04v5.66h1.36v-5.66c0-.8133-.167-1.5333-.5-2.16-.333-.62666-.793-1.11332-1.38-1.45999-.587-.34666-1.247-.52-1.98-.52-.707 0-1.347.18-1.92.54-.56.34667-.967.74667-1.22 1.2h-.02z"/><path d="m198.751 17.68c.586.3467 1.246.52 1.98.52.72 0 1.36-.18 1.92-.54.573-.36.98-.76 1.22-1.2h.02v1.54h1.36v-9.59998h-1.36v5.31998c0 .6-.134 1.14-.4 1.62-.267.48-.627.86-1.08 1.14-.454.2667-.96.4-1.52.4-.774 0-1.414-.26-1.92-.78-.494-.52-.74-1.2-.74-2.04v-5.65998h-1.36v5.65998c0 .8134.166 1.5334.5 2.16.333.6267.793 1.1134 1.38 1.46z"/><path clip-rule="evenodd" d="m187.649 17.54c.747.44 1.56.66 2.44.66s1.693-.22 2.44-.66c.747-.4533 1.34-1.06 1.78-1.82s.66-1.6.66-2.52-.22-1.76-.66-2.52c-.44-.75999-1.033-1.35999-1.78-1.79999-.747-.45333-1.56-.68-2.44-.68s-1.693.22667-2.44.68c-.747.44-1.34 1.04-1.78 1.79999-.44.76-.66 1.6-.66 2.52s.22 1.76.66 2.52 1.033 1.3667 1.78 1.82zm4.2-1.14c-.533.32-1.12.48-1.76.48s-1.233-.16-1.78-.48c-.533-.32-.96-.76-1.28-1.32-.307-.5733-.46-1.2-.46-1.88s.153-1.3.46-1.86c.32-.5733.747-1.02 1.28-1.34.547-.31999 1.14-.47999 1.78-.47999s1.227.16 1.76.47999c.547.32.973.7667 1.28 1.34.32.56.48 1.18.48 1.86s-.16 1.3067-.48 1.88c-.307.56-.733 1-1.28 1.32z" fill-rule="evenodd"/><path clip-rule="evenodd" d="m174.494 8.40001v13.79999h1.36v-5.86h.02c.267.48.713.9133 1.34 1.3.627.3733 1.347.56 2.16.56.8 0 1.54-.2133 2.22-.64.693-.44 1.247-1.04 1.66-1.8s.62-1.6133.62-2.56-.207-1.8-.62-2.56c-.413-.75999-.967-1.35332-1.66-1.77999-.68-.44-1.42-.66-2.22-.66-.813 0-1.533.19334-2.16.58-.627.37334-1.073.8-1.34 1.27999h-.02v-1.65999zm6.36 7.99999c-.507.32-1.053.48-1.64.48-.613 0-1.18-.16-1.7-.48-.507-.32-.913-.76-1.22-1.32-.293-.56-.44-1.1867-.44-1.88 0-.7067.147-1.34.44-1.9.307-.56.713-.9933 1.22-1.3.52-.31999 1.087-.47999 1.7-.47999.587 0 1.133.16 1.64.47999.507.3067.907.74 1.2 1.3.307.56.46 1.1933.46 1.9 0 .6933-.153 1.32-.46 1.88-.293.56-.693 1-1.2 1.32z" fill-rule="evenodd"/><path d="m157.748 8.40001v9.59999h1.36v-5.36c0-.9467.247-1.7.74-2.26.507-.57332 1.14-.85999 1.9-.85999.693 0 1.267.25333 1.72.75999.467.4933.7 1.1667.7 2.02v5.7h1.36v-5.36c0-.9467.247-1.7.74-2.26.507-.57332 1.14-.85999 1.9-.85999.693 0 1.267.25333 1.72.75999.453.4933.68 1.1667.68 2.02v5.7h1.36v-5.7c0-.8133-.16-1.5267-.48-2.14-.32-.62665-.753-1.10666-1.3-1.43999-.533-.34666-1.127-.52-1.78-.52-.813 0-1.513.2-2.1.6-.573.4-.967.84-1.18 1.31999h-.04c-.227-.47999-.613-.91999-1.16-1.31999s-1.187-.6-1.92-.6c-.693 0-1.293.17334-1.8.52-.493.34667-.84.73333-1.04 1.16h-.02v-1.48z"/><path clip-rule="evenodd" d="m148.426 17.54c.747.44 1.56.66 2.44.66s1.694-.22 2.44-.66c.747-.4533 1.34-1.06 1.78-1.82s.66-1.6.66-2.52-.22-1.76-.66-2.52c-.44-.75999-1.033-1.35999-1.78-1.79999-.746-.45333-1.56-.68-2.44-.68s-1.693.22667-2.44.68c-.746.44-1.34 1.04-1.78 1.79999-.44.76-.66 1.6-.66 2.52s.22 1.76.66 2.52 1.034 1.3667 1.78 1.82zm4.2-1.14c-.533.32-1.12.48-1.76.48s-1.233-.16-1.78-.48c-.533-.32-.96-.76-1.28-1.32-.306-.5733-.46-1.2-.46-1.88s.154-1.3.46-1.86c.32-.5733.747-1.02 1.28-1.34.547-.31999 1.14-.47999 1.78-.47999s1.227.16 1.76.47999c.547.32.974.7667 1.28 1.34.32.56.48 1.18.48 1.86s-.16 1.3067-.48 1.88c-.306.56-.733 1-1.28 1.32z" fill-rule="evenodd"/><path clip-rule="evenodd" d="m121.334 18.2c-.96 0-1.84-.2267-2.64-.68-.787-.4534-1.414-1.0667-1.88-1.84-.454-.7734-.68-1.62-.68-2.54s.226-1.7667.68-2.54c.466-.77336 1.093-1.38002 1.88-1.82002.8-.45334 1.68-.68 2.64-.68.973 0 1.853.22666 2.64.68.8.44 1.426 1.04666 1.88 1.82002.453.7733.68 1.62.68 2.54s-.227 1.7666-.68 2.54c-.454.7733-1.08 1.3866-1.88 1.84-.787.4533-1.667.68-2.64.68zm0-2.5c.68 0 1.26-.2467 1.74-.74.48-.4934.72-1.1.72-1.82s-.24-1.32-.72-1.8c-.48-.4934-1.06-.74-1.74-.74s-1.26.2466-1.74.74c-.467.48-.7 1.08-.7 1.8s.233 1.3266.7 1.82c.48.4933 1.06.74 1.74.74z" fill-rule="evenodd"/><path d="m108.804 18h-3.02l3.34-5-3.08-4.70001h3.12l1.76 2.96001h.06l1.78-2.96001h3.02l-3.08 4.70001 3.32 5h-3.12l-2.02-3.28h-.06z"/><path clip-rule="evenodd" d="m100.716 8.09998c.826 0 1.56.17333 2.2.52.653.33333 1.16.79333 1.52 1.38.36.57332.54 1.20662.54 1.90002v6.1h-2.56v-1.34h-.06c-.24.3866-.62.74-1.14 1.06s-1.114.48-1.7804.48c-.6133 0-1.1667-.1267-1.66-.38-.48-.2534-.86-.5934-1.14-1.02-.28-.44-.42-.9067-.42-1.4 0-.8267.26-1.5067.78-2.04.52-.5334 1.26-.8934 2.22-1.08l3.0604-.58c-.027-.3867-.2-.7134-.52-.98-.307-.28-.7-.42-1.18-.42-.8271 0-1.5804.38-2.2604 1.14l-1.54-1.48002c.4267-.50667.9733-.94 1.64-1.3.68-.37334 1.4467-.56 2.3004-.56zm-.5 7.94002c.586 0 1.073-.2067 1.46-.62.4-.4134.6-.9534.6-1.62v-.32l-2.1.42c-.3737.0666-.6671.2066-.8804.42-.2133.2-.32.4266-.32.68 0 .3066.1067.56.32.76.2267.1866.5333.28.9204.28z" fill-rule="evenodd"/><path d="m79.8156 18v-9.70002h2.7v1.38h.06c.1867-.4.52-.76 1-1.08.48-.33334 1.0467-.5 1.7-.5.6667 0 1.2467.17333 1.74.52.4933.33333.84.70666 1.04 1.12h.08c.2267-.41334.6334-.78667 1.22-1.12.6-.34667 1.2867-.52 2.06-.52.6267 0 1.1933.16666 1.7.5.52.33333.9334.81333 1.24 1.44002.3067.6266.46 1.36.46 2.2v5.76h-2.7v-5.5c0-.5867-.1533-1.04-.46-1.36-.2933-.3334-.6733-.5-1.14-.5-.5333 0-.9733.1933-1.32.58-.3467.3866-.52.9133-.52 1.58v5.2h-2.7v-5.5c0-.5867-.1533-1.04-.46-1.36-.2933-.3334-.6733-.5-1.14-.5-.5467 0-.9933.1933-1.34.58-.3467.3866-.52.9133-.52 1.58v5.2z"/><path d="m72.6594 18v-9.70002h2.7v1.2h.06c.24-.36.6-.68 1.08-.96.4933-.29334 1.0466-.44 1.66-.44h.46v2.90002c-.32-.1067-.62-.16-.9-.16-.6934 0-1.26.24-1.7.72-.44.4666-.66 1.0933-.66 1.88v4.56z"/><path clip-rule="evenodd" d="m66.3953 8.09998c.8267 0 1.56.17333 2.2.52.6533.33333 1.16.79333 1.52 1.38.36.57332.54 1.20662.54 1.90002v6.1h-2.56v-1.34h-.06c-.24.3866-.62.74-1.14 1.06s-1.1133.48-1.78.48c-.6133 0-1.1667-.1267-1.66-.38-.48-.2534-.86-.5934-1.14-1.02-.28-.44-.42-.9067-.42-1.4 0-.8267.26-1.5067.78-2.04.52-.5334 1.26-.8934 2.22-1.08l3.06-.58c-.0267-.3867-.2-.7134-.52-.98-.3067-.28-.7-.42-1.18-.42-.8267 0-1.58.38-2.26 1.14l-1.54-1.48002c.4267-.50667.9733-.94 1.64-1.3.68-.37334 1.4467-.56 2.3-.56zm-.5 7.94002c.5867 0 1.0733-.2067 1.46-.62.4-.4134.6-.9534.6-1.62v-.32l-2.1.42c-.3733.0666-.6667.2066-.88.42-.2133.2-.32.4266-.32.68 0 .3066.1067.56.32.76.2267.1866.5333.28.92.28z" fill-rule="evenodd"/><path d="m51.2008 18v-14h2.7v5.68h.06c.24-.4.6133-.76 1.12-1.08.52-.33333 1.1133-.5 1.78-.5.7066 0 1.3333.16667 1.88.5.5466.33333.9733.81333 1.28 1.44.32.6133.48 1.3467.48 2.2v5.76h-2.7v-5.4c0-.6-.1667-1.0733-.5-1.42-.3334-.36-.7667-.54-1.3-.54-.6134 0-1.12.2133-1.52.64-.3867.4133-.58.9533-.58 1.62v5.1z"/><path clip-rule="evenodd" d="m38.8 18v-14h5.96c.9467 0 1.7933.20667 2.54.62.76.41333 1.3467.98 1.76 1.7.4267.70667.64 1.5.64 2.38s-.2133 1.68-.64 2.4c-.4133.7067-1 1.2667-1.76 1.68-.7467.4133-1.5933.62-2.54.62h-2.96v4.6zm5.86-7.3c.5733 0 1.0533-.1933 1.44-.58.4-.4.6-.87333.6-1.42s-.2-1.01333-.6-1.4c-.3867-.4-.8667-.6-1.44-.6h-2.86v4z" fill-rule="evenodd"/></g></svg>