<svg fill="none" height="24" viewBox="0 0 254 24" width="254" xmlns="http://www.w3.org/2000/svg"><circle cx="12" cy="12" fill="#1565c0" r="12"/><g fill="#fff"><path d="m8.27586 13.5447c.16766.289.47799.4689.80972.4689.51737 0 .93812-.4209.93812-.9383 0-.1656-.0428-.3274-.12425-.4681-.30295-.524-.46294-1.12-.46294-1.7241 0-1.90282 1.54779-3.45097 3.45079-3.45097.517 0 .9376-.42074.9376-.93805 0-.5171-.4195-.93787-.9347-.93787-2.93839 0-5.3289 2.38967-5.3289 5.32689 0 .9327.24705 1.853.71456 2.6616z"/><path d="m10.0607 10.8831c0-.8197.3488-1.55768.9061-2.07391-.0481.58343.2355 1.16962.7764 1.48181.2417.1398.5104.2106.7797.2106.4805-.0003.9668.1198 1.4123.377.7101.41 1.1748 1.0812 1.3433 1.822-.4814-.3334-1.1312-.3811-1.6716-.0689-.2423.1396-.4374.3367-.5722.5696-.24.4171-.5872.778-1.0329 1.0352-.71.4095-1.5235.4765-2.24903.2523.52893-.2505.89493-.7891.89493-1.4135 0-.2791-.073-.5473-.2074-.7803-.2406-.4163-.3796-.8977-.3796-1.4119z"/><path d="m16.3249 16.4595c-.1642 0-.3269-.0435-.4706-.1268-.448-.2586-.6024-.833-.3435-1.2808.9508-1.648.3844-3.7625-1.2633-4.714-.5222-.3014-1.1175-.46079-1.7217-.46079-.1654 0-.327-.04379-.4709-.12676-.4477-.25878-.6013-.83366-.343-1.28156.1656-.28698.4765-.46584.811-.46657.9352 0 1.8549.24622 2.6621.7122 1.2315.71112 2.1128 1.86008 2.4811 3.23548.3682 1.375.1791 2.8108-.5323 4.0429-.1661.2879-.4765.4667-.8089.4667z"/><path d="m5.97383 14.4492c.94853 1.644 2.71924 2.6654 4.62067 2.6654.9293 0 1.848-.2469 2.6571-.714.8078-.4665 1.481-1.1406 1.9471-1.9492.1669-.2894.1677-.6481.0017-.9357-.2489-.4308-.8473-.5947-1.2812-.3432-.1434.0824-.262.2004-.3437.341-.3023.5247-.7383.9617-1.2618 1.2636-.5244.3026-1.1202.4627-1.7221.4627-1.23052 0-2.37684-.6612-2.99188-1.7259-.24798-.4305-.84607-.5936-1.28096-.3425-.44777.2583-.60278.8316-.34493 1.2778z"/><path d="m30 0h1v24h-1z"/><path d="m135.58 17.24c1.106.64 2.32.96 3.64.96 1.293 0 2.44-.2867 3.44-.86 1.013-.5733 1.806-1.2533 2.38-2.04l-1.08-.84c-.494.6267-1.14 1.1733-1.94 1.64-.8.4533-1.734.68-2.8.68-1.04 0-2-.2533-2.88-.76-.88-.52-1.574-1.22-2.08-2.1-.507-.88-.76-1.8533-.76-2.92 0-1.06668.253-2.04001.76-2.92001.506-.89333 1.2-1.59334 2.08-2.1.88-.50667 1.84-.76 2.88-.76 1.066 0 1.986.22 2.76.66.786.44 1.413.96667 1.88 1.58l1.08-.86c-.534-.74667-1.307-1.4-2.32-1.96-1-.56-2.134-.84-3.4-.84-1.32 0-2.534.32-3.64.96-1.107.64-1.98 1.51333-2.62 2.62-.64 1.10666-.96 2.31333-.96 3.62001 0 1.3067.32 2.5133.96 3.62s1.513 1.98 2.62 2.62z"/><path clip-rule="evenodd" d="m222.701 18.2c-.8 0-1.546-.2133-2.24-.64-.68-.44-1.226-1.04-1.64-1.8-.413-.76-.62-1.6133-.62-2.56s.207-1.8.62-2.56c.414-.76.96-1.35333 1.64-1.78.694-.44 1.44-.66 2.24-.66.814 0 1.534.19333 2.16.58.627.37333 1.074.8 1.34 1.28h.04v-6.06h1.34v14h-1.34v-1.66h-.04c-.266.48-.713.9133-1.34 1.3-.626.3733-1.346.56-2.16.56zm.16-1.32c.614 0 1.174-.16 1.68-.48.52-.32.934-.76 1.24-1.32.307-.56.46-1.1867.46-1.88 0-.7067-.153-1.34-.46-1.9-.306-.56-.72-.9933-1.24-1.3-.506-.32-1.066-.48-1.68-.48-.586 0-1.133.16-1.64.48-.506.3067-.913.74-1.22 1.3-.293.56-.44 1.1933-.44 1.9 0 .6933.147 1.32.44 1.88.307.56.714 1 1.22 1.32.507.32 1.054.48 1.64.48z" fill-rule="evenodd"/><path d="m230.434 18h1.36v-9.6h-1.36z"/><path d="m230.474 6.04c.187.17333.4.26.64.26.253 0 .467-.08667.64-.26.187-.17333.28-.38667.28-.64s-.093-.46667-.28-.64c-.173-.17333-.387-.26-.64-.26-.24 0-.453.08667-.64.26-.173.17333-.26.38667-.26.64s.087.46667.26.64z"/><path d="m235.901 18h-1.36v-9.59999h1.36v1.54h.02c.253-.45333.66-.85333 1.22-1.2.573-.36 1.213-.54 1.92-.54.733 0 1.393.17334 1.98.52.587.34667 1.047.83334 1.38 1.45999.333.6267.5 1.3467.5 2.16v5.66h-1.36v-5.66c0-.84-.253-1.52-.76-2.04-.493-.51999-1.127-.77999-1.9-.77999-.56 0-1.067.14-1.52.42-.453.26669-.813.63999-1.08 1.11999s-.4 1.02-.4 1.62z"/><path clip-rule="evenodd" d="m249.326 22.2c-.866 0-1.68-.2133-2.44-.64-.76-.4133-1.306-.8667-1.64-1.36l.98-.9c.254.3867.667.7467 1.24 1.08.587.3333 1.207.5 1.86.5.96 0 1.74-.3333 2.34-1s.9-1.52.9-2.56v-1.34h-.02c-.333.56-.806 1.0067-1.42 1.34-.613.32-1.26.48-1.94.48-.786 0-1.513-.2067-2.18-.62-.666-.4133-1.2-.9867-1.6-1.72-.386-.7333-.58-1.5533-.58-2.46s.194-1.7267.58-2.46c.4-.73332.934-1.30665 1.6-1.71999.667-.41333 1.394-.62 2.18-.62.76 0 1.44.18667 2.04.56.6.37334 1.04.78667 1.32 1.23999h.02v-1.59999h1.36v8.91999c0 .92-.2 1.7467-.6 2.48-.4.7467-.953 1.3333-1.66 1.76-.693.4267-1.473.64-2.34.64zm.02-5.72c.6 0 1.14-.1467 1.62-.44.494-.3067.88-.72 1.16-1.24.294-.5333.44-1.1333.44-1.8s-.146-1.2667-.44-1.8c-.28-.5333-.666-.9467-1.16-1.23999-.48-.29333-1.02-.44-1.62-.44-.573 0-1.106.14667-1.6.44-.48.29329-.86.70669-1.14 1.23999s-.42 1.1333-.42 1.8.14 1.2667.42 1.8c.28.52.66.9333 1.14 1.24.494.2933 1.027.44 1.6.44z" fill-rule="evenodd"/><path d="m209.276 8.40001h-1.36v9.59999h1.36v-5.32c0-.6.133-1.14.4-1.62s.627-.8533 1.08-1.11999c.453-.28.96-.42 1.52-.42.773 0 1.407.26 1.9.77999.507.52.76 1.2.76 2.04v5.66h1.36v-5.66c0-.8133-.167-1.5333-.5-2.16-.333-.62665-.793-1.11332-1.38-1.45999-.587-.34666-1.247-.52-1.98-.52-.707 0-1.347.18-1.92.54-.56.34667-.967.74667-1.22 1.2h-.02z"/><path d="m200.731 18.2c-.734 0-1.394-.1733-1.98-.52-.587-.3466-1.047-.8333-1.38-1.46-.334-.6266-.5-1.3466-.5-2.16v-5.65998h1.36v5.65998c0 .84.246 1.52.74 2.04.506.52 1.146.78 1.92.78.56 0 1.066-.1333 1.52-.4.453-.28.813-.66 1.08-1.14.266-.48.4-1.02.4-1.62v-5.31998h1.36v9.59998h-1.36v-1.54h-.02c-.24.44-.647.84-1.22 1.2-.56.36-1.2.54-1.92.54z"/><path clip-rule="evenodd" d="m187.649 17.54c.747.44 1.56.66 2.44.66s1.693-.22 2.44-.66c.747-.4533 1.34-1.06 1.78-1.82s.66-1.6.66-2.52-.22-1.76-.66-2.52c-.44-.75999-1.033-1.35999-1.78-1.79999-.747-.45333-1.56-.68-2.44-.68s-1.693.22667-2.44.68c-.747.44-1.34 1.04-1.78 1.79999-.44.76-.66 1.6-.66 2.52s.22 1.76.66 2.52 1.033 1.3667 1.78 1.82zm4.2-1.14c-.533.32-1.12.48-1.76.48s-1.233-.16-1.78-.48c-.533-.32-.96-.76-1.28-1.32-.307-.5733-.46-1.2-.46-1.88s.153-1.3.46-1.86c.32-.5733.747-1.02 1.28-1.34.547-.31999 1.14-.47999 1.78-.47999s1.227.16 1.76.47999c.547.32.973.7667 1.28 1.34.32.56.48 1.18.48 1.86s-.16 1.3067-.48 1.88c-.307.56-.733 1-1.28 1.32z" fill-rule="evenodd"/><path clip-rule="evenodd" d="m174.494 22.2v-13.79999h1.36v1.65999h.02c.267-.47999.713-.90665 1.34-1.27999.627-.38666 1.347-.58 2.16-.58.8 0 1.54.22 2.22.66.693.42667 1.247 1.02 1.66 1.77999.413.76.62 1.6133.62 2.56s-.207 1.8-.62 2.56-.967 1.36-1.66 1.8c-.68.4267-1.42.64-2.22.64-.813 0-1.533-.1867-2.16-.56-.627-.3867-1.073-.82-1.34-1.3h-.02v5.86zm4.72-5.32c.587 0 1.133-.16 1.64-.48s.907-.76 1.2-1.32c.307-.56.46-1.1867.46-1.88 0-.7067-.153-1.34-.46-1.9-.293-.56-.693-.9933-1.2-1.3-.507-.31999-1.053-.47999-1.64-.47999-.613 0-1.18.16-1.7.47999-.507.3067-.913.74-1.22 1.3-.293.56-.44 1.1933-.44 1.9 0 .6933.147 1.32.44 1.88.307.56.713 1 1.22 1.32.52.32 1.087.48 1.7.48z" fill-rule="evenodd"/><path d="m157.748 8.40001v9.59999h1.36v-5.36c0-.9467.247-1.7.74-2.26.507-.57332 1.14-.85999 1.9-.85999.693 0 1.267.25333 1.72.75999.467.4933.7 1.1667.7 2.02v5.7h1.36v-5.36c0-.9467.247-1.7.74-2.26.507-.57332 1.14-.85999 1.9-.85999.693 0 1.267.25333 1.72.75999.453.4933.68 1.1667.68 2.02v5.7h1.36v-5.7c0-.8133-.16-1.5267-.48-2.14-.32-.62665-.753-1.10665-1.3-1.43999-.533-.34666-1.127-.52-1.78-.52-.813 0-1.513.2-2.1.6-.573.4-.967.84-1.18 1.31999h-.04c-.227-.47999-.613-.91999-1.16-1.31999s-1.187-.6-1.92-.6c-.693 0-1.293.17334-1.8.52-.493.34667-.84.73333-1.04 1.16h-.02v-1.48z"/><path clip-rule="evenodd" d="m150.866 18.2c-.88 0-1.693-.22-2.44-.66-.746-.4533-1.34-1.06-1.78-1.82s-.66-1.6-.66-2.52.22-1.76.66-2.52c.44-.75999 1.034-1.35999 1.78-1.79999.747-.45333 1.56-.68 2.44-.68s1.694.22667 2.44.68c.747.44 1.34 1.04 1.78 1.79999.44.76.66 1.6.66 2.52s-.22 1.76-.66 2.52-1.033 1.3667-1.78 1.82c-.746.44-1.56.66-2.44.66zm0-1.32c.64 0 1.227-.16 1.76-.48.547-.32.974-.76 1.28-1.32.32-.5733.48-1.2.48-1.88s-.16-1.3-.48-1.86c-.306-.5733-.733-1.02-1.28-1.34-.533-.31999-1.12-.47999-1.76-.47999s-1.233.16-1.78.47999c-.533.32-.96.7667-1.28 1.34-.306.56-.46 1.18-.46 1.86s.154 1.3067.46 1.88c.32.56.747 1 1.28 1.32.547.32 1.14.48 1.78.48z" fill-rule="evenodd"/><path clip-rule="evenodd" d="m121.334 18.2c-.96 0-1.84-.2267-2.64-.68-.787-.4534-1.414-1.0667-1.88-1.84-.454-.7734-.68-1.62-.68-2.54s.226-1.7667.68-2.54c.466-.77336 1.093-1.38002 1.88-1.82002.8-.45334 1.68-.68 2.64-.68.973 0 1.853.22666 2.64.68.8.44 1.426 1.04666 1.88 1.82002.453.7733.68 1.62.68 2.54s-.227 1.7666-.68 2.54c-.454.7733-1.08 1.3866-1.88 1.84-.787.4533-1.667.68-2.64.68zm0-2.5c.68 0 1.26-.2467 1.74-.74.48-.4934.72-1.1.72-1.82s-.24-1.32-.72-1.8c-.48-.4934-1.06-.74-1.74-.74s-1.26.2466-1.74.74c-.467.48-.7 1.08-.7 1.8s.233 1.3266.7 1.82c.48.4933 1.06.74 1.74.74z" fill-rule="evenodd"/><path d="m105.784 18h3.02l2.02-3.28h.06l2.02 3.28h3.12l-3.32-5 3.08-4.70001h-3.02l-1.78 2.96001h-.06l-1.76-2.96001h-3.12l3.08 4.70001z"/><path clip-rule="evenodd" d="m100.716 8.09998c.826 0 1.56.17333 2.2.52.653.33333 1.16.79333 1.52 1.38.36.57332.54 1.20662.54 1.90002v6.1h-2.56v-1.34h-.06c-.24.3866-.62.74-1.14 1.06s-1.114.48-1.7804.48c-.6133 0-1.1667-.1267-1.66-.38-.48-.2534-.86-.5934-1.14-1.02-.28-.44-.42-.9067-.42-1.4 0-.8267.26-1.5067.78-2.04.52-.5334 1.26-.8934 2.22-1.08l3.0604-.58c-.027-.3867-.2-.7134-.52-.98-.307-.28-.7-.42-1.18-.42-.8271 0-1.5804.38-2.2604 1.14l-1.54-1.48002c.4267-.50667.9733-.94 1.64-1.3.68-.37334 1.4467-.56 2.3004-.56zm-.5 7.94002c.586 0 1.073-.2067 1.46-.62.4-.4134.6-.9534.6-1.62v-.32l-2.1.42c-.3737.0666-.6671.2066-.8804.42-.2133.2-.32.4266-.32.68 0 .3066.1067.56.32.76.2267.1866.5333.28.9204.28z" fill-rule="evenodd"/><path d="m79.8156 8.29998v9.70002h2.7v-5.2c0-.6667.1733-1.1934.52-1.58.3467-.3867.7933-.58 1.34-.58.4667 0 .8467.1666 1.14.5.3067.32.46.7733.46 1.36v5.5h2.7v-5.2c0-.6667.1733-1.1934.52-1.58.3467-.3867.7867-.58 1.32-.58.4667 0 .8467.1666 1.14.5.3067.32.46.7733.46 1.36v5.5h2.7v-5.76c0-.84-.1533-1.5734-.46-2.2-.3067-.62669-.72-1.10669-1.24-1.44002-.5067-.33334-1.0733-.5-1.7-.5-.7733 0-1.46.17333-2.06.52-.5867.33333-.9933.70666-1.22 1.12h-.08c-.2-.41334-.5467-.78667-1.04-1.12-.4933-.34667-1.0733-.52-1.74-.52-.6533 0-1.22.16666-1.7.5-.48.32-.8133.68-1 1.08h-.06v-1.38z"/><path d="m72.6594 18v-9.70002h2.7v1.2h.06c.24-.36.6-.68 1.08-.96.4933-.29334 1.0466-.44 1.66-.44h.46v2.90002c-.32-.1067-.62-.16-.9-.16-.6934 0-1.26.24-1.7.72-.44.4666-.66 1.0933-.66 1.88v4.56z"/><path clip-rule="evenodd" d="m68.5953 8.61998c-.64-.34667-1.3733-.52-2.2-.52-.8533 0-1.62.18666-2.3.56-.6667.36-1.2133.79333-1.64 1.3l1.54 1.48002c.68-.76 1.4333-1.14 2.26-1.14.48 0 .8733.14 1.18.42.32.2666.4933.5933.52.98l-3.06.58c-.96.1866-1.7.5466-2.22 1.08-.52.5333-.78 1.2133-.78 2.04 0 .4933.14.96.42 1.4.28.4266.66.7666 1.14 1.02.4933.2533 1.0467.38 1.66.38.6667 0 1.26-.16 1.78-.48s.9-.6734 1.14-1.06h.06v1.34h2.56v-6.1c0-.6934-.18-1.3267-.54-1.90002-.36-.58667-.8667-1.04667-1.52-1.38zm-1.24 6.80002c-.3867.4133-.8733.62-1.46.62-.3867 0-.6933-.0934-.92-.28-.2133-.2-.32-.4534-.32-.76 0-.2534.1067-.48.32-.68.2133-.2134.5067-.3534.88-.42l2.1-.42v.32c0 .6666-.2 1.2066-.6 1.62z" fill-rule="evenodd"/><path d="m51.2008 18v-14h2.7v5.68h.06c.24-.4.6133-.76 1.12-1.08.52-.33333 1.1133-.5 1.78-.5.7066 0 1.3333.16667 1.88.5.5466.33333.9733.81333 1.28 1.44.32.6133.48 1.3467.48 2.2v5.76h-2.7v-5.4c0-.6-.1667-1.0733-.5-1.42-.3334-.36-.7667-.54-1.3-.54-.6134 0-1.12.2133-1.52.64-.3867.4133-.58.9533-.58 1.62v5.1z"/><path clip-rule="evenodd" d="m38.8 4v14h3v-4.6h2.96c.9467 0 1.7933-.2067 2.54-.62.76-.4133 1.3467-.9733 1.76-1.68.4267-.72.64-1.52.64-2.4s-.2133-1.67333-.64-2.38c-.4133-.72-1-1.28667-1.76-1.7-.7467-.41333-1.5933-.62-2.54-.62zm7.3 6.12c-.3867.3867-.8667.58-1.44.58h-2.86v-4h2.86c.5733 0 1.0533.2 1.44.6.4.38667.6.85333.6 1.4s-.2 1.02-.6 1.42z" fill-rule="evenodd"/></g></svg>