<svg fill="none" height="48" viewBox="0 0 113 48" width="113" xmlns="http://www.w3.org/2000/svg"><g fill="#00a3e0"><path d="m31.44 3.16815h-1.3838l1.4706 10.81825h1.2495l4.2044-8.82416h.0298l1.0782 8.82416h1.2499l5.2707-10.81825h-1.3695l-4.1291 8.73485h-.0297l-1.1383-8.73485h-1.25l-4.2114 8.77945h-.0297z"/><path d="m47.0944 3.16815h-1.2057l-1.9077 10.81825h1.2057l.9576-5.43122c.2119-.18852.4455-.37471.7013-.5584.2554-.18315.5276-.34967.8165-.49812.2892-.14899.5932-.27025.913-.36469.3191-.09408.6423-.1413.9694-.1413.2086 0 .4374.022.6874.06672.25.04471.4713.1413.6632.29028.1917.14899.3357.36219.4307.6396.0944.27812.0968.64496.0066 1.10159l-.8633 4.89554h1.2051l.9054-5.13378c.1171-.66446.0882-1.19048-.0864-1.57735-.1749-.38705-.416-.67698-.7244-.8705-.3083-.19353-.6415-.31479-.9996-.36452-.3586-.04972-.6566-.0744-.8948-.0744-.6945 0-1.334.13897-1.9187.41638-.5848.27812-1.1166.5956-1.5964.9526z"/><path clip-rule="evenodd" d="m62.1828 12.3643c-.235.2084-.4813.4241-.7388.6475-.2578.2232-.5584.4239-.9025.6028-.344.1781-.7495.3248-1.2159.4387-.4663.1141-1.0322.1712-1.6963.1712-.655 0-1.2343-.1041-1.7381-.3125-.5042-.2084-.9165-.4988-1.2376-.8707-.3217-.3717-.5439-.8133-.6669-1.3243-.124-.5108-.1324-1.064-.0272-1.6592.108-.61511.316-1.1753.6235-1.68129.3073-.50598.6836-.93775 1.1284-1.29475.4448-.35682.9449-.63244 1.4995-.82596.5554-.19317 1.1304-.28993 1.7257-.28993.6247 0 1.2024.08424 1.7333.2529.5308.16866.9758.42908 1.3357.78107.3593.35235.612.80361.7578 1.35432.1461.55034.1461 1.21265-.0002 1.98644h-7.6483c-.035.3671-.0037.7215.0952 1.064.098.3421.2652.6473.5006.9152.2355.2677.5373.4811.9063.6398.3688.1588.8061.238 1.3122.238.5059 0 .9412-.0495 1.3062-.149.3642-.0987.6792-.2251.9446-.379.2649-.154.4927-.3199.6827-.4988.1905-.1787.3581-.342.5038-.4911zm-.548-3.05056c-.0039-.31729-.0654-.61724-.1838-.89983-.119-.28314-.2939-.52871-.5248-.73708-.2311-.20837-.5191-.37399-.8641-.4983-.3455-.12376-.7465-.18583-1.2028-.18583-.8925 0-1.6285.20801-2.208.62475-.5791.41674-1.0165.98229-1.3108 1.69629z" fill-rule="evenodd"/><path d="m66.4091 6.2041h-1.2055l-1.3724 7.7823h1.2053l.8215-4.65782c.0202-.05938.1279-.20587.3229-.43892.1949-.23287.4467-.48095.7562-.74369.309-.26292.6632-.49884 1.062-.70721.3985-.20801.8117-.31246 1.2381-.31246.2579 0 .4613.01502.6099.04471.1483.02969.2613.0499.3391.05974l.2128-1.20532c-.192-.03971-.4265-.05956-.7043-.05956-.3872 0-.7519.05956-1.0955.17832-.3436.11912-.6625.27043-.9576.45412-.2955.18369-.5691.38454-.8208.60239-.252.21857-.4845.42676-.6981.62511z"/><path clip-rule="evenodd" d="m78.7147 12.3643c-.2352.2084-.4817.4241-.7389.6475-.2579.2232-.5586.4239-.9027.6028-.3437.1781-.7494.3248-1.2158.4387-.4662.1141-1.0321.1712-1.6969.1712-.6544 0-1.2337-.1041-1.7376-.3125-.5042-.2084-.9164-.4988-1.238-.8707-.3214-.3717-.5434-.8133-.6666-1.3243-.1238-.5108-.1324-1.064-.0272-1.6592.1084-.61511.3162-1.1753.6237-1.68129.307-.50598.6834-.93775 1.1284-1.29475.4446-.35682.9449-.63244 1.4997-.82596.555-.19317 1.13-.28993 1.7253-.28993.6249 0 1.2028.08424 1.7336.2529.5309.16866.9757.42908 1.3356.78107.3591.35235.6118.80361.7578 1.35432.1459.55034.1459 1.21265-.0002 1.98644h-7.6489c-.0347.3671-.0032.7215.0954 1.064.0983.3421.265.6473.5006.9152.2356.2677.5376.4811.9068.6398.3686.1588.8061.238 1.3121.238.5058 0 .941-.0495 1.306-.149.3644-.0987.6795-.2251.9448-.379.2648-.154.4925-.3199.6827-.4988.1903-.1787.3582-.342.5038-.4911zm-.5484-3.05056c-.0036-.31729-.0653-.61724-.1837-.89983-.1187-.28314-.2938-.52871-.5247-.73708-.2311-.20837-.5191-.37399-.8643-.4983-.3454-.12376-.7464-.18583-1.2024-.18583-.8929 0-1.6291.20801-2.2086.62475-.5791.41674-1.0163.98229-1.3107 1.69629z" fill-rule="evenodd"/><path clip-rule="evenodd" d="m33.1762 21.214h-1.8156l-1.8916 10.7286h1.8451l.6296-3.571c.174.1389.3484.2752.523.4092.1751.1338.3745.2531.5993.357.2247.1043.4829.1858.7755.2456.2916.0597.6411.0894 1.048.0894.5653 0 1.1203-.0969 1.666-.2905.5445-.1931 1.041-.4757 1.4883-.8481.4477-.3719.8324-.8256 1.1554-1.3615.3223-.5357.5432-1.1406.6622-1.8152.1067-.6053.1062-1.1655-.0009-1.6818-.1073-.5155-.3146-.9598-.621-1.3316-.3064-.3719-.7065-.6645-1.1991-.8778-.4933-.2134-1.0671-.32-1.7217-.32-.4366 0-.8327.0499-1.1872.1486-.3549.0994-.6702.2161-.9467.3497-.2767.1339-.5151.2754-.7149.424-.1998.149-.3585.2732-.4745.3722zm-.4667 5.9372c-.1641-.1388-.323-.2774-.4771-.4165l.5483-3.11c.1601-.119.3357-.2431.5269-.3719.1914-.1288.4059-.2481.6432-.3575.2372-.1089.494-.198.7689-.2676.2753-.0694.5817-.1041.9188-.1041.3574 0 .6944.0573 1.0113.1712.3171.1141.5875.2826.8113.5058.2234.2232.3847.5037.4842.8408.099.3372.1096.729.0309 1.1755-.0769.4366-.2223.8234-.4355 1.1604-.2136.3375-.4661.6178-.7586.8412-.292.223-.6143.3917-.9669.5056-.3527.1145-.7068.1712-1.0643.1712-.3172 0-.5992-.0347-.8448-.1041-.2456-.0691-.4654-.1585-.6594-.2678-.1941-.1094-.3731-.2332-.5372-.3722z" fill-rule="evenodd"/><path clip-rule="evenodd" d="m48.7654 27.9101c-.047.2678-.0828.5235-.1053.7666-.0231.2431-.0143.4189.0261.528h-1.89c-.0054-.1386-.0066-.2728-.0036-.4017.0025-.1288.0165-.2628.0414-.4016-.2181.1091-.4572.2279-.7182.357-.2607.129-.5464.2458-.8574.3499-.3114.1043-.6416.1905-.9909.2602-.35.0691-.7227.1043-1.1195.1043-.2675 0-.5723-.0327-.9132-.0969-.3407-.0648-.6568-.1861-.9474-.3647-.2914-.1782-.5205-.4239-.6884-.7366-.1683-.3123-.2086-.7165-.1209-1.2125.0785-.4466.2505-.8333.5169-1.1606.2661-.3278.5911-.6077.974-.8408.3835-.233.8133-.4215 1.2901-.5655.477-.1438.9662-.2629 1.4693-.3574.5023-.0939 1.0054-.1608 1.5087-.2007.5026-.0397.9705-.0744 1.4019-.1041l.0633-.3573c.0538-.3071-.0556-.5579-.3291-.7514-.2733-.1935-.792-.2897-1.5557-.2897-.4269 0-.78.0345-1.0599.1039-.2803.0692-.5064.1563-.6784.2602-.1724.1043-.3043.2182-.3951.3423-.0912.1243-.1615.2406-.2107.3495h-1.9193c.2049-.5451.4859-.9842.842-1.3165.3563-.3325.7439-.5905 1.1631-.774.4193-.1833.8476-.3051 1.2846-.3647.4371-.0593.844-.089 1.2212-.089.9621 0 1.6902.1039 2.1844.3123.4937.2085.8382.4641 1.0329.7662.1945.3028.2864.6253.276.9674-.0109.3422-.0408.6525-.0896.9301zm-1.3627-2.7377c-.5389.0198-1.0502.0647-1.5335.1337-.4835.0696-.9535.1589-1.4089.2676-.5997.1393-1.0547.313-1.3639.521-.3098.2086-.5005.4862-.5711.8331-.0714.3476-.0126.6203.1754.8189.1882.1985.5107.2974.9669.2974.3472 0 .6835-.0345 1.0079-.1043.3248-.0694.6326-.1561.924-.26.2912-.1045.5611-.2161.8107-.3349.2487-.1189.4722-.233.67-.3425z" fill-rule="evenodd"/><path d="m52.4732 21.482h-1.4286l-.2779 1.5773h1.4283l-.7217 4.0919c-.0769.4366-.082.8035-.0153 1.1011.0661.298.1978.5358.3949.7147.196.1785.4586.3071.7871.3869.3284.0794.7106.1189 1.1472.1189.159 0 .3105-.0029.4556-.0079.1443-.005.2949-.0148.4511-.0295.1565-.015.3235-.0347.5018-.0595.1775-.0249.3837-.0523.6169-.0818l.286-1.622c-.2502.0697-.5375.1243-.8621.1636-.3246.0397-.5757.0596-.7544.0596-.2679 0-.4802-.0347-.6367-.1041-.1565-.0691-.2717-.1585-.3472-.2678-.0746-.1094-.117-.2353-.1261-.3797-.0095-.1432-.002-.2845.0224-.4239l.6456-3.6605h2.7829l.2779-1.5773h-2.7828l.4591-2.6042h-1.8451z"/><path d="m58.7105 21.214h1.8449l-1.409 7.9907h-1.845z"/><path d="m59.256 18.1189h1.8449l-.2886 1.6367h-1.8448z"/><path clip-rule="evenodd" d="m69.5564 27.5086c.2163-.2978.354-.5309.4137-.6995h-2.0237c-.1954.3178-.4992.5927-.912.8259-.4134.2331-.9126.3493-1.4976.3493-.5622-.0193-.9968-.1264-1.3053-.3194-.3082-.1935-.5303-.4116-.6659-.655-.1358-.2429-.2143-.4858-.2359-.729-.022-.2429-.0308-.4291-.0277-.558h7.0082c.1277-.7241.1513-1.3789.0711-1.9643-.0803-.5852-.2677-1.0838-.5623-1.4956-.2946-.4115-.6995-.7313-1.2146-.9599-.5153-.2277-1.1492-.3468-1.9009-.3568-.7346 0-1.3996.1143-1.9952.3421-.5956.2286-1.1139.5384-1.5546.9301-.4418.392-.7992.8433-1.0725 1.3539-.274.5114-.4605 1.0494-.5598 1.6148-.1103.6247-.1078 1.2006.0079 1.726.1155.526.3359.9771.6616 1.3539.3252.3772.7519.6722 1.2797.8854.5278.2133 1.149.3203 1.8634.3203.744 0 1.3904-.1095 1.94-.3273.5493-.2184 1.0133-.4713 1.391-.7591.3781-.2876.6756-.5802.8914-.8778zm-1.5757-4.6501c.3915.2826.597.7612.6171 1.4358h-4.9848c.1577-.3868.3468-.6995.5673-.9374.2202-.2382.4545-.4264.7026-.5655.2473-.1388.5017-.2331.7639-.2828.2615-.0493.5113-.074.7492-.074.6648 0 1.193.1411 1.5847.4239z" fill-rule="evenodd"/><path d="m72.6231 21.214h1.8156l-.1763.9972c.1736-.139.3598-.2828.56-.4316.1994-.149.4298-.2851.6895-.4094.2602-.1238.5509-.2256.8723-.3052.3214-.079.6857-.1187 1.0926-.1187.4164 0 .804.0499 1.1638.1486.3595.0994.6622.2678.9079.5058.2458.2383.4169.5607.5142.9675.0966.4069.092.9129-.0148 1.5177l-.9023 5.1188h-1.8451l.7816-4.4343c.14-.7934.1121-1.3663-.0839-1.7188-.196-.352-.6062-.528-1.2315-.528-.3666 0-.6903.0347-.9704.1041-.2801.0696-.527.1615-.7405.2753-.2136.1139-.4021.2405-.5656.3793-.1634.1394-.3169.278-.4602.4166l-.9706 5.5058h-1.8453z"/><path d="m83.0665 21.482h-1.4287l-.2778 1.5773h1.4284l-.7217 4.0919c-.0769.4366-.0819.8035-.0154 1.1011.0662.298.1978.5358.3949.7147.1962.1785.4586.3071.787.3869.3285.0794.7108.1189 1.1472.1189.1584 0 .3107-.0029.4552-.0079.1443-.005.2954-.0148.4518-.0295.1557-.015.3233-.0347.5015-.0595.1778-.0249.3833-.0523.6172-.0818l.2858-1.622c-.2502.0697-.538.1243-.8624.1636-.3245.0397-.5758.0596-.7541.0596-.2681 0-.4802-.0347-.6365-.1041-.1565-.0691-.2726-.1585-.3474-.2678-.0747-.1094-.1171-.2353-.1261-.3797-.0095-.1432-.0021-.2845.0224-.4239l.6458-3.6605h2.7825l.278-1.5773h-2.7825l.4591-2.6042h-1.8454z"/><path d="m94.7486 23.6692c-.0537-.089-.1298-.2057-.2282-.3496-.0991-.1437-.2383-.2828-.4178-.4166-.1798-.134-.4102-.2479-.6911-.3423-.281-.0943-.6302-.1413-1.0464-.1413-.3378 0-.6256.0298-.8638.0892-.239.0596-.4361.1365-.5917.2307-.1558.0945-.2729.1984-.3522.3123-.0798.1143-.1293.2259-.1484.3348-.0281.1591-.0036.2855.0742.3796.0774.0946.1928.1737.3448.2382.1524.0646.3393.1141.5616.1487.222.0348.4685.0722.7394.1116.5332.0695 1.0448.1515 1.5339.2457.4892.0944.9113.2331 1.266.4164.354.1839.619.4266.7936.729.1749.3032.2184.7024.1313 1.198-.0684.3872-.1968.7217-.3853 1.0043-.1889.2828-.4119.521-.6695.7145-.257.1934-.5378.3497-.8411.4686-.3043.1192-.6105.2107-.9192.2755-.3087.0644-.6043.1062-.8857.1266-.2812.0197-.5307.0297-.7487.0297-.6848 0-1.2516-.0624-1.7009-.1858-.4497-.1242-.8192-.2807-1.1081-.4688-.2888-.1889-.5197-.3994-.6918-.6328-.1724-.2329-.3244-.454-.4559-.662l1.7221-.9078c.1132.2582.2609.4762.4423.6549.1824.1783.3906.3196.6251.4239.2345.1039.4893.1783.7642.2232.2748.0448.5558.0668.8435.0668.2483 0 .4871-.0194.7176-.0593.23-.0391.4389-.0989.6266-.1785.1876-.0795.3444-.1808.4704-.3051.1261-.1238.2048-.2752.2362-.4537.0263-.149.0129-.2701-.0397-.3646-.0531-.094-.1635-.1711-.3316-.2309-.1677-.0595-.4037-.1141-.7079-.1634-.3035-.0496-.6924-.1091-1.1662-.1789-.7363-.0989-1.3282-.2305-1.7758-.3944-.447-.1631-.7849-.3568-1.0136-.58-.2284-.2232-.3663-.4688-.413-.7364-.0472-.2679-.0433-.5557.0105-.8635.0371-.208.131-.4588.2814-.7514.1508-.2924.3885-.5704.7124-.8331.3242-.2629.7485-.4885 1.2729-.6772.5241-.1881 1.1733-.2826 1.9472-.2826.2279 0 .5094.0197.845.0594.3351.0397.6796.1242 1.0343.2529.3538.1293.6997.3202 1.0372.5731.3371.2531.6179.5875.8421 1.0043z"/><path d="m36.6045 38.6273c.1048.1935.1896.3599.2544.4988l1.1466-.5954c-.105-.2479-.2466-.501-.424-.7589-.1776-.2579-.4109-.4858-.6979-.6848-.2875-.198-.6405-.3617-1.0596-.4906-.4187-.1288-.9204-.1936-1.5054-.1936-.6055 0-1.1939.0893-1.7659.268-.5724.1783-1.0921.4389-1.5588.7811-.4675.3423-.8653.7714-1.1947 1.2872-.329.516-.5518 1.106-.6691 1.7705-.1034.5858-.0954 1.1315.0239 1.6369.1191.506.3443.9447.6756 1.3169.3309.3721.7555.665 1.2734.8781.518.2133 1.1288.3199 1.8333.3199.6053 0 1.1465-.0592 1.6241-.1786.477-.119.9002-.2826 1.2695-.4912.3688-.2082.6963-.4462.9814-.7138.2855-.2679.5385-.5507.7598-.8487l-.9394-.5802c-.2715.3574-.5435.6501-.817.8782-.2735.2284-.5557.4092-.8471.543-.2913.134-.5882.2282-.8909.2826-.3021.0551-.6118.0819-.9293.0819-.4761 0-.9066-.0765-1.2912-.2305-.3845-.1537-.7024-.3647-.9528-.6325-.2502-.2677-.4299-.5852-.5383-.9524-.109-.367-.1258-.7637-.0506-1.1901.0998-.5656.2797-1.0515.5401-1.4588.2597-.4065.5666-.7383.9193-.9968.3529-.2577.7339-.4464 1.1413-.5653.4084-.119.8154-.1783 1.2223-.1783.486 0 .8891.0618 1.2095.1858.3205.1239.584.2751.7907.4539.2068.1785.3618.3644.4668.5577z"/><path clip-rule="evenodd" d="m42.817 44.6614c-.665 0-1.2554-.0944-1.7728-.2827-.5175-.1882-.9426-.4636-1.2757-.826-.3328-.362-.5618-.8084-.6864-1.3391-.1247-.5305-.1267-1.1386-.0057-1.8229.0976-.5554.2958-1.0762.5954-1.5624.2985-.4857.673-.9077 1.1232-1.265.45-.3568.9708-.6394 1.5634-.848.5918-.2085 1.2304-.3125 1.915-.3125.6845 0 1.2833.104 1.7972.3125.514.2086.9354.4912 1.2643.848.3286.3573.5545.7793.6774 1.265.1221.4862.1348 1.007.0372 1.5624-.1211.6843-.3373 1.2924-.6491 1.8229-.3119.5307-.6984.9771-1.159 1.3391-.4607.3624-.9805.6378-1.5591.826-.5791.1883-1.201.2827-1.8653.2827zm.1814-1.0268c.5058 0 .9747-.0742 1.4081-.2234.4325-.1483.8145-.357 1.1445-.6246.33-.2677.6028-.5927.8188-.9746.2163-.3818.3653-.8059.4475-1.2723.0632-.357.0675-.7192.0133-1.0866-.0546-.3667-.1873-.6992-.3973-.9968-.2105-.2976-.5072-.543-.8891-.7367-.3827-.1932-.8667-.2897-1.4518-.2897-.5854 0-1.1035.0965-1.5541.2897-.4511.1937-.8343.4391-1.1495.7367-.3153.2976-.5673.6301-.756.9968-.1889.3674-.3143.7296-.3774 1.0866-.0823.4664-.0801.8905.0062 1.2723.0863.3819.2476.7069.483.9746.2353.2676.5432.4763.9239.6246.3801.1492.8237.2234 1.3299.2234z" fill-rule="evenodd"/><path d="m51.4036 36.6411h-1.1608l-1.3724 7.7825h1.2057l.9918-5.625c.1497-.1192.3302-.2577.5419-.4169.2114-.1584.4509-.3069.7185-.446.2676-.1388.5589-.258.8741-.3576.3151-.0989.6462-.1482.9935-.1482.4166 0 .7262.0717.929.2155.203.1441.3388.3151.4082.5133.0688.1987.0955.3996.0797.6026-.016.2035-.0345.3648-.0556.4836l-.9129 5.1787h1.205l.9919-5.625c.1501-.1192.3304-.2577.5423-.4169.2116-.1584.4509-.3069.7183-.446.2678-.1388.5565-.258.8664-.3576.3105-.0989.6339-.1482.9716-.1482.4262 0 .7433.0717.951.2155.208.1441.3464.3151.4156.5133.0693.1987.0959.3996.08.6026-.0161.2035-.0349.3648-.0558.4836l-.9129 5.1787h1.2051l.992-5.625c.1-.5653.0608-1.0066-.1161-1.3244-.1774-.3173-.4085-.5552-.6924-.7144-.2845-.1586-.5821-.2577-.8925-.2972-.3108-.0399-.5548-.0598-.7336-.0598-.2876 0-.5622.0249-.824.0745-.2621.05-.5264.1291-.7933.238-.2674.1095-.5457.2508-.8334.4241-.2894.1738-.61.3894-.9627.6474-.055-.1387-.1223-.2904-.203-.4537-.0799-.164-.1999-.3148-.3591-.454-.1587-.1387-.369-.2529-.6314-.3423-.262-.0891-.6063-.134-1.0325-.134-.645 0-1.2331.1267-1.7634.3798-.5308.2527-1.0527.5678-1.5652.9445z"/><path clip-rule="evenodd" d="m72.0723 42.8015c-.2354.2084-.4819.4239-.7393.6473-.2573.2232-.558.4239-.9025.6026-.3439.1785-.7489.3251-1.2155.439-.4663.1138-1.0326.171-1.6974.171-.6542 0-1.2336-.1039-1.7376-.3122-.5035-.2084-.9161-.4989-1.238-.8709-.3207-.3717-.5434-.8131-.6665-1.3243-.1232-.5108-.132-1.064-.027-1.6592.1081-.615.3163-1.1755.6237-1.6813.3071-.5062.6834-.9376 1.1284-1.2946.445-.3572.9451-.6324 1.4999-.8261.555-.193 1.1302-.29 1.7253-.29.6249 0 1.2028.0843 1.7337.253.5305.169.9753.429 1.3355.7812.3593.3525.6121.8034.758 1.354.1458.5505.1456 1.2128-.0009 1.9865h-7.6483c-.0353.3674-.0029.7217.0951 1.0642.0982.3422.2647.6471.5007.9149.2352.2681.5372.4815.9066.6398.3686.1592.8065.2382 1.3123.2382.506 0 .9409-.0495 1.306-.149.3645-.0985.6791-.2252.9447-.379.2653-.1538.4928-.32.6829-.4988.1899-.1787.3581-.3422.5035-.4912zm-.5484-3.0508c-.0034-.3173-.065-.6172-.1835-.9-.1188-.283-.2939-.5284-.5252-.7367-.2311-.2082-.519-.3744-.864-.4983-.3458-.124-.746-.1858-1.2023-.1858-.8927 0-1.6292.2078-2.2086.6245-.5796.4169-1.0162.9823-1.3112 1.6963z" fill-rule="evenodd"/><path d="m81.0985 38.2776-1.0839 6.1459h1.8455l1.0835-6.1459h2.8718l.2779-1.5771h-2.8716l.097-.5506c.0229-.1289.0644-.2675.1252-.4167.0611-.1486.1592-.2851.2955-.4092.1359-.1238.3199-.2256.5526-.305.2318-.0794.5353-.1137.9108-.1043.0992 0 .1958.0027.2886.0075.0941.0049.1959.0147.3079.0297.111.0149.2464.0372.4047.0671.1585.0297.3513.0744.5788.134l.2781-1.5777c-.1915-.0394-.369-.0741-.5321-.1039-.1635-.0296-.3203-.0544-.4707-.0743-.1501-.0198-.3012-.0347-.4534-.0449-.1515-.0096-.3172-.0148-.4957-.0148-.0992 0-.2461.0027-.4403.0075-.1939.005-.4124.0299-.6528.0742-.2411.0447-.4915.1145-.7512.2086-.2597.0946-.5046.233-.7355.4165-.2309.1839-.4355.4166-.6144.6995-.1787.2826-.304.6273-.3756 1.034l-.1627.9228h-1.7709l-.2781 1.5771z"/><path d="m87.9709 36.4325h1.845l-1.4085 7.9911h-1.8455z"/><path d="m88.5165 33.3374h1.8451l-.2884 1.6367h-1.8451z"/><path d="m93.8042 36.4325h-1.8451l-1.4088 7.991h1.8452l.7475-4.2409c.0245-.1389.0731-.3299.1458-.5732.072-.2427.2031-.4784.392-.7068.1894-.2281.4577-.4289.8059-.6028.3477-.1733.8147-.2602 1.4001-.2602.3073 0 .547.02.7182.0595.172.0401.3008.0696.3863.0893l.3516-1.9939c-.0958-.0197-.193-.0297-.2922-.0297h-.3572c-.3967 0-.7544.0447-1.0728.1338-.3182.0896-.6045.2062-.8578.3496-.2536.1442-.4725.303-.6566.4763-.1844.1735-.3405.3399-.4675.4983h-.0447z"/><path d="m104.159 38.8876c-.053-.0889-.13-.2054-.228-.3495-.099-.1437-.238-.2826-.418-.4164-.18-.1343-.41-.2483-.691-.3425-.281-.0941-.63-.1415-1.046-.1415-.338 0-.626.0302-.864.0894-.239.0598-.436.1365-.591.2306-.157.0944-.274.1985-.3531.3124-.0796.1145-.1292.2259-.1485.3349-.0281.1588-.0034.2854.0742.3795.0777.0946.1924.174.3454.238.152.0648.339.1147.561.149.222.0349.468.0721.739.1115.534.0695 1.045.1515 1.535.2459.489.0943.91.2327 1.266.4162.354.1839.618.4268.793.7294s.219.702.131 1.1976c-.068.3871-.196.7217-.385 1.0043-.189.2828-.412.521-.669.7144-.258.1937-.538.35-.842.4687-.304.1192-.61.2107-.919.2755-.309.0646-.604.1064-.885.1264-.282.0199-.531.0299-.749.0299-.685 0-1.2519-.0622-1.701-.186-.4497-.1239-.8188-.2805-1.108-.4686-.2891-.1883-.52-.3992-.6919-.6326-.1724-.2331-.3244-.454-.4562-.6622l1.7222-.9078c.1134.2582.2611.4763.4427.6548.1819.1785.3902.3198.6247.424.2345.1039.4895.1783.7645.2234.275.0444.556.0669.843.0669.248 0 .488-.0197.718-.0597.23-.0394.439-.0991.627-.1783.187-.0796.344-.1811.47-.3052.126-.1237.205-.2756.236-.4537.026-.1489.013-.2703-.04-.3646-.053-.0942-.163-.1709-.331-.2309-.168-.0595-.404-.1141-.708-.1634-.303-.0496-.692-.1091-1.166-.1787-.737-.0991-1.3285-.2306-1.776-.3942-.4468-.1637-.7852-.357-1.0134-.5802-.2286-.2236-.3663-.469-.4132-.7367-.0474-.2678-.0433-.5554.0107-.8636.0367-.208.1306-.4584.2814-.751s.3881-.5706.712-.8333c.3245-.2631.7484-.4885 1.2725-.6772.525-.1879 1.174-.2826 1.948-.2826.228 0 .509.0199.845.0596.335.0394.679.1241 1.034.2531.354.1288.7.32 1.037.5727.337.2531.618.5875.842 1.0043z"/><path d="m108.176 36.7005h-1.429l-.278 1.5771h1.429l-.722 4.0921c-.077.437-.082.8035-.015 1.1011.066.298.197.5357.395.7143.196.1787.459.3075.787.3873.328.079.71.1189 1.147.1189.158 0 .31-.0027.455-.0075.144-.0052.295-.0148.452-.0297.156-.0152.323-.0352.501-.0595.178-.0249.383-.0521.617-.082l.286-1.622c-.25.0695-.538.1243-.862.1636-.325.0399-.576.0596-.754.0596-.268 0-.481-.0345-.637-.1039-.157-.0696-.272-.1587-.347-.268-.075-.1091-.117-.2353-.126-.3793-.01-.1438-.002-.2853.022-.4241l.646-3.6609h2.782l.278-1.5771h-2.782l.459-2.604h-1.845z"/></g><path clip-rule="evenodd" d="m21.5545 5.06403c-.0084.07047.0168.26811.0168.26811s.4088-.06206.578.22554c.1698.29029.5817.89161 1.3066 1.78.7219.89142 1.0379 2.42871 1.1338 3.43852.096 1.0127.5781 4.7167.9165 6.6628.3389 1.9491.7002 4.9535.6519 5.388-.0476.4317-2.8489 1.0325-2.8489 1.0325s-.0706.9388-.2176 1.1087c-.137.1587-.123.6045-.0994 1.3553.0012.0363.0023.0733.0035.111.0132.4731-.0773 1.1385-.1517 1.6855-.0544.3991-.1001.7351-.0907.8874.0033.0467.007.1098.0114.1859.0297.5124.0935 1.611.3043 2.2178.2402.699.5309 3.4891.4093 4.9783-.0545.6689-.1083 1.4631-.16 2.2267-.0637.9401-.1242 1.8339-.179 2.3912-.0513.5429-.005 1.141.0335 1.6382.0331.4279.0605.781.0148.9598-.0719.2874.046.5619.1193.7327.0246.0572.0442.1028.0499.1333.0256.1182-.2652.4089-.2652.4089s.2425.793.147 1.0101c-.0993.2172-1.6925.361-1.7632.1914-.0508-.1169-.4148-.0255-.8429.082-.1894.0476-.3914.0983-.5844.1355-.6045.1171-1.9542.1211-2.5261-.0538.0133.3072.0051.5186-.0212.5366-.0737.0481-.3212.0586-.3212.0586s.2475.7482-.1079.9516c-.3578.1997-1.6835.2475-1.9345.1774-.1257-.0354-.2839-.19-.4268-.3298-.1427-.1396-.2702-.2643-.3349-.2402-.0442.0159-.0908.0475-.144.0835-.1064.072-.2389.1617-.4291.1783l-.2876.0229s-.2735.2368-.7981.2737c-.5247.0339-1.467.0481-1.7324-.1184-.074-.0471-.1327-.095-.185-.1377-.133-.1086-.2247-.1834-.4211-.1249-.2735.0844-1.15671.0959-1.76626-.0109-.60865-.1077-1.27776-.5586-1.24056-1.0583.03613-.4987.58326-.5695.85727-.5809.07906-.004.20085-.0077.33756-.0119.34107-.0105.77509-.0239.86955-.0502.0541-.0138.04478-.1145.03078-.2657-.01969-.2127-.04864-.5255.07671-.8372.21445-.5358.39188-1.8531.41746-2.4117.02058-.5022-.1805-2.2322-.28088-3.0958l-.02962-.2558c-.03007-.2547-.11627-.5801-.21086-.9373-.17045-.6434-.36813-1.3897-.31373-2.0103.06296-.7393-.18228-1.5768-.34277-2.1248-.04831-.165-.08895-.3037-.11117-.4057-.09587-.4392-.42908-3.018-.44303-3.6247-.00244-.1304-.00989-.2976-.01861-.4936-.03162-.7099-.08-1.7963.03256-2.8686.14434-1.3655.41763-1.9604.41763-1.9604s-.40887.0168-.24003-.4515l.01538-.0416c.21789-.5903.70963-1.9226.69863-2.768-.01127-.8689 0-2.1186 0-2.1186s-1.24986.793-1.70416.604c-.45359-.1892-.74996-1.1764-.77535-1.6391-.02236-.4629.34662-1.3906.67948-2.0307.15741-.3017.23304-.8979.31578-1.5502.09371-.7389.19656-1.5498.43775-2.0862.45143-1.0096 1.38221-1.1424 1.38221-1.1424s.77288-.1468 1.02108-.3017c.251-.1526.1129-.8492.1129-.8492s-.4769-.1442-.584-.28528c-.10695-.14363-.05919-.40297.0367-.59471.0582-.11789.0438-.23148.0328-.31806-.0066-.05226-.012-.09468.0006-.12229.037-.07064.144-.08138.144-.08138s-.107-.22589-.0478-.31049c.0197-.02692.0408-.05266.0602-.07638.0396-.04831.0724-.08826.0724-.11286v-.03648s-.2622-.20014-.203-.31873c.0446-.09103.2031-.19925.3404-.29294.0458-.0313.0893-.06097.1253-.08785.1408-.10695.3098-.29654.3441-.39223.0141-.03715.0121-.08483.0098-.14091-.0036-.08893-.0081-.19899.0489-.32162.0959-.20336.2513-.4289.2513-.4289s-.0817-.51028.4429-.9027c.5247-.39187 1.6449-.55839 2.5755-.19173.9308.3697 1.6362 1.03523 1.8617 1.86763.1023.37107.082.93081.0605 1.52554-.0266.73424-.0551 1.52187.1426 2.07367.0655.1825.1282.3464.1869.4923.1444-.4254.2854-.8011.3962-1.0963.0668-.17812.1226-.32693.1616-.4397.1608-.46294.4104-.83394.5711-1.0728.0988-.1468.164-.24369.1544-.28134-.0287-.09569-.0453-.35521.1858-.47111.2336-.11536.7532-.5609.7532-.5609s-.2229-.15006-.3753-.41763c-.039-.06864-.0745-.13783-.109-.20516-.1005-.19565-.1928-.37555-.3396-.48041-.1001-.07278-.264-.13413-.4432-.20118-.1743-.06524-.3631-.13589-.5215-.22772-.3113-.17884-.2144-.48259-.159-.65608.0023-.00713.0045-.01404.0066-.02072.0349-.11012.009-.20459-.0157-.29451-.0132-.0484-.0261-.09548-.029-.14297-.0086-.13236.2059-.23949.2059-.23949s-.2599-.09873-.1895-.19478c.0737-.09873.1895-.39206.1895-.39206s-.2145-.13557-.2878-.32194c-.0527-.13924.1135-.26408.2941-.39965.0609-.04571.1234-.09264.1797-.14175.2259-.19746.2511-.26793.2259-.40333-.0288-.13235-.0537-.24825.1518-.52477.2066-.27633.6237-.87139.562-.95331-.0624-.078878-.195-.614916-.0456-.67698.1518-.062063 1.7181-.434446 2.6943-.2933267.973.1438017 1.8501.6233207 2.0279 1.2382367.1806.61509-.0623 1.79144-.3749 2.54729-.225.54253-.5458.91229-.712 1.10384-.0654.07532-.1068.12309-.1091.14298zm-5.1642 26.05337c-.2545.8168-.4689 1.6942-.5001 2.0592-.0374.4361-.1693 1.1039-.2308 1.4148-.0173.0876-.029.1469-.0314.1647-.0057.0411.0411.1525.1096.3153.0727.1728.1697.4035.254.6695.2511.7866.46 1.2722.6856 1.7261.1535.3074.2691 1.3838.3496 2.355.001-.0053.002-.0107.0031-.016.1467-.745.2677-3.3683.2427-4.234-.0094-.3167.0299-.5497.0612-.7355.0544-.3225.0848-.5028-.205-.7322-.4602-.3607-.5559-.8658-.6289-1.3933-.0308-.222-.0696-.8404-.1096-1.5936zm.6931 9.4366c.0102.1396.0194.2703.0278.3882l.0062.0875c.0224.3058.021.6474.0154 1.0014.019-.0587.0385-.118.058-.177.1133-.3435.2225-.6743.1775-.7986-.0251-.0695-.0702-.1373-.1205-.2129-.055-.0827-.1163-.1747-.1644-.2886zm.0389 2.454c.002.2239.0094.4442.0271.6553.1404-.0601.2441-.1056.2441-.1056s-.1405-.2929-.2712-.5497z" fill="#97999b" fill-rule="evenodd"/><path clip-rule="evenodd" d="m.00028417 47.4584c.00804861.1553.18905283.1637.23949083.1637.015112 0 .041494.011.079261.0267.089182.0373.241846.101.459459.1088.088739.0024.202342.0069.327055.0118h.00113c.31141.0123.692.0274.92758.0188.16283-.0052.36886.0414.57946.089.21986.0497.44481.1006.63069.0947l.01981-.0004c.34445-.0078.4417-.01.52964-.2673.03971-.1184.03971-.2172.03971-.2172s.41495-.1218.72545.0419c.30996.1665.76712.2684 1.05776.2883.29011.0223.50742-.3388.41424-.7822-.09301-.4451-.12413-.9191 0-1.2999.01893-.0584.05151-.1476.0929-.2609.23045-.6309.73399-2.0095.6744-2.9804-.04819-.7565-.23189-1.418-.38118-1.9556-.07676-.2764-.14443-.5201-.1799-.7271-.10159-.6093-.13539-.8234-.08191-1.6192.05097-.7957.05097-.9899.05097-.9899s.71615-.1043.71615-.2597c0-.0608-.02666-.1636-.06458-.3099-.0569-.2195-.13917-.5368-.19477-.9565-.093-.7027-.15489-1.1398-.42586-1.9976-.26811-.8571-.71919-1.2266-.71919-1.2266s-.08191-.1102-.07941-.1918c.0019-.0336.01402-.0769.0292-.1311.02019-.0722.04578-.1637.05993-.2773.34418-.0108.91973-.0445 1.2904-.1475.51887-.1463.77839-.2792.8714-.6709.07828-.329.00956-.767-.08775-1.3871-.01874-.1194-.03854-.2456-.05856-.3791-.08791-.582-.21604-1.1029-.31663-1.5118-.04185-.1702-.07894-.3209-.10637-.4486-.04005-.1858-.06286-.3414-.08327-.4806-.02698-.1841-.04979-.3396-.10274-.4989-.03298-.0957-.06202-.1645-.08593-.2138-.01468-.0542-.04227-.1234-.08935-.2117-.06572-.1198-.34903-.198-.52268-.246-.04279-.0118-.07892-.0218-.1035-.0301l-.00099-.0003c-.12342-.0395-.17735-.0568-.31791-.1212-.10696-.0509-.21159-.1352-.21159-.1352s-.12413-.1245-.17493-.2908c-.05061-.1635-.08191-.2985-.08191-.2985s.22607.1238.3502.135c.12717.0115.37507.0115.46825-.0311.09319-.0426.2259-.0621.30978-.0426.08228.0227.21767.0118.32213-.0613.10123-.0708.12359-.4747.12359-1.1347 0-.0937.00103-.1952.00212-.3026.0066-.6488.01539-1.5135-.18778-2.1937-.2402-.7954-.70523-1.4867-1.3992-1.5486-.69433-.0619-1.00429.093-1.00429.093s-.98497.144-1.6387.6094c-.59615.4259-.60469.745-.60821.8766-.00033.0124-.00062.023-.00134.032-.00943.096-.02643.2101-.04297.3212-.02767.1859-.05405.3631-.04163.4322.01004.0505.02811.0931.04856.1413.0251.0592.05379.1268.07557.2278.04239.1864-.03953.3331-.13289.4969-.02293.0408-.04774.0803-.07151.1182-.07285.1161-.13603.2167-.1061.2932.03432.0824.09867.1162.14404.14.01824.0096.03341.0176.04233.0265.03112.0313.03112.155-.00876.2876-.0434.1421.02452.1967.08512.2454.01405.0113.02776.0223.03954.034.01814.0181-.00823.0607-.03544.1047-.00633.0103-.0127.0206-.01857.0307-.03077.0509.01127.1522.07369.2056.0617.051.12395.1129.10391.2258-.02235.1128-.04221.3106.07351.4231.09676.0966.39823.0279.60151-.0185l.00102-.0003c.0338-.0077.06487-.0147.0918-.0203.18601-.0426.23717-.0936.23717-.0936s.01037.2062-.05116.257c-.02004.0164-.04187.0438-.06914.0781-.05692.0715-.13754.1727-.27516.2657-.05415.0363-.12051.0871-.19181.1456-.01415.0085-.02832.0175-.04249.0268-.04923.033-.10422.0635-.16075.0948-.21904.1213-.46121.2555-.48095.601-.10494.2131-.29438.6362-.37082 1.0166-.13009.6463-.13283.8436-.13775 1.1983l-.00033.0231c-.00359.1832.00565.3703.0152.5641.01282.2598.02621.5314.01002.8207-.00634.1315.00032.2757.00881.4595.01426.3088.03369.7296.00532 1.3911-.0191.4824-.11418.7701-.16945.9373-.0265.0802-.04385.1327-.03927.1657.01413.0848.07601.2229.07601.2229s-.12127.6092-.12967.776c-.00618.1088-.01905.2115-.0315.3107-.02104.1679-.04087.3261-.02502.4876.00798.0829.03186.197.05906.327.0587.2806.13291.6353.09637.911-.05016.3955-.19399.7749-.2272.8625l-.0012.0032c-.03113.0825.11536.1637.28188.2261.16383.0619.32999.0735.32999.0735s.20569.8342.35235 1.1762l.03238.0762c.15737.3699.45451 1.0681.43319 1.4439-.01968.4037-.01127.6206.12162 1.0018.01724.0499.03611.0978.05435.1441.06196.1572.11664.296.07532.4314-.05079.1746-.21713 1.176-.26256 2.3805-.0037.1077-.00716.2157-.01061.3233-.03062.9544-.06003 1.8713-.23765 2.1957-.12557.2335-.26574.2865-.44755.3553-.09917.0375-.21073.0796-.33906.1584-.03108.0193-.0633.0399-.09673.0612-.20026.1278-.4443.2836-.741046.3729-.104938.0314-.212913.0437-.310164.0547-.19845.0226-.35225796.0402-.34445583.2046zm5.56570583-16.8295c-.01992.0109-.03998.0215-.0601.0319l.0009-.0149c.01299-.2252.04457-.3915.0742-.5475.01522-.0801.02993-.1576.04134-.2389.03094-.2204.23394-.508.28456-.5589.01878-.0185.01932-.0179.0226-.0142.00356.0041.01033.0118.04708.0027.02202.1204.08964.4731.15908.6607.01667.046.03123.0839.04342.1156.04753.1237.05889.1533.01846.2031-.04103.0478-.25644.1616-.45765.2678-.06079.0322-.12093.0639-.17389.0926zm.67125-1.4636c-.03409.0307-.07201.0503-.10835.0628.0694-.0355.12865-.0926.17755-.1674-.02084.0445-.04401.0819-.0692.1046zm-2.47396 17.6167s0-.5227.16329-1.4021c.06821-.3674.1783-.7512.28668-1.129.15223-.5307.30108-1.0496.32573-1.4947.02668-.4542-.0017-.8122-.02404-1.0941-.01512-.1908-.02748-.3467-.01817-.4741.01986-.3134.08693-.4344.08693-.4344s.28259.4144.3502 1.2185c.05111.6366.02153 1.1223-.00974 1.6357-.00833.137-.0168.276-.02388.4203-.03399.6863-.28546 1.8197-.40351 2.1357-.12144.3138-.73349.6182-.73349.6182z" fill="#97999b" fill-rule="evenodd"/></svg>