<svg width="48" height="48" viewBox="0 0 48 48" fill="none" xmlns="http://www.w3.org/2000/svg" version="1.2" baseProfile="tiny-ps">
<title>Pharmaxo</title>
<rect width="48" height="48" fill="#1565C0"/>
<path d="M16.5517 27.0894C16.887 27.6674 17.5077 28.0273 18.1712 28.0273C19.2059 28.0273 20.0474 27.1854 20.0474 26.1506C20.0474 25.8194 19.9618 25.4957 19.7989 25.2144C19.193 24.1664 18.873 22.9743 18.873 21.7661C18.873 17.9606 21.9686 14.8643 25.7747 14.8643C26.8086 14.8643 27.6497 14.0228 27.6497 12.9882C27.6497 11.954 26.8109 11.1124 25.7805 11.1124C19.9036 11.1124 15.1226 15.8918 15.1226 21.7661C15.1226 23.6315 15.6167 25.4723 16.5517 27.0894Z" fill="white"/>
<path d="M20.1214 21.7661C20.1214 20.1268 20.8191 18.6508 21.9337 17.6184C21.8374 18.7852 22.4047 19.9576 23.4864 20.582C23.9699 20.8617 24.5073 21.0032 25.0458 21.0032C26.0068 21.0026 26.9794 21.2427 27.8704 21.7572C29.2906 22.5773 30.22 23.9195 30.557 25.4012C29.5941 24.7344 28.2946 24.6391 27.2138 25.2634C26.7293 25.5427 26.339 25.9368 26.0693 26.4027C25.5893 27.2367 24.895 27.9585 24.0035 28.4729C22.5836 29.292 20.9567 29.426 19.5055 28.9777C20.5633 28.4765 21.2953 27.3994 21.2953 26.1506C21.2953 25.5924 21.1495 25.056 20.8806 24.59C20.3994 23.7575 20.1214 22.7946 20.1214 21.7661Z" fill="white"/>
<path d="M32.6497 32.919C32.3215 32.919 31.9961 32.8319 31.7085 32.6655C30.8125 32.1481 30.5038 30.9993 31.0216 30.1038C32.9232 26.8078 31.7904 22.5787 28.495 20.6757C27.4507 20.0729 26.2601 19.7542 25.0516 19.7542C24.7208 19.7542 24.3977 19.6666 24.1097 19.5007C23.2144 18.9831 22.9071 17.8334 23.4239 16.9376C23.755 16.3636 24.3767 16.0059 25.0458 16.0044C26.9162 16.0044 28.7555 16.4969 30.37 17.4288C32.833 18.8511 34.5956 21.149 35.3322 23.8998C36.0686 26.6497 35.6904 29.5214 34.2675 31.9856C33.9355 32.5614 33.3146 32.919 32.6497 32.919Z" fill="white"/>
<path d="M11.9477 28.8985C13.8447 32.1863 17.3861 34.2292 21.189 34.2292C23.0476 34.2292 24.885 33.7353 26.5032 32.8012C28.1189 31.8682 29.4653 30.52 30.3974 28.9028C30.7311 28.324 30.7328 27.6065 30.4007 27.0314C29.9031 26.1697 28.7063 25.8421 27.8384 26.3449C27.5516 26.5099 27.3143 26.7457 27.1511 27.027C26.5464 28.0765 25.6743 28.9504 24.6273 29.5542C23.5786 30.1595 22.387 30.4797 21.1831 30.4797C18.7222 30.4797 16.4295 29.1571 15.1994 27.0279C14.7035 26.1668 13.5073 25.8406 12.6375 26.3428C11.742 26.8593 11.432 28.0061 11.9477 28.8985Z" fill="white"/>
</svg>
