<svg fill="none" height="48" viewBox="0 0 152 48" width="152" xmlns="http://www.w3.org/2000/svg"><g fill="#fff"><path d="m27.9999 4c0 2.20914-1.7909 4-4 4-2.2092 0-4-1.79086-4-4s1.7908-4 4-4c2.2091 0 4 1.79086 4 4z"/><path d="m8 24c0 2.2091-1.79086 4-4 4s-4-1.7909-4-4 1.79086-4 4-4 4 1.7909 4 4z"/><path d="m23.9999 28c2.2091 0 4-1.7909 4-4s-1.7909-4-4-4c-2.2092 0-4 1.7909-4 4s1.7908 4 4 4z"/><path d="m38 24c0 2.2091-1.7909 4-4 4s-4-1.7909-4-4 1.7909-4 4-4 4 1.7909 4 4z"/><path d="m44.0001 28c2.2092 0 4-1.7909 4-4s-1.7908-4-4-4c-2.2091 0-4 1.7909-4 4s1.7909 4 4 4z"/><path d="m27.9999 44c0 2.2091-1.7909 4-4 4-2.2092 0-4-1.7909-4-4s1.7908-4 4-4c2.2091 0 4 1.7909 4 4z"/><path d="m16.9999 4c0 1.65685-1.3432 3-3 3-1.6569 0-3-1.34315-3-3s1.3431-3 3-3c1.6568 0 3 1.34315 3 3z"/><path d="m37.0001 4c0 1.65685-1.3431 3-3 3-1.6568 0-3-1.34315-3-3s1.3432-3 3-3c1.6569 0 3 1.34315 3 3z"/><path d="m4.00012 17c1.65686 0 3-1.3432 3-3 0-1.6569-1.34314-3-3-3-1.65685 0-3 1.3431-3 3 0 1.6568 1.34315 3 3 3z"/><path d="m46.9999 14c0 1.6568-1.3432 3-3 3-1.6569 0-3-1.3432-3-3 0-1.6569 1.3431-3 3-3 1.6568 0 3 1.3431 3 3z"/><path d="m4.00012 37c1.65686 0 3-1.3432 3-3 0-1.6569-1.34314-3-3-3-1.65685 0-3 1.3431-3 3 0 1.6568 1.34315 3 3 3z"/><path d="m46.9999 34c0 1.6568-1.3432 3-3 3-1.6569 0-3-1.3432-3-3 0-1.6569 1.3431-3 3-3 1.6568 0 3 1.3431 3 3z"/><path d="m13.9999 47c1.6568 0 3-1.3431 3-3s-1.3432-3-3-3c-1.6569 0-3 1.3431-3 3s1.3431 3 3 3z"/><path d="m37.0001 44c0 1.6569-1.3431 3-3 3-1.6568 0-3-1.3431-3-3s1.3432-3 3-3c1.6569 0 3 1.3431 3 3z"/><path d="m3.99988 6c1.10457 0 2-.89543 2-2s-.89543-2-2-2-2 .89543-2 2 .89543 2 2 2z"/><path d="m44 6c1.1046 0 2-.89543 2-2s-.8954-2-2-2-2 .89543-2 2 .8954 2 2 2z"/><path d="m5.99988 44c0 1.1046-.89543 2-2 2s-2-.8954-2-2 .89543-2 2-2 2 .8954 2 2z"/><path d="m44 46c1.1046 0 2-.8954 2-2s-.8954-2-2-2-2 .8954-2 2 .8954 2 2 2z"/><path d="m19.0001 15c-.6628 0-1.2186.4663-1.5564 1.0364-.3432.579-.8282 1.064-1.4072 1.4072-.5701.3379-1.0365.8937-1.0365 1.5564 0 .6628.4664 1.2186 1.0365 1.5565 1.1754.6967 1.9635 1.978 1.9635 3.4435 0 1.4654-.788 2.7468-1.9635 3.4435-.5701.3379-1.0365.8937-1.0365 1.5565s.4663 1.2186 1.0365 1.5565c.5789.3431 1.0639.8281 1.407 1.407.3379.5702.8937 1.0365 1.5565 1.0365s1.2186-.4664 1.5565-1.0365c.6967-1.1755 1.9781-1.9635 3.4435-1.9635s2.7468.788 3.4435 1.9635c.3379.5701.8937 1.0365 1.5565 1.0365s1.2186-.4664 1.5565-1.0365c.6967-1.1755 1.9781-1.9635 3.4435-1.9635 2.2091 0 4 1.7909 4 4s-1.7909 4-4 4c-1.4654 0-2.7468-.788-3.4435-1.9635-.3379-.5701-.8937-1.0365-1.5565-1.0365s-1.2186.4664-1.5565 1.0365c-.6967 1.1755-1.9781 1.9635-3.4435 1.9635s-2.7468-.788-3.4435-1.9635c-.3379-.5701-.8937-1.0365-1.5565-1.0365s-1.2186.4664-1.5565 1.0365c-.6967 1.1755-1.9781 1.9635-3.4435 1.9635-2.2091 0-4-1.7909-4-4 0-1.4654.788-2.7468 1.9635-3.4435.5701-.3379 1.0365-.8937 1.0365-1.5565s-.4664-1.2186-1.0365-1.5565c-1.1755-.6967-1.9635-1.9781-1.9635-3.4435s.788-2.7468 1.9635-3.4435c.5701-.3379 1.0365-.8937 1.0365-1.5565s-.4664-1.2186-1.0365-1.5566c-1.1754-.6967-1.9634-1.978-1.9634-3.4434 0-2.2091 1.7909-4 4-4 1.4655 0 2.7469.7881 3.4435 1.9635.3379.5702.8937 1.0365 1.5565 1.0365.6627 0 1.2185-.4663 1.5564-1.0365.6966-1.1754 1.978-1.9635 3.4435-1.9635 1.4654 0 2.7468.788 3.4435 1.9635.3379.5701.8937 1.0365 1.5565 1.0365s1.2186-.4664 1.5565-1.0365c.6967-1.1755 1.9781-1.9635 3.4435-1.9635 2.2091 0 4 1.7909 4 4s-1.7909 4-4 4c-1.4654 0-2.7468-.788-3.4435-1.9635-.3379-.5701-.8937-1.0365-1.5565-1.0365s-1.2186.4664-1.5565 1.0365c-.6967 1.1755-1.9781 1.9635-3.4435 1.9635-1.4655 0-2.7469-.7881-3.4435-1.9635-.3379-.5702-.8937-1.0365-1.5564-1.0365z"/><path d="m109.015 10.352c.272-.56001.736-1.04001 1.392-1.44001s1.392-.6 2.208-.6c.736 0 1.368.128 1.896.384.528.24.968.568 1.32.984.352.41601.608.90401.768 1.46401.176.56.264 1.16.264 1.8v7.056h-2.256v-6.288c0-.464-.04-.904-.12-1.32-.064-.416-.192-.784-.384-1.104s-.456-.576-.792-.768c-.32-.192-.744-.288-1.272-.288-.896 0-1.632.344-2.208 1.032-.576.672-.864 1.576-.864 2.712v6.024h-2.256v-18.14401h2.256v8.49601z"/><path d="m68.0159 19.592c1.072-.576 1.944-1.32 2.616-2.232l-1.896-1.296c-.512.736-1.16 1.296-1.944 1.68s-1.656.576-2.616.576c-.976 0-1.864-.176-2.664-.528-.784-.352-1.456-.832-2.016-1.44-.544-.624-.968-1.352-1.272-2.184-.288-.832-.432-1.728-.432-2.688 0-.928.152-1.80001.456-2.61601.304-.832.736-1.56 1.296-2.184s1.232-1.112 2.016-1.464c.8-.368 1.696-.552 2.688-.552.88 0 1.696.192 2.448.576.768.368 1.36.84 1.776 1.416l1.872-1.44c-.32-.432-.704-.808-1.152-1.128-.448-.336-.944-.616-1.488-.84s-1.112-.392-1.704-.504-1.176-.168-1.752-.168c-1.296 0-2.496.216-3.6.648s-2.064 1.04-2.88 1.824c-.8.768-1.432 1.704-1.896 2.808-.448 1.088-.672 2.29601-.672 3.62401 0 1.312.224 2.52.672 3.624.448 1.088 1.064 2.032 1.848 2.832.8.784 1.744 1.4 2.832 1.848 1.104.432 2.304.648 3.6.648 1.504 0 2.792-.28 3.864-.84z"/><path clip-rule="evenodd" d="m83.6949 16.712c.32-.736.48-1.544.48-2.424s-.16-1.68-.48-2.4c-.304-.736-.736-1.368-1.296-1.89601-.544-.528-1.192-.936-1.944-1.224-.752-.304-1.56-.456-2.424-.456s-1.672.152-2.424.456c-.752.288-1.4.696-1.944 1.224-.544.52801-.976 1.16001-1.296 1.89601-.304.72-.456 1.52-.456 2.4s.152 1.688.456 2.424c.32.736.752 1.376 1.296 1.92.544.528 1.192.944 1.944 1.248.752.288 1.56.432 2.424.432s1.672-.144 2.424-.432c.752-.304 1.4-.72 1.944-1.248.56-.544.992-1.184 1.296-1.92zm-2.136-3.984c.176.496.264 1.016.264 1.56s-.088 1.064-.264 1.56c-.16.496-.4.936-.72 1.32s-.72.688-1.2.912c-.464.224-1 .336-1.608.336s-1.152-.112-1.632-.336c-.464-.224-.856-.528-1.176-.912s-.568-.824-.744-1.32c-.16-.496-.24-1.016-.24-1.56s.08-1.064.24-1.56c.176-.496.424-.928.744-1.296.32-.384.712-.688 1.176-.912.48-.224 1.024-.336 1.632-.336s1.144.112 1.608.336c.48.224.88.528 1.2.912.32.368.56.8.72 1.296z" fill-rule="evenodd"/><path d="m87.3033 11.072c0-.304-.008-.696-.024-1.17601-.016-.48-.04-.904-.072-1.272h2.136c.032.288.056.624.072 1.008.016.368.024.67201.024.91201h.072c.32-.67201.784-1.20801 1.392-1.60801.624-.416 1.32-.624 2.088-.624.352 0 .648.032.888.096l-.096 2.08801c-.32-.08-.664-.12-1.032-.12-.544 0-1.016.104-1.416.312-.4.192-.736.456-1.008.792-.256.336-.448.728-.576 1.176-.128.432-.192.888-.192 1.368v5.976h-2.256z"/><path d="m101.063 10.496c.464.256.824.592 1.08 1.008l1.56-1.32c-.416-.60801-1.008-1.07201-1.776-1.39201-.752-.32-1.536-.48-2.3524-.48-.544 0-1.072.072-1.584.216-.512.128-.968.336-1.368.624-.4.272-.728.632-.984 1.08001-.24.432-.36.952-.36 1.56 0 .528.096.976.288 1.344.208.352.472.648.792.888s.672.432 1.056.576c.4.128.792.24 1.176.336.976.224 1.7124.464 2.2084.72.512.256.768.648.768 1.176 0 .32-.064.584-.192.792s-.304.376-.528.504c-.208.128-.448.224-.72.288-.2564.048-.5284.072-.8164.072-.64 0-1.232-.152-1.776-.456-.528-.304-.944-.68-1.248-1.128l-1.608 1.368c.544.688 1.224 1.2 2.04 1.536.832.336 1.68.504 2.544.504.576 0 1.1364-.064 1.6804-.192s1.024-.336 1.44-.624c.432-.304.776-.688 1.032-1.152s.384-1.032.384-1.704c0-.496-.096-.928-.288-1.296s-.464-.68-.816-.936c-.336-.272-.736-.496-1.2-.672s-.968-.328-1.5124-.456c-.864-.192-1.512-.4-1.944-.624-.432-.24-.648-.6-.648-1.08 0-.272.056-.496.168-.672.128-.192.288-.344.48-.456.208-.128.44-.216.696-.264.256-.064.512-.096.768-.096.5764 0 1.0964.136 1.5604.408z"/><path clip-rule="evenodd" d="m126.99 10.76c.512.4.768 1.024.768 1.872v.312c-.96 0-1.912.04-2.856.12s-1.792.256-2.544.528c-.752.256-1.36.64-1.824 1.152-.464.496-.696 1.176-.696 2.04 0 .656.128 1.208.384 1.656.272.448.608.808 1.008 1.08s.84.464 1.32.576c.496.128.968.192 1.416.192.864 0 1.608-.168 2.232-.504.64-.336 1.168-.808 1.584-1.416h.072c0 .544.064 1.088.192 1.632h2.04c-.064-.272-.112-.616-.144-1.032-.016-.432-.024-.84-.024-1.224v-4.968c0-.624-.096-1.208-.288-1.752s-.48-1.016-.864-1.41601c-.384-.4-.88-.712-1.488-.936-.592-.24-1.296-.36-2.112-.36-.928 0-1.8.152-2.616.456-.8.304-1.48.72-2.04 1.24801l1.2 1.44c.384-.384.856-.696 1.416-.936.576-.256 1.184-.384 1.824-.384.848 0 1.528.208 2.04.624zm-1.536 3.888c.608-.048 1.192-.072 1.752-.072h.552v.6c0 .96-.288 1.76-.864 2.4-.56.624-1.368.936-2.424.936-.288 0-.568-.024-.84-.072-.272-.064-.52-.168-.744-.312s-.408-.328-.552-.552c-.128-.224-.192-.504-.192-.84 0-.48.16-.864.48-1.152s.72-.504 1.2-.648c.496-.144 1.04-.24 1.632-.288z" fill-rule="evenodd"/><path d="m135.894 10.496c.288-.60801.744-1.12001 1.368-1.53601.64-.432 1.392-.648 2.256-.648.768 0 1.456.176 2.064.528.624.352 1.112.936 1.464 1.75201.384-.73601.92-1.29601 1.608-1.68001.688-.4 1.44-.6 2.256-.6.736 0 1.368.128 1.896.384.528.24.968.568 1.32.984.352.41601.608.90401.768 1.46401.176.56.264 1.16.264 1.8v7.056h-2.256v-6.312c0-.464-.04-.904-.12-1.32s-.216-.784-.408-1.104-.448-.576-.768-.768-.728-.288-1.224-.288c-.512 0-.952.112-1.32.336-.368.208-.672.488-.912.84-.224.336-.392.72-.504 1.152-.096.432-.144.872-.144 1.32v6.144h-2.256v-6.768c0-.448-.04-.856-.12-1.224s-.216-.68-.408-.936c-.192-.272-.44-.48-.744-.624-.304-.16-.68-.24-1.128-.24-.832 0-1.528.344-2.088 1.032-.544.672-.816 1.576-.816 2.712v6.048h-2.256v-8.928c0-.304-.008-.696-.024-1.17601-.016-.48-.04-.904-.072-1.272h2.136c.032.288.056.616.072.984.016.352.024.64801.024.88801z"/><path d="m63.1439 29.024c.576.288 1.032.664 1.368 1.128l1.68-1.632c-.528-.592-1.224-1.064-2.088-1.416s-1.792-.528-2.784-.528c-.704 0-1.408.096-2.112.288-.688.176-1.312.464-1.872.864-.544.4-.992.904-1.344 1.512-.336.608-.504 1.336-.504 2.184 0 .784.128 1.44.384 1.968s.592.976 1.008 1.344c.416.352.888.648 1.416.888.528.224 1.064.416 1.608.576.544.176 1.056.352 1.536.528.496.16.928.36 1.296.6s.656.536.864.888c.224.336.336.76.336 1.272s-.104.952-.312 1.32c-.208.352-.48.648-.816.888-.32.24-.68.416-1.08.528s-.8.168-1.2.168c-.784 0-1.512-.184-2.184-.552s-1.208-.848-1.608-1.44l-1.848 1.56c.656.816 1.48 1.432 2.472 1.848 1.008.416 2.048.624 3.12.624.752 0 1.48-.104 2.184-.312.72-.208 1.352-.52 1.896-.936.544-.432.976-.968 1.296-1.608.336-.656.504-1.424.504-2.304 0-.848-.152-1.544-.456-2.088-.304-.56-.696-1.024-1.176-1.392s-1.016-.664-1.608-.888-1.176-.424-1.752-.6l-1.368-.456c-.416-.16-.784-.344-1.104-.552-.304-.224-.552-.488-.744-.792-.176-.32-.264-.712-.264-1.176 0-.48.096-.888.288-1.224.208-.352.472-.64.792-.864.32-.24.672-.408 1.056-.504.4-.112.792-.168 1.176-.168.72 0 1.368.152 1.944.456z"/><path d="m77.576 35.504c-.24-.368-.6-.672-1.08-.912-.48-.256-.992-.384-1.536-.384-.592 0-1.12.112-1.584.336-.448.224-.832.528-1.152.912-.32.368-.568.8-.744 1.296-.16.496-.24 1.016-.24 1.56s.08 1.064.24 1.56c.176.496.424.936.744 1.32.32.368.712.664 1.176.888s.992.336 1.584.336c.576 0 1.096-.112 1.56-.336.48-.224.872-.528 1.176-.912l1.512 1.368c-.48.56-1.08 1-1.8 1.32-.72.304-1.536.456-2.448.456-.88 0-1.696-.144-2.448-.432-.736-.288-1.376-.688-1.92-1.2-.544-.528-.976-1.16-1.296-1.896-.304-.736-.456-1.56-.456-2.472 0-.896.152-1.712.456-2.448s.728-1.368 1.272-1.896 1.184-.936 1.92-1.224c.752-.288 1.56-.432 2.424-.432.8 0 1.592.16 2.376.48.8.32 1.432.784 1.896 1.392z"/><path d="m83.6754 29.552c.304-.272.456-.616.456-1.032s-.152-.76-.456-1.032c-.288-.288-.64-.432-1.056-.432s-.768.144-1.056.432c-.288.272-.432.616-.432 1.032 0 .4.144.744.432 1.032.288.272.64.408 1.056.408s.768-.136 1.056-.408z"/><path d="m81.4914 44h2.256v-11.376h-2.256z"/><path clip-rule="evenodd" d="m98.2863 38.216v.384c0 .128-.008.256-.024.384h-9.024c.016.48.12.936.312 1.368.208.416.48.784.816 1.104.336.304.72.544 1.152.72.448.176.92.264 1.416.264.768 0 1.432-.168 1.992-.504s1-.744 1.32-1.224l1.584 1.272c-.608.8-1.328 1.392-2.16 1.776-.816.368-1.728.552-2.736.552-.864 0-1.664-.144-2.4-.432s-1.368-.688-1.896-1.2c-.528-.528-.944-1.16-1.248-1.896s-.456-1.552-.456-2.448c0-.88.144-1.688.432-2.424.304-.752.72-1.392 1.248-1.92s1.152-.936 1.872-1.224c.72-.304 1.496-.456 2.328-.456s1.584.136 2.256.408c.688.272 1.264.664 1.728 1.176.48.512.848 1.136 1.104 1.872.256.72.384 1.536.384 2.448zm-2.28-.912c-.016-.448-.096-.864-.24-1.248-.128-.4-.328-.744-.6-1.032-.256-.288-.584-.512-.984-.672-.384-.176-.84-.264-1.368-.264-.48 0-.936.088-1.368.264-.416.16-.784.384-1.104.672-.304.288-.56.632-.768 1.032-.192.384-.304.8-.336 1.248z" fill-rule="evenodd"/><path d="m103.548 33.608c-.016-.368-.04-.696-.072-.984h-2.136c.032.368.056.792.072 1.272s.024.872.024 1.176v8.928h2.256v-6.048c0-1.136.28-2.04.84-2.712.576-.688 1.312-1.032 2.208-1.032.528 0 .96.096 1.296.288s.6.448.792.768.32.688.384 1.104c.08.416.12.856.12 1.32v6.312h2.256v-7.056c0-.64-.088-1.24-.264-1.8-.16-.56-.416-1.048-.768-1.464s-.792-.744-1.32-.984c-.528-.256-1.16-.384-1.896-.384-.416 0-.816.056-1.2.168s-.736.272-1.056.48c-.32.192-.608.424-.864.696-.24.256-.432.536-.576.84h-.072c0-.24-.008-.536-.024-.888z"/><path d="m123.373 35.504c-.24-.368-.6-.672-1.08-.912-.48-.256-.992-.384-1.536-.384-.592 0-1.12.112-1.584.336-.448.224-.832.528-1.152.912-.32.368-.568.8-.744 1.296-.16.496-.24 1.016-.24 1.56s.08 1.064.24 1.56c.176.496.424.936.744 1.32.32.368.712.664 1.176.888s.992.336 1.584.336c.576 0 1.096-.112 1.56-.336.48-.224.872-.528 1.176-.912l1.512 1.368c-.48.56-1.08 1-1.8 1.32-.72.304-1.536.456-2.448.456-.88 0-1.696-.144-2.448-.432-.736-.288-1.376-.688-1.92-1.2-.544-.528-.976-1.16-1.296-1.896-.304-.736-.456-1.56-.456-2.472 0-.896.152-1.712.456-2.448s.728-1.368 1.272-1.896 1.184-.936 1.92-1.224c.752-.288 1.56-.432 2.424-.432.8 0 1.592.16 2.376.48.8.32 1.432.784 1.896 1.392z"/><path clip-rule="evenodd" d="m137.872 38.6v-.384c0-.912-.128-1.728-.384-2.448-.256-.736-.624-1.36-1.104-1.872-.464-.512-1.04-.904-1.728-1.176-.672-.272-1.424-.408-2.256-.408s-1.608.152-2.328.456c-.72.288-1.344.696-1.872 1.224s-.944 1.168-1.248 1.92c-.288.736-.432 1.544-.432 2.424 0 .896.152 1.712.456 2.448s.72 1.368 1.248 1.896c.528.512 1.16.912 1.896 1.2s1.536.432 2.4.432c1.008 0 1.92-.184 2.736-.552.832-.384 1.552-.976 2.16-1.776l-1.584-1.272c-.32.48-.76.888-1.32 1.224s-1.224.504-1.992.504c-.496 0-.968-.088-1.416-.264-.432-.176-.816-.416-1.152-.72-.336-.32-.608-.688-.816-1.104-.192-.432-.296-.888-.312-1.368h9.024c.016-.128.024-.256.024-.384zm-2.52-2.544c.144.384.224.8.24 1.248h-6.768c.032-.448.144-.864.336-1.248.208-.4.464-.744.768-1.032.32-.288.688-.512 1.104-.672.432-.176.888-.264 1.368-.264.528 0 .984.088 1.368.264.4.16.728.384.984.672.272.288.472.632.6 1.032z" fill-rule="evenodd"/></g></svg>