<svg fill="none" height="48" viewBox="0 0 48 48" width="48" xmlns="http://www.w3.org/2000/svg"><path clip-rule="evenodd" d="m0 24c0-13.2549 10.7452-24 24-24s24 10.7451 24 24-10.7452 24-24 24-24-10.7451-24-24zm25.9999-10c0 1.1046-.8954 2-2 2-1.1045 0-2-.8954-2-2s.8955-2 2-2c1.1046 0 2 .8954 2 2zm-9.9999 10c0 1.1045-.8954 2-2 2s-2-.8955-2-2c0-1.1046.8954-2 2-2s2 .8954 2 2zm7.9999 2c1.1046 0 2-.8955 2-2 0-1.1046-.8954-2-2-2-1.1045 0-2 .8954-2 2 0 1.1045.8955 2 2 2zm7.0001-2c0 1.1045-.8954 2-2 2s-2-.8955-2-2c0-1.1046.8954-2 2-2s2 .8954 2 2zm3.0001 2c1.1045 0 2-.8955 2-2 0-1.1046-.8955-2-2-2-1.1047 0-2 .8954-2 2 0 1.1045.8953 2 2 2zm-8.0002 8c0 1.1046-.8954 2-2 2-1.1045 0-2-.8954-2-2s.8955-2 2-2c1.1046 0 2 .8954 2 2zm-7-18.5c.8284 0 1.5-.6716 1.5-1.5s-.6716-1.5-1.5-1.5c-.8285 0-1.5.6716-1.5 1.5s.6715 1.5 1.5 1.5zm10.0001 0c.8284 0 1.5-.6716 1.5-1.5s-.6716-1.5-1.5-1.5-1.5.6716-1.5 1.5.6716 1.5 1.5 1.5zm-13.5 3.5c0 .8284-.6716 1.5-1.5 1.5s-1.5-.6716-1.5-1.5c0-.8285.6716-1.5 1.5-1.5s1.5.6715 1.5 1.5zm18.4999 1.5c.8284 0 1.5-.6716 1.5-1.5 0-.8285-.6716-1.5-1.5-1.5-.8285 0-1.5.6715-1.5 1.5 0 .8284.6715 1.5 1.5 1.5zm-18.4999 8.5c0 .8284-.6716 1.5-1.5 1.5s-1.5-.6716-1.5-1.5c0-.8285.6716-1.5 1.5-1.5s1.5.6715 1.5 1.5zm18.4999 1.5c.8284 0 1.5-.6716 1.5-1.5 0-.8285-.6716-1.5-1.5-1.5-.8285 0-1.5.6715-1.5 1.5 0 .8284.6715 1.5 1.5 1.5zm-13.5 3.5c0 .8284-.6716 1.5-1.5 1.5-.8285 0-1.5-.6716-1.5-1.5 0-.8285.6715-1.5 1.5-1.5.8284 0 1.5.6715 1.5 1.5zm8.5001 1.5c.8284 0 1.5-.6716 1.5-1.5 0-.8285-.6716-1.5-1.5-1.5s-1.5.6715-1.5 1.5c0 .8284.6716 1.5 1.5 1.5zm-14-21.5c0 .5522-.4477 1-1 1s-1-.4478-1-1 .4477-1 1-1 1 .4478 1 1zm20.0001 0c0 .5522-.4478 1-1 1-.5523 0-1-.4478-1-1s.4477-1 1-1c.5522 0 1 .4478 1 1zm-21.0001 21c.5523 0 1-.4478 1-1s-.4477-1-1-1-1 .4478-1 1 .4477 1 1 1zm21.0001-1c0 .5522-.4478 1-1 1-.5523 0-1-.4478-1-1s.4477-1 1-1c.5522 0 1 .4478 1 1zm-8.5001-15.5c-.3314 0-.6093-.2332-.7783-.5183-.3483-.5877-.989-.9817-1.7217-.9817s-1.3734.394-1.7217.9818c-.169.285-.4469.5182-.7783.5182s-.6093-.2332-.7782-.5182c-.3483-.5878-.989-.9818-1.7217-.9818-1.1046 0-2 .8954-2 2 0 .7327.3939 1.3734.9817 1.7217.285.169.5182.4469.5182.7783s-.2332.6093-.5182.7782c-.5878.3484-.9818.9891-.9818 1.7218s.394 1.3734.9818 1.7217c.285.169.5182.4469.5182.7783s-.2332.6093-.5182.7782c-.5878.3484-.9818.989-.9818 1.7218 0 1.1045.8954 2 2 2 .7327 0 1.3734-.394 1.7217-.9818.169-.285.4469-.5182.7783-.5182s.6093.2332.7783.5182c.3483.5878.989.9818 1.7217.9818s1.3734-.394 1.7217-.9818c.169-.285.4469-.5182.7783-.5182s.6093.2332.7783.5182c.3483.5878.989.9818 1.7217.9818 1.1046 0 2-.8955 2-2 0-1.1046-.8954-2-2-2-.7327 0-1.3734.394-1.7217.9817-.169.2851-.4469.5183-.7783.5183s-.6093-.2332-.7783-.5183c-.3483-.5877-.989-.9817-1.7217-.9817s-1.3734.394-1.7217.9817c-.169.2851-.4469.5183-.7783.5183s-.6093-.2332-.7783-.5183c-.1715-.2894-.414-.5319-.7035-.7035-.285-.1689-.5182-.4468-.5182-.7782s.2332-.6093.5182-.7783c.5878-.3483.9818-.989.9818-1.7217 0-.7328-.394-1.3734-.9818-1.7218-.285-.1689-.5182-.4468-.5182-.7782 0-.3313.2332-.6093.5182-.7782.2895-.1716.532-.4141.7036-.7036.1689-.285.4468-.5182.7782-.5182s.6093.2332.7783.5182c.3483.5878.989.9818 1.7217.9818s1.3734-.394 1.7217-.9817c.169-.2851.4469-.5183.7783-.5183s.6093.2332.7783.5183c.3483.5877.989.9817 1.7217.9817 1.1046 0 2-.8954 2-2s-.8954-2-2-2c-.7327 0-1.3734.394-1.7217.9817-.169.2851-.4469.5183-.7783.5183z" fill="#000" fill-rule="evenodd"/></svg>