<svg fill="none" height="48" viewBox="0 0 152 48" width="152" xmlns="http://www.w3.org/2000/svg"><path d="m27.9999 4c0 2.20914-1.7909 4-4 4-2.2092 0-4-1.79086-4-4s1.7908-4 4-4c2.2091 0 4 1.79086 4 4z" fill="#ffab40"/><path d="m8 24c0 2.2091-1.79086 4-4 4s-4-1.7909-4-4 1.79086-4 4-4 4 1.7909 4 4z" fill="#ffab40"/><path d="m27.9999 24c0 2.2091-1.7909 4-4 4-2.2092 0-4-1.7909-4-4s1.7908-4 4-4c2.2091 0 4 1.7909 4 4z" fill="#ffab40"/><path d="m38 24c0 2.2091-1.7909 4-4 4s-4-1.7909-4-4 1.7909-4 4-4 4 1.7909 4 4z" fill="#ffab40"/><path d="m48.0001 24c0 2.2091-1.7908 4-4 4-2.2091 0-4-1.7909-4-4s1.7909-4 4-4c2.2092 0 4 1.7909 4 4z" fill="#ffab40"/><path d="m27.9999 44c0 2.2091-1.7909 4-4 4-2.2092 0-4-1.7909-4-4s1.7908-4 4-4c2.2091 0 4 1.7909 4 4z" fill="#ffab40"/><path d="m16.9998 4c0 1.65685-1.3432 3-3 3-1.6569 0-3-1.34315-3-3s1.3431-3 3-3c1.6568 0 3 1.34315 3 3z" fill="#ffd180"/><path d="m37 4c0 1.65685-1.3431 3-3 3s-3-1.34315-3-3 1.3431-3 3-3 3 1.34315 3 3z" fill="#ffd180"/><path d="m7 14c0 1.6568-1.34315 3-3 3s-3-1.3432-3-3c0-1.6569 1.34315-3 3-3s3 1.3431 3 3z" fill="#ffd180"/><path d="m46.9998 14c0 1.6568-1.3432 3-3 3-1.6569 0-3-1.3432-3-3 0-1.6569 1.3431-3 3-3 1.6568 0 3 1.3431 3 3z" fill="#ffd180"/><path d="m7 34c0 1.6568-1.34315 3-3 3s-3-1.3432-3-3c0-1.6569 1.34315-3 3-3s3 1.3431 3 3z" fill="#ffd180"/><path d="m46.9998 34c0 1.6568-1.3432 3-3 3-1.6569 0-3-1.3432-3-3 0-1.6569 1.3431-3 3-3 1.6568 0 3 1.3431 3 3z" fill="#ffd180"/><path d="m16.9998 44c0 1.6569-1.3432 3-3 3-1.6569 0-3-1.3431-3-3s1.3431-3 3-3c1.6568 0 3 1.3431 3 3z" fill="#ffd180"/><path d="m37 44c0 1.6569-1.3431 3-3 3s-3-1.3431-3-3 1.3431-3 3-3 3 1.3431 3 3z" fill="#ffd180"/><path d="m5.99976 4c0 1.10457-.89543 2-2 2s-2-.89543-2-2 .89543-2 2-2 2 .89543 2 2z" fill="#ffe0b2"/><path d="m45.9999 4c0 1.10457-.8955 2-2 2-1.1046 0-2-.89543-2-2s.8954-2 2-2c1.1045 0 2 .89543 2 2z" fill="#ffe0b2"/><path d="m5.99976 44c0 1.1046-.89543 2-2 2s-2-.8954-2-2 .89543-2 2-2 2 .8954 2 2z" fill="#ffe0b2"/><path d="m45.9999 44c0 1.1046-.8955 2-2 2-1.1046 0-2-.8954-2-2s.8954-2 2-2c1.1045 0 2 .8954 2 2z" fill="#ffe0b2"/><path d="m19.0001 15c-.6628 0-1.2186.4663-1.5564 1.0364-.3432.579-.8282 1.064-1.4072 1.4072-.5701.3379-1.0365.8937-1.0365 1.5564 0 .6628.4664 1.2186 1.0365 1.5565 1.1754.6967 1.9635 1.978 1.9635 3.4435 0 1.4654-.788 2.7468-1.9635 3.4435-.5701.3379-1.0365.8937-1.0365 1.5565s.4663 1.2186 1.0365 1.5565c.5789.3431 1.0639.8281 1.407 1.407.3379.5702.8937 1.0365 1.5565 1.0365s1.2186-.4664 1.5565-1.0365c.6967-1.1755 1.9781-1.9635 3.4435-1.9635s2.7468.788 3.4435 1.9635c.3379.5701.8937 1.0365 1.5565 1.0365s1.2186-.4664 1.5565-1.0365c.6967-1.1755 1.9781-1.9635 3.4435-1.9635 2.2091 0 4 1.7909 4 4s-1.7909 4-4 4c-1.4654 0-2.7468-.788-3.4435-1.9635-.3379-.5701-.8937-1.0365-1.5565-1.0365s-1.2186.4664-1.5565 1.0365c-.6967 1.1755-1.9781 1.9635-3.4435 1.9635s-2.7468-.788-3.4435-1.9635c-.3379-.5701-.8937-1.0365-1.5565-1.0365s-1.2186.4664-1.5565 1.0365c-.6967 1.1755-1.9781 1.9635-3.4435 1.9635-2.2091 0-4-1.7909-4-4 0-1.4654.788-2.7468 1.9635-3.4435.5701-.3379 1.0365-.8937 1.0365-1.5565s-.4664-1.2186-1.0365-1.5565c-1.1755-.6967-1.9635-1.9781-1.9635-3.4435s.788-2.7468 1.9635-3.4435c.5701-.3379 1.0365-.8937 1.0365-1.5565s-.4664-1.2186-1.0365-1.5566c-1.1754-.6967-1.9634-1.978-1.9634-3.4434 0-2.2091 1.7909-4 4-4 1.4655 0 2.7469.7881 3.4435 1.9635.3379.5702.8937 1.0365 1.5565 1.0365.6627 0 1.2185-.4663 1.5564-1.0365.6966-1.1754 1.978-1.9635 3.4435-1.9635 1.4654 0 2.7468.788 3.4435 1.9635.3379.5701.8937 1.0365 1.5565 1.0365s1.2186-.4664 1.5565-1.0365c.6967-1.1755 1.9781-1.9635 3.4435-1.9635 2.2091 0 4 1.7909 4 4s-1.7909 4-4 4c-1.4654 0-2.7468-.788-3.4435-1.9635-.3379-.5701-.8937-1.0365-1.5565-1.0365s-1.2186.4664-1.5565 1.0365c-.6967 1.1755-1.9781 1.9635-3.4435 1.9635-1.4655 0-2.7469-.7881-3.4435-1.9635-.3379-.5702-.8937-1.0365-1.5564-1.0365z" fill="#ff6d00"/><g fill="#fff"><path d="m70.6319 17.36c-.672.912-1.544 1.656-2.616 2.232-1.072.56-2.36.84-3.864.84-1.296 0-2.496-.216-3.6-.648-1.088-.448-2.032-1.064-2.832-1.848-.784-.8-1.4-1.744-1.848-2.832-.448-1.104-.672-2.312-.672-3.624 0-1.328.224-2.53601.672-3.62401.464-1.104 1.096-2.04 1.896-2.808.816-.784 1.776-1.392 2.88-1.824s2.304-.648 3.6-.648c.576 0 1.16.056 1.752.168s1.16.28 1.704.504 1.04.504 1.488.84c.448.32.832.696 1.152 1.128l-1.872 1.44c-.416-.576-1.008-1.048-1.776-1.416-.752-.384-1.568-.576-2.448-.576-.992 0-1.888.184-2.688.552-.784.352-1.456.84-2.016 1.464s-.992 1.352-1.296 2.184c-.304.816-.456 1.68801-.456 2.61601 0 .96.144 1.856.432 2.688.304.832.728 1.56 1.272 2.184.56.608 1.232 1.088 2.016 1.44.8.352 1.688.528 2.664.528.96 0 1.832-.192 2.616-.576s1.432-.944 1.944-1.68z"/><path d="m84.1749 14.288c0 .88-.16 1.688-.48 2.424-.304.736-.736 1.376-1.296 1.92-.544.528-1.192.944-1.944 1.248-.752.288-1.56.432-2.424.432s-1.672-.144-2.424-.432c-.752-.304-1.4-.72-1.944-1.248-.544-.544-.976-1.184-1.296-1.92-.304-.736-.456-1.544-.456-2.424s.152-1.68.456-2.4c.32-.736.752-1.368 1.296-1.89601.544-.528 1.192-.936 1.944-1.224.752-.304 1.56-.456 2.424-.456s1.672.152 2.424.456c.752.288 1.4.696 1.944 1.224.56.52801.992 1.16001 1.296 1.89601.32.72.48 1.52.48 2.4zm-2.352 0c0-.544-.088-1.064-.264-1.56-.16-.496-.4-.928-.72-1.296-.32-.384-.72-.688-1.2-.912-.464-.224-1-.336-1.608-.336s-1.152.112-1.632.336c-.464.224-.856.528-1.176.912-.32.368-.568.8-.744 1.296-.16.496-.24 1.016-.24 1.56s.08 1.064.24 1.56c.176.496.424.936.744 1.32s.712.688 1.176.912c.48.224 1.024.336 1.632.336s1.144-.112 1.608-.336c.48-.224.88-.528 1.2-.912s.56-.824.72-1.32c.176-.496.264-1.016.264-1.56z"/><path d="m87.3033 11.072c0-.304-.008-.696-.024-1.17601-.016-.48-.04-.904-.072-1.272h2.136c.032.288.056.624.072 1.008.016.368.024.67201.024.91201h.072c.32-.67201.784-1.20801 1.392-1.60801.624-.416 1.32-.624 2.088-.624.352 0 .648.032.888.096l-.096 2.08801c-.32-.08-.664-.12-1.032-.12-.544 0-1.016.104-1.416.312-.4.192-.736.456-1.008.792-.256.336-.448.728-.576 1.176-.128.432-.192.888-.192 1.368v5.976h-2.256z"/><path d="m102.143 11.504c-.256-.416-.616-.752-1.08-1.008-.464-.272-.984-.408-1.5604-.408-.256 0-.512.032-.768.096-.256.048-.488.136-.696.264-.192.112-.352.264-.48.456-.112.176-.168.4-.168.672 0 .48.216.84.648 1.08.432.224 1.08.432 1.944.624.5444.128 1.0484.28 1.5124.456s.864.4 1.2.672c.352.256.624.568.816.936s.288.8.288 1.296c0 .672-.128 1.24-.384 1.704s-.6.848-1.032 1.152c-.416.288-.896.496-1.44.624s-1.1044.192-1.6804.192c-.864 0-1.712-.168-2.544-.504-.816-.336-1.496-.848-2.04-1.536l1.608-1.368c.304.448.72.824 1.248 1.128.544.304 1.136.456 1.776.456.288 0 .56-.024.8164-.072.272-.064.512-.16.72-.288.224-.128.4-.296.528-.504s.192-.472.192-.792c0-.528-.256-.92-.768-1.176-.496-.256-1.2324-.496-2.2084-.72-.384-.096-.776-.208-1.176-.336-.384-.144-.736-.336-1.056-.576s-.584-.536-.792-.888c-.192-.368-.288-.816-.288-1.344 0-.608.12-1.128.36-1.56.256-.44801.584-.80801.984-1.08001.4-.288.856-.496 1.368-.624.512-.144 1.04-.216 1.584-.216.8164 0 1.6004.16 2.3524.48.768.32 1.36.784 1.776 1.39201z"/><path d="m109.015 10.352c.272-.56001.736-1.04001 1.392-1.44001s1.392-.6 2.208-.6c.736 0 1.368.128 1.896.384.528.24.968.568 1.32.984.352.41601.608.90401.768 1.46401.176.56.264 1.16.264 1.8v7.056h-2.256v-6.288c0-.464-.04-.904-.12-1.32-.064-.416-.192-.784-.384-1.104s-.456-.576-.792-.768c-.32-.192-.744-.288-1.272-.288-.896 0-1.632.344-2.208 1.032-.576.672-.864 1.576-.864 2.712v6.024h-2.256v-18.14401h2.256v8.49601z"/><path d="m127.758 12.632c0-.848-.256-1.472-.768-1.872-.512-.416-1.192-.624-2.04-.624-.64 0-1.248.128-1.824.384-.56.24-1.032.552-1.416.936l-1.2-1.44c.56-.52801 1.24-.94401 2.04-1.24801.816-.304 1.688-.456 2.616-.456.816 0 1.52.12 2.112.36.608.224 1.104.536 1.488.936.384.40001.672.87201.864 1.41601s.288 1.128.288 1.752v4.968c0 .384.008.792.024 1.224.032.416.08.76.144 1.032h-2.04c-.128-.544-.192-1.088-.192-1.632h-.072c-.416.608-.944 1.08-1.584 1.416-.624.336-1.368.504-2.232.504-.448 0-.92-.064-1.416-.192-.48-.112-.92-.304-1.32-.576s-.736-.632-1.008-1.08c-.256-.448-.384-1-.384-1.656 0-.864.232-1.544.696-2.04.464-.512 1.072-.896 1.824-1.152.752-.272 1.6-.448 2.544-.528s1.896-.12 2.856-.12zm-.552 1.944c-.56 0-1.144.024-1.752.072-.592.048-1.136.144-1.632.288-.48.144-.88.36-1.2.648s-.48.672-.48 1.152c0 .336.064.616.192.84.144.224.328.408.552.552s.472.248.744.312c.272.048.552.072.84.072 1.056 0 1.864-.312 2.424-.936.576-.64.864-1.44.864-2.4v-.6z"/><path d="m135.894 10.496c.288-.60801.744-1.12001 1.368-1.53601.64-.432 1.392-.648 2.256-.648.768 0 1.456.176 2.064.528.624.352 1.112.936 1.464 1.75201.384-.73601.92-1.29601 1.608-1.68001.688-.4 1.44-.6 2.256-.6.736 0 1.368.128 1.896.384.528.24.968.568 1.32.984.352.41601.608.90401.768 1.46401.176.56.264 1.16.264 1.8v7.056h-2.256v-6.312c0-.464-.04-.904-.12-1.32s-.216-.784-.408-1.104-.448-.576-.768-.768-.728-.288-1.224-.288c-.512 0-.952.112-1.32.336-.368.208-.672.488-.912.84-.224.336-.392.72-.504 1.152-.096.432-.144.872-.144 1.32v6.144h-2.256v-6.768c0-.448-.04-.856-.12-1.224s-.216-.68-.408-.936c-.192-.272-.44-.48-.744-.624-.304-.16-.68-.24-1.128-.24-.832 0-1.528.344-2.088 1.032-.544.672-.816 1.576-.816 2.712v6.048h-2.256v-8.928c0-.304-.008-.696-.024-1.17601-.016-.48-.04-.904-.072-1.272h2.136c.032.288.056.616.072.984.016.352.024.64801.024.88801z"/><path d="m64.5119 30.152c-.336-.464-.792-.84-1.368-1.128-.576-.304-1.224-.456-1.944-.456-.384 0-.776.056-1.176.168-.384.096-.736.264-1.056.504-.32.224-.584.512-.792.864-.192.336-.288.744-.288 1.224 0 .464.088.856.264 1.176.192.304.44.568.744.792.32.208.688.392 1.104.552.432.144.888.296 1.368.456.576.176 1.16.376 1.752.6s1.128.52 1.608.888.872.832 1.176 1.392c.304.544.456 1.24.456 2.088 0 .88-.168 1.648-.504 2.304-.32.64-.752 1.176-1.296 1.608-.544.416-1.176.728-1.896.936-.704.208-1.432.312-2.184.312-1.072 0-2.112-.208-3.12-.624-.992-.416-1.816-1.032-2.472-1.848l1.848-1.56c.4.592.936 1.072 1.608 1.44s1.4.552 2.184.552c.4 0 .8-.056 1.2-.168s.76-.288 1.08-.528c.336-.24.608-.536.816-.888.208-.368.312-.808.312-1.32s-.112-.936-.336-1.272c-.208-.352-.496-.648-.864-.888s-.8-.44-1.296-.6c-.48-.176-.992-.352-1.536-.528-.544-.16-1.08-.352-1.608-.576-.528-.24-1-.536-1.416-.888-.416-.368-.752-.816-1.008-1.344s-.384-1.184-.384-1.968c0-.848.168-1.576.504-2.184.352-.608.8-1.112 1.344-1.512.56-.4 1.184-.688 1.872-.864.704-.192 1.408-.288 2.112-.288.992 0 1.92.176 2.784.528s1.56.824 2.088 1.416z"/><path d="m77.576 35.504c-.24-.368-.6-.672-1.08-.912-.48-.256-.992-.384-1.536-.384-.592 0-1.12.112-1.584.336-.448.224-.832.528-1.152.912-.32.368-.568.8-.744 1.296-.16.496-.24 1.016-.24 1.56s.08 1.064.24 1.56c.176.496.424.936.744 1.32.32.368.712.664 1.176.888s.992.336 1.584.336c.576 0 1.096-.112 1.56-.336.48-.224.872-.528 1.176-.912l1.512 1.368c-.48.56-1.08 1-1.8 1.32-.72.304-1.536.456-2.448.456-.88 0-1.696-.144-2.448-.432-.736-.288-1.376-.688-1.92-1.2-.544-.528-.976-1.16-1.296-1.896-.304-.736-.456-1.56-.456-2.472 0-.896.152-1.712.456-2.448s.728-1.368 1.272-1.896 1.184-.936 1.92-1.224c.752-.288 1.56-.432 2.424-.432.8 0 1.592.16 2.376.48.8.32 1.432.784 1.896 1.392z"/><path d="m83.7474 44h-2.256v-11.376h2.256zm.384-15.48c0 .416-.152.76-.456 1.032-.288.272-.64.408-1.056.408s-.768-.136-1.056-.408c-.288-.288-.432-.632-.432-1.032 0-.416.144-.76.432-1.032.288-.288.64-.432 1.056-.432s.768.144 1.056.432c.304.272.456.616.456 1.032z"/><path d="m96.0063 37.304c-.016-.448-.096-.864-.24-1.248-.128-.4-.328-.744-.6-1.032-.256-.288-.584-.512-.984-.672-.384-.176-.84-.264-1.368-.264-.48 0-.936.088-1.368.264-.416.16-.784.384-1.104.672-.304.288-.56.632-.768 1.032-.192.384-.304.8-.336 1.248zm2.28.912v.384c0 .128-.008.256-.024.384h-9.024c.016.48.12.936.312 1.368.208.416.48.784.816 1.104.336.304.72.544 1.152.72.448.176.92.264 1.416.264.768 0 1.432-.168 1.992-.504s1-.744 1.32-1.224l1.584 1.272c-.608.8-1.328 1.392-2.16 1.776-.816.368-1.728.552-2.736.552-.864 0-1.664-.144-2.4-.432s-1.368-.688-1.896-1.2c-.528-.528-.944-1.16-1.248-1.896s-.456-1.552-.456-2.448c0-.88.144-1.688.432-2.424.304-.752.72-1.392 1.248-1.92s1.152-.936 1.872-1.224c.72-.304 1.496-.456 2.328-.456s1.584.136 2.256.408c.688.272 1.264.664 1.728 1.176.48.512.848 1.136 1.104 1.872.256.72.384 1.536.384 2.448z"/><path d="m103.476 32.624c.032.288.056.616.072.984.016.352.024.648.024.888h.072c.144-.304.336-.584.576-.84.256-.272.544-.504.864-.696.32-.208.672-.368 1.056-.48s.784-.168 1.2-.168c.736 0 1.368.128 1.896.384.528.24.968.568 1.32.984s.608.904.768 1.464c.176.56.264 1.16.264 1.8v7.056h-2.256v-6.312c0-.464-.04-.904-.12-1.32-.064-.416-.192-.784-.384-1.104s-.456-.576-.792-.768-.768-.288-1.296-.288c-.896 0-1.632.344-2.208 1.032-.56.672-.84 1.576-.84 2.712v6.048h-2.256v-8.928c0-.304-.008-.696-.024-1.176s-.04-.904-.072-1.272z"/><path d="m123.373 35.504c-.24-.368-.6-.672-1.08-.912-.48-.256-.992-.384-1.536-.384-.592 0-1.12.112-1.584.336-.448.224-.832.528-1.152.912-.32.368-.568.8-.744 1.296-.16.496-.24 1.016-.24 1.56s.08 1.064.24 1.56c.176.496.424.936.744 1.32.32.368.712.664 1.176.888s.992.336 1.584.336c.576 0 1.096-.112 1.56-.336.48-.224.872-.528 1.176-.912l1.512 1.368c-.48.56-1.08 1-1.8 1.32-.72.304-1.536.456-2.448.456-.88 0-1.696-.144-2.448-.432-.736-.288-1.376-.688-1.92-1.2-.544-.528-.976-1.16-1.296-1.896-.304-.736-.456-1.56-.456-2.472 0-.896.152-1.712.456-2.448s.728-1.368 1.272-1.896 1.184-.936 1.92-1.224c.752-.288 1.56-.432 2.424-.432.8 0 1.592.16 2.376.48.8.32 1.432.784 1.896 1.392z"/><path d="m135.592 37.304c-.016-.448-.096-.864-.24-1.248-.128-.4-.328-.744-.6-1.032-.256-.288-.584-.512-.984-.672-.384-.176-.84-.264-1.368-.264-.48 0-.936.088-1.368.264-.416.16-.784.384-1.104.672-.304.288-.56.632-.768 1.032-.192.384-.304.8-.336 1.248zm2.28.912v.384c0 .128-.008.256-.024.384h-9.024c.016.48.12.936.312 1.368.208.416.48.784.816 1.104.336.304.72.544 1.152.72.448.176.92.264 1.416.264.768 0 1.432-.168 1.992-.504s1-.744 1.32-1.224l1.584 1.272c-.608.8-1.328 1.392-2.16 1.776-.816.368-1.728.552-2.736.552-.864 0-1.664-.144-2.4-.432s-1.368-.688-1.896-1.2c-.528-.528-.944-1.16-1.248-1.896s-.456-1.552-.456-2.448c0-.88.144-1.688.432-2.424.304-.752.72-1.392 1.248-1.92s1.152-.936 1.872-1.224c.72-.304 1.496-.456 2.328-.456s1.584.136 2.256.408c.688.272 1.264.664 1.728 1.176.48.512.848 1.136 1.104 1.872.256.72.384 1.536.384 2.448z"/></g></svg>