<svg fill="none" height="48" viewBox="0 0 48 48" width="48" xmlns="http://www.w3.org/2000/svg" xmlns:xlink="http://www.w3.org/1999/xlink"><linearGradient id="a" gradientUnits="userSpaceOnUse" x1="48" x2="0" y1="0" y2="48"><stop offset="0" stop-color="#ff1744"/><stop offset="1" stop-color="#ffd740"/></linearGradient><path d="m0 0h48v48h-48z" fill="url(#a)"/><g fill="#fff"><path d="m25.9999 14c0 1.1046-.8954 2-2 2-1.1045 0-2-.8954-2-2s.8955-2 2-2c1.1046 0 2 .8954 2 2z" fill-opacity=".6"/><path d="m16 24c0 1.1045-.8954 2-2 2s-2-.8955-2-2c0-1.1046.8954-2 2-2s2 .8954 2 2z" fill-opacity=".6"/><path d="m25.9999 24c0 1.1045-.8954 2-2 2-1.1045 0-2-.8955-2-2 0-1.1046.8955-2 2-2 1.1046 0 2 .8954 2 2z" fill-opacity=".6"/><path d="m31 24c0 1.1045-.8954 2-2 2s-2-.8955-2-2c0-1.1046.8954-2 2-2s2 .8954 2 2z" fill-opacity=".6"/><path d="m36 24c0 1.1045-.8954 2-2 2-1.1045 0-2-.8955-2-2 0-1.1046.8955-2 2-2 1.1046 0 2 .8954 2 2z" fill-opacity=".6"/><path d="m25.9999 34c0 1.1046-.8954 2-2 2-1.1045 0-2-.8954-2-2s.8955-2 2-2c1.1046 0 2 .8954 2 2z" fill-opacity=".6"/><path d="m20.4999 14c0 .8284-.6716 1.5-1.5 1.5-.8285 0-1.5-.6716-1.5-1.5s.6715-1.5 1.5-1.5c.8284 0 1.5.6716 1.5 1.5z" fill-opacity=".4"/><path d="m30.5 14c0 .8284-.6716 1.5-1.5 1.5s-1.5-.6716-1.5-1.5.6716-1.5 1.5-1.5 1.5.6716 1.5 1.5z" fill-opacity=".4"/><path d="m15.5 19c0 .8284-.6716 1.5-1.5 1.5s-1.5-.6716-1.5-1.5c0-.8285.6716-1.5 1.5-1.5s1.5.6715 1.5 1.5z" fill-opacity=".4"/><path d="m35.4999 19c0 .8284-.6716 1.5-1.5 1.5-.8285 0-1.5-.6716-1.5-1.5 0-.8285.6715-1.5 1.5-1.5.8284 0 1.5.6715 1.5 1.5z" fill-opacity=".4"/><path d="m15.5 29c0 .8284-.6716 1.5-1.5 1.5s-1.5-.6716-1.5-1.5.6716-1.5 1.5-1.5 1.5.6716 1.5 1.5z" fill-opacity=".4"/><path d="m35.4999 29c0 .8284-.6716 1.5-1.5 1.5-.8285 0-1.5-.6716-1.5-1.5s.6715-1.5 1.5-1.5c.8284 0 1.5.6716 1.5 1.5z" fill-opacity=".4"/><path d="m20.4999 33.9999c0 .8285-.6716 1.5-1.5 1.5-.8285 0-1.5-.6715-1.5-1.5 0-.8284.6715-1.5 1.5-1.5.8284 0 1.5.6716 1.5 1.5z" fill-opacity=".4"/><path d="m30.5 33.9999c0 .8285-.6716 1.5-1.5 1.5s-1.5-.6715-1.5-1.5c0-.8284.6716-1.5 1.5-1.5s1.5.6716 1.5 1.5z" fill-opacity=".4"/><path d="m15 14c0 .5523-.4477 1-1 1s-1-.4477-1-1 .4477-1 1-1 1 .4477 1 1z" fill-opacity=".2"/><path d="m35 14c0 .5523-.4477 1-1 1-.5522 0-1-.4477-1-1s.4478-1 1-1c.5523 0 1 .4477 1 1z" fill-opacity=".2"/><path d="m15 34c0 .5523-.4477 1-1 1s-1-.4477-1-1 .4477-1 1-1 1 .4477 1 1z" fill-opacity=".2"/><path d="m35 34c0 .5523-.4477 1-1 1-.5522 0-1-.4477-1-1s.4478-1 1-1c.5523 0 1 .4477 1 1z" fill-opacity=".2"/><path d="m25.7217 17.9817c.169.2851.4469.5183.7783.5183s.6093-.2332.7782-.5183c.3484-.5877.9891-.9817 1.7218-.9817 1.1046 0 2 .8954 2 2s-.8954 2-2 2c-.7327 0-1.3734-.394-1.7218-.9817-.1689-.2851-.4468-.5183-.7782-.5183s-.6093.2332-.7783.5183c-.3483.5877-.989.9817-1.7217.9817s-1.3734-.394-1.7218-.9818c-.1689-.285-.4468-.5182-.7782-.5182-.3313 0-.6092.2332-.7782.5182-.1715.2895-.4141.532-.7036.7036-.285.1689-.5182.4468-.5182.7782s.2332.6093.5182.7782c.5878.3484.9818.9891.9818 1.7218s-.394 1.3734-.9817 1.7217c-.2851.169-.5183.4469-.5183.7783s.2332.6093.5182.7782c.2895.1716.532.4141.7035.7035.169.2851.4469.5183.7783.5183s.6093-.2332.7782-.5183c.3484-.5877.9891-.9817 1.7218-.9817s1.3734.394 1.7217.9817c.169.2851.4469.5183.7783.5183s.6093-.2332.7782-.5183c.3484-.5877.9891-.9817 1.7218-.9817 1.1046 0 2 .8954 2 2s-.8954 2-2 2c-.7327 0-1.3734-.394-1.7218-.9818-.1689-.285-.4468-.5182-.7782-.5182s-.6093.2332-.7783.5182c-.3483.5878-.989.9818-1.7217.9818s-1.3734-.394-1.7217-.9818c-.169-.285-.4469-.5182-.7783-.5182s-.6093.2332-.7783.5182c-.3483.5878-.989.9818-1.7217.9818-1.1046 0-2-.8954-2-2 0-.7327.394-1.3734.9817-1.7218.2851-.1689.5183-.4468.5183-.7782s-.2332-.6093-.5183-.7783c-.5877-.3483-.9817-.989-.9817-1.7217s.394-1.3734.9817-1.7217c.2851-.169.5183-.4469.5183-.7783s-.2332-.6093-.5182-.7783c-.5877-.3483-.9817-.989-.9817-1.7217 0-1.1046.8954-2 2-2 .7327 0 1.3734.394 1.7217.9818.169.285.4469.5182.7782.5182.3314 0 .6093-.2332.7782-.5182.3484-.5878.9891-.9818 1.7218-.9818s1.3734.394 1.7217.9817z"/></g></svg>