<svg fill="none" height="24" viewBox="0 0 185 24" width="185" xmlns="http://www.w3.org/2000/svg"><g fill="#000"><path d="m7.24149 13.3313c-.27638 0-.49753-.1935-.49753-.4699 0-.129.0645-.2856.18428-.4422l6.63336-8.31937c.4607-.57123 1.2162-.18427.9398.52512l-2.1927 5.91475h4.0998c.2764 0 .4975.1843.4975.4607 0 .1382-.0645.2948-.1843.4422l-6.6334 8.3286c-.46063.562-1.21612.1843-.93973-.5252l2.19273-5.9147z"/><path clip-rule="evenodd" d="m24 12.0046c0 6.5597-5.4357 11.9954-12.0046 11.9954-6.55971 0-11.9954-5.4357-11.9954-11.9954 0-6.56891 5.42649-12.0046 11.9862-12.0046 6.5689 0 12.0138 5.43569 12.0138 12.0046zm-22.27716 0c0 5.6936 4.57887 10.2818 10.27256 10.2818 5.7029 0 10.2818-4.5882 10.2818-10.2818 0-5.70289-4.5881-10.28177-10.291-10.28177-5.69369 0-10.26336 4.57888-10.26336 10.28177z" fill-rule="evenodd"/><path d="m30 0h1v24h-1z"/><path clip-rule="evenodd" d="m38.8 18v-14h5.96c.9467 0 1.7933.20667 2.54.62.76.41333 1.3467.98 1.76 1.7.4267.70667.64 1.5.64 2.38s-.2133 1.68-.64 2.4c-.4133.7067-1 1.2667-1.76 1.68-.7467.4133-1.5933.62-2.54.62h-2.96v4.6zm5.86-7.3c.5733 0 1.0533-.1933 1.44-.58.4-.4.6-.87333.6-1.42s-.2-1.01333-.6-1.4c-.3867-.4-.8667-.6-1.44-.6h-2.86v4z" fill-rule="evenodd"/><path d="m51.2008 18v-14h2.7v5.68h.06c.24-.4.6133-.76 1.12-1.08.52-.33333 1.1133-.5 1.78-.5.7066 0 1.3333.16667 1.88.5.5466.33333.9733.81333 1.28 1.44.32.6133.48 1.3467.48 2.2v5.76h-2.7v-5.4c0-.6-.1667-1.0733-.5-1.42-.3334-.36-.7667-.54-1.3-.54-.6134 0-1.12.2133-1.52.64-.3867.4133-.58.9533-.58 1.62v5.1z"/><path clip-rule="evenodd" d="m68.5953 8.62c-.64-.34667-1.3733-.52-2.2-.52-.8533 0-1.62.18667-2.3.56-.6667.36-1.2133.79333-1.64 1.3l1.54 1.48c.68-.76 1.4333-1.14 2.26-1.14.48 0 .8733.14 1.18.42.32.2667.4933.5933.52.98l-3.06.58c-.96.1867-1.7.5467-2.22 1.08s-.78 1.2133-.78 2.04c0 .4933.14.96.42 1.4.28.4267.66.7667 1.14 1.02.4933.2533 1.0467.38 1.66.38.6667 0 1.26-.16 1.78-.48s.9-.6733 1.14-1.06h.06v1.34h2.56v-6.1c0-.6933-.18-1.3267-.54-1.9-.36-.58667-.8667-1.04667-1.52-1.38zm-1.24 6.8c-.3867.4133-.8733.62-1.46.62-.3867 0-.6933-.0933-.92-.28-.2133-.2-.32-.4533-.32-.76 0-.2533.1067-.48.32-.68.2133-.2133.5067-.3533.88-.42l2.1-.42v.32c0 .6667-.2 1.2067-.6 1.62z" fill-rule="evenodd"/><path d="m72.6594 18v-9.7h2.7v1.2h.06c.24-.36.6-.68 1.08-.96.4933-.29333 1.0466-.44 1.66-.44h.46v2.9c-.32-.1067-.62-.16-.9-.16-.6934 0-1.26.24-1.7.72-.44.4667-.66 1.0933-.66 1.88v4.56z"/><path d="m79.8156 8.3v9.7h2.7v-5.2c0-.6667.1733-1.1933.52-1.58s.7933-.58 1.34-.58c.4667 0 .8467.1667 1.14.5.3067.32.46.7733.46 1.36v5.5h2.7v-5.2c0-.6667.1733-1.1933.52-1.58s.7867-.58 1.32-.58c.4667 0 .8467.1667 1.14.5.3067.32.46.7733.46 1.36v5.5h2.7v-5.76c0-.84-.1533-1.5733-.46-2.2-.3066-.62667-.72-1.10667-1.24-1.44-.5067-.33333-1.0733-.5-1.7-.5-.7733 0-1.46.17333-2.06.52-.5867.33333-.9933.70667-1.22 1.12h-.08c-.2-.41333-.5467-.78667-1.04-1.12-.4933-.34667-1.0733-.52-1.74-.52-.6533 0-1.22.16667-1.7.5-.48.32-.8133.68-1 1.08h-.06v-1.38z"/><path clip-rule="evenodd" d="m100.716 8.1c.826 0 1.56.17333 2.2.52.653.33333 1.16.79333 1.52 1.38.36.5733.54 1.2067.54 1.9v6.1h-2.56v-1.34h-.06c-.24.3867-.62.74-1.14 1.06s-1.114.48-1.7804.48c-.6133 0-1.1667-.1267-1.66-.38-.48-.2533-.86-.5933-1.14-1.02-.28-.44-.42-.9067-.42-1.4 0-.8267.26-1.5067.78-2.04s1.26-.8933 2.22-1.08l3.0604-.58c-.027-.3867-.2-.7133-.52-.98-.307-.28-.7-.42-1.18-.42-.8271 0-1.5804.38-2.2604 1.14l-1.54-1.48c.4267-.50667.9733-.94 1.64-1.3.68-.37333 1.4467-.56 2.3004-.56zm-.5 7.94c.586 0 1.073-.2067 1.46-.62.4-.4133.6-.9533.6-1.62v-.32l-2.1.42c-.3737.0667-.6671.2067-.8804.42-.2133.2-.32.4267-.32.68 0 .3067.1067.56.32.76.2267.1867.5333.28.9204.28z" fill-rule="evenodd"/><path d="m105.784 18h3.02l2.02-3.28h.06l2.02 3.28h3.12l-3.32-5 3.08-4.7h-3.02l-1.78 2.96h-.06l-1.76-2.96h-3.12l3.08 4.7z"/><path clip-rule="evenodd" d="m121.334 18.2c-.96 0-1.84-.2267-2.64-.68-.787-.4533-1.414-1.0667-1.88-1.84-.454-.7733-.68-1.62-.68-2.54s.226-1.7667.68-2.54c.466-.77333 1.093-1.38 1.88-1.82.8-.45333 1.68-.68 2.64-.68.973 0 1.853.22667 2.64.68.8.44 1.426 1.04667 1.88 1.82.453.7733.68 1.62.68 2.54s-.227 1.7667-.68 2.54c-.454.7733-1.08 1.3867-1.88 1.84-.787.4533-1.667.68-2.64.68zm0-2.5c.68 0 1.26-.2467 1.74-.74s.72-1.1.72-1.82-.24-1.32-.72-1.8c-.48-.4933-1.06-.74-1.74-.74s-1.26.2467-1.74.74c-.467.48-.7 1.08-.7 1.8s.233 1.3267.7 1.82c.48.4933 1.06.74 1.74.74z" fill-rule="evenodd"/><path clip-rule="evenodd" d="m137.3 4h-4.34v14h4.34c1.36 0 2.593-.3133 3.7-.94 1.12-.6267 2-1.4733 2.64-2.54.64-1.08.96-2.2533.96-3.52 0-1.26667-.32-2.43333-.96-3.5-.64-1.08-1.52-1.93333-2.64-2.56-1.107-.62667-2.34-.94-3.7-.94zm2.98 11.84c-.88.4933-1.873.74-2.98.74h-2.84v-11.16h2.84c1.107 0 2.1.24667 2.98.74.88.48 1.566 1.14667 2.06 2 .506.85333.76 1.8.76 2.84s-.254 1.9867-.76 2.84c-.494.84-1.18 1.5067-2.06 2z" fill-rule="evenodd"/><path d="m146.942 18v-9.6h1.36v9.6z"/><path d="m147.622 6.3c-.24 0-.454-.08667-.64-.26-.174-.17333-.26-.38667-.26-.64s.086-.46667.26-.64c.186-.17333.4-.26.64-.26.253 0 .466.08667.64.26.186.17333.28.38667.28.64s-.094.46667-.28.64c-.174.17333-.387.26-.64.26z"/><path clip-rule="evenodd" d="m152.449 21.56c.76.4267 1.573.64 2.44.64.866 0 1.646-.2133 2.34-.64.706-.4267 1.26-1.0133 1.66-1.76.4-.7333.6-1.56.6-2.48v-8.92h-1.36v1.6h-.02c-.28-.45333-.72-.86667-1.32-1.24s-1.28-.56-2.04-.56c-.787 0-1.514.20667-2.18.62-.667.41333-1.2.98667-1.6 1.72-.387.7333-.58 1.5533-.58 2.46s.193 1.7267.58 2.46c.4.7333.933 1.3067 1.6 1.72.666.4133 1.393.62 2.18.62.68 0 1.326-.16 1.94-.48.613-.3333 1.086-.78 1.42-1.34h.02v1.34c0 1.04-.3 1.8933-.9 2.56s-1.38 1-2.34 1c-.654 0-1.274-.1667-1.86-.5-.574-.3333-.987-.6933-1.24-1.08l-.98.9c.333.4933.88.9467 1.64 1.36zm4.08-5.52c-.48.2933-1.02.44-1.62.44-.574 0-1.107-.1467-1.6-.44-.48-.3067-.86-.72-1.14-1.24-.28-.5333-.42-1.1333-.42-1.8s.14-1.2667.42-1.8.66-.9467 1.14-1.24c.493-.29333 1.026-.44 1.6-.44.6 0 1.14.14667 1.62.44.493.2933.88.7067 1.16 1.24.293.5333.44 1.1333.44 1.8s-.147 1.2667-.44 1.8c-.28.52-.667.9333-1.16 1.24z" fill-rule="evenodd"/><path d="m162.25 18v-9.6h1.36v9.6z"/><path d="m162.93 6.3c-.24 0-.453-.08667-.64-.26-.173-.17333-.26-.38667-.26-.64s.087-.46667.26-.64c.187-.17333.4-.26.64-.26.254 0 .467.08667.64.26.187.17333.28.38667.28.64s-.093.46667-.28.64c-.173.17333-.386.26-.64.26z"/><path d="m167.877 17.38c.467.48 1.12.72 1.96.72.267 0 .527-.0333.78-.1.254-.0533.46-.12.62-.2v-1.32c-.426.2-.833.3-1.22.3-.453 0-.813-.14-1.08-.42-.253-.28-.38-.68-.38-1.2v-5.44h2.36v-1.32h-2.36v-3.2h-1.22v2.28c0 .30667-.073.54-.22.7-.133.14667-.32.22-.56.22h-1.22v1.32h1.86v5.52c0 .9333.227 1.6467.68 2.14z"/><path clip-rule="evenodd" d="m176.27 8.2c.734 0 1.38.16 1.94.48.574.32 1.02.76667 1.34 1.34.32.56.48 1.2067.48 1.94v6.04h-1.3v-1.54h-.02c-.253.44-.68.84-1.28 1.2s-1.286.54-2.06.54c-.626 0-1.186-.1267-1.68-.38-.48-.2533-.86-.5867-1.14-1-.266-.4267-.4-.88-.4-1.36 0-.7733.267-1.42.8-1.94.534-.5333 1.287-.88 2.26-1.04l3.48-.58v-.02c0-.72-.226-1.3-.68-1.74-.44-.44-1.02-.66-1.74-.66-.56 0-1.053.12667-1.48.38-.413.24-.813.56-1.2.96l-.9-.86c.4-.49333.907-.90667 1.52-1.24.614-.34667 1.3-.52 2.06-.52zm-.76 8.76c.587 0 1.12-.14 1.6-.42.494-.28.88-.66 1.16-1.14.28-.4933.42-1.04.42-1.64v-.68l-3.16.52c-.68.12-1.186.3333-1.52.64-.333.3067-.5.6867-.5 1.14 0 .44.18.8133.54 1.12.374.3067.86.46 1.46.46z" fill-rule="evenodd"/><path d="m182.684 18h1.36v-14h-1.36z"/></g></svg>