<svg fill="none" height="48" viewBox="0 0 163 48" width="163" xmlns="http://www.w3.org/2000/svg"><g fill="#000"><path d="m13.4879 25.7032c0 .5523.4423.939.9951.939h8.1996l-4.3855 11.8204c-.5527 1.4177.9582 2.1726 1.8796 1.0495l13.2668-16.6444c.2395-.2946.3685-.6077.3685-.8838 0-.5524-.4423-.9206-.995-.9206h-8.1997l4.3854-11.8205c.5528-1.4177-.9581-2.19101-1.8794-1.04944l-13.2668 16.62604c-.2396.313-.3686.6259-.3686.8838z"/><path clip-rule="evenodd" d="m23.9908 47.9632c13.1378 0 24.0092-10.8631 24.0092-23.9724 0-13.1278-10.8899-23.9908-24.0276-23.9908-13.1194 0-23.9724 10.863-23.9724 23.9908 0 13.1093 10.8714 23.9724 23.9908 23.9724zm0-3.4247c-11.3874 0-20.54512-9.1692-20.54512-20.5477 0-11.397 9.13932-20.54778 20.52672-20.54778 11.4057 0 20.5819 9.15078 20.5819 20.54778 0 11.3785-9.1578 20.5477-20.5635 20.5477z" fill-rule="evenodd"/><path d="m60 0h1v48h-1z"/><path clip-rule="evenodd" d="m74.8 8v14h3v-4.6h2.96c.9467 0 1.7934-.2067 2.54-.62.7601-.4133 1.3467-.9733 1.7601-1.68.4266-.72.6399-1.52.6399-2.4s-.2133-1.6733-.6399-2.38c-.4134-.71999-1-1.28667-1.7601-1.7-.7466-.41333-1.5933-.62-2.54-.62zm7.3 6.12c-.3866.3867-.8666.58-1.44.58h-2.86v-4h2.86c.5734 0 1.0534.2 1.44.6.4001.3867.6.8533.6 1.4s-.1999 1.02-.6 1.42z" fill-rule="evenodd"/><path d="m87.2008 22v-14h2.7v5.68h.06c.24-.4.6133-.76 1.12-1.08.52-.3333 1.1134-.5 1.78-.5.7067 0 1.3334.1667 1.88.5.5467.3333.9733.8133 1.28 1.44.32.6133.48 1.3467.48 2.2v5.76h-2.7v-5.4c0-.6-.1666-1.0733-.5-1.42-.3333-.36-.7667-.54-1.3-.54-.6133 0-1.12.2133-1.52.64-.3867.4133-.58.9533-.58 1.62v5.1z"/><path clip-rule="evenodd" d="m102.395 12.1c.827 0 1.56.1733 2.2.52.654.3333 1.16.7933 1.52 1.38.36.5733.54 1.2067.54 1.9v6.1h-2.56v-1.34h-.06c-.24.3867-.62.74-1.14 1.06s-1.113.48-1.78.48c-.613 0-1.1664-.1267-1.6597-.38-.48-.2533-.86-.5933-1.14-1.02-.28-.44-.42-.9067-.42-1.4 0-.8267.26-1.5067.78-2.04s1.26-.8933 2.2197-1.08l3.06-.58c-.026-.3866-.2-.7133-.52-.98-.306-.28-.7-.42-1.18-.42-.826 0-1.58.38-2.2597 1.14l-1.54-1.48c.4266-.5067.9733-.94 1.6397-1.3.68-.3733 1.447-.56 2.3-.56zm-.5 7.94c.587 0 1.074-.2067 1.46-.62.4-.4133.6-.9533.6-1.62v-.32l-2.1.42c-.373.0667-.666.2067-.88.42-.213.2-.32.4267-.32.68 0 .3067.107.56.32.76.227.1867.534.28.92.28z" fill-rule="evenodd"/><path d="m108.659 22v-9.7h2.7v1.2h.06c.24-.36.6-.68 1.08-.96.494-.2933 1.047-.44 1.66-.44h.46v2.9c-.32-.1067-.62-.16-.9-.16-.693 0-1.26.24-1.7.72-.44.4667-.66 1.0934-.66 1.88v4.56z"/><path d="m115.816 22v-9.7h2.7v1.38h.06c.186-.4.52-.76 1-1.08.48-.3333 1.046-.5 1.7-.5.666 0 1.246.1733 1.74.52.493.3333.84.7067 1.04 1.12h.08c.226-.4133.633-.7867 1.22-1.12.6-.3467 1.286-.52 2.06-.52.626 0 1.193.1667 1.7.5.52.3333.933.8133 1.24 1.44.306.6267.46 1.36.46 2.2v5.76h-2.7v-5.5c0-.5867-.154-1.04-.46-1.36-.294-.3333-.674-.5-1.14-.5-.534 0-.974.1933-1.32.58-.347.3867-.52.9133-.52 1.58v5.2h-2.7v-5.5c0-.5867-.154-1.04-.46-1.36-.294-.3333-.674-.5-1.14-.5-.547 0-.994.1933-1.34.58-.347.3867-.52.9133-.52 1.58v5.2z"/><path clip-rule="evenodd" d="m136.716 12.1c.826 0 1.56.1733 2.2.52.653.3333 1.16.7933 1.52 1.38.36.5733.54 1.2067.54 1.9v6.1h-2.56v-1.34h-.06c-.24.3867-.62.74-1.14 1.06s-1.114.48-1.78.48c-.614 0-1.167-.1267-1.66-.38-.48-.2533-.86-.5933-1.14-1.02-.28-.44-.42-.9067-.42-1.4 0-.8267.26-1.5067.78-2.04s1.26-.8933 2.22-1.08l3.06-.58c-.027-.3866-.2-.7133-.52-.98-.307-.28-.7-.42-1.18-.42-.827 0-1.58.38-2.26 1.14l-1.54-1.48c.426-.5067.973-.94 1.64-1.3.68-.3733 1.446-.56 2.3-.56zm-.5 7.94c.586 0 1.073-.2067 1.46-.62.4-.4133.6-.9533.6-1.62v-.32l-2.1.42c-.374.0667-.667.2067-.88.42-.214.2-.32.4267-.32.68 0 .3067.106.56.32.76.226.1867.533.28.92.28z" fill-rule="evenodd"/><path clip-rule="evenodd" d="m157.334 22.2c-.96 0-1.84-.2267-2.64-.68-.787-.4533-1.414-1.0667-1.88-1.84-.454-.7733-.68-1.62-.68-2.54s.226-1.7666.68-2.54c.466-.7733 1.093-1.38 1.88-1.82.8-.4533 1.68-.68 2.64-.68.973 0 1.853.2267 2.64.68.8.44 1.426 1.0467 1.88 1.82.453.7734.68 1.62.68 2.54s-.227 1.7667-.68 2.54c-.454.7733-1.08 1.3867-1.88 1.84-.787.4533-1.667.68-2.64.68zm0-2.5c.68 0 1.26-.2467 1.74-.74s.72-1.1.72-1.82-.24-1.32-.72-1.8c-.48-.4933-1.06-.74-1.74-.74s-1.26.2467-1.74.74c-.467.48-.7 1.08-.7 1.8s.233 1.3267.7 1.82c.48.4933 1.06.74 1.74.74z" fill-rule="evenodd"/><path d="m141.784 22h3.02l2.02-3.28h.06l2.02 3.28h3.12l-3.32-5 3.08-4.7h-3.02l-1.78 2.96h-.06l-1.76-2.96h-3.12l3.08 4.7z"/><path d="m114.475 39h1.088v-11.2h-1.088z"/><path clip-rule="evenodd" d="m110.896 31.544c-.448-.256-.965-.384-1.552-.384-.608 0-1.157.1387-1.648.416-.49.2667-.896.5973-1.216.992l.72.688c.31-.32.63-.576.96-.768.342-.2027.736-.304 1.184-.304.576 0 1.04.176 1.392.528.363.352.544.816.544 1.392v.016l-2.784.464c-.778.128-1.381.4053-1.808.832-.426.416-.64.9333-.64 1.552 0 .384.107.7467.32 1.088.224.3307.528.5974.912.8.395.2027.843.304 1.344.304.619 0 1.168-.144 1.648-.432s.822-.608 1.024-.96h.016v1.232h1.04v-4.832c0-.5867-.128-1.104-.384-1.552-.256-.4587-.613-.816-1.072-1.072zm-.88 6.288c-.384.224-.81.336-1.28.336-.48 0-.869-.1227-1.168-.368-.288-.2453-.432-.544-.432-.896 0-.3627.134-.6667.4-.912.267-.2453.672-.416 1.216-.512l2.528-.416v.544c0 .48-.112.9173-.336 1.312-.224.384-.533.688-.928.912z" fill-rule="evenodd"/><path d="m102.63 38.504c.373.384.896.576 1.568.576.213 0 .421-.0267.624-.08.203-.0427.368-.096.496-.16v-1.056c-.341.16-.667.24-.976.24-.363 0-.651-.112-.864-.336-.203-.224-.304-.544-.304-.96v-4.352h1.888v-1.056h-1.888v-2.56h-.976v1.824c0 .2453-.059.432-.176.56-.107.1174-.256.176-.448.176h-.976v1.056h1.488v4.416c0 .7467.181 1.3173.544 1.712z"/><path d="m98.1284 31.32v7.68h1.088v-7.68z"/><path d="m98.6724 29.64c-.192 0-.3627-.0693-.512-.208-.1387-.1387-.208-.3093-.208-.512s.0693-.3733.208-.512c.1493-.1387.32-.208.512-.208.2027 0 .3733.0693.512.208.1493.1387.224.3093.224.512s-.0747.3733-.224.512c-.1387.1387-.3093.208-.512.208z"/><path clip-rule="evenodd" d="m92.2392 42.36c-.6934 0-1.344-.1707-1.952-.512-.608-.3307-1.0454-.6933-1.312-1.088l.784-.72c.2026.3093.5333.5973.992.864.4693.2667.9653.4 1.488.4.768 0 1.392-.2666 1.8719-.8.4801-.5333.7201-1.216.7201-2.048v-1.072h-.016c-.2667.448-.6454.8053-1.136 1.072-.4907.256-1.008.384-1.552.384-.6294 0-1.2107-.1653-1.7441-.496-.5333-.3307-.9599-.7893-1.28-1.376-.3093-.5867-.4639-1.2427-.4639-1.968s.1546-1.3813.4639-1.968c.3201-.5867.7467-1.0453 1.28-1.376.5334-.3307 1.1147-.496 1.7441-.496.608 0 1.152.1493 1.632.448s.832.6293 1.056.992h.016v-1.28h1.088v7.136c0 .736-.16 1.3973-.4801 1.984-.3199.5974-.7626 1.0667-1.328 1.408-.5546.3413-1.1786.512-1.8719.512zm.016-4.576c.48 0 .912-.1173 1.2959-.352.3947-.2453.7041-.576.9281-.992.2346-.4267.352-.9067.352-1.44s-.1174-1.0133-.352-1.44c-.224-.4267-.5334-.7573-.9281-.992-.3839-.2347-.8159-.352-1.2959-.352-.4587 0-.8854.1173-1.28.352-.384.2347-.688.5653-.912.992s-.336.9067-.336 1.44.112 1.0133.336 1.44c.224.416.528.7467.912.992.3946.2347.8213.352 1.28.352z" fill-rule="evenodd"/><path d="m86.9696 39h-1.088v-7.68h1.088z"/><path d="m85.9136 29.432c.1493.1387.32.208.512.208.2026 0 .3733-.0693.512-.208.1493-.1387.224-.3093.224-.512s-.0747-.3733-.224-.512c-.1387-.1387-.3094-.208-.512-.208-.192 0-.3627.0693-.512.208-.1387.1387-.208.3093-.208.512s.0693.3733.208.512z"/><path clip-rule="evenodd" d="m74.696 27.8v11.2h3.472c1.088 0 2.0747-.2507 2.9601-.752.8959-.5014 1.6-1.1787 2.112-2.032.5119-.864.768-1.8027.768-2.816s-.2561-1.9467-.768-2.8c-.512-.864-1.2161-1.5467-2.112-2.048-.8854-.5013-1.8721-.752-2.9601-.752zm5.856 9.472c-.7039.3947-1.4986.592-2.384.592h-2.2719v-8.928h2.2719c.8854 0 1.6801.1973 2.384.592.704.384 1.2534.9173 1.648 1.6.4054.6827.608 1.44.608 2.272s-.2026 1.5893-.608 2.272c-.3946.672-.944 1.2053-1.648 1.6z" fill-rule="evenodd"/></g></svg>