<svg fill="none" height="48" viewBox="0 0 204 48" width="204" xmlns="http://www.w3.org/2000/svg"><path d="m20.0089 10.0253c4.3353 0 7.1699 2.0886 9.3376 4.5114.1667.1671.2501.3342.4168.5013.1668.1671.2501.3342.4169.5012.7503.919 1.3339 1.9216 1.9175 2.757.4168.5848.7503 1.1696 1.1672 1.6709.1667.1671.2501.3342.4168.5013.1668.167.2501.3341.4169.5012 1.584 1.9215 3.1681 3.1747 5.5024 3.3418.3335-1.4203.5003-2.8405.5003-4.3443s-.1668-3.0076-.5003-4.3443c-2.3343.1671-3.9184 1.3367-5.5024 3.3418-.2501-.4178-.5836-.8355-.9171-1.3368-.667-.9189-1.3339-2.005-2.1676-3.0911 1.6674-1.9215 3.7516-3.5924 6.5863-4.2608-3.5016-6.09869-10.0879-10.2759-17.5913-10.2759-7.5033 0-14.08959 4.17721-17.50778 10.2759 2.8346.6684 4.83549 2.3393 6.58628 4.2608.16674.1671.25011.3342.41685.5013s.25011.3342.41685.5012c.8337 1.0026 1.5007 2.0886 2.1676 3.0912.3335.5012.5836.919.9171 1.3367.1668.1671.2501.3342.4169.5848.1667.1671.2501.3342.4168.5848 1.7508 2.4228 3.5016 4.0937 6.2528 4.0937 2.7513 0 4.502-1.6709 6.2528-4.0937.1668.3342.4169.5848.5836.919.7503 1.0861 1.5007 2.3392 2.4178 3.4253-2.0843 2.4228-5.0023 4.5114-9.3376 4.5114-4.3352 0-7.1698-2.0886-9.3375-4.5114-.1667-.1671-.2501-.3342-.4168-.5013-.1668-.167-.2501-.3341-.41687-.5012-.75033-.919-1.33393-1.9215-1.91752-2.757-.41685-.5848-.75034-1.1696-1.16719-1.6709-.16674-.1671-.25011-.3341-.41685-.5012s-.25011-.3342-.41686-.5013c-1.58404-1.9215-3.16808-3.1747-5.502457-3.3418-.250112 1.3367-.416853 2.8405-.416853 4.3443s.166741 3.0076.500224 4.3443c2.334376-.1671 3.918416-1.3367 5.502456-3.3417.25012.4177.5836.8354.91708 1.3367.66697.919 1.33393 2.005 2.16764 3.0911-1.66741 1.9215-3.75168 3.5924-6.58628 4.2608 3.41819 6.1823 10.00448 10.3595 17.50778 10.3595 7.5034 0 14.0897-4.1773 17.5079-10.276-2.8346-.6683-4.8355-2.3392-6.5863-4.2607-.1667-.1671-.2501-.3342-.4169-.5013-.1667-.1671-.2501-.3342-.4168-.5013-.8337-1.0025-1.5007-2.0886-2.1676-3.0911-.3335-.5013-.5836-.919-.9171-1.3367-.1668-.1671-.2501-.3342-.4169-.5848-.1667-.1671-.2501-.3342-.4168-.5848-1.7508-2.4228-3.5016-4.0937-6.2528-4.0937-2.7513 0-4.502 1.6709-6.2528 4.0937-.1668-.3342-.4169-.5849-.5836-.919-.7503-1.0861-1.5007-2.3393-2.4178-3.4253 2.1677-2.5064 5.0023-4.595 9.3375-4.595z" fill="#ff1744"/><g fill="#212121"><path d="m56.204 16.6878c-.0688-.694-.3642-1.2332-.8862-1.6175-.5219-.3843-1.2303-.5764-2.1251-.5764-.608 0-1.1213.086-1.54.2581-.4187.1663-.7399.3986-.9636.6969-.218.2982-.327.6366-.327 1.0152-.0114.3155.0545.5908.1979.8259.1491.2352.3528.4388.6109.6109.2581.1663.5563.3126.8947.4388.3385.1204.6998.2237 1.0841.3097l1.5831.3786c.7686.172 1.4741.4015 2.1165.6883.6424.2867 1.1987.6395 1.6691 1.0582.4703.4187.8345.912 1.0926 1.4798.2639.5679.3987 1.2189.4044 1.9531-.0057 1.0783-.281 2.0132-.8259 2.8047-.5392.7858-1.3193 1.3967-2.3402 1.8326-1.0153.4302-2.2398.6453-3.6738.6453-1.4225 0-2.6614-.218-3.7168-.6539-1.0496-.4359-1.8698-1.0812-2.4606-1.9358-.585-.8604-.8919-1.9243-.9206-3.192h3.6049c.0402.5908.2094 1.0841.5077 1.4799.304.39.7083.6854 1.2131.8862.5105.195 1.0869.2925 1.7293.2925.6309 0 1.1787-.0918 1.6433-.2753.4703-.1836.8345-.4388 1.0927-.7658.2581-.3269.3871-.7026.3871-1.127 0-.3958-.1176-.7285-.3527-.9981-.2295-.2695-.5679-.499-1.0153-.6883-.4416-.1892-.9836-.3613-1.626-.5162l-1.9187-.4818c-1.4855-.3613-2.6585-.9263-3.5188-1.6949-.8604-.7686-1.2877-1.8039-1.282-3.1059-.0057-1.0669.2782-1.9989.8518-2.7962.5793-.7973 1.3737-1.4196 2.3832-1.867s2.1566-.6711 3.4414-.6711c1.3078 0 2.4492.2237 3.4243.6711.9808.4474 1.7437 1.0697 2.2886 1.867.5448.7973.8259 1.7207.8431 2.7704z"/><path d="m62.4524 29.2405v-13.2152h3.4931v2.3316h.1548c.2754-.7743.7342-1.3852 1.3766-1.8326s1.411-.6711 2.3058-.6711c.9062 0 1.6777.2266 2.3144.6797.6366.4474 1.0611 1.0554 1.2733 1.824h.1377c.2696-.7571.7571-1.3623 1.4626-1.8154.7112-.4588 1.5515-.6883 2.5209-.6883 1.2331 0 2.234.3929 3.0026 1.1787.7744.7801 1.1615 1.8871 1.1615 3.321v8.8876h-3.6565v-8.1649c0-.7341-.195-1.2848-.5851-1.6519-.39-.3671-.8775-.5506-1.4626-.5506-.6653 0-1.1844.2122-1.5573.6367-.3728.4187-.5592.9722-.5592 1.6605v8.0702h-3.5533v-8.2423c0-.6481-.1864-1.1644-.5592-1.5487-.3671-.3842-.8518-.5764-1.454-.5764-.4073 0-.7744.1032-1.1013.3097-.3212.2008-.5765.4847-.7657.8518-.1893.3613-.284.7858-.284 1.2733v7.9326z"/><path d="m88.3192 29.49c-.8431 0-1.5945-.1463-2.2541-.4388-.6596-.2983-1.1816-.737-1.5659-1.3163-.3785-.5851-.5678-1.3135-.5678-2.1854 0-.7341.1348-1.3507.4043-1.8498.2696-.499.6367-.9005 1.1013-1.2045s.9923-.5334 1.5831-.6883c.5965-.1548 1.2217-.2638 1.8756-.3269.7686-.0803 1.388-.1549 1.8584-.2237.4703-.0746.8116-.1835 1.0238-.3269s.3183-.3556.3183-.6367v-.0516c0-.5449-.172-.9665-.5162-1.2648-.3384-.2982-.8202-.4473-1.4454-.4473-.6596 0-1.1844.1462-1.5745.4387-.39.2868-.6481.6482-.7743 1.0841l-3.3898-.2753c.172-.803.5105-1.497 1.0152-2.0821.5048-.5908 1.1558-1.0439 1.953-1.3594.803-.3212 1.7322-.4818 2.7876-.4818.7342 0 1.4368.0861 2.1079.2581.6768.1721 1.2762.4388 1.7982.8002.5277.3613.9435.8259 1.2475 1.3938.304.5621.456 1.236.456 2.0218v8.9134h-3.4759v-1.8326h-.1032c-.2123.413-.4962.7772-.8518 1.0927-.3556.3097-.7829.5535-1.2819.7313-.499.1721-1.0755.2581-1.7294.2581zm1.0497-2.5295c.5391 0 1.0152-.1061 1.4282-.3183.413-.218.737-.5105.9722-.8776s.3527-.7829.3527-1.2475v-1.4024c-.1147.0746-.2724.1434-.4732.2065-.195.0573-.4158.1118-.6624.1635-.2467.0458-.4933.0889-.7399.129-.2467.0344-.4704.066-.6711.0946-.4302.0631-.8059.1635-1.1271.3012-.3212.1376-.5707.324-.7485.5592-.1778.2294-.2667.5162-.2667.8604 0 .499.1806.8804.542 1.1443.3671.2581.8317.3871 1.3938.3871z"/><path d="m98.6049 29.2405v-13.2152h3.5531v2.3058h.138c.241-.8202.645-1.4397 1.213-1.8584.568-.4245 1.222-.6367 1.962-.6367.183 0 .381.0115.593.0344.212.023.399.0545.559.0947v3.2521c-.172-.0516-.41-.0975-.714-.1376-.304-.0402-.582-.0602-.834-.0602-.539 0-1.021.1175-1.446.3527-.418.2294-.751.5506-.998.9636-.241.413-.361.8891-.361 1.4282v7.4766z"/><path d="m116.21 16.0253v2.7532h-7.958v-2.7532zm-6.152-3.1661h3.666v12.3204c0 .3384.051.6022.154.7915.104.1835.247.3126.431.3872.189.0745.407.1118.654.1118.172 0 .344-.0143.516-.043.172-.0344.304-.0602.396-.0774l.576 2.7273c-.184.0574-.442.1233-.774.1979-.333.0803-.737.1291-1.213.1463-.884.0344-1.658-.0832-2.323-.3528-.66-.2696-1.173-.6883-1.54-1.2561-.368-.5679-.548-1.2848-.543-2.1509z"/><path d="m134.213 17.789h-3.768c-.069-.4875-.21-.9205-.422-1.2991-.212-.3843-.484-.7112-.817-.9808s-.717-.4761-1.153-.6195c-.43-.1434-.898-.2151-1.402-.2151-.912 0-1.707.2266-2.384.6797-.676.4474-1.201 1.1013-1.574 1.9616-.373.8547-.559 1.8928-.559 3.1146 0 1.2561.186 2.3115.559 3.1661.378.8546.906 1.4999 1.583 1.9358s1.46.6539 2.349.6539c.499 0 .961-.066 1.385-.1979.43-.1319.812-.3241 1.144-.5764.333-.2581.608-.5707.826-.9378.224-.3671.379-.7858.465-1.2562l3.768.0172c-.097.8088-.341 1.5889-.731 2.3402-.384.7457-.903 1.4139-1.557 2.0047-.649.585-1.423 1.0496-2.323 1.3938-.895.3384-1.907.5076-3.037.5076-1.572 0-2.977-.3556-4.216-1.0669-1.233-.7112-2.208-1.7408-2.925-3.0887-.712-1.3479-1.067-2.9797-1.067-4.8954 0-1.9215.361-3.5562 1.084-4.9041.722-1.3479 1.703-2.3746 2.942-3.0801 1.239-.7112 2.633-1.0669 4.182-1.0669 1.021 0 1.967.1434 2.839.4302.877.2868 1.655.7055 2.331 1.2561.677.5449 1.228 1.2132 1.652 2.0047.43.7915.706 1.6978.826 2.7187z"/><path d="m142.787 29.4986c-1.337 0-2.492-.2839-3.468-.8518-.969-.5735-1.717-1.3708-2.245-2.3918-.528-1.0267-.792-2.2168-.792-3.5705 0-1.3651.264-2.5581.792-3.5791.528-1.0267 1.276-1.824 2.245-2.3918.976-.5736 2.131-.8604 3.468-.8604 1.336 0 2.489.2868 3.458.8604.975.5678 1.727 1.3651 2.255 2.3918.527 1.021.791 2.214.791 3.5791 0 1.3537-.264 2.5438-.791 3.5705-.528 1.021-1.28 1.8183-2.255 2.3918-.969.5679-2.122.8518-3.458.8518zm.017-2.8392c.608 0 1.116-.1721 1.523-.5162.407-.3499.714-.826.92-1.4282.213-.6023.319-1.2877.319-2.0563s-.106-1.454-.319-2.0563c-.206-.6022-.513-1.0783-.92-1.4282-.407-.3498-.915-.5248-1.523-.5248-.614 0-1.13.175-1.549.5248-.413.3499-.725.826-.938 1.4282-.206.6023-.309 1.2877-.309 2.0563s.103 1.454.309 2.0563c.213.6022.525 1.0783.938 1.4282.419.3441.935.5162 1.549.5162z"/><path d="m155.339 21.6005v7.64h-3.665v-13.2152h3.493v2.3316h.155c.293-.7686.783-1.3766 1.471-1.824.689-.4531 1.523-.6797 2.504-.6797.918 0 1.718.2008 2.401.6023.682.4015 1.213.9751 1.591 1.7207.379.7399.568 1.6232.568 2.6499v8.4144h-3.665v-7.7605c.006-.8087-.201-1.4397-.62-1.8928-.418-.4589-.995-.6883-1.729-.6883-.493 0-.929.1061-1.308.3183-.372.2123-.665.522-.877.9292-.207.4015-.313.8862-.319 1.4541z"/><path d="m173.775 16.0253v2.7532h-7.958v-2.7532zm-6.152-3.1661h3.665v12.3204c0 .3384.052.6022.155.7915.104.1835.247.3126.43.3872.19.0745.408.1118.654.1118.172 0 .345-.0143.517-.043.172-.0344.304-.0602.395-.0774l.577 2.7273c-.184.0574-.442.1233-.775.1979-.332.0803-.737.1291-1.213.1463-.883.0344-1.657-.0832-2.323-.3528-.659-.2696-1.173-.6883-1.54-1.2561-.367-.5679-.547-1.2848-.542-2.1509z"/><path d="m176.162 29.2405v-13.2152h3.554v2.3058h.137c.241-.8202.646-1.4397 1.213-1.8584.568-.4245 1.222-.6367 1.962-.6367.184 0 .382.0115.594.0344.212.023.398.0545.559.0947v3.2521c-.172-.0516-.41-.0975-.714-.1376-.304-.0402-.582-.0602-.835-.0602-.539 0-1.021.1175-1.445.3527-.419.2294-.751.5506-.998.9636-.241.413-.361.8891-.361 1.4282v7.4766z"/><path d="m191.432 29.4986c-1.337 0-2.492-.2839-3.468-.8518-.969-.5735-1.717-1.3708-2.245-2.3918-.528-1.0267-.792-2.2168-.792-3.5705 0-1.3651.264-2.5581.792-3.5791.528-1.0267 1.276-1.824 2.245-2.3918.976-.5736 2.131-.8604 3.468-.8604 1.336 0 2.489.2868 3.458.8604.975.5678 1.727 1.3651 2.255 2.3918.527 1.021.791 2.214.791 3.5791 0 1.3537-.264 2.5438-.791 3.5705-.528 1.021-1.28 1.8183-2.255 2.3918-.969.5679-2.122.8518-3.458.8518zm.017-2.8392c.608 0 1.116-.1721 1.523-.5162.407-.3499.714-.826.92-1.4282.213-.6023.319-1.2877.319-2.0563s-.106-1.454-.319-2.0563c-.206-.6022-.513-1.0783-.92-1.4282-.407-.3498-.915-.5248-1.523-.5248-.614 0-1.13.175-1.549.5248-.413.3499-.725.826-.938 1.4282-.206.6023-.309 1.2877-.309 2.0563s.103 1.454.309 2.0563c.213.6022.525 1.0783.938 1.4282.419.3441.935.5162 1.549.5162z"/><path d="m203.984 11.6202v17.6203h-3.665v-17.6203z"/><path d="m46.2911 45.1139v-9.7215h1.1203v3.5886h.0949c.0823-.1266.1962-.2879.3418-.4841.1487-.1994.3608-.3766.6361-.5317.2785-.1582.655-.2373 1.1297-.2373.6139 0 1.1551.1534 1.6234.4604.4684.307.8339.7421 1.0966 1.3054.2626.5633.3939 1.2278.3939 1.9937 0 .7721-.1313 1.4414-.3939 2.0079-.2627.5633-.6266 1-1.0918 1.3101-.4652.307-1.0016.4604-1.6092.4604-.4683 0-.8433-.0775-1.125-.2326-.2816-.1582-.4984-.337-.6503-.5363-.1519-.2026-.269-.3703-.3513-.5032h-.1329v1.1202zm1.1013-3.6455c0 .5506.0807 1.0364.2421 1.4572.1614.4178.3971.7453.7073.9826.3101.2342.6898.3513 1.1392.3513.4684 0 .8592-.1234 1.1725-.3702.3164-.25.5538-.5855.712-1.0064.1614-.424.2421-.8955.2421-1.4145 0-.5127-.0791-.9747-.2373-1.3861-.1551-.4146-.3909-.7421-.7073-.9826-.3133-.2437-.7073-.3655-1.182-.3655-.4557 0-.8386.1155-1.1487.3465-.3101.2279-.5443.5475-.7026.9589-.1582.4082-.2373.8845-.2373 1.4288z"/><path d="m54.9019 47.8481c-.1899 0-.3592-.0158-.5079-.0475-.1487-.0284-.2516-.0569-.3086-.0854l.2849-.9873c.2721.0696.5126.0949.7215.0759.2088-.019.394-.1123.5554-.28.1645-.1646.3148-.432.4509-.8023l.2089-.5696-2.6962-7.3291h1.2151l2.0127 5.8101h.076l2.0126-5.8101h1.2152l-3.0949 8.3544c-.1393.3766-.3117.6883-.5174.9352-.2057.25-.4447.4351-.7168.5553-.269.1203-.5728.1804-.9114.1804z"/><path d="m65.5324 35.3924h1.4051l3.3038 8.0696h.1139l3.3038-8.0696h1.4051v9.7215h-1.1013v-7.386h-.0949l-3.038 7.386h-1.0633l-3.038-7.386h-.0949v7.386h-1.1013z"/><path d="m77.2725 45.1139v-7.2911h1.1203v7.2911zm.5697-8.5063c-.2184 0-.4067-.0744-.5649-.2231-.1551-.1487-.2326-.3275-.2326-.5364 0-.2088.0775-.3876.2326-.5364.1582-.1487.3465-.2231.5649-.2231.2183 0 .405.0744.5601.2231.1582.1488.2373.3276.2373.5364 0 .2089-.0791.3877-.2373.5364-.1551.1487-.3418.2231-.5601.2231z"/><path d="m83.4066 45.2658c-.6835 0-1.2721-.1614-1.7658-.4841-.4936-.3228-.8734-.7674-1.1392-1.3339s-.3988-1.2136-.3988-1.9415c0-.7405.1361-1.3939.4083-1.9604.2753-.5696.6582-1.0142 1.1487-1.3339.4937-.3227 1.0696-.4841 1.7279-.4841.5126 0 .9746.0949 1.386.2848.4114.1898.7485.4557 1.0111.7974.2627.3418.4256.7405.4889 1.1962h-1.1202c-.0855-.3322-.2753-.6265-.5696-.8829-.2912-.2595-.6836-.3892-1.1773-.3892-.4367 0-.8196.1139-1.1487.3418-.3259.2246-.5807.5427-.7642.9541-.1804.4082-.2706.8876-.2706 1.4383 0 .5633.0886 1.0538.2658 1.4715.1804.4177.4336.7421.7595.9731.3291.231.7152.3465 1.1582.3465.2912 0 .5554-.0506.7928-.1519.2373-.1013.4383-.2468.6028-.4367.1646-.1899.2817-.4177.3513-.6835h1.1202c-.0633.4303-.2199.818-.4699 1.1629-.2468.3418-.5744.614-.9826.8165-.4051.1994-.8766.299-1.4146.299z"/><path d="m87.9114 45.1139v-7.2911h1.0823v1.1013h.0759c.1329-.3608.3734-.6535.7215-.8782s.7405-.337 1.1773-.337c.0822 0 .1851.0016.3085.0047.1234.0032.2168.0079.2801.0143v1.1392c-.038-.0095-.125-.0237-.2611-.0427-.1329-.0222-.2737-.0332-.4225-.0332-.3544 0-.6709.0743-.9493.2231-.2754.1455-.4937.3481-.6551.6076-.1582.2563-.2374.549-.2374.8781v4.6139z"/><path d="m95.625 45.2658c-.6582 0-1.2358-.1566-1.7326-.4699-.4937-.3133-.8797-.7516-1.1582-1.3149-.2753-.5633-.413-1.2215-.413-1.9747 0-.7594.1377-1.4224.413-1.9889.2785-.5664.6645-1.0063 1.1582-1.3196.4968-.3133 1.0744-.4699 1.7326-.4699s1.2342.1566 1.7278.4699c.4969.3133.883.7532 1.1583 1.3196.2785.5665.4177 1.2295.4177 1.9889 0 .7532-.1392 1.4114-.4177 1.9747-.2753.5633-.6614 1.0016-1.1583 1.3149-.4936.3133-1.0696.4699-1.7278.4699zm0-1.0063c.5 0 .9114-.1282 1.2342-.3845s.5617-.5933.7168-1.0111c.155-.4177.2325-.8702.2325-1.3576 0-.4873-.0775-.9414-.2325-1.3623-.1551-.4209-.394-.7611-.7168-1.0206s-.7342-.3892-1.2342-.3892-.9114.1297-1.2342.3892-.5617.5997-.7167 1.0206c-.1551.4209-.2326.875-.2326 1.3623 0 .4874.0775.9399.2326 1.3576.155.4178.3939.7548.7167 1.0111s.7342.3845 1.2342.3845z"/><path d="m103.582 48c-.541 0-1.006-.0696-1.396-.2088-.389-.1361-.713-.3165-.973-.5412-.256-.2215-.46-.4588-.612-.712l.892-.6266c.102.1329.23.2848.385.4557.155.1741.367.3244.636.451.272.1297.628.1946 1.068.1946.588 0 1.074-.1424 1.457-.4272.383-.2849.575-.7311.575-1.3386v-1.4811h-.095c-.083.133-.2.2975-.352.4937-.148.193-.364.3655-.645.5174-.279.1487-.655.2231-1.13.2231-.589 0-1.117-.1392-1.585-.4177-.466-.2785-.834-.6836-1.106-1.2152-.269-.5316-.404-1.1772-.404-1.9367 0-.7468.131-1.3972.394-1.951.263-.5569.628-.9873 1.097-1.2911.468-.307 1.009-.4604 1.623-.4604.475 0 .851.0791 1.13.2373.281.1551.497.3323.645.5317.152.1962.269.3575.352.4841h.114v-1.1582h1.082v7.5c0 .6266-.143 1.1361-.427 1.5285-.282.3956-.662.6851-1.14.8687-.474.1867-1.003.28-1.585.28zm-.038-4.0063c.449 0 .829-.1029 1.139-.3086s.546-.5015.707-.8876c.162-.3861.243-.8481.243-1.3861 0-.5253-.08-.9889-.238-1.3908s-.392-.7168-.702-.9446c-.31-.2279-.693-.3418-1.149-.3418-.475 0-.87.1202-1.187.3608-.313.2405-.549.5632-.707.9683-.155.4051-.233.8544-.233 1.3481 0 .5063.079.9541.238 1.3434.161.386.398.6898.712.9114.316.2183.709.3275 1.177.3275z"/><path d="m111.841 45.2658c-.702 0-1.308-.155-1.818-.4652-.506-.3132-.897-.75-1.172-1.3101-.272-.5633-.408-1.2183-.408-1.9652 0-.7468.136-1.405.408-1.9747.275-.5727.658-1.0189 1.149-1.3386.493-.3227 1.069-.4841 1.727-.4841.38 0 .755.0633 1.125.1898.371.1266.708.3323 1.012.6171.303.2817.545.6551.726 1.1203.18.4652.27 1.038.27 1.7183v.4747h-5.62v-.9683h4.481c0-.4114-.082-.7785-.247-1.1013-.161-.3228-.392-.5775-.693-.7642-.297-.1868-.648-.2801-1.054-.2801-.446 0-.832.1108-1.158.3323-.323.2183-.571.5031-.745.8544s-.261.7279-.261 1.1297v.6456c0 .5507.095 1.0174.285 1.4003.193.3798.46.6693.802.8687.342.1962.739.2943 1.191.2943.295 0 .561-.0411.798-.1234.24-.0855.448-.212.622-.3798.174-.1708.308-.3829.403-.636l1.082.3038c-.113.3671-.305.6898-.574.9683-.269.2753-.601.4905-.997.6456-.395.1519-.84.2278-1.334.2278z"/><path d="m117.685 40.7279v4.386h-1.121v-7.2911h1.083v1.1392h.095c.171-.3702.43-.6677.778-.8924.348-.2278.798-.3417 1.348-.3417.494 0 .926.1012 1.296.3038.37.1993.658.5031.864.9114.206.405.309.9177.309 1.5379v4.6329h-1.121v-4.5569c0-.5728-.148-1.019-.446-1.3386-.297-.3228-.706-.4842-1.225-.4842-.357 0-.677.0775-.958.2326-.279.1551-.499.3813-.66.6788-.162.2975-.242.6582-.242 1.0823z"/><path d="m127.441 45.2658c-.703 0-1.309-.155-1.818-.4652-.507-.3132-.898-.75-1.173-1.3101-.272-.5633-.408-1.2183-.408-1.9652 0-.7468.136-1.405.408-1.9747.275-.5727.658-1.0189 1.149-1.3386.494-.3227 1.07-.4841 1.728-.4841.379 0 .754.0633 1.125.1898.37.1266.707.3323 1.011.6171.304.2817.546.6551.726 1.1203s.271 1.038.271 1.7183v.4747h-5.621v-.9683h4.481c0-.4114-.082-.7785-.246-1.1013-.162-.3228-.393-.5775-.693-.7642-.298-.1868-.649-.2801-1.054-.2801-.446 0-.833.1108-1.158.3323-.323.2183-.572.5031-.746.8544s-.261.7279-.261 1.1297v.6456c0 .5507.095 1.0174.285 1.4003.193.3798.46.6693.802.8687.342.1962.739.2943 1.192.2943.294 0 .56-.0411.797-.1234.241-.0855.448-.212.622-.3798.174-.1708.309-.3829.403-.636l1.083.3038c-.114.3671-.306.6898-.575.9683-.269.2753-.601.4905-.996.6456-.396.1519-.841.2278-1.334.2278z"/><path d="m135.335 37.8228v.9494h-3.779v-.9494zm-2.678-1.7468h1.121v6.9493c0 .3165.046.5538.137.7121.095.155.216.2595.361.3132.149.0507.305.076.47.076.123 0 .225-.0063.304-.019.079-.0158.142-.0285.19-.038l.228 1.0064c-.076.0284-.182.0569-.318.0854-.137.0317-.309.0475-.518.0475-.316 0-.626-.0681-.93-.2041-.301-.1361-.551-.3434-.75-.6219-.196-.2785-.295-.6297-.295-1.0538z"/><path d="m137.02 45.1139v-7.2911h1.12v7.2911zm.569-8.5063c-.218 0-.406-.0744-.564-.2231-.156-.1487-.233-.3275-.233-.5364 0-.2088.077-.3876.233-.5364.158-.1487.346-.2231.564-.2231.219 0 .405.0744.561.2231.158.1488.237.3276.237.5364 0 .2089-.079.3877-.237.5364-.156.1487-.342.2231-.561.2231z"/><path d="m143.154 45.2658c-.684 0-1.272-.1614-1.766-.4841-.494-.3228-.873-.7674-1.139-1.3339s-.399-1.2136-.399-1.9415c0-.7405.136-1.3939.408-1.9604.276-.5696.659-1.0142 1.149-1.3339.494-.3227 1.07-.4841 1.728-.4841.513 0 .975.0949 1.386.2848.411.1898.748.4557 1.011.7974.263.3418.426.7405.489 1.1962h-1.12c-.086-.3322-.276-.6265-.57-.8829-.291-.2595-.683-.3892-1.177-.3892-.437 0-.82.1139-1.149.3418-.326.2246-.581.5427-.764.9541-.18.4082-.271.8876-.271 1.4383 0 .5633.089 1.0538.266 1.4715.181.4177.434.7421.76.9731.329.231.715.3465 1.158.3465.291 0 .555-.0506.793-.1519.237-.1013.438-.2468.602-.4367.165-.1899.282-.4177.352-.6835h1.12c-.063.4303-.22.818-.47 1.1629-.247.3418-.574.614-.983.8165-.405.1994-.876.299-1.414.299z"/><path d="m152.823 39.4557-1.006.2848c-.063-.1677-.157-.3307-.28-.4889-.12-.1614-.285-.2943-.494-.3987-.209-.1045-.476-.1567-.802-.1567-.446 0-.818.1029-1.116.3086-.294.2025-.441.4604-.441.7737 0 .2785.101.4984.304.6598.202.1614.519.2959.949.4035l1.082.2658c.652.1582 1.138.4003 1.458.7263.319.3228.479.7389.479 1.2484 0 .4177-.12.7911-.361 1.1202-.237.3292-.569.5887-.996.7785-.428.1899-.925.2848-1.491.2848-.744 0-1.359-.1614-1.847-.4841-.487-.3228-.795-.7943-.925-1.4146l1.063-.2658c.101.3924.293.6867.575.8829.284.1962.656.2943 1.115.2943.522 0 .937-.1108 1.244-.3323.31-.2247.465-.4937.465-.8069 0-.2532-.089-.4652-.266-.6361-.177-.1741-.449-.3038-.816-.3893l-1.216-.2848c-.667-.1582-1.158-.4035-1.471-.7357-.31-.3355-.465-.7548-.465-1.2579 0-.4114.115-.7754.346-1.0918.234-.3165.552-.5649.954-.7453.405-.1803.864-.2705 1.377-.2705.721 0 1.288.1582 1.699.4746.415.3165.709.7342.883 1.2532z"/></g></svg>