<svg fill="none" height="24" viewBox="0 0 209 24" width="209" xmlns="http://www.w3.org/2000/svg"><circle cx="12" cy="12" fill="#1565c0" r="12"/><g fill="#fff"><path d="m8.27586 13.5447c.16766.289.47799.4689.80972.4689.51737 0 .93812-.4209.93812-.9383 0-.1656-.0428-.3274-.12425-.4681-.30295-.524-.46294-1.12-.46294-1.7241 0-1.90282 1.54779-3.45097 3.45079-3.45097.517 0 .9376-.42074.9376-.93805 0-.5171-.4195-.93787-.9347-.93787-2.93839 0-5.3289 2.38967-5.3289 5.32689 0 .9327.24705 1.853.71456 2.6616z"/><path d="m10.0607 10.8831c0-.8197.3488-1.55768.9061-2.07391-.0481.58343.2355 1.16962.7764 1.48181.2417.1398.5104.2106.7797.2106.4805-.0003.9668.1198 1.4123.377.7101.41 1.1748 1.0812 1.3433 1.822-.4814-.3334-1.1312-.3811-1.6716-.0689-.2423.1396-.4374.3367-.5722.5696-.24.4171-.5872.778-1.0329 1.0352-.71.4095-1.5235.4765-2.24903.2523.52893-.2505.89493-.7891.89493-1.4135 0-.2791-.073-.5473-.2074-.7803-.2406-.4163-.3796-.8977-.3796-1.4119z"/><path d="m16.3249 16.4595c-.1642 0-.3269-.0435-.4706-.1268-.448-.2586-.6024-.833-.3435-1.2808.9508-1.648.3844-3.7625-1.2633-4.714-.5222-.3014-1.1175-.46079-1.7217-.46079-.1654 0-.327-.04379-.4709-.12676-.4477-.25878-.6013-.83366-.343-1.28156.1656-.28698.4765-.46584.811-.46657.9352 0 1.8549.24622 2.6621.7122 1.2315.71112 2.1128 1.86008 2.4811 3.23548.3682 1.375.1791 2.8108-.5323 4.0429-.1661.2879-.4765.4667-.8089.4667z"/><path d="m5.97383 14.4492c.94853 1.644 2.71924 2.6654 4.62067 2.6654.9293 0 1.848-.2469 2.6571-.714.8078-.4665 1.481-1.1406 1.9471-1.9492.1669-.2894.1677-.6481.0017-.9357-.2489-.4308-.8473-.5947-1.2812-.3432-.1434.0824-.262.2004-.3437.341-.3023.5247-.7383.9617-1.2618 1.2636-.5244.3026-1.1202.4627-1.7221.4627-1.23052 0-2.37684-.6612-2.99188-1.7259-.24798-.4305-.84607-.5936-1.28096-.3425-.44777.2583-.60278.8316-.34493 1.2778z"/><path d="m30 0h1v24h-1z"/><path d="m133.8 17.58c.84.4133 1.78.62 2.82.62.96 0 1.8-.1733 2.52-.52.733-.36 1.293-.84 1.68-1.44.386-.6133.58-1.2867.58-2.02 0-.84-.2-1.5133-.6-2.02-.4-.52-.894-.9133-1.48-1.18-.574-.2667-1.32-.54-2.24-.82-.747-.22668-1.34-.43335-1.78-.62001-.44-.18667-.807-.44-1.1-.76-.294-.33334-.44-.74667-.44-1.24 0-.66667.266-1.22667.8-1.68.546-.45334 1.3-.68 2.26-.68.68 0 1.286.13333 1.82.4.533.25333.973.55333 1.32.9l1.02-1c-.427-.45334-1.007-.85334-1.74-1.2-.72-.34667-1.527-.52-2.42-.52-.907 0-1.707.17333-2.4.52-.694.33333-1.227.79333-1.6 1.38-.374.57333-.56 1.2-.56 1.88 0 .84.2 1.52.6 2.04.4.50671.88.89331 1.44 1.16001.573.2533 1.326.5267 2.26.82.746.2267 1.34.4333 1.78.62s.806.4467 1.1.78c.293.32.44.7267.44 1.22 0 .7467-.287 1.36-.86 1.84-.56.48-1.36.72-2.4.72-.814 0-1.534-.16-2.16-.48-.627-.3333-1.147-.7333-1.56-1.2l-1.04 1c.466.56 1.113 1.0533 1.94 1.48z"/><path d="m190.68 18v-8.28001h-1.86v-1.32h1.86v-1.76c0-.92.227-1.62.68-2.1.467-.49334 1.12-.74 1.96-.74.267 0 .527.03333.78.1.253.05333.46.12.62.2v1.32c-.44-.2-.847-.3-1.22-.3-.453 0-.813.14-1.08.42-.253.28-.38.68-.38 1.2v1.66h5.64v9.60001h-1.36v-8.28001h-4.28v8.28001z"/><path d="m197.02 6.29999c-.253 0-.473-.08667-.66-.26-.173-.17334-.26-.38667-.26-.64 0-.25334.087-.46667.26-.64.187-.17334.407-.26.66-.26.24 0 .447.08666.62.26.187.17333.28.38666.28.64 0 .25333-.093.46666-.28.64-.173.17333-.38.26-.62.26z"/><path d="m204.592 18.2c-.867 0-1.674-.22-2.42-.66-.734-.4533-1.32-1.06-1.76-1.82-.427-.76-.64-1.6-.64-2.52s.213-1.76.64-2.52c.44-.75999 1.026-1.35999 1.76-1.79999.746-.45333 1.553-.68 2.42-.68.88 0 1.653.2 2.32.6.68.38667 1.213.84 1.6 1.35999l-1 .82c-.787-.9733-1.76-1.45999-2.92-1.45999-.627 0-1.207.16-1.74.47999-.52.32-.94.7667-1.26 1.34-.307.56-.46 1.18-.46 1.86s.153 1.3067.46 1.88c.32.56.74 1 1.26 1.32.533.32 1.113.48 1.74.48.653 0 1.226-.1467 1.72-.44.493-.2933.906-.6467 1.24-1.06l1 .82c-.387.5333-.927 1-1.62 1.4-.68.4-1.46.6-2.34.6z"/><path d="m185.633 18h1.36v-9.6h-1.36z"/><path d="m185.673 6.04c.187.17333.4.26.64.26.253 0 .467-.08667.64-.26.187-.17333.28-.38667.28-.64s-.093-.46667-.28-.64c-.173-.17333-.387-.26-.64-.26-.24 0-.453.08667-.64.26-.173.17333-.26.38667-.26.64s.087.46667.26.64z"/><path d="m182.365 18.1c-.84 0-1.494-.24-1.96-.72-.454-.4933-.68-1.2067-.68-2.14v-5.51999h-1.86v-1.32h1.22c.24 0 .426-.07333.56-.22.146-.16.22-.39333.22-.7v-2.28h1.22v3.2h2.36v1.32h-2.36v5.43999c0 .52.126.92.38 1.2.266.28.626.42 1.08.42.386 0 .793-.1 1.22-.3v1.32c-.16.08-.367.1467-.62.2-.254.0667-.514.1-.78.1z"/><path d="m168.135 8.40001v9.59999h1.36v-5.32c0-.6.133-1.14.4-1.62.266-.48.626-.8533 1.08-1.11999.453-.28.96-.42 1.52-.42.773 0 1.406.26 1.9.77999.506.52.76 1.2.76 2.04v5.66h1.36v-5.66c0-.8133-.167-1.5333-.5-2.16-.334-.62665-.794-1.11332-1.38-1.45999-.587-.34666-1.247-.52-1.98-.52-.707 0-1.347.18-1.92.54-.56.34667-.967.74667-1.22 1.2h-.02v-1.54z"/><path clip-rule="evenodd" d="m161.818 18.2c-.867 0-1.667-.22-2.4-.66-.733-.4533-1.32-1.06-1.76-1.82s-.66-1.6-.66-2.52c0-.9333.213-1.78.64-2.54.427-.75999 1-1.35999 1.72-1.79999s1.507-.66 2.36-.66c.84 0 1.6.20667 2.28.62.693.41334 1.24.99333 1.64 1.73999.4.7467.6 1.5867.6 2.52 0 .2133-.013.4267-.04.64h-7.8c.067.5867.26 1.12.58 1.6s.727.86 1.22 1.14c.507.28 1.06.42 1.66.42 1.107 0 2.087-.48 2.94-1.44l.94.86c-.427.5333-.967.9867-1.62 1.36-.653.36-1.42.54-2.3.54zm3.04-5.66c-.12-.9333-.46-1.6733-1.02-2.22-.56-.55999-1.267-.83999-2.12-.83999-.56 0-1.087.14-1.58.42-.48.26669-.88.63329-1.2 1.09999-.307.4667-.493.98-.56 1.54z" fill-rule="evenodd"/><path d="m153.551 18h1.36v-9.6h-1.36z"/><path d="m153.591 6.04c.187.17333.4.26.64.26.253 0 .467-.08667.64-.26.187-.17333.28-.38667.28-.64s-.093-.46667-.28-.64c-.173-.17333-.387-.26-.64-.26-.24 0-.453.08667-.64.26-.173.17333-.26.38667-.26.64s.087.46667.26.64z"/><path d="m147.74 18.2c-.867 0-1.673-.22-2.42-.66-.733-.4533-1.32-1.06-1.76-1.82-.427-.76-.64-1.6-.64-2.52s.213-1.76.64-2.52c.44-.75999 1.027-1.35999 1.76-1.79999.747-.45333 1.553-.68 2.42-.68.88 0 1.653.2 2.32.6.68.38667 1.213.84 1.6 1.35999l-1 .82c-.787-.9733-1.76-1.45999-2.92-1.45999-.627 0-1.207.16-1.74.47999-.52.32-.94.7667-1.26 1.34-.307.56-.46 1.18-.46 1.86s.153 1.3067.46 1.88c.32.56.74 1 1.26 1.32.533.32 1.113.48 1.74.48.653 0 1.227-.1467 1.72-.44s.907-.6467 1.24-1.06l1 .82c-.387.5333-.927 1-1.62 1.4-.68.4-1.46.6-2.34.6z"/><path clip-rule="evenodd" d="m121.334 18.2c-.96 0-1.84-.2267-2.64-.68-.787-.4534-1.414-1.0667-1.88-1.84-.454-.7734-.68-1.62-.68-2.54s.226-1.7667.68-2.54c.466-.77336 1.093-1.38002 1.88-1.82002.8-.45334 1.68-.68 2.64-.68.973 0 1.853.22666 2.64.68.8.44 1.426 1.04666 1.88 1.82002.453.7733.68 1.62.68 2.54s-.227 1.7666-.68 2.54c-.454.7733-1.08 1.3866-1.88 1.84-.787.4533-1.667.68-2.64.68zm0-2.5c.68 0 1.26-.2467 1.74-.74.48-.4934.72-1.1.72-1.82s-.24-1.32-.72-1.8c-.48-.4934-1.06-.74-1.74-.74s-1.26.2466-1.74.74c-.467.48-.7 1.08-.7 1.8s.233 1.3266.7 1.82c.48.4933 1.06.74 1.74.74z" fill-rule="evenodd"/><path d="m105.784 18h3.02l2.02-3.28h.06l2.02 3.28h3.12l-3.32-5 3.08-4.70001h-3.02l-1.78 2.96001h-.06l-1.76-2.96001h-3.12l3.08 4.70001z"/><path clip-rule="evenodd" d="m100.716 8.09998c.826 0 1.56.17333 2.2.52.653.33333 1.16.79333 1.52 1.38.36.57332.54 1.20662.54 1.90002v6.1h-2.56v-1.34h-.06c-.24.3866-.62.74-1.14 1.06s-1.114.48-1.7804.48c-.6133 0-1.1667-.1267-1.66-.38-.48-.2534-.86-.5934-1.14-1.02-.28-.44-.42-.9067-.42-1.4 0-.8267.26-1.5067.78-2.04.52-.5334 1.26-.8934 2.22-1.08l3.0604-.58c-.027-.3867-.2-.7134-.52-.98-.307-.28-.7-.42-1.18-.42-.8271 0-1.5804.38-2.2604 1.14l-1.54-1.48002c.4267-.50667.9733-.94 1.64-1.3.68-.37334 1.4467-.56 2.3004-.56zm-.5 7.94002c.586 0 1.073-.2067 1.46-.62.4-.4134.6-.9534.6-1.62v-.32l-2.1.42c-.3737.0666-.6671.2066-.8804.42-.2133.2-.32.4266-.32.68 0 .3066.1067.56.32.76.2267.1866.5333.28.9204.28z" fill-rule="evenodd"/><path d="m79.8156 8.29998v9.70002h2.7v-5.2c0-.6667.1733-1.1934.52-1.58.3467-.3867.7933-.58 1.34-.58.4667 0 .8467.1666 1.14.5.3067.32.46.7733.46 1.36v5.5h2.7v-5.2c0-.6667.1733-1.1934.52-1.58.3467-.3867.7867-.58 1.32-.58.4667 0 .8467.1666 1.14.5.3067.32.46.7733.46 1.36v5.5h2.7v-5.76c0-.84-.1533-1.5734-.46-2.2-.3067-.62669-.72-1.10669-1.24-1.44002-.5067-.33334-1.0733-.5-1.7-.5-.7733 0-1.46.17333-2.06.52-.5867.33333-.9933.70666-1.22 1.12h-.08c-.2-.41334-.5467-.78667-1.04-1.12-.4933-.34667-1.0733-.52-1.74-.52-.6533 0-1.22.16666-1.7.5-.48.32-.8133.68-1 1.08h-.06v-1.38z"/><path d="m72.6594 18v-9.70002h2.7v1.2h.06c.24-.36.6-.68 1.08-.96.4933-.29334 1.0466-.44 1.66-.44h.46v2.90002c-.32-.1067-.62-.16-.9-.16-.6934 0-1.26.24-1.7.72-.44.4666-.66 1.0933-.66 1.88v4.56z"/><path clip-rule="evenodd" d="m68.5953 8.61998c-.64-.34667-1.3733-.52-2.2-.52-.8533 0-1.62.18666-2.3.56-.6667.36-1.2133.79333-1.64 1.3l1.54 1.48002c.68-.76 1.4333-1.14 2.26-1.14.48 0 .8733.14 1.18.42.32.2666.4933.5933.52.98l-3.06.58c-.96.1866-1.7.5466-2.22 1.08-.52.5333-.78 1.2133-.78 2.04 0 .4933.14.96.42 1.4.28.4266.66.7666 1.14 1.02.4933.2533 1.0467.38 1.66.38.6667 0 1.26-.16 1.78-.48s.9-.6734 1.14-1.06h.06v1.34h2.56v-6.1c0-.6934-.18-1.3267-.54-1.90002-.36-.58667-.8667-1.04667-1.52-1.38zm-1.24 6.80002c-.3867.4133-.8733.62-1.46.62-.3867 0-.6933-.0934-.92-.28-.2133-.2-.32-.4534-.32-.76 0-.2534.1067-.48.32-.68.2133-.2134.5067-.3534.88-.42l2.1-.42v.32c0 .6666-.2 1.2066-.6 1.62z" fill-rule="evenodd"/><path d="m51.2008 18v-14h2.7v5.68h.06c.24-.4.6133-.76 1.12-1.08.52-.33333 1.1133-.5 1.78-.5.7066 0 1.3333.16667 1.88.5.5466.33333.9733.81333 1.28 1.44.32.6133.48 1.3467.48 2.2v5.76h-2.7v-5.4c0-.6-.1667-1.0733-.5-1.42-.3334-.36-.7667-.54-1.3-.54-.6134 0-1.12.2133-1.52.64-.3867.4133-.58.9533-.58 1.62v5.1z"/><path clip-rule="evenodd" d="m38.8 4v14h3v-4.6h2.96c.9467 0 1.7933-.2067 2.54-.62.76-.4133 1.3467-.9733 1.76-1.68.4267-.72.64-1.52.64-2.4s-.2133-1.67333-.64-2.38c-.4133-.72-1-1.28667-1.76-1.7-.7467-.41333-1.5933-.62-2.54-.62zm7.3 6.12c-.3867.3867-.8667.58-1.44.58h-2.86v-4h2.86c.5733 0 1.0533.2 1.44.6.4.38667.6.85333.6 1.4s-.2 1.02-.6 1.42z" fill-rule="evenodd"/></g></svg>