<svg fill="none" height="48" viewBox="0 0 163 48" width="163" xmlns="http://www.w3.org/2000/svg"><g fill="#000"><path clip-rule="evenodd" d="m24 48c13.2548 0 24-10.7452 24-24s-10.7452-24-24-24-24 10.7452-24 24 10.7452 24 24 24zm-5.8288-19.9727c-.6635 0-1.2841-.3599-1.6195-.9379-.935-1.6172-1.4291-3.4579-1.4291-5.3233 0-5.8743 4.781-10.6537 10.6579-10.6537 1.0304 0 1.8692.8416 1.8692 1.8758 0 1.0346-.8411 1.8761-1.875 1.8761-3.8061 0-6.9017 3.0963-6.9017 6.9018 0 1.2082.32 2.4003.9259 3.4483.1629.2813.2486.605.2486.9362 0 1.0348-.8416 1.8767-1.8763 1.8767zm3.7625-10.409c-1.1146 1.0325-1.8123 2.5085-1.8123 4.1478 0 1.0285.278 1.9913.7592 2.8239.2689.466.4147 1.0023.4147 1.5606 0 1.2488-.732 2.3259-1.7898 2.8271 1.4512.4483 3.0781.3143 4.498-.5047.8915-.5145 1.5858-1.2363 2.0658-2.0704.2698-.4658.6599-.8599 1.1445-1.1392 1.0808-.6243 2.3803-.529 3.3432.1378-.337-1.4817-1.2664-2.8239-2.6866-3.644-.891-.5145-1.8636-.7546-2.8246-.754-.5385 0-1.0759-.1415-1.5594-.4212-1.0817-.6244-1.649-1.7968-1.5527-2.9637zm10.716 15.3006c-.3282 0-.6536-.087-.9412-.2534-.896-.5174-1.2047-1.6662-.6869-2.5617 1.9016-3.296.7688-7.5251-2.5266-9.4281-1.0443-.6028-2.235-.9215-3.4434-.9215-.3308 0-.6539-.0876-.9419-.2535-.8953-.5175-1.2026-1.6673-.6858-2.5631.3311-.574.9528-.9317 1.6219-.9331 1.8705 0 3.7098.4924 5.3242 1.4243 2.463 1.4223 4.2256 3.7202 4.9622 6.471.7364 2.7499.3582 5.6216-1.0647 8.0859-.332.5757-.9529.9332-1.6178.9332zm-11.4607 1.3103c-3.8029 0-7.3443-2.0429-9.2413-5.3307-.5157-.8924-.2057-2.0392.6898-2.5557.8698-.5022 2.066-.176 2.5619.685 1.2301 2.1294 3.5228 3.4519 5.9837 3.4519 1.2039 0 2.3955-.3202 3.4442-.9254 1.047-.6039 1.9191-1.4778 2.5238-2.5273.1632-.2813.4005-.5171.6873-.6821.8679-.5029 2.0647-.1752 2.5623.6865.3321.5751.3304 1.2926-.0033 1.8714-.9321 1.6172-2.2785 2.9654-3.8942 3.8983-1.6182.9343-3.4556 1.4281-5.3142 1.4281z" fill-rule="evenodd"/><path d="m60 0h1v48h-1z"/><path clip-rule="evenodd" d="m74.8 8v14h3v-4.6h2.96c.9467 0 1.7933-.2067 2.54-.62.76-.4133 1.3467-.9733 1.76-1.68.4267-.72.64-1.52.64-2.4s-.2133-1.6733-.64-2.38c-.4133-.72-1-1.28667-1.76-1.7-.7467-.41333-1.5933-.62-2.54-.62zm7.3 6.12c-.3867.3867-.8667.58-1.44.58h-2.86v-4h2.86c.5733 0 1.0533.2 1.44.6.4.3867.6.8533.6 1.4s-.2 1.02-.6 1.42z" fill-rule="evenodd"/><path d="m87.2008 22v-14h2.7v5.68h.06c.24-.4.6133-.76 1.12-1.08.52-.3333 1.1133-.5 1.78-.5.7066 0 1.3333.1667 1.88.5.5466.3333.9733.8133 1.28 1.44.32.6133.48 1.3467.48 2.2v5.76h-2.7v-5.4c0-.6-.1667-1.0733-.5-1.42-.3334-.36-.7667-.54-1.3-.54-.6134 0-1.12.2133-1.52.64-.3867.4133-.58.9533-.58 1.62v5.1z"/><path clip-rule="evenodd" d="m102.395 12.1c.827 0 1.56.1733 2.2.52.654.3333 1.16.7933 1.52 1.38.36.5733.54 1.2066.54 1.9v6.1h-2.56v-1.34h-.06c-.24.3866-.62.74-1.14 1.06s-1.113.48-1.78.48c-.613 0-1.1664-.1267-1.6597-.38-.48-.2534-.86-.5934-1.14-1.02-.28-.44-.42-.9067-.42-1.4 0-.8267.26-1.5067.78-2.04.52-.5334 1.26-.8934 2.2197-1.08l3.06-.58c-.026-.3867-.2-.7134-.52-.98-.306-.28-.7-.42-1.18-.42-.826 0-1.58.38-2.2597 1.14l-1.54-1.48c.4267-.5067.9733-.94 1.6397-1.3.68-.3734 1.447-.56 2.3-.56zm-.5 7.94c.587 0 1.074-.2067 1.46-.62.4-.4134.6-.9534.6-1.62v-.32l-2.1.42c-.373.0666-.666.2066-.88.42-.213.2-.32.4266-.32.68 0 .3066.107.56.32.76.227.1866.534.28.92.28z" fill-rule="evenodd"/><path d="m108.659 22v-9.7h2.7v1.2h.06c.24-.36.6-.68 1.08-.96.494-.2934 1.047-.44 1.66-.44h.46v2.9c-.32-.1067-.62-.16-.9-.16-.693 0-1.26.24-1.7.72-.44.4666-.66 1.0933-.66 1.88v4.56z"/><path d="m115.816 22v-9.7h2.7v1.38h.06c.186-.4.52-.76 1-1.08.48-.3334 1.046-.5 1.7-.5.666 0 1.246.1733 1.74.52.493.3333.84.7066 1.04 1.12h.08c.226-.4134.633-.7867 1.22-1.12.6-.3467 1.286-.52 2.06-.52.626 0 1.193.1666 1.7.5.52.3333.933.8133 1.24 1.44.306.6266.46 1.36.46 2.2v5.76h-2.7v-5.5c0-.5867-.154-1.04-.46-1.36-.294-.3334-.674-.5-1.14-.5-.534 0-.974.1933-1.32.58-.347.3866-.52.9133-.52 1.58v5.2h-2.7v-5.5c0-.5867-.154-1.04-.46-1.36-.294-.3334-.674-.5-1.14-.5-.547 0-.994.1933-1.34.58-.347.3866-.52.9133-.52 1.58v5.2z"/><path clip-rule="evenodd" d="m136.716 12.1c.826 0 1.56.1733 2.2.52.653.3333 1.16.7933 1.52 1.38.36.5733.54 1.2066.54 1.9v6.1h-2.56v-1.34h-.06c-.24.3866-.62.74-1.14 1.06s-1.114.48-1.78.48c-.614 0-1.167-.1267-1.66-.38-.48-.2534-.86-.5934-1.14-1.02-.28-.44-.42-.9067-.42-1.4 0-.8267.26-1.5067.78-2.04.52-.5334 1.26-.8934 2.22-1.08l3.06-.58c-.027-.3867-.2-.7134-.52-.98-.307-.28-.7-.42-1.18-.42-.827 0-1.58.38-2.26 1.14l-1.54-1.48c.426-.5067.973-.94 1.64-1.3.68-.3734 1.446-.56 2.3-.56zm-.5 7.94c.586 0 1.073-.2067 1.46-.62.4-.4134.6-.9534.6-1.62v-.32l-2.1.42c-.374.0666-.667.2066-.88.42-.214.2-.32.4266-.32.68 0 .3066.106.56.32.76.226.1866.533.28.92.28z" fill-rule="evenodd"/><path clip-rule="evenodd" d="m157.334 22.2c-.96 0-1.84-.2267-2.64-.68-.787-.4534-1.414-1.0667-1.88-1.84-.454-.7734-.68-1.62-.68-2.54s.226-1.7667.68-2.54c.466-.7734 1.093-1.38 1.88-1.82.8-.4534 1.68-.68 2.64-.68.973 0 1.853.2266 2.64.68.8.44 1.426 1.0466 1.88 1.82.453.7733.68 1.62.68 2.54s-.227 1.7666-.68 2.54c-.454.7733-1.08 1.3866-1.88 1.84-.787.4533-1.667.68-2.64.68zm0-2.5c.68 0 1.26-.2467 1.74-.74.48-.4934.72-1.1.72-1.82s-.24-1.32-.72-1.8c-.48-.4934-1.06-.74-1.74-.74s-1.26.2466-1.74.74c-.467.48-.7 1.08-.7 1.8s.233 1.3266.7 1.82c.48.4933 1.06.74 1.74.74z" fill-rule="evenodd"/><path d="m141.784 22h3.02l2.02-3.28h.06l2.02 3.28h3.12l-3.32-5 3.08-4.7h-3.02l-1.78 2.96h-.06l-1.76-2.96h-3.12l3.08 4.7z"/><path d="m130.065 38.632c.598.352 1.243.528 1.936.528.704 0 1.328-.16 1.872-.48.555-.32.987-.6934 1.296-1.12l-.8-.656c-.266.3306-.597.6133-.992.848-.394.2346-.853.352-1.376.352-.501 0-.965-.128-1.392-.384-.416-.256-.752-.608-1.008-1.056-.245-.4587-.368-.96-.368-1.504s.123-1.04.368-1.488c.256-.4587.592-.816 1.008-1.072.427-.256.891-.384 1.392-.384.928 0 1.707.3893 2.336 1.168l.8-.656c-.309-.416-.736-.7787-1.28-1.088-.533-.32-1.152-.48-1.856-.48-.693 0-1.338.1813-1.936.544-.586.352-1.056.832-1.408 1.44-.341.608-.512 1.28-.512 2.016s.171 1.408.512 2.016c.352.608.822 1.0933 1.408 1.456z"/><path d="m120.872 32.376v6.624h1.088v-6.624h3.424v6.624h1.088v-7.68h-4.512v-1.328c0-.416.102-.736.304-.96.214-.224.502-.336.864-.336.299 0 .624.08.976.24v-1.056c-.128-.064-.293-.1173-.496-.16-.202-.0533-.41-.08-.624-.08-.672 0-1.194.1973-1.568.592-.362.384-.544.944-.544 1.68v1.408h-1.488v1.056z"/><path d="m125.944 29.64c-.202 0-.378-.0693-.528-.208-.138-.1387-.208-.3093-.208-.512s.07-.3733.208-.512c.15-.1387.326-.208.528-.208.192 0 .358.0693.496.208.15.1387.224.3093.224.512s-.074.3733-.224.512c-.138.1387-.304.208-.496.208z"/><path d="m117.923 39h-1.088v-7.68h1.088z"/><path d="m116.867 29.432c.149.1387.32.208.512.208.202 0 .373-.0693.512-.208.149-.1387.224-.3093.224-.512s-.075-.3733-.224-.512c-.139-.1387-.31-.208-.512-.208-.192 0-.363.0693-.512.208-.139.1387-.208.3093-.208.512s.069.3733.208.512z"/><path d="m112.652 38.504c.373.384.896.576 1.568.576.213 0 .421-.0267.624-.08.203-.0427.368-.096.496-.16v-1.056c-.341.16-.667.24-.976.24-.363 0-.651-.112-.864-.336-.203-.224-.304-.544-.304-.96v-4.352h1.888v-1.056h-1.888v-2.56h-.976v1.824c0 .2453-.059.432-.176.56-.107.1173-.256.176-.448.176h-.976v1.056h1.488v4.416c0 .7467.181 1.3173.544 1.712z"/><path d="m102.836 31.32v7.68h1.088v-4.256c0-.48.107-.912.32-1.296s.501-.6827.864-.896c.363-.224.768-.336 1.216-.336.619 0 1.125.208 1.52.624.405.416.608.96.608 1.632v4.528h1.088v-4.528c0-.6507-.133-1.2267-.4-1.728-.267-.5014-.635-.8907-1.104-1.168-.469-.2774-.997-.416-1.584-.416-.565 0-1.077.144-1.536.432-.448.2773-.773.5973-.976.96h-.016v-1.232z"/><path clip-rule="evenodd" d="m95.8626 38.632c.5867.352 1.2267.528 1.92.528.704 0 1.3173-.144 1.84-.432.5224-.2987.9544-.6614 1.2964-1.088l-.752-.688c-.6831.768-1.4671 1.152-2.3524 1.152-.48 0-.9227-.112-1.328-.336-.3947-.224-.72-.528-.976-.912s-.4107-.8107-.464-1.28h6.2404c.021-.1707.032-.3414.032-.512 0-.7467-.16-1.4187-.48-2.016-.32-.5974-.758-1.0614-1.3124-1.392-.544-.3307-1.152-.496-1.824-.496-.6827 0-1.312.176-1.888.528s-1.0347.832-1.376 1.44-.512 1.2853-.512 2.032c0 .736.176 1.408.528 2.016s.8213 1.0933 1.408 1.456zm3.536-5.776c.448.4373.7204 1.0293.8164 1.776h-5.1844c.0533-.448.2027-.8587.448-1.232.256-.3734.576-.6667.96-.88.3947-.224.816-.336 1.264-.336.6827 0 1.248.224 1.696.672z" fill-rule="evenodd"/><path d="m91.169 39h1.088v-7.68h-1.088z"/><path d="m91.713 29.64c-.192 0-.3627-.0693-.512-.208-.1387-.1387-.208-.3093-.208-.512s.0693-.3733.208-.512c.1493-.1387.32-.208.512-.208.2026 0 .3733.0693.512.208.1493.1387.224.3093.224.512s-.0747.3733-.224.512c-.1387.1387-.3094.208-.512.208z"/><path d="m86.5201 39.16c-.6933 0-1.3387-.176-1.936-.528-.5867-.3627-1.056-.848-1.408-1.456-.3413-.608-.512-1.28-.512-2.016s.1707-1.408.512-2.016c.352-.608.8213-1.088 1.408-1.44.5973-.3627 1.2427-.544 1.936-.544.704 0 1.3227.16 1.856.48.544.3093.9707.672 1.28 1.088l-.8.656c-.6293-.7787-1.408-1.168-2.336-1.168-.5013 0-.9653.128-1.392.384-.416.256-.752.6133-1.008 1.072-.2453.448-.368.944-.368 1.488s.1227 1.0453.368 1.504c.256.448.592.8 1.008 1.056.4267.256.8907.384 1.392.384.5227 0 .9813-.1174 1.376-.352.3947-.2347.7253-.5174.992-.848l.8.656c-.3093.4266-.7413.8-1.296 1.12-.544.32-1.168.48-1.872.48z"/><path d="m77.624 39.16c-.832 0-1.584-.1653-2.256-.496-.6614-.3413-1.1787-.736-1.552-1.184l.832-.8c.3306.3733.7466.6933 1.248.96.5013.256 1.0773.384 1.728.384.832 0 1.472-.192 1.92-.576.4586-.384.688-.8747.688-1.472 0-.3947-.1174-.72-.352-.976-.2347-.2667-.528-.4747-.88-.624s-.8267-.3147-1.424-.496c-.7467-.2347-1.3494-.4533-1.808-.656-.448-.2133-.832-.5227-1.152-.928-.32-.416-.48-.96-.48-1.632 0-.544.1493-1.0453.448-1.504.2986-.4693.7253-.8373 1.28-1.104.5546-.2773 1.1946-.416 1.92-.416.7146 0 1.36.1387 1.936.416.5866.2773 1.0506.5973 1.392.96l-.816.8c-.2774-.2773-.6294-.5173-1.056-.72-.4267-.2133-.912-.32-1.456-.32-.768 0-1.3707.1813-1.808.544-.4267.3627-.64.8107-.64 1.344 0 .3947.1173.7253.352.992.2346.256.528.4587.88.608s.8266.3147 1.424.496c.736.224 1.3333.4427 1.792.656.4693.2133.864.528 1.184.944.32.4054.48.944.48 1.616 0 .5867-.1547 1.1253-.464 1.616-.3094.48-.7574.864-1.344 1.152-.576.2773-1.248.416-2.016.416z"/></g></svg>