<svg fill="none" height="48" viewBox="0 0 163 48" width="163" xmlns="http://www.w3.org/2000/svg"><circle cx="24" cy="24" fill="#1565c0" r="24"/><g fill="#fff"><path d="m16.5517 27.0894c.3353.578.956.9379 1.6195.9379 1.0347 0 1.8762-.8419 1.8762-1.8767 0-.3312-.0856-.6549-.2485-.9362-.6059-1.048-.9259-2.2401-.9259-3.4483 0-3.8055 3.0956-6.9018 6.9017-6.9018 1.0339 0 1.875-.8415 1.875-1.8761 0-1.0342-.8388-1.8758-1.8692-1.8758-5.8769 0-10.6579 4.7794-10.6579 10.6537 0 1.8654.4941 3.7062 1.4291 5.3233z"/><path d="m20.1214 21.7661c0-1.6393.6977-3.1153 1.8123-4.1477-.0963 1.1668.471 2.3392 1.5527 2.9636.4835.2797 1.0209.4212 1.5594.4212.961-.0006 1.9336.2395 2.8246.754 1.4202.8201 2.3496 2.1623 2.6866 3.644-.9629-.6668-2.2624-.7621-3.3432-.1378-.4845.2793-.8748.6734-1.1445 1.1393-.48.834-1.1743 1.5558-2.0658 2.0702-1.4199.8191-3.0468.9531-4.498.5048 1.0578-.5012 1.7898-1.5783 1.7898-2.8271 0-.5582-.1458-1.0946-.4147-1.5606-.4812-.8325-.7592-1.7954-.7592-2.8239z"/><path d="m32.6497 32.919c-.3282 0-.6536-.0871-.9412-.2535-.896-.5174-1.2047-1.6662-.6869-2.5617 1.9016-3.296.7688-7.5251-2.5266-9.4281-1.0443-.6028-2.2349-.9215-3.4434-.9215-.3308 0-.6539-.0876-.9419-.2535-.8953-.5176-1.2026-1.6673-.6858-2.5631.3311-.574.9528-.9317 1.6219-.9332 1.8704 0 3.7097.4925 5.3242 1.4244 2.463 1.4223 4.2256 3.7202 4.9622 6.471.7364 2.7499.3582 5.6216-1.0647 8.0858-.332.5758-.9529.9334-1.6178.9334z"/><path d="m11.9477 28.8985c1.897 3.2878 5.4384 5.3307 9.2413 5.3307 1.8586 0 3.696-.4939 5.3142-1.428 1.6157-.933 2.9621-2.2812 3.8942-3.8984.3337-.5788.3354-1.2963.0033-1.8714-.4976-.8617-1.6944-1.1893-2.5623-.6865-.2868.165-.5241.4008-.6873.6821-.6047 1.0495-1.4768 1.9234-2.5238 2.5272-1.0487.6053-2.2403.9255-3.4442.9255-2.4609 0-4.7536-1.3226-5.9837-3.4518-.4959-.8611-1.6921-1.1873-2.5619-.6851-.8955.5165-1.2055 1.6633-.6898 2.5557z"/><path d="m60 0h1v48h-1z"/><path clip-rule="evenodd" d="m74.8 22v-14h5.96c.9467 0 1.7933.20667 2.54.62.76.41333 1.3467.98 1.76 1.7.4267.7067.64 1.5.64 2.38s-.2133 1.68-.64 2.4c-.4133.7067-1 1.2667-1.76 1.68-.7467.4133-1.5933.62-2.54.62h-2.96v4.6zm5.86-7.3c.5733 0 1.0533-.1933 1.44-.58.4-.4.6-.8733.6-1.42s-.2-1.0133-.6-1.4c-.3867-.4-.8667-.6-1.44-.6h-2.86v4z" fill-rule="evenodd"/><path d="m87.2008 8v14h2.7v-5.1c0-.6667.1933-1.2067.58-1.62.4-.4267.9066-.64 1.52-.64.5333 0 .9666.18 1.3.54.3333.3467.5.82.5 1.42v5.4h2.7v-5.76c0-.8533-.16-1.5867-.48-2.2-.3067-.6267-.7334-1.1067-1.28-1.44-.5467-.3333-1.1734-.5-1.88-.5-.6667 0-1.26.1667-1.78.5-.5067.32-.88.68-1.12 1.08h-.06v-5.68z"/><path clip-rule="evenodd" d="m102.395 12.1c.827 0 1.56.1733 2.2.52.654.3333 1.16.7933 1.52 1.38.36.5733.54 1.2066.54 1.9v6.1h-2.56v-1.34h-.06c-.24.3866-.62.74-1.14 1.06s-1.113.48-1.78.48c-.613 0-1.1664-.1267-1.6597-.38-.48-.2534-.86-.5934-1.14-1.02-.28-.44-.42-.9067-.42-1.4 0-.8267.26-1.5067.78-2.04.52-.5334 1.26-.8934 2.2197-1.08l3.06-.58c-.026-.3867-.2-.7134-.52-.98-.306-.28-.7-.42-1.18-.42-.826 0-1.58.38-2.2597 1.14l-1.54-1.48c.4267-.5067.9733-.94 1.6397-1.3.68-.3734 1.447-.56 2.3-.56zm-.5 7.94c.587 0 1.074-.2067 1.46-.62.4-.4134.6-.9534.6-1.62v-.32l-2.1.42c-.373.0666-.666.2066-.88.42-.213.2-.32.4266-.32.68 0 .3066.107.56.32.76.227.1866.534.28.92.28z" fill-rule="evenodd"/><path d="m108.659 12.3v9.7h2.7v-4.56c0-.7867.22-1.4134.66-1.88.44-.48 1.007-.72 1.7-.72.28 0 .58.0533.9.16v-2.9h-.46c-.613 0-1.166.1466-1.66.44-.48.28-.84.6-1.08.96h-.06v-1.2z"/><path d="m115.816 22v-9.7h2.7v1.38h.06c.186-.4.52-.76 1-1.08.48-.3334 1.046-.5 1.7-.5.666 0 1.246.1733 1.74.52.493.3333.84.7066 1.04 1.12h.08c.226-.4134.633-.7867 1.22-1.12.6-.3467 1.286-.52 2.06-.52.626 0 1.193.1666 1.7.5.52.3333.933.8133 1.24 1.44.306.6266.46 1.36.46 2.2v5.76h-2.7v-5.5c0-.5867-.154-1.04-.46-1.36-.294-.3334-.674-.5-1.14-.5-.534 0-.974.1933-1.32.58-.347.3866-.52.9133-.52 1.58v5.2h-2.7v-5.5c0-.5867-.154-1.04-.46-1.36-.294-.3334-.674-.5-1.14-.5-.547 0-.994.1933-1.34.58-.347.3866-.52.9133-.52 1.58v5.2z"/><path clip-rule="evenodd" d="m138.916 12.62c-.64-.3467-1.374-.52-2.2-.52-.854 0-1.62.1866-2.3.56-.667.36-1.214.7933-1.64 1.3l1.54 1.48c.68-.76 1.433-1.14 2.26-1.14.48 0 .873.14 1.18.42.32.2666.493.5933.52.98l-3.06.58c-.96.1866-1.7.5466-2.22 1.08-.52.5333-.78 1.2133-.78 2.04 0 .4933.14.96.42 1.4.28.4266.66.7666 1.14 1.02.493.2533 1.046.38 1.66.38.666 0 1.26-.16 1.78-.48s.9-.6734 1.14-1.06h.06v1.34h2.56v-6.1c0-.6934-.18-1.3267-.54-1.9-.36-.5867-.867-1.0467-1.52-1.38zm-1.24 6.8c-.387.4133-.874.62-1.46.62-.387 0-.694-.0934-.92-.28-.214-.2-.32-.4534-.32-.76 0-.2534.106-.48.32-.68.213-.2134.506-.3534.88-.42l2.1-.42v.32c0 .6666-.2 1.2066-.6 1.62z" fill-rule="evenodd"/><path clip-rule="evenodd" d="m157.334 22.2c-.96 0-1.84-.2267-2.64-.68-.787-.4534-1.414-1.0667-1.88-1.84-.454-.7734-.68-1.62-.68-2.54s.226-1.7667.68-2.54c.466-.7734 1.093-1.38 1.88-1.82.8-.4534 1.68-.68 2.64-.68.973 0 1.853.2266 2.64.68.8.44 1.426 1.0466 1.88 1.82.453.7733.68 1.62.68 2.54s-.227 1.7666-.68 2.54c-.454.7733-1.08 1.3866-1.88 1.84-.787.4533-1.667.68-2.64.68zm0-2.5c.68 0 1.26-.2467 1.74-.74.48-.4934.72-1.1.72-1.82s-.24-1.32-.72-1.8c-.48-.4934-1.06-.74-1.74-.74s-1.26.2466-1.74.74c-.467.48-.7 1.08-.7 1.8s.233 1.3266.7 1.82c.48.4933 1.06.74 1.74.74z" fill-rule="evenodd"/><path d="m144.804 22h-3.02l3.34-5-3.08-4.7h3.12l1.76 2.96h.06l1.78-2.96h3.02l-3.08 4.7 3.32 5h-3.12l-2.02-3.28h-.06z"/><path d="m130.065 38.632c.598.352 1.243.528 1.936.528.704 0 1.328-.16 1.872-.48.555-.32.987-.6934 1.296-1.12l-.8-.656c-.266.3306-.597.6133-.992.848-.394.2346-.853.352-1.376.352-.501 0-.965-.128-1.392-.384-.416-.256-.752-.608-1.008-1.056-.245-.4587-.368-.96-.368-1.504s.123-1.04.368-1.488c.256-.4587.592-.816 1.008-1.072.427-.256.891-.384 1.392-.384.928 0 1.707.3893 2.336 1.168l.8-.656c-.309-.416-.736-.7787-1.28-1.088-.533-.32-1.152-.48-1.856-.48-.693 0-1.338.1813-1.936.544-.586.352-1.056.832-1.408 1.44-.341.608-.512 1.28-.512 2.016s.171 1.408.512 2.016c.352.608.822 1.0933 1.408 1.456z"/><path d="m120.872 39v-6.624h-1.488v-1.056h1.488v-1.408c0-.736.182-1.296.544-1.68.374-.3947.896-.592 1.568-.592.214 0 .422.0267.624.08.203.0427.368.096.496.16v1.056c-.352-.16-.677-.24-.976-.24-.362 0-.65.112-.864.336-.202.224-.304.544-.304.96v1.328h4.512v7.68h-1.088v-6.624h-3.424v6.624z"/><path d="m125.944 29.64c-.202 0-.378-.0693-.528-.208-.138-.1387-.208-.3093-.208-.512s.07-.3733.208-.512c.15-.1387.326-.208.528-.208.192 0 .358.0693.496.208.15.1387.224.3093.224.512s-.074.3733-.224.512c-.138.1387-.304.208-.496.208z"/><path d="m116.835 39h1.088v-7.68h-1.088z"/><path d="m116.867 29.432c.149.1387.32.208.512.208.202 0 .373-.0693.512-.208.149-.1387.224-.3093.224-.512s-.075-.3733-.224-.512c-.139-.1387-.31-.208-.512-.208-.192 0-.363.0693-.512.208-.139.1387-.208.3093-.208.512s.069.3733.208.512z"/><path d="m114.22 39.08c-.672 0-1.195-.192-1.568-.576-.363-.3947-.544-.9653-.544-1.712v-4.416h-1.488v-1.056h.976c.192 0 .341-.0587.448-.176.117-.128.176-.3147.176-.56v-1.824h.976v2.56h1.888v1.056h-1.888v4.352c0 .416.101.736.304.96.213.224.501.336.864.336.309 0 .635-.08.976-.24v1.056c-.128.064-.293.1173-.496.16-.203.0533-.411.08-.624.08z"/><path d="m102.836 31.32v7.68h1.088v-4.256c0-.48.107-.912.32-1.296s.501-.6827.864-.896c.363-.224.768-.336 1.216-.336.619 0 1.125.208 1.52.624.405.416.608.96.608 1.632v4.528h1.088v-4.528c0-.6507-.133-1.2267-.4-1.728-.267-.5014-.635-.8907-1.104-1.168-.469-.2774-.997-.416-1.584-.416-.565 0-1.077.144-1.536.432-.448.2773-.773.5973-.976.96h-.016v-1.232z"/><path clip-rule="evenodd" d="m97.7826 39.16c-.6933 0-1.3333-.176-1.92-.528-.5867-.3627-1.056-.848-1.408-1.456s-.528-1.28-.528-2.016c0-.7467.1707-1.424.512-2.032s.8-1.088 1.376-1.44 1.2053-.528 1.888-.528c.672 0 1.28.1653 1.824.496.5544.3306.9924.7946 1.3124 1.392.32.5973.48 1.2693.48 2.016 0 .1706-.011.3413-.032.512h-6.2404c.0533.4693.208.896.464 1.28s.5813.688.976.912c.4053.224.848.336 1.328.336.8853 0 1.6693-.384 2.3524-1.152l.752.688c-.342.4266-.774.7893-1.2964 1.088-.5227.288-1.136.432-1.84.432zm2.4324-4.528c-.096-.7467-.3684-1.3387-.8164-1.776-.448-.448-1.0133-.672-1.696-.672-.448 0-.8693.112-1.264.336-.384.2133-.704.5066-.96.88-.2453.3733-.3947.784-.448 1.232z" fill-rule="evenodd"/><path d="m91.169 39h1.088v-7.68h-1.088z"/><path d="m91.201 29.432c.1493.1387.32.208.512.208.2026 0 .3733-.0693.512-.208.1493-.1387.224-.3093.224-.512s-.0747-.3733-.224-.512c-.1387-.1387-.3094-.208-.512-.208-.192 0-.3627.0693-.512.208-.1387.1387-.208.3093-.208.512s.0693.3733.208.512z"/><path d="m86.5201 39.16c-.6933 0-1.3387-.176-1.936-.528-.5867-.3627-1.056-.848-1.408-1.456-.3413-.608-.512-1.28-.512-2.016s.1707-1.408.512-2.016c.352-.608.8213-1.088 1.408-1.44.5973-.3627 1.2427-.544 1.936-.544.704 0 1.3227.16 1.856.48.544.3093.9707.672 1.28 1.088l-.8.656c-.6293-.7787-1.408-1.168-2.336-1.168-.5013 0-.9653.128-1.392.384-.416.256-.752.6133-1.008 1.072-.2453.448-.368.944-.368 1.488s.1227 1.0453.368 1.504c.256.448.592.8 1.008 1.056.4267.256.8907.384 1.392.384.5227 0 .9813-.1174 1.376-.352.3947-.2347.7253-.5174.992-.848l.8.656c-.3093.4266-.7413.8-1.296 1.12-.544.32-1.168.48-1.872.48z"/><path d="m75.368 38.664c.672.3307 1.424.496 2.256.496.768 0 1.44-.1387 2.016-.416.5866-.288 1.0346-.672 1.344-1.152.3093-.4907.464-1.0293.464-1.616 0-.672-.16-1.2107-.48-1.616-.32-.416-.7147-.7307-1.184-.944-.4587-.2133-1.056-.432-1.792-.656-.5974-.1813-1.072-.3467-1.424-.496s-.6454-.352-.88-.608c-.2347-.2667-.352-.5973-.352-.992 0-.5333.2133-.9813.64-1.344.4373-.3627 1.04-.544 1.808-.544.544 0 1.0293.1067 1.456.32.4266.2027.7786.4427 1.056.72l.816-.8c-.3414-.3627-.8054-.6827-1.392-.96-.576-.2773-1.2214-.416-1.936-.416-.7254 0-1.3654.1387-1.92.416-.5547.2667-.9814.6347-1.28 1.104-.2987.4587-.448.96-.448 1.504 0 .672.16 1.216.48 1.632.32.4053.704.7147 1.152.928.4586.2027 1.0613.4213 1.808.656.5973.1813 1.072.3467 1.424.496s.6453.3573.88.624c.2346.256.352.5813.352.976 0 .5973-.2294 1.088-.688 1.472-.448.384-1.088.576-1.92.576-.6507 0-1.2267-.128-1.728-.384-.5014-.2667-.9174-.5867-1.248-.96l-.832.8c.3733.448.8906.8427 1.552 1.184z"/></g></svg>