<svg fill="none" height="24" viewBox="0 0 209 24" width="209" xmlns="http://www.w3.org/2000/svg"><g fill="#000"><path clip-rule="evenodd" d="m12 24c6.6274 0 12-5.3726 12-12 0-6.62744-5.3726-12-12-12-6.62741 0-12 5.37256-12 12 0 6.6274 5.37259 12 12 12zm-2.91443-9.9864c-.33172 0-.64206-.1799-.80972-.4689-.4675-.8086-.71454-1.7289-.71454-2.6616 0-2.93724 2.3905-5.32689 5.32899-5.32689.5151 0 .9346.42078.9346.93787 0 .51733-.4206.93805-.9376.93805-1.903 0-3.45081 1.54816-3.45081 3.45097 0 .6041.16001 1.2001.46295 1.7241.08146.1407.12426.3025.12426.4681 0 .5174-.42076.9383-.93813.9383zm1.88123-5.2044c-.5573.51624-.9061 1.2542-.9061 2.0739 0 .5142.139.9956.3796 1.4119.1344.233.2074.5012.2074.7803 0 .6244-.366 1.163-.89492 1.4135.72552.2242 1.53902.1572 2.24902-.2523.4457-.2573.7929-.6182 1.0329-1.0351.1348-.233.3299-.43.5722-.5697.5404-.3122 1.1902-.2645 1.6716.0689-.1685-.7408-.6332-1.412-1.3433-1.822-.4455-.2572-.9318-.3773-1.4123-.377-.2693 0-.5379-.0708-.7797-.2106-.5409-.31218-.8245-.89836-.7764-1.4818zm5.3581 7.6503c-.1642 0-.3269-.0435-.4707-.1268-.4479-.2587-.6023-.8331-.3434-1.2808.9508-1.648.3844-3.7625-1.2633-4.7141-.5222-.3014-1.1175-.46066-1.7217-.46066-.1654 0-.3269-.04383-.4709-.12677-.4477-.25879-.6013-.83368-.343-1.28156.1656-.28699.4765-.46588.811-.46661.9352 0 1.8549.24621 2.6621.71222 1.2315.71112 2.1128 1.86008 2.4811 3.23548.3682 1.3749.1791 2.8108-.5323 4.0429-.1661.2879-.4765.4667-.8089.4667zm-5.7304.6551c-1.90142 0-3.67214-1.0215-4.62065-2.6654-.25788-.4461-.10288-1.0195.34491-1.2778.43487-.2511 1.03299-.088 1.28097.3425.61502 1.0647 1.76135 1.726 2.99187 1.726.6019 0 1.1977-.1602 1.7221-.4628.5235-.3019.9595-.7388 1.2618-1.2636.0817-.1406.2003-.2586.3437-.341.4339-.2515 1.0323-.0877 1.2811.3432.1661.2876.1653.6463-.0016.9357-.4661.8085-1.1393 1.4827-1.9471 1.9492-.8091.4671-1.7278.714-2.6571.714z" fill-rule="evenodd"/><path d="m30 0h1v24h-1z"/><path d="m136.62 18.2c-1.04 0-1.98-.2067-2.82-.62-.827-.4267-1.474-.92-1.94-1.48l1.04-1c.413.4667.933.8667 1.56 1.2.626.32 1.346.48 2.16.48 1.04 0 1.84-.24 2.4-.72.573-.48.86-1.0933.86-1.84 0-.4933-.147-.9-.44-1.22-.294-.3333-.66-.5933-1.1-.78s-1.034-.3933-1.78-.62c-.934-.2933-1.687-.5667-2.26-.82-.56-.2667-1.04-.6533-1.44-1.16001-.4-.52-.6-1.2-.6-2.04 0-.68.186-1.30667.56-1.88.373-.58667.906-1.04667 1.6-1.38.693-.34667 1.493-.52 2.4-.52.893 0 1.7.17333 2.42.52.733.34666 1.313.74666 1.74 1.2l-1.02 1c-.347-.34667-.787-.64667-1.32-.9-.534-.26667-1.14-.4-1.82-.4-.96 0-1.714.22666-2.26.68-.534.45333-.8 1.01333-.8 1.68 0 .49333.146.90666.44 1.24.293.32.66.57333 1.1.76.44.18666 1.033.39333 1.78.62001.92.28 1.666.5533 2.24.82.586.2667 1.08.66 1.48 1.18.4.5067.6 1.18.6 2.02 0 .7333-.194 1.4067-.58 2.02-.387.6-.947 1.08-1.68 1.44-.72.3467-1.56.52-2.52.52z"/><path d="m190.68 9.71999v8.28001h1.36v-8.28001h4.28v8.28001h1.36v-9.60001h-5.64v-1.66c0-.52.127-.92.38-1.2.267-.28.627-.42 1.08-.42.373 0 .78.1 1.22.3v-1.32c-.16-.08-.367-.14667-.62-.2-.253-.06667-.513-.1-.78-.1-.84 0-1.493.24666-1.96.74-.453.48-.68 1.18-.68 2.1v1.76h-1.86v1.32z"/><path d="m197.02 6.29999c-.253 0-.473-.08667-.66-.26-.173-.17334-.26-.38667-.26-.64 0-.25334.087-.46667.26-.64.187-.17334.407-.26.66-.26.24 0 .447.08666.62.26.187.17333.28.38666.28.64 0 .25333-.093.46666-.28.64-.173.17333-.38.26-.62.26z"/><path d="m202.172 17.54c.746.44 1.553.66 2.42.66.88 0 1.66-.2 2.34-.6.693-.4 1.233-.8667 1.62-1.4l-1-.82c-.334.4133-.747.7667-1.24 1.06-.494.2933-1.067.44-1.72.44-.627 0-1.207-.16-1.74-.48-.52-.32-.94-.76-1.26-1.32-.307-.5733-.46-1.2-.46-1.88s.153-1.3.46-1.86c.32-.5733.74-1.02 1.26-1.34.533-.31999 1.113-.47999 1.74-.47999 1.16 0 2.133.48669 2.92 1.45999l1-.82c-.387-.51999-.92-.97332-1.6-1.35999-.667-.4-1.44-.6-2.32-.6-.867 0-1.674.22667-2.42.68-.734.44-1.32 1.04-1.76 1.79999-.427.76-.64 1.6-.64 2.52s.213 1.76.64 2.52c.44.76 1.026 1.3667 1.76 1.82z"/><path d="m185.633 18h1.36v-9.6h-1.36z"/><path d="m186.313 6.3c-.24 0-.453-.08667-.64-.26-.173-.17333-.26-.38667-.26-.64s.087-.46667.26-.64c.187-.17333.4-.26.64-.26.253 0 .467.08667.64.26.187.17333.28.38667.28.64s-.093.46667-.28.64c-.173.17333-.387.26-.64.26z"/><path d="m182.365 18.1c-.84 0-1.494-.24-1.96-.72-.454-.4933-.68-1.2067-.68-2.14v-5.51999h-1.86v-1.32h1.22c.24 0 .426-.07333.56-.22.146-.16.22-.39333.22-.7v-2.28h1.22v3.2h2.36v1.32h-2.36v5.43999c0 .52.126.92.38 1.2.266.28.626.42 1.08.42.386 0 .793-.1 1.22-.3v1.32c-.16.08-.367.1467-.62.2-.254.0667-.514.1-.78.1z"/><path d="m168.135 18v-9.59999h1.36v1.54h.02c.253-.45333.66-.85333 1.22-1.2.573-.36 1.213-.54 1.92-.54.733 0 1.393.17334 1.98.52.586.34667 1.046.83333 1.38 1.45999.333.6267.5 1.3467.5 2.16v5.66h-1.36v-5.66c0-.84-.254-1.52-.76-2.04-.494-.51999-1.127-.77999-1.9-.77999-.56 0-1.067.14-1.52.42-.454.26669-.814.63999-1.08 1.11999-.267.48-.4 1.02-.4 1.62v5.32z"/><path clip-rule="evenodd" d="m161.818 18.2c-.867 0-1.667-.22-2.4-.66-.733-.4533-1.32-1.06-1.76-1.82s-.66-1.6-.66-2.52c0-.9333.213-1.78.64-2.54.427-.75999 1-1.35999 1.72-1.79999s1.507-.66 2.36-.66c.84 0 1.6.20667 2.28.62.693.41334 1.24.99333 1.64 1.73999.4.7467.6 1.5867.6 2.52 0 .2133-.013.4267-.04.64h-7.8c.067.5867.26 1.12.58 1.6s.727.86 1.22 1.14c.507.28 1.06.42 1.66.42 1.107 0 2.087-.48 2.94-1.44l.94.86c-.427.5333-.967.9867-1.62 1.36-.653.36-1.42.54-2.3.54zm3.04-5.66c-.12-.9333-.46-1.6733-1.02-2.22-.56-.55999-1.267-.83999-2.12-.83999-.56 0-1.087.14-1.58.42-.48.26669-.88.63329-1.2 1.09999-.307.4667-.493.98-.56 1.54z" fill-rule="evenodd"/><path d="m154.911 18h-1.36v-9.6h1.36z"/><path d="m153.591 6.04c.187.17333.4.26.64.26.253 0 .467-.08667.64-.26.187-.17333.28-.38667.28-.64s-.093-.46667-.28-.64c-.173-.17333-.387-.26-.64-.26-.24 0-.453.08667-.64.26-.173.17333-.26.38667-.26.64s.087.46667.26.64z"/><path d="m145.32 17.54c.747.44 1.553.66 2.42.66.88 0 1.66-.2 2.34-.6.693-.4 1.233-.8667 1.62-1.4l-1-.82c-.333.4133-.747.7667-1.24 1.06s-1.067.44-1.72.44c-.627 0-1.207-.16-1.74-.48-.52-.32-.94-.76-1.26-1.32-.307-.5733-.46-1.2-.46-1.88s.153-1.3.46-1.86c.32-.5733.74-1.02 1.26-1.34.533-.31999 1.113-.47999 1.74-.47999 1.16 0 2.133.48669 2.92 1.45999l1-.82c-.387-.51999-.92-.97332-1.6-1.35999-.667-.4-1.44-.6-2.32-.6-.867 0-1.673.22667-2.42.68-.733.44-1.32 1.04-1.76 1.79999-.427.76-.64 1.6-.64 2.52s.213 1.76.64 2.52c.44.76 1.027 1.3667 1.76 1.82z"/><path clip-rule="evenodd" d="m121.334 18.2c-.96 0-1.84-.2267-2.64-.68-.787-.4534-1.414-1.0667-1.88-1.84-.454-.7734-.68-1.62-.68-2.54s.226-1.7667.68-2.54c.466-.77336 1.093-1.38002 1.88-1.82002.8-.45334 1.68-.68 2.64-.68.973 0 1.853.22666 2.64.68.8.44 1.426 1.04666 1.88 1.82002.453.7733.68 1.62.68 2.54s-.227 1.7666-.68 2.54c-.454.7733-1.08 1.3866-1.88 1.84-.787.4533-1.667.68-2.64.68zm0-2.5c.68 0 1.26-.2467 1.74-.74.48-.4934.72-1.1.72-1.82s-.24-1.32-.72-1.8c-.48-.4934-1.06-.74-1.74-.74s-1.26.2466-1.74.74c-.467.48-.7 1.08-.7 1.8s.233 1.3266.7 1.82c.48.4933 1.06.74 1.74.74z" fill-rule="evenodd"/><path d="m108.804 18h-3.02l3.34-5-3.08-4.70001h3.12l1.76 2.96001h.06l1.78-2.96001h3.02l-3.08 4.70001 3.32 5h-3.12l-2.02-3.28h-.06z"/><path clip-rule="evenodd" d="m100.716 8.09998c.826 0 1.56.17333 2.2.52.653.33333 1.16.79333 1.52 1.38.36.57332.54 1.20662.54 1.90002v6.1h-2.56v-1.34h-.06c-.24.3866-.62.74-1.14 1.06s-1.114.48-1.7804.48c-.6133 0-1.1667-.1267-1.66-.38-.48-.2534-.86-.5934-1.14-1.02-.28-.44-.42-.9067-.42-1.4 0-.8267.26-1.5067.78-2.04.52-.5334 1.26-.8934 2.22-1.08l3.0604-.58c-.027-.3867-.2-.7134-.52-.98-.307-.28-.7-.42-1.18-.42-.8271 0-1.5804.38-2.2604 1.14l-1.54-1.48002c.4267-.50667.9733-.94 1.64-1.3.68-.37334 1.4467-.56 2.3004-.56zm-.5 7.94002c.586 0 1.073-.2067 1.46-.62.4-.4134.6-.9534.6-1.62v-.32l-2.1.42c-.3737.0666-.6671.2066-.8804.42-.2133.2-.32.4266-.32.68 0 .3066.1067.56.32.76.2267.1866.5333.28.9204.28z" fill-rule="evenodd"/><path d="m79.8156 18v-9.70002h2.7v1.38h.06c.1867-.4.52-.76 1-1.08.48-.33334 1.0467-.5 1.7-.5.6667 0 1.2467.17333 1.74.52.4933.33333.84.70666 1.04 1.12h.08c.2267-.41334.6334-.78667 1.22-1.12.6-.34667 1.2867-.52 2.06-.52.6267 0 1.1933.16666 1.7.5.52.33333.9334.81333 1.24 1.44002.3067.6266.46 1.36.46 2.2v5.76h-2.7v-5.5c0-.5867-.1533-1.04-.46-1.36-.2933-.3334-.6733-.5-1.14-.5-.5333 0-.9733.1933-1.32.58-.3467.3866-.52.9133-.52 1.58v5.2h-2.7v-5.5c0-.5867-.1533-1.04-.46-1.36-.2933-.3334-.6733-.5-1.14-.5-.5467 0-.9933.1933-1.34.58-.3467.3866-.52.9133-.52 1.58v5.2z"/><path d="m72.6594 18v-9.70002h2.7v1.2h.06c.24-.36.6-.68 1.08-.96.4933-.29334 1.0466-.44 1.66-.44h.46v2.90002c-.32-.1067-.62-.16-.9-.16-.6934 0-1.26.24-1.7.72-.44.4666-.66 1.0933-.66 1.88v4.56z"/><path clip-rule="evenodd" d="m66.3953 8.09998c.8267 0 1.56.17333 2.2.52.6533.33333 1.16.79333 1.52 1.38.36.57332.54 1.20662.54 1.90002v6.1h-2.56v-1.34h-.06c-.24.3866-.62.74-1.14 1.06s-1.1133.48-1.78.48c-.6133 0-1.1667-.1267-1.66-.38-.48-.2534-.86-.5934-1.14-1.02-.28-.44-.42-.9067-.42-1.4 0-.8267.26-1.5067.78-2.04.52-.5334 1.26-.8934 2.22-1.08l3.06-.58c-.0267-.3867-.2-.7134-.52-.98-.3067-.28-.7-.42-1.18-.42-.8267 0-1.58.38-2.26 1.14l-1.54-1.48002c.4267-.50667.9733-.94 1.64-1.3.68-.37334 1.4467-.56 2.3-.56zm-.5 7.94002c.5867 0 1.0733-.2067 1.46-.62.4-.4134.6-.9534.6-1.62v-.32l-2.1.42c-.3733.0666-.6667.2066-.88.42-.2133.2-.32.4266-.32.68 0 .3066.1067.56.32.76.2267.1866.5333.28.92.28z" fill-rule="evenodd"/><path d="m51.2008 18v-14h2.7v5.68h.06c.24-.4.6133-.76 1.12-1.08.52-.33333 1.1133-.5 1.78-.5.7066 0 1.3333.16667 1.88.5.5466.33333.9733.81333 1.28 1.44.32.6133.48 1.3467.48 2.2v5.76h-2.7v-5.4c0-.6-.1667-1.0733-.5-1.42-.3334-.36-.7667-.54-1.3-.54-.6134 0-1.12.2133-1.52.64-.3867.4133-.58.9533-.58 1.62v5.1z"/><path clip-rule="evenodd" d="m38.8 18v-14h5.96c.9467 0 1.7933.20667 2.54.62.76.41333 1.3467.98 1.76 1.7.4267.70667.64 1.5.64 2.38s-.2133 1.68-.64 2.4c-.4133.7067-1 1.2667-1.76 1.68-.7467.4133-1.5933.62-2.54.62h-2.96v4.6zm5.86-7.3c.5733 0 1.0533-.1933 1.44-.58.4-.4.6-.87333.6-1.42s-.2-1.01333-.6-1.4c-.3867-.4-.8667-.6-1.44-.6h-2.86v4z" fill-rule="evenodd"/></g></svg>