<svg fill="none" height="48" viewBox="0 0 204 48" width="204" xmlns="http://www.w3.org/2000/svg"><path d="m20.0089 10.0253c4.3353 0 7.1699 2.0886 9.3376 4.5114.1667.1671.2501.3342.4168.5013.1668.1671.2501.3342.4169.5012.7503.919 1.3339 1.9216 1.9175 2.757.4168.5848.7503 1.1696 1.1672 1.6709.1667.1671.2501.3342.4168.5013.1668.167.2501.3341.4169.5012 1.584 1.9215 3.1681 3.1747 5.5024 3.3418.3335-1.4203.5003-2.8405.5003-4.3443s-.1668-3.0076-.5003-4.3443c-2.3343.1671-3.9184 1.3367-5.5024 3.3418-.2501-.4178-.5836-.8355-.9171-1.3368-.667-.9189-1.3339-2.005-2.1676-3.0911 1.6674-1.9215 3.7516-3.5924 6.5863-4.2608-3.5016-6.09869-10.0879-10.2759-17.5913-10.2759-7.5033 0-14.08959 4.17721-17.50778 10.2759 2.8346.6684 4.83549 2.3393 6.58628 4.2608.16674.1671.25011.3342.41685.5013s.25011.3342.41685.5012c.8337 1.0026 1.5007 2.0886 2.1676 3.0912.3335.5012.5836.919.9171 1.3367.1668.1671.2501.3342.4169.5848.1667.1671.2501.3342.4168.5848 1.7508 2.4228 3.5016 4.0937 6.2528 4.0937 2.7513 0 4.502-1.6709 6.2528-4.0937.1668.3342.4169.5848.5836.919.7503 1.0861 1.5007 2.3392 2.4178 3.4253-2.0843 2.4228-5.0023 4.5114-9.3376 4.5114-4.3352 0-7.1698-2.0886-9.3375-4.5114-.1667-.1671-.2501-.3342-.4168-.5013-.1668-.167-.2501-.3341-.41687-.5012-.75033-.919-1.33393-1.9215-1.91752-2.757-.41685-.5848-.75034-1.1696-1.16719-1.6709-.16674-.1671-.25011-.3341-.41685-.5012s-.25011-.3342-.41686-.5013c-1.58404-1.9215-3.16808-3.1747-5.502457-3.3418-.250112 1.3367-.416853 2.8405-.416853 4.3443s.166741 3.0076.500224 4.3443c2.334376-.1671 3.918416-1.3367 5.502456-3.3417.25012.4177.5836.8354.91708 1.3367.66697.919 1.33393 2.005 2.16764 3.0911-1.66741 1.9215-3.75168 3.5924-6.58628 4.2608 3.41819 6.1823 10.00448 10.3595 17.50778 10.3595 7.5034 0 14.0897-4.1773 17.5079-10.276-2.8346-.6683-4.8355-2.3392-6.5863-4.2607-.1667-.1671-.2501-.3342-.4169-.5013-.1667-.1671-.2501-.3342-.4168-.5013-.8337-1.0025-1.5007-2.0886-2.1676-3.0911-.3335-.5013-.5836-.919-.9171-1.3367-.1668-.1671-.2501-.3342-.4169-.5848-.1667-.1671-.2501-.3342-.4168-.5848-1.7508-2.4228-3.5016-4.0937-6.2528-4.0937-2.7513 0-4.502 1.6709-6.2528 4.0937-.1668-.3342-.4169-.5849-.5836-.919-.7503-1.0861-1.5007-2.3393-2.4178-3.4253 2.1677-2.5064 5.0023-4.595 9.3375-4.595z" fill="#ff1744"/><g fill="#fff"><path d="m56.2041 16.6878c-.0688-.694-.3642-1.2332-.8862-1.6175-.5219-.3843-1.2303-.5764-2.1251-.5764-.6079 0-1.1213.086-1.54.2581-.4187.1663-.7399.3986-.9636.6969-.218.2982-.327.6366-.327 1.0152-.0114.3155.0545.5908.1979.8259.1492.2352.3528.4388.6109.6109.2581.1663.5564.3126.8948.4388.3384.1204.6997.2237 1.084.3097l1.5831.3786c.7686.172 1.4741.4015 2.1165.6883.6424.2867 1.1988.6395 1.6691 1.0582s.8346.912 1.0927 1.4798c.2638.5679.3986 1.2189.4043 1.9531-.0057 1.0783-.281 2.0132-.8259 2.8047-.5392.7858-1.3192 1.3967-2.3402 1.8326-1.0152.4302-2.2398.6453-3.6738.6453-1.4224 0-2.6614-.218-3.7167-.6539-1.0497-.4359-1.8699-1.0812-2.4607-1.9358-.585-.8604-.8919-1.9243-.9206-3.192h3.605c.0401.5908.2093 1.0841.5076 1.4799.304.39.7083.6854 1.2131.8862.5105.195 1.0869.2925 1.7293.2925.631 0 1.1787-.0918 1.6433-.2753.4703-.1836.8346-.4388 1.0927-.7658.2581-.3269.3871-.7026.3871-1.127 0-.3958-.1175-.7285-.3527-.9981-.2294-.2695-.5678-.499-1.0152-.6883-.4417-.1892-.9837-.3613-1.6261-.5162l-1.9186-.4818c-1.4856-.3613-2.6586-.9263-3.5189-1.6949-.8604-.7686-1.2877-1.8039-1.282-3.1059-.0057-1.0669.2782-1.9989.8518-2.7962.5793-.7973 1.3737-1.4196 2.3832-1.867s2.1566-.6711 3.4415-.6711c1.3077 0 2.4491.2237 3.4242.6711.9808.4474 1.7437 1.0697 2.2886 1.867s.8259 1.7207.8431 2.7704z"/><path d="m62.4525 29.2405v-13.2152h3.4931v2.3316h.1549c.2753-.7743.7341-1.3852 1.3765-1.8326s1.411-.6711 2.3058-.6711c.9063 0 1.6777.2266 2.3144.6797.6367.4474 1.0611 1.0554 1.2733 1.824h.1377c.2696-.7571.7571-1.3623 1.4626-1.8154.7112-.4588 1.5515-.6883 2.5209-.6883 1.2332 0 2.2341.3929 3.0026 1.1787.7744.7801 1.1615 1.8871 1.1615 3.321v8.8876h-3.6565v-8.1649c0-.7341-.195-1.2848-.5851-1.6519-.39-.3671-.8775-.5506-1.4626-.5506-.6653 0-1.1844.2122-1.5572.6367-.3729.4187-.5593.9722-.5593 1.6605v8.0702h-3.5533v-8.2423c0-.6481-.1864-1.1644-.5592-1.5487-.3671-.3842-.8518-.5764-1.454-.5764-.4073 0-.7744.1032-1.1013.3097-.3212.2008-.5764.4847-.7657.8518-.1893.3613-.2839.7858-.2839 1.2733v7.9326z"/><path d="m88.3194 29.49c-.8432 0-1.5946-.1463-2.2542-.4388-.6596-.2983-1.1816-.737-1.5659-1.3163-.3785-.5851-.5678-1.3135-.5678-2.1854 0-.7341.1348-1.3507.4044-1.8498.2696-.499.6366-.9005 1.1012-1.2045s.9923-.5334 1.5831-.6883c.5965-.1548 1.2217-.2638 1.8756-.3269.7686-.0803 1.3881-.1549 1.8584-.2237.4703-.0746.8116-.1835 1.0238-.3269s.3184-.3556.3184-.6367v-.0516c0-.5449-.1721-.9665-.5163-1.2648-.3384-.2982-.8202-.4473-1.4454-.4473-.6596 0-1.1844.1462-1.5744.4387-.3901.2868-.6482.6482-.7744 1.0841l-3.3898-.2753c.1721-.803.5105-1.497 1.0152-2.0821.5048-.5908 1.1558-1.0439 1.9531-1.3594.803-.3212 1.7322-.4818 2.7875-.4818.7342 0 1.4368.0861 2.1079.2581.6768.1721 1.2762.4388 1.7982.8002.5277.3613.9435.8259 1.2475 1.3938.304.5621.456 1.236.456 2.0218v8.9134h-3.4759v-1.8326h-.1032c-.2122.413-.4962.7772-.8518 1.0927-.3556.3097-.7829.5535-1.2819.7313-.499.1721-1.0755.2581-1.7293.2581zm1.0496-2.5295c.5392 0 1.0152-.1061 1.4282-.3183.413-.218.7371-.5105.9722-.8776.2352-.3671.3528-.7829.3528-1.2475v-1.4024c-.1147.0746-.2725.1434-.4732.2065-.1951.0573-.4159.1118-.6625.1635-.2467.0458-.4933.0889-.7399.129-.2467.0344-.4704.066-.6711.0946-.4302.0631-.8059.1635-1.1271.3012-.3212.1376-.5707.324-.7485.5592-.1778.2294-.2667.5162-.2667.8604 0 .499.1807.8804.542 1.1443.3671.2581.8317.3871 1.3938.3871z"/><path d="m98.605 29.2405v-13.2152h3.553v2.3058h.138c.241-.8202.645-1.4397 1.213-1.8584.568-.4245 1.222-.6367 1.962-.6367.183 0 .381.0115.593.0344.213.023.399.0545.56.0947v3.2521c-.172-.0516-.411-.0975-.715-.1376-.303-.0402-.582-.0602-.834-.0602-.539 0-1.021.1175-1.445.3527-.419.2294-.752.5506-.998.9636-.241.413-.362.8891-.362 1.4282v7.4766z"/><path d="m116.21 16.0253v2.7532h-7.958v-2.7532zm-6.151-3.1661h3.665v12.3204c0 .3384.051.6022.155.7915.103.1835.246.3126.43.3872.189.0745.407.1118.654.1118.172 0 .344-.0143.516-.043.172-.0344.304-.0602.396-.0774l.576 2.7273c-.183.0574-.442.1233-.774.1979-.333.0803-.737.1291-1.213.1463-.884.0344-1.658-.0832-2.323-.3528-.66-.2696-1.173-.6883-1.54-1.2561-.367-.5679-.548-1.2848-.542-2.1509z"/><path d="m134.213 17.789h-3.768c-.069-.4875-.209-.9205-.422-1.2991-.212-.3843-.484-.7112-.817-.9808s-.717-.4761-1.153-.6195c-.43-.1434-.898-.2151-1.402-.2151-.912 0-1.707.2266-2.383.6797-.677.4474-1.202 1.1013-1.575 1.9616-.373.8547-.559 1.8928-.559 3.1146 0 1.2561.186 2.3115.559 3.1661.379.8546.906 1.4999 1.583 1.9358s1.46.6539 2.349.6539c.499 0 .961-.066 1.385-.1979.43-.1319.812-.3241 1.144-.5764.333-.2581.608-.5707.826-.9378.224-.3671.379-.7858.465-1.2562l3.768.0172c-.097.8088-.341 1.5889-.731 2.3402-.384.7457-.903 1.4139-1.557 2.0047-.648.585-1.423 1.0496-2.323 1.3938-.895.3384-1.907.5076-3.037.5076-1.572 0-2.977-.3556-4.216-1.0669-1.233-.7112-2.208-1.7408-2.925-3.0887-.712-1.3479-1.067-2.9797-1.067-4.8954 0-1.9215.361-3.5562 1.084-4.9041s1.703-2.3746 2.942-3.0801c1.239-.7112 2.633-1.0669 4.182-1.0669 1.021 0 1.967.1434 2.839.4302.877.2868 1.655.7055 2.331 1.2561.677.5449 1.228 1.2132 1.652 2.0047.431.7915.706 1.6978.826 2.7187z"/><path d="m142.787 29.4986c-1.337 0-2.492-.2839-3.467-.8518-.97-.5735-1.718-1.3708-2.246-2.3918-.528-1.0267-.792-2.2168-.792-3.5705 0-1.3651.264-2.5581.792-3.5791.528-1.0267 1.276-1.824 2.246-2.3918.975-.5736 2.13-.8604 3.467-.8604 1.336 0 2.489.2868 3.459.8604.975.5678 1.726 1.3651 2.254 2.3918.527 1.021.791 2.214.791 3.5791 0 1.3537-.264 2.5438-.791 3.5705-.528 1.021-1.279 1.8183-2.254 2.3918-.97.5679-2.123.8518-3.459.8518zm.017-2.8392c.608 0 1.116-.1721 1.523-.5162.407-.3499.714-.826.92-1.4282.213-.6023.319-1.2877.319-2.0563s-.106-1.454-.319-2.0563c-.206-.6022-.513-1.0783-.92-1.4282-.407-.3498-.915-.5248-1.523-.5248-.614 0-1.13.175-1.549.5248-.413.3499-.725.826-.937 1.4282-.207.6023-.31 1.2877-.31 2.0563s.103 1.454.31 2.0563c.212.6022.524 1.0783.937 1.4282.419.3441.935.5162 1.549.5162z"/><path d="m155.34 21.6005v7.64h-3.666v-13.2152h3.493v2.3316h.155c.293-.7686.783-1.3766 1.472-1.824.688-.4531 1.522-.6797 2.503-.6797.918 0 1.718.2008 2.401.6023.682.4015 1.213.9751 1.591 1.7207.379.7399.568 1.6232.568 2.6499v8.4144h-3.665v-7.7605c.006-.8087-.201-1.4397-.619-1.8928-.419-.4589-.996-.6883-1.73-.6883-.493 0-.929.1061-1.308.3183-.372.2123-.665.522-.877.9292-.207.4015-.313.8862-.318 1.4541z"/><path d="m173.775 16.0253v2.7532h-7.958v-2.7532zm-6.152-3.1661h3.666v12.3204c0 .3384.051.6022.154.7915.104.1835.247.3126.431.3872.189.0745.407.1118.653.1118.173 0 .345-.0143.517-.043.172-.0344.304-.0602.395-.0774l.577 2.7273c-.184.0574-.442.1233-.774.1979-.333.0803-.737.1291-1.214.1463-.883.0344-1.657-.0832-2.323-.3528-.659-.2696-1.172-.6883-1.54-1.2561-.367-.5679-.547-1.2848-.542-2.1509z"/><path d="m176.163 29.2405v-13.2152h3.553v2.3058h.137c.241-.8202.646-1.4397 1.214-1.8584.567-.4245 1.221-.6367 1.961-.6367.184 0 .382.0115.594.0344.212.023.399.0545.559.0947v3.2521c-.172-.0516-.41-.0975-.714-.1376-.304-.0402-.582-.0602-.835-.0602-.539 0-1.021.1175-1.445.3527-.419.2294-.751.5506-.998.9636-.241.413-.361.8891-.361 1.4282v7.4766z"/><path d="m191.432 29.4986c-1.337 0-2.492-.2839-3.467-.8518-.97-.5735-1.718-1.3708-2.246-2.3918-.528-1.0267-.792-2.2168-.792-3.5705 0-1.3651.264-2.5581.792-3.5791.528-1.0267 1.276-1.824 2.246-2.3918.975-.5736 2.13-.8604 3.467-.8604 1.336 0 2.489.2868 3.458.8604.976.5678 1.727 1.3651 2.255 2.3918.527 1.021.791 2.214.791 3.5791 0 1.3537-.264 2.5438-.791 3.5705-.528 1.021-1.279 1.8183-2.255 2.3918-.969.5679-2.122.8518-3.458.8518zm.017-2.8392c.608 0 1.116-.1721 1.523-.5162.407-.3499.714-.826.92-1.4282.213-.6023.319-1.2877.319-2.0563s-.106-1.454-.319-2.0563c-.206-.6022-.513-1.0783-.92-1.4282-.407-.3498-.915-.5248-1.523-.5248-.614 0-1.13.175-1.549.5248-.413.3499-.725.826-.937 1.4282-.207.6023-.31 1.2877-.31 2.0563s.103 1.454.31 2.0563c.212.6022.524 1.0783.937 1.4282.419.3441.935.5162 1.549.5162z"/><path d="m203.985 11.6202v17.6203h-3.666v-17.6203z"/><path d="m46.291 45.1139v-9.7215h1.1203v3.5886h.0949c.0823-.1266.1962-.2879.3418-.4841.1487-.1994.3607-.3766.6361-.5317.2784-.1582.655-.2373 1.1297-.2373.6139 0 1.1551.1534 1.6234.4604.4684.307.8339.7421 1.0965 1.3054.2627.5633.394 1.2278.394 1.9937 0 .7721-.1313 1.4414-.394 2.0079-.2626.5633-.6265 1-1.0917 1.3101-.4652.307-1.0016.4604-1.6092.4604-.4684 0-.8434-.0775-1.125-.2326-.2817-.1582-.4984-.337-.6503-.5363-.1519-.2026-.269-.3703-.3513-.5032h-.1329v1.1202zm1.1013-3.6455c0 .5506.0807 1.0364.2421 1.4572.1614.4178.3971.7453.7072.9826.3102.2342.6899.3513 1.1393.3513.4683 0 .8592-.1234 1.1725-.3702.3164-.25.5538-.5855.712-1.0064.1614-.424.2421-.8955.2421-1.4145 0-.5127-.0791-.9747-.2374-1.3861-.155-.4146-.3908-.7421-.7072-.9826-.3133-.2437-.7073-.3655-1.182-.3655-.4557 0-.8386.1155-1.1487.3465-.3102.2279-.5443.5475-.7026.9589-.1582.4082-.2373.8845-.2373 1.4288z"/><path d="m54.9018 47.8481c-.1899 0-.3592-.0158-.5079-.0475-.1488-.0284-.2516-.0569-.3086-.0854l.2848-.9873c.2722.0696.5127.0949.7215.0759.2089-.019.394-.1123.5554-.28.1646-.1646.3149-.432.451-.8023l.2088-.5696-2.6962-7.3291h1.2152l2.0127 5.8101h.0759l2.0127-5.8101h1.2152l-3.095 8.3544c-.1392.3766-.3117.6883-.5174.9352-.2057.25-.4446.4351-.7167.5553-.269.1203-.5728.1804-.9114.1804z"/><path d="m65.5323 35.3924h1.4051l3.3038 8.0696h.1139l3.3038-8.0696h1.4051v9.7215h-1.1013v-7.386h-.0949l-3.038 7.386h-1.0633l-3.038-7.386h-.0949v7.386h-1.1013z"/><path d="m77.2724 45.1139v-7.2911h1.1203v7.2911zm.5696-8.5063c-.2183 0-.4066-.0744-.5648-.2231-.1551-.1487-.2326-.3275-.2326-.5364 0-.2088.0775-.3876.2326-.5364.1582-.1487.3465-.2231.5648-.2231.2184 0 .4051.0744.5602.2231.1582.1488.2373.3276.2373.5364 0 .2089-.0791.3877-.2373.5364-.1551.1487-.3418.2231-.5602.2231z"/><path d="m83.4065 45.2658c-.6835 0-1.2721-.1614-1.7658-.4841-.4937-.3228-.8734-.7674-1.1392-1.3339-.2659-.5665-.3988-1.2136-.3988-1.9415 0-.7405.1361-1.3939.4083-1.9604.2753-.5696.6582-1.0142 1.1487-1.3339.4937-.3227 1.0696-.4841 1.7278-.4841.5127 0 .9747.0949 1.3861.2848.4114.1898.7484.4557 1.0111.7974.2626.3418.4256.7405.4889 1.1962h-1.1202c-.0855-.3322-.2754-.6265-.5697-.8829-.2911-.2595-.6835-.3892-1.1772-.3892-.4367 0-.8196.1139-1.1487.3418-.326.2246-.5807.5427-.7643.9541-.1803.4082-.2705.8876-.2705 1.4383 0 .5633.0886 1.0538.2658 1.4715.1804.4177.4335.7421.7595.9731.3291.231.7152.3465 1.1582.3465.2912 0 .5554-.0506.7927-.1519.2374-.1013.4383-.2468.6029-.4367s.2816-.4177.3513-.6835h1.1202c-.0633.4303-.2199.818-.4699 1.1629-.2469.3418-.5744.614-.9826.8165-.4051.1994-.8766.299-1.4146.299z"/><path d="m87.9113 45.1139v-7.2911h1.0822v1.1013h.076c.1329-.3608.3734-.6535.7215-.8782s.7405-.337 1.1772-.337c.0823 0 .1852.0016.3086.0047.1234.0032.2167.0079.28.0143v1.1392c-.0379-.0095-.125-.0237-.261-.0427-.1329-.0222-.2738-.0332-.4225-.0332-.3544 0-.6709.0743-.9494.2231-.2753.1455-.4936.3481-.655.6076-.1583.2563-.2374.549-.2374.8781v4.6139z"/><path d="m95.6249 45.2658c-.6582 0-1.2358-.1566-1.7326-.4699-.4937-.3133-.8798-.7516-1.1582-1.3149-.2754-.5633-.413-1.2215-.413-1.9747 0-.7594.1376-1.4224.413-1.9889.2784-.5664.6645-1.0063 1.1582-1.3196.4968-.3133 1.0744-.4699 1.7326-.4699s1.2342.1566 1.7278.4699c.4969.3133.8829.7532 1.1583 1.3196.2784.5665.4177 1.2295.4177 1.9889 0 .7532-.1393 1.4114-.4177 1.9747-.2754.5633-.6614 1.0016-1.1583 1.3149-.4936.3133-1.0696.4699-1.7278.4699zm0-1.0063c.5 0 .9114-.1282 1.2342-.3845.3227-.2563.5617-.5933.7167-1.0111.1551-.4177.2326-.8702.2326-1.3576 0-.4873-.0775-.9414-.2326-1.3623-.155-.4209-.394-.7611-.7167-1.0206-.3228-.2595-.7342-.3892-1.2342-.3892s-.9114.1297-1.2342.3892-.5617.5997-.7168 1.0206c-.155.4209-.2326.875-.2326 1.3623 0 .4874.0776.9399.2326 1.3576.1551.4178.394.7548.7168 1.0111s.7342.3845 1.2342.3845z"/><path d="m103.582 48c-.541 0-1.007-.0696-1.396-.2088-.389-.1361-.713-.3165-.973-.5412-.256-.2215-.46-.4588-.612-.712l.892-.6266c.101.1329.23.2848.385.4557.155.1741.367.3244.636.451.272.1297.628.1946 1.068.1946.588 0 1.074-.1424 1.457-.4272.383-.2849.574-.7311.574-1.3386v-1.4811h-.095c-.082.133-.199.2975-.351.4937-.149.193-.364.3655-.645.5174-.279.1487-.655.2231-1.13.2231-.589 0-1.117-.1392-1.586-.4177-.465-.2785-.833-.6836-1.106-1.2152-.269-.5316-.403-1.1772-.403-1.9367 0-.7468.131-1.3972.394-1.951.263-.5569.628-.9873 1.096-1.2911.469-.307 1.01-.4604 1.624-.4604.475 0 .851.0791 1.13.2373.281.1551.496.3323.645.5317.152.1962.269.3575.351.4841h.114v-1.1582h1.083v7.5c0 .6266-.143 1.1361-.428 1.5285-.281.3956-.661.6851-1.139.8687-.474.1867-1.003.28-1.585.28zm-.038-4.0063c.449 0 .829-.1029 1.139-.3086s.546-.5015.707-.8876c.162-.3861.242-.8481.242-1.3861 0-.5253-.079-.9889-.237-1.3908s-.392-.7168-.702-.9446c-.311-.2279-.694-.3418-1.149-.3418-.475 0-.87.1202-1.187.3608-.313.2405-.549.5632-.707.9683-.155.4051-.233.8544-.233 1.3481 0 .5063.079.9541.238 1.3434.161.386.398.6898.712.9114.316.2183.708.3275 1.177.3275z"/><path d="m111.841 45.2658c-.702 0-1.308-.155-1.818-.4652-.506-.3132-.897-.75-1.172-1.3101-.272-.5633-.408-1.2183-.408-1.9652 0-.7468.136-1.405.408-1.9747.275-.5727.658-1.0189 1.148-1.3386.494-.3227 1.07-.4841 1.728-.4841.38 0 .755.0633 1.125.1898.371.1266.708.3323 1.011.6171.304.2817.546.6551.727 1.1203.18.4652.27 1.038.27 1.7183v.4747h-5.62v-.9683h4.481c0-.4114-.082-.7785-.247-1.1013-.161-.3228-.392-.5775-.693-.7642-.297-.1868-.649-.2801-1.054-.2801-.446 0-.832.1108-1.158.3323-.323.2183-.571.5031-.745.8544s-.261.7279-.261 1.1297v.6456c0 .5507.095 1.0174.285 1.4003.193.3798.46.6693.802.8687.342.1962.739.2943 1.191.2943.295 0 .56-.0411.798-.1234.24-.0855.448-.212.622-.3798.174-.1708.308-.3829.403-.636l1.082.3038c-.114.3671-.305.6898-.574.9683-.269.2753-.601.4905-.997.6456-.395.1519-.84.2278-1.334.2278z"/><path d="m117.685 40.7279v4.386h-1.121v-7.2911h1.083v1.1392h.095c.17-.3702.43-.6677.778-.8924.348-.2278.798-.3417 1.348-.3417.494 0 .926.1012 1.296.3038.37.1993.658.5031.864.9114.206.405.309.9177.309 1.5379v4.6329h-1.121v-4.5569c0-.5728-.148-1.019-.446-1.3386-.297-.3228-.706-.4842-1.225-.4842-.357 0-.677.0775-.958.2326-.279.1551-.499.3813-.66.6788-.162.2975-.242.6582-.242 1.0823z"/><path d="m127.441 45.2658c-.703 0-1.309-.155-1.818-.4652-.507-.3132-.898-.75-1.173-1.3101-.272-.5633-.408-1.2183-.408-1.9652 0-.7468.136-1.405.408-1.9747.275-.5727.658-1.0189 1.149-1.3386.493-.3227 1.069-.4841 1.728-.4841.379 0 .754.0633 1.125.1898.37.1266.707.3323 1.011.6171.303.2817.546.6551.726 1.1203s.271 1.038.271 1.7183v.4747h-5.621v-.9683h4.481c0-.4114-.082-.7785-.247-1.1013-.161-.3228-.392-.5775-.693-.7642-.297-.1868-.648-.2801-1.053-.2801-.447 0-.833.1108-1.159.3323-.322.2183-.571.5031-.745.8544s-.261.7279-.261 1.1297v.6456c0 .5507.095 1.0174.285 1.4003.193.3798.46.6693.802.8687.342.1962.739.2943 1.192.2943.294 0 .56-.0411.797-.1234.241-.0855.448-.212.622-.3798.174-.1708.308-.3829.403-.636l1.083.3038c-.114.3671-.306.6898-.575.9683-.269.2753-.601.4905-.997.6456-.395.1519-.84.2278-1.333.2278z"/><path d="m135.335 37.8228v.9494h-3.779v-.9494zm-2.678-1.7468h1.121v6.9493c0 .3165.045.5538.137.7121.095.155.215.2595.361.3132.149.0507.305.076.47.076.123 0 .225-.0063.304-.019.079-.0158.142-.0285.19-.038l.227 1.0064c-.076.0284-.182.0569-.318.0854-.136.0317-.308.0475-.517.0475-.316 0-.627-.0681-.93-.2041-.301-.1361-.551-.3434-.75-.6219-.197-.2785-.295-.6297-.295-1.0538z"/><path d="m137.02 45.1139v-7.2911h1.12v7.2911zm.569-8.5063c-.218 0-.406-.0744-.565-.2231-.155-.1487-.232-.3275-.232-.5364 0-.2088.077-.3876.232-.5364.159-.1487.347-.2231.565-.2231.219 0 .405.0744.56.2231.159.1488.238.3276.238.5364 0 .2089-.079.3877-.238.5364-.155.1487-.341.2231-.56.2231z"/><path d="m143.154 45.2658c-.684 0-1.272-.1614-1.766-.4841-.494-.3228-.873-.7674-1.139-1.3339s-.399-1.2136-.399-1.9415c0-.7405.136-1.3939.408-1.9604.276-.5696.658-1.0142 1.149-1.3339.494-.3227 1.07-.4841 1.728-.4841.512 0 .974.0949 1.386.2848.411.1898.748.4557 1.011.7974.263.3418.426.7405.489 1.1962h-1.12c-.086-.3322-.276-.6265-.57-.8829-.291-.2595-.684-.3892-1.177-.3892-.437 0-.82.1139-1.149.3418-.326.2246-.581.5427-.764.9541-.181.4082-.271.8876-.271 1.4383 0 .5633.089 1.0538.266 1.4715.18.4177.434.7421.76.9731.329.231.715.3465 1.158.3465.291 0 .555-.0506.792-.1519.238-.1013.439-.2468.603-.4367.165-.1899.282-.4177.352-.6835h1.12c-.063.4303-.22.818-.47 1.1629-.247.3418-.574.614-.983.8165-.405.1994-.876.299-1.414.299z"/><path d="m152.823 39.4557-1.006.2848c-.064-.1677-.157-.3307-.28-.4889-.121-.1614-.285-.2943-.494-.3987-.209-.1045-.476-.1567-.802-.1567-.446 0-.818.1029-1.116.3086-.294.2025-.441.4604-.441.7737 0 .2785.101.4984.304.6598.202.1614.519.2959.949.4035l1.082.2658c.652.1582 1.138.4003 1.458.7263.319.3228.479.7389.479 1.2484 0 .4177-.12.7911-.361 1.1202-.237.3292-.569.5887-.997.7785-.427.1899-.924.2848-1.49.2848-.744 0-1.359-.1614-1.847-.4841-.487-.3228-.796-.7943-.925-1.4146l1.063-.2658c.101.3924.293.6867.574.8829.285.1962.657.2943 1.116.2943.522 0 .937-.1108 1.244-.3323.31-.2247.465-.4937.465-.8069 0-.2532-.089-.4652-.266-.6361-.177-.1741-.449-.3038-.817-.3893l-1.215-.2848c-.667-.1582-1.158-.4035-1.471-.7357-.31-.3355-.465-.7548-.465-1.2579 0-.4114.115-.7754.346-1.0918.234-.3165.552-.5649.954-.7453.405-.1803.864-.2705 1.377-.2705.721 0 1.288.1582 1.699.4746.415.3165.709.7342.883 1.2532z"/></g></svg>