<svg fill="none" height="48" viewBox="0 0 204 48" width="204" xmlns="http://www.w3.org/2000/svg"><g fill="#fff"><path d="m20.0089 10.0253c4.3353 0 7.1699 2.0886 9.3376 4.5114.0833.0836.1459.1671.2084.2506.0625.0836.125.1671.2084.2507.0834.0835.1459.1671.2084.2506.0626.0836.1251.1671.2085.2506.5021.615.9295 1.2674 1.3323 1.8821.1991.3039.3921.5985.5852.8749.1566.2198.3015.4395.4434.6548.2358.3577.4636.7032.7238 1.0161.0833.0835.1459.1671.2084.2506.0625.0836.1251.1671.2084.2507.0834.0835.1459.167.2084.2505.0626.0836.1251.1672.2085.2507 1.584 1.9215 3.1681 3.1747 5.5024 3.3418.3335-1.4203.5003-2.8405.5003-4.3443s-.1668-3.0076-.5003-4.3443c-2.3343.1671-3.9184 1.3367-5.5024 3.3418-.1457-.2434-.3197-.4867-.5055-.7466-.1331-.1862-.2724-.3809-.4116-.5902-.2693-.3711-.5387-.7695-.819-1.1841-.4138-.612-.8516-1.2596-1.3486-1.907 1.6674-1.9215 3.7516-3.5924 6.5863-4.2608-3.5016-6.09869-10.0879-10.2759-17.5913-10.2759-7.5033 0-14.08959 4.17721-17.50778 10.2759 2.8346.6684 4.83549 2.3393 6.58628 4.2608.08337.0836.1459.1671.20842.2506.06253.0836.12506.1671.20843.2507.08337.0835.1459.1671.20843.2506.06253.0836.12505.1671.20842.2506.6686.804 1.23 1.6617 1.7701 2.487.1333.2038.2655.4057.3975.6042.0862.1295.1668.2534.2447.3732.2236.3439.4251.6537.6724.9635.1221.1223.1995.2446.2976.3997.0359.0568.0746.118.1193.1851.122.1223.1994.2446.2975.3997.036.0568.0746.118.1193.1851 1.7508 2.4228 3.5016 4.0937 6.2528 4.0937s4.502-1.6709 6.2528-4.0937c.0834.1671.1876.3133.2918.4595s.2084.2924.2918.4595c.2139.3096.4278.6328.6456.9619.5461.8251 1.1165 1.687 1.7722 2.4634-2.0843 2.4228-5.0023 4.5114-9.3376 4.5114-4.3352 0-7.1698-2.0886-9.3375-4.5114-.0833-.0835-.1459-.1671-.2084-.2506-.0625-.0836-.125-.1671-.2084-.2507-.0834-.0835-.1459-.167-.2084-.2506-.06255-.0835-.1251-.1671-.20847-.2506-.50213-.615-.92959-1.2674-1.33235-1.8821-.19908-.3039-.39213-.5985-.58517-.8749-.15667-.2198-.30156-.4396-.44353-.6549-.23576-.3577-.46348-.7031-.72366-1.016-.08337-.0835-.1459-.1671-.20842-.2506-.06253-.0835-.12506-.1671-.20843-.2506-.08337-.0836-.1459-.1671-.20843-.2507-.06253-.0835-.12505-.1671-.20843-.2506-1.58404-1.9215-3.16808-3.1747-5.502457-3.3418-.250112 1.3367-.416853 2.8405-.416853 4.3443s.166741 3.0076.500224 4.3443c2.334376-.1671 3.918416-1.3367 5.502466-3.3417.1457.2433.31971.4867.50552.7465.13314.1862.27235.3809.41155.5902.26937.3711.53873.7695.81908 1.1842.41379.612.85158 1.2595 1.34856 1.9069-1.66741 1.9215-3.75168 3.5924-6.58628 4.2608 3.41819 6.1822 10.00448 10.3595 17.50778 10.3595 7.5034 0 14.0897-4.1773 17.5079-10.276-2.8346-.6683-4.8355-2.3392-6.5863-4.2607-.0834-.0836-.1459-.1671-.2084-.2507-.0626-.0835-.1251-.1671-.2085-.2506-.0833-.0836-.1459-.1671-.2084-.2506-.0625-.0836-.125-.1671-.2084-.2507-.6686-.8039-1.2299-1.6616-1.77-2.4869-.1334-.2038-.2656-.4057-.3976-.6042-.0862-.1295-.1668-.2534-.2447-.3732-.2236-.3439-.4251-.6537-.6724-.9635-.1221-.1223-.1995-.2447-.2976-.3997-.0359-.0568-.0746-.118-.1193-.1851-.122-.1223-.1994-.2447-.2975-.3997-.0359-.0568-.0747-.1181-.1193-.1851-1.7508-2.4228-3.5016-4.0937-6.2528-4.0937-2.7513 0-4.502 1.6709-6.2528 4.0937-.0834-.1671-.1876-.3133-.2918-.4595s-.2084-.2924-.2918-.4595c-.2139-.3096-.4278-.6328-.6456-.9619-.5461-.8251-1.1165-1.687-1.7722-2.4634 2.1677-2.5064 5.0023-4.595 9.3375-4.595z"/><path d="m56.2041 16.6878c-.0688-.694-.3642-1.2332-.8862-1.6175-.5219-.3843-1.2303-.5764-2.1251-.5764-.6079 0-1.1213.086-1.54.2581-.4187.1663-.7399.3986-.9636.6969-.218.2982-.3269.6366-.3269 1.0152-.0115.3155.0544.5908.1978.8259.1492.2352.3528.4388.6109.6109.2581.1663.5564.3126.8948.4388.3384.1204.6997.2237 1.084.3097l1.5831.3786c.7686.172 1.4741.4015 2.1165.6883.6424.2867 1.1988.6395 1.6691 1.0582s.8346.912 1.0927 1.4798c.2638.5679.3986 1.2189.4043 1.9531-.0057 1.0783-.281 2.0132-.8259 2.8047-.5392.7858-1.3192 1.3967-2.3402 1.8326-1.0152.4302-2.2398.6453-3.6738.6453-1.4224 0-2.6614-.218-3.7167-.6539-1.0497-.4359-1.8699-1.0812-2.4607-1.9358-.585-.8604-.8919-1.9243-.9206-3.192h3.605c.0401.5908.2093 1.0841.5076 1.4799.304.39.7083.6854 1.2131.8862.5105.195 1.0869.2925 1.7293.2925.631 0 1.1787-.0918 1.6433-.2753.4704-.1836.8346-.4388 1.0927-.7658.2581-.3269.3871-.7026.3871-1.127 0-.3958-.1175-.7285-.3527-.9981-.2294-.2695-.5678-.499-1.0152-.6883-.4417-.1892-.9837-.3613-1.6261-.5162l-1.9186-.4818c-1.4856-.3613-2.6586-.9263-3.5189-1.6949-.8604-.7686-1.2877-1.8039-1.282-3.1059-.0057-1.0669.2782-1.9989.8518-2.7962.5793-.7973 1.3737-1.4196 2.3832-1.867s2.1566-.6711 3.4415-.6711c1.3077 0 2.4491.2237 3.4242.6711.9808.4474 1.7437 1.0697 2.2886 1.867s.8259 1.7207.8431 2.7704z"/><path d="m62.4525 29.2405v-13.2152h3.4931v2.3316h.1549c.2753-.7743.7341-1.3852 1.3765-1.8326s1.411-.6711 2.3058-.6711c.9063 0 1.6777.2266 2.3144.6797.6367.4474 1.0611 1.0554 1.2733 1.824h.1377c.2696-.7571.7571-1.3623 1.4626-1.8154.7112-.4588 1.5515-.6883 2.5209-.6883 1.2332 0 2.2341.3929 3.0026 1.1787.7744.7801 1.1615 1.8871 1.1615 3.321v8.8876h-3.6565v-8.1649c0-.7341-.195-1.2848-.5851-1.6519-.39-.3671-.8775-.5506-1.4626-.5506-.6653 0-1.1844.2122-1.5572.6367-.3729.4187-.5593.9722-.5593 1.6605v8.0702h-3.5533v-8.2423c0-.6481-.1864-1.1644-.5592-1.5487-.3671-.3842-.8518-.5764-1.454-.5764-.4073 0-.7744.1032-1.1013.3097-.3212.2008-.5764.4847-.7657.8518-.1893.3613-.2839.7858-.2839 1.2733v7.9326z"/><path clip-rule="evenodd" d="m86.0652 29.0512c.6596.2925 1.411.4388 2.2542.4388.6538 0 1.2303-.086 1.7293-.2581.499-.1778.9263-.4216 1.2819-.7313.3556-.3155.6396-.6797.8518-1.0927h.1032v1.8326h3.4759v-8.9134c0-.7858-.152-1.4597-.456-2.0218-.304-.5679-.7198-1.0325-1.2475-1.3938-.522-.3614-1.1214-.6281-1.7982-.8002-.6711-.172-1.3737-.2581-2.1079-.2581-1.0553 0-1.9845.1606-2.7876.4818-.7972.3155-1.4482.7686-1.953 1.3594-.5047.5851-.8431 1.2791-1.0152 2.0821l3.3898.2753c.1262-.4359.3843-.7973.7744-1.0841.39-.2925.9148-.4387 1.5744-.4387.6252 0 1.107.1491 1.4454.4473.3442.2983.5163.7199.5163 1.2648v.0516c0 .2811-.1062.4933-.3184.6367s-.5535.2523-1.0238.3269c-.4703.0688-1.0898.1434-1.8584.2237-.6539.0631-1.2791.1721-1.8756.3269-.5908.1549-1.1185.3843-1.5831.6883s-.8316.7055-1.1012 1.2045c-.2696.4991-.4044 1.1156-.4044 1.8498 0 .8719.1893 1.6003.5678 2.1854.3843.5793.9063 1.018 1.5659 1.3163zm4.732-2.409c-.413.2122-.889.3183-1.4282.3183-.5621 0-1.0267-.129-1.3938-.3871-.3613-.2639-.542-.6453-.542-1.1443 0-.3442.0889-.631.2667-.8604.1778-.2352.4273-.4216.7485-.5592.3212-.1377.6969-.2381 1.1271-.3012.2007-.0286.4244-.0602.6711-.0946.2466-.0401.4932-.0832.7399-.129.2466-.0517.4674-.1062.6625-.1635.2007-.0631.3585-.1319.4732-.2065v1.4024c0 .4646-.1176.8804-.3528 1.2475s-.5592.6596-.9722.8776z" fill-rule="evenodd"/><path d="m98.605 29.2405v-13.2152h3.553v2.3058h.138c.241-.8202.645-1.4397 1.213-1.8584.568-.4245 1.222-.6367 1.962-.6367.183 0 .381.0115.593.0344.213.023.399.0545.56.0947v3.2521c-.172-.0516-.411-.0975-.714-.1376-.305-.0402-.583-.0602-.835-.0602-.539 0-1.021.1175-1.445.3527-.419.2294-.752.5506-.998.9636-.241.413-.362.8891-.362 1.4282v7.4766z"/><path d="m116.21 18.7785v-2.7532h-2.486v-3.1661h-3.665v3.1661h-1.807v2.7532h1.807v6.8829c-.006.8661.175 1.583.542 2.1509.367.5678.88.9865 1.54 1.2561.665.2696 1.439.3872 2.323.3528.476-.0172.88-.066 1.213-.1463.332-.0746.591-.1405.774-.1979l-.576-2.7273c-.092.0172-.224.043-.396.0774-.172.0287-.344.043-.516.043-.247 0-.465-.0373-.654-.1118-.184-.0746-.327-.2037-.43-.3872-.104-.1893-.155-.4531-.155-.7915v-6.4011z"/><path d="m134.213 17.789h-3.768c-.069-.4875-.209-.9205-.422-1.2991-.212-.3843-.484-.7112-.817-.9808s-.717-.4761-1.153-.6195c-.43-.1434-.898-.2151-1.402-.2151-.912 0-1.707.2266-2.383.6797-.677.4474-1.202 1.1013-1.575 1.9616-.373.8547-.559 1.8928-.559 3.1146 0 1.2561.186 2.3115.559 3.1661.379.8546.906 1.4999 1.583 1.9358s1.46.6539 2.349.6539c.499 0 .961-.066 1.385-.1979.43-.1319.812-.3241 1.144-.5764.333-.2581.608-.5707.826-.9378.224-.3671.379-.7858.465-1.2562l3.768.0172c-.097.8088-.341 1.5889-.731 2.3402-.384.7457-.903 1.4139-1.557 2.0047-.648.585-1.423 1.0496-2.323 1.3938-.895.3384-1.907.5076-3.037.5076-1.572 0-2.977-.3556-4.216-1.0669-1.233-.7112-2.208-1.7408-2.925-3.0887-.712-1.3479-1.067-2.9797-1.067-4.8954 0-1.9215.361-3.5562 1.084-4.9041s1.703-2.3746 2.942-3.0801c1.239-.7112 2.633-1.0669 4.182-1.0669 1.021 0 1.967.1434 2.839.4302.877.2868 1.655.7055 2.331 1.2561.677.5449 1.228 1.2132 1.652 2.0047.431.7915.706 1.6978.826 2.7187z"/><path clip-rule="evenodd" d="m139.32 28.6468c.975.5679 2.13.8518 3.467.8518 1.336 0 2.489-.2839 3.459-.8518.975-.5735 1.726-1.3708 2.254-2.3918.527-1.0267.791-2.2168.791-3.5705 0-1.3651-.264-2.5581-.791-3.5791-.528-1.0267-1.279-1.824-2.254-2.3918-.97-.5736-2.123-.8604-3.459-.8604-1.337 0-2.492.2868-3.467.8604-.97.5678-1.718 1.3651-2.246 2.3918-.528 1.021-.792 2.214-.792 3.5791 0 1.3537.264 2.5438.792 3.5705.528 1.021 1.276 1.8183 2.246 2.3918zm5.007-2.5036c-.407.3441-.915.5162-1.523.5162-.614 0-1.13-.1721-1.549-.5162-.413-.3499-.725-.826-.937-1.4282-.207-.6023-.31-1.2877-.31-2.0563s.103-1.454.31-2.0563c.212-.6022.524-1.0783.937-1.4282.419-.3498.935-.5248 1.549-.5248.608 0 1.116.175 1.523.5248.407.3499.714.826.92 1.4282.213.6023.319 1.2877.319 2.0563s-.106 1.454-.319 2.0563c-.206.6022-.513 1.0783-.92 1.4282z" fill-rule="evenodd"/><path d="m155.34 21.6005v7.64h-3.666v-13.2152h3.493v2.3316h.155c.293-.7686.783-1.3766 1.472-1.824.688-.4531 1.522-.6797 2.503-.6797.918 0 1.718.2008 2.401.6023.682.4015 1.213.9751 1.591 1.7207.379.7399.568 1.6232.568 2.6499v8.4144h-3.665v-7.7605c.006-.8087-.201-1.4397-.619-1.8928-.419-.4589-.996-.6883-1.73-.6883-.493 0-.929.1061-1.308.3183-.372.2123-.665.522-.877.9292-.207.4015-.313.8862-.318 1.4541z"/><path d="m173.775 18.7785v-2.7532h-2.486v-3.1661h-3.666v3.1661h-1.806v2.7532h1.806v6.8829c-.005.8661.175 1.583.542 2.1509.368.5678.881.9865 1.54 1.2561.666.2696 1.44.3872 2.323.3528.477-.0172.881-.066 1.214-.1463.332-.0746.59-.1405.774-.1979l-.577-2.7273c-.091.0172-.223.043-.395.0774-.172.0287-.344.043-.517.043-.246 0-.464-.0373-.653-.1118-.184-.0746-.327-.2037-.431-.3872-.103-.1893-.154-.4531-.154-.7915v-6.4011z"/><path d="m176.163 29.2405v-13.2152h3.553v2.3058h.137c.241-.8202.646-1.4397 1.214-1.8584.567-.4245 1.221-.6367 1.961-.6367.184 0 .382.0115.594.0344.212.023.399.0545.559.0947v3.2521c-.172-.0516-.41-.0975-.714-.1376-.304-.0402-.582-.0602-.835-.0602-.539 0-1.021.1175-1.445.3527-.419.2294-.751.5506-.998.9636-.241.413-.361.8891-.361 1.4282v7.4766z"/><path clip-rule="evenodd" d="m187.965 28.6468c.975.5679 2.13.8518 3.467.8518 1.336 0 2.489-.2839 3.458-.8518.976-.5735 1.727-1.3708 2.255-2.3918.527-1.0267.791-2.2168.791-3.5705 0-1.3651-.264-2.5581-.791-3.5791-.528-1.0267-1.279-1.824-2.255-2.3918-.969-.5736-2.122-.8604-3.458-.8604-1.337 0-2.492.2868-3.467.8604-.97.5678-1.718 1.3651-2.246 2.3918-.528 1.021-.792 2.214-.792 3.5791 0 1.3537.264 2.5438.792 3.5705.528 1.021 1.276 1.8183 2.246 2.3918zm5.007-2.5036c-.407.3441-.915.5162-1.523.5162-.614 0-1.13-.1721-1.549-.5162-.413-.3499-.725-.826-.937-1.4282-.207-.6023-.31-1.2877-.31-2.0563s.103-1.454.31-2.0563c.212-.6022.524-1.0783.937-1.4282.419-.3498.935-.5248 1.549-.5248.608 0 1.116.175 1.523.5248.407.3499.714.826.92 1.4282.213.6023.319 1.2877.319 2.0563s-.106 1.454-.319 2.0563c-.206.6022-.513 1.0783-.92 1.4282z" fill-rule="evenodd"/><path d="m203.985 29.2405h-3.666v-17.6203h3.666z"/><path d="m77.2725 45.1139v-7.2911h1.1203v7.2911z"/><path d="m77.8422 36.6076c-.2184 0-.4067-.0744-.5649-.2231-.1551-.1487-.2326-.3275-.2326-.5364 0-.2088.0775-.3876.2326-.5364.1582-.1487.3465-.2231.5649-.2231.2183 0 .405.0744.5601.2231.1582.1488.2373.3276.2373.5364 0 .2089-.0791.3877-.2373.5364-.1551.1487-.3418.2231-.5601.2231z"/><path clip-rule="evenodd" d="m46.2911 45.1139v-9.7215h1.1203v3.5886h.0949c.0823-.1266.1962-.2879.3418-.4842.1487-.1993.3608-.3765.6361-.5316.2785-.1582.655-.2373 1.1297-.2373.6139 0 1.1551.1534 1.6234.4604.4684.307.8339.7421 1.0966 1.3054.2626.5633.3939 1.2278.3939 1.9937 0 .7721-.1313 1.4414-.3939 2.0079-.2627.5633-.6266 1-1.0918 1.3101-.4652.307-1.0016.4604-1.6092.4604-.4683 0-.8433-.0775-1.125-.2326-.2816-.1582-.4984-.337-.6503-.5363-.1519-.2026-.269-.3703-.3513-.5032h-.1329v1.1202zm1.1013-3.6455c0 .5506.0807 1.0364.2421 1.4572.1614.4178.3971.7453.7073.9826.3101.2342.6898.3513 1.1392.3513.4684 0 .8592-.1234 1.1725-.3702.3164-.25.5538-.5855.712-1.0064.1614-.424.2421-.8955.2421-1.4145 0-.5127-.0791-.9747-.2373-1.3861-.1551-.4146-.3909-.7421-.7073-.9826-.3133-.2437-.7073-.3655-1.182-.3655-.4557 0-.8386.1155-1.1487.3465-.3101.2279-.5443.5475-.7026.9589-.1582.4082-.2373.8845-.2373 1.4288z" fill-rule="evenodd"/><path d="m54.9019 47.8481c-.1899 0-.3592-.0158-.5079-.0474-.1487-.0285-.2516-.057-.3086-.0855l.2849-.9873c.2721.0696.5126.0949.7215.0759.2088-.019.394-.1123.5554-.28.1645-.1646.3148-.432.4509-.8023l.2089-.5696-2.6962-7.3291h1.2151l2.0127 5.8101h.076l2.0126-5.8101h1.2152l-3.0949 8.3544c-.1393.3766-.3117.6883-.5174.9352-.2057.25-.4447.4351-.7168.5553-.269.1203-.5728.1804-.9114.1804z"/><path d="m66.9375 35.3924h-1.4051v9.7215h1.1013v-7.386h.0949l3.038 7.386h1.0633l3.038-7.386h.0949v7.386h1.1013v-9.7215h-1.4051l-3.3038 8.0696h-.1139z"/><path d="m81.6408 44.7817c.4937.3227 1.0823.4841 1.7658.4841.538 0 1.0095-.0996 1.4146-.299.4082-.2025.7358-.4747.9826-.8165.25-.3449.4066-.7326.4699-1.1629h-1.1202c-.0696.2658-.1867.4936-.3513.6835-.1645.1899-.3655.3354-.6028.4367-.2374.1013-.5016.1519-.7928.1519-.443 0-.8291-.1155-1.1582-.3465-.3259-.231-.5791-.5554-.7595-.9731-.1772-.4177-.2658-.9082-.2658-1.4715 0-.5507.0902-1.0301.2706-1.4383.1835-.4114.4383-.7295.7642-.9541.3291-.2279.712-.3418 1.1487-.3418.4937 0 .8861.1297 1.1773.3892.2943.2564.4841.5507.5696.8829h1.1202c-.0633-.4557-.2262-.8544-.4889-1.1962-.2626-.3417-.5997-.6076-1.0111-.7974-.4114-.1899-.8734-.2848-1.386-.2848-.6583 0-1.2342.1614-1.7279.4841-.4905.3197-.8734.7643-1.1487 1.3339-.2722.5665-.4083 1.2199-.4083 1.9604 0 .7279.133 1.375.3988 1.9415s.6456 1.0111 1.1392 1.3339z"/><path d="m87.9114 45.1139v-7.2911h1.0823v1.1013h.0759c.1329-.3608.3734-.6535.7215-.8782s.7405-.337 1.1773-.337c.0822 0 .1851.0016.3085.0047.1234.0032.2168.0079.2801.0143v1.1392c-.038-.0095-.125-.0237-.2611-.0427-.1329-.0222-.2737-.0332-.4225-.0332-.3544 0-.6709.0743-.9494.2231-.2753.1455-.4936.3481-.655.6075-.1582.2564-.2374.5491-.2374.8782v4.6139z"/><g clip-rule="evenodd" fill-rule="evenodd"><path d="m93.8924 44.7959c.4968.3133 1.0744.4699 1.7326.4699s1.2342-.1566 1.7278-.4699c.4969-.3133.883-.7516 1.1583-1.3149.2785-.5633.4177-1.2215.4177-1.9747 0-.7595-.1392-1.4224-.4177-1.9889-.2753-.5664-.6614-1.0063-1.1583-1.3196-.4936-.3133-1.0696-.4699-1.7278-.4699s-1.2358.1566-1.7326.4699c-.4937.3133-.8797.7532-1.1582 1.3196-.2753.5665-.413 1.2294-.413 1.9889 0 .7532.1377 1.4114.413 1.9747.2785.5633.6645 1.0016 1.1582 1.3149zm2.9668-.9209c-.3228.2563-.7342.3845-1.2342.3845s-.9114-.1282-1.2342-.3845-.5617-.5933-.7168-1.0111c-.155-.4177-.2325-.8702-.2325-1.3576 0-.4873.0775-.9414.2325-1.3623.1551-.4209.394-.7611.7168-1.0206s.7342-.3892 1.2342-.3892.9114.1297 1.2342.3892.5617.5997.7168 1.0206c.155.4209.2325.875.2325 1.3623 0 .4874-.0775.9399-.2325 1.3576-.1551.4178-.394.7548-.7168 1.0111z"/><path d="m103.582 48c-.541 0-1.006-.0696-1.396-.2088-.389-.1361-.713-.3165-.973-.5412-.256-.2215-.46-.4588-.612-.712l.892-.6266c.102.1329.23.2848.385.4557.155.1741.367.3244.636.451.272.1297.628.1946 1.068.1946.588 0 1.074-.1424 1.457-.4272.383-.2849.575-.7311.575-1.3387v-1.481h-.095c-.083.133-.2.2975-.352.4937-.148.193-.364.3655-.645.5174-.279.1487-.655.2231-1.13.2231-.589 0-1.117-.1392-1.585-.4177-.466-.2785-.834-.6835-1.106-1.2152-.269-.5316-.404-1.1772-.404-1.9367 0-.7468.131-1.3972.394-1.951.263-.5569.628-.9873 1.097-1.2911.468-.307 1.009-.4604 1.623-.4604.475 0 .851.0791 1.13.2373.281.1551.497.3323.645.5316.152.1963.269.3576.352.4842h.114v-1.1582h1.082v7.5c0 .6266-.143 1.1361-.427 1.5285-.282.3956-.662.6851-1.14.8687-.474.1867-1.003.28-1.585.28zm-.038-4.0063c.449 0 .829-.1029 1.139-.3086s.546-.5015.707-.8876c.162-.3861.243-.8481.243-1.3861 0-.5253-.08-.9889-.238-1.3908s-.392-.7168-.702-.9446c-.31-.2279-.693-.3418-1.149-.3418-.475 0-.87.1202-1.187.3608-.313.2405-.549.5632-.707.9683-.155.4051-.233.8544-.233 1.3481 0 .5063.079.9541.238 1.3434.161.386.398.6898.712.9114.316.2183.709.3275 1.177.3275z"/><path d="m110.023 44.8006c.51.3102 1.116.4652 1.818.4652.494 0 .939-.0759 1.334-.2278.396-.1551.728-.3703.997-.6456.269-.2785.461-.6012.574-.9683l-1.082-.3038c-.095.2531-.229.4652-.403.636-.174.1678-.382.2943-.622.3798-.237.0823-.503.1234-.798.1234-.452 0-.849-.0981-1.191-.2943-.342-.1994-.609-.4889-.802-.8687-.172-.3472-.267-.7633-.283-1.2484h5.295v-.4747c0-.6803-.09-1.2531-.27-1.7183-.181-.4652-.423-.8386-.726-1.1203-.304-.2848-.641-.4905-1.012-.6171-.37-.1265-.745-.1898-1.125-.1898-.658 0-1.234.1614-1.727.4841-.491.3197-.874.7659-1.149 1.3386-.272.5697-.408 1.2279-.408 1.9747 0 .7469.136 1.4019.408 1.9652.275.5601.666.9969 1.172 1.3101zm-.455-3.9208c.022-.3383.107-.6579.256-.9589.174-.3513.422-.6361.745-.8544.326-.2215.712-.3323 1.158-.3323.406 0 .757.0933 1.054.2801.301.1867.532.4414.693.7642.165.3228.247.6899.247 1.1013z"/></g><path d="m117.685 40.7279v4.386h-1.121v-7.2911h1.083v1.1392h.095c.171-.3702.43-.6677.778-.8924.348-.2278.798-.3417 1.348-.3417.494 0 .926.1012 1.296.3038.37.1993.658.5031.864.9114.206.405.309.9177.309 1.5379v4.6329h-1.121v-4.5569c0-.5728-.148-1.019-.446-1.3386-.297-.3228-.706-.4842-1.225-.4842-.357 0-.677.0775-.958.2326-.279.155-.499.3813-.66.6788-.162.2975-.242.6582-.242 1.0823z"/><path clip-rule="evenodd" d="m125.623 44.8006c.509.3102 1.115.4652 1.818.4652.493 0 .938-.0759 1.334-.2278.395-.1551.727-.3703.996-.6456.269-.2785.461-.6012.575-.9683l-1.083-.3038c-.094.2531-.229.4652-.403.636-.174.1678-.381.2943-.622.3798-.237.0823-.503.1234-.797.1234-.453 0-.85-.0981-1.192-.2943-.342-.1994-.609-.4889-.802-.8687-.172-.3472-.266-.7633-.282-1.2484h5.295v-.4747c0-.6803-.091-1.2531-.271-1.7183s-.422-.8386-.726-1.1203c-.304-.2848-.641-.4905-1.011-.6171-.371-.1265-.746-.1898-1.125-.1898-.658 0-1.234.1614-1.728.4841-.491.3197-.874.7659-1.149 1.3386-.272.5697-.408 1.2279-.408 1.9747 0 .7469.136 1.4019.408 1.9652.275.5601.666.9969 1.173 1.3101zm-.455-3.9208c.021-.3383.106-.6579.255-.9589.174-.3513.423-.6361.746-.8544.325-.2215.712-.3323 1.158-.3323.405 0 .756.0933 1.054.2801.3.1867.531.4414.693.7642.164.3228.246.6899.246 1.1013z" fill-rule="evenodd"/><path d="m135.335 37.8228v.9494h-1.557v4.2531c0 .3165.046.5538.137.7121.095.155.216.2594.361.3132.149.0507.305.076.47.076.123 0 .225-.0063.304-.019l.19-.038.228 1.0064c-.076.0284-.182.0569-.318.0854-.137.0317-.309.0475-.518.0475-.316 0-.626-.0681-.93-.2041-.301-.1361-.551-.3434-.75-.6219-.196-.2785-.295-.6297-.295-1.0538v-4.5569h-1.101v-.9494h1.101v-1.7468h1.121v1.7468z"/><path d="m137.02 37.8228v7.2911h1.12v-7.2911z"/><path d="m137.025 36.3845c.158.1487.346.2231.564.2231.219 0 .405-.0744.561-.2231.158-.1487.237-.3275.237-.5364 0-.2088-.079-.3876-.237-.5364-.156-.1487-.342-.2231-.561-.2231-.218 0-.406.0744-.564.2231-.156.1488-.233.3276-.233.5364 0 .2089.077.3877.233.5364z"/><path d="m143.154 45.2658c-.684 0-1.272-.1614-1.766-.4841-.494-.3228-.873-.7674-1.139-1.3339s-.399-1.2136-.399-1.9415c0-.7405.136-1.3939.408-1.9604.276-.5696.659-1.0142 1.149-1.3339.494-.3227 1.07-.4841 1.728-.4841.513 0 .975.0949 1.386.2848.411.1898.748.4557 1.011.7974.263.3418.426.7405.489 1.1962h-1.12c-.086-.3322-.276-.6265-.57-.8829-.291-.2595-.683-.3892-1.177-.3892-.437 0-.82.1139-1.149.3418-.326.2246-.581.5427-.764.9541-.18.4082-.271.8876-.271 1.4383 0 .5633.089 1.0538.266 1.4715.181.4177.434.7421.76.9731.329.231.715.3465 1.158.3465.291 0 .555-.0506.793-.1519.237-.1013.438-.2468.602-.4367.165-.1899.282-.4177.352-.6835h1.12c-.063.4303-.22.818-.47 1.1629-.247.3418-.574.614-.983.8165-.405.1994-.876.299-1.414.299z"/><path d="m151.817 39.7405 1.006-.2848c-.174-.519-.468-.9367-.883-1.2532-.411-.3164-.978-.4746-1.699-.4746-.513 0-.972.0902-1.377.2705-.402.1804-.72.4288-.954.7453-.231.3164-.346.6804-.346 1.0918 0 .5031.155.9224.465 1.2579.313.3322.804.5775 1.471.7357l1.216.2848c.367.0855.639.2152.816.3893.177.1709.266.3829.266.6361 0 .3132-.155.5822-.465.8069-.307.2215-.722.3323-1.244.3323-.459 0-.831-.0981-1.115-.2943-.282-.1962-.474-.4905-.575-.8829l-1.063.2658c.13.6203.438 1.0918.925 1.4146.488.3227 1.103.4841 1.847.4841.566 0 1.063-.0949 1.491-.2848.427-.1898.759-.4493.996-.7785.241-.3291.361-.7025.361-1.1202 0-.5095-.16-.9256-.479-1.2484-.32-.326-.806-.5681-1.458-.7263l-1.082-.2658c-.43-.1076-.747-.2421-.949-.4035-.203-.1614-.304-.3813-.304-.6598 0-.3133.147-.5712.441-.7737.298-.2057.67-.3086 1.116-.3086.326 0 .593.0522.802.1567.209.1044.374.2373.494.3987.123.1582.217.3212.28.4889z"/></g></svg>