<svg fill="none" height="48" viewBox="0 0 232 48" width="232" xmlns="http://www.w3.org/2000/svg"><path clip-rule="evenodd" d="m206.989 28.6452c-1.166-2.0166-1.839-4.357-1.839-6.8534 0-7.5743 6.148-13.71807 13.722-13.71807 1.289 0 2.324 1.04447 2.324 2.33297 0 1.2884-1.044 2.3335-2.332 2.3335-4.999 0-9.051 4.0524-9.051 9.0513 0 1.6486.445 3.1919 1.215 4.5232.198.3423.308.7398.308 1.1639 0 1.2885-1.045 2.3329-2.334 2.3329-.862 0-1.609-.4708-2.013-1.1663zm6.894-12.2332c-1.446 1.3388-2.351 3.2537-2.351 5.3795 0 1.3346.36 2.5826.985 3.6624.349.605.538 1.2996.538 2.0247 0 1.6196-.949 3.0167-2.322 3.666 1.883.5818 3.993.4081 5.834-.6545 1.156-.6674 2.057-1.6036 2.68-2.6846.349-.6041.856-1.1156 1.484-1.4779 1.402-.8101 3.087-.6861 4.336.1786-.437-1.9216-1.643-3.6627-3.484-4.7256-1.156-.6675-2.417-.9796-3.665-.9787-.697 0-1.394-.1837-2.022-.5459-1.402-.8095-2.138-2.3309-2.013-3.844zm10.891 14.5857c-1.163 2.0178-2.853 3.7713-5.015 5.0197-6.56 3.7867-14.954 1.5346-18.742-5.0248-.644-1.1156-.257-2.535.859-3.1786 1.116-.6446 2.542-.2633 3.187.8523 2.499 4.329 8.035 5.8123 12.364 3.3129 1.428-.824 2.542-1.9816 3.309-3.3141.198-.3423.488-.6361.855-.8484 1.116-.6437 2.542-.2615 3.186.8544.432.7468.398 1.6293-.003 2.3266zm-6.855-16.5787c2.329-.0013 4.693.586 6.855 1.8343 6.559 3.787 8.806 12.1832 5.019 18.7426-.644 1.1156-2.066 1.4899-3.182.846-1.116-.6446-1.499-2.0706-.855-3.1865 2.499-4.329 1.016-9.8644-3.313-12.3644-1.428-.8243-2.987-1.2101-4.525-1.2089-.396 0-.795-.1037-1.162-.3155-1.116-.6445-1.498-2.0711-.854-3.1868.432-.7467 1.213-1.1593 2.017-1.1608z" fill="#97999b" fill-rule="evenodd"/><g fill="#00a3e0"><path d="m42.2318 37.2977h4.7005v-16.3996c0-6.2357-5.045-11.30878-11.2463-11.30878-2.368 0-4.656.73868-6.5458 2.09738v-11.6867h-4.7627v37.2811h4.7627v-16.383c0-3.6093 2.9364-6.5461 6.5458-6.5461 3.6096 0 6.5458 2.9368 6.5458 6.5461z"/><path clip-rule="evenodd" d="m4.78471 48h-4.78471v-27.1393c0-6.2831 5.11165-11.39503 11.395-11.39503h.5806c6.2834 0 11.3951 5.11223 11.3951 11.39503v5.1171c0 6.2834-5.1117 11.3953-11.3951 11.3953h-.5806c-2.39261 0-4.70353-.7479-6.61029-2.1239zm6.61029-33.7496c-3.6449 0-6.61031 2.9654-6.61031 6.6103v5.1171c0 3.6449 2.96541 6.6103 6.61031 6.6103h.5806c3.645 0 6.6107-2.9654 6.6107-6.6103v-5.1171c0-3.6449-2.9657-6.6103-6.6107-6.6103z" fill-rule="evenodd"/><path d="m70.9997 37.279h-4.5328v-16.4349c0-3.7173-3.0243-6.7418-6.7416-6.7418h-.5821c-3.7173 0-6.7418 3.0245-6.7418 6.7418v5.1201c0 3.7173 3.0245 6.7416 6.7418 6.7416h.5821c1.7979 0 3.511-.694 4.8236-1.9545l1.315-1.3071v1.1714c0 .6744-.0051 1.8278-.0096 2.8276l-.0019.4334c-.0026.5776-.0047 1.0615-.0047 1.3039v.2723l-.232.1427c-1.7469 1.0749-3.784 1.6434-5.8904 1.6434h-.5821c-6.2167 0-11.2744-5.0579-11.2744-11.2747v-5.1201c0-6.2167 5.0577-11.27438 11.2744-11.27438h.5821c6.2168 0 11.2744 5.05768 11.2744 11.27438z"/><path clip-rule="evenodd" d="m185.161 37.2371h-.582c-6.195 0-11.253-5.041-11.274-11.237v-5.1575c0-6.2167 5.058-11.27408 11.274-11.27408h.582c6.217 0 11.274 5.05738 11.274 11.27408v5.1204c-.018 6.2171-5.076 11.2741-11.274 11.2741zm-.582-23.1363c-3.717 0-6.742 3.0245-6.742 6.7418v5.1204c0 3.717 3.025 6.7413 6.742 6.7413h.582c3.718 0 6.742-3.0243 6.742-6.7413v-5.1204c0-3.7173-3.024-6.7418-6.742-6.7418z" fill-rule="evenodd"/><path d="m71.9959 37.2371h4.5326v-16.3945c0-3.7173 3.0239-6.7415 6.7391-6.7415.9145.0033 1.8006.1867 2.6334.545l.6798.2922v-4.87l-.358-.09865c-.8834-.2431-1.7979-.37701-2.7229-.39843l-.2308-.00271c-2.4415.00151-4.7983.79349-6.7406 2.24849v-2.25784h-4.5326z"/><path d="m128.047 37.2371h-4.533v-16.3945c0-3.7043-3.011-6.7286-6.714-6.7415-3.715 0-6.738 3.0242-6.738 6.7415v16.3945h-4.533v-16.3945c0-3.7043-3.012-6.7286-6.7132-6.7415-3.7152 0-6.7391 3.0242-6.7391 6.7415v16.3945h-4.5326v-27.67794h4.5326v2.25784c1.9424-1.455 4.2991-2.24698 6.7406-2.24849l.2305.00271c3.4572.08053 6.6762 1.75028 8.7492 4.50268 2.131-2.8315 5.448-4.50328 9.005-4.50539l.231.00271c6.075.14115 11.014 5.19728 11.014 11.27138z"/><path d="m147.736 37.279h4.533v-16.4349c0-6.2167-5.058-11.27438-11.274-11.27438h-.583c-6.217 0-11.274 5.05768-11.274 11.27438v5.1201c0 6.2168 5.057 11.2747 11.274 11.2747h.583c2.106 0 4.142-.5685 5.89-1.6434l.232-.1427v-.2723c0-.2779.002-.8731.005-1.5631l.002-.355v-.0045c.004-.9538.009-2.0091.009-2.6423v-1.1714l-1.315 1.3071c-1.312 1.2605-3.026 1.9545-4.823 1.9545h-.583c-3.718 0-6.741-3.0243-6.741-6.7416v-5.1201c0-3.7173 3.023-6.7418 6.741-6.7418h.583c3.717 0 6.741 3.0245 6.741 6.7418z"/><path d="m154.258 37.2395h-.987v-4.5371h.986c3.707-.0096 6.723-3.0326 6.723-6.7382v-5.1201c0-3.7061-3.016-6.7294-6.724-6.7391h-.985v-4.53648h.986c3.677.00572 6.948 1.78358 9.003 4.52268 2.054-2.7365 5.322-4.51393 8.995-4.52268h.988v4.53648h-.987c-3.703.0121-6.717 3.0354-6.717 6.7391v5.1201c0 3.6974 3.009 6.7202 6.708 6.7382h.984v4.5371h-.986c-3.669-.0117-6.933-1.7893-8.985-4.5236-2.055 2.7385-5.326 4.5167-9.002 4.5236z"/></g></svg>