<svg fill="none" height="36" viewBox="0 0 212 36" width="212" xmlns="http://www.w3.org/2000/svg"><path d="m131.436 35.3337h-1.026c-6.197 0-11.238-5.0417-11.238-11.2387v-5.074c0-3.6494-2.968-6.6185-6.618-6.6185h-2.506c-3.649 0-6.618 2.9691-6.618 6.6185v5.074c0 3.6491 2.969 6.6179 6.618 6.6179h2.506c1.766 0 3.448-.6807 4.737-1.9194l1.08-1.0749.297.7951c.403 1.0801.964 2.0928 1.669 3.0091l.296.3861-.348.3395c-2.048 1.9894-4.793 3.0853-7.731 3.0853h-2.506c-6.197 0-11.2378-5.0417-11.2378-11.2387v-5.074c0-6.197 5.0408-11.2385 11.2378-11.2385h2.506c6.197 0 11.238 5.0415 11.238 11.2385v5.074c0 3.6491 2.969 6.6179 6.618 6.6179h1.026z" fill="#97999b"/><path d="m133.815 35.3337h-1.027v-4.6208h1.027c3.648 0 6.616-2.9688 6.616-6.6179v-5.074c0-6.197 5.042-11.2385 11.239-11.2385h1.026v4.62h-1.026c-3.649 0-6.617 2.9691-6.617 6.6185v5.074c0 6.197-5.042 11.2387-11.238 11.2387z" fill="#97999b"/><path d="m165.532 35.3337h.005l.229-.0043c6.052-.1392 10.975-5.1799 10.975-11.2344v-16.31223h-4.621v16.31223c0 3.637-2.957 6.6056-6.588 6.6179-3.648 0-6.616-2.9688-6.616-6.6179v-16.31223h-4.622v16.31223c0 6.1921 5.042 11.2335 11.238 11.2387z" fill="#97999b"/><g fill="#00a3e0"><path clip-rule="evenodd" d="m11.3572 35.4259h2.505c6.2624 0 11.3572-5.0953 11.3572-11.3583v-5.0712c0-6.2627-5.0948-11.35748-11.3572-11.35748h-2.505c-2.34257 0-4.60662.71903-6.48749 2.04443v-9.68335h-4.86971v24.0676c0 6.263 5.0948 11.3583 11.3572 11.3583zm-6.48749-16.4295c0-3.5774 2.91006-6.4878 6.48749-6.4878h2.505c3.5768 0 6.4875 2.9104 6.4875 6.4878v5.0712c0 3.5775-2.9107 6.4883-6.4875 6.4883h-2.505c-3.57743 0-6.48749-2.9108-6.48749-6.4883z" fill-rule="evenodd"/><path d="m71.8911 35.3767h1.1512v-4.8492h-1.1512c-3.5421 0-6.4237-2.8814-6.4237-6.424v-11.4494l4.6162-.0043v-4.83475l-.5369-.00984s-1.6044-.02982-4.0793-.03693v-7.541273h-4.8481v23.876493c0 6.2159 5.0568 11.2732 11.2718 11.2732z"/><path d="m97.2918 35.3923h-4.7857v-16.3177c0-3.5424-2.8819-6.4243-6.4243-6.4243-3.5416 0-6.4235 2.8819-6.4235 6.4243v16.3021h-4.8486v-35.149693h4.8486v9.593913c1.8637-1.30844 4.1048-2.01872 6.4235-2.01872 6.1812 0 11.21 5.0568 11.21 11.2724z"/><path d="m58.713 35.3337h1.0256v-4.6208h-1.0256c-3.6491 0-6.6179-2.9688-6.6179-6.6179v-5.074c0-6.197-5.0412-11.2385-11.2377-11.2385h-2.5058c-6.197 0-11.238 5.0415-11.238 11.2385v5.074c0 6.197 5.041 11.2387 11.238 11.2387h2.5058c2.938 0 5.6831-1.0959 7.7297-3.0853l.3493-.3394-.2965-.3862c-.7059-.9185-1.2671-1.9307-1.6689-3.0091l-.2962-.7951-1.0809 1.0749c-1.289 1.2387-2.9708 1.9194-4.7365 1.9194h-2.5058c-3.6491 0-6.618-2.9688-6.618-6.6179v-5.074c0-3.6494 2.9689-6.6185 6.618-6.6185h2.5058c3.6491 0 6.6179 2.9691 6.6179 6.6185v5.074c0 6.197 5.0412 11.2387 11.2377 11.2387z"/><path d="m188.959 28.0277c-.852 0-1.65-.4628-2.082-1.2059-1.201-2.0786-1.836-4.4449-1.836-6.8427 0-7.5514 6.145-13.69511 13.7-13.69511 1.324 0 2.403 1.0817 2.403 2.41119 0 1.33002-1.082 2.41172-2.411 2.41172-4.892 0-8.871 3.9803-8.871 8.8722 0 1.5532.411 3.0853 1.19 4.4326.209.3616.319.7779.319 1.2034 0 1.3301-1.082 2.4126-2.412 2.4126z"/><path d="m191.466 19.9791c0-2.1074.897-4.0047 2.33-5.332-.124 1.5002.605 3.0072 1.996 3.8096.621.3597 1.312.5416 2.004.5416 1.236-.0008 2.486.3079 3.631.9693 1.826 1.0541 3.021 2.7796 3.454 4.6842-1.238-.8571-2.908-.9796-4.298-.1772-.623.3591-1.124.8657-1.471 1.4646-.617 1.0721-1.51 1.9999-2.655 2.6612-1.826 1.053-3.917 1.2253-5.782.6487 1.359-.6441 2.3-2.0288 2.3-3.634 0-.7176-.187-1.4069-.533-2.0061-.618-1.0702-.976-2.3078-.976-3.6299z"/><path d="m192.838 36c-4.888 0-9.44-2.6262-11.879-6.8526-.663-1.1471-.264-2.6212.887-3.285 1.118-.6458 2.656-.2265 3.293.8804 1.581 2.7372 4.529 4.4373 7.692 4.4373 1.548 0 3.079-.4116 4.427-1.1898 1.346-.7762 2.467-1.8994 3.245-3.2486.209-.3616.515-.6646.883-.8769 1.116-.6463 2.654-.2251 3.294.8826.427.7393.424 1.6615-.004 2.4057-1.199 2.0787-2.929 3.8118-5.006 5.0112-2.081 1.2009-4.442 1.8357-6.832 1.8357z"/><path d="m206.361 33.9898c.369.2141.788.326 1.21.326.855 0 1.652-.4598 2.079-1.1999 1.83-3.1677 2.316-6.8591 1.369-10.3942-.947-3.5361-3.213-6.4899-6.379-8.318-2.075-1.1982-4.439-1.8311-6.844-1.8311-.86.0019-1.659.4617-2.085 1.1996-.664 1.1514-.269 2.6295.882 3.2946.37.2133.786.326 1.211.326 1.553 0 3.084.4097 4.426 1.1846 4.236 2.4462 5.692 7.8826 3.248 12.1194-.666 1.1512-.269 2.6281.883 3.293z"/></g></svg>